G04 #@! TF.GenerationSoftware,KiCad,Pcbnew,(2018-02-14 revision 6afdf1cf8)-makepkg*
G04 #@! TF.CreationDate,2018-04-28T14:04:20-07:00*
G04 #@! TF.ProjectId,reflections,7265666C656374696F6E732E6B696361,rev?*
G04 #@! TF.SameCoordinates,Original*
G04 #@! TF.FileFunction,Soldermask,Top*
G04 #@! TF.FilePolarity,Negative*
%FSLAX46Y46*%
G04 Gerber Fmt 4.6, Leading zero omitted, Abs format (unit mm)*
G04 Created by KiCad (PCBNEW (2018-02-14 revision 6afdf1cf8)-makepkg) date 04/28/18 14:04:20*
%MOMM*%
%LPD*%
G01*
G04 APERTURE LIST*
%ADD10R,1.650000X1.900000*%
%ADD11R,1.900000X1.650000*%
%ADD12O,2.100000X2.100000*%
%ADD13R,2.100000X2.100000*%
%ADD14R,1.700000X1.900000*%
%ADD15C,1.900000*%
%ADD16R,1.000000X1.900000*%
%ADD17R,1.000000X2.350000*%
%ADD18R,1.900000X1.000000*%
G04 APERTURE END LIST*
D10*
X95000000Y-7000000D03*
X95000000Y-9500000D03*
X188000000Y-12000000D03*
X188000000Y-9500000D03*
D11*
X392500000Y-2000000D03*
X395000000Y-2000000D03*
X8500000Y-18000000D03*
X6000000Y-18000000D03*
D12*
X217540000Y-2000000D03*
D13*
X215000000Y-2000000D03*
D12*
X187540000Y-2000000D03*
D13*
X185000000Y-2000000D03*
D12*
X106620000Y-3000000D03*
X104080000Y-3000000D03*
X101540000Y-3000000D03*
D13*
X99000000Y-3000000D03*
X210000000Y-2000000D03*
D12*
X207460000Y-2000000D03*
D13*
X398000000Y-6000000D03*
D12*
X398000000Y-8540000D03*
X398000000Y-11080000D03*
X398000000Y-13620000D03*
X2000000Y-7000000D03*
X2000000Y-9540000D03*
X2000000Y-12080000D03*
D13*
X2000000Y-14620000D03*
D14*
X200000000Y-14650000D03*
X200000000Y-17350000D03*
X14000000Y-17350000D03*
X14000000Y-14650000D03*
X14000000Y-8650000D03*
X14000000Y-11350000D03*
X386000000Y-2650000D03*
X386000000Y-5350000D03*
X386000000Y-11350000D03*
X386000000Y-8650000D03*
D15*
X206000000Y-13000000D03*
X203000000Y-17000000D03*
X95000000Y-13000000D03*
X100000000Y-16000000D03*
X16000000Y-7000000D03*
X16000000Y-14000000D03*
X384000000Y-13000000D03*
X384000000Y-7000000D03*
D16*
X98730000Y-7600000D03*
X100000000Y-7600000D03*
X101270000Y-7600000D03*
X102540000Y-7600000D03*
X103810000Y-7600000D03*
X105080000Y-7600000D03*
X106350000Y-7600000D03*
X107620000Y-7600000D03*
X107620000Y-13000000D03*
X106350000Y-13000000D03*
X105080000Y-13000000D03*
X103810000Y-13000000D03*
X102540000Y-13000000D03*
X101270000Y-13000000D03*
X100000000Y-13000000D03*
X98730000Y-13000000D03*
D17*
X202540000Y-12000000D03*
X201270000Y-12000000D03*
X200000000Y-12000000D03*
X198730000Y-12000000D03*
X197460000Y-12000000D03*
X196190000Y-12000000D03*
X194920000Y-12000000D03*
X193650000Y-12000000D03*
X192380000Y-12000000D03*
X191110000Y-12000000D03*
X191110000Y-2600000D03*
X192380000Y-2600000D03*
X193650000Y-2600000D03*
X194920000Y-2600000D03*
X196190000Y-2600000D03*
X197460000Y-2600000D03*
X198730000Y-2600000D03*
X200000000Y-2600000D03*
X201270000Y-2600000D03*
X202540000Y-2600000D03*
D18*
X389000000Y-5730000D03*
X389000000Y-7000000D03*
X389000000Y-8270000D03*
X389000000Y-9540000D03*
X389000000Y-10810000D03*
X389000000Y-12080000D03*
X389000000Y-13350000D03*
X389000000Y-14620000D03*
X394400000Y-14620000D03*
X394400000Y-13350000D03*
X394400000Y-12080000D03*
X394400000Y-10810000D03*
X394400000Y-9540000D03*
X394400000Y-8270000D03*
X394400000Y-7000000D03*
X394400000Y-5730000D03*
X5600000Y-15270000D03*
X5600000Y-14000000D03*
X5600000Y-12730000D03*
X5600000Y-11460000D03*
X5600000Y-10190000D03*
X5600000Y-8920000D03*
X5600000Y-7650000D03*
X5600000Y-6380000D03*
X11000000Y-6380000D03*
X11000000Y-7650000D03*
X11000000Y-8920000D03*
X11000000Y-10190000D03*
X11000000Y-11460000D03*
X11000000Y-12730000D03*
X11000000Y-14000000D03*
X11000000Y-15270000D03*
M02*
