G04 #@! TF.GenerationSoftware,KiCad,Pcbnew,(2018-02-14 revision 6afdf1cf8)-makepkg*
G04 #@! TF.CreationDate,2018-04-28T14:04:20-07:00*
G04 #@! TF.ProjectId,reflections,7265666C656374696F6E732E6B696361,rev?*
G04 #@! TF.SameCoordinates,Original*
G04 #@! TF.FileFunction,Copper,L1,Top,Signal*
G04 #@! TF.FilePolarity,Positive*
%FSLAX46Y46*%
G04 Gerber Fmt 4.6, Leading zero omitted, Abs format (unit mm)*
G04 Created by KiCad (PCBNEW (2018-02-14 revision 6afdf1cf8)-makepkg) date 04/28/18 14:04:20*
%MOMM*%
%LPD*%
G01*
G04 APERTURE LIST*
%ADD10R,1.250000X1.500000*%
%ADD11R,1.500000X1.250000*%
%ADD12O,1.700000X1.700000*%
%ADD13R,1.700000X1.700000*%
%ADD14R,1.300000X1.500000*%
%ADD15C,1.500000*%
%ADD16R,0.600000X1.500000*%
%ADD17R,0.600000X1.950000*%
%ADD18R,1.500000X0.600000*%
%ADD19C,0.800000*%
%ADD20C,0.250000*%
G04 APERTURE END LIST*
D10*
X95000000Y-7000000D03*
X95000000Y-9500000D03*
X188000000Y-12000000D03*
X188000000Y-9500000D03*
D11*
X392500000Y-2000000D03*
X395000000Y-2000000D03*
X8500000Y-18000000D03*
X6000000Y-18000000D03*
D12*
X217540000Y-2000000D03*
D13*
X215000000Y-2000000D03*
D12*
X187540000Y-2000000D03*
D13*
X185000000Y-2000000D03*
D12*
X106620000Y-3000000D03*
X104080000Y-3000000D03*
X101540000Y-3000000D03*
D13*
X99000000Y-3000000D03*
X210000000Y-2000000D03*
D12*
X207460000Y-2000000D03*
D13*
X398000000Y-6000000D03*
D12*
X398000000Y-8540000D03*
X398000000Y-11080000D03*
X398000000Y-13620000D03*
X2000000Y-7000000D03*
X2000000Y-9540000D03*
X2000000Y-12080000D03*
D13*
X2000000Y-14620000D03*
D14*
X200000000Y-14650000D03*
X200000000Y-17350000D03*
X14000000Y-17350000D03*
X14000000Y-14650000D03*
X14000000Y-8650000D03*
X14000000Y-11350000D03*
X386000000Y-2650000D03*
X386000000Y-5350000D03*
X386000000Y-11350000D03*
X386000000Y-8650000D03*
D15*
X206000000Y-13000000D03*
X203000000Y-17000000D03*
X95000000Y-13000000D03*
X100000000Y-16000000D03*
X16000000Y-7000000D03*
X16000000Y-14000000D03*
X384000000Y-13000000D03*
X384000000Y-7000000D03*
D16*
X98730000Y-7600000D03*
X100000000Y-7600000D03*
X101270000Y-7600000D03*
X102540000Y-7600000D03*
X103810000Y-7600000D03*
X105080000Y-7600000D03*
X106350000Y-7600000D03*
X107620000Y-7600000D03*
X107620000Y-13000000D03*
X106350000Y-13000000D03*
X105080000Y-13000000D03*
X103810000Y-13000000D03*
X102540000Y-13000000D03*
X101270000Y-13000000D03*
X100000000Y-13000000D03*
X98730000Y-13000000D03*
D17*
X202540000Y-12000000D03*
X201270000Y-12000000D03*
X200000000Y-12000000D03*
X198730000Y-12000000D03*
X197460000Y-12000000D03*
X196190000Y-12000000D03*
X194920000Y-12000000D03*
X193650000Y-12000000D03*
X192380000Y-12000000D03*
X191110000Y-12000000D03*
X191110000Y-2600000D03*
X192380000Y-2600000D03*
X193650000Y-2600000D03*
X194920000Y-2600000D03*
X196190000Y-2600000D03*
X197460000Y-2600000D03*
X198730000Y-2600000D03*
X200000000Y-2600000D03*
X201270000Y-2600000D03*
X202540000Y-2600000D03*
D18*
X389000000Y-5730000D03*
X389000000Y-7000000D03*
X389000000Y-8270000D03*
X389000000Y-9540000D03*
X389000000Y-10810000D03*
X389000000Y-12080000D03*
X389000000Y-13350000D03*
X389000000Y-14620000D03*
X394400000Y-14620000D03*
X394400000Y-13350000D03*
X394400000Y-12080000D03*
X394400000Y-10810000D03*
X394400000Y-9540000D03*
X394400000Y-8270000D03*
X394400000Y-7000000D03*
X394400000Y-5730000D03*
X5600000Y-15270000D03*
X5600000Y-14000000D03*
X5600000Y-12730000D03*
X5600000Y-11460000D03*
X5600000Y-10190000D03*
X5600000Y-8920000D03*
X5600000Y-7650000D03*
X5600000Y-6380000D03*
X11000000Y-6380000D03*
X11000000Y-7650000D03*
X11000000Y-8920000D03*
X11000000Y-10190000D03*
X11000000Y-11460000D03*
X11000000Y-12730000D03*
X11000000Y-14000000D03*
X11000000Y-15270000D03*
D19*
X390652000Y-2286000D03*
X390906000Y-14732000D03*
X386588000Y-12954000D03*
X382524000Y-11430000D03*
X187960000Y-7620000D03*
X204724000Y-14478000D03*
X201930000Y-13970000D03*
X203962000Y-2540000D03*
X107442000Y-11176000D03*
X96520000Y-9652000D03*
X96012000Y-14732000D03*
X8890000Y-16510000D03*
X16510000Y-8636000D03*
X13970000Y-7112000D03*
X12446000Y-6350000D03*
X92964000Y-1524000D03*
X95504000Y-1524000D03*
D20*
X390938000Y-2000000D02*
X390652000Y-2286000D01*
X392500000Y-2000000D02*
X390938000Y-2000000D01*
X390794000Y-14620000D02*
X390906000Y-14732000D01*
X389000000Y-14620000D02*
X390794000Y-14620000D01*
X386000000Y-12366000D02*
X386588000Y-12954000D01*
X386000000Y-11350000D02*
X386000000Y-12366000D01*
X384000000Y-12906000D02*
X382524000Y-11430000D01*
X384000000Y-13000000D02*
X384000000Y-12906000D01*
X188000000Y-7660000D02*
X187960000Y-7620000D01*
X188000000Y-9500000D02*
X188000000Y-7660000D01*
X206000000Y-13202000D02*
X204724000Y-14478000D01*
X206000000Y-13000000D02*
X206000000Y-13202000D01*
X201270000Y-13310000D02*
X201930000Y-13970000D01*
X201270000Y-12000000D02*
X201270000Y-13310000D01*
X203902000Y-2600000D02*
X203962000Y-2540000D01*
X202540000Y-2600000D02*
X203902000Y-2600000D01*
X107620000Y-11354000D02*
X107442000Y-11176000D01*
X107620000Y-13000000D02*
X107620000Y-11354000D01*
X95000000Y-9500000D02*
X96368000Y-9500000D01*
X96368000Y-9500000D02*
X96520000Y-9652000D01*
X95000000Y-13720000D02*
X96012000Y-14732000D01*
X95000000Y-13000000D02*
X95000000Y-13720000D01*
X8890000Y-16510000D02*
X8890000Y-17610000D01*
X8890000Y-17610000D02*
X8500000Y-18000000D01*
X16000000Y-8126000D02*
X16510000Y-8636000D01*
X16000000Y-7000000D02*
X16000000Y-8126000D01*
X13970000Y-7112000D02*
X13970000Y-8620000D01*
X13970000Y-8620000D02*
X14000000Y-8650000D01*
X12416000Y-6380000D02*
X12446000Y-6350000D01*
X11000000Y-6380000D02*
X12416000Y-6380000D01*
X210000000Y-2000000D02*
X211100000Y-2000000D01*
X211100000Y-2000000D02*
X215000000Y-2000000D01*
X187540000Y-2000000D02*
X190510000Y-2000000D01*
X190510000Y-2000000D02*
X191110000Y-2600000D01*
X5842000Y-5343320D02*
X5973660Y-5211660D01*
X5600000Y-5585320D02*
X5842000Y-5343320D01*
X9144000Y-4826000D02*
X6359320Y-4826000D01*
X6359320Y-4826000D02*
X5842000Y-5343320D01*
X5600000Y-6380000D02*
X5600000Y-5585320D01*
X11097986Y-17350000D02*
X9497985Y-18950001D01*
X14000000Y-17350000D02*
X11097986Y-17350000D01*
X9497985Y-18950001D02*
X6075001Y-18950001D01*
X6075001Y-18950001D02*
X6000000Y-18875000D01*
X6000000Y-18875000D02*
X6000000Y-18000000D01*
X197723000Y-4282000D02*
X197955011Y-4514011D01*
X197955011Y-4514011D02*
X221291989Y-4514011D01*
X221291989Y-4514011D02*
X224847989Y-958011D01*
X224847989Y-958011D02*
X393833011Y-958011D01*
X394875000Y-2000000D02*
X395000000Y-2000000D01*
X393833011Y-958011D02*
X394875000Y-2000000D01*
X387806000Y-3556000D02*
X387806000Y-6171002D01*
X387806000Y-6171002D02*
X388009997Y-6374999D01*
X390075001Y-7644999D02*
X389450000Y-8270000D01*
X388009997Y-6374999D02*
X390008589Y-6374999D01*
X389450000Y-8270000D02*
X389000000Y-8270000D01*
X390008589Y-6374999D02*
X390075001Y-6441411D01*
X390075001Y-6441411D02*
X390075001Y-7644999D01*
X394400000Y-5730000D02*
X394400000Y-3637000D01*
X394400000Y-3637000D02*
X394319000Y-3556000D01*
X394400000Y-13350000D02*
X394400000Y-14620000D01*
X389000000Y-13350000D02*
X394400000Y-13350000D01*
X389000000Y-12080000D02*
X389000000Y-13350000D01*
X389000000Y-10810000D02*
X389000000Y-12080000D01*
X389000000Y-9540000D02*
X389000000Y-10810000D01*
X389000000Y-8270000D02*
X389000000Y-9540000D01*
X394319000Y-3556000D02*
X387806000Y-3556000D01*
X387806000Y-3556000D02*
X386900000Y-2650000D01*
X386900000Y-2650000D02*
X386000000Y-2650000D01*
X395000000Y-2000000D02*
X395000000Y-2875000D01*
X395000000Y-2875000D02*
X394319000Y-3556000D01*
X6000000Y-18000000D02*
X6125000Y-18000000D01*
X6125000Y-18000000D02*
X7252999Y-16872001D01*
X5600000Y-6380000D02*
X5600000Y-7650000D01*
X9144000Y-4826000D02*
X9144000Y-3048000D01*
X9144000Y-6858000D02*
X9144000Y-4826000D01*
X9144000Y-11684000D02*
X9144000Y-10414000D01*
X9144000Y-13462000D02*
X9144000Y-11684000D01*
X11000000Y-12730000D02*
X10000000Y-12730000D01*
X10000000Y-12730000D02*
X9144000Y-11874000D01*
X9144000Y-11874000D02*
X9144000Y-11684000D01*
X9144000Y-8128000D02*
X9144000Y-6858000D01*
X11000000Y-7650000D02*
X10000000Y-7650000D01*
X10000000Y-7650000D02*
X9208000Y-6858000D01*
X9208000Y-6858000D02*
X9144000Y-6858000D01*
X9144000Y-9398000D02*
X9144000Y-8128000D01*
X11000000Y-8920000D02*
X10000000Y-8920000D01*
X10000000Y-8920000D02*
X9208000Y-8128000D01*
X9208000Y-8128000D02*
X9144000Y-8128000D01*
X9144000Y-10414000D02*
X9144000Y-9398000D01*
X11000000Y-10190000D02*
X9936000Y-10190000D01*
X9936000Y-10190000D02*
X9144000Y-9398000D01*
X11000000Y-11460000D02*
X10000000Y-11460000D01*
X10000000Y-11460000D02*
X9144000Y-10604000D01*
X9144000Y-10604000D02*
X9144000Y-10414000D01*
X9144000Y-14986000D02*
X9144000Y-13462000D01*
X11176000Y-1016000D02*
X9144000Y-3048000D01*
X7130012Y-16999988D02*
X9144000Y-14986000D01*
X7125012Y-16999988D02*
X7130012Y-16999988D01*
X7125012Y-16999988D02*
X6125000Y-18000000D01*
X91890315Y-1016000D02*
X11176000Y-1016000D01*
X92964000Y-1524000D02*
X92398315Y-1524000D01*
X92398315Y-1524000D02*
X91890315Y-1016000D01*
X96520000Y-1524000D02*
X95000000Y-3044000D01*
X97028000Y-1016000D02*
X96520000Y-1524000D01*
X96520000Y-1524000D02*
X95504000Y-1524000D01*
X106350000Y-13000000D02*
X106350000Y-12000000D01*
X106350000Y-12000000D02*
X105526000Y-11176000D01*
X105526000Y-11176000D02*
X104256000Y-11176000D01*
X105080000Y-13000000D02*
X105080000Y-12000000D01*
X105080000Y-12000000D02*
X104256000Y-11176000D01*
X104256000Y-11176000D02*
X102986000Y-11176000D01*
X103810000Y-13000000D02*
X103810000Y-12000000D01*
X103810000Y-12000000D02*
X102986000Y-11176000D01*
X102986000Y-11176000D02*
X101716000Y-11176000D01*
X100446000Y-11176000D02*
X99528000Y-10258000D01*
X101270000Y-12000000D02*
X100446000Y-11176000D01*
X102540000Y-13000000D02*
X102540000Y-12000000D01*
X102540000Y-12000000D02*
X101716000Y-11176000D01*
X101716000Y-11176000D02*
X100446000Y-11176000D01*
X101270000Y-13000000D02*
X101270000Y-12000000D01*
X99528000Y-10258000D02*
X99528000Y-9398000D01*
X98730000Y-7600000D02*
X98730000Y-8600000D01*
X98730000Y-8600000D02*
X99528000Y-9398000D01*
X99528000Y-9398000D02*
X106350000Y-9398000D01*
X106350000Y-8600000D02*
X106350000Y-9398000D01*
X107620000Y-7600000D02*
X107620000Y-8600000D01*
X107620000Y-8600000D02*
X106822000Y-9398000D01*
X106822000Y-9398000D02*
X106350000Y-9398000D01*
X106350000Y-7600000D02*
X106350000Y-8600000D01*
X95000000Y-3044000D02*
X95000000Y-7000000D01*
X182916000Y-1016000D02*
X97028000Y-1016000D01*
X185000000Y-2000000D02*
X183900000Y-2000000D01*
X183900000Y-2000000D02*
X182916000Y-1016000D01*
X197368000Y-9963000D02*
X201178000Y-9963000D01*
X201178000Y-9963000D02*
X202540000Y-11325000D01*
X202540000Y-11325000D02*
X202540000Y-12000000D01*
X196190000Y-9963000D02*
X197368000Y-9963000D01*
X197368000Y-9963000D02*
X198730000Y-11325000D01*
X198730000Y-11325000D02*
X198730000Y-12000000D01*
X195326000Y-9099000D02*
X196190000Y-9963000D01*
X196190000Y-9963000D02*
X196190000Y-12000000D01*
X195326000Y-4282000D02*
X197723000Y-4282000D01*
X195183000Y-4282000D02*
X195326000Y-4282000D01*
X193650000Y-12000000D02*
X193650000Y-10775000D01*
X193650000Y-10775000D02*
X195326000Y-9099000D01*
X195326000Y-9099000D02*
X195326000Y-4282000D01*
X197723000Y-4282000D02*
X198730000Y-3275000D01*
X198730000Y-3275000D02*
X198730000Y-2600000D01*
X192643000Y-4282000D02*
X195183000Y-4282000D01*
X195183000Y-4282000D02*
X196190000Y-3275000D01*
X196190000Y-3275000D02*
X196190000Y-2600000D01*
X186182000Y-4282000D02*
X192643000Y-4282000D01*
X192643000Y-4282000D02*
X193650000Y-3275000D01*
X193650000Y-3275000D02*
X193650000Y-2600000D01*
X186182000Y-4282000D02*
X186182000Y-10057000D01*
X186182000Y-10057000D02*
X188000000Y-11875000D01*
X188000000Y-11875000D02*
X188000000Y-12000000D01*
X185000000Y-2000000D02*
X185000000Y-3100000D01*
X185000000Y-3100000D02*
X186182000Y-4282000D01*
X5600000Y-15270000D02*
X5600000Y-17600000D01*
X5600000Y-17600000D02*
X6000000Y-18000000D01*
X95000000Y-7000000D02*
X98130000Y-7000000D01*
X98130000Y-7000000D02*
X98730000Y-7600000D01*
X188000000Y-12000000D02*
X191110000Y-12000000D01*
X106620000Y-3000000D02*
X105080000Y-4540000D01*
X105080000Y-4540000D02*
X105080000Y-7600000D01*
X104080000Y-3000000D02*
X104080000Y-7330000D01*
X104080000Y-7330000D02*
X103810000Y-7600000D01*
X101540000Y-3000000D02*
X101540000Y-4202081D01*
X101540000Y-4202081D02*
X102540000Y-5202081D01*
X102540000Y-5202081D02*
X102540000Y-6600000D01*
X102540000Y-6600000D02*
X102540000Y-7600000D01*
X99000000Y-3000000D02*
X99000000Y-4100000D01*
X99000000Y-4100000D02*
X101270000Y-6370000D01*
X101270000Y-6370000D02*
X101270000Y-6600000D01*
X101270000Y-6600000D02*
X101270000Y-7600000D01*
X398000000Y-6000000D02*
X395730000Y-8270000D01*
X395730000Y-8270000D02*
X394400000Y-8270000D01*
X398000000Y-8540000D02*
X396797919Y-8540000D01*
X396797919Y-8540000D02*
X395797919Y-9540000D01*
X395797919Y-9540000D02*
X395400000Y-9540000D01*
X395400000Y-9540000D02*
X394400000Y-9540000D01*
X394400000Y-10810000D02*
X397730000Y-10810000D01*
X397730000Y-10810000D02*
X398000000Y-11080000D01*
X394400000Y-12080000D02*
X396460000Y-12080000D01*
X396460000Y-12080000D02*
X398000000Y-13620000D01*
X2000000Y-7000000D02*
X3920000Y-8920000D01*
X3920000Y-8920000D02*
X5600000Y-8920000D01*
X2000000Y-9540000D02*
X2849999Y-10389999D01*
X2849999Y-10389999D02*
X5400001Y-10389999D01*
X5400001Y-10389999D02*
X5600000Y-10190000D01*
X3414000Y-12080000D02*
X4034000Y-11460000D01*
X4034000Y-11460000D02*
X5600000Y-11460000D01*
X2000000Y-12080000D02*
X3414000Y-12080000D01*
X2000000Y-14620000D02*
X3260000Y-14620000D01*
X3260000Y-14620000D02*
X5150000Y-12730000D01*
X5150000Y-12730000D02*
X5600000Y-12730000D01*
X98730000Y-10788996D02*
X98730000Y-12000000D01*
X93218000Y-2540000D02*
X93218000Y-7178002D01*
X95250000Y-508000D02*
X93218000Y-2540000D01*
X93218000Y-7178002D02*
X94421998Y-8382000D01*
X96323004Y-8382000D02*
X98730000Y-10788996D01*
X98730000Y-12000000D02*
X98730000Y-13000000D01*
X94421998Y-8382000D02*
X96323004Y-8382000D01*
X4572000Y-5588000D02*
X9652000Y-508000D01*
X9652000Y-508000D02*
X11047590Y-508000D01*
X4572000Y-5772998D02*
X4572000Y-5588000D01*
X4484999Y-8294999D02*
X4484999Y-5859999D01*
X4484999Y-5859999D02*
X4572000Y-5772998D01*
X7112000Y-8636000D02*
X6770999Y-8294999D01*
X6770999Y-8294999D02*
X4484999Y-8294999D01*
X7112000Y-14143000D02*
X7112000Y-8636000D01*
X6610001Y-14644999D02*
X7112000Y-14143000D01*
X10160000Y-19500011D02*
X5540009Y-19500011D01*
X10274991Y-19500011D02*
X10160000Y-19500011D01*
X15494000Y-18542000D02*
X14535989Y-19500011D01*
X14535989Y-19500011D02*
X10160000Y-19500011D01*
X15494000Y-16510000D02*
X15494000Y-18542000D01*
X14986000Y-16002000D02*
X15494000Y-16510000D01*
X12732000Y-16002000D02*
X14986000Y-16002000D01*
X11000000Y-15270000D02*
X12000000Y-15270000D01*
X12000000Y-15270000D02*
X12732000Y-16002000D01*
X395478000Y-508000D02*
X396494000Y-1524000D01*
X395453001Y-6374999D02*
X390644999Y-6374999D01*
X390644999Y-6374999D02*
X390000000Y-5730000D01*
X217540000Y-2000000D02*
X219032000Y-508000D01*
X396494000Y-1524000D02*
X396494000Y-5334000D01*
X219032000Y-508000D02*
X395478000Y-508000D01*
X396494000Y-5334000D02*
X395453001Y-6374999D01*
X390000000Y-5730000D02*
X389000000Y-5730000D01*
X388550000Y-5730000D02*
X389000000Y-5730000D01*
X4589999Y-14644999D02*
X6610001Y-14644999D01*
X11047590Y-508000D02*
X95250000Y-508000D01*
X4524999Y-18485001D02*
X4524999Y-14709999D01*
X4524999Y-14709999D02*
X4589999Y-14644999D01*
X6610001Y-14644999D02*
X6675001Y-14579999D01*
X5540009Y-19500011D02*
X4524999Y-18485001D01*
X217250081Y-508000D02*
X95250000Y-508000D01*
X217540000Y-2000000D02*
X217540000Y-797919D01*
X217540000Y-797919D02*
X217250081Y-508000D01*
X202059000Y-4064000D02*
X205396000Y-4064000D01*
X205396000Y-4064000D02*
X207460000Y-2000000D01*
X201270000Y-2600000D02*
X201270000Y-3275000D01*
X201270000Y-3275000D02*
X202059000Y-4064000D01*
X200000000Y-12000000D02*
X200000000Y-14650000D01*
X147614510Y-16918365D02*
X147804116Y-17037502D01*
X129263072Y-3960946D02*
X129337031Y-3749583D01*
X147238000Y-16136534D02*
X147263072Y-16359054D01*
X147238000Y-4183466D02*
X147238000Y-16136534D01*
X128238000Y-17136534D02*
X128460520Y-17111461D01*
X147138968Y-3749583D02*
X147212927Y-3960946D01*
X146015479Y-3208539D02*
X146238000Y-3183466D01*
X145614510Y-3401635D02*
X145804116Y-3282498D01*
X100000000Y-16000000D02*
X109222000Y-16000000D01*
X145238000Y-4183466D02*
X145263072Y-3960946D01*
X135263072Y-16359054D02*
X135337031Y-16570417D01*
X145238000Y-16136534D02*
X145238000Y-4183466D01*
X145212927Y-16359054D02*
X145238000Y-16136534D01*
X135238000Y-16136534D02*
X135263072Y-16359054D01*
X145138968Y-16570417D02*
X145212927Y-16359054D01*
X135337031Y-16570417D02*
X135456168Y-16760023D01*
X159710168Y-16760023D02*
X159868510Y-16918365D01*
X145019831Y-16760023D02*
X145138968Y-16570417D01*
X144861489Y-16918365D02*
X145019831Y-16760023D01*
X144671883Y-17037502D02*
X144861489Y-16918365D01*
X135238000Y-4183466D02*
X135238000Y-16136534D01*
X144460520Y-17111461D02*
X144671883Y-17037502D01*
X134861489Y-3401635D02*
X135019831Y-3559977D01*
X144238000Y-17136534D02*
X144460520Y-17111461D01*
X144015479Y-17111461D02*
X144238000Y-17136534D01*
X143804116Y-17037502D02*
X144015479Y-17111461D01*
X143614510Y-16918365D02*
X143804116Y-17037502D01*
X143456168Y-16760023D02*
X143614510Y-16918365D01*
X143337031Y-16570417D02*
X143456168Y-16760023D01*
X143263072Y-16359054D02*
X143337031Y-16570417D01*
X143238000Y-16136534D02*
X143263072Y-16359054D01*
X143238000Y-4183466D02*
X143238000Y-16136534D01*
X133804116Y-3282498D02*
X134015479Y-3208539D01*
X143212927Y-3960946D02*
X143238000Y-4183466D01*
X143138968Y-3749583D02*
X143212927Y-3960946D01*
X143019831Y-3559977D02*
X143138968Y-3749583D01*
X160058116Y-17037502D02*
X160269479Y-17111461D01*
X142671883Y-3282498D02*
X142861489Y-3401635D01*
X134460520Y-3208539D02*
X134671883Y-3282498D01*
X142460520Y-3208539D02*
X142671883Y-3282498D01*
X142238000Y-3183466D02*
X142460520Y-3208539D01*
X142015479Y-3208539D02*
X142238000Y-3183466D01*
X141804116Y-3282498D02*
X142015479Y-3208539D01*
X134015479Y-3208539D02*
X134238000Y-3183466D01*
X141456168Y-3559977D02*
X141614510Y-3401635D01*
X141337031Y-3749583D02*
X141456168Y-3559977D01*
X141263072Y-3960946D02*
X141337031Y-3749583D01*
X141238000Y-4183466D02*
X141263072Y-3960946D01*
X141238000Y-16136534D02*
X141238000Y-4183466D01*
X141138968Y-16570417D02*
X141212927Y-16359054D01*
X141019831Y-16760023D02*
X141138968Y-16570417D01*
X140861489Y-16918365D02*
X141019831Y-16760023D01*
X140671883Y-17037502D02*
X140861489Y-16918365D01*
X140460520Y-17111461D02*
X140671883Y-17037502D01*
X140238000Y-17136534D02*
X140460520Y-17111461D01*
X159868510Y-16918365D02*
X160058116Y-17037502D01*
X139804116Y-17037502D02*
X140015479Y-17111461D01*
X139614510Y-16918365D02*
X139804116Y-17037502D01*
X139456168Y-16760023D02*
X139614510Y-16918365D01*
X139337031Y-16570417D02*
X139456168Y-16760023D01*
X135804116Y-17037502D02*
X136015479Y-17111461D01*
X139263072Y-16359054D02*
X139337031Y-16570417D01*
X139238000Y-16136534D02*
X139263072Y-16359054D01*
X139212927Y-3960946D02*
X139238000Y-4183466D01*
X139138968Y-3749583D02*
X139212927Y-3960946D01*
X139019831Y-3559977D02*
X139138968Y-3749583D01*
X138671883Y-3282498D02*
X138861489Y-3401635D01*
X138460520Y-3208539D02*
X138671883Y-3282498D01*
X138238000Y-3183466D02*
X138460520Y-3208539D01*
X134238000Y-3183466D02*
X134460520Y-3208539D01*
X137804116Y-3282498D02*
X138015479Y-3208539D01*
X137614510Y-3401635D02*
X137804116Y-3282498D01*
X160269479Y-17111461D02*
X160492000Y-17136534D01*
X137337031Y-3749583D02*
X137456168Y-3559977D01*
X137263072Y-3960946D02*
X137337031Y-3749583D01*
X137238000Y-4183466D02*
X137263072Y-3960946D01*
X137238000Y-16136534D02*
X137238000Y-4183466D01*
X137212927Y-16359054D02*
X137238000Y-16136534D01*
X137138968Y-16570417D02*
X137212927Y-16359054D01*
X137019831Y-16760023D02*
X137138968Y-16570417D01*
X136671883Y-17037502D02*
X136861489Y-16918365D01*
X136460520Y-17111461D02*
X136671883Y-17037502D01*
X146460520Y-3208539D02*
X146671883Y-3282498D01*
X129456168Y-3559977D02*
X129614510Y-3401635D01*
X130671883Y-3282498D02*
X130861489Y-3401635D01*
X130015479Y-3208539D02*
X130238000Y-3183466D01*
X150460520Y-3208539D02*
X150671883Y-3282498D01*
X130460520Y-3208539D02*
X130671883Y-3282498D01*
X148238000Y-17136534D02*
X148460520Y-17111461D01*
X129804116Y-3282498D02*
X130015479Y-3208539D01*
X151614510Y-9941832D02*
X151804116Y-10060969D01*
X129614510Y-3401635D02*
X129804116Y-3282498D01*
X148671883Y-17037502D02*
X148861489Y-16918365D01*
X145337031Y-3749583D02*
X145456168Y-3559977D01*
X126460520Y-10185072D02*
X126671883Y-10259031D01*
X147337031Y-16570417D02*
X147456168Y-16760023D01*
X131804116Y-17037502D02*
X132015479Y-17111461D01*
X129337031Y-3749583D02*
X129456168Y-3559977D01*
X148015479Y-17111461D02*
X148238000Y-17136534D01*
X141212927Y-16359054D02*
X141238000Y-16136534D01*
X129238000Y-16136534D02*
X129238000Y-4183466D01*
X146861489Y-3401635D02*
X147019831Y-3559977D01*
X131337031Y-16570417D02*
X131456168Y-16760023D01*
X129212927Y-16359054D02*
X129238000Y-16136534D01*
X146238000Y-3183466D02*
X146460520Y-3208539D01*
X129238000Y-4183466D02*
X129263072Y-3960946D01*
X147212927Y-3960946D02*
X147238000Y-4183466D01*
X138861489Y-3401635D02*
X139019831Y-3559977D01*
X129138968Y-16570417D02*
X129212927Y-16359054D01*
X135212927Y-3960946D02*
X135238000Y-4183466D01*
X161115489Y-16918365D02*
X161273831Y-16760023D01*
X142861489Y-3401635D02*
X143019831Y-3559977D01*
X129019831Y-16760023D02*
X129138968Y-16570417D01*
X135138968Y-3749583D02*
X135212927Y-3960946D01*
X160925883Y-17037502D02*
X161115489Y-16918365D01*
X128671883Y-17037502D02*
X128861489Y-16918365D01*
X151238000Y-9160000D02*
X151263072Y-9382521D01*
X128460520Y-17111461D02*
X128671883Y-17037502D01*
X152238000Y-10160000D02*
X154244407Y-10160000D01*
X128015479Y-17111461D02*
X128238000Y-17136534D01*
X151804116Y-10060969D02*
X152015479Y-10134928D01*
X127804116Y-17037502D02*
X128015479Y-17111461D01*
X149138968Y-16570417D02*
X149212927Y-16359054D01*
X126671883Y-10259031D02*
X126861489Y-10378168D01*
X149614510Y-3401635D02*
X149804116Y-3282498D01*
X126238000Y-10160000D02*
X126460520Y-10185072D01*
X149212927Y-16359054D02*
X149238000Y-16136534D01*
X145804116Y-3282498D02*
X146015479Y-3208539D01*
X130238000Y-3183466D02*
X130460520Y-3208539D01*
X115062000Y-10160000D02*
X126238000Y-10160000D01*
X150015479Y-3208539D02*
X150238000Y-3183466D01*
X128861489Y-16918365D02*
X129019831Y-16760023D01*
X141614510Y-3401635D02*
X141804116Y-3282498D01*
X127138968Y-10726116D02*
X127212927Y-10937479D01*
X109222000Y-16000000D02*
X115062000Y-10160000D01*
X145263072Y-3960946D02*
X145337031Y-3749583D01*
X126861489Y-10378168D02*
X127019831Y-10536510D01*
X127019831Y-10536510D02*
X127138968Y-10726116D01*
X148861489Y-16918365D02*
X149019831Y-16760023D01*
X139238000Y-4183466D02*
X139238000Y-16136534D01*
X127212927Y-10937479D02*
X127238000Y-11160000D01*
X149019831Y-16760023D02*
X149138968Y-16570417D01*
X127238000Y-11160000D02*
X127238000Y-16136534D01*
X127238000Y-16136534D02*
X127263072Y-16359054D01*
X150238000Y-3183466D02*
X150460520Y-3208539D01*
X140015479Y-17111461D02*
X140238000Y-17136534D01*
X127263072Y-16359054D02*
X127337031Y-16570417D01*
X145456168Y-3559977D02*
X145614510Y-3401635D01*
X147263072Y-16359054D02*
X147337031Y-16570417D01*
X131138968Y-3749583D02*
X131212927Y-3960946D01*
X127337031Y-16570417D02*
X127456168Y-16760023D01*
X147804116Y-17037502D02*
X148015479Y-17111461D01*
X127614510Y-16918365D02*
X127804116Y-17037502D01*
X149804116Y-3282498D02*
X150015479Y-3208539D01*
X127456168Y-16760023D02*
X127614510Y-16918365D01*
X151337031Y-9593884D02*
X151456168Y-9783490D01*
X147019831Y-3559977D02*
X147138968Y-3749583D01*
X133263072Y-3960946D02*
X133337031Y-3749583D01*
X130861489Y-3401635D02*
X131019831Y-3559977D01*
X131019831Y-3559977D02*
X131138968Y-3749583D01*
X148460520Y-17111461D02*
X148671883Y-17037502D01*
X131212927Y-3960946D02*
X131238000Y-4183466D01*
X131238000Y-4183466D02*
X131238000Y-16136534D01*
X152015479Y-10134928D02*
X152238000Y-10160000D01*
X131238000Y-16136534D02*
X131263072Y-16359054D01*
X150671883Y-3282498D02*
X150861489Y-3401635D01*
X131263072Y-16359054D02*
X131337031Y-16570417D01*
X151019831Y-3559977D02*
X151138968Y-3749583D01*
X137456168Y-3559977D02*
X137614510Y-3401635D01*
X131456168Y-16760023D02*
X131614510Y-16918365D01*
X131614510Y-16918365D02*
X131804116Y-17037502D01*
X151212927Y-3960946D02*
X151238000Y-4183466D01*
X138015479Y-3208539D02*
X138238000Y-3183466D01*
X134671883Y-3282498D02*
X134861489Y-3401635D01*
X136238000Y-17136534D02*
X136460520Y-17111461D01*
X136861489Y-16918365D02*
X137019831Y-16760023D01*
X132015479Y-17111461D02*
X132238000Y-17136534D01*
X135456168Y-16760023D02*
X135614510Y-16918365D01*
X132238000Y-17136534D02*
X132460520Y-17111461D01*
X151138968Y-3749583D02*
X151212927Y-3960946D01*
X132460520Y-17111461D02*
X132671883Y-17037502D01*
X154244407Y-10160000D02*
X154269479Y-10185072D01*
X132671883Y-17037502D02*
X132861489Y-16918365D01*
X151263072Y-9382521D02*
X151337031Y-9593884D01*
X132861489Y-16918365D02*
X133019831Y-16760023D01*
X151238000Y-4183466D02*
X151238000Y-9160000D01*
X133019831Y-16760023D02*
X133138968Y-16570417D01*
X133138968Y-16570417D02*
X133212927Y-16359054D01*
X133212927Y-16359054D02*
X133238000Y-16136534D01*
X147456168Y-16760023D02*
X147614510Y-16918365D01*
X133614510Y-3401635D02*
X133804116Y-3282498D01*
X133238000Y-16136534D02*
X133238000Y-4183466D01*
X149238000Y-16136534D02*
X149238000Y-4183466D01*
X133238000Y-4183466D02*
X133263072Y-3960946D01*
X149456168Y-3559977D02*
X149614510Y-3401635D01*
X133337031Y-3749583D02*
X133456168Y-3559977D01*
X133456168Y-3559977D02*
X133614510Y-3401635D01*
X146671883Y-3282498D02*
X146861489Y-3401635D01*
X135019831Y-3559977D02*
X135138968Y-3749583D01*
X161273831Y-16760023D02*
X161392968Y-16570417D01*
X135614510Y-16918365D02*
X135804116Y-17037502D01*
X161466927Y-16359054D02*
X161492000Y-16136534D01*
X136015479Y-17111461D02*
X136238000Y-17136534D01*
X149238000Y-4183466D02*
X149263072Y-3960946D01*
X149263072Y-3960946D02*
X149337031Y-3749583D01*
X149337031Y-3749583D02*
X149456168Y-3559977D01*
X150861489Y-3401635D02*
X151019831Y-3559977D01*
X151456168Y-9783490D02*
X151614510Y-9941832D01*
X154269479Y-10185072D02*
X154492000Y-10160000D01*
X154492000Y-10160000D02*
X154714520Y-10185072D01*
X154714520Y-10185072D02*
X154925883Y-10259031D01*
X154925883Y-10259031D02*
X155115489Y-10378168D01*
X155115489Y-10378168D02*
X155273831Y-10536510D01*
X155273831Y-10536510D02*
X155392968Y-10726116D01*
X155392968Y-10726116D02*
X155466927Y-10937479D01*
X155466927Y-10937479D02*
X155492000Y-11160000D01*
X155492000Y-11160000D02*
X155492000Y-16136534D01*
X155492000Y-16136534D02*
X155517072Y-16359054D01*
X155517072Y-16359054D02*
X155591031Y-16570417D01*
X182118000Y-10160000D02*
X189308000Y-17350000D01*
X155591031Y-16570417D02*
X155710168Y-16760023D01*
X155710168Y-16760023D02*
X155868510Y-16918365D01*
X155868510Y-16918365D02*
X156058116Y-17037502D01*
X156058116Y-17037502D02*
X156269479Y-17111461D01*
X156269479Y-17111461D02*
X156492000Y-17136534D01*
X156492000Y-17136534D02*
X156714520Y-17111461D01*
X156714520Y-17111461D02*
X156925883Y-17037502D01*
X156925883Y-17037502D02*
X157115489Y-16918365D01*
X157115489Y-16918365D02*
X157273831Y-16760023D01*
X157273831Y-16760023D02*
X157392968Y-16570417D01*
X157392968Y-16570417D02*
X157466927Y-16359054D01*
X157466927Y-16359054D02*
X157492000Y-16136534D01*
X157492000Y-16136534D02*
X157492000Y-4183466D01*
X157492000Y-4183466D02*
X157517072Y-3960946D01*
X157517072Y-3960946D02*
X157591031Y-3749583D01*
X157591031Y-3749583D02*
X157710168Y-3559977D01*
X157710168Y-3559977D02*
X157868510Y-3401635D01*
X157868510Y-3401635D02*
X158058116Y-3282498D01*
X158058116Y-3282498D02*
X158269479Y-3208539D01*
X158269479Y-3208539D02*
X158492000Y-3183466D01*
X158492000Y-3183466D02*
X158714520Y-3208539D01*
X158714520Y-3208539D02*
X158925883Y-3282498D01*
X158925883Y-3282498D02*
X159115489Y-3401635D01*
X159115489Y-3401635D02*
X159273831Y-3559977D01*
X159273831Y-3559977D02*
X159392968Y-3749583D01*
X159392968Y-3749583D02*
X159466927Y-3960946D01*
X159466927Y-3960946D02*
X159492000Y-4183466D01*
X159492000Y-4183466D02*
X159492000Y-16136534D01*
X159492000Y-16136534D02*
X159517072Y-16359054D01*
X159517072Y-16359054D02*
X159591031Y-16570417D01*
X159591031Y-16570417D02*
X159710168Y-16760023D01*
X160492000Y-17136534D02*
X160714520Y-17111461D01*
X160714520Y-17111461D02*
X160925883Y-17037502D01*
X161392968Y-16570417D02*
X161466927Y-16359054D01*
X161492000Y-16136534D02*
X161492000Y-11160000D01*
X161492000Y-11160000D02*
X161517072Y-10937479D01*
X161517072Y-10937479D02*
X161591031Y-10726116D01*
X161591031Y-10726116D02*
X161710168Y-10536510D01*
X161710168Y-10536510D02*
X161868510Y-10378168D01*
X161868510Y-10378168D02*
X162058116Y-10259031D01*
X162058116Y-10259031D02*
X162269479Y-10185072D01*
X162269479Y-10185072D02*
X162492000Y-10160000D01*
X162492000Y-10160000D02*
X182118000Y-10160000D01*
X189308000Y-17350000D02*
X200000000Y-17350000D01*
X54746168Y-16475961D02*
X54904510Y-16634303D01*
X54627031Y-16286355D02*
X54746168Y-16475961D01*
X54528000Y-15852472D02*
X54553072Y-16074992D01*
X36502927Y-16074992D02*
X36528000Y-15852472D01*
X54502927Y-4245008D02*
X54528000Y-4467528D01*
X34528000Y-11160000D02*
X34528000Y-15852472D01*
X54151489Y-3685697D02*
X54309831Y-3844039D01*
X53961883Y-3566560D02*
X54151489Y-3685697D01*
X53528000Y-3467528D02*
X53750520Y-3492601D01*
X52627031Y-4033645D02*
X52746168Y-3844039D01*
X52502927Y-16074992D02*
X52528000Y-15852472D01*
X52309831Y-16475961D02*
X52428968Y-16286355D01*
X19812000Y-10160000D02*
X33528000Y-10160000D01*
X52151489Y-16634303D02*
X52309831Y-16475961D01*
X33961883Y-10259031D02*
X34151489Y-10378168D01*
X51961883Y-16753440D02*
X52151489Y-16634303D01*
X51750520Y-16827399D02*
X51961883Y-16753440D01*
X34428968Y-10726116D02*
X34502927Y-10937479D01*
X51528000Y-16852472D02*
X51750520Y-16827399D01*
X50904510Y-16634303D02*
X51094116Y-16753440D01*
X50746168Y-16475961D02*
X50904510Y-16634303D01*
X50627031Y-16286355D02*
X50746168Y-16475961D01*
X33528000Y-10160000D02*
X33750520Y-10185072D01*
X50553072Y-16074992D02*
X50627031Y-16286355D01*
X50528000Y-15852472D02*
X50553072Y-16074992D01*
X50528000Y-4467528D02*
X50528000Y-15852472D01*
X50502927Y-4245008D02*
X50528000Y-4467528D01*
X50428968Y-4033645D02*
X50502927Y-4245008D01*
X50151489Y-3685697D02*
X50309831Y-3844039D01*
X49961883Y-3566560D02*
X50151489Y-3685697D01*
X49750520Y-3492601D02*
X49961883Y-3566560D01*
X49528000Y-3467528D02*
X49750520Y-3492601D01*
X34309831Y-10536510D02*
X34428968Y-10726116D01*
X49305479Y-3492601D02*
X49528000Y-3467528D01*
X49094116Y-3566560D02*
X49305479Y-3492601D01*
X48746168Y-3844039D02*
X48904510Y-3685697D01*
X34151489Y-10378168D02*
X34309831Y-10536510D01*
X48627031Y-4033645D02*
X48746168Y-3844039D01*
X48553072Y-4245008D02*
X48627031Y-4033645D01*
X48528000Y-4467528D02*
X48553072Y-4245008D01*
X33750520Y-10185072D02*
X33961883Y-10259031D01*
X48502927Y-16074992D02*
X48528000Y-15852472D01*
X48151489Y-16634303D02*
X48309831Y-16475961D01*
X47961883Y-16753440D02*
X48151489Y-16634303D01*
X47750520Y-16827399D02*
X47961883Y-16753440D01*
X47528000Y-16852472D02*
X47750520Y-16827399D01*
X47305479Y-16827399D02*
X47528000Y-16852472D01*
X46627031Y-16286355D02*
X46746168Y-16475961D01*
X46528000Y-15852472D02*
X46553072Y-16074992D01*
X46502927Y-4245008D02*
X46528000Y-4467528D01*
X46428968Y-4033645D02*
X46502927Y-4245008D01*
X46309831Y-3844039D02*
X46428968Y-4033645D01*
X46151489Y-3685697D02*
X46309831Y-3844039D01*
X45961883Y-3566560D02*
X46151489Y-3685697D01*
X45750520Y-3492601D02*
X45961883Y-3566560D01*
X45528000Y-3467528D02*
X45750520Y-3492601D01*
X45305479Y-3492601D02*
X45528000Y-3467528D01*
X44904510Y-3685697D02*
X45094116Y-3566560D01*
X44746168Y-3844039D02*
X44904510Y-3685697D01*
X44627031Y-4033645D02*
X44746168Y-3844039D01*
X44553072Y-4245008D02*
X44627031Y-4033645D01*
X44528000Y-15852472D02*
X44528000Y-4467528D01*
X44502927Y-16074992D02*
X44528000Y-15852472D01*
X44428968Y-16286355D02*
X44502927Y-16074992D01*
X18288000Y-11684000D02*
X19812000Y-10160000D01*
X54528000Y-4467528D02*
X54528000Y-15852472D01*
X36627031Y-4033645D02*
X36746168Y-3844039D01*
X44309831Y-16475961D02*
X44428968Y-16286355D01*
X44151489Y-16634303D02*
X44309831Y-16475961D01*
X52904510Y-3685697D02*
X53094116Y-3566560D01*
X43750520Y-16827399D02*
X43961883Y-16753440D01*
X37094116Y-3566560D02*
X37305479Y-3492601D01*
X62528000Y-4467528D02*
X62528000Y-15852472D01*
X53094116Y-3566560D02*
X53305479Y-3492601D01*
X36746168Y-3844039D02*
X36904510Y-3685697D01*
X66904510Y-16634303D02*
X67094116Y-16753440D01*
X52746168Y-3844039D02*
X52904510Y-3685697D01*
X36553072Y-4245008D02*
X36627031Y-4033645D01*
X59094116Y-16753440D02*
X59305479Y-16827399D01*
X36528000Y-15852472D02*
X36528000Y-4467528D01*
X63094116Y-16753440D02*
X63305479Y-16827399D01*
X36904510Y-3685697D02*
X37094116Y-3566560D01*
X65961883Y-3566560D02*
X66151489Y-3685697D01*
X51094116Y-16753440D02*
X51305479Y-16827399D01*
X40528000Y-4467528D02*
X40553072Y-4245008D01*
X54553072Y-16074992D02*
X54627031Y-16286355D01*
X42746168Y-16475961D02*
X42904510Y-16634303D01*
X48428968Y-16286355D02*
X48502927Y-16074992D01*
X36309831Y-16475961D02*
X36428968Y-16286355D01*
X60746168Y-3844039D02*
X60904510Y-3685697D01*
X37528000Y-3467528D02*
X37750520Y-3492601D01*
X68428968Y-16286355D02*
X68502927Y-16074992D01*
X40151489Y-16634303D02*
X40309831Y-16475961D01*
X64309831Y-16475961D02*
X64428968Y-16286355D01*
X46746168Y-16475961D02*
X46904510Y-16634303D01*
X35961883Y-16753440D02*
X36151489Y-16634303D01*
X60627031Y-4033645D02*
X60746168Y-3844039D01*
X46553072Y-16074992D02*
X46627031Y-16286355D01*
X35750520Y-16827399D02*
X35961883Y-16753440D01*
X58746168Y-16475961D02*
X58904510Y-16634303D01*
X37750520Y-3492601D02*
X37961883Y-3566560D01*
X62502927Y-4245008D02*
X62528000Y-4467528D01*
X46528000Y-4467528D02*
X46528000Y-15852472D01*
X35528000Y-16852472D02*
X35750520Y-16827399D01*
X57528000Y-3467528D02*
X57750520Y-3492601D01*
X42151489Y-3685697D02*
X42309831Y-3844039D01*
X35305479Y-16827399D02*
X35528000Y-16852472D01*
X59305479Y-16827399D02*
X59528000Y-16852472D01*
X50309831Y-3844039D02*
X50428968Y-4033645D01*
X35094116Y-16753440D02*
X35305479Y-16827399D01*
X55305479Y-16827399D02*
X55528000Y-16852472D01*
X39305479Y-16827399D02*
X39528000Y-16852472D01*
X69528000Y-10160000D02*
X88900000Y-10160000D01*
X36428968Y-16286355D02*
X36502927Y-16074992D01*
X62151489Y-3685697D02*
X62309831Y-3844039D01*
X47094116Y-16753440D02*
X47305479Y-16827399D01*
X34904510Y-16634303D02*
X35094116Y-16753440D01*
X53305479Y-3492601D02*
X53528000Y-3467528D01*
X44528000Y-4467528D02*
X44553072Y-4245008D01*
X34746168Y-16475961D02*
X34904510Y-16634303D01*
X64746168Y-3844039D02*
X64904510Y-3685697D01*
X41961883Y-3566560D02*
X42151489Y-3685697D01*
X48528000Y-15852472D02*
X48528000Y-4467528D01*
X36528000Y-4467528D02*
X36553072Y-4245008D01*
X56904510Y-3685697D02*
X57094116Y-3566560D01*
X48309831Y-16475961D02*
X48428968Y-16286355D01*
X34502927Y-10937479D02*
X34528000Y-11160000D01*
X54428968Y-4033645D02*
X54502927Y-4245008D01*
X42627031Y-16286355D02*
X42746168Y-16475961D01*
X34528000Y-15852472D02*
X34553072Y-16074992D01*
X64904510Y-3685697D02*
X65094116Y-3566560D01*
X39750520Y-16827399D02*
X39961883Y-16753440D01*
X62428968Y-4033645D02*
X62502927Y-4245008D01*
X34553072Y-16074992D02*
X34627031Y-16286355D01*
X62309831Y-3844039D02*
X62428968Y-4033645D01*
X52528000Y-15852472D02*
X52528000Y-4467528D01*
X40746168Y-3844039D02*
X40904510Y-3685697D01*
X52528000Y-4467528D02*
X52553072Y-4245008D01*
X43528000Y-16852472D02*
X43750520Y-16827399D01*
X40904510Y-3685697D02*
X41094116Y-3566560D01*
X34627031Y-16286355D02*
X34746168Y-16475961D01*
X60553072Y-4245008D02*
X60627031Y-4033645D01*
X53750520Y-3492601D02*
X53961883Y-3566560D01*
X37961883Y-3566560D02*
X38151489Y-3685697D01*
X64502927Y-16074992D02*
X64528000Y-15852472D01*
X40309831Y-16475961D02*
X40428968Y-16286355D01*
X66746168Y-16475961D02*
X66904510Y-16634303D01*
X51305479Y-16827399D02*
X51528000Y-16852472D01*
X40553072Y-4245008D02*
X40627031Y-4033645D01*
X54309831Y-3844039D02*
X54428968Y-4033645D01*
X38151489Y-3685697D02*
X38309831Y-3844039D01*
X61750520Y-3492601D02*
X61961883Y-3566560D01*
X38309831Y-3844039D02*
X38428968Y-4033645D01*
X66151489Y-3685697D02*
X66309831Y-3844039D01*
X38428968Y-4033645D02*
X38502927Y-4245008D01*
X61961883Y-3566560D02*
X62151489Y-3685697D01*
X38502927Y-4245008D02*
X38528000Y-4467528D01*
X64528000Y-15852472D02*
X64528000Y-4467528D01*
X43961883Y-16753440D02*
X44151489Y-16634303D01*
X16000000Y-14000000D02*
X18288000Y-11712000D01*
X38528000Y-4467528D02*
X38528000Y-15852472D01*
X69094116Y-10259031D02*
X69305479Y-10185072D01*
X38528000Y-15852472D02*
X38553072Y-16074992D01*
X68553072Y-10937479D02*
X68627031Y-10726116D01*
X38553072Y-16074992D02*
X38627031Y-16286355D01*
X61094116Y-3566560D02*
X61305479Y-3492601D01*
X52553072Y-4245008D02*
X52627031Y-4033645D01*
X38627031Y-16286355D02*
X38746168Y-16475961D01*
X68528000Y-11160000D02*
X68553072Y-10937479D01*
X38746168Y-16475961D02*
X38904510Y-16634303D01*
X68904510Y-10378168D02*
X69094116Y-10259031D01*
X46904510Y-16634303D02*
X47094116Y-16753440D01*
X42904510Y-16634303D02*
X43094116Y-16753440D01*
X38904510Y-16634303D02*
X39094116Y-16753440D01*
X69305479Y-10185072D02*
X69528000Y-10160000D01*
X39094116Y-16753440D02*
X39305479Y-16827399D01*
X67094116Y-16753440D02*
X67305479Y-16827399D01*
X36151489Y-16634303D02*
X36309831Y-16475961D01*
X68528000Y-15852472D02*
X68528000Y-11160000D01*
X39528000Y-16852472D02*
X39750520Y-16827399D01*
X61528000Y-3467528D02*
X61750520Y-3492601D01*
X37305479Y-3492601D02*
X37528000Y-3467528D01*
X67961883Y-16753440D02*
X68151489Y-16634303D01*
X18288000Y-11712000D02*
X18288000Y-11684000D01*
X39961883Y-16753440D02*
X40151489Y-16634303D01*
X67750520Y-16827399D02*
X67961883Y-16753440D01*
X45094116Y-3566560D02*
X45305479Y-3492601D01*
X41094116Y-3566560D02*
X41305479Y-3492601D01*
X41528000Y-3467528D02*
X41750520Y-3492601D01*
X40428968Y-16286355D02*
X40502927Y-16074992D01*
X68151489Y-16634303D02*
X68309831Y-16475961D01*
X40502927Y-16074992D02*
X40528000Y-15852472D01*
X68309831Y-16475961D02*
X68428968Y-16286355D01*
X48904510Y-3685697D02*
X49094116Y-3566560D01*
X43305479Y-16827399D02*
X43528000Y-16852472D01*
X40528000Y-15852472D02*
X40528000Y-4467528D01*
X41750520Y-3492601D02*
X41961883Y-3566560D01*
X52428968Y-16286355D02*
X52502927Y-16074992D01*
X43094116Y-16753440D02*
X43305479Y-16827399D01*
X40627031Y-4033645D02*
X40746168Y-3844039D01*
X41305479Y-3492601D02*
X41528000Y-3467528D01*
X42309831Y-3844039D02*
X42428968Y-4033645D01*
X42428968Y-4033645D02*
X42502927Y-4245008D01*
X42528000Y-4467528D02*
X42528000Y-15852472D01*
X42528000Y-15852472D02*
X42553072Y-16074992D01*
X42502927Y-4245008D02*
X42528000Y-4467528D01*
X42553072Y-16074992D02*
X42627031Y-16286355D01*
X54904510Y-16634303D02*
X55094116Y-16753440D01*
X55094116Y-16753440D02*
X55305479Y-16827399D01*
X55528000Y-16852472D02*
X55750520Y-16827399D01*
X55750520Y-16827399D02*
X55961883Y-16753440D01*
X55961883Y-16753440D02*
X56151489Y-16634303D01*
X56151489Y-16634303D02*
X56309831Y-16475961D01*
X56309831Y-16475961D02*
X56428968Y-16286355D01*
X56428968Y-16286355D02*
X56502927Y-16074992D01*
X56502927Y-16074992D02*
X56528000Y-15852472D01*
X56528000Y-15852472D02*
X56528000Y-4467528D01*
X56528000Y-4467528D02*
X56553072Y-4245008D01*
X56553072Y-4245008D02*
X56627031Y-4033645D01*
X56627031Y-4033645D02*
X56746168Y-3844039D01*
X56746168Y-3844039D02*
X56904510Y-3685697D01*
X57094116Y-3566560D02*
X57305479Y-3492601D01*
X57305479Y-3492601D02*
X57528000Y-3467528D01*
X57750520Y-3492601D02*
X57961883Y-3566560D01*
X57961883Y-3566560D02*
X58151489Y-3685697D01*
X58151489Y-3685697D02*
X58309831Y-3844039D01*
X58309831Y-3844039D02*
X58428968Y-4033645D01*
X58428968Y-4033645D02*
X58502927Y-4245008D01*
X58502927Y-4245008D02*
X58528000Y-4467528D01*
X58528000Y-4467528D02*
X58528000Y-15852472D01*
X58528000Y-15852472D02*
X58553072Y-16074992D01*
X58553072Y-16074992D02*
X58627031Y-16286355D01*
X58627031Y-16286355D02*
X58746168Y-16475961D01*
X58904510Y-16634303D02*
X59094116Y-16753440D01*
X59528000Y-16852472D02*
X59750520Y-16827399D01*
X59750520Y-16827399D02*
X59961883Y-16753440D01*
X59961883Y-16753440D02*
X60151489Y-16634303D01*
X60151489Y-16634303D02*
X60309831Y-16475961D01*
X60309831Y-16475961D02*
X60428968Y-16286355D01*
X60428968Y-16286355D02*
X60502927Y-16074992D01*
X60502927Y-16074992D02*
X60528000Y-15852472D01*
X60528000Y-15852472D02*
X60528000Y-4467528D01*
X60528000Y-4467528D02*
X60553072Y-4245008D01*
X60904510Y-3685697D02*
X61094116Y-3566560D01*
X61305479Y-3492601D02*
X61528000Y-3467528D01*
X62528000Y-15852472D02*
X62553072Y-16074992D01*
X62553072Y-16074992D02*
X62627031Y-16286355D01*
X62627031Y-16286355D02*
X62746168Y-16475961D01*
X62746168Y-16475961D02*
X62904510Y-16634303D01*
X62904510Y-16634303D02*
X63094116Y-16753440D01*
X63305479Y-16827399D02*
X63528000Y-16852472D01*
X63528000Y-16852472D02*
X63750520Y-16827399D01*
X63750520Y-16827399D02*
X63961883Y-16753440D01*
X63961883Y-16753440D02*
X64151489Y-16634303D01*
X64151489Y-16634303D02*
X64309831Y-16475961D01*
X64428968Y-16286355D02*
X64502927Y-16074992D01*
X64528000Y-4467528D02*
X64553072Y-4245008D01*
X64553072Y-4245008D02*
X64627031Y-4033645D01*
X64627031Y-4033645D02*
X64746168Y-3844039D01*
X65094116Y-3566560D02*
X65305479Y-3492601D01*
X65305479Y-3492601D02*
X65528000Y-3467528D01*
X65528000Y-3467528D02*
X65750520Y-3492601D01*
X65750520Y-3492601D02*
X65961883Y-3566560D01*
X66309831Y-3844039D02*
X66428968Y-4033645D01*
X66428968Y-4033645D02*
X66502927Y-4245008D01*
X66502927Y-4245008D02*
X66528000Y-4467528D01*
X66528000Y-4467528D02*
X66528000Y-15852472D01*
X66528000Y-15852472D02*
X66553072Y-16074992D01*
X66553072Y-16074992D02*
X66627031Y-16286355D01*
X66627031Y-16286355D02*
X66746168Y-16475961D01*
X67305479Y-16827399D02*
X67528000Y-16852472D01*
X67528000Y-16852472D02*
X67750520Y-16827399D01*
X68502927Y-16074992D02*
X68528000Y-15852472D01*
X68627031Y-10726116D02*
X68746168Y-10536510D01*
X68746168Y-10536510D02*
X68904510Y-10378168D01*
X88900000Y-10160000D02*
X94740000Y-16000000D01*
X94740000Y-16000000D02*
X100000000Y-16000000D01*
X332136510Y-16118903D02*
X332326116Y-16238040D01*
X287734927Y-3236408D02*
X287760000Y-3458928D01*
X331978168Y-15960561D02*
X332136510Y-16118903D01*
X331859031Y-15770955D02*
X331978168Y-15960561D01*
X331785072Y-15559592D02*
X331859031Y-15770955D01*
X329193883Y-16238040D02*
X329383489Y-16118903D01*
X273383489Y-16118903D02*
X273541831Y-15960561D01*
X327760000Y-15337072D02*
X327785072Y-15559592D01*
X327734927Y-3236408D02*
X327760000Y-3458928D01*
X327660968Y-3025045D02*
X327734927Y-3236408D01*
X327541831Y-2835439D02*
X327660968Y-3025045D01*
X327383489Y-2677097D02*
X327541831Y-2835439D01*
X327193883Y-2557960D02*
X327383489Y-2677097D01*
X326982520Y-2484001D02*
X327193883Y-2557960D01*
X326760000Y-2458928D02*
X326982520Y-2484001D01*
X326537479Y-2484001D02*
X326760000Y-2458928D01*
X323760000Y-15337072D02*
X323785072Y-15559592D01*
X323760000Y-3458928D02*
X323760000Y-15337072D01*
X323734927Y-3236408D02*
X323760000Y-3458928D01*
X323193883Y-2557960D02*
X323383489Y-2677097D01*
X322982520Y-2484001D02*
X323193883Y-2557960D01*
X332326116Y-16238040D02*
X332537479Y-16311999D01*
X322760000Y-2458928D02*
X322982520Y-2484001D01*
X327859031Y-15770955D02*
X327978168Y-15960561D01*
X322136510Y-2677097D02*
X322326116Y-2557960D01*
X321978168Y-2835439D02*
X322136510Y-2677097D01*
X321760000Y-15337072D02*
X321760000Y-3458928D01*
X321660968Y-15770955D02*
X321734927Y-15559592D01*
X325383489Y-16118903D02*
X325541831Y-15960561D01*
X312537479Y-16311999D02*
X312760000Y-16337072D01*
X312326116Y-16238040D02*
X312537479Y-16311999D01*
X323978168Y-15960561D02*
X324136510Y-16118903D01*
X311785072Y-15559592D02*
X311859031Y-15770955D01*
X303785072Y-15559592D02*
X303859031Y-15770955D01*
X329760000Y-3458928D02*
X329785072Y-3236408D01*
X296326116Y-16238040D02*
X296537479Y-16311999D01*
X311660968Y-3025045D02*
X311734927Y-3236408D01*
X324136510Y-16118903D02*
X324326116Y-16238040D01*
X309760000Y-15337072D02*
X309760000Y-3458928D01*
X304326116Y-16238040D02*
X304537479Y-16311999D01*
X329785072Y-3236408D02*
X329859031Y-3025045D01*
X302326116Y-2557960D02*
X302537479Y-2484001D01*
X326326116Y-2557960D02*
X326537479Y-2484001D01*
X308982520Y-16311999D02*
X309193883Y-16238040D01*
X329734927Y-15559592D02*
X329760000Y-15337072D01*
X301734927Y-15559592D02*
X301760000Y-15337072D01*
X326136510Y-2677097D02*
X326326116Y-2557960D01*
X327760000Y-3458928D02*
X327760000Y-15337072D01*
X307859031Y-15770955D02*
X307978168Y-15960561D01*
X324326116Y-16238040D02*
X324537479Y-16311999D01*
X307760000Y-3458928D02*
X307760000Y-15337072D01*
X298982520Y-2484001D02*
X299193883Y-2557960D01*
X307541831Y-2835439D02*
X307660968Y-3025045D01*
X299193883Y-2557960D02*
X299383489Y-2677097D01*
X325660968Y-15770955D02*
X325734927Y-15559592D01*
X306760000Y-2458928D02*
X306982520Y-2484001D01*
X323383489Y-2677097D02*
X323541831Y-2835439D01*
X306326116Y-2557960D02*
X306537479Y-2484001D01*
X298537479Y-2484001D02*
X298760000Y-2458928D01*
X329760000Y-15337072D02*
X329760000Y-3458928D01*
X301660968Y-15770955D02*
X301734927Y-15559592D01*
X321859031Y-3025045D02*
X321978168Y-2835439D01*
X305978168Y-2835439D02*
X306136510Y-2677097D01*
X324982520Y-16311999D02*
X325193883Y-16238040D01*
X305859031Y-3025045D02*
X305978168Y-2835439D01*
X329660968Y-15770955D02*
X329734927Y-15559592D01*
X300537479Y-16311999D02*
X300760000Y-16337072D01*
X321734927Y-15559592D02*
X321760000Y-15337072D01*
X305760000Y-3458928D02*
X305785072Y-3236408D01*
X329541831Y-15960561D02*
X329660968Y-15770955D01*
X301383489Y-16118903D02*
X301541831Y-15960561D01*
X325193883Y-16238040D02*
X325383489Y-16118903D01*
X304760000Y-16337072D02*
X304982520Y-16311999D01*
X322537479Y-2484001D02*
X322760000Y-2458928D01*
X304537479Y-16311999D02*
X304760000Y-16337072D01*
X310537479Y-2484001D02*
X310760000Y-2458928D01*
X304136510Y-16118903D02*
X304326116Y-16238040D01*
X307785072Y-15559592D02*
X307859031Y-15770955D01*
X303978168Y-15960561D02*
X304136510Y-16118903D01*
X311760000Y-3458928D02*
X311760000Y-15337072D01*
X303859031Y-15770955D02*
X303978168Y-15960561D01*
X327785072Y-15559592D02*
X327859031Y-15770955D01*
X304982520Y-16311999D02*
X305193883Y-16238040D01*
X303760000Y-15337072D02*
X303785072Y-15559592D01*
X313193883Y-16238040D02*
X313383489Y-16118903D01*
X303760000Y-3458928D02*
X303760000Y-15337072D01*
X313760000Y-3458928D02*
X313785072Y-3236408D01*
X303734927Y-3236408D02*
X303760000Y-3458928D01*
X309760000Y-3458928D02*
X309785072Y-3236408D01*
X303660968Y-3025045D02*
X303734927Y-3236408D01*
X303541831Y-2835439D02*
X303660968Y-3025045D01*
X305785072Y-3236408D02*
X305859031Y-3025045D01*
X303383489Y-2677097D02*
X303541831Y-2835439D01*
X307193883Y-2557960D02*
X307383489Y-2677097D01*
X303193883Y-2557960D02*
X303383489Y-2677097D01*
X302982520Y-2484001D02*
X303193883Y-2557960D01*
X309785072Y-3236408D02*
X309859031Y-3025045D01*
X313541831Y-15960561D02*
X313660968Y-15770955D01*
X302760000Y-2458928D02*
X302982520Y-2484001D01*
X302537479Y-2484001D02*
X302760000Y-2458928D01*
X311541831Y-2835439D02*
X311660968Y-3025045D01*
X311859031Y-15770955D02*
X311978168Y-15960561D01*
X302136510Y-2677097D02*
X302326116Y-2557960D01*
X306537479Y-2484001D02*
X306760000Y-2458928D01*
X301978168Y-2835439D02*
X302136510Y-2677097D01*
X307978168Y-15960561D02*
X308136510Y-16118903D01*
X301859031Y-3025045D02*
X301978168Y-2835439D01*
X312982520Y-16311999D02*
X313193883Y-16238040D01*
X301785072Y-3236408D02*
X301859031Y-3025045D01*
X311760000Y-15337072D02*
X311785072Y-15559592D01*
X301760000Y-3458928D02*
X301785072Y-3236408D01*
X305383489Y-16118903D02*
X305541831Y-15960561D01*
X301760000Y-15337072D02*
X301760000Y-3458928D01*
X311383489Y-2677097D02*
X311541831Y-2835439D01*
X310326116Y-2557960D02*
X310537479Y-2484001D01*
X301541831Y-15960561D02*
X301660968Y-15770955D01*
X308136510Y-16118903D02*
X308326116Y-16238040D01*
X309193883Y-16238040D02*
X309383489Y-16118903D01*
X309383489Y-16118903D02*
X309541831Y-15960561D01*
X301193883Y-16238040D02*
X301383489Y-16118903D01*
X300982520Y-16311999D02*
X301193883Y-16238040D01*
X300760000Y-16337072D02*
X300982520Y-16311999D01*
X309978168Y-2835439D02*
X310136510Y-2677097D01*
X308326116Y-16238040D02*
X308537479Y-16311999D01*
X300326116Y-16238040D02*
X300537479Y-16311999D01*
X313383489Y-16118903D02*
X313541831Y-15960561D01*
X300136510Y-16118903D02*
X300326116Y-16238040D01*
X299978168Y-15960561D02*
X300136510Y-16118903D01*
X299859031Y-15770955D02*
X299978168Y-15960561D01*
X309660968Y-15770955D02*
X309734927Y-15559592D01*
X299785072Y-15559592D02*
X299859031Y-15770955D01*
X306136510Y-2677097D02*
X306326116Y-2557960D01*
X299760000Y-15337072D02*
X299785072Y-15559592D01*
X305541831Y-15960561D02*
X305660968Y-15770955D01*
X299760000Y-3458928D02*
X299760000Y-15337072D01*
X325760000Y-15337072D02*
X325760000Y-3458928D01*
X307383489Y-2677097D02*
X307541831Y-2835439D01*
X299734927Y-3236408D02*
X299760000Y-3458928D01*
X329859031Y-3025045D02*
X329978168Y-2835439D01*
X325760000Y-3458928D02*
X325785072Y-3236408D01*
X309541831Y-15960561D02*
X309660968Y-15770955D01*
X299660968Y-3025045D02*
X299734927Y-3236408D01*
X311978168Y-15960561D02*
X312136510Y-16118903D01*
X299541831Y-2835439D02*
X299660968Y-3025045D01*
X307760000Y-15337072D02*
X307785072Y-15559592D01*
X299383489Y-2677097D02*
X299541831Y-2835439D01*
X306982520Y-2484001D02*
X307193883Y-2557960D01*
X298760000Y-2458928D02*
X298982520Y-2484001D01*
X325785072Y-3236408D02*
X325859031Y-3025045D01*
X308760000Y-16337072D02*
X308982520Y-16311999D01*
X298326116Y-2557960D02*
X298537479Y-2484001D01*
X307734927Y-3236408D02*
X307760000Y-3458928D01*
X298136510Y-2677097D02*
X298326116Y-2557960D01*
X305193883Y-16238040D02*
X305383489Y-16118903D01*
X297978168Y-2835439D02*
X298136510Y-2677097D01*
X297859031Y-3025045D02*
X297978168Y-2835439D01*
X310136510Y-2677097D02*
X310326116Y-2557960D01*
X325978168Y-2835439D02*
X326136510Y-2677097D01*
X305660968Y-15770955D02*
X305734927Y-15559592D01*
X297785072Y-3236408D02*
X297859031Y-3025045D01*
X313660968Y-15770955D02*
X313734927Y-15559592D01*
X297760000Y-3458928D02*
X297785072Y-3236408D01*
X309734927Y-15559592D02*
X309760000Y-15337072D01*
X297760000Y-15337072D02*
X297760000Y-3458928D01*
X311193883Y-2557960D02*
X311383489Y-2677097D01*
X297734927Y-15559592D02*
X297760000Y-15337072D01*
X297660968Y-15770955D02*
X297734927Y-15559592D01*
X305760000Y-15337072D02*
X305760000Y-3458928D01*
X325859031Y-3025045D02*
X325978168Y-2835439D01*
X305734927Y-15559592D02*
X305760000Y-15337072D01*
X297541831Y-15960561D02*
X297660968Y-15770955D01*
X297383489Y-16118903D02*
X297541831Y-15960561D01*
X312136510Y-16118903D02*
X312326116Y-16238040D01*
X297193883Y-16238040D02*
X297383489Y-16118903D01*
X311734927Y-3236408D02*
X311760000Y-3458928D01*
X296982520Y-16311999D02*
X297193883Y-16238040D01*
X309859031Y-3025045D02*
X309978168Y-2835439D01*
X296760000Y-16337072D02*
X296982520Y-16311999D01*
X296537479Y-16311999D02*
X296760000Y-16337072D01*
X310982520Y-2484001D02*
X311193883Y-2557960D01*
X325734927Y-15559592D02*
X325760000Y-15337072D01*
X307660968Y-3025045D02*
X307734927Y-3236408D01*
X296136510Y-16118903D02*
X296326116Y-16238040D01*
X313760000Y-15337072D02*
X313760000Y-3458928D01*
X295978168Y-15960561D02*
X296136510Y-16118903D01*
X313734927Y-15559592D02*
X313760000Y-15337072D01*
X295859031Y-15770955D02*
X295978168Y-15960561D01*
X295785072Y-15559592D02*
X295859031Y-15770955D01*
X321193883Y-16238040D02*
X321383489Y-16118903D01*
X295760000Y-15337072D02*
X295785072Y-15559592D01*
X322326116Y-2557960D02*
X322537479Y-2484001D01*
X295760000Y-3458928D02*
X295760000Y-15337072D01*
X295734927Y-3236408D02*
X295760000Y-3458928D01*
X295660968Y-3025045D02*
X295734927Y-3236408D01*
X321541831Y-15960561D02*
X321660968Y-15770955D01*
X295541831Y-2835439D02*
X295660968Y-3025045D01*
X325541831Y-15960561D02*
X325660968Y-15770955D01*
X312760000Y-16337072D02*
X312982520Y-16311999D01*
X295383489Y-2677097D02*
X295541831Y-2835439D01*
X324760000Y-16337072D02*
X324982520Y-16311999D01*
X295193883Y-2557960D02*
X295383489Y-2677097D01*
X294982520Y-2484001D02*
X295193883Y-2557960D01*
X291785072Y-15559592D02*
X291859031Y-15770955D01*
X267978168Y-15960561D02*
X268136510Y-16118903D01*
X291734927Y-3236408D02*
X291760000Y-3458928D01*
X290982520Y-2484001D02*
X291193883Y-2557960D01*
X290537479Y-2484001D02*
X290760000Y-2458928D01*
X330136510Y-2677097D02*
X330326116Y-2557960D01*
X289785072Y-3236408D02*
X289859031Y-3025045D01*
X330537479Y-2484001D02*
X330760000Y-2458928D01*
X289760000Y-3458928D02*
X289785072Y-3236408D01*
X330326116Y-2557960D02*
X330537479Y-2484001D01*
X287978168Y-15960561D02*
X288136510Y-16118903D01*
X267859031Y-15770955D02*
X267978168Y-15960561D01*
X330760000Y-2458928D02*
X330982520Y-2484001D01*
X287193883Y-2557960D02*
X287383489Y-2677097D01*
X268326116Y-16238040D02*
X268537479Y-16311999D01*
X286136510Y-2677097D02*
X286326116Y-2557960D01*
X285978168Y-2835439D02*
X286136510Y-2677097D01*
X285859031Y-3025045D02*
X285978168Y-2835439D01*
X285785072Y-3236408D02*
X285859031Y-3025045D01*
X285760000Y-3458928D02*
X285785072Y-3236408D01*
X285760000Y-15337072D02*
X285760000Y-3458928D01*
X285734927Y-15559592D02*
X285760000Y-15337072D01*
X285660968Y-15770955D02*
X285734927Y-15559592D01*
X285541831Y-15960561D02*
X285660968Y-15770955D01*
X285383489Y-16118903D02*
X285541831Y-15960561D01*
X285193883Y-16238040D02*
X285383489Y-16118903D01*
X284982520Y-16311999D02*
X285193883Y-16238040D01*
X284760000Y-16337072D02*
X284982520Y-16311999D01*
X284537479Y-16311999D02*
X284760000Y-16337072D01*
X284326116Y-16238040D02*
X284537479Y-16311999D01*
X284136510Y-16118903D02*
X284326116Y-16238040D01*
X283978168Y-15960561D02*
X284136510Y-16118903D01*
X283859031Y-15770955D02*
X283978168Y-15960561D01*
X283785072Y-15559592D02*
X283859031Y-15770955D01*
X316326116Y-16238040D02*
X316537479Y-16311999D01*
X283760000Y-15337072D02*
X283785072Y-15559592D01*
X283760000Y-3458928D02*
X283760000Y-15337072D01*
X283734927Y-3236408D02*
X283760000Y-3458928D01*
X283660968Y-3025045D02*
X283734927Y-3236408D01*
X283383489Y-2677097D02*
X283541831Y-2835439D01*
X283193883Y-2557960D02*
X283383489Y-2677097D01*
X258760000Y-2458928D02*
X258982520Y-2484001D01*
X289734927Y-15559592D02*
X289760000Y-15337072D01*
X243193883Y-2557960D02*
X243383489Y-2677097D01*
X257859031Y-3025045D02*
X257978168Y-2835439D01*
X286982520Y-2484001D02*
X287193883Y-2557960D01*
X238982520Y-9423072D02*
X239193883Y-9497031D01*
X257193883Y-16238040D02*
X257383489Y-16118903D01*
X313978168Y-2835439D02*
X314136510Y-2677097D01*
X289541831Y-15960561D02*
X289660968Y-15770955D01*
X239760000Y-10398000D02*
X239760000Y-15337072D01*
X255760000Y-15337072D02*
X255785072Y-15559592D01*
X288326116Y-16238040D02*
X288537479Y-16311999D01*
X240760000Y-16337072D02*
X240982520Y-16311999D01*
X255760000Y-3458928D02*
X255760000Y-15337072D01*
X287760000Y-15337072D02*
X287785072Y-15559592D01*
X241193883Y-16238040D02*
X241383489Y-16118903D01*
X255734927Y-3236408D02*
X255760000Y-3458928D01*
X289383489Y-16118903D02*
X289541831Y-15960561D01*
X239541831Y-9774510D02*
X239660968Y-9964116D01*
X255660968Y-3025045D02*
X255734927Y-3236408D01*
X331383489Y-2677097D02*
X331541831Y-2835439D01*
X255383489Y-2677097D02*
X255541831Y-2835439D01*
X320982520Y-16311999D02*
X321193883Y-16238040D01*
X294537479Y-2484001D02*
X294760000Y-2458928D01*
X239760000Y-15337072D02*
X239785072Y-15559592D01*
X255193883Y-2557960D02*
X255383489Y-2677097D01*
X247383489Y-2677097D02*
X247541831Y-2835439D01*
X254982520Y-2484001D02*
X255193883Y-2557960D01*
X291978168Y-15960561D02*
X292136510Y-16118903D01*
X239734927Y-10175479D02*
X239760000Y-10398000D01*
X254760000Y-2458928D02*
X254982520Y-2484001D01*
X319383489Y-2677097D02*
X319541831Y-2835439D01*
X294326116Y-2557960D02*
X294537479Y-2484001D01*
X241760000Y-15337072D02*
X241760000Y-3458928D01*
X254537479Y-2484001D02*
X254760000Y-2458928D01*
X315978168Y-15960561D02*
X316136510Y-16118903D01*
X290760000Y-2458928D02*
X290982520Y-2484001D01*
X241541831Y-15960561D02*
X241660968Y-15770955D01*
X254326116Y-2557960D02*
X254537479Y-2484001D01*
X246982520Y-2484001D02*
X247193883Y-2557960D01*
X254136510Y-2677097D02*
X254326116Y-2557960D01*
X317541831Y-15960561D02*
X317660968Y-15770955D01*
X289859031Y-3025045D02*
X289978168Y-2835439D01*
X239193883Y-9497031D02*
X239383489Y-9616168D01*
X253978168Y-2835439D02*
X254136510Y-2677097D01*
X331193883Y-2557960D02*
X331383489Y-2677097D01*
X253859031Y-3025045D02*
X253978168Y-2835439D01*
X318537479Y-2484001D02*
X318760000Y-2458928D01*
X289660968Y-15770955D02*
X289734927Y-15559592D01*
X203000000Y-17000000D02*
X203749999Y-16250001D01*
X253760000Y-3458928D02*
X253785072Y-3236408D01*
X292537479Y-16311999D02*
X292760000Y-16337072D01*
X267785072Y-15559592D02*
X267859031Y-15770955D01*
X241760000Y-3458928D02*
X241785072Y-3236408D01*
X253760000Y-15337072D02*
X253760000Y-3458928D01*
X287760000Y-3458928D02*
X287760000Y-15337072D01*
X243541831Y-2835439D02*
X243660968Y-3025045D01*
X253734927Y-15559592D02*
X253760000Y-15337072D01*
X315383489Y-2677097D02*
X315541831Y-2835439D01*
X293760000Y-3458928D02*
X293785072Y-3236408D01*
X245660968Y-15770955D02*
X245734927Y-15559592D01*
X253541831Y-15960561D02*
X253660968Y-15770955D01*
X247193883Y-2557960D02*
X247383489Y-2677097D01*
X253383489Y-16118903D02*
X253541831Y-15960561D01*
X293734927Y-15559592D02*
X293760000Y-15337072D01*
X242982520Y-2484001D02*
X243193883Y-2557960D01*
X253193883Y-16238040D02*
X253383489Y-16118903D01*
X331541831Y-2835439D02*
X331660968Y-3025045D01*
X329978168Y-2835439D02*
X330136510Y-2677097D01*
X287660968Y-3025045D02*
X287734927Y-3236408D01*
X244760000Y-16337072D02*
X244982520Y-16311999D01*
X252982520Y-16311999D02*
X253193883Y-16238040D01*
X293660968Y-15770955D02*
X293734927Y-15559592D01*
X241978168Y-2835439D02*
X242136510Y-2677097D01*
X252760000Y-16337072D02*
X252982520Y-16311999D01*
X292760000Y-16337072D02*
X292982520Y-16311999D01*
X242537479Y-2484001D02*
X242760000Y-2458928D01*
X252537479Y-16311999D02*
X252760000Y-16337072D01*
X246760000Y-2458928D02*
X246982520Y-2484001D01*
X252136510Y-16118903D02*
X252326116Y-16238040D01*
X290136510Y-2677097D02*
X290326116Y-2557960D01*
X242136510Y-2677097D02*
X242326116Y-2557960D01*
X251978168Y-15960561D02*
X252136510Y-16118903D01*
X291760000Y-15337072D02*
X291785072Y-15559592D01*
X241383489Y-16118903D02*
X241541831Y-15960561D01*
X251859031Y-15770955D02*
X251978168Y-15960561D01*
X291193883Y-2557960D02*
X291383489Y-2677097D01*
X239859031Y-15770955D02*
X239978168Y-15960561D01*
X251785072Y-15559592D02*
X251859031Y-15770955D01*
X251760000Y-15337072D02*
X251785072Y-15559592D01*
X287383489Y-2677097D02*
X287541831Y-2835439D01*
X242326116Y-2557960D02*
X242537479Y-2484001D01*
X251760000Y-3458928D02*
X251760000Y-15337072D01*
X251734927Y-3236408D02*
X251760000Y-3458928D01*
X286326116Y-2557960D02*
X286537479Y-2484001D01*
X246136510Y-2677097D02*
X246326116Y-2557960D01*
X251660968Y-3025045D02*
X251734927Y-3236408D01*
X293978168Y-2835439D02*
X294136510Y-2677097D01*
X242760000Y-2458928D02*
X242982520Y-2484001D01*
X251541831Y-2835439D02*
X251660968Y-3025045D01*
X293760000Y-15337072D02*
X293760000Y-3458928D01*
X268982520Y-16311999D02*
X269193883Y-16238040D01*
X243660968Y-3025045D02*
X243734927Y-3236408D01*
X251383489Y-2677097D02*
X251541831Y-2835439D01*
X293859031Y-3025045D02*
X293978168Y-2835439D01*
X267760000Y-15337072D02*
X267785072Y-15559592D01*
X245734927Y-15559592D02*
X245760000Y-15337072D01*
X250760000Y-2458928D02*
X250982520Y-2484001D01*
X293541831Y-15960561D02*
X293660968Y-15770955D01*
X240982520Y-16311999D02*
X241193883Y-16238040D01*
X250537479Y-2484001D02*
X250760000Y-2458928D01*
X293193883Y-16238040D02*
X293383489Y-16118903D01*
X268537479Y-16311999D02*
X268760000Y-16337072D01*
X243383489Y-2677097D02*
X243541831Y-2835439D01*
X250326116Y-2557960D02*
X250537479Y-2484001D01*
X287785072Y-15559592D02*
X287859031Y-15770955D01*
X240537479Y-16311999D02*
X240760000Y-16337072D01*
X250136510Y-2677097D02*
X250326116Y-2557960D01*
X292136510Y-16118903D02*
X292326116Y-16238040D01*
X239383489Y-9616168D02*
X239541831Y-9774510D01*
X249859031Y-3025045D02*
X249978168Y-2835439D01*
X314326116Y-2557960D02*
X314537479Y-2484001D01*
X289978168Y-2835439D02*
X290136510Y-2677097D01*
X241660968Y-15770955D02*
X241734927Y-15559592D01*
X249785072Y-3236408D02*
X249859031Y-3025045D01*
X288537479Y-16311999D02*
X288760000Y-16337072D01*
X267760000Y-3458928D02*
X267760000Y-15337072D01*
X245859031Y-3025045D02*
X245978168Y-2835439D01*
X249760000Y-15337072D02*
X249760000Y-3458928D01*
X293785072Y-3236408D02*
X293859031Y-3025045D01*
X244136510Y-16118903D02*
X244326116Y-16238040D01*
X249734927Y-15559592D02*
X249760000Y-15337072D01*
X249660968Y-15770955D02*
X249734927Y-15559592D01*
X287541831Y-2835439D02*
X287660968Y-3025045D01*
X203749999Y-16250001D02*
X205237999Y-16250001D01*
X249541831Y-15960561D02*
X249660968Y-15770955D01*
X291383489Y-2677097D02*
X291541831Y-2835439D01*
X212090000Y-9398000D02*
X238760000Y-9398000D01*
X249383489Y-16118903D02*
X249541831Y-15960561D01*
X286760000Y-2458928D02*
X286982520Y-2484001D01*
X269193883Y-16238040D02*
X269383489Y-16118903D01*
X245978168Y-2835439D02*
X246136510Y-2677097D01*
X249193883Y-16238040D02*
X249383489Y-16118903D01*
X205237999Y-16250001D02*
X212090000Y-9398000D01*
X248982520Y-16311999D02*
X249193883Y-16238040D01*
X248760000Y-16337072D02*
X248982520Y-16311999D01*
X293383489Y-16118903D02*
X293541831Y-15960561D01*
X245383489Y-16118903D02*
X245541831Y-15960561D01*
X257541831Y-15960561D02*
X257660968Y-15770955D01*
X256326116Y-16238040D02*
X256537479Y-16311999D01*
X253660968Y-15770955D02*
X253734927Y-15559592D01*
X286537479Y-2484001D02*
X286760000Y-2458928D01*
X245760000Y-3458928D02*
X245785072Y-3236408D01*
X247760000Y-15337072D02*
X247785072Y-15559592D01*
X343760000Y-3458928D02*
X343760000Y-15337072D01*
X269859031Y-3025045D02*
X269978168Y-2835439D01*
X259734927Y-3236408D02*
X259760000Y-3458928D01*
X241859031Y-3025045D02*
X241978168Y-2835439D01*
X262982520Y-2484001D02*
X263193883Y-2557960D01*
X261760000Y-15337072D02*
X261760000Y-3458928D01*
X249760000Y-3458928D02*
X249785072Y-3236408D01*
X330982520Y-2484001D02*
X331193883Y-2557960D01*
X247734927Y-3236408D02*
X247760000Y-3458928D01*
X348760000Y-16337072D02*
X348982520Y-16311999D01*
X328982520Y-16311999D02*
X329193883Y-16238040D01*
X257785072Y-3236408D02*
X257859031Y-3025045D01*
X318326116Y-2557960D02*
X318537479Y-2484001D01*
X294136510Y-2677097D02*
X294326116Y-2557960D01*
X240326116Y-16238040D02*
X240537479Y-16311999D01*
X253785072Y-3236408D02*
X253859031Y-3025045D01*
X329383489Y-16118903D02*
X329541831Y-15960561D01*
X271785072Y-15559592D02*
X271859031Y-15770955D01*
X258982520Y-2484001D02*
X259193883Y-2557960D01*
X288760000Y-16337072D02*
X288982520Y-16311999D01*
X268760000Y-16337072D02*
X268982520Y-16311999D01*
X240136510Y-16118903D02*
X240326116Y-16238040D01*
X255785072Y-15559592D02*
X255859031Y-15770955D01*
X331760000Y-3458928D02*
X331760000Y-15337072D01*
X257383489Y-16118903D02*
X257541831Y-15960561D01*
X256760000Y-16337072D02*
X256982520Y-16311999D01*
X331660968Y-3025045D02*
X331734927Y-3236408D01*
X349978168Y-9774510D02*
X350136510Y-9616168D01*
X259859031Y-15770955D02*
X259978168Y-15960561D01*
X291859031Y-15770955D02*
X291978168Y-15960561D01*
X238760000Y-9398000D02*
X238982520Y-9423072D01*
X249978168Y-2835439D02*
X250136510Y-2677097D01*
X257760000Y-3458928D02*
X257785072Y-3236408D01*
X258537479Y-2484001D02*
X258760000Y-2458928D01*
X255859031Y-15770955D02*
X255978168Y-15960561D01*
X259785072Y-15559592D02*
X259859031Y-15770955D01*
X328760000Y-16337072D02*
X328982520Y-16311999D01*
X272136510Y-16118903D02*
X272326116Y-16238040D01*
X259383489Y-2677097D02*
X259541831Y-2835439D01*
X258136510Y-2677097D02*
X258326116Y-2557960D01*
X255541831Y-2835439D02*
X255660968Y-3025045D01*
X247660968Y-3025045D02*
X247734927Y-3236408D01*
X347785072Y-15559592D02*
X347859031Y-15770955D01*
X316982520Y-16311999D02*
X317193883Y-16238040D01*
X291660968Y-3025045D02*
X291734927Y-3236408D01*
X239978168Y-15960561D02*
X240136510Y-16118903D01*
X258326116Y-2557960D02*
X258537479Y-2484001D01*
X292326116Y-16238040D02*
X292537479Y-16311999D01*
X239660968Y-9964116D02*
X239734927Y-10175479D01*
X261978168Y-2835439D02*
X262136510Y-2677097D01*
X259760000Y-3458928D02*
X259760000Y-15337072D01*
X327978168Y-15960561D02*
X328136510Y-16118903D01*
X269978168Y-2835439D02*
X270136510Y-2677097D01*
X257734927Y-15559592D02*
X257760000Y-15337072D01*
X262760000Y-2458928D02*
X262982520Y-2484001D01*
X255978168Y-15960561D02*
X256136510Y-16118903D01*
X314760000Y-2458928D02*
X314982520Y-2484001D01*
X287859031Y-15770955D02*
X287978168Y-15960561D01*
X243760000Y-3458928D02*
X243760000Y-15337072D01*
X259541831Y-2835439D02*
X259660968Y-3025045D01*
X247785072Y-15559592D02*
X247859031Y-15770955D01*
X344982520Y-16311999D02*
X345193883Y-16238040D01*
X272982520Y-16311999D02*
X273193883Y-16238040D01*
X331734927Y-3236408D02*
X331760000Y-3458928D01*
X349760000Y-10398000D02*
X349785072Y-10175479D01*
X256982520Y-16311999D02*
X257193883Y-16238040D01*
X292982520Y-16311999D02*
X293193883Y-16238040D01*
X243734927Y-3236408D02*
X243760000Y-3458928D01*
X257660968Y-15770955D02*
X257734927Y-15559592D01*
X256136510Y-16118903D02*
X256326116Y-16238040D01*
X263383489Y-2677097D02*
X263541831Y-2835439D01*
X259660968Y-3025045D02*
X259734927Y-3236408D01*
X289760000Y-15337072D02*
X289760000Y-3458928D01*
X243859031Y-15770955D02*
X243978168Y-15960561D01*
X251193883Y-2557960D02*
X251383489Y-2677097D01*
X248537479Y-16311999D02*
X248760000Y-16337072D01*
X290326116Y-2557960D02*
X290537479Y-2484001D01*
X245785072Y-3236408D02*
X245859031Y-3025045D01*
X247859031Y-15770955D02*
X247978168Y-15960561D01*
X344326116Y-16238040D02*
X344537479Y-16311999D01*
X273760000Y-3458928D02*
X273785072Y-3236408D01*
X315760000Y-15337072D02*
X315785072Y-15559592D01*
X294760000Y-2458928D02*
X294982520Y-2484001D01*
X243978168Y-15960561D02*
X244136510Y-16118903D01*
X256537479Y-16311999D02*
X256760000Y-16337072D01*
X331760000Y-15337072D02*
X331785072Y-15559592D01*
X350136510Y-9616168D02*
X350326116Y-9497031D01*
X257760000Y-15337072D02*
X257760000Y-3458928D01*
X288136510Y-16118903D02*
X288326116Y-16238040D01*
X244326116Y-16238040D02*
X244537479Y-16311999D01*
X317660968Y-15770955D02*
X317734927Y-15559592D01*
X291760000Y-3458928D02*
X291760000Y-15337072D01*
X244537479Y-16311999D02*
X244760000Y-16337072D01*
X257978168Y-2835439D02*
X258136510Y-2677097D01*
X319734927Y-3236408D02*
X319760000Y-3458928D01*
X283541831Y-2835439D02*
X283660968Y-3025045D01*
X244982520Y-16311999D02*
X245193883Y-16238040D01*
X263541831Y-2835439D02*
X263660968Y-3025045D01*
X259978168Y-15960561D02*
X260136510Y-16118903D01*
X319859031Y-15770955D02*
X319978168Y-15960561D01*
X291541831Y-2835439D02*
X291660968Y-3025045D01*
X245193883Y-16238040D02*
X245383489Y-16118903D01*
X248136510Y-16118903D02*
X248326116Y-16238040D01*
X247978168Y-15960561D02*
X248136510Y-16118903D01*
X345660968Y-15770955D02*
X345734927Y-15559592D01*
X320760000Y-16337072D02*
X320982520Y-16311999D01*
X288982520Y-16311999D02*
X289193883Y-16238040D01*
X245541831Y-15960561D02*
X245660968Y-15770955D01*
X250982520Y-2484001D02*
X251193883Y-2557960D01*
X259193883Y-2557960D02*
X259383489Y-2677097D01*
X289193883Y-16238040D02*
X289383489Y-16118903D01*
X245760000Y-15337072D02*
X245760000Y-3458928D01*
X248326116Y-16238040D02*
X248537479Y-16311999D01*
X252326116Y-16238040D02*
X252537479Y-16311999D01*
X247541831Y-2835439D02*
X247660968Y-3025045D01*
X347760000Y-15337072D02*
X347785072Y-15559592D01*
X275734927Y-3236408D02*
X275760000Y-3458928D01*
X259760000Y-15337072D02*
X259785072Y-15559592D01*
X246537479Y-2484001D02*
X246760000Y-2458928D01*
X343978168Y-15960561D02*
X344136510Y-16118903D01*
X271383489Y-2677097D02*
X271541831Y-2835439D01*
X246326116Y-2557960D02*
X246537479Y-2484001D01*
X247760000Y-3458928D02*
X247760000Y-15337072D01*
X349660968Y-15770955D02*
X349734927Y-15559592D01*
X273734927Y-15559592D02*
X273760000Y-15337072D01*
X260136510Y-16118903D02*
X260326116Y-16238040D01*
X260326116Y-16238040D02*
X260537479Y-16311999D01*
X260537479Y-16311999D02*
X260760000Y-16337072D01*
X260760000Y-16337072D02*
X260982520Y-16311999D01*
X260982520Y-16311999D02*
X261193883Y-16238040D01*
X261193883Y-16238040D02*
X261383489Y-16118903D01*
X261383489Y-16118903D02*
X261541831Y-15960561D01*
X261541831Y-15960561D02*
X261660968Y-15770955D01*
X328326116Y-16238040D02*
X328537479Y-16311999D01*
X261660968Y-15770955D02*
X261734927Y-15559592D01*
X261734927Y-15559592D02*
X261760000Y-15337072D01*
X261760000Y-3458928D02*
X261785072Y-3236408D01*
X261785072Y-3236408D02*
X261859031Y-3025045D01*
X328136510Y-16118903D02*
X328326116Y-16238040D01*
X261859031Y-3025045D02*
X261978168Y-2835439D01*
X262136510Y-2677097D02*
X262326116Y-2557960D01*
X262326116Y-2557960D02*
X262537479Y-2484001D01*
X262537479Y-2484001D02*
X262760000Y-2458928D01*
X263193883Y-2557960D02*
X263383489Y-2677097D01*
X263660968Y-3025045D02*
X263734927Y-3236408D01*
X263734927Y-3236408D02*
X263760000Y-3458928D01*
X263760000Y-3458928D02*
X263760000Y-15337072D01*
X263760000Y-15337072D02*
X263785072Y-15559592D01*
X263785072Y-15559592D02*
X263859031Y-15770955D01*
X263859031Y-15770955D02*
X263978168Y-15960561D01*
X263978168Y-15960561D02*
X264136510Y-16118903D01*
X328537479Y-16311999D02*
X328760000Y-16337072D01*
X264136510Y-16118903D02*
X264326116Y-16238040D01*
X321785072Y-3236408D02*
X321859031Y-3025045D01*
X264326116Y-16238040D02*
X264537479Y-16311999D01*
X282136510Y-2677097D02*
X282326116Y-2557960D01*
X264537479Y-16311999D02*
X264760000Y-16337072D01*
X315541831Y-2835439D02*
X315660968Y-3025045D01*
X279193883Y-2557960D02*
X279383489Y-2677097D01*
X264760000Y-16337072D02*
X264982520Y-16311999D01*
X264982520Y-16311999D02*
X265193883Y-16238040D01*
X319760000Y-15337072D02*
X319785072Y-15559592D01*
X279978168Y-15960561D02*
X280136510Y-16118903D01*
X265193883Y-16238040D02*
X265383489Y-16118903D01*
X315193883Y-2557960D02*
X315383489Y-2677097D01*
X279760000Y-15337072D02*
X279785072Y-15559592D01*
X265383489Y-16118903D02*
X265541831Y-15960561D01*
X317193883Y-16238040D02*
X317383489Y-16118903D01*
X280537479Y-16311999D02*
X280760000Y-16337072D01*
X321383489Y-16118903D02*
X321541831Y-15960561D01*
X265541831Y-15960561D02*
X265660968Y-15770955D01*
X281660968Y-15770955D02*
X281734927Y-15559592D01*
X265660968Y-15770955D02*
X265734927Y-15559592D01*
X265734927Y-15559592D02*
X265760000Y-15337072D01*
X265760000Y-15337072D02*
X265760000Y-3458928D01*
X315734927Y-3236408D02*
X315760000Y-3458928D01*
X280760000Y-16337072D02*
X280982520Y-16311999D01*
X265760000Y-3458928D02*
X265785072Y-3236408D01*
X265785072Y-3236408D02*
X265859031Y-3025045D01*
X317383489Y-16118903D02*
X317541831Y-15960561D01*
X277859031Y-3025045D02*
X277978168Y-2835439D01*
X265859031Y-3025045D02*
X265978168Y-2835439D01*
X314982520Y-2484001D02*
X315193883Y-2557960D01*
X239785072Y-15559592D02*
X239859031Y-15770955D01*
X278537479Y-2484001D02*
X278760000Y-2458928D01*
X265978168Y-2835439D02*
X266136510Y-2677097D01*
X279859031Y-15770955D02*
X279978168Y-15960561D01*
X266136510Y-2677097D02*
X266326116Y-2557960D01*
X315760000Y-3458928D02*
X315760000Y-15337072D01*
X280136510Y-16118903D02*
X280326116Y-16238040D01*
X266326116Y-2557960D02*
X266537479Y-2484001D01*
X280982520Y-16311999D02*
X281193883Y-16238040D01*
X266537479Y-2484001D02*
X266760000Y-2458928D01*
X281978168Y-2835439D02*
X282136510Y-2677097D01*
X266760000Y-2458928D02*
X266982520Y-2484001D01*
X266982520Y-2484001D02*
X267193883Y-2557960D01*
X317859031Y-3025045D02*
X317978168Y-2835439D01*
X278326116Y-2557960D02*
X278537479Y-2484001D01*
X267193883Y-2557960D02*
X267383489Y-2677097D01*
X313785072Y-3236408D02*
X313859031Y-3025045D01*
X276982520Y-16311999D02*
X277193883Y-16238040D01*
X267383489Y-2677097D02*
X267541831Y-2835439D01*
X319193883Y-2557960D02*
X319383489Y-2677097D01*
X275785072Y-15559592D02*
X275859031Y-15770955D01*
X321760000Y-3458928D02*
X321785072Y-3236408D01*
X267541831Y-2835439D02*
X267660968Y-3025045D01*
X314136510Y-2677097D02*
X314326116Y-2557960D01*
X279383489Y-2677097D02*
X279541831Y-2835439D01*
X267660968Y-3025045D02*
X267734927Y-3236408D01*
X313859031Y-3025045D02*
X313978168Y-2835439D01*
X276136510Y-16118903D02*
X276326116Y-16238040D01*
X267734927Y-3236408D02*
X267760000Y-3458928D01*
X318982520Y-2484001D02*
X319193883Y-2557960D01*
X280326116Y-16238040D02*
X280537479Y-16311999D01*
X308537479Y-16311999D02*
X308760000Y-16337072D01*
X323541831Y-2835439D02*
X323660968Y-3025045D01*
X324537479Y-16311999D02*
X324760000Y-16337072D01*
X276760000Y-16337072D02*
X276982520Y-16311999D01*
X279785072Y-15559592D02*
X279859031Y-15770955D01*
X323859031Y-15770955D02*
X323978168Y-15960561D01*
X268136510Y-16118903D02*
X268326116Y-16238040D01*
X275760000Y-3458928D02*
X275760000Y-15337072D01*
X281760000Y-15337072D02*
X281760000Y-3458928D01*
X323785072Y-15559592D02*
X323859031Y-15770955D01*
X323660968Y-3025045D02*
X323734927Y-3236408D01*
X310760000Y-2458928D02*
X310982520Y-2484001D01*
X269383489Y-16118903D02*
X269541831Y-15960561D01*
X269541831Y-15960561D02*
X269660968Y-15770955D01*
X269660968Y-15770955D02*
X269734927Y-15559592D01*
X269734927Y-15559592D02*
X269760000Y-15337072D01*
X269760000Y-15337072D02*
X269760000Y-3458928D01*
X269760000Y-3458928D02*
X269785072Y-3236408D01*
X269785072Y-3236408D02*
X269859031Y-3025045D01*
X270136510Y-2677097D02*
X270326116Y-2557960D01*
X270326116Y-2557960D02*
X270537479Y-2484001D01*
X270537479Y-2484001D02*
X270760000Y-2458928D01*
X270760000Y-2458928D02*
X270982520Y-2484001D01*
X270982520Y-2484001D02*
X271193883Y-2557960D01*
X271193883Y-2557960D02*
X271383489Y-2677097D01*
X271541831Y-2835439D02*
X271660968Y-3025045D01*
X271660968Y-3025045D02*
X271734927Y-3236408D01*
X271734927Y-3236408D02*
X271760000Y-3458928D01*
X271760000Y-3458928D02*
X271760000Y-15337072D01*
X271760000Y-15337072D02*
X271785072Y-15559592D01*
X271859031Y-15770955D02*
X271978168Y-15960561D01*
X271978168Y-15960561D02*
X272136510Y-16118903D01*
X272326116Y-16238040D02*
X272537479Y-16311999D01*
X272537479Y-16311999D02*
X272760000Y-16337072D01*
X272760000Y-16337072D02*
X272982520Y-16311999D01*
X273193883Y-16238040D02*
X273383489Y-16118903D01*
X273541831Y-15960561D02*
X273660968Y-15770955D01*
X273660968Y-15770955D02*
X273734927Y-15559592D01*
X273760000Y-15337072D02*
X273760000Y-3458928D01*
X273785072Y-3236408D02*
X273859031Y-3025045D01*
X273859031Y-3025045D02*
X273978168Y-2835439D01*
X273978168Y-2835439D02*
X274136510Y-2677097D01*
X274136510Y-2677097D02*
X274326116Y-2557960D01*
X274326116Y-2557960D02*
X274537479Y-2484001D01*
X274537479Y-2484001D02*
X274760000Y-2458928D01*
X274760000Y-2458928D02*
X274982520Y-2484001D01*
X274982520Y-2484001D02*
X275193883Y-2557960D01*
X275193883Y-2557960D02*
X275383489Y-2677097D01*
X275383489Y-2677097D02*
X275541831Y-2835439D01*
X275541831Y-2835439D02*
X275660968Y-3025045D01*
X275660968Y-3025045D02*
X275734927Y-3236408D01*
X317760000Y-15337072D02*
X317760000Y-3458928D01*
X275760000Y-15337072D02*
X275785072Y-15559592D01*
X320326116Y-16238040D02*
X320537479Y-16311999D01*
X275859031Y-15770955D02*
X275978168Y-15960561D01*
X316760000Y-16337072D02*
X316982520Y-16311999D01*
X275978168Y-15960561D02*
X276136510Y-16118903D01*
X317760000Y-3458928D02*
X317785072Y-3236408D01*
X276326116Y-16238040D02*
X276537479Y-16311999D01*
X276537479Y-16311999D02*
X276760000Y-16337072D01*
X317978168Y-2835439D02*
X318136510Y-2677097D01*
X277193883Y-16238040D02*
X277383489Y-16118903D01*
X315660968Y-3025045D02*
X315734927Y-3236408D01*
X241785072Y-3236408D02*
X241859031Y-3025045D01*
X277383489Y-16118903D02*
X277541831Y-15960561D01*
X319785072Y-15559592D02*
X319859031Y-15770955D01*
X277541831Y-15960561D02*
X277660968Y-15770955D01*
X316537479Y-16311999D02*
X316760000Y-16337072D01*
X277660968Y-15770955D02*
X277734927Y-15559592D01*
X319760000Y-3458928D02*
X319760000Y-15337072D01*
X277734927Y-15559592D02*
X277760000Y-15337072D01*
X318136510Y-2677097D02*
X318326116Y-2557960D01*
X277760000Y-15337072D02*
X277760000Y-3458928D01*
X277760000Y-3458928D02*
X277785072Y-3236408D01*
X320136510Y-16118903D02*
X320326116Y-16238040D01*
X277785072Y-3236408D02*
X277859031Y-3025045D01*
X277978168Y-2835439D02*
X278136510Y-2677097D01*
X278136510Y-2677097D02*
X278326116Y-2557960D01*
X316136510Y-16118903D02*
X316326116Y-16238040D01*
X278760000Y-2458928D02*
X278982520Y-2484001D01*
X318760000Y-2458928D02*
X318982520Y-2484001D01*
X278982520Y-2484001D02*
X279193883Y-2557960D01*
X320537479Y-16311999D02*
X320760000Y-16337072D01*
X279541831Y-2835439D02*
X279660968Y-3025045D01*
X279660968Y-3025045D02*
X279734927Y-3236408D01*
X279734927Y-3236408D02*
X279760000Y-3458928D01*
X279760000Y-3458928D02*
X279760000Y-15337072D01*
X317734927Y-15559592D02*
X317760000Y-15337072D01*
X281193883Y-16238040D02*
X281383489Y-16118903D01*
X317785072Y-3236408D02*
X317859031Y-3025045D01*
X241734927Y-15559592D02*
X241760000Y-15337072D01*
X281383489Y-16118903D02*
X281541831Y-15960561D01*
X315859031Y-15770955D02*
X315978168Y-15960561D01*
X281541831Y-15960561D02*
X281660968Y-15770955D01*
X281734927Y-15559592D02*
X281760000Y-15337072D01*
X315785072Y-15559592D02*
X315859031Y-15770955D01*
X281760000Y-3458928D02*
X281785072Y-3236408D01*
X281785072Y-3236408D02*
X281859031Y-3025045D01*
X319978168Y-15960561D02*
X320136510Y-16118903D01*
X243760000Y-15337072D02*
X243785072Y-15559592D01*
X281859031Y-3025045D02*
X281978168Y-2835439D01*
X314537479Y-2484001D02*
X314760000Y-2458928D01*
X282326116Y-2557960D02*
X282537479Y-2484001D01*
X319541831Y-2835439D02*
X319660968Y-3025045D01*
X243785072Y-15559592D02*
X243859031Y-15770955D01*
X282537479Y-2484001D02*
X282760000Y-2458928D01*
X282760000Y-2458928D02*
X282982520Y-2484001D01*
X319660968Y-3025045D02*
X319734927Y-3236408D01*
X282982520Y-2484001D02*
X283193883Y-2557960D01*
X332537479Y-16311999D02*
X332760000Y-16337072D01*
X332760000Y-16337072D02*
X332982520Y-16311999D01*
X332982520Y-16311999D02*
X333193883Y-16238040D01*
X333193883Y-16238040D02*
X333383489Y-16118903D01*
X333383489Y-16118903D02*
X333541831Y-15960561D01*
X333541831Y-15960561D02*
X333660968Y-15770955D01*
X333660968Y-15770955D02*
X333734927Y-15559592D01*
X333734927Y-15559592D02*
X333760000Y-15337072D01*
X333760000Y-15337072D02*
X333760000Y-3458928D01*
X333760000Y-3458928D02*
X333785072Y-3236408D01*
X333785072Y-3236408D02*
X333859031Y-3025045D01*
X333859031Y-3025045D02*
X333978168Y-2835439D01*
X333978168Y-2835439D02*
X334136510Y-2677097D01*
X334136510Y-2677097D02*
X334326116Y-2557960D01*
X334326116Y-2557960D02*
X334537479Y-2484001D01*
X334537479Y-2484001D02*
X334760000Y-2458928D01*
X334760000Y-2458928D02*
X334982520Y-2484001D01*
X334982520Y-2484001D02*
X335193883Y-2557960D01*
X335193883Y-2557960D02*
X335383489Y-2677097D01*
X335383489Y-2677097D02*
X335541831Y-2835439D01*
X335541831Y-2835439D02*
X335660968Y-3025045D01*
X335660968Y-3025045D02*
X335734927Y-3236408D01*
X335734927Y-3236408D02*
X335760000Y-3458928D01*
X335760000Y-3458928D02*
X335760000Y-15337072D01*
X335760000Y-15337072D02*
X335785072Y-15559592D01*
X335785072Y-15559592D02*
X335859031Y-15770955D01*
X335859031Y-15770955D02*
X335978168Y-15960561D01*
X335978168Y-15960561D02*
X336136510Y-16118903D01*
X336136510Y-16118903D02*
X336326116Y-16238040D01*
X336326116Y-16238040D02*
X336537479Y-16311999D01*
X336537479Y-16311999D02*
X336760000Y-16337072D01*
X336760000Y-16337072D02*
X336982520Y-16311999D01*
X336982520Y-16311999D02*
X337193883Y-16238040D01*
X337193883Y-16238040D02*
X337383489Y-16118903D01*
X337383489Y-16118903D02*
X337541831Y-15960561D01*
X337541831Y-15960561D02*
X337660968Y-15770955D01*
X337660968Y-15770955D02*
X337734927Y-15559592D01*
X337734927Y-15559592D02*
X337760000Y-15337072D01*
X337760000Y-15337072D02*
X337760000Y-3458928D01*
X337760000Y-3458928D02*
X337785072Y-3236408D01*
X337785072Y-3236408D02*
X337859031Y-3025045D01*
X337859031Y-3025045D02*
X337978168Y-2835439D01*
X337978168Y-2835439D02*
X338136510Y-2677097D01*
X338136510Y-2677097D02*
X338326116Y-2557960D01*
X338326116Y-2557960D02*
X338537479Y-2484001D01*
X338537479Y-2484001D02*
X338760000Y-2458928D01*
X338760000Y-2458928D02*
X338982520Y-2484001D01*
X338982520Y-2484001D02*
X339193883Y-2557960D01*
X339193883Y-2557960D02*
X339383489Y-2677097D01*
X339383489Y-2677097D02*
X339541831Y-2835439D01*
X339541831Y-2835439D02*
X339660968Y-3025045D01*
X339660968Y-3025045D02*
X339734927Y-3236408D01*
X339734927Y-3236408D02*
X339760000Y-3458928D01*
X339760000Y-3458928D02*
X339760000Y-15337072D01*
X339760000Y-15337072D02*
X339785072Y-15559592D01*
X339785072Y-15559592D02*
X339859031Y-15770955D01*
X339859031Y-15770955D02*
X339978168Y-15960561D01*
X339978168Y-15960561D02*
X340136510Y-16118903D01*
X340136510Y-16118903D02*
X340326116Y-16238040D01*
X340326116Y-16238040D02*
X340537479Y-16311999D01*
X340537479Y-16311999D02*
X340760000Y-16337072D01*
X340760000Y-16337072D02*
X340982520Y-16311999D01*
X340982520Y-16311999D02*
X341193883Y-16238040D01*
X341193883Y-16238040D02*
X341383489Y-16118903D01*
X341383489Y-16118903D02*
X341541831Y-15960561D01*
X341541831Y-15960561D02*
X341660968Y-15770955D01*
X341660968Y-15770955D02*
X341734927Y-15559592D01*
X341734927Y-15559592D02*
X341760000Y-15337072D01*
X341760000Y-15337072D02*
X341760000Y-3458928D01*
X341760000Y-3458928D02*
X341785072Y-3236408D01*
X341785072Y-3236408D02*
X341859031Y-3025045D01*
X341859031Y-3025045D02*
X341978168Y-2835439D01*
X341978168Y-2835439D02*
X342136510Y-2677097D01*
X342136510Y-2677097D02*
X342326116Y-2557960D01*
X342326116Y-2557960D02*
X342537479Y-2484001D01*
X342537479Y-2484001D02*
X342760000Y-2458928D01*
X342760000Y-2458928D02*
X342982520Y-2484001D01*
X342982520Y-2484001D02*
X343193883Y-2557960D01*
X343193883Y-2557960D02*
X343383489Y-2677097D01*
X343383489Y-2677097D02*
X343541831Y-2835439D01*
X343541831Y-2835439D02*
X343660968Y-3025045D01*
X343660968Y-3025045D02*
X343734927Y-3236408D01*
X343734927Y-3236408D02*
X343760000Y-3458928D01*
X343760000Y-15337072D02*
X343785072Y-15559592D01*
X343785072Y-15559592D02*
X343859031Y-15770955D01*
X343859031Y-15770955D02*
X343978168Y-15960561D01*
X344136510Y-16118903D02*
X344326116Y-16238040D01*
X344537479Y-16311999D02*
X344760000Y-16337072D01*
X344760000Y-16337072D02*
X344982520Y-16311999D01*
X345193883Y-16238040D02*
X345383489Y-16118903D01*
X345383489Y-16118903D02*
X345541831Y-15960561D01*
X345541831Y-15960561D02*
X345660968Y-15770955D01*
X345734927Y-15559592D02*
X345760000Y-15337072D01*
X345760000Y-15337072D02*
X345760000Y-3458928D01*
X345760000Y-3458928D02*
X345785072Y-3236408D01*
X345785072Y-3236408D02*
X345859031Y-3025045D01*
X345859031Y-3025045D02*
X345978168Y-2835439D01*
X345978168Y-2835439D02*
X346136510Y-2677097D01*
X346136510Y-2677097D02*
X346326116Y-2557960D01*
X346326116Y-2557960D02*
X346537479Y-2484001D01*
X346537479Y-2484001D02*
X346760000Y-2458928D01*
X346760000Y-2458928D02*
X346982520Y-2484001D01*
X346982520Y-2484001D02*
X347193883Y-2557960D01*
X347193883Y-2557960D02*
X347383489Y-2677097D01*
X347383489Y-2677097D02*
X347541831Y-2835439D01*
X347541831Y-2835439D02*
X347660968Y-3025045D01*
X347660968Y-3025045D02*
X347734927Y-3236408D01*
X347734927Y-3236408D02*
X347760000Y-3458928D01*
X347760000Y-3458928D02*
X347760000Y-15337072D01*
X347859031Y-15770955D02*
X347978168Y-15960561D01*
X347978168Y-15960561D02*
X348136510Y-16118903D01*
X348136510Y-16118903D02*
X348326116Y-16238040D01*
X348326116Y-16238040D02*
X348537479Y-16311999D01*
X348537479Y-16311999D02*
X348760000Y-16337072D01*
X348982520Y-16311999D02*
X349193883Y-16238040D01*
X349193883Y-16238040D02*
X349383489Y-16118903D01*
X349383489Y-16118903D02*
X349541831Y-15960561D01*
X349541831Y-15960561D02*
X349660968Y-15770955D01*
X349734927Y-15559592D02*
X349760000Y-15337072D01*
X349760000Y-15337072D02*
X349760000Y-10398000D01*
X349785072Y-10175479D02*
X349859031Y-9964116D01*
X349859031Y-9964116D02*
X349978168Y-9774510D01*
X350326116Y-9497031D02*
X350537479Y-9423072D01*
X350537479Y-9423072D02*
X350760000Y-9398000D01*
X350760000Y-9398000D02*
X381602000Y-9398000D01*
X381602000Y-9398000D02*
X384000000Y-7000000D01*
X16000000Y-14000000D02*
X14650000Y-14000000D01*
X14650000Y-14000000D02*
X14000000Y-14650000D01*
X14000000Y-11350000D02*
X14000000Y-14650000D01*
X16000000Y-14000000D02*
X11000000Y-14000000D01*
X386000000Y-8650000D02*
X386000000Y-7650000D01*
X386000000Y-7650000D02*
X386000000Y-6920000D01*
X386080000Y-7000000D02*
X389000000Y-7000000D01*
X385060660Y-7000000D02*
X386080000Y-7000000D01*
X386000000Y-5350000D02*
X386000000Y-6920000D01*
X386000000Y-6920000D02*
X386080000Y-7000000D01*
X384000000Y-7000000D02*
X385060660Y-7000000D01*
X200000000Y-17350000D02*
X202650000Y-17350000D01*
X202650000Y-17350000D02*
X203000000Y-17000000D01*
X100000000Y-13000000D02*
X100000000Y-14000000D01*
X100000000Y-14000000D02*
X100000000Y-16000000D01*
X200000000Y-17350000D02*
X199100000Y-17350000D01*
M02*
