G04 #@! TF.GenerationSoftware,KiCad,Pcbnew,(2018-02-14 revision 6afdf1cf8)-makepkg*
G04 #@! TF.CreationDate,2018-04-28T14:04:20-07:00*
G04 #@! TF.ProjectId,reflections,7265666C656374696F6E732E6B696361,rev?*
G04 #@! TF.SameCoordinates,Original*
G04 #@! TF.FileFunction,Copper,L2,Bot,Signal*
G04 #@! TF.FilePolarity,Positive*
%FSLAX46Y46*%
G04 Gerber Fmt 4.6, Leading zero omitted, Abs format (unit mm)*
G04 Created by KiCad (PCBNEW (2018-02-14 revision 6afdf1cf8)-makepkg) date 04/28/18 14:04:20*
%MOMM*%
%LPD*%
G01*
G04 APERTURE LIST*
%ADD10O,1.700000X1.700000*%
%ADD11R,1.700000X1.700000*%
%ADD12C,0.800000*%
%ADD13C,0.250000*%
%ADD14C,0.254000*%
G04 APERTURE END LIST*
D10*
X217540000Y-2000000D03*
D11*
X215000000Y-2000000D03*
D10*
X187540000Y-2000000D03*
D11*
X185000000Y-2000000D03*
D10*
X106620000Y-3000000D03*
X104080000Y-3000000D03*
X101540000Y-3000000D03*
D11*
X99000000Y-3000000D03*
X210000000Y-2000000D03*
D10*
X207460000Y-2000000D03*
D11*
X398000000Y-6000000D03*
D10*
X398000000Y-8540000D03*
X398000000Y-11080000D03*
X398000000Y-13620000D03*
X2000000Y-7000000D03*
X2000000Y-9540000D03*
X2000000Y-12080000D03*
D11*
X2000000Y-14620000D03*
D12*
X390652000Y-2286000D03*
X390906000Y-14732000D03*
X386588000Y-12954000D03*
X382524000Y-11430000D03*
X187960000Y-7620000D03*
X204724000Y-14478000D03*
X201930000Y-13970000D03*
X203962000Y-2540000D03*
X107442000Y-11176000D03*
X96520000Y-9652000D03*
X96012000Y-14732000D03*
X8890000Y-16510000D03*
X16510000Y-8636000D03*
X13970000Y-7112000D03*
X12446000Y-6350000D03*
X92964000Y-1524000D03*
X95504000Y-1524000D03*
D13*
X8636000Y-16510000D02*
X8890000Y-16510000D01*
X16510000Y-8636000D02*
X8636000Y-16510000D01*
X13245998Y-7112000D02*
X13970000Y-7112000D01*
X12845999Y-7511999D02*
X13245998Y-7112000D01*
X12446000Y-6350000D02*
X12845999Y-6749999D01*
X12845999Y-6749999D02*
X12845999Y-7511999D01*
X95504000Y-1524000D02*
X92964000Y-1524000D01*
D14*
G36*
X92086569Y-937720D02*
X91929000Y-1318126D01*
X91929000Y-1729874D01*
X92086569Y-2110280D01*
X92377720Y-2401431D01*
X92758126Y-2559000D01*
X93169874Y-2559000D01*
X93550280Y-2401431D01*
X93667711Y-2284000D01*
X94800289Y-2284000D01*
X94917720Y-2401431D01*
X95298126Y-2559000D01*
X95709874Y-2559000D01*
X96090280Y-2401431D01*
X96341711Y-2150000D01*
X97502560Y-2150000D01*
X97502560Y-3850000D01*
X97551843Y-4097765D01*
X97692191Y-4307809D01*
X97902235Y-4448157D01*
X98150000Y-4497440D01*
X99850000Y-4497440D01*
X100097765Y-4448157D01*
X100307809Y-4307809D01*
X100448157Y-4097765D01*
X100457184Y-4052381D01*
X100469375Y-4070625D01*
X100960582Y-4398839D01*
X101393744Y-4485000D01*
X101686256Y-4485000D01*
X102119418Y-4398839D01*
X102610625Y-4070625D01*
X102810000Y-3772239D01*
X103009375Y-4070625D01*
X103500582Y-4398839D01*
X103933744Y-4485000D01*
X104226256Y-4485000D01*
X104659418Y-4398839D01*
X105150625Y-4070625D01*
X105350000Y-3772239D01*
X105549375Y-4070625D01*
X106040582Y-4398839D01*
X106473744Y-4485000D01*
X106766256Y-4485000D01*
X107199418Y-4398839D01*
X107690625Y-4070625D01*
X108018839Y-3579418D01*
X108134092Y-3000000D01*
X108018839Y-2420582D01*
X107690625Y-1929375D01*
X107199418Y-1601161D01*
X106766256Y-1515000D01*
X106473744Y-1515000D01*
X106040582Y-1601161D01*
X105549375Y-1929375D01*
X105350000Y-2227761D01*
X105150625Y-1929375D01*
X104659418Y-1601161D01*
X104226256Y-1515000D01*
X103933744Y-1515000D01*
X103500582Y-1601161D01*
X103009375Y-1929375D01*
X102810000Y-2227761D01*
X102610625Y-1929375D01*
X102119418Y-1601161D01*
X101686256Y-1515000D01*
X101393744Y-1515000D01*
X100960582Y-1601161D01*
X100469375Y-1929375D01*
X100457184Y-1947619D01*
X100448157Y-1902235D01*
X100307809Y-1692191D01*
X100097765Y-1551843D01*
X99850000Y-1502560D01*
X98150000Y-1502560D01*
X97902235Y-1551843D01*
X97692191Y-1692191D01*
X97551843Y-1902235D01*
X97502560Y-2150000D01*
X96341711Y-2150000D01*
X96381431Y-2110280D01*
X96539000Y-1729874D01*
X96539000Y-1318126D01*
X96381431Y-937720D01*
X96153711Y-710000D01*
X183680291Y-710000D01*
X183551843Y-902235D01*
X183502560Y-1150000D01*
X183502560Y-2850000D01*
X183551843Y-3097765D01*
X183692191Y-3307809D01*
X183902235Y-3448157D01*
X184150000Y-3497440D01*
X185850000Y-3497440D01*
X186097765Y-3448157D01*
X186307809Y-3307809D01*
X186448157Y-3097765D01*
X186468739Y-2994292D01*
X186773076Y-3271645D01*
X187183110Y-3441476D01*
X187413000Y-3320155D01*
X187413000Y-2127000D01*
X187667000Y-2127000D01*
X187667000Y-3320155D01*
X187896890Y-3441476D01*
X188306924Y-3271645D01*
X188735183Y-2881358D01*
X188981486Y-2356892D01*
X188860819Y-2127000D01*
X187667000Y-2127000D01*
X187413000Y-2127000D01*
X187393000Y-2127000D01*
X187393000Y-1873000D01*
X187413000Y-1873000D01*
X187413000Y-1853000D01*
X187667000Y-1853000D01*
X187667000Y-1873000D01*
X188860819Y-1873000D01*
X188981486Y-1643108D01*
X188735183Y-1118642D01*
X188306924Y-728355D01*
X188262608Y-710000D01*
X206717693Y-710000D01*
X206389375Y-929375D01*
X206061161Y-1420582D01*
X205945908Y-2000000D01*
X206061161Y-2579418D01*
X206389375Y-3070625D01*
X206880582Y-3398839D01*
X207313744Y-3485000D01*
X207606256Y-3485000D01*
X208039418Y-3398839D01*
X208530625Y-3070625D01*
X208545096Y-3048967D01*
X208611673Y-3209698D01*
X208790301Y-3388327D01*
X209023690Y-3485000D01*
X209714250Y-3485000D01*
X209873000Y-3326250D01*
X209873000Y-2127000D01*
X210127000Y-2127000D01*
X210127000Y-3326250D01*
X210285750Y-3485000D01*
X210976310Y-3485000D01*
X211209699Y-3388327D01*
X211388327Y-3209698D01*
X211485000Y-2976309D01*
X211485000Y-2285750D01*
X213515000Y-2285750D01*
X213515000Y-2976309D01*
X213611673Y-3209698D01*
X213790301Y-3388327D01*
X214023690Y-3485000D01*
X214714250Y-3485000D01*
X214873000Y-3326250D01*
X214873000Y-2127000D01*
X213673750Y-2127000D01*
X213515000Y-2285750D01*
X211485000Y-2285750D01*
X211326250Y-2127000D01*
X210127000Y-2127000D01*
X209873000Y-2127000D01*
X209853000Y-2127000D01*
X209853000Y-1873000D01*
X209873000Y-1873000D01*
X209873000Y-1853000D01*
X210127000Y-1853000D01*
X210127000Y-1873000D01*
X211326250Y-1873000D01*
X211485000Y-1714250D01*
X211485000Y-1023691D01*
X211388327Y-790302D01*
X211308025Y-710000D01*
X213691975Y-710000D01*
X213611673Y-790302D01*
X213515000Y-1023691D01*
X213515000Y-1714250D01*
X213673750Y-1873000D01*
X214873000Y-1873000D01*
X214873000Y-1853000D01*
X215127000Y-1853000D01*
X215127000Y-1873000D01*
X215147000Y-1873000D01*
X215147000Y-2127000D01*
X215127000Y-2127000D01*
X215127000Y-3326250D01*
X215285750Y-3485000D01*
X215976310Y-3485000D01*
X216209699Y-3388327D01*
X216388327Y-3209698D01*
X216454904Y-3048967D01*
X216469375Y-3070625D01*
X216960582Y-3398839D01*
X217393744Y-3485000D01*
X217686256Y-3485000D01*
X218119418Y-3398839D01*
X218610625Y-3070625D01*
X218938839Y-2579418D01*
X219054092Y-2000000D01*
X218938839Y-1420582D01*
X218610625Y-929375D01*
X218282307Y-710000D01*
X399290001Y-710000D01*
X399290001Y-4680292D01*
X399097765Y-4551843D01*
X398850000Y-4502560D01*
X397150000Y-4502560D01*
X396902235Y-4551843D01*
X396692191Y-4692191D01*
X396551843Y-4902235D01*
X396502560Y-5150000D01*
X396502560Y-6850000D01*
X396551843Y-7097765D01*
X396692191Y-7307809D01*
X396902235Y-7448157D01*
X396947619Y-7457184D01*
X396929375Y-7469375D01*
X396601161Y-7960582D01*
X396485908Y-8540000D01*
X396601161Y-9119418D01*
X396929375Y-9610625D01*
X397227761Y-9810000D01*
X396929375Y-10009375D01*
X396601161Y-10500582D01*
X396485908Y-11080000D01*
X396601161Y-11659418D01*
X396929375Y-12150625D01*
X397227761Y-12350000D01*
X396929375Y-12549375D01*
X396601161Y-13040582D01*
X396485908Y-13620000D01*
X396601161Y-14199418D01*
X396929375Y-14690625D01*
X397420582Y-15018839D01*
X397853744Y-15105000D01*
X398146256Y-15105000D01*
X398579418Y-15018839D01*
X399070625Y-14690625D01*
X399290000Y-14362307D01*
X399290000Y-19290000D01*
X710000Y-19290000D01*
X710000Y-15939709D01*
X902235Y-16068157D01*
X1150000Y-16117440D01*
X2850000Y-16117440D01*
X3097765Y-16068157D01*
X3307809Y-15927809D01*
X3448157Y-15717765D01*
X3497440Y-15470000D01*
X3497440Y-13770000D01*
X3448157Y-13522235D01*
X3307809Y-13312191D01*
X3097765Y-13171843D01*
X3052381Y-13162816D01*
X3070625Y-13150625D01*
X3398839Y-12659418D01*
X3514092Y-12080000D01*
X3398839Y-11500582D01*
X3070625Y-11009375D01*
X2772239Y-10810000D01*
X3070625Y-10610625D01*
X3398839Y-10119418D01*
X3514092Y-9540000D01*
X3398839Y-8960582D01*
X3070625Y-8469375D01*
X2772239Y-8270000D01*
X3070625Y-8070625D01*
X3398839Y-7579418D01*
X3514092Y-7000000D01*
X3398839Y-6420582D01*
X3070625Y-5929375D01*
X2579418Y-5601161D01*
X2146256Y-5515000D01*
X1853744Y-5515000D01*
X1420582Y-5601161D01*
X929375Y-5929375D01*
X710000Y-6257693D01*
X710000Y-710000D01*
X92314289Y-710000D01*
X92086569Y-937720D01*
X92086569Y-937720D01*
G37*
X92086569Y-937720D02*
X91929000Y-1318126D01*
X91929000Y-1729874D01*
X92086569Y-2110280D01*
X92377720Y-2401431D01*
X92758126Y-2559000D01*
X93169874Y-2559000D01*
X93550280Y-2401431D01*
X93667711Y-2284000D01*
X94800289Y-2284000D01*
X94917720Y-2401431D01*
X95298126Y-2559000D01*
X95709874Y-2559000D01*
X96090280Y-2401431D01*
X96341711Y-2150000D01*
X97502560Y-2150000D01*
X97502560Y-3850000D01*
X97551843Y-4097765D01*
X97692191Y-4307809D01*
X97902235Y-4448157D01*
X98150000Y-4497440D01*
X99850000Y-4497440D01*
X100097765Y-4448157D01*
X100307809Y-4307809D01*
X100448157Y-4097765D01*
X100457184Y-4052381D01*
X100469375Y-4070625D01*
X100960582Y-4398839D01*
X101393744Y-4485000D01*
X101686256Y-4485000D01*
X102119418Y-4398839D01*
X102610625Y-4070625D01*
X102810000Y-3772239D01*
X103009375Y-4070625D01*
X103500582Y-4398839D01*
X103933744Y-4485000D01*
X104226256Y-4485000D01*
X104659418Y-4398839D01*
X105150625Y-4070625D01*
X105350000Y-3772239D01*
X105549375Y-4070625D01*
X106040582Y-4398839D01*
X106473744Y-4485000D01*
X106766256Y-4485000D01*
X107199418Y-4398839D01*
X107690625Y-4070625D01*
X108018839Y-3579418D01*
X108134092Y-3000000D01*
X108018839Y-2420582D01*
X107690625Y-1929375D01*
X107199418Y-1601161D01*
X106766256Y-1515000D01*
X106473744Y-1515000D01*
X106040582Y-1601161D01*
X105549375Y-1929375D01*
X105350000Y-2227761D01*
X105150625Y-1929375D01*
X104659418Y-1601161D01*
X104226256Y-1515000D01*
X103933744Y-1515000D01*
X103500582Y-1601161D01*
X103009375Y-1929375D01*
X102810000Y-2227761D01*
X102610625Y-1929375D01*
X102119418Y-1601161D01*
X101686256Y-1515000D01*
X101393744Y-1515000D01*
X100960582Y-1601161D01*
X100469375Y-1929375D01*
X100457184Y-1947619D01*
X100448157Y-1902235D01*
X100307809Y-1692191D01*
X100097765Y-1551843D01*
X99850000Y-1502560D01*
X98150000Y-1502560D01*
X97902235Y-1551843D01*
X97692191Y-1692191D01*
X97551843Y-1902235D01*
X97502560Y-2150000D01*
X96341711Y-2150000D01*
X96381431Y-2110280D01*
X96539000Y-1729874D01*
X96539000Y-1318126D01*
X96381431Y-937720D01*
X96153711Y-710000D01*
X183680291Y-710000D01*
X183551843Y-902235D01*
X183502560Y-1150000D01*
X183502560Y-2850000D01*
X183551843Y-3097765D01*
X183692191Y-3307809D01*
X183902235Y-3448157D01*
X184150000Y-3497440D01*
X185850000Y-3497440D01*
X186097765Y-3448157D01*
X186307809Y-3307809D01*
X186448157Y-3097765D01*
X186468739Y-2994292D01*
X186773076Y-3271645D01*
X187183110Y-3441476D01*
X187413000Y-3320155D01*
X187413000Y-2127000D01*
X187667000Y-2127000D01*
X187667000Y-3320155D01*
X187896890Y-3441476D01*
X188306924Y-3271645D01*
X188735183Y-2881358D01*
X188981486Y-2356892D01*
X188860819Y-2127000D01*
X187667000Y-2127000D01*
X187413000Y-2127000D01*
X187393000Y-2127000D01*
X187393000Y-1873000D01*
X187413000Y-1873000D01*
X187413000Y-1853000D01*
X187667000Y-1853000D01*
X187667000Y-1873000D01*
X188860819Y-1873000D01*
X188981486Y-1643108D01*
X188735183Y-1118642D01*
X188306924Y-728355D01*
X188262608Y-710000D01*
X206717693Y-710000D01*
X206389375Y-929375D01*
X206061161Y-1420582D01*
X205945908Y-2000000D01*
X206061161Y-2579418D01*
X206389375Y-3070625D01*
X206880582Y-3398839D01*
X207313744Y-3485000D01*
X207606256Y-3485000D01*
X208039418Y-3398839D01*
X208530625Y-3070625D01*
X208545096Y-3048967D01*
X208611673Y-3209698D01*
X208790301Y-3388327D01*
X209023690Y-3485000D01*
X209714250Y-3485000D01*
X209873000Y-3326250D01*
X209873000Y-2127000D01*
X210127000Y-2127000D01*
X210127000Y-3326250D01*
X210285750Y-3485000D01*
X210976310Y-3485000D01*
X211209699Y-3388327D01*
X211388327Y-3209698D01*
X211485000Y-2976309D01*
X211485000Y-2285750D01*
X213515000Y-2285750D01*
X213515000Y-2976309D01*
X213611673Y-3209698D01*
X213790301Y-3388327D01*
X214023690Y-3485000D01*
X214714250Y-3485000D01*
X214873000Y-3326250D01*
X214873000Y-2127000D01*
X213673750Y-2127000D01*
X213515000Y-2285750D01*
X211485000Y-2285750D01*
X211326250Y-2127000D01*
X210127000Y-2127000D01*
X209873000Y-2127000D01*
X209853000Y-2127000D01*
X209853000Y-1873000D01*
X209873000Y-1873000D01*
X209873000Y-1853000D01*
X210127000Y-1853000D01*
X210127000Y-1873000D01*
X211326250Y-1873000D01*
X211485000Y-1714250D01*
X211485000Y-1023691D01*
X211388327Y-790302D01*
X211308025Y-710000D01*
X213691975Y-710000D01*
X213611673Y-790302D01*
X213515000Y-1023691D01*
X213515000Y-1714250D01*
X213673750Y-1873000D01*
X214873000Y-1873000D01*
X214873000Y-1853000D01*
X215127000Y-1853000D01*
X215127000Y-1873000D01*
X215147000Y-1873000D01*
X215147000Y-2127000D01*
X215127000Y-2127000D01*
X215127000Y-3326250D01*
X215285750Y-3485000D01*
X215976310Y-3485000D01*
X216209699Y-3388327D01*
X216388327Y-3209698D01*
X216454904Y-3048967D01*
X216469375Y-3070625D01*
X216960582Y-3398839D01*
X217393744Y-3485000D01*
X217686256Y-3485000D01*
X218119418Y-3398839D01*
X218610625Y-3070625D01*
X218938839Y-2579418D01*
X219054092Y-2000000D01*
X218938839Y-1420582D01*
X218610625Y-929375D01*
X218282307Y-710000D01*
X399290001Y-710000D01*
X399290001Y-4680292D01*
X399097765Y-4551843D01*
X398850000Y-4502560D01*
X397150000Y-4502560D01*
X396902235Y-4551843D01*
X396692191Y-4692191D01*
X396551843Y-4902235D01*
X396502560Y-5150000D01*
X396502560Y-6850000D01*
X396551843Y-7097765D01*
X396692191Y-7307809D01*
X396902235Y-7448157D01*
X396947619Y-7457184D01*
X396929375Y-7469375D01*
X396601161Y-7960582D01*
X396485908Y-8540000D01*
X396601161Y-9119418D01*
X396929375Y-9610625D01*
X397227761Y-9810000D01*
X396929375Y-10009375D01*
X396601161Y-10500582D01*
X396485908Y-11080000D01*
X396601161Y-11659418D01*
X396929375Y-12150625D01*
X397227761Y-12350000D01*
X396929375Y-12549375D01*
X396601161Y-13040582D01*
X396485908Y-13620000D01*
X396601161Y-14199418D01*
X396929375Y-14690625D01*
X397420582Y-15018839D01*
X397853744Y-15105000D01*
X398146256Y-15105000D01*
X398579418Y-15018839D01*
X399070625Y-14690625D01*
X399290000Y-14362307D01*
X399290000Y-19290000D01*
X710000Y-19290000D01*
X710000Y-15939709D01*
X902235Y-16068157D01*
X1150000Y-16117440D01*
X2850000Y-16117440D01*
X3097765Y-16068157D01*
X3307809Y-15927809D01*
X3448157Y-15717765D01*
X3497440Y-15470000D01*
X3497440Y-13770000D01*
X3448157Y-13522235D01*
X3307809Y-13312191D01*
X3097765Y-13171843D01*
X3052381Y-13162816D01*
X3070625Y-13150625D01*
X3398839Y-12659418D01*
X3514092Y-12080000D01*
X3398839Y-11500582D01*
X3070625Y-11009375D01*
X2772239Y-10810000D01*
X3070625Y-10610625D01*
X3398839Y-10119418D01*
X3514092Y-9540000D01*
X3398839Y-8960582D01*
X3070625Y-8469375D01*
X2772239Y-8270000D01*
X3070625Y-8070625D01*
X3398839Y-7579418D01*
X3514092Y-7000000D01*
X3398839Y-6420582D01*
X3070625Y-5929375D01*
X2579418Y-5601161D01*
X2146256Y-5515000D01*
X1853744Y-5515000D01*
X1420582Y-5601161D01*
X929375Y-5929375D01*
X710000Y-6257693D01*
X710000Y-710000D01*
X92314289Y-710000D01*
X92086569Y-937720D01*
M02*
