M48
;DRILL file {KiCad (2018-02-14 revision 6afdf1cf8)-makepkg} date 04/28/18 14:04:35
;FORMAT={-:-/ absolute / metric / decimal}
FMAT,2
METRIC,TZ
T1C0.400
T2C1.000
%
G90
G05
M71
T1
X8.89Y-16.51
X12.446Y-6.35
X13.97Y-7.112
X16.51Y-8.636
X92.964Y-1.524
X95.504Y-1.524
X96.012Y-14.732
X96.52Y-9.652
X107.442Y-11.176
X187.96Y-7.62
X201.93Y-13.97
X203.962Y-2.54
X204.724Y-14.478
X382.524Y-11.43
X386.588Y-12.954
X390.652Y-2.286
X390.906Y-14.732
T2
X2.Y-7.
X2.Y-9.54
X2.Y-12.08
X2.Y-14.62
X398.Y-6.
X398.Y-8.54
X398.Y-11.08
X398.Y-13.62
X99.Y-3.
X101.54Y-3.
X104.08Y-3.
X106.62Y-3.
X185.Y-2.
X187.54Y-2.
X215.Y-2.
X217.54Y-2.
X207.46Y-2.
X210.Y-2.
T0
M30
