G04 #@! TF.GenerationSoftware,KiCad,Pcbnew,(5.0.0)*
G04 #@! TF.CreationDate,2018-11-17T22:13:07-08:00*
G04 #@! TF.ProjectId,test_for_smd_networks,746573745F666F725F736D645F6E6574,rev?*
G04 #@! TF.SameCoordinates,Original*
G04 #@! TF.FileFunction,Copper,L1,Top,Signal*
G04 #@! TF.FilePolarity,Positive*
%FSLAX46Y46*%
G04 Gerber Fmt 4.6, Leading zero omitted, Abs format (unit mm)*
G04 Created by KiCad (PCBNEW (5.0.0)) date 11/17/18 22:13:07*
%MOMM*%
%LPD*%
G01*
G04 APERTURE LIST*
G04 #@! TA.AperFunction,SMDPad,CuDef*
%ADD10R,1.000000X0.430000*%
G04 #@! TD*
G04 #@! TA.AperFunction,ViaPad*
%ADD11C,0.600000*%
G04 #@! TD*
G04 #@! TA.AperFunction,Conductor*
%ADD12C,0.127000*%
G04 #@! TD*
G04 #@! TA.AperFunction,NonConductor*
%ADD13C,0.250000*%
G04 #@! TD*
G04 APERTURE END LIST*
D10*
G04 #@! TO.P,CN1,8*
G04 #@! TO.N,GND*
X68370000Y-40050000D03*
G04 #@! TO.P,CN1,5*
X68370000Y-42450000D03*
G04 #@! TO.P,CN1,4*
G04 #@! TO.N,Net-(CN1-Pad4)*
X66850000Y-42450000D03*
G04 #@! TO.P,CN1,1*
G04 #@! TO.N,Net-(CN1-Pad1)*
X66850000Y-40050000D03*
G04 #@! TO.P,CN1,6*
G04 #@! TO.N,GND*
X68370000Y-41650000D03*
G04 #@! TO.P,CN1,3*
G04 #@! TO.N,Net-(CN1-Pad3)*
X66850000Y-41650000D03*
G04 #@! TO.P,CN1,7*
G04 #@! TO.N,GND*
X68370000Y-40850000D03*
G04 #@! TO.P,CN1,2*
G04 #@! TO.N,Net-(CN1-Pad2)*
X66850000Y-40850000D03*
G04 #@! TD*
G04 #@! TO.P,CN2,2*
G04 #@! TO.N,GND*
X59950000Y-40850000D03*
G04 #@! TO.P,CN2,7*
G04 #@! TO.N,Net-(CN1-Pad2)*
X61470000Y-40850000D03*
G04 #@! TO.P,CN2,3*
G04 #@! TO.N,GND*
X59950000Y-41650000D03*
G04 #@! TO.P,CN2,6*
G04 #@! TO.N,Net-(CN1-Pad3)*
X61470000Y-41650000D03*
G04 #@! TO.P,CN2,1*
G04 #@! TO.N,GND*
X59950000Y-40050000D03*
G04 #@! TO.P,CN2,4*
X59950000Y-42450000D03*
G04 #@! TO.P,CN2,5*
G04 #@! TO.N,Net-(CN1-Pad4)*
X61470000Y-42450000D03*
G04 #@! TO.P,CN2,8*
G04 #@! TO.N,Net-(CN1-Pad1)*
X61470000Y-40050000D03*
G04 #@! TD*
G04 #@! TO.P,CN3,8*
G04 #@! TO.N,GND*
X67950000Y-45600000D03*
G04 #@! TO.P,CN3,5*
X67950000Y-48000000D03*
G04 #@! TO.P,CN3,4*
G04 #@! TO.N,Net-(CN3-Pad4)*
X66430000Y-48000000D03*
G04 #@! TO.P,CN3,1*
G04 #@! TO.N,Net-(CN3-Pad1)*
X66430000Y-45600000D03*
G04 #@! TO.P,CN3,6*
G04 #@! TO.N,GND*
X67950000Y-47200000D03*
G04 #@! TO.P,CN3,3*
G04 #@! TO.N,Net-(CN3-Pad3)*
X66430000Y-47200000D03*
G04 #@! TO.P,CN3,7*
G04 #@! TO.N,GND*
X67950000Y-46400000D03*
G04 #@! TO.P,CN3,2*
G04 #@! TO.N,Net-(CN3-Pad2)*
X66430000Y-46400000D03*
G04 #@! TD*
G04 #@! TO.P,CN4,2*
G04 #@! TO.N,GND*
X59930000Y-46400000D03*
G04 #@! TO.P,CN4,7*
G04 #@! TO.N,Net-(CN3-Pad2)*
X61450000Y-46400000D03*
G04 #@! TO.P,CN4,3*
G04 #@! TO.N,GND*
X59930000Y-47200000D03*
G04 #@! TO.P,CN4,6*
G04 #@! TO.N,Net-(CN3-Pad3)*
X61450000Y-47200000D03*
G04 #@! TO.P,CN4,1*
G04 #@! TO.N,GND*
X59930000Y-45600000D03*
G04 #@! TO.P,CN4,4*
X59930000Y-48000000D03*
G04 #@! TO.P,CN4,5*
G04 #@! TO.N,Net-(CN3-Pad4)*
X61450000Y-48000000D03*
G04 #@! TO.P,CN4,8*
G04 #@! TO.N,Net-(CN3-Pad1)*
X61450000Y-45600000D03*
G04 #@! TD*
D11*
G04 #@! TO.N,GND*
X70850000Y-40050000D03*
X70050000Y-40800000D03*
X70850000Y-41650000D03*
X70050000Y-42450000D03*
X70450000Y-45650000D03*
X70450000Y-47250000D03*
X69650000Y-46400000D03*
X69650000Y-48050000D03*
X57503649Y-42468884D03*
X57503649Y-40868884D03*
X58303649Y-41718884D03*
X58303649Y-40068884D03*
X58253649Y-45618884D03*
X58253649Y-47268884D03*
X57453649Y-48018884D03*
X57453649Y-46418884D03*
G04 #@! TD*
D12*
G04 #@! TO.N,GND*
X68370000Y-40050000D02*
X70850000Y-40050000D01*
X68370000Y-40850000D02*
X70000000Y-40850000D01*
X70000000Y-40850000D02*
X70050000Y-40800000D01*
X68370000Y-41650000D02*
X70850000Y-41650000D01*
X68370000Y-42450000D02*
X70050000Y-42450000D01*
X69600000Y-46450000D02*
X69650000Y-46400000D01*
X67970000Y-45650000D02*
X70450000Y-45650000D01*
X67970000Y-48050000D02*
X69650000Y-48050000D01*
X67970000Y-47250000D02*
X70450000Y-47250000D01*
X67970000Y-46450000D02*
X69600000Y-46450000D01*
X58353649Y-41668884D02*
X58303649Y-41718884D01*
X59983649Y-42468884D02*
X57503649Y-42468884D01*
X59983649Y-40068884D02*
X58303649Y-40068884D01*
X59983649Y-40868884D02*
X57503649Y-40868884D01*
X59983649Y-41668884D02*
X58353649Y-41668884D01*
X59933649Y-45618884D02*
X58253649Y-45618884D01*
X58303649Y-47218884D02*
X58253649Y-47268884D01*
X59933649Y-46418884D02*
X57453649Y-46418884D01*
X59933649Y-47218884D02*
X58303649Y-47218884D01*
X59933649Y-48018884D02*
X57453649Y-48018884D01*
G04 #@! TO.N,Net-(CN1-Pad4)*
X62097000Y-42450000D02*
X63447000Y-41100000D01*
X61470000Y-42450000D02*
X62097000Y-42450000D01*
X66223000Y-42450000D02*
X66850000Y-42450000D01*
X65100000Y-41327000D02*
X66223000Y-42450000D01*
X65027000Y-41327000D02*
X64800000Y-41100000D01*
X65100000Y-41327000D02*
X65027000Y-41327000D01*
X63447000Y-41100000D02*
X64800000Y-41100000D01*
G04 #@! TO.N,Net-(CN1-Pad1)*
X65574926Y-40050000D02*
X66223000Y-40050000D01*
X61470000Y-40050000D02*
X62772074Y-40050000D01*
X62772074Y-40050000D02*
X62776096Y-40045978D01*
X62776096Y-40045978D02*
X65570904Y-40045978D01*
X66223000Y-40050000D02*
X66850000Y-40050000D01*
X65570904Y-40045978D02*
X65574926Y-40050000D01*
G04 #@! TO.N,Net-(CN1-Pad3)*
X62097000Y-41650000D02*
X63047000Y-40700000D01*
X61470000Y-41650000D02*
X62097000Y-41650000D01*
X63047000Y-40700000D02*
X65300000Y-40700000D01*
X66223000Y-41650000D02*
X66850000Y-41650000D01*
X65300000Y-40727000D02*
X66223000Y-41650000D01*
X65300000Y-40700000D02*
X65300000Y-40727000D01*
G04 #@! TO.N,Net-(CN1-Pad2)*
X65912463Y-40850000D02*
X66223000Y-40850000D01*
X66223000Y-40850000D02*
X66850000Y-40850000D01*
X62911548Y-40372989D02*
X65435452Y-40372989D01*
X65435452Y-40372989D02*
X65912463Y-40850000D01*
X62434537Y-40850000D02*
X62911548Y-40372989D01*
X61470000Y-40850000D02*
X62434537Y-40850000D01*
G04 #@! TO.N,Net-(CN3-Pad4)*
X66430000Y-48000000D02*
X65803000Y-48000000D01*
X62077000Y-48000000D02*
X66430000Y-48000000D01*
X61450000Y-48000000D02*
X62077000Y-48000000D01*
G04 #@! TO.N,Net-(CN3-Pad1)*
X61450000Y-45600000D02*
X62077000Y-45600000D01*
X61450000Y-45600000D02*
X66430000Y-45600000D01*
G04 #@! TO.N,Net-(CN3-Pad3)*
X61450000Y-47200000D02*
X62077000Y-47200000D01*
X66430000Y-47200000D02*
X61450000Y-47200000D01*
G04 #@! TO.N,Net-(CN3-Pad2)*
X66430000Y-46400000D02*
X65803000Y-46400000D01*
X62077000Y-46400000D02*
X66430000Y-46400000D01*
X61450000Y-46400000D02*
X62077000Y-46400000D01*
G04 #@! TD*
D13*
G36*
X55550000Y-50955679D02*
X55541184Y-51000000D01*
X55576109Y-51175581D01*
X55675568Y-51324432D01*
X55824419Y-51423891D01*
X56000000Y-51458816D01*
X56044321Y-51450000D01*
X70349201Y-51450000D01*
X55426664Y-51623518D01*
X55550001Y-42188244D01*
X55550000Y-50955679D01*
X55550000Y-50955679D01*
G37*
X55550000Y-50955679D02*
X55541184Y-51000000D01*
X55576109Y-51175581D01*
X55675568Y-51324432D01*
X55824419Y-51423891D01*
X56000000Y-51458816D01*
X56044321Y-51450000D01*
X70349201Y-51450000D01*
X55426664Y-51623518D01*
X55550001Y-42188244D01*
X55550000Y-50955679D01*
G36*
X72374586Y-51426449D02*
X72149567Y-51429066D01*
X72175581Y-51423891D01*
X72324432Y-51324432D01*
X72373997Y-51250253D01*
X72374586Y-51426449D01*
X72374586Y-51426449D01*
G37*
X72374586Y-51426449D02*
X72149567Y-51429066D01*
X72175581Y-51423891D01*
X72324432Y-51324432D01*
X72373997Y-51250253D01*
X72374586Y-51426449D01*
G36*
X71550001Y-50550000D02*
X56450000Y-50550000D01*
X56450000Y-46284618D01*
X56778649Y-46284618D01*
X56778649Y-46553150D01*
X56881412Y-46801241D01*
X57071292Y-46991121D01*
X57319383Y-47093884D01*
X57587915Y-47093884D01*
X57597097Y-47090081D01*
X57578649Y-47134618D01*
X57578649Y-47343884D01*
X57319383Y-47343884D01*
X57071292Y-47446647D01*
X56881412Y-47636527D01*
X56778649Y-47884618D01*
X56778649Y-48153150D01*
X56881412Y-48401241D01*
X57071292Y-48591121D01*
X57319383Y-48693884D01*
X57587915Y-48693884D01*
X57836006Y-48591121D01*
X57969743Y-48457384D01*
X59140949Y-48457384D01*
X59159641Y-48485359D01*
X59283683Y-48568242D01*
X59430000Y-48597346D01*
X60430000Y-48597346D01*
X60576317Y-48568242D01*
X60690000Y-48492281D01*
X60803683Y-48568242D01*
X60950000Y-48597346D01*
X61950000Y-48597346D01*
X62096317Y-48568242D01*
X62220359Y-48485359D01*
X62251669Y-48438500D01*
X65628331Y-48438500D01*
X65659641Y-48485359D01*
X65783683Y-48568242D01*
X65930000Y-48597346D01*
X66930000Y-48597346D01*
X67076317Y-48568242D01*
X67190000Y-48492281D01*
X67303683Y-48568242D01*
X67450000Y-48597346D01*
X68450000Y-48597346D01*
X68596317Y-48568242D01*
X68715658Y-48488500D01*
X69133906Y-48488500D01*
X69267643Y-48622237D01*
X69515734Y-48725000D01*
X69784266Y-48725000D01*
X70032357Y-48622237D01*
X70222237Y-48432357D01*
X70325000Y-48184266D01*
X70325000Y-47925000D01*
X70584266Y-47925000D01*
X70832357Y-47822237D01*
X71022237Y-47632357D01*
X71125000Y-47384266D01*
X71125000Y-47115734D01*
X71022237Y-46867643D01*
X70832357Y-46677763D01*
X70584266Y-46575000D01*
X70315734Y-46575000D01*
X70306552Y-46578803D01*
X70325000Y-46534266D01*
X70325000Y-46325000D01*
X70584266Y-46325000D01*
X70832357Y-46222237D01*
X71022237Y-46032357D01*
X71125000Y-45784266D01*
X71125000Y-45515734D01*
X71022237Y-45267643D01*
X70832357Y-45077763D01*
X70584266Y-44975000D01*
X70315734Y-44975000D01*
X70067643Y-45077763D01*
X69933906Y-45211500D01*
X68785079Y-45211500D01*
X68720359Y-45114641D01*
X68596317Y-45031758D01*
X68450000Y-45002654D01*
X67450000Y-45002654D01*
X67303683Y-45031758D01*
X67190000Y-45107719D01*
X67076317Y-45031758D01*
X66930000Y-45002654D01*
X65930000Y-45002654D01*
X65783683Y-45031758D01*
X65659641Y-45114641D01*
X65628331Y-45161500D01*
X62251669Y-45161500D01*
X62220359Y-45114641D01*
X62096317Y-45031758D01*
X61950000Y-45002654D01*
X60950000Y-45002654D01*
X60803683Y-45031758D01*
X60690000Y-45107719D01*
X60576317Y-45031758D01*
X60430000Y-45002654D01*
X59430000Y-45002654D01*
X59283683Y-45031758D01*
X59159641Y-45114641D01*
X59115713Y-45180384D01*
X58769743Y-45180384D01*
X58636006Y-45046647D01*
X58387915Y-44943884D01*
X58119383Y-44943884D01*
X57871292Y-45046647D01*
X57681412Y-45236527D01*
X57578649Y-45484618D01*
X57578649Y-45743884D01*
X57319383Y-45743884D01*
X57071292Y-45846647D01*
X56881412Y-46036527D01*
X56778649Y-46284618D01*
X56450000Y-46284618D01*
X56450000Y-40734618D01*
X56828649Y-40734618D01*
X56828649Y-41003150D01*
X56931412Y-41251241D01*
X57121292Y-41441121D01*
X57369383Y-41543884D01*
X57637915Y-41543884D01*
X57647097Y-41540081D01*
X57628649Y-41584618D01*
X57628649Y-41793884D01*
X57369383Y-41793884D01*
X57121292Y-41896647D01*
X56931412Y-42086527D01*
X56828649Y-42334618D01*
X56828649Y-42603150D01*
X56931412Y-42851241D01*
X57121292Y-43041121D01*
X57369383Y-43143884D01*
X57637915Y-43143884D01*
X57886006Y-43041121D01*
X58019743Y-42907384D01*
X59160949Y-42907384D01*
X59179641Y-42935359D01*
X59303683Y-43018242D01*
X59450000Y-43047346D01*
X60450000Y-43047346D01*
X60596317Y-43018242D01*
X60710000Y-42942281D01*
X60823683Y-43018242D01*
X60970000Y-43047346D01*
X61970000Y-43047346D01*
X62116317Y-43018242D01*
X62240359Y-42935359D01*
X62305266Y-42838219D01*
X62413140Y-42766140D01*
X62437602Y-42729530D01*
X63628632Y-41538500D01*
X64618369Y-41538500D01*
X64686396Y-41606527D01*
X64710860Y-41643140D01*
X64855906Y-41740057D01*
X64902117Y-41749249D01*
X65882400Y-42729533D01*
X65906860Y-42766140D01*
X65943467Y-42790600D01*
X65943469Y-42790602D01*
X66005960Y-42832357D01*
X66014734Y-42838219D01*
X66079641Y-42935359D01*
X66203683Y-43018242D01*
X66350000Y-43047346D01*
X67350000Y-43047346D01*
X67496317Y-43018242D01*
X67610000Y-42942281D01*
X67723683Y-43018242D01*
X67870000Y-43047346D01*
X68870000Y-43047346D01*
X69016317Y-43018242D01*
X69140359Y-42935359D01*
X69171669Y-42888500D01*
X69533906Y-42888500D01*
X69667643Y-43022237D01*
X69915734Y-43125000D01*
X70184266Y-43125000D01*
X70432357Y-43022237D01*
X70622237Y-42832357D01*
X70725000Y-42584266D01*
X70725000Y-42325000D01*
X70984266Y-42325000D01*
X71232357Y-42222237D01*
X71422237Y-42032357D01*
X71525000Y-41784266D01*
X71525000Y-41515734D01*
X71422237Y-41267643D01*
X71232357Y-41077763D01*
X70984266Y-40975000D01*
X70715734Y-40975000D01*
X70706552Y-40978803D01*
X70725000Y-40934266D01*
X70725000Y-40725000D01*
X70984266Y-40725000D01*
X71232357Y-40622237D01*
X71422237Y-40432357D01*
X71525000Y-40184266D01*
X71525000Y-39915734D01*
X71422237Y-39667643D01*
X71232357Y-39477763D01*
X70984266Y-39375000D01*
X70715734Y-39375000D01*
X70467643Y-39477763D01*
X70333906Y-39611500D01*
X69171669Y-39611500D01*
X69140359Y-39564641D01*
X69016317Y-39481758D01*
X68870000Y-39452654D01*
X67870000Y-39452654D01*
X67723683Y-39481758D01*
X67610000Y-39557719D01*
X67496317Y-39481758D01*
X67350000Y-39452654D01*
X66350000Y-39452654D01*
X66203683Y-39481758D01*
X66079641Y-39564641D01*
X66048331Y-39611500D01*
X65634308Y-39611500D01*
X65614088Y-39607478D01*
X65614084Y-39607478D01*
X65570904Y-39598889D01*
X65527724Y-39607478D01*
X62819276Y-39607478D01*
X62776096Y-39598889D01*
X62732916Y-39607478D01*
X62732912Y-39607478D01*
X62712692Y-39611500D01*
X62271669Y-39611500D01*
X62240359Y-39564641D01*
X62116317Y-39481758D01*
X61970000Y-39452654D01*
X60970000Y-39452654D01*
X60823683Y-39481758D01*
X60710000Y-39557719D01*
X60596317Y-39481758D01*
X60450000Y-39452654D01*
X59450000Y-39452654D01*
X59303683Y-39481758D01*
X59179641Y-39564641D01*
X59135713Y-39630384D01*
X58819743Y-39630384D01*
X58686006Y-39496647D01*
X58437915Y-39393884D01*
X58169383Y-39393884D01*
X57921292Y-39496647D01*
X57731412Y-39686527D01*
X57628649Y-39934618D01*
X57628649Y-40193884D01*
X57369383Y-40193884D01*
X57121292Y-40296647D01*
X56931412Y-40486527D01*
X56828649Y-40734618D01*
X56450000Y-40734618D01*
X56450000Y-37450000D01*
X71550000Y-37450000D01*
X71550001Y-50550000D01*
X71550001Y-50550000D01*
G37*
X71550001Y-50550000D02*
X56450000Y-50550000D01*
X56450000Y-46284618D01*
X56778649Y-46284618D01*
X56778649Y-46553150D01*
X56881412Y-46801241D01*
X57071292Y-46991121D01*
X57319383Y-47093884D01*
X57587915Y-47093884D01*
X57597097Y-47090081D01*
X57578649Y-47134618D01*
X57578649Y-47343884D01*
X57319383Y-47343884D01*
X57071292Y-47446647D01*
X56881412Y-47636527D01*
X56778649Y-47884618D01*
X56778649Y-48153150D01*
X56881412Y-48401241D01*
X57071292Y-48591121D01*
X57319383Y-48693884D01*
X57587915Y-48693884D01*
X57836006Y-48591121D01*
X57969743Y-48457384D01*
X59140949Y-48457384D01*
X59159641Y-48485359D01*
X59283683Y-48568242D01*
X59430000Y-48597346D01*
X60430000Y-48597346D01*
X60576317Y-48568242D01*
X60690000Y-48492281D01*
X60803683Y-48568242D01*
X60950000Y-48597346D01*
X61950000Y-48597346D01*
X62096317Y-48568242D01*
X62220359Y-48485359D01*
X62251669Y-48438500D01*
X65628331Y-48438500D01*
X65659641Y-48485359D01*
X65783683Y-48568242D01*
X65930000Y-48597346D01*
X66930000Y-48597346D01*
X67076317Y-48568242D01*
X67190000Y-48492281D01*
X67303683Y-48568242D01*
X67450000Y-48597346D01*
X68450000Y-48597346D01*
X68596317Y-48568242D01*
X68715658Y-48488500D01*
X69133906Y-48488500D01*
X69267643Y-48622237D01*
X69515734Y-48725000D01*
X69784266Y-48725000D01*
X70032357Y-48622237D01*
X70222237Y-48432357D01*
X70325000Y-48184266D01*
X70325000Y-47925000D01*
X70584266Y-47925000D01*
X70832357Y-47822237D01*
X71022237Y-47632357D01*
X71125000Y-47384266D01*
X71125000Y-47115734D01*
X71022237Y-46867643D01*
X70832357Y-46677763D01*
X70584266Y-46575000D01*
X70315734Y-46575000D01*
X70306552Y-46578803D01*
X70325000Y-46534266D01*
X70325000Y-46325000D01*
X70584266Y-46325000D01*
X70832357Y-46222237D01*
X71022237Y-46032357D01*
X71125000Y-45784266D01*
X71125000Y-45515734D01*
X71022237Y-45267643D01*
X70832357Y-45077763D01*
X70584266Y-44975000D01*
X70315734Y-44975000D01*
X70067643Y-45077763D01*
X69933906Y-45211500D01*
X68785079Y-45211500D01*
X68720359Y-45114641D01*
X68596317Y-45031758D01*
X68450000Y-45002654D01*
X67450000Y-45002654D01*
X67303683Y-45031758D01*
X67190000Y-45107719D01*
X67076317Y-45031758D01*
X66930000Y-45002654D01*
X65930000Y-45002654D01*
X65783683Y-45031758D01*
X65659641Y-45114641D01*
X65628331Y-45161500D01*
X62251669Y-45161500D01*
X62220359Y-45114641D01*
X62096317Y-45031758D01*
X61950000Y-45002654D01*
X60950000Y-45002654D01*
X60803683Y-45031758D01*
X60690000Y-45107719D01*
X60576317Y-45031758D01*
X60430000Y-45002654D01*
X59430000Y-45002654D01*
X59283683Y-45031758D01*
X59159641Y-45114641D01*
X59115713Y-45180384D01*
X58769743Y-45180384D01*
X58636006Y-45046647D01*
X58387915Y-44943884D01*
X58119383Y-44943884D01*
X57871292Y-45046647D01*
X57681412Y-45236527D01*
X57578649Y-45484618D01*
X57578649Y-45743884D01*
X57319383Y-45743884D01*
X57071292Y-45846647D01*
X56881412Y-46036527D01*
X56778649Y-46284618D01*
X56450000Y-46284618D01*
X56450000Y-40734618D01*
X56828649Y-40734618D01*
X56828649Y-41003150D01*
X56931412Y-41251241D01*
X57121292Y-41441121D01*
X57369383Y-41543884D01*
X57637915Y-41543884D01*
X57647097Y-41540081D01*
X57628649Y-41584618D01*
X57628649Y-41793884D01*
X57369383Y-41793884D01*
X57121292Y-41896647D01*
X56931412Y-42086527D01*
X56828649Y-42334618D01*
X56828649Y-42603150D01*
X56931412Y-42851241D01*
X57121292Y-43041121D01*
X57369383Y-43143884D01*
X57637915Y-43143884D01*
X57886006Y-43041121D01*
X58019743Y-42907384D01*
X59160949Y-42907384D01*
X59179641Y-42935359D01*
X59303683Y-43018242D01*
X59450000Y-43047346D01*
X60450000Y-43047346D01*
X60596317Y-43018242D01*
X60710000Y-42942281D01*
X60823683Y-43018242D01*
X60970000Y-43047346D01*
X61970000Y-43047346D01*
X62116317Y-43018242D01*
X62240359Y-42935359D01*
X62305266Y-42838219D01*
X62413140Y-42766140D01*
X62437602Y-42729530D01*
X63628632Y-41538500D01*
X64618369Y-41538500D01*
X64686396Y-41606527D01*
X64710860Y-41643140D01*
X64855906Y-41740057D01*
X64902117Y-41749249D01*
X65882400Y-42729533D01*
X65906860Y-42766140D01*
X65943467Y-42790600D01*
X65943469Y-42790602D01*
X66005960Y-42832357D01*
X66014734Y-42838219D01*
X66079641Y-42935359D01*
X66203683Y-43018242D01*
X66350000Y-43047346D01*
X67350000Y-43047346D01*
X67496317Y-43018242D01*
X67610000Y-42942281D01*
X67723683Y-43018242D01*
X67870000Y-43047346D01*
X68870000Y-43047346D01*
X69016317Y-43018242D01*
X69140359Y-42935359D01*
X69171669Y-42888500D01*
X69533906Y-42888500D01*
X69667643Y-43022237D01*
X69915734Y-43125000D01*
X70184266Y-43125000D01*
X70432357Y-43022237D01*
X70622237Y-42832357D01*
X70725000Y-42584266D01*
X70725000Y-42325000D01*
X70984266Y-42325000D01*
X71232357Y-42222237D01*
X71422237Y-42032357D01*
X71525000Y-41784266D01*
X71525000Y-41515734D01*
X71422237Y-41267643D01*
X71232357Y-41077763D01*
X70984266Y-40975000D01*
X70715734Y-40975000D01*
X70706552Y-40978803D01*
X70725000Y-40934266D01*
X70725000Y-40725000D01*
X70984266Y-40725000D01*
X71232357Y-40622237D01*
X71422237Y-40432357D01*
X71525000Y-40184266D01*
X71525000Y-39915734D01*
X71422237Y-39667643D01*
X71232357Y-39477763D01*
X70984266Y-39375000D01*
X70715734Y-39375000D01*
X70467643Y-39477763D01*
X70333906Y-39611500D01*
X69171669Y-39611500D01*
X69140359Y-39564641D01*
X69016317Y-39481758D01*
X68870000Y-39452654D01*
X67870000Y-39452654D01*
X67723683Y-39481758D01*
X67610000Y-39557719D01*
X67496317Y-39481758D01*
X67350000Y-39452654D01*
X66350000Y-39452654D01*
X66203683Y-39481758D01*
X66079641Y-39564641D01*
X66048331Y-39611500D01*
X65634308Y-39611500D01*
X65614088Y-39607478D01*
X65614084Y-39607478D01*
X65570904Y-39598889D01*
X65527724Y-39607478D01*
X62819276Y-39607478D01*
X62776096Y-39598889D01*
X62732916Y-39607478D01*
X62732912Y-39607478D01*
X62712692Y-39611500D01*
X62271669Y-39611500D01*
X62240359Y-39564641D01*
X62116317Y-39481758D01*
X61970000Y-39452654D01*
X60970000Y-39452654D01*
X60823683Y-39481758D01*
X60710000Y-39557719D01*
X60596317Y-39481758D01*
X60450000Y-39452654D01*
X59450000Y-39452654D01*
X59303683Y-39481758D01*
X59179641Y-39564641D01*
X59135713Y-39630384D01*
X58819743Y-39630384D01*
X58686006Y-39496647D01*
X58437915Y-39393884D01*
X58169383Y-39393884D01*
X57921292Y-39496647D01*
X57731412Y-39686527D01*
X57628649Y-39934618D01*
X57628649Y-40193884D01*
X57369383Y-40193884D01*
X57121292Y-40296647D01*
X56931412Y-40486527D01*
X56828649Y-40734618D01*
X56450000Y-40734618D01*
X56450000Y-37450000D01*
X71550000Y-37450000D01*
X71550001Y-50550000D01*
G36*
X55824419Y-36576109D02*
X55675568Y-36675568D01*
X55620994Y-36757244D01*
X55623396Y-36573486D01*
X55851781Y-36570666D01*
X55824419Y-36576109D01*
X55824419Y-36576109D01*
G37*
X55824419Y-36576109D02*
X55675568Y-36675568D01*
X55620994Y-36757244D01*
X55623396Y-36573486D01*
X55851781Y-36570666D01*
X55824419Y-36576109D01*
G36*
X72049459Y-36551022D02*
X72044321Y-36550000D01*
X72000000Y-36541184D01*
X71955679Y-36550000D01*
X57525755Y-36550000D01*
X71673002Y-36375342D01*
X72049459Y-36551022D01*
X72049459Y-36551022D01*
G37*
X72049459Y-36551022D02*
X72044321Y-36550000D01*
X72000000Y-36541184D01*
X71955679Y-36550000D01*
X57525755Y-36550000D01*
X71673002Y-36375342D01*
X72049459Y-36551022D01*
M02*
