G04 #@! TF.GenerationSoftware,KiCad,Pcbnew,(5.0.0)*
G04 #@! TF.CreationDate,2018-11-17T22:13:07-08:00*
G04 #@! TF.ProjectId,test_for_smd_networks,746573745F666F725F736D645F6E6574,rev?*
G04 #@! TF.SameCoordinates,Original*
G04 #@! TF.FileFunction,Legend,Top*
G04 #@! TF.FilePolarity,Positive*
%FSLAX46Y46*%
G04 Gerber Fmt 4.6, Leading zero omitted, Abs format (unit mm)*
G04 Created by KiCad (PCBNEW (5.0.0)) date 11/17/18 22:13:07*
%MOMM*%
%LPD*%
G01*
G04 APERTURE LIST*
%ADD10C,0.190500*%
%ADD11C,0.120000*%
%ADD12C,0.150000*%
G04 APERTURE END LIST*
D10*
X63705392Y-49066285D02*
X63741678Y-49102571D01*
X63777964Y-49211428D01*
X63777964Y-49284000D01*
X63741678Y-49392857D01*
X63669107Y-49465428D01*
X63596535Y-49501714D01*
X63451392Y-49538000D01*
X63342535Y-49538000D01*
X63197392Y-49501714D01*
X63124821Y-49465428D01*
X63052250Y-49392857D01*
X63015964Y-49284000D01*
X63015964Y-49211428D01*
X63052250Y-49102571D01*
X63088535Y-49066285D01*
X63777964Y-48739714D02*
X63015964Y-48739714D01*
X63777964Y-48304285D01*
X63015964Y-48304285D01*
X63777964Y-47360857D02*
X63015964Y-47360857D01*
X63560250Y-47106857D01*
X63015964Y-46852857D01*
X63777964Y-46852857D01*
X63560250Y-46526285D02*
X63560250Y-46163428D01*
X63777964Y-46598857D02*
X63015964Y-46344857D01*
X63777964Y-46090857D01*
X63741678Y-45873142D02*
X63777964Y-45764285D01*
X63777964Y-45582857D01*
X63741678Y-45510285D01*
X63705392Y-45474000D01*
X63632821Y-45437714D01*
X63560250Y-45437714D01*
X63487678Y-45474000D01*
X63451392Y-45510285D01*
X63415107Y-45582857D01*
X63378821Y-45728000D01*
X63342535Y-45800571D01*
X63306250Y-45836857D01*
X63233678Y-45873142D01*
X63161107Y-45873142D01*
X63088535Y-45836857D01*
X63052250Y-45800571D01*
X63015964Y-45728000D01*
X63015964Y-45546571D01*
X63052250Y-45437714D01*
X63777964Y-45111142D02*
X63015964Y-45111142D01*
X63777964Y-44675714D02*
X63342535Y-45002285D01*
X63015964Y-44675714D02*
X63451392Y-45111142D01*
X63777964Y-43768571D02*
X63015964Y-43768571D01*
X63015964Y-43478285D01*
X63052250Y-43405714D01*
X63088535Y-43369428D01*
X63161107Y-43333142D01*
X63269964Y-43333142D01*
X63342535Y-43369428D01*
X63378821Y-43405714D01*
X63415107Y-43478285D01*
X63415107Y-43768571D01*
X63015964Y-43006571D02*
X63632821Y-43006571D01*
X63705392Y-42970285D01*
X63741678Y-42934000D01*
X63777964Y-42861428D01*
X63777964Y-42716285D01*
X63741678Y-42643714D01*
X63705392Y-42607428D01*
X63632821Y-42571142D01*
X63015964Y-42571142D01*
X63777964Y-41845428D02*
X63777964Y-42208285D01*
X63015964Y-42208285D01*
X63777964Y-41228571D02*
X63777964Y-41591428D01*
X63015964Y-41591428D01*
X63378821Y-40720571D02*
X63415107Y-40611714D01*
X63451392Y-40575428D01*
X63523964Y-40539142D01*
X63632821Y-40539142D01*
X63705392Y-40575428D01*
X63741678Y-40611714D01*
X63777964Y-40684285D01*
X63777964Y-40974571D01*
X63015964Y-40974571D01*
X63015964Y-40720571D01*
X63052250Y-40648000D01*
X63088535Y-40611714D01*
X63161107Y-40575428D01*
X63233678Y-40575428D01*
X63306250Y-40611714D01*
X63342535Y-40648000D01*
X63378821Y-40720571D01*
X63378821Y-40974571D01*
X63560250Y-40248857D02*
X63560250Y-39886000D01*
X63777964Y-40321428D02*
X63015964Y-40067428D01*
X63777964Y-39813428D01*
X63705392Y-39124000D02*
X63741678Y-39160285D01*
X63777964Y-39269142D01*
X63777964Y-39341714D01*
X63741678Y-39450571D01*
X63669107Y-39523142D01*
X63596535Y-39559428D01*
X63451392Y-39595714D01*
X63342535Y-39595714D01*
X63197392Y-39559428D01*
X63124821Y-39523142D01*
X63052250Y-39450571D01*
X63015964Y-39341714D01*
X63015964Y-39269142D01*
X63052250Y-39160285D01*
X63088535Y-39124000D01*
X63777964Y-38797428D02*
X63015964Y-38797428D01*
X63777964Y-38362000D02*
X63342535Y-38688571D01*
X63015964Y-38362000D02*
X63451392Y-38797428D01*
X64349464Y-49973428D02*
X64349464Y-49538000D01*
X65111464Y-49755714D02*
X64349464Y-49755714D01*
X64712321Y-49284000D02*
X64712321Y-49030000D01*
X65111464Y-48921142D02*
X65111464Y-49284000D01*
X64349464Y-49284000D01*
X64349464Y-48921142D01*
X65075178Y-48630857D02*
X65111464Y-48522000D01*
X65111464Y-48340571D01*
X65075178Y-48268000D01*
X65038892Y-48231714D01*
X64966321Y-48195428D01*
X64893750Y-48195428D01*
X64821178Y-48231714D01*
X64784892Y-48268000D01*
X64748607Y-48340571D01*
X64712321Y-48485714D01*
X64676035Y-48558285D01*
X64639750Y-48594571D01*
X64567178Y-48630857D01*
X64494607Y-48630857D01*
X64422035Y-48594571D01*
X64385750Y-48558285D01*
X64349464Y-48485714D01*
X64349464Y-48304285D01*
X64385750Y-48195428D01*
X64349464Y-47977714D02*
X64349464Y-47542285D01*
X65111464Y-47760000D02*
X64349464Y-47760000D01*
X64712321Y-46453714D02*
X64748607Y-46344857D01*
X64784892Y-46308571D01*
X64857464Y-46272285D01*
X64966321Y-46272285D01*
X65038892Y-46308571D01*
X65075178Y-46344857D01*
X65111464Y-46417428D01*
X65111464Y-46707714D01*
X64349464Y-46707714D01*
X64349464Y-46453714D01*
X64385750Y-46381142D01*
X64422035Y-46344857D01*
X64494607Y-46308571D01*
X64567178Y-46308571D01*
X64639750Y-46344857D01*
X64676035Y-46381142D01*
X64712321Y-46453714D01*
X64712321Y-46707714D01*
X64349464Y-45800571D02*
X64349464Y-45655428D01*
X64385750Y-45582857D01*
X64458321Y-45510285D01*
X64603464Y-45474000D01*
X64857464Y-45474000D01*
X65002607Y-45510285D01*
X65075178Y-45582857D01*
X65111464Y-45655428D01*
X65111464Y-45800571D01*
X65075178Y-45873142D01*
X65002607Y-45945714D01*
X64857464Y-45982000D01*
X64603464Y-45982000D01*
X64458321Y-45945714D01*
X64385750Y-45873142D01*
X64349464Y-45800571D01*
X64893750Y-45183714D02*
X64893750Y-44820857D01*
X65111464Y-45256285D02*
X64349464Y-45002285D01*
X65111464Y-44748285D01*
X65111464Y-44058857D02*
X64748607Y-44312857D01*
X65111464Y-44494285D02*
X64349464Y-44494285D01*
X64349464Y-44204000D01*
X64385750Y-44131428D01*
X64422035Y-44095142D01*
X64494607Y-44058857D01*
X64603464Y-44058857D01*
X64676035Y-44095142D01*
X64712321Y-44131428D01*
X64748607Y-44204000D01*
X64748607Y-44494285D01*
X65111464Y-43732285D02*
X64349464Y-43732285D01*
X64349464Y-43550857D01*
X64385750Y-43442000D01*
X64458321Y-43369428D01*
X64530892Y-43333142D01*
X64676035Y-43296857D01*
X64784892Y-43296857D01*
X64930035Y-43333142D01*
X65002607Y-43369428D01*
X65075178Y-43442000D01*
X65111464Y-43550857D01*
X65111464Y-43732285D01*
X65111464Y-41990571D02*
X65111464Y-42426000D01*
X65111464Y-42208285D02*
X64349464Y-42208285D01*
X64458321Y-42280857D01*
X64530892Y-42353428D01*
X64567178Y-42426000D01*
X64349464Y-41736571D02*
X64349464Y-41228571D01*
X65111464Y-41555142D01*
X65038892Y-40938285D02*
X65075178Y-40902000D01*
X65111464Y-40938285D01*
X65075178Y-40974571D01*
X65038892Y-40938285D01*
X65111464Y-40938285D01*
X64349464Y-40648000D02*
X65111464Y-40140000D01*
X64349464Y-40140000D02*
X65111464Y-40648000D01*
X65111464Y-39849714D02*
X64349464Y-39849714D01*
X65038892Y-39486857D02*
X65075178Y-39450571D01*
X65111464Y-39486857D01*
X65075178Y-39523142D01*
X65038892Y-39486857D01*
X65111464Y-39486857D01*
X65111464Y-38724857D02*
X65111464Y-39160285D01*
X65111464Y-38942571D02*
X64349464Y-38942571D01*
X64458321Y-39015142D01*
X64530892Y-39087714D01*
X64567178Y-39160285D01*
X64676035Y-38289428D02*
X64639750Y-38362000D01*
X64603464Y-38398285D01*
X64530892Y-38434571D01*
X64494607Y-38434571D01*
X64422035Y-38398285D01*
X64385750Y-38362000D01*
X64349464Y-38289428D01*
X64349464Y-38144285D01*
X64385750Y-38071714D01*
X64422035Y-38035428D01*
X64494607Y-37999142D01*
X64530892Y-37999142D01*
X64603464Y-38035428D01*
X64639750Y-38071714D01*
X64676035Y-38144285D01*
X64676035Y-38289428D01*
X64712321Y-38362000D01*
X64748607Y-38398285D01*
X64821178Y-38434571D01*
X64966321Y-38434571D01*
X65038892Y-38398285D01*
X65075178Y-38362000D01*
X65111464Y-38289428D01*
X65111464Y-38144285D01*
X65075178Y-38071714D01*
X65038892Y-38035428D01*
X64966321Y-37999142D01*
X64821178Y-37999142D01*
X64748607Y-38035428D01*
X64712321Y-38071714D01*
X64676035Y-38144285D01*
D11*
G04 #@! TO.C,CN1*
X68710000Y-39550000D02*
X66510000Y-39550000D01*
X68710000Y-42950000D02*
X66510000Y-42950000D01*
G04 #@! TO.C,CN2*
X61810000Y-42950000D02*
X59610000Y-42950000D01*
X61810000Y-39550000D02*
X59610000Y-39550000D01*
G04 #@! TO.C,CN3*
X68290000Y-45100000D02*
X66090000Y-45100000D01*
X68290000Y-48500000D02*
X66090000Y-48500000D01*
G04 #@! TO.C,CN4*
X61790000Y-48500000D02*
X59590000Y-48500000D01*
X61790000Y-45100000D02*
X59590000Y-45100000D01*
G04 #@! TO.C,CN1*
D12*
X66919523Y-39007142D02*
X66871904Y-39054761D01*
X66729047Y-39102380D01*
X66633809Y-39102380D01*
X66490952Y-39054761D01*
X66395714Y-38959523D01*
X66348095Y-38864285D01*
X66300476Y-38673809D01*
X66300476Y-38530952D01*
X66348095Y-38340476D01*
X66395714Y-38245238D01*
X66490952Y-38150000D01*
X66633809Y-38102380D01*
X66729047Y-38102380D01*
X66871904Y-38150000D01*
X66919523Y-38197619D01*
X67348095Y-39102380D02*
X67348095Y-38102380D01*
X67919523Y-39102380D01*
X67919523Y-38102380D01*
X68919523Y-39102380D02*
X68348095Y-39102380D01*
X68633809Y-39102380D02*
X68633809Y-38102380D01*
X68538571Y-38245238D01*
X68443333Y-38340476D01*
X68348095Y-38388095D01*
G04 #@! TO.C,CN2*
X60019523Y-39007142D02*
X59971904Y-39054761D01*
X59829047Y-39102380D01*
X59733809Y-39102380D01*
X59590952Y-39054761D01*
X59495714Y-38959523D01*
X59448095Y-38864285D01*
X59400476Y-38673809D01*
X59400476Y-38530952D01*
X59448095Y-38340476D01*
X59495714Y-38245238D01*
X59590952Y-38150000D01*
X59733809Y-38102380D01*
X59829047Y-38102380D01*
X59971904Y-38150000D01*
X60019523Y-38197619D01*
X60448095Y-39102380D02*
X60448095Y-38102380D01*
X61019523Y-39102380D01*
X61019523Y-38102380D01*
X61448095Y-38197619D02*
X61495714Y-38150000D01*
X61590952Y-38102380D01*
X61829047Y-38102380D01*
X61924285Y-38150000D01*
X61971904Y-38197619D01*
X62019523Y-38292857D01*
X62019523Y-38388095D01*
X61971904Y-38530952D01*
X61400476Y-39102380D01*
X62019523Y-39102380D01*
G04 #@! TO.C,CN3*
X66499523Y-44557142D02*
X66451904Y-44604761D01*
X66309047Y-44652380D01*
X66213809Y-44652380D01*
X66070952Y-44604761D01*
X65975714Y-44509523D01*
X65928095Y-44414285D01*
X65880476Y-44223809D01*
X65880476Y-44080952D01*
X65928095Y-43890476D01*
X65975714Y-43795238D01*
X66070952Y-43700000D01*
X66213809Y-43652380D01*
X66309047Y-43652380D01*
X66451904Y-43700000D01*
X66499523Y-43747619D01*
X66928095Y-44652380D02*
X66928095Y-43652380D01*
X67499523Y-44652380D01*
X67499523Y-43652380D01*
X67880476Y-43652380D02*
X68499523Y-43652380D01*
X68166190Y-44033333D01*
X68309047Y-44033333D01*
X68404285Y-44080952D01*
X68451904Y-44128571D01*
X68499523Y-44223809D01*
X68499523Y-44461904D01*
X68451904Y-44557142D01*
X68404285Y-44604761D01*
X68309047Y-44652380D01*
X68023333Y-44652380D01*
X67928095Y-44604761D01*
X67880476Y-44557142D01*
G04 #@! TO.C,CN4*
X59999523Y-44557142D02*
X59951904Y-44604761D01*
X59809047Y-44652380D01*
X59713809Y-44652380D01*
X59570952Y-44604761D01*
X59475714Y-44509523D01*
X59428095Y-44414285D01*
X59380476Y-44223809D01*
X59380476Y-44080952D01*
X59428095Y-43890476D01*
X59475714Y-43795238D01*
X59570952Y-43700000D01*
X59713809Y-43652380D01*
X59809047Y-43652380D01*
X59951904Y-43700000D01*
X59999523Y-43747619D01*
X60428095Y-44652380D02*
X60428095Y-43652380D01*
X60999523Y-44652380D01*
X60999523Y-43652380D01*
X61904285Y-43985714D02*
X61904285Y-44652380D01*
X61666190Y-43604761D02*
X61428095Y-44319047D01*
X62047142Y-44319047D01*
G04 #@! TD*
M02*
