G04 #@! TF.GenerationSoftware,KiCad,Pcbnew,(5.0.0)*
G04 #@! TF.CreationDate,2018-11-17T22:13:07-08:00*
G04 #@! TF.ProjectId,test_for_smd_networks,746573745F666F725F736D645F6E6574,rev?*
G04 #@! TF.SameCoordinates,Original*
G04 #@! TF.FileFunction,Soldermask,Top*
G04 #@! TF.FilePolarity,Negative*
%FSLAX46Y46*%
G04 Gerber Fmt 4.6, Leading zero omitted, Abs format (unit mm)*
G04 Created by KiCad (PCBNEW (5.0.0)) date 11/17/18 22:13:07*
%MOMM*%
%LPD*%
G01*
G04 APERTURE LIST*
%ADD10C,0.150000*%
%ADD11R,1.400000X0.830000*%
G04 APERTURE END LIST*
D10*
G04 #@! TO.C,CN1*
G36*
X66360000Y-39500000D02*
X68860000Y-39500000D01*
X68860000Y-43000000D01*
X66360000Y-43000000D01*
X66360000Y-39500000D01*
G37*
X66360000Y-39500000D02*
X68860000Y-39500000D01*
X68860000Y-43000000D01*
X66360000Y-43000000D01*
X66360000Y-39500000D01*
G04 #@! TO.C,CN2*
G36*
X59460000Y-39500000D02*
X61960000Y-39500000D01*
X61960000Y-43000000D01*
X59460000Y-43000000D01*
X59460000Y-39500000D01*
G37*
X59460000Y-39500000D02*
X61960000Y-39500000D01*
X61960000Y-43000000D01*
X59460000Y-43000000D01*
X59460000Y-39500000D01*
G04 #@! TO.C,CN3*
G36*
X65940000Y-45050000D02*
X68440000Y-45050000D01*
X68440000Y-48550000D01*
X65940000Y-48550000D01*
X65940000Y-45050000D01*
G37*
X65940000Y-45050000D02*
X68440000Y-45050000D01*
X68440000Y-48550000D01*
X65940000Y-48550000D01*
X65940000Y-45050000D01*
G04 #@! TO.C,CN4*
G36*
X59440000Y-45050000D02*
X61940000Y-45050000D01*
X61940000Y-48550000D01*
X59440000Y-48550000D01*
X59440000Y-45050000D01*
G37*
X59440000Y-45050000D02*
X61940000Y-45050000D01*
X61940000Y-48550000D01*
X59440000Y-48550000D01*
X59440000Y-45050000D01*
G04 #@! TD*
D11*
G04 #@! TO.C,CN1*
X68370000Y-40050000D03*
X68370000Y-42450000D03*
X66850000Y-42450000D03*
X66850000Y-40050000D03*
X68370000Y-41650000D03*
X66850000Y-41650000D03*
X68370000Y-40850000D03*
X66850000Y-40850000D03*
G04 #@! TD*
G04 #@! TO.C,CN2*
X59950000Y-40850000D03*
X61470000Y-40850000D03*
X59950000Y-41650000D03*
X61470000Y-41650000D03*
X59950000Y-40050000D03*
X59950000Y-42450000D03*
X61470000Y-42450000D03*
X61470000Y-40050000D03*
G04 #@! TD*
G04 #@! TO.C,CN3*
X67950000Y-45600000D03*
X67950000Y-48000000D03*
X66430000Y-48000000D03*
X66430000Y-45600000D03*
X67950000Y-47200000D03*
X66430000Y-47200000D03*
X67950000Y-46400000D03*
X66430000Y-46400000D03*
G04 #@! TD*
G04 #@! TO.C,CN4*
X59930000Y-46400000D03*
X61450000Y-46400000D03*
X59930000Y-47200000D03*
X61450000Y-47200000D03*
X59930000Y-45600000D03*
X59930000Y-48000000D03*
X61450000Y-48000000D03*
X61450000Y-45600000D03*
G04 #@! TD*
M02*
