G04 #@! TF.GenerationSoftware,KiCad,Pcbnew,(5.0.1)-4*
G04 #@! TF.CreationDate,2019-01-09T16:13:17-08:00*
G04 #@! TF.ProjectId,alu,616C752E6B696361645F706362000000,rev?*
G04 #@! TF.SameCoordinates,Original*
G04 #@! TF.FileFunction,Legend,Top*
G04 #@! TF.FilePolarity,Positive*
%FSLAX46Y46*%
G04 Gerber Fmt 4.6, Leading zero omitted, Abs format (unit mm)*
G04 Created by KiCad (PCBNEW (5.0.1)-4) date 1/9/2019 4:13:17 PM*
%MOMM*%
%LPD*%
G01*
G04 APERTURE LIST*
%ADD10C,0.300000*%
%ADD11C,0.200000*%
%ADD12C,0.150000*%
%ADD13C,0.120000*%
%ADD14C,0.100000*%
G04 APERTURE END LIST*
D10*
X212194331Y-36233760D02*
X213480045Y-36233760D01*
X212480045Y-37953760D02*
X213194331Y-37953760D01*
X212337188Y-38382331D02*
X212837188Y-36882331D01*
X213337188Y-38382331D01*
X213480045Y-36233760D02*
X214694331Y-36233760D01*
X214551474Y-38382331D02*
X213837188Y-38382331D01*
X213837188Y-36882331D01*
X214694331Y-36233760D02*
X216265760Y-36233760D01*
X215051474Y-36882331D02*
X215051474Y-38096617D01*
X215122902Y-38239474D01*
X215194331Y-38310902D01*
X215337188Y-38382331D01*
X215622902Y-38382331D01*
X215765760Y-38310902D01*
X215837188Y-38239474D01*
X215908617Y-38096617D01*
X215908617Y-36882331D01*
X216265760Y-36233760D02*
X217408617Y-36233760D01*
X216265760Y-38525188D02*
X217408617Y-38525188D01*
X217408617Y-36233760D02*
X218980045Y-36233760D01*
X218051474Y-36882331D02*
X218337188Y-36882331D01*
X218480045Y-36953760D01*
X218622902Y-37096617D01*
X218694331Y-37382331D01*
X218694331Y-37882331D01*
X218622902Y-38168045D01*
X218480045Y-38310902D01*
X218337188Y-38382331D01*
X218051474Y-38382331D01*
X217908617Y-38310902D01*
X217765760Y-38168045D01*
X217694331Y-37882331D01*
X217694331Y-37382331D01*
X217765760Y-37096617D01*
X217908617Y-36953760D01*
X218051474Y-36882331D01*
X218980045Y-36233760D02*
X220337188Y-36233760D01*
X219337188Y-37596617D02*
X219837188Y-37596617D01*
X220051474Y-38382331D02*
X219337188Y-38382331D01*
X219337188Y-36882331D01*
X220051474Y-36882331D01*
X212923394Y-48120691D02*
X212923394Y-46620691D01*
X213494822Y-46620691D01*
X213637680Y-46692120D01*
X213709108Y-46763548D01*
X213780537Y-46906405D01*
X213780537Y-47120691D01*
X213709108Y-47263548D01*
X213637680Y-47334977D01*
X213494822Y-47406405D01*
X212923394Y-47406405D01*
X214709108Y-46620691D02*
X214994822Y-46620691D01*
X215137680Y-46692120D01*
X215280537Y-46834977D01*
X215351965Y-47120691D01*
X215351965Y-47620691D01*
X215280537Y-47906405D01*
X215137680Y-48049262D01*
X214994822Y-48120691D01*
X214709108Y-48120691D01*
X214566251Y-48049262D01*
X214423394Y-47906405D01*
X214351965Y-47620691D01*
X214351965Y-47120691D01*
X214423394Y-46834977D01*
X214566251Y-46692120D01*
X214709108Y-46620691D01*
X215851965Y-46620691D02*
X216209108Y-48120691D01*
X216494822Y-47049262D01*
X216780537Y-48120691D01*
X217137680Y-46620691D01*
X217709108Y-47334977D02*
X218209108Y-47334977D01*
X218423394Y-48120691D02*
X217709108Y-48120691D01*
X217709108Y-46620691D01*
X218423394Y-46620691D01*
X219923394Y-48120691D02*
X219423394Y-47406405D01*
X219066251Y-48120691D02*
X219066251Y-46620691D01*
X219637680Y-46620691D01*
X219780537Y-46692120D01*
X219851965Y-46763548D01*
X219923394Y-46906405D01*
X219923394Y-47120691D01*
X219851965Y-47263548D01*
X219780537Y-47334977D01*
X219637680Y-47406405D01*
X219066251Y-47406405D01*
X188801211Y-63139160D02*
X187301211Y-63139160D01*
X187301211Y-62567731D01*
X187372640Y-62424874D01*
X187444068Y-62353445D01*
X187586925Y-62282017D01*
X187801211Y-62282017D01*
X187944068Y-62353445D01*
X188015497Y-62424874D01*
X188086925Y-62567731D01*
X188086925Y-63139160D01*
X188801211Y-60782017D02*
X188086925Y-61282017D01*
X188801211Y-61639160D02*
X187301211Y-61639160D01*
X187301211Y-61067731D01*
X187372640Y-60924874D01*
X187444068Y-60853445D01*
X187586925Y-60782017D01*
X187801211Y-60782017D01*
X187944068Y-60853445D01*
X188015497Y-60924874D01*
X188086925Y-61067731D01*
X188086925Y-61639160D01*
X187301211Y-59853445D02*
X187301211Y-59567731D01*
X187372640Y-59424874D01*
X187515497Y-59282017D01*
X187801211Y-59210588D01*
X188301211Y-59210588D01*
X188586925Y-59282017D01*
X188729782Y-59424874D01*
X188801211Y-59567731D01*
X188801211Y-59853445D01*
X188729782Y-59996302D01*
X188586925Y-60139160D01*
X188301211Y-60210588D01*
X187801211Y-60210588D01*
X187515497Y-60139160D01*
X187372640Y-59996302D01*
X187301211Y-59853445D01*
X188801211Y-58567731D02*
X187301211Y-58567731D01*
X187301211Y-57996302D01*
X187372640Y-57853445D01*
X187444068Y-57782017D01*
X187586925Y-57710588D01*
X187801211Y-57710588D01*
X187944068Y-57782017D01*
X188015497Y-57853445D01*
X188086925Y-57996302D01*
X188086925Y-58567731D01*
X188372640Y-57139160D02*
X188372640Y-56424874D01*
X188801211Y-57282017D02*
X187301211Y-56782017D01*
X188801211Y-56282017D01*
X187372640Y-54996302D02*
X187301211Y-55139160D01*
X187301211Y-55353445D01*
X187372640Y-55567731D01*
X187515497Y-55710588D01*
X187658354Y-55782017D01*
X187944068Y-55853445D01*
X188158354Y-55853445D01*
X188444068Y-55782017D01*
X188586925Y-55710588D01*
X188729782Y-55567731D01*
X188801211Y-55353445D01*
X188801211Y-55210588D01*
X188729782Y-54996302D01*
X188658354Y-54924874D01*
X188158354Y-54924874D01*
X188158354Y-55210588D01*
X188372640Y-54353445D02*
X188372640Y-53639160D01*
X188801211Y-54496302D02*
X187301211Y-53996302D01*
X188801211Y-53496302D01*
X187301211Y-53210588D02*
X187301211Y-52353445D01*
X188801211Y-52782017D02*
X187301211Y-52782017D01*
X188015497Y-51853445D02*
X188015497Y-51353445D01*
X188801211Y-51139160D02*
X188801211Y-51853445D01*
X187301211Y-51853445D01*
X187301211Y-51139160D01*
X187229782Y-49424874D02*
X189158354Y-50710588D01*
X187372640Y-48139160D02*
X187301211Y-48282017D01*
X187301211Y-48496302D01*
X187372640Y-48710588D01*
X187515497Y-48853445D01*
X187658354Y-48924874D01*
X187944068Y-48996302D01*
X188158354Y-48996302D01*
X188444068Y-48924874D01*
X188586925Y-48853445D01*
X188729782Y-48710588D01*
X188801211Y-48496302D01*
X188801211Y-48353445D01*
X188729782Y-48139160D01*
X188658354Y-48067731D01*
X188158354Y-48067731D01*
X188158354Y-48353445D01*
X188015497Y-47424874D02*
X188015497Y-46924874D01*
X188801211Y-46710588D02*
X188801211Y-47424874D01*
X187301211Y-47424874D01*
X187301211Y-46710588D01*
X188801211Y-46067731D02*
X187301211Y-46067731D01*
X188801211Y-45210588D01*
X187301211Y-45210588D01*
X188015497Y-44496302D02*
X188015497Y-43996302D01*
X188801211Y-43782017D02*
X188801211Y-44496302D01*
X187301211Y-44496302D01*
X187301211Y-43782017D01*
X188801211Y-42282017D02*
X188086925Y-42782017D01*
X188801211Y-43139160D02*
X187301211Y-43139160D01*
X187301211Y-42567731D01*
X187372640Y-42424874D01*
X187444068Y-42353445D01*
X187586925Y-42282017D01*
X187801211Y-42282017D01*
X187944068Y-42353445D01*
X188015497Y-42424874D01*
X188086925Y-42567731D01*
X188086925Y-43139160D01*
X188372640Y-41710588D02*
X188372640Y-40996302D01*
X188801211Y-41853445D02*
X187301211Y-41353445D01*
X188801211Y-40853445D01*
X187301211Y-40567731D02*
X187301211Y-39710588D01*
X188801211Y-40139160D02*
X187301211Y-40139160D01*
X188015497Y-39210588D02*
X188015497Y-38710588D01*
X188801211Y-38496302D02*
X188801211Y-39210588D01*
X187301211Y-39210588D01*
X187301211Y-38496302D01*
X188801211Y-35853445D02*
X188086925Y-36353445D01*
X188801211Y-36710588D02*
X187301211Y-36710588D01*
X187301211Y-36139160D01*
X187372640Y-35996302D01*
X187444068Y-35924874D01*
X187586925Y-35853445D01*
X187801211Y-35853445D01*
X187944068Y-35924874D01*
X188015497Y-35996302D01*
X188086925Y-36139160D01*
X188086925Y-36710588D01*
X187301211Y-34924874D02*
X187301211Y-34639160D01*
X187372640Y-34496302D01*
X187515497Y-34353445D01*
X187801211Y-34282017D01*
X188301211Y-34282017D01*
X188586925Y-34353445D01*
X188729782Y-34496302D01*
X188801211Y-34639160D01*
X188801211Y-34924874D01*
X188729782Y-35067731D01*
X188586925Y-35210588D01*
X188301211Y-35282017D01*
X187801211Y-35282017D01*
X187515497Y-35210588D01*
X187372640Y-35067731D01*
X187301211Y-34924874D01*
X188801211Y-33639160D02*
X187301211Y-33639160D01*
X188372640Y-33139160D01*
X187301211Y-32639160D01*
X188801211Y-32639160D01*
X190494068Y-50103445D02*
X190422640Y-50246302D01*
X190351211Y-50317731D01*
X190208354Y-50389160D01*
X190136925Y-50389160D01*
X189994068Y-50317731D01*
X189922640Y-50246302D01*
X189851211Y-50103445D01*
X189851211Y-49817731D01*
X189922640Y-49674874D01*
X189994068Y-49603445D01*
X190136925Y-49532017D01*
X190208354Y-49532017D01*
X190351211Y-49603445D01*
X190422640Y-49674874D01*
X190494068Y-49817731D01*
X190494068Y-50103445D01*
X190565497Y-50246302D01*
X190636925Y-50317731D01*
X190779782Y-50389160D01*
X191065497Y-50389160D01*
X191208354Y-50317731D01*
X191279782Y-50246302D01*
X191351211Y-50103445D01*
X191351211Y-49817731D01*
X191279782Y-49674874D01*
X191208354Y-49603445D01*
X191065497Y-49532017D01*
X190779782Y-49532017D01*
X190636925Y-49603445D01*
X190565497Y-49674874D01*
X190494068Y-49817731D01*
X191351211Y-48889160D02*
X189851211Y-48889160D01*
X191351211Y-48032017D02*
X190494068Y-48674874D01*
X189851211Y-48032017D02*
X190708354Y-48889160D01*
X191351211Y-47532017D02*
X190351211Y-46746302D01*
X190351211Y-47532017D02*
X191351211Y-46746302D01*
X190494068Y-45960588D02*
X190422640Y-46103445D01*
X190351211Y-46174874D01*
X190208354Y-46246302D01*
X190136925Y-46246302D01*
X189994068Y-46174874D01*
X189922640Y-46103445D01*
X189851211Y-45960588D01*
X189851211Y-45674874D01*
X189922640Y-45532017D01*
X189994068Y-45460588D01*
X190136925Y-45389160D01*
X190208354Y-45389160D01*
X190351211Y-45460588D01*
X190422640Y-45532017D01*
X190494068Y-45674874D01*
X190494068Y-45960588D01*
X190565497Y-46103445D01*
X190636925Y-46174874D01*
X190779782Y-46246302D01*
X191065497Y-46246302D01*
X191208354Y-46174874D01*
X191279782Y-46103445D01*
X191351211Y-45960588D01*
X191351211Y-45674874D01*
X191279782Y-45532017D01*
X191208354Y-45460588D01*
X191065497Y-45389160D01*
X190779782Y-45389160D01*
X190636925Y-45460588D01*
X190565497Y-45532017D01*
X190494068Y-45674874D01*
X217827714Y-88495177D02*
X217899142Y-88566605D01*
X217970571Y-88780891D01*
X217970571Y-88923748D01*
X217899142Y-89138034D01*
X217756285Y-89280891D01*
X217613428Y-89352320D01*
X217327714Y-89423748D01*
X217113428Y-89423748D01*
X216827714Y-89352320D01*
X216684857Y-89280891D01*
X216542000Y-89138034D01*
X216470571Y-88923748D01*
X216470571Y-88780891D01*
X216542000Y-88566605D01*
X216613428Y-88495177D01*
X217970571Y-87138034D02*
X217970571Y-87852320D01*
X216470571Y-87852320D01*
X216470571Y-86638034D02*
X217684857Y-86638034D01*
X217827714Y-86566605D01*
X217899142Y-86495177D01*
X217970571Y-86352320D01*
X217970571Y-86066605D01*
X217899142Y-85923748D01*
X217827714Y-85852320D01*
X217684857Y-85780891D01*
X216470571Y-85780891D01*
X217970571Y-83066605D02*
X217256285Y-83566605D01*
X217970571Y-83923748D02*
X216470571Y-83923748D01*
X216470571Y-83352320D01*
X216542000Y-83209462D01*
X216613428Y-83138034D01*
X216756285Y-83066605D01*
X216970571Y-83066605D01*
X217113428Y-83138034D01*
X217184857Y-83209462D01*
X217256285Y-83352320D01*
X217256285Y-83923748D01*
X216470571Y-82138034D02*
X216470571Y-81852320D01*
X216542000Y-81709462D01*
X216684857Y-81566605D01*
X216970571Y-81495177D01*
X217470571Y-81495177D01*
X217756285Y-81566605D01*
X217899142Y-81709462D01*
X217970571Y-81852320D01*
X217970571Y-82138034D01*
X217899142Y-82280891D01*
X217756285Y-82423748D01*
X217470571Y-82495177D01*
X216970571Y-82495177D01*
X216684857Y-82423748D01*
X216542000Y-82280891D01*
X216470571Y-82138034D01*
X217970571Y-80852320D02*
X216470571Y-80852320D01*
X217542000Y-80352320D01*
X216470571Y-79852320D01*
X217970571Y-79852320D01*
X219020571Y-87888034D02*
X219020571Y-86959462D01*
X219592000Y-87459462D01*
X219592000Y-87245177D01*
X219663428Y-87102320D01*
X219734857Y-87030891D01*
X219877714Y-86959462D01*
X220234857Y-86959462D01*
X220377714Y-87030891D01*
X220449142Y-87102320D01*
X220520571Y-87245177D01*
X220520571Y-87673748D01*
X220449142Y-87816605D01*
X220377714Y-87888034D01*
X219163428Y-86388034D02*
X219092000Y-86316605D01*
X219020571Y-86173748D01*
X219020571Y-85816605D01*
X219092000Y-85673748D01*
X219163428Y-85602320D01*
X219306285Y-85530891D01*
X219449142Y-85530891D01*
X219663428Y-85602320D01*
X220520571Y-86459462D01*
X220520571Y-85530891D01*
X220520571Y-84888034D02*
X219020571Y-84888034D01*
X220520571Y-84030891D02*
X219663428Y-84673748D01*
X219020571Y-84030891D02*
X219877714Y-84888034D01*
X220520571Y-83530891D02*
X219520571Y-82745177D01*
X219520571Y-83530891D02*
X220520571Y-82745177D01*
X219663428Y-81959462D02*
X219592000Y-82102320D01*
X219520571Y-82173748D01*
X219377714Y-82245177D01*
X219306285Y-82245177D01*
X219163428Y-82173748D01*
X219092000Y-82102320D01*
X219020571Y-81959462D01*
X219020571Y-81673748D01*
X219092000Y-81530891D01*
X219163428Y-81459462D01*
X219306285Y-81388034D01*
X219377714Y-81388034D01*
X219520571Y-81459462D01*
X219592000Y-81530891D01*
X219663428Y-81673748D01*
X219663428Y-81959462D01*
X219734857Y-82102320D01*
X219806285Y-82173748D01*
X219949142Y-82245177D01*
X220234857Y-82245177D01*
X220377714Y-82173748D01*
X220449142Y-82102320D01*
X220520571Y-81959462D01*
X220520571Y-81673748D01*
X220449142Y-81530891D01*
X220377714Y-81459462D01*
X220234857Y-81388034D01*
X219949142Y-81388034D01*
X219806285Y-81459462D01*
X219734857Y-81530891D01*
X219663428Y-81673748D01*
X69164902Y-71713977D02*
X69379188Y-71785405D01*
X69450617Y-71856834D01*
X69522045Y-71999691D01*
X69522045Y-72213977D01*
X69450617Y-72356834D01*
X69379188Y-72428262D01*
X69236331Y-72499691D01*
X68664902Y-72499691D01*
X68664902Y-70999691D01*
X69164902Y-70999691D01*
X69307760Y-71071120D01*
X69379188Y-71142548D01*
X69450617Y-71285405D01*
X69450617Y-71428262D01*
X69379188Y-71571120D01*
X69307760Y-71642548D01*
X69164902Y-71713977D01*
X68664902Y-71713977D01*
X70164902Y-72499691D02*
X70164902Y-70999691D01*
X70664902Y-70999691D02*
X71522045Y-70999691D01*
X71093474Y-72499691D02*
X71093474Y-70999691D01*
X71950617Y-72428262D02*
X72164902Y-72499691D01*
X72522045Y-72499691D01*
X72664902Y-72428262D01*
X72736331Y-72356834D01*
X72807760Y-72213977D01*
X72807760Y-72071120D01*
X72736331Y-71928262D01*
X72664902Y-71856834D01*
X72522045Y-71785405D01*
X72236331Y-71713977D01*
X72093474Y-71642548D01*
X72022045Y-71571120D01*
X71950617Y-71428262D01*
X71950617Y-71285405D01*
X72022045Y-71142548D01*
X72093474Y-71071120D01*
X72236331Y-70999691D01*
X72593474Y-70999691D01*
X72807760Y-71071120D01*
X74164902Y-72499691D02*
X73450617Y-72499691D01*
X73450617Y-70999691D01*
X74664902Y-72499691D02*
X74664902Y-70999691D01*
X76236331Y-72356834D02*
X76164902Y-72428262D01*
X75950617Y-72499691D01*
X75807760Y-72499691D01*
X75593474Y-72428262D01*
X75450617Y-72285405D01*
X75379188Y-72142548D01*
X75307760Y-71856834D01*
X75307760Y-71642548D01*
X75379188Y-71356834D01*
X75450617Y-71213977D01*
X75593474Y-71071120D01*
X75807760Y-70999691D01*
X75950617Y-70999691D01*
X76164902Y-71071120D01*
X76236331Y-71142548D01*
X76879188Y-71713977D02*
X77379188Y-71713977D01*
X77593474Y-72499691D02*
X76879188Y-72499691D01*
X76879188Y-70999691D01*
X77593474Y-70999691D01*
X80236331Y-72499691D02*
X79736331Y-71785405D01*
X79379188Y-72499691D02*
X79379188Y-70999691D01*
X79950617Y-70999691D01*
X80093474Y-71071120D01*
X80164902Y-71142548D01*
X80236331Y-71285405D01*
X80236331Y-71499691D01*
X80164902Y-71642548D01*
X80093474Y-71713977D01*
X79950617Y-71785405D01*
X79379188Y-71785405D01*
X81164902Y-70999691D02*
X81450617Y-70999691D01*
X81593474Y-71071120D01*
X81736331Y-71213977D01*
X81807760Y-71499691D01*
X81807760Y-71999691D01*
X81736331Y-72285405D01*
X81593474Y-72428262D01*
X81450617Y-72499691D01*
X81164902Y-72499691D01*
X81022045Y-72428262D01*
X80879188Y-72285405D01*
X80807760Y-71999691D01*
X80807760Y-71499691D01*
X80879188Y-71213977D01*
X81022045Y-71071120D01*
X81164902Y-70999691D01*
X82450617Y-72499691D02*
X82450617Y-70999691D01*
X82950617Y-72071120D01*
X83450617Y-70999691D01*
X83450617Y-72499691D01*
X73843474Y-74192548D02*
X73700617Y-74121120D01*
X73629188Y-74049691D01*
X73557760Y-73906834D01*
X73557760Y-73835405D01*
X73629188Y-73692548D01*
X73700617Y-73621120D01*
X73843474Y-73549691D01*
X74129188Y-73549691D01*
X74272045Y-73621120D01*
X74343474Y-73692548D01*
X74414902Y-73835405D01*
X74414902Y-73906834D01*
X74343474Y-74049691D01*
X74272045Y-74121120D01*
X74129188Y-74192548D01*
X73843474Y-74192548D01*
X73700617Y-74263977D01*
X73629188Y-74335405D01*
X73557760Y-74478262D01*
X73557760Y-74763977D01*
X73629188Y-74906834D01*
X73700617Y-74978262D01*
X73843474Y-75049691D01*
X74129188Y-75049691D01*
X74272045Y-74978262D01*
X74343474Y-74906834D01*
X74414902Y-74763977D01*
X74414902Y-74478262D01*
X74343474Y-74335405D01*
X74272045Y-74263977D01*
X74129188Y-74192548D01*
X75057760Y-75049691D02*
X75057760Y-73549691D01*
X75914902Y-75049691D02*
X75272045Y-74192548D01*
X75914902Y-73549691D02*
X75057760Y-74406834D01*
X76414902Y-75049691D02*
X77200617Y-74049691D01*
X76414902Y-74049691D02*
X77200617Y-75049691D01*
X77986331Y-74192548D02*
X77843474Y-74121120D01*
X77772045Y-74049691D01*
X77700617Y-73906834D01*
X77700617Y-73835405D01*
X77772045Y-73692548D01*
X77843474Y-73621120D01*
X77986331Y-73549691D01*
X78272045Y-73549691D01*
X78414902Y-73621120D01*
X78486331Y-73692548D01*
X78557760Y-73835405D01*
X78557760Y-73906834D01*
X78486331Y-74049691D01*
X78414902Y-74121120D01*
X78272045Y-74192548D01*
X77986331Y-74192548D01*
X77843474Y-74263977D01*
X77772045Y-74335405D01*
X77700617Y-74478262D01*
X77700617Y-74763977D01*
X77772045Y-74906834D01*
X77843474Y-74978262D01*
X77986331Y-75049691D01*
X78272045Y-75049691D01*
X78414902Y-74978262D01*
X78486331Y-74906834D01*
X78557760Y-74763977D01*
X78557760Y-74478262D01*
X78486331Y-74335405D01*
X78414902Y-74263977D01*
X78272045Y-74192548D01*
X67292857Y-34453571D02*
X66578571Y-34453571D01*
X66578571Y-32953571D01*
X67792857Y-34453571D02*
X67792857Y-32953571D01*
X68292857Y-34025000D01*
X68792857Y-32953571D01*
X68792857Y-34453571D01*
X69435714Y-34025000D02*
X70150000Y-34025000D01*
X69292857Y-34453571D02*
X69792857Y-32953571D01*
X70292857Y-34453571D01*
X71650000Y-34453571D02*
X71150000Y-33739285D01*
X70792857Y-34453571D02*
X70792857Y-32953571D01*
X71364285Y-32953571D01*
X71507142Y-33025000D01*
X71578571Y-33096428D01*
X71650000Y-33239285D01*
X71650000Y-33453571D01*
X71578571Y-33596428D01*
X71507142Y-33667857D01*
X71364285Y-33739285D01*
X70792857Y-33739285D01*
X72078571Y-32953571D02*
X72578571Y-34453571D01*
X73078571Y-32953571D01*
X73578571Y-33882142D02*
X74721428Y-33882142D01*
X76221428Y-34453571D02*
X75364285Y-34453571D01*
X75792857Y-34453571D02*
X75792857Y-32953571D01*
X75650000Y-33167857D01*
X75507142Y-33310714D01*
X75364285Y-33382142D01*
X77935714Y-34025000D02*
X78650000Y-34025000D01*
X77792857Y-34453571D02*
X78292857Y-32953571D01*
X78792857Y-34453571D01*
X80150000Y-34453571D02*
X79650000Y-33739285D01*
X79292857Y-34453571D02*
X79292857Y-32953571D01*
X79864285Y-32953571D01*
X80007142Y-33025000D01*
X80078571Y-33096428D01*
X80150000Y-33239285D01*
X80150000Y-33453571D01*
X80078571Y-33596428D01*
X80007142Y-33667857D01*
X79864285Y-33739285D01*
X79292857Y-33739285D01*
X80792857Y-34453571D02*
X80792857Y-32953571D01*
X81292857Y-32953571D02*
X82150000Y-32953571D01*
X81721428Y-34453571D02*
X81721428Y-32953571D01*
X82650000Y-34453571D02*
X82650000Y-32953571D01*
X82650000Y-33667857D02*
X83507142Y-33667857D01*
X83507142Y-34453571D02*
X83507142Y-32953571D01*
X84221428Y-34453571D02*
X84221428Y-32953571D01*
X84721428Y-34025000D01*
X85221428Y-32953571D01*
X85221428Y-34453571D01*
X85935714Y-33667857D02*
X86435714Y-33667857D01*
X86650000Y-34453571D02*
X85935714Y-34453571D01*
X85935714Y-32953571D01*
X86650000Y-32953571D01*
X87078571Y-32953571D02*
X87935714Y-32953571D01*
X87507142Y-34453571D02*
X87507142Y-32953571D01*
X88435714Y-34453571D02*
X88435714Y-32953571D01*
X90007142Y-34310714D02*
X89935714Y-34382142D01*
X89721428Y-34453571D01*
X89578571Y-34453571D01*
X89364285Y-34382142D01*
X89221428Y-34239285D01*
X89150000Y-34096428D01*
X89078571Y-33810714D01*
X89078571Y-33596428D01*
X89150000Y-33310714D01*
X89221428Y-33167857D01*
X89364285Y-33025000D01*
X89578571Y-32953571D01*
X89721428Y-32953571D01*
X89935714Y-33025000D01*
X90007142Y-33096428D01*
X92507142Y-34453571D02*
X91792857Y-34453571D01*
X91792857Y-32953571D01*
X93292857Y-32953571D02*
X93578571Y-32953571D01*
X93721428Y-33025000D01*
X93864285Y-33167857D01*
X93935714Y-33453571D01*
X93935714Y-33953571D01*
X93864285Y-34239285D01*
X93721428Y-34382142D01*
X93578571Y-34453571D01*
X93292857Y-34453571D01*
X93149999Y-34382142D01*
X93007142Y-34239285D01*
X92935714Y-33953571D01*
X92935714Y-33453571D01*
X93007142Y-33167857D01*
X93149999Y-33025000D01*
X93292857Y-32953571D01*
X95364285Y-33025000D02*
X95221428Y-32953571D01*
X95007142Y-32953571D01*
X94792857Y-33025000D01*
X94649999Y-33167857D01*
X94578571Y-33310714D01*
X94507142Y-33596428D01*
X94507142Y-33810714D01*
X94578571Y-34096428D01*
X94649999Y-34239285D01*
X94792857Y-34382142D01*
X95007142Y-34453571D01*
X95149999Y-34453571D01*
X95364285Y-34382142D01*
X95435714Y-34310714D01*
X95435714Y-33810714D01*
X95149999Y-33810714D01*
X96078571Y-34453571D02*
X96078571Y-32953571D01*
X97649999Y-34310714D02*
X97578571Y-34382142D01*
X97364285Y-34453571D01*
X97221428Y-34453571D01*
X97007142Y-34382142D01*
X96864285Y-34239285D01*
X96792857Y-34096428D01*
X96721428Y-33810714D01*
X96721428Y-33596428D01*
X96792857Y-33310714D01*
X96864285Y-33167857D01*
X97007142Y-33025000D01*
X97221428Y-32953571D01*
X97364285Y-32953571D01*
X97578571Y-33025000D01*
X97649999Y-33096428D01*
X99435714Y-32953571D02*
X99435714Y-34167857D01*
X99507142Y-34310714D01*
X99578571Y-34382142D01*
X99721428Y-34453571D01*
X100007142Y-34453571D01*
X100149999Y-34382142D01*
X100221428Y-34310714D01*
X100292857Y-34167857D01*
X100292857Y-32953571D01*
X101007142Y-34453571D02*
X101007142Y-32953571D01*
X101864285Y-34453571D01*
X101864285Y-32953571D01*
X102578571Y-34453571D02*
X102578571Y-32953571D01*
X103078571Y-32953571D02*
X103935714Y-32953571D01*
X103507142Y-34453571D02*
X103507142Y-32953571D01*
X75114285Y-37003571D02*
X74614285Y-36289285D01*
X74257142Y-37003571D02*
X74257142Y-35503571D01*
X74828571Y-35503571D01*
X74971428Y-35575000D01*
X75042857Y-35646428D01*
X75114285Y-35789285D01*
X75114285Y-36003571D01*
X75042857Y-36146428D01*
X74971428Y-36217857D01*
X74828571Y-36289285D01*
X74257142Y-36289285D01*
X75757142Y-36217857D02*
X76257142Y-36217857D01*
X76471428Y-37003571D02*
X75757142Y-37003571D01*
X75757142Y-35503571D01*
X76471428Y-35503571D01*
X76900000Y-35503571D02*
X77400000Y-37003571D01*
X77900000Y-35503571D01*
X79542857Y-37003571D02*
X79542857Y-35503571D01*
X79900000Y-35503571D01*
X80114285Y-35575000D01*
X80257142Y-35717857D01*
X80328571Y-35860714D01*
X80400000Y-36146428D01*
X80400000Y-36360714D01*
X80328571Y-36646428D01*
X80257142Y-36789285D01*
X80114285Y-36932142D01*
X79900000Y-37003571D01*
X79542857Y-37003571D01*
X83257142Y-35646428D02*
X83328571Y-35575000D01*
X83471428Y-35503571D01*
X83828571Y-35503571D01*
X83971428Y-35575000D01*
X84042857Y-35646428D01*
X84114285Y-35789285D01*
X84114285Y-35932142D01*
X84042857Y-36146428D01*
X83185714Y-37003571D01*
X84114285Y-37003571D01*
X85042857Y-35503571D02*
X85185714Y-35503571D01*
X85328571Y-35575000D01*
X85400000Y-35646428D01*
X85471428Y-35789285D01*
X85542857Y-36075000D01*
X85542857Y-36432142D01*
X85471428Y-36717857D01*
X85400000Y-36860714D01*
X85328571Y-36932142D01*
X85185714Y-37003571D01*
X85042857Y-37003571D01*
X84900000Y-36932142D01*
X84828571Y-36860714D01*
X84757142Y-36717857D01*
X84685714Y-36432142D01*
X84685714Y-36075000D01*
X84757142Y-35789285D01*
X84828571Y-35646428D01*
X84900000Y-35575000D01*
X85042857Y-35503571D01*
X86971428Y-37003571D02*
X86114285Y-37003571D01*
X86542857Y-37003571D02*
X86542857Y-35503571D01*
X86400000Y-35717857D01*
X86257142Y-35860714D01*
X86114285Y-35932142D01*
X87685714Y-37003571D02*
X87971428Y-37003571D01*
X88114285Y-36932142D01*
X88185714Y-36860714D01*
X88328571Y-36646428D01*
X88400000Y-36360714D01*
X88400000Y-35789285D01*
X88328571Y-35646428D01*
X88257142Y-35575000D01*
X88114285Y-35503571D01*
X87828571Y-35503571D01*
X87685714Y-35575000D01*
X87614285Y-35646428D01*
X87542857Y-35789285D01*
X87542857Y-36146428D01*
X87614285Y-36289285D01*
X87685714Y-36360714D01*
X87828571Y-36432142D01*
X88114285Y-36432142D01*
X88257142Y-36360714D01*
X88328571Y-36289285D01*
X88400000Y-36146428D01*
X90614285Y-35503571D02*
X90614285Y-36575000D01*
X90542857Y-36789285D01*
X90400000Y-36932142D01*
X90185714Y-37003571D01*
X90042857Y-37003571D01*
X91257142Y-36575000D02*
X91971428Y-36575000D01*
X91114285Y-37003571D02*
X91614285Y-35503571D01*
X92114285Y-37003571D01*
X92614285Y-37003571D02*
X92614285Y-35503571D01*
X93471428Y-37003571D01*
X93471428Y-35503571D01*
X95400000Y-37003571D02*
X95685714Y-37003571D01*
X95828571Y-36932142D01*
X95900000Y-36860714D01*
X96042857Y-36646428D01*
X96114285Y-36360714D01*
X96114285Y-35789285D01*
X96042857Y-35646428D01*
X95971428Y-35575000D01*
X95828571Y-35503571D01*
X95542857Y-35503571D01*
X95400000Y-35575000D01*
X95328571Y-35646428D01*
X95257142Y-35789285D01*
X95257142Y-36146428D01*
X95328571Y-36289285D01*
X95400000Y-36360714D01*
X95542857Y-36432142D01*
X95828571Y-36432142D01*
X95971428Y-36360714D01*
X96042857Y-36289285D01*
X96114285Y-36146428D01*
D11*
X137950000Y-39975000D02*
G75*
G03X137950000Y-39975000I-75000J0D01*
G01*
X124000000Y-38750000D02*
G75*
G03X124000000Y-38750000I-75000J0D01*
G01*
X117025000Y-59275000D02*
G75*
G03X117025000Y-59275000I-75000J0D01*
G01*
X130175000Y-59275000D02*
G75*
G03X130175000Y-59275000I-75000J0D01*
G01*
X175825000Y-76625000D02*
G75*
G03X175825000Y-76625000I-75000J0D01*
G01*
X164825000Y-76650000D02*
G75*
G03X164825000Y-76650000I-75000J0D01*
G01*
X153875000Y-76600000D02*
G75*
G03X153875000Y-76600000I-75000J0D01*
G01*
X142625000Y-76775000D02*
G75*
G03X142625000Y-76775000I-75000J0D01*
G01*
X133925000Y-64625000D02*
G75*
G03X133925000Y-64625000I-75000J0D01*
G01*
X116925000Y-76650000D02*
G75*
G03X116925000Y-76650000I-75000J0D01*
G01*
X105950000Y-76700000D02*
G75*
G03X105950000Y-76700000I-75000J0D01*
G01*
X94925000Y-76675000D02*
G75*
G03X94925000Y-76675000I-75000J0D01*
G01*
X107900000Y-83600000D02*
G75*
G03X107900000Y-83600000I-75000J0D01*
G01*
X118000000Y-83625000D02*
G75*
G03X118000000Y-83625000I-75000J0D01*
G01*
X126725000Y-83625000D02*
G75*
G03X126725000Y-83625000I-75000J0D01*
G01*
X135075000Y-78775000D02*
G75*
G03X135075000Y-78775000I-75000J0D01*
G01*
X140525000Y-79350000D02*
G75*
G03X140525000Y-79350000I-75000J0D01*
G01*
X155100000Y-83725000D02*
G75*
G03X155100000Y-83725000I-75000J0D01*
G01*
X165025000Y-83800000D02*
G75*
G03X165025000Y-83800000I-75000J0D01*
G01*
X174925000Y-84025000D02*
G75*
G03X174925000Y-84025000I-75000J0D01*
G01*
X185025000Y-84125000D02*
G75*
G03X185025000Y-84125000I-75000J0D01*
G01*
X210950000Y-118150000D02*
G75*
G03X210950000Y-118150000I-75000J0D01*
G01*
X198725000Y-97925000D02*
G75*
G03X198725000Y-97925000I-75000J0D01*
G01*
X176250000Y-102800000D02*
G75*
G03X176250000Y-102800000I-75000J0D01*
G01*
X156125000Y-102775000D02*
G75*
G03X156125000Y-102775000I-75000J0D01*
G01*
X134025000Y-105350000D02*
G75*
G03X134025000Y-105350000I-75000J0D01*
G01*
X117325000Y-102750000D02*
G75*
G03X117325000Y-102750000I-75000J0D01*
G01*
X98250000Y-102775000D02*
G75*
G03X98250000Y-102775000I-75000J0D01*
G01*
X83300000Y-102600000D02*
G75*
G03X83300000Y-102600000I-75000J0D01*
G01*
X95075000Y-125675000D02*
G75*
G03X95075000Y-125675000I-75000J0D01*
G01*
X100025000Y-134325000D02*
G75*
G03X100025000Y-134325000I-75000J0D01*
G01*
X113075000Y-125700000D02*
G75*
G03X113075000Y-125700000I-75000J0D01*
G01*
X117700000Y-134325000D02*
G75*
G03X117700000Y-134325000I-75000J0D01*
G01*
X125175000Y-132950000D02*
G75*
G03X125175000Y-132950000I-75000J0D01*
G01*
X134125000Y-132925000D02*
G75*
G03X134125000Y-132925000I-75000J0D01*
G01*
X153100000Y-125575000D02*
G75*
G03X153100000Y-125575000I-75000J0D01*
G01*
X157150000Y-134300000D02*
G75*
G03X157150000Y-134300000I-75000J0D01*
G01*
X171225000Y-125675000D02*
G75*
G03X171225000Y-125675000I-75000J0D01*
G01*
X175600000Y-134300000D02*
G75*
G03X175600000Y-134300000I-75000J0D01*
G01*
X183175000Y-132925000D02*
G75*
G03X183175000Y-132925000I-75000J0D01*
G01*
X192150000Y-133075000D02*
G75*
G03X192150000Y-133075000I-75000J0D01*
G01*
X201225000Y-133175000D02*
G75*
G03X201225000Y-133175000I-75000J0D01*
G01*
X210175000Y-133225000D02*
G75*
G03X210175000Y-133225000I-75000J0D01*
G01*
D12*
G04 #@! TO.C,U35*
X215890000Y-73840000D02*
X200650000Y-73840000D01*
X200650000Y-73840000D02*
X198110000Y-76380000D01*
X198110000Y-94160000D02*
X215890000Y-94160000D01*
X215890000Y-73840000D02*
X215890000Y-94160000D01*
X198110000Y-76380000D02*
X198110000Y-94160000D01*
D13*
G04 #@! TO.C,P1*
X145600000Y-141500000D02*
X151400000Y-141500000D01*
X89950000Y-142950000D02*
X89950000Y-145200000D01*
X92850000Y-142950000D02*
G75*
G03X89950000Y-142950000I-1450000J0D01*
G01*
X105950000Y-142950000D02*
G75*
G03X104050000Y-142950000I-950000J0D01*
G01*
X104050000Y-145200000D02*
X104050000Y-142950000D01*
X105950000Y-142950000D02*
X105950000Y-145200000D01*
X92850000Y-145200000D02*
X104050000Y-145200000D01*
X104050000Y-145200000D02*
X104050000Y-151000000D01*
X104050000Y-151000000D02*
X92850000Y-151000000D01*
X92850000Y-151000000D02*
X92850000Y-142950000D01*
X144150000Y-145200000D02*
X105950000Y-145200000D01*
X105950000Y-151000000D02*
X144150000Y-151000000D01*
X105950000Y-145200000D02*
X105950000Y-151000000D01*
X144150000Y-142950000D02*
X144150000Y-151000000D01*
X145600000Y-141500000D02*
G75*
G03X144150000Y-142950000I0J-1450000D01*
G01*
X165950000Y-142950000D02*
X165950000Y-145200000D01*
X165950000Y-145200000D02*
X165950000Y-151000000D01*
X204150000Y-145200000D02*
X165950000Y-145200000D01*
X165950000Y-151000000D02*
X204150000Y-151000000D01*
X204150000Y-142950000D02*
X204150000Y-151000000D01*
X207050000Y-142950000D02*
G75*
G03X204150000Y-142950000I-1450000J0D01*
G01*
X207050000Y-142950000D02*
X207050000Y-145200000D01*
X164050000Y-145200000D02*
X164050000Y-151000000D01*
X165950000Y-142950000D02*
G75*
G03X164050000Y-142950000I-950000J0D01*
G01*
X164050000Y-145200000D02*
X164050000Y-142950000D01*
X164050000Y-151000000D02*
X152850000Y-151000000D01*
X152850000Y-145200000D02*
X164050000Y-145200000D01*
X152850000Y-142950000D02*
G75*
G03X151400000Y-141500000I-1450000J0D01*
G01*
X152850000Y-151000000D02*
X152850000Y-142950000D01*
D11*
G04 #@! TO.C,U29*
X160200000Y-76800000D02*
G75*
G03X160200000Y-76800000I-100000J0D01*
G01*
D13*
X168000000Y-75000000D02*
X168000000Y-63000000D01*
D14*
X160500000Y-63000000D02*
X160500000Y-76250000D01*
G04 #@! TO.C,U30*
X149500000Y-63000000D02*
X149500000Y-76250000D01*
D13*
X157000000Y-75000000D02*
X157000000Y-63000000D01*
D11*
X149200000Y-76800000D02*
G75*
G03X149200000Y-76800000I-100000J0D01*
G01*
G04 #@! TO.C,U31*
X138200000Y-76800000D02*
G75*
G03X138200000Y-76800000I-100000J0D01*
G01*
D13*
X146000000Y-75000000D02*
X146000000Y-63000000D01*
D14*
X138500000Y-63000000D02*
X138500000Y-76250000D01*
G04 #@! TO.C,U32*
X112500000Y-63000000D02*
X112500000Y-76250000D01*
D13*
X120000000Y-75000000D02*
X120000000Y-63000000D01*
D11*
X112200000Y-76800000D02*
G75*
G03X112200000Y-76800000I-100000J0D01*
G01*
G04 #@! TO.C,U33*
X101200000Y-76800000D02*
G75*
G03X101200000Y-76800000I-100000J0D01*
G01*
D13*
X109000000Y-75000000D02*
X109000000Y-63000000D01*
D14*
X101500000Y-63000000D02*
X101500000Y-76250000D01*
G04 #@! TO.C,U34*
X90500000Y-63000000D02*
X90500000Y-76250000D01*
D13*
X98000000Y-75000000D02*
X98000000Y-63000000D01*
D11*
X90200000Y-76800000D02*
G75*
G03X90200000Y-76800000I-100000J0D01*
G01*
D12*
G04 #@! TO.C,U36*
X67110000Y-78380000D02*
X67110000Y-96160000D01*
X84890000Y-75840000D02*
X84890000Y-96160000D01*
X67110000Y-96160000D02*
X84890000Y-96160000D01*
X69650000Y-75840000D02*
X67110000Y-78380000D01*
X84890000Y-75840000D02*
X69650000Y-75840000D01*
D14*
G04 #@! TO.C,U39*
X144500000Y-93000000D02*
X144500000Y-79750000D01*
D13*
X137000000Y-81000000D02*
X137000000Y-93000000D01*
D11*
X145000000Y-79200000D02*
G75*
G03X145000000Y-79200000I-100000J0D01*
G01*
D13*
G04 #@! TO.C,C28*
X175510000Y-78237221D02*
X175510000Y-78562779D01*
X174490000Y-78237221D02*
X174490000Y-78562779D01*
G04 #@! TO.C,C1*
X211585000Y-124637779D02*
X211585000Y-124312221D01*
X210565000Y-124637779D02*
X210565000Y-124312221D01*
G04 #@! TO.C,C2*
X209237221Y-97665000D02*
X209562779Y-97665000D01*
X209237221Y-98685000D02*
X209562779Y-98685000D01*
G04 #@! TO.C,C3*
X210660000Y-111387779D02*
X210660000Y-111062221D01*
X209640000Y-111387779D02*
X209640000Y-111062221D01*
G04 #@! TO.C,C4*
X195615879Y-70508400D02*
X195290321Y-70508400D01*
X195615879Y-71528400D02*
X195290321Y-71528400D01*
G04 #@! TO.C,C5*
X202778679Y-70444900D02*
X202453121Y-70444900D01*
X202778679Y-71464900D02*
X202453121Y-71464900D01*
G04 #@! TO.C,C6*
X173140000Y-126512779D02*
X173140000Y-126187221D01*
X174160000Y-126512779D02*
X174160000Y-126187221D01*
G04 #@! TO.C,C7*
X156135000Y-126487779D02*
X156135000Y-126162221D01*
X155115000Y-126487779D02*
X155115000Y-126162221D01*
G04 #@! TO.C,C8*
X115140000Y-126487779D02*
X115140000Y-126162221D01*
X116160000Y-126487779D02*
X116160000Y-126162221D01*
G04 #@! TO.C,C9*
X98010000Y-126462779D02*
X98010000Y-126137221D01*
X96990000Y-126462779D02*
X96990000Y-126137221D01*
G04 #@! TO.C,C10*
X192565000Y-124462779D02*
X192565000Y-124137221D01*
X193585000Y-124462779D02*
X193585000Y-124137221D01*
G04 #@! TO.C,C11*
X184585000Y-124412779D02*
X184585000Y-124087221D01*
X183565000Y-124412779D02*
X183565000Y-124087221D01*
G04 #@! TO.C,C12*
X133065000Y-126462779D02*
X133065000Y-126137221D01*
X134085000Y-126462779D02*
X134085000Y-126137221D01*
G04 #@! TO.C,C13*
X124115000Y-126437779D02*
X124115000Y-126112221D01*
X125135000Y-126437779D02*
X125135000Y-126112221D01*
G04 #@! TO.C,C14*
X201210000Y-126387779D02*
X201210000Y-126062221D01*
X200190000Y-126387779D02*
X200190000Y-126062221D01*
G04 #@! TO.C,C16*
X133335000Y-74937221D02*
X133335000Y-75262779D01*
X132315000Y-74937221D02*
X132315000Y-75262779D01*
G04 #@! TO.C,C17*
X185290000Y-91612221D02*
X185290000Y-91937779D01*
X186310000Y-91612221D02*
X186310000Y-91937779D01*
G04 #@! TO.C,C19*
X165835000Y-92112221D02*
X165835000Y-92437779D01*
X164815000Y-92112221D02*
X164815000Y-92437779D01*
G04 #@! TO.C,C20*
X156260000Y-91512221D02*
X156260000Y-91837779D01*
X155240000Y-91512221D02*
X155240000Y-91837779D01*
G04 #@! TO.C,C21*
X128140000Y-91362221D02*
X128140000Y-91687779D01*
X129160000Y-91362221D02*
X129160000Y-91687779D01*
G04 #@! TO.C,C22*
X119260000Y-91612221D02*
X119260000Y-91937779D01*
X118240000Y-91612221D02*
X118240000Y-91937779D01*
G04 #@! TO.C,C23*
X109160000Y-91462221D02*
X109160000Y-91787779D01*
X108140000Y-91462221D02*
X108140000Y-91787779D01*
G04 #@! TO.C,C24*
X115837779Y-49515000D02*
X115512221Y-49515000D01*
X115837779Y-50535000D02*
X115512221Y-50535000D01*
G04 #@! TO.C,C25*
X129135000Y-51062779D02*
X129135000Y-50737221D01*
X128115000Y-51062779D02*
X128115000Y-50737221D01*
G04 #@! TO.C,C26*
X126112221Y-45490000D02*
X126437779Y-45490000D01*
X126112221Y-46510000D02*
X126437779Y-46510000D01*
G04 #@! TO.C,C27*
X136340000Y-48537221D02*
X136340000Y-48862779D01*
X137360000Y-48537221D02*
X137360000Y-48862779D01*
G04 #@! TO.C,C29*
X164260000Y-78337221D02*
X164260000Y-78662779D01*
X163240000Y-78337221D02*
X163240000Y-78662779D01*
G04 #@! TO.C,C30*
X153510000Y-78362221D02*
X153510000Y-78687779D01*
X152490000Y-78362221D02*
X152490000Y-78687779D01*
G04 #@! TO.C,C32*
X116560000Y-78387221D02*
X116560000Y-78712779D01*
X115540000Y-78387221D02*
X115540000Y-78712779D01*
G04 #@! TO.C,C33*
X104515000Y-78462221D02*
X104515000Y-78787779D01*
X105535000Y-78462221D02*
X105535000Y-78787779D01*
G04 #@! TO.C,C34*
X93565000Y-78387221D02*
X93565000Y-78712779D01*
X94585000Y-78387221D02*
X94585000Y-78712779D01*
G04 #@! TO.C,C37*
X132585000Y-97412779D02*
X132585000Y-97087221D01*
X131565000Y-97412779D02*
X131565000Y-97087221D01*
G04 #@! TO.C,C40*
X178262221Y-108490000D02*
X178587779Y-108490000D01*
X178262221Y-109510000D02*
X178587779Y-109510000D01*
G04 #@! TO.C,C41*
X158037221Y-110360000D02*
X158362779Y-110360000D01*
X158037221Y-109340000D02*
X158362779Y-109340000D01*
G04 #@! TO.C,C42*
X120012221Y-109440000D02*
X120337779Y-109440000D01*
X120012221Y-110460000D02*
X120337779Y-110460000D01*
G04 #@! TO.C,C43*
X100112221Y-110935000D02*
X100437779Y-110935000D01*
X100112221Y-109915000D02*
X100437779Y-109915000D01*
G04 #@! TO.C,C44*
X84289360Y-112455841D02*
X84289360Y-112781399D01*
X83269360Y-112455841D02*
X83269360Y-112781399D01*
G04 #@! TO.C,C45*
X177140000Y-103862221D02*
X177140000Y-104187779D01*
X178160000Y-103862221D02*
X178160000Y-104187779D01*
G04 #@! TO.C,C46*
X167410000Y-103762221D02*
X167410000Y-104087779D01*
X166390000Y-103762221D02*
X166390000Y-104087779D01*
G04 #@! TO.C,C47*
X157265000Y-103387221D02*
X157265000Y-103712779D01*
X158285000Y-103387221D02*
X158285000Y-103712779D01*
G04 #@! TO.C,C48*
X147360000Y-103787221D02*
X147360000Y-104112779D01*
X146340000Y-103787221D02*
X146340000Y-104112779D01*
G04 #@! TO.C,C49*
X120085000Y-103562221D02*
X120085000Y-103887779D01*
X119065000Y-103562221D02*
X119065000Y-103887779D01*
G04 #@! TO.C,C50*
X108340000Y-103562221D02*
X108340000Y-103887779D01*
X109360000Y-103562221D02*
X109360000Y-103887779D01*
G04 #@! TO.C,C51*
X98890000Y-103812221D02*
X98890000Y-104137779D01*
X99910000Y-103812221D02*
X99910000Y-104137779D01*
G04 #@! TO.C,C52*
X89633520Y-97668199D02*
X89633520Y-97342641D01*
X88613520Y-97668199D02*
X88613520Y-97342641D01*
G04 #@! TO.C,C53*
X172860000Y-133562221D02*
X172860000Y-133887779D01*
X171840000Y-133562221D02*
X171840000Y-133887779D01*
G04 #@! TO.C,C54*
X153940000Y-133587221D02*
X153940000Y-133912779D01*
X154960000Y-133587221D02*
X154960000Y-133912779D01*
G04 #@! TO.C,C55*
X114935000Y-133587221D02*
X114935000Y-133912779D01*
X113915000Y-133587221D02*
X113915000Y-133912779D01*
G04 #@! TO.C,C56*
X96835000Y-133562221D02*
X96835000Y-133887779D01*
X95815000Y-133562221D02*
X95815000Y-133887779D01*
G04 #@! TO.C,C57*
X209931219Y-71452200D02*
X209605661Y-71452200D01*
X209931219Y-70432200D02*
X209605661Y-70432200D01*
G04 #@! TO.C,C58*
X217261759Y-70376320D02*
X216936201Y-70376320D01*
X217261759Y-71396320D02*
X216936201Y-71396320D01*
G04 #@! TO.C,R1*
X203165000Y-106862779D02*
X203165000Y-106537221D01*
X204185000Y-106862779D02*
X204185000Y-106537221D01*
G04 #@! TO.C,R2*
X199415000Y-105187221D02*
X199415000Y-105512779D01*
X200435000Y-105187221D02*
X200435000Y-105512779D01*
D12*
G04 #@! TO.C,U26*
X117550000Y-40775000D02*
X117550000Y-45225000D01*
X124450000Y-39250000D02*
X124450000Y-45225000D01*
D13*
G04 #@! TO.C,C102*
X83535000Y-123260000D02*
X83535000Y-122060000D01*
X83535000Y-118740000D02*
X83535000Y-119940000D01*
X80079437Y-118740000D02*
X83535000Y-118740000D01*
X80079437Y-123260000D02*
X83535000Y-123260000D01*
X79015000Y-122195563D02*
X79015000Y-122060000D01*
X79015000Y-119804437D02*
X79015000Y-119940000D01*
X79015000Y-119804437D02*
X80079437Y-118740000D01*
X79015000Y-122195563D02*
X80079437Y-123260000D01*
X78275000Y-119440000D02*
X78775000Y-119440000D01*
X78525000Y-119190000D02*
X78525000Y-119690000D01*
G04 #@! TO.C,C101*
X214285000Y-107060000D02*
X214285000Y-105860000D01*
X214285000Y-102540000D02*
X214285000Y-103740000D01*
X210829437Y-102540000D02*
X214285000Y-102540000D01*
X210829437Y-107060000D02*
X214285000Y-107060000D01*
X209765000Y-105995563D02*
X209765000Y-105860000D01*
X209765000Y-103604437D02*
X209765000Y-103740000D01*
X209765000Y-103604437D02*
X210829437Y-102540000D01*
X209765000Y-105995563D02*
X210829437Y-107060000D01*
X209025000Y-103240000D02*
X209525000Y-103240000D01*
X209275000Y-102990000D02*
X209275000Y-103490000D01*
G04 #@! TO.C,C100*
X156650000Y-54165000D02*
X156650000Y-54665000D01*
X156400000Y-54415000D02*
X156900000Y-54415000D01*
X157140000Y-57170563D02*
X158204437Y-58235000D01*
X157140000Y-54779437D02*
X158204437Y-53715000D01*
X157140000Y-54779437D02*
X157140000Y-54915000D01*
X157140000Y-57170563D02*
X157140000Y-57035000D01*
X158204437Y-58235000D02*
X161660000Y-58235000D01*
X158204437Y-53715000D02*
X161660000Y-53715000D01*
X161660000Y-53715000D02*
X161660000Y-54915000D01*
X161660000Y-58235000D02*
X161660000Y-57035000D01*
D12*
G04 #@! TO.C,U1*
X210550000Y-133750000D02*
X210550000Y-127775000D01*
X217450000Y-132225000D02*
X217450000Y-127775000D01*
G04 #@! TO.C,U2*
X200675000Y-97500000D02*
X199325000Y-97500000D01*
X200675000Y-102625000D02*
X205325000Y-102625000D01*
X200675000Y-97375000D02*
X205325000Y-97375000D01*
X200675000Y-102625000D02*
X200675000Y-102400000D01*
X205325000Y-102625000D02*
X205325000Y-102400000D01*
X205325000Y-97375000D02*
X205325000Y-97600000D01*
X200675000Y-97375000D02*
X200675000Y-97500000D01*
G04 #@! TO.C,U3*
X211375000Y-117325000D02*
X211500000Y-117325000D01*
X211375000Y-112675000D02*
X211600000Y-112675000D01*
X216625000Y-112675000D02*
X216400000Y-112675000D01*
X216625000Y-117325000D02*
X216400000Y-117325000D01*
X211375000Y-117325000D02*
X211375000Y-112675000D01*
X216625000Y-117325000D02*
X216625000Y-112675000D01*
X211500000Y-117325000D02*
X211500000Y-118675000D01*
G04 #@! TO.C,U6*
X174550000Y-133750000D02*
X174550000Y-127775000D01*
X181450000Y-132225000D02*
X181450000Y-127775000D01*
G04 #@! TO.C,U7*
X163450000Y-132225000D02*
X163450000Y-127775000D01*
X156550000Y-133750000D02*
X156550000Y-127775000D01*
G04 #@! TO.C,U8*
X116550000Y-133750000D02*
X116550000Y-127775000D01*
X123450000Y-132225000D02*
X123450000Y-127775000D01*
G04 #@! TO.C,U9*
X105450000Y-132225000D02*
X105450000Y-127775000D01*
X98550000Y-133750000D02*
X98550000Y-127775000D01*
G04 #@! TO.C,U10*
X199450000Y-132225000D02*
X199450000Y-127775000D01*
X192550000Y-133750000D02*
X192550000Y-127775000D01*
G04 #@! TO.C,U11*
X183550000Y-133750000D02*
X183550000Y-127775000D01*
X190450000Y-132225000D02*
X190450000Y-127775000D01*
G04 #@! TO.C,U12*
X141450000Y-132225000D02*
X141450000Y-127775000D01*
X134550000Y-133750000D02*
X134550000Y-127775000D01*
G04 #@! TO.C,U13*
X132450000Y-132225000D02*
X132450000Y-127775000D01*
X125550000Y-133750000D02*
X125550000Y-127775000D01*
G04 #@! TO.C,U14*
X201550000Y-133750000D02*
X201550000Y-127775000D01*
X208450000Y-132225000D02*
X208450000Y-127775000D01*
G04 #@! TO.C,U16*
X133450000Y-65250000D02*
X133450000Y-71225000D01*
X126550000Y-66775000D02*
X126550000Y-71225000D01*
G04 #@! TO.C,U17*
X177550000Y-85775000D02*
X177550000Y-90225000D01*
X184450000Y-84250000D02*
X184450000Y-90225000D01*
G04 #@! TO.C,U18*
X174450000Y-84250000D02*
X174450000Y-90225000D01*
X167550000Y-85775000D02*
X167550000Y-90225000D01*
G04 #@! TO.C,U19*
X157550000Y-85775000D02*
X157550000Y-90225000D01*
X164450000Y-84250000D02*
X164450000Y-90225000D01*
G04 #@! TO.C,U20*
X154450000Y-84250000D02*
X154450000Y-90225000D01*
X147550000Y-85775000D02*
X147550000Y-90225000D01*
G04 #@! TO.C,U21*
X120550000Y-85775000D02*
X120550000Y-90225000D01*
X127450000Y-84250000D02*
X127450000Y-90225000D01*
G04 #@! TO.C,U22*
X117450000Y-84250000D02*
X117450000Y-90225000D01*
X110550000Y-85775000D02*
X110550000Y-90225000D01*
G04 #@! TO.C,U23*
X100550000Y-85775000D02*
X100550000Y-90225000D01*
X107450000Y-84250000D02*
X107450000Y-90225000D01*
G04 #@! TO.C,U24*
X116550000Y-58750000D02*
X116550000Y-52775000D01*
X123450000Y-57225000D02*
X123450000Y-52775000D01*
G04 #@! TO.C,U25*
X136450000Y-57225000D02*
X136450000Y-52775000D01*
X129550000Y-58750000D02*
X129550000Y-52775000D01*
G04 #@! TO.C,U27*
X137450000Y-39250000D02*
X137450000Y-45225000D01*
X130550000Y-40775000D02*
X130550000Y-45225000D01*
G04 #@! TO.C,U37*
X140450000Y-103225000D02*
X140450000Y-98775000D01*
X133550000Y-104750000D02*
X133550000Y-98775000D01*
G04 #@! TO.C,U38*
X128550000Y-80775000D02*
X128550000Y-85225000D01*
X135450000Y-79250000D02*
X135450000Y-85225000D01*
G04 #@! TO.C,U40*
X169550000Y-104775000D02*
X169550000Y-109225000D01*
X176450000Y-103250000D02*
X176450000Y-109225000D01*
G04 #@! TO.C,U41*
X149550000Y-104775000D02*
X149550000Y-109225000D01*
X156450000Y-103250000D02*
X156450000Y-109225000D01*
G04 #@! TO.C,U42*
X118450000Y-103250000D02*
X118450000Y-109225000D01*
X111550000Y-104775000D02*
X111550000Y-109225000D01*
G04 #@! TO.C,U43*
X91550000Y-104775000D02*
X91550000Y-109225000D01*
X98450000Y-103250000D02*
X98450000Y-109225000D01*
G04 #@! TO.C,U44*
X83450000Y-103250000D02*
X83450000Y-109225000D01*
X76550000Y-104775000D02*
X76550000Y-109225000D01*
G04 #@! TO.C,U53*
X171450000Y-126250000D02*
X171450000Y-132225000D01*
X164550000Y-127775000D02*
X164550000Y-132225000D01*
G04 #@! TO.C,U54*
X153450000Y-126250000D02*
X153450000Y-132225000D01*
X146550000Y-127775000D02*
X146550000Y-132225000D01*
G04 #@! TO.C,U55*
X106550000Y-127775000D02*
X106550000Y-132225000D01*
X113450000Y-126250000D02*
X113450000Y-132225000D01*
G04 #@! TO.C,U56*
X95450000Y-126250000D02*
X95450000Y-132225000D01*
X88550000Y-127775000D02*
X88550000Y-132225000D01*
D13*
G04 #@! TO.C,U15*
X175999900Y-33643600D02*
X168874900Y-33643600D01*
X168874900Y-33643600D02*
X167874900Y-34643600D01*
X167874900Y-34643600D02*
X167874900Y-54443600D01*
X167874900Y-54443600D02*
X186124900Y-54443600D01*
X186124900Y-54443600D02*
X186124900Y-33643600D01*
X186124900Y-33643600D02*
X177999900Y-33643600D01*
D14*
G04 #@! TO.C,U28*
X171500000Y-63000000D02*
X171500000Y-76250000D01*
D13*
X179000000Y-75000000D02*
X179000000Y-63000000D01*
D11*
X171200000Y-76800000D02*
G75*
G03X171200000Y-76800000I-100000J0D01*
G01*
D13*
G04 #@! TO.C,R4*
X186373040Y-100335299D02*
X186373040Y-100009741D01*
X187393040Y-100335299D02*
X187393040Y-100009741D01*
D12*
G04 #@! TO.C,U59*
X186325360Y-112320080D02*
X190725360Y-112320080D01*
X184750360Y-106795080D02*
X190725360Y-106795080D01*
G04 #@! TO.C,U60*
X88168880Y-85843360D02*
X88168880Y-90293360D01*
X95068880Y-84318360D02*
X95068880Y-90293360D01*
D13*
G04 #@! TO.C,C59*
X190924720Y-104008139D02*
X190924720Y-103682581D01*
X191944720Y-104008139D02*
X191944720Y-103682581D01*
G04 #@! TO.C,C60*
X96468881Y-91824080D02*
X96794439Y-91824080D01*
X96468881Y-92844080D02*
X96794439Y-92844080D01*
G04 #@! TO.C,D1*
X218082640Y-45818960D02*
X215482640Y-45818960D01*
X218082640Y-44218960D02*
X215482640Y-44218960D01*
X218082640Y-45818960D02*
X218082640Y-44218960D01*
G04 #@! TO.C,D2*
X218082640Y-40926920D02*
X218082640Y-39326920D01*
X218082640Y-39326920D02*
X215482640Y-39326920D01*
X218082640Y-40926920D02*
X215482640Y-40926920D01*
G04 #@! TO.C,R5*
X211713761Y-45549280D02*
X212039319Y-45549280D01*
X211713761Y-44529280D02*
X212039319Y-44529280D01*
G04 #@! TO.C,R6*
X211729001Y-39611840D02*
X212054559Y-39611840D01*
X211729001Y-40631840D02*
X212054559Y-40631840D01*
G04 #@! TO.C,U35*
D12*
X205761904Y-95517380D02*
X205761904Y-96326904D01*
X205809523Y-96422142D01*
X205857142Y-96469761D01*
X205952380Y-96517380D01*
X206142857Y-96517380D01*
X206238095Y-96469761D01*
X206285714Y-96422142D01*
X206333333Y-96326904D01*
X206333333Y-95517380D01*
X206714285Y-95517380D02*
X207333333Y-95517380D01*
X207000000Y-95898333D01*
X207142857Y-95898333D01*
X207238095Y-95945952D01*
X207285714Y-95993571D01*
X207333333Y-96088809D01*
X207333333Y-96326904D01*
X207285714Y-96422142D01*
X207238095Y-96469761D01*
X207142857Y-96517380D01*
X206857142Y-96517380D01*
X206761904Y-96469761D01*
X206714285Y-96422142D01*
X208238095Y-95517380D02*
X207761904Y-95517380D01*
X207714285Y-95993571D01*
X207761904Y-95945952D01*
X207857142Y-95898333D01*
X208095238Y-95898333D01*
X208190476Y-95945952D01*
X208238095Y-95993571D01*
X208285714Y-96088809D01*
X208285714Y-96326904D01*
X208238095Y-96422142D01*
X208190476Y-96469761D01*
X208095238Y-96517380D01*
X207857142Y-96517380D01*
X207761904Y-96469761D01*
X207714285Y-96422142D01*
G04 #@! TO.C,P1*
X97861904Y-144342380D02*
X97861904Y-143342380D01*
X98242857Y-143342380D01*
X98338095Y-143390000D01*
X98385714Y-143437619D01*
X98433333Y-143532857D01*
X98433333Y-143675714D01*
X98385714Y-143770952D01*
X98338095Y-143818571D01*
X98242857Y-143866190D01*
X97861904Y-143866190D01*
X99385714Y-144342380D02*
X98814285Y-144342380D01*
X99100000Y-144342380D02*
X99100000Y-143342380D01*
X99004761Y-143485238D01*
X98909523Y-143580476D01*
X98814285Y-143628095D01*
G04 #@! TO.C,U29*
X158452380Y-70238095D02*
X159261904Y-70238095D01*
X159357142Y-70190476D01*
X159404761Y-70142857D01*
X159452380Y-70047619D01*
X159452380Y-69857142D01*
X159404761Y-69761904D01*
X159357142Y-69714285D01*
X159261904Y-69666666D01*
X158452380Y-69666666D01*
X158547619Y-69238095D02*
X158500000Y-69190476D01*
X158452380Y-69095238D01*
X158452380Y-68857142D01*
X158500000Y-68761904D01*
X158547619Y-68714285D01*
X158642857Y-68666666D01*
X158738095Y-68666666D01*
X158880952Y-68714285D01*
X159452380Y-69285714D01*
X159452380Y-68666666D01*
X159452380Y-68190476D02*
X159452380Y-68000000D01*
X159404761Y-67904761D01*
X159357142Y-67857142D01*
X159214285Y-67761904D01*
X159023809Y-67714285D01*
X158642857Y-67714285D01*
X158547619Y-67761904D01*
X158500000Y-67809523D01*
X158452380Y-67904761D01*
X158452380Y-68095238D01*
X158500000Y-68190476D01*
X158547619Y-68238095D01*
X158642857Y-68285714D01*
X158880952Y-68285714D01*
X158976190Y-68238095D01*
X159023809Y-68190476D01*
X159071428Y-68095238D01*
X159071428Y-67904761D01*
X159023809Y-67809523D01*
X158976190Y-67761904D01*
X158880952Y-67714285D01*
G04 #@! TO.C,U30*
X147452380Y-70238095D02*
X148261904Y-70238095D01*
X148357142Y-70190476D01*
X148404761Y-70142857D01*
X148452380Y-70047619D01*
X148452380Y-69857142D01*
X148404761Y-69761904D01*
X148357142Y-69714285D01*
X148261904Y-69666666D01*
X147452380Y-69666666D01*
X147452380Y-69285714D02*
X147452380Y-68666666D01*
X147833333Y-69000000D01*
X147833333Y-68857142D01*
X147880952Y-68761904D01*
X147928571Y-68714285D01*
X148023809Y-68666666D01*
X148261904Y-68666666D01*
X148357142Y-68714285D01*
X148404761Y-68761904D01*
X148452380Y-68857142D01*
X148452380Y-69142857D01*
X148404761Y-69238095D01*
X148357142Y-69285714D01*
X147452380Y-68047619D02*
X147452380Y-67952380D01*
X147500000Y-67857142D01*
X147547619Y-67809523D01*
X147642857Y-67761904D01*
X147833333Y-67714285D01*
X148071428Y-67714285D01*
X148261904Y-67761904D01*
X148357142Y-67809523D01*
X148404761Y-67857142D01*
X148452380Y-67952380D01*
X148452380Y-68047619D01*
X148404761Y-68142857D01*
X148357142Y-68190476D01*
X148261904Y-68238095D01*
X148071428Y-68285714D01*
X147833333Y-68285714D01*
X147642857Y-68238095D01*
X147547619Y-68190476D01*
X147500000Y-68142857D01*
X147452380Y-68047619D01*
G04 #@! TO.C,U31*
X136452380Y-70238095D02*
X137261904Y-70238095D01*
X137357142Y-70190476D01*
X137404761Y-70142857D01*
X137452380Y-70047619D01*
X137452380Y-69857142D01*
X137404761Y-69761904D01*
X137357142Y-69714285D01*
X137261904Y-69666666D01*
X136452380Y-69666666D01*
X136452380Y-69285714D02*
X136452380Y-68666666D01*
X136833333Y-69000000D01*
X136833333Y-68857142D01*
X136880952Y-68761904D01*
X136928571Y-68714285D01*
X137023809Y-68666666D01*
X137261904Y-68666666D01*
X137357142Y-68714285D01*
X137404761Y-68761904D01*
X137452380Y-68857142D01*
X137452380Y-69142857D01*
X137404761Y-69238095D01*
X137357142Y-69285714D01*
X137452380Y-67714285D02*
X137452380Y-68285714D01*
X137452380Y-68000000D02*
X136452380Y-68000000D01*
X136595238Y-68095238D01*
X136690476Y-68190476D01*
X136738095Y-68285714D01*
G04 #@! TO.C,U32*
X110452380Y-70238095D02*
X111261904Y-70238095D01*
X111357142Y-70190476D01*
X111404761Y-70142857D01*
X111452380Y-70047619D01*
X111452380Y-69857142D01*
X111404761Y-69761904D01*
X111357142Y-69714285D01*
X111261904Y-69666666D01*
X110452380Y-69666666D01*
X110452380Y-69285714D02*
X110452380Y-68666666D01*
X110833333Y-69000000D01*
X110833333Y-68857142D01*
X110880952Y-68761904D01*
X110928571Y-68714285D01*
X111023809Y-68666666D01*
X111261904Y-68666666D01*
X111357142Y-68714285D01*
X111404761Y-68761904D01*
X111452380Y-68857142D01*
X111452380Y-69142857D01*
X111404761Y-69238095D01*
X111357142Y-69285714D01*
X110547619Y-68285714D02*
X110500000Y-68238095D01*
X110452380Y-68142857D01*
X110452380Y-67904761D01*
X110500000Y-67809523D01*
X110547619Y-67761904D01*
X110642857Y-67714285D01*
X110738095Y-67714285D01*
X110880952Y-67761904D01*
X111452380Y-68333333D01*
X111452380Y-67714285D01*
G04 #@! TO.C,U33*
X99452380Y-70238095D02*
X100261904Y-70238095D01*
X100357142Y-70190476D01*
X100404761Y-70142857D01*
X100452380Y-70047619D01*
X100452380Y-69857142D01*
X100404761Y-69761904D01*
X100357142Y-69714285D01*
X100261904Y-69666666D01*
X99452380Y-69666666D01*
X99452380Y-69285714D02*
X99452380Y-68666666D01*
X99833333Y-69000000D01*
X99833333Y-68857142D01*
X99880952Y-68761904D01*
X99928571Y-68714285D01*
X100023809Y-68666666D01*
X100261904Y-68666666D01*
X100357142Y-68714285D01*
X100404761Y-68761904D01*
X100452380Y-68857142D01*
X100452380Y-69142857D01*
X100404761Y-69238095D01*
X100357142Y-69285714D01*
X99452380Y-68333333D02*
X99452380Y-67714285D01*
X99833333Y-68047619D01*
X99833333Y-67904761D01*
X99880952Y-67809523D01*
X99928571Y-67761904D01*
X100023809Y-67714285D01*
X100261904Y-67714285D01*
X100357142Y-67761904D01*
X100404761Y-67809523D01*
X100452380Y-67904761D01*
X100452380Y-68190476D01*
X100404761Y-68285714D01*
X100357142Y-68333333D01*
G04 #@! TO.C,U34*
X88452380Y-70238095D02*
X89261904Y-70238095D01*
X89357142Y-70190476D01*
X89404761Y-70142857D01*
X89452380Y-70047619D01*
X89452380Y-69857142D01*
X89404761Y-69761904D01*
X89357142Y-69714285D01*
X89261904Y-69666666D01*
X88452380Y-69666666D01*
X88452380Y-69285714D02*
X88452380Y-68666666D01*
X88833333Y-69000000D01*
X88833333Y-68857142D01*
X88880952Y-68761904D01*
X88928571Y-68714285D01*
X89023809Y-68666666D01*
X89261904Y-68666666D01*
X89357142Y-68714285D01*
X89404761Y-68761904D01*
X89452380Y-68857142D01*
X89452380Y-69142857D01*
X89404761Y-69238095D01*
X89357142Y-69285714D01*
X88785714Y-67809523D02*
X89452380Y-67809523D01*
X88404761Y-68047619D02*
X89119047Y-68285714D01*
X89119047Y-67666666D01*
G04 #@! TO.C,U36*
X74761904Y-97517380D02*
X74761904Y-98326904D01*
X74809523Y-98422142D01*
X74857142Y-98469761D01*
X74952380Y-98517380D01*
X75142857Y-98517380D01*
X75238095Y-98469761D01*
X75285714Y-98422142D01*
X75333333Y-98326904D01*
X75333333Y-97517380D01*
X75714285Y-97517380D02*
X76333333Y-97517380D01*
X76000000Y-97898333D01*
X76142857Y-97898333D01*
X76238095Y-97945952D01*
X76285714Y-97993571D01*
X76333333Y-98088809D01*
X76333333Y-98326904D01*
X76285714Y-98422142D01*
X76238095Y-98469761D01*
X76142857Y-98517380D01*
X75857142Y-98517380D01*
X75761904Y-98469761D01*
X75714285Y-98422142D01*
X77190476Y-97517380D02*
X77000000Y-97517380D01*
X76904761Y-97565000D01*
X76857142Y-97612619D01*
X76761904Y-97755476D01*
X76714285Y-97945952D01*
X76714285Y-98326904D01*
X76761904Y-98422142D01*
X76809523Y-98469761D01*
X76904761Y-98517380D01*
X77095238Y-98517380D01*
X77190476Y-98469761D01*
X77238095Y-98422142D01*
X77285714Y-98326904D01*
X77285714Y-98088809D01*
X77238095Y-97993571D01*
X77190476Y-97945952D01*
X77095238Y-97898333D01*
X76904761Y-97898333D01*
X76809523Y-97945952D01*
X76761904Y-97993571D01*
X76714285Y-98088809D01*
G04 #@! TO.C,U39*
X145452380Y-88238095D02*
X146261904Y-88238095D01*
X146357142Y-88190476D01*
X146404761Y-88142857D01*
X146452380Y-88047619D01*
X146452380Y-87857142D01*
X146404761Y-87761904D01*
X146357142Y-87714285D01*
X146261904Y-87666666D01*
X145452380Y-87666666D01*
X145452380Y-87285714D02*
X145452380Y-86666666D01*
X145833333Y-87000000D01*
X145833333Y-86857142D01*
X145880952Y-86761904D01*
X145928571Y-86714285D01*
X146023809Y-86666666D01*
X146261904Y-86666666D01*
X146357142Y-86714285D01*
X146404761Y-86761904D01*
X146452380Y-86857142D01*
X146452380Y-87142857D01*
X146404761Y-87238095D01*
X146357142Y-87285714D01*
X146452380Y-86190476D02*
X146452380Y-86000000D01*
X146404761Y-85904761D01*
X146357142Y-85857142D01*
X146214285Y-85761904D01*
X146023809Y-85714285D01*
X145642857Y-85714285D01*
X145547619Y-85761904D01*
X145500000Y-85809523D01*
X145452380Y-85904761D01*
X145452380Y-86095238D01*
X145500000Y-86190476D01*
X145547619Y-86238095D01*
X145642857Y-86285714D01*
X145880952Y-86285714D01*
X145976190Y-86238095D01*
X146023809Y-86190476D01*
X146071428Y-86095238D01*
X146071428Y-85904761D01*
X146023809Y-85809523D01*
X145976190Y-85761904D01*
X145880952Y-85714285D01*
G04 #@! TO.C,C28*
X176787142Y-79042857D02*
X176834761Y-79090476D01*
X176882380Y-79233333D01*
X176882380Y-79328571D01*
X176834761Y-79471428D01*
X176739523Y-79566666D01*
X176644285Y-79614285D01*
X176453809Y-79661904D01*
X176310952Y-79661904D01*
X176120476Y-79614285D01*
X176025238Y-79566666D01*
X175930000Y-79471428D01*
X175882380Y-79328571D01*
X175882380Y-79233333D01*
X175930000Y-79090476D01*
X175977619Y-79042857D01*
X175977619Y-78661904D02*
X175930000Y-78614285D01*
X175882380Y-78519047D01*
X175882380Y-78280952D01*
X175930000Y-78185714D01*
X175977619Y-78138095D01*
X176072857Y-78090476D01*
X176168095Y-78090476D01*
X176310952Y-78138095D01*
X176882380Y-78709523D01*
X176882380Y-78090476D01*
X176310952Y-77519047D02*
X176263333Y-77614285D01*
X176215714Y-77661904D01*
X176120476Y-77709523D01*
X176072857Y-77709523D01*
X175977619Y-77661904D01*
X175930000Y-77614285D01*
X175882380Y-77519047D01*
X175882380Y-77328571D01*
X175930000Y-77233333D01*
X175977619Y-77185714D01*
X176072857Y-77138095D01*
X176120476Y-77138095D01*
X176215714Y-77185714D01*
X176263333Y-77233333D01*
X176310952Y-77328571D01*
X176310952Y-77519047D01*
X176358571Y-77614285D01*
X176406190Y-77661904D01*
X176501428Y-77709523D01*
X176691904Y-77709523D01*
X176787142Y-77661904D01*
X176834761Y-77614285D01*
X176882380Y-77519047D01*
X176882380Y-77328571D01*
X176834761Y-77233333D01*
X176787142Y-77185714D01*
X176691904Y-77138095D01*
X176501428Y-77138095D01*
X176406190Y-77185714D01*
X176358571Y-77233333D01*
X176310952Y-77328571D01*
G04 #@! TO.C,C1*
X210002142Y-124641666D02*
X210049761Y-124689285D01*
X210097380Y-124832142D01*
X210097380Y-124927380D01*
X210049761Y-125070238D01*
X209954523Y-125165476D01*
X209859285Y-125213095D01*
X209668809Y-125260714D01*
X209525952Y-125260714D01*
X209335476Y-125213095D01*
X209240238Y-125165476D01*
X209145000Y-125070238D01*
X209097380Y-124927380D01*
X209097380Y-124832142D01*
X209145000Y-124689285D01*
X209192619Y-124641666D01*
X210097380Y-123689285D02*
X210097380Y-124260714D01*
X210097380Y-123975000D02*
X209097380Y-123975000D01*
X209240238Y-124070238D01*
X209335476Y-124165476D01*
X209383095Y-124260714D01*
G04 #@! TO.C,C2*
X209233333Y-97102142D02*
X209185714Y-97149761D01*
X209042857Y-97197380D01*
X208947619Y-97197380D01*
X208804761Y-97149761D01*
X208709523Y-97054523D01*
X208661904Y-96959285D01*
X208614285Y-96768809D01*
X208614285Y-96625952D01*
X208661904Y-96435476D01*
X208709523Y-96340238D01*
X208804761Y-96245000D01*
X208947619Y-96197380D01*
X209042857Y-96197380D01*
X209185714Y-96245000D01*
X209233333Y-96292619D01*
X209614285Y-96292619D02*
X209661904Y-96245000D01*
X209757142Y-96197380D01*
X209995238Y-96197380D01*
X210090476Y-96245000D01*
X210138095Y-96292619D01*
X210185714Y-96387857D01*
X210185714Y-96483095D01*
X210138095Y-96625952D01*
X209566666Y-97197380D01*
X210185714Y-97197380D01*
G04 #@! TO.C,C3*
X209077142Y-111391666D02*
X209124761Y-111439285D01*
X209172380Y-111582142D01*
X209172380Y-111677380D01*
X209124761Y-111820238D01*
X209029523Y-111915476D01*
X208934285Y-111963095D01*
X208743809Y-112010714D01*
X208600952Y-112010714D01*
X208410476Y-111963095D01*
X208315238Y-111915476D01*
X208220000Y-111820238D01*
X208172380Y-111677380D01*
X208172380Y-111582142D01*
X208220000Y-111439285D01*
X208267619Y-111391666D01*
X208172380Y-111058333D02*
X208172380Y-110439285D01*
X208553333Y-110772619D01*
X208553333Y-110629761D01*
X208600952Y-110534523D01*
X208648571Y-110486904D01*
X208743809Y-110439285D01*
X208981904Y-110439285D01*
X209077142Y-110486904D01*
X209124761Y-110534523D01*
X209172380Y-110629761D01*
X209172380Y-110915476D01*
X209124761Y-111010714D01*
X209077142Y-111058333D01*
G04 #@! TO.C,C4*
X195286433Y-72805542D02*
X195238814Y-72853161D01*
X195095957Y-72900780D01*
X195000719Y-72900780D01*
X194857861Y-72853161D01*
X194762623Y-72757923D01*
X194715004Y-72662685D01*
X194667385Y-72472209D01*
X194667385Y-72329352D01*
X194715004Y-72138876D01*
X194762623Y-72043638D01*
X194857861Y-71948400D01*
X195000719Y-71900780D01*
X195095957Y-71900780D01*
X195238814Y-71948400D01*
X195286433Y-71996019D01*
X196143576Y-72234114D02*
X196143576Y-72900780D01*
X195905480Y-71853161D02*
X195667385Y-72567447D01*
X196286433Y-72567447D01*
G04 #@! TO.C,C5*
X202449233Y-72742042D02*
X202401614Y-72789661D01*
X202258757Y-72837280D01*
X202163519Y-72837280D01*
X202020661Y-72789661D01*
X201925423Y-72694423D01*
X201877804Y-72599185D01*
X201830185Y-72408709D01*
X201830185Y-72265852D01*
X201877804Y-72075376D01*
X201925423Y-71980138D01*
X202020661Y-71884900D01*
X202163519Y-71837280D01*
X202258757Y-71837280D01*
X202401614Y-71884900D01*
X202449233Y-71932519D01*
X203353995Y-71837280D02*
X202877804Y-71837280D01*
X202830185Y-72313471D01*
X202877804Y-72265852D01*
X202973042Y-72218233D01*
X203211138Y-72218233D01*
X203306376Y-72265852D01*
X203353995Y-72313471D01*
X203401614Y-72408709D01*
X203401614Y-72646804D01*
X203353995Y-72742042D01*
X203306376Y-72789661D01*
X203211138Y-72837280D01*
X202973042Y-72837280D01*
X202877804Y-72789661D01*
X202830185Y-72742042D01*
G04 #@! TO.C,C6*
X172577142Y-126516666D02*
X172624761Y-126564285D01*
X172672380Y-126707142D01*
X172672380Y-126802380D01*
X172624761Y-126945238D01*
X172529523Y-127040476D01*
X172434285Y-127088095D01*
X172243809Y-127135714D01*
X172100952Y-127135714D01*
X171910476Y-127088095D01*
X171815238Y-127040476D01*
X171720000Y-126945238D01*
X171672380Y-126802380D01*
X171672380Y-126707142D01*
X171720000Y-126564285D01*
X171767619Y-126516666D01*
X171672380Y-125659523D02*
X171672380Y-125850000D01*
X171720000Y-125945238D01*
X171767619Y-125992857D01*
X171910476Y-126088095D01*
X172100952Y-126135714D01*
X172481904Y-126135714D01*
X172577142Y-126088095D01*
X172624761Y-126040476D01*
X172672380Y-125945238D01*
X172672380Y-125754761D01*
X172624761Y-125659523D01*
X172577142Y-125611904D01*
X172481904Y-125564285D01*
X172243809Y-125564285D01*
X172148571Y-125611904D01*
X172100952Y-125659523D01*
X172053333Y-125754761D01*
X172053333Y-125945238D01*
X172100952Y-126040476D01*
X172148571Y-126088095D01*
X172243809Y-126135714D01*
G04 #@! TO.C,C7*
X154552142Y-126491666D02*
X154599761Y-126539285D01*
X154647380Y-126682142D01*
X154647380Y-126777380D01*
X154599761Y-126920238D01*
X154504523Y-127015476D01*
X154409285Y-127063095D01*
X154218809Y-127110714D01*
X154075952Y-127110714D01*
X153885476Y-127063095D01*
X153790238Y-127015476D01*
X153695000Y-126920238D01*
X153647380Y-126777380D01*
X153647380Y-126682142D01*
X153695000Y-126539285D01*
X153742619Y-126491666D01*
X153647380Y-126158333D02*
X153647380Y-125491666D01*
X154647380Y-125920238D01*
G04 #@! TO.C,C8*
X114577142Y-126491666D02*
X114624761Y-126539285D01*
X114672380Y-126682142D01*
X114672380Y-126777380D01*
X114624761Y-126920238D01*
X114529523Y-127015476D01*
X114434285Y-127063095D01*
X114243809Y-127110714D01*
X114100952Y-127110714D01*
X113910476Y-127063095D01*
X113815238Y-127015476D01*
X113720000Y-126920238D01*
X113672380Y-126777380D01*
X113672380Y-126682142D01*
X113720000Y-126539285D01*
X113767619Y-126491666D01*
X114100952Y-125920238D02*
X114053333Y-126015476D01*
X114005714Y-126063095D01*
X113910476Y-126110714D01*
X113862857Y-126110714D01*
X113767619Y-126063095D01*
X113720000Y-126015476D01*
X113672380Y-125920238D01*
X113672380Y-125729761D01*
X113720000Y-125634523D01*
X113767619Y-125586904D01*
X113862857Y-125539285D01*
X113910476Y-125539285D01*
X114005714Y-125586904D01*
X114053333Y-125634523D01*
X114100952Y-125729761D01*
X114100952Y-125920238D01*
X114148571Y-126015476D01*
X114196190Y-126063095D01*
X114291428Y-126110714D01*
X114481904Y-126110714D01*
X114577142Y-126063095D01*
X114624761Y-126015476D01*
X114672380Y-125920238D01*
X114672380Y-125729761D01*
X114624761Y-125634523D01*
X114577142Y-125586904D01*
X114481904Y-125539285D01*
X114291428Y-125539285D01*
X114196190Y-125586904D01*
X114148571Y-125634523D01*
X114100952Y-125729761D01*
G04 #@! TO.C,C9*
X96427142Y-126466666D02*
X96474761Y-126514285D01*
X96522380Y-126657142D01*
X96522380Y-126752380D01*
X96474761Y-126895238D01*
X96379523Y-126990476D01*
X96284285Y-127038095D01*
X96093809Y-127085714D01*
X95950952Y-127085714D01*
X95760476Y-127038095D01*
X95665238Y-126990476D01*
X95570000Y-126895238D01*
X95522380Y-126752380D01*
X95522380Y-126657142D01*
X95570000Y-126514285D01*
X95617619Y-126466666D01*
X96522380Y-125990476D02*
X96522380Y-125800000D01*
X96474761Y-125704761D01*
X96427142Y-125657142D01*
X96284285Y-125561904D01*
X96093809Y-125514285D01*
X95712857Y-125514285D01*
X95617619Y-125561904D01*
X95570000Y-125609523D01*
X95522380Y-125704761D01*
X95522380Y-125895238D01*
X95570000Y-125990476D01*
X95617619Y-126038095D01*
X95712857Y-126085714D01*
X95950952Y-126085714D01*
X96046190Y-126038095D01*
X96093809Y-125990476D01*
X96141428Y-125895238D01*
X96141428Y-125704761D01*
X96093809Y-125609523D01*
X96046190Y-125561904D01*
X95950952Y-125514285D01*
G04 #@! TO.C,C10*
X192002142Y-124942857D02*
X192049761Y-124990476D01*
X192097380Y-125133333D01*
X192097380Y-125228571D01*
X192049761Y-125371428D01*
X191954523Y-125466666D01*
X191859285Y-125514285D01*
X191668809Y-125561904D01*
X191525952Y-125561904D01*
X191335476Y-125514285D01*
X191240238Y-125466666D01*
X191145000Y-125371428D01*
X191097380Y-125228571D01*
X191097380Y-125133333D01*
X191145000Y-124990476D01*
X191192619Y-124942857D01*
X192097380Y-123990476D02*
X192097380Y-124561904D01*
X192097380Y-124276190D02*
X191097380Y-124276190D01*
X191240238Y-124371428D01*
X191335476Y-124466666D01*
X191383095Y-124561904D01*
X191097380Y-123371428D02*
X191097380Y-123276190D01*
X191145000Y-123180952D01*
X191192619Y-123133333D01*
X191287857Y-123085714D01*
X191478333Y-123038095D01*
X191716428Y-123038095D01*
X191906904Y-123085714D01*
X192002142Y-123133333D01*
X192049761Y-123180952D01*
X192097380Y-123276190D01*
X192097380Y-123371428D01*
X192049761Y-123466666D01*
X192002142Y-123514285D01*
X191906904Y-123561904D01*
X191716428Y-123609523D01*
X191478333Y-123609523D01*
X191287857Y-123561904D01*
X191192619Y-123514285D01*
X191145000Y-123466666D01*
X191097380Y-123371428D01*
G04 #@! TO.C,C11*
X183002142Y-124892857D02*
X183049761Y-124940476D01*
X183097380Y-125083333D01*
X183097380Y-125178571D01*
X183049761Y-125321428D01*
X182954523Y-125416666D01*
X182859285Y-125464285D01*
X182668809Y-125511904D01*
X182525952Y-125511904D01*
X182335476Y-125464285D01*
X182240238Y-125416666D01*
X182145000Y-125321428D01*
X182097380Y-125178571D01*
X182097380Y-125083333D01*
X182145000Y-124940476D01*
X182192619Y-124892857D01*
X183097380Y-123940476D02*
X183097380Y-124511904D01*
X183097380Y-124226190D02*
X182097380Y-124226190D01*
X182240238Y-124321428D01*
X182335476Y-124416666D01*
X182383095Y-124511904D01*
X183097380Y-122988095D02*
X183097380Y-123559523D01*
X183097380Y-123273809D02*
X182097380Y-123273809D01*
X182240238Y-123369047D01*
X182335476Y-123464285D01*
X182383095Y-123559523D01*
G04 #@! TO.C,C12*
X132502142Y-126942857D02*
X132549761Y-126990476D01*
X132597380Y-127133333D01*
X132597380Y-127228571D01*
X132549761Y-127371428D01*
X132454523Y-127466666D01*
X132359285Y-127514285D01*
X132168809Y-127561904D01*
X132025952Y-127561904D01*
X131835476Y-127514285D01*
X131740238Y-127466666D01*
X131645000Y-127371428D01*
X131597380Y-127228571D01*
X131597380Y-127133333D01*
X131645000Y-126990476D01*
X131692619Y-126942857D01*
X132597380Y-125990476D02*
X132597380Y-126561904D01*
X132597380Y-126276190D02*
X131597380Y-126276190D01*
X131740238Y-126371428D01*
X131835476Y-126466666D01*
X131883095Y-126561904D01*
X131692619Y-125609523D02*
X131645000Y-125561904D01*
X131597380Y-125466666D01*
X131597380Y-125228571D01*
X131645000Y-125133333D01*
X131692619Y-125085714D01*
X131787857Y-125038095D01*
X131883095Y-125038095D01*
X132025952Y-125085714D01*
X132597380Y-125657142D01*
X132597380Y-125038095D01*
G04 #@! TO.C,C13*
X123552142Y-126917857D02*
X123599761Y-126965476D01*
X123647380Y-127108333D01*
X123647380Y-127203571D01*
X123599761Y-127346428D01*
X123504523Y-127441666D01*
X123409285Y-127489285D01*
X123218809Y-127536904D01*
X123075952Y-127536904D01*
X122885476Y-127489285D01*
X122790238Y-127441666D01*
X122695000Y-127346428D01*
X122647380Y-127203571D01*
X122647380Y-127108333D01*
X122695000Y-126965476D01*
X122742619Y-126917857D01*
X123647380Y-125965476D02*
X123647380Y-126536904D01*
X123647380Y-126251190D02*
X122647380Y-126251190D01*
X122790238Y-126346428D01*
X122885476Y-126441666D01*
X122933095Y-126536904D01*
X122647380Y-125632142D02*
X122647380Y-125013095D01*
X123028333Y-125346428D01*
X123028333Y-125203571D01*
X123075952Y-125108333D01*
X123123571Y-125060714D01*
X123218809Y-125013095D01*
X123456904Y-125013095D01*
X123552142Y-125060714D01*
X123599761Y-125108333D01*
X123647380Y-125203571D01*
X123647380Y-125489285D01*
X123599761Y-125584523D01*
X123552142Y-125632142D01*
G04 #@! TO.C,C14*
X199627142Y-126867857D02*
X199674761Y-126915476D01*
X199722380Y-127058333D01*
X199722380Y-127153571D01*
X199674761Y-127296428D01*
X199579523Y-127391666D01*
X199484285Y-127439285D01*
X199293809Y-127486904D01*
X199150952Y-127486904D01*
X198960476Y-127439285D01*
X198865238Y-127391666D01*
X198770000Y-127296428D01*
X198722380Y-127153571D01*
X198722380Y-127058333D01*
X198770000Y-126915476D01*
X198817619Y-126867857D01*
X199722380Y-125915476D02*
X199722380Y-126486904D01*
X199722380Y-126201190D02*
X198722380Y-126201190D01*
X198865238Y-126296428D01*
X198960476Y-126391666D01*
X199008095Y-126486904D01*
X199055714Y-125058333D02*
X199722380Y-125058333D01*
X198674761Y-125296428D02*
X199389047Y-125534523D01*
X199389047Y-124915476D01*
G04 #@! TO.C,C16*
X134612142Y-75742857D02*
X134659761Y-75790476D01*
X134707380Y-75933333D01*
X134707380Y-76028571D01*
X134659761Y-76171428D01*
X134564523Y-76266666D01*
X134469285Y-76314285D01*
X134278809Y-76361904D01*
X134135952Y-76361904D01*
X133945476Y-76314285D01*
X133850238Y-76266666D01*
X133755000Y-76171428D01*
X133707380Y-76028571D01*
X133707380Y-75933333D01*
X133755000Y-75790476D01*
X133802619Y-75742857D01*
X134707380Y-74790476D02*
X134707380Y-75361904D01*
X134707380Y-75076190D02*
X133707380Y-75076190D01*
X133850238Y-75171428D01*
X133945476Y-75266666D01*
X133993095Y-75361904D01*
X133707380Y-73933333D02*
X133707380Y-74123809D01*
X133755000Y-74219047D01*
X133802619Y-74266666D01*
X133945476Y-74361904D01*
X134135952Y-74409523D01*
X134516904Y-74409523D01*
X134612142Y-74361904D01*
X134659761Y-74314285D01*
X134707380Y-74219047D01*
X134707380Y-74028571D01*
X134659761Y-73933333D01*
X134612142Y-73885714D01*
X134516904Y-73838095D01*
X134278809Y-73838095D01*
X134183571Y-73885714D01*
X134135952Y-73933333D01*
X134088333Y-74028571D01*
X134088333Y-74219047D01*
X134135952Y-74314285D01*
X134183571Y-74361904D01*
X134278809Y-74409523D01*
G04 #@! TO.C,C17*
X187587142Y-92417857D02*
X187634761Y-92465476D01*
X187682380Y-92608333D01*
X187682380Y-92703571D01*
X187634761Y-92846428D01*
X187539523Y-92941666D01*
X187444285Y-92989285D01*
X187253809Y-93036904D01*
X187110952Y-93036904D01*
X186920476Y-92989285D01*
X186825238Y-92941666D01*
X186730000Y-92846428D01*
X186682380Y-92703571D01*
X186682380Y-92608333D01*
X186730000Y-92465476D01*
X186777619Y-92417857D01*
X187682380Y-91465476D02*
X187682380Y-92036904D01*
X187682380Y-91751190D02*
X186682380Y-91751190D01*
X186825238Y-91846428D01*
X186920476Y-91941666D01*
X186968095Y-92036904D01*
X186682380Y-91132142D02*
X186682380Y-90465476D01*
X187682380Y-90894047D01*
G04 #@! TO.C,C19*
X167112142Y-92917857D02*
X167159761Y-92965476D01*
X167207380Y-93108333D01*
X167207380Y-93203571D01*
X167159761Y-93346428D01*
X167064523Y-93441666D01*
X166969285Y-93489285D01*
X166778809Y-93536904D01*
X166635952Y-93536904D01*
X166445476Y-93489285D01*
X166350238Y-93441666D01*
X166255000Y-93346428D01*
X166207380Y-93203571D01*
X166207380Y-93108333D01*
X166255000Y-92965476D01*
X166302619Y-92917857D01*
X167207380Y-91965476D02*
X167207380Y-92536904D01*
X167207380Y-92251190D02*
X166207380Y-92251190D01*
X166350238Y-92346428D01*
X166445476Y-92441666D01*
X166493095Y-92536904D01*
X167207380Y-91489285D02*
X167207380Y-91298809D01*
X167159761Y-91203571D01*
X167112142Y-91155952D01*
X166969285Y-91060714D01*
X166778809Y-91013095D01*
X166397857Y-91013095D01*
X166302619Y-91060714D01*
X166255000Y-91108333D01*
X166207380Y-91203571D01*
X166207380Y-91394047D01*
X166255000Y-91489285D01*
X166302619Y-91536904D01*
X166397857Y-91584523D01*
X166635952Y-91584523D01*
X166731190Y-91536904D01*
X166778809Y-91489285D01*
X166826428Y-91394047D01*
X166826428Y-91203571D01*
X166778809Y-91108333D01*
X166731190Y-91060714D01*
X166635952Y-91013095D01*
G04 #@! TO.C,C20*
X157537142Y-92317857D02*
X157584761Y-92365476D01*
X157632380Y-92508333D01*
X157632380Y-92603571D01*
X157584761Y-92746428D01*
X157489523Y-92841666D01*
X157394285Y-92889285D01*
X157203809Y-92936904D01*
X157060952Y-92936904D01*
X156870476Y-92889285D01*
X156775238Y-92841666D01*
X156680000Y-92746428D01*
X156632380Y-92603571D01*
X156632380Y-92508333D01*
X156680000Y-92365476D01*
X156727619Y-92317857D01*
X156727619Y-91936904D02*
X156680000Y-91889285D01*
X156632380Y-91794047D01*
X156632380Y-91555952D01*
X156680000Y-91460714D01*
X156727619Y-91413095D01*
X156822857Y-91365476D01*
X156918095Y-91365476D01*
X157060952Y-91413095D01*
X157632380Y-91984523D01*
X157632380Y-91365476D01*
X156632380Y-90746428D02*
X156632380Y-90651190D01*
X156680000Y-90555952D01*
X156727619Y-90508333D01*
X156822857Y-90460714D01*
X157013333Y-90413095D01*
X157251428Y-90413095D01*
X157441904Y-90460714D01*
X157537142Y-90508333D01*
X157584761Y-90555952D01*
X157632380Y-90651190D01*
X157632380Y-90746428D01*
X157584761Y-90841666D01*
X157537142Y-90889285D01*
X157441904Y-90936904D01*
X157251428Y-90984523D01*
X157013333Y-90984523D01*
X156822857Y-90936904D01*
X156727619Y-90889285D01*
X156680000Y-90841666D01*
X156632380Y-90746428D01*
G04 #@! TO.C,C21*
X130437142Y-92167857D02*
X130484761Y-92215476D01*
X130532380Y-92358333D01*
X130532380Y-92453571D01*
X130484761Y-92596428D01*
X130389523Y-92691666D01*
X130294285Y-92739285D01*
X130103809Y-92786904D01*
X129960952Y-92786904D01*
X129770476Y-92739285D01*
X129675238Y-92691666D01*
X129580000Y-92596428D01*
X129532380Y-92453571D01*
X129532380Y-92358333D01*
X129580000Y-92215476D01*
X129627619Y-92167857D01*
X129627619Y-91786904D02*
X129580000Y-91739285D01*
X129532380Y-91644047D01*
X129532380Y-91405952D01*
X129580000Y-91310714D01*
X129627619Y-91263095D01*
X129722857Y-91215476D01*
X129818095Y-91215476D01*
X129960952Y-91263095D01*
X130532380Y-91834523D01*
X130532380Y-91215476D01*
X130532380Y-90263095D02*
X130532380Y-90834523D01*
X130532380Y-90548809D02*
X129532380Y-90548809D01*
X129675238Y-90644047D01*
X129770476Y-90739285D01*
X129818095Y-90834523D01*
G04 #@! TO.C,C22*
X120537142Y-92417857D02*
X120584761Y-92465476D01*
X120632380Y-92608333D01*
X120632380Y-92703571D01*
X120584761Y-92846428D01*
X120489523Y-92941666D01*
X120394285Y-92989285D01*
X120203809Y-93036904D01*
X120060952Y-93036904D01*
X119870476Y-92989285D01*
X119775238Y-92941666D01*
X119680000Y-92846428D01*
X119632380Y-92703571D01*
X119632380Y-92608333D01*
X119680000Y-92465476D01*
X119727619Y-92417857D01*
X119727619Y-92036904D02*
X119680000Y-91989285D01*
X119632380Y-91894047D01*
X119632380Y-91655952D01*
X119680000Y-91560714D01*
X119727619Y-91513095D01*
X119822857Y-91465476D01*
X119918095Y-91465476D01*
X120060952Y-91513095D01*
X120632380Y-92084523D01*
X120632380Y-91465476D01*
X119727619Y-91084523D02*
X119680000Y-91036904D01*
X119632380Y-90941666D01*
X119632380Y-90703571D01*
X119680000Y-90608333D01*
X119727619Y-90560714D01*
X119822857Y-90513095D01*
X119918095Y-90513095D01*
X120060952Y-90560714D01*
X120632380Y-91132142D01*
X120632380Y-90513095D01*
G04 #@! TO.C,C23*
X110437142Y-92267857D02*
X110484761Y-92315476D01*
X110532380Y-92458333D01*
X110532380Y-92553571D01*
X110484761Y-92696428D01*
X110389523Y-92791666D01*
X110294285Y-92839285D01*
X110103809Y-92886904D01*
X109960952Y-92886904D01*
X109770476Y-92839285D01*
X109675238Y-92791666D01*
X109580000Y-92696428D01*
X109532380Y-92553571D01*
X109532380Y-92458333D01*
X109580000Y-92315476D01*
X109627619Y-92267857D01*
X109627619Y-91886904D02*
X109580000Y-91839285D01*
X109532380Y-91744047D01*
X109532380Y-91505952D01*
X109580000Y-91410714D01*
X109627619Y-91363095D01*
X109722857Y-91315476D01*
X109818095Y-91315476D01*
X109960952Y-91363095D01*
X110532380Y-91934523D01*
X110532380Y-91315476D01*
X109532380Y-90982142D02*
X109532380Y-90363095D01*
X109913333Y-90696428D01*
X109913333Y-90553571D01*
X109960952Y-90458333D01*
X110008571Y-90410714D01*
X110103809Y-90363095D01*
X110341904Y-90363095D01*
X110437142Y-90410714D01*
X110484761Y-90458333D01*
X110532380Y-90553571D01*
X110532380Y-90839285D01*
X110484761Y-90934523D01*
X110437142Y-90982142D01*
G04 #@! TO.C,C24*
X114977942Y-48858442D02*
X114930323Y-48906061D01*
X114787466Y-48953680D01*
X114692228Y-48953680D01*
X114549371Y-48906061D01*
X114454133Y-48810823D01*
X114406514Y-48715585D01*
X114358895Y-48525109D01*
X114358895Y-48382252D01*
X114406514Y-48191776D01*
X114454133Y-48096538D01*
X114549371Y-48001300D01*
X114692228Y-47953680D01*
X114787466Y-47953680D01*
X114930323Y-48001300D01*
X114977942Y-48048919D01*
X115358895Y-48048919D02*
X115406514Y-48001300D01*
X115501752Y-47953680D01*
X115739847Y-47953680D01*
X115835085Y-48001300D01*
X115882704Y-48048919D01*
X115930323Y-48144157D01*
X115930323Y-48239395D01*
X115882704Y-48382252D01*
X115311276Y-48953680D01*
X115930323Y-48953680D01*
X116787466Y-48287014D02*
X116787466Y-48953680D01*
X116549371Y-47906061D02*
X116311276Y-48620347D01*
X116930323Y-48620347D01*
G04 #@! TO.C,C25*
X127552142Y-51542857D02*
X127599761Y-51590476D01*
X127647380Y-51733333D01*
X127647380Y-51828571D01*
X127599761Y-51971428D01*
X127504523Y-52066666D01*
X127409285Y-52114285D01*
X127218809Y-52161904D01*
X127075952Y-52161904D01*
X126885476Y-52114285D01*
X126790238Y-52066666D01*
X126695000Y-51971428D01*
X126647380Y-51828571D01*
X126647380Y-51733333D01*
X126695000Y-51590476D01*
X126742619Y-51542857D01*
X126742619Y-51161904D02*
X126695000Y-51114285D01*
X126647380Y-51019047D01*
X126647380Y-50780952D01*
X126695000Y-50685714D01*
X126742619Y-50638095D01*
X126837857Y-50590476D01*
X126933095Y-50590476D01*
X127075952Y-50638095D01*
X127647380Y-51209523D01*
X127647380Y-50590476D01*
X126647380Y-49685714D02*
X126647380Y-50161904D01*
X127123571Y-50209523D01*
X127075952Y-50161904D01*
X127028333Y-50066666D01*
X127028333Y-49828571D01*
X127075952Y-49733333D01*
X127123571Y-49685714D01*
X127218809Y-49638095D01*
X127456904Y-49638095D01*
X127552142Y-49685714D01*
X127599761Y-49733333D01*
X127647380Y-49828571D01*
X127647380Y-50066666D01*
X127599761Y-50161904D01*
X127552142Y-50209523D01*
G04 #@! TO.C,C26*
X125632142Y-44927142D02*
X125584523Y-44974761D01*
X125441666Y-45022380D01*
X125346428Y-45022380D01*
X125203571Y-44974761D01*
X125108333Y-44879523D01*
X125060714Y-44784285D01*
X125013095Y-44593809D01*
X125013095Y-44450952D01*
X125060714Y-44260476D01*
X125108333Y-44165238D01*
X125203571Y-44070000D01*
X125346428Y-44022380D01*
X125441666Y-44022380D01*
X125584523Y-44070000D01*
X125632142Y-44117619D01*
X126013095Y-44117619D02*
X126060714Y-44070000D01*
X126155952Y-44022380D01*
X126394047Y-44022380D01*
X126489285Y-44070000D01*
X126536904Y-44117619D01*
X126584523Y-44212857D01*
X126584523Y-44308095D01*
X126536904Y-44450952D01*
X125965476Y-45022380D01*
X126584523Y-45022380D01*
X127441666Y-44022380D02*
X127251190Y-44022380D01*
X127155952Y-44070000D01*
X127108333Y-44117619D01*
X127013095Y-44260476D01*
X126965476Y-44450952D01*
X126965476Y-44831904D01*
X127013095Y-44927142D01*
X127060714Y-44974761D01*
X127155952Y-45022380D01*
X127346428Y-45022380D01*
X127441666Y-44974761D01*
X127489285Y-44927142D01*
X127536904Y-44831904D01*
X127536904Y-44593809D01*
X127489285Y-44498571D01*
X127441666Y-44450952D01*
X127346428Y-44403333D01*
X127155952Y-44403333D01*
X127060714Y-44450952D01*
X127013095Y-44498571D01*
X126965476Y-44593809D01*
G04 #@! TO.C,C27*
X138637142Y-49342857D02*
X138684761Y-49390476D01*
X138732380Y-49533333D01*
X138732380Y-49628571D01*
X138684761Y-49771428D01*
X138589523Y-49866666D01*
X138494285Y-49914285D01*
X138303809Y-49961904D01*
X138160952Y-49961904D01*
X137970476Y-49914285D01*
X137875238Y-49866666D01*
X137780000Y-49771428D01*
X137732380Y-49628571D01*
X137732380Y-49533333D01*
X137780000Y-49390476D01*
X137827619Y-49342857D01*
X137827619Y-48961904D02*
X137780000Y-48914285D01*
X137732380Y-48819047D01*
X137732380Y-48580952D01*
X137780000Y-48485714D01*
X137827619Y-48438095D01*
X137922857Y-48390476D01*
X138018095Y-48390476D01*
X138160952Y-48438095D01*
X138732380Y-49009523D01*
X138732380Y-48390476D01*
X137732380Y-48057142D02*
X137732380Y-47390476D01*
X138732380Y-47819047D01*
G04 #@! TO.C,C29*
X165537142Y-79142857D02*
X165584761Y-79190476D01*
X165632380Y-79333333D01*
X165632380Y-79428571D01*
X165584761Y-79571428D01*
X165489523Y-79666666D01*
X165394285Y-79714285D01*
X165203809Y-79761904D01*
X165060952Y-79761904D01*
X164870476Y-79714285D01*
X164775238Y-79666666D01*
X164680000Y-79571428D01*
X164632380Y-79428571D01*
X164632380Y-79333333D01*
X164680000Y-79190476D01*
X164727619Y-79142857D01*
X164727619Y-78761904D02*
X164680000Y-78714285D01*
X164632380Y-78619047D01*
X164632380Y-78380952D01*
X164680000Y-78285714D01*
X164727619Y-78238095D01*
X164822857Y-78190476D01*
X164918095Y-78190476D01*
X165060952Y-78238095D01*
X165632380Y-78809523D01*
X165632380Y-78190476D01*
X165632380Y-77714285D02*
X165632380Y-77523809D01*
X165584761Y-77428571D01*
X165537142Y-77380952D01*
X165394285Y-77285714D01*
X165203809Y-77238095D01*
X164822857Y-77238095D01*
X164727619Y-77285714D01*
X164680000Y-77333333D01*
X164632380Y-77428571D01*
X164632380Y-77619047D01*
X164680000Y-77714285D01*
X164727619Y-77761904D01*
X164822857Y-77809523D01*
X165060952Y-77809523D01*
X165156190Y-77761904D01*
X165203809Y-77714285D01*
X165251428Y-77619047D01*
X165251428Y-77428571D01*
X165203809Y-77333333D01*
X165156190Y-77285714D01*
X165060952Y-77238095D01*
G04 #@! TO.C,C30*
X154787142Y-79167857D02*
X154834761Y-79215476D01*
X154882380Y-79358333D01*
X154882380Y-79453571D01*
X154834761Y-79596428D01*
X154739523Y-79691666D01*
X154644285Y-79739285D01*
X154453809Y-79786904D01*
X154310952Y-79786904D01*
X154120476Y-79739285D01*
X154025238Y-79691666D01*
X153930000Y-79596428D01*
X153882380Y-79453571D01*
X153882380Y-79358333D01*
X153930000Y-79215476D01*
X153977619Y-79167857D01*
X153882380Y-78834523D02*
X153882380Y-78215476D01*
X154263333Y-78548809D01*
X154263333Y-78405952D01*
X154310952Y-78310714D01*
X154358571Y-78263095D01*
X154453809Y-78215476D01*
X154691904Y-78215476D01*
X154787142Y-78263095D01*
X154834761Y-78310714D01*
X154882380Y-78405952D01*
X154882380Y-78691666D01*
X154834761Y-78786904D01*
X154787142Y-78834523D01*
X153882380Y-77596428D02*
X153882380Y-77501190D01*
X153930000Y-77405952D01*
X153977619Y-77358333D01*
X154072857Y-77310714D01*
X154263333Y-77263095D01*
X154501428Y-77263095D01*
X154691904Y-77310714D01*
X154787142Y-77358333D01*
X154834761Y-77405952D01*
X154882380Y-77501190D01*
X154882380Y-77596428D01*
X154834761Y-77691666D01*
X154787142Y-77739285D01*
X154691904Y-77786904D01*
X154501428Y-77834523D01*
X154263333Y-77834523D01*
X154072857Y-77786904D01*
X153977619Y-77739285D01*
X153930000Y-77691666D01*
X153882380Y-77596428D01*
G04 #@! TO.C,C32*
X117837142Y-79192857D02*
X117884761Y-79240476D01*
X117932380Y-79383333D01*
X117932380Y-79478571D01*
X117884761Y-79621428D01*
X117789523Y-79716666D01*
X117694285Y-79764285D01*
X117503809Y-79811904D01*
X117360952Y-79811904D01*
X117170476Y-79764285D01*
X117075238Y-79716666D01*
X116980000Y-79621428D01*
X116932380Y-79478571D01*
X116932380Y-79383333D01*
X116980000Y-79240476D01*
X117027619Y-79192857D01*
X116932380Y-78859523D02*
X116932380Y-78240476D01*
X117313333Y-78573809D01*
X117313333Y-78430952D01*
X117360952Y-78335714D01*
X117408571Y-78288095D01*
X117503809Y-78240476D01*
X117741904Y-78240476D01*
X117837142Y-78288095D01*
X117884761Y-78335714D01*
X117932380Y-78430952D01*
X117932380Y-78716666D01*
X117884761Y-78811904D01*
X117837142Y-78859523D01*
X117027619Y-77859523D02*
X116980000Y-77811904D01*
X116932380Y-77716666D01*
X116932380Y-77478571D01*
X116980000Y-77383333D01*
X117027619Y-77335714D01*
X117122857Y-77288095D01*
X117218095Y-77288095D01*
X117360952Y-77335714D01*
X117932380Y-77907142D01*
X117932380Y-77288095D01*
G04 #@! TO.C,C33*
X106812142Y-79267857D02*
X106859761Y-79315476D01*
X106907380Y-79458333D01*
X106907380Y-79553571D01*
X106859761Y-79696428D01*
X106764523Y-79791666D01*
X106669285Y-79839285D01*
X106478809Y-79886904D01*
X106335952Y-79886904D01*
X106145476Y-79839285D01*
X106050238Y-79791666D01*
X105955000Y-79696428D01*
X105907380Y-79553571D01*
X105907380Y-79458333D01*
X105955000Y-79315476D01*
X106002619Y-79267857D01*
X105907380Y-78934523D02*
X105907380Y-78315476D01*
X106288333Y-78648809D01*
X106288333Y-78505952D01*
X106335952Y-78410714D01*
X106383571Y-78363095D01*
X106478809Y-78315476D01*
X106716904Y-78315476D01*
X106812142Y-78363095D01*
X106859761Y-78410714D01*
X106907380Y-78505952D01*
X106907380Y-78791666D01*
X106859761Y-78886904D01*
X106812142Y-78934523D01*
X105907380Y-77982142D02*
X105907380Y-77363095D01*
X106288333Y-77696428D01*
X106288333Y-77553571D01*
X106335952Y-77458333D01*
X106383571Y-77410714D01*
X106478809Y-77363095D01*
X106716904Y-77363095D01*
X106812142Y-77410714D01*
X106859761Y-77458333D01*
X106907380Y-77553571D01*
X106907380Y-77839285D01*
X106859761Y-77934523D01*
X106812142Y-77982142D01*
G04 #@! TO.C,C34*
X95862142Y-79192857D02*
X95909761Y-79240476D01*
X95957380Y-79383333D01*
X95957380Y-79478571D01*
X95909761Y-79621428D01*
X95814523Y-79716666D01*
X95719285Y-79764285D01*
X95528809Y-79811904D01*
X95385952Y-79811904D01*
X95195476Y-79764285D01*
X95100238Y-79716666D01*
X95005000Y-79621428D01*
X94957380Y-79478571D01*
X94957380Y-79383333D01*
X95005000Y-79240476D01*
X95052619Y-79192857D01*
X94957380Y-78859523D02*
X94957380Y-78240476D01*
X95338333Y-78573809D01*
X95338333Y-78430952D01*
X95385952Y-78335714D01*
X95433571Y-78288095D01*
X95528809Y-78240476D01*
X95766904Y-78240476D01*
X95862142Y-78288095D01*
X95909761Y-78335714D01*
X95957380Y-78430952D01*
X95957380Y-78716666D01*
X95909761Y-78811904D01*
X95862142Y-78859523D01*
X95290714Y-77383333D02*
X95957380Y-77383333D01*
X94909761Y-77621428D02*
X95624047Y-77859523D01*
X95624047Y-77240476D01*
G04 #@! TO.C,C37*
X131002142Y-97892857D02*
X131049761Y-97940476D01*
X131097380Y-98083333D01*
X131097380Y-98178571D01*
X131049761Y-98321428D01*
X130954523Y-98416666D01*
X130859285Y-98464285D01*
X130668809Y-98511904D01*
X130525952Y-98511904D01*
X130335476Y-98464285D01*
X130240238Y-98416666D01*
X130145000Y-98321428D01*
X130097380Y-98178571D01*
X130097380Y-98083333D01*
X130145000Y-97940476D01*
X130192619Y-97892857D01*
X130097380Y-97559523D02*
X130097380Y-96940476D01*
X130478333Y-97273809D01*
X130478333Y-97130952D01*
X130525952Y-97035714D01*
X130573571Y-96988095D01*
X130668809Y-96940476D01*
X130906904Y-96940476D01*
X131002142Y-96988095D01*
X131049761Y-97035714D01*
X131097380Y-97130952D01*
X131097380Y-97416666D01*
X131049761Y-97511904D01*
X131002142Y-97559523D01*
X130097380Y-96607142D02*
X130097380Y-95940476D01*
X131097380Y-96369047D01*
G04 #@! TO.C,C40*
X177782142Y-107927142D02*
X177734523Y-107974761D01*
X177591666Y-108022380D01*
X177496428Y-108022380D01*
X177353571Y-107974761D01*
X177258333Y-107879523D01*
X177210714Y-107784285D01*
X177163095Y-107593809D01*
X177163095Y-107450952D01*
X177210714Y-107260476D01*
X177258333Y-107165238D01*
X177353571Y-107070000D01*
X177496428Y-107022380D01*
X177591666Y-107022380D01*
X177734523Y-107070000D01*
X177782142Y-107117619D01*
X178639285Y-107355714D02*
X178639285Y-108022380D01*
X178401190Y-106974761D02*
X178163095Y-107689047D01*
X178782142Y-107689047D01*
X179353571Y-107022380D02*
X179448809Y-107022380D01*
X179544047Y-107070000D01*
X179591666Y-107117619D01*
X179639285Y-107212857D01*
X179686904Y-107403333D01*
X179686904Y-107641428D01*
X179639285Y-107831904D01*
X179591666Y-107927142D01*
X179544047Y-107974761D01*
X179448809Y-108022380D01*
X179353571Y-108022380D01*
X179258333Y-107974761D01*
X179210714Y-107927142D01*
X179163095Y-107831904D01*
X179115476Y-107641428D01*
X179115476Y-107403333D01*
X179163095Y-107212857D01*
X179210714Y-107117619D01*
X179258333Y-107070000D01*
X179353571Y-107022380D01*
G04 #@! TO.C,C41*
X157557142Y-108777142D02*
X157509523Y-108824761D01*
X157366666Y-108872380D01*
X157271428Y-108872380D01*
X157128571Y-108824761D01*
X157033333Y-108729523D01*
X156985714Y-108634285D01*
X156938095Y-108443809D01*
X156938095Y-108300952D01*
X156985714Y-108110476D01*
X157033333Y-108015238D01*
X157128571Y-107920000D01*
X157271428Y-107872380D01*
X157366666Y-107872380D01*
X157509523Y-107920000D01*
X157557142Y-107967619D01*
X158414285Y-108205714D02*
X158414285Y-108872380D01*
X158176190Y-107824761D02*
X157938095Y-108539047D01*
X158557142Y-108539047D01*
X159461904Y-108872380D02*
X158890476Y-108872380D01*
X159176190Y-108872380D02*
X159176190Y-107872380D01*
X159080952Y-108015238D01*
X158985714Y-108110476D01*
X158890476Y-108158095D01*
G04 #@! TO.C,C42*
X119532142Y-108877142D02*
X119484523Y-108924761D01*
X119341666Y-108972380D01*
X119246428Y-108972380D01*
X119103571Y-108924761D01*
X119008333Y-108829523D01*
X118960714Y-108734285D01*
X118913095Y-108543809D01*
X118913095Y-108400952D01*
X118960714Y-108210476D01*
X119008333Y-108115238D01*
X119103571Y-108020000D01*
X119246428Y-107972380D01*
X119341666Y-107972380D01*
X119484523Y-108020000D01*
X119532142Y-108067619D01*
X120389285Y-108305714D02*
X120389285Y-108972380D01*
X120151190Y-107924761D02*
X119913095Y-108639047D01*
X120532142Y-108639047D01*
X120865476Y-108067619D02*
X120913095Y-108020000D01*
X121008333Y-107972380D01*
X121246428Y-107972380D01*
X121341666Y-108020000D01*
X121389285Y-108067619D01*
X121436904Y-108162857D01*
X121436904Y-108258095D01*
X121389285Y-108400952D01*
X120817857Y-108972380D01*
X121436904Y-108972380D01*
G04 #@! TO.C,C43*
X99632142Y-109352142D02*
X99584523Y-109399761D01*
X99441666Y-109447380D01*
X99346428Y-109447380D01*
X99203571Y-109399761D01*
X99108333Y-109304523D01*
X99060714Y-109209285D01*
X99013095Y-109018809D01*
X99013095Y-108875952D01*
X99060714Y-108685476D01*
X99108333Y-108590238D01*
X99203571Y-108495000D01*
X99346428Y-108447380D01*
X99441666Y-108447380D01*
X99584523Y-108495000D01*
X99632142Y-108542619D01*
X100489285Y-108780714D02*
X100489285Y-109447380D01*
X100251190Y-108399761D02*
X100013095Y-109114047D01*
X100632142Y-109114047D01*
X100917857Y-108447380D02*
X101536904Y-108447380D01*
X101203571Y-108828333D01*
X101346428Y-108828333D01*
X101441666Y-108875952D01*
X101489285Y-108923571D01*
X101536904Y-109018809D01*
X101536904Y-109256904D01*
X101489285Y-109352142D01*
X101441666Y-109399761D01*
X101346428Y-109447380D01*
X101060714Y-109447380D01*
X100965476Y-109399761D01*
X100917857Y-109352142D01*
G04 #@! TO.C,C44*
X85566502Y-113261477D02*
X85614121Y-113309096D01*
X85661740Y-113451953D01*
X85661740Y-113547191D01*
X85614121Y-113690048D01*
X85518883Y-113785286D01*
X85423645Y-113832905D01*
X85233169Y-113880524D01*
X85090312Y-113880524D01*
X84899836Y-113832905D01*
X84804598Y-113785286D01*
X84709360Y-113690048D01*
X84661740Y-113547191D01*
X84661740Y-113451953D01*
X84709360Y-113309096D01*
X84756979Y-113261477D01*
X84995074Y-112404334D02*
X85661740Y-112404334D01*
X84614121Y-112642429D02*
X85328407Y-112880524D01*
X85328407Y-112261477D01*
X84995074Y-111451953D02*
X85661740Y-111451953D01*
X84614121Y-111690048D02*
X85328407Y-111928143D01*
X85328407Y-111309096D01*
G04 #@! TO.C,C45*
X179437142Y-104667857D02*
X179484761Y-104715476D01*
X179532380Y-104858333D01*
X179532380Y-104953571D01*
X179484761Y-105096428D01*
X179389523Y-105191666D01*
X179294285Y-105239285D01*
X179103809Y-105286904D01*
X178960952Y-105286904D01*
X178770476Y-105239285D01*
X178675238Y-105191666D01*
X178580000Y-105096428D01*
X178532380Y-104953571D01*
X178532380Y-104858333D01*
X178580000Y-104715476D01*
X178627619Y-104667857D01*
X178865714Y-103810714D02*
X179532380Y-103810714D01*
X178484761Y-104048809D02*
X179199047Y-104286904D01*
X179199047Y-103667857D01*
X178532380Y-102810714D02*
X178532380Y-103286904D01*
X179008571Y-103334523D01*
X178960952Y-103286904D01*
X178913333Y-103191666D01*
X178913333Y-102953571D01*
X178960952Y-102858333D01*
X179008571Y-102810714D01*
X179103809Y-102763095D01*
X179341904Y-102763095D01*
X179437142Y-102810714D01*
X179484761Y-102858333D01*
X179532380Y-102953571D01*
X179532380Y-103191666D01*
X179484761Y-103286904D01*
X179437142Y-103334523D01*
G04 #@! TO.C,C46*
X168687142Y-104567857D02*
X168734761Y-104615476D01*
X168782380Y-104758333D01*
X168782380Y-104853571D01*
X168734761Y-104996428D01*
X168639523Y-105091666D01*
X168544285Y-105139285D01*
X168353809Y-105186904D01*
X168210952Y-105186904D01*
X168020476Y-105139285D01*
X167925238Y-105091666D01*
X167830000Y-104996428D01*
X167782380Y-104853571D01*
X167782380Y-104758333D01*
X167830000Y-104615476D01*
X167877619Y-104567857D01*
X168115714Y-103710714D02*
X168782380Y-103710714D01*
X167734761Y-103948809D02*
X168449047Y-104186904D01*
X168449047Y-103567857D01*
X167782380Y-102758333D02*
X167782380Y-102948809D01*
X167830000Y-103044047D01*
X167877619Y-103091666D01*
X168020476Y-103186904D01*
X168210952Y-103234523D01*
X168591904Y-103234523D01*
X168687142Y-103186904D01*
X168734761Y-103139285D01*
X168782380Y-103044047D01*
X168782380Y-102853571D01*
X168734761Y-102758333D01*
X168687142Y-102710714D01*
X168591904Y-102663095D01*
X168353809Y-102663095D01*
X168258571Y-102710714D01*
X168210952Y-102758333D01*
X168163333Y-102853571D01*
X168163333Y-103044047D01*
X168210952Y-103139285D01*
X168258571Y-103186904D01*
X168353809Y-103234523D01*
G04 #@! TO.C,C47*
X159562142Y-104192857D02*
X159609761Y-104240476D01*
X159657380Y-104383333D01*
X159657380Y-104478571D01*
X159609761Y-104621428D01*
X159514523Y-104716666D01*
X159419285Y-104764285D01*
X159228809Y-104811904D01*
X159085952Y-104811904D01*
X158895476Y-104764285D01*
X158800238Y-104716666D01*
X158705000Y-104621428D01*
X158657380Y-104478571D01*
X158657380Y-104383333D01*
X158705000Y-104240476D01*
X158752619Y-104192857D01*
X158990714Y-103335714D02*
X159657380Y-103335714D01*
X158609761Y-103573809D02*
X159324047Y-103811904D01*
X159324047Y-103192857D01*
X158657380Y-102907142D02*
X158657380Y-102240476D01*
X159657380Y-102669047D01*
G04 #@! TO.C,C48*
X148637142Y-104592857D02*
X148684761Y-104640476D01*
X148732380Y-104783333D01*
X148732380Y-104878571D01*
X148684761Y-105021428D01*
X148589523Y-105116666D01*
X148494285Y-105164285D01*
X148303809Y-105211904D01*
X148160952Y-105211904D01*
X147970476Y-105164285D01*
X147875238Y-105116666D01*
X147780000Y-105021428D01*
X147732380Y-104878571D01*
X147732380Y-104783333D01*
X147780000Y-104640476D01*
X147827619Y-104592857D01*
X148065714Y-103735714D02*
X148732380Y-103735714D01*
X147684761Y-103973809D02*
X148399047Y-104211904D01*
X148399047Y-103592857D01*
X148160952Y-103069047D02*
X148113333Y-103164285D01*
X148065714Y-103211904D01*
X147970476Y-103259523D01*
X147922857Y-103259523D01*
X147827619Y-103211904D01*
X147780000Y-103164285D01*
X147732380Y-103069047D01*
X147732380Y-102878571D01*
X147780000Y-102783333D01*
X147827619Y-102735714D01*
X147922857Y-102688095D01*
X147970476Y-102688095D01*
X148065714Y-102735714D01*
X148113333Y-102783333D01*
X148160952Y-102878571D01*
X148160952Y-103069047D01*
X148208571Y-103164285D01*
X148256190Y-103211904D01*
X148351428Y-103259523D01*
X148541904Y-103259523D01*
X148637142Y-103211904D01*
X148684761Y-103164285D01*
X148732380Y-103069047D01*
X148732380Y-102878571D01*
X148684761Y-102783333D01*
X148637142Y-102735714D01*
X148541904Y-102688095D01*
X148351428Y-102688095D01*
X148256190Y-102735714D01*
X148208571Y-102783333D01*
X148160952Y-102878571D01*
G04 #@! TO.C,C49*
X121362142Y-104367857D02*
X121409761Y-104415476D01*
X121457380Y-104558333D01*
X121457380Y-104653571D01*
X121409761Y-104796428D01*
X121314523Y-104891666D01*
X121219285Y-104939285D01*
X121028809Y-104986904D01*
X120885952Y-104986904D01*
X120695476Y-104939285D01*
X120600238Y-104891666D01*
X120505000Y-104796428D01*
X120457380Y-104653571D01*
X120457380Y-104558333D01*
X120505000Y-104415476D01*
X120552619Y-104367857D01*
X120790714Y-103510714D02*
X121457380Y-103510714D01*
X120409761Y-103748809D02*
X121124047Y-103986904D01*
X121124047Y-103367857D01*
X121457380Y-102939285D02*
X121457380Y-102748809D01*
X121409761Y-102653571D01*
X121362142Y-102605952D01*
X121219285Y-102510714D01*
X121028809Y-102463095D01*
X120647857Y-102463095D01*
X120552619Y-102510714D01*
X120505000Y-102558333D01*
X120457380Y-102653571D01*
X120457380Y-102844047D01*
X120505000Y-102939285D01*
X120552619Y-102986904D01*
X120647857Y-103034523D01*
X120885952Y-103034523D01*
X120981190Y-102986904D01*
X121028809Y-102939285D01*
X121076428Y-102844047D01*
X121076428Y-102653571D01*
X121028809Y-102558333D01*
X120981190Y-102510714D01*
X120885952Y-102463095D01*
G04 #@! TO.C,C50*
X110637142Y-104367857D02*
X110684761Y-104415476D01*
X110732380Y-104558333D01*
X110732380Y-104653571D01*
X110684761Y-104796428D01*
X110589523Y-104891666D01*
X110494285Y-104939285D01*
X110303809Y-104986904D01*
X110160952Y-104986904D01*
X109970476Y-104939285D01*
X109875238Y-104891666D01*
X109780000Y-104796428D01*
X109732380Y-104653571D01*
X109732380Y-104558333D01*
X109780000Y-104415476D01*
X109827619Y-104367857D01*
X109732380Y-103463095D02*
X109732380Y-103939285D01*
X110208571Y-103986904D01*
X110160952Y-103939285D01*
X110113333Y-103844047D01*
X110113333Y-103605952D01*
X110160952Y-103510714D01*
X110208571Y-103463095D01*
X110303809Y-103415476D01*
X110541904Y-103415476D01*
X110637142Y-103463095D01*
X110684761Y-103510714D01*
X110732380Y-103605952D01*
X110732380Y-103844047D01*
X110684761Y-103939285D01*
X110637142Y-103986904D01*
X109732380Y-102796428D02*
X109732380Y-102701190D01*
X109780000Y-102605952D01*
X109827619Y-102558333D01*
X109922857Y-102510714D01*
X110113333Y-102463095D01*
X110351428Y-102463095D01*
X110541904Y-102510714D01*
X110637142Y-102558333D01*
X110684761Y-102605952D01*
X110732380Y-102701190D01*
X110732380Y-102796428D01*
X110684761Y-102891666D01*
X110637142Y-102939285D01*
X110541904Y-102986904D01*
X110351428Y-103034523D01*
X110113333Y-103034523D01*
X109922857Y-102986904D01*
X109827619Y-102939285D01*
X109780000Y-102891666D01*
X109732380Y-102796428D01*
G04 #@! TO.C,C51*
X101187142Y-104617857D02*
X101234761Y-104665476D01*
X101282380Y-104808333D01*
X101282380Y-104903571D01*
X101234761Y-105046428D01*
X101139523Y-105141666D01*
X101044285Y-105189285D01*
X100853809Y-105236904D01*
X100710952Y-105236904D01*
X100520476Y-105189285D01*
X100425238Y-105141666D01*
X100330000Y-105046428D01*
X100282380Y-104903571D01*
X100282380Y-104808333D01*
X100330000Y-104665476D01*
X100377619Y-104617857D01*
X100282380Y-103713095D02*
X100282380Y-104189285D01*
X100758571Y-104236904D01*
X100710952Y-104189285D01*
X100663333Y-104094047D01*
X100663333Y-103855952D01*
X100710952Y-103760714D01*
X100758571Y-103713095D01*
X100853809Y-103665476D01*
X101091904Y-103665476D01*
X101187142Y-103713095D01*
X101234761Y-103760714D01*
X101282380Y-103855952D01*
X101282380Y-104094047D01*
X101234761Y-104189285D01*
X101187142Y-104236904D01*
X101282380Y-102713095D02*
X101282380Y-103284523D01*
X101282380Y-102998809D02*
X100282380Y-102998809D01*
X100425238Y-103094047D01*
X100520476Y-103189285D01*
X100568095Y-103284523D01*
G04 #@! TO.C,C52*
X88050662Y-98148277D02*
X88098281Y-98195896D01*
X88145900Y-98338753D01*
X88145900Y-98433991D01*
X88098281Y-98576848D01*
X88003043Y-98672086D01*
X87907805Y-98719705D01*
X87717329Y-98767324D01*
X87574472Y-98767324D01*
X87383996Y-98719705D01*
X87288758Y-98672086D01*
X87193520Y-98576848D01*
X87145900Y-98433991D01*
X87145900Y-98338753D01*
X87193520Y-98195896D01*
X87241139Y-98148277D01*
X87145900Y-97243515D02*
X87145900Y-97719705D01*
X87622091Y-97767324D01*
X87574472Y-97719705D01*
X87526853Y-97624467D01*
X87526853Y-97386372D01*
X87574472Y-97291134D01*
X87622091Y-97243515D01*
X87717329Y-97195896D01*
X87955424Y-97195896D01*
X88050662Y-97243515D01*
X88098281Y-97291134D01*
X88145900Y-97386372D01*
X88145900Y-97624467D01*
X88098281Y-97719705D01*
X88050662Y-97767324D01*
X87241139Y-96814943D02*
X87193520Y-96767324D01*
X87145900Y-96672086D01*
X87145900Y-96433991D01*
X87193520Y-96338753D01*
X87241139Y-96291134D01*
X87336377Y-96243515D01*
X87431615Y-96243515D01*
X87574472Y-96291134D01*
X88145900Y-96862562D01*
X88145900Y-96243515D01*
G04 #@! TO.C,C53*
X174137142Y-134367857D02*
X174184761Y-134415476D01*
X174232380Y-134558333D01*
X174232380Y-134653571D01*
X174184761Y-134796428D01*
X174089523Y-134891666D01*
X173994285Y-134939285D01*
X173803809Y-134986904D01*
X173660952Y-134986904D01*
X173470476Y-134939285D01*
X173375238Y-134891666D01*
X173280000Y-134796428D01*
X173232380Y-134653571D01*
X173232380Y-134558333D01*
X173280000Y-134415476D01*
X173327619Y-134367857D01*
X173232380Y-133463095D02*
X173232380Y-133939285D01*
X173708571Y-133986904D01*
X173660952Y-133939285D01*
X173613333Y-133844047D01*
X173613333Y-133605952D01*
X173660952Y-133510714D01*
X173708571Y-133463095D01*
X173803809Y-133415476D01*
X174041904Y-133415476D01*
X174137142Y-133463095D01*
X174184761Y-133510714D01*
X174232380Y-133605952D01*
X174232380Y-133844047D01*
X174184761Y-133939285D01*
X174137142Y-133986904D01*
X173232380Y-133082142D02*
X173232380Y-132463095D01*
X173613333Y-132796428D01*
X173613333Y-132653571D01*
X173660952Y-132558333D01*
X173708571Y-132510714D01*
X173803809Y-132463095D01*
X174041904Y-132463095D01*
X174137142Y-132510714D01*
X174184761Y-132558333D01*
X174232380Y-132653571D01*
X174232380Y-132939285D01*
X174184761Y-133034523D01*
X174137142Y-133082142D01*
G04 #@! TO.C,C54*
X156237142Y-134392857D02*
X156284761Y-134440476D01*
X156332380Y-134583333D01*
X156332380Y-134678571D01*
X156284761Y-134821428D01*
X156189523Y-134916666D01*
X156094285Y-134964285D01*
X155903809Y-135011904D01*
X155760952Y-135011904D01*
X155570476Y-134964285D01*
X155475238Y-134916666D01*
X155380000Y-134821428D01*
X155332380Y-134678571D01*
X155332380Y-134583333D01*
X155380000Y-134440476D01*
X155427619Y-134392857D01*
X155332380Y-133488095D02*
X155332380Y-133964285D01*
X155808571Y-134011904D01*
X155760952Y-133964285D01*
X155713333Y-133869047D01*
X155713333Y-133630952D01*
X155760952Y-133535714D01*
X155808571Y-133488095D01*
X155903809Y-133440476D01*
X156141904Y-133440476D01*
X156237142Y-133488095D01*
X156284761Y-133535714D01*
X156332380Y-133630952D01*
X156332380Y-133869047D01*
X156284761Y-133964285D01*
X156237142Y-134011904D01*
X155665714Y-132583333D02*
X156332380Y-132583333D01*
X155284761Y-132821428D02*
X155999047Y-133059523D01*
X155999047Y-132440476D01*
G04 #@! TO.C,C55*
X116212142Y-134392857D02*
X116259761Y-134440476D01*
X116307380Y-134583333D01*
X116307380Y-134678571D01*
X116259761Y-134821428D01*
X116164523Y-134916666D01*
X116069285Y-134964285D01*
X115878809Y-135011904D01*
X115735952Y-135011904D01*
X115545476Y-134964285D01*
X115450238Y-134916666D01*
X115355000Y-134821428D01*
X115307380Y-134678571D01*
X115307380Y-134583333D01*
X115355000Y-134440476D01*
X115402619Y-134392857D01*
X115307380Y-133488095D02*
X115307380Y-133964285D01*
X115783571Y-134011904D01*
X115735952Y-133964285D01*
X115688333Y-133869047D01*
X115688333Y-133630952D01*
X115735952Y-133535714D01*
X115783571Y-133488095D01*
X115878809Y-133440476D01*
X116116904Y-133440476D01*
X116212142Y-133488095D01*
X116259761Y-133535714D01*
X116307380Y-133630952D01*
X116307380Y-133869047D01*
X116259761Y-133964285D01*
X116212142Y-134011904D01*
X115307380Y-132535714D02*
X115307380Y-133011904D01*
X115783571Y-133059523D01*
X115735952Y-133011904D01*
X115688333Y-132916666D01*
X115688333Y-132678571D01*
X115735952Y-132583333D01*
X115783571Y-132535714D01*
X115878809Y-132488095D01*
X116116904Y-132488095D01*
X116212142Y-132535714D01*
X116259761Y-132583333D01*
X116307380Y-132678571D01*
X116307380Y-132916666D01*
X116259761Y-133011904D01*
X116212142Y-133059523D01*
G04 #@! TO.C,C56*
X98112142Y-134367857D02*
X98159761Y-134415476D01*
X98207380Y-134558333D01*
X98207380Y-134653571D01*
X98159761Y-134796428D01*
X98064523Y-134891666D01*
X97969285Y-134939285D01*
X97778809Y-134986904D01*
X97635952Y-134986904D01*
X97445476Y-134939285D01*
X97350238Y-134891666D01*
X97255000Y-134796428D01*
X97207380Y-134653571D01*
X97207380Y-134558333D01*
X97255000Y-134415476D01*
X97302619Y-134367857D01*
X97207380Y-133463095D02*
X97207380Y-133939285D01*
X97683571Y-133986904D01*
X97635952Y-133939285D01*
X97588333Y-133844047D01*
X97588333Y-133605952D01*
X97635952Y-133510714D01*
X97683571Y-133463095D01*
X97778809Y-133415476D01*
X98016904Y-133415476D01*
X98112142Y-133463095D01*
X98159761Y-133510714D01*
X98207380Y-133605952D01*
X98207380Y-133844047D01*
X98159761Y-133939285D01*
X98112142Y-133986904D01*
X97207380Y-132558333D02*
X97207380Y-132748809D01*
X97255000Y-132844047D01*
X97302619Y-132891666D01*
X97445476Y-132986904D01*
X97635952Y-133034523D01*
X98016904Y-133034523D01*
X98112142Y-132986904D01*
X98159761Y-132939285D01*
X98207380Y-132844047D01*
X98207380Y-132653571D01*
X98159761Y-132558333D01*
X98112142Y-132510714D01*
X98016904Y-132463095D01*
X97778809Y-132463095D01*
X97683571Y-132510714D01*
X97635952Y-132558333D01*
X97588333Y-132653571D01*
X97588333Y-132844047D01*
X97635952Y-132939285D01*
X97683571Y-132986904D01*
X97778809Y-133034523D01*
G04 #@! TO.C,C57*
X209125582Y-72729342D02*
X209077963Y-72776961D01*
X208935106Y-72824580D01*
X208839868Y-72824580D01*
X208697011Y-72776961D01*
X208601773Y-72681723D01*
X208554154Y-72586485D01*
X208506535Y-72396009D01*
X208506535Y-72253152D01*
X208554154Y-72062676D01*
X208601773Y-71967438D01*
X208697011Y-71872200D01*
X208839868Y-71824580D01*
X208935106Y-71824580D01*
X209077963Y-71872200D01*
X209125582Y-71919819D01*
X210030344Y-71824580D02*
X209554154Y-71824580D01*
X209506535Y-72300771D01*
X209554154Y-72253152D01*
X209649392Y-72205533D01*
X209887487Y-72205533D01*
X209982725Y-72253152D01*
X210030344Y-72300771D01*
X210077963Y-72396009D01*
X210077963Y-72634104D01*
X210030344Y-72729342D01*
X209982725Y-72776961D01*
X209887487Y-72824580D01*
X209649392Y-72824580D01*
X209554154Y-72776961D01*
X209506535Y-72729342D01*
X210411297Y-71824580D02*
X211077963Y-71824580D01*
X210649392Y-72824580D01*
G04 #@! TO.C,C58*
X216456122Y-72673462D02*
X216408503Y-72721081D01*
X216265646Y-72768700D01*
X216170408Y-72768700D01*
X216027551Y-72721081D01*
X215932313Y-72625843D01*
X215884694Y-72530605D01*
X215837075Y-72340129D01*
X215837075Y-72197272D01*
X215884694Y-72006796D01*
X215932313Y-71911558D01*
X216027551Y-71816320D01*
X216170408Y-71768700D01*
X216265646Y-71768700D01*
X216408503Y-71816320D01*
X216456122Y-71863939D01*
X217360884Y-71768700D02*
X216884694Y-71768700D01*
X216837075Y-72244891D01*
X216884694Y-72197272D01*
X216979932Y-72149653D01*
X217218027Y-72149653D01*
X217313265Y-72197272D01*
X217360884Y-72244891D01*
X217408503Y-72340129D01*
X217408503Y-72578224D01*
X217360884Y-72673462D01*
X217313265Y-72721081D01*
X217218027Y-72768700D01*
X216979932Y-72768700D01*
X216884694Y-72721081D01*
X216837075Y-72673462D01*
X217979932Y-72197272D02*
X217884694Y-72149653D01*
X217837075Y-72102034D01*
X217789456Y-72006796D01*
X217789456Y-71959177D01*
X217837075Y-71863939D01*
X217884694Y-71816320D01*
X217979932Y-71768700D01*
X218170408Y-71768700D01*
X218265646Y-71816320D01*
X218313265Y-71863939D01*
X218360884Y-71959177D01*
X218360884Y-72006796D01*
X218313265Y-72102034D01*
X218265646Y-72149653D01*
X218170408Y-72197272D01*
X217979932Y-72197272D01*
X217884694Y-72244891D01*
X217837075Y-72292510D01*
X217789456Y-72387748D01*
X217789456Y-72578224D01*
X217837075Y-72673462D01*
X217884694Y-72721081D01*
X217979932Y-72768700D01*
X218170408Y-72768700D01*
X218265646Y-72721081D01*
X218313265Y-72673462D01*
X218360884Y-72578224D01*
X218360884Y-72387748D01*
X218313265Y-72292510D01*
X218265646Y-72244891D01*
X218170408Y-72197272D01*
G04 #@! TO.C,R1*
X202697380Y-106866666D02*
X202221190Y-107200000D01*
X202697380Y-107438095D02*
X201697380Y-107438095D01*
X201697380Y-107057142D01*
X201745000Y-106961904D01*
X201792619Y-106914285D01*
X201887857Y-106866666D01*
X202030714Y-106866666D01*
X202125952Y-106914285D01*
X202173571Y-106961904D01*
X202221190Y-107057142D01*
X202221190Y-107438095D01*
X202697380Y-105914285D02*
X202697380Y-106485714D01*
X202697380Y-106200000D02*
X201697380Y-106200000D01*
X201840238Y-106295238D01*
X201935476Y-106390476D01*
X201983095Y-106485714D01*
G04 #@! TO.C,R2*
X201807380Y-105516666D02*
X201331190Y-105850000D01*
X201807380Y-106088095D02*
X200807380Y-106088095D01*
X200807380Y-105707142D01*
X200855000Y-105611904D01*
X200902619Y-105564285D01*
X200997857Y-105516666D01*
X201140714Y-105516666D01*
X201235952Y-105564285D01*
X201283571Y-105611904D01*
X201331190Y-105707142D01*
X201331190Y-106088095D01*
X200902619Y-105135714D02*
X200855000Y-105088095D01*
X200807380Y-104992857D01*
X200807380Y-104754761D01*
X200855000Y-104659523D01*
X200902619Y-104611904D01*
X200997857Y-104564285D01*
X201093095Y-104564285D01*
X201235952Y-104611904D01*
X201807380Y-105183333D01*
X201807380Y-104564285D01*
G04 #@! TO.C,U26*
X124752380Y-44238095D02*
X125561904Y-44238095D01*
X125657142Y-44190476D01*
X125704761Y-44142857D01*
X125752380Y-44047619D01*
X125752380Y-43857142D01*
X125704761Y-43761904D01*
X125657142Y-43714285D01*
X125561904Y-43666666D01*
X124752380Y-43666666D01*
X124847619Y-43238095D02*
X124800000Y-43190476D01*
X124752380Y-43095238D01*
X124752380Y-42857142D01*
X124800000Y-42761904D01*
X124847619Y-42714285D01*
X124942857Y-42666666D01*
X125038095Y-42666666D01*
X125180952Y-42714285D01*
X125752380Y-43285714D01*
X125752380Y-42666666D01*
X124752380Y-41809523D02*
X124752380Y-42000000D01*
X124800000Y-42095238D01*
X124847619Y-42142857D01*
X124990476Y-42238095D01*
X125180952Y-42285714D01*
X125561904Y-42285714D01*
X125657142Y-42238095D01*
X125704761Y-42190476D01*
X125752380Y-42095238D01*
X125752380Y-41904761D01*
X125704761Y-41809523D01*
X125657142Y-41761904D01*
X125561904Y-41714285D01*
X125323809Y-41714285D01*
X125228571Y-41761904D01*
X125180952Y-41809523D01*
X125133333Y-41904761D01*
X125133333Y-42095238D01*
X125180952Y-42190476D01*
X125228571Y-42238095D01*
X125323809Y-42285714D01*
G04 #@! TO.C,C102*
X80155952Y-124937142D02*
X80108333Y-124984761D01*
X79965476Y-125032380D01*
X79870238Y-125032380D01*
X79727380Y-124984761D01*
X79632142Y-124889523D01*
X79584523Y-124794285D01*
X79536904Y-124603809D01*
X79536904Y-124460952D01*
X79584523Y-124270476D01*
X79632142Y-124175238D01*
X79727380Y-124080000D01*
X79870238Y-124032380D01*
X79965476Y-124032380D01*
X80108333Y-124080000D01*
X80155952Y-124127619D01*
X81108333Y-125032380D02*
X80536904Y-125032380D01*
X80822619Y-125032380D02*
X80822619Y-124032380D01*
X80727380Y-124175238D01*
X80632142Y-124270476D01*
X80536904Y-124318095D01*
X81727380Y-124032380D02*
X81822619Y-124032380D01*
X81917857Y-124080000D01*
X81965476Y-124127619D01*
X82013095Y-124222857D01*
X82060714Y-124413333D01*
X82060714Y-124651428D01*
X82013095Y-124841904D01*
X81965476Y-124937142D01*
X81917857Y-124984761D01*
X81822619Y-125032380D01*
X81727380Y-125032380D01*
X81632142Y-124984761D01*
X81584523Y-124937142D01*
X81536904Y-124841904D01*
X81489285Y-124651428D01*
X81489285Y-124413333D01*
X81536904Y-124222857D01*
X81584523Y-124127619D01*
X81632142Y-124080000D01*
X81727380Y-124032380D01*
X82441666Y-124127619D02*
X82489285Y-124080000D01*
X82584523Y-124032380D01*
X82822619Y-124032380D01*
X82917857Y-124080000D01*
X82965476Y-124127619D01*
X83013095Y-124222857D01*
X83013095Y-124318095D01*
X82965476Y-124460952D01*
X82394047Y-125032380D01*
X83013095Y-125032380D01*
G04 #@! TO.C,C101*
X210905952Y-108737142D02*
X210858333Y-108784761D01*
X210715476Y-108832380D01*
X210620238Y-108832380D01*
X210477380Y-108784761D01*
X210382142Y-108689523D01*
X210334523Y-108594285D01*
X210286904Y-108403809D01*
X210286904Y-108260952D01*
X210334523Y-108070476D01*
X210382142Y-107975238D01*
X210477380Y-107880000D01*
X210620238Y-107832380D01*
X210715476Y-107832380D01*
X210858333Y-107880000D01*
X210905952Y-107927619D01*
X211858333Y-108832380D02*
X211286904Y-108832380D01*
X211572619Y-108832380D02*
X211572619Y-107832380D01*
X211477380Y-107975238D01*
X211382142Y-108070476D01*
X211286904Y-108118095D01*
X212477380Y-107832380D02*
X212572619Y-107832380D01*
X212667857Y-107880000D01*
X212715476Y-107927619D01*
X212763095Y-108022857D01*
X212810714Y-108213333D01*
X212810714Y-108451428D01*
X212763095Y-108641904D01*
X212715476Y-108737142D01*
X212667857Y-108784761D01*
X212572619Y-108832380D01*
X212477380Y-108832380D01*
X212382142Y-108784761D01*
X212334523Y-108737142D01*
X212286904Y-108641904D01*
X212239285Y-108451428D01*
X212239285Y-108213333D01*
X212286904Y-108022857D01*
X212334523Y-107927619D01*
X212382142Y-107880000D01*
X212477380Y-107832380D01*
X213763095Y-108832380D02*
X213191666Y-108832380D01*
X213477380Y-108832380D02*
X213477380Y-107832380D01*
X213382142Y-107975238D01*
X213286904Y-108070476D01*
X213191666Y-108118095D01*
G04 #@! TO.C,C100*
X158280952Y-59912142D02*
X158233333Y-59959761D01*
X158090476Y-60007380D01*
X157995238Y-60007380D01*
X157852380Y-59959761D01*
X157757142Y-59864523D01*
X157709523Y-59769285D01*
X157661904Y-59578809D01*
X157661904Y-59435952D01*
X157709523Y-59245476D01*
X157757142Y-59150238D01*
X157852380Y-59055000D01*
X157995238Y-59007380D01*
X158090476Y-59007380D01*
X158233333Y-59055000D01*
X158280952Y-59102619D01*
X159233333Y-60007380D02*
X158661904Y-60007380D01*
X158947619Y-60007380D02*
X158947619Y-59007380D01*
X158852380Y-59150238D01*
X158757142Y-59245476D01*
X158661904Y-59293095D01*
X159852380Y-59007380D02*
X159947619Y-59007380D01*
X160042857Y-59055000D01*
X160090476Y-59102619D01*
X160138095Y-59197857D01*
X160185714Y-59388333D01*
X160185714Y-59626428D01*
X160138095Y-59816904D01*
X160090476Y-59912142D01*
X160042857Y-59959761D01*
X159947619Y-60007380D01*
X159852380Y-60007380D01*
X159757142Y-59959761D01*
X159709523Y-59912142D01*
X159661904Y-59816904D01*
X159614285Y-59626428D01*
X159614285Y-59388333D01*
X159661904Y-59197857D01*
X159709523Y-59102619D01*
X159757142Y-59055000D01*
X159852380Y-59007380D01*
X160804761Y-59007380D02*
X160900000Y-59007380D01*
X160995238Y-59055000D01*
X161042857Y-59102619D01*
X161090476Y-59197857D01*
X161138095Y-59388333D01*
X161138095Y-59626428D01*
X161090476Y-59816904D01*
X161042857Y-59912142D01*
X160995238Y-59959761D01*
X160900000Y-60007380D01*
X160804761Y-60007380D01*
X160709523Y-59959761D01*
X160661904Y-59912142D01*
X160614285Y-59816904D01*
X160566666Y-59626428D01*
X160566666Y-59388333D01*
X160614285Y-59197857D01*
X160661904Y-59102619D01*
X160709523Y-59055000D01*
X160804761Y-59007380D01*
G04 #@! TO.C,U1*
X209152380Y-130761904D02*
X209961904Y-130761904D01*
X210057142Y-130714285D01*
X210104761Y-130666666D01*
X210152380Y-130571428D01*
X210152380Y-130380952D01*
X210104761Y-130285714D01*
X210057142Y-130238095D01*
X209961904Y-130190476D01*
X209152380Y-130190476D01*
X210152380Y-129190476D02*
X210152380Y-129761904D01*
X210152380Y-129476190D02*
X209152380Y-129476190D01*
X209295238Y-129571428D01*
X209390476Y-129666666D01*
X209438095Y-129761904D01*
G04 #@! TO.C,U2*
X202238095Y-95902380D02*
X202238095Y-96711904D01*
X202285714Y-96807142D01*
X202333333Y-96854761D01*
X202428571Y-96902380D01*
X202619047Y-96902380D01*
X202714285Y-96854761D01*
X202761904Y-96807142D01*
X202809523Y-96711904D01*
X202809523Y-95902380D01*
X203238095Y-95997619D02*
X203285714Y-95950000D01*
X203380952Y-95902380D01*
X203619047Y-95902380D01*
X203714285Y-95950000D01*
X203761904Y-95997619D01*
X203809523Y-96092857D01*
X203809523Y-96188095D01*
X203761904Y-96330952D01*
X203190476Y-96902380D01*
X203809523Y-96902380D01*
G04 #@! TO.C,U3*
X209902380Y-115761904D02*
X210711904Y-115761904D01*
X210807142Y-115714285D01*
X210854761Y-115666666D01*
X210902380Y-115571428D01*
X210902380Y-115380952D01*
X210854761Y-115285714D01*
X210807142Y-115238095D01*
X210711904Y-115190476D01*
X209902380Y-115190476D01*
X209902380Y-114809523D02*
X209902380Y-114190476D01*
X210283333Y-114523809D01*
X210283333Y-114380952D01*
X210330952Y-114285714D01*
X210378571Y-114238095D01*
X210473809Y-114190476D01*
X210711904Y-114190476D01*
X210807142Y-114238095D01*
X210854761Y-114285714D01*
X210902380Y-114380952D01*
X210902380Y-114666666D01*
X210854761Y-114761904D01*
X210807142Y-114809523D01*
G04 #@! TO.C,U6*
X173152380Y-130761904D02*
X173961904Y-130761904D01*
X174057142Y-130714285D01*
X174104761Y-130666666D01*
X174152380Y-130571428D01*
X174152380Y-130380952D01*
X174104761Y-130285714D01*
X174057142Y-130238095D01*
X173961904Y-130190476D01*
X173152380Y-130190476D01*
X173152380Y-129285714D02*
X173152380Y-129476190D01*
X173200000Y-129571428D01*
X173247619Y-129619047D01*
X173390476Y-129714285D01*
X173580952Y-129761904D01*
X173961904Y-129761904D01*
X174057142Y-129714285D01*
X174104761Y-129666666D01*
X174152380Y-129571428D01*
X174152380Y-129380952D01*
X174104761Y-129285714D01*
X174057142Y-129238095D01*
X173961904Y-129190476D01*
X173723809Y-129190476D01*
X173628571Y-129238095D01*
X173580952Y-129285714D01*
X173533333Y-129380952D01*
X173533333Y-129571428D01*
X173580952Y-129666666D01*
X173628571Y-129714285D01*
X173723809Y-129761904D01*
G04 #@! TO.C,U7*
X155152380Y-130761904D02*
X155961904Y-130761904D01*
X156057142Y-130714285D01*
X156104761Y-130666666D01*
X156152380Y-130571428D01*
X156152380Y-130380952D01*
X156104761Y-130285714D01*
X156057142Y-130238095D01*
X155961904Y-130190476D01*
X155152380Y-130190476D01*
X155152380Y-129809523D02*
X155152380Y-129142857D01*
X156152380Y-129571428D01*
G04 #@! TO.C,U8*
X115152380Y-130761904D02*
X115961904Y-130761904D01*
X116057142Y-130714285D01*
X116104761Y-130666666D01*
X116152380Y-130571428D01*
X116152380Y-130380952D01*
X116104761Y-130285714D01*
X116057142Y-130238095D01*
X115961904Y-130190476D01*
X115152380Y-130190476D01*
X115580952Y-129571428D02*
X115533333Y-129666666D01*
X115485714Y-129714285D01*
X115390476Y-129761904D01*
X115342857Y-129761904D01*
X115247619Y-129714285D01*
X115200000Y-129666666D01*
X115152380Y-129571428D01*
X115152380Y-129380952D01*
X115200000Y-129285714D01*
X115247619Y-129238095D01*
X115342857Y-129190476D01*
X115390476Y-129190476D01*
X115485714Y-129238095D01*
X115533333Y-129285714D01*
X115580952Y-129380952D01*
X115580952Y-129571428D01*
X115628571Y-129666666D01*
X115676190Y-129714285D01*
X115771428Y-129761904D01*
X115961904Y-129761904D01*
X116057142Y-129714285D01*
X116104761Y-129666666D01*
X116152380Y-129571428D01*
X116152380Y-129380952D01*
X116104761Y-129285714D01*
X116057142Y-129238095D01*
X115961904Y-129190476D01*
X115771428Y-129190476D01*
X115676190Y-129238095D01*
X115628571Y-129285714D01*
X115580952Y-129380952D01*
G04 #@! TO.C,U9*
X97152380Y-130761904D02*
X97961904Y-130761904D01*
X98057142Y-130714285D01*
X98104761Y-130666666D01*
X98152380Y-130571428D01*
X98152380Y-130380952D01*
X98104761Y-130285714D01*
X98057142Y-130238095D01*
X97961904Y-130190476D01*
X97152380Y-130190476D01*
X98152380Y-129666666D02*
X98152380Y-129476190D01*
X98104761Y-129380952D01*
X98057142Y-129333333D01*
X97914285Y-129238095D01*
X97723809Y-129190476D01*
X97342857Y-129190476D01*
X97247619Y-129238095D01*
X97200000Y-129285714D01*
X97152380Y-129380952D01*
X97152380Y-129571428D01*
X97200000Y-129666666D01*
X97247619Y-129714285D01*
X97342857Y-129761904D01*
X97580952Y-129761904D01*
X97676190Y-129714285D01*
X97723809Y-129666666D01*
X97771428Y-129571428D01*
X97771428Y-129380952D01*
X97723809Y-129285714D01*
X97676190Y-129238095D01*
X97580952Y-129190476D01*
G04 #@! TO.C,U10*
X191152380Y-131238095D02*
X191961904Y-131238095D01*
X192057142Y-131190476D01*
X192104761Y-131142857D01*
X192152380Y-131047619D01*
X192152380Y-130857142D01*
X192104761Y-130761904D01*
X192057142Y-130714285D01*
X191961904Y-130666666D01*
X191152380Y-130666666D01*
X192152380Y-129666666D02*
X192152380Y-130238095D01*
X192152380Y-129952380D02*
X191152380Y-129952380D01*
X191295238Y-130047619D01*
X191390476Y-130142857D01*
X191438095Y-130238095D01*
X191152380Y-129047619D02*
X191152380Y-128952380D01*
X191200000Y-128857142D01*
X191247619Y-128809523D01*
X191342857Y-128761904D01*
X191533333Y-128714285D01*
X191771428Y-128714285D01*
X191961904Y-128761904D01*
X192057142Y-128809523D01*
X192104761Y-128857142D01*
X192152380Y-128952380D01*
X192152380Y-129047619D01*
X192104761Y-129142857D01*
X192057142Y-129190476D01*
X191961904Y-129238095D01*
X191771428Y-129285714D01*
X191533333Y-129285714D01*
X191342857Y-129238095D01*
X191247619Y-129190476D01*
X191200000Y-129142857D01*
X191152380Y-129047619D01*
G04 #@! TO.C,U11*
X182152380Y-131238095D02*
X182961904Y-131238095D01*
X183057142Y-131190476D01*
X183104761Y-131142857D01*
X183152380Y-131047619D01*
X183152380Y-130857142D01*
X183104761Y-130761904D01*
X183057142Y-130714285D01*
X182961904Y-130666666D01*
X182152380Y-130666666D01*
X183152380Y-129666666D02*
X183152380Y-130238095D01*
X183152380Y-129952380D02*
X182152380Y-129952380D01*
X182295238Y-130047619D01*
X182390476Y-130142857D01*
X182438095Y-130238095D01*
X183152380Y-128714285D02*
X183152380Y-129285714D01*
X183152380Y-129000000D02*
X182152380Y-129000000D01*
X182295238Y-129095238D01*
X182390476Y-129190476D01*
X182438095Y-129285714D01*
G04 #@! TO.C,U12*
X133152380Y-131238095D02*
X133961904Y-131238095D01*
X134057142Y-131190476D01*
X134104761Y-131142857D01*
X134152380Y-131047619D01*
X134152380Y-130857142D01*
X134104761Y-130761904D01*
X134057142Y-130714285D01*
X133961904Y-130666666D01*
X133152380Y-130666666D01*
X134152380Y-129666666D02*
X134152380Y-130238095D01*
X134152380Y-129952380D02*
X133152380Y-129952380D01*
X133295238Y-130047619D01*
X133390476Y-130142857D01*
X133438095Y-130238095D01*
X133247619Y-129285714D02*
X133200000Y-129238095D01*
X133152380Y-129142857D01*
X133152380Y-128904761D01*
X133200000Y-128809523D01*
X133247619Y-128761904D01*
X133342857Y-128714285D01*
X133438095Y-128714285D01*
X133580952Y-128761904D01*
X134152380Y-129333333D01*
X134152380Y-128714285D01*
G04 #@! TO.C,U13*
X124152380Y-131238095D02*
X124961904Y-131238095D01*
X125057142Y-131190476D01*
X125104761Y-131142857D01*
X125152380Y-131047619D01*
X125152380Y-130857142D01*
X125104761Y-130761904D01*
X125057142Y-130714285D01*
X124961904Y-130666666D01*
X124152380Y-130666666D01*
X125152380Y-129666666D02*
X125152380Y-130238095D01*
X125152380Y-129952380D02*
X124152380Y-129952380D01*
X124295238Y-130047619D01*
X124390476Y-130142857D01*
X124438095Y-130238095D01*
X124152380Y-129333333D02*
X124152380Y-128714285D01*
X124533333Y-129047619D01*
X124533333Y-128904761D01*
X124580952Y-128809523D01*
X124628571Y-128761904D01*
X124723809Y-128714285D01*
X124961904Y-128714285D01*
X125057142Y-128761904D01*
X125104761Y-128809523D01*
X125152380Y-128904761D01*
X125152380Y-129190476D01*
X125104761Y-129285714D01*
X125057142Y-129333333D01*
G04 #@! TO.C,U14*
X200152380Y-131238095D02*
X200961904Y-131238095D01*
X201057142Y-131190476D01*
X201104761Y-131142857D01*
X201152380Y-131047619D01*
X201152380Y-130857142D01*
X201104761Y-130761904D01*
X201057142Y-130714285D01*
X200961904Y-130666666D01*
X200152380Y-130666666D01*
X201152380Y-129666666D02*
X201152380Y-130238095D01*
X201152380Y-129952380D02*
X200152380Y-129952380D01*
X200295238Y-130047619D01*
X200390476Y-130142857D01*
X200438095Y-130238095D01*
X200485714Y-128809523D02*
X201152380Y-128809523D01*
X200104761Y-129047619D02*
X200819047Y-129285714D01*
X200819047Y-128666666D01*
G04 #@! TO.C,U16*
X133752380Y-70238095D02*
X134561904Y-70238095D01*
X134657142Y-70190476D01*
X134704761Y-70142857D01*
X134752380Y-70047619D01*
X134752380Y-69857142D01*
X134704761Y-69761904D01*
X134657142Y-69714285D01*
X134561904Y-69666666D01*
X133752380Y-69666666D01*
X134752380Y-68666666D02*
X134752380Y-69238095D01*
X134752380Y-68952380D02*
X133752380Y-68952380D01*
X133895238Y-69047619D01*
X133990476Y-69142857D01*
X134038095Y-69238095D01*
X133752380Y-67809523D02*
X133752380Y-68000000D01*
X133800000Y-68095238D01*
X133847619Y-68142857D01*
X133990476Y-68238095D01*
X134180952Y-68285714D01*
X134561904Y-68285714D01*
X134657142Y-68238095D01*
X134704761Y-68190476D01*
X134752380Y-68095238D01*
X134752380Y-67904761D01*
X134704761Y-67809523D01*
X134657142Y-67761904D01*
X134561904Y-67714285D01*
X134323809Y-67714285D01*
X134228571Y-67761904D01*
X134180952Y-67809523D01*
X134133333Y-67904761D01*
X134133333Y-68095238D01*
X134180952Y-68190476D01*
X134228571Y-68238095D01*
X134323809Y-68285714D01*
G04 #@! TO.C,U17*
X184752380Y-89238095D02*
X185561904Y-89238095D01*
X185657142Y-89190476D01*
X185704761Y-89142857D01*
X185752380Y-89047619D01*
X185752380Y-88857142D01*
X185704761Y-88761904D01*
X185657142Y-88714285D01*
X185561904Y-88666666D01*
X184752380Y-88666666D01*
X185752380Y-87666666D02*
X185752380Y-88238095D01*
X185752380Y-87952380D02*
X184752380Y-87952380D01*
X184895238Y-88047619D01*
X184990476Y-88142857D01*
X185038095Y-88238095D01*
X184752380Y-87333333D02*
X184752380Y-86666666D01*
X185752380Y-87095238D01*
G04 #@! TO.C,U18*
X174752380Y-89238095D02*
X175561904Y-89238095D01*
X175657142Y-89190476D01*
X175704761Y-89142857D01*
X175752380Y-89047619D01*
X175752380Y-88857142D01*
X175704761Y-88761904D01*
X175657142Y-88714285D01*
X175561904Y-88666666D01*
X174752380Y-88666666D01*
X175752380Y-87666666D02*
X175752380Y-88238095D01*
X175752380Y-87952380D02*
X174752380Y-87952380D01*
X174895238Y-88047619D01*
X174990476Y-88142857D01*
X175038095Y-88238095D01*
X175180952Y-87095238D02*
X175133333Y-87190476D01*
X175085714Y-87238095D01*
X174990476Y-87285714D01*
X174942857Y-87285714D01*
X174847619Y-87238095D01*
X174800000Y-87190476D01*
X174752380Y-87095238D01*
X174752380Y-86904761D01*
X174800000Y-86809523D01*
X174847619Y-86761904D01*
X174942857Y-86714285D01*
X174990476Y-86714285D01*
X175085714Y-86761904D01*
X175133333Y-86809523D01*
X175180952Y-86904761D01*
X175180952Y-87095238D01*
X175228571Y-87190476D01*
X175276190Y-87238095D01*
X175371428Y-87285714D01*
X175561904Y-87285714D01*
X175657142Y-87238095D01*
X175704761Y-87190476D01*
X175752380Y-87095238D01*
X175752380Y-86904761D01*
X175704761Y-86809523D01*
X175657142Y-86761904D01*
X175561904Y-86714285D01*
X175371428Y-86714285D01*
X175276190Y-86761904D01*
X175228571Y-86809523D01*
X175180952Y-86904761D01*
G04 #@! TO.C,U19*
X164752380Y-89238095D02*
X165561904Y-89238095D01*
X165657142Y-89190476D01*
X165704761Y-89142857D01*
X165752380Y-89047619D01*
X165752380Y-88857142D01*
X165704761Y-88761904D01*
X165657142Y-88714285D01*
X165561904Y-88666666D01*
X164752380Y-88666666D01*
X165752380Y-87666666D02*
X165752380Y-88238095D01*
X165752380Y-87952380D02*
X164752380Y-87952380D01*
X164895238Y-88047619D01*
X164990476Y-88142857D01*
X165038095Y-88238095D01*
X165752380Y-87190476D02*
X165752380Y-87000000D01*
X165704761Y-86904761D01*
X165657142Y-86857142D01*
X165514285Y-86761904D01*
X165323809Y-86714285D01*
X164942857Y-86714285D01*
X164847619Y-86761904D01*
X164800000Y-86809523D01*
X164752380Y-86904761D01*
X164752380Y-87095238D01*
X164800000Y-87190476D01*
X164847619Y-87238095D01*
X164942857Y-87285714D01*
X165180952Y-87285714D01*
X165276190Y-87238095D01*
X165323809Y-87190476D01*
X165371428Y-87095238D01*
X165371428Y-86904761D01*
X165323809Y-86809523D01*
X165276190Y-86761904D01*
X165180952Y-86714285D01*
G04 #@! TO.C,U20*
X154752380Y-89238095D02*
X155561904Y-89238095D01*
X155657142Y-89190476D01*
X155704761Y-89142857D01*
X155752380Y-89047619D01*
X155752380Y-88857142D01*
X155704761Y-88761904D01*
X155657142Y-88714285D01*
X155561904Y-88666666D01*
X154752380Y-88666666D01*
X154847619Y-88238095D02*
X154800000Y-88190476D01*
X154752380Y-88095238D01*
X154752380Y-87857142D01*
X154800000Y-87761904D01*
X154847619Y-87714285D01*
X154942857Y-87666666D01*
X155038095Y-87666666D01*
X155180952Y-87714285D01*
X155752380Y-88285714D01*
X155752380Y-87666666D01*
X154752380Y-87047619D02*
X154752380Y-86952380D01*
X154800000Y-86857142D01*
X154847619Y-86809523D01*
X154942857Y-86761904D01*
X155133333Y-86714285D01*
X155371428Y-86714285D01*
X155561904Y-86761904D01*
X155657142Y-86809523D01*
X155704761Y-86857142D01*
X155752380Y-86952380D01*
X155752380Y-87047619D01*
X155704761Y-87142857D01*
X155657142Y-87190476D01*
X155561904Y-87238095D01*
X155371428Y-87285714D01*
X155133333Y-87285714D01*
X154942857Y-87238095D01*
X154847619Y-87190476D01*
X154800000Y-87142857D01*
X154752380Y-87047619D01*
G04 #@! TO.C,U21*
X127752380Y-89238095D02*
X128561904Y-89238095D01*
X128657142Y-89190476D01*
X128704761Y-89142857D01*
X128752380Y-89047619D01*
X128752380Y-88857142D01*
X128704761Y-88761904D01*
X128657142Y-88714285D01*
X128561904Y-88666666D01*
X127752380Y-88666666D01*
X127847619Y-88238095D02*
X127800000Y-88190476D01*
X127752380Y-88095238D01*
X127752380Y-87857142D01*
X127800000Y-87761904D01*
X127847619Y-87714285D01*
X127942857Y-87666666D01*
X128038095Y-87666666D01*
X128180952Y-87714285D01*
X128752380Y-88285714D01*
X128752380Y-87666666D01*
X128752380Y-86714285D02*
X128752380Y-87285714D01*
X128752380Y-87000000D02*
X127752380Y-87000000D01*
X127895238Y-87095238D01*
X127990476Y-87190476D01*
X128038095Y-87285714D01*
G04 #@! TO.C,U22*
X117752380Y-89238095D02*
X118561904Y-89238095D01*
X118657142Y-89190476D01*
X118704761Y-89142857D01*
X118752380Y-89047619D01*
X118752380Y-88857142D01*
X118704761Y-88761904D01*
X118657142Y-88714285D01*
X118561904Y-88666666D01*
X117752380Y-88666666D01*
X117847619Y-88238095D02*
X117800000Y-88190476D01*
X117752380Y-88095238D01*
X117752380Y-87857142D01*
X117800000Y-87761904D01*
X117847619Y-87714285D01*
X117942857Y-87666666D01*
X118038095Y-87666666D01*
X118180952Y-87714285D01*
X118752380Y-88285714D01*
X118752380Y-87666666D01*
X117847619Y-87285714D02*
X117800000Y-87238095D01*
X117752380Y-87142857D01*
X117752380Y-86904761D01*
X117800000Y-86809523D01*
X117847619Y-86761904D01*
X117942857Y-86714285D01*
X118038095Y-86714285D01*
X118180952Y-86761904D01*
X118752380Y-87333333D01*
X118752380Y-86714285D01*
G04 #@! TO.C,U23*
X107752380Y-89238095D02*
X108561904Y-89238095D01*
X108657142Y-89190476D01*
X108704761Y-89142857D01*
X108752380Y-89047619D01*
X108752380Y-88857142D01*
X108704761Y-88761904D01*
X108657142Y-88714285D01*
X108561904Y-88666666D01*
X107752380Y-88666666D01*
X107847619Y-88238095D02*
X107800000Y-88190476D01*
X107752380Y-88095238D01*
X107752380Y-87857142D01*
X107800000Y-87761904D01*
X107847619Y-87714285D01*
X107942857Y-87666666D01*
X108038095Y-87666666D01*
X108180952Y-87714285D01*
X108752380Y-88285714D01*
X108752380Y-87666666D01*
X107752380Y-87333333D02*
X107752380Y-86714285D01*
X108133333Y-87047619D01*
X108133333Y-86904761D01*
X108180952Y-86809523D01*
X108228571Y-86761904D01*
X108323809Y-86714285D01*
X108561904Y-86714285D01*
X108657142Y-86761904D01*
X108704761Y-86809523D01*
X108752380Y-86904761D01*
X108752380Y-87190476D01*
X108704761Y-87285714D01*
X108657142Y-87333333D01*
G04 #@! TO.C,U24*
X115152380Y-56238095D02*
X115961904Y-56238095D01*
X116057142Y-56190476D01*
X116104761Y-56142857D01*
X116152380Y-56047619D01*
X116152380Y-55857142D01*
X116104761Y-55761904D01*
X116057142Y-55714285D01*
X115961904Y-55666666D01*
X115152380Y-55666666D01*
X115247619Y-55238095D02*
X115200000Y-55190476D01*
X115152380Y-55095238D01*
X115152380Y-54857142D01*
X115200000Y-54761904D01*
X115247619Y-54714285D01*
X115342857Y-54666666D01*
X115438095Y-54666666D01*
X115580952Y-54714285D01*
X116152380Y-55285714D01*
X116152380Y-54666666D01*
X115485714Y-53809523D02*
X116152380Y-53809523D01*
X115104761Y-54047619D02*
X115819047Y-54285714D01*
X115819047Y-53666666D01*
G04 #@! TO.C,U25*
X128152380Y-56238095D02*
X128961904Y-56238095D01*
X129057142Y-56190476D01*
X129104761Y-56142857D01*
X129152380Y-56047619D01*
X129152380Y-55857142D01*
X129104761Y-55761904D01*
X129057142Y-55714285D01*
X128961904Y-55666666D01*
X128152380Y-55666666D01*
X128247619Y-55238095D02*
X128200000Y-55190476D01*
X128152380Y-55095238D01*
X128152380Y-54857142D01*
X128200000Y-54761904D01*
X128247619Y-54714285D01*
X128342857Y-54666666D01*
X128438095Y-54666666D01*
X128580952Y-54714285D01*
X129152380Y-55285714D01*
X129152380Y-54666666D01*
X128152380Y-53761904D02*
X128152380Y-54238095D01*
X128628571Y-54285714D01*
X128580952Y-54238095D01*
X128533333Y-54142857D01*
X128533333Y-53904761D01*
X128580952Y-53809523D01*
X128628571Y-53761904D01*
X128723809Y-53714285D01*
X128961904Y-53714285D01*
X129057142Y-53761904D01*
X129104761Y-53809523D01*
X129152380Y-53904761D01*
X129152380Y-54142857D01*
X129104761Y-54238095D01*
X129057142Y-54285714D01*
G04 #@! TO.C,U27*
X137752380Y-44238095D02*
X138561904Y-44238095D01*
X138657142Y-44190476D01*
X138704761Y-44142857D01*
X138752380Y-44047619D01*
X138752380Y-43857142D01*
X138704761Y-43761904D01*
X138657142Y-43714285D01*
X138561904Y-43666666D01*
X137752380Y-43666666D01*
X137847619Y-43238095D02*
X137800000Y-43190476D01*
X137752380Y-43095238D01*
X137752380Y-42857142D01*
X137800000Y-42761904D01*
X137847619Y-42714285D01*
X137942857Y-42666666D01*
X138038095Y-42666666D01*
X138180952Y-42714285D01*
X138752380Y-43285714D01*
X138752380Y-42666666D01*
X137752380Y-42333333D02*
X137752380Y-41666666D01*
X138752380Y-42095238D01*
G04 #@! TO.C,U37*
X132152380Y-102238095D02*
X132961904Y-102238095D01*
X133057142Y-102190476D01*
X133104761Y-102142857D01*
X133152380Y-102047619D01*
X133152380Y-101857142D01*
X133104761Y-101761904D01*
X133057142Y-101714285D01*
X132961904Y-101666666D01*
X132152380Y-101666666D01*
X132152380Y-101285714D02*
X132152380Y-100666666D01*
X132533333Y-101000000D01*
X132533333Y-100857142D01*
X132580952Y-100761904D01*
X132628571Y-100714285D01*
X132723809Y-100666666D01*
X132961904Y-100666666D01*
X133057142Y-100714285D01*
X133104761Y-100761904D01*
X133152380Y-100857142D01*
X133152380Y-101142857D01*
X133104761Y-101238095D01*
X133057142Y-101285714D01*
X132152380Y-100333333D02*
X132152380Y-99666666D01*
X133152380Y-100095238D01*
G04 #@! TO.C,U38*
X135752380Y-84238095D02*
X136561904Y-84238095D01*
X136657142Y-84190476D01*
X136704761Y-84142857D01*
X136752380Y-84047619D01*
X136752380Y-83857142D01*
X136704761Y-83761904D01*
X136657142Y-83714285D01*
X136561904Y-83666666D01*
X135752380Y-83666666D01*
X135752380Y-83285714D02*
X135752380Y-82666666D01*
X136133333Y-83000000D01*
X136133333Y-82857142D01*
X136180952Y-82761904D01*
X136228571Y-82714285D01*
X136323809Y-82666666D01*
X136561904Y-82666666D01*
X136657142Y-82714285D01*
X136704761Y-82761904D01*
X136752380Y-82857142D01*
X136752380Y-83142857D01*
X136704761Y-83238095D01*
X136657142Y-83285714D01*
X136180952Y-82095238D02*
X136133333Y-82190476D01*
X136085714Y-82238095D01*
X135990476Y-82285714D01*
X135942857Y-82285714D01*
X135847619Y-82238095D01*
X135800000Y-82190476D01*
X135752380Y-82095238D01*
X135752380Y-81904761D01*
X135800000Y-81809523D01*
X135847619Y-81761904D01*
X135942857Y-81714285D01*
X135990476Y-81714285D01*
X136085714Y-81761904D01*
X136133333Y-81809523D01*
X136180952Y-81904761D01*
X136180952Y-82095238D01*
X136228571Y-82190476D01*
X136276190Y-82238095D01*
X136371428Y-82285714D01*
X136561904Y-82285714D01*
X136657142Y-82238095D01*
X136704761Y-82190476D01*
X136752380Y-82095238D01*
X136752380Y-81904761D01*
X136704761Y-81809523D01*
X136657142Y-81761904D01*
X136561904Y-81714285D01*
X136371428Y-81714285D01*
X136276190Y-81761904D01*
X136228571Y-81809523D01*
X136180952Y-81904761D01*
G04 #@! TO.C,U40*
X176752380Y-108238095D02*
X177561904Y-108238095D01*
X177657142Y-108190476D01*
X177704761Y-108142857D01*
X177752380Y-108047619D01*
X177752380Y-107857142D01*
X177704761Y-107761904D01*
X177657142Y-107714285D01*
X177561904Y-107666666D01*
X176752380Y-107666666D01*
X177085714Y-106761904D02*
X177752380Y-106761904D01*
X176704761Y-107000000D02*
X177419047Y-107238095D01*
X177419047Y-106619047D01*
X176752380Y-106047619D02*
X176752380Y-105952380D01*
X176800000Y-105857142D01*
X176847619Y-105809523D01*
X176942857Y-105761904D01*
X177133333Y-105714285D01*
X177371428Y-105714285D01*
X177561904Y-105761904D01*
X177657142Y-105809523D01*
X177704761Y-105857142D01*
X177752380Y-105952380D01*
X177752380Y-106047619D01*
X177704761Y-106142857D01*
X177657142Y-106190476D01*
X177561904Y-106238095D01*
X177371428Y-106285714D01*
X177133333Y-106285714D01*
X176942857Y-106238095D01*
X176847619Y-106190476D01*
X176800000Y-106142857D01*
X176752380Y-106047619D01*
G04 #@! TO.C,U41*
X156752380Y-108238095D02*
X157561904Y-108238095D01*
X157657142Y-108190476D01*
X157704761Y-108142857D01*
X157752380Y-108047619D01*
X157752380Y-107857142D01*
X157704761Y-107761904D01*
X157657142Y-107714285D01*
X157561904Y-107666666D01*
X156752380Y-107666666D01*
X157085714Y-106761904D02*
X157752380Y-106761904D01*
X156704761Y-107000000D02*
X157419047Y-107238095D01*
X157419047Y-106619047D01*
X157752380Y-105714285D02*
X157752380Y-106285714D01*
X157752380Y-106000000D02*
X156752380Y-106000000D01*
X156895238Y-106095238D01*
X156990476Y-106190476D01*
X157038095Y-106285714D01*
G04 #@! TO.C,U42*
X118752380Y-108238095D02*
X119561904Y-108238095D01*
X119657142Y-108190476D01*
X119704761Y-108142857D01*
X119752380Y-108047619D01*
X119752380Y-107857142D01*
X119704761Y-107761904D01*
X119657142Y-107714285D01*
X119561904Y-107666666D01*
X118752380Y-107666666D01*
X119085714Y-106761904D02*
X119752380Y-106761904D01*
X118704761Y-107000000D02*
X119419047Y-107238095D01*
X119419047Y-106619047D01*
X118847619Y-106285714D02*
X118800000Y-106238095D01*
X118752380Y-106142857D01*
X118752380Y-105904761D01*
X118800000Y-105809523D01*
X118847619Y-105761904D01*
X118942857Y-105714285D01*
X119038095Y-105714285D01*
X119180952Y-105761904D01*
X119752380Y-106333333D01*
X119752380Y-105714285D01*
G04 #@! TO.C,U43*
X98752380Y-108238095D02*
X99561904Y-108238095D01*
X99657142Y-108190476D01*
X99704761Y-108142857D01*
X99752380Y-108047619D01*
X99752380Y-107857142D01*
X99704761Y-107761904D01*
X99657142Y-107714285D01*
X99561904Y-107666666D01*
X98752380Y-107666666D01*
X99085714Y-106761904D02*
X99752380Y-106761904D01*
X98704761Y-107000000D02*
X99419047Y-107238095D01*
X99419047Y-106619047D01*
X98752380Y-106333333D02*
X98752380Y-105714285D01*
X99133333Y-106047619D01*
X99133333Y-105904761D01*
X99180952Y-105809523D01*
X99228571Y-105761904D01*
X99323809Y-105714285D01*
X99561904Y-105714285D01*
X99657142Y-105761904D01*
X99704761Y-105809523D01*
X99752380Y-105904761D01*
X99752380Y-106190476D01*
X99704761Y-106285714D01*
X99657142Y-106333333D01*
G04 #@! TO.C,U44*
X83752380Y-108238095D02*
X84561904Y-108238095D01*
X84657142Y-108190476D01*
X84704761Y-108142857D01*
X84752380Y-108047619D01*
X84752380Y-107857142D01*
X84704761Y-107761904D01*
X84657142Y-107714285D01*
X84561904Y-107666666D01*
X83752380Y-107666666D01*
X84085714Y-106761904D02*
X84752380Y-106761904D01*
X83704761Y-107000000D02*
X84419047Y-107238095D01*
X84419047Y-106619047D01*
X84085714Y-105809523D02*
X84752380Y-105809523D01*
X83704761Y-106047619D02*
X84419047Y-106285714D01*
X84419047Y-105666666D01*
G04 #@! TO.C,U53*
X171752380Y-131238095D02*
X172561904Y-131238095D01*
X172657142Y-131190476D01*
X172704761Y-131142857D01*
X172752380Y-131047619D01*
X172752380Y-130857142D01*
X172704761Y-130761904D01*
X172657142Y-130714285D01*
X172561904Y-130666666D01*
X171752380Y-130666666D01*
X171752380Y-129714285D02*
X171752380Y-130190476D01*
X172228571Y-130238095D01*
X172180952Y-130190476D01*
X172133333Y-130095238D01*
X172133333Y-129857142D01*
X172180952Y-129761904D01*
X172228571Y-129714285D01*
X172323809Y-129666666D01*
X172561904Y-129666666D01*
X172657142Y-129714285D01*
X172704761Y-129761904D01*
X172752380Y-129857142D01*
X172752380Y-130095238D01*
X172704761Y-130190476D01*
X172657142Y-130238095D01*
X171752380Y-129333333D02*
X171752380Y-128714285D01*
X172133333Y-129047619D01*
X172133333Y-128904761D01*
X172180952Y-128809523D01*
X172228571Y-128761904D01*
X172323809Y-128714285D01*
X172561904Y-128714285D01*
X172657142Y-128761904D01*
X172704761Y-128809523D01*
X172752380Y-128904761D01*
X172752380Y-129190476D01*
X172704761Y-129285714D01*
X172657142Y-129333333D01*
G04 #@! TO.C,U54*
X153752380Y-131238095D02*
X154561904Y-131238095D01*
X154657142Y-131190476D01*
X154704761Y-131142857D01*
X154752380Y-131047619D01*
X154752380Y-130857142D01*
X154704761Y-130761904D01*
X154657142Y-130714285D01*
X154561904Y-130666666D01*
X153752380Y-130666666D01*
X153752380Y-129714285D02*
X153752380Y-130190476D01*
X154228571Y-130238095D01*
X154180952Y-130190476D01*
X154133333Y-130095238D01*
X154133333Y-129857142D01*
X154180952Y-129761904D01*
X154228571Y-129714285D01*
X154323809Y-129666666D01*
X154561904Y-129666666D01*
X154657142Y-129714285D01*
X154704761Y-129761904D01*
X154752380Y-129857142D01*
X154752380Y-130095238D01*
X154704761Y-130190476D01*
X154657142Y-130238095D01*
X154085714Y-128809523D02*
X154752380Y-128809523D01*
X153704761Y-129047619D02*
X154419047Y-129285714D01*
X154419047Y-128666666D01*
G04 #@! TO.C,U55*
X113752380Y-131238095D02*
X114561904Y-131238095D01*
X114657142Y-131190476D01*
X114704761Y-131142857D01*
X114752380Y-131047619D01*
X114752380Y-130857142D01*
X114704761Y-130761904D01*
X114657142Y-130714285D01*
X114561904Y-130666666D01*
X113752380Y-130666666D01*
X113752380Y-129714285D02*
X113752380Y-130190476D01*
X114228571Y-130238095D01*
X114180952Y-130190476D01*
X114133333Y-130095238D01*
X114133333Y-129857142D01*
X114180952Y-129761904D01*
X114228571Y-129714285D01*
X114323809Y-129666666D01*
X114561904Y-129666666D01*
X114657142Y-129714285D01*
X114704761Y-129761904D01*
X114752380Y-129857142D01*
X114752380Y-130095238D01*
X114704761Y-130190476D01*
X114657142Y-130238095D01*
X113752380Y-128761904D02*
X113752380Y-129238095D01*
X114228571Y-129285714D01*
X114180952Y-129238095D01*
X114133333Y-129142857D01*
X114133333Y-128904761D01*
X114180952Y-128809523D01*
X114228571Y-128761904D01*
X114323809Y-128714285D01*
X114561904Y-128714285D01*
X114657142Y-128761904D01*
X114704761Y-128809523D01*
X114752380Y-128904761D01*
X114752380Y-129142857D01*
X114704761Y-129238095D01*
X114657142Y-129285714D01*
G04 #@! TO.C,U56*
X95752380Y-131238095D02*
X96561904Y-131238095D01*
X96657142Y-131190476D01*
X96704761Y-131142857D01*
X96752380Y-131047619D01*
X96752380Y-130857142D01*
X96704761Y-130761904D01*
X96657142Y-130714285D01*
X96561904Y-130666666D01*
X95752380Y-130666666D01*
X95752380Y-129714285D02*
X95752380Y-130190476D01*
X96228571Y-130238095D01*
X96180952Y-130190476D01*
X96133333Y-130095238D01*
X96133333Y-129857142D01*
X96180952Y-129761904D01*
X96228571Y-129714285D01*
X96323809Y-129666666D01*
X96561904Y-129666666D01*
X96657142Y-129714285D01*
X96704761Y-129761904D01*
X96752380Y-129857142D01*
X96752380Y-130095238D01*
X96704761Y-130190476D01*
X96657142Y-130238095D01*
X95752380Y-128809523D02*
X95752380Y-129000000D01*
X95800000Y-129095238D01*
X95847619Y-129142857D01*
X95990476Y-129238095D01*
X96180952Y-129285714D01*
X96561904Y-129285714D01*
X96657142Y-129238095D01*
X96704761Y-129190476D01*
X96752380Y-129095238D01*
X96752380Y-128904761D01*
X96704761Y-128809523D01*
X96657142Y-128761904D01*
X96561904Y-128714285D01*
X96323809Y-128714285D01*
X96228571Y-128761904D01*
X96180952Y-128809523D01*
X96133333Y-128904761D01*
X96133333Y-129095238D01*
X96180952Y-129190476D01*
X96228571Y-129238095D01*
X96323809Y-129285714D01*
G04 #@! TO.C,U15*
X175761804Y-32195980D02*
X175761804Y-33005504D01*
X175809423Y-33100742D01*
X175857042Y-33148361D01*
X175952280Y-33195980D01*
X176142757Y-33195980D01*
X176237995Y-33148361D01*
X176285614Y-33100742D01*
X176333233Y-33005504D01*
X176333233Y-32195980D01*
X177333233Y-33195980D02*
X176761804Y-33195980D01*
X177047519Y-33195980D02*
X177047519Y-32195980D01*
X176952280Y-32338838D01*
X176857042Y-32434076D01*
X176761804Y-32481695D01*
X178237995Y-32195980D02*
X177761804Y-32195980D01*
X177714185Y-32672171D01*
X177761804Y-32624552D01*
X177857042Y-32576933D01*
X178095138Y-32576933D01*
X178190376Y-32624552D01*
X178237995Y-32672171D01*
X178285614Y-32767409D01*
X178285614Y-33005504D01*
X178237995Y-33100742D01*
X178190376Y-33148361D01*
X178095138Y-33195980D01*
X177857042Y-33195980D01*
X177761804Y-33148361D01*
X177714185Y-33100742D01*
G04 #@! TO.C,U28*
X169452380Y-70238095D02*
X170261904Y-70238095D01*
X170357142Y-70190476D01*
X170404761Y-70142857D01*
X170452380Y-70047619D01*
X170452380Y-69857142D01*
X170404761Y-69761904D01*
X170357142Y-69714285D01*
X170261904Y-69666666D01*
X169452380Y-69666666D01*
X169547619Y-69238095D02*
X169500000Y-69190476D01*
X169452380Y-69095238D01*
X169452380Y-68857142D01*
X169500000Y-68761904D01*
X169547619Y-68714285D01*
X169642857Y-68666666D01*
X169738095Y-68666666D01*
X169880952Y-68714285D01*
X170452380Y-69285714D01*
X170452380Y-68666666D01*
X169880952Y-68095238D02*
X169833333Y-68190476D01*
X169785714Y-68238095D01*
X169690476Y-68285714D01*
X169642857Y-68285714D01*
X169547619Y-68238095D01*
X169500000Y-68190476D01*
X169452380Y-68095238D01*
X169452380Y-67904761D01*
X169500000Y-67809523D01*
X169547619Y-67761904D01*
X169642857Y-67714285D01*
X169690476Y-67714285D01*
X169785714Y-67761904D01*
X169833333Y-67809523D01*
X169880952Y-67904761D01*
X169880952Y-68095238D01*
X169928571Y-68190476D01*
X169976190Y-68238095D01*
X170071428Y-68285714D01*
X170261904Y-68285714D01*
X170357142Y-68238095D01*
X170404761Y-68190476D01*
X170452380Y-68095238D01*
X170452380Y-67904761D01*
X170404761Y-67809523D01*
X170357142Y-67761904D01*
X170261904Y-67714285D01*
X170071428Y-67714285D01*
X169976190Y-67761904D01*
X169928571Y-67809523D01*
X169880952Y-67904761D01*
G04 #@! TO.C,R4*
X185905420Y-100339186D02*
X185429230Y-100672520D01*
X185905420Y-100910615D02*
X184905420Y-100910615D01*
X184905420Y-100529662D01*
X184953040Y-100434424D01*
X185000659Y-100386805D01*
X185095897Y-100339186D01*
X185238754Y-100339186D01*
X185333992Y-100386805D01*
X185381611Y-100434424D01*
X185429230Y-100529662D01*
X185429230Y-100910615D01*
X185238754Y-99482043D02*
X185905420Y-99482043D01*
X184857801Y-99720139D02*
X185572087Y-99958234D01*
X185572087Y-99339186D01*
G04 #@! TO.C,U59*
X187287264Y-105497460D02*
X187287264Y-106306984D01*
X187334883Y-106402222D01*
X187382502Y-106449841D01*
X187477740Y-106497460D01*
X187668217Y-106497460D01*
X187763455Y-106449841D01*
X187811074Y-106402222D01*
X187858693Y-106306984D01*
X187858693Y-105497460D01*
X188811074Y-105497460D02*
X188334883Y-105497460D01*
X188287264Y-105973651D01*
X188334883Y-105926032D01*
X188430121Y-105878413D01*
X188668217Y-105878413D01*
X188763455Y-105926032D01*
X188811074Y-105973651D01*
X188858693Y-106068889D01*
X188858693Y-106306984D01*
X188811074Y-106402222D01*
X188763455Y-106449841D01*
X188668217Y-106497460D01*
X188430121Y-106497460D01*
X188334883Y-106449841D01*
X188287264Y-106402222D01*
X189334883Y-106497460D02*
X189525360Y-106497460D01*
X189620598Y-106449841D01*
X189668217Y-106402222D01*
X189763455Y-106259365D01*
X189811074Y-106068889D01*
X189811074Y-105687937D01*
X189763455Y-105592699D01*
X189715836Y-105545080D01*
X189620598Y-105497460D01*
X189430121Y-105497460D01*
X189334883Y-105545080D01*
X189287264Y-105592699D01*
X189239645Y-105687937D01*
X189239645Y-105926032D01*
X189287264Y-106021270D01*
X189334883Y-106068889D01*
X189430121Y-106116508D01*
X189620598Y-106116508D01*
X189715836Y-106068889D01*
X189763455Y-106021270D01*
X189811074Y-105926032D01*
G04 #@! TO.C,U60*
X95371260Y-89306455D02*
X96180784Y-89306455D01*
X96276022Y-89258836D01*
X96323641Y-89211217D01*
X96371260Y-89115979D01*
X96371260Y-88925502D01*
X96323641Y-88830264D01*
X96276022Y-88782645D01*
X96180784Y-88735026D01*
X95371260Y-88735026D01*
X95371260Y-87830264D02*
X95371260Y-88020740D01*
X95418880Y-88115979D01*
X95466499Y-88163598D01*
X95609356Y-88258836D01*
X95799832Y-88306455D01*
X96180784Y-88306455D01*
X96276022Y-88258836D01*
X96323641Y-88211217D01*
X96371260Y-88115979D01*
X96371260Y-87925502D01*
X96323641Y-87830264D01*
X96276022Y-87782645D01*
X96180784Y-87735026D01*
X95942689Y-87735026D01*
X95847451Y-87782645D01*
X95799832Y-87830264D01*
X95752213Y-87925502D01*
X95752213Y-88115979D01*
X95799832Y-88211217D01*
X95847451Y-88258836D01*
X95942689Y-88306455D01*
X95371260Y-87115979D02*
X95371260Y-87020740D01*
X95418880Y-86925502D01*
X95466499Y-86877883D01*
X95561737Y-86830264D01*
X95752213Y-86782645D01*
X95990308Y-86782645D01*
X96180784Y-86830264D01*
X96276022Y-86877883D01*
X96323641Y-86925502D01*
X96371260Y-87020740D01*
X96371260Y-87115979D01*
X96323641Y-87211217D01*
X96276022Y-87258836D01*
X96180784Y-87306455D01*
X95990308Y-87354074D01*
X95752213Y-87354074D01*
X95561737Y-87306455D01*
X95466499Y-87258836D01*
X95418880Y-87211217D01*
X95371260Y-87115979D01*
G04 #@! TO.C,C59*
X190361862Y-104488217D02*
X190409481Y-104535836D01*
X190457100Y-104678693D01*
X190457100Y-104773931D01*
X190409481Y-104916788D01*
X190314243Y-105012026D01*
X190219005Y-105059645D01*
X190028529Y-105107264D01*
X189885672Y-105107264D01*
X189695196Y-105059645D01*
X189599958Y-105012026D01*
X189504720Y-104916788D01*
X189457100Y-104773931D01*
X189457100Y-104678693D01*
X189504720Y-104535836D01*
X189552339Y-104488217D01*
X189457100Y-103583455D02*
X189457100Y-104059645D01*
X189933291Y-104107264D01*
X189885672Y-104059645D01*
X189838053Y-103964407D01*
X189838053Y-103726312D01*
X189885672Y-103631074D01*
X189933291Y-103583455D01*
X190028529Y-103535836D01*
X190266624Y-103535836D01*
X190361862Y-103583455D01*
X190409481Y-103631074D01*
X190457100Y-103726312D01*
X190457100Y-103964407D01*
X190409481Y-104059645D01*
X190361862Y-104107264D01*
X190457100Y-103059645D02*
X190457100Y-102869169D01*
X190409481Y-102773931D01*
X190361862Y-102726312D01*
X190219005Y-102631074D01*
X190028529Y-102583455D01*
X189647577Y-102583455D01*
X189552339Y-102631074D01*
X189504720Y-102678693D01*
X189457100Y-102773931D01*
X189457100Y-102964407D01*
X189504720Y-103059645D01*
X189552339Y-103107264D01*
X189647577Y-103154883D01*
X189885672Y-103154883D01*
X189980910Y-103107264D01*
X190028529Y-103059645D01*
X190076148Y-102964407D01*
X190076148Y-102773931D01*
X190028529Y-102678693D01*
X189980910Y-102631074D01*
X189885672Y-102583455D01*
G04 #@! TO.C,C60*
X95988802Y-91261222D02*
X95941183Y-91308841D01*
X95798326Y-91356460D01*
X95703088Y-91356460D01*
X95560231Y-91308841D01*
X95464993Y-91213603D01*
X95417374Y-91118365D01*
X95369755Y-90927889D01*
X95369755Y-90785032D01*
X95417374Y-90594556D01*
X95464993Y-90499318D01*
X95560231Y-90404080D01*
X95703088Y-90356460D01*
X95798326Y-90356460D01*
X95941183Y-90404080D01*
X95988802Y-90451699D01*
X96845945Y-90356460D02*
X96655469Y-90356460D01*
X96560231Y-90404080D01*
X96512612Y-90451699D01*
X96417374Y-90594556D01*
X96369755Y-90785032D01*
X96369755Y-91165984D01*
X96417374Y-91261222D01*
X96464993Y-91308841D01*
X96560231Y-91356460D01*
X96750707Y-91356460D01*
X96845945Y-91308841D01*
X96893564Y-91261222D01*
X96941183Y-91165984D01*
X96941183Y-90927889D01*
X96893564Y-90832651D01*
X96845945Y-90785032D01*
X96750707Y-90737413D01*
X96560231Y-90737413D01*
X96464993Y-90785032D01*
X96417374Y-90832651D01*
X96369755Y-90927889D01*
X97560231Y-90356460D02*
X97655469Y-90356460D01*
X97750707Y-90404080D01*
X97798326Y-90451699D01*
X97845945Y-90546937D01*
X97893564Y-90737413D01*
X97893564Y-90975508D01*
X97845945Y-91165984D01*
X97798326Y-91261222D01*
X97750707Y-91308841D01*
X97655469Y-91356460D01*
X97560231Y-91356460D01*
X97464993Y-91308841D01*
X97417374Y-91261222D01*
X97369755Y-91165984D01*
X97322136Y-90975508D01*
X97322136Y-90737413D01*
X97369755Y-90546937D01*
X97417374Y-90451699D01*
X97464993Y-90404080D01*
X97560231Y-90356460D01*
G04 #@! TO.C,D1*
X214548980Y-45757055D02*
X213548980Y-45757055D01*
X213548980Y-45518960D01*
X213596600Y-45376102D01*
X213691838Y-45280864D01*
X213787076Y-45233245D01*
X213977552Y-45185626D01*
X214120409Y-45185626D01*
X214310885Y-45233245D01*
X214406123Y-45280864D01*
X214501361Y-45376102D01*
X214548980Y-45518960D01*
X214548980Y-45757055D01*
X214548980Y-44233245D02*
X214548980Y-44804674D01*
X214548980Y-44518960D02*
X213548980Y-44518960D01*
X213691838Y-44614198D01*
X213787076Y-44709436D01*
X213834695Y-44804674D01*
G04 #@! TO.C,D2*
X214574380Y-40870095D02*
X213574380Y-40870095D01*
X213574380Y-40632000D01*
X213622000Y-40489142D01*
X213717238Y-40393904D01*
X213812476Y-40346285D01*
X214002952Y-40298666D01*
X214145809Y-40298666D01*
X214336285Y-40346285D01*
X214431523Y-40393904D01*
X214526761Y-40489142D01*
X214574380Y-40632000D01*
X214574380Y-40870095D01*
X213669619Y-39917714D02*
X213622000Y-39870095D01*
X213574380Y-39774857D01*
X213574380Y-39536761D01*
X213622000Y-39441523D01*
X213669619Y-39393904D01*
X213764857Y-39346285D01*
X213860095Y-39346285D01*
X214002952Y-39393904D01*
X214574380Y-39965333D01*
X214574380Y-39346285D01*
G04 #@! TO.C,R5*
X207935533Y-45572940D02*
X207602200Y-45096750D01*
X207364104Y-45572940D02*
X207364104Y-44572940D01*
X207745057Y-44572940D01*
X207840295Y-44620560D01*
X207887914Y-44668179D01*
X207935533Y-44763417D01*
X207935533Y-44906274D01*
X207887914Y-45001512D01*
X207840295Y-45049131D01*
X207745057Y-45096750D01*
X207364104Y-45096750D01*
X208840295Y-44572940D02*
X208364104Y-44572940D01*
X208316485Y-45049131D01*
X208364104Y-45001512D01*
X208459342Y-44953893D01*
X208697438Y-44953893D01*
X208792676Y-45001512D01*
X208840295Y-45049131D01*
X208887914Y-45144369D01*
X208887914Y-45382464D01*
X208840295Y-45477702D01*
X208792676Y-45525321D01*
X208697438Y-45572940D01*
X208459342Y-45572940D01*
X208364104Y-45525321D01*
X208316485Y-45477702D01*
G04 #@! TO.C,R6*
X207879653Y-40553900D02*
X207546320Y-40077710D01*
X207308224Y-40553900D02*
X207308224Y-39553900D01*
X207689177Y-39553900D01*
X207784415Y-39601520D01*
X207832034Y-39649139D01*
X207879653Y-39744377D01*
X207879653Y-39887234D01*
X207832034Y-39982472D01*
X207784415Y-40030091D01*
X207689177Y-40077710D01*
X207308224Y-40077710D01*
X208736796Y-39553900D02*
X208546320Y-39553900D01*
X208451081Y-39601520D01*
X208403462Y-39649139D01*
X208308224Y-39791996D01*
X208260605Y-39982472D01*
X208260605Y-40363424D01*
X208308224Y-40458662D01*
X208355843Y-40506281D01*
X208451081Y-40553900D01*
X208641558Y-40553900D01*
X208736796Y-40506281D01*
X208784415Y-40458662D01*
X208832034Y-40363424D01*
X208832034Y-40125329D01*
X208784415Y-40030091D01*
X208736796Y-39982472D01*
X208641558Y-39934853D01*
X208451081Y-39934853D01*
X208355843Y-39982472D01*
X208308224Y-40030091D01*
X208260605Y-40125329D01*
G04 #@! TD*
M02*
