G04 #@! TF.GenerationSoftware,KiCad,Pcbnew,(5.0.0)*
G04 #@! TF.CreationDate,2018-10-30T19:14:45-07:00*
G04 #@! TF.ProjectId,alu,616C752E6B696361645F706362000000,rev?*
G04 #@! TF.SameCoordinates,Original*
G04 #@! TF.FileFunction,Legend,Top*
G04 #@! TF.FilePolarity,Positive*
%FSLAX46Y46*%
G04 Gerber Fmt 4.6, Leading zero omitted, Abs format (unit mm)*
G04 Created by KiCad (PCBNEW (5.0.0)) date 10/30/18 19:14:45*
%MOMM*%
%LPD*%
G01*
G04 APERTURE LIST*
%ADD10C,0.300000*%
%ADD11C,0.190500*%
%ADD12C,0.200000*%
%ADD13C,0.150000*%
%ADD14C,0.120000*%
%ADD15C,0.100000*%
G04 APERTURE END LIST*
D10*
X189028571Y-63450000D02*
X187528571Y-63450000D01*
X187528571Y-62878571D01*
X187600000Y-62735714D01*
X187671428Y-62664285D01*
X187814285Y-62592857D01*
X188028571Y-62592857D01*
X188171428Y-62664285D01*
X188242857Y-62735714D01*
X188314285Y-62878571D01*
X188314285Y-63450000D01*
X189028571Y-61092857D02*
X188314285Y-61592857D01*
X189028571Y-61950000D02*
X187528571Y-61950000D01*
X187528571Y-61378571D01*
X187600000Y-61235714D01*
X187671428Y-61164285D01*
X187814285Y-61092857D01*
X188028571Y-61092857D01*
X188171428Y-61164285D01*
X188242857Y-61235714D01*
X188314285Y-61378571D01*
X188314285Y-61950000D01*
X187528571Y-60164285D02*
X187528571Y-59878571D01*
X187600000Y-59735714D01*
X187742857Y-59592857D01*
X188028571Y-59521428D01*
X188528571Y-59521428D01*
X188814285Y-59592857D01*
X188957142Y-59735714D01*
X189028571Y-59878571D01*
X189028571Y-60164285D01*
X188957142Y-60307142D01*
X188814285Y-60450000D01*
X188528571Y-60521428D01*
X188028571Y-60521428D01*
X187742857Y-60450000D01*
X187600000Y-60307142D01*
X187528571Y-60164285D01*
X189028571Y-58878571D02*
X187528571Y-58878571D01*
X187528571Y-58307142D01*
X187600000Y-58164285D01*
X187671428Y-58092857D01*
X187814285Y-58021428D01*
X188028571Y-58021428D01*
X188171428Y-58092857D01*
X188242857Y-58164285D01*
X188314285Y-58307142D01*
X188314285Y-58878571D01*
X188600000Y-57450000D02*
X188600000Y-56735714D01*
X189028571Y-57592857D02*
X187528571Y-57092857D01*
X189028571Y-56592857D01*
X187600000Y-55307142D02*
X187528571Y-55450000D01*
X187528571Y-55664285D01*
X187600000Y-55878571D01*
X187742857Y-56021428D01*
X187885714Y-56092857D01*
X188171428Y-56164285D01*
X188385714Y-56164285D01*
X188671428Y-56092857D01*
X188814285Y-56021428D01*
X188957142Y-55878571D01*
X189028571Y-55664285D01*
X189028571Y-55521428D01*
X188957142Y-55307142D01*
X188885714Y-55235714D01*
X188385714Y-55235714D01*
X188385714Y-55521428D01*
X188600000Y-54664285D02*
X188600000Y-53950000D01*
X189028571Y-54807142D02*
X187528571Y-54307142D01*
X189028571Y-53807142D01*
X187528571Y-53521428D02*
X187528571Y-52664285D01*
X189028571Y-53092857D02*
X187528571Y-53092857D01*
X188242857Y-52164285D02*
X188242857Y-51664285D01*
X189028571Y-51450000D02*
X189028571Y-52164285D01*
X187528571Y-52164285D01*
X187528571Y-51450000D01*
X187457142Y-49735714D02*
X189385714Y-51021428D01*
X187600000Y-48450000D02*
X187528571Y-48592857D01*
X187528571Y-48807142D01*
X187600000Y-49021428D01*
X187742857Y-49164285D01*
X187885714Y-49235714D01*
X188171428Y-49307142D01*
X188385714Y-49307142D01*
X188671428Y-49235714D01*
X188814285Y-49164285D01*
X188957142Y-49021428D01*
X189028571Y-48807142D01*
X189028571Y-48664285D01*
X188957142Y-48450000D01*
X188885714Y-48378571D01*
X188385714Y-48378571D01*
X188385714Y-48664285D01*
X188242857Y-47735714D02*
X188242857Y-47235714D01*
X189028571Y-47021428D02*
X189028571Y-47735714D01*
X187528571Y-47735714D01*
X187528571Y-47021428D01*
X189028571Y-46378571D02*
X187528571Y-46378571D01*
X189028571Y-45521428D01*
X187528571Y-45521428D01*
X188242857Y-44807142D02*
X188242857Y-44307142D01*
X189028571Y-44092857D02*
X189028571Y-44807142D01*
X187528571Y-44807142D01*
X187528571Y-44092857D01*
X189028571Y-42592857D02*
X188314285Y-43092857D01*
X189028571Y-43450000D02*
X187528571Y-43450000D01*
X187528571Y-42878571D01*
X187600000Y-42735714D01*
X187671428Y-42664285D01*
X187814285Y-42592857D01*
X188028571Y-42592857D01*
X188171428Y-42664285D01*
X188242857Y-42735714D01*
X188314285Y-42878571D01*
X188314285Y-43450000D01*
X188600000Y-42021428D02*
X188600000Y-41307142D01*
X189028571Y-42164285D02*
X187528571Y-41664285D01*
X189028571Y-41164285D01*
X187528571Y-40878571D02*
X187528571Y-40021428D01*
X189028571Y-40450000D02*
X187528571Y-40450000D01*
X188242857Y-39521428D02*
X188242857Y-39021428D01*
X189028571Y-38807142D02*
X189028571Y-39521428D01*
X187528571Y-39521428D01*
X187528571Y-38807142D01*
X189028571Y-36164285D02*
X188314285Y-36664285D01*
X189028571Y-37021428D02*
X187528571Y-37021428D01*
X187528571Y-36450000D01*
X187600000Y-36307142D01*
X187671428Y-36235714D01*
X187814285Y-36164285D01*
X188028571Y-36164285D01*
X188171428Y-36235714D01*
X188242857Y-36307142D01*
X188314285Y-36450000D01*
X188314285Y-37021428D01*
X187528571Y-35235714D02*
X187528571Y-34950000D01*
X187600000Y-34807142D01*
X187742857Y-34664285D01*
X188028571Y-34592857D01*
X188528571Y-34592857D01*
X188814285Y-34664285D01*
X188957142Y-34807142D01*
X189028571Y-34950000D01*
X189028571Y-35235714D01*
X188957142Y-35378571D01*
X188814285Y-35521428D01*
X188528571Y-35592857D01*
X188028571Y-35592857D01*
X187742857Y-35521428D01*
X187600000Y-35378571D01*
X187528571Y-35235714D01*
X189028571Y-33950000D02*
X187528571Y-33950000D01*
X188600000Y-33450000D01*
X187528571Y-32950000D01*
X189028571Y-32950000D01*
X218360714Y-93017857D02*
X218432142Y-93089285D01*
X218503571Y-93303571D01*
X218503571Y-93446428D01*
X218432142Y-93660714D01*
X218289285Y-93803571D01*
X218146428Y-93875000D01*
X217860714Y-93946428D01*
X217646428Y-93946428D01*
X217360714Y-93875000D01*
X217217857Y-93803571D01*
X217075000Y-93660714D01*
X217003571Y-93446428D01*
X217003571Y-93303571D01*
X217075000Y-93089285D01*
X217146428Y-93017857D01*
X218503571Y-91660714D02*
X218503571Y-92375000D01*
X217003571Y-92375000D01*
X217003571Y-91160714D02*
X218217857Y-91160714D01*
X218360714Y-91089285D01*
X218432142Y-91017857D01*
X218503571Y-90875000D01*
X218503571Y-90589285D01*
X218432142Y-90446428D01*
X218360714Y-90375000D01*
X218217857Y-90303571D01*
X217003571Y-90303571D01*
X218503571Y-87589285D02*
X217789285Y-88089285D01*
X218503571Y-88446428D02*
X217003571Y-88446428D01*
X217003571Y-87875000D01*
X217075000Y-87732142D01*
X217146428Y-87660714D01*
X217289285Y-87589285D01*
X217503571Y-87589285D01*
X217646428Y-87660714D01*
X217717857Y-87732142D01*
X217789285Y-87875000D01*
X217789285Y-88446428D01*
X217003571Y-86660714D02*
X217003571Y-86375000D01*
X217075000Y-86232142D01*
X217217857Y-86089285D01*
X217503571Y-86017857D01*
X218003571Y-86017857D01*
X218289285Y-86089285D01*
X218432142Y-86232142D01*
X218503571Y-86375000D01*
X218503571Y-86660714D01*
X218432142Y-86803571D01*
X218289285Y-86946428D01*
X218003571Y-87017857D01*
X217503571Y-87017857D01*
X217217857Y-86946428D01*
X217075000Y-86803571D01*
X217003571Y-86660714D01*
X218503571Y-85375000D02*
X217003571Y-85375000D01*
X218075000Y-84875000D01*
X217003571Y-84375000D01*
X218503571Y-84375000D01*
X86792857Y-92292857D02*
X86864285Y-92078571D01*
X86935714Y-92007142D01*
X87078571Y-91935714D01*
X87292857Y-91935714D01*
X87435714Y-92007142D01*
X87507142Y-92078571D01*
X87578571Y-92221428D01*
X87578571Y-92792857D01*
X86078571Y-92792857D01*
X86078571Y-92292857D01*
X86150000Y-92150000D01*
X86221428Y-92078571D01*
X86364285Y-92007142D01*
X86507142Y-92007142D01*
X86650000Y-92078571D01*
X86721428Y-92150000D01*
X86792857Y-92292857D01*
X86792857Y-92792857D01*
X87578571Y-91292857D02*
X86078571Y-91292857D01*
X86078571Y-90792857D02*
X86078571Y-89935714D01*
X87578571Y-90364285D02*
X86078571Y-90364285D01*
X87507142Y-89507142D02*
X87578571Y-89292857D01*
X87578571Y-88935714D01*
X87507142Y-88792857D01*
X87435714Y-88721428D01*
X87292857Y-88650000D01*
X87150000Y-88650000D01*
X87007142Y-88721428D01*
X86935714Y-88792857D01*
X86864285Y-88935714D01*
X86792857Y-89221428D01*
X86721428Y-89364285D01*
X86650000Y-89435714D01*
X86507142Y-89507142D01*
X86364285Y-89507142D01*
X86221428Y-89435714D01*
X86150000Y-89364285D01*
X86078571Y-89221428D01*
X86078571Y-88864285D01*
X86150000Y-88650000D01*
X87578571Y-87292857D02*
X87578571Y-88007142D01*
X86078571Y-88007142D01*
X87578571Y-86792857D02*
X86078571Y-86792857D01*
X87435714Y-85221428D02*
X87507142Y-85292857D01*
X87578571Y-85507142D01*
X87578571Y-85650000D01*
X87507142Y-85864285D01*
X87364285Y-86007142D01*
X87221428Y-86078571D01*
X86935714Y-86150000D01*
X86721428Y-86150000D01*
X86435714Y-86078571D01*
X86292857Y-86007142D01*
X86150000Y-85864285D01*
X86078571Y-85650000D01*
X86078571Y-85507142D01*
X86150000Y-85292857D01*
X86221428Y-85221428D01*
X86792857Y-84578571D02*
X86792857Y-84078571D01*
X87578571Y-83864285D02*
X87578571Y-84578571D01*
X86078571Y-84578571D01*
X86078571Y-83864285D01*
X87578571Y-81221428D02*
X86864285Y-81721428D01*
X87578571Y-82078571D02*
X86078571Y-82078571D01*
X86078571Y-81507142D01*
X86150000Y-81364285D01*
X86221428Y-81292857D01*
X86364285Y-81221428D01*
X86578571Y-81221428D01*
X86721428Y-81292857D01*
X86792857Y-81364285D01*
X86864285Y-81507142D01*
X86864285Y-82078571D01*
X86078571Y-80292857D02*
X86078571Y-80007142D01*
X86150000Y-79864285D01*
X86292857Y-79721428D01*
X86578571Y-79650000D01*
X87078571Y-79650000D01*
X87364285Y-79721428D01*
X87507142Y-79864285D01*
X87578571Y-80007142D01*
X87578571Y-80292857D01*
X87507142Y-80435714D01*
X87364285Y-80578571D01*
X87078571Y-80650000D01*
X86578571Y-80650000D01*
X86292857Y-80578571D01*
X86150000Y-80435714D01*
X86078571Y-80292857D01*
X87578571Y-79007142D02*
X86078571Y-79007142D01*
X87150000Y-78507142D01*
X86078571Y-78007142D01*
X87578571Y-78007142D01*
X67292857Y-34453571D02*
X66578571Y-34453571D01*
X66578571Y-32953571D01*
X67792857Y-34453571D02*
X67792857Y-32953571D01*
X68292857Y-34025000D01*
X68792857Y-32953571D01*
X68792857Y-34453571D01*
X69435714Y-34025000D02*
X70150000Y-34025000D01*
X69292857Y-34453571D02*
X69792857Y-32953571D01*
X70292857Y-34453571D01*
X71650000Y-34453571D02*
X71150000Y-33739285D01*
X70792857Y-34453571D02*
X70792857Y-32953571D01*
X71364285Y-32953571D01*
X71507142Y-33025000D01*
X71578571Y-33096428D01*
X71650000Y-33239285D01*
X71650000Y-33453571D01*
X71578571Y-33596428D01*
X71507142Y-33667857D01*
X71364285Y-33739285D01*
X70792857Y-33739285D01*
X72078571Y-32953571D02*
X72578571Y-34453571D01*
X73078571Y-32953571D01*
X73578571Y-33882142D02*
X74721428Y-33882142D01*
X76221428Y-34453571D02*
X75364285Y-34453571D01*
X75792857Y-34453571D02*
X75792857Y-32953571D01*
X75650000Y-33167857D01*
X75507142Y-33310714D01*
X75364285Y-33382142D01*
X77935714Y-34025000D02*
X78650000Y-34025000D01*
X77792857Y-34453571D02*
X78292857Y-32953571D01*
X78792857Y-34453571D01*
X80150000Y-34453571D02*
X79650000Y-33739285D01*
X79292857Y-34453571D02*
X79292857Y-32953571D01*
X79864285Y-32953571D01*
X80007142Y-33025000D01*
X80078571Y-33096428D01*
X80150000Y-33239285D01*
X80150000Y-33453571D01*
X80078571Y-33596428D01*
X80007142Y-33667857D01*
X79864285Y-33739285D01*
X79292857Y-33739285D01*
X80792857Y-34453571D02*
X80792857Y-32953571D01*
X81292857Y-32953571D02*
X82150000Y-32953571D01*
X81721428Y-34453571D02*
X81721428Y-32953571D01*
X82650000Y-34453571D02*
X82650000Y-32953571D01*
X82650000Y-33667857D02*
X83507142Y-33667857D01*
X83507142Y-34453571D02*
X83507142Y-32953571D01*
X84221428Y-34453571D02*
X84221428Y-32953571D01*
X84721428Y-34025000D01*
X85221428Y-32953571D01*
X85221428Y-34453571D01*
X85935714Y-33667857D02*
X86435714Y-33667857D01*
X86650000Y-34453571D02*
X85935714Y-34453571D01*
X85935714Y-32953571D01*
X86650000Y-32953571D01*
X87078571Y-32953571D02*
X87935714Y-32953571D01*
X87507142Y-34453571D02*
X87507142Y-32953571D01*
X88435714Y-34453571D02*
X88435714Y-32953571D01*
X90007142Y-34310714D02*
X89935714Y-34382142D01*
X89721428Y-34453571D01*
X89578571Y-34453571D01*
X89364285Y-34382142D01*
X89221428Y-34239285D01*
X89150000Y-34096428D01*
X89078571Y-33810714D01*
X89078571Y-33596428D01*
X89150000Y-33310714D01*
X89221428Y-33167857D01*
X89364285Y-33025000D01*
X89578571Y-32953571D01*
X89721428Y-32953571D01*
X89935714Y-33025000D01*
X90007142Y-33096428D01*
X92507142Y-34453571D02*
X91792857Y-34453571D01*
X91792857Y-32953571D01*
X93292857Y-32953571D02*
X93578571Y-32953571D01*
X93721428Y-33025000D01*
X93864285Y-33167857D01*
X93935714Y-33453571D01*
X93935714Y-33953571D01*
X93864285Y-34239285D01*
X93721428Y-34382142D01*
X93578571Y-34453571D01*
X93292857Y-34453571D01*
X93149999Y-34382142D01*
X93007142Y-34239285D01*
X92935714Y-33953571D01*
X92935714Y-33453571D01*
X93007142Y-33167857D01*
X93149999Y-33025000D01*
X93292857Y-32953571D01*
X95364285Y-33025000D02*
X95221428Y-32953571D01*
X95007142Y-32953571D01*
X94792857Y-33025000D01*
X94649999Y-33167857D01*
X94578571Y-33310714D01*
X94507142Y-33596428D01*
X94507142Y-33810714D01*
X94578571Y-34096428D01*
X94649999Y-34239285D01*
X94792857Y-34382142D01*
X95007142Y-34453571D01*
X95149999Y-34453571D01*
X95364285Y-34382142D01*
X95435714Y-34310714D01*
X95435714Y-33810714D01*
X95149999Y-33810714D01*
X96078571Y-34453571D02*
X96078571Y-32953571D01*
X97649999Y-34310714D02*
X97578571Y-34382142D01*
X97364285Y-34453571D01*
X97221428Y-34453571D01*
X97007142Y-34382142D01*
X96864285Y-34239285D01*
X96792857Y-34096428D01*
X96721428Y-33810714D01*
X96721428Y-33596428D01*
X96792857Y-33310714D01*
X96864285Y-33167857D01*
X97007142Y-33025000D01*
X97221428Y-32953571D01*
X97364285Y-32953571D01*
X97578571Y-33025000D01*
X97649999Y-33096428D01*
X99435714Y-32953571D02*
X99435714Y-34167857D01*
X99507142Y-34310714D01*
X99578571Y-34382142D01*
X99721428Y-34453571D01*
X100007142Y-34453571D01*
X100149999Y-34382142D01*
X100221428Y-34310714D01*
X100292857Y-34167857D01*
X100292857Y-32953571D01*
X101007142Y-34453571D02*
X101007142Y-32953571D01*
X101864285Y-34453571D01*
X101864285Y-32953571D01*
X102578571Y-34453571D02*
X102578571Y-32953571D01*
X103078571Y-32953571D02*
X103935714Y-32953571D01*
X103507142Y-34453571D02*
X103507142Y-32953571D01*
X74292857Y-37003571D02*
X73792857Y-36289285D01*
X73435714Y-37003571D02*
X73435714Y-35503571D01*
X74007142Y-35503571D01*
X74150000Y-35575000D01*
X74221428Y-35646428D01*
X74292857Y-35789285D01*
X74292857Y-36003571D01*
X74221428Y-36146428D01*
X74150000Y-36217857D01*
X74007142Y-36289285D01*
X73435714Y-36289285D01*
X74935714Y-36217857D02*
X75435714Y-36217857D01*
X75650000Y-37003571D02*
X74935714Y-37003571D01*
X74935714Y-35503571D01*
X75650000Y-35503571D01*
X76078571Y-35503571D02*
X76578571Y-37003571D01*
X77078571Y-35503571D01*
X79221428Y-36217857D02*
X79435714Y-36289285D01*
X79507142Y-36360714D01*
X79578571Y-36503571D01*
X79578571Y-36717857D01*
X79507142Y-36860714D01*
X79435714Y-36932142D01*
X79292857Y-37003571D01*
X78721428Y-37003571D01*
X78721428Y-35503571D01*
X79221428Y-35503571D01*
X79364285Y-35575000D01*
X79435714Y-35646428D01*
X79507142Y-35789285D01*
X79507142Y-35932142D01*
X79435714Y-36075000D01*
X79364285Y-36146428D01*
X79221428Y-36217857D01*
X78721428Y-36217857D01*
X82435714Y-35646428D02*
X82507142Y-35575000D01*
X82650000Y-35503571D01*
X83007142Y-35503571D01*
X83150000Y-35575000D01*
X83221428Y-35646428D01*
X83292857Y-35789285D01*
X83292857Y-35932142D01*
X83221428Y-36146428D01*
X82364285Y-37003571D01*
X83292857Y-37003571D01*
X84221428Y-35503571D02*
X84364285Y-35503571D01*
X84507142Y-35575000D01*
X84578571Y-35646428D01*
X84650000Y-35789285D01*
X84721428Y-36075000D01*
X84721428Y-36432142D01*
X84650000Y-36717857D01*
X84578571Y-36860714D01*
X84507142Y-36932142D01*
X84364285Y-37003571D01*
X84221428Y-37003571D01*
X84078571Y-36932142D01*
X84007142Y-36860714D01*
X83935714Y-36717857D01*
X83864285Y-36432142D01*
X83864285Y-36075000D01*
X83935714Y-35789285D01*
X84007142Y-35646428D01*
X84078571Y-35575000D01*
X84221428Y-35503571D01*
X86150000Y-37003571D02*
X85292857Y-37003571D01*
X85721428Y-37003571D02*
X85721428Y-35503571D01*
X85578571Y-35717857D01*
X85435714Y-35860714D01*
X85292857Y-35932142D01*
X87007142Y-36146428D02*
X86864285Y-36075000D01*
X86792857Y-36003571D01*
X86721428Y-35860714D01*
X86721428Y-35789285D01*
X86792857Y-35646428D01*
X86864285Y-35575000D01*
X87007142Y-35503571D01*
X87292857Y-35503571D01*
X87435714Y-35575000D01*
X87507142Y-35646428D01*
X87578571Y-35789285D01*
X87578571Y-35860714D01*
X87507142Y-36003571D01*
X87435714Y-36075000D01*
X87292857Y-36146428D01*
X87007142Y-36146428D01*
X86864285Y-36217857D01*
X86792857Y-36289285D01*
X86721428Y-36432142D01*
X86721428Y-36717857D01*
X86792857Y-36860714D01*
X86864285Y-36932142D01*
X87007142Y-37003571D01*
X87292857Y-37003571D01*
X87435714Y-36932142D01*
X87507142Y-36860714D01*
X87578571Y-36717857D01*
X87578571Y-36432142D01*
X87507142Y-36289285D01*
X87435714Y-36217857D01*
X87292857Y-36146428D01*
X89650000Y-35503571D02*
X89935714Y-35503571D01*
X90078571Y-35575000D01*
X90221428Y-35717857D01*
X90292857Y-36003571D01*
X90292857Y-36503571D01*
X90221428Y-36789285D01*
X90078571Y-36932142D01*
X89935714Y-37003571D01*
X89650000Y-37003571D01*
X89507142Y-36932142D01*
X89364285Y-36789285D01*
X89292857Y-36503571D01*
X89292857Y-36003571D01*
X89364285Y-35717857D01*
X89507142Y-35575000D01*
X89650000Y-35503571D01*
X91792857Y-36860714D02*
X91721428Y-36932142D01*
X91507142Y-37003571D01*
X91364285Y-37003571D01*
X91150000Y-36932142D01*
X91007142Y-36789285D01*
X90935714Y-36646428D01*
X90864285Y-36360714D01*
X90864285Y-36146428D01*
X90935714Y-35860714D01*
X91007142Y-35717857D01*
X91150000Y-35575000D01*
X91364285Y-35503571D01*
X91507142Y-35503571D01*
X91721428Y-35575000D01*
X91792857Y-35646428D01*
X92221428Y-35503571D02*
X93078571Y-35503571D01*
X92650000Y-37003571D02*
X92650000Y-35503571D01*
X94650000Y-35646428D02*
X94721428Y-35575000D01*
X94864285Y-35503571D01*
X95221428Y-35503571D01*
X95364285Y-35575000D01*
X95435714Y-35646428D01*
X95507142Y-35789285D01*
X95507142Y-35932142D01*
X95435714Y-36146428D01*
X94578571Y-37003571D01*
X95507142Y-37003571D01*
X96935714Y-37003571D02*
X96078571Y-37003571D01*
X96507142Y-37003571D02*
X96507142Y-35503571D01*
X96364285Y-35717857D01*
X96221428Y-35860714D01*
X96078571Y-35932142D01*
D11*
X202284000Y-49882714D02*
X202538000Y-50644714D01*
X202792000Y-49882714D01*
X203481428Y-50572142D02*
X203445142Y-50608428D01*
X203336285Y-50644714D01*
X203263714Y-50644714D01*
X203154857Y-50608428D01*
X203082285Y-50535857D01*
X203046000Y-50463285D01*
X203009714Y-50318142D01*
X203009714Y-50209285D01*
X203046000Y-50064142D01*
X203082285Y-49991571D01*
X203154857Y-49919000D01*
X203263714Y-49882714D01*
X203336285Y-49882714D01*
X203445142Y-49919000D01*
X203481428Y-49955285D01*
X204243428Y-50572142D02*
X204207142Y-50608428D01*
X204098285Y-50644714D01*
X204025714Y-50644714D01*
X203916857Y-50608428D01*
X203844285Y-50535857D01*
X203808000Y-50463285D01*
X203771714Y-50318142D01*
X203771714Y-50209285D01*
X203808000Y-50064142D01*
X203844285Y-49991571D01*
X203916857Y-49919000D01*
X204025714Y-49882714D01*
X204098285Y-49882714D01*
X204207142Y-49919000D01*
X204243428Y-49955285D01*
X212144428Y-49769000D02*
X212071857Y-49732714D01*
X211963000Y-49732714D01*
X211854142Y-49769000D01*
X211781571Y-49841571D01*
X211745285Y-49914142D01*
X211709000Y-50059285D01*
X211709000Y-50168142D01*
X211745285Y-50313285D01*
X211781571Y-50385857D01*
X211854142Y-50458428D01*
X211963000Y-50494714D01*
X212035571Y-50494714D01*
X212144428Y-50458428D01*
X212180714Y-50422142D01*
X212180714Y-50168142D01*
X212035571Y-50168142D01*
X212507285Y-50494714D02*
X212507285Y-49732714D01*
X212942714Y-50494714D01*
X212942714Y-49732714D01*
X213305571Y-50494714D02*
X213305571Y-49732714D01*
X213487000Y-49732714D01*
X213595857Y-49769000D01*
X213668428Y-49841571D01*
X213704714Y-49914142D01*
X213741000Y-50059285D01*
X213741000Y-50168142D01*
X213704714Y-50313285D01*
X213668428Y-50385857D01*
X213595857Y-50458428D01*
X213487000Y-50494714D01*
X213305571Y-50494714D01*
X197606428Y-46846428D02*
X196953285Y-47826142D01*
X198114428Y-47245571D02*
X198223285Y-47281857D01*
X198259571Y-47318142D01*
X198295857Y-47390714D01*
X198295857Y-47499571D01*
X198259571Y-47572142D01*
X198223285Y-47608428D01*
X198150714Y-47644714D01*
X197860428Y-47644714D01*
X197860428Y-46882714D01*
X198114428Y-46882714D01*
X198187000Y-46919000D01*
X198223285Y-46955285D01*
X198259571Y-47027857D01*
X198259571Y-47100428D01*
X198223285Y-47173000D01*
X198187000Y-47209285D01*
X198114428Y-47245571D01*
X197860428Y-47245571D01*
X198767571Y-46882714D02*
X198912714Y-46882714D01*
X198985285Y-46919000D01*
X199057857Y-46991571D01*
X199094142Y-47136714D01*
X199094142Y-47390714D01*
X199057857Y-47535857D01*
X198985285Y-47608428D01*
X198912714Y-47644714D01*
X198767571Y-47644714D01*
X198695000Y-47608428D01*
X198622428Y-47535857D01*
X198586142Y-47390714D01*
X198586142Y-47136714D01*
X198622428Y-46991571D01*
X198695000Y-46919000D01*
X198767571Y-46882714D01*
X199565857Y-46882714D02*
X199711000Y-46882714D01*
X199783571Y-46919000D01*
X199856142Y-46991571D01*
X199892428Y-47136714D01*
X199892428Y-47390714D01*
X199856142Y-47535857D01*
X199783571Y-47608428D01*
X199711000Y-47644714D01*
X199565857Y-47644714D01*
X199493285Y-47608428D01*
X199420714Y-47535857D01*
X199384428Y-47390714D01*
X199384428Y-47136714D01*
X199420714Y-46991571D01*
X199493285Y-46919000D01*
X199565857Y-46882714D01*
X200110142Y-46882714D02*
X200545571Y-46882714D01*
X200327857Y-47644714D02*
X200327857Y-46882714D01*
X200618142Y-47717285D02*
X201198714Y-47717285D01*
X201343857Y-47427000D02*
X201706714Y-47427000D01*
X201271285Y-47644714D02*
X201525285Y-46882714D01*
X201779285Y-47644714D01*
X202251000Y-47898714D02*
X202069571Y-47898714D01*
X202069571Y-46810142D01*
X202251000Y-46810142D01*
X202940428Y-47644714D02*
X202505000Y-47644714D01*
X202722714Y-47644714D02*
X202722714Y-46882714D01*
X202650142Y-46991571D01*
X202577571Y-47064142D01*
X202505000Y-47100428D01*
X203629857Y-46882714D02*
X203267000Y-46882714D01*
X203230714Y-47245571D01*
X203267000Y-47209285D01*
X203339571Y-47173000D01*
X203521000Y-47173000D01*
X203593571Y-47209285D01*
X203629857Y-47245571D01*
X203666142Y-47318142D01*
X203666142Y-47499571D01*
X203629857Y-47572142D01*
X203593571Y-47608428D01*
X203521000Y-47644714D01*
X203339571Y-47644714D01*
X203267000Y-47608428D01*
X203230714Y-47572142D01*
X203920142Y-47898714D02*
X204101571Y-47898714D01*
X204101571Y-46810142D01*
X203920142Y-46810142D01*
X197715285Y-45045571D02*
X197824142Y-45081857D01*
X197860428Y-45118142D01*
X197896714Y-45190714D01*
X197896714Y-45299571D01*
X197860428Y-45372142D01*
X197824142Y-45408428D01*
X197751571Y-45444714D01*
X197461285Y-45444714D01*
X197461285Y-44682714D01*
X197715285Y-44682714D01*
X197787857Y-44719000D01*
X197824142Y-44755285D01*
X197860428Y-44827857D01*
X197860428Y-44900428D01*
X197824142Y-44973000D01*
X197787857Y-45009285D01*
X197715285Y-45045571D01*
X197461285Y-45045571D01*
X198368428Y-44682714D02*
X198513571Y-44682714D01*
X198586142Y-44719000D01*
X198658714Y-44791571D01*
X198695000Y-44936714D01*
X198695000Y-45190714D01*
X198658714Y-45335857D01*
X198586142Y-45408428D01*
X198513571Y-45444714D01*
X198368428Y-45444714D01*
X198295857Y-45408428D01*
X198223285Y-45335857D01*
X198187000Y-45190714D01*
X198187000Y-44936714D01*
X198223285Y-44791571D01*
X198295857Y-44719000D01*
X198368428Y-44682714D01*
X199166714Y-44682714D02*
X199311857Y-44682714D01*
X199384428Y-44719000D01*
X199457000Y-44791571D01*
X199493285Y-44936714D01*
X199493285Y-45190714D01*
X199457000Y-45335857D01*
X199384428Y-45408428D01*
X199311857Y-45444714D01*
X199166714Y-45444714D01*
X199094142Y-45408428D01*
X199021571Y-45335857D01*
X198985285Y-45190714D01*
X198985285Y-44936714D01*
X199021571Y-44791571D01*
X199094142Y-44719000D01*
X199166714Y-44682714D01*
X199711000Y-44682714D02*
X200146428Y-44682714D01*
X199928714Y-45444714D02*
X199928714Y-44682714D01*
X200219000Y-45517285D02*
X200799571Y-45517285D01*
X200944714Y-45227000D02*
X201307571Y-45227000D01*
X200872142Y-45444714D02*
X201126142Y-44682714D01*
X201380142Y-45444714D01*
X201851857Y-45698714D02*
X201670428Y-45698714D01*
X201670428Y-44610142D01*
X201851857Y-44610142D01*
X202541285Y-45444714D02*
X202105857Y-45444714D01*
X202323571Y-45444714D02*
X202323571Y-44682714D01*
X202251000Y-44791571D01*
X202178428Y-44864142D01*
X202105857Y-44900428D01*
X203230714Y-44682714D02*
X202867857Y-44682714D01*
X202831571Y-45045571D01*
X202867857Y-45009285D01*
X202940428Y-44973000D01*
X203121857Y-44973000D01*
X203194428Y-45009285D01*
X203230714Y-45045571D01*
X203267000Y-45118142D01*
X203267000Y-45299571D01*
X203230714Y-45372142D01*
X203194428Y-45408428D01*
X203121857Y-45444714D01*
X202940428Y-45444714D01*
X202867857Y-45408428D01*
X202831571Y-45372142D01*
X203521000Y-45698714D02*
X203702428Y-45698714D01*
X203702428Y-44610142D01*
X203521000Y-44610142D01*
X212075857Y-47146428D02*
X211422714Y-48126142D01*
X212583857Y-47545571D02*
X212692714Y-47581857D01*
X212729000Y-47618142D01*
X212765285Y-47690714D01*
X212765285Y-47799571D01*
X212729000Y-47872142D01*
X212692714Y-47908428D01*
X212620142Y-47944714D01*
X212329857Y-47944714D01*
X212329857Y-47182714D01*
X212583857Y-47182714D01*
X212656428Y-47219000D01*
X212692714Y-47255285D01*
X212729000Y-47327857D01*
X212729000Y-47400428D01*
X212692714Y-47473000D01*
X212656428Y-47509285D01*
X212583857Y-47545571D01*
X212329857Y-47545571D01*
X213237000Y-47182714D02*
X213382142Y-47182714D01*
X213454714Y-47219000D01*
X213527285Y-47291571D01*
X213563571Y-47436714D01*
X213563571Y-47690714D01*
X213527285Y-47835857D01*
X213454714Y-47908428D01*
X213382142Y-47944714D01*
X213237000Y-47944714D01*
X213164428Y-47908428D01*
X213091857Y-47835857D01*
X213055571Y-47690714D01*
X213055571Y-47436714D01*
X213091857Y-47291571D01*
X213164428Y-47219000D01*
X213237000Y-47182714D01*
X214035285Y-47182714D02*
X214180428Y-47182714D01*
X214253000Y-47219000D01*
X214325571Y-47291571D01*
X214361857Y-47436714D01*
X214361857Y-47690714D01*
X214325571Y-47835857D01*
X214253000Y-47908428D01*
X214180428Y-47944714D01*
X214035285Y-47944714D01*
X213962714Y-47908428D01*
X213890142Y-47835857D01*
X213853857Y-47690714D01*
X213853857Y-47436714D01*
X213890142Y-47291571D01*
X213962714Y-47219000D01*
X214035285Y-47182714D01*
X214579571Y-47182714D02*
X215015000Y-47182714D01*
X214797285Y-47944714D02*
X214797285Y-47182714D01*
X215087571Y-48017285D02*
X215668142Y-48017285D01*
X215813285Y-47727000D02*
X216176142Y-47727000D01*
X215740714Y-47944714D02*
X215994714Y-47182714D01*
X216248714Y-47944714D01*
X216865571Y-47944714D02*
X216502714Y-47944714D01*
X216502714Y-47182714D01*
X217119571Y-47182714D02*
X217119571Y-47799571D01*
X217155857Y-47872142D01*
X217192142Y-47908428D01*
X217264714Y-47944714D01*
X217409857Y-47944714D01*
X217482428Y-47908428D01*
X217518714Y-47872142D01*
X217555000Y-47799571D01*
X217555000Y-47182714D01*
X217736428Y-48017285D02*
X218317000Y-48017285D01*
X218425857Y-47182714D02*
X218607285Y-47944714D01*
X218752428Y-47400428D01*
X218897571Y-47944714D01*
X219079000Y-47182714D01*
X219804714Y-47944714D02*
X219550714Y-47581857D01*
X219369285Y-47944714D02*
X219369285Y-47182714D01*
X219659571Y-47182714D01*
X219732142Y-47219000D01*
X219768428Y-47255285D01*
X219804714Y-47327857D01*
X219804714Y-47436714D01*
X219768428Y-47509285D01*
X219732142Y-47545571D01*
X219659571Y-47581857D01*
X219369285Y-47581857D01*
X211907285Y-44970571D02*
X212016142Y-45006857D01*
X212052428Y-45043142D01*
X212088714Y-45115714D01*
X212088714Y-45224571D01*
X212052428Y-45297142D01*
X212016142Y-45333428D01*
X211943571Y-45369714D01*
X211653285Y-45369714D01*
X211653285Y-44607714D01*
X211907285Y-44607714D01*
X211979857Y-44644000D01*
X212016142Y-44680285D01*
X212052428Y-44752857D01*
X212052428Y-44825428D01*
X212016142Y-44898000D01*
X211979857Y-44934285D01*
X211907285Y-44970571D01*
X211653285Y-44970571D01*
X212560428Y-44607714D02*
X212705571Y-44607714D01*
X212778142Y-44644000D01*
X212850714Y-44716571D01*
X212887000Y-44861714D01*
X212887000Y-45115714D01*
X212850714Y-45260857D01*
X212778142Y-45333428D01*
X212705571Y-45369714D01*
X212560428Y-45369714D01*
X212487857Y-45333428D01*
X212415285Y-45260857D01*
X212379000Y-45115714D01*
X212379000Y-44861714D01*
X212415285Y-44716571D01*
X212487857Y-44644000D01*
X212560428Y-44607714D01*
X213358714Y-44607714D02*
X213503857Y-44607714D01*
X213576428Y-44644000D01*
X213649000Y-44716571D01*
X213685285Y-44861714D01*
X213685285Y-45115714D01*
X213649000Y-45260857D01*
X213576428Y-45333428D01*
X213503857Y-45369714D01*
X213358714Y-45369714D01*
X213286142Y-45333428D01*
X213213571Y-45260857D01*
X213177285Y-45115714D01*
X213177285Y-44861714D01*
X213213571Y-44716571D01*
X213286142Y-44644000D01*
X213358714Y-44607714D01*
X213903000Y-44607714D02*
X214338428Y-44607714D01*
X214120714Y-45369714D02*
X214120714Y-44607714D01*
X214411000Y-45442285D02*
X214991571Y-45442285D01*
X215136714Y-45152000D02*
X215499571Y-45152000D01*
X215064142Y-45369714D02*
X215318142Y-44607714D01*
X215572142Y-45369714D01*
X216189000Y-45369714D02*
X215826142Y-45369714D01*
X215826142Y-44607714D01*
X216443000Y-44607714D02*
X216443000Y-45224571D01*
X216479285Y-45297142D01*
X216515571Y-45333428D01*
X216588142Y-45369714D01*
X216733285Y-45369714D01*
X216805857Y-45333428D01*
X216842142Y-45297142D01*
X216878428Y-45224571D01*
X216878428Y-44607714D01*
X217059857Y-45442285D02*
X217640428Y-45442285D01*
X217821857Y-44970571D02*
X218075857Y-44970571D01*
X218184714Y-45369714D02*
X217821857Y-45369714D01*
X217821857Y-44607714D01*
X218184714Y-44607714D01*
X218511285Y-45369714D02*
X218511285Y-44607714D01*
X218946714Y-45369714D01*
X218946714Y-44607714D01*
D12*
X137950000Y-39975000D02*
G75*
G03X137950000Y-39975000I-75000J0D01*
G01*
X124000000Y-38750000D02*
G75*
G03X124000000Y-38750000I-75000J0D01*
G01*
X117025000Y-59275000D02*
G75*
G03X117025000Y-59275000I-75000J0D01*
G01*
X130175000Y-59275000D02*
G75*
G03X130175000Y-59275000I-75000J0D01*
G01*
X175825000Y-76625000D02*
G75*
G03X175825000Y-76625000I-75000J0D01*
G01*
X164825000Y-76650000D02*
G75*
G03X164825000Y-76650000I-75000J0D01*
G01*
X153875000Y-76600000D02*
G75*
G03X153875000Y-76600000I-75000J0D01*
G01*
X142625000Y-76775000D02*
G75*
G03X142625000Y-76775000I-75000J0D01*
G01*
X133925000Y-64625000D02*
G75*
G03X133925000Y-64625000I-75000J0D01*
G01*
X116925000Y-76650000D02*
G75*
G03X116925000Y-76650000I-75000J0D01*
G01*
X105950000Y-76700000D02*
G75*
G03X105950000Y-76700000I-75000J0D01*
G01*
X94925000Y-76675000D02*
G75*
G03X94925000Y-76675000I-75000J0D01*
G01*
X107900000Y-83600000D02*
G75*
G03X107900000Y-83600000I-75000J0D01*
G01*
X118000000Y-83625000D02*
G75*
G03X118000000Y-83625000I-75000J0D01*
G01*
X126725000Y-83625000D02*
G75*
G03X126725000Y-83625000I-75000J0D01*
G01*
X135075000Y-78775000D02*
G75*
G03X135075000Y-78775000I-75000J0D01*
G01*
X140525000Y-79350000D02*
G75*
G03X140525000Y-79350000I-75000J0D01*
G01*
X155100000Y-83725000D02*
G75*
G03X155100000Y-83725000I-75000J0D01*
G01*
X165025000Y-83800000D02*
G75*
G03X165025000Y-83800000I-75000J0D01*
G01*
X174925000Y-84025000D02*
G75*
G03X174925000Y-84025000I-75000J0D01*
G01*
X185025000Y-84125000D02*
G75*
G03X185025000Y-84125000I-75000J0D01*
G01*
X210950000Y-118150000D02*
G75*
G03X210950000Y-118150000I-75000J0D01*
G01*
X198725000Y-97925000D02*
G75*
G03X198725000Y-97925000I-75000J0D01*
G01*
X176250000Y-102800000D02*
G75*
G03X176250000Y-102800000I-75000J0D01*
G01*
X156125000Y-102775000D02*
G75*
G03X156125000Y-102775000I-75000J0D01*
G01*
X134025000Y-105350000D02*
G75*
G03X134025000Y-105350000I-75000J0D01*
G01*
X117325000Y-102750000D02*
G75*
G03X117325000Y-102750000I-75000J0D01*
G01*
X98250000Y-102775000D02*
G75*
G03X98250000Y-102775000I-75000J0D01*
G01*
X83300000Y-102600000D02*
G75*
G03X83300000Y-102600000I-75000J0D01*
G01*
X95075000Y-125675000D02*
G75*
G03X95075000Y-125675000I-75000J0D01*
G01*
X100025000Y-134325000D02*
G75*
G03X100025000Y-134325000I-75000J0D01*
G01*
X113075000Y-125700000D02*
G75*
G03X113075000Y-125700000I-75000J0D01*
G01*
X117700000Y-134325000D02*
G75*
G03X117700000Y-134325000I-75000J0D01*
G01*
X125175000Y-132950000D02*
G75*
G03X125175000Y-132950000I-75000J0D01*
G01*
X134125000Y-132925000D02*
G75*
G03X134125000Y-132925000I-75000J0D01*
G01*
X153100000Y-125575000D02*
G75*
G03X153100000Y-125575000I-75000J0D01*
G01*
X157150000Y-134300000D02*
G75*
G03X157150000Y-134300000I-75000J0D01*
G01*
X171225000Y-125675000D02*
G75*
G03X171225000Y-125675000I-75000J0D01*
G01*
X175600000Y-134300000D02*
G75*
G03X175600000Y-134300000I-75000J0D01*
G01*
X183175000Y-132925000D02*
G75*
G03X183175000Y-132925000I-75000J0D01*
G01*
X192150000Y-133075000D02*
G75*
G03X192150000Y-133075000I-75000J0D01*
G01*
X201225000Y-133175000D02*
G75*
G03X201225000Y-133175000I-75000J0D01*
G01*
X210175000Y-133225000D02*
G75*
G03X210175000Y-133225000I-75000J0D01*
G01*
D13*
G04 #@! TO.C,U35*
X215890000Y-73840000D02*
X200650000Y-73840000D01*
X200650000Y-73840000D02*
X198110000Y-76380000D01*
X198110000Y-94160000D02*
X215890000Y-94160000D01*
X215890000Y-73840000D02*
X215890000Y-94160000D01*
X198110000Y-76380000D02*
X198110000Y-94160000D01*
G04 #@! TO.C,U38*
X128550000Y-80775000D02*
X128550000Y-85225000D01*
X135450000Y-79250000D02*
X135450000Y-85225000D01*
D14*
G04 #@! TO.C,C1*
X211675000Y-124125000D02*
X211675000Y-124825000D01*
X210475000Y-124825000D02*
X210475000Y-124125000D01*
G04 #@! TO.C,C2*
X209050000Y-97575000D02*
X209750000Y-97575000D01*
X209750000Y-98775000D02*
X209050000Y-98775000D01*
G04 #@! TO.C,C3*
X210750000Y-110875000D02*
X210750000Y-111575000D01*
X209550000Y-111575000D02*
X209550000Y-110875000D01*
G04 #@! TO.C,C4*
X195450000Y-85525000D02*
X196150000Y-85525000D01*
X196150000Y-86725000D02*
X195450000Y-86725000D01*
G04 #@! TO.C,C5*
X194825000Y-60725000D02*
X194825000Y-61425000D01*
X193625000Y-61425000D02*
X193625000Y-60725000D01*
G04 #@! TO.C,C6*
X173050000Y-126700000D02*
X173050000Y-126000000D01*
X174250000Y-126000000D02*
X174250000Y-126700000D01*
G04 #@! TO.C,C7*
X156225000Y-125975000D02*
X156225000Y-126675000D01*
X155025000Y-126675000D02*
X155025000Y-125975000D01*
G04 #@! TO.C,C8*
X116250000Y-125975000D02*
X116250000Y-126675000D01*
X115050000Y-126675000D02*
X115050000Y-125975000D01*
G04 #@! TO.C,C9*
X98100000Y-125950000D02*
X98100000Y-126650000D01*
X96900000Y-126650000D02*
X96900000Y-125950000D01*
G04 #@! TO.C,C10*
X192475000Y-124650000D02*
X192475000Y-123950000D01*
X193675000Y-123950000D02*
X193675000Y-124650000D01*
G04 #@! TO.C,C11*
X183475000Y-124600000D02*
X183475000Y-123900000D01*
X184675000Y-123900000D02*
X184675000Y-124600000D01*
G04 #@! TO.C,C12*
X134175000Y-125950000D02*
X134175000Y-126650000D01*
X132975000Y-126650000D02*
X132975000Y-125950000D01*
G04 #@! TO.C,C13*
X124025000Y-126625000D02*
X124025000Y-125925000D01*
X125225000Y-125925000D02*
X125225000Y-126625000D01*
G04 #@! TO.C,C14*
X201300000Y-125875000D02*
X201300000Y-126575000D01*
X200100000Y-126575000D02*
X200100000Y-125875000D01*
G04 #@! TO.C,C16*
X132225000Y-75450000D02*
X132225000Y-74750000D01*
X133425000Y-74750000D02*
X133425000Y-75450000D01*
G04 #@! TO.C,C17*
X185200000Y-92125000D02*
X185200000Y-91425000D01*
X186400000Y-91425000D02*
X186400000Y-92125000D01*
G04 #@! TO.C,C19*
X165925000Y-91925000D02*
X165925000Y-92625000D01*
X164725000Y-92625000D02*
X164725000Y-91925000D01*
G04 #@! TO.C,C20*
X156350000Y-91325000D02*
X156350000Y-92025000D01*
X155150000Y-92025000D02*
X155150000Y-91325000D01*
G04 #@! TO.C,C21*
X128050000Y-91875000D02*
X128050000Y-91175000D01*
X129250000Y-91175000D02*
X129250000Y-91875000D01*
G04 #@! TO.C,C22*
X119350000Y-91425000D02*
X119350000Y-92125000D01*
X118150000Y-92125000D02*
X118150000Y-91425000D01*
G04 #@! TO.C,C23*
X109250000Y-91275000D02*
X109250000Y-91975000D01*
X108050000Y-91975000D02*
X108050000Y-91275000D01*
G04 #@! TO.C,C24*
X115325000Y-49425000D02*
X116025000Y-49425000D01*
X116025000Y-50625000D02*
X115325000Y-50625000D01*
G04 #@! TO.C,C25*
X129225000Y-50550000D02*
X129225000Y-51250000D01*
X128025000Y-51250000D02*
X128025000Y-50550000D01*
G04 #@! TO.C,C26*
X126625000Y-46600000D02*
X125925000Y-46600000D01*
X125925000Y-45400000D02*
X126625000Y-45400000D01*
G04 #@! TO.C,C27*
X136250000Y-49050000D02*
X136250000Y-48350000D01*
X137450000Y-48350000D02*
X137450000Y-49050000D01*
G04 #@! TO.C,C28*
X175600000Y-78050000D02*
X175600000Y-78750000D01*
X174400000Y-78750000D02*
X174400000Y-78050000D01*
G04 #@! TO.C,C29*
X163150000Y-78850000D02*
X163150000Y-78150000D01*
X164350000Y-78150000D02*
X164350000Y-78850000D01*
G04 #@! TO.C,C30*
X152400000Y-78875000D02*
X152400000Y-78175000D01*
X153600000Y-78175000D02*
X153600000Y-78875000D01*
G04 #@! TO.C,C32*
X115450000Y-78900000D02*
X115450000Y-78200000D01*
X116650000Y-78200000D02*
X116650000Y-78900000D01*
G04 #@! TO.C,C33*
X105625000Y-78275000D02*
X105625000Y-78975000D01*
X104425000Y-78975000D02*
X104425000Y-78275000D01*
G04 #@! TO.C,C34*
X94675000Y-78200000D02*
X94675000Y-78900000D01*
X93475000Y-78900000D02*
X93475000Y-78200000D01*
G04 #@! TO.C,C37*
X131475000Y-97600000D02*
X131475000Y-96900000D01*
X132675000Y-96900000D02*
X132675000Y-97600000D01*
G04 #@! TO.C,C40*
X178075000Y-108400000D02*
X178775000Y-108400000D01*
X178775000Y-109600000D02*
X178075000Y-109600000D01*
G04 #@! TO.C,C41*
X158550000Y-110450000D02*
X157850000Y-110450000D01*
X157850000Y-109250000D02*
X158550000Y-109250000D01*
G04 #@! TO.C,C42*
X119825000Y-109350000D02*
X120525000Y-109350000D01*
X120525000Y-110550000D02*
X119825000Y-110550000D01*
G04 #@! TO.C,C43*
X100625000Y-111025000D02*
X99925000Y-111025000D01*
X99925000Y-109825000D02*
X100625000Y-109825000D01*
G04 #@! TO.C,C44*
X85075000Y-108700000D02*
X85075000Y-109400000D01*
X83875000Y-109400000D02*
X83875000Y-108700000D01*
G04 #@! TO.C,C45*
X177050000Y-104375000D02*
X177050000Y-103675000D01*
X178250000Y-103675000D02*
X178250000Y-104375000D01*
G04 #@! TO.C,C46*
X167500000Y-103575000D02*
X167500000Y-104275000D01*
X166300000Y-104275000D02*
X166300000Y-103575000D01*
G04 #@! TO.C,C47*
X157175000Y-103900000D02*
X157175000Y-103200000D01*
X158375000Y-103200000D02*
X158375000Y-103900000D01*
G04 #@! TO.C,C48*
X147450000Y-103600000D02*
X147450000Y-104300000D01*
X146250000Y-104300000D02*
X146250000Y-103600000D01*
G04 #@! TO.C,C49*
X120175000Y-103375000D02*
X120175000Y-104075000D01*
X118975000Y-104075000D02*
X118975000Y-103375000D01*
G04 #@! TO.C,C50*
X109450000Y-103375000D02*
X109450000Y-104075000D01*
X108250000Y-104075000D02*
X108250000Y-103375000D01*
G04 #@! TO.C,C51*
X98800000Y-104325000D02*
X98800000Y-103625000D01*
X100000000Y-103625000D02*
X100000000Y-104325000D01*
G04 #@! TO.C,C52*
X88375000Y-103875000D02*
X88375000Y-103175000D01*
X89575000Y-103175000D02*
X89575000Y-103875000D01*
G04 #@! TO.C,C53*
X172950000Y-133375000D02*
X172950000Y-134075000D01*
X171750000Y-134075000D02*
X171750000Y-133375000D01*
G04 #@! TO.C,C54*
X153850000Y-134100000D02*
X153850000Y-133400000D01*
X155050000Y-133400000D02*
X155050000Y-134100000D01*
G04 #@! TO.C,C55*
X115025000Y-133400000D02*
X115025000Y-134100000D01*
X113825000Y-134100000D02*
X113825000Y-133400000D01*
G04 #@! TO.C,C56*
X96925000Y-133375000D02*
X96925000Y-134075000D01*
X95725000Y-134075000D02*
X95725000Y-133375000D01*
G04 #@! TO.C,C57*
X79755000Y-123270000D02*
X78985000Y-122510000D01*
X79755000Y-123270000D02*
X83565000Y-123270000D01*
X79755000Y-118700000D02*
X78985000Y-119460000D01*
X79755000Y-118700000D02*
X83565000Y-118700000D01*
X78985000Y-119460000D02*
X78985000Y-119870000D01*
X78985000Y-122510000D02*
X78985000Y-122100000D01*
X83565000Y-123270000D02*
X83565000Y-122100000D01*
X83565000Y-118700000D02*
X83565000Y-119870000D01*
G04 #@! TO.C,C58*
X210505000Y-107070000D02*
X209735000Y-106310000D01*
X210505000Y-107070000D02*
X214315000Y-107070000D01*
X210505000Y-102500000D02*
X209735000Y-103260000D01*
X210505000Y-102500000D02*
X214315000Y-102500000D01*
X209735000Y-103260000D02*
X209735000Y-103670000D01*
X209735000Y-106310000D02*
X209735000Y-105900000D01*
X214315000Y-107070000D02*
X214315000Y-105900000D01*
X214315000Y-102500000D02*
X214315000Y-103670000D01*
G04 #@! TO.C,C59*
X161690000Y-53675000D02*
X161690000Y-54845000D01*
X161690000Y-58245000D02*
X161690000Y-57075000D01*
X157110000Y-57485000D02*
X157110000Y-57075000D01*
X157110000Y-54435000D02*
X157110000Y-54845000D01*
X157880000Y-53675000D02*
X161690000Y-53675000D01*
X157880000Y-53675000D02*
X157110000Y-54435000D01*
X157880000Y-58245000D02*
X161690000Y-58245000D01*
X157880000Y-58245000D02*
X157110000Y-57485000D01*
G04 #@! TO.C,J1*
X204990000Y-43465000D02*
X204990000Y-44865000D01*
X206390000Y-43465000D02*
X204990000Y-43465000D01*
X205240000Y-51635000D02*
X205240000Y-44965000D01*
X210620000Y-51635000D02*
X205240000Y-51635000D01*
X210620000Y-43715000D02*
X210620000Y-51635000D01*
X206490000Y-43715000D02*
X210620000Y-43715000D01*
G04 #@! TO.C,P1*
X145600000Y-141500000D02*
X151400000Y-141500000D01*
X89950000Y-142950000D02*
X89950000Y-145200000D01*
X92850000Y-142950000D02*
G75*
G03X89950000Y-142950000I-1450000J0D01*
G01*
X105950000Y-142950000D02*
G75*
G03X104050000Y-142950000I-950000J0D01*
G01*
X104050000Y-145200000D02*
X104050000Y-142950000D01*
X105950000Y-142950000D02*
X105950000Y-145200000D01*
X92850000Y-145200000D02*
X104050000Y-145200000D01*
X104050000Y-145200000D02*
X104050000Y-151000000D01*
X104050000Y-151000000D02*
X92850000Y-151000000D01*
X92850000Y-151000000D02*
X92850000Y-142950000D01*
X144150000Y-145200000D02*
X105950000Y-145200000D01*
X105950000Y-151000000D02*
X144150000Y-151000000D01*
X105950000Y-145200000D02*
X105950000Y-151000000D01*
X144150000Y-142950000D02*
X144150000Y-151000000D01*
X145600000Y-141500000D02*
G75*
G03X144150000Y-142950000I0J-1450000D01*
G01*
X165950000Y-142950000D02*
X165950000Y-145200000D01*
X165950000Y-145200000D02*
X165950000Y-151000000D01*
X204150000Y-145200000D02*
X165950000Y-145200000D01*
X165950000Y-151000000D02*
X204150000Y-151000000D01*
X204150000Y-142950000D02*
X204150000Y-151000000D01*
X207050000Y-142950000D02*
G75*
G03X204150000Y-142950000I-1450000J0D01*
G01*
X207050000Y-142950000D02*
X207050000Y-145200000D01*
X164050000Y-145200000D02*
X164050000Y-151000000D01*
X165950000Y-142950000D02*
G75*
G03X164050000Y-142950000I-950000J0D01*
G01*
X164050000Y-145200000D02*
X164050000Y-142950000D01*
X164050000Y-151000000D02*
X152850000Y-151000000D01*
X152850000Y-145200000D02*
X164050000Y-145200000D01*
X152850000Y-142950000D02*
G75*
G03X151400000Y-141500000I-1450000J0D01*
G01*
X152850000Y-151000000D02*
X152850000Y-142950000D01*
G04 #@! TO.C,R1*
X204355000Y-106200000D02*
X204355000Y-107200000D01*
X202995000Y-107200000D02*
X202995000Y-106200000D01*
G04 #@! TO.C,R2*
X200605000Y-104850000D02*
X200605000Y-105850000D01*
X199245000Y-105850000D02*
X199245000Y-104850000D01*
D13*
G04 #@! TO.C,U1*
X210550000Y-133750000D02*
X210550000Y-127775000D01*
X217450000Y-132225000D02*
X217450000Y-127775000D01*
G04 #@! TO.C,U2*
X200675000Y-97500000D02*
X199325000Y-97500000D01*
X200675000Y-102625000D02*
X205325000Y-102625000D01*
X200675000Y-97375000D02*
X205325000Y-97375000D01*
X200675000Y-102625000D02*
X200675000Y-102400000D01*
X205325000Y-102625000D02*
X205325000Y-102400000D01*
X205325000Y-97375000D02*
X205325000Y-97600000D01*
X200675000Y-97375000D02*
X200675000Y-97500000D01*
G04 #@! TO.C,U3*
X211375000Y-117325000D02*
X211500000Y-117325000D01*
X211375000Y-112675000D02*
X211600000Y-112675000D01*
X216625000Y-112675000D02*
X216400000Y-112675000D01*
X216625000Y-117325000D02*
X216400000Y-117325000D01*
X211375000Y-117325000D02*
X211375000Y-112675000D01*
X216625000Y-117325000D02*
X216625000Y-112675000D01*
X211500000Y-117325000D02*
X211500000Y-118675000D01*
G04 #@! TO.C,U6*
X174550000Y-133750000D02*
X174550000Y-127775000D01*
X181450000Y-132225000D02*
X181450000Y-127775000D01*
G04 #@! TO.C,U7*
X163450000Y-132225000D02*
X163450000Y-127775000D01*
X156550000Y-133750000D02*
X156550000Y-127775000D01*
G04 #@! TO.C,U8*
X116550000Y-133750000D02*
X116550000Y-127775000D01*
X123450000Y-132225000D02*
X123450000Y-127775000D01*
G04 #@! TO.C,U9*
X105450000Y-132225000D02*
X105450000Y-127775000D01*
X98550000Y-133750000D02*
X98550000Y-127775000D01*
G04 #@! TO.C,U10*
X192550000Y-133750000D02*
X192550000Y-127775000D01*
X199450000Y-132225000D02*
X199450000Y-127775000D01*
G04 #@! TO.C,U11*
X190450000Y-132225000D02*
X190450000Y-127775000D01*
X183550000Y-133750000D02*
X183550000Y-127775000D01*
G04 #@! TO.C,U12*
X134550000Y-133750000D02*
X134550000Y-127775000D01*
X141450000Y-132225000D02*
X141450000Y-127775000D01*
G04 #@! TO.C,U13*
X132450000Y-132225000D02*
X132450000Y-127775000D01*
X125550000Y-133750000D02*
X125550000Y-127775000D01*
G04 #@! TO.C,U14*
X201550000Y-133750000D02*
X201550000Y-127775000D01*
X208450000Y-132225000D02*
X208450000Y-127775000D01*
G04 #@! TO.C,U15*
X185890000Y-33840000D02*
X170650000Y-33840000D01*
X170650000Y-33840000D02*
X168110000Y-36380000D01*
X168110000Y-54160000D02*
X185890000Y-54160000D01*
X185890000Y-33840000D02*
X185890000Y-54160000D01*
X168110000Y-36380000D02*
X168110000Y-54160000D01*
G04 #@! TO.C,U16*
X133450000Y-65250000D02*
X133450000Y-71225000D01*
X126550000Y-66775000D02*
X126550000Y-71225000D01*
G04 #@! TO.C,U17*
X177550000Y-85775000D02*
X177550000Y-90225000D01*
X184450000Y-84250000D02*
X184450000Y-90225000D01*
G04 #@! TO.C,U18*
X167550000Y-85775000D02*
X167550000Y-90225000D01*
X174450000Y-84250000D02*
X174450000Y-90225000D01*
G04 #@! TO.C,U19*
X164450000Y-84250000D02*
X164450000Y-90225000D01*
X157550000Y-85775000D02*
X157550000Y-90225000D01*
G04 #@! TO.C,U20*
X154450000Y-84250000D02*
X154450000Y-90225000D01*
X147550000Y-85775000D02*
X147550000Y-90225000D01*
G04 #@! TO.C,U21*
X120550000Y-85775000D02*
X120550000Y-90225000D01*
X127450000Y-84250000D02*
X127450000Y-90225000D01*
G04 #@! TO.C,U22*
X110550000Y-85775000D02*
X110550000Y-90225000D01*
X117450000Y-84250000D02*
X117450000Y-90225000D01*
G04 #@! TO.C,U23*
X107450000Y-84250000D02*
X107450000Y-90225000D01*
X100550000Y-85775000D02*
X100550000Y-90225000D01*
G04 #@! TO.C,U24*
X116550000Y-58750000D02*
X116550000Y-52775000D01*
X123450000Y-57225000D02*
X123450000Y-52775000D01*
G04 #@! TO.C,U25*
X136450000Y-57225000D02*
X136450000Y-52775000D01*
X129550000Y-58750000D02*
X129550000Y-52775000D01*
G04 #@! TO.C,U26*
X117550000Y-40775000D02*
X117550000Y-45225000D01*
X124450000Y-39250000D02*
X124450000Y-45225000D01*
G04 #@! TO.C,U27*
X130550000Y-40775000D02*
X130550000Y-45225000D01*
X137450000Y-39250000D02*
X137450000Y-45225000D01*
D15*
G04 #@! TO.C,U28*
X171500000Y-63000000D02*
X171500000Y-76250000D01*
D14*
X179000000Y-75000000D02*
X179000000Y-63000000D01*
D12*
X171200000Y-76800000D02*
G75*
G03X171200000Y-76800000I-100000J0D01*
G01*
G04 #@! TO.C,U29*
X160200000Y-76800000D02*
G75*
G03X160200000Y-76800000I-100000J0D01*
G01*
D14*
X168000000Y-75000000D02*
X168000000Y-63000000D01*
D15*
X160500000Y-63000000D02*
X160500000Y-76250000D01*
G04 #@! TO.C,U30*
X149500000Y-63000000D02*
X149500000Y-76250000D01*
D14*
X157000000Y-75000000D02*
X157000000Y-63000000D01*
D12*
X149200000Y-76800000D02*
G75*
G03X149200000Y-76800000I-100000J0D01*
G01*
G04 #@! TO.C,U31*
X138200000Y-76800000D02*
G75*
G03X138200000Y-76800000I-100000J0D01*
G01*
D14*
X146000000Y-75000000D02*
X146000000Y-63000000D01*
D15*
X138500000Y-63000000D02*
X138500000Y-76250000D01*
G04 #@! TO.C,U32*
X112500000Y-63000000D02*
X112500000Y-76250000D01*
D14*
X120000000Y-75000000D02*
X120000000Y-63000000D01*
D12*
X112200000Y-76800000D02*
G75*
G03X112200000Y-76800000I-100000J0D01*
G01*
G04 #@! TO.C,U33*
X101200000Y-76800000D02*
G75*
G03X101200000Y-76800000I-100000J0D01*
G01*
D14*
X109000000Y-75000000D02*
X109000000Y-63000000D01*
D15*
X101500000Y-63000000D02*
X101500000Y-76250000D01*
G04 #@! TO.C,U34*
X90500000Y-63000000D02*
X90500000Y-76250000D01*
D14*
X98000000Y-75000000D02*
X98000000Y-63000000D01*
D12*
X90200000Y-76800000D02*
G75*
G03X90200000Y-76800000I-100000J0D01*
G01*
D13*
G04 #@! TO.C,U36*
X67110000Y-78380000D02*
X67110000Y-96160000D01*
X84890000Y-75840000D02*
X84890000Y-96160000D01*
X67110000Y-96160000D02*
X84890000Y-96160000D01*
X69650000Y-75840000D02*
X67110000Y-78380000D01*
X84890000Y-75840000D02*
X69650000Y-75840000D01*
G04 #@! TO.C,U37*
X133550000Y-104750000D02*
X133550000Y-98775000D01*
X140450000Y-103225000D02*
X140450000Y-98775000D01*
D15*
G04 #@! TO.C,U39*
X144500000Y-93000000D02*
X144500000Y-79750000D01*
D14*
X137000000Y-81000000D02*
X137000000Y-93000000D01*
D12*
X145000000Y-79200000D02*
G75*
G03X145000000Y-79200000I-100000J0D01*
G01*
D13*
G04 #@! TO.C,U40*
X169550000Y-104775000D02*
X169550000Y-109225000D01*
X176450000Y-103250000D02*
X176450000Y-109225000D01*
G04 #@! TO.C,U41*
X156450000Y-103250000D02*
X156450000Y-109225000D01*
X149550000Y-104775000D02*
X149550000Y-109225000D01*
G04 #@! TO.C,U42*
X118450000Y-103250000D02*
X118450000Y-109225000D01*
X111550000Y-104775000D02*
X111550000Y-109225000D01*
G04 #@! TO.C,U43*
X98450000Y-103250000D02*
X98450000Y-109225000D01*
X91550000Y-104775000D02*
X91550000Y-109225000D01*
G04 #@! TO.C,U44*
X76550000Y-104775000D02*
X76550000Y-109225000D01*
X83450000Y-103250000D02*
X83450000Y-109225000D01*
G04 #@! TO.C,U53*
X164550000Y-127775000D02*
X164550000Y-132225000D01*
X171450000Y-126250000D02*
X171450000Y-132225000D01*
G04 #@! TO.C,U54*
X153450000Y-126250000D02*
X153450000Y-132225000D01*
X146550000Y-127775000D02*
X146550000Y-132225000D01*
G04 #@! TO.C,U55*
X106550000Y-127775000D02*
X106550000Y-132225000D01*
X113450000Y-126250000D02*
X113450000Y-132225000D01*
G04 #@! TO.C,U56*
X95450000Y-126250000D02*
X95450000Y-132225000D01*
X88550000Y-127775000D02*
X88550000Y-132225000D01*
G04 #@! TO.C,U35*
X205761904Y-95517380D02*
X205761904Y-96326904D01*
X205809523Y-96422142D01*
X205857142Y-96469761D01*
X205952380Y-96517380D01*
X206142857Y-96517380D01*
X206238095Y-96469761D01*
X206285714Y-96422142D01*
X206333333Y-96326904D01*
X206333333Y-95517380D01*
X206714285Y-95517380D02*
X207333333Y-95517380D01*
X207000000Y-95898333D01*
X207142857Y-95898333D01*
X207238095Y-95945952D01*
X207285714Y-95993571D01*
X207333333Y-96088809D01*
X207333333Y-96326904D01*
X207285714Y-96422142D01*
X207238095Y-96469761D01*
X207142857Y-96517380D01*
X206857142Y-96517380D01*
X206761904Y-96469761D01*
X206714285Y-96422142D01*
X208238095Y-95517380D02*
X207761904Y-95517380D01*
X207714285Y-95993571D01*
X207761904Y-95945952D01*
X207857142Y-95898333D01*
X208095238Y-95898333D01*
X208190476Y-95945952D01*
X208238095Y-95993571D01*
X208285714Y-96088809D01*
X208285714Y-96326904D01*
X208238095Y-96422142D01*
X208190476Y-96469761D01*
X208095238Y-96517380D01*
X207857142Y-96517380D01*
X207761904Y-96469761D01*
X207714285Y-96422142D01*
G04 #@! TO.C,U38*
X135752380Y-84238095D02*
X136561904Y-84238095D01*
X136657142Y-84190476D01*
X136704761Y-84142857D01*
X136752380Y-84047619D01*
X136752380Y-83857142D01*
X136704761Y-83761904D01*
X136657142Y-83714285D01*
X136561904Y-83666666D01*
X135752380Y-83666666D01*
X135752380Y-83285714D02*
X135752380Y-82666666D01*
X136133333Y-83000000D01*
X136133333Y-82857142D01*
X136180952Y-82761904D01*
X136228571Y-82714285D01*
X136323809Y-82666666D01*
X136561904Y-82666666D01*
X136657142Y-82714285D01*
X136704761Y-82761904D01*
X136752380Y-82857142D01*
X136752380Y-83142857D01*
X136704761Y-83238095D01*
X136657142Y-83285714D01*
X136180952Y-82095238D02*
X136133333Y-82190476D01*
X136085714Y-82238095D01*
X135990476Y-82285714D01*
X135942857Y-82285714D01*
X135847619Y-82238095D01*
X135800000Y-82190476D01*
X135752380Y-82095238D01*
X135752380Y-81904761D01*
X135800000Y-81809523D01*
X135847619Y-81761904D01*
X135942857Y-81714285D01*
X135990476Y-81714285D01*
X136085714Y-81761904D01*
X136133333Y-81809523D01*
X136180952Y-81904761D01*
X136180952Y-82095238D01*
X136228571Y-82190476D01*
X136276190Y-82238095D01*
X136371428Y-82285714D01*
X136561904Y-82285714D01*
X136657142Y-82238095D01*
X136704761Y-82190476D01*
X136752380Y-82095238D01*
X136752380Y-81904761D01*
X136704761Y-81809523D01*
X136657142Y-81761904D01*
X136561904Y-81714285D01*
X136371428Y-81714285D01*
X136276190Y-81761904D01*
X136228571Y-81809523D01*
X136180952Y-81904761D01*
G04 #@! TO.C,C1*
X209932142Y-124641666D02*
X209979761Y-124689285D01*
X210027380Y-124832142D01*
X210027380Y-124927380D01*
X209979761Y-125070238D01*
X209884523Y-125165476D01*
X209789285Y-125213095D01*
X209598809Y-125260714D01*
X209455952Y-125260714D01*
X209265476Y-125213095D01*
X209170238Y-125165476D01*
X209075000Y-125070238D01*
X209027380Y-124927380D01*
X209027380Y-124832142D01*
X209075000Y-124689285D01*
X209122619Y-124641666D01*
X210027380Y-123689285D02*
X210027380Y-124260714D01*
X210027380Y-123975000D02*
X209027380Y-123975000D01*
X209170238Y-124070238D01*
X209265476Y-124165476D01*
X209313095Y-124260714D01*
G04 #@! TO.C,C2*
X209208333Y-100057142D02*
X209160714Y-100104761D01*
X209017857Y-100152380D01*
X208922619Y-100152380D01*
X208779761Y-100104761D01*
X208684523Y-100009523D01*
X208636904Y-99914285D01*
X208589285Y-99723809D01*
X208589285Y-99580952D01*
X208636904Y-99390476D01*
X208684523Y-99295238D01*
X208779761Y-99200000D01*
X208922619Y-99152380D01*
X209017857Y-99152380D01*
X209160714Y-99200000D01*
X209208333Y-99247619D01*
X209589285Y-99247619D02*
X209636904Y-99200000D01*
X209732142Y-99152380D01*
X209970238Y-99152380D01*
X210065476Y-99200000D01*
X210113095Y-99247619D01*
X210160714Y-99342857D01*
X210160714Y-99438095D01*
X210113095Y-99580952D01*
X209541666Y-100152380D01*
X210160714Y-100152380D01*
G04 #@! TO.C,C3*
X209007142Y-111391666D02*
X209054761Y-111439285D01*
X209102380Y-111582142D01*
X209102380Y-111677380D01*
X209054761Y-111820238D01*
X208959523Y-111915476D01*
X208864285Y-111963095D01*
X208673809Y-112010714D01*
X208530952Y-112010714D01*
X208340476Y-111963095D01*
X208245238Y-111915476D01*
X208150000Y-111820238D01*
X208102380Y-111677380D01*
X208102380Y-111582142D01*
X208150000Y-111439285D01*
X208197619Y-111391666D01*
X208102380Y-111058333D02*
X208102380Y-110439285D01*
X208483333Y-110772619D01*
X208483333Y-110629761D01*
X208530952Y-110534523D01*
X208578571Y-110486904D01*
X208673809Y-110439285D01*
X208911904Y-110439285D01*
X209007142Y-110486904D01*
X209054761Y-110534523D01*
X209102380Y-110629761D01*
X209102380Y-110915476D01*
X209054761Y-111010714D01*
X209007142Y-111058333D01*
G04 #@! TO.C,C4*
X195583333Y-88007142D02*
X195535714Y-88054761D01*
X195392857Y-88102380D01*
X195297619Y-88102380D01*
X195154761Y-88054761D01*
X195059523Y-87959523D01*
X195011904Y-87864285D01*
X194964285Y-87673809D01*
X194964285Y-87530952D01*
X195011904Y-87340476D01*
X195059523Y-87245238D01*
X195154761Y-87150000D01*
X195297619Y-87102380D01*
X195392857Y-87102380D01*
X195535714Y-87150000D01*
X195583333Y-87197619D01*
X196440476Y-87435714D02*
X196440476Y-88102380D01*
X196202380Y-87054761D02*
X195964285Y-87769047D01*
X196583333Y-87769047D01*
G04 #@! TO.C,C5*
X193082142Y-61241666D02*
X193129761Y-61289285D01*
X193177380Y-61432142D01*
X193177380Y-61527380D01*
X193129761Y-61670238D01*
X193034523Y-61765476D01*
X192939285Y-61813095D01*
X192748809Y-61860714D01*
X192605952Y-61860714D01*
X192415476Y-61813095D01*
X192320238Y-61765476D01*
X192225000Y-61670238D01*
X192177380Y-61527380D01*
X192177380Y-61432142D01*
X192225000Y-61289285D01*
X192272619Y-61241666D01*
X192177380Y-60336904D02*
X192177380Y-60813095D01*
X192653571Y-60860714D01*
X192605952Y-60813095D01*
X192558333Y-60717857D01*
X192558333Y-60479761D01*
X192605952Y-60384523D01*
X192653571Y-60336904D01*
X192748809Y-60289285D01*
X192986904Y-60289285D01*
X193082142Y-60336904D01*
X193129761Y-60384523D01*
X193177380Y-60479761D01*
X193177380Y-60717857D01*
X193129761Y-60813095D01*
X193082142Y-60860714D01*
G04 #@! TO.C,C6*
X172507142Y-126516666D02*
X172554761Y-126564285D01*
X172602380Y-126707142D01*
X172602380Y-126802380D01*
X172554761Y-126945238D01*
X172459523Y-127040476D01*
X172364285Y-127088095D01*
X172173809Y-127135714D01*
X172030952Y-127135714D01*
X171840476Y-127088095D01*
X171745238Y-127040476D01*
X171650000Y-126945238D01*
X171602380Y-126802380D01*
X171602380Y-126707142D01*
X171650000Y-126564285D01*
X171697619Y-126516666D01*
X171602380Y-125659523D02*
X171602380Y-125850000D01*
X171650000Y-125945238D01*
X171697619Y-125992857D01*
X171840476Y-126088095D01*
X172030952Y-126135714D01*
X172411904Y-126135714D01*
X172507142Y-126088095D01*
X172554761Y-126040476D01*
X172602380Y-125945238D01*
X172602380Y-125754761D01*
X172554761Y-125659523D01*
X172507142Y-125611904D01*
X172411904Y-125564285D01*
X172173809Y-125564285D01*
X172078571Y-125611904D01*
X172030952Y-125659523D01*
X171983333Y-125754761D01*
X171983333Y-125945238D01*
X172030952Y-126040476D01*
X172078571Y-126088095D01*
X172173809Y-126135714D01*
G04 #@! TO.C,C7*
X154482142Y-126491666D02*
X154529761Y-126539285D01*
X154577380Y-126682142D01*
X154577380Y-126777380D01*
X154529761Y-126920238D01*
X154434523Y-127015476D01*
X154339285Y-127063095D01*
X154148809Y-127110714D01*
X154005952Y-127110714D01*
X153815476Y-127063095D01*
X153720238Y-127015476D01*
X153625000Y-126920238D01*
X153577380Y-126777380D01*
X153577380Y-126682142D01*
X153625000Y-126539285D01*
X153672619Y-126491666D01*
X153577380Y-126158333D02*
X153577380Y-125491666D01*
X154577380Y-125920238D01*
G04 #@! TO.C,C8*
X114507142Y-126491666D02*
X114554761Y-126539285D01*
X114602380Y-126682142D01*
X114602380Y-126777380D01*
X114554761Y-126920238D01*
X114459523Y-127015476D01*
X114364285Y-127063095D01*
X114173809Y-127110714D01*
X114030952Y-127110714D01*
X113840476Y-127063095D01*
X113745238Y-127015476D01*
X113650000Y-126920238D01*
X113602380Y-126777380D01*
X113602380Y-126682142D01*
X113650000Y-126539285D01*
X113697619Y-126491666D01*
X114030952Y-125920238D02*
X113983333Y-126015476D01*
X113935714Y-126063095D01*
X113840476Y-126110714D01*
X113792857Y-126110714D01*
X113697619Y-126063095D01*
X113650000Y-126015476D01*
X113602380Y-125920238D01*
X113602380Y-125729761D01*
X113650000Y-125634523D01*
X113697619Y-125586904D01*
X113792857Y-125539285D01*
X113840476Y-125539285D01*
X113935714Y-125586904D01*
X113983333Y-125634523D01*
X114030952Y-125729761D01*
X114030952Y-125920238D01*
X114078571Y-126015476D01*
X114126190Y-126063095D01*
X114221428Y-126110714D01*
X114411904Y-126110714D01*
X114507142Y-126063095D01*
X114554761Y-126015476D01*
X114602380Y-125920238D01*
X114602380Y-125729761D01*
X114554761Y-125634523D01*
X114507142Y-125586904D01*
X114411904Y-125539285D01*
X114221428Y-125539285D01*
X114126190Y-125586904D01*
X114078571Y-125634523D01*
X114030952Y-125729761D01*
G04 #@! TO.C,C9*
X96357142Y-126466666D02*
X96404761Y-126514285D01*
X96452380Y-126657142D01*
X96452380Y-126752380D01*
X96404761Y-126895238D01*
X96309523Y-126990476D01*
X96214285Y-127038095D01*
X96023809Y-127085714D01*
X95880952Y-127085714D01*
X95690476Y-127038095D01*
X95595238Y-126990476D01*
X95500000Y-126895238D01*
X95452380Y-126752380D01*
X95452380Y-126657142D01*
X95500000Y-126514285D01*
X95547619Y-126466666D01*
X96452380Y-125990476D02*
X96452380Y-125800000D01*
X96404761Y-125704761D01*
X96357142Y-125657142D01*
X96214285Y-125561904D01*
X96023809Y-125514285D01*
X95642857Y-125514285D01*
X95547619Y-125561904D01*
X95500000Y-125609523D01*
X95452380Y-125704761D01*
X95452380Y-125895238D01*
X95500000Y-125990476D01*
X95547619Y-126038095D01*
X95642857Y-126085714D01*
X95880952Y-126085714D01*
X95976190Y-126038095D01*
X96023809Y-125990476D01*
X96071428Y-125895238D01*
X96071428Y-125704761D01*
X96023809Y-125609523D01*
X95976190Y-125561904D01*
X95880952Y-125514285D01*
G04 #@! TO.C,C10*
X191932142Y-124942857D02*
X191979761Y-124990476D01*
X192027380Y-125133333D01*
X192027380Y-125228571D01*
X191979761Y-125371428D01*
X191884523Y-125466666D01*
X191789285Y-125514285D01*
X191598809Y-125561904D01*
X191455952Y-125561904D01*
X191265476Y-125514285D01*
X191170238Y-125466666D01*
X191075000Y-125371428D01*
X191027380Y-125228571D01*
X191027380Y-125133333D01*
X191075000Y-124990476D01*
X191122619Y-124942857D01*
X192027380Y-123990476D02*
X192027380Y-124561904D01*
X192027380Y-124276190D02*
X191027380Y-124276190D01*
X191170238Y-124371428D01*
X191265476Y-124466666D01*
X191313095Y-124561904D01*
X191027380Y-123371428D02*
X191027380Y-123276190D01*
X191075000Y-123180952D01*
X191122619Y-123133333D01*
X191217857Y-123085714D01*
X191408333Y-123038095D01*
X191646428Y-123038095D01*
X191836904Y-123085714D01*
X191932142Y-123133333D01*
X191979761Y-123180952D01*
X192027380Y-123276190D01*
X192027380Y-123371428D01*
X191979761Y-123466666D01*
X191932142Y-123514285D01*
X191836904Y-123561904D01*
X191646428Y-123609523D01*
X191408333Y-123609523D01*
X191217857Y-123561904D01*
X191122619Y-123514285D01*
X191075000Y-123466666D01*
X191027380Y-123371428D01*
G04 #@! TO.C,C11*
X182932142Y-124892857D02*
X182979761Y-124940476D01*
X183027380Y-125083333D01*
X183027380Y-125178571D01*
X182979761Y-125321428D01*
X182884523Y-125416666D01*
X182789285Y-125464285D01*
X182598809Y-125511904D01*
X182455952Y-125511904D01*
X182265476Y-125464285D01*
X182170238Y-125416666D01*
X182075000Y-125321428D01*
X182027380Y-125178571D01*
X182027380Y-125083333D01*
X182075000Y-124940476D01*
X182122619Y-124892857D01*
X183027380Y-123940476D02*
X183027380Y-124511904D01*
X183027380Y-124226190D02*
X182027380Y-124226190D01*
X182170238Y-124321428D01*
X182265476Y-124416666D01*
X182313095Y-124511904D01*
X183027380Y-122988095D02*
X183027380Y-123559523D01*
X183027380Y-123273809D02*
X182027380Y-123273809D01*
X182170238Y-123369047D01*
X182265476Y-123464285D01*
X182313095Y-123559523D01*
G04 #@! TO.C,C12*
X133982142Y-123942857D02*
X134029761Y-123990476D01*
X134077380Y-124133333D01*
X134077380Y-124228571D01*
X134029761Y-124371428D01*
X133934523Y-124466666D01*
X133839285Y-124514285D01*
X133648809Y-124561904D01*
X133505952Y-124561904D01*
X133315476Y-124514285D01*
X133220238Y-124466666D01*
X133125000Y-124371428D01*
X133077380Y-124228571D01*
X133077380Y-124133333D01*
X133125000Y-123990476D01*
X133172619Y-123942857D01*
X134077380Y-122990476D02*
X134077380Y-123561904D01*
X134077380Y-123276190D02*
X133077380Y-123276190D01*
X133220238Y-123371428D01*
X133315476Y-123466666D01*
X133363095Y-123561904D01*
X133172619Y-122609523D02*
X133125000Y-122561904D01*
X133077380Y-122466666D01*
X133077380Y-122228571D01*
X133125000Y-122133333D01*
X133172619Y-122085714D01*
X133267857Y-122038095D01*
X133363095Y-122038095D01*
X133505952Y-122085714D01*
X134077380Y-122657142D01*
X134077380Y-122038095D01*
G04 #@! TO.C,C13*
X125057142Y-123992857D02*
X125104761Y-124040476D01*
X125152380Y-124183333D01*
X125152380Y-124278571D01*
X125104761Y-124421428D01*
X125009523Y-124516666D01*
X124914285Y-124564285D01*
X124723809Y-124611904D01*
X124580952Y-124611904D01*
X124390476Y-124564285D01*
X124295238Y-124516666D01*
X124200000Y-124421428D01*
X124152380Y-124278571D01*
X124152380Y-124183333D01*
X124200000Y-124040476D01*
X124247619Y-123992857D01*
X125152380Y-123040476D02*
X125152380Y-123611904D01*
X125152380Y-123326190D02*
X124152380Y-123326190D01*
X124295238Y-123421428D01*
X124390476Y-123516666D01*
X124438095Y-123611904D01*
X124152380Y-122707142D02*
X124152380Y-122088095D01*
X124533333Y-122421428D01*
X124533333Y-122278571D01*
X124580952Y-122183333D01*
X124628571Y-122135714D01*
X124723809Y-122088095D01*
X124961904Y-122088095D01*
X125057142Y-122135714D01*
X125104761Y-122183333D01*
X125152380Y-122278571D01*
X125152380Y-122564285D01*
X125104761Y-122659523D01*
X125057142Y-122707142D01*
G04 #@! TO.C,C14*
X201082142Y-123917857D02*
X201129761Y-123965476D01*
X201177380Y-124108333D01*
X201177380Y-124203571D01*
X201129761Y-124346428D01*
X201034523Y-124441666D01*
X200939285Y-124489285D01*
X200748809Y-124536904D01*
X200605952Y-124536904D01*
X200415476Y-124489285D01*
X200320238Y-124441666D01*
X200225000Y-124346428D01*
X200177380Y-124203571D01*
X200177380Y-124108333D01*
X200225000Y-123965476D01*
X200272619Y-123917857D01*
X201177380Y-122965476D02*
X201177380Y-123536904D01*
X201177380Y-123251190D02*
X200177380Y-123251190D01*
X200320238Y-123346428D01*
X200415476Y-123441666D01*
X200463095Y-123536904D01*
X200510714Y-122108333D02*
X201177380Y-122108333D01*
X200129761Y-122346428D02*
X200844047Y-122584523D01*
X200844047Y-121965476D01*
G04 #@! TO.C,C16*
X134682142Y-75742857D02*
X134729761Y-75790476D01*
X134777380Y-75933333D01*
X134777380Y-76028571D01*
X134729761Y-76171428D01*
X134634523Y-76266666D01*
X134539285Y-76314285D01*
X134348809Y-76361904D01*
X134205952Y-76361904D01*
X134015476Y-76314285D01*
X133920238Y-76266666D01*
X133825000Y-76171428D01*
X133777380Y-76028571D01*
X133777380Y-75933333D01*
X133825000Y-75790476D01*
X133872619Y-75742857D01*
X134777380Y-74790476D02*
X134777380Y-75361904D01*
X134777380Y-75076190D02*
X133777380Y-75076190D01*
X133920238Y-75171428D01*
X134015476Y-75266666D01*
X134063095Y-75361904D01*
X133777380Y-73933333D02*
X133777380Y-74123809D01*
X133825000Y-74219047D01*
X133872619Y-74266666D01*
X134015476Y-74361904D01*
X134205952Y-74409523D01*
X134586904Y-74409523D01*
X134682142Y-74361904D01*
X134729761Y-74314285D01*
X134777380Y-74219047D01*
X134777380Y-74028571D01*
X134729761Y-73933333D01*
X134682142Y-73885714D01*
X134586904Y-73838095D01*
X134348809Y-73838095D01*
X134253571Y-73885714D01*
X134205952Y-73933333D01*
X134158333Y-74028571D01*
X134158333Y-74219047D01*
X134205952Y-74314285D01*
X134253571Y-74361904D01*
X134348809Y-74409523D01*
G04 #@! TO.C,C17*
X187657142Y-92417857D02*
X187704761Y-92465476D01*
X187752380Y-92608333D01*
X187752380Y-92703571D01*
X187704761Y-92846428D01*
X187609523Y-92941666D01*
X187514285Y-92989285D01*
X187323809Y-93036904D01*
X187180952Y-93036904D01*
X186990476Y-92989285D01*
X186895238Y-92941666D01*
X186800000Y-92846428D01*
X186752380Y-92703571D01*
X186752380Y-92608333D01*
X186800000Y-92465476D01*
X186847619Y-92417857D01*
X187752380Y-91465476D02*
X187752380Y-92036904D01*
X187752380Y-91751190D02*
X186752380Y-91751190D01*
X186895238Y-91846428D01*
X186990476Y-91941666D01*
X187038095Y-92036904D01*
X186752380Y-91132142D02*
X186752380Y-90465476D01*
X187752380Y-90894047D01*
G04 #@! TO.C,C19*
X164332142Y-94317857D02*
X164379761Y-94365476D01*
X164427380Y-94508333D01*
X164427380Y-94603571D01*
X164379761Y-94746428D01*
X164284523Y-94841666D01*
X164189285Y-94889285D01*
X163998809Y-94936904D01*
X163855952Y-94936904D01*
X163665476Y-94889285D01*
X163570238Y-94841666D01*
X163475000Y-94746428D01*
X163427380Y-94603571D01*
X163427380Y-94508333D01*
X163475000Y-94365476D01*
X163522619Y-94317857D01*
X164427380Y-93365476D02*
X164427380Y-93936904D01*
X164427380Y-93651190D02*
X163427380Y-93651190D01*
X163570238Y-93746428D01*
X163665476Y-93841666D01*
X163713095Y-93936904D01*
X164427380Y-92889285D02*
X164427380Y-92698809D01*
X164379761Y-92603571D01*
X164332142Y-92555952D01*
X164189285Y-92460714D01*
X163998809Y-92413095D01*
X163617857Y-92413095D01*
X163522619Y-92460714D01*
X163475000Y-92508333D01*
X163427380Y-92603571D01*
X163427380Y-92794047D01*
X163475000Y-92889285D01*
X163522619Y-92936904D01*
X163617857Y-92984523D01*
X163855952Y-92984523D01*
X163951190Y-92936904D01*
X163998809Y-92889285D01*
X164046428Y-92794047D01*
X164046428Y-92603571D01*
X163998809Y-92508333D01*
X163951190Y-92460714D01*
X163855952Y-92413095D01*
G04 #@! TO.C,C20*
X157607142Y-92317857D02*
X157654761Y-92365476D01*
X157702380Y-92508333D01*
X157702380Y-92603571D01*
X157654761Y-92746428D01*
X157559523Y-92841666D01*
X157464285Y-92889285D01*
X157273809Y-92936904D01*
X157130952Y-92936904D01*
X156940476Y-92889285D01*
X156845238Y-92841666D01*
X156750000Y-92746428D01*
X156702380Y-92603571D01*
X156702380Y-92508333D01*
X156750000Y-92365476D01*
X156797619Y-92317857D01*
X156797619Y-91936904D02*
X156750000Y-91889285D01*
X156702380Y-91794047D01*
X156702380Y-91555952D01*
X156750000Y-91460714D01*
X156797619Y-91413095D01*
X156892857Y-91365476D01*
X156988095Y-91365476D01*
X157130952Y-91413095D01*
X157702380Y-91984523D01*
X157702380Y-91365476D01*
X156702380Y-90746428D02*
X156702380Y-90651190D01*
X156750000Y-90555952D01*
X156797619Y-90508333D01*
X156892857Y-90460714D01*
X157083333Y-90413095D01*
X157321428Y-90413095D01*
X157511904Y-90460714D01*
X157607142Y-90508333D01*
X157654761Y-90555952D01*
X157702380Y-90651190D01*
X157702380Y-90746428D01*
X157654761Y-90841666D01*
X157607142Y-90889285D01*
X157511904Y-90936904D01*
X157321428Y-90984523D01*
X157083333Y-90984523D01*
X156892857Y-90936904D01*
X156797619Y-90889285D01*
X156750000Y-90841666D01*
X156702380Y-90746428D01*
G04 #@! TO.C,C21*
X130507142Y-92167857D02*
X130554761Y-92215476D01*
X130602380Y-92358333D01*
X130602380Y-92453571D01*
X130554761Y-92596428D01*
X130459523Y-92691666D01*
X130364285Y-92739285D01*
X130173809Y-92786904D01*
X130030952Y-92786904D01*
X129840476Y-92739285D01*
X129745238Y-92691666D01*
X129650000Y-92596428D01*
X129602380Y-92453571D01*
X129602380Y-92358333D01*
X129650000Y-92215476D01*
X129697619Y-92167857D01*
X129697619Y-91786904D02*
X129650000Y-91739285D01*
X129602380Y-91644047D01*
X129602380Y-91405952D01*
X129650000Y-91310714D01*
X129697619Y-91263095D01*
X129792857Y-91215476D01*
X129888095Y-91215476D01*
X130030952Y-91263095D01*
X130602380Y-91834523D01*
X130602380Y-91215476D01*
X130602380Y-90263095D02*
X130602380Y-90834523D01*
X130602380Y-90548809D02*
X129602380Y-90548809D01*
X129745238Y-90644047D01*
X129840476Y-90739285D01*
X129888095Y-90834523D01*
G04 #@! TO.C,C22*
X119032142Y-95342857D02*
X119079761Y-95390476D01*
X119127380Y-95533333D01*
X119127380Y-95628571D01*
X119079761Y-95771428D01*
X118984523Y-95866666D01*
X118889285Y-95914285D01*
X118698809Y-95961904D01*
X118555952Y-95961904D01*
X118365476Y-95914285D01*
X118270238Y-95866666D01*
X118175000Y-95771428D01*
X118127380Y-95628571D01*
X118127380Y-95533333D01*
X118175000Y-95390476D01*
X118222619Y-95342857D01*
X118222619Y-94961904D02*
X118175000Y-94914285D01*
X118127380Y-94819047D01*
X118127380Y-94580952D01*
X118175000Y-94485714D01*
X118222619Y-94438095D01*
X118317857Y-94390476D01*
X118413095Y-94390476D01*
X118555952Y-94438095D01*
X119127380Y-95009523D01*
X119127380Y-94390476D01*
X118222619Y-94009523D02*
X118175000Y-93961904D01*
X118127380Y-93866666D01*
X118127380Y-93628571D01*
X118175000Y-93533333D01*
X118222619Y-93485714D01*
X118317857Y-93438095D01*
X118413095Y-93438095D01*
X118555952Y-93485714D01*
X119127380Y-94057142D01*
X119127380Y-93438095D01*
G04 #@! TO.C,C23*
X109082142Y-95267857D02*
X109129761Y-95315476D01*
X109177380Y-95458333D01*
X109177380Y-95553571D01*
X109129761Y-95696428D01*
X109034523Y-95791666D01*
X108939285Y-95839285D01*
X108748809Y-95886904D01*
X108605952Y-95886904D01*
X108415476Y-95839285D01*
X108320238Y-95791666D01*
X108225000Y-95696428D01*
X108177380Y-95553571D01*
X108177380Y-95458333D01*
X108225000Y-95315476D01*
X108272619Y-95267857D01*
X108272619Y-94886904D02*
X108225000Y-94839285D01*
X108177380Y-94744047D01*
X108177380Y-94505952D01*
X108225000Y-94410714D01*
X108272619Y-94363095D01*
X108367857Y-94315476D01*
X108463095Y-94315476D01*
X108605952Y-94363095D01*
X109177380Y-94934523D01*
X109177380Y-94315476D01*
X108177380Y-93982142D02*
X108177380Y-93363095D01*
X108558333Y-93696428D01*
X108558333Y-93553571D01*
X108605952Y-93458333D01*
X108653571Y-93410714D01*
X108748809Y-93363095D01*
X108986904Y-93363095D01*
X109082142Y-93410714D01*
X109129761Y-93458333D01*
X109177380Y-93553571D01*
X109177380Y-93839285D01*
X109129761Y-93934523D01*
X109082142Y-93982142D01*
G04 #@! TO.C,C24*
X114982142Y-48857142D02*
X114934523Y-48904761D01*
X114791666Y-48952380D01*
X114696428Y-48952380D01*
X114553571Y-48904761D01*
X114458333Y-48809523D01*
X114410714Y-48714285D01*
X114363095Y-48523809D01*
X114363095Y-48380952D01*
X114410714Y-48190476D01*
X114458333Y-48095238D01*
X114553571Y-48000000D01*
X114696428Y-47952380D01*
X114791666Y-47952380D01*
X114934523Y-48000000D01*
X114982142Y-48047619D01*
X115363095Y-48047619D02*
X115410714Y-48000000D01*
X115505952Y-47952380D01*
X115744047Y-47952380D01*
X115839285Y-48000000D01*
X115886904Y-48047619D01*
X115934523Y-48142857D01*
X115934523Y-48238095D01*
X115886904Y-48380952D01*
X115315476Y-48952380D01*
X115934523Y-48952380D01*
X116791666Y-48285714D02*
X116791666Y-48952380D01*
X116553571Y-47904761D02*
X116315476Y-48619047D01*
X116934523Y-48619047D01*
G04 #@! TO.C,C25*
X127582142Y-52892857D02*
X127629761Y-52940476D01*
X127677380Y-53083333D01*
X127677380Y-53178571D01*
X127629761Y-53321428D01*
X127534523Y-53416666D01*
X127439285Y-53464285D01*
X127248809Y-53511904D01*
X127105952Y-53511904D01*
X126915476Y-53464285D01*
X126820238Y-53416666D01*
X126725000Y-53321428D01*
X126677380Y-53178571D01*
X126677380Y-53083333D01*
X126725000Y-52940476D01*
X126772619Y-52892857D01*
X126772619Y-52511904D02*
X126725000Y-52464285D01*
X126677380Y-52369047D01*
X126677380Y-52130952D01*
X126725000Y-52035714D01*
X126772619Y-51988095D01*
X126867857Y-51940476D01*
X126963095Y-51940476D01*
X127105952Y-51988095D01*
X127677380Y-52559523D01*
X127677380Y-51940476D01*
X126677380Y-51035714D02*
X126677380Y-51511904D01*
X127153571Y-51559523D01*
X127105952Y-51511904D01*
X127058333Y-51416666D01*
X127058333Y-51178571D01*
X127105952Y-51083333D01*
X127153571Y-51035714D01*
X127248809Y-50988095D01*
X127486904Y-50988095D01*
X127582142Y-51035714D01*
X127629761Y-51083333D01*
X127677380Y-51178571D01*
X127677380Y-51416666D01*
X127629761Y-51511904D01*
X127582142Y-51559523D01*
G04 #@! TO.C,C26*
X125532142Y-47957142D02*
X125484523Y-48004761D01*
X125341666Y-48052380D01*
X125246428Y-48052380D01*
X125103571Y-48004761D01*
X125008333Y-47909523D01*
X124960714Y-47814285D01*
X124913095Y-47623809D01*
X124913095Y-47480952D01*
X124960714Y-47290476D01*
X125008333Y-47195238D01*
X125103571Y-47100000D01*
X125246428Y-47052380D01*
X125341666Y-47052380D01*
X125484523Y-47100000D01*
X125532142Y-47147619D01*
X125913095Y-47147619D02*
X125960714Y-47100000D01*
X126055952Y-47052380D01*
X126294047Y-47052380D01*
X126389285Y-47100000D01*
X126436904Y-47147619D01*
X126484523Y-47242857D01*
X126484523Y-47338095D01*
X126436904Y-47480952D01*
X125865476Y-48052380D01*
X126484523Y-48052380D01*
X127341666Y-47052380D02*
X127151190Y-47052380D01*
X127055952Y-47100000D01*
X127008333Y-47147619D01*
X126913095Y-47290476D01*
X126865476Y-47480952D01*
X126865476Y-47861904D01*
X126913095Y-47957142D01*
X126960714Y-48004761D01*
X127055952Y-48052380D01*
X127246428Y-48052380D01*
X127341666Y-48004761D01*
X127389285Y-47957142D01*
X127436904Y-47861904D01*
X127436904Y-47623809D01*
X127389285Y-47528571D01*
X127341666Y-47480952D01*
X127246428Y-47433333D01*
X127055952Y-47433333D01*
X126960714Y-47480952D01*
X126913095Y-47528571D01*
X126865476Y-47623809D01*
G04 #@! TO.C,C27*
X138707142Y-49342857D02*
X138754761Y-49390476D01*
X138802380Y-49533333D01*
X138802380Y-49628571D01*
X138754761Y-49771428D01*
X138659523Y-49866666D01*
X138564285Y-49914285D01*
X138373809Y-49961904D01*
X138230952Y-49961904D01*
X138040476Y-49914285D01*
X137945238Y-49866666D01*
X137850000Y-49771428D01*
X137802380Y-49628571D01*
X137802380Y-49533333D01*
X137850000Y-49390476D01*
X137897619Y-49342857D01*
X137897619Y-48961904D02*
X137850000Y-48914285D01*
X137802380Y-48819047D01*
X137802380Y-48580952D01*
X137850000Y-48485714D01*
X137897619Y-48438095D01*
X137992857Y-48390476D01*
X138088095Y-48390476D01*
X138230952Y-48438095D01*
X138802380Y-49009523D01*
X138802380Y-48390476D01*
X137802380Y-48057142D02*
X137802380Y-47390476D01*
X138802380Y-47819047D01*
G04 #@! TO.C,C28*
X176857142Y-79042857D02*
X176904761Y-79090476D01*
X176952380Y-79233333D01*
X176952380Y-79328571D01*
X176904761Y-79471428D01*
X176809523Y-79566666D01*
X176714285Y-79614285D01*
X176523809Y-79661904D01*
X176380952Y-79661904D01*
X176190476Y-79614285D01*
X176095238Y-79566666D01*
X176000000Y-79471428D01*
X175952380Y-79328571D01*
X175952380Y-79233333D01*
X176000000Y-79090476D01*
X176047619Y-79042857D01*
X176047619Y-78661904D02*
X176000000Y-78614285D01*
X175952380Y-78519047D01*
X175952380Y-78280952D01*
X176000000Y-78185714D01*
X176047619Y-78138095D01*
X176142857Y-78090476D01*
X176238095Y-78090476D01*
X176380952Y-78138095D01*
X176952380Y-78709523D01*
X176952380Y-78090476D01*
X176380952Y-77519047D02*
X176333333Y-77614285D01*
X176285714Y-77661904D01*
X176190476Y-77709523D01*
X176142857Y-77709523D01*
X176047619Y-77661904D01*
X176000000Y-77614285D01*
X175952380Y-77519047D01*
X175952380Y-77328571D01*
X176000000Y-77233333D01*
X176047619Y-77185714D01*
X176142857Y-77138095D01*
X176190476Y-77138095D01*
X176285714Y-77185714D01*
X176333333Y-77233333D01*
X176380952Y-77328571D01*
X176380952Y-77519047D01*
X176428571Y-77614285D01*
X176476190Y-77661904D01*
X176571428Y-77709523D01*
X176761904Y-77709523D01*
X176857142Y-77661904D01*
X176904761Y-77614285D01*
X176952380Y-77519047D01*
X176952380Y-77328571D01*
X176904761Y-77233333D01*
X176857142Y-77185714D01*
X176761904Y-77138095D01*
X176571428Y-77138095D01*
X176476190Y-77185714D01*
X176428571Y-77233333D01*
X176380952Y-77328571D01*
G04 #@! TO.C,C29*
X165607142Y-79142857D02*
X165654761Y-79190476D01*
X165702380Y-79333333D01*
X165702380Y-79428571D01*
X165654761Y-79571428D01*
X165559523Y-79666666D01*
X165464285Y-79714285D01*
X165273809Y-79761904D01*
X165130952Y-79761904D01*
X164940476Y-79714285D01*
X164845238Y-79666666D01*
X164750000Y-79571428D01*
X164702380Y-79428571D01*
X164702380Y-79333333D01*
X164750000Y-79190476D01*
X164797619Y-79142857D01*
X164797619Y-78761904D02*
X164750000Y-78714285D01*
X164702380Y-78619047D01*
X164702380Y-78380952D01*
X164750000Y-78285714D01*
X164797619Y-78238095D01*
X164892857Y-78190476D01*
X164988095Y-78190476D01*
X165130952Y-78238095D01*
X165702380Y-78809523D01*
X165702380Y-78190476D01*
X165702380Y-77714285D02*
X165702380Y-77523809D01*
X165654761Y-77428571D01*
X165607142Y-77380952D01*
X165464285Y-77285714D01*
X165273809Y-77238095D01*
X164892857Y-77238095D01*
X164797619Y-77285714D01*
X164750000Y-77333333D01*
X164702380Y-77428571D01*
X164702380Y-77619047D01*
X164750000Y-77714285D01*
X164797619Y-77761904D01*
X164892857Y-77809523D01*
X165130952Y-77809523D01*
X165226190Y-77761904D01*
X165273809Y-77714285D01*
X165321428Y-77619047D01*
X165321428Y-77428571D01*
X165273809Y-77333333D01*
X165226190Y-77285714D01*
X165130952Y-77238095D01*
G04 #@! TO.C,C30*
X154857142Y-79167857D02*
X154904761Y-79215476D01*
X154952380Y-79358333D01*
X154952380Y-79453571D01*
X154904761Y-79596428D01*
X154809523Y-79691666D01*
X154714285Y-79739285D01*
X154523809Y-79786904D01*
X154380952Y-79786904D01*
X154190476Y-79739285D01*
X154095238Y-79691666D01*
X154000000Y-79596428D01*
X153952380Y-79453571D01*
X153952380Y-79358333D01*
X154000000Y-79215476D01*
X154047619Y-79167857D01*
X153952380Y-78834523D02*
X153952380Y-78215476D01*
X154333333Y-78548809D01*
X154333333Y-78405952D01*
X154380952Y-78310714D01*
X154428571Y-78263095D01*
X154523809Y-78215476D01*
X154761904Y-78215476D01*
X154857142Y-78263095D01*
X154904761Y-78310714D01*
X154952380Y-78405952D01*
X154952380Y-78691666D01*
X154904761Y-78786904D01*
X154857142Y-78834523D01*
X153952380Y-77596428D02*
X153952380Y-77501190D01*
X154000000Y-77405952D01*
X154047619Y-77358333D01*
X154142857Y-77310714D01*
X154333333Y-77263095D01*
X154571428Y-77263095D01*
X154761904Y-77310714D01*
X154857142Y-77358333D01*
X154904761Y-77405952D01*
X154952380Y-77501190D01*
X154952380Y-77596428D01*
X154904761Y-77691666D01*
X154857142Y-77739285D01*
X154761904Y-77786904D01*
X154571428Y-77834523D01*
X154333333Y-77834523D01*
X154142857Y-77786904D01*
X154047619Y-77739285D01*
X154000000Y-77691666D01*
X153952380Y-77596428D01*
G04 #@! TO.C,C32*
X117907142Y-79192857D02*
X117954761Y-79240476D01*
X118002380Y-79383333D01*
X118002380Y-79478571D01*
X117954761Y-79621428D01*
X117859523Y-79716666D01*
X117764285Y-79764285D01*
X117573809Y-79811904D01*
X117430952Y-79811904D01*
X117240476Y-79764285D01*
X117145238Y-79716666D01*
X117050000Y-79621428D01*
X117002380Y-79478571D01*
X117002380Y-79383333D01*
X117050000Y-79240476D01*
X117097619Y-79192857D01*
X117002380Y-78859523D02*
X117002380Y-78240476D01*
X117383333Y-78573809D01*
X117383333Y-78430952D01*
X117430952Y-78335714D01*
X117478571Y-78288095D01*
X117573809Y-78240476D01*
X117811904Y-78240476D01*
X117907142Y-78288095D01*
X117954761Y-78335714D01*
X118002380Y-78430952D01*
X118002380Y-78716666D01*
X117954761Y-78811904D01*
X117907142Y-78859523D01*
X117097619Y-77859523D02*
X117050000Y-77811904D01*
X117002380Y-77716666D01*
X117002380Y-77478571D01*
X117050000Y-77383333D01*
X117097619Y-77335714D01*
X117192857Y-77288095D01*
X117288095Y-77288095D01*
X117430952Y-77335714D01*
X118002380Y-77907142D01*
X118002380Y-77288095D01*
G04 #@! TO.C,C33*
X106882142Y-79267857D02*
X106929761Y-79315476D01*
X106977380Y-79458333D01*
X106977380Y-79553571D01*
X106929761Y-79696428D01*
X106834523Y-79791666D01*
X106739285Y-79839285D01*
X106548809Y-79886904D01*
X106405952Y-79886904D01*
X106215476Y-79839285D01*
X106120238Y-79791666D01*
X106025000Y-79696428D01*
X105977380Y-79553571D01*
X105977380Y-79458333D01*
X106025000Y-79315476D01*
X106072619Y-79267857D01*
X105977380Y-78934523D02*
X105977380Y-78315476D01*
X106358333Y-78648809D01*
X106358333Y-78505952D01*
X106405952Y-78410714D01*
X106453571Y-78363095D01*
X106548809Y-78315476D01*
X106786904Y-78315476D01*
X106882142Y-78363095D01*
X106929761Y-78410714D01*
X106977380Y-78505952D01*
X106977380Y-78791666D01*
X106929761Y-78886904D01*
X106882142Y-78934523D01*
X105977380Y-77982142D02*
X105977380Y-77363095D01*
X106358333Y-77696428D01*
X106358333Y-77553571D01*
X106405952Y-77458333D01*
X106453571Y-77410714D01*
X106548809Y-77363095D01*
X106786904Y-77363095D01*
X106882142Y-77410714D01*
X106929761Y-77458333D01*
X106977380Y-77553571D01*
X106977380Y-77839285D01*
X106929761Y-77934523D01*
X106882142Y-77982142D01*
G04 #@! TO.C,C34*
X95932142Y-79192857D02*
X95979761Y-79240476D01*
X96027380Y-79383333D01*
X96027380Y-79478571D01*
X95979761Y-79621428D01*
X95884523Y-79716666D01*
X95789285Y-79764285D01*
X95598809Y-79811904D01*
X95455952Y-79811904D01*
X95265476Y-79764285D01*
X95170238Y-79716666D01*
X95075000Y-79621428D01*
X95027380Y-79478571D01*
X95027380Y-79383333D01*
X95075000Y-79240476D01*
X95122619Y-79192857D01*
X95027380Y-78859523D02*
X95027380Y-78240476D01*
X95408333Y-78573809D01*
X95408333Y-78430952D01*
X95455952Y-78335714D01*
X95503571Y-78288095D01*
X95598809Y-78240476D01*
X95836904Y-78240476D01*
X95932142Y-78288095D01*
X95979761Y-78335714D01*
X96027380Y-78430952D01*
X96027380Y-78716666D01*
X95979761Y-78811904D01*
X95932142Y-78859523D01*
X95360714Y-77383333D02*
X96027380Y-77383333D01*
X94979761Y-77621428D02*
X95694047Y-77859523D01*
X95694047Y-77240476D01*
G04 #@! TO.C,C37*
X130932142Y-97892857D02*
X130979761Y-97940476D01*
X131027380Y-98083333D01*
X131027380Y-98178571D01*
X130979761Y-98321428D01*
X130884523Y-98416666D01*
X130789285Y-98464285D01*
X130598809Y-98511904D01*
X130455952Y-98511904D01*
X130265476Y-98464285D01*
X130170238Y-98416666D01*
X130075000Y-98321428D01*
X130027380Y-98178571D01*
X130027380Y-98083333D01*
X130075000Y-97940476D01*
X130122619Y-97892857D01*
X130027380Y-97559523D02*
X130027380Y-96940476D01*
X130408333Y-97273809D01*
X130408333Y-97130952D01*
X130455952Y-97035714D01*
X130503571Y-96988095D01*
X130598809Y-96940476D01*
X130836904Y-96940476D01*
X130932142Y-96988095D01*
X130979761Y-97035714D01*
X131027380Y-97130952D01*
X131027380Y-97416666D01*
X130979761Y-97511904D01*
X130932142Y-97559523D01*
X130027380Y-96607142D02*
X130027380Y-95940476D01*
X131027380Y-96369047D01*
G04 #@! TO.C,C40*
X178732142Y-110757142D02*
X178684523Y-110804761D01*
X178541666Y-110852380D01*
X178446428Y-110852380D01*
X178303571Y-110804761D01*
X178208333Y-110709523D01*
X178160714Y-110614285D01*
X178113095Y-110423809D01*
X178113095Y-110280952D01*
X178160714Y-110090476D01*
X178208333Y-109995238D01*
X178303571Y-109900000D01*
X178446428Y-109852380D01*
X178541666Y-109852380D01*
X178684523Y-109900000D01*
X178732142Y-109947619D01*
X179589285Y-110185714D02*
X179589285Y-110852380D01*
X179351190Y-109804761D02*
X179113095Y-110519047D01*
X179732142Y-110519047D01*
X180303571Y-109852380D02*
X180398809Y-109852380D01*
X180494047Y-109900000D01*
X180541666Y-109947619D01*
X180589285Y-110042857D01*
X180636904Y-110233333D01*
X180636904Y-110471428D01*
X180589285Y-110661904D01*
X180541666Y-110757142D01*
X180494047Y-110804761D01*
X180398809Y-110852380D01*
X180303571Y-110852380D01*
X180208333Y-110804761D01*
X180160714Y-110757142D01*
X180113095Y-110661904D01*
X180065476Y-110471428D01*
X180065476Y-110233333D01*
X180113095Y-110042857D01*
X180160714Y-109947619D01*
X180208333Y-109900000D01*
X180303571Y-109852380D01*
G04 #@! TO.C,C41*
X160507142Y-110257142D02*
X160459523Y-110304761D01*
X160316666Y-110352380D01*
X160221428Y-110352380D01*
X160078571Y-110304761D01*
X159983333Y-110209523D01*
X159935714Y-110114285D01*
X159888095Y-109923809D01*
X159888095Y-109780952D01*
X159935714Y-109590476D01*
X159983333Y-109495238D01*
X160078571Y-109400000D01*
X160221428Y-109352380D01*
X160316666Y-109352380D01*
X160459523Y-109400000D01*
X160507142Y-109447619D01*
X161364285Y-109685714D02*
X161364285Y-110352380D01*
X161126190Y-109304761D02*
X160888095Y-110019047D01*
X161507142Y-110019047D01*
X162411904Y-110352380D02*
X161840476Y-110352380D01*
X162126190Y-110352380D02*
X162126190Y-109352380D01*
X162030952Y-109495238D01*
X161935714Y-109590476D01*
X161840476Y-109638095D01*
G04 #@! TO.C,C42*
X122107142Y-111557142D02*
X122059523Y-111604761D01*
X121916666Y-111652380D01*
X121821428Y-111652380D01*
X121678571Y-111604761D01*
X121583333Y-111509523D01*
X121535714Y-111414285D01*
X121488095Y-111223809D01*
X121488095Y-111080952D01*
X121535714Y-110890476D01*
X121583333Y-110795238D01*
X121678571Y-110700000D01*
X121821428Y-110652380D01*
X121916666Y-110652380D01*
X122059523Y-110700000D01*
X122107142Y-110747619D01*
X122964285Y-110985714D02*
X122964285Y-111652380D01*
X122726190Y-110604761D02*
X122488095Y-111319047D01*
X123107142Y-111319047D01*
X123440476Y-110747619D02*
X123488095Y-110700000D01*
X123583333Y-110652380D01*
X123821428Y-110652380D01*
X123916666Y-110700000D01*
X123964285Y-110747619D01*
X124011904Y-110842857D01*
X124011904Y-110938095D01*
X123964285Y-111080952D01*
X123392857Y-111652380D01*
X124011904Y-111652380D01*
G04 #@! TO.C,C43*
X102582142Y-110807142D02*
X102534523Y-110854761D01*
X102391666Y-110902380D01*
X102296428Y-110902380D01*
X102153571Y-110854761D01*
X102058333Y-110759523D01*
X102010714Y-110664285D01*
X101963095Y-110473809D01*
X101963095Y-110330952D01*
X102010714Y-110140476D01*
X102058333Y-110045238D01*
X102153571Y-109950000D01*
X102296428Y-109902380D01*
X102391666Y-109902380D01*
X102534523Y-109950000D01*
X102582142Y-109997619D01*
X103439285Y-110235714D02*
X103439285Y-110902380D01*
X103201190Y-109854761D02*
X102963095Y-110569047D01*
X103582142Y-110569047D01*
X103867857Y-109902380D02*
X104486904Y-109902380D01*
X104153571Y-110283333D01*
X104296428Y-110283333D01*
X104391666Y-110330952D01*
X104439285Y-110378571D01*
X104486904Y-110473809D01*
X104486904Y-110711904D01*
X104439285Y-110807142D01*
X104391666Y-110854761D01*
X104296428Y-110902380D01*
X104010714Y-110902380D01*
X103915476Y-110854761D01*
X103867857Y-110807142D01*
G04 #@! TO.C,C44*
X86257142Y-108467857D02*
X86304761Y-108515476D01*
X86352380Y-108658333D01*
X86352380Y-108753571D01*
X86304761Y-108896428D01*
X86209523Y-108991666D01*
X86114285Y-109039285D01*
X85923809Y-109086904D01*
X85780952Y-109086904D01*
X85590476Y-109039285D01*
X85495238Y-108991666D01*
X85400000Y-108896428D01*
X85352380Y-108753571D01*
X85352380Y-108658333D01*
X85400000Y-108515476D01*
X85447619Y-108467857D01*
X85685714Y-107610714D02*
X86352380Y-107610714D01*
X85304761Y-107848809D02*
X86019047Y-108086904D01*
X86019047Y-107467857D01*
X85685714Y-106658333D02*
X86352380Y-106658333D01*
X85304761Y-106896428D02*
X86019047Y-107134523D01*
X86019047Y-106515476D01*
G04 #@! TO.C,C45*
X179457142Y-105217857D02*
X179504761Y-105265476D01*
X179552380Y-105408333D01*
X179552380Y-105503571D01*
X179504761Y-105646428D01*
X179409523Y-105741666D01*
X179314285Y-105789285D01*
X179123809Y-105836904D01*
X178980952Y-105836904D01*
X178790476Y-105789285D01*
X178695238Y-105741666D01*
X178600000Y-105646428D01*
X178552380Y-105503571D01*
X178552380Y-105408333D01*
X178600000Y-105265476D01*
X178647619Y-105217857D01*
X178885714Y-104360714D02*
X179552380Y-104360714D01*
X178504761Y-104598809D02*
X179219047Y-104836904D01*
X179219047Y-104217857D01*
X178552380Y-103360714D02*
X178552380Y-103836904D01*
X179028571Y-103884523D01*
X178980952Y-103836904D01*
X178933333Y-103741666D01*
X178933333Y-103503571D01*
X178980952Y-103408333D01*
X179028571Y-103360714D01*
X179123809Y-103313095D01*
X179361904Y-103313095D01*
X179457142Y-103360714D01*
X179504761Y-103408333D01*
X179552380Y-103503571D01*
X179552380Y-103741666D01*
X179504761Y-103836904D01*
X179457142Y-103884523D01*
G04 #@! TO.C,C46*
X168757142Y-105667857D02*
X168804761Y-105715476D01*
X168852380Y-105858333D01*
X168852380Y-105953571D01*
X168804761Y-106096428D01*
X168709523Y-106191666D01*
X168614285Y-106239285D01*
X168423809Y-106286904D01*
X168280952Y-106286904D01*
X168090476Y-106239285D01*
X167995238Y-106191666D01*
X167900000Y-106096428D01*
X167852380Y-105953571D01*
X167852380Y-105858333D01*
X167900000Y-105715476D01*
X167947619Y-105667857D01*
X168185714Y-104810714D02*
X168852380Y-104810714D01*
X167804761Y-105048809D02*
X168519047Y-105286904D01*
X168519047Y-104667857D01*
X167852380Y-103858333D02*
X167852380Y-104048809D01*
X167900000Y-104144047D01*
X167947619Y-104191666D01*
X168090476Y-104286904D01*
X168280952Y-104334523D01*
X168661904Y-104334523D01*
X168757142Y-104286904D01*
X168804761Y-104239285D01*
X168852380Y-104144047D01*
X168852380Y-103953571D01*
X168804761Y-103858333D01*
X168757142Y-103810714D01*
X168661904Y-103763095D01*
X168423809Y-103763095D01*
X168328571Y-103810714D01*
X168280952Y-103858333D01*
X168233333Y-103953571D01*
X168233333Y-104144047D01*
X168280952Y-104239285D01*
X168328571Y-104286904D01*
X168423809Y-104334523D01*
G04 #@! TO.C,C47*
X159507142Y-105842857D02*
X159554761Y-105890476D01*
X159602380Y-106033333D01*
X159602380Y-106128571D01*
X159554761Y-106271428D01*
X159459523Y-106366666D01*
X159364285Y-106414285D01*
X159173809Y-106461904D01*
X159030952Y-106461904D01*
X158840476Y-106414285D01*
X158745238Y-106366666D01*
X158650000Y-106271428D01*
X158602380Y-106128571D01*
X158602380Y-106033333D01*
X158650000Y-105890476D01*
X158697619Y-105842857D01*
X158935714Y-104985714D02*
X159602380Y-104985714D01*
X158554761Y-105223809D02*
X159269047Y-105461904D01*
X159269047Y-104842857D01*
X158602380Y-104557142D02*
X158602380Y-103890476D01*
X159602380Y-104319047D01*
G04 #@! TO.C,C48*
X147232142Y-107467857D02*
X147279761Y-107515476D01*
X147327380Y-107658333D01*
X147327380Y-107753571D01*
X147279761Y-107896428D01*
X147184523Y-107991666D01*
X147089285Y-108039285D01*
X146898809Y-108086904D01*
X146755952Y-108086904D01*
X146565476Y-108039285D01*
X146470238Y-107991666D01*
X146375000Y-107896428D01*
X146327380Y-107753571D01*
X146327380Y-107658333D01*
X146375000Y-107515476D01*
X146422619Y-107467857D01*
X146660714Y-106610714D02*
X147327380Y-106610714D01*
X146279761Y-106848809D02*
X146994047Y-107086904D01*
X146994047Y-106467857D01*
X146755952Y-105944047D02*
X146708333Y-106039285D01*
X146660714Y-106086904D01*
X146565476Y-106134523D01*
X146517857Y-106134523D01*
X146422619Y-106086904D01*
X146375000Y-106039285D01*
X146327380Y-105944047D01*
X146327380Y-105753571D01*
X146375000Y-105658333D01*
X146422619Y-105610714D01*
X146517857Y-105563095D01*
X146565476Y-105563095D01*
X146660714Y-105610714D01*
X146708333Y-105658333D01*
X146755952Y-105753571D01*
X146755952Y-105944047D01*
X146803571Y-106039285D01*
X146851190Y-106086904D01*
X146946428Y-106134523D01*
X147136904Y-106134523D01*
X147232142Y-106086904D01*
X147279761Y-106039285D01*
X147327380Y-105944047D01*
X147327380Y-105753571D01*
X147279761Y-105658333D01*
X147232142Y-105610714D01*
X147136904Y-105563095D01*
X146946428Y-105563095D01*
X146851190Y-105610714D01*
X146803571Y-105658333D01*
X146755952Y-105753571D01*
G04 #@! TO.C,C49*
X121432142Y-105317857D02*
X121479761Y-105365476D01*
X121527380Y-105508333D01*
X121527380Y-105603571D01*
X121479761Y-105746428D01*
X121384523Y-105841666D01*
X121289285Y-105889285D01*
X121098809Y-105936904D01*
X120955952Y-105936904D01*
X120765476Y-105889285D01*
X120670238Y-105841666D01*
X120575000Y-105746428D01*
X120527380Y-105603571D01*
X120527380Y-105508333D01*
X120575000Y-105365476D01*
X120622619Y-105317857D01*
X120860714Y-104460714D02*
X121527380Y-104460714D01*
X120479761Y-104698809D02*
X121194047Y-104936904D01*
X121194047Y-104317857D01*
X121527380Y-103889285D02*
X121527380Y-103698809D01*
X121479761Y-103603571D01*
X121432142Y-103555952D01*
X121289285Y-103460714D01*
X121098809Y-103413095D01*
X120717857Y-103413095D01*
X120622619Y-103460714D01*
X120575000Y-103508333D01*
X120527380Y-103603571D01*
X120527380Y-103794047D01*
X120575000Y-103889285D01*
X120622619Y-103936904D01*
X120717857Y-103984523D01*
X120955952Y-103984523D01*
X121051190Y-103936904D01*
X121098809Y-103889285D01*
X121146428Y-103794047D01*
X121146428Y-103603571D01*
X121098809Y-103508333D01*
X121051190Y-103460714D01*
X120955952Y-103413095D01*
G04 #@! TO.C,C50*
X109232142Y-107417857D02*
X109279761Y-107465476D01*
X109327380Y-107608333D01*
X109327380Y-107703571D01*
X109279761Y-107846428D01*
X109184523Y-107941666D01*
X109089285Y-107989285D01*
X108898809Y-108036904D01*
X108755952Y-108036904D01*
X108565476Y-107989285D01*
X108470238Y-107941666D01*
X108375000Y-107846428D01*
X108327380Y-107703571D01*
X108327380Y-107608333D01*
X108375000Y-107465476D01*
X108422619Y-107417857D01*
X108327380Y-106513095D02*
X108327380Y-106989285D01*
X108803571Y-107036904D01*
X108755952Y-106989285D01*
X108708333Y-106894047D01*
X108708333Y-106655952D01*
X108755952Y-106560714D01*
X108803571Y-106513095D01*
X108898809Y-106465476D01*
X109136904Y-106465476D01*
X109232142Y-106513095D01*
X109279761Y-106560714D01*
X109327380Y-106655952D01*
X109327380Y-106894047D01*
X109279761Y-106989285D01*
X109232142Y-107036904D01*
X108327380Y-105846428D02*
X108327380Y-105751190D01*
X108375000Y-105655952D01*
X108422619Y-105608333D01*
X108517857Y-105560714D01*
X108708333Y-105513095D01*
X108946428Y-105513095D01*
X109136904Y-105560714D01*
X109232142Y-105608333D01*
X109279761Y-105655952D01*
X109327380Y-105751190D01*
X109327380Y-105846428D01*
X109279761Y-105941666D01*
X109232142Y-105989285D01*
X109136904Y-106036904D01*
X108946428Y-106084523D01*
X108708333Y-106084523D01*
X108517857Y-106036904D01*
X108422619Y-105989285D01*
X108375000Y-105941666D01*
X108327380Y-105846428D01*
G04 #@! TO.C,C51*
X101282142Y-105542857D02*
X101329761Y-105590476D01*
X101377380Y-105733333D01*
X101377380Y-105828571D01*
X101329761Y-105971428D01*
X101234523Y-106066666D01*
X101139285Y-106114285D01*
X100948809Y-106161904D01*
X100805952Y-106161904D01*
X100615476Y-106114285D01*
X100520238Y-106066666D01*
X100425000Y-105971428D01*
X100377380Y-105828571D01*
X100377380Y-105733333D01*
X100425000Y-105590476D01*
X100472619Y-105542857D01*
X100377380Y-104638095D02*
X100377380Y-105114285D01*
X100853571Y-105161904D01*
X100805952Y-105114285D01*
X100758333Y-105019047D01*
X100758333Y-104780952D01*
X100805952Y-104685714D01*
X100853571Y-104638095D01*
X100948809Y-104590476D01*
X101186904Y-104590476D01*
X101282142Y-104638095D01*
X101329761Y-104685714D01*
X101377380Y-104780952D01*
X101377380Y-105019047D01*
X101329761Y-105114285D01*
X101282142Y-105161904D01*
X101377380Y-103638095D02*
X101377380Y-104209523D01*
X101377380Y-103923809D02*
X100377380Y-103923809D01*
X100520238Y-104019047D01*
X100615476Y-104114285D01*
X100663095Y-104209523D01*
G04 #@! TO.C,C52*
X90832142Y-104167857D02*
X90879761Y-104215476D01*
X90927380Y-104358333D01*
X90927380Y-104453571D01*
X90879761Y-104596428D01*
X90784523Y-104691666D01*
X90689285Y-104739285D01*
X90498809Y-104786904D01*
X90355952Y-104786904D01*
X90165476Y-104739285D01*
X90070238Y-104691666D01*
X89975000Y-104596428D01*
X89927380Y-104453571D01*
X89927380Y-104358333D01*
X89975000Y-104215476D01*
X90022619Y-104167857D01*
X89927380Y-103263095D02*
X89927380Y-103739285D01*
X90403571Y-103786904D01*
X90355952Y-103739285D01*
X90308333Y-103644047D01*
X90308333Y-103405952D01*
X90355952Y-103310714D01*
X90403571Y-103263095D01*
X90498809Y-103215476D01*
X90736904Y-103215476D01*
X90832142Y-103263095D01*
X90879761Y-103310714D01*
X90927380Y-103405952D01*
X90927380Y-103644047D01*
X90879761Y-103739285D01*
X90832142Y-103786904D01*
X90022619Y-102834523D02*
X89975000Y-102786904D01*
X89927380Y-102691666D01*
X89927380Y-102453571D01*
X89975000Y-102358333D01*
X90022619Y-102310714D01*
X90117857Y-102263095D01*
X90213095Y-102263095D01*
X90355952Y-102310714D01*
X90927380Y-102882142D01*
X90927380Y-102263095D01*
G04 #@! TO.C,C53*
X174207142Y-134367857D02*
X174254761Y-134415476D01*
X174302380Y-134558333D01*
X174302380Y-134653571D01*
X174254761Y-134796428D01*
X174159523Y-134891666D01*
X174064285Y-134939285D01*
X173873809Y-134986904D01*
X173730952Y-134986904D01*
X173540476Y-134939285D01*
X173445238Y-134891666D01*
X173350000Y-134796428D01*
X173302380Y-134653571D01*
X173302380Y-134558333D01*
X173350000Y-134415476D01*
X173397619Y-134367857D01*
X173302380Y-133463095D02*
X173302380Y-133939285D01*
X173778571Y-133986904D01*
X173730952Y-133939285D01*
X173683333Y-133844047D01*
X173683333Y-133605952D01*
X173730952Y-133510714D01*
X173778571Y-133463095D01*
X173873809Y-133415476D01*
X174111904Y-133415476D01*
X174207142Y-133463095D01*
X174254761Y-133510714D01*
X174302380Y-133605952D01*
X174302380Y-133844047D01*
X174254761Y-133939285D01*
X174207142Y-133986904D01*
X173302380Y-133082142D02*
X173302380Y-132463095D01*
X173683333Y-132796428D01*
X173683333Y-132653571D01*
X173730952Y-132558333D01*
X173778571Y-132510714D01*
X173873809Y-132463095D01*
X174111904Y-132463095D01*
X174207142Y-132510714D01*
X174254761Y-132558333D01*
X174302380Y-132653571D01*
X174302380Y-132939285D01*
X174254761Y-133034523D01*
X174207142Y-133082142D01*
G04 #@! TO.C,C54*
X156307142Y-134392857D02*
X156354761Y-134440476D01*
X156402380Y-134583333D01*
X156402380Y-134678571D01*
X156354761Y-134821428D01*
X156259523Y-134916666D01*
X156164285Y-134964285D01*
X155973809Y-135011904D01*
X155830952Y-135011904D01*
X155640476Y-134964285D01*
X155545238Y-134916666D01*
X155450000Y-134821428D01*
X155402380Y-134678571D01*
X155402380Y-134583333D01*
X155450000Y-134440476D01*
X155497619Y-134392857D01*
X155402380Y-133488095D02*
X155402380Y-133964285D01*
X155878571Y-134011904D01*
X155830952Y-133964285D01*
X155783333Y-133869047D01*
X155783333Y-133630952D01*
X155830952Y-133535714D01*
X155878571Y-133488095D01*
X155973809Y-133440476D01*
X156211904Y-133440476D01*
X156307142Y-133488095D01*
X156354761Y-133535714D01*
X156402380Y-133630952D01*
X156402380Y-133869047D01*
X156354761Y-133964285D01*
X156307142Y-134011904D01*
X155735714Y-132583333D02*
X156402380Y-132583333D01*
X155354761Y-132821428D02*
X156069047Y-133059523D01*
X156069047Y-132440476D01*
G04 #@! TO.C,C55*
X116282142Y-134392857D02*
X116329761Y-134440476D01*
X116377380Y-134583333D01*
X116377380Y-134678571D01*
X116329761Y-134821428D01*
X116234523Y-134916666D01*
X116139285Y-134964285D01*
X115948809Y-135011904D01*
X115805952Y-135011904D01*
X115615476Y-134964285D01*
X115520238Y-134916666D01*
X115425000Y-134821428D01*
X115377380Y-134678571D01*
X115377380Y-134583333D01*
X115425000Y-134440476D01*
X115472619Y-134392857D01*
X115377380Y-133488095D02*
X115377380Y-133964285D01*
X115853571Y-134011904D01*
X115805952Y-133964285D01*
X115758333Y-133869047D01*
X115758333Y-133630952D01*
X115805952Y-133535714D01*
X115853571Y-133488095D01*
X115948809Y-133440476D01*
X116186904Y-133440476D01*
X116282142Y-133488095D01*
X116329761Y-133535714D01*
X116377380Y-133630952D01*
X116377380Y-133869047D01*
X116329761Y-133964285D01*
X116282142Y-134011904D01*
X115377380Y-132535714D02*
X115377380Y-133011904D01*
X115853571Y-133059523D01*
X115805952Y-133011904D01*
X115758333Y-132916666D01*
X115758333Y-132678571D01*
X115805952Y-132583333D01*
X115853571Y-132535714D01*
X115948809Y-132488095D01*
X116186904Y-132488095D01*
X116282142Y-132535714D01*
X116329761Y-132583333D01*
X116377380Y-132678571D01*
X116377380Y-132916666D01*
X116329761Y-133011904D01*
X116282142Y-133059523D01*
G04 #@! TO.C,C56*
X98182142Y-134367857D02*
X98229761Y-134415476D01*
X98277380Y-134558333D01*
X98277380Y-134653571D01*
X98229761Y-134796428D01*
X98134523Y-134891666D01*
X98039285Y-134939285D01*
X97848809Y-134986904D01*
X97705952Y-134986904D01*
X97515476Y-134939285D01*
X97420238Y-134891666D01*
X97325000Y-134796428D01*
X97277380Y-134653571D01*
X97277380Y-134558333D01*
X97325000Y-134415476D01*
X97372619Y-134367857D01*
X97277380Y-133463095D02*
X97277380Y-133939285D01*
X97753571Y-133986904D01*
X97705952Y-133939285D01*
X97658333Y-133844047D01*
X97658333Y-133605952D01*
X97705952Y-133510714D01*
X97753571Y-133463095D01*
X97848809Y-133415476D01*
X98086904Y-133415476D01*
X98182142Y-133463095D01*
X98229761Y-133510714D01*
X98277380Y-133605952D01*
X98277380Y-133844047D01*
X98229761Y-133939285D01*
X98182142Y-133986904D01*
X97277380Y-132558333D02*
X97277380Y-132748809D01*
X97325000Y-132844047D01*
X97372619Y-132891666D01*
X97515476Y-132986904D01*
X97705952Y-133034523D01*
X98086904Y-133034523D01*
X98182142Y-132986904D01*
X98229761Y-132939285D01*
X98277380Y-132844047D01*
X98277380Y-132653571D01*
X98229761Y-132558333D01*
X98182142Y-132510714D01*
X98086904Y-132463095D01*
X97848809Y-132463095D01*
X97753571Y-132510714D01*
X97705952Y-132558333D01*
X97658333Y-132653571D01*
X97658333Y-132844047D01*
X97705952Y-132939285D01*
X97753571Y-132986904D01*
X97848809Y-133034523D01*
G04 #@! TO.C,C57*
X80632142Y-124937142D02*
X80584523Y-124984761D01*
X80441666Y-125032380D01*
X80346428Y-125032380D01*
X80203571Y-124984761D01*
X80108333Y-124889523D01*
X80060714Y-124794285D01*
X80013095Y-124603809D01*
X80013095Y-124460952D01*
X80060714Y-124270476D01*
X80108333Y-124175238D01*
X80203571Y-124080000D01*
X80346428Y-124032380D01*
X80441666Y-124032380D01*
X80584523Y-124080000D01*
X80632142Y-124127619D01*
X81536904Y-124032380D02*
X81060714Y-124032380D01*
X81013095Y-124508571D01*
X81060714Y-124460952D01*
X81155952Y-124413333D01*
X81394047Y-124413333D01*
X81489285Y-124460952D01*
X81536904Y-124508571D01*
X81584523Y-124603809D01*
X81584523Y-124841904D01*
X81536904Y-124937142D01*
X81489285Y-124984761D01*
X81394047Y-125032380D01*
X81155952Y-125032380D01*
X81060714Y-124984761D01*
X81013095Y-124937142D01*
X81917857Y-124032380D02*
X82584523Y-124032380D01*
X82155952Y-125032380D01*
X78114047Y-123061428D02*
X78875952Y-123061428D01*
X78495000Y-123442380D02*
X78495000Y-122680476D01*
G04 #@! TO.C,C58*
X211382142Y-108737142D02*
X211334523Y-108784761D01*
X211191666Y-108832380D01*
X211096428Y-108832380D01*
X210953571Y-108784761D01*
X210858333Y-108689523D01*
X210810714Y-108594285D01*
X210763095Y-108403809D01*
X210763095Y-108260952D01*
X210810714Y-108070476D01*
X210858333Y-107975238D01*
X210953571Y-107880000D01*
X211096428Y-107832380D01*
X211191666Y-107832380D01*
X211334523Y-107880000D01*
X211382142Y-107927619D01*
X212286904Y-107832380D02*
X211810714Y-107832380D01*
X211763095Y-108308571D01*
X211810714Y-108260952D01*
X211905952Y-108213333D01*
X212144047Y-108213333D01*
X212239285Y-108260952D01*
X212286904Y-108308571D01*
X212334523Y-108403809D01*
X212334523Y-108641904D01*
X212286904Y-108737142D01*
X212239285Y-108784761D01*
X212144047Y-108832380D01*
X211905952Y-108832380D01*
X211810714Y-108784761D01*
X211763095Y-108737142D01*
X212905952Y-108260952D02*
X212810714Y-108213333D01*
X212763095Y-108165714D01*
X212715476Y-108070476D01*
X212715476Y-108022857D01*
X212763095Y-107927619D01*
X212810714Y-107880000D01*
X212905952Y-107832380D01*
X213096428Y-107832380D01*
X213191666Y-107880000D01*
X213239285Y-107927619D01*
X213286904Y-108022857D01*
X213286904Y-108070476D01*
X213239285Y-108165714D01*
X213191666Y-108213333D01*
X213096428Y-108260952D01*
X212905952Y-108260952D01*
X212810714Y-108308571D01*
X212763095Y-108356190D01*
X212715476Y-108451428D01*
X212715476Y-108641904D01*
X212763095Y-108737142D01*
X212810714Y-108784761D01*
X212905952Y-108832380D01*
X213096428Y-108832380D01*
X213191666Y-108784761D01*
X213239285Y-108737142D01*
X213286904Y-108641904D01*
X213286904Y-108451428D01*
X213239285Y-108356190D01*
X213191666Y-108308571D01*
X213096428Y-108260952D01*
X208864047Y-106861428D02*
X209625952Y-106861428D01*
X209245000Y-107242380D02*
X209245000Y-106480476D01*
G04 #@! TO.C,C59*
X158757142Y-59912142D02*
X158709523Y-59959761D01*
X158566666Y-60007380D01*
X158471428Y-60007380D01*
X158328571Y-59959761D01*
X158233333Y-59864523D01*
X158185714Y-59769285D01*
X158138095Y-59578809D01*
X158138095Y-59435952D01*
X158185714Y-59245476D01*
X158233333Y-59150238D01*
X158328571Y-59055000D01*
X158471428Y-59007380D01*
X158566666Y-59007380D01*
X158709523Y-59055000D01*
X158757142Y-59102619D01*
X159661904Y-59007380D02*
X159185714Y-59007380D01*
X159138095Y-59483571D01*
X159185714Y-59435952D01*
X159280952Y-59388333D01*
X159519047Y-59388333D01*
X159614285Y-59435952D01*
X159661904Y-59483571D01*
X159709523Y-59578809D01*
X159709523Y-59816904D01*
X159661904Y-59912142D01*
X159614285Y-59959761D01*
X159519047Y-60007380D01*
X159280952Y-60007380D01*
X159185714Y-59959761D01*
X159138095Y-59912142D01*
X160185714Y-60007380D02*
X160376190Y-60007380D01*
X160471428Y-59959761D01*
X160519047Y-59912142D01*
X160614285Y-59769285D01*
X160661904Y-59578809D01*
X160661904Y-59197857D01*
X160614285Y-59102619D01*
X160566666Y-59055000D01*
X160471428Y-59007380D01*
X160280952Y-59007380D01*
X160185714Y-59055000D01*
X160138095Y-59102619D01*
X160090476Y-59197857D01*
X160090476Y-59435952D01*
X160138095Y-59531190D01*
X160185714Y-59578809D01*
X160280952Y-59626428D01*
X160471428Y-59626428D01*
X160566666Y-59578809D01*
X160614285Y-59531190D01*
X160661904Y-59435952D01*
X156239047Y-58036428D02*
X157000952Y-58036428D01*
X156620000Y-58417380D02*
X156620000Y-57655476D01*
G04 #@! TO.C,J1*
X207491666Y-41877380D02*
X207491666Y-42591666D01*
X207444047Y-42734523D01*
X207348809Y-42829761D01*
X207205952Y-42877380D01*
X207110714Y-42877380D01*
X208491666Y-42877380D02*
X207920238Y-42877380D01*
X208205952Y-42877380D02*
X208205952Y-41877380D01*
X208110714Y-42020238D01*
X208015476Y-42115476D01*
X207920238Y-42163095D01*
G04 #@! TO.C,P1*
X97861904Y-144342380D02*
X97861904Y-143342380D01*
X98242857Y-143342380D01*
X98338095Y-143390000D01*
X98385714Y-143437619D01*
X98433333Y-143532857D01*
X98433333Y-143675714D01*
X98385714Y-143770952D01*
X98338095Y-143818571D01*
X98242857Y-143866190D01*
X97861904Y-143866190D01*
X99385714Y-144342380D02*
X98814285Y-144342380D01*
X99100000Y-144342380D02*
X99100000Y-143342380D01*
X99004761Y-143485238D01*
X98909523Y-143580476D01*
X98814285Y-143628095D01*
G04 #@! TO.C,R1*
X202677380Y-106866666D02*
X202201190Y-107200000D01*
X202677380Y-107438095D02*
X201677380Y-107438095D01*
X201677380Y-107057142D01*
X201725000Y-106961904D01*
X201772619Y-106914285D01*
X201867857Y-106866666D01*
X202010714Y-106866666D01*
X202105952Y-106914285D01*
X202153571Y-106961904D01*
X202201190Y-107057142D01*
X202201190Y-107438095D01*
X202677380Y-105914285D02*
X202677380Y-106485714D01*
X202677380Y-106200000D02*
X201677380Y-106200000D01*
X201820238Y-106295238D01*
X201915476Y-106390476D01*
X201963095Y-106485714D01*
G04 #@! TO.C,R2*
X198852380Y-105416666D02*
X198376190Y-105750000D01*
X198852380Y-105988095D02*
X197852380Y-105988095D01*
X197852380Y-105607142D01*
X197900000Y-105511904D01*
X197947619Y-105464285D01*
X198042857Y-105416666D01*
X198185714Y-105416666D01*
X198280952Y-105464285D01*
X198328571Y-105511904D01*
X198376190Y-105607142D01*
X198376190Y-105988095D01*
X197947619Y-105035714D02*
X197900000Y-104988095D01*
X197852380Y-104892857D01*
X197852380Y-104654761D01*
X197900000Y-104559523D01*
X197947619Y-104511904D01*
X198042857Y-104464285D01*
X198138095Y-104464285D01*
X198280952Y-104511904D01*
X198852380Y-105083333D01*
X198852380Y-104464285D01*
G04 #@! TO.C,U1*
X209152380Y-130761904D02*
X209961904Y-130761904D01*
X210057142Y-130714285D01*
X210104761Y-130666666D01*
X210152380Y-130571428D01*
X210152380Y-130380952D01*
X210104761Y-130285714D01*
X210057142Y-130238095D01*
X209961904Y-130190476D01*
X209152380Y-130190476D01*
X210152380Y-129190476D02*
X210152380Y-129761904D01*
X210152380Y-129476190D02*
X209152380Y-129476190D01*
X209295238Y-129571428D01*
X209390476Y-129666666D01*
X209438095Y-129761904D01*
G04 #@! TO.C,U2*
X202238095Y-95902380D02*
X202238095Y-96711904D01*
X202285714Y-96807142D01*
X202333333Y-96854761D01*
X202428571Y-96902380D01*
X202619047Y-96902380D01*
X202714285Y-96854761D01*
X202761904Y-96807142D01*
X202809523Y-96711904D01*
X202809523Y-95902380D01*
X203238095Y-95997619D02*
X203285714Y-95950000D01*
X203380952Y-95902380D01*
X203619047Y-95902380D01*
X203714285Y-95950000D01*
X203761904Y-95997619D01*
X203809523Y-96092857D01*
X203809523Y-96188095D01*
X203761904Y-96330952D01*
X203190476Y-96902380D01*
X203809523Y-96902380D01*
G04 #@! TO.C,U3*
X209902380Y-115761904D02*
X210711904Y-115761904D01*
X210807142Y-115714285D01*
X210854761Y-115666666D01*
X210902380Y-115571428D01*
X210902380Y-115380952D01*
X210854761Y-115285714D01*
X210807142Y-115238095D01*
X210711904Y-115190476D01*
X209902380Y-115190476D01*
X209902380Y-114809523D02*
X209902380Y-114190476D01*
X210283333Y-114523809D01*
X210283333Y-114380952D01*
X210330952Y-114285714D01*
X210378571Y-114238095D01*
X210473809Y-114190476D01*
X210711904Y-114190476D01*
X210807142Y-114238095D01*
X210854761Y-114285714D01*
X210902380Y-114380952D01*
X210902380Y-114666666D01*
X210854761Y-114761904D01*
X210807142Y-114809523D01*
G04 #@! TO.C,U6*
X173152380Y-130761904D02*
X173961904Y-130761904D01*
X174057142Y-130714285D01*
X174104761Y-130666666D01*
X174152380Y-130571428D01*
X174152380Y-130380952D01*
X174104761Y-130285714D01*
X174057142Y-130238095D01*
X173961904Y-130190476D01*
X173152380Y-130190476D01*
X173152380Y-129285714D02*
X173152380Y-129476190D01*
X173200000Y-129571428D01*
X173247619Y-129619047D01*
X173390476Y-129714285D01*
X173580952Y-129761904D01*
X173961904Y-129761904D01*
X174057142Y-129714285D01*
X174104761Y-129666666D01*
X174152380Y-129571428D01*
X174152380Y-129380952D01*
X174104761Y-129285714D01*
X174057142Y-129238095D01*
X173961904Y-129190476D01*
X173723809Y-129190476D01*
X173628571Y-129238095D01*
X173580952Y-129285714D01*
X173533333Y-129380952D01*
X173533333Y-129571428D01*
X173580952Y-129666666D01*
X173628571Y-129714285D01*
X173723809Y-129761904D01*
G04 #@! TO.C,U7*
X155152380Y-130761904D02*
X155961904Y-130761904D01*
X156057142Y-130714285D01*
X156104761Y-130666666D01*
X156152380Y-130571428D01*
X156152380Y-130380952D01*
X156104761Y-130285714D01*
X156057142Y-130238095D01*
X155961904Y-130190476D01*
X155152380Y-130190476D01*
X155152380Y-129809523D02*
X155152380Y-129142857D01*
X156152380Y-129571428D01*
G04 #@! TO.C,U8*
X115152380Y-130761904D02*
X115961904Y-130761904D01*
X116057142Y-130714285D01*
X116104761Y-130666666D01*
X116152380Y-130571428D01*
X116152380Y-130380952D01*
X116104761Y-130285714D01*
X116057142Y-130238095D01*
X115961904Y-130190476D01*
X115152380Y-130190476D01*
X115580952Y-129571428D02*
X115533333Y-129666666D01*
X115485714Y-129714285D01*
X115390476Y-129761904D01*
X115342857Y-129761904D01*
X115247619Y-129714285D01*
X115200000Y-129666666D01*
X115152380Y-129571428D01*
X115152380Y-129380952D01*
X115200000Y-129285714D01*
X115247619Y-129238095D01*
X115342857Y-129190476D01*
X115390476Y-129190476D01*
X115485714Y-129238095D01*
X115533333Y-129285714D01*
X115580952Y-129380952D01*
X115580952Y-129571428D01*
X115628571Y-129666666D01*
X115676190Y-129714285D01*
X115771428Y-129761904D01*
X115961904Y-129761904D01*
X116057142Y-129714285D01*
X116104761Y-129666666D01*
X116152380Y-129571428D01*
X116152380Y-129380952D01*
X116104761Y-129285714D01*
X116057142Y-129238095D01*
X115961904Y-129190476D01*
X115771428Y-129190476D01*
X115676190Y-129238095D01*
X115628571Y-129285714D01*
X115580952Y-129380952D01*
G04 #@! TO.C,U9*
X97152380Y-130761904D02*
X97961904Y-130761904D01*
X98057142Y-130714285D01*
X98104761Y-130666666D01*
X98152380Y-130571428D01*
X98152380Y-130380952D01*
X98104761Y-130285714D01*
X98057142Y-130238095D01*
X97961904Y-130190476D01*
X97152380Y-130190476D01*
X98152380Y-129666666D02*
X98152380Y-129476190D01*
X98104761Y-129380952D01*
X98057142Y-129333333D01*
X97914285Y-129238095D01*
X97723809Y-129190476D01*
X97342857Y-129190476D01*
X97247619Y-129238095D01*
X97200000Y-129285714D01*
X97152380Y-129380952D01*
X97152380Y-129571428D01*
X97200000Y-129666666D01*
X97247619Y-129714285D01*
X97342857Y-129761904D01*
X97580952Y-129761904D01*
X97676190Y-129714285D01*
X97723809Y-129666666D01*
X97771428Y-129571428D01*
X97771428Y-129380952D01*
X97723809Y-129285714D01*
X97676190Y-129238095D01*
X97580952Y-129190476D01*
G04 #@! TO.C,U10*
X191152380Y-131238095D02*
X191961904Y-131238095D01*
X192057142Y-131190476D01*
X192104761Y-131142857D01*
X192152380Y-131047619D01*
X192152380Y-130857142D01*
X192104761Y-130761904D01*
X192057142Y-130714285D01*
X191961904Y-130666666D01*
X191152380Y-130666666D01*
X192152380Y-129666666D02*
X192152380Y-130238095D01*
X192152380Y-129952380D02*
X191152380Y-129952380D01*
X191295238Y-130047619D01*
X191390476Y-130142857D01*
X191438095Y-130238095D01*
X191152380Y-129047619D02*
X191152380Y-128952380D01*
X191200000Y-128857142D01*
X191247619Y-128809523D01*
X191342857Y-128761904D01*
X191533333Y-128714285D01*
X191771428Y-128714285D01*
X191961904Y-128761904D01*
X192057142Y-128809523D01*
X192104761Y-128857142D01*
X192152380Y-128952380D01*
X192152380Y-129047619D01*
X192104761Y-129142857D01*
X192057142Y-129190476D01*
X191961904Y-129238095D01*
X191771428Y-129285714D01*
X191533333Y-129285714D01*
X191342857Y-129238095D01*
X191247619Y-129190476D01*
X191200000Y-129142857D01*
X191152380Y-129047619D01*
G04 #@! TO.C,U11*
X182152380Y-131238095D02*
X182961904Y-131238095D01*
X183057142Y-131190476D01*
X183104761Y-131142857D01*
X183152380Y-131047619D01*
X183152380Y-130857142D01*
X183104761Y-130761904D01*
X183057142Y-130714285D01*
X182961904Y-130666666D01*
X182152380Y-130666666D01*
X183152380Y-129666666D02*
X183152380Y-130238095D01*
X183152380Y-129952380D02*
X182152380Y-129952380D01*
X182295238Y-130047619D01*
X182390476Y-130142857D01*
X182438095Y-130238095D01*
X183152380Y-128714285D02*
X183152380Y-129285714D01*
X183152380Y-129000000D02*
X182152380Y-129000000D01*
X182295238Y-129095238D01*
X182390476Y-129190476D01*
X182438095Y-129285714D01*
G04 #@! TO.C,U12*
X133152380Y-131238095D02*
X133961904Y-131238095D01*
X134057142Y-131190476D01*
X134104761Y-131142857D01*
X134152380Y-131047619D01*
X134152380Y-130857142D01*
X134104761Y-130761904D01*
X134057142Y-130714285D01*
X133961904Y-130666666D01*
X133152380Y-130666666D01*
X134152380Y-129666666D02*
X134152380Y-130238095D01*
X134152380Y-129952380D02*
X133152380Y-129952380D01*
X133295238Y-130047619D01*
X133390476Y-130142857D01*
X133438095Y-130238095D01*
X133247619Y-129285714D02*
X133200000Y-129238095D01*
X133152380Y-129142857D01*
X133152380Y-128904761D01*
X133200000Y-128809523D01*
X133247619Y-128761904D01*
X133342857Y-128714285D01*
X133438095Y-128714285D01*
X133580952Y-128761904D01*
X134152380Y-129333333D01*
X134152380Y-128714285D01*
G04 #@! TO.C,U13*
X124152380Y-131238095D02*
X124961904Y-131238095D01*
X125057142Y-131190476D01*
X125104761Y-131142857D01*
X125152380Y-131047619D01*
X125152380Y-130857142D01*
X125104761Y-130761904D01*
X125057142Y-130714285D01*
X124961904Y-130666666D01*
X124152380Y-130666666D01*
X125152380Y-129666666D02*
X125152380Y-130238095D01*
X125152380Y-129952380D02*
X124152380Y-129952380D01*
X124295238Y-130047619D01*
X124390476Y-130142857D01*
X124438095Y-130238095D01*
X124152380Y-129333333D02*
X124152380Y-128714285D01*
X124533333Y-129047619D01*
X124533333Y-128904761D01*
X124580952Y-128809523D01*
X124628571Y-128761904D01*
X124723809Y-128714285D01*
X124961904Y-128714285D01*
X125057142Y-128761904D01*
X125104761Y-128809523D01*
X125152380Y-128904761D01*
X125152380Y-129190476D01*
X125104761Y-129285714D01*
X125057142Y-129333333D01*
G04 #@! TO.C,U14*
X200152380Y-131238095D02*
X200961904Y-131238095D01*
X201057142Y-131190476D01*
X201104761Y-131142857D01*
X201152380Y-131047619D01*
X201152380Y-130857142D01*
X201104761Y-130761904D01*
X201057142Y-130714285D01*
X200961904Y-130666666D01*
X200152380Y-130666666D01*
X201152380Y-129666666D02*
X201152380Y-130238095D01*
X201152380Y-129952380D02*
X200152380Y-129952380D01*
X200295238Y-130047619D01*
X200390476Y-130142857D01*
X200438095Y-130238095D01*
X200485714Y-128809523D02*
X201152380Y-128809523D01*
X200104761Y-129047619D02*
X200819047Y-129285714D01*
X200819047Y-128666666D01*
G04 #@! TO.C,U15*
X175761904Y-55517380D02*
X175761904Y-56326904D01*
X175809523Y-56422142D01*
X175857142Y-56469761D01*
X175952380Y-56517380D01*
X176142857Y-56517380D01*
X176238095Y-56469761D01*
X176285714Y-56422142D01*
X176333333Y-56326904D01*
X176333333Y-55517380D01*
X177333333Y-56517380D02*
X176761904Y-56517380D01*
X177047619Y-56517380D02*
X177047619Y-55517380D01*
X176952380Y-55660238D01*
X176857142Y-55755476D01*
X176761904Y-55803095D01*
X178238095Y-55517380D02*
X177761904Y-55517380D01*
X177714285Y-55993571D01*
X177761904Y-55945952D01*
X177857142Y-55898333D01*
X178095238Y-55898333D01*
X178190476Y-55945952D01*
X178238095Y-55993571D01*
X178285714Y-56088809D01*
X178285714Y-56326904D01*
X178238095Y-56422142D01*
X178190476Y-56469761D01*
X178095238Y-56517380D01*
X177857142Y-56517380D01*
X177761904Y-56469761D01*
X177714285Y-56422142D01*
G04 #@! TO.C,U16*
X133752380Y-70238095D02*
X134561904Y-70238095D01*
X134657142Y-70190476D01*
X134704761Y-70142857D01*
X134752380Y-70047619D01*
X134752380Y-69857142D01*
X134704761Y-69761904D01*
X134657142Y-69714285D01*
X134561904Y-69666666D01*
X133752380Y-69666666D01*
X134752380Y-68666666D02*
X134752380Y-69238095D01*
X134752380Y-68952380D02*
X133752380Y-68952380D01*
X133895238Y-69047619D01*
X133990476Y-69142857D01*
X134038095Y-69238095D01*
X133752380Y-67809523D02*
X133752380Y-68000000D01*
X133800000Y-68095238D01*
X133847619Y-68142857D01*
X133990476Y-68238095D01*
X134180952Y-68285714D01*
X134561904Y-68285714D01*
X134657142Y-68238095D01*
X134704761Y-68190476D01*
X134752380Y-68095238D01*
X134752380Y-67904761D01*
X134704761Y-67809523D01*
X134657142Y-67761904D01*
X134561904Y-67714285D01*
X134323809Y-67714285D01*
X134228571Y-67761904D01*
X134180952Y-67809523D01*
X134133333Y-67904761D01*
X134133333Y-68095238D01*
X134180952Y-68190476D01*
X134228571Y-68238095D01*
X134323809Y-68285714D01*
G04 #@! TO.C,U17*
X184752380Y-89238095D02*
X185561904Y-89238095D01*
X185657142Y-89190476D01*
X185704761Y-89142857D01*
X185752380Y-89047619D01*
X185752380Y-88857142D01*
X185704761Y-88761904D01*
X185657142Y-88714285D01*
X185561904Y-88666666D01*
X184752380Y-88666666D01*
X185752380Y-87666666D02*
X185752380Y-88238095D01*
X185752380Y-87952380D02*
X184752380Y-87952380D01*
X184895238Y-88047619D01*
X184990476Y-88142857D01*
X185038095Y-88238095D01*
X184752380Y-87333333D02*
X184752380Y-86666666D01*
X185752380Y-87095238D01*
G04 #@! TO.C,U18*
X174752380Y-89238095D02*
X175561904Y-89238095D01*
X175657142Y-89190476D01*
X175704761Y-89142857D01*
X175752380Y-89047619D01*
X175752380Y-88857142D01*
X175704761Y-88761904D01*
X175657142Y-88714285D01*
X175561904Y-88666666D01*
X174752380Y-88666666D01*
X175752380Y-87666666D02*
X175752380Y-88238095D01*
X175752380Y-87952380D02*
X174752380Y-87952380D01*
X174895238Y-88047619D01*
X174990476Y-88142857D01*
X175038095Y-88238095D01*
X175180952Y-87095238D02*
X175133333Y-87190476D01*
X175085714Y-87238095D01*
X174990476Y-87285714D01*
X174942857Y-87285714D01*
X174847619Y-87238095D01*
X174800000Y-87190476D01*
X174752380Y-87095238D01*
X174752380Y-86904761D01*
X174800000Y-86809523D01*
X174847619Y-86761904D01*
X174942857Y-86714285D01*
X174990476Y-86714285D01*
X175085714Y-86761904D01*
X175133333Y-86809523D01*
X175180952Y-86904761D01*
X175180952Y-87095238D01*
X175228571Y-87190476D01*
X175276190Y-87238095D01*
X175371428Y-87285714D01*
X175561904Y-87285714D01*
X175657142Y-87238095D01*
X175704761Y-87190476D01*
X175752380Y-87095238D01*
X175752380Y-86904761D01*
X175704761Y-86809523D01*
X175657142Y-86761904D01*
X175561904Y-86714285D01*
X175371428Y-86714285D01*
X175276190Y-86761904D01*
X175228571Y-86809523D01*
X175180952Y-86904761D01*
G04 #@! TO.C,U19*
X164752380Y-89238095D02*
X165561904Y-89238095D01*
X165657142Y-89190476D01*
X165704761Y-89142857D01*
X165752380Y-89047619D01*
X165752380Y-88857142D01*
X165704761Y-88761904D01*
X165657142Y-88714285D01*
X165561904Y-88666666D01*
X164752380Y-88666666D01*
X165752380Y-87666666D02*
X165752380Y-88238095D01*
X165752380Y-87952380D02*
X164752380Y-87952380D01*
X164895238Y-88047619D01*
X164990476Y-88142857D01*
X165038095Y-88238095D01*
X165752380Y-87190476D02*
X165752380Y-87000000D01*
X165704761Y-86904761D01*
X165657142Y-86857142D01*
X165514285Y-86761904D01*
X165323809Y-86714285D01*
X164942857Y-86714285D01*
X164847619Y-86761904D01*
X164800000Y-86809523D01*
X164752380Y-86904761D01*
X164752380Y-87095238D01*
X164800000Y-87190476D01*
X164847619Y-87238095D01*
X164942857Y-87285714D01*
X165180952Y-87285714D01*
X165276190Y-87238095D01*
X165323809Y-87190476D01*
X165371428Y-87095238D01*
X165371428Y-86904761D01*
X165323809Y-86809523D01*
X165276190Y-86761904D01*
X165180952Y-86714285D01*
G04 #@! TO.C,U20*
X154752380Y-89238095D02*
X155561904Y-89238095D01*
X155657142Y-89190476D01*
X155704761Y-89142857D01*
X155752380Y-89047619D01*
X155752380Y-88857142D01*
X155704761Y-88761904D01*
X155657142Y-88714285D01*
X155561904Y-88666666D01*
X154752380Y-88666666D01*
X154847619Y-88238095D02*
X154800000Y-88190476D01*
X154752380Y-88095238D01*
X154752380Y-87857142D01*
X154800000Y-87761904D01*
X154847619Y-87714285D01*
X154942857Y-87666666D01*
X155038095Y-87666666D01*
X155180952Y-87714285D01*
X155752380Y-88285714D01*
X155752380Y-87666666D01*
X154752380Y-87047619D02*
X154752380Y-86952380D01*
X154800000Y-86857142D01*
X154847619Y-86809523D01*
X154942857Y-86761904D01*
X155133333Y-86714285D01*
X155371428Y-86714285D01*
X155561904Y-86761904D01*
X155657142Y-86809523D01*
X155704761Y-86857142D01*
X155752380Y-86952380D01*
X155752380Y-87047619D01*
X155704761Y-87142857D01*
X155657142Y-87190476D01*
X155561904Y-87238095D01*
X155371428Y-87285714D01*
X155133333Y-87285714D01*
X154942857Y-87238095D01*
X154847619Y-87190476D01*
X154800000Y-87142857D01*
X154752380Y-87047619D01*
G04 #@! TO.C,U21*
X127752380Y-89238095D02*
X128561904Y-89238095D01*
X128657142Y-89190476D01*
X128704761Y-89142857D01*
X128752380Y-89047619D01*
X128752380Y-88857142D01*
X128704761Y-88761904D01*
X128657142Y-88714285D01*
X128561904Y-88666666D01*
X127752380Y-88666666D01*
X127847619Y-88238095D02*
X127800000Y-88190476D01*
X127752380Y-88095238D01*
X127752380Y-87857142D01*
X127800000Y-87761904D01*
X127847619Y-87714285D01*
X127942857Y-87666666D01*
X128038095Y-87666666D01*
X128180952Y-87714285D01*
X128752380Y-88285714D01*
X128752380Y-87666666D01*
X128752380Y-86714285D02*
X128752380Y-87285714D01*
X128752380Y-87000000D02*
X127752380Y-87000000D01*
X127895238Y-87095238D01*
X127990476Y-87190476D01*
X128038095Y-87285714D01*
G04 #@! TO.C,U22*
X117752380Y-89238095D02*
X118561904Y-89238095D01*
X118657142Y-89190476D01*
X118704761Y-89142857D01*
X118752380Y-89047619D01*
X118752380Y-88857142D01*
X118704761Y-88761904D01*
X118657142Y-88714285D01*
X118561904Y-88666666D01*
X117752380Y-88666666D01*
X117847619Y-88238095D02*
X117800000Y-88190476D01*
X117752380Y-88095238D01*
X117752380Y-87857142D01*
X117800000Y-87761904D01*
X117847619Y-87714285D01*
X117942857Y-87666666D01*
X118038095Y-87666666D01*
X118180952Y-87714285D01*
X118752380Y-88285714D01*
X118752380Y-87666666D01*
X117847619Y-87285714D02*
X117800000Y-87238095D01*
X117752380Y-87142857D01*
X117752380Y-86904761D01*
X117800000Y-86809523D01*
X117847619Y-86761904D01*
X117942857Y-86714285D01*
X118038095Y-86714285D01*
X118180952Y-86761904D01*
X118752380Y-87333333D01*
X118752380Y-86714285D01*
G04 #@! TO.C,U23*
X107752380Y-89238095D02*
X108561904Y-89238095D01*
X108657142Y-89190476D01*
X108704761Y-89142857D01*
X108752380Y-89047619D01*
X108752380Y-88857142D01*
X108704761Y-88761904D01*
X108657142Y-88714285D01*
X108561904Y-88666666D01*
X107752380Y-88666666D01*
X107847619Y-88238095D02*
X107800000Y-88190476D01*
X107752380Y-88095238D01*
X107752380Y-87857142D01*
X107800000Y-87761904D01*
X107847619Y-87714285D01*
X107942857Y-87666666D01*
X108038095Y-87666666D01*
X108180952Y-87714285D01*
X108752380Y-88285714D01*
X108752380Y-87666666D01*
X107752380Y-87333333D02*
X107752380Y-86714285D01*
X108133333Y-87047619D01*
X108133333Y-86904761D01*
X108180952Y-86809523D01*
X108228571Y-86761904D01*
X108323809Y-86714285D01*
X108561904Y-86714285D01*
X108657142Y-86761904D01*
X108704761Y-86809523D01*
X108752380Y-86904761D01*
X108752380Y-87190476D01*
X108704761Y-87285714D01*
X108657142Y-87333333D01*
G04 #@! TO.C,U24*
X115152380Y-56238095D02*
X115961904Y-56238095D01*
X116057142Y-56190476D01*
X116104761Y-56142857D01*
X116152380Y-56047619D01*
X116152380Y-55857142D01*
X116104761Y-55761904D01*
X116057142Y-55714285D01*
X115961904Y-55666666D01*
X115152380Y-55666666D01*
X115247619Y-55238095D02*
X115200000Y-55190476D01*
X115152380Y-55095238D01*
X115152380Y-54857142D01*
X115200000Y-54761904D01*
X115247619Y-54714285D01*
X115342857Y-54666666D01*
X115438095Y-54666666D01*
X115580952Y-54714285D01*
X116152380Y-55285714D01*
X116152380Y-54666666D01*
X115485714Y-53809523D02*
X116152380Y-53809523D01*
X115104761Y-54047619D02*
X115819047Y-54285714D01*
X115819047Y-53666666D01*
G04 #@! TO.C,U25*
X128152380Y-56238095D02*
X128961904Y-56238095D01*
X129057142Y-56190476D01*
X129104761Y-56142857D01*
X129152380Y-56047619D01*
X129152380Y-55857142D01*
X129104761Y-55761904D01*
X129057142Y-55714285D01*
X128961904Y-55666666D01*
X128152380Y-55666666D01*
X128247619Y-55238095D02*
X128200000Y-55190476D01*
X128152380Y-55095238D01*
X128152380Y-54857142D01*
X128200000Y-54761904D01*
X128247619Y-54714285D01*
X128342857Y-54666666D01*
X128438095Y-54666666D01*
X128580952Y-54714285D01*
X129152380Y-55285714D01*
X129152380Y-54666666D01*
X128152380Y-53761904D02*
X128152380Y-54238095D01*
X128628571Y-54285714D01*
X128580952Y-54238095D01*
X128533333Y-54142857D01*
X128533333Y-53904761D01*
X128580952Y-53809523D01*
X128628571Y-53761904D01*
X128723809Y-53714285D01*
X128961904Y-53714285D01*
X129057142Y-53761904D01*
X129104761Y-53809523D01*
X129152380Y-53904761D01*
X129152380Y-54142857D01*
X129104761Y-54238095D01*
X129057142Y-54285714D01*
G04 #@! TO.C,U26*
X124752380Y-44238095D02*
X125561904Y-44238095D01*
X125657142Y-44190476D01*
X125704761Y-44142857D01*
X125752380Y-44047619D01*
X125752380Y-43857142D01*
X125704761Y-43761904D01*
X125657142Y-43714285D01*
X125561904Y-43666666D01*
X124752380Y-43666666D01*
X124847619Y-43238095D02*
X124800000Y-43190476D01*
X124752380Y-43095238D01*
X124752380Y-42857142D01*
X124800000Y-42761904D01*
X124847619Y-42714285D01*
X124942857Y-42666666D01*
X125038095Y-42666666D01*
X125180952Y-42714285D01*
X125752380Y-43285714D01*
X125752380Y-42666666D01*
X124752380Y-41809523D02*
X124752380Y-42000000D01*
X124800000Y-42095238D01*
X124847619Y-42142857D01*
X124990476Y-42238095D01*
X125180952Y-42285714D01*
X125561904Y-42285714D01*
X125657142Y-42238095D01*
X125704761Y-42190476D01*
X125752380Y-42095238D01*
X125752380Y-41904761D01*
X125704761Y-41809523D01*
X125657142Y-41761904D01*
X125561904Y-41714285D01*
X125323809Y-41714285D01*
X125228571Y-41761904D01*
X125180952Y-41809523D01*
X125133333Y-41904761D01*
X125133333Y-42095238D01*
X125180952Y-42190476D01*
X125228571Y-42238095D01*
X125323809Y-42285714D01*
G04 #@! TO.C,U27*
X137752380Y-44238095D02*
X138561904Y-44238095D01*
X138657142Y-44190476D01*
X138704761Y-44142857D01*
X138752380Y-44047619D01*
X138752380Y-43857142D01*
X138704761Y-43761904D01*
X138657142Y-43714285D01*
X138561904Y-43666666D01*
X137752380Y-43666666D01*
X137847619Y-43238095D02*
X137800000Y-43190476D01*
X137752380Y-43095238D01*
X137752380Y-42857142D01*
X137800000Y-42761904D01*
X137847619Y-42714285D01*
X137942857Y-42666666D01*
X138038095Y-42666666D01*
X138180952Y-42714285D01*
X138752380Y-43285714D01*
X138752380Y-42666666D01*
X137752380Y-42333333D02*
X137752380Y-41666666D01*
X138752380Y-42095238D01*
G04 #@! TO.C,U28*
X169452380Y-70238095D02*
X170261904Y-70238095D01*
X170357142Y-70190476D01*
X170404761Y-70142857D01*
X170452380Y-70047619D01*
X170452380Y-69857142D01*
X170404761Y-69761904D01*
X170357142Y-69714285D01*
X170261904Y-69666666D01*
X169452380Y-69666666D01*
X169547619Y-69238095D02*
X169500000Y-69190476D01*
X169452380Y-69095238D01*
X169452380Y-68857142D01*
X169500000Y-68761904D01*
X169547619Y-68714285D01*
X169642857Y-68666666D01*
X169738095Y-68666666D01*
X169880952Y-68714285D01*
X170452380Y-69285714D01*
X170452380Y-68666666D01*
X169880952Y-68095238D02*
X169833333Y-68190476D01*
X169785714Y-68238095D01*
X169690476Y-68285714D01*
X169642857Y-68285714D01*
X169547619Y-68238095D01*
X169500000Y-68190476D01*
X169452380Y-68095238D01*
X169452380Y-67904761D01*
X169500000Y-67809523D01*
X169547619Y-67761904D01*
X169642857Y-67714285D01*
X169690476Y-67714285D01*
X169785714Y-67761904D01*
X169833333Y-67809523D01*
X169880952Y-67904761D01*
X169880952Y-68095238D01*
X169928571Y-68190476D01*
X169976190Y-68238095D01*
X170071428Y-68285714D01*
X170261904Y-68285714D01*
X170357142Y-68238095D01*
X170404761Y-68190476D01*
X170452380Y-68095238D01*
X170452380Y-67904761D01*
X170404761Y-67809523D01*
X170357142Y-67761904D01*
X170261904Y-67714285D01*
X170071428Y-67714285D01*
X169976190Y-67761904D01*
X169928571Y-67809523D01*
X169880952Y-67904761D01*
G04 #@! TO.C,U29*
X158452380Y-70238095D02*
X159261904Y-70238095D01*
X159357142Y-70190476D01*
X159404761Y-70142857D01*
X159452380Y-70047619D01*
X159452380Y-69857142D01*
X159404761Y-69761904D01*
X159357142Y-69714285D01*
X159261904Y-69666666D01*
X158452380Y-69666666D01*
X158547619Y-69238095D02*
X158500000Y-69190476D01*
X158452380Y-69095238D01*
X158452380Y-68857142D01*
X158500000Y-68761904D01*
X158547619Y-68714285D01*
X158642857Y-68666666D01*
X158738095Y-68666666D01*
X158880952Y-68714285D01*
X159452380Y-69285714D01*
X159452380Y-68666666D01*
X159452380Y-68190476D02*
X159452380Y-68000000D01*
X159404761Y-67904761D01*
X159357142Y-67857142D01*
X159214285Y-67761904D01*
X159023809Y-67714285D01*
X158642857Y-67714285D01*
X158547619Y-67761904D01*
X158500000Y-67809523D01*
X158452380Y-67904761D01*
X158452380Y-68095238D01*
X158500000Y-68190476D01*
X158547619Y-68238095D01*
X158642857Y-68285714D01*
X158880952Y-68285714D01*
X158976190Y-68238095D01*
X159023809Y-68190476D01*
X159071428Y-68095238D01*
X159071428Y-67904761D01*
X159023809Y-67809523D01*
X158976190Y-67761904D01*
X158880952Y-67714285D01*
G04 #@! TO.C,U30*
X147452380Y-70238095D02*
X148261904Y-70238095D01*
X148357142Y-70190476D01*
X148404761Y-70142857D01*
X148452380Y-70047619D01*
X148452380Y-69857142D01*
X148404761Y-69761904D01*
X148357142Y-69714285D01*
X148261904Y-69666666D01*
X147452380Y-69666666D01*
X147452380Y-69285714D02*
X147452380Y-68666666D01*
X147833333Y-69000000D01*
X147833333Y-68857142D01*
X147880952Y-68761904D01*
X147928571Y-68714285D01*
X148023809Y-68666666D01*
X148261904Y-68666666D01*
X148357142Y-68714285D01*
X148404761Y-68761904D01*
X148452380Y-68857142D01*
X148452380Y-69142857D01*
X148404761Y-69238095D01*
X148357142Y-69285714D01*
X147452380Y-68047619D02*
X147452380Y-67952380D01*
X147500000Y-67857142D01*
X147547619Y-67809523D01*
X147642857Y-67761904D01*
X147833333Y-67714285D01*
X148071428Y-67714285D01*
X148261904Y-67761904D01*
X148357142Y-67809523D01*
X148404761Y-67857142D01*
X148452380Y-67952380D01*
X148452380Y-68047619D01*
X148404761Y-68142857D01*
X148357142Y-68190476D01*
X148261904Y-68238095D01*
X148071428Y-68285714D01*
X147833333Y-68285714D01*
X147642857Y-68238095D01*
X147547619Y-68190476D01*
X147500000Y-68142857D01*
X147452380Y-68047619D01*
G04 #@! TO.C,U31*
X136452380Y-70238095D02*
X137261904Y-70238095D01*
X137357142Y-70190476D01*
X137404761Y-70142857D01*
X137452380Y-70047619D01*
X137452380Y-69857142D01*
X137404761Y-69761904D01*
X137357142Y-69714285D01*
X137261904Y-69666666D01*
X136452380Y-69666666D01*
X136452380Y-69285714D02*
X136452380Y-68666666D01*
X136833333Y-69000000D01*
X136833333Y-68857142D01*
X136880952Y-68761904D01*
X136928571Y-68714285D01*
X137023809Y-68666666D01*
X137261904Y-68666666D01*
X137357142Y-68714285D01*
X137404761Y-68761904D01*
X137452380Y-68857142D01*
X137452380Y-69142857D01*
X137404761Y-69238095D01*
X137357142Y-69285714D01*
X137452380Y-67714285D02*
X137452380Y-68285714D01*
X137452380Y-68000000D02*
X136452380Y-68000000D01*
X136595238Y-68095238D01*
X136690476Y-68190476D01*
X136738095Y-68285714D01*
G04 #@! TO.C,U32*
X110452380Y-70238095D02*
X111261904Y-70238095D01*
X111357142Y-70190476D01*
X111404761Y-70142857D01*
X111452380Y-70047619D01*
X111452380Y-69857142D01*
X111404761Y-69761904D01*
X111357142Y-69714285D01*
X111261904Y-69666666D01*
X110452380Y-69666666D01*
X110452380Y-69285714D02*
X110452380Y-68666666D01*
X110833333Y-69000000D01*
X110833333Y-68857142D01*
X110880952Y-68761904D01*
X110928571Y-68714285D01*
X111023809Y-68666666D01*
X111261904Y-68666666D01*
X111357142Y-68714285D01*
X111404761Y-68761904D01*
X111452380Y-68857142D01*
X111452380Y-69142857D01*
X111404761Y-69238095D01*
X111357142Y-69285714D01*
X110547619Y-68285714D02*
X110500000Y-68238095D01*
X110452380Y-68142857D01*
X110452380Y-67904761D01*
X110500000Y-67809523D01*
X110547619Y-67761904D01*
X110642857Y-67714285D01*
X110738095Y-67714285D01*
X110880952Y-67761904D01*
X111452380Y-68333333D01*
X111452380Y-67714285D01*
G04 #@! TO.C,U33*
X99452380Y-70238095D02*
X100261904Y-70238095D01*
X100357142Y-70190476D01*
X100404761Y-70142857D01*
X100452380Y-70047619D01*
X100452380Y-69857142D01*
X100404761Y-69761904D01*
X100357142Y-69714285D01*
X100261904Y-69666666D01*
X99452380Y-69666666D01*
X99452380Y-69285714D02*
X99452380Y-68666666D01*
X99833333Y-69000000D01*
X99833333Y-68857142D01*
X99880952Y-68761904D01*
X99928571Y-68714285D01*
X100023809Y-68666666D01*
X100261904Y-68666666D01*
X100357142Y-68714285D01*
X100404761Y-68761904D01*
X100452380Y-68857142D01*
X100452380Y-69142857D01*
X100404761Y-69238095D01*
X100357142Y-69285714D01*
X99452380Y-68333333D02*
X99452380Y-67714285D01*
X99833333Y-68047619D01*
X99833333Y-67904761D01*
X99880952Y-67809523D01*
X99928571Y-67761904D01*
X100023809Y-67714285D01*
X100261904Y-67714285D01*
X100357142Y-67761904D01*
X100404761Y-67809523D01*
X100452380Y-67904761D01*
X100452380Y-68190476D01*
X100404761Y-68285714D01*
X100357142Y-68333333D01*
G04 #@! TO.C,U34*
X88452380Y-70238095D02*
X89261904Y-70238095D01*
X89357142Y-70190476D01*
X89404761Y-70142857D01*
X89452380Y-70047619D01*
X89452380Y-69857142D01*
X89404761Y-69761904D01*
X89357142Y-69714285D01*
X89261904Y-69666666D01*
X88452380Y-69666666D01*
X88452380Y-69285714D02*
X88452380Y-68666666D01*
X88833333Y-69000000D01*
X88833333Y-68857142D01*
X88880952Y-68761904D01*
X88928571Y-68714285D01*
X89023809Y-68666666D01*
X89261904Y-68666666D01*
X89357142Y-68714285D01*
X89404761Y-68761904D01*
X89452380Y-68857142D01*
X89452380Y-69142857D01*
X89404761Y-69238095D01*
X89357142Y-69285714D01*
X88785714Y-67809523D02*
X89452380Y-67809523D01*
X88404761Y-68047619D02*
X89119047Y-68285714D01*
X89119047Y-67666666D01*
G04 #@! TO.C,U36*
X74761904Y-97517380D02*
X74761904Y-98326904D01*
X74809523Y-98422142D01*
X74857142Y-98469761D01*
X74952380Y-98517380D01*
X75142857Y-98517380D01*
X75238095Y-98469761D01*
X75285714Y-98422142D01*
X75333333Y-98326904D01*
X75333333Y-97517380D01*
X75714285Y-97517380D02*
X76333333Y-97517380D01*
X76000000Y-97898333D01*
X76142857Y-97898333D01*
X76238095Y-97945952D01*
X76285714Y-97993571D01*
X76333333Y-98088809D01*
X76333333Y-98326904D01*
X76285714Y-98422142D01*
X76238095Y-98469761D01*
X76142857Y-98517380D01*
X75857142Y-98517380D01*
X75761904Y-98469761D01*
X75714285Y-98422142D01*
X77190476Y-97517380D02*
X77000000Y-97517380D01*
X76904761Y-97565000D01*
X76857142Y-97612619D01*
X76761904Y-97755476D01*
X76714285Y-97945952D01*
X76714285Y-98326904D01*
X76761904Y-98422142D01*
X76809523Y-98469761D01*
X76904761Y-98517380D01*
X77095238Y-98517380D01*
X77190476Y-98469761D01*
X77238095Y-98422142D01*
X77285714Y-98326904D01*
X77285714Y-98088809D01*
X77238095Y-97993571D01*
X77190476Y-97945952D01*
X77095238Y-97898333D01*
X76904761Y-97898333D01*
X76809523Y-97945952D01*
X76761904Y-97993571D01*
X76714285Y-98088809D01*
G04 #@! TO.C,U37*
X132152380Y-102238095D02*
X132961904Y-102238095D01*
X133057142Y-102190476D01*
X133104761Y-102142857D01*
X133152380Y-102047619D01*
X133152380Y-101857142D01*
X133104761Y-101761904D01*
X133057142Y-101714285D01*
X132961904Y-101666666D01*
X132152380Y-101666666D01*
X132152380Y-101285714D02*
X132152380Y-100666666D01*
X132533333Y-101000000D01*
X132533333Y-100857142D01*
X132580952Y-100761904D01*
X132628571Y-100714285D01*
X132723809Y-100666666D01*
X132961904Y-100666666D01*
X133057142Y-100714285D01*
X133104761Y-100761904D01*
X133152380Y-100857142D01*
X133152380Y-101142857D01*
X133104761Y-101238095D01*
X133057142Y-101285714D01*
X132152380Y-100333333D02*
X132152380Y-99666666D01*
X133152380Y-100095238D01*
G04 #@! TO.C,U39*
X145452380Y-88238095D02*
X146261904Y-88238095D01*
X146357142Y-88190476D01*
X146404761Y-88142857D01*
X146452380Y-88047619D01*
X146452380Y-87857142D01*
X146404761Y-87761904D01*
X146357142Y-87714285D01*
X146261904Y-87666666D01*
X145452380Y-87666666D01*
X145452380Y-87285714D02*
X145452380Y-86666666D01*
X145833333Y-87000000D01*
X145833333Y-86857142D01*
X145880952Y-86761904D01*
X145928571Y-86714285D01*
X146023809Y-86666666D01*
X146261904Y-86666666D01*
X146357142Y-86714285D01*
X146404761Y-86761904D01*
X146452380Y-86857142D01*
X146452380Y-87142857D01*
X146404761Y-87238095D01*
X146357142Y-87285714D01*
X146452380Y-86190476D02*
X146452380Y-86000000D01*
X146404761Y-85904761D01*
X146357142Y-85857142D01*
X146214285Y-85761904D01*
X146023809Y-85714285D01*
X145642857Y-85714285D01*
X145547619Y-85761904D01*
X145500000Y-85809523D01*
X145452380Y-85904761D01*
X145452380Y-86095238D01*
X145500000Y-86190476D01*
X145547619Y-86238095D01*
X145642857Y-86285714D01*
X145880952Y-86285714D01*
X145976190Y-86238095D01*
X146023809Y-86190476D01*
X146071428Y-86095238D01*
X146071428Y-85904761D01*
X146023809Y-85809523D01*
X145976190Y-85761904D01*
X145880952Y-85714285D01*
G04 #@! TO.C,U40*
X176752380Y-108238095D02*
X177561904Y-108238095D01*
X177657142Y-108190476D01*
X177704761Y-108142857D01*
X177752380Y-108047619D01*
X177752380Y-107857142D01*
X177704761Y-107761904D01*
X177657142Y-107714285D01*
X177561904Y-107666666D01*
X176752380Y-107666666D01*
X177085714Y-106761904D02*
X177752380Y-106761904D01*
X176704761Y-107000000D02*
X177419047Y-107238095D01*
X177419047Y-106619047D01*
X176752380Y-106047619D02*
X176752380Y-105952380D01*
X176800000Y-105857142D01*
X176847619Y-105809523D01*
X176942857Y-105761904D01*
X177133333Y-105714285D01*
X177371428Y-105714285D01*
X177561904Y-105761904D01*
X177657142Y-105809523D01*
X177704761Y-105857142D01*
X177752380Y-105952380D01*
X177752380Y-106047619D01*
X177704761Y-106142857D01*
X177657142Y-106190476D01*
X177561904Y-106238095D01*
X177371428Y-106285714D01*
X177133333Y-106285714D01*
X176942857Y-106238095D01*
X176847619Y-106190476D01*
X176800000Y-106142857D01*
X176752380Y-106047619D01*
G04 #@! TO.C,U41*
X156752380Y-108238095D02*
X157561904Y-108238095D01*
X157657142Y-108190476D01*
X157704761Y-108142857D01*
X157752380Y-108047619D01*
X157752380Y-107857142D01*
X157704761Y-107761904D01*
X157657142Y-107714285D01*
X157561904Y-107666666D01*
X156752380Y-107666666D01*
X157085714Y-106761904D02*
X157752380Y-106761904D01*
X156704761Y-107000000D02*
X157419047Y-107238095D01*
X157419047Y-106619047D01*
X157752380Y-105714285D02*
X157752380Y-106285714D01*
X157752380Y-106000000D02*
X156752380Y-106000000D01*
X156895238Y-106095238D01*
X156990476Y-106190476D01*
X157038095Y-106285714D01*
G04 #@! TO.C,U42*
X118752380Y-108238095D02*
X119561904Y-108238095D01*
X119657142Y-108190476D01*
X119704761Y-108142857D01*
X119752380Y-108047619D01*
X119752380Y-107857142D01*
X119704761Y-107761904D01*
X119657142Y-107714285D01*
X119561904Y-107666666D01*
X118752380Y-107666666D01*
X119085714Y-106761904D02*
X119752380Y-106761904D01*
X118704761Y-107000000D02*
X119419047Y-107238095D01*
X119419047Y-106619047D01*
X118847619Y-106285714D02*
X118800000Y-106238095D01*
X118752380Y-106142857D01*
X118752380Y-105904761D01*
X118800000Y-105809523D01*
X118847619Y-105761904D01*
X118942857Y-105714285D01*
X119038095Y-105714285D01*
X119180952Y-105761904D01*
X119752380Y-106333333D01*
X119752380Y-105714285D01*
G04 #@! TO.C,U43*
X98752380Y-108238095D02*
X99561904Y-108238095D01*
X99657142Y-108190476D01*
X99704761Y-108142857D01*
X99752380Y-108047619D01*
X99752380Y-107857142D01*
X99704761Y-107761904D01*
X99657142Y-107714285D01*
X99561904Y-107666666D01*
X98752380Y-107666666D01*
X99085714Y-106761904D02*
X99752380Y-106761904D01*
X98704761Y-107000000D02*
X99419047Y-107238095D01*
X99419047Y-106619047D01*
X98752380Y-106333333D02*
X98752380Y-105714285D01*
X99133333Y-106047619D01*
X99133333Y-105904761D01*
X99180952Y-105809523D01*
X99228571Y-105761904D01*
X99323809Y-105714285D01*
X99561904Y-105714285D01*
X99657142Y-105761904D01*
X99704761Y-105809523D01*
X99752380Y-105904761D01*
X99752380Y-106190476D01*
X99704761Y-106285714D01*
X99657142Y-106333333D01*
G04 #@! TO.C,U44*
X83952380Y-107313095D02*
X84761904Y-107313095D01*
X84857142Y-107265476D01*
X84904761Y-107217857D01*
X84952380Y-107122619D01*
X84952380Y-106932142D01*
X84904761Y-106836904D01*
X84857142Y-106789285D01*
X84761904Y-106741666D01*
X83952380Y-106741666D01*
X84285714Y-105836904D02*
X84952380Y-105836904D01*
X83904761Y-106075000D02*
X84619047Y-106313095D01*
X84619047Y-105694047D01*
X84285714Y-104884523D02*
X84952380Y-104884523D01*
X83904761Y-105122619D02*
X84619047Y-105360714D01*
X84619047Y-104741666D01*
G04 #@! TO.C,U53*
X171752380Y-131238095D02*
X172561904Y-131238095D01*
X172657142Y-131190476D01*
X172704761Y-131142857D01*
X172752380Y-131047619D01*
X172752380Y-130857142D01*
X172704761Y-130761904D01*
X172657142Y-130714285D01*
X172561904Y-130666666D01*
X171752380Y-130666666D01*
X171752380Y-129714285D02*
X171752380Y-130190476D01*
X172228571Y-130238095D01*
X172180952Y-130190476D01*
X172133333Y-130095238D01*
X172133333Y-129857142D01*
X172180952Y-129761904D01*
X172228571Y-129714285D01*
X172323809Y-129666666D01*
X172561904Y-129666666D01*
X172657142Y-129714285D01*
X172704761Y-129761904D01*
X172752380Y-129857142D01*
X172752380Y-130095238D01*
X172704761Y-130190476D01*
X172657142Y-130238095D01*
X171752380Y-129333333D02*
X171752380Y-128714285D01*
X172133333Y-129047619D01*
X172133333Y-128904761D01*
X172180952Y-128809523D01*
X172228571Y-128761904D01*
X172323809Y-128714285D01*
X172561904Y-128714285D01*
X172657142Y-128761904D01*
X172704761Y-128809523D01*
X172752380Y-128904761D01*
X172752380Y-129190476D01*
X172704761Y-129285714D01*
X172657142Y-129333333D01*
G04 #@! TO.C,U54*
X153752380Y-131238095D02*
X154561904Y-131238095D01*
X154657142Y-131190476D01*
X154704761Y-131142857D01*
X154752380Y-131047619D01*
X154752380Y-130857142D01*
X154704761Y-130761904D01*
X154657142Y-130714285D01*
X154561904Y-130666666D01*
X153752380Y-130666666D01*
X153752380Y-129714285D02*
X153752380Y-130190476D01*
X154228571Y-130238095D01*
X154180952Y-130190476D01*
X154133333Y-130095238D01*
X154133333Y-129857142D01*
X154180952Y-129761904D01*
X154228571Y-129714285D01*
X154323809Y-129666666D01*
X154561904Y-129666666D01*
X154657142Y-129714285D01*
X154704761Y-129761904D01*
X154752380Y-129857142D01*
X154752380Y-130095238D01*
X154704761Y-130190476D01*
X154657142Y-130238095D01*
X154085714Y-128809523D02*
X154752380Y-128809523D01*
X153704761Y-129047619D02*
X154419047Y-129285714D01*
X154419047Y-128666666D01*
G04 #@! TO.C,U55*
X113752380Y-131238095D02*
X114561904Y-131238095D01*
X114657142Y-131190476D01*
X114704761Y-131142857D01*
X114752380Y-131047619D01*
X114752380Y-130857142D01*
X114704761Y-130761904D01*
X114657142Y-130714285D01*
X114561904Y-130666666D01*
X113752380Y-130666666D01*
X113752380Y-129714285D02*
X113752380Y-130190476D01*
X114228571Y-130238095D01*
X114180952Y-130190476D01*
X114133333Y-130095238D01*
X114133333Y-129857142D01*
X114180952Y-129761904D01*
X114228571Y-129714285D01*
X114323809Y-129666666D01*
X114561904Y-129666666D01*
X114657142Y-129714285D01*
X114704761Y-129761904D01*
X114752380Y-129857142D01*
X114752380Y-130095238D01*
X114704761Y-130190476D01*
X114657142Y-130238095D01*
X113752380Y-128761904D02*
X113752380Y-129238095D01*
X114228571Y-129285714D01*
X114180952Y-129238095D01*
X114133333Y-129142857D01*
X114133333Y-128904761D01*
X114180952Y-128809523D01*
X114228571Y-128761904D01*
X114323809Y-128714285D01*
X114561904Y-128714285D01*
X114657142Y-128761904D01*
X114704761Y-128809523D01*
X114752380Y-128904761D01*
X114752380Y-129142857D01*
X114704761Y-129238095D01*
X114657142Y-129285714D01*
G04 #@! TO.C,U56*
X95752380Y-131238095D02*
X96561904Y-131238095D01*
X96657142Y-131190476D01*
X96704761Y-131142857D01*
X96752380Y-131047619D01*
X96752380Y-130857142D01*
X96704761Y-130761904D01*
X96657142Y-130714285D01*
X96561904Y-130666666D01*
X95752380Y-130666666D01*
X95752380Y-129714285D02*
X95752380Y-130190476D01*
X96228571Y-130238095D01*
X96180952Y-130190476D01*
X96133333Y-130095238D01*
X96133333Y-129857142D01*
X96180952Y-129761904D01*
X96228571Y-129714285D01*
X96323809Y-129666666D01*
X96561904Y-129666666D01*
X96657142Y-129714285D01*
X96704761Y-129761904D01*
X96752380Y-129857142D01*
X96752380Y-130095238D01*
X96704761Y-130190476D01*
X96657142Y-130238095D01*
X95752380Y-128809523D02*
X95752380Y-129000000D01*
X95800000Y-129095238D01*
X95847619Y-129142857D01*
X95990476Y-129238095D01*
X96180952Y-129285714D01*
X96561904Y-129285714D01*
X96657142Y-129238095D01*
X96704761Y-129190476D01*
X96752380Y-129095238D01*
X96752380Y-128904761D01*
X96704761Y-128809523D01*
X96657142Y-128761904D01*
X96561904Y-128714285D01*
X96323809Y-128714285D01*
X96228571Y-128761904D01*
X96180952Y-128809523D01*
X96133333Y-128904761D01*
X96133333Y-129095238D01*
X96180952Y-129190476D01*
X96228571Y-129238095D01*
X96323809Y-129285714D01*
G04 #@! TD*
M02*
