M48
;DRILL file {KiCad (5.0.0)} date 10/30/18 19:15:08
;FORMAT={-:-/ absolute / metric / decimal}
FMAT,2
METRIC,TZ
T1C0.400
T2C0.813
T3C0.950
%
G90
G05
M71
T1
X74.575Y-83.45
X75.825Y-72.675
X77.075Y-105.8
X77.425Y-121.
X77.5Y-120.225
X77.7Y-121.85
X78.185Y-82.909
X80.325Y-108.325
X80.475Y-105.775
X80.6Y-70.35
X81.5Y-68.725
X81.55Y-107.275
X82.292Y-105.6
X82.35Y-70.35
X82.375Y-108.537
X83.25Y-108.1
X83.625Y-68.35
X83.625Y-109.975
X83.758Y-104.075
X84.125Y-98.6
X84.925Y-120.175
X84.975Y-93.7
X84.975Y-121.8
X85.025Y-100.475
X85.05Y-121.
X85.475Y-102.475
X85.725Y-98.8
X85.925Y-110.6
X86.35Y-95.85
X86.367Y-115.025
X86.553Y-109.021
X86.9Y-97.375
X87.082Y-104.025
X87.51Y-99.044
X87.525Y-102.
X87.597Y-94.767
X87.975Y-104.425
X88.2Y-109.625
X88.278Y-112.269
X88.6Y-106.125
X88.673Y-115.01
X88.72Y-97.666
X88.85Y-99.075
X89.05Y-101.725
X89.05Y-125.4
X89.588Y-110.102
X89.675Y-115.05
X90.025Y-73.825
X90.025Y-89.75
X90.1Y-112.05
X90.125Y-99.225
X90.125Y-104.725
X90.645Y-109.067
X90.65Y-61.025
X90.675Y-71.825
X90.91Y-84.142
X91.009Y-115.133
X91.25Y-64.025
X91.272Y-103.677
X91.434Y-111.917
X91.514Y-73.195
X92.145Y-105.526
X92.325Y-71.15
X92.975Y-108.
X93.326Y-72.771
X94.025Y-76.75
X94.1Y-80.4
X94.55Y-61.075
X94.55Y-73.925
X94.875Y-93.65
X94.875Y-100.4
X94.925Y-130.75
X95.05Y-134.325
X95.075Y-105.85
X95.225Y-55.05
X95.3Y-122.625
X95.425Y-107.75
X95.525Y-144.45
X95.619Y-115.351
X95.625Y-98.625
X95.85Y-101.9
X96.175Y-56.425
X96.25Y-112.075
X96.275Y-95.8
X96.35Y-135.625
X96.7Y-117.475
X96.815Y-105.574
X96.825Y-97.175
X97.125Y-108.425
X97.3Y-102.525
X97.35Y-94.425
X97.392Y-98.975
X97.625Y-118.85
X97.675Y-115.975
X98.025Y-128.125
X98.425Y-105.8
X98.5Y-144.45
X98.55Y-111.475
X98.6Y-97.425
X98.725Y-117.7
X98.75Y-125.3
X98.85Y-99.
X98.95Y-102.025
X99.075Y-129.725
X99.1Y-134.65
X99.275Y-89.375
X99.55Y-112.075
X99.625Y-122.075
X99.95Y-105.8
X99.975Y-136.025
X100.125Y-76.65
X100.2Y-84.95
X100.24Y-99.032
X100.375Y-109.158
X100.446Y-102.984
X100.94Y-134.625
X100.975Y-111.45
X101.042Y-123.475
X101.158Y-101.654
X101.388Y-74.287
X101.5Y-144.475
X101.55Y-98.05
X101.575Y-125.325
X101.725Y-60.975
X101.867Y-106.524
X102.Y-136.125
X102.164Y-71.993
X102.25Y-63.975
X102.25Y-78.1
X102.25Y-108.625
X102.25Y-128.55
X102.323Y-104.834
X102.492Y-102.775
X102.85Y-134.6
X102.908Y-99.
X103.05Y-73.325
X103.1Y-79.375
X103.45Y-71.15
X103.6Y-82.45
X103.642Y-113.469
X103.775Y-80.775
X103.775Y-136.1
X104.033Y-111.525
X104.525Y-134.609
X104.7Y-116.
X104.725Y-105.425
X104.866Y-73.062
X104.983Y-100.575
X105.Y-131.425
X105.025Y-76.9
X105.025Y-93.675
X105.05Y-80.5
X105.1Y-83.475
X105.25Y-102.375
X105.55Y-61.075
X105.608Y-86.422
X105.65Y-136.025
X105.675Y-98.6
X105.825Y-111.95
X105.919Y-109.821
X105.925Y-104.3
X105.975Y-95.35
X106.225Y-92.4
X106.231Y-74.131
X106.342Y-114.975
X106.575Y-45.325
X106.766Y-83.625
X106.775Y-97.15
X106.825Y-102.3
X107.05Y-87.375
X107.05Y-111.175
X107.075Y-128.5
X107.3Y-103.825
X107.317Y-49.25
X107.325Y-94.425
X107.584Y-98.971
X107.616Y-104.751
X107.625Y-92.425
X107.65Y-90.95
X108.275Y-110.177
X108.489Y-102.095
X108.5Y-144.475
X108.8Y-97.25
X108.95Y-114.95
X109.Y-112.383
X109.05Y-99.025
X109.85Y-90.675
X109.889Y-110.352
X109.933Y-114.955
X110.Y-104.
X110.125Y-101.95
X110.398Y-99.145
X110.65Y-112.382
X110.9Y-83.55
X111.01Y-103.503
X111.075Y-95.1
X111.375Y-76.65
X111.4Y-117.05
X111.437Y-97.654
X111.475Y-144.55
X111.6Y-102.225
X111.7Y-115.475
X111.7Y-123.425
X111.786Y-119.517
X112.275Y-130.8
X112.375Y-108.39
X112.392Y-78.1
X112.494Y-74.183
X112.599Y-106.362
X112.6Y-122.125
X112.7Y-60.975
X112.787Y-93.152
X112.868Y-117.225
X113.018Y-99.274
X113.125Y-102.375
X113.164Y-72.196
X113.2Y-134.625
X113.3Y-64.025
X113.5Y-123.4
X113.525Y-55.225
X113.578Y-100.725
X113.6Y-80.825
X113.6Y-82.575
X113.625Y-107.51
X113.7Y-79.2
X114.Y-112.875
X114.1Y-131.975
X114.213Y-118.183
X114.225Y-73.575
X114.321Y-51.474
X114.325Y-71.225
X114.55Y-144.475
X114.575Y-98.175
X114.658Y-105.6
X114.85Y-99.725
X114.917Y-83.55
X115.175Y-94.05
X115.225Y-51.1
X115.4Y-108.35
X115.425Y-102.6
X115.475Y-86.375
X115.625Y-57.925
X115.78Y-95.79
X115.825Y-128.225
X115.946Y-72.843
X115.992Y-106.3
X116.025Y-80.375
X116.05Y-76.725
X116.285Y-98.978
X116.35Y-92.525
X116.392Y-115.
X116.525Y-61.2
X116.725Y-134.575
X116.8Y-101.825
X116.925Y-87.325
X116.95Y-40.025
X116.953Y-83.507
X116.961Y-74.261
X117.025Y-125.475
X117.075Y-53.5
X117.075Y-129.775
X117.168Y-107.433
X117.3Y-105.6
X117.325Y-94.571
X117.5Y-135.925
X117.65Y-92.525
X117.7Y-50.2
X117.7Y-91.025
X117.704Y-96.379
X117.725Y-73.35
X117.875Y-98.425
X118.05Y-102.625
X118.325Y-54.75
X118.35Y-125.15
X118.372Y-115.036
X118.55Y-134.65
X118.575Y-110.05
X118.975Y-105.8
X118.975Y-123.475
X119.091Y-53.244
X119.164Y-99.011
X119.32Y-96.625
X119.375Y-115.125
X119.475Y-144.5
X119.5Y-101.9
X119.55Y-121.9
X119.641Y-135.896
X119.65Y-56.192
X119.699Y-112.222
X120.05Y-98.25
X120.274Y-134.575
X120.325Y-48.45
X120.35Y-119.25
X120.675Y-104.125
X120.726Y-114.679
X121.025Y-83.475
X121.033Y-112.
X121.044Y-102.082
X121.05Y-108.25
X121.3Y-135.875
X121.375Y-42.225
X121.612Y-99.025
X121.625Y-49.25
X121.766Y-75.401
X122.182Y-77.35
X122.3Y-134.625
X122.417Y-102.06
X122.434Y-116.366
X122.475Y-144.425
X122.625Y-43.25
X122.849Y-79.325
X122.925Y-114.875
X122.925Y-131.5
X123.257Y-47.477
X123.375Y-135.875
X123.425Y-98.875
X123.425Y-109.383
X123.675Y-80.825
X123.925Y-44.55
X124.Y-57.525
X124.185Y-106.716
X124.278Y-82.247
X124.675Y-116.425
X124.868Y-108.759
X124.875Y-128.1
X125.Y-83.6
X125.075Y-110.475
X125.125Y-40.025
X125.47Y-105.208
X125.5Y-144.45
X125.575Y-95.15
X125.6Y-86.35
X125.817Y-59.334
X125.875Y-125.425
X126.075Y-129.85
X126.142Y-98.325
X126.173Y-61.062
X126.275Y-92.425
X126.4Y-48.798
X126.625Y-50.65
X127.Y-44.9
X127.Y-87.3
X127.1Y-99.5
X127.157Y-67.409
X127.303Y-62.979
X127.35Y-76.95
X127.4Y-123.4
X127.475Y-83.525
X127.533Y-81.936
X127.575Y-92.55
X127.675Y-91.
X127.817Y-93.589
X127.9Y-107.15
X127.925Y-48.45
X128.Y-122.
X128.475Y-57.975
X128.625Y-120.425
X128.818Y-46.824
X128.986Y-101.873
X128.996Y-78.504
X129.225Y-40.475
X129.25Y-74.525
X129.625Y-103.85
X129.65Y-50.1
X130.075Y-53.375
X130.15Y-40.025
X130.25Y-77.3
X130.3Y-67.95
X130.5Y-144.525
X130.645Y-92.068
X130.701Y-75.558
X130.725Y-69.7
X130.833Y-73.868
X131.024Y-50.359
X131.175Y-103.35
X131.721Y-47.071
X131.925Y-68.15
X131.95Y-131.575
X132.075Y-102.2
X132.097Y-59.647
X132.113Y-54.608
X132.4Y-41.6
X132.417Y-69.623
X132.595Y-89.355
X132.633Y-92.233
X132.634Y-56.548
X132.775Y-77.025
X132.825Y-73.275
X132.975Y-104.05
X133.025Y-84.25
X133.15Y-96.5
X133.2Y-98.05
X133.4Y-87.95
X133.475Y-144.5
X133.775Y-44.5
X133.975Y-128.15
X134.033Y-49.82
X134.415Y-72.575
X134.55Y-89.512
X134.564Y-54.865
X134.575Y-96.325
X134.625Y-110.325
X134.636Y-84.651
X134.65Y-70.8
X134.981Y-108.75
X135.Y-87.425
X135.05Y-125.375
X135.075Y-129.775
X135.105Y-69.395
X135.125Y-47.953
X135.275Y-50.808
X135.345Y-41.874
X135.475Y-91.9
X135.55Y-67.525
X135.643Y-102.359
X135.762Y-65.788
X135.875Y-80.25
X135.975Y-100.4
X136.061Y-53.927
X136.108Y-111.
X136.25Y-93.475
X136.5Y-144.6
X136.575Y-44.55
X136.658Y-112.45
X136.816Y-63.808
X136.85Y-50.525
X136.925Y-57.3
X136.95Y-38.425
X137.28Y-102.629
X137.464Y-88.873
X137.525Y-113.975
X137.577Y-58.05
X137.7Y-86.792
X137.7Y-91.275
X137.958Y-115.575
X138.675Y-61.025
X138.845Y-92.257
X138.925Y-117.35
X138.953Y-74.071
X139.155Y-72.381
X139.3Y-63.9
X139.423Y-56.581
X139.7Y-119.125
X140.247Y-44.241
X140.327Y-54.982
X140.425Y-71.475
X140.452Y-78.727
X140.497Y-52.225
X140.525Y-73.3
X140.535Y-92.1
X140.6Y-45.95
X140.743Y-88.142
X140.85Y-104.259
X140.925Y-131.55
X140.981Y-49.648
X141.147Y-102.925
X141.164Y-41.208
X141.175Y-59.15
X141.825Y-51.15
X142.027Y-74.217
X142.086Y-72.452
X142.55Y-61.2
X142.6Y-82.15
X142.875Y-100.3
X143.072Y-97.456
X143.206Y-74.167
X143.425Y-63.808
X143.575Y-87.831
X143.6Y-54.092
X143.675Y-77.325
X143.7Y-92.075
X144.01Y-99.045
X144.149Y-96.428
X144.225Y-114.925
X144.275Y-65.75
X144.275Y-78.4
X144.868Y-104.651
X145.125Y-97.875
X145.133Y-101.925
X145.25Y-55.
X145.402Y-95.52
X145.55Y-88.498
X145.975Y-105.475
X146.15Y-39.075
X146.504Y-92.582
X146.625Y-90.25
X146.65Y-115.025
X146.775Y-102.
X146.9Y-99.
X146.95Y-112.15
X147.075Y-110.325
X147.1Y-128.475
X147.95Y-109.05
X147.984Y-114.97
X148.Y-105.58
X148.1Y-83.775
X148.299Y-98.945
X148.35Y-77.725
X148.457Y-75.742
X148.475Y-102.825
X148.7Y-70.975
X148.7Y-111.894
X148.725Y-43.4
X149.15Y-104.675
X149.272Y-110.212
X149.318Y-115.117
X149.525Y-95.95
X149.6Y-60.975
X149.775Y-78.75
X149.867Y-99.257
X149.9Y-102.375
X149.93Y-76.883
X150.125Y-72.775
X150.275Y-106.2
X150.3Y-63.95
X150.7Y-108.484
X150.792Y-74.134
X150.875Y-80.55
X150.914Y-96.495
X150.925Y-94.775
X151.392Y-89.246
X151.525Y-79.075
X151.575Y-99.327
X151.65Y-71.7
X151.775Y-102.1
X151.9Y-107.175
X151.95Y-92.633
X152.025Y-83.1
X152.175Y-117.953
X152.275Y-130.775
X152.601Y-88.498
X152.7Y-86.5
X152.724Y-73.621
X152.727Y-105.527
X152.8Y-100.375
X152.825Y-98.025
X152.875Y-81.725
X152.975Y-80.35
X153.Y-76.7
X153.3Y-117.025
X153.525Y-61.2
X153.925Y-83.625
X153.95Y-53.675
X153.975Y-131.975
X153.992Y-106.3
X154.Y-87.475
X154.075Y-96.05
X154.125Y-74.025
X154.359Y-98.996
X154.375Y-89.35
X154.475Y-135.6
X154.583Y-67.45
X154.725Y-58.575
X154.727Y-107.817
X154.75Y-91.025
X154.75Y-92.4
X154.942Y-117.083
X155.116Y-101.945
X155.25Y-69.325
X155.3Y-105.6
X155.35Y-97.55
X155.475Y-144.25
X155.65Y-55.25
X155.65Y-56.975
X155.675Y-56.175
X155.7Y-128.35
X156.1Y-95.575
X156.275Y-114.875
X156.4Y-107.825
X156.525Y-135.275
X156.575Y-109.9
X156.6Y-89.325
X156.675Y-48.525
X156.8Y-99.075
X156.8Y-125.5
X157.075Y-129.9
X157.168Y-98.159
X157.216Y-106.258
X157.375Y-101.8
X157.525Y-114.975
X157.625Y-136.575
X157.65Y-111.575
X158.075Y-105.219
X158.15Y-83.5
X158.233Y-109.016
X158.3Y-135.15
X158.369Y-99.04
X158.4Y-43.225
X158.45Y-144.175
X158.68Y-77.217
X158.859Y-114.975
X159.Y-41.333
X159.325Y-78.975
X159.333Y-111.975
X159.57Y-101.853
X159.75Y-136.45
X159.85Y-103.925
X159.85Y-97.925
X160.103Y-134.579
X160.182Y-105.873
X160.6Y-60.95
X160.75Y-77.108
X160.8Y-80.6
X161.148Y-103.2
X161.168Y-99.279
X161.175Y-42.65
X161.225Y-72.8
X161.25Y-63.875
X161.275Y-78.925
X161.475Y-135.775
X161.5Y-144.325
X161.617Y-113.45
X161.793Y-74.15
X161.973Y-111.475
X162.025Y-83.1
X162.175Y-86.75
X162.454Y-115.121
X162.575Y-134.675
X162.69Y-72.133
X162.925Y-131.55
X162.975Y-81.65
X163.1Y-56.
X163.15Y-56.925
X163.175Y-55.175
X163.279Y-105.215
X163.4Y-89.225
X163.425Y-87.65
X163.475Y-98.475
X163.55Y-103.55
X163.558Y-73.611
X163.775Y-80.325
X163.869Y-76.711
X163.875Y-136.
X163.926Y-83.462
X164.129Y-96.073
X164.25Y-114.975
X164.407Y-101.873
X164.6Y-61.125
X164.825Y-106.2
X164.828Y-88.385
X164.883Y-90.767
X164.968Y-74.024
X165.05Y-128.4
X165.319Y-99.355
X165.594Y-96.857
X165.625Y-110.9
X165.65Y-67.175
X165.925Y-89.4
X166.121Y-104.948
X166.225Y-65.45
X166.35Y-92.65
X166.502Y-109.449
X166.692Y-114.968
X166.878Y-101.775
X167.Y-112.075
X167.043Y-93.87
X167.1Y-99.05
X167.325Y-55.55
X167.425Y-115.825
X167.55Y-89.275
X167.575Y-58.425
X167.903Y-109.747
X168.05Y-83.55
X168.2Y-102.75
X168.525Y-78.875
X168.55Y-56.95
X168.55Y-144.45
X168.656Y-93.081
X168.79Y-98.835
X168.792Y-112.134
X168.95Y-104.
X169.284Y-77.565
X169.3Y-58.325
X169.36Y-114.828
X169.833Y-101.877
X170.047Y-79.36
X170.154Y-102.801
X170.162Y-108.246
X170.235Y-87.808
X170.275Y-130.8
X170.275Y-125.425
X170.5Y-116.625
X170.6Y-98.625
X170.692Y-80.675
X171.025Y-106.573
X171.45Y-144.475
X171.625Y-60.975
X171.675Y-77.175
X171.805Y-92.765
X171.825Y-101.65
X171.925Y-87.8
X171.95Y-107.758
X171.975Y-131.825
X171.992Y-83.2
X172.075Y-116.2
X172.175Y-72.725
X172.225Y-63.85
X172.375Y-81.625
X172.475Y-135.55
X172.6Y-86.4
X172.625Y-99.15
X172.642Y-105.433
X172.712Y-74.243
X173.775Y-71.775
X173.8Y-87.45
X173.8Y-106.85
X173.868Y-83.525
X173.977Y-92.001
X174.Y-128.2
X174.055Y-116.32
X174.117Y-89.35
X174.27Y-99.177
X174.45Y-144.25
X174.475Y-101.97
X174.541Y-73.639
X174.775Y-134.675
X174.925Y-108.45
X174.975Y-125.55
X175.Y-80.175
X175.005Y-76.622
X175.032Y-105.514
X175.075Y-129.875
X175.5Y-63.925
X175.607Y-98.887
X175.625Y-136.05
X175.809Y-102.104
X175.9Y-74.
X176.Y-114.85
X176.075Y-64.875
X176.35Y-107.75
X176.425Y-128.5
X176.625Y-106.1
X176.65Y-134.8
X176.775Y-101.95
X176.86Y-99.039
X176.875Y-89.95
X176.875Y-91.025
X176.95Y-88.475
X177.15Y-66.675
X177.4Y-111.79
X177.434Y-110.1
X177.525Y-114.9
X177.666Y-135.949
X177.75Y-68.75
X177.781Y-101.895
X178.075Y-83.625
X178.075Y-105.925
X178.194Y-99.058
X178.325Y-107.3
X178.465Y-77.742
X178.7Y-134.825
X178.8Y-70.55
X179.05Y-40.55
X179.114Y-102.495
X179.154Y-107.818
X179.2Y-42.9
X179.29Y-112.024
X179.3Y-68.675
X179.425Y-115.225
X179.45Y-144.375
X179.528Y-99.064
X179.95Y-135.85
X180.025Y-79.375
X180.125Y-77.8
X180.4Y-70.4
X180.625Y-103.575
X180.825Y-134.625
X180.862Y-99.127
X180.875Y-68.65
X180.875Y-131.5
X181.225Y-80.35
X181.342Y-81.9
X181.633Y-101.858
X181.875Y-113.425
X181.911Y-70.464
X181.973Y-111.718
X181.975Y-58.325
X182.Y-135.725
X182.009Y-83.225
X182.125Y-55.375
X182.5Y-144.425
X182.575Y-128.375
X182.6Y-86.441
X182.625Y-68.725
X182.675Y-109.892
X183.15Y-125.975
X183.283Y-107.175
X183.3Y-66.7
X183.398Y-89.254
X183.917Y-83.625
X183.95Y-87.108
X183.95Y-99.273
X184.075Y-129.875
X184.1Y-122.475
X184.7Y-92.75
X184.725Y-91.025
X185.475Y-94.077
X185.5Y-144.5
X187.636Y-93.454
X187.775Y-95.234
X187.8Y-90.975
X187.85Y-75.575
X189.575Y-93.675
X189.975Y-131.5
X190.113Y-95.108
X190.166Y-96.708
X190.525Y-144.4
X190.65Y-98.1
X191.435Y-83.583
X191.5Y-94.525
X191.771Y-81.566
X191.775Y-75.368
X191.786Y-78.107
X191.975Y-68.275
X192.029Y-99.154
X192.05Y-97.3
X192.125Y-126.075
X192.75Y-66.1
X192.75Y-70.05
X192.775Y-73.958
X192.825Y-95.7
X192.9Y-68.75
X193.075Y-122.4
X193.075Y-129.85
X193.5Y-144.4
X193.525Y-87.692
X193.775Y-90.425
X193.9Y-98.2
X194.225Y-62.7
X194.35Y-73.55
X194.958Y-60.064
X195.Y-102.675
X195.025Y-85.25
X195.075Y-104.3
X195.3Y-92.925
X195.85Y-99.15
X196.03Y-96.775
X196.2Y-79.35
X196.275Y-81.95
X196.292Y-64.643
X196.375Y-103.6
X196.45Y-101.975
X196.525Y-68.425
X196.525Y-144.425
X196.575Y-85.025
X196.584Y-72.259
X196.633Y-76.733
X196.775Y-100.375
X197.858Y-69.562
X197.875Y-71.275
X197.902Y-109.182
X198.925Y-131.5
X199.599Y-108.081
X199.6Y-102.95
X199.834Y-110.221
X199.9Y-107.025
X201.125Y-128.025
X201.275Y-72.425
X201.325Y-67.262
X201.45Y-63.617
X201.469Y-65.572
X201.55Y-134.825
X201.625Y-125.175
X202.075Y-129.85
X202.125Y-68.95
X202.725Y-49.025
X202.725Y-120.95
X202.725Y-125.
X202.775Y-135.875
X202.9Y-64.675
X203.1Y-72.925
X203.45Y-130.65
X203.703Y-108.551
X203.8Y-74.625
X203.966Y-134.675
X204.575Y-70.625
X205.25Y-135.975
X205.725Y-68.95
X205.775Y-81.45
X206.175Y-134.725
X207.075Y-68.125
X207.236Y-70.204
X207.45Y-98.
X207.575Y-130.25
X207.75Y-100.15
X207.95Y-131.45
X207.975Y-123.4
X208.1Y-105.675
X208.125Y-71.775
X208.15Y-103.925
X208.15Y-104.775
X209.625Y-128.7
X210.125Y-96.95
X210.2Y-126.1
X210.325Y-134.675
X211.025Y-122.625
X211.05Y-131.5
X211.125Y-111.975
X211.25Y-110.475
X211.752Y-119.502
X211.775Y-128.45
X211.825Y-135.525
X213.229Y-134.456
X214.Y-113.775
X215.Y-135.625
X215.775Y-104.775
X215.775Y-105.6
X215.825Y-104.
X215.95Y-116.475
X216.525Y-79.175
X216.95Y-131.425
X217.5Y-80.275
T2
X170.65Y-38.92
X170.65Y-41.46
X170.65Y-44.
X170.65Y-46.54
X170.65Y-49.08
X173.19Y-36.38
X173.19Y-38.92
X173.19Y-41.46
X173.19Y-44.
X173.19Y-46.54
X173.19Y-49.08
X173.19Y-51.62
X175.73Y-36.38
X175.73Y-38.92
X175.73Y-49.08
X175.73Y-51.62
X178.27Y-36.38
X178.27Y-38.92
X178.27Y-49.08
X178.27Y-51.62
X180.81Y-36.38
X180.81Y-38.92
X180.81Y-41.46
X180.81Y-44.
X180.81Y-46.54
X180.81Y-49.08
X180.81Y-51.62
X183.35Y-38.92
X183.35Y-41.46
X183.35Y-44.
X183.35Y-46.54
X183.35Y-49.08
X200.65Y-78.92
X200.65Y-81.46
X200.65Y-84.
X200.65Y-86.54
X200.65Y-89.08
X203.19Y-76.38
X203.19Y-78.92
X203.19Y-81.46
X203.19Y-84.
X203.19Y-86.54
X203.19Y-89.08
X203.19Y-91.62
X205.73Y-76.38
X205.73Y-78.92
X205.73Y-89.08
X205.73Y-91.62
X208.27Y-76.38
X208.27Y-78.92
X208.27Y-89.08
X208.27Y-91.62
X210.81Y-76.38
X210.81Y-78.92
X210.81Y-81.46
X210.81Y-84.
X210.81Y-86.54
X210.81Y-89.08
X210.81Y-91.62
X213.35Y-78.92
X213.35Y-81.46
X213.35Y-84.
X213.35Y-86.54
X213.35Y-89.08
X69.65Y-80.92
X69.65Y-83.46
X69.65Y-86.
X69.65Y-88.54
X69.65Y-91.08
X72.19Y-78.38
X72.19Y-80.92
X72.19Y-83.46
X72.19Y-86.
X72.19Y-88.54
X72.19Y-91.08
X72.19Y-93.62
X74.73Y-78.38
X74.73Y-80.92
X74.73Y-91.08
X74.73Y-93.62
X77.27Y-78.38
X77.27Y-80.92
X77.27Y-91.08
X77.27Y-93.62
X79.81Y-78.38
X79.81Y-80.92
X79.81Y-83.46
X79.81Y-86.
X79.81Y-88.54
X79.81Y-91.08
X79.81Y-93.62
X82.35Y-80.92
X82.35Y-83.46
X82.35Y-86.
X82.35Y-88.54
X82.35Y-91.08
T3
X206.66Y-45.135
X206.66Y-47.675
X206.66Y-50.215
X209.2Y-45.135
X209.2Y-47.675
X209.2Y-50.215
T0
M30
