G04 #@! TF.GenerationSoftware,KiCad,Pcbnew,(5.0.1)-4*
G04 #@! TF.CreationDate,2019-01-09T16:13:17-08:00*
G04 #@! TF.ProjectId,alu,616C752E6B696361645F706362000000,rev?*
G04 #@! TF.SameCoordinates,Original*
G04 #@! TF.FileFunction,Legend,Bot*
G04 #@! TF.FilePolarity,Positive*
%FSLAX46Y46*%
G04 Gerber Fmt 4.6, Leading zero omitted, Abs format (unit mm)*
G04 Created by KiCad (PCBNEW (5.0.1)-4) date 1/9/2019 4:13:17 PM*
%MOMM*%
%LPD*%
G01*
G04 APERTURE LIST*
%ADD10C,0.200000*%
%ADD11C,0.120000*%
%ADD12C,0.100000*%
%ADD13C,0.150000*%
G04 APERTURE END LIST*
D10*
X214095400Y-63586360D02*
G75*
G03X214095400Y-63586360I-75000J0D01*
G01*
X206846240Y-63647320D02*
G75*
G03X206846240Y-63647320I-75000J0D01*
G01*
X199602160Y-63627000D02*
G75*
G03X199602160Y-63627000I-75000J0D01*
G01*
X192500320Y-63657480D02*
G75*
G03X192500320Y-63657480I-75000J0D01*
G01*
X89525000Y-99325000D02*
G75*
G03X89525000Y-99325000I-75000J0D01*
G01*
X99575000Y-99325000D02*
G75*
G03X99575000Y-99325000I-75000J0D01*
G01*
X109675000Y-99325000D02*
G75*
G03X109675000Y-99325000I-75000J0D01*
G01*
X119800000Y-99175000D02*
G75*
G03X119800000Y-99175000I-75000J0D01*
G01*
X147625000Y-99250000D02*
G75*
G03X147625000Y-99250000I-75000J0D01*
G01*
X157650000Y-99250000D02*
G75*
G03X157650000Y-99250000I-75000J0D01*
G01*
X167550000Y-98450000D02*
G75*
G03X167550000Y-98450000I-75000J0D01*
G01*
X177625000Y-98500000D02*
G75*
G03X177625000Y-98500000I-75000J0D01*
G01*
X188125000Y-85525000D02*
G75*
G03X188125000Y-85525000I-75000J0D01*
G01*
G04 #@! TO.C,U45*
X173200000Y-99200000D02*
G75*
G03X173200000Y-99200000I-100000J0D01*
G01*
D11*
X181000000Y-101000000D02*
X181000000Y-113000000D01*
D12*
X173500000Y-113000000D02*
X173500000Y-99750000D01*
D10*
G04 #@! TO.C,U46*
X163200000Y-99200000D02*
G75*
G03X163200000Y-99200000I-100000J0D01*
G01*
D11*
X171000000Y-101000000D02*
X171000000Y-113000000D01*
D12*
X163500000Y-113000000D02*
X163500000Y-99750000D01*
G04 #@! TO.C,U47*
X153500000Y-113000000D02*
X153500000Y-99750000D01*
D11*
X161000000Y-101000000D02*
X161000000Y-113000000D01*
D10*
X153200000Y-99200000D02*
G75*
G03X153200000Y-99200000I-100000J0D01*
G01*
G04 #@! TO.C,U48*
X143200000Y-99200000D02*
G75*
G03X143200000Y-99200000I-100000J0D01*
G01*
D11*
X151000000Y-101000000D02*
X151000000Y-113000000D01*
D12*
X143500000Y-113000000D02*
X143500000Y-99750000D01*
G04 #@! TO.C,U49*
X115500000Y-113000000D02*
X115500000Y-99750000D01*
D11*
X123000000Y-101000000D02*
X123000000Y-113000000D01*
D10*
X115200000Y-99200000D02*
G75*
G03X115200000Y-99200000I-100000J0D01*
G01*
G04 #@! TO.C,U50*
X105200000Y-99200000D02*
G75*
G03X105200000Y-99200000I-100000J0D01*
G01*
D11*
X113000000Y-101000000D02*
X113000000Y-113000000D01*
D12*
X105500000Y-113000000D02*
X105500000Y-99750000D01*
G04 #@! TO.C,U51*
X95500000Y-113000000D02*
X95500000Y-99750000D01*
D11*
X103000000Y-101000000D02*
X103000000Y-113000000D01*
D10*
X95200000Y-99200000D02*
G75*
G03X95200000Y-99200000I-100000J0D01*
G01*
G04 #@! TO.C,U52*
X85200000Y-99200000D02*
G75*
G03X85200000Y-99200000I-100000J0D01*
G01*
D11*
X93000000Y-101000000D02*
X93000000Y-113000000D01*
D12*
X85500000Y-113000000D02*
X85500000Y-99750000D01*
D13*
G04 #@! TO.C,U4*
X192411700Y-64258900D02*
X192411700Y-70233900D01*
X197936700Y-65833900D02*
X197936700Y-70233900D01*
G04 #@! TO.C,U5*
X205050400Y-65817600D02*
X205050400Y-70217600D01*
X199525400Y-64242600D02*
X199525400Y-70217600D01*
G04 #@! TO.C,U57*
X206750000Y-64233500D02*
X206750000Y-70208500D01*
X212275000Y-65808500D02*
X212275000Y-70208500D01*
G04 #@! TO.C,U58*
X219552100Y-65745000D02*
X219552100Y-70145000D01*
X214027100Y-64170000D02*
X214027100Y-70145000D01*
D11*
G04 #@! TO.C,C15*
X177515000Y-42187221D02*
X177515000Y-42512779D01*
X178535000Y-42187221D02*
X178535000Y-42512779D01*
G04 #@! TO.C,C18*
X176210000Y-91187779D02*
X176210000Y-90862221D01*
X175190000Y-91187779D02*
X175190000Y-90862221D01*
G04 #@! TO.C,C31*
X142662221Y-75640000D02*
X142987779Y-75640000D01*
X142662221Y-76660000D02*
X142987779Y-76660000D01*
G04 #@! TO.C,C35*
X207787779Y-81935000D02*
X207462221Y-81935000D01*
X207787779Y-80915000D02*
X207462221Y-80915000D01*
G04 #@! TO.C,C36*
X76737779Y-83935000D02*
X76412221Y-83935000D01*
X76737779Y-82915000D02*
X76412221Y-82915000D01*
G04 #@! TO.C,C38*
X135565000Y-88362221D02*
X135565000Y-88687779D01*
X136585000Y-88362221D02*
X136585000Y-88687779D01*
G04 #@! TO.C,C39*
X142087221Y-79635000D02*
X142412779Y-79635000D01*
X142087221Y-78615000D02*
X142412779Y-78615000D01*
G04 #@! TO.C,R3*
X205812779Y-129990000D02*
X205487221Y-129990000D01*
X205812779Y-131010000D02*
X205487221Y-131010000D01*
G04 #@! TO.C,U45*
D13*
X171452380Y-105761904D02*
X172261904Y-105761904D01*
X172357142Y-105809523D01*
X172404761Y-105857142D01*
X172452380Y-105952380D01*
X172452380Y-106142857D01*
X172404761Y-106238095D01*
X172357142Y-106285714D01*
X172261904Y-106333333D01*
X171452380Y-106333333D01*
X171785714Y-107238095D02*
X172452380Y-107238095D01*
X171404761Y-107000000D02*
X172119047Y-106761904D01*
X172119047Y-107380952D01*
X171452380Y-108238095D02*
X171452380Y-107761904D01*
X171928571Y-107714285D01*
X171880952Y-107761904D01*
X171833333Y-107857142D01*
X171833333Y-108095238D01*
X171880952Y-108190476D01*
X171928571Y-108238095D01*
X172023809Y-108285714D01*
X172261904Y-108285714D01*
X172357142Y-108238095D01*
X172404761Y-108190476D01*
X172452380Y-108095238D01*
X172452380Y-107857142D01*
X172404761Y-107761904D01*
X172357142Y-107714285D01*
G04 #@! TO.C,U46*
X161452380Y-105761904D02*
X162261904Y-105761904D01*
X162357142Y-105809523D01*
X162404761Y-105857142D01*
X162452380Y-105952380D01*
X162452380Y-106142857D01*
X162404761Y-106238095D01*
X162357142Y-106285714D01*
X162261904Y-106333333D01*
X161452380Y-106333333D01*
X161785714Y-107238095D02*
X162452380Y-107238095D01*
X161404761Y-107000000D02*
X162119047Y-106761904D01*
X162119047Y-107380952D01*
X161452380Y-108190476D02*
X161452380Y-108000000D01*
X161500000Y-107904761D01*
X161547619Y-107857142D01*
X161690476Y-107761904D01*
X161880952Y-107714285D01*
X162261904Y-107714285D01*
X162357142Y-107761904D01*
X162404761Y-107809523D01*
X162452380Y-107904761D01*
X162452380Y-108095238D01*
X162404761Y-108190476D01*
X162357142Y-108238095D01*
X162261904Y-108285714D01*
X162023809Y-108285714D01*
X161928571Y-108238095D01*
X161880952Y-108190476D01*
X161833333Y-108095238D01*
X161833333Y-107904761D01*
X161880952Y-107809523D01*
X161928571Y-107761904D01*
X162023809Y-107714285D01*
G04 #@! TO.C,U47*
X151452380Y-105761904D02*
X152261904Y-105761904D01*
X152357142Y-105809523D01*
X152404761Y-105857142D01*
X152452380Y-105952380D01*
X152452380Y-106142857D01*
X152404761Y-106238095D01*
X152357142Y-106285714D01*
X152261904Y-106333333D01*
X151452380Y-106333333D01*
X151785714Y-107238095D02*
X152452380Y-107238095D01*
X151404761Y-107000000D02*
X152119047Y-106761904D01*
X152119047Y-107380952D01*
X151452380Y-107666666D02*
X151452380Y-108333333D01*
X152452380Y-107904761D01*
G04 #@! TO.C,U48*
X141452380Y-105761904D02*
X142261904Y-105761904D01*
X142357142Y-105809523D01*
X142404761Y-105857142D01*
X142452380Y-105952380D01*
X142452380Y-106142857D01*
X142404761Y-106238095D01*
X142357142Y-106285714D01*
X142261904Y-106333333D01*
X141452380Y-106333333D01*
X141785714Y-107238095D02*
X142452380Y-107238095D01*
X141404761Y-107000000D02*
X142119047Y-106761904D01*
X142119047Y-107380952D01*
X141880952Y-107904761D02*
X141833333Y-107809523D01*
X141785714Y-107761904D01*
X141690476Y-107714285D01*
X141642857Y-107714285D01*
X141547619Y-107761904D01*
X141500000Y-107809523D01*
X141452380Y-107904761D01*
X141452380Y-108095238D01*
X141500000Y-108190476D01*
X141547619Y-108238095D01*
X141642857Y-108285714D01*
X141690476Y-108285714D01*
X141785714Y-108238095D01*
X141833333Y-108190476D01*
X141880952Y-108095238D01*
X141880952Y-107904761D01*
X141928571Y-107809523D01*
X141976190Y-107761904D01*
X142071428Y-107714285D01*
X142261904Y-107714285D01*
X142357142Y-107761904D01*
X142404761Y-107809523D01*
X142452380Y-107904761D01*
X142452380Y-108095238D01*
X142404761Y-108190476D01*
X142357142Y-108238095D01*
X142261904Y-108285714D01*
X142071428Y-108285714D01*
X141976190Y-108238095D01*
X141928571Y-108190476D01*
X141880952Y-108095238D01*
G04 #@! TO.C,U49*
X113452380Y-105761904D02*
X114261904Y-105761904D01*
X114357142Y-105809523D01*
X114404761Y-105857142D01*
X114452380Y-105952380D01*
X114452380Y-106142857D01*
X114404761Y-106238095D01*
X114357142Y-106285714D01*
X114261904Y-106333333D01*
X113452380Y-106333333D01*
X113785714Y-107238095D02*
X114452380Y-107238095D01*
X113404761Y-107000000D02*
X114119047Y-106761904D01*
X114119047Y-107380952D01*
X114452380Y-107809523D02*
X114452380Y-108000000D01*
X114404761Y-108095238D01*
X114357142Y-108142857D01*
X114214285Y-108238095D01*
X114023809Y-108285714D01*
X113642857Y-108285714D01*
X113547619Y-108238095D01*
X113500000Y-108190476D01*
X113452380Y-108095238D01*
X113452380Y-107904761D01*
X113500000Y-107809523D01*
X113547619Y-107761904D01*
X113642857Y-107714285D01*
X113880952Y-107714285D01*
X113976190Y-107761904D01*
X114023809Y-107809523D01*
X114071428Y-107904761D01*
X114071428Y-108095238D01*
X114023809Y-108190476D01*
X113976190Y-108238095D01*
X113880952Y-108285714D01*
G04 #@! TO.C,U50*
X103452380Y-105761904D02*
X104261904Y-105761904D01*
X104357142Y-105809523D01*
X104404761Y-105857142D01*
X104452380Y-105952380D01*
X104452380Y-106142857D01*
X104404761Y-106238095D01*
X104357142Y-106285714D01*
X104261904Y-106333333D01*
X103452380Y-106333333D01*
X103452380Y-107285714D02*
X103452380Y-106809523D01*
X103928571Y-106761904D01*
X103880952Y-106809523D01*
X103833333Y-106904761D01*
X103833333Y-107142857D01*
X103880952Y-107238095D01*
X103928571Y-107285714D01*
X104023809Y-107333333D01*
X104261904Y-107333333D01*
X104357142Y-107285714D01*
X104404761Y-107238095D01*
X104452380Y-107142857D01*
X104452380Y-106904761D01*
X104404761Y-106809523D01*
X104357142Y-106761904D01*
X103452380Y-107952380D02*
X103452380Y-108047619D01*
X103500000Y-108142857D01*
X103547619Y-108190476D01*
X103642857Y-108238095D01*
X103833333Y-108285714D01*
X104071428Y-108285714D01*
X104261904Y-108238095D01*
X104357142Y-108190476D01*
X104404761Y-108142857D01*
X104452380Y-108047619D01*
X104452380Y-107952380D01*
X104404761Y-107857142D01*
X104357142Y-107809523D01*
X104261904Y-107761904D01*
X104071428Y-107714285D01*
X103833333Y-107714285D01*
X103642857Y-107761904D01*
X103547619Y-107809523D01*
X103500000Y-107857142D01*
X103452380Y-107952380D01*
G04 #@! TO.C,U51*
X93452380Y-105761904D02*
X94261904Y-105761904D01*
X94357142Y-105809523D01*
X94404761Y-105857142D01*
X94452380Y-105952380D01*
X94452380Y-106142857D01*
X94404761Y-106238095D01*
X94357142Y-106285714D01*
X94261904Y-106333333D01*
X93452380Y-106333333D01*
X93452380Y-107285714D02*
X93452380Y-106809523D01*
X93928571Y-106761904D01*
X93880952Y-106809523D01*
X93833333Y-106904761D01*
X93833333Y-107142857D01*
X93880952Y-107238095D01*
X93928571Y-107285714D01*
X94023809Y-107333333D01*
X94261904Y-107333333D01*
X94357142Y-107285714D01*
X94404761Y-107238095D01*
X94452380Y-107142857D01*
X94452380Y-106904761D01*
X94404761Y-106809523D01*
X94357142Y-106761904D01*
X94452380Y-108285714D02*
X94452380Y-107714285D01*
X94452380Y-108000000D02*
X93452380Y-108000000D01*
X93595238Y-107904761D01*
X93690476Y-107809523D01*
X93738095Y-107714285D01*
G04 #@! TO.C,U52*
X83452380Y-105761904D02*
X84261904Y-105761904D01*
X84357142Y-105809523D01*
X84404761Y-105857142D01*
X84452380Y-105952380D01*
X84452380Y-106142857D01*
X84404761Y-106238095D01*
X84357142Y-106285714D01*
X84261904Y-106333333D01*
X83452380Y-106333333D01*
X83452380Y-107285714D02*
X83452380Y-106809523D01*
X83928571Y-106761904D01*
X83880952Y-106809523D01*
X83833333Y-106904761D01*
X83833333Y-107142857D01*
X83880952Y-107238095D01*
X83928571Y-107285714D01*
X84023809Y-107333333D01*
X84261904Y-107333333D01*
X84357142Y-107285714D01*
X84404761Y-107238095D01*
X84452380Y-107142857D01*
X84452380Y-106904761D01*
X84404761Y-106809523D01*
X84357142Y-106761904D01*
X83547619Y-107714285D02*
X83500000Y-107761904D01*
X83452380Y-107857142D01*
X83452380Y-108095238D01*
X83500000Y-108190476D01*
X83547619Y-108238095D01*
X83642857Y-108285714D01*
X83738095Y-108285714D01*
X83880952Y-108238095D01*
X84452380Y-107666666D01*
X84452380Y-108285714D01*
G04 #@! TO.C,U4*
X191114080Y-67271995D02*
X191923604Y-67271995D01*
X192018842Y-67319614D01*
X192066461Y-67367233D01*
X192114080Y-67462471D01*
X192114080Y-67652947D01*
X192066461Y-67748185D01*
X192018842Y-67795804D01*
X191923604Y-67843423D01*
X191114080Y-67843423D01*
X191447414Y-68748185D02*
X192114080Y-68748185D01*
X191066461Y-68510090D02*
X191780747Y-68271995D01*
X191780747Y-68891042D01*
G04 #@! TO.C,U5*
X198227780Y-67255695D02*
X199037304Y-67255695D01*
X199132542Y-67303314D01*
X199180161Y-67350933D01*
X199227780Y-67446171D01*
X199227780Y-67636647D01*
X199180161Y-67731885D01*
X199132542Y-67779504D01*
X199037304Y-67827123D01*
X198227780Y-67827123D01*
X198227780Y-68779504D02*
X198227780Y-68303314D01*
X198703971Y-68255695D01*
X198656352Y-68303314D01*
X198608733Y-68398552D01*
X198608733Y-68636647D01*
X198656352Y-68731885D01*
X198703971Y-68779504D01*
X198799209Y-68827123D01*
X199037304Y-68827123D01*
X199132542Y-68779504D01*
X199180161Y-68731885D01*
X199227780Y-68636647D01*
X199227780Y-68398552D01*
X199180161Y-68303314D01*
X199132542Y-68255695D01*
G04 #@! TO.C,U57*
X205452380Y-66770404D02*
X206261904Y-66770404D01*
X206357142Y-66818023D01*
X206404761Y-66865642D01*
X206452380Y-66960880D01*
X206452380Y-67151357D01*
X206404761Y-67246595D01*
X206357142Y-67294214D01*
X206261904Y-67341833D01*
X205452380Y-67341833D01*
X205452380Y-68294214D02*
X205452380Y-67818023D01*
X205928571Y-67770404D01*
X205880952Y-67818023D01*
X205833333Y-67913261D01*
X205833333Y-68151357D01*
X205880952Y-68246595D01*
X205928571Y-68294214D01*
X206023809Y-68341833D01*
X206261904Y-68341833D01*
X206357142Y-68294214D01*
X206404761Y-68246595D01*
X206452380Y-68151357D01*
X206452380Y-67913261D01*
X206404761Y-67818023D01*
X206357142Y-67770404D01*
X205452380Y-68675166D02*
X205452380Y-69341833D01*
X206452380Y-68913261D01*
G04 #@! TO.C,U58*
X212729480Y-66706904D02*
X213539004Y-66706904D01*
X213634242Y-66754523D01*
X213681861Y-66802142D01*
X213729480Y-66897380D01*
X213729480Y-67087857D01*
X213681861Y-67183095D01*
X213634242Y-67230714D01*
X213539004Y-67278333D01*
X212729480Y-67278333D01*
X212729480Y-68230714D02*
X212729480Y-67754523D01*
X213205671Y-67706904D01*
X213158052Y-67754523D01*
X213110433Y-67849761D01*
X213110433Y-68087857D01*
X213158052Y-68183095D01*
X213205671Y-68230714D01*
X213300909Y-68278333D01*
X213539004Y-68278333D01*
X213634242Y-68230714D01*
X213681861Y-68183095D01*
X213729480Y-68087857D01*
X213729480Y-67849761D01*
X213681861Y-67754523D01*
X213634242Y-67706904D01*
X213158052Y-68849761D02*
X213110433Y-68754523D01*
X213062814Y-68706904D01*
X212967576Y-68659285D01*
X212919957Y-68659285D01*
X212824719Y-68706904D01*
X212777100Y-68754523D01*
X212729480Y-68849761D01*
X212729480Y-69040238D01*
X212777100Y-69135476D01*
X212824719Y-69183095D01*
X212919957Y-69230714D01*
X212967576Y-69230714D01*
X213062814Y-69183095D01*
X213110433Y-69135476D01*
X213158052Y-69040238D01*
X213158052Y-68849761D01*
X213205671Y-68754523D01*
X213253290Y-68706904D01*
X213348528Y-68659285D01*
X213539004Y-68659285D01*
X213634242Y-68706904D01*
X213681861Y-68754523D01*
X213729480Y-68849761D01*
X213729480Y-69040238D01*
X213681861Y-69135476D01*
X213634242Y-69183095D01*
X213539004Y-69230714D01*
X213348528Y-69230714D01*
X213253290Y-69183095D01*
X213205671Y-69135476D01*
X213158052Y-69040238D01*
G04 #@! TO.C,C15*
X176952142Y-41707142D02*
X176999761Y-41659523D01*
X177047380Y-41516666D01*
X177047380Y-41421428D01*
X176999761Y-41278571D01*
X176904523Y-41183333D01*
X176809285Y-41135714D01*
X176618809Y-41088095D01*
X176475952Y-41088095D01*
X176285476Y-41135714D01*
X176190238Y-41183333D01*
X176095000Y-41278571D01*
X176047380Y-41421428D01*
X176047380Y-41516666D01*
X176095000Y-41659523D01*
X176142619Y-41707142D01*
X177047380Y-42659523D02*
X177047380Y-42088095D01*
X177047380Y-42373809D02*
X176047380Y-42373809D01*
X176190238Y-42278571D01*
X176285476Y-42183333D01*
X176333095Y-42088095D01*
X176047380Y-43564285D02*
X176047380Y-43088095D01*
X176523571Y-43040476D01*
X176475952Y-43088095D01*
X176428333Y-43183333D01*
X176428333Y-43421428D01*
X176475952Y-43516666D01*
X176523571Y-43564285D01*
X176618809Y-43611904D01*
X176856904Y-43611904D01*
X176952142Y-43564285D01*
X176999761Y-43516666D01*
X177047380Y-43421428D01*
X177047380Y-43183333D01*
X176999761Y-43088095D01*
X176952142Y-43040476D01*
G04 #@! TO.C,C18*
X177487142Y-90382142D02*
X177534761Y-90334523D01*
X177582380Y-90191666D01*
X177582380Y-90096428D01*
X177534761Y-89953571D01*
X177439523Y-89858333D01*
X177344285Y-89810714D01*
X177153809Y-89763095D01*
X177010952Y-89763095D01*
X176820476Y-89810714D01*
X176725238Y-89858333D01*
X176630000Y-89953571D01*
X176582380Y-90096428D01*
X176582380Y-90191666D01*
X176630000Y-90334523D01*
X176677619Y-90382142D01*
X177582380Y-91334523D02*
X177582380Y-90763095D01*
X177582380Y-91048809D02*
X176582380Y-91048809D01*
X176725238Y-90953571D01*
X176820476Y-90858333D01*
X176868095Y-90763095D01*
X177010952Y-91905952D02*
X176963333Y-91810714D01*
X176915714Y-91763095D01*
X176820476Y-91715476D01*
X176772857Y-91715476D01*
X176677619Y-91763095D01*
X176630000Y-91810714D01*
X176582380Y-91905952D01*
X176582380Y-92096428D01*
X176630000Y-92191666D01*
X176677619Y-92239285D01*
X176772857Y-92286904D01*
X176820476Y-92286904D01*
X176915714Y-92239285D01*
X176963333Y-92191666D01*
X177010952Y-92096428D01*
X177010952Y-91905952D01*
X177058571Y-91810714D01*
X177106190Y-91763095D01*
X177201428Y-91715476D01*
X177391904Y-91715476D01*
X177487142Y-91763095D01*
X177534761Y-91810714D01*
X177582380Y-91905952D01*
X177582380Y-92096428D01*
X177534761Y-92191666D01*
X177487142Y-92239285D01*
X177391904Y-92286904D01*
X177201428Y-92286904D01*
X177106190Y-92239285D01*
X177058571Y-92191666D01*
X177010952Y-92096428D01*
G04 #@! TO.C,C31*
X143467857Y-77937142D02*
X143515476Y-77984761D01*
X143658333Y-78032380D01*
X143753571Y-78032380D01*
X143896428Y-77984761D01*
X143991666Y-77889523D01*
X144039285Y-77794285D01*
X144086904Y-77603809D01*
X144086904Y-77460952D01*
X144039285Y-77270476D01*
X143991666Y-77175238D01*
X143896428Y-77080000D01*
X143753571Y-77032380D01*
X143658333Y-77032380D01*
X143515476Y-77080000D01*
X143467857Y-77127619D01*
X143134523Y-77032380D02*
X142515476Y-77032380D01*
X142848809Y-77413333D01*
X142705952Y-77413333D01*
X142610714Y-77460952D01*
X142563095Y-77508571D01*
X142515476Y-77603809D01*
X142515476Y-77841904D01*
X142563095Y-77937142D01*
X142610714Y-77984761D01*
X142705952Y-78032380D01*
X142991666Y-78032380D01*
X143086904Y-77984761D01*
X143134523Y-77937142D01*
X141563095Y-78032380D02*
X142134523Y-78032380D01*
X141848809Y-78032380D02*
X141848809Y-77032380D01*
X141944047Y-77175238D01*
X142039285Y-77270476D01*
X142134523Y-77318095D01*
G04 #@! TO.C,C35*
X208267857Y-80352142D02*
X208315476Y-80399761D01*
X208458333Y-80447380D01*
X208553571Y-80447380D01*
X208696428Y-80399761D01*
X208791666Y-80304523D01*
X208839285Y-80209285D01*
X208886904Y-80018809D01*
X208886904Y-79875952D01*
X208839285Y-79685476D01*
X208791666Y-79590238D01*
X208696428Y-79495000D01*
X208553571Y-79447380D01*
X208458333Y-79447380D01*
X208315476Y-79495000D01*
X208267857Y-79542619D01*
X207934523Y-79447380D02*
X207315476Y-79447380D01*
X207648809Y-79828333D01*
X207505952Y-79828333D01*
X207410714Y-79875952D01*
X207363095Y-79923571D01*
X207315476Y-80018809D01*
X207315476Y-80256904D01*
X207363095Y-80352142D01*
X207410714Y-80399761D01*
X207505952Y-80447380D01*
X207791666Y-80447380D01*
X207886904Y-80399761D01*
X207934523Y-80352142D01*
X206410714Y-79447380D02*
X206886904Y-79447380D01*
X206934523Y-79923571D01*
X206886904Y-79875952D01*
X206791666Y-79828333D01*
X206553571Y-79828333D01*
X206458333Y-79875952D01*
X206410714Y-79923571D01*
X206363095Y-80018809D01*
X206363095Y-80256904D01*
X206410714Y-80352142D01*
X206458333Y-80399761D01*
X206553571Y-80447380D01*
X206791666Y-80447380D01*
X206886904Y-80399761D01*
X206934523Y-80352142D01*
G04 #@! TO.C,C36*
X77217857Y-82352142D02*
X77265476Y-82399761D01*
X77408333Y-82447380D01*
X77503571Y-82447380D01*
X77646428Y-82399761D01*
X77741666Y-82304523D01*
X77789285Y-82209285D01*
X77836904Y-82018809D01*
X77836904Y-81875952D01*
X77789285Y-81685476D01*
X77741666Y-81590238D01*
X77646428Y-81495000D01*
X77503571Y-81447380D01*
X77408333Y-81447380D01*
X77265476Y-81495000D01*
X77217857Y-81542619D01*
X76884523Y-81447380D02*
X76265476Y-81447380D01*
X76598809Y-81828333D01*
X76455952Y-81828333D01*
X76360714Y-81875952D01*
X76313095Y-81923571D01*
X76265476Y-82018809D01*
X76265476Y-82256904D01*
X76313095Y-82352142D01*
X76360714Y-82399761D01*
X76455952Y-82447380D01*
X76741666Y-82447380D01*
X76836904Y-82399761D01*
X76884523Y-82352142D01*
X75408333Y-81447380D02*
X75598809Y-81447380D01*
X75694047Y-81495000D01*
X75741666Y-81542619D01*
X75836904Y-81685476D01*
X75884523Y-81875952D01*
X75884523Y-82256904D01*
X75836904Y-82352142D01*
X75789285Y-82399761D01*
X75694047Y-82447380D01*
X75503571Y-82447380D01*
X75408333Y-82399761D01*
X75360714Y-82352142D01*
X75313095Y-82256904D01*
X75313095Y-82018809D01*
X75360714Y-81923571D01*
X75408333Y-81875952D01*
X75503571Y-81828333D01*
X75694047Y-81828333D01*
X75789285Y-81875952D01*
X75836904Y-81923571D01*
X75884523Y-82018809D01*
G04 #@! TO.C,C38*
X135002142Y-87882142D02*
X135049761Y-87834523D01*
X135097380Y-87691666D01*
X135097380Y-87596428D01*
X135049761Y-87453571D01*
X134954523Y-87358333D01*
X134859285Y-87310714D01*
X134668809Y-87263095D01*
X134525952Y-87263095D01*
X134335476Y-87310714D01*
X134240238Y-87358333D01*
X134145000Y-87453571D01*
X134097380Y-87596428D01*
X134097380Y-87691666D01*
X134145000Y-87834523D01*
X134192619Y-87882142D01*
X134097380Y-88215476D02*
X134097380Y-88834523D01*
X134478333Y-88501190D01*
X134478333Y-88644047D01*
X134525952Y-88739285D01*
X134573571Y-88786904D01*
X134668809Y-88834523D01*
X134906904Y-88834523D01*
X135002142Y-88786904D01*
X135049761Y-88739285D01*
X135097380Y-88644047D01*
X135097380Y-88358333D01*
X135049761Y-88263095D01*
X135002142Y-88215476D01*
X134525952Y-89405952D02*
X134478333Y-89310714D01*
X134430714Y-89263095D01*
X134335476Y-89215476D01*
X134287857Y-89215476D01*
X134192619Y-89263095D01*
X134145000Y-89310714D01*
X134097380Y-89405952D01*
X134097380Y-89596428D01*
X134145000Y-89691666D01*
X134192619Y-89739285D01*
X134287857Y-89786904D01*
X134335476Y-89786904D01*
X134430714Y-89739285D01*
X134478333Y-89691666D01*
X134525952Y-89596428D01*
X134525952Y-89405952D01*
X134573571Y-89310714D01*
X134621190Y-89263095D01*
X134716428Y-89215476D01*
X134906904Y-89215476D01*
X135002142Y-89263095D01*
X135049761Y-89310714D01*
X135097380Y-89405952D01*
X135097380Y-89596428D01*
X135049761Y-89691666D01*
X135002142Y-89739285D01*
X134906904Y-89786904D01*
X134716428Y-89786904D01*
X134621190Y-89739285D01*
X134573571Y-89691666D01*
X134525952Y-89596428D01*
G04 #@! TO.C,C39*
X142892857Y-80912142D02*
X142940476Y-80959761D01*
X143083333Y-81007380D01*
X143178571Y-81007380D01*
X143321428Y-80959761D01*
X143416666Y-80864523D01*
X143464285Y-80769285D01*
X143511904Y-80578809D01*
X143511904Y-80435952D01*
X143464285Y-80245476D01*
X143416666Y-80150238D01*
X143321428Y-80055000D01*
X143178571Y-80007380D01*
X143083333Y-80007380D01*
X142940476Y-80055000D01*
X142892857Y-80102619D01*
X142559523Y-80007380D02*
X141940476Y-80007380D01*
X142273809Y-80388333D01*
X142130952Y-80388333D01*
X142035714Y-80435952D01*
X141988095Y-80483571D01*
X141940476Y-80578809D01*
X141940476Y-80816904D01*
X141988095Y-80912142D01*
X142035714Y-80959761D01*
X142130952Y-81007380D01*
X142416666Y-81007380D01*
X142511904Y-80959761D01*
X142559523Y-80912142D01*
X141464285Y-81007380D02*
X141273809Y-81007380D01*
X141178571Y-80959761D01*
X141130952Y-80912142D01*
X141035714Y-80769285D01*
X140988095Y-80578809D01*
X140988095Y-80197857D01*
X141035714Y-80102619D01*
X141083333Y-80055000D01*
X141178571Y-80007380D01*
X141369047Y-80007380D01*
X141464285Y-80055000D01*
X141511904Y-80102619D01*
X141559523Y-80197857D01*
X141559523Y-80435952D01*
X141511904Y-80531190D01*
X141464285Y-80578809D01*
X141369047Y-80626428D01*
X141178571Y-80626428D01*
X141083333Y-80578809D01*
X141035714Y-80531190D01*
X140988095Y-80435952D01*
G04 #@! TO.C,R3*
X205816666Y-129522380D02*
X206150000Y-129046190D01*
X206388095Y-129522380D02*
X206388095Y-128522380D01*
X206007142Y-128522380D01*
X205911904Y-128570000D01*
X205864285Y-128617619D01*
X205816666Y-128712857D01*
X205816666Y-128855714D01*
X205864285Y-128950952D01*
X205911904Y-128998571D01*
X206007142Y-129046190D01*
X206388095Y-129046190D01*
X205483333Y-128522380D02*
X204864285Y-128522380D01*
X205197619Y-128903333D01*
X205054761Y-128903333D01*
X204959523Y-128950952D01*
X204911904Y-128998571D01*
X204864285Y-129093809D01*
X204864285Y-129331904D01*
X204911904Y-129427142D01*
X204959523Y-129474761D01*
X205054761Y-129522380D01*
X205340476Y-129522380D01*
X205435714Y-129474761D01*
X205483333Y-129427142D01*
G04 #@! TD*
M02*
