G04 #@! TF.GenerationSoftware,KiCad,Pcbnew,(5.0.0)*
G04 #@! TF.CreationDate,2018-10-30T19:14:45-07:00*
G04 #@! TF.ProjectId,alu,616C752E6B696361645F706362000000,rev?*
G04 #@! TF.SameCoordinates,Original*
G04 #@! TF.FileFunction,Soldermask,Top*
G04 #@! TF.FilePolarity,Negative*
%FSLAX46Y46*%
G04 Gerber Fmt 4.6, Leading zero omitted, Abs format (unit mm)*
G04 Created by KiCad (PCBNEW (5.0.0)) date 10/30/18 19:14:45*
%MOMM*%
%LPD*%
G01*
G04 APERTURE LIST*
%ADD10C,1.797000*%
%ADD11R,1.797000X1.797000*%
%ADD12R,0.850000X1.850000*%
%ADD13R,1.150000X1.200000*%
%ADD14R,1.200000X1.150000*%
%ADD15R,3.000000X2.000000*%
%ADD16C,2.400000*%
%ADD17R,2.400000X2.400000*%
%ADD18R,1.100000X4.800000*%
%ADD19R,1.300000X0.900000*%
%ADD20R,1.850000X0.850000*%
%ADD21R,0.700000X1.800000*%
G04 APERTURE END LIST*
D10*
G04 #@! TO.C,U35*
X210810000Y-76380000D03*
X213350000Y-78920000D03*
X208270000Y-76380000D03*
X210810000Y-78920000D03*
X210810000Y-81460000D03*
X213350000Y-81460000D03*
X210810000Y-84000000D03*
X213350000Y-84000000D03*
X210810000Y-86540000D03*
X213350000Y-86540000D03*
X210810000Y-89080000D03*
X213350000Y-89080000D03*
X210810000Y-91620000D03*
X208270000Y-89080000D03*
X208270000Y-91620000D03*
X205730000Y-89080000D03*
X205730000Y-91620000D03*
X203190000Y-89080000D03*
X203190000Y-91620000D03*
X200650000Y-89080000D03*
X203190000Y-86540000D03*
X200650000Y-86540000D03*
X203190000Y-84000000D03*
X200650000Y-84000000D03*
X203190000Y-81460000D03*
X200650000Y-81460000D03*
X203190000Y-78920000D03*
X200650000Y-78920000D03*
X203190000Y-76380000D03*
X205730000Y-78920000D03*
X205730000Y-76380000D03*
D11*
X208270000Y-78920000D03*
G04 #@! TD*
D12*
G04 #@! TO.C,U38*
X134925000Y-80050000D03*
X134275000Y-80050000D03*
X133625000Y-80050000D03*
X132975000Y-80050000D03*
X132325000Y-80050000D03*
X131675000Y-80050000D03*
X131025000Y-80050000D03*
X130375000Y-80050000D03*
X129725000Y-80050000D03*
X129075000Y-80050000D03*
X129075000Y-85950000D03*
X129725000Y-85950000D03*
X130375000Y-85950000D03*
X131025000Y-85950000D03*
X131675000Y-85950000D03*
X132325000Y-85950000D03*
X132975000Y-85950000D03*
X133625000Y-85950000D03*
X134275000Y-85950000D03*
X134925000Y-85950000D03*
G04 #@! TD*
D13*
G04 #@! TO.C,C1*
X211075000Y-123725000D03*
X211075000Y-125225000D03*
G04 #@! TD*
D14*
G04 #@! TO.C,C2*
X208650000Y-98175000D03*
X210150000Y-98175000D03*
G04 #@! TD*
D13*
G04 #@! TO.C,C3*
X210150000Y-110475000D03*
X210150000Y-111975000D03*
G04 #@! TD*
D14*
G04 #@! TO.C,C4*
X195050000Y-86125000D03*
X196550000Y-86125000D03*
G04 #@! TD*
D13*
G04 #@! TO.C,C5*
X194225000Y-60325000D03*
X194225000Y-61825000D03*
G04 #@! TD*
G04 #@! TO.C,C6*
X173650000Y-127100000D03*
X173650000Y-125600000D03*
G04 #@! TD*
G04 #@! TO.C,C7*
X155625000Y-125575000D03*
X155625000Y-127075000D03*
G04 #@! TD*
G04 #@! TO.C,C8*
X115650000Y-125575000D03*
X115650000Y-127075000D03*
G04 #@! TD*
G04 #@! TO.C,C9*
X97500000Y-125550000D03*
X97500000Y-127050000D03*
G04 #@! TD*
G04 #@! TO.C,C10*
X193075000Y-125050000D03*
X193075000Y-123550000D03*
G04 #@! TD*
G04 #@! TO.C,C11*
X184075000Y-125000000D03*
X184075000Y-123500000D03*
G04 #@! TD*
G04 #@! TO.C,C12*
X133575000Y-125550000D03*
X133575000Y-127050000D03*
G04 #@! TD*
G04 #@! TO.C,C13*
X124625000Y-127025000D03*
X124625000Y-125525000D03*
G04 #@! TD*
G04 #@! TO.C,C14*
X200700000Y-125475000D03*
X200700000Y-126975000D03*
G04 #@! TD*
G04 #@! TO.C,C16*
X132825000Y-75850000D03*
X132825000Y-74350000D03*
G04 #@! TD*
G04 #@! TO.C,C17*
X185800000Y-92525000D03*
X185800000Y-91025000D03*
G04 #@! TD*
G04 #@! TO.C,C19*
X165325000Y-91525000D03*
X165325000Y-93025000D03*
G04 #@! TD*
G04 #@! TO.C,C20*
X155750000Y-90925000D03*
X155750000Y-92425000D03*
G04 #@! TD*
G04 #@! TO.C,C21*
X128650000Y-92275000D03*
X128650000Y-90775000D03*
G04 #@! TD*
G04 #@! TO.C,C22*
X118750000Y-91025000D03*
X118750000Y-92525000D03*
G04 #@! TD*
G04 #@! TO.C,C23*
X108650000Y-90875000D03*
X108650000Y-92375000D03*
G04 #@! TD*
D14*
G04 #@! TO.C,C24*
X114925000Y-50025000D03*
X116425000Y-50025000D03*
G04 #@! TD*
D13*
G04 #@! TO.C,C25*
X128625000Y-50150000D03*
X128625000Y-51650000D03*
G04 #@! TD*
D14*
G04 #@! TO.C,C26*
X127025000Y-46000000D03*
X125525000Y-46000000D03*
G04 #@! TD*
D13*
G04 #@! TO.C,C27*
X136850000Y-49450000D03*
X136850000Y-47950000D03*
G04 #@! TD*
G04 #@! TO.C,C28*
X175000000Y-77650000D03*
X175000000Y-79150000D03*
G04 #@! TD*
G04 #@! TO.C,C29*
X163750000Y-79250000D03*
X163750000Y-77750000D03*
G04 #@! TD*
G04 #@! TO.C,C30*
X153000000Y-79275000D03*
X153000000Y-77775000D03*
G04 #@! TD*
G04 #@! TO.C,C32*
X116050000Y-79300000D03*
X116050000Y-77800000D03*
G04 #@! TD*
G04 #@! TO.C,C33*
X105025000Y-77875000D03*
X105025000Y-79375000D03*
G04 #@! TD*
G04 #@! TO.C,C34*
X94075000Y-77800000D03*
X94075000Y-79300000D03*
G04 #@! TD*
G04 #@! TO.C,C37*
X132075000Y-98000000D03*
X132075000Y-96500000D03*
G04 #@! TD*
D14*
G04 #@! TO.C,C40*
X177675000Y-109000000D03*
X179175000Y-109000000D03*
G04 #@! TD*
G04 #@! TO.C,C41*
X158950000Y-109850000D03*
X157450000Y-109850000D03*
G04 #@! TD*
G04 #@! TO.C,C42*
X119425000Y-109950000D03*
X120925000Y-109950000D03*
G04 #@! TD*
G04 #@! TO.C,C43*
X101025000Y-110425000D03*
X99525000Y-110425000D03*
G04 #@! TD*
D13*
G04 #@! TO.C,C44*
X84475000Y-108300000D03*
X84475000Y-109800000D03*
G04 #@! TD*
G04 #@! TO.C,C45*
X177650000Y-104775000D03*
X177650000Y-103275000D03*
G04 #@! TD*
G04 #@! TO.C,C46*
X166900000Y-103175000D03*
X166900000Y-104675000D03*
G04 #@! TD*
G04 #@! TO.C,C47*
X157775000Y-104300000D03*
X157775000Y-102800000D03*
G04 #@! TD*
G04 #@! TO.C,C48*
X146850000Y-103200000D03*
X146850000Y-104700000D03*
G04 #@! TD*
G04 #@! TO.C,C49*
X119575000Y-102975000D03*
X119575000Y-104475000D03*
G04 #@! TD*
G04 #@! TO.C,C50*
X108850000Y-102975000D03*
X108850000Y-104475000D03*
G04 #@! TD*
G04 #@! TO.C,C51*
X99400000Y-104725000D03*
X99400000Y-103225000D03*
G04 #@! TD*
G04 #@! TO.C,C52*
X88975000Y-104275000D03*
X88975000Y-102775000D03*
G04 #@! TD*
G04 #@! TO.C,C53*
X172350000Y-132975000D03*
X172350000Y-134475000D03*
G04 #@! TD*
G04 #@! TO.C,C54*
X154450000Y-134500000D03*
X154450000Y-133000000D03*
G04 #@! TD*
G04 #@! TO.C,C55*
X114425000Y-133000000D03*
X114425000Y-134500000D03*
G04 #@! TD*
G04 #@! TO.C,C56*
X96325000Y-132975000D03*
X96325000Y-134475000D03*
G04 #@! TD*
D15*
G04 #@! TO.C,C57*
X83075000Y-121000000D03*
X79475000Y-121000000D03*
G04 #@! TD*
G04 #@! TO.C,C58*
X213825000Y-104800000D03*
X210225000Y-104800000D03*
G04 #@! TD*
G04 #@! TO.C,C59*
X157600000Y-55975000D03*
X161200000Y-55975000D03*
G04 #@! TD*
D16*
G04 #@! TO.C,J1*
X209200000Y-50215000D03*
X209200000Y-47675000D03*
X209200000Y-45135000D03*
X206660000Y-50215000D03*
X206660000Y-47675000D03*
D17*
X206660000Y-45135000D03*
G04 #@! TD*
D18*
G04 #@! TO.C,P1*
X93500000Y-147600000D03*
X94500000Y-147600000D03*
X95500000Y-147600000D03*
X96500000Y-147600000D03*
X97500000Y-147600000D03*
X98500000Y-147600000D03*
X99500000Y-147600000D03*
X100500000Y-147600000D03*
X101500000Y-147600000D03*
X102500000Y-147600000D03*
X103500000Y-147600000D03*
X106500000Y-147600000D03*
X107500000Y-147600000D03*
X108500000Y-147600000D03*
X109500000Y-147600000D03*
X110500000Y-147600000D03*
X111500000Y-147600000D03*
X112500000Y-147600000D03*
X113500000Y-147600000D03*
X114500000Y-147600000D03*
X115500000Y-147600000D03*
X116500000Y-147600000D03*
X117500000Y-147600000D03*
X118500000Y-147600000D03*
X119500000Y-147600000D03*
X120500000Y-147600000D03*
X121500000Y-147600000D03*
X122500000Y-147600000D03*
X123500000Y-147600000D03*
X124500000Y-147600000D03*
X125500000Y-147600000D03*
X126500000Y-147600000D03*
X127500000Y-147600000D03*
X128500000Y-147600000D03*
X129500000Y-147600000D03*
X130500000Y-147600000D03*
X131500000Y-147600000D03*
X132500000Y-147600000D03*
X133500000Y-147600000D03*
X134500000Y-147600000D03*
X135500000Y-147600000D03*
X136500000Y-147600000D03*
X137500000Y-147600000D03*
X138500000Y-147600000D03*
X139500000Y-147600000D03*
X140500000Y-147600000D03*
X141500000Y-147600000D03*
X142500000Y-147600000D03*
X143500000Y-147600000D03*
X153500000Y-147600000D03*
X166500000Y-147600000D03*
X154500000Y-147600000D03*
X155500000Y-147600000D03*
X156500000Y-147600000D03*
X157500000Y-147600000D03*
X158500000Y-147600000D03*
X159500000Y-147600000D03*
X160500000Y-147600000D03*
X161500000Y-147600000D03*
X162500000Y-147600000D03*
X163500000Y-147600000D03*
X167500000Y-147600000D03*
X168500000Y-147600000D03*
X169500000Y-147600000D03*
X170500000Y-147600000D03*
X171500000Y-147600000D03*
X172500000Y-147600000D03*
X173500000Y-147600000D03*
X174500000Y-147600000D03*
X175500000Y-147600000D03*
X176500000Y-147600000D03*
X177500000Y-147600000D03*
X178500000Y-147600000D03*
X179500000Y-147600000D03*
X180500000Y-147600000D03*
X181500000Y-147600000D03*
X182500000Y-147600000D03*
X183500000Y-147600000D03*
X184500000Y-147600000D03*
X185500000Y-147600000D03*
X186500000Y-147600000D03*
X187500000Y-147600000D03*
X188500000Y-147600000D03*
X189500000Y-147600000D03*
X190500000Y-147600000D03*
X191500000Y-147600000D03*
X192500000Y-147600000D03*
X193500000Y-147600000D03*
X194500000Y-147600000D03*
X195500000Y-147600000D03*
X196500000Y-147600000D03*
X197500000Y-147600000D03*
X198500000Y-147600000D03*
X199500000Y-147600000D03*
X200500000Y-147600000D03*
X201500000Y-147600000D03*
X202500000Y-147600000D03*
X203500000Y-147600000D03*
G04 #@! TD*
D19*
G04 #@! TO.C,R1*
X203675000Y-107450000D03*
X203675000Y-105950000D03*
G04 #@! TD*
G04 #@! TO.C,R2*
X199925000Y-106100000D03*
X199925000Y-104600000D03*
G04 #@! TD*
D12*
G04 #@! TO.C,U1*
X211075000Y-127050000D03*
X211725000Y-127050000D03*
X212375000Y-127050000D03*
X213025000Y-127050000D03*
X213675000Y-127050000D03*
X214325000Y-127050000D03*
X214975000Y-127050000D03*
X215625000Y-127050000D03*
X216275000Y-127050000D03*
X216925000Y-127050000D03*
X216925000Y-132950000D03*
X216275000Y-132950000D03*
X215625000Y-132950000D03*
X214975000Y-132950000D03*
X214325000Y-132950000D03*
X213675000Y-132950000D03*
X213025000Y-132950000D03*
X212375000Y-132950000D03*
X211725000Y-132950000D03*
X211075000Y-132950000D03*
G04 #@! TD*
D20*
G04 #@! TO.C,U2*
X205950000Y-98050000D03*
X205950000Y-98700000D03*
X205950000Y-99350000D03*
X205950000Y-100000000D03*
X205950000Y-100650000D03*
X205950000Y-101300000D03*
X205950000Y-101950000D03*
X200050000Y-101950000D03*
X200050000Y-101300000D03*
X200050000Y-100650000D03*
X200050000Y-100000000D03*
X200050000Y-99350000D03*
X200050000Y-98700000D03*
X200050000Y-98050000D03*
G04 #@! TD*
D12*
G04 #@! TO.C,U3*
X212050000Y-117950000D03*
X212700000Y-117950000D03*
X213350000Y-117950000D03*
X214000000Y-117950000D03*
X214650000Y-117950000D03*
X215300000Y-117950000D03*
X215950000Y-117950000D03*
X215950000Y-112050000D03*
X215300000Y-112050000D03*
X214650000Y-112050000D03*
X214000000Y-112050000D03*
X213350000Y-112050000D03*
X212700000Y-112050000D03*
X212050000Y-112050000D03*
G04 #@! TD*
G04 #@! TO.C,U6*
X175075000Y-127050000D03*
X175725000Y-127050000D03*
X176375000Y-127050000D03*
X177025000Y-127050000D03*
X177675000Y-127050000D03*
X178325000Y-127050000D03*
X178975000Y-127050000D03*
X179625000Y-127050000D03*
X180275000Y-127050000D03*
X180925000Y-127050000D03*
X180925000Y-132950000D03*
X180275000Y-132950000D03*
X179625000Y-132950000D03*
X178975000Y-132950000D03*
X178325000Y-132950000D03*
X177675000Y-132950000D03*
X177025000Y-132950000D03*
X176375000Y-132950000D03*
X175725000Y-132950000D03*
X175075000Y-132950000D03*
G04 #@! TD*
G04 #@! TO.C,U7*
X157075000Y-132950000D03*
X157725000Y-132950000D03*
X158375000Y-132950000D03*
X159025000Y-132950000D03*
X159675000Y-132950000D03*
X160325000Y-132950000D03*
X160975000Y-132950000D03*
X161625000Y-132950000D03*
X162275000Y-132950000D03*
X162925000Y-132950000D03*
X162925000Y-127050000D03*
X162275000Y-127050000D03*
X161625000Y-127050000D03*
X160975000Y-127050000D03*
X160325000Y-127050000D03*
X159675000Y-127050000D03*
X159025000Y-127050000D03*
X158375000Y-127050000D03*
X157725000Y-127050000D03*
X157075000Y-127050000D03*
G04 #@! TD*
G04 #@! TO.C,U8*
X117075000Y-127050000D03*
X117725000Y-127050000D03*
X118375000Y-127050000D03*
X119025000Y-127050000D03*
X119675000Y-127050000D03*
X120325000Y-127050000D03*
X120975000Y-127050000D03*
X121625000Y-127050000D03*
X122275000Y-127050000D03*
X122925000Y-127050000D03*
X122925000Y-132950000D03*
X122275000Y-132950000D03*
X121625000Y-132950000D03*
X120975000Y-132950000D03*
X120325000Y-132950000D03*
X119675000Y-132950000D03*
X119025000Y-132950000D03*
X118375000Y-132950000D03*
X117725000Y-132950000D03*
X117075000Y-132950000D03*
G04 #@! TD*
G04 #@! TO.C,U9*
X99075000Y-132950000D03*
X99725000Y-132950000D03*
X100375000Y-132950000D03*
X101025000Y-132950000D03*
X101675000Y-132950000D03*
X102325000Y-132950000D03*
X102975000Y-132950000D03*
X103625000Y-132950000D03*
X104275000Y-132950000D03*
X104925000Y-132950000D03*
X104925000Y-127050000D03*
X104275000Y-127050000D03*
X103625000Y-127050000D03*
X102975000Y-127050000D03*
X102325000Y-127050000D03*
X101675000Y-127050000D03*
X101025000Y-127050000D03*
X100375000Y-127050000D03*
X99725000Y-127050000D03*
X99075000Y-127050000D03*
G04 #@! TD*
G04 #@! TO.C,U10*
X193075000Y-127050000D03*
X193725000Y-127050000D03*
X194375000Y-127050000D03*
X195025000Y-127050000D03*
X195675000Y-127050000D03*
X196325000Y-127050000D03*
X196975000Y-127050000D03*
X197625000Y-127050000D03*
X198275000Y-127050000D03*
X198925000Y-127050000D03*
X198925000Y-132950000D03*
X198275000Y-132950000D03*
X197625000Y-132950000D03*
X196975000Y-132950000D03*
X196325000Y-132950000D03*
X195675000Y-132950000D03*
X195025000Y-132950000D03*
X194375000Y-132950000D03*
X193725000Y-132950000D03*
X193075000Y-132950000D03*
G04 #@! TD*
G04 #@! TO.C,U11*
X184075000Y-132950000D03*
X184725000Y-132950000D03*
X185375000Y-132950000D03*
X186025000Y-132950000D03*
X186675000Y-132950000D03*
X187325000Y-132950000D03*
X187975000Y-132950000D03*
X188625000Y-132950000D03*
X189275000Y-132950000D03*
X189925000Y-132950000D03*
X189925000Y-127050000D03*
X189275000Y-127050000D03*
X188625000Y-127050000D03*
X187975000Y-127050000D03*
X187325000Y-127050000D03*
X186675000Y-127050000D03*
X186025000Y-127050000D03*
X185375000Y-127050000D03*
X184725000Y-127050000D03*
X184075000Y-127050000D03*
G04 #@! TD*
G04 #@! TO.C,U12*
X135075000Y-127050000D03*
X135725000Y-127050000D03*
X136375000Y-127050000D03*
X137025000Y-127050000D03*
X137675000Y-127050000D03*
X138325000Y-127050000D03*
X138975000Y-127050000D03*
X139625000Y-127050000D03*
X140275000Y-127050000D03*
X140925000Y-127050000D03*
X140925000Y-132950000D03*
X140275000Y-132950000D03*
X139625000Y-132950000D03*
X138975000Y-132950000D03*
X138325000Y-132950000D03*
X137675000Y-132950000D03*
X137025000Y-132950000D03*
X136375000Y-132950000D03*
X135725000Y-132950000D03*
X135075000Y-132950000D03*
G04 #@! TD*
G04 #@! TO.C,U13*
X126075000Y-132950000D03*
X126725000Y-132950000D03*
X127375000Y-132950000D03*
X128025000Y-132950000D03*
X128675000Y-132950000D03*
X129325000Y-132950000D03*
X129975000Y-132950000D03*
X130625000Y-132950000D03*
X131275000Y-132950000D03*
X131925000Y-132950000D03*
X131925000Y-127050000D03*
X131275000Y-127050000D03*
X130625000Y-127050000D03*
X129975000Y-127050000D03*
X129325000Y-127050000D03*
X128675000Y-127050000D03*
X128025000Y-127050000D03*
X127375000Y-127050000D03*
X126725000Y-127050000D03*
X126075000Y-127050000D03*
G04 #@! TD*
G04 #@! TO.C,U14*
X202075000Y-127050000D03*
X202725000Y-127050000D03*
X203375000Y-127050000D03*
X204025000Y-127050000D03*
X204675000Y-127050000D03*
X205325000Y-127050000D03*
X205975000Y-127050000D03*
X206625000Y-127050000D03*
X207275000Y-127050000D03*
X207925000Y-127050000D03*
X207925000Y-132950000D03*
X207275000Y-132950000D03*
X206625000Y-132950000D03*
X205975000Y-132950000D03*
X205325000Y-132950000D03*
X204675000Y-132950000D03*
X204025000Y-132950000D03*
X203375000Y-132950000D03*
X202725000Y-132950000D03*
X202075000Y-132950000D03*
G04 #@! TD*
D10*
G04 #@! TO.C,U15*
X180810000Y-36380000D03*
X183350000Y-38920000D03*
X178270000Y-36380000D03*
X180810000Y-38920000D03*
X180810000Y-41460000D03*
X183350000Y-41460000D03*
X180810000Y-44000000D03*
X183350000Y-44000000D03*
X180810000Y-46540000D03*
X183350000Y-46540000D03*
X180810000Y-49080000D03*
X183350000Y-49080000D03*
X180810000Y-51620000D03*
X178270000Y-49080000D03*
X178270000Y-51620000D03*
X175730000Y-49080000D03*
X175730000Y-51620000D03*
X173190000Y-49080000D03*
X173190000Y-51620000D03*
X170650000Y-49080000D03*
X173190000Y-46540000D03*
X170650000Y-46540000D03*
X173190000Y-44000000D03*
X170650000Y-44000000D03*
X173190000Y-41460000D03*
X170650000Y-41460000D03*
X173190000Y-38920000D03*
X170650000Y-38920000D03*
X173190000Y-36380000D03*
X175730000Y-38920000D03*
X175730000Y-36380000D03*
D11*
X178270000Y-38920000D03*
G04 #@! TD*
D12*
G04 #@! TO.C,U16*
X132925000Y-71950000D03*
X132275000Y-71950000D03*
X131625000Y-71950000D03*
X130975000Y-71950000D03*
X130325000Y-71950000D03*
X129675000Y-71950000D03*
X129025000Y-71950000D03*
X128375000Y-71950000D03*
X127725000Y-71950000D03*
X127075000Y-71950000D03*
X127075000Y-66050000D03*
X127725000Y-66050000D03*
X128375000Y-66050000D03*
X129025000Y-66050000D03*
X129675000Y-66050000D03*
X130325000Y-66050000D03*
X130975000Y-66050000D03*
X131625000Y-66050000D03*
X132275000Y-66050000D03*
X132925000Y-66050000D03*
G04 #@! TD*
G04 #@! TO.C,U17*
X183925000Y-85050000D03*
X183275000Y-85050000D03*
X182625000Y-85050000D03*
X181975000Y-85050000D03*
X181325000Y-85050000D03*
X180675000Y-85050000D03*
X180025000Y-85050000D03*
X179375000Y-85050000D03*
X178725000Y-85050000D03*
X178075000Y-85050000D03*
X178075000Y-90950000D03*
X178725000Y-90950000D03*
X179375000Y-90950000D03*
X180025000Y-90950000D03*
X180675000Y-90950000D03*
X181325000Y-90950000D03*
X181975000Y-90950000D03*
X182625000Y-90950000D03*
X183275000Y-90950000D03*
X183925000Y-90950000D03*
G04 #@! TD*
G04 #@! TO.C,U18*
X173925000Y-85050000D03*
X173275000Y-85050000D03*
X172625000Y-85050000D03*
X171975000Y-85050000D03*
X171325000Y-85050000D03*
X170675000Y-85050000D03*
X170025000Y-85050000D03*
X169375000Y-85050000D03*
X168725000Y-85050000D03*
X168075000Y-85050000D03*
X168075000Y-90950000D03*
X168725000Y-90950000D03*
X169375000Y-90950000D03*
X170025000Y-90950000D03*
X170675000Y-90950000D03*
X171325000Y-90950000D03*
X171975000Y-90950000D03*
X172625000Y-90950000D03*
X173275000Y-90950000D03*
X173925000Y-90950000D03*
G04 #@! TD*
G04 #@! TO.C,U19*
X163925000Y-90950000D03*
X163275000Y-90950000D03*
X162625000Y-90950000D03*
X161975000Y-90950000D03*
X161325000Y-90950000D03*
X160675000Y-90950000D03*
X160025000Y-90950000D03*
X159375000Y-90950000D03*
X158725000Y-90950000D03*
X158075000Y-90950000D03*
X158075000Y-85050000D03*
X158725000Y-85050000D03*
X159375000Y-85050000D03*
X160025000Y-85050000D03*
X160675000Y-85050000D03*
X161325000Y-85050000D03*
X161975000Y-85050000D03*
X162625000Y-85050000D03*
X163275000Y-85050000D03*
X163925000Y-85050000D03*
G04 #@! TD*
G04 #@! TO.C,U20*
X153925000Y-90950000D03*
X153275000Y-90950000D03*
X152625000Y-90950000D03*
X151975000Y-90950000D03*
X151325000Y-90950000D03*
X150675000Y-90950000D03*
X150025000Y-90950000D03*
X149375000Y-90950000D03*
X148725000Y-90950000D03*
X148075000Y-90950000D03*
X148075000Y-85050000D03*
X148725000Y-85050000D03*
X149375000Y-85050000D03*
X150025000Y-85050000D03*
X150675000Y-85050000D03*
X151325000Y-85050000D03*
X151975000Y-85050000D03*
X152625000Y-85050000D03*
X153275000Y-85050000D03*
X153925000Y-85050000D03*
G04 #@! TD*
G04 #@! TO.C,U21*
X126925000Y-85050000D03*
X126275000Y-85050000D03*
X125625000Y-85050000D03*
X124975000Y-85050000D03*
X124325000Y-85050000D03*
X123675000Y-85050000D03*
X123025000Y-85050000D03*
X122375000Y-85050000D03*
X121725000Y-85050000D03*
X121075000Y-85050000D03*
X121075000Y-90950000D03*
X121725000Y-90950000D03*
X122375000Y-90950000D03*
X123025000Y-90950000D03*
X123675000Y-90950000D03*
X124325000Y-90950000D03*
X124975000Y-90950000D03*
X125625000Y-90950000D03*
X126275000Y-90950000D03*
X126925000Y-90950000D03*
G04 #@! TD*
G04 #@! TO.C,U22*
X116925000Y-85050000D03*
X116275000Y-85050000D03*
X115625000Y-85050000D03*
X114975000Y-85050000D03*
X114325000Y-85050000D03*
X113675000Y-85050000D03*
X113025000Y-85050000D03*
X112375000Y-85050000D03*
X111725000Y-85050000D03*
X111075000Y-85050000D03*
X111075000Y-90950000D03*
X111725000Y-90950000D03*
X112375000Y-90950000D03*
X113025000Y-90950000D03*
X113675000Y-90950000D03*
X114325000Y-90950000D03*
X114975000Y-90950000D03*
X115625000Y-90950000D03*
X116275000Y-90950000D03*
X116925000Y-90950000D03*
G04 #@! TD*
G04 #@! TO.C,U23*
X106925000Y-90950000D03*
X106275000Y-90950000D03*
X105625000Y-90950000D03*
X104975000Y-90950000D03*
X104325000Y-90950000D03*
X103675000Y-90950000D03*
X103025000Y-90950000D03*
X102375000Y-90950000D03*
X101725000Y-90950000D03*
X101075000Y-90950000D03*
X101075000Y-85050000D03*
X101725000Y-85050000D03*
X102375000Y-85050000D03*
X103025000Y-85050000D03*
X103675000Y-85050000D03*
X104325000Y-85050000D03*
X104975000Y-85050000D03*
X105625000Y-85050000D03*
X106275000Y-85050000D03*
X106925000Y-85050000D03*
G04 #@! TD*
G04 #@! TO.C,U24*
X117075000Y-52050000D03*
X117725000Y-52050000D03*
X118375000Y-52050000D03*
X119025000Y-52050000D03*
X119675000Y-52050000D03*
X120325000Y-52050000D03*
X120975000Y-52050000D03*
X121625000Y-52050000D03*
X122275000Y-52050000D03*
X122925000Y-52050000D03*
X122925000Y-57950000D03*
X122275000Y-57950000D03*
X121625000Y-57950000D03*
X120975000Y-57950000D03*
X120325000Y-57950000D03*
X119675000Y-57950000D03*
X119025000Y-57950000D03*
X118375000Y-57950000D03*
X117725000Y-57950000D03*
X117075000Y-57950000D03*
G04 #@! TD*
G04 #@! TO.C,U25*
X130075000Y-57950000D03*
X130725000Y-57950000D03*
X131375000Y-57950000D03*
X132025000Y-57950000D03*
X132675000Y-57950000D03*
X133325000Y-57950000D03*
X133975000Y-57950000D03*
X134625000Y-57950000D03*
X135275000Y-57950000D03*
X135925000Y-57950000D03*
X135925000Y-52050000D03*
X135275000Y-52050000D03*
X134625000Y-52050000D03*
X133975000Y-52050000D03*
X133325000Y-52050000D03*
X132675000Y-52050000D03*
X132025000Y-52050000D03*
X131375000Y-52050000D03*
X130725000Y-52050000D03*
X130075000Y-52050000D03*
G04 #@! TD*
G04 #@! TO.C,U26*
X123925000Y-40050000D03*
X123275000Y-40050000D03*
X122625000Y-40050000D03*
X121975000Y-40050000D03*
X121325000Y-40050000D03*
X120675000Y-40050000D03*
X120025000Y-40050000D03*
X119375000Y-40050000D03*
X118725000Y-40050000D03*
X118075000Y-40050000D03*
X118075000Y-45950000D03*
X118725000Y-45950000D03*
X119375000Y-45950000D03*
X120025000Y-45950000D03*
X120675000Y-45950000D03*
X121325000Y-45950000D03*
X121975000Y-45950000D03*
X122625000Y-45950000D03*
X123275000Y-45950000D03*
X123925000Y-45950000D03*
G04 #@! TD*
G04 #@! TO.C,U27*
X136925000Y-40050000D03*
X136275000Y-40050000D03*
X135625000Y-40050000D03*
X134975000Y-40050000D03*
X134325000Y-40050000D03*
X133675000Y-40050000D03*
X133025000Y-40050000D03*
X132375000Y-40050000D03*
X131725000Y-40050000D03*
X131075000Y-40050000D03*
X131075000Y-45950000D03*
X131725000Y-45950000D03*
X132375000Y-45950000D03*
X133025000Y-45950000D03*
X133675000Y-45950000D03*
X134325000Y-45950000D03*
X134975000Y-45950000D03*
X135625000Y-45950000D03*
X136275000Y-45950000D03*
X136925000Y-45950000D03*
G04 #@! TD*
D21*
G04 #@! TO.C,U28*
X178300000Y-75500000D03*
X177750000Y-75500000D03*
X177200000Y-75500000D03*
X176650000Y-75500000D03*
X176100000Y-75500000D03*
X175550000Y-75500000D03*
X175000000Y-75500000D03*
X174450000Y-75500000D03*
X173900000Y-75500000D03*
X173350000Y-75500000D03*
X172800000Y-75500000D03*
X172250000Y-75500000D03*
X171700000Y-75500000D03*
X178850000Y-75500000D03*
X178850000Y-62500000D03*
X178300000Y-62500000D03*
X176100000Y-62500000D03*
X175000000Y-62500000D03*
X173350000Y-62500000D03*
X172800000Y-62500000D03*
X172250000Y-62500000D03*
X174450000Y-62500000D03*
X171700000Y-62500000D03*
X177750000Y-62500000D03*
X177200000Y-62500000D03*
X176650000Y-62500000D03*
X173900000Y-62500000D03*
X175550000Y-62500000D03*
G04 #@! TD*
G04 #@! TO.C,U29*
X164550000Y-62500000D03*
X162900000Y-62500000D03*
X165650000Y-62500000D03*
X166200000Y-62500000D03*
X166750000Y-62500000D03*
X160700000Y-62500000D03*
X163450000Y-62500000D03*
X161250000Y-62500000D03*
X161800000Y-62500000D03*
X162350000Y-62500000D03*
X164000000Y-62500000D03*
X165100000Y-62500000D03*
X167300000Y-62500000D03*
X167850000Y-62500000D03*
X167850000Y-75500000D03*
X160700000Y-75500000D03*
X161250000Y-75500000D03*
X161800000Y-75500000D03*
X162350000Y-75500000D03*
X162900000Y-75500000D03*
X163450000Y-75500000D03*
X164000000Y-75500000D03*
X164550000Y-75500000D03*
X165100000Y-75500000D03*
X165650000Y-75500000D03*
X166200000Y-75500000D03*
X166750000Y-75500000D03*
X167300000Y-75500000D03*
G04 #@! TD*
G04 #@! TO.C,U30*
X156300000Y-75500000D03*
X155750000Y-75500000D03*
X155200000Y-75500000D03*
X154650000Y-75500000D03*
X154100000Y-75500000D03*
X153550000Y-75500000D03*
X153000000Y-75500000D03*
X152450000Y-75500000D03*
X151900000Y-75500000D03*
X151350000Y-75500000D03*
X150800000Y-75500000D03*
X150250000Y-75500000D03*
X149700000Y-75500000D03*
X156850000Y-75500000D03*
X156850000Y-62500000D03*
X156300000Y-62500000D03*
X154100000Y-62500000D03*
X153000000Y-62500000D03*
X151350000Y-62500000D03*
X150800000Y-62500000D03*
X150250000Y-62500000D03*
X152450000Y-62500000D03*
X149700000Y-62500000D03*
X155750000Y-62500000D03*
X155200000Y-62500000D03*
X154650000Y-62500000D03*
X151900000Y-62500000D03*
X153550000Y-62500000D03*
G04 #@! TD*
G04 #@! TO.C,U31*
X142550000Y-62500000D03*
X140900000Y-62500000D03*
X143650000Y-62500000D03*
X144200000Y-62500000D03*
X144750000Y-62500000D03*
X138700000Y-62500000D03*
X141450000Y-62500000D03*
X139250000Y-62500000D03*
X139800000Y-62500000D03*
X140350000Y-62500000D03*
X142000000Y-62500000D03*
X143100000Y-62500000D03*
X145300000Y-62500000D03*
X145850000Y-62500000D03*
X145850000Y-75500000D03*
X138700000Y-75500000D03*
X139250000Y-75500000D03*
X139800000Y-75500000D03*
X140350000Y-75500000D03*
X140900000Y-75500000D03*
X141450000Y-75500000D03*
X142000000Y-75500000D03*
X142550000Y-75500000D03*
X143100000Y-75500000D03*
X143650000Y-75500000D03*
X144200000Y-75500000D03*
X144750000Y-75500000D03*
X145300000Y-75500000D03*
G04 #@! TD*
G04 #@! TO.C,U32*
X119300000Y-75500000D03*
X118750000Y-75500000D03*
X118200000Y-75500000D03*
X117650000Y-75500000D03*
X117100000Y-75500000D03*
X116550000Y-75500000D03*
X116000000Y-75500000D03*
X115450000Y-75500000D03*
X114900000Y-75500000D03*
X114350000Y-75500000D03*
X113800000Y-75500000D03*
X113250000Y-75500000D03*
X112700000Y-75500000D03*
X119850000Y-75500000D03*
X119850000Y-62500000D03*
X119300000Y-62500000D03*
X117100000Y-62500000D03*
X116000000Y-62500000D03*
X114350000Y-62500000D03*
X113800000Y-62500000D03*
X113250000Y-62500000D03*
X115450000Y-62500000D03*
X112700000Y-62500000D03*
X118750000Y-62500000D03*
X118200000Y-62500000D03*
X117650000Y-62500000D03*
X114900000Y-62500000D03*
X116550000Y-62500000D03*
G04 #@! TD*
G04 #@! TO.C,U33*
X105550000Y-62500000D03*
X103900000Y-62500000D03*
X106650000Y-62500000D03*
X107200000Y-62500000D03*
X107750000Y-62500000D03*
X101700000Y-62500000D03*
X104450000Y-62500000D03*
X102250000Y-62500000D03*
X102800000Y-62500000D03*
X103350000Y-62500000D03*
X105000000Y-62500000D03*
X106100000Y-62500000D03*
X108300000Y-62500000D03*
X108850000Y-62500000D03*
X108850000Y-75500000D03*
X101700000Y-75500000D03*
X102250000Y-75500000D03*
X102800000Y-75500000D03*
X103350000Y-75500000D03*
X103900000Y-75500000D03*
X104450000Y-75500000D03*
X105000000Y-75500000D03*
X105550000Y-75500000D03*
X106100000Y-75500000D03*
X106650000Y-75500000D03*
X107200000Y-75500000D03*
X107750000Y-75500000D03*
X108300000Y-75500000D03*
G04 #@! TD*
G04 #@! TO.C,U34*
X97300000Y-75500000D03*
X96750000Y-75500000D03*
X96200000Y-75500000D03*
X95650000Y-75500000D03*
X95100000Y-75500000D03*
X94550000Y-75500000D03*
X94000000Y-75500000D03*
X93450000Y-75500000D03*
X92900000Y-75500000D03*
X92350000Y-75500000D03*
X91800000Y-75500000D03*
X91250000Y-75500000D03*
X90700000Y-75500000D03*
X97850000Y-75500000D03*
X97850000Y-62500000D03*
X97300000Y-62500000D03*
X95100000Y-62500000D03*
X94000000Y-62500000D03*
X92350000Y-62500000D03*
X91800000Y-62500000D03*
X91250000Y-62500000D03*
X93450000Y-62500000D03*
X90700000Y-62500000D03*
X96750000Y-62500000D03*
X96200000Y-62500000D03*
X95650000Y-62500000D03*
X92900000Y-62500000D03*
X94550000Y-62500000D03*
G04 #@! TD*
D11*
G04 #@! TO.C,U36*
X77270000Y-80920000D03*
D10*
X74730000Y-78380000D03*
X74730000Y-80920000D03*
X72190000Y-78380000D03*
X69650000Y-80920000D03*
X72190000Y-80920000D03*
X69650000Y-83460000D03*
X72190000Y-83460000D03*
X69650000Y-86000000D03*
X72190000Y-86000000D03*
X69650000Y-88540000D03*
X72190000Y-88540000D03*
X69650000Y-91080000D03*
X72190000Y-93620000D03*
X72190000Y-91080000D03*
X74730000Y-93620000D03*
X74730000Y-91080000D03*
X77270000Y-93620000D03*
X77270000Y-91080000D03*
X79810000Y-93620000D03*
X82350000Y-91080000D03*
X79810000Y-91080000D03*
X82350000Y-88540000D03*
X79810000Y-88540000D03*
X82350000Y-86000000D03*
X79810000Y-86000000D03*
X82350000Y-83460000D03*
X79810000Y-83460000D03*
X79810000Y-80920000D03*
X77270000Y-78380000D03*
X82350000Y-80920000D03*
X79810000Y-78380000D03*
G04 #@! TD*
D12*
G04 #@! TO.C,U37*
X134075000Y-98050000D03*
X134725000Y-98050000D03*
X135375000Y-98050000D03*
X136025000Y-98050000D03*
X136675000Y-98050000D03*
X137325000Y-98050000D03*
X137975000Y-98050000D03*
X138625000Y-98050000D03*
X139275000Y-98050000D03*
X139925000Y-98050000D03*
X139925000Y-103950000D03*
X139275000Y-103950000D03*
X138625000Y-103950000D03*
X137975000Y-103950000D03*
X137325000Y-103950000D03*
X136675000Y-103950000D03*
X136025000Y-103950000D03*
X135375000Y-103950000D03*
X134725000Y-103950000D03*
X134075000Y-103950000D03*
G04 #@! TD*
D21*
G04 #@! TO.C,U39*
X137700000Y-80500000D03*
X138250000Y-80500000D03*
X138800000Y-80500000D03*
X139350000Y-80500000D03*
X139900000Y-80500000D03*
X140450000Y-80500000D03*
X141000000Y-80500000D03*
X141550000Y-80500000D03*
X142100000Y-80500000D03*
X142650000Y-80500000D03*
X143200000Y-80500000D03*
X143750000Y-80500000D03*
X144300000Y-80500000D03*
X137150000Y-80500000D03*
X137150000Y-93500000D03*
X137700000Y-93500000D03*
X139900000Y-93500000D03*
X141000000Y-93500000D03*
X142650000Y-93500000D03*
X143200000Y-93500000D03*
X143750000Y-93500000D03*
X141550000Y-93500000D03*
X144300000Y-93500000D03*
X138250000Y-93500000D03*
X138800000Y-93500000D03*
X139350000Y-93500000D03*
X142100000Y-93500000D03*
X140450000Y-93500000D03*
G04 #@! TD*
D12*
G04 #@! TO.C,U40*
X175925000Y-104050000D03*
X175275000Y-104050000D03*
X174625000Y-104050000D03*
X173975000Y-104050000D03*
X173325000Y-104050000D03*
X172675000Y-104050000D03*
X172025000Y-104050000D03*
X171375000Y-104050000D03*
X170725000Y-104050000D03*
X170075000Y-104050000D03*
X170075000Y-109950000D03*
X170725000Y-109950000D03*
X171375000Y-109950000D03*
X172025000Y-109950000D03*
X172675000Y-109950000D03*
X173325000Y-109950000D03*
X173975000Y-109950000D03*
X174625000Y-109950000D03*
X175275000Y-109950000D03*
X175925000Y-109950000D03*
G04 #@! TD*
G04 #@! TO.C,U41*
X155925000Y-109950000D03*
X155275000Y-109950000D03*
X154625000Y-109950000D03*
X153975000Y-109950000D03*
X153325000Y-109950000D03*
X152675000Y-109950000D03*
X152025000Y-109950000D03*
X151375000Y-109950000D03*
X150725000Y-109950000D03*
X150075000Y-109950000D03*
X150075000Y-104050000D03*
X150725000Y-104050000D03*
X151375000Y-104050000D03*
X152025000Y-104050000D03*
X152675000Y-104050000D03*
X153325000Y-104050000D03*
X153975000Y-104050000D03*
X154625000Y-104050000D03*
X155275000Y-104050000D03*
X155925000Y-104050000D03*
G04 #@! TD*
G04 #@! TO.C,U42*
X117925000Y-109950000D03*
X117275000Y-109950000D03*
X116625000Y-109950000D03*
X115975000Y-109950000D03*
X115325000Y-109950000D03*
X114675000Y-109950000D03*
X114025000Y-109950000D03*
X113375000Y-109950000D03*
X112725000Y-109950000D03*
X112075000Y-109950000D03*
X112075000Y-104050000D03*
X112725000Y-104050000D03*
X113375000Y-104050000D03*
X114025000Y-104050000D03*
X114675000Y-104050000D03*
X115325000Y-104050000D03*
X115975000Y-104050000D03*
X116625000Y-104050000D03*
X117275000Y-104050000D03*
X117925000Y-104050000D03*
G04 #@! TD*
G04 #@! TO.C,U43*
X97925000Y-109950000D03*
X97275000Y-109950000D03*
X96625000Y-109950000D03*
X95975000Y-109950000D03*
X95325000Y-109950000D03*
X94675000Y-109950000D03*
X94025000Y-109950000D03*
X93375000Y-109950000D03*
X92725000Y-109950000D03*
X92075000Y-109950000D03*
X92075000Y-104050000D03*
X92725000Y-104050000D03*
X93375000Y-104050000D03*
X94025000Y-104050000D03*
X94675000Y-104050000D03*
X95325000Y-104050000D03*
X95975000Y-104050000D03*
X96625000Y-104050000D03*
X97275000Y-104050000D03*
X97925000Y-104050000D03*
G04 #@! TD*
G04 #@! TO.C,U44*
X82925000Y-104050000D03*
X82275000Y-104050000D03*
X81625000Y-104050000D03*
X80975000Y-104050000D03*
X80325000Y-104050000D03*
X79675000Y-104050000D03*
X79025000Y-104050000D03*
X78375000Y-104050000D03*
X77725000Y-104050000D03*
X77075000Y-104050000D03*
X77075000Y-109950000D03*
X77725000Y-109950000D03*
X78375000Y-109950000D03*
X79025000Y-109950000D03*
X79675000Y-109950000D03*
X80325000Y-109950000D03*
X80975000Y-109950000D03*
X81625000Y-109950000D03*
X82275000Y-109950000D03*
X82925000Y-109950000D03*
G04 #@! TD*
G04 #@! TO.C,U53*
X170925000Y-127050000D03*
X170275000Y-127050000D03*
X169625000Y-127050000D03*
X168975000Y-127050000D03*
X168325000Y-127050000D03*
X167675000Y-127050000D03*
X167025000Y-127050000D03*
X166375000Y-127050000D03*
X165725000Y-127050000D03*
X165075000Y-127050000D03*
X165075000Y-132950000D03*
X165725000Y-132950000D03*
X166375000Y-132950000D03*
X167025000Y-132950000D03*
X167675000Y-132950000D03*
X168325000Y-132950000D03*
X168975000Y-132950000D03*
X169625000Y-132950000D03*
X170275000Y-132950000D03*
X170925000Y-132950000D03*
G04 #@! TD*
G04 #@! TO.C,U54*
X152925000Y-132950000D03*
X152275000Y-132950000D03*
X151625000Y-132950000D03*
X150975000Y-132950000D03*
X150325000Y-132950000D03*
X149675000Y-132950000D03*
X149025000Y-132950000D03*
X148375000Y-132950000D03*
X147725000Y-132950000D03*
X147075000Y-132950000D03*
X147075000Y-127050000D03*
X147725000Y-127050000D03*
X148375000Y-127050000D03*
X149025000Y-127050000D03*
X149675000Y-127050000D03*
X150325000Y-127050000D03*
X150975000Y-127050000D03*
X151625000Y-127050000D03*
X152275000Y-127050000D03*
X152925000Y-127050000D03*
G04 #@! TD*
G04 #@! TO.C,U55*
X112925000Y-127050000D03*
X112275000Y-127050000D03*
X111625000Y-127050000D03*
X110975000Y-127050000D03*
X110325000Y-127050000D03*
X109675000Y-127050000D03*
X109025000Y-127050000D03*
X108375000Y-127050000D03*
X107725000Y-127050000D03*
X107075000Y-127050000D03*
X107075000Y-132950000D03*
X107725000Y-132950000D03*
X108375000Y-132950000D03*
X109025000Y-132950000D03*
X109675000Y-132950000D03*
X110325000Y-132950000D03*
X110975000Y-132950000D03*
X111625000Y-132950000D03*
X112275000Y-132950000D03*
X112925000Y-132950000D03*
G04 #@! TD*
G04 #@! TO.C,U56*
X94925000Y-132950000D03*
X94275000Y-132950000D03*
X93625000Y-132950000D03*
X92975000Y-132950000D03*
X92325000Y-132950000D03*
X91675000Y-132950000D03*
X91025000Y-132950000D03*
X90375000Y-132950000D03*
X89725000Y-132950000D03*
X89075000Y-132950000D03*
X89075000Y-127050000D03*
X89725000Y-127050000D03*
X90375000Y-127050000D03*
X91025000Y-127050000D03*
X91675000Y-127050000D03*
X92325000Y-127050000D03*
X92975000Y-127050000D03*
X93625000Y-127050000D03*
X94275000Y-127050000D03*
X94925000Y-127050000D03*
G04 #@! TD*
M02*
