G04 #@! TF.GenerationSoftware,KiCad,Pcbnew,(5.0.0)*
G04 #@! TF.CreationDate,2018-10-30T19:14:45-07:00*
G04 #@! TF.ProjectId,alu,616C752E6B696361645F706362000000,rev?*
G04 #@! TF.SameCoordinates,Original*
G04 #@! TF.FileFunction,Legend,Bot*
G04 #@! TF.FilePolarity,Positive*
%FSLAX46Y46*%
G04 Gerber Fmt 4.6, Leading zero omitted, Abs format (unit mm)*
G04 Created by KiCad (PCBNEW (5.0.0)) date 10/30/18 19:14:45*
%MOMM*%
%LPD*%
G01*
G04 APERTURE LIST*
%ADD10C,0.200000*%
%ADD11C,0.120000*%
%ADD12C,0.100000*%
%ADD13C,0.150000*%
G04 APERTURE END LIST*
D10*
X89525000Y-99325000D02*
G75*
G03X89525000Y-99325000I-75000J0D01*
G01*
X99575000Y-99325000D02*
G75*
G03X99575000Y-99325000I-75000J0D01*
G01*
X109675000Y-99325000D02*
G75*
G03X109675000Y-99325000I-75000J0D01*
G01*
X119800000Y-99175000D02*
G75*
G03X119800000Y-99175000I-75000J0D01*
G01*
X147625000Y-99250000D02*
G75*
G03X147625000Y-99250000I-75000J0D01*
G01*
X157650000Y-99250000D02*
G75*
G03X157650000Y-99250000I-75000J0D01*
G01*
X167550000Y-98450000D02*
G75*
G03X167550000Y-98450000I-75000J0D01*
G01*
X177625000Y-98500000D02*
G75*
G03X177625000Y-98500000I-75000J0D01*
G01*
X188125000Y-85525000D02*
G75*
G03X188125000Y-85525000I-75000J0D01*
G01*
X200925000Y-62400000D02*
G75*
G03X200925000Y-62400000I-75000J0D01*
G01*
G04 #@! TO.C,U45*
X173200000Y-99200000D02*
G75*
G03X173200000Y-99200000I-100000J0D01*
G01*
D11*
X181000000Y-101000000D02*
X181000000Y-113000000D01*
D12*
X173500000Y-113000000D02*
X173500000Y-99750000D01*
D13*
G04 #@! TO.C,U4*
X189925000Y-85050000D02*
X188550000Y-85050000D01*
X189925000Y-74925000D02*
X194075000Y-74925000D01*
X189925000Y-85075000D02*
X194075000Y-85075000D01*
X189925000Y-74925000D02*
X189925000Y-75030000D01*
X194075000Y-74925000D02*
X194075000Y-75030000D01*
X194075000Y-85075000D02*
X194075000Y-84970000D01*
X189925000Y-85075000D02*
X189925000Y-85050000D01*
D11*
G04 #@! TO.C,C15*
X177425000Y-42000000D02*
X177425000Y-42700000D01*
X178625000Y-42700000D02*
X178625000Y-42000000D01*
G04 #@! TO.C,C18*
X176300000Y-91375000D02*
X176300000Y-90675000D01*
X175100000Y-90675000D02*
X175100000Y-91375000D01*
G04 #@! TO.C,C31*
X142475000Y-76750000D02*
X143175000Y-76750000D01*
X143175000Y-75550000D02*
X142475000Y-75550000D01*
G04 #@! TO.C,C35*
X207275000Y-82025000D02*
X207975000Y-82025000D01*
X207975000Y-80825000D02*
X207275000Y-80825000D01*
G04 #@! TO.C,C36*
X76225000Y-84025000D02*
X76925000Y-84025000D01*
X76925000Y-82825000D02*
X76225000Y-82825000D01*
G04 #@! TO.C,C38*
X135475000Y-88175000D02*
X135475000Y-88875000D01*
X136675000Y-88875000D02*
X136675000Y-88175000D01*
G04 #@! TO.C,C39*
X141900000Y-79725000D02*
X142600000Y-79725000D01*
X142600000Y-78525000D02*
X141900000Y-78525000D01*
G04 #@! TO.C,R3*
X206150000Y-129820000D02*
X205150000Y-129820000D01*
X205150000Y-131180000D02*
X206150000Y-131180000D01*
D13*
G04 #@! TO.C,U5*
X199075000Y-62925000D02*
X199075000Y-62950000D01*
X194925000Y-62925000D02*
X194925000Y-63030000D01*
X194925000Y-73075000D02*
X194925000Y-72970000D01*
X199075000Y-73075000D02*
X199075000Y-72970000D01*
X199075000Y-62925000D02*
X194925000Y-62925000D01*
X199075000Y-73075000D02*
X194925000Y-73075000D01*
X199075000Y-62950000D02*
X200450000Y-62950000D01*
D10*
G04 #@! TO.C,U46*
X163200000Y-99200000D02*
G75*
G03X163200000Y-99200000I-100000J0D01*
G01*
D11*
X171000000Y-101000000D02*
X171000000Y-113000000D01*
D12*
X163500000Y-113000000D02*
X163500000Y-99750000D01*
G04 #@! TO.C,U47*
X153500000Y-113000000D02*
X153500000Y-99750000D01*
D11*
X161000000Y-101000000D02*
X161000000Y-113000000D01*
D10*
X153200000Y-99200000D02*
G75*
G03X153200000Y-99200000I-100000J0D01*
G01*
G04 #@! TO.C,U48*
X143200000Y-99200000D02*
G75*
G03X143200000Y-99200000I-100000J0D01*
G01*
D11*
X151000000Y-101000000D02*
X151000000Y-113000000D01*
D12*
X143500000Y-113000000D02*
X143500000Y-99750000D01*
G04 #@! TO.C,U49*
X115500000Y-113000000D02*
X115500000Y-99750000D01*
D11*
X123000000Y-101000000D02*
X123000000Y-113000000D01*
D10*
X115200000Y-99200000D02*
G75*
G03X115200000Y-99200000I-100000J0D01*
G01*
G04 #@! TO.C,U50*
X105200000Y-99200000D02*
G75*
G03X105200000Y-99200000I-100000J0D01*
G01*
D11*
X113000000Y-101000000D02*
X113000000Y-113000000D01*
D12*
X105500000Y-113000000D02*
X105500000Y-99750000D01*
G04 #@! TO.C,U51*
X95500000Y-113000000D02*
X95500000Y-99750000D01*
D11*
X103000000Y-101000000D02*
X103000000Y-113000000D01*
D10*
X95200000Y-99200000D02*
G75*
G03X95200000Y-99200000I-100000J0D01*
G01*
G04 #@! TO.C,U52*
X85200000Y-99200000D02*
G75*
G03X85200000Y-99200000I-100000J0D01*
G01*
D11*
X93000000Y-101000000D02*
X93000000Y-113000000D01*
D12*
X85500000Y-113000000D02*
X85500000Y-99750000D01*
G04 #@! TO.C,U45*
D13*
X171452380Y-105761904D02*
X172261904Y-105761904D01*
X172357142Y-105809523D01*
X172404761Y-105857142D01*
X172452380Y-105952380D01*
X172452380Y-106142857D01*
X172404761Y-106238095D01*
X172357142Y-106285714D01*
X172261904Y-106333333D01*
X171452380Y-106333333D01*
X171785714Y-107238095D02*
X172452380Y-107238095D01*
X171404761Y-107000000D02*
X172119047Y-106761904D01*
X172119047Y-107380952D01*
X171452380Y-108238095D02*
X171452380Y-107761904D01*
X171928571Y-107714285D01*
X171880952Y-107761904D01*
X171833333Y-107857142D01*
X171833333Y-108095238D01*
X171880952Y-108190476D01*
X171928571Y-108238095D01*
X172023809Y-108285714D01*
X172261904Y-108285714D01*
X172357142Y-108238095D01*
X172404761Y-108190476D01*
X172452380Y-108095238D01*
X172452380Y-107857142D01*
X172404761Y-107761904D01*
X172357142Y-107714285D01*
G04 #@! TO.C,U4*
X192761904Y-85452380D02*
X192761904Y-86261904D01*
X192714285Y-86357142D01*
X192666666Y-86404761D01*
X192571428Y-86452380D01*
X192380952Y-86452380D01*
X192285714Y-86404761D01*
X192238095Y-86357142D01*
X192190476Y-86261904D01*
X192190476Y-85452380D01*
X191285714Y-85785714D02*
X191285714Y-86452380D01*
X191523809Y-85404761D02*
X191761904Y-86119047D01*
X191142857Y-86119047D01*
G04 #@! TO.C,C15*
X176882142Y-41707142D02*
X176929761Y-41659523D01*
X176977380Y-41516666D01*
X176977380Y-41421428D01*
X176929761Y-41278571D01*
X176834523Y-41183333D01*
X176739285Y-41135714D01*
X176548809Y-41088095D01*
X176405952Y-41088095D01*
X176215476Y-41135714D01*
X176120238Y-41183333D01*
X176025000Y-41278571D01*
X175977380Y-41421428D01*
X175977380Y-41516666D01*
X176025000Y-41659523D01*
X176072619Y-41707142D01*
X176977380Y-42659523D02*
X176977380Y-42088095D01*
X176977380Y-42373809D02*
X175977380Y-42373809D01*
X176120238Y-42278571D01*
X176215476Y-42183333D01*
X176263095Y-42088095D01*
X175977380Y-43564285D02*
X175977380Y-43088095D01*
X176453571Y-43040476D01*
X176405952Y-43088095D01*
X176358333Y-43183333D01*
X176358333Y-43421428D01*
X176405952Y-43516666D01*
X176453571Y-43564285D01*
X176548809Y-43611904D01*
X176786904Y-43611904D01*
X176882142Y-43564285D01*
X176929761Y-43516666D01*
X176977380Y-43421428D01*
X176977380Y-43183333D01*
X176929761Y-43088095D01*
X176882142Y-43040476D01*
G04 #@! TO.C,C18*
X177557142Y-90382142D02*
X177604761Y-90334523D01*
X177652380Y-90191666D01*
X177652380Y-90096428D01*
X177604761Y-89953571D01*
X177509523Y-89858333D01*
X177414285Y-89810714D01*
X177223809Y-89763095D01*
X177080952Y-89763095D01*
X176890476Y-89810714D01*
X176795238Y-89858333D01*
X176700000Y-89953571D01*
X176652380Y-90096428D01*
X176652380Y-90191666D01*
X176700000Y-90334523D01*
X176747619Y-90382142D01*
X177652380Y-91334523D02*
X177652380Y-90763095D01*
X177652380Y-91048809D02*
X176652380Y-91048809D01*
X176795238Y-90953571D01*
X176890476Y-90858333D01*
X176938095Y-90763095D01*
X177080952Y-91905952D02*
X177033333Y-91810714D01*
X176985714Y-91763095D01*
X176890476Y-91715476D01*
X176842857Y-91715476D01*
X176747619Y-91763095D01*
X176700000Y-91810714D01*
X176652380Y-91905952D01*
X176652380Y-92096428D01*
X176700000Y-92191666D01*
X176747619Y-92239285D01*
X176842857Y-92286904D01*
X176890476Y-92286904D01*
X176985714Y-92239285D01*
X177033333Y-92191666D01*
X177080952Y-92096428D01*
X177080952Y-91905952D01*
X177128571Y-91810714D01*
X177176190Y-91763095D01*
X177271428Y-91715476D01*
X177461904Y-91715476D01*
X177557142Y-91763095D01*
X177604761Y-91810714D01*
X177652380Y-91905952D01*
X177652380Y-92096428D01*
X177604761Y-92191666D01*
X177557142Y-92239285D01*
X177461904Y-92286904D01*
X177271428Y-92286904D01*
X177176190Y-92239285D01*
X177128571Y-92191666D01*
X177080952Y-92096428D01*
G04 #@! TO.C,C31*
X146292857Y-76732142D02*
X146340476Y-76779761D01*
X146483333Y-76827380D01*
X146578571Y-76827380D01*
X146721428Y-76779761D01*
X146816666Y-76684523D01*
X146864285Y-76589285D01*
X146911904Y-76398809D01*
X146911904Y-76255952D01*
X146864285Y-76065476D01*
X146816666Y-75970238D01*
X146721428Y-75875000D01*
X146578571Y-75827380D01*
X146483333Y-75827380D01*
X146340476Y-75875000D01*
X146292857Y-75922619D01*
X145959523Y-75827380D02*
X145340476Y-75827380D01*
X145673809Y-76208333D01*
X145530952Y-76208333D01*
X145435714Y-76255952D01*
X145388095Y-76303571D01*
X145340476Y-76398809D01*
X145340476Y-76636904D01*
X145388095Y-76732142D01*
X145435714Y-76779761D01*
X145530952Y-76827380D01*
X145816666Y-76827380D01*
X145911904Y-76779761D01*
X145959523Y-76732142D01*
X144388095Y-76827380D02*
X144959523Y-76827380D01*
X144673809Y-76827380D02*
X144673809Y-75827380D01*
X144769047Y-75970238D01*
X144864285Y-76065476D01*
X144959523Y-76113095D01*
G04 #@! TO.C,C35*
X208342857Y-83457142D02*
X208390476Y-83504761D01*
X208533333Y-83552380D01*
X208628571Y-83552380D01*
X208771428Y-83504761D01*
X208866666Y-83409523D01*
X208914285Y-83314285D01*
X208961904Y-83123809D01*
X208961904Y-82980952D01*
X208914285Y-82790476D01*
X208866666Y-82695238D01*
X208771428Y-82600000D01*
X208628571Y-82552380D01*
X208533333Y-82552380D01*
X208390476Y-82600000D01*
X208342857Y-82647619D01*
X208009523Y-82552380D02*
X207390476Y-82552380D01*
X207723809Y-82933333D01*
X207580952Y-82933333D01*
X207485714Y-82980952D01*
X207438095Y-83028571D01*
X207390476Y-83123809D01*
X207390476Y-83361904D01*
X207438095Y-83457142D01*
X207485714Y-83504761D01*
X207580952Y-83552380D01*
X207866666Y-83552380D01*
X207961904Y-83504761D01*
X208009523Y-83457142D01*
X206485714Y-82552380D02*
X206961904Y-82552380D01*
X207009523Y-83028571D01*
X206961904Y-82980952D01*
X206866666Y-82933333D01*
X206628571Y-82933333D01*
X206533333Y-82980952D01*
X206485714Y-83028571D01*
X206438095Y-83123809D01*
X206438095Y-83361904D01*
X206485714Y-83457142D01*
X206533333Y-83504761D01*
X206628571Y-83552380D01*
X206866666Y-83552380D01*
X206961904Y-83504761D01*
X207009523Y-83457142D01*
G04 #@! TO.C,C36*
X77167857Y-85332142D02*
X77215476Y-85379761D01*
X77358333Y-85427380D01*
X77453571Y-85427380D01*
X77596428Y-85379761D01*
X77691666Y-85284523D01*
X77739285Y-85189285D01*
X77786904Y-84998809D01*
X77786904Y-84855952D01*
X77739285Y-84665476D01*
X77691666Y-84570238D01*
X77596428Y-84475000D01*
X77453571Y-84427380D01*
X77358333Y-84427380D01*
X77215476Y-84475000D01*
X77167857Y-84522619D01*
X76834523Y-84427380D02*
X76215476Y-84427380D01*
X76548809Y-84808333D01*
X76405952Y-84808333D01*
X76310714Y-84855952D01*
X76263095Y-84903571D01*
X76215476Y-84998809D01*
X76215476Y-85236904D01*
X76263095Y-85332142D01*
X76310714Y-85379761D01*
X76405952Y-85427380D01*
X76691666Y-85427380D01*
X76786904Y-85379761D01*
X76834523Y-85332142D01*
X75358333Y-84427380D02*
X75548809Y-84427380D01*
X75644047Y-84475000D01*
X75691666Y-84522619D01*
X75786904Y-84665476D01*
X75834523Y-84855952D01*
X75834523Y-85236904D01*
X75786904Y-85332142D01*
X75739285Y-85379761D01*
X75644047Y-85427380D01*
X75453571Y-85427380D01*
X75358333Y-85379761D01*
X75310714Y-85332142D01*
X75263095Y-85236904D01*
X75263095Y-84998809D01*
X75310714Y-84903571D01*
X75358333Y-84855952D01*
X75453571Y-84808333D01*
X75644047Y-84808333D01*
X75739285Y-84855952D01*
X75786904Y-84903571D01*
X75834523Y-84998809D01*
G04 #@! TO.C,C38*
X136407142Y-84857142D02*
X136454761Y-84809523D01*
X136502380Y-84666666D01*
X136502380Y-84571428D01*
X136454761Y-84428571D01*
X136359523Y-84333333D01*
X136264285Y-84285714D01*
X136073809Y-84238095D01*
X135930952Y-84238095D01*
X135740476Y-84285714D01*
X135645238Y-84333333D01*
X135550000Y-84428571D01*
X135502380Y-84571428D01*
X135502380Y-84666666D01*
X135550000Y-84809523D01*
X135597619Y-84857142D01*
X135502380Y-85190476D02*
X135502380Y-85809523D01*
X135883333Y-85476190D01*
X135883333Y-85619047D01*
X135930952Y-85714285D01*
X135978571Y-85761904D01*
X136073809Y-85809523D01*
X136311904Y-85809523D01*
X136407142Y-85761904D01*
X136454761Y-85714285D01*
X136502380Y-85619047D01*
X136502380Y-85333333D01*
X136454761Y-85238095D01*
X136407142Y-85190476D01*
X135930952Y-86380952D02*
X135883333Y-86285714D01*
X135835714Y-86238095D01*
X135740476Y-86190476D01*
X135692857Y-86190476D01*
X135597619Y-86238095D01*
X135550000Y-86285714D01*
X135502380Y-86380952D01*
X135502380Y-86571428D01*
X135550000Y-86666666D01*
X135597619Y-86714285D01*
X135692857Y-86761904D01*
X135740476Y-86761904D01*
X135835714Y-86714285D01*
X135883333Y-86666666D01*
X135930952Y-86571428D01*
X135930952Y-86380952D01*
X135978571Y-86285714D01*
X136026190Y-86238095D01*
X136121428Y-86190476D01*
X136311904Y-86190476D01*
X136407142Y-86238095D01*
X136454761Y-86285714D01*
X136502380Y-86380952D01*
X136502380Y-86571428D01*
X136454761Y-86666666D01*
X136407142Y-86714285D01*
X136311904Y-86761904D01*
X136121428Y-86761904D01*
X136026190Y-86714285D01*
X135978571Y-86666666D01*
X135930952Y-86571428D01*
G04 #@! TO.C,C39*
X142892857Y-80982142D02*
X142940476Y-81029761D01*
X143083333Y-81077380D01*
X143178571Y-81077380D01*
X143321428Y-81029761D01*
X143416666Y-80934523D01*
X143464285Y-80839285D01*
X143511904Y-80648809D01*
X143511904Y-80505952D01*
X143464285Y-80315476D01*
X143416666Y-80220238D01*
X143321428Y-80125000D01*
X143178571Y-80077380D01*
X143083333Y-80077380D01*
X142940476Y-80125000D01*
X142892857Y-80172619D01*
X142559523Y-80077380D02*
X141940476Y-80077380D01*
X142273809Y-80458333D01*
X142130952Y-80458333D01*
X142035714Y-80505952D01*
X141988095Y-80553571D01*
X141940476Y-80648809D01*
X141940476Y-80886904D01*
X141988095Y-80982142D01*
X142035714Y-81029761D01*
X142130952Y-81077380D01*
X142416666Y-81077380D01*
X142511904Y-81029761D01*
X142559523Y-80982142D01*
X141464285Y-81077380D02*
X141273809Y-81077380D01*
X141178571Y-81029761D01*
X141130952Y-80982142D01*
X141035714Y-80839285D01*
X140988095Y-80648809D01*
X140988095Y-80267857D01*
X141035714Y-80172619D01*
X141083333Y-80125000D01*
X141178571Y-80077380D01*
X141369047Y-80077380D01*
X141464285Y-80125000D01*
X141511904Y-80172619D01*
X141559523Y-80267857D01*
X141559523Y-80505952D01*
X141511904Y-80601190D01*
X141464285Y-80648809D01*
X141369047Y-80696428D01*
X141178571Y-80696428D01*
X141083333Y-80648809D01*
X141035714Y-80601190D01*
X140988095Y-80505952D01*
G04 #@! TO.C,R3*
X205816666Y-129502380D02*
X206150000Y-129026190D01*
X206388095Y-129502380D02*
X206388095Y-128502380D01*
X206007142Y-128502380D01*
X205911904Y-128550000D01*
X205864285Y-128597619D01*
X205816666Y-128692857D01*
X205816666Y-128835714D01*
X205864285Y-128930952D01*
X205911904Y-128978571D01*
X206007142Y-129026190D01*
X206388095Y-129026190D01*
X205483333Y-128502380D02*
X204864285Y-128502380D01*
X205197619Y-128883333D01*
X205054761Y-128883333D01*
X204959523Y-128930952D01*
X204911904Y-128978571D01*
X204864285Y-129073809D01*
X204864285Y-129311904D01*
X204911904Y-129407142D01*
X204959523Y-129454761D01*
X205054761Y-129502380D01*
X205340476Y-129502380D01*
X205435714Y-129454761D01*
X205483333Y-129407142D01*
G04 #@! TO.C,U5*
X197761904Y-61452380D02*
X197761904Y-62261904D01*
X197714285Y-62357142D01*
X197666666Y-62404761D01*
X197571428Y-62452380D01*
X197380952Y-62452380D01*
X197285714Y-62404761D01*
X197238095Y-62357142D01*
X197190476Y-62261904D01*
X197190476Y-61452380D01*
X196238095Y-61452380D02*
X196714285Y-61452380D01*
X196761904Y-61928571D01*
X196714285Y-61880952D01*
X196619047Y-61833333D01*
X196380952Y-61833333D01*
X196285714Y-61880952D01*
X196238095Y-61928571D01*
X196190476Y-62023809D01*
X196190476Y-62261904D01*
X196238095Y-62357142D01*
X196285714Y-62404761D01*
X196380952Y-62452380D01*
X196619047Y-62452380D01*
X196714285Y-62404761D01*
X196761904Y-62357142D01*
G04 #@! TO.C,U46*
X161452380Y-105761904D02*
X162261904Y-105761904D01*
X162357142Y-105809523D01*
X162404761Y-105857142D01*
X162452380Y-105952380D01*
X162452380Y-106142857D01*
X162404761Y-106238095D01*
X162357142Y-106285714D01*
X162261904Y-106333333D01*
X161452380Y-106333333D01*
X161785714Y-107238095D02*
X162452380Y-107238095D01*
X161404761Y-107000000D02*
X162119047Y-106761904D01*
X162119047Y-107380952D01*
X161452380Y-108190476D02*
X161452380Y-108000000D01*
X161500000Y-107904761D01*
X161547619Y-107857142D01*
X161690476Y-107761904D01*
X161880952Y-107714285D01*
X162261904Y-107714285D01*
X162357142Y-107761904D01*
X162404761Y-107809523D01*
X162452380Y-107904761D01*
X162452380Y-108095238D01*
X162404761Y-108190476D01*
X162357142Y-108238095D01*
X162261904Y-108285714D01*
X162023809Y-108285714D01*
X161928571Y-108238095D01*
X161880952Y-108190476D01*
X161833333Y-108095238D01*
X161833333Y-107904761D01*
X161880952Y-107809523D01*
X161928571Y-107761904D01*
X162023809Y-107714285D01*
G04 #@! TO.C,U47*
X151452380Y-105761904D02*
X152261904Y-105761904D01*
X152357142Y-105809523D01*
X152404761Y-105857142D01*
X152452380Y-105952380D01*
X152452380Y-106142857D01*
X152404761Y-106238095D01*
X152357142Y-106285714D01*
X152261904Y-106333333D01*
X151452380Y-106333333D01*
X151785714Y-107238095D02*
X152452380Y-107238095D01*
X151404761Y-107000000D02*
X152119047Y-106761904D01*
X152119047Y-107380952D01*
X151452380Y-107666666D02*
X151452380Y-108333333D01*
X152452380Y-107904761D01*
G04 #@! TO.C,U48*
X141452380Y-105761904D02*
X142261904Y-105761904D01*
X142357142Y-105809523D01*
X142404761Y-105857142D01*
X142452380Y-105952380D01*
X142452380Y-106142857D01*
X142404761Y-106238095D01*
X142357142Y-106285714D01*
X142261904Y-106333333D01*
X141452380Y-106333333D01*
X141785714Y-107238095D02*
X142452380Y-107238095D01*
X141404761Y-107000000D02*
X142119047Y-106761904D01*
X142119047Y-107380952D01*
X141880952Y-107904761D02*
X141833333Y-107809523D01*
X141785714Y-107761904D01*
X141690476Y-107714285D01*
X141642857Y-107714285D01*
X141547619Y-107761904D01*
X141500000Y-107809523D01*
X141452380Y-107904761D01*
X141452380Y-108095238D01*
X141500000Y-108190476D01*
X141547619Y-108238095D01*
X141642857Y-108285714D01*
X141690476Y-108285714D01*
X141785714Y-108238095D01*
X141833333Y-108190476D01*
X141880952Y-108095238D01*
X141880952Y-107904761D01*
X141928571Y-107809523D01*
X141976190Y-107761904D01*
X142071428Y-107714285D01*
X142261904Y-107714285D01*
X142357142Y-107761904D01*
X142404761Y-107809523D01*
X142452380Y-107904761D01*
X142452380Y-108095238D01*
X142404761Y-108190476D01*
X142357142Y-108238095D01*
X142261904Y-108285714D01*
X142071428Y-108285714D01*
X141976190Y-108238095D01*
X141928571Y-108190476D01*
X141880952Y-108095238D01*
G04 #@! TO.C,U49*
X113452380Y-105761904D02*
X114261904Y-105761904D01*
X114357142Y-105809523D01*
X114404761Y-105857142D01*
X114452380Y-105952380D01*
X114452380Y-106142857D01*
X114404761Y-106238095D01*
X114357142Y-106285714D01*
X114261904Y-106333333D01*
X113452380Y-106333333D01*
X113785714Y-107238095D02*
X114452380Y-107238095D01*
X113404761Y-107000000D02*
X114119047Y-106761904D01*
X114119047Y-107380952D01*
X114452380Y-107809523D02*
X114452380Y-108000000D01*
X114404761Y-108095238D01*
X114357142Y-108142857D01*
X114214285Y-108238095D01*
X114023809Y-108285714D01*
X113642857Y-108285714D01*
X113547619Y-108238095D01*
X113500000Y-108190476D01*
X113452380Y-108095238D01*
X113452380Y-107904761D01*
X113500000Y-107809523D01*
X113547619Y-107761904D01*
X113642857Y-107714285D01*
X113880952Y-107714285D01*
X113976190Y-107761904D01*
X114023809Y-107809523D01*
X114071428Y-107904761D01*
X114071428Y-108095238D01*
X114023809Y-108190476D01*
X113976190Y-108238095D01*
X113880952Y-108285714D01*
G04 #@! TO.C,U50*
X103452380Y-105761904D02*
X104261904Y-105761904D01*
X104357142Y-105809523D01*
X104404761Y-105857142D01*
X104452380Y-105952380D01*
X104452380Y-106142857D01*
X104404761Y-106238095D01*
X104357142Y-106285714D01*
X104261904Y-106333333D01*
X103452380Y-106333333D01*
X103452380Y-107285714D02*
X103452380Y-106809523D01*
X103928571Y-106761904D01*
X103880952Y-106809523D01*
X103833333Y-106904761D01*
X103833333Y-107142857D01*
X103880952Y-107238095D01*
X103928571Y-107285714D01*
X104023809Y-107333333D01*
X104261904Y-107333333D01*
X104357142Y-107285714D01*
X104404761Y-107238095D01*
X104452380Y-107142857D01*
X104452380Y-106904761D01*
X104404761Y-106809523D01*
X104357142Y-106761904D01*
X103452380Y-107952380D02*
X103452380Y-108047619D01*
X103500000Y-108142857D01*
X103547619Y-108190476D01*
X103642857Y-108238095D01*
X103833333Y-108285714D01*
X104071428Y-108285714D01*
X104261904Y-108238095D01*
X104357142Y-108190476D01*
X104404761Y-108142857D01*
X104452380Y-108047619D01*
X104452380Y-107952380D01*
X104404761Y-107857142D01*
X104357142Y-107809523D01*
X104261904Y-107761904D01*
X104071428Y-107714285D01*
X103833333Y-107714285D01*
X103642857Y-107761904D01*
X103547619Y-107809523D01*
X103500000Y-107857142D01*
X103452380Y-107952380D01*
G04 #@! TO.C,U51*
X93452380Y-105761904D02*
X94261904Y-105761904D01*
X94357142Y-105809523D01*
X94404761Y-105857142D01*
X94452380Y-105952380D01*
X94452380Y-106142857D01*
X94404761Y-106238095D01*
X94357142Y-106285714D01*
X94261904Y-106333333D01*
X93452380Y-106333333D01*
X93452380Y-107285714D02*
X93452380Y-106809523D01*
X93928571Y-106761904D01*
X93880952Y-106809523D01*
X93833333Y-106904761D01*
X93833333Y-107142857D01*
X93880952Y-107238095D01*
X93928571Y-107285714D01*
X94023809Y-107333333D01*
X94261904Y-107333333D01*
X94357142Y-107285714D01*
X94404761Y-107238095D01*
X94452380Y-107142857D01*
X94452380Y-106904761D01*
X94404761Y-106809523D01*
X94357142Y-106761904D01*
X94452380Y-108285714D02*
X94452380Y-107714285D01*
X94452380Y-108000000D02*
X93452380Y-108000000D01*
X93595238Y-107904761D01*
X93690476Y-107809523D01*
X93738095Y-107714285D01*
G04 #@! TO.C,U52*
X83452380Y-105761904D02*
X84261904Y-105761904D01*
X84357142Y-105809523D01*
X84404761Y-105857142D01*
X84452380Y-105952380D01*
X84452380Y-106142857D01*
X84404761Y-106238095D01*
X84357142Y-106285714D01*
X84261904Y-106333333D01*
X83452380Y-106333333D01*
X83452380Y-107285714D02*
X83452380Y-106809523D01*
X83928571Y-106761904D01*
X83880952Y-106809523D01*
X83833333Y-106904761D01*
X83833333Y-107142857D01*
X83880952Y-107238095D01*
X83928571Y-107285714D01*
X84023809Y-107333333D01*
X84261904Y-107333333D01*
X84357142Y-107285714D01*
X84404761Y-107238095D01*
X84452380Y-107142857D01*
X84452380Y-106904761D01*
X84404761Y-106809523D01*
X84357142Y-106761904D01*
X83547619Y-107714285D02*
X83500000Y-107761904D01*
X83452380Y-107857142D01*
X83452380Y-108095238D01*
X83500000Y-108190476D01*
X83547619Y-108238095D01*
X83642857Y-108285714D01*
X83738095Y-108285714D01*
X83880952Y-108238095D01*
X84452380Y-107666666D01*
X84452380Y-108285714D01*
G04 #@! TD*
M02*
