G04 #@! TF.GenerationSoftware,KiCad,Pcbnew,(5.0.0-rc2-35-gda6600525)*
G04 #@! TF.CreationDate,2018-07-07T16:30:24-07:00*
G04 #@! TF.ProjectId,ht1632c-evaluation,687431363332632D6576616C75617469,rev?*
G04 #@! TF.SameCoordinates,Original*
G04 #@! TF.FileFunction,Copper,L1,Top,Signal*
G04 #@! TF.FilePolarity,Positive*
%FSLAX46Y46*%
G04 Gerber Fmt 4.6, Leading zero omitted, Abs format (unit mm)*
G04 Created by KiCad (PCBNEW (5.0.0-rc2-35-gda6600525)) date 07/07/18 16:30:24*
%MOMM*%
%LPD*%
G01*
G04 APERTURE LIST*
G04 #@! TA.AperFunction,ComponentPad*
%ADD10O,1.200000X2.000000*%
G04 #@! TD*
G04 #@! TA.AperFunction,ComponentPad*
%ADD11C,2.000000*%
G04 #@! TD*
G04 #@! TA.AperFunction,ComponentPad*
%ADD12R,2.000000X2.000000*%
G04 #@! TD*
G04 #@! TA.AperFunction,ViaPad*
%ADD13C,0.800000*%
G04 #@! TD*
G04 #@! TA.AperFunction,ViaPad*
%ADD14C,1.000000*%
G04 #@! TD*
G04 #@! TA.AperFunction,Conductor*
%ADD15C,0.300000*%
G04 #@! TD*
G04 #@! TA.AperFunction,Conductor*
%ADD16C,0.177800*%
G04 #@! TD*
G04 #@! TA.AperFunction,Conductor*
%ADD17C,0.254000*%
G04 #@! TD*
G04 APERTURE END LIST*
D10*
G04 #@! TO.P,U2,24*
G04 #@! TO.N,/ROW23'*
X50000000Y-65800000D03*
G04 #@! TO.P,U2,1*
G04 #@! TO.N,/ROW16'*
X50000000Y-94000000D03*
G04 #@! TO.P,U2,23*
G04 #@! TO.N,/ROW22'*
X52540000Y-65800000D03*
G04 #@! TO.P,U2,2*
G04 #@! TO.N,/ROW17'*
X52540000Y-94000000D03*
G04 #@! TO.P,U2,22*
G04 #@! TO.N,/ROW21'*
X55080000Y-65800000D03*
G04 #@! TO.P,U2,3*
G04 #@! TO.N,/ROW18'*
X55080000Y-94000000D03*
G04 #@! TO.P,U2,21*
G04 #@! TO.N,/ROW20'*
X57620000Y-65800000D03*
G04 #@! TO.P,U2,4*
G04 #@! TO.N,/ROW19'*
X57620000Y-94000000D03*
G04 #@! TO.P,U2,20*
G04 #@! TO.N,/COL0*
X60160000Y-65800000D03*
G04 #@! TO.P,U2,5*
G04 #@! TO.N,Net-(U2-Pad5)*
X60160000Y-94000000D03*
G04 #@! TO.P,U2,19*
G04 #@! TO.N,/COL1*
X62700000Y-65800000D03*
G04 #@! TO.P,U2,6*
G04 #@! TO.N,Net-(U2-Pad6)*
X62700000Y-94000000D03*
G04 #@! TO.P,U2,18*
G04 #@! TO.N,/COL2*
X65240000Y-65800000D03*
G04 #@! TO.P,U2,7*
G04 #@! TO.N,Net-(U2-Pad7)*
X65240000Y-94000000D03*
G04 #@! TO.P,U2,17*
G04 #@! TO.N,/COL3*
X67780000Y-65800000D03*
G04 #@! TO.P,U2,8*
G04 #@! TO.N,Net-(U2-Pad8)*
X67780000Y-94000000D03*
G04 #@! TO.P,U2,16*
G04 #@! TO.N,/COL4*
X70320000Y-65800000D03*
G04 #@! TO.P,U2,9*
G04 #@! TO.N,Net-(U2-Pad9)*
X70320000Y-94000000D03*
G04 #@! TO.P,U2,15*
G04 #@! TO.N,/COL5*
X72860000Y-65800000D03*
G04 #@! TO.P,U2,10*
G04 #@! TO.N,Net-(U2-Pad10)*
X72860000Y-94000000D03*
G04 #@! TO.P,U2,14*
G04 #@! TO.N,/COL6*
X75400000Y-65800000D03*
G04 #@! TO.P,U2,11*
G04 #@! TO.N,Net-(U2-Pad11)*
X75400000Y-94000000D03*
G04 #@! TO.P,U2,13*
G04 #@! TO.N,/COL7*
X77940000Y-65800000D03*
G04 #@! TO.P,U2,12*
G04 #@! TO.N,Net-(U2-Pad12)*
X77940000Y-94000000D03*
G04 #@! TD*
D11*
G04 #@! TO.P,J1,2*
G04 #@! TO.N,GNDREF*
X79040000Y-69000000D03*
D12*
G04 #@! TO.P,J1,1*
G04 #@! TO.N,+5V*
X76500000Y-69000000D03*
G04 #@! TD*
D11*
G04 #@! TO.P,J2,8*
G04 #@! TO.N,/OSC*
X48000000Y-89000000D03*
G04 #@! TO.P,J2,7*
G04 #@! TO.N,/DATA*
X48000000Y-86460000D03*
G04 #@! TO.P,J2,6*
G04 #@! TO.N,/~WR*
X48000000Y-83920000D03*
G04 #@! TO.P,J2,5*
G04 #@! TO.N,/~RD*
X48000000Y-81380000D03*
G04 #@! TO.P,J2,4*
G04 #@! TO.N,/~CS*
X48000000Y-78840000D03*
G04 #@! TO.P,J2,3*
G04 #@! TO.N,/SYNC*
X48000000Y-76300000D03*
G04 #@! TO.P,J2,2*
G04 #@! TO.N,VCC*
X48000000Y-73760000D03*
D12*
G04 #@! TO.P,J2,1*
G04 #@! TO.N,GNDREF*
X48000000Y-71220000D03*
G04 #@! TD*
D10*
G04 #@! TO.P,U1,12*
G04 #@! TO.N,Net-(U1-Pad12)*
X77940000Y-56000000D03*
G04 #@! TO.P,U1,13*
G04 #@! TO.N,/COL7*
X77940000Y-27800000D03*
G04 #@! TO.P,U1,11*
G04 #@! TO.N,Net-(U1-Pad11)*
X75400000Y-56000000D03*
G04 #@! TO.P,U1,14*
G04 #@! TO.N,/COL6*
X75400000Y-27800000D03*
G04 #@! TO.P,U1,10*
G04 #@! TO.N,Net-(U1-Pad10)*
X72860000Y-56000000D03*
G04 #@! TO.P,U1,15*
G04 #@! TO.N,/COL5*
X72860000Y-27800000D03*
G04 #@! TO.P,U1,9*
G04 #@! TO.N,Net-(U1-Pad9)*
X70320000Y-56000000D03*
G04 #@! TO.P,U1,16*
G04 #@! TO.N,/COL4*
X70320000Y-27800000D03*
G04 #@! TO.P,U1,8*
G04 #@! TO.N,Net-(U1-Pad8)*
X67780000Y-56000000D03*
G04 #@! TO.P,U1,17*
G04 #@! TO.N,/COL3*
X67780000Y-27800000D03*
G04 #@! TO.P,U1,7*
G04 #@! TO.N,Net-(U1-Pad7)*
X65240000Y-56000000D03*
G04 #@! TO.P,U1,18*
G04 #@! TO.N,/COL2*
X65240000Y-27800000D03*
G04 #@! TO.P,U1,6*
G04 #@! TO.N,Net-(U1-Pad6)*
X62700000Y-56000000D03*
G04 #@! TO.P,U1,19*
G04 #@! TO.N,/COL1*
X62700000Y-27800000D03*
G04 #@! TO.P,U1,5*
G04 #@! TO.N,Net-(U1-Pad5)*
X60160000Y-56000000D03*
G04 #@! TO.P,U1,20*
G04 #@! TO.N,/COL0*
X60160000Y-27800000D03*
G04 #@! TO.P,U1,4*
G04 #@! TO.N,/ROW27'*
X57620000Y-56000000D03*
G04 #@! TO.P,U1,21*
G04 #@! TO.N,/ROW28'*
X57620000Y-27800000D03*
G04 #@! TO.P,U1,3*
G04 #@! TO.N,/ROW26'*
X55080000Y-56000000D03*
G04 #@! TO.P,U1,22*
G04 #@! TO.N,/ROW29'*
X55080000Y-27800000D03*
G04 #@! TO.P,U1,2*
G04 #@! TO.N,/ROW25'*
X52540000Y-56000000D03*
G04 #@! TO.P,U1,23*
G04 #@! TO.N,/ROW30'*
X52540000Y-27800000D03*
G04 #@! TO.P,U1,1*
G04 #@! TO.N,/ROW24'*
X50000000Y-56000000D03*
G04 #@! TO.P,U1,24*
G04 #@! TO.N,/ROW31'*
X50000000Y-27800000D03*
G04 #@! TD*
G04 #@! TO.P,U3,12*
G04 #@! TO.N,Net-(U3-Pad12)*
X77940000Y-132000000D03*
G04 #@! TO.P,U3,13*
G04 #@! TO.N,/COL7*
X77940000Y-103800000D03*
G04 #@! TO.P,U3,11*
G04 #@! TO.N,Net-(U3-Pad11)*
X75400000Y-132000000D03*
G04 #@! TO.P,U3,14*
G04 #@! TO.N,/COL6*
X75400000Y-103800000D03*
G04 #@! TO.P,U3,10*
G04 #@! TO.N,Net-(U3-Pad10)*
X72860000Y-132000000D03*
G04 #@! TO.P,U3,15*
G04 #@! TO.N,/COL5*
X72860000Y-103800000D03*
G04 #@! TO.P,U3,9*
G04 #@! TO.N,Net-(U3-Pad9)*
X70320000Y-132000000D03*
G04 #@! TO.P,U3,16*
G04 #@! TO.N,/COL4*
X70320000Y-103800000D03*
G04 #@! TO.P,U3,8*
G04 #@! TO.N,Net-(U3-Pad8)*
X67780000Y-132000000D03*
G04 #@! TO.P,U3,17*
G04 #@! TO.N,/COL3*
X67780000Y-103800000D03*
G04 #@! TO.P,U3,7*
G04 #@! TO.N,Net-(U3-Pad7)*
X65240000Y-132000000D03*
G04 #@! TO.P,U3,18*
G04 #@! TO.N,/COL2*
X65240000Y-103800000D03*
G04 #@! TO.P,U3,6*
G04 #@! TO.N,Net-(U3-Pad6)*
X62700000Y-132000000D03*
G04 #@! TO.P,U3,19*
G04 #@! TO.N,/COL1*
X62700000Y-103800000D03*
G04 #@! TO.P,U3,5*
G04 #@! TO.N,Net-(U3-Pad5)*
X60160000Y-132000000D03*
G04 #@! TO.P,U3,20*
G04 #@! TO.N,/COL0*
X60160000Y-103800000D03*
G04 #@! TO.P,U3,4*
G04 #@! TO.N,/ROW11'*
X57620000Y-132000000D03*
G04 #@! TO.P,U3,21*
G04 #@! TO.N,/ROW12'*
X57620000Y-103800000D03*
G04 #@! TO.P,U3,3*
G04 #@! TO.N,/ROW10'*
X55080000Y-132000000D03*
G04 #@! TO.P,U3,22*
G04 #@! TO.N,/ROW13'*
X55080000Y-103800000D03*
G04 #@! TO.P,U3,2*
G04 #@! TO.N,/ROW9'*
X52540000Y-132000000D03*
G04 #@! TO.P,U3,23*
G04 #@! TO.N,/ROW14'*
X52540000Y-103800000D03*
G04 #@! TO.P,U3,1*
G04 #@! TO.N,/ROW8'*
X50000000Y-132000000D03*
G04 #@! TO.P,U3,24*
G04 #@! TO.N,/ROW15'*
X50000000Y-103800000D03*
G04 #@! TD*
G04 #@! TO.P,U4,24*
G04 #@! TO.N,/ROW7'*
X50000000Y-141800000D03*
G04 #@! TO.P,U4,1*
G04 #@! TO.N,/ROW0'*
X50000000Y-170000000D03*
G04 #@! TO.P,U4,23*
G04 #@! TO.N,/ROW6'*
X52540000Y-141800000D03*
G04 #@! TO.P,U4,2*
G04 #@! TO.N,/ROW1'*
X52540000Y-170000000D03*
G04 #@! TO.P,U4,22*
G04 #@! TO.N,/ROW5'*
X55080000Y-141800000D03*
G04 #@! TO.P,U4,3*
G04 #@! TO.N,/ROW2'*
X55080000Y-170000000D03*
G04 #@! TO.P,U4,21*
G04 #@! TO.N,/ROW4'*
X57620000Y-141800000D03*
G04 #@! TO.P,U4,4*
G04 #@! TO.N,/ROW3'*
X57620000Y-170000000D03*
G04 #@! TO.P,U4,20*
G04 #@! TO.N,/COL0*
X60160000Y-141800000D03*
G04 #@! TO.P,U4,5*
G04 #@! TO.N,Net-(U4-Pad5)*
X60160000Y-170000000D03*
G04 #@! TO.P,U4,19*
G04 #@! TO.N,/COL1*
X62700000Y-141800000D03*
G04 #@! TO.P,U4,6*
G04 #@! TO.N,Net-(U4-Pad6)*
X62700000Y-170000000D03*
G04 #@! TO.P,U4,18*
G04 #@! TO.N,/COL2*
X65240000Y-141800000D03*
G04 #@! TO.P,U4,7*
G04 #@! TO.N,Net-(U4-Pad7)*
X65240000Y-170000000D03*
G04 #@! TO.P,U4,17*
G04 #@! TO.N,/COL3*
X67780000Y-141800000D03*
G04 #@! TO.P,U4,8*
G04 #@! TO.N,Net-(U4-Pad8)*
X67780000Y-170000000D03*
G04 #@! TO.P,U4,16*
G04 #@! TO.N,/COL4*
X70320000Y-141800000D03*
G04 #@! TO.P,U4,9*
G04 #@! TO.N,Net-(U4-Pad9)*
X70320000Y-170000000D03*
G04 #@! TO.P,U4,15*
G04 #@! TO.N,/COL5*
X72860000Y-141800000D03*
G04 #@! TO.P,U4,10*
G04 #@! TO.N,Net-(U4-Pad10)*
X72860000Y-170000000D03*
G04 #@! TO.P,U4,14*
G04 #@! TO.N,/COL6*
X75400000Y-141800000D03*
G04 #@! TO.P,U4,11*
G04 #@! TO.N,Net-(U4-Pad11)*
X75400000Y-170000000D03*
G04 #@! TO.P,U4,13*
G04 #@! TO.N,/COL7*
X77940000Y-141800000D03*
G04 #@! TO.P,U4,12*
G04 #@! TO.N,Net-(U4-Pad12)*
X77940000Y-170000000D03*
G04 #@! TD*
D13*
G04 #@! TO.N,GNDREF*
X63200000Y-97100000D03*
X78100000Y-98000000D03*
X75400000Y-97500000D03*
X73000000Y-96300000D03*
X78100000Y-107300000D03*
X62900000Y-110300000D03*
X60100000Y-110200000D03*
X60100000Y-97600000D03*
X69900000Y-113700000D03*
X60100000Y-50600000D03*
X68100000Y-115400000D03*
X68400000Y-120800000D03*
X63600000Y-120900000D03*
X60500000Y-119600000D03*
X56200000Y-115100000D03*
X50000000Y-128800000D03*
X64300000Y-115500000D03*
X68900000Y-111100000D03*
D14*
G04 #@! TO.N,+5V*
X74200000Y-86300000D03*
D13*
G04 #@! TO.N,/ROW29*
X69300000Y-50100000D03*
X68733411Y-71200000D03*
G04 #@! TO.N,/ROW28*
X70300000Y-48900000D03*
X69744633Y-70000000D03*
G04 #@! TO.N,/ROW31*
X66700000Y-71200000D03*
X63800000Y-47970000D03*
G04 #@! TO.N,/ROW30*
X67700000Y-70000000D03*
X64800000Y-48380000D03*
G04 #@! TO.N,/ROW26*
X73206744Y-53237235D03*
X72607283Y-71236563D03*
G04 #@! TO.N,/ROW27*
X70700000Y-71100000D03*
X71555611Y-52800000D03*
G04 #@! TO.N,/ROW25*
X73600000Y-70100000D03*
X74200000Y-54400000D03*
G04 #@! TO.N,/ROW21*
X57500000Y-70985612D03*
X65500000Y-82800000D03*
G04 #@! TO.N,/ROW20*
X56000000Y-73400000D03*
X66699996Y-83500000D03*
G04 #@! TO.N,/ROW23*
X52000000Y-74100000D03*
X63500000Y-83200000D03*
G04 #@! TO.N,/ROW22*
X53300000Y-73500000D03*
X64264261Y-82042650D03*
G04 #@! TO.N,/ROW18*
X57300000Y-86600000D03*
X66595762Y-85030205D03*
G04 #@! TO.N,/ROW19*
X56000000Y-86700000D03*
X65500000Y-84300000D03*
G04 #@! TO.N,/ROW16*
X58937649Y-86592878D03*
X67700000Y-86100000D03*
G04 #@! TO.N,/ROW17*
X58121149Y-87130877D03*
X65400000Y-85800000D03*
G04 #@! TO.N,/ROW13*
X62400000Y-117500000D03*
X55865862Y-111725441D03*
G04 #@! TO.N,/ROW12*
X63400000Y-116400000D03*
X56838763Y-111627562D03*
G04 #@! TO.N,/ROW15*
X52000000Y-112600000D03*
X62400000Y-119700000D03*
G04 #@! TO.N,/ROW14*
X53300000Y-111900000D03*
X63500000Y-118400000D03*
G04 #@! TO.N,/COL0*
X67763253Y-79621468D03*
G04 #@! TO.N,/COL1*
X68082518Y-78697246D03*
G04 #@! TO.N,/COL2*
X69042270Y-78510182D03*
G04 #@! TO.N,/COL3*
X69439975Y-76810696D03*
G04 #@! TO.N,/COL4*
X70395171Y-76601608D03*
G04 #@! TO.N,/COL5*
X70808418Y-78279474D03*
G04 #@! TO.N,/COL6*
X71501971Y-78968749D03*
G04 #@! TO.N,/COL7*
X72172190Y-76292047D03*
G04 #@! TD*
D15*
G04 #@! TO.N,+5V*
X74200000Y-86300000D02*
X79100000Y-81400000D01*
X76500000Y-78800000D02*
X76500000Y-69000000D01*
X79100000Y-81400000D02*
X76500000Y-78800000D01*
D16*
G04 #@! TO.N,/ROW29*
X69002321Y-54097679D02*
X69002321Y-66897679D01*
X68733411Y-70634315D02*
X68733411Y-71200000D01*
X68722312Y-67177688D02*
X68722312Y-70623216D01*
X69429046Y-50794731D02*
X69429046Y-53670954D01*
X69429046Y-53670954D02*
X69002321Y-54097679D01*
X68722312Y-70623216D02*
X68733411Y-70634315D01*
X69300000Y-50100000D02*
X69300000Y-50665685D01*
X69300000Y-50665685D02*
X69429046Y-50794731D01*
X69002321Y-66897679D02*
X68722312Y-67177688D01*
G04 #@! TO.N,/ROW28*
X71186710Y-53417817D02*
X71186710Y-64486710D01*
X71400000Y-67101646D02*
X69744633Y-68757013D01*
X69744633Y-68757013D02*
X69744633Y-70000000D01*
X70888910Y-53120017D02*
X71186710Y-53417817D01*
X71186710Y-64486710D02*
X71400000Y-64700000D01*
X70300000Y-48900000D02*
X70888910Y-49488910D01*
X70888910Y-49488910D02*
X70888910Y-53120017D01*
X71400000Y-64700000D02*
X71400000Y-67101646D01*
G04 #@! TO.N,/ROW31*
X66700000Y-70634315D02*
X66400000Y-70334315D01*
X66700000Y-71200000D02*
X66700000Y-70634315D01*
X66400000Y-70334315D02*
X66400000Y-55300000D01*
X66400000Y-55300000D02*
X63800000Y-52700000D01*
X63800000Y-52700000D02*
X63800000Y-47970000D01*
G04 #@! TO.N,/ROW30*
X66855609Y-55252701D02*
X64549969Y-52947061D01*
X64549969Y-51815230D02*
X64800000Y-51565200D01*
X67700000Y-70000000D02*
X66855609Y-69155609D01*
X66855609Y-69155609D02*
X66855609Y-55252701D01*
X64800000Y-51565200D02*
X64800000Y-48380000D01*
X64549969Y-52947061D02*
X64549969Y-51815230D01*
G04 #@! TO.N,/ROW26*
X72607283Y-67689808D02*
X72607283Y-70670878D01*
X72607283Y-70670878D02*
X72607283Y-71236563D01*
X73744389Y-54931109D02*
X73744389Y-66552702D01*
X73206744Y-54393464D02*
X73744389Y-54931109D01*
X73206744Y-53237235D02*
X73206744Y-54393464D01*
X73744389Y-66552702D02*
X72607283Y-67689808D01*
G04 #@! TO.N,/ROW27*
X70700000Y-68304555D02*
X70700000Y-71100000D01*
X71755611Y-57052702D02*
X71755611Y-67248944D01*
X71555611Y-52800000D02*
X71555611Y-56852702D01*
X71555611Y-56852702D02*
X71755611Y-57052702D01*
X71755611Y-67248944D02*
X70700000Y-68304555D01*
G04 #@! TO.N,/ROW25*
X73600000Y-69534315D02*
X74200000Y-68934315D01*
X73600000Y-70100000D02*
X73600000Y-69534315D01*
X74200000Y-68934315D02*
X74200000Y-54400000D01*
G04 #@! TO.N,/ROW21*
X57500000Y-70985612D02*
X65500000Y-78985612D01*
X65500000Y-78985612D02*
X65500000Y-82234315D01*
X65500000Y-82234315D02*
X65500000Y-82800000D01*
G04 #@! TO.N,/ROW20*
X65213280Y-83500000D02*
X66134311Y-83500000D01*
X66134311Y-83500000D02*
X66699996Y-83500000D01*
X56000000Y-73400000D02*
X56565685Y-73400000D01*
X56565685Y-73400000D02*
X64930963Y-81765278D01*
X64833298Y-82460333D02*
X64833298Y-83120018D01*
X64930963Y-82362668D02*
X64833298Y-82460333D01*
X64930963Y-81765278D02*
X64930963Y-82362668D01*
X64833298Y-83120018D02*
X65213280Y-83500000D01*
G04 #@! TO.N,/ROW23*
X61100000Y-83200000D02*
X62934315Y-83200000D01*
X62934315Y-83200000D02*
X63500000Y-83200000D01*
X52000000Y-74100000D02*
X61100000Y-83200000D01*
G04 #@! TO.N,/ROW22*
X63864262Y-81642651D02*
X64264261Y-82042650D01*
X53300000Y-73500000D02*
X61183421Y-81383421D01*
X61183421Y-81383421D02*
X63605032Y-81383421D01*
X63605032Y-81383421D02*
X63864262Y-81642651D01*
G04 #@! TO.N,/ROW18*
X57300000Y-86600000D02*
X58869795Y-85030205D01*
X66030077Y-85030205D02*
X66595762Y-85030205D01*
X58869795Y-85030205D02*
X66030077Y-85030205D01*
G04 #@! TO.N,/ROW19*
X64934315Y-84300000D02*
X65500000Y-84300000D01*
X58400000Y-84300000D02*
X64934315Y-84300000D01*
X56000000Y-86700000D02*
X58400000Y-84300000D01*
G04 #@! TO.N,/ROW16*
X58937649Y-86592878D02*
X67207122Y-86592878D01*
X67207122Y-86592878D02*
X67300001Y-86499999D01*
X67300001Y-86499999D02*
X67700000Y-86100000D01*
G04 #@! TO.N,/ROW17*
X64834315Y-85800000D02*
X65400000Y-85800000D01*
X58121149Y-87130877D02*
X58121149Y-86378851D01*
X58121149Y-86378851D02*
X58700000Y-85800000D01*
X58700000Y-85800000D02*
X64834315Y-85800000D01*
G04 #@! TO.N,/ROW13*
X61640421Y-117500000D02*
X55865862Y-111725441D01*
X62400000Y-117500000D02*
X61640421Y-117500000D01*
G04 #@! TO.N,/ROW12*
X63400000Y-116400000D02*
X61611201Y-116400000D01*
X61611201Y-116400000D02*
X56838763Y-111627562D01*
G04 #@! TO.N,/ROW15*
X55300000Y-112600000D02*
X62400000Y-119700000D01*
X52000000Y-112600000D02*
X55300000Y-112600000D01*
G04 #@! TO.N,/ROW14*
X53300000Y-111900000D02*
X53865685Y-111900000D01*
X61602908Y-118400000D02*
X63500000Y-118400000D01*
X54210074Y-112244389D02*
X55447298Y-112244389D01*
X53865685Y-111900000D02*
X54210074Y-112244389D01*
X55447298Y-112244389D02*
X61602908Y-118400000D01*
G04 #@! TO.N,/COL0*
X60160000Y-64622200D02*
X58950000Y-63412200D01*
X60160000Y-65800000D02*
X60160000Y-64622200D01*
X60160000Y-28977800D02*
X60160000Y-27800000D01*
X58950000Y-30187800D02*
X60160000Y-28977800D01*
X58950000Y-63412200D02*
X58950000Y-30187800D01*
X60160000Y-65800000D02*
X60160000Y-72018215D01*
X67363254Y-79221469D02*
X67763253Y-79621468D01*
X60160000Y-72018215D02*
X67363254Y-79221469D01*
X68366702Y-86520018D02*
X68366702Y-85779982D01*
X67763253Y-80187153D02*
X67763253Y-79621468D01*
X67763253Y-85176533D02*
X67763253Y-80187153D01*
X68366702Y-85779982D02*
X67763253Y-85176533D01*
X66557679Y-96224521D02*
X66557679Y-91839413D01*
X66557679Y-91839413D02*
X67763253Y-90633839D01*
X60160000Y-102622200D02*
X66557679Y-96224521D01*
X67763253Y-87123467D02*
X68366702Y-86520018D01*
X60160000Y-103800000D02*
X60160000Y-102622200D01*
X67763253Y-90633839D02*
X67763253Y-87123467D01*
X60160000Y-140622200D02*
X60160000Y-141800000D01*
X64528779Y-136253421D02*
X60160000Y-140622200D01*
X63662072Y-133053601D02*
X64528779Y-133920308D01*
X65100000Y-109917800D02*
X65100000Y-129508472D01*
X60160000Y-103800000D02*
X60160000Y-104977800D01*
X65100000Y-129508472D02*
X63662070Y-130946402D01*
X64528779Y-133920308D02*
X64528779Y-136253421D01*
X60160000Y-104977800D02*
X65100000Y-109917800D01*
X63662070Y-130946402D02*
X63662072Y-133053601D01*
G04 #@! TO.N,/COL1*
X62700000Y-45710371D02*
X62700000Y-27800000D01*
X62700000Y-64622200D02*
X61480000Y-63402200D01*
X61177687Y-47232684D02*
X62700000Y-45710371D01*
X62700000Y-65800000D02*
X62700000Y-64622200D01*
X61480000Y-48469629D02*
X61177687Y-48167316D01*
X61480000Y-63402200D02*
X61480000Y-48469629D01*
X61177687Y-48167316D02*
X61177687Y-47232684D01*
X62700000Y-73314728D02*
X67682519Y-78297247D01*
X67682519Y-78297247D02*
X68082518Y-78697246D01*
X62700000Y-65800000D02*
X62700000Y-73314728D01*
X62700000Y-100585109D02*
X66913290Y-96371819D01*
X68482517Y-90417497D02*
X68482517Y-86907111D01*
X68514000Y-86875629D02*
X68722313Y-86667316D01*
X68522313Y-85432684D02*
X68522313Y-79137041D01*
X68522313Y-79137041D02*
X68482517Y-79097245D01*
X68722313Y-86667316D02*
X68722313Y-85632684D01*
X68482517Y-86907111D02*
X68514000Y-86875629D01*
X68482517Y-79097245D02*
X68082518Y-78697246D01*
X66913290Y-96371819D02*
X66913290Y-91986724D01*
X66913290Y-91986724D02*
X68482517Y-90417497D01*
X62700000Y-103800000D02*
X62700000Y-100585109D01*
X68722313Y-85632684D02*
X68522313Y-85432684D01*
X65455611Y-107733411D02*
X65455611Y-129655770D01*
X62700000Y-104977800D02*
X65455611Y-107733411D01*
X64017681Y-131093699D02*
X64017681Y-132906301D01*
X64884390Y-138437810D02*
X62700000Y-140622200D01*
X65455611Y-129655770D02*
X64017681Y-131093699D01*
X64884390Y-133773010D02*
X64884390Y-138437810D01*
X62700000Y-140622200D02*
X62700000Y-141800000D01*
X62700000Y-103800000D02*
X62700000Y-104977800D01*
X64017681Y-132906301D02*
X64884390Y-133773010D01*
G04 #@! TO.N,/COL2*
X63444389Y-52847298D02*
X63444389Y-49931109D01*
X63960000Y-63342200D02*
X63960000Y-53362909D01*
X61533298Y-48020018D02*
X61533298Y-47379982D01*
X63960000Y-53362909D02*
X63444389Y-52847298D01*
X63444389Y-49931109D02*
X61533298Y-48020018D01*
X61533298Y-47379982D02*
X61979982Y-46933298D01*
X61979982Y-46933298D02*
X62579982Y-46933298D01*
X65240000Y-44273280D02*
X65240000Y-27800000D01*
X62579982Y-46933298D02*
X65240000Y-44273280D01*
X65240000Y-64622200D02*
X63960000Y-63342200D01*
X65240000Y-65800000D02*
X65240000Y-64622200D01*
X68642271Y-78110183D02*
X69042270Y-78510182D01*
X65240000Y-74707912D02*
X68642271Y-78110183D01*
X65240000Y-65800000D02*
X65240000Y-74707912D01*
X65240000Y-102622200D02*
X68695529Y-99166671D01*
X68695529Y-99166671D02*
X68695529Y-92829033D01*
X68612217Y-92245754D02*
X68612217Y-90790706D01*
X68612217Y-90790706D02*
X69020869Y-90382054D01*
X69020869Y-86871669D02*
X69077924Y-86814614D01*
X65240000Y-103800000D02*
X65240000Y-102622200D01*
X69077924Y-86814614D02*
X69077924Y-85485386D01*
X69077924Y-85485386D02*
X69020869Y-85428331D01*
X69020869Y-78531583D02*
X69042270Y-78510182D01*
X68695529Y-92829033D02*
X68612217Y-92245754D01*
X69020869Y-90382054D02*
X69020869Y-86871669D01*
X69020869Y-85428331D02*
X69020869Y-78531583D01*
X65240000Y-133625711D02*
X65240000Y-140622200D01*
X65240000Y-104977800D02*
X65811221Y-105549021D01*
X65811221Y-129803069D02*
X64373292Y-131240997D01*
X64373292Y-131240997D02*
X64373292Y-132759003D01*
X64373292Y-132759003D02*
X65240000Y-133625711D01*
X65240000Y-103800000D02*
X65240000Y-104977800D01*
X65811221Y-105549021D02*
X65811221Y-129803069D01*
X65240000Y-140622200D02*
X65240000Y-141800000D01*
G04 #@! TO.N,/COL3*
X67780000Y-65800000D02*
X67780000Y-66200000D01*
X66551237Y-53145524D02*
X65448540Y-53145524D01*
X67780000Y-65800000D02*
X67780000Y-64622200D01*
X67780000Y-49369316D02*
X67780000Y-27800000D01*
X64905580Y-51962528D02*
X65252264Y-51615844D01*
X67780000Y-64622200D02*
X68646710Y-63755490D01*
X65533472Y-51615844D02*
X67780000Y-49369316D01*
X68646710Y-63755490D02*
X68646710Y-55240997D01*
X65448540Y-53145524D02*
X64905580Y-52602564D01*
X68646710Y-55240997D02*
X66551237Y-53145524D01*
X65252264Y-51615844D02*
X65533472Y-51615844D01*
X64905580Y-52602564D02*
X64905580Y-51962528D01*
X67780000Y-65800000D02*
X67780000Y-69093282D01*
X67780000Y-69093282D02*
X68366701Y-69679983D01*
X68366701Y-69679983D02*
X68366701Y-70320017D01*
X67780000Y-75150721D02*
X69039976Y-76410697D01*
X68366701Y-70320017D02*
X67780000Y-70906718D01*
X69039976Y-76410697D02*
X69439975Y-76810696D01*
X67780000Y-70906718D02*
X67780000Y-75150721D01*
X69433535Y-85338088D02*
X69381593Y-85286146D01*
X69381593Y-85286146D02*
X69381593Y-79151302D01*
X69097678Y-101304522D02*
X69097678Y-90808153D01*
X69381593Y-79151302D02*
X69786105Y-78746790D01*
X69786105Y-78746790D02*
X69786105Y-77722511D01*
X69439975Y-77376381D02*
X69439975Y-76810696D01*
X69786105Y-77722511D02*
X69439975Y-77376381D01*
X69433535Y-86961912D02*
X69433535Y-85338088D01*
X69381593Y-87013854D02*
X69433535Y-86961912D01*
X69381593Y-90524238D02*
X69381593Y-87013854D01*
X69097678Y-90808153D02*
X69381593Y-90524238D01*
X67780000Y-102622200D02*
X69097678Y-101304522D01*
X67780000Y-103800000D02*
X67780000Y-102622200D01*
X67780000Y-104977800D02*
X66166830Y-106590970D01*
X67780000Y-140622200D02*
X67780000Y-141800000D01*
X66166830Y-139009030D02*
X67780000Y-140622200D01*
X66166830Y-106590970D02*
X66166830Y-139009030D01*
X67780000Y-103800000D02*
X67780000Y-104977800D01*
G04 #@! TO.N,/COL4*
X69357932Y-54244976D02*
X69966702Y-53636206D01*
X69090000Y-48903280D02*
X69090000Y-30207800D01*
X70320000Y-64622200D02*
X69357932Y-63660132D01*
X69357932Y-63660132D02*
X69357932Y-54244976D01*
X69966702Y-49779982D02*
X69090000Y-48903280D01*
X70320000Y-65800000D02*
X70320000Y-64622200D01*
X69966702Y-53636206D02*
X69966702Y-49779982D01*
X70320000Y-28977800D02*
X70320000Y-27800000D01*
X69090000Y-30207800D02*
X70320000Y-28977800D01*
X70320000Y-67678737D02*
X69077923Y-68920814D01*
X69995172Y-76201609D02*
X70395171Y-76601608D01*
X69411222Y-70666701D02*
X69411222Y-75617659D01*
X69077923Y-68920814D02*
X69077923Y-70333402D01*
X69411222Y-75617659D02*
X69995172Y-76201609D01*
X69077923Y-70333402D02*
X69411222Y-70666701D01*
X70320000Y-65800000D02*
X70320000Y-67678737D01*
X70141716Y-77420748D02*
X70395171Y-77167293D01*
X69453291Y-101755491D02*
X69453291Y-92538842D01*
X70352820Y-91639313D02*
X70352820Y-78810596D01*
X70320000Y-102622200D02*
X69453291Y-101755491D01*
X70320000Y-103800000D02*
X70320000Y-102622200D01*
X70352820Y-78810596D02*
X70141716Y-78599492D01*
X69453291Y-92538842D02*
X70352820Y-91639313D01*
X70141716Y-78599492D02*
X70141716Y-77420748D01*
X70395171Y-77167293D02*
X70395171Y-76601608D01*
X66522438Y-136824638D02*
X70320000Y-140622200D01*
X70320000Y-103800000D02*
X70320000Y-104977800D01*
X70320000Y-104977800D02*
X66522438Y-108775362D01*
X70320000Y-140622200D02*
X70320000Y-141800000D01*
X66522438Y-108775362D02*
X66522438Y-136824638D01*
G04 #@! TO.N,/COL5*
X71911222Y-56705404D02*
X71911222Y-53431107D01*
X72860000Y-65800000D02*
X72860000Y-57654182D01*
X72860000Y-28977800D02*
X72860000Y-27800000D01*
X72222312Y-53120017D02*
X72222312Y-52379983D01*
X72222312Y-52379983D02*
X71911222Y-52068893D01*
X71911222Y-52068893D02*
X71911222Y-48508313D01*
X71911222Y-48508313D02*
X71560000Y-48157091D01*
X71560000Y-30277800D02*
X72860000Y-28977800D01*
X71560000Y-48157091D02*
X71560000Y-30277800D01*
X72860000Y-57654182D02*
X71911222Y-56705404D01*
X71911222Y-53431107D02*
X72222312Y-53120017D01*
X70808418Y-78845159D02*
X70808418Y-78279474D01*
X71186709Y-79749594D02*
X70808418Y-79371303D01*
X72860000Y-98548018D02*
X71186709Y-96874727D01*
X72860000Y-103800000D02*
X72860000Y-98548018D01*
X70808418Y-79371303D02*
X70808418Y-78845159D01*
X71186709Y-96874727D02*
X71186709Y-79749594D01*
X71149877Y-77372330D02*
X70808418Y-77713789D01*
X72860000Y-65800000D02*
X72860000Y-66647464D01*
X71422077Y-71464641D02*
X71149877Y-71736841D01*
X71422077Y-68085387D02*
X71422077Y-71464641D01*
X71149877Y-71736841D02*
X71149877Y-77372330D01*
X70808418Y-77713789D02*
X70808418Y-78279474D01*
X72860000Y-66647464D02*
X71422077Y-68085387D01*
X71186709Y-106651091D02*
X71186709Y-138948909D01*
X72860000Y-103800000D02*
X72860000Y-104977800D01*
X72860000Y-104977800D02*
X71186709Y-106651091D01*
X72860000Y-140622200D02*
X72860000Y-141800000D01*
X71186709Y-138948909D02*
X72860000Y-140622200D01*
G04 #@! TO.N,/COL6*
X75400000Y-31014891D02*
X75400000Y-27800000D01*
X73930000Y-52904287D02*
X73930000Y-32484891D01*
X76266710Y-56759003D02*
X76266710Y-55240997D01*
X75400000Y-57625713D02*
X76266710Y-56759003D01*
X76266710Y-55240997D02*
X73930000Y-52904287D01*
X75400000Y-65800000D02*
X75400000Y-57625713D01*
X73930000Y-32484891D02*
X75400000Y-31014891D01*
X71542320Y-79574783D02*
X71501971Y-79534434D01*
X71542320Y-96727429D02*
X71542320Y-79574783D01*
X75400000Y-103800000D02*
X75400000Y-100585109D01*
X71501971Y-79534434D02*
X71501971Y-78968749D01*
X75400000Y-100585109D02*
X71542320Y-96727429D01*
X75400000Y-66977800D02*
X74555611Y-67822189D01*
X73366701Y-71320017D02*
X73366701Y-71420017D01*
X71505488Y-73281230D02*
X71505488Y-78399547D01*
X74555611Y-70131107D02*
X73366701Y-71320017D01*
X71501971Y-78403064D02*
X71501971Y-78968749D01*
X73366701Y-71420017D02*
X71505488Y-73281230D01*
X74555611Y-67822189D02*
X74555611Y-70131107D01*
X75400000Y-65800000D02*
X75400000Y-66977800D01*
X71505488Y-78399547D02*
X71501971Y-78403064D01*
X71542319Y-136764519D02*
X75400000Y-140622200D01*
X74622200Y-103800000D02*
X71542319Y-106879881D01*
X75400000Y-103800000D02*
X74622200Y-103800000D01*
X75400000Y-140622200D02*
X75400000Y-141800000D01*
X71542319Y-106879881D02*
X71542319Y-136764519D01*
G04 #@! TO.N,/COL7*
X77940000Y-65800000D02*
X77940000Y-60234182D01*
X74285611Y-32632189D02*
X77940000Y-28977800D01*
X77940000Y-28977800D02*
X77940000Y-27800000D01*
X74285611Y-52756989D02*
X74285611Y-32632189D01*
X76622321Y-55093699D02*
X74285611Y-52756989D01*
X76622321Y-58916503D02*
X76622321Y-55093699D01*
X77940000Y-60234182D02*
X76622321Y-58916503D01*
X72172190Y-79477822D02*
X72172190Y-76857732D01*
X72172190Y-76857732D02*
X72172190Y-76292047D01*
X77940000Y-65800000D02*
X77162200Y-65800000D01*
X77162200Y-65800000D02*
X74911222Y-68050978D01*
X77940000Y-102622200D02*
X71897930Y-96580130D01*
X74911222Y-68050978D02*
X74911222Y-73553015D01*
X71897930Y-79752082D02*
X72172190Y-79477822D01*
X71897930Y-96580130D02*
X71897930Y-79752082D01*
X77940000Y-103800000D02*
X77940000Y-102622200D01*
X72572189Y-75892048D02*
X72172190Y-76292047D01*
X74911222Y-73553015D02*
X72572189Y-75892048D01*
X71897928Y-134580128D02*
X77940000Y-140622200D01*
X71897928Y-107704980D02*
X71897928Y-134580128D01*
X76266710Y-104559003D02*
X75759003Y-105066710D01*
X77940000Y-140622200D02*
X77940000Y-141800000D01*
X77940000Y-103800000D02*
X76266710Y-103800000D01*
X75759003Y-105066710D02*
X75040997Y-105066710D01*
X74788598Y-104814310D02*
X71897928Y-107704980D01*
X76266710Y-103800000D02*
X76266710Y-104559003D01*
X75040997Y-105066710D02*
X74788598Y-104814310D01*
G04 #@! TD*
D17*
G04 #@! TO.N,GNDREF*
G36*
X81998000Y-173998000D02*
X46002000Y-173998000D01*
X46002000Y-169498851D01*
X48973000Y-169498851D01*
X48973000Y-170501150D01*
X49032588Y-170800715D01*
X49259575Y-171140426D01*
X49599286Y-171367413D01*
X50000000Y-171447120D01*
X50400715Y-171367413D01*
X50740426Y-171140426D01*
X50967413Y-170800715D01*
X51027000Y-170501149D01*
X51027000Y-169498851D01*
X51513000Y-169498851D01*
X51513000Y-170501150D01*
X51572588Y-170800715D01*
X51799575Y-171140426D01*
X52139286Y-171367413D01*
X52540000Y-171447120D01*
X52940715Y-171367413D01*
X53280426Y-171140426D01*
X53507413Y-170800715D01*
X53567000Y-170501149D01*
X53567000Y-169498851D01*
X54053000Y-169498851D01*
X54053000Y-170501150D01*
X54112588Y-170800715D01*
X54339575Y-171140426D01*
X54679286Y-171367413D01*
X55080000Y-171447120D01*
X55480715Y-171367413D01*
X55820426Y-171140426D01*
X56047413Y-170800715D01*
X56107000Y-170501149D01*
X56107000Y-169498851D01*
X56593000Y-169498851D01*
X56593000Y-170501150D01*
X56652588Y-170800715D01*
X56879575Y-171140426D01*
X57219286Y-171367413D01*
X57620000Y-171447120D01*
X58020715Y-171367413D01*
X58360426Y-171140426D01*
X58587413Y-170800715D01*
X58647000Y-170501149D01*
X58647000Y-169498851D01*
X59133000Y-169498851D01*
X59133000Y-170501150D01*
X59192588Y-170800715D01*
X59419575Y-171140426D01*
X59759286Y-171367413D01*
X60160000Y-171447120D01*
X60560715Y-171367413D01*
X60900426Y-171140426D01*
X61127413Y-170800715D01*
X61187000Y-170501149D01*
X61187000Y-169498851D01*
X61673000Y-169498851D01*
X61673000Y-170501150D01*
X61732588Y-170800715D01*
X61959575Y-171140426D01*
X62299286Y-171367413D01*
X62700000Y-171447120D01*
X63100715Y-171367413D01*
X63440426Y-171140426D01*
X63667413Y-170800715D01*
X63727000Y-170501149D01*
X63727000Y-169498851D01*
X64213000Y-169498851D01*
X64213000Y-170501150D01*
X64272588Y-170800715D01*
X64499575Y-171140426D01*
X64839286Y-171367413D01*
X65240000Y-171447120D01*
X65640715Y-171367413D01*
X65980426Y-171140426D01*
X66207413Y-170800715D01*
X66267000Y-170501149D01*
X66267000Y-169498851D01*
X66753000Y-169498851D01*
X66753000Y-170501150D01*
X66812588Y-170800715D01*
X67039575Y-171140426D01*
X67379286Y-171367413D01*
X67780000Y-171447120D01*
X68180715Y-171367413D01*
X68520426Y-171140426D01*
X68747413Y-170800715D01*
X68807000Y-170501149D01*
X68807000Y-169498851D01*
X69293000Y-169498851D01*
X69293000Y-170501150D01*
X69352588Y-170800715D01*
X69579575Y-171140426D01*
X69919286Y-171367413D01*
X70320000Y-171447120D01*
X70720715Y-171367413D01*
X71060426Y-171140426D01*
X71287413Y-170800715D01*
X71347000Y-170501149D01*
X71347000Y-169498851D01*
X71833000Y-169498851D01*
X71833000Y-170501150D01*
X71892588Y-170800715D01*
X72119575Y-171140426D01*
X72459286Y-171367413D01*
X72860000Y-171447120D01*
X73260715Y-171367413D01*
X73600426Y-171140426D01*
X73827413Y-170800715D01*
X73887000Y-170501149D01*
X73887000Y-169498851D01*
X74373000Y-169498851D01*
X74373000Y-170501150D01*
X74432588Y-170800715D01*
X74659575Y-171140426D01*
X74999286Y-171367413D01*
X75400000Y-171447120D01*
X75800715Y-171367413D01*
X76140426Y-171140426D01*
X76367413Y-170800715D01*
X76427000Y-170501149D01*
X76427000Y-169498851D01*
X76913000Y-169498851D01*
X76913000Y-170501150D01*
X76972588Y-170800715D01*
X77199575Y-171140426D01*
X77539286Y-171367413D01*
X77940000Y-171447120D01*
X78340715Y-171367413D01*
X78680426Y-171140426D01*
X78907413Y-170800715D01*
X78967000Y-170501149D01*
X78967000Y-169498850D01*
X78907413Y-169199285D01*
X78680426Y-168859574D01*
X78340714Y-168632587D01*
X77940000Y-168552880D01*
X77539285Y-168632587D01*
X77199574Y-168859574D01*
X76972587Y-169199286D01*
X76913000Y-169498851D01*
X76427000Y-169498851D01*
X76427000Y-169498850D01*
X76367413Y-169199285D01*
X76140426Y-168859574D01*
X75800714Y-168632587D01*
X75400000Y-168552880D01*
X74999285Y-168632587D01*
X74659574Y-168859574D01*
X74432587Y-169199286D01*
X74373000Y-169498851D01*
X73887000Y-169498851D01*
X73887000Y-169498850D01*
X73827413Y-169199285D01*
X73600426Y-168859574D01*
X73260714Y-168632587D01*
X72860000Y-168552880D01*
X72459285Y-168632587D01*
X72119574Y-168859574D01*
X71892587Y-169199286D01*
X71833000Y-169498851D01*
X71347000Y-169498851D01*
X71347000Y-169498850D01*
X71287413Y-169199285D01*
X71060426Y-168859574D01*
X70720714Y-168632587D01*
X70320000Y-168552880D01*
X69919285Y-168632587D01*
X69579574Y-168859574D01*
X69352587Y-169199286D01*
X69293000Y-169498851D01*
X68807000Y-169498851D01*
X68807000Y-169498850D01*
X68747413Y-169199285D01*
X68520426Y-168859574D01*
X68180714Y-168632587D01*
X67780000Y-168552880D01*
X67379285Y-168632587D01*
X67039574Y-168859574D01*
X66812587Y-169199286D01*
X66753000Y-169498851D01*
X66267000Y-169498851D01*
X66267000Y-169498850D01*
X66207413Y-169199285D01*
X65980426Y-168859574D01*
X65640714Y-168632587D01*
X65240000Y-168552880D01*
X64839285Y-168632587D01*
X64499574Y-168859574D01*
X64272587Y-169199286D01*
X64213000Y-169498851D01*
X63727000Y-169498851D01*
X63727000Y-169498850D01*
X63667413Y-169199285D01*
X63440426Y-168859574D01*
X63100714Y-168632587D01*
X62700000Y-168552880D01*
X62299285Y-168632587D01*
X61959574Y-168859574D01*
X61732587Y-169199286D01*
X61673000Y-169498851D01*
X61187000Y-169498851D01*
X61187000Y-169498850D01*
X61127413Y-169199285D01*
X60900426Y-168859574D01*
X60560714Y-168632587D01*
X60160000Y-168552880D01*
X59759285Y-168632587D01*
X59419574Y-168859574D01*
X59192587Y-169199286D01*
X59133000Y-169498851D01*
X58647000Y-169498851D01*
X58647000Y-169498850D01*
X58587413Y-169199285D01*
X58360426Y-168859574D01*
X58020714Y-168632587D01*
X57620000Y-168552880D01*
X57219285Y-168632587D01*
X56879574Y-168859574D01*
X56652587Y-169199286D01*
X56593000Y-169498851D01*
X56107000Y-169498851D01*
X56107000Y-169498850D01*
X56047413Y-169199285D01*
X55820426Y-168859574D01*
X55480714Y-168632587D01*
X55080000Y-168552880D01*
X54679285Y-168632587D01*
X54339574Y-168859574D01*
X54112587Y-169199286D01*
X54053000Y-169498851D01*
X53567000Y-169498851D01*
X53567000Y-169498850D01*
X53507413Y-169199285D01*
X53280426Y-168859574D01*
X52940714Y-168632587D01*
X52540000Y-168552880D01*
X52139285Y-168632587D01*
X51799574Y-168859574D01*
X51572587Y-169199286D01*
X51513000Y-169498851D01*
X51027000Y-169498851D01*
X51027000Y-169498850D01*
X50967413Y-169199285D01*
X50740426Y-168859574D01*
X50400714Y-168632587D01*
X50000000Y-168552880D01*
X49599285Y-168632587D01*
X49259574Y-168859574D01*
X49032587Y-169199286D01*
X48973000Y-169498851D01*
X46002000Y-169498851D01*
X46002000Y-156596805D01*
X47973000Y-156596805D01*
X47973000Y-157403195D01*
X48281593Y-158148203D01*
X48851797Y-158718407D01*
X49596805Y-159027000D01*
X50403195Y-159027000D01*
X51148203Y-158718407D01*
X51718407Y-158148203D01*
X52027000Y-157403195D01*
X52027000Y-156596805D01*
X75973000Y-156596805D01*
X75973000Y-157403195D01*
X76281593Y-158148203D01*
X76851797Y-158718407D01*
X77596805Y-159027000D01*
X78403195Y-159027000D01*
X79148203Y-158718407D01*
X79718407Y-158148203D01*
X80027000Y-157403195D01*
X80027000Y-156596805D01*
X79718407Y-155851797D01*
X79148203Y-155281593D01*
X78403195Y-154973000D01*
X77596805Y-154973000D01*
X76851797Y-155281593D01*
X76281593Y-155851797D01*
X75973000Y-156596805D01*
X52027000Y-156596805D01*
X51718407Y-155851797D01*
X51148203Y-155281593D01*
X50403195Y-154973000D01*
X49596805Y-154973000D01*
X48851797Y-155281593D01*
X48281593Y-155851797D01*
X47973000Y-156596805D01*
X46002000Y-156596805D01*
X46002000Y-141298851D01*
X48973000Y-141298851D01*
X48973000Y-142301150D01*
X49032588Y-142600715D01*
X49259575Y-142940426D01*
X49599286Y-143167413D01*
X50000000Y-143247120D01*
X50400715Y-143167413D01*
X50740426Y-142940426D01*
X50967413Y-142600715D01*
X51027000Y-142301149D01*
X51027000Y-141298851D01*
X51513000Y-141298851D01*
X51513000Y-142301150D01*
X51572588Y-142600715D01*
X51799575Y-142940426D01*
X52139286Y-143167413D01*
X52540000Y-143247120D01*
X52940715Y-143167413D01*
X53280426Y-142940426D01*
X53507413Y-142600715D01*
X53567000Y-142301149D01*
X53567000Y-141298851D01*
X54053000Y-141298851D01*
X54053000Y-142301150D01*
X54112588Y-142600715D01*
X54339575Y-142940426D01*
X54679286Y-143167413D01*
X55080000Y-143247120D01*
X55480715Y-143167413D01*
X55820426Y-142940426D01*
X56047413Y-142600715D01*
X56107000Y-142301149D01*
X56107000Y-141298851D01*
X56593000Y-141298851D01*
X56593000Y-142301150D01*
X56652588Y-142600715D01*
X56879575Y-142940426D01*
X57219286Y-143167413D01*
X57620000Y-143247120D01*
X58020715Y-143167413D01*
X58360426Y-142940426D01*
X58587413Y-142600715D01*
X58647000Y-142301149D01*
X58647000Y-141298850D01*
X58587413Y-140999285D01*
X58360426Y-140659574D01*
X58020714Y-140432587D01*
X57620000Y-140352880D01*
X57219285Y-140432587D01*
X56879574Y-140659574D01*
X56652587Y-140999286D01*
X56593000Y-141298851D01*
X56107000Y-141298851D01*
X56107000Y-141298850D01*
X56047413Y-140999285D01*
X55820426Y-140659574D01*
X55480714Y-140432587D01*
X55080000Y-140352880D01*
X54679285Y-140432587D01*
X54339574Y-140659574D01*
X54112587Y-140999286D01*
X54053000Y-141298851D01*
X53567000Y-141298851D01*
X53567000Y-141298850D01*
X53507413Y-140999285D01*
X53280426Y-140659574D01*
X52940714Y-140432587D01*
X52540000Y-140352880D01*
X52139285Y-140432587D01*
X51799574Y-140659574D01*
X51572587Y-140999286D01*
X51513000Y-141298851D01*
X51027000Y-141298851D01*
X51027000Y-141298850D01*
X50967413Y-140999285D01*
X50740426Y-140659574D01*
X50400714Y-140432587D01*
X50000000Y-140352880D01*
X49599285Y-140432587D01*
X49259574Y-140659574D01*
X49032587Y-140999286D01*
X48973000Y-141298851D01*
X46002000Y-141298851D01*
X46002000Y-131498851D01*
X48973000Y-131498851D01*
X48973000Y-132501150D01*
X49032588Y-132800715D01*
X49259575Y-133140426D01*
X49599286Y-133367413D01*
X50000000Y-133447120D01*
X50400715Y-133367413D01*
X50740426Y-133140426D01*
X50967413Y-132800715D01*
X51027000Y-132501149D01*
X51027000Y-131498851D01*
X51513000Y-131498851D01*
X51513000Y-132501150D01*
X51572588Y-132800715D01*
X51799575Y-133140426D01*
X52139286Y-133367413D01*
X52540000Y-133447120D01*
X52940715Y-133367413D01*
X53280426Y-133140426D01*
X53507413Y-132800715D01*
X53567000Y-132501149D01*
X53567000Y-131498851D01*
X54053000Y-131498851D01*
X54053000Y-132501150D01*
X54112588Y-132800715D01*
X54339575Y-133140426D01*
X54679286Y-133367413D01*
X55080000Y-133447120D01*
X55480715Y-133367413D01*
X55820426Y-133140426D01*
X56047413Y-132800715D01*
X56107000Y-132501149D01*
X56107000Y-131498851D01*
X56593000Y-131498851D01*
X56593000Y-132501150D01*
X56652588Y-132800715D01*
X56879575Y-133140426D01*
X57219286Y-133367413D01*
X57620000Y-133447120D01*
X58020715Y-133367413D01*
X58360426Y-133140426D01*
X58587413Y-132800715D01*
X58647000Y-132501149D01*
X58647000Y-131498851D01*
X59133000Y-131498851D01*
X59133000Y-132501150D01*
X59192588Y-132800715D01*
X59419575Y-133140426D01*
X59759286Y-133367413D01*
X60160000Y-133447120D01*
X60560715Y-133367413D01*
X60900426Y-133140426D01*
X61127413Y-132800715D01*
X61187000Y-132501149D01*
X61187000Y-131498850D01*
X61127413Y-131199285D01*
X60900426Y-130859574D01*
X60560714Y-130632587D01*
X60160000Y-130552880D01*
X59759285Y-130632587D01*
X59419574Y-130859574D01*
X59192587Y-131199286D01*
X59133000Y-131498851D01*
X58647000Y-131498851D01*
X58647000Y-131498850D01*
X58587413Y-131199285D01*
X58360426Y-130859574D01*
X58020714Y-130632587D01*
X57620000Y-130552880D01*
X57219285Y-130632587D01*
X56879574Y-130859574D01*
X56652587Y-131199286D01*
X56593000Y-131498851D01*
X56107000Y-131498851D01*
X56107000Y-131498850D01*
X56047413Y-131199285D01*
X55820426Y-130859574D01*
X55480714Y-130632587D01*
X55080000Y-130552880D01*
X54679285Y-130632587D01*
X54339574Y-130859574D01*
X54112587Y-131199286D01*
X54053000Y-131498851D01*
X53567000Y-131498851D01*
X53567000Y-131498850D01*
X53507413Y-131199285D01*
X53280426Y-130859574D01*
X52940714Y-130632587D01*
X52540000Y-130552880D01*
X52139285Y-130632587D01*
X51799574Y-130859574D01*
X51572587Y-131199286D01*
X51513000Y-131498851D01*
X51027000Y-131498851D01*
X51027000Y-131498850D01*
X50967413Y-131199285D01*
X50740426Y-130859574D01*
X50400714Y-130632587D01*
X50000000Y-130552880D01*
X49599285Y-130632587D01*
X49259574Y-130859574D01*
X49032587Y-131199286D01*
X48973000Y-131498851D01*
X46002000Y-131498851D01*
X46002000Y-112435499D01*
X51173000Y-112435499D01*
X51173000Y-112764501D01*
X51298903Y-113068458D01*
X51531542Y-113301097D01*
X51835499Y-113427000D01*
X52164501Y-113427000D01*
X52468458Y-113301097D01*
X52653655Y-113115900D01*
X55086308Y-113115900D01*
X61573000Y-119602592D01*
X61573000Y-119864501D01*
X61698903Y-120168458D01*
X61931542Y-120401097D01*
X62235499Y-120527000D01*
X62564501Y-120527000D01*
X62868458Y-120401097D01*
X63101097Y-120168458D01*
X63227000Y-119864501D01*
X63227000Y-119535499D01*
X63101097Y-119231542D01*
X62868458Y-118998903D01*
X62668071Y-118915900D01*
X62846345Y-118915900D01*
X63031542Y-119101097D01*
X63335499Y-119227000D01*
X63664501Y-119227000D01*
X63968458Y-119101097D01*
X64201097Y-118868458D01*
X64327000Y-118564501D01*
X64327000Y-118235499D01*
X64201097Y-117931542D01*
X63968458Y-117698903D01*
X63664501Y-117573000D01*
X63335499Y-117573000D01*
X63227000Y-117617942D01*
X63227000Y-117335499D01*
X63170990Y-117200280D01*
X63235499Y-117227000D01*
X63564501Y-117227000D01*
X63868458Y-117101097D01*
X64101097Y-116868458D01*
X64227000Y-116564501D01*
X64227000Y-116235499D01*
X64101097Y-115931542D01*
X63868458Y-115698903D01*
X63564501Y-115573000D01*
X63235499Y-115573000D01*
X62931542Y-115698903D01*
X62746345Y-115884100D01*
X61824894Y-115884100D01*
X57665763Y-111724970D01*
X57665763Y-111463061D01*
X57539860Y-111159104D01*
X57307221Y-110926465D01*
X57003264Y-110800562D01*
X56674262Y-110800562D01*
X56370305Y-110926465D01*
X56290554Y-111006216D01*
X56030363Y-110898441D01*
X55701361Y-110898441D01*
X55397404Y-111024344D01*
X55164765Y-111256983D01*
X55038862Y-111560940D01*
X55038862Y-111728489D01*
X54423767Y-111728489D01*
X54266411Y-111571134D01*
X54237628Y-111528057D01*
X54066979Y-111414033D01*
X53962882Y-111393327D01*
X53768458Y-111198903D01*
X53464501Y-111073000D01*
X53135499Y-111073000D01*
X52831542Y-111198903D01*
X52598903Y-111431542D01*
X52473000Y-111735499D01*
X52473000Y-111903445D01*
X52468458Y-111898903D01*
X52164501Y-111773000D01*
X51835499Y-111773000D01*
X51531542Y-111898903D01*
X51298903Y-112131542D01*
X51173000Y-112435499D01*
X46002000Y-112435499D01*
X46002000Y-103298851D01*
X48973000Y-103298851D01*
X48973000Y-104301150D01*
X49032588Y-104600715D01*
X49259575Y-104940426D01*
X49599286Y-105167413D01*
X50000000Y-105247120D01*
X50400715Y-105167413D01*
X50740426Y-104940426D01*
X50967413Y-104600715D01*
X51027000Y-104301149D01*
X51027000Y-103298851D01*
X51513000Y-103298851D01*
X51513000Y-104301150D01*
X51572588Y-104600715D01*
X51799575Y-104940426D01*
X52139286Y-105167413D01*
X52540000Y-105247120D01*
X52940715Y-105167413D01*
X53280426Y-104940426D01*
X53507413Y-104600715D01*
X53567000Y-104301149D01*
X53567000Y-103298851D01*
X54053000Y-103298851D01*
X54053000Y-104301150D01*
X54112588Y-104600715D01*
X54339575Y-104940426D01*
X54679286Y-105167413D01*
X55080000Y-105247120D01*
X55480715Y-105167413D01*
X55820426Y-104940426D01*
X56047413Y-104600715D01*
X56107000Y-104301149D01*
X56107000Y-103298851D01*
X56593000Y-103298851D01*
X56593000Y-104301150D01*
X56652588Y-104600715D01*
X56879575Y-104940426D01*
X57219286Y-105167413D01*
X57620000Y-105247120D01*
X58020715Y-105167413D01*
X58360426Y-104940426D01*
X58587413Y-104600715D01*
X58647000Y-104301149D01*
X58647000Y-103298850D01*
X58587413Y-102999285D01*
X58360426Y-102659574D01*
X58020714Y-102432587D01*
X57620000Y-102352880D01*
X57219285Y-102432587D01*
X56879574Y-102659574D01*
X56652587Y-102999286D01*
X56593000Y-103298851D01*
X56107000Y-103298851D01*
X56107000Y-103298850D01*
X56047413Y-102999285D01*
X55820426Y-102659574D01*
X55480714Y-102432587D01*
X55080000Y-102352880D01*
X54679285Y-102432587D01*
X54339574Y-102659574D01*
X54112587Y-102999286D01*
X54053000Y-103298851D01*
X53567000Y-103298851D01*
X53567000Y-103298850D01*
X53507413Y-102999285D01*
X53280426Y-102659574D01*
X52940714Y-102432587D01*
X52540000Y-102352880D01*
X52139285Y-102432587D01*
X51799574Y-102659574D01*
X51572587Y-102999286D01*
X51513000Y-103298851D01*
X51027000Y-103298851D01*
X51027000Y-103298850D01*
X50967413Y-102999285D01*
X50740426Y-102659574D01*
X50400714Y-102432587D01*
X50000000Y-102352880D01*
X49599285Y-102432587D01*
X49259574Y-102659574D01*
X49032587Y-102999286D01*
X48973000Y-103298851D01*
X46002000Y-103298851D01*
X46002000Y-93498851D01*
X48973000Y-93498851D01*
X48973000Y-94501150D01*
X49032588Y-94800715D01*
X49259575Y-95140426D01*
X49599286Y-95367413D01*
X50000000Y-95447120D01*
X50400715Y-95367413D01*
X50740426Y-95140426D01*
X50967413Y-94800715D01*
X51027000Y-94501149D01*
X51027000Y-93498851D01*
X51513000Y-93498851D01*
X51513000Y-94501150D01*
X51572588Y-94800715D01*
X51799575Y-95140426D01*
X52139286Y-95367413D01*
X52540000Y-95447120D01*
X52940715Y-95367413D01*
X53280426Y-95140426D01*
X53507413Y-94800715D01*
X53567000Y-94501149D01*
X53567000Y-93498851D01*
X54053000Y-93498851D01*
X54053000Y-94501150D01*
X54112588Y-94800715D01*
X54339575Y-95140426D01*
X54679286Y-95367413D01*
X55080000Y-95447120D01*
X55480715Y-95367413D01*
X55820426Y-95140426D01*
X56047413Y-94800715D01*
X56107000Y-94501149D01*
X56107000Y-93498851D01*
X56593000Y-93498851D01*
X56593000Y-94501150D01*
X56652588Y-94800715D01*
X56879575Y-95140426D01*
X57219286Y-95367413D01*
X57620000Y-95447120D01*
X58020715Y-95367413D01*
X58360426Y-95140426D01*
X58587413Y-94800715D01*
X58647000Y-94501149D01*
X58647000Y-93498851D01*
X59133000Y-93498851D01*
X59133000Y-94501150D01*
X59192588Y-94800715D01*
X59419575Y-95140426D01*
X59759286Y-95367413D01*
X60160000Y-95447120D01*
X60560715Y-95367413D01*
X60900426Y-95140426D01*
X61127413Y-94800715D01*
X61187000Y-94501149D01*
X61187000Y-93498851D01*
X61673000Y-93498851D01*
X61673000Y-94501150D01*
X61732588Y-94800715D01*
X61959575Y-95140426D01*
X62299286Y-95367413D01*
X62700000Y-95447120D01*
X63100715Y-95367413D01*
X63440426Y-95140426D01*
X63667413Y-94800715D01*
X63727000Y-94501149D01*
X63727000Y-93498850D01*
X63667413Y-93199285D01*
X63440426Y-92859574D01*
X63100714Y-92632587D01*
X62700000Y-92552880D01*
X62299285Y-92632587D01*
X61959574Y-92859574D01*
X61732587Y-93199286D01*
X61673000Y-93498851D01*
X61187000Y-93498851D01*
X61187000Y-93498850D01*
X61127413Y-93199285D01*
X60900426Y-92859574D01*
X60560714Y-92632587D01*
X60160000Y-92552880D01*
X59759285Y-92632587D01*
X59419574Y-92859574D01*
X59192587Y-93199286D01*
X59133000Y-93498851D01*
X58647000Y-93498851D01*
X58647000Y-93498850D01*
X58587413Y-93199285D01*
X58360426Y-92859574D01*
X58020714Y-92632587D01*
X57620000Y-92552880D01*
X57219285Y-92632587D01*
X56879574Y-92859574D01*
X56652587Y-93199286D01*
X56593000Y-93498851D01*
X56107000Y-93498851D01*
X56107000Y-93498850D01*
X56047413Y-93199285D01*
X55820426Y-92859574D01*
X55480714Y-92632587D01*
X55080000Y-92552880D01*
X54679285Y-92632587D01*
X54339574Y-92859574D01*
X54112587Y-93199286D01*
X54053000Y-93498851D01*
X53567000Y-93498851D01*
X53567000Y-93498850D01*
X53507413Y-93199285D01*
X53280426Y-92859574D01*
X52940714Y-92632587D01*
X52540000Y-92552880D01*
X52139285Y-92632587D01*
X51799574Y-92859574D01*
X51572587Y-93199286D01*
X51513000Y-93498851D01*
X51027000Y-93498851D01*
X51027000Y-93498850D01*
X50967413Y-93199285D01*
X50740426Y-92859574D01*
X50400714Y-92632587D01*
X50000000Y-92552880D01*
X49599285Y-92632587D01*
X49259574Y-92859574D01*
X49032587Y-93199286D01*
X48973000Y-93498851D01*
X46002000Y-93498851D01*
X46002000Y-71453750D01*
X46573000Y-71453750D01*
X46573000Y-72304936D01*
X46638007Y-72461876D01*
X46758124Y-72581993D01*
X46915065Y-72647000D01*
X47094916Y-72647000D01*
X46790247Y-72951669D01*
X46573000Y-73476152D01*
X46573000Y-74043848D01*
X46790247Y-74568331D01*
X47191669Y-74969753D01*
X47337119Y-75030000D01*
X47191669Y-75090247D01*
X46790247Y-75491669D01*
X46573000Y-76016152D01*
X46573000Y-76583848D01*
X46790247Y-77108331D01*
X47191669Y-77509753D01*
X47337119Y-77570000D01*
X47191669Y-77630247D01*
X46790247Y-78031669D01*
X46573000Y-78556152D01*
X46573000Y-79123848D01*
X46790247Y-79648331D01*
X47191669Y-80049753D01*
X47337119Y-80110000D01*
X47191669Y-80170247D01*
X46790247Y-80571669D01*
X46573000Y-81096152D01*
X46573000Y-81663848D01*
X46790247Y-82188331D01*
X47191669Y-82589753D01*
X47337119Y-82650000D01*
X47191669Y-82710247D01*
X46790247Y-83111669D01*
X46573000Y-83636152D01*
X46573000Y-84203848D01*
X46790247Y-84728331D01*
X47191669Y-85129753D01*
X47337119Y-85190000D01*
X47191669Y-85250247D01*
X46790247Y-85651669D01*
X46573000Y-86176152D01*
X46573000Y-86743848D01*
X46790247Y-87268331D01*
X47191669Y-87669753D01*
X47337119Y-87730000D01*
X47191669Y-87790247D01*
X46790247Y-88191669D01*
X46573000Y-88716152D01*
X46573000Y-89283848D01*
X46790247Y-89808331D01*
X47191669Y-90209753D01*
X47716152Y-90427000D01*
X48283848Y-90427000D01*
X48808331Y-90209753D01*
X49209753Y-89808331D01*
X49427000Y-89283848D01*
X49427000Y-88716152D01*
X49209753Y-88191669D01*
X48808331Y-87790247D01*
X48662881Y-87730000D01*
X48808331Y-87669753D01*
X49209753Y-87268331D01*
X49427000Y-86743848D01*
X49427000Y-86176152D01*
X49209753Y-85651669D01*
X48808331Y-85250247D01*
X48662881Y-85190000D01*
X48808331Y-85129753D01*
X49209753Y-84728331D01*
X49427000Y-84203848D01*
X49427000Y-83636152D01*
X49209753Y-83111669D01*
X48808331Y-82710247D01*
X48662881Y-82650000D01*
X48808331Y-82589753D01*
X49209753Y-82188331D01*
X49427000Y-81663848D01*
X49427000Y-81096152D01*
X49209753Y-80571669D01*
X48808331Y-80170247D01*
X48662881Y-80110000D01*
X48808331Y-80049753D01*
X49209753Y-79648331D01*
X49427000Y-79123848D01*
X49427000Y-78556152D01*
X49209753Y-78031669D01*
X48808331Y-77630247D01*
X48662881Y-77570000D01*
X48808331Y-77509753D01*
X49209753Y-77108331D01*
X49427000Y-76583848D01*
X49427000Y-76016152D01*
X49209753Y-75491669D01*
X48808331Y-75090247D01*
X48662881Y-75030000D01*
X48808331Y-74969753D01*
X49209753Y-74568331D01*
X49427000Y-74043848D01*
X49427000Y-73935499D01*
X51173000Y-73935499D01*
X51173000Y-74264501D01*
X51298903Y-74568458D01*
X51531542Y-74801097D01*
X51835499Y-74927000D01*
X52097408Y-74927000D01*
X60699274Y-83528866D01*
X60728057Y-83571943D01*
X60898706Y-83685967D01*
X61049189Y-83715900D01*
X61049193Y-83715900D01*
X61099999Y-83726006D01*
X61150805Y-83715900D01*
X62846345Y-83715900D01*
X62914545Y-83784100D01*
X58450811Y-83784100D01*
X58400000Y-83773993D01*
X58198706Y-83814033D01*
X58112038Y-83871943D01*
X58028057Y-83928057D01*
X57999276Y-83971131D01*
X56097408Y-85873000D01*
X55835499Y-85873000D01*
X55531542Y-85998903D01*
X55298903Y-86231542D01*
X55173000Y-86535499D01*
X55173000Y-86864501D01*
X55298903Y-87168458D01*
X55531542Y-87401097D01*
X55835499Y-87527000D01*
X56164501Y-87527000D01*
X56468458Y-87401097D01*
X56700000Y-87169555D01*
X56831542Y-87301097D01*
X57135499Y-87427000D01*
X57348669Y-87427000D01*
X57420052Y-87599335D01*
X57652691Y-87831974D01*
X57956648Y-87957877D01*
X58285650Y-87957877D01*
X58589607Y-87831974D01*
X58822246Y-87599335D01*
X58896579Y-87419878D01*
X59102150Y-87419878D01*
X59406107Y-87293975D01*
X59591304Y-87108778D01*
X67156316Y-87108778D01*
X67207122Y-87118884D01*
X67239437Y-87112456D01*
X67237247Y-87123467D01*
X67247354Y-87174278D01*
X67247353Y-90420146D01*
X66228811Y-91438689D01*
X66185737Y-91467470D01*
X66156956Y-91510544D01*
X66156954Y-91510546D01*
X66071713Y-91638119D01*
X66031673Y-91839413D01*
X66041780Y-91890224D01*
X66041780Y-92951397D01*
X65980426Y-92859574D01*
X65640714Y-92632587D01*
X65240000Y-92552880D01*
X64839285Y-92632587D01*
X64499574Y-92859574D01*
X64272587Y-93199286D01*
X64213000Y-93498851D01*
X64213000Y-94501150D01*
X64272588Y-94800715D01*
X64499575Y-95140426D01*
X64839286Y-95367413D01*
X65240000Y-95447120D01*
X65640715Y-95367413D01*
X65980426Y-95140426D01*
X66041779Y-95048604D01*
X66041779Y-96010829D01*
X59831132Y-102221476D01*
X59788058Y-102250257D01*
X59759277Y-102293331D01*
X59759275Y-102293333D01*
X59674034Y-102420906D01*
X59658287Y-102500072D01*
X59419574Y-102659574D01*
X59192587Y-102999286D01*
X59133000Y-103298851D01*
X59133000Y-104301150D01*
X59192588Y-104600715D01*
X59419575Y-104940426D01*
X59658287Y-105099928D01*
X59674034Y-105179094D01*
X59759275Y-105306667D01*
X59759276Y-105306668D01*
X59788058Y-105349743D01*
X59831132Y-105378524D01*
X64584100Y-110131493D01*
X64584101Y-129294778D01*
X63333201Y-130545679D01*
X63290127Y-130574460D01*
X63204812Y-130702143D01*
X63100714Y-130632587D01*
X62700000Y-130552880D01*
X62299285Y-130632587D01*
X61959574Y-130859574D01*
X61732587Y-131199286D01*
X61673000Y-131498851D01*
X61673000Y-132501150D01*
X61732588Y-132800715D01*
X61959575Y-133140426D01*
X62299286Y-133367413D01*
X62700000Y-133447120D01*
X63100715Y-133367413D01*
X63204812Y-133297858D01*
X63261347Y-133382468D01*
X63261349Y-133382470D01*
X63290130Y-133425544D01*
X63333204Y-133454325D01*
X64012879Y-134134001D01*
X64012880Y-136039727D01*
X59831134Y-140221474D01*
X59788057Y-140250257D01*
X59674033Y-140420907D01*
X59658286Y-140500072D01*
X59419574Y-140659574D01*
X59192587Y-140999286D01*
X59133000Y-141298851D01*
X59133000Y-142301150D01*
X59192588Y-142600715D01*
X59419575Y-142940426D01*
X59759286Y-143167413D01*
X60160000Y-143247120D01*
X60560715Y-143167413D01*
X60900426Y-142940426D01*
X61127413Y-142600715D01*
X61187000Y-142301149D01*
X61187000Y-141298850D01*
X61127413Y-140999285D01*
X60900426Y-140659574D01*
X60871527Y-140640265D01*
X64368491Y-137143302D01*
X64368491Y-138224116D01*
X62371134Y-140221474D01*
X62328057Y-140250257D01*
X62214033Y-140420907D01*
X62198286Y-140500072D01*
X61959574Y-140659574D01*
X61732587Y-140999286D01*
X61673000Y-141298851D01*
X61673000Y-142301150D01*
X61732588Y-142600715D01*
X61959575Y-142940426D01*
X62299286Y-143167413D01*
X62700000Y-143247120D01*
X63100715Y-143167413D01*
X63440426Y-142940426D01*
X63667413Y-142600715D01*
X63727000Y-142301149D01*
X63727000Y-141298850D01*
X63667413Y-140999285D01*
X63440426Y-140659574D01*
X63411527Y-140640265D01*
X64724101Y-139327692D01*
X64724101Y-140509550D01*
X64499574Y-140659574D01*
X64272587Y-140999286D01*
X64213000Y-141298851D01*
X64213000Y-142301150D01*
X64272588Y-142600715D01*
X64499575Y-142940426D01*
X64839286Y-143167413D01*
X65240000Y-143247120D01*
X65640715Y-143167413D01*
X65980426Y-142940426D01*
X66207413Y-142600715D01*
X66267000Y-142301149D01*
X66267000Y-141298850D01*
X66207413Y-140999285D01*
X65980426Y-140659574D01*
X65755900Y-140509551D01*
X65755900Y-139322624D01*
X65766105Y-139337897D01*
X65766107Y-139337899D01*
X65794888Y-139380973D01*
X65837962Y-139409754D01*
X67068472Y-140640265D01*
X67039574Y-140659574D01*
X66812587Y-140999286D01*
X66753000Y-141298851D01*
X66753000Y-142301150D01*
X66812588Y-142600715D01*
X67039575Y-142940426D01*
X67379286Y-143167413D01*
X67780000Y-143247120D01*
X68180715Y-143167413D01*
X68520426Y-142940426D01*
X68747413Y-142600715D01*
X68807000Y-142301149D01*
X68807000Y-141298850D01*
X68747413Y-140999285D01*
X68520426Y-140659574D01*
X68281714Y-140500073D01*
X68265967Y-140420906D01*
X68213696Y-140342677D01*
X68180725Y-140293332D01*
X68180724Y-140293331D01*
X68151943Y-140250257D01*
X68108869Y-140221476D01*
X66682730Y-138795338D01*
X66682730Y-137714522D01*
X69608472Y-140640265D01*
X69579574Y-140659574D01*
X69352587Y-140999286D01*
X69293000Y-141298851D01*
X69293000Y-142301150D01*
X69352588Y-142600715D01*
X69579575Y-142940426D01*
X69919286Y-143167413D01*
X70320000Y-143247120D01*
X70720715Y-143167413D01*
X71060426Y-142940426D01*
X71287413Y-142600715D01*
X71347000Y-142301149D01*
X71347000Y-141298850D01*
X71287413Y-140999285D01*
X71060426Y-140659574D01*
X70821714Y-140500073D01*
X70805967Y-140420906D01*
X70720725Y-140293332D01*
X70720724Y-140293331D01*
X70691943Y-140250257D01*
X70648869Y-140221476D01*
X67038338Y-136610946D01*
X67038338Y-133138575D01*
X67039575Y-133140426D01*
X67379286Y-133367413D01*
X67780000Y-133447120D01*
X68180715Y-133367413D01*
X68520426Y-133140426D01*
X68747413Y-132800715D01*
X68807000Y-132501149D01*
X68807000Y-131498850D01*
X68747413Y-131199285D01*
X68520426Y-130859574D01*
X68180714Y-130632587D01*
X67780000Y-130552880D01*
X67379285Y-130632587D01*
X67039574Y-130859574D01*
X67038338Y-130861424D01*
X67038338Y-108989054D01*
X70648869Y-105378524D01*
X70691943Y-105349743D01*
X70720726Y-105306667D01*
X70805967Y-105179094D01*
X70821714Y-105099928D01*
X71060426Y-104940426D01*
X71287413Y-104600715D01*
X71347000Y-104301149D01*
X71347000Y-103298850D01*
X71287413Y-102999285D01*
X71060426Y-102659574D01*
X70821714Y-102500073D01*
X70805967Y-102420906D01*
X70720725Y-102293332D01*
X70720724Y-102293331D01*
X70691943Y-102250257D01*
X70648868Y-102221475D01*
X69969191Y-101541799D01*
X69969191Y-95377340D01*
X70320000Y-95447120D01*
X70670809Y-95377340D01*
X70670809Y-96823921D01*
X70660703Y-96874727D01*
X70670809Y-96925533D01*
X70670809Y-96925537D01*
X70700742Y-97076020D01*
X70814766Y-97246670D01*
X70857843Y-97275453D01*
X72344101Y-98761712D01*
X72344100Y-102509551D01*
X72119574Y-102659574D01*
X71892587Y-102999286D01*
X71833000Y-103298851D01*
X71833000Y-104301150D01*
X71892588Y-104600715D01*
X72119575Y-104940426D01*
X72148473Y-104959735D01*
X70857843Y-106250365D01*
X70814766Y-106279148D01*
X70700742Y-106449798D01*
X70670809Y-106600281D01*
X70670809Y-106600285D01*
X70660703Y-106651091D01*
X70670809Y-106701897D01*
X70670810Y-130622660D01*
X70320000Y-130552880D01*
X69919285Y-130632587D01*
X69579574Y-130859574D01*
X69352587Y-131199286D01*
X69293000Y-131498851D01*
X69293000Y-132501150D01*
X69352588Y-132800715D01*
X69579575Y-133140426D01*
X69919286Y-133367413D01*
X70320000Y-133447120D01*
X70670810Y-133377340D01*
X70670810Y-138898098D01*
X70660703Y-138948909D01*
X70700743Y-139150203D01*
X70785984Y-139277776D01*
X70785986Y-139277778D01*
X70814767Y-139320852D01*
X70857841Y-139349633D01*
X72148472Y-140640265D01*
X72119574Y-140659574D01*
X71892587Y-140999286D01*
X71833000Y-141298851D01*
X71833000Y-142301150D01*
X71892588Y-142600715D01*
X72119575Y-142940426D01*
X72459286Y-143167413D01*
X72860000Y-143247120D01*
X73260715Y-143167413D01*
X73600426Y-142940426D01*
X73827413Y-142600715D01*
X73887000Y-142301149D01*
X73887000Y-141298850D01*
X73827413Y-140999285D01*
X73600426Y-140659574D01*
X73361714Y-140500073D01*
X73345967Y-140420906D01*
X73345967Y-140420905D01*
X73260725Y-140293332D01*
X73260724Y-140293331D01*
X73231943Y-140250257D01*
X73188869Y-140221476D01*
X71702609Y-138735217D01*
X71702609Y-137654401D01*
X74688472Y-140640265D01*
X74659574Y-140659574D01*
X74432587Y-140999286D01*
X74373000Y-141298851D01*
X74373000Y-142301150D01*
X74432588Y-142600715D01*
X74659575Y-142940426D01*
X74999286Y-143167413D01*
X75400000Y-143247120D01*
X75800715Y-143167413D01*
X76140426Y-142940426D01*
X76367413Y-142600715D01*
X76427000Y-142301149D01*
X76427000Y-141298850D01*
X76367413Y-140999285D01*
X76140426Y-140659574D01*
X75901714Y-140500073D01*
X75885967Y-140420906D01*
X75885967Y-140420905D01*
X75800725Y-140293332D01*
X75800724Y-140293331D01*
X75771943Y-140250257D01*
X75728869Y-140221476D01*
X72058219Y-136550827D01*
X72058219Y-135470011D01*
X77228472Y-140640265D01*
X77199574Y-140659574D01*
X76972587Y-140999286D01*
X76913000Y-141298851D01*
X76913000Y-142301150D01*
X76972588Y-142600715D01*
X77199575Y-142940426D01*
X77539286Y-143167413D01*
X77940000Y-143247120D01*
X78340715Y-143167413D01*
X78680426Y-142940426D01*
X78907413Y-142600715D01*
X78967000Y-142301149D01*
X78967000Y-141298850D01*
X78907413Y-140999285D01*
X78680426Y-140659574D01*
X78441714Y-140500073D01*
X78425967Y-140420906D01*
X78373696Y-140342677D01*
X78340725Y-140293332D01*
X78340724Y-140293331D01*
X78311943Y-140250257D01*
X78268869Y-140221476D01*
X72413828Y-134366436D01*
X72413828Y-133337039D01*
X72459286Y-133367413D01*
X72860000Y-133447120D01*
X73260715Y-133367413D01*
X73600426Y-133140426D01*
X73827413Y-132800715D01*
X73887000Y-132501149D01*
X73887000Y-131498851D01*
X74373000Y-131498851D01*
X74373000Y-132501150D01*
X74432588Y-132800715D01*
X74659575Y-133140426D01*
X74999286Y-133367413D01*
X75400000Y-133447120D01*
X75800715Y-133367413D01*
X76140426Y-133140426D01*
X76367413Y-132800715D01*
X76427000Y-132501149D01*
X76427000Y-131498851D01*
X76913000Y-131498851D01*
X76913000Y-132501150D01*
X76972588Y-132800715D01*
X77199575Y-133140426D01*
X77539286Y-133367413D01*
X77940000Y-133447120D01*
X78340715Y-133367413D01*
X78680426Y-133140426D01*
X78907413Y-132800715D01*
X78967000Y-132501149D01*
X78967000Y-131498850D01*
X78907413Y-131199285D01*
X78680426Y-130859574D01*
X78340714Y-130632587D01*
X77940000Y-130552880D01*
X77539285Y-130632587D01*
X77199574Y-130859574D01*
X76972587Y-131199286D01*
X76913000Y-131498851D01*
X76427000Y-131498851D01*
X76427000Y-131498850D01*
X76367413Y-131199285D01*
X76140426Y-130859574D01*
X75800714Y-130632587D01*
X75400000Y-130552880D01*
X74999285Y-130632587D01*
X74659574Y-130859574D01*
X74432587Y-131199286D01*
X74373000Y-131498851D01*
X73887000Y-131498851D01*
X73887000Y-131498850D01*
X73827413Y-131199285D01*
X73600426Y-130859574D01*
X73260714Y-130632587D01*
X72860000Y-130552880D01*
X72459285Y-130632587D01*
X72413828Y-130662960D01*
X72413828Y-107918672D01*
X74803808Y-105528693D01*
X74839701Y-105552676D01*
X74839702Y-105552676D01*
X74839703Y-105552677D01*
X74990186Y-105582610D01*
X74990190Y-105582610D01*
X75040996Y-105592716D01*
X75091803Y-105582610D01*
X75708197Y-105582610D01*
X75759003Y-105592716D01*
X75809809Y-105582610D01*
X75809814Y-105582610D01*
X75960297Y-105552677D01*
X76130946Y-105438653D01*
X76159729Y-105395576D01*
X76595578Y-104959728D01*
X76638653Y-104930946D01*
X76752677Y-104760297D01*
X76782610Y-104609814D01*
X76782610Y-104609810D01*
X76792716Y-104559004D01*
X76782610Y-104508198D01*
X76782610Y-104315900D01*
X76915934Y-104315900D01*
X76972588Y-104600715D01*
X77199575Y-104940426D01*
X77539286Y-105167413D01*
X77940000Y-105247120D01*
X78340715Y-105167413D01*
X78680426Y-104940426D01*
X78907413Y-104600715D01*
X78967000Y-104301149D01*
X78967000Y-103298850D01*
X78907413Y-102999285D01*
X78680426Y-102659574D01*
X78441714Y-102500073D01*
X78425967Y-102420906D01*
X78311943Y-102250257D01*
X78268866Y-102221474D01*
X72413830Y-96366438D01*
X72413830Y-95337040D01*
X72459286Y-95367413D01*
X72860000Y-95447120D01*
X73260715Y-95367413D01*
X73600426Y-95140426D01*
X73827413Y-94800715D01*
X73887000Y-94501149D01*
X73887000Y-93498851D01*
X74373000Y-93498851D01*
X74373000Y-94501150D01*
X74432588Y-94800715D01*
X74659575Y-95140426D01*
X74999286Y-95367413D01*
X75400000Y-95447120D01*
X75800715Y-95367413D01*
X76140426Y-95140426D01*
X76367413Y-94800715D01*
X76427000Y-94501149D01*
X76427000Y-93498851D01*
X76913000Y-93498851D01*
X76913000Y-94501150D01*
X76972588Y-94800715D01*
X77199575Y-95140426D01*
X77539286Y-95367413D01*
X77940000Y-95447120D01*
X78340715Y-95367413D01*
X78680426Y-95140426D01*
X78907413Y-94800715D01*
X78967000Y-94501149D01*
X78967000Y-93498850D01*
X78907413Y-93199285D01*
X78680426Y-92859574D01*
X78340714Y-92632587D01*
X77940000Y-92552880D01*
X77539285Y-92632587D01*
X77199574Y-92859574D01*
X76972587Y-93199286D01*
X76913000Y-93498851D01*
X76427000Y-93498851D01*
X76427000Y-93498850D01*
X76367413Y-93199285D01*
X76140426Y-92859574D01*
X75800714Y-92632587D01*
X75400000Y-92552880D01*
X74999285Y-92632587D01*
X74659574Y-92859574D01*
X74432587Y-93199286D01*
X74373000Y-93498851D01*
X73887000Y-93498851D01*
X73887000Y-93498850D01*
X73827413Y-93199285D01*
X73600426Y-92859574D01*
X73260714Y-92632587D01*
X72860000Y-92552880D01*
X72459285Y-92632587D01*
X72413830Y-92662959D01*
X72413830Y-79965774D01*
X72501056Y-79878548D01*
X72544133Y-79849765D01*
X72658157Y-79679116D01*
X72688090Y-79528633D01*
X72688090Y-79528629D01*
X72698196Y-79477823D01*
X72688090Y-79427017D01*
X72688090Y-76945702D01*
X72873287Y-76760505D01*
X72999190Y-76456548D01*
X72999190Y-76194639D01*
X75240091Y-73953739D01*
X75283165Y-73924958D01*
X75397189Y-73754309D01*
X75427122Y-73603826D01*
X75427122Y-73603822D01*
X75437228Y-73553016D01*
X75427122Y-73502210D01*
X75427122Y-70420869D01*
X75500000Y-70435365D01*
X75923001Y-70435365D01*
X75923000Y-78743172D01*
X75911696Y-78800000D01*
X75923000Y-78856828D01*
X75956478Y-79025133D01*
X76084006Y-79215994D01*
X76132188Y-79248188D01*
X78283999Y-81400000D01*
X74311000Y-85373000D01*
X74015608Y-85373000D01*
X73674897Y-85514127D01*
X73414127Y-85774897D01*
X73273000Y-86115608D01*
X73273000Y-86484392D01*
X73414127Y-86825103D01*
X73674897Y-87085873D01*
X74015608Y-87227000D01*
X74384392Y-87227000D01*
X74725103Y-87085873D01*
X74985873Y-86825103D01*
X75127000Y-86484392D01*
X75127000Y-86189000D01*
X79467819Y-81848182D01*
X79515993Y-81815993D01*
X79548182Y-81767819D01*
X79548184Y-81767817D01*
X79643521Y-81625135D01*
X79688304Y-81400001D01*
X79664297Y-81279311D01*
X79643521Y-81174865D01*
X79548184Y-81032183D01*
X79548181Y-81032180D01*
X79515993Y-80984007D01*
X79467820Y-80951819D01*
X77077000Y-78561000D01*
X77077000Y-70435365D01*
X77500000Y-70435365D01*
X77666607Y-70402225D01*
X77807850Y-70307850D01*
X77902225Y-70166607D01*
X77927629Y-70038890D01*
X78180715Y-70038890D01*
X78290807Y-70247241D01*
X78825134Y-70439005D01*
X79392173Y-70411692D01*
X79789193Y-70247241D01*
X79899285Y-70038890D01*
X79040000Y-69179605D01*
X78180715Y-70038890D01*
X77927629Y-70038890D01*
X77935365Y-70000000D01*
X77935365Y-69824546D01*
X78001110Y-69859285D01*
X78860395Y-69000000D01*
X79219605Y-69000000D01*
X80078890Y-69859285D01*
X80287241Y-69749193D01*
X80479005Y-69214866D01*
X80451692Y-68647827D01*
X80287241Y-68250807D01*
X80078890Y-68140715D01*
X79219605Y-69000000D01*
X78860395Y-69000000D01*
X78001110Y-68140715D01*
X77935365Y-68175454D01*
X77935365Y-68000000D01*
X77927630Y-67961110D01*
X78180715Y-67961110D01*
X79040000Y-68820395D01*
X79899285Y-67961110D01*
X79789193Y-67752759D01*
X79254866Y-67560995D01*
X78687827Y-67588308D01*
X78290807Y-67752759D01*
X78180715Y-67961110D01*
X77927630Y-67961110D01*
X77902225Y-67833393D01*
X77807850Y-67692150D01*
X77666607Y-67597775D01*
X77500000Y-67564635D01*
X76127157Y-67564635D01*
X77020048Y-66671745D01*
X77199575Y-66940426D01*
X77539286Y-67167413D01*
X77940000Y-67247120D01*
X78340715Y-67167413D01*
X78680426Y-66940426D01*
X78907413Y-66600715D01*
X78967000Y-66301149D01*
X78967000Y-65298850D01*
X78907413Y-64999285D01*
X78680426Y-64659574D01*
X78455900Y-64509551D01*
X78455900Y-60284993D01*
X78466007Y-60234182D01*
X78425967Y-60032888D01*
X78340725Y-59905314D01*
X78340724Y-59905313D01*
X78311943Y-59862239D01*
X78268868Y-59833458D01*
X77138221Y-58702811D01*
X77138221Y-57048603D01*
X77199575Y-57140426D01*
X77539286Y-57367413D01*
X77940000Y-57447120D01*
X78340715Y-57367413D01*
X78680426Y-57140426D01*
X78907413Y-56800715D01*
X78967000Y-56501149D01*
X78967000Y-55498850D01*
X78907413Y-55199285D01*
X78680426Y-54859574D01*
X78340714Y-54632587D01*
X77940000Y-54552880D01*
X77539285Y-54632587D01*
X77199574Y-54859574D01*
X77124197Y-54972384D01*
X77108288Y-54892405D01*
X77027156Y-54770982D01*
X77023046Y-54764831D01*
X77023045Y-54764830D01*
X76994264Y-54721756D01*
X76951190Y-54692975D01*
X74801511Y-52543297D01*
X74801511Y-41596805D01*
X75973000Y-41596805D01*
X75973000Y-42403195D01*
X76281593Y-43148203D01*
X76851797Y-43718407D01*
X77596805Y-44027000D01*
X78403195Y-44027000D01*
X79148203Y-43718407D01*
X79718407Y-43148203D01*
X80027000Y-42403195D01*
X80027000Y-41596805D01*
X79718407Y-40851797D01*
X79148203Y-40281593D01*
X78403195Y-39973000D01*
X77596805Y-39973000D01*
X76851797Y-40281593D01*
X76281593Y-40851797D01*
X75973000Y-41596805D01*
X74801511Y-41596805D01*
X74801511Y-32845881D01*
X78268866Y-29378526D01*
X78311943Y-29349743D01*
X78425967Y-29179094D01*
X78441714Y-29099928D01*
X78680426Y-28940426D01*
X78907413Y-28600715D01*
X78967000Y-28301149D01*
X78967000Y-27298850D01*
X78907413Y-26999285D01*
X78680426Y-26659574D01*
X78340714Y-26432587D01*
X77940000Y-26352880D01*
X77539285Y-26432587D01*
X77199574Y-26659574D01*
X76972587Y-26999286D01*
X76913000Y-27298851D01*
X76913000Y-28301150D01*
X76972588Y-28600715D01*
X77199575Y-28940426D01*
X77228473Y-28959735D01*
X75915900Y-30272308D01*
X75915900Y-29090449D01*
X76140426Y-28940426D01*
X76367413Y-28600715D01*
X76427000Y-28301149D01*
X76427000Y-27298850D01*
X76367413Y-26999285D01*
X76140426Y-26659574D01*
X75800714Y-26432587D01*
X75400000Y-26352880D01*
X74999285Y-26432587D01*
X74659574Y-26659574D01*
X74432587Y-26999286D01*
X74373000Y-27298851D01*
X74373000Y-28301150D01*
X74432588Y-28600715D01*
X74659575Y-28940426D01*
X74884101Y-29090449D01*
X74884100Y-30801198D01*
X73601132Y-32084167D01*
X73558058Y-32112948D01*
X73529277Y-32156022D01*
X73529275Y-32156024D01*
X73444034Y-32283597D01*
X73403994Y-32484891D01*
X73414101Y-32535702D01*
X73414100Y-52427986D01*
X73371245Y-52410235D01*
X73042243Y-52410235D01*
X72738286Y-52536138D01*
X72738212Y-52536212D01*
X72738212Y-52430794D01*
X72748319Y-52379983D01*
X72708279Y-52178689D01*
X72666791Y-52116598D01*
X72594255Y-52008040D01*
X72551178Y-51979257D01*
X72427122Y-51855201D01*
X72427122Y-48559119D01*
X72437228Y-48508313D01*
X72427122Y-48457507D01*
X72427122Y-48457502D01*
X72397189Y-48307019D01*
X72330961Y-48207902D01*
X72311947Y-48179445D01*
X72311946Y-48179444D01*
X72283165Y-48136370D01*
X72240090Y-48107588D01*
X72075900Y-47943399D01*
X72075900Y-30491492D01*
X73188869Y-29378524D01*
X73231943Y-29349743D01*
X73300514Y-29247120D01*
X73345967Y-29179094D01*
X73361714Y-29099928D01*
X73600426Y-28940426D01*
X73827413Y-28600715D01*
X73887000Y-28301149D01*
X73887000Y-27298850D01*
X73827413Y-26999285D01*
X73600426Y-26659574D01*
X73260714Y-26432587D01*
X72860000Y-26352880D01*
X72459285Y-26432587D01*
X72119574Y-26659574D01*
X71892587Y-26999286D01*
X71833000Y-27298851D01*
X71833000Y-28301150D01*
X71892588Y-28600715D01*
X72119575Y-28940426D01*
X72148473Y-28959735D01*
X71231132Y-29877076D01*
X71188058Y-29905857D01*
X71159277Y-29948931D01*
X71159275Y-29948933D01*
X71074034Y-30076506D01*
X71033994Y-30277800D01*
X71044101Y-30328611D01*
X71044100Y-48106285D01*
X71033994Y-48157091D01*
X71044100Y-48207897D01*
X71044100Y-48207901D01*
X71074033Y-48358384D01*
X71188057Y-48529034D01*
X71231134Y-48557817D01*
X71395323Y-48722006D01*
X71395323Y-49390403D01*
X71374877Y-49287616D01*
X71289635Y-49160042D01*
X71289634Y-49160041D01*
X71260853Y-49116967D01*
X71217779Y-49088186D01*
X71127000Y-48997407D01*
X71127000Y-48735499D01*
X71001097Y-48431542D01*
X70768458Y-48198903D01*
X70464501Y-48073000D01*
X70135499Y-48073000D01*
X69831542Y-48198903D01*
X69605900Y-48424545D01*
X69605900Y-30421492D01*
X70648869Y-29378524D01*
X70691943Y-29349743D01*
X70760514Y-29247120D01*
X70805967Y-29179094D01*
X70821714Y-29099928D01*
X71060426Y-28940426D01*
X71287413Y-28600715D01*
X71347000Y-28301149D01*
X71347000Y-27298850D01*
X71287413Y-26999285D01*
X71060426Y-26659574D01*
X70720714Y-26432587D01*
X70320000Y-26352880D01*
X69919285Y-26432587D01*
X69579574Y-26659574D01*
X69352587Y-26999286D01*
X69293000Y-27298851D01*
X69293000Y-28301150D01*
X69352588Y-28600715D01*
X69579575Y-28940426D01*
X69608473Y-28959735D01*
X68761132Y-29807076D01*
X68718058Y-29835857D01*
X68689277Y-29878931D01*
X68689275Y-29878933D01*
X68604034Y-30006506D01*
X68563994Y-30207800D01*
X68574101Y-30258611D01*
X68574100Y-48852474D01*
X68563994Y-48903280D01*
X68574100Y-48954086D01*
X68574100Y-48954090D01*
X68604033Y-49104573D01*
X68718057Y-49275223D01*
X68761134Y-49304006D01*
X68848858Y-49391730D01*
X68831542Y-49398903D01*
X68598903Y-49631542D01*
X68473000Y-49935499D01*
X68473000Y-50264501D01*
X68598903Y-50568458D01*
X68793328Y-50762883D01*
X68814034Y-50866979D01*
X68899275Y-50994552D01*
X68899277Y-50994554D01*
X68913146Y-51015311D01*
X68913147Y-53457261D01*
X68673455Y-53696953D01*
X68630378Y-53725736D01*
X68516354Y-53896386D01*
X68486421Y-54046869D01*
X68486421Y-54046873D01*
X68476315Y-54097679D01*
X68486421Y-54148485D01*
X68486421Y-54351116D01*
X66951963Y-52816658D01*
X66923180Y-52773581D01*
X66752531Y-52659557D01*
X66602048Y-52629624D01*
X66602043Y-52629624D01*
X66551237Y-52619518D01*
X66500431Y-52629624D01*
X65662232Y-52629624D01*
X65421480Y-52388872D01*
X65421480Y-52176220D01*
X65465957Y-52131744D01*
X65482666Y-52131744D01*
X65533472Y-52141850D01*
X65584278Y-52131744D01*
X65584283Y-52131744D01*
X65734766Y-52101811D01*
X65905415Y-51987787D01*
X65934198Y-51944710D01*
X68108866Y-49770042D01*
X68151943Y-49741259D01*
X68265967Y-49570610D01*
X68295900Y-49420127D01*
X68295900Y-49420123D01*
X68306006Y-49369317D01*
X68295900Y-49318511D01*
X68295900Y-29090449D01*
X68520426Y-28940426D01*
X68747413Y-28600715D01*
X68807000Y-28301149D01*
X68807000Y-27298850D01*
X68747413Y-26999285D01*
X68520426Y-26659574D01*
X68180714Y-26432587D01*
X67780000Y-26352880D01*
X67379285Y-26432587D01*
X67039574Y-26659574D01*
X66812587Y-26999286D01*
X66753000Y-27298851D01*
X66753000Y-28301150D01*
X66812588Y-28600715D01*
X67039575Y-28940426D01*
X67264101Y-29090449D01*
X67264100Y-49155624D01*
X65319780Y-51099944D01*
X65315900Y-51099944D01*
X65315900Y-49033655D01*
X65501097Y-48848458D01*
X65627000Y-48544501D01*
X65627000Y-48215499D01*
X65501097Y-47911542D01*
X65268458Y-47678903D01*
X64964501Y-47553000D01*
X64635499Y-47553000D01*
X64538973Y-47592982D01*
X64501097Y-47501542D01*
X64268458Y-47268903D01*
X63964501Y-47143000D01*
X63635499Y-47143000D01*
X63331542Y-47268903D01*
X63098903Y-47501542D01*
X62973000Y-47805499D01*
X62973000Y-48134501D01*
X63098903Y-48438458D01*
X63284101Y-48623656D01*
X63284101Y-49041228D01*
X62049198Y-47806326D01*
X62049198Y-47593674D01*
X62193675Y-47449198D01*
X62529176Y-47449198D01*
X62579982Y-47459304D01*
X62630788Y-47449198D01*
X62630793Y-47449198D01*
X62781276Y-47419265D01*
X62951925Y-47305241D01*
X62980708Y-47262164D01*
X65568869Y-44674004D01*
X65611943Y-44645223D01*
X65725967Y-44474574D01*
X65755900Y-44324091D01*
X65755900Y-44324090D01*
X65766007Y-44273280D01*
X65755900Y-44222469D01*
X65755900Y-29090449D01*
X65980426Y-28940426D01*
X66207413Y-28600715D01*
X66267000Y-28301149D01*
X66267000Y-27298850D01*
X66207413Y-26999285D01*
X65980426Y-26659574D01*
X65640714Y-26432587D01*
X65240000Y-26352880D01*
X64839285Y-26432587D01*
X64499574Y-26659574D01*
X64272587Y-26999286D01*
X64213000Y-27298851D01*
X64213000Y-28301150D01*
X64272588Y-28600715D01*
X64499575Y-28940426D01*
X64724101Y-29090449D01*
X64724100Y-44059587D01*
X63215900Y-45567788D01*
X63215900Y-29090449D01*
X63440426Y-28940426D01*
X63667413Y-28600715D01*
X63727000Y-28301149D01*
X63727000Y-27298850D01*
X63667413Y-26999285D01*
X63440426Y-26659574D01*
X63100714Y-26432587D01*
X62700000Y-26352880D01*
X62299285Y-26432587D01*
X61959574Y-26659574D01*
X61732587Y-26999286D01*
X61673000Y-27298851D01*
X61673000Y-28301150D01*
X61732588Y-28600715D01*
X61959575Y-28940426D01*
X62184101Y-29090449D01*
X62184100Y-45496678D01*
X60848819Y-46831960D01*
X60805745Y-46860741D01*
X60776964Y-46903815D01*
X60776962Y-46903817D01*
X60691721Y-47031390D01*
X60651681Y-47232684D01*
X60661788Y-47283495D01*
X60661787Y-48116509D01*
X60651681Y-48167316D01*
X60661787Y-48218122D01*
X60661787Y-48218126D01*
X60691720Y-48368609D01*
X60805744Y-48539259D01*
X60848821Y-48568042D01*
X60964101Y-48683322D01*
X60964101Y-54954870D01*
X60900426Y-54859574D01*
X60560714Y-54632587D01*
X60160000Y-54552880D01*
X59759285Y-54632587D01*
X59465900Y-54828620D01*
X59465900Y-30401492D01*
X60488866Y-29378526D01*
X60531943Y-29349743D01*
X60645967Y-29179094D01*
X60661714Y-29099928D01*
X60900426Y-28940426D01*
X61127413Y-28600715D01*
X61187000Y-28301149D01*
X61187000Y-27298850D01*
X61127413Y-26999285D01*
X60900426Y-26659574D01*
X60560714Y-26432587D01*
X60160000Y-26352880D01*
X59759285Y-26432587D01*
X59419574Y-26659574D01*
X59192587Y-26999286D01*
X59133000Y-27298851D01*
X59133000Y-28301150D01*
X59192588Y-28600715D01*
X59419575Y-28940426D01*
X59448473Y-28959735D01*
X58621132Y-29787076D01*
X58578058Y-29815857D01*
X58549277Y-29858931D01*
X58549275Y-29858933D01*
X58464034Y-29986506D01*
X58423994Y-30187800D01*
X58434101Y-30238611D01*
X58434100Y-54969836D01*
X58360426Y-54859574D01*
X58020714Y-54632587D01*
X57620000Y-54552880D01*
X57219285Y-54632587D01*
X56879574Y-54859574D01*
X56652587Y-55199286D01*
X56593000Y-55498851D01*
X56593000Y-56501150D01*
X56652588Y-56800715D01*
X56879575Y-57140426D01*
X57219286Y-57367413D01*
X57620000Y-57447120D01*
X58020715Y-57367413D01*
X58360426Y-57140426D01*
X58434100Y-57030164D01*
X58434100Y-63361394D01*
X58423994Y-63412200D01*
X58434100Y-63463006D01*
X58434100Y-63463010D01*
X58464033Y-63613493D01*
X58578057Y-63784143D01*
X58621134Y-63812926D01*
X59448473Y-64640265D01*
X59419574Y-64659574D01*
X59192587Y-64999286D01*
X59133000Y-65298851D01*
X59133000Y-66301150D01*
X59192588Y-66600715D01*
X59419575Y-66940426D01*
X59644100Y-67090449D01*
X59644101Y-71967404D01*
X59633994Y-72018215D01*
X59674034Y-72219509D01*
X59759275Y-72347082D01*
X59759277Y-72347084D01*
X59788058Y-72390158D01*
X59831132Y-72418939D01*
X66936253Y-79524061D01*
X66936253Y-79785969D01*
X67062156Y-80089926D01*
X67247354Y-80275124D01*
X67247353Y-82877802D01*
X67168454Y-82798903D01*
X66864497Y-82673000D01*
X66535495Y-82673000D01*
X66327000Y-82759361D01*
X66327000Y-82635499D01*
X66201097Y-82331542D01*
X66015900Y-82146345D01*
X66015900Y-79036417D01*
X66026006Y-78985611D01*
X66015900Y-78934805D01*
X66015900Y-78934801D01*
X65985967Y-78784318D01*
X65871943Y-78613669D01*
X65828866Y-78584886D01*
X58327000Y-71083020D01*
X58327000Y-70821111D01*
X58201097Y-70517154D01*
X57968458Y-70284515D01*
X57664501Y-70158612D01*
X57335499Y-70158612D01*
X57031542Y-70284515D01*
X56798903Y-70517154D01*
X56673000Y-70821111D01*
X56673000Y-71150113D01*
X56798903Y-71454070D01*
X57031542Y-71686709D01*
X57335499Y-71812612D01*
X57597408Y-71812612D01*
X64984100Y-79199304D01*
X64984101Y-81088823D01*
X56966411Y-73071134D01*
X56937628Y-73028057D01*
X56766979Y-72914033D01*
X56662882Y-72893327D01*
X56468458Y-72698903D01*
X56164501Y-72573000D01*
X55835499Y-72573000D01*
X55531542Y-72698903D01*
X55298903Y-72931542D01*
X55173000Y-73235499D01*
X55173000Y-73564501D01*
X55298903Y-73868458D01*
X55531542Y-74101097D01*
X55835499Y-74227000D01*
X56164501Y-74227000D01*
X56468458Y-74101097D01*
X56502824Y-74066731D01*
X63303613Y-80867521D01*
X61397114Y-80867521D01*
X54127000Y-73597408D01*
X54127000Y-73335499D01*
X54001097Y-73031542D01*
X53768458Y-72798903D01*
X53464501Y-72673000D01*
X53135499Y-72673000D01*
X52831542Y-72798903D01*
X52598903Y-73031542D01*
X52473000Y-73335499D01*
X52473000Y-73403445D01*
X52468458Y-73398903D01*
X52164501Y-73273000D01*
X51835499Y-73273000D01*
X51531542Y-73398903D01*
X51298903Y-73631542D01*
X51173000Y-73935499D01*
X49427000Y-73935499D01*
X49427000Y-73476152D01*
X49209753Y-72951669D01*
X48905084Y-72647000D01*
X49084935Y-72647000D01*
X49241876Y-72581993D01*
X49361993Y-72461876D01*
X49427000Y-72304936D01*
X49427000Y-71453750D01*
X49320250Y-71347000D01*
X48127000Y-71347000D01*
X48127000Y-71367000D01*
X47873000Y-71367000D01*
X47873000Y-71347000D01*
X46679750Y-71347000D01*
X46573000Y-71453750D01*
X46002000Y-71453750D01*
X46002000Y-70135064D01*
X46573000Y-70135064D01*
X46573000Y-70986250D01*
X46679750Y-71093000D01*
X47873000Y-71093000D01*
X47873000Y-69899750D01*
X48127000Y-69899750D01*
X48127000Y-71093000D01*
X49320250Y-71093000D01*
X49427000Y-70986250D01*
X49427000Y-70135064D01*
X49361993Y-69978124D01*
X49241876Y-69858007D01*
X49084935Y-69793000D01*
X48233750Y-69793000D01*
X48127000Y-69899750D01*
X47873000Y-69899750D01*
X47766250Y-69793000D01*
X46915065Y-69793000D01*
X46758124Y-69858007D01*
X46638007Y-69978124D01*
X46573000Y-70135064D01*
X46002000Y-70135064D01*
X46002000Y-65298851D01*
X48973000Y-65298851D01*
X48973000Y-66301150D01*
X49032588Y-66600715D01*
X49259575Y-66940426D01*
X49599286Y-67167413D01*
X50000000Y-67247120D01*
X50400715Y-67167413D01*
X50740426Y-66940426D01*
X50967413Y-66600715D01*
X51027000Y-66301149D01*
X51027000Y-65298851D01*
X51513000Y-65298851D01*
X51513000Y-66301150D01*
X51572588Y-66600715D01*
X51799575Y-66940426D01*
X52139286Y-67167413D01*
X52540000Y-67247120D01*
X52940715Y-67167413D01*
X53280426Y-66940426D01*
X53507413Y-66600715D01*
X53567000Y-66301149D01*
X53567000Y-65298851D01*
X54053000Y-65298851D01*
X54053000Y-66301150D01*
X54112588Y-66600715D01*
X54339575Y-66940426D01*
X54679286Y-67167413D01*
X55080000Y-67247120D01*
X55480715Y-67167413D01*
X55820426Y-66940426D01*
X56047413Y-66600715D01*
X56107000Y-66301149D01*
X56107000Y-65298851D01*
X56593000Y-65298851D01*
X56593000Y-66301150D01*
X56652588Y-66600715D01*
X56879575Y-66940426D01*
X57219286Y-67167413D01*
X57620000Y-67247120D01*
X58020715Y-67167413D01*
X58360426Y-66940426D01*
X58587413Y-66600715D01*
X58647000Y-66301149D01*
X58647000Y-65298850D01*
X58587413Y-64999285D01*
X58360426Y-64659574D01*
X58020714Y-64432587D01*
X57620000Y-64352880D01*
X57219285Y-64432587D01*
X56879574Y-64659574D01*
X56652587Y-64999286D01*
X56593000Y-65298851D01*
X56107000Y-65298851D01*
X56107000Y-65298850D01*
X56047413Y-64999285D01*
X55820426Y-64659574D01*
X55480714Y-64432587D01*
X55080000Y-64352880D01*
X54679285Y-64432587D01*
X54339574Y-64659574D01*
X54112587Y-64999286D01*
X54053000Y-65298851D01*
X53567000Y-65298851D01*
X53567000Y-65298850D01*
X53507413Y-64999285D01*
X53280426Y-64659574D01*
X52940714Y-64432587D01*
X52540000Y-64352880D01*
X52139285Y-64432587D01*
X51799574Y-64659574D01*
X51572587Y-64999286D01*
X51513000Y-65298851D01*
X51027000Y-65298851D01*
X51027000Y-65298850D01*
X50967413Y-64999285D01*
X50740426Y-64659574D01*
X50400714Y-64432587D01*
X50000000Y-64352880D01*
X49599285Y-64432587D01*
X49259574Y-64659574D01*
X49032587Y-64999286D01*
X48973000Y-65298851D01*
X46002000Y-65298851D01*
X46002000Y-55498851D01*
X48973000Y-55498851D01*
X48973000Y-56501150D01*
X49032588Y-56800715D01*
X49259575Y-57140426D01*
X49599286Y-57367413D01*
X50000000Y-57447120D01*
X50400715Y-57367413D01*
X50740426Y-57140426D01*
X50967413Y-56800715D01*
X51027000Y-56501149D01*
X51027000Y-55498851D01*
X51513000Y-55498851D01*
X51513000Y-56501150D01*
X51572588Y-56800715D01*
X51799575Y-57140426D01*
X52139286Y-57367413D01*
X52540000Y-57447120D01*
X52940715Y-57367413D01*
X53280426Y-57140426D01*
X53507413Y-56800715D01*
X53567000Y-56501149D01*
X53567000Y-55498851D01*
X54053000Y-55498851D01*
X54053000Y-56501150D01*
X54112588Y-56800715D01*
X54339575Y-57140426D01*
X54679286Y-57367413D01*
X55080000Y-57447120D01*
X55480715Y-57367413D01*
X55820426Y-57140426D01*
X56047413Y-56800715D01*
X56107000Y-56501149D01*
X56107000Y-55498850D01*
X56047413Y-55199285D01*
X55820426Y-54859574D01*
X55480714Y-54632587D01*
X55080000Y-54552880D01*
X54679285Y-54632587D01*
X54339574Y-54859574D01*
X54112587Y-55199286D01*
X54053000Y-55498851D01*
X53567000Y-55498851D01*
X53567000Y-55498850D01*
X53507413Y-55199285D01*
X53280426Y-54859574D01*
X52940714Y-54632587D01*
X52540000Y-54552880D01*
X52139285Y-54632587D01*
X51799574Y-54859574D01*
X51572587Y-55199286D01*
X51513000Y-55498851D01*
X51027000Y-55498851D01*
X51027000Y-55498850D01*
X50967413Y-55199285D01*
X50740426Y-54859574D01*
X50400714Y-54632587D01*
X50000000Y-54552880D01*
X49599285Y-54632587D01*
X49259574Y-54859574D01*
X49032587Y-55199286D01*
X48973000Y-55498851D01*
X46002000Y-55498851D01*
X46002000Y-41596805D01*
X47973000Y-41596805D01*
X47973000Y-42403195D01*
X48281593Y-43148203D01*
X48851797Y-43718407D01*
X49596805Y-44027000D01*
X50403195Y-44027000D01*
X51148203Y-43718407D01*
X51718407Y-43148203D01*
X52027000Y-42403195D01*
X52027000Y-41596805D01*
X51718407Y-40851797D01*
X51148203Y-40281593D01*
X50403195Y-39973000D01*
X49596805Y-39973000D01*
X48851797Y-40281593D01*
X48281593Y-40851797D01*
X47973000Y-41596805D01*
X46002000Y-41596805D01*
X46002000Y-27298851D01*
X48973000Y-27298851D01*
X48973000Y-28301150D01*
X49032588Y-28600715D01*
X49259575Y-28940426D01*
X49599286Y-29167413D01*
X50000000Y-29247120D01*
X50400715Y-29167413D01*
X50740426Y-28940426D01*
X50967413Y-28600715D01*
X51027000Y-28301149D01*
X51027000Y-27298851D01*
X51513000Y-27298851D01*
X51513000Y-28301150D01*
X51572588Y-28600715D01*
X51799575Y-28940426D01*
X52139286Y-29167413D01*
X52540000Y-29247120D01*
X52940715Y-29167413D01*
X53280426Y-28940426D01*
X53507413Y-28600715D01*
X53567000Y-28301149D01*
X53567000Y-27298851D01*
X54053000Y-27298851D01*
X54053000Y-28301150D01*
X54112588Y-28600715D01*
X54339575Y-28940426D01*
X54679286Y-29167413D01*
X55080000Y-29247120D01*
X55480715Y-29167413D01*
X55820426Y-28940426D01*
X56047413Y-28600715D01*
X56107000Y-28301149D01*
X56107000Y-27298851D01*
X56593000Y-27298851D01*
X56593000Y-28301150D01*
X56652588Y-28600715D01*
X56879575Y-28940426D01*
X57219286Y-29167413D01*
X57620000Y-29247120D01*
X58020715Y-29167413D01*
X58360426Y-28940426D01*
X58587413Y-28600715D01*
X58647000Y-28301149D01*
X58647000Y-27298850D01*
X58587413Y-26999285D01*
X58360426Y-26659574D01*
X58020714Y-26432587D01*
X57620000Y-26352880D01*
X57219285Y-26432587D01*
X56879574Y-26659574D01*
X56652587Y-26999286D01*
X56593000Y-27298851D01*
X56107000Y-27298851D01*
X56107000Y-27298850D01*
X56047413Y-26999285D01*
X55820426Y-26659574D01*
X55480714Y-26432587D01*
X55080000Y-26352880D01*
X54679285Y-26432587D01*
X54339574Y-26659574D01*
X54112587Y-26999286D01*
X54053000Y-27298851D01*
X53567000Y-27298851D01*
X53567000Y-27298850D01*
X53507413Y-26999285D01*
X53280426Y-26659574D01*
X52940714Y-26432587D01*
X52540000Y-26352880D01*
X52139285Y-26432587D01*
X51799574Y-26659574D01*
X51572587Y-26999286D01*
X51513000Y-27298851D01*
X51027000Y-27298851D01*
X51027000Y-27298850D01*
X50967413Y-26999285D01*
X50740426Y-26659574D01*
X50400714Y-26432587D01*
X50000000Y-26352880D01*
X49599285Y-26432587D01*
X49259574Y-26659574D01*
X49032587Y-26999286D01*
X48973000Y-27298851D01*
X46002000Y-27298851D01*
X46002000Y-24002000D01*
X81998001Y-24002000D01*
X81998000Y-173998000D01*
X81998000Y-173998000D01*
G37*
X81998000Y-173998000D02*
X46002000Y-173998000D01*
X46002000Y-169498851D01*
X48973000Y-169498851D01*
X48973000Y-170501150D01*
X49032588Y-170800715D01*
X49259575Y-171140426D01*
X49599286Y-171367413D01*
X50000000Y-171447120D01*
X50400715Y-171367413D01*
X50740426Y-171140426D01*
X50967413Y-170800715D01*
X51027000Y-170501149D01*
X51027000Y-169498851D01*
X51513000Y-169498851D01*
X51513000Y-170501150D01*
X51572588Y-170800715D01*
X51799575Y-171140426D01*
X52139286Y-171367413D01*
X52540000Y-171447120D01*
X52940715Y-171367413D01*
X53280426Y-171140426D01*
X53507413Y-170800715D01*
X53567000Y-170501149D01*
X53567000Y-169498851D01*
X54053000Y-169498851D01*
X54053000Y-170501150D01*
X54112588Y-170800715D01*
X54339575Y-171140426D01*
X54679286Y-171367413D01*
X55080000Y-171447120D01*
X55480715Y-171367413D01*
X55820426Y-171140426D01*
X56047413Y-170800715D01*
X56107000Y-170501149D01*
X56107000Y-169498851D01*
X56593000Y-169498851D01*
X56593000Y-170501150D01*
X56652588Y-170800715D01*
X56879575Y-171140426D01*
X57219286Y-171367413D01*
X57620000Y-171447120D01*
X58020715Y-171367413D01*
X58360426Y-171140426D01*
X58587413Y-170800715D01*
X58647000Y-170501149D01*
X58647000Y-169498851D01*
X59133000Y-169498851D01*
X59133000Y-170501150D01*
X59192588Y-170800715D01*
X59419575Y-171140426D01*
X59759286Y-171367413D01*
X60160000Y-171447120D01*
X60560715Y-171367413D01*
X60900426Y-171140426D01*
X61127413Y-170800715D01*
X61187000Y-170501149D01*
X61187000Y-169498851D01*
X61673000Y-169498851D01*
X61673000Y-170501150D01*
X61732588Y-170800715D01*
X61959575Y-171140426D01*
X62299286Y-171367413D01*
X62700000Y-171447120D01*
X63100715Y-171367413D01*
X63440426Y-171140426D01*
X63667413Y-170800715D01*
X63727000Y-170501149D01*
X63727000Y-169498851D01*
X64213000Y-169498851D01*
X64213000Y-170501150D01*
X64272588Y-170800715D01*
X64499575Y-171140426D01*
X64839286Y-171367413D01*
X65240000Y-171447120D01*
X65640715Y-171367413D01*
X65980426Y-171140426D01*
X66207413Y-170800715D01*
X66267000Y-170501149D01*
X66267000Y-169498851D01*
X66753000Y-169498851D01*
X66753000Y-170501150D01*
X66812588Y-170800715D01*
X67039575Y-171140426D01*
X67379286Y-171367413D01*
X67780000Y-171447120D01*
X68180715Y-171367413D01*
X68520426Y-171140426D01*
X68747413Y-170800715D01*
X68807000Y-170501149D01*
X68807000Y-169498851D01*
X69293000Y-169498851D01*
X69293000Y-170501150D01*
X69352588Y-170800715D01*
X69579575Y-171140426D01*
X69919286Y-171367413D01*
X70320000Y-171447120D01*
X70720715Y-171367413D01*
X71060426Y-171140426D01*
X71287413Y-170800715D01*
X71347000Y-170501149D01*
X71347000Y-169498851D01*
X71833000Y-169498851D01*
X71833000Y-170501150D01*
X71892588Y-170800715D01*
X72119575Y-171140426D01*
X72459286Y-171367413D01*
X72860000Y-171447120D01*
X73260715Y-171367413D01*
X73600426Y-171140426D01*
X73827413Y-170800715D01*
X73887000Y-170501149D01*
X73887000Y-169498851D01*
X74373000Y-169498851D01*
X74373000Y-170501150D01*
X74432588Y-170800715D01*
X74659575Y-171140426D01*
X74999286Y-171367413D01*
X75400000Y-171447120D01*
X75800715Y-171367413D01*
X76140426Y-171140426D01*
X76367413Y-170800715D01*
X76427000Y-170501149D01*
X76427000Y-169498851D01*
X76913000Y-169498851D01*
X76913000Y-170501150D01*
X76972588Y-170800715D01*
X77199575Y-171140426D01*
X77539286Y-171367413D01*
X77940000Y-171447120D01*
X78340715Y-171367413D01*
X78680426Y-171140426D01*
X78907413Y-170800715D01*
X78967000Y-170501149D01*
X78967000Y-169498850D01*
X78907413Y-169199285D01*
X78680426Y-168859574D01*
X78340714Y-168632587D01*
X77940000Y-168552880D01*
X77539285Y-168632587D01*
X77199574Y-168859574D01*
X76972587Y-169199286D01*
X76913000Y-169498851D01*
X76427000Y-169498851D01*
X76427000Y-169498850D01*
X76367413Y-169199285D01*
X76140426Y-168859574D01*
X75800714Y-168632587D01*
X75400000Y-168552880D01*
X74999285Y-168632587D01*
X74659574Y-168859574D01*
X74432587Y-169199286D01*
X74373000Y-169498851D01*
X73887000Y-169498851D01*
X73887000Y-169498850D01*
X73827413Y-169199285D01*
X73600426Y-168859574D01*
X73260714Y-168632587D01*
X72860000Y-168552880D01*
X72459285Y-168632587D01*
X72119574Y-168859574D01*
X71892587Y-169199286D01*
X71833000Y-169498851D01*
X71347000Y-169498851D01*
X71347000Y-169498850D01*
X71287413Y-169199285D01*
X71060426Y-168859574D01*
X70720714Y-168632587D01*
X70320000Y-168552880D01*
X69919285Y-168632587D01*
X69579574Y-168859574D01*
X69352587Y-169199286D01*
X69293000Y-169498851D01*
X68807000Y-169498851D01*
X68807000Y-169498850D01*
X68747413Y-169199285D01*
X68520426Y-168859574D01*
X68180714Y-168632587D01*
X67780000Y-168552880D01*
X67379285Y-168632587D01*
X67039574Y-168859574D01*
X66812587Y-169199286D01*
X66753000Y-169498851D01*
X66267000Y-169498851D01*
X66267000Y-169498850D01*
X66207413Y-169199285D01*
X65980426Y-168859574D01*
X65640714Y-168632587D01*
X65240000Y-168552880D01*
X64839285Y-168632587D01*
X64499574Y-168859574D01*
X64272587Y-169199286D01*
X64213000Y-169498851D01*
X63727000Y-169498851D01*
X63727000Y-169498850D01*
X63667413Y-169199285D01*
X63440426Y-168859574D01*
X63100714Y-168632587D01*
X62700000Y-168552880D01*
X62299285Y-168632587D01*
X61959574Y-168859574D01*
X61732587Y-169199286D01*
X61673000Y-169498851D01*
X61187000Y-169498851D01*
X61187000Y-169498850D01*
X61127413Y-169199285D01*
X60900426Y-168859574D01*
X60560714Y-168632587D01*
X60160000Y-168552880D01*
X59759285Y-168632587D01*
X59419574Y-168859574D01*
X59192587Y-169199286D01*
X59133000Y-169498851D01*
X58647000Y-169498851D01*
X58647000Y-169498850D01*
X58587413Y-169199285D01*
X58360426Y-168859574D01*
X58020714Y-168632587D01*
X57620000Y-168552880D01*
X57219285Y-168632587D01*
X56879574Y-168859574D01*
X56652587Y-169199286D01*
X56593000Y-169498851D01*
X56107000Y-169498851D01*
X56107000Y-169498850D01*
X56047413Y-169199285D01*
X55820426Y-168859574D01*
X55480714Y-168632587D01*
X55080000Y-168552880D01*
X54679285Y-168632587D01*
X54339574Y-168859574D01*
X54112587Y-169199286D01*
X54053000Y-169498851D01*
X53567000Y-169498851D01*
X53567000Y-169498850D01*
X53507413Y-169199285D01*
X53280426Y-168859574D01*
X52940714Y-168632587D01*
X52540000Y-168552880D01*
X52139285Y-168632587D01*
X51799574Y-168859574D01*
X51572587Y-169199286D01*
X51513000Y-169498851D01*
X51027000Y-169498851D01*
X51027000Y-169498850D01*
X50967413Y-169199285D01*
X50740426Y-168859574D01*
X50400714Y-168632587D01*
X50000000Y-168552880D01*
X49599285Y-168632587D01*
X49259574Y-168859574D01*
X49032587Y-169199286D01*
X48973000Y-169498851D01*
X46002000Y-169498851D01*
X46002000Y-156596805D01*
X47973000Y-156596805D01*
X47973000Y-157403195D01*
X48281593Y-158148203D01*
X48851797Y-158718407D01*
X49596805Y-159027000D01*
X50403195Y-159027000D01*
X51148203Y-158718407D01*
X51718407Y-158148203D01*
X52027000Y-157403195D01*
X52027000Y-156596805D01*
X75973000Y-156596805D01*
X75973000Y-157403195D01*
X76281593Y-158148203D01*
X76851797Y-158718407D01*
X77596805Y-159027000D01*
X78403195Y-159027000D01*
X79148203Y-158718407D01*
X79718407Y-158148203D01*
X80027000Y-157403195D01*
X80027000Y-156596805D01*
X79718407Y-155851797D01*
X79148203Y-155281593D01*
X78403195Y-154973000D01*
X77596805Y-154973000D01*
X76851797Y-155281593D01*
X76281593Y-155851797D01*
X75973000Y-156596805D01*
X52027000Y-156596805D01*
X51718407Y-155851797D01*
X51148203Y-155281593D01*
X50403195Y-154973000D01*
X49596805Y-154973000D01*
X48851797Y-155281593D01*
X48281593Y-155851797D01*
X47973000Y-156596805D01*
X46002000Y-156596805D01*
X46002000Y-141298851D01*
X48973000Y-141298851D01*
X48973000Y-142301150D01*
X49032588Y-142600715D01*
X49259575Y-142940426D01*
X49599286Y-143167413D01*
X50000000Y-143247120D01*
X50400715Y-143167413D01*
X50740426Y-142940426D01*
X50967413Y-142600715D01*
X51027000Y-142301149D01*
X51027000Y-141298851D01*
X51513000Y-141298851D01*
X51513000Y-142301150D01*
X51572588Y-142600715D01*
X51799575Y-142940426D01*
X52139286Y-143167413D01*
X52540000Y-143247120D01*
X52940715Y-143167413D01*
X53280426Y-142940426D01*
X53507413Y-142600715D01*
X53567000Y-142301149D01*
X53567000Y-141298851D01*
X54053000Y-141298851D01*
X54053000Y-142301150D01*
X54112588Y-142600715D01*
X54339575Y-142940426D01*
X54679286Y-143167413D01*
X55080000Y-143247120D01*
X55480715Y-143167413D01*
X55820426Y-142940426D01*
X56047413Y-142600715D01*
X56107000Y-142301149D01*
X56107000Y-141298851D01*
X56593000Y-141298851D01*
X56593000Y-142301150D01*
X56652588Y-142600715D01*
X56879575Y-142940426D01*
X57219286Y-143167413D01*
X57620000Y-143247120D01*
X58020715Y-143167413D01*
X58360426Y-142940426D01*
X58587413Y-142600715D01*
X58647000Y-142301149D01*
X58647000Y-141298850D01*
X58587413Y-140999285D01*
X58360426Y-140659574D01*
X58020714Y-140432587D01*
X57620000Y-140352880D01*
X57219285Y-140432587D01*
X56879574Y-140659574D01*
X56652587Y-140999286D01*
X56593000Y-141298851D01*
X56107000Y-141298851D01*
X56107000Y-141298850D01*
X56047413Y-140999285D01*
X55820426Y-140659574D01*
X55480714Y-140432587D01*
X55080000Y-140352880D01*
X54679285Y-140432587D01*
X54339574Y-140659574D01*
X54112587Y-140999286D01*
X54053000Y-141298851D01*
X53567000Y-141298851D01*
X53567000Y-141298850D01*
X53507413Y-140999285D01*
X53280426Y-140659574D01*
X52940714Y-140432587D01*
X52540000Y-140352880D01*
X52139285Y-140432587D01*
X51799574Y-140659574D01*
X51572587Y-140999286D01*
X51513000Y-141298851D01*
X51027000Y-141298851D01*
X51027000Y-141298850D01*
X50967413Y-140999285D01*
X50740426Y-140659574D01*
X50400714Y-140432587D01*
X50000000Y-140352880D01*
X49599285Y-140432587D01*
X49259574Y-140659574D01*
X49032587Y-140999286D01*
X48973000Y-141298851D01*
X46002000Y-141298851D01*
X46002000Y-131498851D01*
X48973000Y-131498851D01*
X48973000Y-132501150D01*
X49032588Y-132800715D01*
X49259575Y-133140426D01*
X49599286Y-133367413D01*
X50000000Y-133447120D01*
X50400715Y-133367413D01*
X50740426Y-133140426D01*
X50967413Y-132800715D01*
X51027000Y-132501149D01*
X51027000Y-131498851D01*
X51513000Y-131498851D01*
X51513000Y-132501150D01*
X51572588Y-132800715D01*
X51799575Y-133140426D01*
X52139286Y-133367413D01*
X52540000Y-133447120D01*
X52940715Y-133367413D01*
X53280426Y-133140426D01*
X53507413Y-132800715D01*
X53567000Y-132501149D01*
X53567000Y-131498851D01*
X54053000Y-131498851D01*
X54053000Y-132501150D01*
X54112588Y-132800715D01*
X54339575Y-133140426D01*
X54679286Y-133367413D01*
X55080000Y-133447120D01*
X55480715Y-133367413D01*
X55820426Y-133140426D01*
X56047413Y-132800715D01*
X56107000Y-132501149D01*
X56107000Y-131498851D01*
X56593000Y-131498851D01*
X56593000Y-132501150D01*
X56652588Y-132800715D01*
X56879575Y-133140426D01*
X57219286Y-133367413D01*
X57620000Y-133447120D01*
X58020715Y-133367413D01*
X58360426Y-133140426D01*
X58587413Y-132800715D01*
X58647000Y-132501149D01*
X58647000Y-131498851D01*
X59133000Y-131498851D01*
X59133000Y-132501150D01*
X59192588Y-132800715D01*
X59419575Y-133140426D01*
X59759286Y-133367413D01*
X60160000Y-133447120D01*
X60560715Y-133367413D01*
X60900426Y-133140426D01*
X61127413Y-132800715D01*
X61187000Y-132501149D01*
X61187000Y-131498850D01*
X61127413Y-131199285D01*
X60900426Y-130859574D01*
X60560714Y-130632587D01*
X60160000Y-130552880D01*
X59759285Y-130632587D01*
X59419574Y-130859574D01*
X59192587Y-131199286D01*
X59133000Y-131498851D01*
X58647000Y-131498851D01*
X58647000Y-131498850D01*
X58587413Y-131199285D01*
X58360426Y-130859574D01*
X58020714Y-130632587D01*
X57620000Y-130552880D01*
X57219285Y-130632587D01*
X56879574Y-130859574D01*
X56652587Y-131199286D01*
X56593000Y-131498851D01*
X56107000Y-131498851D01*
X56107000Y-131498850D01*
X56047413Y-131199285D01*
X55820426Y-130859574D01*
X55480714Y-130632587D01*
X55080000Y-130552880D01*
X54679285Y-130632587D01*
X54339574Y-130859574D01*
X54112587Y-131199286D01*
X54053000Y-131498851D01*
X53567000Y-131498851D01*
X53567000Y-131498850D01*
X53507413Y-131199285D01*
X53280426Y-130859574D01*
X52940714Y-130632587D01*
X52540000Y-130552880D01*
X52139285Y-130632587D01*
X51799574Y-130859574D01*
X51572587Y-131199286D01*
X51513000Y-131498851D01*
X51027000Y-131498851D01*
X51027000Y-131498850D01*
X50967413Y-131199285D01*
X50740426Y-130859574D01*
X50400714Y-130632587D01*
X50000000Y-130552880D01*
X49599285Y-130632587D01*
X49259574Y-130859574D01*
X49032587Y-131199286D01*
X48973000Y-131498851D01*
X46002000Y-131498851D01*
X46002000Y-112435499D01*
X51173000Y-112435499D01*
X51173000Y-112764501D01*
X51298903Y-113068458D01*
X51531542Y-113301097D01*
X51835499Y-113427000D01*
X52164501Y-113427000D01*
X52468458Y-113301097D01*
X52653655Y-113115900D01*
X55086308Y-113115900D01*
X61573000Y-119602592D01*
X61573000Y-119864501D01*
X61698903Y-120168458D01*
X61931542Y-120401097D01*
X62235499Y-120527000D01*
X62564501Y-120527000D01*
X62868458Y-120401097D01*
X63101097Y-120168458D01*
X63227000Y-119864501D01*
X63227000Y-119535499D01*
X63101097Y-119231542D01*
X62868458Y-118998903D01*
X62668071Y-118915900D01*
X62846345Y-118915900D01*
X63031542Y-119101097D01*
X63335499Y-119227000D01*
X63664501Y-119227000D01*
X63968458Y-119101097D01*
X64201097Y-118868458D01*
X64327000Y-118564501D01*
X64327000Y-118235499D01*
X64201097Y-117931542D01*
X63968458Y-117698903D01*
X63664501Y-117573000D01*
X63335499Y-117573000D01*
X63227000Y-117617942D01*
X63227000Y-117335499D01*
X63170990Y-117200280D01*
X63235499Y-117227000D01*
X63564501Y-117227000D01*
X63868458Y-117101097D01*
X64101097Y-116868458D01*
X64227000Y-116564501D01*
X64227000Y-116235499D01*
X64101097Y-115931542D01*
X63868458Y-115698903D01*
X63564501Y-115573000D01*
X63235499Y-115573000D01*
X62931542Y-115698903D01*
X62746345Y-115884100D01*
X61824894Y-115884100D01*
X57665763Y-111724970D01*
X57665763Y-111463061D01*
X57539860Y-111159104D01*
X57307221Y-110926465D01*
X57003264Y-110800562D01*
X56674262Y-110800562D01*
X56370305Y-110926465D01*
X56290554Y-111006216D01*
X56030363Y-110898441D01*
X55701361Y-110898441D01*
X55397404Y-111024344D01*
X55164765Y-111256983D01*
X55038862Y-111560940D01*
X55038862Y-111728489D01*
X54423767Y-111728489D01*
X54266411Y-111571134D01*
X54237628Y-111528057D01*
X54066979Y-111414033D01*
X53962882Y-111393327D01*
X53768458Y-111198903D01*
X53464501Y-111073000D01*
X53135499Y-111073000D01*
X52831542Y-111198903D01*
X52598903Y-111431542D01*
X52473000Y-111735499D01*
X52473000Y-111903445D01*
X52468458Y-111898903D01*
X52164501Y-111773000D01*
X51835499Y-111773000D01*
X51531542Y-111898903D01*
X51298903Y-112131542D01*
X51173000Y-112435499D01*
X46002000Y-112435499D01*
X46002000Y-103298851D01*
X48973000Y-103298851D01*
X48973000Y-104301150D01*
X49032588Y-104600715D01*
X49259575Y-104940426D01*
X49599286Y-105167413D01*
X50000000Y-105247120D01*
X50400715Y-105167413D01*
X50740426Y-104940426D01*
X50967413Y-104600715D01*
X51027000Y-104301149D01*
X51027000Y-103298851D01*
X51513000Y-103298851D01*
X51513000Y-104301150D01*
X51572588Y-104600715D01*
X51799575Y-104940426D01*
X52139286Y-105167413D01*
X52540000Y-105247120D01*
X52940715Y-105167413D01*
X53280426Y-104940426D01*
X53507413Y-104600715D01*
X53567000Y-104301149D01*
X53567000Y-103298851D01*
X54053000Y-103298851D01*
X54053000Y-104301150D01*
X54112588Y-104600715D01*
X54339575Y-104940426D01*
X54679286Y-105167413D01*
X55080000Y-105247120D01*
X55480715Y-105167413D01*
X55820426Y-104940426D01*
X56047413Y-104600715D01*
X56107000Y-104301149D01*
X56107000Y-103298851D01*
X56593000Y-103298851D01*
X56593000Y-104301150D01*
X56652588Y-104600715D01*
X56879575Y-104940426D01*
X57219286Y-105167413D01*
X57620000Y-105247120D01*
X58020715Y-105167413D01*
X58360426Y-104940426D01*
X58587413Y-104600715D01*
X58647000Y-104301149D01*
X58647000Y-103298850D01*
X58587413Y-102999285D01*
X58360426Y-102659574D01*
X58020714Y-102432587D01*
X57620000Y-102352880D01*
X57219285Y-102432587D01*
X56879574Y-102659574D01*
X56652587Y-102999286D01*
X56593000Y-103298851D01*
X56107000Y-103298851D01*
X56107000Y-103298850D01*
X56047413Y-102999285D01*
X55820426Y-102659574D01*
X55480714Y-102432587D01*
X55080000Y-102352880D01*
X54679285Y-102432587D01*
X54339574Y-102659574D01*
X54112587Y-102999286D01*
X54053000Y-103298851D01*
X53567000Y-103298851D01*
X53567000Y-103298850D01*
X53507413Y-102999285D01*
X53280426Y-102659574D01*
X52940714Y-102432587D01*
X52540000Y-102352880D01*
X52139285Y-102432587D01*
X51799574Y-102659574D01*
X51572587Y-102999286D01*
X51513000Y-103298851D01*
X51027000Y-103298851D01*
X51027000Y-103298850D01*
X50967413Y-102999285D01*
X50740426Y-102659574D01*
X50400714Y-102432587D01*
X50000000Y-102352880D01*
X49599285Y-102432587D01*
X49259574Y-102659574D01*
X49032587Y-102999286D01*
X48973000Y-103298851D01*
X46002000Y-103298851D01*
X46002000Y-93498851D01*
X48973000Y-93498851D01*
X48973000Y-94501150D01*
X49032588Y-94800715D01*
X49259575Y-95140426D01*
X49599286Y-95367413D01*
X50000000Y-95447120D01*
X50400715Y-95367413D01*
X50740426Y-95140426D01*
X50967413Y-94800715D01*
X51027000Y-94501149D01*
X51027000Y-93498851D01*
X51513000Y-93498851D01*
X51513000Y-94501150D01*
X51572588Y-94800715D01*
X51799575Y-95140426D01*
X52139286Y-95367413D01*
X52540000Y-95447120D01*
X52940715Y-95367413D01*
X53280426Y-95140426D01*
X53507413Y-94800715D01*
X53567000Y-94501149D01*
X53567000Y-93498851D01*
X54053000Y-93498851D01*
X54053000Y-94501150D01*
X54112588Y-94800715D01*
X54339575Y-95140426D01*
X54679286Y-95367413D01*
X55080000Y-95447120D01*
X55480715Y-95367413D01*
X55820426Y-95140426D01*
X56047413Y-94800715D01*
X56107000Y-94501149D01*
X56107000Y-93498851D01*
X56593000Y-93498851D01*
X56593000Y-94501150D01*
X56652588Y-94800715D01*
X56879575Y-95140426D01*
X57219286Y-95367413D01*
X57620000Y-95447120D01*
X58020715Y-95367413D01*
X58360426Y-95140426D01*
X58587413Y-94800715D01*
X58647000Y-94501149D01*
X58647000Y-93498851D01*
X59133000Y-93498851D01*
X59133000Y-94501150D01*
X59192588Y-94800715D01*
X59419575Y-95140426D01*
X59759286Y-95367413D01*
X60160000Y-95447120D01*
X60560715Y-95367413D01*
X60900426Y-95140426D01*
X61127413Y-94800715D01*
X61187000Y-94501149D01*
X61187000Y-93498851D01*
X61673000Y-93498851D01*
X61673000Y-94501150D01*
X61732588Y-94800715D01*
X61959575Y-95140426D01*
X62299286Y-95367413D01*
X62700000Y-95447120D01*
X63100715Y-95367413D01*
X63440426Y-95140426D01*
X63667413Y-94800715D01*
X63727000Y-94501149D01*
X63727000Y-93498850D01*
X63667413Y-93199285D01*
X63440426Y-92859574D01*
X63100714Y-92632587D01*
X62700000Y-92552880D01*
X62299285Y-92632587D01*
X61959574Y-92859574D01*
X61732587Y-93199286D01*
X61673000Y-93498851D01*
X61187000Y-93498851D01*
X61187000Y-93498850D01*
X61127413Y-93199285D01*
X60900426Y-92859574D01*
X60560714Y-92632587D01*
X60160000Y-92552880D01*
X59759285Y-92632587D01*
X59419574Y-92859574D01*
X59192587Y-93199286D01*
X59133000Y-93498851D01*
X58647000Y-93498851D01*
X58647000Y-93498850D01*
X58587413Y-93199285D01*
X58360426Y-92859574D01*
X58020714Y-92632587D01*
X57620000Y-92552880D01*
X57219285Y-92632587D01*
X56879574Y-92859574D01*
X56652587Y-93199286D01*
X56593000Y-93498851D01*
X56107000Y-93498851D01*
X56107000Y-93498850D01*
X56047413Y-93199285D01*
X55820426Y-92859574D01*
X55480714Y-92632587D01*
X55080000Y-92552880D01*
X54679285Y-92632587D01*
X54339574Y-92859574D01*
X54112587Y-93199286D01*
X54053000Y-93498851D01*
X53567000Y-93498851D01*
X53567000Y-93498850D01*
X53507413Y-93199285D01*
X53280426Y-92859574D01*
X52940714Y-92632587D01*
X52540000Y-92552880D01*
X52139285Y-92632587D01*
X51799574Y-92859574D01*
X51572587Y-93199286D01*
X51513000Y-93498851D01*
X51027000Y-93498851D01*
X51027000Y-93498850D01*
X50967413Y-93199285D01*
X50740426Y-92859574D01*
X50400714Y-92632587D01*
X50000000Y-92552880D01*
X49599285Y-92632587D01*
X49259574Y-92859574D01*
X49032587Y-93199286D01*
X48973000Y-93498851D01*
X46002000Y-93498851D01*
X46002000Y-71453750D01*
X46573000Y-71453750D01*
X46573000Y-72304936D01*
X46638007Y-72461876D01*
X46758124Y-72581993D01*
X46915065Y-72647000D01*
X47094916Y-72647000D01*
X46790247Y-72951669D01*
X46573000Y-73476152D01*
X46573000Y-74043848D01*
X46790247Y-74568331D01*
X47191669Y-74969753D01*
X47337119Y-75030000D01*
X47191669Y-75090247D01*
X46790247Y-75491669D01*
X46573000Y-76016152D01*
X46573000Y-76583848D01*
X46790247Y-77108331D01*
X47191669Y-77509753D01*
X47337119Y-77570000D01*
X47191669Y-77630247D01*
X46790247Y-78031669D01*
X46573000Y-78556152D01*
X46573000Y-79123848D01*
X46790247Y-79648331D01*
X47191669Y-80049753D01*
X47337119Y-80110000D01*
X47191669Y-80170247D01*
X46790247Y-80571669D01*
X46573000Y-81096152D01*
X46573000Y-81663848D01*
X46790247Y-82188331D01*
X47191669Y-82589753D01*
X47337119Y-82650000D01*
X47191669Y-82710247D01*
X46790247Y-83111669D01*
X46573000Y-83636152D01*
X46573000Y-84203848D01*
X46790247Y-84728331D01*
X47191669Y-85129753D01*
X47337119Y-85190000D01*
X47191669Y-85250247D01*
X46790247Y-85651669D01*
X46573000Y-86176152D01*
X46573000Y-86743848D01*
X46790247Y-87268331D01*
X47191669Y-87669753D01*
X47337119Y-87730000D01*
X47191669Y-87790247D01*
X46790247Y-88191669D01*
X46573000Y-88716152D01*
X46573000Y-89283848D01*
X46790247Y-89808331D01*
X47191669Y-90209753D01*
X47716152Y-90427000D01*
X48283848Y-90427000D01*
X48808331Y-90209753D01*
X49209753Y-89808331D01*
X49427000Y-89283848D01*
X49427000Y-88716152D01*
X49209753Y-88191669D01*
X48808331Y-87790247D01*
X48662881Y-87730000D01*
X48808331Y-87669753D01*
X49209753Y-87268331D01*
X49427000Y-86743848D01*
X49427000Y-86176152D01*
X49209753Y-85651669D01*
X48808331Y-85250247D01*
X48662881Y-85190000D01*
X48808331Y-85129753D01*
X49209753Y-84728331D01*
X49427000Y-84203848D01*
X49427000Y-83636152D01*
X49209753Y-83111669D01*
X48808331Y-82710247D01*
X48662881Y-82650000D01*
X48808331Y-82589753D01*
X49209753Y-82188331D01*
X49427000Y-81663848D01*
X49427000Y-81096152D01*
X49209753Y-80571669D01*
X48808331Y-80170247D01*
X48662881Y-80110000D01*
X48808331Y-80049753D01*
X49209753Y-79648331D01*
X49427000Y-79123848D01*
X49427000Y-78556152D01*
X49209753Y-78031669D01*
X48808331Y-77630247D01*
X48662881Y-77570000D01*
X48808331Y-77509753D01*
X49209753Y-77108331D01*
X49427000Y-76583848D01*
X49427000Y-76016152D01*
X49209753Y-75491669D01*
X48808331Y-75090247D01*
X48662881Y-75030000D01*
X48808331Y-74969753D01*
X49209753Y-74568331D01*
X49427000Y-74043848D01*
X49427000Y-73935499D01*
X51173000Y-73935499D01*
X51173000Y-74264501D01*
X51298903Y-74568458D01*
X51531542Y-74801097D01*
X51835499Y-74927000D01*
X52097408Y-74927000D01*
X60699274Y-83528866D01*
X60728057Y-83571943D01*
X60898706Y-83685967D01*
X61049189Y-83715900D01*
X61049193Y-83715900D01*
X61099999Y-83726006D01*
X61150805Y-83715900D01*
X62846345Y-83715900D01*
X62914545Y-83784100D01*
X58450811Y-83784100D01*
X58400000Y-83773993D01*
X58198706Y-83814033D01*
X58112038Y-83871943D01*
X58028057Y-83928057D01*
X57999276Y-83971131D01*
X56097408Y-85873000D01*
X55835499Y-85873000D01*
X55531542Y-85998903D01*
X55298903Y-86231542D01*
X55173000Y-86535499D01*
X55173000Y-86864501D01*
X55298903Y-87168458D01*
X55531542Y-87401097D01*
X55835499Y-87527000D01*
X56164501Y-87527000D01*
X56468458Y-87401097D01*
X56700000Y-87169555D01*
X56831542Y-87301097D01*
X57135499Y-87427000D01*
X57348669Y-87427000D01*
X57420052Y-87599335D01*
X57652691Y-87831974D01*
X57956648Y-87957877D01*
X58285650Y-87957877D01*
X58589607Y-87831974D01*
X58822246Y-87599335D01*
X58896579Y-87419878D01*
X59102150Y-87419878D01*
X59406107Y-87293975D01*
X59591304Y-87108778D01*
X67156316Y-87108778D01*
X67207122Y-87118884D01*
X67239437Y-87112456D01*
X67237247Y-87123467D01*
X67247354Y-87174278D01*
X67247353Y-90420146D01*
X66228811Y-91438689D01*
X66185737Y-91467470D01*
X66156956Y-91510544D01*
X66156954Y-91510546D01*
X66071713Y-91638119D01*
X66031673Y-91839413D01*
X66041780Y-91890224D01*
X66041780Y-92951397D01*
X65980426Y-92859574D01*
X65640714Y-92632587D01*
X65240000Y-92552880D01*
X64839285Y-92632587D01*
X64499574Y-92859574D01*
X64272587Y-93199286D01*
X64213000Y-93498851D01*
X64213000Y-94501150D01*
X64272588Y-94800715D01*
X64499575Y-95140426D01*
X64839286Y-95367413D01*
X65240000Y-95447120D01*
X65640715Y-95367413D01*
X65980426Y-95140426D01*
X66041779Y-95048604D01*
X66041779Y-96010829D01*
X59831132Y-102221476D01*
X59788058Y-102250257D01*
X59759277Y-102293331D01*
X59759275Y-102293333D01*
X59674034Y-102420906D01*
X59658287Y-102500072D01*
X59419574Y-102659574D01*
X59192587Y-102999286D01*
X59133000Y-103298851D01*
X59133000Y-104301150D01*
X59192588Y-104600715D01*
X59419575Y-104940426D01*
X59658287Y-105099928D01*
X59674034Y-105179094D01*
X59759275Y-105306667D01*
X59759276Y-105306668D01*
X59788058Y-105349743D01*
X59831132Y-105378524D01*
X64584100Y-110131493D01*
X64584101Y-129294778D01*
X63333201Y-130545679D01*
X63290127Y-130574460D01*
X63204812Y-130702143D01*
X63100714Y-130632587D01*
X62700000Y-130552880D01*
X62299285Y-130632587D01*
X61959574Y-130859574D01*
X61732587Y-131199286D01*
X61673000Y-131498851D01*
X61673000Y-132501150D01*
X61732588Y-132800715D01*
X61959575Y-133140426D01*
X62299286Y-133367413D01*
X62700000Y-133447120D01*
X63100715Y-133367413D01*
X63204812Y-133297858D01*
X63261347Y-133382468D01*
X63261349Y-133382470D01*
X63290130Y-133425544D01*
X63333204Y-133454325D01*
X64012879Y-134134001D01*
X64012880Y-136039727D01*
X59831134Y-140221474D01*
X59788057Y-140250257D01*
X59674033Y-140420907D01*
X59658286Y-140500072D01*
X59419574Y-140659574D01*
X59192587Y-140999286D01*
X59133000Y-141298851D01*
X59133000Y-142301150D01*
X59192588Y-142600715D01*
X59419575Y-142940426D01*
X59759286Y-143167413D01*
X60160000Y-143247120D01*
X60560715Y-143167413D01*
X60900426Y-142940426D01*
X61127413Y-142600715D01*
X61187000Y-142301149D01*
X61187000Y-141298850D01*
X61127413Y-140999285D01*
X60900426Y-140659574D01*
X60871527Y-140640265D01*
X64368491Y-137143302D01*
X64368491Y-138224116D01*
X62371134Y-140221474D01*
X62328057Y-140250257D01*
X62214033Y-140420907D01*
X62198286Y-140500072D01*
X61959574Y-140659574D01*
X61732587Y-140999286D01*
X61673000Y-141298851D01*
X61673000Y-142301150D01*
X61732588Y-142600715D01*
X61959575Y-142940426D01*
X62299286Y-143167413D01*
X62700000Y-143247120D01*
X63100715Y-143167413D01*
X63440426Y-142940426D01*
X63667413Y-142600715D01*
X63727000Y-142301149D01*
X63727000Y-141298850D01*
X63667413Y-140999285D01*
X63440426Y-140659574D01*
X63411527Y-140640265D01*
X64724101Y-139327692D01*
X64724101Y-140509550D01*
X64499574Y-140659574D01*
X64272587Y-140999286D01*
X64213000Y-141298851D01*
X64213000Y-142301150D01*
X64272588Y-142600715D01*
X64499575Y-142940426D01*
X64839286Y-143167413D01*
X65240000Y-143247120D01*
X65640715Y-143167413D01*
X65980426Y-142940426D01*
X66207413Y-142600715D01*
X66267000Y-142301149D01*
X66267000Y-141298850D01*
X66207413Y-140999285D01*
X65980426Y-140659574D01*
X65755900Y-140509551D01*
X65755900Y-139322624D01*
X65766105Y-139337897D01*
X65766107Y-139337899D01*
X65794888Y-139380973D01*
X65837962Y-139409754D01*
X67068472Y-140640265D01*
X67039574Y-140659574D01*
X66812587Y-140999286D01*
X66753000Y-141298851D01*
X66753000Y-142301150D01*
X66812588Y-142600715D01*
X67039575Y-142940426D01*
X67379286Y-143167413D01*
X67780000Y-143247120D01*
X68180715Y-143167413D01*
X68520426Y-142940426D01*
X68747413Y-142600715D01*
X68807000Y-142301149D01*
X68807000Y-141298850D01*
X68747413Y-140999285D01*
X68520426Y-140659574D01*
X68281714Y-140500073D01*
X68265967Y-140420906D01*
X68213696Y-140342677D01*
X68180725Y-140293332D01*
X68180724Y-140293331D01*
X68151943Y-140250257D01*
X68108869Y-140221476D01*
X66682730Y-138795338D01*
X66682730Y-137714522D01*
X69608472Y-140640265D01*
X69579574Y-140659574D01*
X69352587Y-140999286D01*
X69293000Y-141298851D01*
X69293000Y-142301150D01*
X69352588Y-142600715D01*
X69579575Y-142940426D01*
X69919286Y-143167413D01*
X70320000Y-143247120D01*
X70720715Y-143167413D01*
X71060426Y-142940426D01*
X71287413Y-142600715D01*
X71347000Y-142301149D01*
X71347000Y-141298850D01*
X71287413Y-140999285D01*
X71060426Y-140659574D01*
X70821714Y-140500073D01*
X70805967Y-140420906D01*
X70720725Y-140293332D01*
X70720724Y-140293331D01*
X70691943Y-140250257D01*
X70648869Y-140221476D01*
X67038338Y-136610946D01*
X67038338Y-133138575D01*
X67039575Y-133140426D01*
X67379286Y-133367413D01*
X67780000Y-133447120D01*
X68180715Y-133367413D01*
X68520426Y-133140426D01*
X68747413Y-132800715D01*
X68807000Y-132501149D01*
X68807000Y-131498850D01*
X68747413Y-131199285D01*
X68520426Y-130859574D01*
X68180714Y-130632587D01*
X67780000Y-130552880D01*
X67379285Y-130632587D01*
X67039574Y-130859574D01*
X67038338Y-130861424D01*
X67038338Y-108989054D01*
X70648869Y-105378524D01*
X70691943Y-105349743D01*
X70720726Y-105306667D01*
X70805967Y-105179094D01*
X70821714Y-105099928D01*
X71060426Y-104940426D01*
X71287413Y-104600715D01*
X71347000Y-104301149D01*
X71347000Y-103298850D01*
X71287413Y-102999285D01*
X71060426Y-102659574D01*
X70821714Y-102500073D01*
X70805967Y-102420906D01*
X70720725Y-102293332D01*
X70720724Y-102293331D01*
X70691943Y-102250257D01*
X70648868Y-102221475D01*
X69969191Y-101541799D01*
X69969191Y-95377340D01*
X70320000Y-95447120D01*
X70670809Y-95377340D01*
X70670809Y-96823921D01*
X70660703Y-96874727D01*
X70670809Y-96925533D01*
X70670809Y-96925537D01*
X70700742Y-97076020D01*
X70814766Y-97246670D01*
X70857843Y-97275453D01*
X72344101Y-98761712D01*
X72344100Y-102509551D01*
X72119574Y-102659574D01*
X71892587Y-102999286D01*
X71833000Y-103298851D01*
X71833000Y-104301150D01*
X71892588Y-104600715D01*
X72119575Y-104940426D01*
X72148473Y-104959735D01*
X70857843Y-106250365D01*
X70814766Y-106279148D01*
X70700742Y-106449798D01*
X70670809Y-106600281D01*
X70670809Y-106600285D01*
X70660703Y-106651091D01*
X70670809Y-106701897D01*
X70670810Y-130622660D01*
X70320000Y-130552880D01*
X69919285Y-130632587D01*
X69579574Y-130859574D01*
X69352587Y-131199286D01*
X69293000Y-131498851D01*
X69293000Y-132501150D01*
X69352588Y-132800715D01*
X69579575Y-133140426D01*
X69919286Y-133367413D01*
X70320000Y-133447120D01*
X70670810Y-133377340D01*
X70670810Y-138898098D01*
X70660703Y-138948909D01*
X70700743Y-139150203D01*
X70785984Y-139277776D01*
X70785986Y-139277778D01*
X70814767Y-139320852D01*
X70857841Y-139349633D01*
X72148472Y-140640265D01*
X72119574Y-140659574D01*
X71892587Y-140999286D01*
X71833000Y-141298851D01*
X71833000Y-142301150D01*
X71892588Y-142600715D01*
X72119575Y-142940426D01*
X72459286Y-143167413D01*
X72860000Y-143247120D01*
X73260715Y-143167413D01*
X73600426Y-142940426D01*
X73827413Y-142600715D01*
X73887000Y-142301149D01*
X73887000Y-141298850D01*
X73827413Y-140999285D01*
X73600426Y-140659574D01*
X73361714Y-140500073D01*
X73345967Y-140420906D01*
X73345967Y-140420905D01*
X73260725Y-140293332D01*
X73260724Y-140293331D01*
X73231943Y-140250257D01*
X73188869Y-140221476D01*
X71702609Y-138735217D01*
X71702609Y-137654401D01*
X74688472Y-140640265D01*
X74659574Y-140659574D01*
X74432587Y-140999286D01*
X74373000Y-141298851D01*
X74373000Y-142301150D01*
X74432588Y-142600715D01*
X74659575Y-142940426D01*
X74999286Y-143167413D01*
X75400000Y-143247120D01*
X75800715Y-143167413D01*
X76140426Y-142940426D01*
X76367413Y-142600715D01*
X76427000Y-142301149D01*
X76427000Y-141298850D01*
X76367413Y-140999285D01*
X76140426Y-140659574D01*
X75901714Y-140500073D01*
X75885967Y-140420906D01*
X75885967Y-140420905D01*
X75800725Y-140293332D01*
X75800724Y-140293331D01*
X75771943Y-140250257D01*
X75728869Y-140221476D01*
X72058219Y-136550827D01*
X72058219Y-135470011D01*
X77228472Y-140640265D01*
X77199574Y-140659574D01*
X76972587Y-140999286D01*
X76913000Y-141298851D01*
X76913000Y-142301150D01*
X76972588Y-142600715D01*
X77199575Y-142940426D01*
X77539286Y-143167413D01*
X77940000Y-143247120D01*
X78340715Y-143167413D01*
X78680426Y-142940426D01*
X78907413Y-142600715D01*
X78967000Y-142301149D01*
X78967000Y-141298850D01*
X78907413Y-140999285D01*
X78680426Y-140659574D01*
X78441714Y-140500073D01*
X78425967Y-140420906D01*
X78373696Y-140342677D01*
X78340725Y-140293332D01*
X78340724Y-140293331D01*
X78311943Y-140250257D01*
X78268869Y-140221476D01*
X72413828Y-134366436D01*
X72413828Y-133337039D01*
X72459286Y-133367413D01*
X72860000Y-133447120D01*
X73260715Y-133367413D01*
X73600426Y-133140426D01*
X73827413Y-132800715D01*
X73887000Y-132501149D01*
X73887000Y-131498851D01*
X74373000Y-131498851D01*
X74373000Y-132501150D01*
X74432588Y-132800715D01*
X74659575Y-133140426D01*
X74999286Y-133367413D01*
X75400000Y-133447120D01*
X75800715Y-133367413D01*
X76140426Y-133140426D01*
X76367413Y-132800715D01*
X76427000Y-132501149D01*
X76427000Y-131498851D01*
X76913000Y-131498851D01*
X76913000Y-132501150D01*
X76972588Y-132800715D01*
X77199575Y-133140426D01*
X77539286Y-133367413D01*
X77940000Y-133447120D01*
X78340715Y-133367413D01*
X78680426Y-133140426D01*
X78907413Y-132800715D01*
X78967000Y-132501149D01*
X78967000Y-131498850D01*
X78907413Y-131199285D01*
X78680426Y-130859574D01*
X78340714Y-130632587D01*
X77940000Y-130552880D01*
X77539285Y-130632587D01*
X77199574Y-130859574D01*
X76972587Y-131199286D01*
X76913000Y-131498851D01*
X76427000Y-131498851D01*
X76427000Y-131498850D01*
X76367413Y-131199285D01*
X76140426Y-130859574D01*
X75800714Y-130632587D01*
X75400000Y-130552880D01*
X74999285Y-130632587D01*
X74659574Y-130859574D01*
X74432587Y-131199286D01*
X74373000Y-131498851D01*
X73887000Y-131498851D01*
X73887000Y-131498850D01*
X73827413Y-131199285D01*
X73600426Y-130859574D01*
X73260714Y-130632587D01*
X72860000Y-130552880D01*
X72459285Y-130632587D01*
X72413828Y-130662960D01*
X72413828Y-107918672D01*
X74803808Y-105528693D01*
X74839701Y-105552676D01*
X74839702Y-105552676D01*
X74839703Y-105552677D01*
X74990186Y-105582610D01*
X74990190Y-105582610D01*
X75040996Y-105592716D01*
X75091803Y-105582610D01*
X75708197Y-105582610D01*
X75759003Y-105592716D01*
X75809809Y-105582610D01*
X75809814Y-105582610D01*
X75960297Y-105552677D01*
X76130946Y-105438653D01*
X76159729Y-105395576D01*
X76595578Y-104959728D01*
X76638653Y-104930946D01*
X76752677Y-104760297D01*
X76782610Y-104609814D01*
X76782610Y-104609810D01*
X76792716Y-104559004D01*
X76782610Y-104508198D01*
X76782610Y-104315900D01*
X76915934Y-104315900D01*
X76972588Y-104600715D01*
X77199575Y-104940426D01*
X77539286Y-105167413D01*
X77940000Y-105247120D01*
X78340715Y-105167413D01*
X78680426Y-104940426D01*
X78907413Y-104600715D01*
X78967000Y-104301149D01*
X78967000Y-103298850D01*
X78907413Y-102999285D01*
X78680426Y-102659574D01*
X78441714Y-102500073D01*
X78425967Y-102420906D01*
X78311943Y-102250257D01*
X78268866Y-102221474D01*
X72413830Y-96366438D01*
X72413830Y-95337040D01*
X72459286Y-95367413D01*
X72860000Y-95447120D01*
X73260715Y-95367413D01*
X73600426Y-95140426D01*
X73827413Y-94800715D01*
X73887000Y-94501149D01*
X73887000Y-93498851D01*
X74373000Y-93498851D01*
X74373000Y-94501150D01*
X74432588Y-94800715D01*
X74659575Y-95140426D01*
X74999286Y-95367413D01*
X75400000Y-95447120D01*
X75800715Y-95367413D01*
X76140426Y-95140426D01*
X76367413Y-94800715D01*
X76427000Y-94501149D01*
X76427000Y-93498851D01*
X76913000Y-93498851D01*
X76913000Y-94501150D01*
X76972588Y-94800715D01*
X77199575Y-95140426D01*
X77539286Y-95367413D01*
X77940000Y-95447120D01*
X78340715Y-95367413D01*
X78680426Y-95140426D01*
X78907413Y-94800715D01*
X78967000Y-94501149D01*
X78967000Y-93498850D01*
X78907413Y-93199285D01*
X78680426Y-92859574D01*
X78340714Y-92632587D01*
X77940000Y-92552880D01*
X77539285Y-92632587D01*
X77199574Y-92859574D01*
X76972587Y-93199286D01*
X76913000Y-93498851D01*
X76427000Y-93498851D01*
X76427000Y-93498850D01*
X76367413Y-93199285D01*
X76140426Y-92859574D01*
X75800714Y-92632587D01*
X75400000Y-92552880D01*
X74999285Y-92632587D01*
X74659574Y-92859574D01*
X74432587Y-93199286D01*
X74373000Y-93498851D01*
X73887000Y-93498851D01*
X73887000Y-93498850D01*
X73827413Y-93199285D01*
X73600426Y-92859574D01*
X73260714Y-92632587D01*
X72860000Y-92552880D01*
X72459285Y-92632587D01*
X72413830Y-92662959D01*
X72413830Y-79965774D01*
X72501056Y-79878548D01*
X72544133Y-79849765D01*
X72658157Y-79679116D01*
X72688090Y-79528633D01*
X72688090Y-79528629D01*
X72698196Y-79477823D01*
X72688090Y-79427017D01*
X72688090Y-76945702D01*
X72873287Y-76760505D01*
X72999190Y-76456548D01*
X72999190Y-76194639D01*
X75240091Y-73953739D01*
X75283165Y-73924958D01*
X75397189Y-73754309D01*
X75427122Y-73603826D01*
X75427122Y-73603822D01*
X75437228Y-73553016D01*
X75427122Y-73502210D01*
X75427122Y-70420869D01*
X75500000Y-70435365D01*
X75923001Y-70435365D01*
X75923000Y-78743172D01*
X75911696Y-78800000D01*
X75923000Y-78856828D01*
X75956478Y-79025133D01*
X76084006Y-79215994D01*
X76132188Y-79248188D01*
X78283999Y-81400000D01*
X74311000Y-85373000D01*
X74015608Y-85373000D01*
X73674897Y-85514127D01*
X73414127Y-85774897D01*
X73273000Y-86115608D01*
X73273000Y-86484392D01*
X73414127Y-86825103D01*
X73674897Y-87085873D01*
X74015608Y-87227000D01*
X74384392Y-87227000D01*
X74725103Y-87085873D01*
X74985873Y-86825103D01*
X75127000Y-86484392D01*
X75127000Y-86189000D01*
X79467819Y-81848182D01*
X79515993Y-81815993D01*
X79548182Y-81767819D01*
X79548184Y-81767817D01*
X79643521Y-81625135D01*
X79688304Y-81400001D01*
X79664297Y-81279311D01*
X79643521Y-81174865D01*
X79548184Y-81032183D01*
X79548181Y-81032180D01*
X79515993Y-80984007D01*
X79467820Y-80951819D01*
X77077000Y-78561000D01*
X77077000Y-70435365D01*
X77500000Y-70435365D01*
X77666607Y-70402225D01*
X77807850Y-70307850D01*
X77902225Y-70166607D01*
X77927629Y-70038890D01*
X78180715Y-70038890D01*
X78290807Y-70247241D01*
X78825134Y-70439005D01*
X79392173Y-70411692D01*
X79789193Y-70247241D01*
X79899285Y-70038890D01*
X79040000Y-69179605D01*
X78180715Y-70038890D01*
X77927629Y-70038890D01*
X77935365Y-70000000D01*
X77935365Y-69824546D01*
X78001110Y-69859285D01*
X78860395Y-69000000D01*
X79219605Y-69000000D01*
X80078890Y-69859285D01*
X80287241Y-69749193D01*
X80479005Y-69214866D01*
X80451692Y-68647827D01*
X80287241Y-68250807D01*
X80078890Y-68140715D01*
X79219605Y-69000000D01*
X78860395Y-69000000D01*
X78001110Y-68140715D01*
X77935365Y-68175454D01*
X77935365Y-68000000D01*
X77927630Y-67961110D01*
X78180715Y-67961110D01*
X79040000Y-68820395D01*
X79899285Y-67961110D01*
X79789193Y-67752759D01*
X79254866Y-67560995D01*
X78687827Y-67588308D01*
X78290807Y-67752759D01*
X78180715Y-67961110D01*
X77927630Y-67961110D01*
X77902225Y-67833393D01*
X77807850Y-67692150D01*
X77666607Y-67597775D01*
X77500000Y-67564635D01*
X76127157Y-67564635D01*
X77020048Y-66671745D01*
X77199575Y-66940426D01*
X77539286Y-67167413D01*
X77940000Y-67247120D01*
X78340715Y-67167413D01*
X78680426Y-66940426D01*
X78907413Y-66600715D01*
X78967000Y-66301149D01*
X78967000Y-65298850D01*
X78907413Y-64999285D01*
X78680426Y-64659574D01*
X78455900Y-64509551D01*
X78455900Y-60284993D01*
X78466007Y-60234182D01*
X78425967Y-60032888D01*
X78340725Y-59905314D01*
X78340724Y-59905313D01*
X78311943Y-59862239D01*
X78268868Y-59833458D01*
X77138221Y-58702811D01*
X77138221Y-57048603D01*
X77199575Y-57140426D01*
X77539286Y-57367413D01*
X77940000Y-57447120D01*
X78340715Y-57367413D01*
X78680426Y-57140426D01*
X78907413Y-56800715D01*
X78967000Y-56501149D01*
X78967000Y-55498850D01*
X78907413Y-55199285D01*
X78680426Y-54859574D01*
X78340714Y-54632587D01*
X77940000Y-54552880D01*
X77539285Y-54632587D01*
X77199574Y-54859574D01*
X77124197Y-54972384D01*
X77108288Y-54892405D01*
X77027156Y-54770982D01*
X77023046Y-54764831D01*
X77023045Y-54764830D01*
X76994264Y-54721756D01*
X76951190Y-54692975D01*
X74801511Y-52543297D01*
X74801511Y-41596805D01*
X75973000Y-41596805D01*
X75973000Y-42403195D01*
X76281593Y-43148203D01*
X76851797Y-43718407D01*
X77596805Y-44027000D01*
X78403195Y-44027000D01*
X79148203Y-43718407D01*
X79718407Y-43148203D01*
X80027000Y-42403195D01*
X80027000Y-41596805D01*
X79718407Y-40851797D01*
X79148203Y-40281593D01*
X78403195Y-39973000D01*
X77596805Y-39973000D01*
X76851797Y-40281593D01*
X76281593Y-40851797D01*
X75973000Y-41596805D01*
X74801511Y-41596805D01*
X74801511Y-32845881D01*
X78268866Y-29378526D01*
X78311943Y-29349743D01*
X78425967Y-29179094D01*
X78441714Y-29099928D01*
X78680426Y-28940426D01*
X78907413Y-28600715D01*
X78967000Y-28301149D01*
X78967000Y-27298850D01*
X78907413Y-26999285D01*
X78680426Y-26659574D01*
X78340714Y-26432587D01*
X77940000Y-26352880D01*
X77539285Y-26432587D01*
X77199574Y-26659574D01*
X76972587Y-26999286D01*
X76913000Y-27298851D01*
X76913000Y-28301150D01*
X76972588Y-28600715D01*
X77199575Y-28940426D01*
X77228473Y-28959735D01*
X75915900Y-30272308D01*
X75915900Y-29090449D01*
X76140426Y-28940426D01*
X76367413Y-28600715D01*
X76427000Y-28301149D01*
X76427000Y-27298850D01*
X76367413Y-26999285D01*
X76140426Y-26659574D01*
X75800714Y-26432587D01*
X75400000Y-26352880D01*
X74999285Y-26432587D01*
X74659574Y-26659574D01*
X74432587Y-26999286D01*
X74373000Y-27298851D01*
X74373000Y-28301150D01*
X74432588Y-28600715D01*
X74659575Y-28940426D01*
X74884101Y-29090449D01*
X74884100Y-30801198D01*
X73601132Y-32084167D01*
X73558058Y-32112948D01*
X73529277Y-32156022D01*
X73529275Y-32156024D01*
X73444034Y-32283597D01*
X73403994Y-32484891D01*
X73414101Y-32535702D01*
X73414100Y-52427986D01*
X73371245Y-52410235D01*
X73042243Y-52410235D01*
X72738286Y-52536138D01*
X72738212Y-52536212D01*
X72738212Y-52430794D01*
X72748319Y-52379983D01*
X72708279Y-52178689D01*
X72666791Y-52116598D01*
X72594255Y-52008040D01*
X72551178Y-51979257D01*
X72427122Y-51855201D01*
X72427122Y-48559119D01*
X72437228Y-48508313D01*
X72427122Y-48457507D01*
X72427122Y-48457502D01*
X72397189Y-48307019D01*
X72330961Y-48207902D01*
X72311947Y-48179445D01*
X72311946Y-48179444D01*
X72283165Y-48136370D01*
X72240090Y-48107588D01*
X72075900Y-47943399D01*
X72075900Y-30491492D01*
X73188869Y-29378524D01*
X73231943Y-29349743D01*
X73300514Y-29247120D01*
X73345967Y-29179094D01*
X73361714Y-29099928D01*
X73600426Y-28940426D01*
X73827413Y-28600715D01*
X73887000Y-28301149D01*
X73887000Y-27298850D01*
X73827413Y-26999285D01*
X73600426Y-26659574D01*
X73260714Y-26432587D01*
X72860000Y-26352880D01*
X72459285Y-26432587D01*
X72119574Y-26659574D01*
X71892587Y-26999286D01*
X71833000Y-27298851D01*
X71833000Y-28301150D01*
X71892588Y-28600715D01*
X72119575Y-28940426D01*
X72148473Y-28959735D01*
X71231132Y-29877076D01*
X71188058Y-29905857D01*
X71159277Y-29948931D01*
X71159275Y-29948933D01*
X71074034Y-30076506D01*
X71033994Y-30277800D01*
X71044101Y-30328611D01*
X71044100Y-48106285D01*
X71033994Y-48157091D01*
X71044100Y-48207897D01*
X71044100Y-48207901D01*
X71074033Y-48358384D01*
X71188057Y-48529034D01*
X71231134Y-48557817D01*
X71395323Y-48722006D01*
X71395323Y-49390403D01*
X71374877Y-49287616D01*
X71289635Y-49160042D01*
X71289634Y-49160041D01*
X71260853Y-49116967D01*
X71217779Y-49088186D01*
X71127000Y-48997407D01*
X71127000Y-48735499D01*
X71001097Y-48431542D01*
X70768458Y-48198903D01*
X70464501Y-48073000D01*
X70135499Y-48073000D01*
X69831542Y-48198903D01*
X69605900Y-48424545D01*
X69605900Y-30421492D01*
X70648869Y-29378524D01*
X70691943Y-29349743D01*
X70760514Y-29247120D01*
X70805967Y-29179094D01*
X70821714Y-29099928D01*
X71060426Y-28940426D01*
X71287413Y-28600715D01*
X71347000Y-28301149D01*
X71347000Y-27298850D01*
X71287413Y-26999285D01*
X71060426Y-26659574D01*
X70720714Y-26432587D01*
X70320000Y-26352880D01*
X69919285Y-26432587D01*
X69579574Y-26659574D01*
X69352587Y-26999286D01*
X69293000Y-27298851D01*
X69293000Y-28301150D01*
X69352588Y-28600715D01*
X69579575Y-28940426D01*
X69608473Y-28959735D01*
X68761132Y-29807076D01*
X68718058Y-29835857D01*
X68689277Y-29878931D01*
X68689275Y-29878933D01*
X68604034Y-30006506D01*
X68563994Y-30207800D01*
X68574101Y-30258611D01*
X68574100Y-48852474D01*
X68563994Y-48903280D01*
X68574100Y-48954086D01*
X68574100Y-48954090D01*
X68604033Y-49104573D01*
X68718057Y-49275223D01*
X68761134Y-49304006D01*
X68848858Y-49391730D01*
X68831542Y-49398903D01*
X68598903Y-49631542D01*
X68473000Y-49935499D01*
X68473000Y-50264501D01*
X68598903Y-50568458D01*
X68793328Y-50762883D01*
X68814034Y-50866979D01*
X68899275Y-50994552D01*
X68899277Y-50994554D01*
X68913146Y-51015311D01*
X68913147Y-53457261D01*
X68673455Y-53696953D01*
X68630378Y-53725736D01*
X68516354Y-53896386D01*
X68486421Y-54046869D01*
X68486421Y-54046873D01*
X68476315Y-54097679D01*
X68486421Y-54148485D01*
X68486421Y-54351116D01*
X66951963Y-52816658D01*
X66923180Y-52773581D01*
X66752531Y-52659557D01*
X66602048Y-52629624D01*
X66602043Y-52629624D01*
X66551237Y-52619518D01*
X66500431Y-52629624D01*
X65662232Y-52629624D01*
X65421480Y-52388872D01*
X65421480Y-52176220D01*
X65465957Y-52131744D01*
X65482666Y-52131744D01*
X65533472Y-52141850D01*
X65584278Y-52131744D01*
X65584283Y-52131744D01*
X65734766Y-52101811D01*
X65905415Y-51987787D01*
X65934198Y-51944710D01*
X68108866Y-49770042D01*
X68151943Y-49741259D01*
X68265967Y-49570610D01*
X68295900Y-49420127D01*
X68295900Y-49420123D01*
X68306006Y-49369317D01*
X68295900Y-49318511D01*
X68295900Y-29090449D01*
X68520426Y-28940426D01*
X68747413Y-28600715D01*
X68807000Y-28301149D01*
X68807000Y-27298850D01*
X68747413Y-26999285D01*
X68520426Y-26659574D01*
X68180714Y-26432587D01*
X67780000Y-26352880D01*
X67379285Y-26432587D01*
X67039574Y-26659574D01*
X66812587Y-26999286D01*
X66753000Y-27298851D01*
X66753000Y-28301150D01*
X66812588Y-28600715D01*
X67039575Y-28940426D01*
X67264101Y-29090449D01*
X67264100Y-49155624D01*
X65319780Y-51099944D01*
X65315900Y-51099944D01*
X65315900Y-49033655D01*
X65501097Y-48848458D01*
X65627000Y-48544501D01*
X65627000Y-48215499D01*
X65501097Y-47911542D01*
X65268458Y-47678903D01*
X64964501Y-47553000D01*
X64635499Y-47553000D01*
X64538973Y-47592982D01*
X64501097Y-47501542D01*
X64268458Y-47268903D01*
X63964501Y-47143000D01*
X63635499Y-47143000D01*
X63331542Y-47268903D01*
X63098903Y-47501542D01*
X62973000Y-47805499D01*
X62973000Y-48134501D01*
X63098903Y-48438458D01*
X63284101Y-48623656D01*
X63284101Y-49041228D01*
X62049198Y-47806326D01*
X62049198Y-47593674D01*
X62193675Y-47449198D01*
X62529176Y-47449198D01*
X62579982Y-47459304D01*
X62630788Y-47449198D01*
X62630793Y-47449198D01*
X62781276Y-47419265D01*
X62951925Y-47305241D01*
X62980708Y-47262164D01*
X65568869Y-44674004D01*
X65611943Y-44645223D01*
X65725967Y-44474574D01*
X65755900Y-44324091D01*
X65755900Y-44324090D01*
X65766007Y-44273280D01*
X65755900Y-44222469D01*
X65755900Y-29090449D01*
X65980426Y-28940426D01*
X66207413Y-28600715D01*
X66267000Y-28301149D01*
X66267000Y-27298850D01*
X66207413Y-26999285D01*
X65980426Y-26659574D01*
X65640714Y-26432587D01*
X65240000Y-26352880D01*
X64839285Y-26432587D01*
X64499574Y-26659574D01*
X64272587Y-26999286D01*
X64213000Y-27298851D01*
X64213000Y-28301150D01*
X64272588Y-28600715D01*
X64499575Y-28940426D01*
X64724101Y-29090449D01*
X64724100Y-44059587D01*
X63215900Y-45567788D01*
X63215900Y-29090449D01*
X63440426Y-28940426D01*
X63667413Y-28600715D01*
X63727000Y-28301149D01*
X63727000Y-27298850D01*
X63667413Y-26999285D01*
X63440426Y-26659574D01*
X63100714Y-26432587D01*
X62700000Y-26352880D01*
X62299285Y-26432587D01*
X61959574Y-26659574D01*
X61732587Y-26999286D01*
X61673000Y-27298851D01*
X61673000Y-28301150D01*
X61732588Y-28600715D01*
X61959575Y-28940426D01*
X62184101Y-29090449D01*
X62184100Y-45496678D01*
X60848819Y-46831960D01*
X60805745Y-46860741D01*
X60776964Y-46903815D01*
X60776962Y-46903817D01*
X60691721Y-47031390D01*
X60651681Y-47232684D01*
X60661788Y-47283495D01*
X60661787Y-48116509D01*
X60651681Y-48167316D01*
X60661787Y-48218122D01*
X60661787Y-48218126D01*
X60691720Y-48368609D01*
X60805744Y-48539259D01*
X60848821Y-48568042D01*
X60964101Y-48683322D01*
X60964101Y-54954870D01*
X60900426Y-54859574D01*
X60560714Y-54632587D01*
X60160000Y-54552880D01*
X59759285Y-54632587D01*
X59465900Y-54828620D01*
X59465900Y-30401492D01*
X60488866Y-29378526D01*
X60531943Y-29349743D01*
X60645967Y-29179094D01*
X60661714Y-29099928D01*
X60900426Y-28940426D01*
X61127413Y-28600715D01*
X61187000Y-28301149D01*
X61187000Y-27298850D01*
X61127413Y-26999285D01*
X60900426Y-26659574D01*
X60560714Y-26432587D01*
X60160000Y-26352880D01*
X59759285Y-26432587D01*
X59419574Y-26659574D01*
X59192587Y-26999286D01*
X59133000Y-27298851D01*
X59133000Y-28301150D01*
X59192588Y-28600715D01*
X59419575Y-28940426D01*
X59448473Y-28959735D01*
X58621132Y-29787076D01*
X58578058Y-29815857D01*
X58549277Y-29858931D01*
X58549275Y-29858933D01*
X58464034Y-29986506D01*
X58423994Y-30187800D01*
X58434101Y-30238611D01*
X58434100Y-54969836D01*
X58360426Y-54859574D01*
X58020714Y-54632587D01*
X57620000Y-54552880D01*
X57219285Y-54632587D01*
X56879574Y-54859574D01*
X56652587Y-55199286D01*
X56593000Y-55498851D01*
X56593000Y-56501150D01*
X56652588Y-56800715D01*
X56879575Y-57140426D01*
X57219286Y-57367413D01*
X57620000Y-57447120D01*
X58020715Y-57367413D01*
X58360426Y-57140426D01*
X58434100Y-57030164D01*
X58434100Y-63361394D01*
X58423994Y-63412200D01*
X58434100Y-63463006D01*
X58434100Y-63463010D01*
X58464033Y-63613493D01*
X58578057Y-63784143D01*
X58621134Y-63812926D01*
X59448473Y-64640265D01*
X59419574Y-64659574D01*
X59192587Y-64999286D01*
X59133000Y-65298851D01*
X59133000Y-66301150D01*
X59192588Y-66600715D01*
X59419575Y-66940426D01*
X59644100Y-67090449D01*
X59644101Y-71967404D01*
X59633994Y-72018215D01*
X59674034Y-72219509D01*
X59759275Y-72347082D01*
X59759277Y-72347084D01*
X59788058Y-72390158D01*
X59831132Y-72418939D01*
X66936253Y-79524061D01*
X66936253Y-79785969D01*
X67062156Y-80089926D01*
X67247354Y-80275124D01*
X67247353Y-82877802D01*
X67168454Y-82798903D01*
X66864497Y-82673000D01*
X66535495Y-82673000D01*
X66327000Y-82759361D01*
X66327000Y-82635499D01*
X66201097Y-82331542D01*
X66015900Y-82146345D01*
X66015900Y-79036417D01*
X66026006Y-78985611D01*
X66015900Y-78934805D01*
X66015900Y-78934801D01*
X65985967Y-78784318D01*
X65871943Y-78613669D01*
X65828866Y-78584886D01*
X58327000Y-71083020D01*
X58327000Y-70821111D01*
X58201097Y-70517154D01*
X57968458Y-70284515D01*
X57664501Y-70158612D01*
X57335499Y-70158612D01*
X57031542Y-70284515D01*
X56798903Y-70517154D01*
X56673000Y-70821111D01*
X56673000Y-71150113D01*
X56798903Y-71454070D01*
X57031542Y-71686709D01*
X57335499Y-71812612D01*
X57597408Y-71812612D01*
X64984100Y-79199304D01*
X64984101Y-81088823D01*
X56966411Y-73071134D01*
X56937628Y-73028057D01*
X56766979Y-72914033D01*
X56662882Y-72893327D01*
X56468458Y-72698903D01*
X56164501Y-72573000D01*
X55835499Y-72573000D01*
X55531542Y-72698903D01*
X55298903Y-72931542D01*
X55173000Y-73235499D01*
X55173000Y-73564501D01*
X55298903Y-73868458D01*
X55531542Y-74101097D01*
X55835499Y-74227000D01*
X56164501Y-74227000D01*
X56468458Y-74101097D01*
X56502824Y-74066731D01*
X63303613Y-80867521D01*
X61397114Y-80867521D01*
X54127000Y-73597408D01*
X54127000Y-73335499D01*
X54001097Y-73031542D01*
X53768458Y-72798903D01*
X53464501Y-72673000D01*
X53135499Y-72673000D01*
X52831542Y-72798903D01*
X52598903Y-73031542D01*
X52473000Y-73335499D01*
X52473000Y-73403445D01*
X52468458Y-73398903D01*
X52164501Y-73273000D01*
X51835499Y-73273000D01*
X51531542Y-73398903D01*
X51298903Y-73631542D01*
X51173000Y-73935499D01*
X49427000Y-73935499D01*
X49427000Y-73476152D01*
X49209753Y-72951669D01*
X48905084Y-72647000D01*
X49084935Y-72647000D01*
X49241876Y-72581993D01*
X49361993Y-72461876D01*
X49427000Y-72304936D01*
X49427000Y-71453750D01*
X49320250Y-71347000D01*
X48127000Y-71347000D01*
X48127000Y-71367000D01*
X47873000Y-71367000D01*
X47873000Y-71347000D01*
X46679750Y-71347000D01*
X46573000Y-71453750D01*
X46002000Y-71453750D01*
X46002000Y-70135064D01*
X46573000Y-70135064D01*
X46573000Y-70986250D01*
X46679750Y-71093000D01*
X47873000Y-71093000D01*
X47873000Y-69899750D01*
X48127000Y-69899750D01*
X48127000Y-71093000D01*
X49320250Y-71093000D01*
X49427000Y-70986250D01*
X49427000Y-70135064D01*
X49361993Y-69978124D01*
X49241876Y-69858007D01*
X49084935Y-69793000D01*
X48233750Y-69793000D01*
X48127000Y-69899750D01*
X47873000Y-69899750D01*
X47766250Y-69793000D01*
X46915065Y-69793000D01*
X46758124Y-69858007D01*
X46638007Y-69978124D01*
X46573000Y-70135064D01*
X46002000Y-70135064D01*
X46002000Y-65298851D01*
X48973000Y-65298851D01*
X48973000Y-66301150D01*
X49032588Y-66600715D01*
X49259575Y-66940426D01*
X49599286Y-67167413D01*
X50000000Y-67247120D01*
X50400715Y-67167413D01*
X50740426Y-66940426D01*
X50967413Y-66600715D01*
X51027000Y-66301149D01*
X51027000Y-65298851D01*
X51513000Y-65298851D01*
X51513000Y-66301150D01*
X51572588Y-66600715D01*
X51799575Y-66940426D01*
X52139286Y-67167413D01*
X52540000Y-67247120D01*
X52940715Y-67167413D01*
X53280426Y-66940426D01*
X53507413Y-66600715D01*
X53567000Y-66301149D01*
X53567000Y-65298851D01*
X54053000Y-65298851D01*
X54053000Y-66301150D01*
X54112588Y-66600715D01*
X54339575Y-66940426D01*
X54679286Y-67167413D01*
X55080000Y-67247120D01*
X55480715Y-67167413D01*
X55820426Y-66940426D01*
X56047413Y-66600715D01*
X56107000Y-66301149D01*
X56107000Y-65298851D01*
X56593000Y-65298851D01*
X56593000Y-66301150D01*
X56652588Y-66600715D01*
X56879575Y-66940426D01*
X57219286Y-67167413D01*
X57620000Y-67247120D01*
X58020715Y-67167413D01*
X58360426Y-66940426D01*
X58587413Y-66600715D01*
X58647000Y-66301149D01*
X58647000Y-65298850D01*
X58587413Y-64999285D01*
X58360426Y-64659574D01*
X58020714Y-64432587D01*
X57620000Y-64352880D01*
X57219285Y-64432587D01*
X56879574Y-64659574D01*
X56652587Y-64999286D01*
X56593000Y-65298851D01*
X56107000Y-65298851D01*
X56107000Y-65298850D01*
X56047413Y-64999285D01*
X55820426Y-64659574D01*
X55480714Y-64432587D01*
X55080000Y-64352880D01*
X54679285Y-64432587D01*
X54339574Y-64659574D01*
X54112587Y-64999286D01*
X54053000Y-65298851D01*
X53567000Y-65298851D01*
X53567000Y-65298850D01*
X53507413Y-64999285D01*
X53280426Y-64659574D01*
X52940714Y-64432587D01*
X52540000Y-64352880D01*
X52139285Y-64432587D01*
X51799574Y-64659574D01*
X51572587Y-64999286D01*
X51513000Y-65298851D01*
X51027000Y-65298851D01*
X51027000Y-65298850D01*
X50967413Y-64999285D01*
X50740426Y-64659574D01*
X50400714Y-64432587D01*
X50000000Y-64352880D01*
X49599285Y-64432587D01*
X49259574Y-64659574D01*
X49032587Y-64999286D01*
X48973000Y-65298851D01*
X46002000Y-65298851D01*
X46002000Y-55498851D01*
X48973000Y-55498851D01*
X48973000Y-56501150D01*
X49032588Y-56800715D01*
X49259575Y-57140426D01*
X49599286Y-57367413D01*
X50000000Y-57447120D01*
X50400715Y-57367413D01*
X50740426Y-57140426D01*
X50967413Y-56800715D01*
X51027000Y-56501149D01*
X51027000Y-55498851D01*
X51513000Y-55498851D01*
X51513000Y-56501150D01*
X51572588Y-56800715D01*
X51799575Y-57140426D01*
X52139286Y-57367413D01*
X52540000Y-57447120D01*
X52940715Y-57367413D01*
X53280426Y-57140426D01*
X53507413Y-56800715D01*
X53567000Y-56501149D01*
X53567000Y-55498851D01*
X54053000Y-55498851D01*
X54053000Y-56501150D01*
X54112588Y-56800715D01*
X54339575Y-57140426D01*
X54679286Y-57367413D01*
X55080000Y-57447120D01*
X55480715Y-57367413D01*
X55820426Y-57140426D01*
X56047413Y-56800715D01*
X56107000Y-56501149D01*
X56107000Y-55498850D01*
X56047413Y-55199285D01*
X55820426Y-54859574D01*
X55480714Y-54632587D01*
X55080000Y-54552880D01*
X54679285Y-54632587D01*
X54339574Y-54859574D01*
X54112587Y-55199286D01*
X54053000Y-55498851D01*
X53567000Y-55498851D01*
X53567000Y-55498850D01*
X53507413Y-55199285D01*
X53280426Y-54859574D01*
X52940714Y-54632587D01*
X52540000Y-54552880D01*
X52139285Y-54632587D01*
X51799574Y-54859574D01*
X51572587Y-55199286D01*
X51513000Y-55498851D01*
X51027000Y-55498851D01*
X51027000Y-55498850D01*
X50967413Y-55199285D01*
X50740426Y-54859574D01*
X50400714Y-54632587D01*
X50000000Y-54552880D01*
X49599285Y-54632587D01*
X49259574Y-54859574D01*
X49032587Y-55199286D01*
X48973000Y-55498851D01*
X46002000Y-55498851D01*
X46002000Y-41596805D01*
X47973000Y-41596805D01*
X47973000Y-42403195D01*
X48281593Y-43148203D01*
X48851797Y-43718407D01*
X49596805Y-44027000D01*
X50403195Y-44027000D01*
X51148203Y-43718407D01*
X51718407Y-43148203D01*
X52027000Y-42403195D01*
X52027000Y-41596805D01*
X51718407Y-40851797D01*
X51148203Y-40281593D01*
X50403195Y-39973000D01*
X49596805Y-39973000D01*
X48851797Y-40281593D01*
X48281593Y-40851797D01*
X47973000Y-41596805D01*
X46002000Y-41596805D01*
X46002000Y-27298851D01*
X48973000Y-27298851D01*
X48973000Y-28301150D01*
X49032588Y-28600715D01*
X49259575Y-28940426D01*
X49599286Y-29167413D01*
X50000000Y-29247120D01*
X50400715Y-29167413D01*
X50740426Y-28940426D01*
X50967413Y-28600715D01*
X51027000Y-28301149D01*
X51027000Y-27298851D01*
X51513000Y-27298851D01*
X51513000Y-28301150D01*
X51572588Y-28600715D01*
X51799575Y-28940426D01*
X52139286Y-29167413D01*
X52540000Y-29247120D01*
X52940715Y-29167413D01*
X53280426Y-28940426D01*
X53507413Y-28600715D01*
X53567000Y-28301149D01*
X53567000Y-27298851D01*
X54053000Y-27298851D01*
X54053000Y-28301150D01*
X54112588Y-28600715D01*
X54339575Y-28940426D01*
X54679286Y-29167413D01*
X55080000Y-29247120D01*
X55480715Y-29167413D01*
X55820426Y-28940426D01*
X56047413Y-28600715D01*
X56107000Y-28301149D01*
X56107000Y-27298851D01*
X56593000Y-27298851D01*
X56593000Y-28301150D01*
X56652588Y-28600715D01*
X56879575Y-28940426D01*
X57219286Y-29167413D01*
X57620000Y-29247120D01*
X58020715Y-29167413D01*
X58360426Y-28940426D01*
X58587413Y-28600715D01*
X58647000Y-28301149D01*
X58647000Y-27298850D01*
X58587413Y-26999285D01*
X58360426Y-26659574D01*
X58020714Y-26432587D01*
X57620000Y-26352880D01*
X57219285Y-26432587D01*
X56879574Y-26659574D01*
X56652587Y-26999286D01*
X56593000Y-27298851D01*
X56107000Y-27298851D01*
X56107000Y-27298850D01*
X56047413Y-26999285D01*
X55820426Y-26659574D01*
X55480714Y-26432587D01*
X55080000Y-26352880D01*
X54679285Y-26432587D01*
X54339574Y-26659574D01*
X54112587Y-26999286D01*
X54053000Y-27298851D01*
X53567000Y-27298851D01*
X53567000Y-27298850D01*
X53507413Y-26999285D01*
X53280426Y-26659574D01*
X52940714Y-26432587D01*
X52540000Y-26352880D01*
X52139285Y-26432587D01*
X51799574Y-26659574D01*
X51572587Y-26999286D01*
X51513000Y-27298851D01*
X51027000Y-27298851D01*
X51027000Y-27298850D01*
X50967413Y-26999285D01*
X50740426Y-26659574D01*
X50400714Y-26432587D01*
X50000000Y-26352880D01*
X49599285Y-26432587D01*
X49259574Y-26659574D01*
X49032587Y-26999286D01*
X48973000Y-27298851D01*
X46002000Y-27298851D01*
X46002000Y-24002000D01*
X81998001Y-24002000D01*
X81998000Y-173998000D01*
G04 #@! TD*
M02*
