M48
;DRILL file {KiCad (5.0.0-rc2-35-gda6600525)} date 07/07/18 16:30:26
;FORMAT={-:-/ absolute / metric / decimal}
FMAT,2
METRIC,TZ
T1C0.400
T2C0.600
T3C0.700
T4C0.950
%
G90
G05
M71
T1
X50.Y-128.8
X52.Y-74.1
X52.Y-112.6
X53.3Y-73.5
X53.3Y-111.9
X55.866Y-111.725
X56.Y-73.4
X56.Y-86.7
X56.2Y-115.1
X56.839Y-111.628
X57.3Y-86.6
X57.5Y-70.986
X58.121Y-87.131
X58.938Y-86.593
X60.1Y-50.6
X60.1Y-97.6
X60.1Y-110.2
X60.5Y-119.6
X62.4Y-117.5
X62.4Y-119.7
X62.9Y-110.3
X63.2Y-97.1
X63.4Y-116.4
X63.5Y-83.2
X63.5Y-118.4
X63.6Y-120.9
X63.8Y-47.97
X64.264Y-82.043
X64.3Y-115.5
X64.8Y-48.38
X65.4Y-85.8
X65.5Y-82.8
X65.5Y-84.3
X66.596Y-85.03
X66.7Y-83.5
X66.7Y-71.2
X67.7Y-70.
X67.7Y-86.1
X67.763Y-79.621
X68.083Y-78.697
X68.1Y-115.4
X68.4Y-120.8
X68.733Y-71.2
X68.9Y-111.1
X69.042Y-78.51
X69.3Y-50.1
X69.44Y-76.811
X69.745Y-70.
X69.9Y-113.7
X70.3Y-48.9
X70.395Y-76.602
X70.7Y-71.1
X70.808Y-78.279
X71.502Y-78.969
X71.556Y-52.8
X72.172Y-76.292
X72.607Y-71.237
X73.Y-96.3
X73.207Y-53.237
X73.6Y-70.1
X74.2Y-54.4
X75.4Y-97.5
X78.1Y-98.
X78.1Y-107.3
T2
X74.2Y-86.3
T3
X50.Y-27.8
X50.Y-56.
X52.54Y-27.8
X52.54Y-56.
X55.08Y-27.8
X55.08Y-56.
X57.62Y-27.8
X57.62Y-56.
X60.16Y-27.8
X60.16Y-56.
X62.7Y-27.8
X62.7Y-56.
X65.24Y-27.8
X65.24Y-56.
X67.78Y-27.8
X67.78Y-56.
X70.32Y-27.8
X70.32Y-56.
X72.86Y-27.8
X72.86Y-56.
X75.4Y-27.8
X75.4Y-56.
X77.94Y-27.8
X77.94Y-56.
X50.Y-141.8
X50.Y-170.
X52.54Y-141.8
X52.54Y-170.
X55.08Y-141.8
X55.08Y-170.
X57.62Y-141.8
X57.62Y-170.
X60.16Y-141.8
X60.16Y-170.
X62.7Y-141.8
X62.7Y-170.
X65.24Y-141.8
X65.24Y-170.
X67.78Y-141.8
X67.78Y-170.
X70.32Y-141.8
X70.32Y-170.
X72.86Y-141.8
X72.86Y-170.
X75.4Y-141.8
X75.4Y-170.
X77.94Y-141.8
X77.94Y-170.
X50.Y-103.8
X50.Y-132.
X52.54Y-103.8
X52.54Y-132.
X55.08Y-103.8
X55.08Y-132.
X57.62Y-103.8
X57.62Y-132.
X60.16Y-103.8
X60.16Y-132.
X62.7Y-103.8
X62.7Y-132.
X65.24Y-103.8
X65.24Y-132.
X67.78Y-103.8
X67.78Y-132.
X70.32Y-103.8
X70.32Y-132.
X72.86Y-103.8
X72.86Y-132.
X75.4Y-103.8
X75.4Y-132.
X77.94Y-103.8
X77.94Y-132.
X50.Y-65.8
X50.Y-94.
X52.54Y-65.8
X52.54Y-94.
X55.08Y-65.8
X55.08Y-94.
X57.62Y-65.8
X57.62Y-94.
X60.16Y-65.8
X60.16Y-94.
X62.7Y-65.8
X62.7Y-94.
X65.24Y-65.8
X65.24Y-94.
X67.78Y-65.8
X67.78Y-94.
X70.32Y-65.8
X70.32Y-94.
X72.86Y-65.8
X72.86Y-94.
X75.4Y-65.8
X75.4Y-94.
X77.94Y-65.8
X77.94Y-94.
T4
X48.Y-71.22
X48.Y-73.76
X48.Y-76.3
X48.Y-78.84
X48.Y-81.38
X48.Y-83.92
X48.Y-86.46
X48.Y-89.
X76.5Y-69.
X79.04Y-69.
T0
M30
