G04 #@! TF.GenerationSoftware,KiCad,Pcbnew,(5.0.0-rc2-35-gda6600525)*
G04 #@! TF.CreationDate,2018-07-07T16:30:24-07:00*
G04 #@! TF.ProjectId,ht1632c-evaluation,687431363332632D6576616C75617469,rev?*
G04 #@! TF.SameCoordinates,Original*
G04 #@! TF.FileFunction,Soldermask,Bot*
G04 #@! TF.FilePolarity,Negative*
%FSLAX46Y46*%
G04 Gerber Fmt 4.6, Leading zero omitted, Abs format (unit mm)*
G04 Created by KiCad (PCBNEW (5.0.0-rc2-35-gda6600525)) date 07/07/18 16:30:24*
%MOMM*%
%LPD*%
G01*
G04 APERTURE LIST*
%ADD10O,1.600000X2.400000*%
%ADD11C,3.600000*%
%ADD12C,2.400000*%
%ADD13R,2.000000X2.000000*%
%ADD14R,0.900000X0.900000*%
%ADD15R,0.750000X0.800000*%
%ADD16O,0.900000X2.400000*%
%ADD17O,2.400000X0.900000*%
G04 APERTURE END LIST*
D10*
G04 #@! TO.C,U2*
X50000000Y-65800000D03*
X50000000Y-94000000D03*
X52540000Y-65800000D03*
X52540000Y-94000000D03*
X55080000Y-65800000D03*
X55080000Y-94000000D03*
X57620000Y-65800000D03*
X57620000Y-94000000D03*
X60160000Y-65800000D03*
X60160000Y-94000000D03*
X62700000Y-65800000D03*
X62700000Y-94000000D03*
X65240000Y-65800000D03*
X65240000Y-94000000D03*
X67780000Y-65800000D03*
X67780000Y-94000000D03*
X70320000Y-65800000D03*
X70320000Y-94000000D03*
X72860000Y-65800000D03*
X72860000Y-94000000D03*
X75400000Y-65800000D03*
X75400000Y-94000000D03*
X77940000Y-65800000D03*
X77940000Y-94000000D03*
G04 #@! TD*
D11*
G04 #@! TO.C,REF\002A\002A*
X78000000Y-157000000D03*
G04 #@! TD*
G04 #@! TO.C,REF\002A\002A*
X50000000Y-157000000D03*
G04 #@! TD*
G04 #@! TO.C,REF\002A\002A*
X78000000Y-42000000D03*
G04 #@! TD*
D12*
G04 #@! TO.C,J1*
X79040000Y-69000000D03*
D13*
X76500000Y-69000000D03*
G04 #@! TD*
D12*
G04 #@! TO.C,J2*
X48000000Y-89000000D03*
X48000000Y-86460000D03*
X48000000Y-83920000D03*
X48000000Y-81380000D03*
X48000000Y-78840000D03*
X48000000Y-76300000D03*
X48000000Y-73760000D03*
D13*
X48000000Y-71220000D03*
G04 #@! TD*
D14*
G04 #@! TO.C,RN1*
X54660000Y-34000000D03*
X56000000Y-34000000D03*
X52000000Y-34000000D03*
X53340000Y-34000000D03*
X54660000Y-31000000D03*
X53340000Y-31000000D03*
X56000000Y-31000000D03*
X52000000Y-31000000D03*
G04 #@! TD*
G04 #@! TO.C,RN2*
X56000000Y-53000000D03*
X52000000Y-53000000D03*
X54660000Y-53000000D03*
X53340000Y-53000000D03*
X54660000Y-50000000D03*
X56000000Y-50000000D03*
X52000000Y-50000000D03*
X53340000Y-50000000D03*
G04 #@! TD*
G04 #@! TO.C,RN3*
X54660000Y-72000000D03*
X56000000Y-72000000D03*
X52000000Y-72000000D03*
X53340000Y-72000000D03*
X54660000Y-69000000D03*
X53340000Y-69000000D03*
X56000000Y-69000000D03*
X52000000Y-69000000D03*
G04 #@! TD*
G04 #@! TO.C,RN4*
X56000000Y-91000000D03*
X52000000Y-91000000D03*
X54660000Y-91000000D03*
X53340000Y-91000000D03*
X54660000Y-88000000D03*
X56000000Y-88000000D03*
X52000000Y-88000000D03*
X53340000Y-88000000D03*
G04 #@! TD*
G04 #@! TO.C,RN5*
X54660000Y-110000000D03*
X56000000Y-110000000D03*
X52000000Y-110000000D03*
X53340000Y-110000000D03*
X54660000Y-107000000D03*
X53340000Y-107000000D03*
X56000000Y-107000000D03*
X52000000Y-107000000D03*
G04 #@! TD*
G04 #@! TO.C,RN6*
X56000000Y-129000000D03*
X52000000Y-129000000D03*
X54660000Y-129000000D03*
X53340000Y-129000000D03*
X54660000Y-126000000D03*
X56000000Y-126000000D03*
X52000000Y-126000000D03*
X53340000Y-126000000D03*
G04 #@! TD*
G04 #@! TO.C,RN7*
X54660000Y-148000000D03*
X56000000Y-148000000D03*
X52000000Y-148000000D03*
X53340000Y-148000000D03*
X54660000Y-145000000D03*
X53340000Y-145000000D03*
X56000000Y-145000000D03*
X52000000Y-145000000D03*
G04 #@! TD*
G04 #@! TO.C,RN8*
X56000000Y-167000000D03*
X52000000Y-167000000D03*
X54660000Y-167000000D03*
X53340000Y-167000000D03*
X54660000Y-164000000D03*
X56000000Y-164000000D03*
X52000000Y-164000000D03*
X53340000Y-164000000D03*
G04 #@! TD*
D10*
G04 #@! TO.C,U1*
X77940000Y-56000000D03*
X77940000Y-27800000D03*
X75400000Y-56000000D03*
X75400000Y-27800000D03*
X72860000Y-56000000D03*
X72860000Y-27800000D03*
X70320000Y-56000000D03*
X70320000Y-27800000D03*
X67780000Y-56000000D03*
X67780000Y-27800000D03*
X65240000Y-56000000D03*
X65240000Y-27800000D03*
X62700000Y-56000000D03*
X62700000Y-27800000D03*
X60160000Y-56000000D03*
X60160000Y-27800000D03*
X57620000Y-56000000D03*
X57620000Y-27800000D03*
X55080000Y-56000000D03*
X55080000Y-27800000D03*
X52540000Y-56000000D03*
X52540000Y-27800000D03*
X50000000Y-56000000D03*
X50000000Y-27800000D03*
G04 #@! TD*
G04 #@! TO.C,U3*
X77940000Y-132000000D03*
X77940000Y-103800000D03*
X75400000Y-132000000D03*
X75400000Y-103800000D03*
X72860000Y-132000000D03*
X72860000Y-103800000D03*
X70320000Y-132000000D03*
X70320000Y-103800000D03*
X67780000Y-132000000D03*
X67780000Y-103800000D03*
X65240000Y-132000000D03*
X65240000Y-103800000D03*
X62700000Y-132000000D03*
X62700000Y-103800000D03*
X60160000Y-132000000D03*
X60160000Y-103800000D03*
X57620000Y-132000000D03*
X57620000Y-103800000D03*
X55080000Y-132000000D03*
X55080000Y-103800000D03*
X52540000Y-132000000D03*
X52540000Y-103800000D03*
X50000000Y-132000000D03*
X50000000Y-103800000D03*
G04 #@! TD*
G04 #@! TO.C,U4*
X50000000Y-141800000D03*
X50000000Y-170000000D03*
X52540000Y-141800000D03*
X52540000Y-170000000D03*
X55080000Y-141800000D03*
X55080000Y-170000000D03*
X57620000Y-141800000D03*
X57620000Y-170000000D03*
X60160000Y-141800000D03*
X60160000Y-170000000D03*
X62700000Y-141800000D03*
X62700000Y-170000000D03*
X65240000Y-141800000D03*
X65240000Y-170000000D03*
X67780000Y-141800000D03*
X67780000Y-170000000D03*
X70320000Y-141800000D03*
X70320000Y-170000000D03*
X72860000Y-141800000D03*
X72860000Y-170000000D03*
X75400000Y-141800000D03*
X75400000Y-170000000D03*
X77940000Y-141800000D03*
X77940000Y-170000000D03*
G04 #@! TD*
D15*
G04 #@! TO.C,C1*
X57630000Y-80030000D03*
X57630000Y-78530000D03*
G04 #@! TD*
D11*
G04 #@! TO.C,REF\002A\002A*
X50000000Y-42000000D03*
G04 #@! TD*
D16*
G04 #@! TO.C,U5*
X74750000Y-88750000D03*
X73750000Y-88750000D03*
X72750000Y-88750000D03*
X71750000Y-88750000D03*
X70750000Y-88750000D03*
X69750000Y-88750000D03*
X68750000Y-88750000D03*
X67750000Y-88750000D03*
X66750000Y-88750000D03*
X65750000Y-88750000D03*
X64750000Y-88750000D03*
X63750000Y-88750000D03*
X62750000Y-88750000D03*
D17*
X61000000Y-87000000D03*
X61000000Y-86000000D03*
X61000000Y-85000000D03*
X61000000Y-84000000D03*
X61000000Y-83000000D03*
X61000000Y-82000000D03*
X61000000Y-81000000D03*
X61000000Y-80000000D03*
X61000000Y-79000000D03*
X61000000Y-78000000D03*
X61000000Y-77000000D03*
X61000000Y-76000000D03*
X61000000Y-75000000D03*
D16*
X62750000Y-73250000D03*
X63750000Y-73250000D03*
X64750000Y-73250000D03*
X65750000Y-73250000D03*
X66750000Y-73250000D03*
X67750000Y-73250000D03*
X68750000Y-73250000D03*
X69750000Y-73250000D03*
X70750000Y-73250000D03*
X71750000Y-73250000D03*
X72750000Y-73250000D03*
X73750000Y-73250000D03*
X74750000Y-73250000D03*
D17*
X76500000Y-75000000D03*
X76500000Y-76000000D03*
X76500000Y-77000000D03*
X76500000Y-78000000D03*
X76500000Y-79000000D03*
X76500000Y-80000000D03*
X76500000Y-81000000D03*
X76500000Y-82000000D03*
X76500000Y-83000000D03*
X76500000Y-84000000D03*
X76500000Y-85000000D03*
X76500000Y-86000000D03*
X76500000Y-87000000D03*
G04 #@! TD*
M02*
