G04 #@! TF.GenerationSoftware,KiCad,Pcbnew,(5.0.0-rc2-35-gda6600525)*
G04 #@! TF.CreationDate,2018-07-07T16:30:24-07:00*
G04 #@! TF.ProjectId,ht1632c-evaluation,687431363332632D6576616C75617469,rev?*
G04 #@! TF.SameCoordinates,Original*
G04 #@! TF.FileFunction,Legend,Top*
G04 #@! TF.FilePolarity,Positive*
%FSLAX46Y46*%
G04 Gerber Fmt 4.6, Leading zero omitted, Abs format (unit mm)*
G04 Created by KiCad (PCBNEW (5.0.0-rc2-35-gda6600525)) date 07/07/18 16:30:24*
%MOMM*%
%LPD*%
G01*
G04 APERTURE LIST*
%ADD10C,0.400000*%
%ADD11C,0.275000*%
%ADD12C,0.150000*%
G04 APERTURE END LIST*
D10*
X50200000Y-172200000D02*
G75*
G03X50200000Y-172200000I-200000J0D01*
G01*
X50200000Y-134500000D02*
G75*
G03X50200000Y-134500000I-200000J0D01*
G01*
X50200000Y-96400000D02*
G75*
G03X50200000Y-96400000I-200000J0D01*
G01*
X50200000Y-58500000D02*
G75*
G03X50200000Y-58500000I-200000J0D01*
G01*
D11*
X48636190Y-37335595D02*
X48636190Y-36035595D01*
X49160000Y-37335595D02*
X49160000Y-36035595D01*
X49788571Y-37335595D01*
X49788571Y-36035595D01*
X50260000Y-37273690D02*
X50417142Y-37335595D01*
X50679047Y-37335595D01*
X50783809Y-37273690D01*
X50836190Y-37211785D01*
X50888571Y-37087976D01*
X50888571Y-36964166D01*
X50836190Y-36840357D01*
X50783809Y-36778452D01*
X50679047Y-36716547D01*
X50469523Y-36654642D01*
X50364761Y-36592738D01*
X50312380Y-36530833D01*
X50260000Y-36407023D01*
X50260000Y-36283214D01*
X50312380Y-36159404D01*
X50364761Y-36097500D01*
X50469523Y-36035595D01*
X50731428Y-36035595D01*
X50888571Y-36097500D01*
X51360000Y-36654642D02*
X51726666Y-36654642D01*
X51883809Y-37335595D02*
X51360000Y-37335595D01*
X51360000Y-36035595D01*
X51883809Y-36035595D01*
X52983809Y-37335595D02*
X52617142Y-36716547D01*
X52355238Y-37335595D02*
X52355238Y-36035595D01*
X52774285Y-36035595D01*
X52879047Y-36097500D01*
X52931428Y-36159404D01*
X52983809Y-36283214D01*
X52983809Y-36468928D01*
X52931428Y-36592738D01*
X52879047Y-36654642D01*
X52774285Y-36716547D01*
X52355238Y-36716547D01*
X53298095Y-36035595D02*
X53926666Y-36035595D01*
X53612380Y-37335595D02*
X53612380Y-36035595D01*
X55131428Y-37335595D02*
X55131428Y-36035595D01*
X55498095Y-36964166D01*
X55864761Y-36035595D01*
X55864761Y-37335595D01*
X56283809Y-36035595D02*
X56964761Y-36035595D01*
X56598095Y-36530833D01*
X56755238Y-36530833D01*
X56860000Y-36592738D01*
X56912380Y-36654642D01*
X56964761Y-36778452D01*
X56964761Y-37087976D01*
X56912380Y-37211785D01*
X56860000Y-37273690D01*
X56755238Y-37335595D01*
X56440952Y-37335595D01*
X56336190Y-37273690D01*
X56283809Y-37211785D01*
X58274285Y-37335595D02*
X58274285Y-36035595D01*
X58640952Y-36964166D01*
X59007619Y-36035595D01*
X59007619Y-37335595D01*
X59479047Y-36964166D02*
X60002857Y-36964166D01*
X59374285Y-37335595D02*
X59740952Y-36035595D01*
X60107619Y-37335595D01*
X61102857Y-37211785D02*
X61050476Y-37273690D01*
X60893333Y-37335595D01*
X60788571Y-37335595D01*
X60631428Y-37273690D01*
X60526666Y-37149880D01*
X60474285Y-37026071D01*
X60421904Y-36778452D01*
X60421904Y-36592738D01*
X60474285Y-36345119D01*
X60526666Y-36221309D01*
X60631428Y-36097500D01*
X60788571Y-36035595D01*
X60893333Y-36035595D01*
X61050476Y-36097500D01*
X61102857Y-36159404D01*
X61574285Y-37335595D02*
X61574285Y-36035595D01*
X61574285Y-36654642D02*
X62202857Y-36654642D01*
X62202857Y-37335595D02*
X62202857Y-36035595D01*
X62726666Y-37335595D02*
X62726666Y-36035595D01*
X63250476Y-37335595D02*
X63250476Y-36035595D01*
X63879047Y-37335595D01*
X63879047Y-36035595D01*
X64402857Y-36654642D02*
X64769523Y-36654642D01*
X64926666Y-37335595D02*
X64402857Y-37335595D01*
X64402857Y-36035595D01*
X64926666Y-36035595D01*
X66183809Y-37273690D02*
X66340952Y-37335595D01*
X66602857Y-37335595D01*
X66707619Y-37273690D01*
X66760000Y-37211785D01*
X66812380Y-37087976D01*
X66812380Y-36964166D01*
X66760000Y-36840357D01*
X66707619Y-36778452D01*
X66602857Y-36716547D01*
X66393333Y-36654642D01*
X66288571Y-36592738D01*
X66236190Y-36530833D01*
X66183809Y-36407023D01*
X66183809Y-36283214D01*
X66236190Y-36159404D01*
X66288571Y-36097500D01*
X66393333Y-36035595D01*
X66655238Y-36035595D01*
X66812380Y-36097500D01*
X67912380Y-37211785D02*
X67860000Y-37273690D01*
X67702857Y-37335595D01*
X67598095Y-37335595D01*
X67440952Y-37273690D01*
X67336190Y-37149880D01*
X67283809Y-37026071D01*
X67231428Y-36778452D01*
X67231428Y-36592738D01*
X67283809Y-36345119D01*
X67336190Y-36221309D01*
X67440952Y-36097500D01*
X67598095Y-36035595D01*
X67702857Y-36035595D01*
X67860000Y-36097500D01*
X67912380Y-36159404D01*
X69012380Y-37335595D02*
X68645714Y-36716547D01*
X68383809Y-37335595D02*
X68383809Y-36035595D01*
X68802857Y-36035595D01*
X68907619Y-36097500D01*
X68960000Y-36159404D01*
X69012380Y-36283214D01*
X69012380Y-36468928D01*
X68960000Y-36592738D01*
X68907619Y-36654642D01*
X68802857Y-36716547D01*
X68383809Y-36716547D01*
X69483809Y-36654642D02*
X69850476Y-36654642D01*
X70007619Y-37335595D02*
X69483809Y-37335595D01*
X69483809Y-36035595D01*
X70007619Y-36035595D01*
X70374285Y-36035595D02*
X70636190Y-37335595D01*
X70845714Y-36407023D01*
X71055238Y-37335595D01*
X71317142Y-36035595D01*
X71683809Y-37273690D02*
X71840952Y-37335595D01*
X72102857Y-37335595D01*
X72207619Y-37273690D01*
X72260000Y-37211785D01*
X72312380Y-37087976D01*
X72312380Y-36964166D01*
X72260000Y-36840357D01*
X72207619Y-36778452D01*
X72102857Y-36716547D01*
X71893333Y-36654642D01*
X71788571Y-36592738D01*
X71736190Y-36530833D01*
X71683809Y-36407023D01*
X71683809Y-36283214D01*
X71736190Y-36159404D01*
X71788571Y-36097500D01*
X71893333Y-36035595D01*
X72155238Y-36035595D01*
X72312380Y-36097500D01*
X73988571Y-36654642D02*
X74145714Y-36716547D01*
X74198095Y-36778452D01*
X74250476Y-36902261D01*
X74250476Y-37087976D01*
X74198095Y-37211785D01*
X74145714Y-37273690D01*
X74040952Y-37335595D01*
X73621904Y-37335595D01*
X73621904Y-36035595D01*
X73988571Y-36035595D01*
X74093333Y-36097500D01*
X74145714Y-36159404D01*
X74198095Y-36283214D01*
X74198095Y-36407023D01*
X74145714Y-36530833D01*
X74093333Y-36592738D01*
X73988571Y-36654642D01*
X73621904Y-36654642D01*
X74721904Y-36654642D02*
X75088571Y-36654642D01*
X75245714Y-37335595D02*
X74721904Y-37335595D01*
X74721904Y-36035595D01*
X75245714Y-36035595D01*
X76083809Y-36654642D02*
X75717142Y-36654642D01*
X75717142Y-37335595D02*
X75717142Y-36035595D01*
X76240952Y-36035595D01*
X76869523Y-36035595D02*
X77079047Y-36035595D01*
X77183809Y-36097500D01*
X77288571Y-36221309D01*
X77340952Y-36468928D01*
X77340952Y-36902261D01*
X77288571Y-37149880D01*
X77183809Y-37273690D01*
X77079047Y-37335595D01*
X76869523Y-37335595D01*
X76764761Y-37273690D01*
X76660000Y-37149880D01*
X76607619Y-36902261D01*
X76607619Y-36468928D01*
X76660000Y-36221309D01*
X76764761Y-36097500D01*
X76869523Y-36035595D01*
X78440952Y-37335595D02*
X78074285Y-36716547D01*
X77812380Y-37335595D02*
X77812380Y-36035595D01*
X78231428Y-36035595D01*
X78336190Y-36097500D01*
X78388571Y-36159404D01*
X78440952Y-36283214D01*
X78440952Y-36468928D01*
X78388571Y-36592738D01*
X78336190Y-36654642D01*
X78231428Y-36716547D01*
X77812380Y-36716547D01*
X78912380Y-36654642D02*
X79279047Y-36654642D01*
X79436190Y-37335595D02*
X78912380Y-37335595D01*
X78912380Y-36035595D01*
X79436190Y-36035595D01*
X53455238Y-39498690D02*
X53612380Y-39560595D01*
X53874285Y-39560595D01*
X53979047Y-39498690D01*
X54031428Y-39436785D01*
X54083809Y-39312976D01*
X54083809Y-39189166D01*
X54031428Y-39065357D01*
X53979047Y-39003452D01*
X53874285Y-38941547D01*
X53664761Y-38879642D01*
X53560000Y-38817738D01*
X53507619Y-38755833D01*
X53455238Y-38632023D01*
X53455238Y-38508214D01*
X53507619Y-38384404D01*
X53560000Y-38322500D01*
X53664761Y-38260595D01*
X53926666Y-38260595D01*
X54083809Y-38322500D01*
X54764761Y-38260595D02*
X54974285Y-38260595D01*
X55079047Y-38322500D01*
X55183809Y-38446309D01*
X55236190Y-38693928D01*
X55236190Y-39127261D01*
X55183809Y-39374880D01*
X55079047Y-39498690D01*
X54974285Y-39560595D01*
X54764761Y-39560595D01*
X54660000Y-39498690D01*
X54555238Y-39374880D01*
X54502857Y-39127261D01*
X54502857Y-38693928D01*
X54555238Y-38446309D01*
X54660000Y-38322500D01*
X54764761Y-38260595D01*
X56231428Y-39560595D02*
X55707619Y-39560595D01*
X55707619Y-38260595D01*
X56598095Y-39560595D02*
X56598095Y-38260595D01*
X56860000Y-38260595D01*
X57017142Y-38322500D01*
X57121904Y-38446309D01*
X57174285Y-38570119D01*
X57226666Y-38817738D01*
X57226666Y-39003452D01*
X57174285Y-39251071D01*
X57121904Y-39374880D01*
X57017142Y-39498690D01*
X56860000Y-39560595D01*
X56598095Y-39560595D01*
X57698095Y-38879642D02*
X58064761Y-38879642D01*
X58221904Y-39560595D02*
X57698095Y-39560595D01*
X57698095Y-38260595D01*
X58221904Y-38260595D01*
X59321904Y-39560595D02*
X58955238Y-38941547D01*
X58693333Y-39560595D02*
X58693333Y-38260595D01*
X59112380Y-38260595D01*
X59217142Y-38322500D01*
X59269523Y-38384404D01*
X59321904Y-38508214D01*
X59321904Y-38693928D01*
X59269523Y-38817738D01*
X59217142Y-38879642D01*
X59112380Y-38941547D01*
X58693333Y-38941547D01*
X59793333Y-39560595D02*
X59793333Y-38260595D01*
X60317142Y-39560595D02*
X60317142Y-38260595D01*
X60945714Y-39560595D01*
X60945714Y-38260595D01*
X62045714Y-38322500D02*
X61940952Y-38260595D01*
X61783809Y-38260595D01*
X61626666Y-38322500D01*
X61521904Y-38446309D01*
X61469523Y-38570119D01*
X61417142Y-38817738D01*
X61417142Y-39003452D01*
X61469523Y-39251071D01*
X61521904Y-39374880D01*
X61626666Y-39498690D01*
X61783809Y-39560595D01*
X61888571Y-39560595D01*
X62045714Y-39498690D01*
X62098095Y-39436785D01*
X62098095Y-39003452D01*
X61888571Y-39003452D01*
X63931428Y-39560595D02*
X63407619Y-39560595D01*
X63407619Y-38260595D01*
X64298095Y-38879642D02*
X64664761Y-38879642D01*
X64821904Y-39560595D02*
X64298095Y-39560595D01*
X64298095Y-38260595D01*
X64821904Y-38260595D01*
X65293333Y-39560595D02*
X65293333Y-38260595D01*
X65555238Y-38260595D01*
X65712380Y-38322500D01*
X65817142Y-38446309D01*
X65869523Y-38570119D01*
X65921904Y-38817738D01*
X65921904Y-39003452D01*
X65869523Y-39251071D01*
X65817142Y-39374880D01*
X65712380Y-39498690D01*
X65555238Y-39560595D01*
X65293333Y-39560595D01*
X67231428Y-39560595D02*
X67231428Y-38260595D01*
X67598095Y-39189166D01*
X67964761Y-38260595D01*
X67964761Y-39560595D01*
X68436190Y-39189166D02*
X68960000Y-39189166D01*
X68331428Y-39560595D02*
X68698095Y-38260595D01*
X69064761Y-39560595D01*
X69274285Y-38260595D02*
X69902857Y-38260595D01*
X69588571Y-39560595D02*
X69588571Y-38260595D01*
X70898095Y-39560595D02*
X70531428Y-38941547D01*
X70269523Y-39560595D02*
X70269523Y-38260595D01*
X70688571Y-38260595D01*
X70793333Y-38322500D01*
X70845714Y-38384404D01*
X70898095Y-38508214D01*
X70898095Y-38693928D01*
X70845714Y-38817738D01*
X70793333Y-38879642D01*
X70688571Y-38941547D01*
X70269523Y-38941547D01*
X71369523Y-39560595D02*
X71369523Y-38260595D01*
X72521904Y-39436785D02*
X72469523Y-39498690D01*
X72312380Y-39560595D01*
X72207619Y-39560595D01*
X72050476Y-39498690D01*
X71945714Y-39374880D01*
X71893333Y-39251071D01*
X71840952Y-39003452D01*
X71840952Y-38817738D01*
X71893333Y-38570119D01*
X71945714Y-38446309D01*
X72050476Y-38322500D01*
X72207619Y-38260595D01*
X72312380Y-38260595D01*
X72469523Y-38322500D01*
X72521904Y-38384404D01*
X72993333Y-38879642D02*
X73360000Y-38879642D01*
X73517142Y-39560595D02*
X72993333Y-39560595D01*
X72993333Y-38260595D01*
X73517142Y-38260595D01*
X73936190Y-39498690D02*
X74093333Y-39560595D01*
X74355238Y-39560595D01*
X74460000Y-39498690D01*
X74512380Y-39436785D01*
X74564761Y-39312976D01*
X74564761Y-39189166D01*
X74512380Y-39065357D01*
X74460000Y-39003452D01*
X74355238Y-38941547D01*
X74145714Y-38879642D01*
X74040952Y-38817738D01*
X73988571Y-38755833D01*
X73936190Y-38632023D01*
X73936190Y-38508214D01*
X73988571Y-38384404D01*
X74040952Y-38322500D01*
X74145714Y-38260595D01*
X74407619Y-38260595D01*
X74564761Y-38322500D01*
X48386190Y-152095595D02*
X48386190Y-150795595D01*
X48910000Y-152095595D02*
X48910000Y-150795595D01*
X49538571Y-152095595D01*
X49538571Y-150795595D01*
X50010000Y-152033690D02*
X50167142Y-152095595D01*
X50429047Y-152095595D01*
X50533809Y-152033690D01*
X50586190Y-151971785D01*
X50638571Y-151847976D01*
X50638571Y-151724166D01*
X50586190Y-151600357D01*
X50533809Y-151538452D01*
X50429047Y-151476547D01*
X50219523Y-151414642D01*
X50114761Y-151352738D01*
X50062380Y-151290833D01*
X50010000Y-151167023D01*
X50010000Y-151043214D01*
X50062380Y-150919404D01*
X50114761Y-150857500D01*
X50219523Y-150795595D01*
X50481428Y-150795595D01*
X50638571Y-150857500D01*
X51110000Y-151414642D02*
X51476666Y-151414642D01*
X51633809Y-152095595D02*
X51110000Y-152095595D01*
X51110000Y-150795595D01*
X51633809Y-150795595D01*
X52733809Y-152095595D02*
X52367142Y-151476547D01*
X52105238Y-152095595D02*
X52105238Y-150795595D01*
X52524285Y-150795595D01*
X52629047Y-150857500D01*
X52681428Y-150919404D01*
X52733809Y-151043214D01*
X52733809Y-151228928D01*
X52681428Y-151352738D01*
X52629047Y-151414642D01*
X52524285Y-151476547D01*
X52105238Y-151476547D01*
X53048095Y-150795595D02*
X53676666Y-150795595D01*
X53362380Y-152095595D02*
X53362380Y-150795595D01*
X54881428Y-152095595D02*
X54881428Y-150795595D01*
X55248095Y-151724166D01*
X55614761Y-150795595D01*
X55614761Y-152095595D01*
X56033809Y-150795595D02*
X56714761Y-150795595D01*
X56348095Y-151290833D01*
X56505238Y-151290833D01*
X56610000Y-151352738D01*
X56662380Y-151414642D01*
X56714761Y-151538452D01*
X56714761Y-151847976D01*
X56662380Y-151971785D01*
X56610000Y-152033690D01*
X56505238Y-152095595D01*
X56190952Y-152095595D01*
X56086190Y-152033690D01*
X56033809Y-151971785D01*
X58024285Y-152095595D02*
X58024285Y-150795595D01*
X58390952Y-151724166D01*
X58757619Y-150795595D01*
X58757619Y-152095595D01*
X59229047Y-151724166D02*
X59752857Y-151724166D01*
X59124285Y-152095595D02*
X59490952Y-150795595D01*
X59857619Y-152095595D01*
X60852857Y-151971785D02*
X60800476Y-152033690D01*
X60643333Y-152095595D01*
X60538571Y-152095595D01*
X60381428Y-152033690D01*
X60276666Y-151909880D01*
X60224285Y-151786071D01*
X60171904Y-151538452D01*
X60171904Y-151352738D01*
X60224285Y-151105119D01*
X60276666Y-150981309D01*
X60381428Y-150857500D01*
X60538571Y-150795595D01*
X60643333Y-150795595D01*
X60800476Y-150857500D01*
X60852857Y-150919404D01*
X61324285Y-152095595D02*
X61324285Y-150795595D01*
X61324285Y-151414642D02*
X61952857Y-151414642D01*
X61952857Y-152095595D02*
X61952857Y-150795595D01*
X62476666Y-152095595D02*
X62476666Y-150795595D01*
X63000476Y-152095595D02*
X63000476Y-150795595D01*
X63629047Y-152095595D01*
X63629047Y-150795595D01*
X64152857Y-151414642D02*
X64519523Y-151414642D01*
X64676666Y-152095595D02*
X64152857Y-152095595D01*
X64152857Y-150795595D01*
X64676666Y-150795595D01*
X65933809Y-152033690D02*
X66090952Y-152095595D01*
X66352857Y-152095595D01*
X66457619Y-152033690D01*
X66510000Y-151971785D01*
X66562380Y-151847976D01*
X66562380Y-151724166D01*
X66510000Y-151600357D01*
X66457619Y-151538452D01*
X66352857Y-151476547D01*
X66143333Y-151414642D01*
X66038571Y-151352738D01*
X65986190Y-151290833D01*
X65933809Y-151167023D01*
X65933809Y-151043214D01*
X65986190Y-150919404D01*
X66038571Y-150857500D01*
X66143333Y-150795595D01*
X66405238Y-150795595D01*
X66562380Y-150857500D01*
X67662380Y-151971785D02*
X67610000Y-152033690D01*
X67452857Y-152095595D01*
X67348095Y-152095595D01*
X67190952Y-152033690D01*
X67086190Y-151909880D01*
X67033809Y-151786071D01*
X66981428Y-151538452D01*
X66981428Y-151352738D01*
X67033809Y-151105119D01*
X67086190Y-150981309D01*
X67190952Y-150857500D01*
X67348095Y-150795595D01*
X67452857Y-150795595D01*
X67610000Y-150857500D01*
X67662380Y-150919404D01*
X68762380Y-152095595D02*
X68395714Y-151476547D01*
X68133809Y-152095595D02*
X68133809Y-150795595D01*
X68552857Y-150795595D01*
X68657619Y-150857500D01*
X68710000Y-150919404D01*
X68762380Y-151043214D01*
X68762380Y-151228928D01*
X68710000Y-151352738D01*
X68657619Y-151414642D01*
X68552857Y-151476547D01*
X68133809Y-151476547D01*
X69233809Y-151414642D02*
X69600476Y-151414642D01*
X69757619Y-152095595D02*
X69233809Y-152095595D01*
X69233809Y-150795595D01*
X69757619Y-150795595D01*
X70124285Y-150795595D02*
X70386190Y-152095595D01*
X70595714Y-151167023D01*
X70805238Y-152095595D01*
X71067142Y-150795595D01*
X71433809Y-152033690D02*
X71590952Y-152095595D01*
X71852857Y-152095595D01*
X71957619Y-152033690D01*
X72010000Y-151971785D01*
X72062380Y-151847976D01*
X72062380Y-151724166D01*
X72010000Y-151600357D01*
X71957619Y-151538452D01*
X71852857Y-151476547D01*
X71643333Y-151414642D01*
X71538571Y-151352738D01*
X71486190Y-151290833D01*
X71433809Y-151167023D01*
X71433809Y-151043214D01*
X71486190Y-150919404D01*
X71538571Y-150857500D01*
X71643333Y-150795595D01*
X71905238Y-150795595D01*
X72062380Y-150857500D01*
X73738571Y-151414642D02*
X73895714Y-151476547D01*
X73948095Y-151538452D01*
X74000476Y-151662261D01*
X74000476Y-151847976D01*
X73948095Y-151971785D01*
X73895714Y-152033690D01*
X73790952Y-152095595D01*
X73371904Y-152095595D01*
X73371904Y-150795595D01*
X73738571Y-150795595D01*
X73843333Y-150857500D01*
X73895714Y-150919404D01*
X73948095Y-151043214D01*
X73948095Y-151167023D01*
X73895714Y-151290833D01*
X73843333Y-151352738D01*
X73738571Y-151414642D01*
X73371904Y-151414642D01*
X74471904Y-151414642D02*
X74838571Y-151414642D01*
X74995714Y-152095595D02*
X74471904Y-152095595D01*
X74471904Y-150795595D01*
X74995714Y-150795595D01*
X75833809Y-151414642D02*
X75467142Y-151414642D01*
X75467142Y-152095595D02*
X75467142Y-150795595D01*
X75990952Y-150795595D01*
X76619523Y-150795595D02*
X76829047Y-150795595D01*
X76933809Y-150857500D01*
X77038571Y-150981309D01*
X77090952Y-151228928D01*
X77090952Y-151662261D01*
X77038571Y-151909880D01*
X76933809Y-152033690D01*
X76829047Y-152095595D01*
X76619523Y-152095595D01*
X76514761Y-152033690D01*
X76410000Y-151909880D01*
X76357619Y-151662261D01*
X76357619Y-151228928D01*
X76410000Y-150981309D01*
X76514761Y-150857500D01*
X76619523Y-150795595D01*
X78190952Y-152095595D02*
X77824285Y-151476547D01*
X77562380Y-152095595D02*
X77562380Y-150795595D01*
X77981428Y-150795595D01*
X78086190Y-150857500D01*
X78138571Y-150919404D01*
X78190952Y-151043214D01*
X78190952Y-151228928D01*
X78138571Y-151352738D01*
X78086190Y-151414642D01*
X77981428Y-151476547D01*
X77562380Y-151476547D01*
X78662380Y-151414642D02*
X79029047Y-151414642D01*
X79186190Y-152095595D02*
X78662380Y-152095595D01*
X78662380Y-150795595D01*
X79186190Y-150795595D01*
X53205238Y-154258690D02*
X53362380Y-154320595D01*
X53624285Y-154320595D01*
X53729047Y-154258690D01*
X53781428Y-154196785D01*
X53833809Y-154072976D01*
X53833809Y-153949166D01*
X53781428Y-153825357D01*
X53729047Y-153763452D01*
X53624285Y-153701547D01*
X53414761Y-153639642D01*
X53310000Y-153577738D01*
X53257619Y-153515833D01*
X53205238Y-153392023D01*
X53205238Y-153268214D01*
X53257619Y-153144404D01*
X53310000Y-153082500D01*
X53414761Y-153020595D01*
X53676666Y-153020595D01*
X53833809Y-153082500D01*
X54514761Y-153020595D02*
X54724285Y-153020595D01*
X54829047Y-153082500D01*
X54933809Y-153206309D01*
X54986190Y-153453928D01*
X54986190Y-153887261D01*
X54933809Y-154134880D01*
X54829047Y-154258690D01*
X54724285Y-154320595D01*
X54514761Y-154320595D01*
X54410000Y-154258690D01*
X54305238Y-154134880D01*
X54252857Y-153887261D01*
X54252857Y-153453928D01*
X54305238Y-153206309D01*
X54410000Y-153082500D01*
X54514761Y-153020595D01*
X55981428Y-154320595D02*
X55457619Y-154320595D01*
X55457619Y-153020595D01*
X56348095Y-154320595D02*
X56348095Y-153020595D01*
X56610000Y-153020595D01*
X56767142Y-153082500D01*
X56871904Y-153206309D01*
X56924285Y-153330119D01*
X56976666Y-153577738D01*
X56976666Y-153763452D01*
X56924285Y-154011071D01*
X56871904Y-154134880D01*
X56767142Y-154258690D01*
X56610000Y-154320595D01*
X56348095Y-154320595D01*
X57448095Y-153639642D02*
X57814761Y-153639642D01*
X57971904Y-154320595D02*
X57448095Y-154320595D01*
X57448095Y-153020595D01*
X57971904Y-153020595D01*
X59071904Y-154320595D02*
X58705238Y-153701547D01*
X58443333Y-154320595D02*
X58443333Y-153020595D01*
X58862380Y-153020595D01*
X58967142Y-153082500D01*
X59019523Y-153144404D01*
X59071904Y-153268214D01*
X59071904Y-153453928D01*
X59019523Y-153577738D01*
X58967142Y-153639642D01*
X58862380Y-153701547D01*
X58443333Y-153701547D01*
X59543333Y-154320595D02*
X59543333Y-153020595D01*
X60067142Y-154320595D02*
X60067142Y-153020595D01*
X60695714Y-154320595D01*
X60695714Y-153020595D01*
X61795714Y-153082500D02*
X61690952Y-153020595D01*
X61533809Y-153020595D01*
X61376666Y-153082500D01*
X61271904Y-153206309D01*
X61219523Y-153330119D01*
X61167142Y-153577738D01*
X61167142Y-153763452D01*
X61219523Y-154011071D01*
X61271904Y-154134880D01*
X61376666Y-154258690D01*
X61533809Y-154320595D01*
X61638571Y-154320595D01*
X61795714Y-154258690D01*
X61848095Y-154196785D01*
X61848095Y-153763452D01*
X61638571Y-153763452D01*
X63681428Y-154320595D02*
X63157619Y-154320595D01*
X63157619Y-153020595D01*
X64048095Y-153639642D02*
X64414761Y-153639642D01*
X64571904Y-154320595D02*
X64048095Y-154320595D01*
X64048095Y-153020595D01*
X64571904Y-153020595D01*
X65043333Y-154320595D02*
X65043333Y-153020595D01*
X65305238Y-153020595D01*
X65462380Y-153082500D01*
X65567142Y-153206309D01*
X65619523Y-153330119D01*
X65671904Y-153577738D01*
X65671904Y-153763452D01*
X65619523Y-154011071D01*
X65567142Y-154134880D01*
X65462380Y-154258690D01*
X65305238Y-154320595D01*
X65043333Y-154320595D01*
X66981428Y-154320595D02*
X66981428Y-153020595D01*
X67348095Y-153949166D01*
X67714761Y-153020595D01*
X67714761Y-154320595D01*
X68186190Y-153949166D02*
X68710000Y-153949166D01*
X68081428Y-154320595D02*
X68448095Y-153020595D01*
X68814761Y-154320595D01*
X69024285Y-153020595D02*
X69652857Y-153020595D01*
X69338571Y-154320595D02*
X69338571Y-153020595D01*
X70648095Y-154320595D02*
X70281428Y-153701547D01*
X70019523Y-154320595D02*
X70019523Y-153020595D01*
X70438571Y-153020595D01*
X70543333Y-153082500D01*
X70595714Y-153144404D01*
X70648095Y-153268214D01*
X70648095Y-153453928D01*
X70595714Y-153577738D01*
X70543333Y-153639642D01*
X70438571Y-153701547D01*
X70019523Y-153701547D01*
X71119523Y-154320595D02*
X71119523Y-153020595D01*
X72271904Y-154196785D02*
X72219523Y-154258690D01*
X72062380Y-154320595D01*
X71957619Y-154320595D01*
X71800476Y-154258690D01*
X71695714Y-154134880D01*
X71643333Y-154011071D01*
X71590952Y-153763452D01*
X71590952Y-153577738D01*
X71643333Y-153330119D01*
X71695714Y-153206309D01*
X71800476Y-153082500D01*
X71957619Y-153020595D01*
X72062380Y-153020595D01*
X72219523Y-153082500D01*
X72271904Y-153144404D01*
X72743333Y-153639642D02*
X73110000Y-153639642D01*
X73267142Y-154320595D02*
X72743333Y-154320595D01*
X72743333Y-153020595D01*
X73267142Y-153020595D01*
X73686190Y-154258690D02*
X73843333Y-154320595D01*
X74105238Y-154320595D01*
X74210000Y-154258690D01*
X74262380Y-154196785D01*
X74314761Y-154072976D01*
X74314761Y-153949166D01*
X74262380Y-153825357D01*
X74210000Y-153763452D01*
X74105238Y-153701547D01*
X73895714Y-153639642D01*
X73790952Y-153577738D01*
X73738571Y-153515833D01*
X73686190Y-153392023D01*
X73686190Y-153268214D01*
X73738571Y-153144404D01*
X73790952Y-153082500D01*
X73895714Y-153020595D01*
X74157619Y-153020595D01*
X74314761Y-153082500D01*
D12*
G04 #@! TO.C,U2*
X44970000Y-98900000D02*
X82970000Y-98900000D01*
X82970000Y-98900000D02*
X82970000Y-60900000D01*
X82970000Y-60900000D02*
X44970000Y-60900000D01*
X44970000Y-60900000D02*
X44970000Y-98900000D01*
D10*
X44350000Y-99600000D02*
G75*
G03X44350000Y-99600000I-180000J0D01*
G01*
G04 #@! TO.C,U1*
X44350000Y-61600000D02*
G75*
G03X44350000Y-61600000I-180000J0D01*
G01*
D12*
X44970000Y-22900000D02*
X44970000Y-60900000D01*
X82970000Y-22900000D02*
X44970000Y-22900000D01*
X82970000Y-60900000D02*
X82970000Y-22900000D01*
X44970000Y-60900000D02*
X82970000Y-60900000D01*
D10*
G04 #@! TO.C,U3*
X44350000Y-137600000D02*
G75*
G03X44350000Y-137600000I-180000J0D01*
G01*
D12*
X44970000Y-98900000D02*
X44970000Y-136900000D01*
X82970000Y-98900000D02*
X44970000Y-98900000D01*
X82970000Y-136900000D02*
X82970000Y-98900000D01*
X44970000Y-136900000D02*
X82970000Y-136900000D01*
G04 #@! TO.C,U4*
X44970000Y-174900000D02*
X82970000Y-174900000D01*
X82970000Y-174900000D02*
X82970000Y-136900000D01*
X82970000Y-136900000D02*
X44970000Y-136900000D01*
X44970000Y-136900000D02*
X44970000Y-174900000D01*
D10*
X44350000Y-175600000D02*
G75*
G03X44350000Y-175600000I-180000J0D01*
G01*
G04 #@! TO.C,U2*
D12*
X47782380Y-97071904D02*
X48591904Y-97071904D01*
X48687142Y-97024285D01*
X48734761Y-96976666D01*
X48782380Y-96881428D01*
X48782380Y-96690952D01*
X48734761Y-96595714D01*
X48687142Y-96548095D01*
X48591904Y-96500476D01*
X47782380Y-96500476D01*
X47877619Y-96071904D02*
X47830000Y-96024285D01*
X47782380Y-95929047D01*
X47782380Y-95690952D01*
X47830000Y-95595714D01*
X47877619Y-95548095D01*
X47972857Y-95500476D01*
X48068095Y-95500476D01*
X48210952Y-95548095D01*
X48782380Y-96119523D01*
X48782380Y-95500476D01*
G04 #@! TO.C,U1*
X47782380Y-59011904D02*
X48591904Y-59011904D01*
X48687142Y-58964285D01*
X48734761Y-58916666D01*
X48782380Y-58821428D01*
X48782380Y-58630952D01*
X48734761Y-58535714D01*
X48687142Y-58488095D01*
X48591904Y-58440476D01*
X47782380Y-58440476D01*
X48782380Y-57440476D02*
X48782380Y-58011904D01*
X48782380Y-57726190D02*
X47782380Y-57726190D01*
X47925238Y-57821428D01*
X48020476Y-57916666D01*
X48068095Y-58011904D01*
G04 #@! TO.C,U3*
X47652380Y-134861904D02*
X48461904Y-134861904D01*
X48557142Y-134814285D01*
X48604761Y-134766666D01*
X48652380Y-134671428D01*
X48652380Y-134480952D01*
X48604761Y-134385714D01*
X48557142Y-134338095D01*
X48461904Y-134290476D01*
X47652380Y-134290476D01*
X47652380Y-133909523D02*
X47652380Y-133290476D01*
X48033333Y-133623809D01*
X48033333Y-133480952D01*
X48080952Y-133385714D01*
X48128571Y-133338095D01*
X48223809Y-133290476D01*
X48461904Y-133290476D01*
X48557142Y-133338095D01*
X48604761Y-133385714D01*
X48652380Y-133480952D01*
X48652380Y-133766666D01*
X48604761Y-133861904D01*
X48557142Y-133909523D01*
G04 #@! TO.C,U4*
X47952380Y-172771904D02*
X48761904Y-172771904D01*
X48857142Y-172724285D01*
X48904761Y-172676666D01*
X48952380Y-172581428D01*
X48952380Y-172390952D01*
X48904761Y-172295714D01*
X48857142Y-172248095D01*
X48761904Y-172200476D01*
X47952380Y-172200476D01*
X48285714Y-171295714D02*
X48952380Y-171295714D01*
X47904761Y-171533809D02*
X48619047Y-171771904D01*
X48619047Y-171152857D01*
G04 #@! TD*
M02*
