G04 #@! TF.GenerationSoftware,KiCad,Pcbnew,(5.0.0-rc2-35-gda6600525)*
G04 #@! TF.CreationDate,2018-07-07T16:30:24-07:00*
G04 #@! TF.ProjectId,ht1632c-evaluation,687431363332632D6576616C75617469,rev?*
G04 #@! TF.SameCoordinates,Original*
G04 #@! TF.FileFunction,Legend,Bot*
G04 #@! TF.FilePolarity,Positive*
%FSLAX46Y46*%
G04 Gerber Fmt 4.6, Leading zero omitted, Abs format (unit mm)*
G04 Created by KiCad (PCBNEW (5.0.0-rc2-35-gda6600525)) date 07/07/18 16:30:24*
%MOMM*%
%LPD*%
G01*
G04 APERTURE LIST*
%ADD10C,0.300000*%
%ADD11C,0.200000*%
%ADD12C,0.120000*%
%ADD13C,0.150000*%
%ADD14C,0.254000*%
G04 APERTURE END LIST*
D10*
X67092857Y-59778571D02*
X67592857Y-59064285D01*
X67950000Y-59778571D02*
X67950000Y-58278571D01*
X67378571Y-58278571D01*
X67235714Y-58350000D01*
X67164285Y-58421428D01*
X67092857Y-58564285D01*
X67092857Y-58778571D01*
X67164285Y-58921428D01*
X67235714Y-58992857D01*
X67378571Y-59064285D01*
X67950000Y-59064285D01*
X66164285Y-58278571D02*
X65878571Y-58278571D01*
X65735714Y-58350000D01*
X65592857Y-58492857D01*
X65521428Y-58778571D01*
X65521428Y-59278571D01*
X65592857Y-59564285D01*
X65735714Y-59707142D01*
X65878571Y-59778571D01*
X66164285Y-59778571D01*
X66307142Y-59707142D01*
X66450000Y-59564285D01*
X66521428Y-59278571D01*
X66521428Y-58778571D01*
X66450000Y-58492857D01*
X66307142Y-58350000D01*
X66164285Y-58278571D01*
X65021428Y-58278571D02*
X64664285Y-59778571D01*
X64378571Y-58707142D01*
X64092857Y-59778571D01*
X63735714Y-58278571D01*
X63307142Y-58278571D02*
X62307142Y-58278571D01*
X62950000Y-59778571D01*
X67392857Y-25878571D02*
X67892857Y-25164285D01*
X68250000Y-25878571D02*
X68250000Y-24378571D01*
X67678571Y-24378571D01*
X67535714Y-24450000D01*
X67464285Y-24521428D01*
X67392857Y-24664285D01*
X67392857Y-24878571D01*
X67464285Y-25021428D01*
X67535714Y-25092857D01*
X67678571Y-25164285D01*
X68250000Y-25164285D01*
X66464285Y-24378571D02*
X66178571Y-24378571D01*
X66035714Y-24450000D01*
X65892857Y-24592857D01*
X65821428Y-24878571D01*
X65821428Y-25378571D01*
X65892857Y-25664285D01*
X66035714Y-25807142D01*
X66178571Y-25878571D01*
X66464285Y-25878571D01*
X66607142Y-25807142D01*
X66750000Y-25664285D01*
X66821428Y-25378571D01*
X66821428Y-24878571D01*
X66750000Y-24592857D01*
X66607142Y-24450000D01*
X66464285Y-24378571D01*
X65321428Y-24378571D02*
X64964285Y-25878571D01*
X64678571Y-24807142D01*
X64392857Y-25878571D01*
X64035714Y-24378571D01*
X63178571Y-24378571D02*
X63035714Y-24378571D01*
X62892857Y-24450000D01*
X62821428Y-24521428D01*
X62750000Y-24664285D01*
X62678571Y-24950000D01*
X62678571Y-25307142D01*
X62750000Y-25592857D01*
X62821428Y-25735714D01*
X62892857Y-25807142D01*
X63035714Y-25878571D01*
X63178571Y-25878571D01*
X63321428Y-25807142D01*
X63392857Y-25735714D01*
X63464285Y-25592857D01*
X63535714Y-25307142D01*
X63535714Y-24950000D01*
X63464285Y-24664285D01*
X63392857Y-24521428D01*
X63321428Y-24450000D01*
X63178571Y-24378571D01*
X81035714Y-26057142D02*
X81107142Y-25985714D01*
X81178571Y-25771428D01*
X81178571Y-25628571D01*
X81107142Y-25414285D01*
X80964285Y-25271428D01*
X80821428Y-25200000D01*
X80535714Y-25128571D01*
X80321428Y-25128571D01*
X80035714Y-25200000D01*
X79892857Y-25271428D01*
X79750000Y-25414285D01*
X79678571Y-25628571D01*
X79678571Y-25771428D01*
X79750000Y-25985714D01*
X79821428Y-26057142D01*
X79678571Y-26985714D02*
X79678571Y-27271428D01*
X79750000Y-27414285D01*
X79892857Y-27557142D01*
X80178571Y-27628571D01*
X80678571Y-27628571D01*
X80964285Y-27557142D01*
X81107142Y-27414285D01*
X81178571Y-27271428D01*
X81178571Y-26985714D01*
X81107142Y-26842857D01*
X80964285Y-26700000D01*
X80678571Y-26628571D01*
X80178571Y-26628571D01*
X79892857Y-26700000D01*
X79750000Y-26842857D01*
X79678571Y-26985714D01*
X81178571Y-28985714D02*
X81178571Y-28271428D01*
X79678571Y-28271428D01*
X79678571Y-29342857D02*
X79678571Y-30342857D01*
X81178571Y-29700000D01*
X48135714Y-26157142D02*
X48207142Y-26085714D01*
X48278571Y-25871428D01*
X48278571Y-25728571D01*
X48207142Y-25514285D01*
X48064285Y-25371428D01*
X47921428Y-25300000D01*
X47635714Y-25228571D01*
X47421428Y-25228571D01*
X47135714Y-25300000D01*
X46992857Y-25371428D01*
X46850000Y-25514285D01*
X46778571Y-25728571D01*
X46778571Y-25871428D01*
X46850000Y-26085714D01*
X46921428Y-26157142D01*
X46778571Y-27085714D02*
X46778571Y-27371428D01*
X46850000Y-27514285D01*
X46992857Y-27657142D01*
X47278571Y-27728571D01*
X47778571Y-27728571D01*
X48064285Y-27657142D01*
X48207142Y-27514285D01*
X48278571Y-27371428D01*
X48278571Y-27085714D01*
X48207142Y-26942857D01*
X48064285Y-26800000D01*
X47778571Y-26728571D01*
X47278571Y-26728571D01*
X46992857Y-26800000D01*
X46850000Y-26942857D01*
X46778571Y-27085714D01*
X48278571Y-29085714D02*
X48278571Y-28371428D01*
X46778571Y-28371428D01*
X46778571Y-29871428D02*
X46778571Y-30014285D01*
X46850000Y-30157142D01*
X46921428Y-30228571D01*
X47064285Y-30300000D01*
X47350000Y-30371428D01*
X47707142Y-30371428D01*
X47992857Y-30300000D01*
X48135714Y-30228571D01*
X48207142Y-30157142D01*
X48278571Y-30014285D01*
X48278571Y-29871428D01*
X48207142Y-29728571D01*
X48135714Y-29657142D01*
X47992857Y-29585714D01*
X47707142Y-29514285D01*
X47350000Y-29514285D01*
X47064285Y-29585714D01*
X46921428Y-29657142D01*
X46850000Y-29728571D01*
X46778571Y-29871428D01*
X76187142Y-150643571D02*
X75258571Y-150643571D01*
X75758571Y-151215000D01*
X75544285Y-151215000D01*
X75401428Y-151286428D01*
X75330000Y-151357857D01*
X75258571Y-151500714D01*
X75258571Y-151857857D01*
X75330000Y-152000714D01*
X75401428Y-152072142D01*
X75544285Y-152143571D01*
X75972857Y-152143571D01*
X76115714Y-152072142D01*
X76187142Y-152000714D01*
X74687142Y-150786428D02*
X74615714Y-150715000D01*
X74472857Y-150643571D01*
X74115714Y-150643571D01*
X73972857Y-150715000D01*
X73901428Y-150786428D01*
X73830000Y-150929285D01*
X73830000Y-151072142D01*
X73901428Y-151286428D01*
X74758571Y-152143571D01*
X73830000Y-152143571D01*
X73330000Y-152143571D02*
X72544285Y-151143571D01*
X73330000Y-151143571D02*
X72544285Y-152143571D01*
X71758571Y-151286428D02*
X71901428Y-151215000D01*
X71972857Y-151143571D01*
X72044285Y-151000714D01*
X72044285Y-150929285D01*
X71972857Y-150786428D01*
X71901428Y-150715000D01*
X71758571Y-150643571D01*
X71472857Y-150643571D01*
X71330000Y-150715000D01*
X71258571Y-150786428D01*
X71187142Y-150929285D01*
X71187142Y-151000714D01*
X71258571Y-151143571D01*
X71330000Y-151215000D01*
X71472857Y-151286428D01*
X71758571Y-151286428D01*
X71901428Y-151357857D01*
X71972857Y-151429285D01*
X72044285Y-151572142D01*
X72044285Y-151857857D01*
X71972857Y-152000714D01*
X71901428Y-152072142D01*
X71758571Y-152143571D01*
X71472857Y-152143571D01*
X71330000Y-152072142D01*
X71258571Y-152000714D01*
X71187142Y-151857857D01*
X71187142Y-151572142D01*
X71258571Y-151429285D01*
X71330000Y-151357857D01*
X71472857Y-151286428D01*
X68544285Y-152143571D02*
X69044285Y-151429285D01*
X69401428Y-152143571D02*
X69401428Y-150643571D01*
X68830000Y-150643571D01*
X68687142Y-150715000D01*
X68615714Y-150786428D01*
X68544285Y-150929285D01*
X68544285Y-151143571D01*
X68615714Y-151286428D01*
X68687142Y-151357857D01*
X68830000Y-151429285D01*
X69401428Y-151429285D01*
X67901428Y-151357857D02*
X67401428Y-151357857D01*
X67187142Y-152143571D02*
X67901428Y-152143571D01*
X67901428Y-150643571D01*
X67187142Y-150643571D01*
X66544285Y-152143571D02*
X66544285Y-150643571D01*
X66187142Y-150643571D01*
X65972857Y-150715000D01*
X65830000Y-150857857D01*
X65758571Y-151000714D01*
X65687142Y-151286428D01*
X65687142Y-151500714D01*
X65758571Y-151786428D01*
X65830000Y-151929285D01*
X65972857Y-152072142D01*
X66187142Y-152143571D01*
X66544285Y-152143571D01*
X63187142Y-152143571D02*
X63901428Y-152143571D01*
X63901428Y-150643571D01*
X62687142Y-151357857D02*
X62187142Y-151357857D01*
X61972857Y-152143571D02*
X62687142Y-152143571D01*
X62687142Y-150643571D01*
X61972857Y-150643571D01*
X61330000Y-152143571D02*
X61330000Y-150643571D01*
X60972857Y-150643571D01*
X60758571Y-150715000D01*
X60615714Y-150857857D01*
X60544285Y-151000714D01*
X60472857Y-151286428D01*
X60472857Y-151500714D01*
X60544285Y-151786428D01*
X60615714Y-151929285D01*
X60758571Y-152072142D01*
X60972857Y-152143571D01*
X61330000Y-152143571D01*
X58687142Y-152143571D02*
X58687142Y-150643571D01*
X58187142Y-151715000D01*
X57687142Y-150643571D01*
X57687142Y-152143571D01*
X57044285Y-151715000D02*
X56330000Y-151715000D01*
X57187142Y-152143571D02*
X56687142Y-150643571D01*
X56187142Y-152143571D01*
X55901428Y-150643571D02*
X55044285Y-150643571D01*
X55472857Y-152143571D02*
X55472857Y-150643571D01*
X53687142Y-152143571D02*
X54187142Y-151429285D01*
X54544285Y-152143571D02*
X54544285Y-150643571D01*
X53972857Y-150643571D01*
X53830000Y-150715000D01*
X53758571Y-150786428D01*
X53687142Y-150929285D01*
X53687142Y-151143571D01*
X53758571Y-151286428D01*
X53830000Y-151357857D01*
X53972857Y-151429285D01*
X54544285Y-151429285D01*
X53044285Y-152143571D02*
X53044285Y-150643571D01*
X52472857Y-150643571D02*
X51472857Y-152143571D01*
X51472857Y-150643571D02*
X52472857Y-152143571D01*
X73722857Y-154693571D02*
X74222857Y-153979285D01*
X74580000Y-154693571D02*
X74580000Y-153193571D01*
X74008571Y-153193571D01*
X73865714Y-153265000D01*
X73794285Y-153336428D01*
X73722857Y-153479285D01*
X73722857Y-153693571D01*
X73794285Y-153836428D01*
X73865714Y-153907857D01*
X74008571Y-153979285D01*
X74580000Y-153979285D01*
X73080000Y-153907857D02*
X72580000Y-153907857D01*
X72365714Y-154693571D02*
X73080000Y-154693571D01*
X73080000Y-153193571D01*
X72365714Y-153193571D01*
X71937142Y-153193571D02*
X71437142Y-154693571D01*
X70937142Y-153193571D01*
X69365714Y-154265000D02*
X68651428Y-154265000D01*
X69508571Y-154693571D02*
X69008571Y-153193571D01*
X68508571Y-154693571D01*
X65794285Y-153336428D02*
X65722857Y-153265000D01*
X65580000Y-153193571D01*
X65222857Y-153193571D01*
X65080000Y-153265000D01*
X65008571Y-153336428D01*
X64937142Y-153479285D01*
X64937142Y-153622142D01*
X65008571Y-153836428D01*
X65865714Y-154693571D01*
X64937142Y-154693571D01*
X64008571Y-153193571D02*
X63865714Y-153193571D01*
X63722857Y-153265000D01*
X63651428Y-153336428D01*
X63580000Y-153479285D01*
X63508571Y-153765000D01*
X63508571Y-154122142D01*
X63580000Y-154407857D01*
X63651428Y-154550714D01*
X63722857Y-154622142D01*
X63865714Y-154693571D01*
X64008571Y-154693571D01*
X64151428Y-154622142D01*
X64222857Y-154550714D01*
X64294285Y-154407857D01*
X64365714Y-154122142D01*
X64365714Y-153765000D01*
X64294285Y-153479285D01*
X64222857Y-153336428D01*
X64151428Y-153265000D01*
X64008571Y-153193571D01*
X62080000Y-154693571D02*
X62937142Y-154693571D01*
X62508571Y-154693571D02*
X62508571Y-153193571D01*
X62651428Y-153407857D01*
X62794285Y-153550714D01*
X62937142Y-153622142D01*
X61222857Y-153836428D02*
X61365714Y-153765000D01*
X61437142Y-153693571D01*
X61508571Y-153550714D01*
X61508571Y-153479285D01*
X61437142Y-153336428D01*
X61365714Y-153265000D01*
X61222857Y-153193571D01*
X60937142Y-153193571D01*
X60794285Y-153265000D01*
X60722857Y-153336428D01*
X60651428Y-153479285D01*
X60651428Y-153550714D01*
X60722857Y-153693571D01*
X60794285Y-153765000D01*
X60937142Y-153836428D01*
X61222857Y-153836428D01*
X61365714Y-153907857D01*
X61437142Y-153979285D01*
X61508571Y-154122142D01*
X61508571Y-154407857D01*
X61437142Y-154550714D01*
X61365714Y-154622142D01*
X61222857Y-154693571D01*
X60937142Y-154693571D01*
X60794285Y-154622142D01*
X60722857Y-154550714D01*
X60651428Y-154407857D01*
X60651428Y-154122142D01*
X60722857Y-153979285D01*
X60794285Y-153907857D01*
X60937142Y-153836428D01*
X58437142Y-153193571D02*
X58437142Y-154265000D01*
X58508571Y-154479285D01*
X58651428Y-154622142D01*
X58865714Y-154693571D01*
X59008571Y-154693571D01*
X57722857Y-153193571D02*
X57722857Y-154407857D01*
X57651428Y-154550714D01*
X57580000Y-154622142D01*
X57437142Y-154693571D01*
X57151428Y-154693571D01*
X57008571Y-154622142D01*
X56937142Y-154550714D01*
X56865714Y-154407857D01*
X56865714Y-153193571D01*
X55437142Y-154693571D02*
X56151428Y-154693571D01*
X56151428Y-153193571D01*
X53008571Y-154693571D02*
X53865714Y-154693571D01*
X53437142Y-154693571D02*
X53437142Y-153193571D01*
X53580000Y-153407857D01*
X53722857Y-153550714D01*
X53865714Y-153622142D01*
D11*
X48405238Y-91145714D02*
X48457619Y-91274285D01*
X48457619Y-91488571D01*
X48405238Y-91574285D01*
X48352857Y-91617142D01*
X48248095Y-91660000D01*
X48143333Y-91660000D01*
X48038571Y-91617142D01*
X47986190Y-91574285D01*
X47933809Y-91488571D01*
X47881428Y-91317142D01*
X47829047Y-91231428D01*
X47776666Y-91188571D01*
X47671904Y-91145714D01*
X47567142Y-91145714D01*
X47462380Y-91188571D01*
X47410000Y-91231428D01*
X47357619Y-91317142D01*
X47357619Y-91531428D01*
X47410000Y-91660000D01*
X47933809Y-92217142D02*
X48457619Y-92217142D01*
X47357619Y-91917142D02*
X47933809Y-92217142D01*
X47357619Y-92517142D01*
X48457619Y-92817142D02*
X47357619Y-92817142D01*
X48457619Y-93331428D01*
X47357619Y-93331428D01*
X48352857Y-94274285D02*
X48405238Y-94231428D01*
X48457619Y-94102857D01*
X48457619Y-94017142D01*
X48405238Y-93888571D01*
X48300476Y-93802857D01*
X48195714Y-93760000D01*
X47986190Y-93717142D01*
X47829047Y-93717142D01*
X47619523Y-93760000D01*
X47514761Y-93802857D01*
X47410000Y-93888571D01*
X47357619Y-94017142D01*
X47357619Y-94102857D01*
X47410000Y-94231428D01*
X47462380Y-94274285D01*
X52134285Y-85877619D02*
X51962857Y-85877619D01*
X51877142Y-85930000D01*
X51791428Y-86034761D01*
X51748571Y-86244285D01*
X51748571Y-86610952D01*
X51791428Y-86820476D01*
X51877142Y-86925238D01*
X51962857Y-86977619D01*
X52134285Y-86977619D01*
X52220000Y-86925238D01*
X52305714Y-86820476D01*
X52348571Y-86610952D01*
X52348571Y-86244285D01*
X52305714Y-86034761D01*
X52220000Y-85930000D01*
X52134285Y-85877619D01*
X51405714Y-86925238D02*
X51277142Y-86977619D01*
X51062857Y-86977619D01*
X50977142Y-86925238D01*
X50934285Y-86872857D01*
X50891428Y-86768095D01*
X50891428Y-86663333D01*
X50934285Y-86558571D01*
X50977142Y-86506190D01*
X51062857Y-86453809D01*
X51234285Y-86401428D01*
X51320000Y-86349047D01*
X51362857Y-86296666D01*
X51405714Y-86191904D01*
X51405714Y-86087142D01*
X51362857Y-85982380D01*
X51320000Y-85930000D01*
X51234285Y-85877619D01*
X51020000Y-85877619D01*
X50891428Y-85930000D01*
X49991428Y-86872857D02*
X50034285Y-86925238D01*
X50162857Y-86977619D01*
X50248571Y-86977619D01*
X50377142Y-86925238D01*
X50462857Y-86820476D01*
X50505714Y-86715714D01*
X50548571Y-86506190D01*
X50548571Y-86349047D01*
X50505714Y-86139523D01*
X50462857Y-86034761D01*
X50377142Y-85930000D01*
X50248571Y-85877619D01*
X50162857Y-85877619D01*
X50034285Y-85930000D01*
X49991428Y-85982380D01*
X52810000Y-84537619D02*
X52810000Y-83437619D01*
X52595714Y-83437619D01*
X52467142Y-83490000D01*
X52381428Y-83594761D01*
X52338571Y-83699523D01*
X52295714Y-83909047D01*
X52295714Y-84066190D01*
X52338571Y-84275714D01*
X52381428Y-84380476D01*
X52467142Y-84485238D01*
X52595714Y-84537619D01*
X52810000Y-84537619D01*
X51952857Y-84223333D02*
X51524285Y-84223333D01*
X52038571Y-84537619D02*
X51738571Y-83437619D01*
X51438571Y-84537619D01*
X51267142Y-83437619D02*
X50752857Y-83437619D01*
X51010000Y-84537619D02*
X51010000Y-83437619D01*
X50495714Y-84223333D02*
X50067142Y-84223333D01*
X50581428Y-84537619D02*
X50281428Y-83437619D01*
X49981428Y-84537619D01*
X79640000Y-65084285D02*
X79587619Y-64998571D01*
X79587619Y-64870000D01*
X79640000Y-64741428D01*
X79744761Y-64655714D01*
X79849523Y-64612857D01*
X80059047Y-64570000D01*
X80216190Y-64570000D01*
X80425714Y-64612857D01*
X80530476Y-64655714D01*
X80635238Y-64741428D01*
X80687619Y-64870000D01*
X80687619Y-64955714D01*
X80635238Y-65084285D01*
X80582857Y-65127142D01*
X80216190Y-65127142D01*
X80216190Y-64955714D01*
X80687619Y-65512857D02*
X79587619Y-65512857D01*
X80687619Y-66027142D01*
X79587619Y-66027142D01*
X80687619Y-66455714D02*
X79587619Y-66455714D01*
X79587619Y-66670000D01*
X79640000Y-66798571D01*
X79744761Y-66884285D01*
X79849523Y-66927142D01*
X80059047Y-66970000D01*
X80216190Y-66970000D01*
X80425714Y-66927142D01*
X80530476Y-66884285D01*
X80635238Y-66798571D01*
X80687619Y-66670000D01*
X80687619Y-66455714D01*
X47560000Y-67084285D02*
X47507619Y-66998571D01*
X47507619Y-66870000D01*
X47560000Y-66741428D01*
X47664761Y-66655714D01*
X47769523Y-66612857D01*
X47979047Y-66570000D01*
X48136190Y-66570000D01*
X48345714Y-66612857D01*
X48450476Y-66655714D01*
X48555238Y-66741428D01*
X48607619Y-66870000D01*
X48607619Y-66955714D01*
X48555238Y-67084285D01*
X48502857Y-67127142D01*
X48136190Y-67127142D01*
X48136190Y-66955714D01*
X48607619Y-67512857D02*
X47507619Y-67512857D01*
X48607619Y-68027142D01*
X47507619Y-68027142D01*
X48607619Y-68455714D02*
X47507619Y-68455714D01*
X47507619Y-68670000D01*
X47560000Y-68798571D01*
X47664761Y-68884285D01*
X47769523Y-68927142D01*
X47979047Y-68970000D01*
X48136190Y-68970000D01*
X48345714Y-68927142D01*
X48450476Y-68884285D01*
X48555238Y-68798571D01*
X48607619Y-68670000D01*
X48607619Y-68455714D01*
X58955714Y-73377619D02*
X58655714Y-74477619D01*
X58355714Y-73377619D01*
X57541428Y-74372857D02*
X57584285Y-74425238D01*
X57712857Y-74477619D01*
X57798571Y-74477619D01*
X57927142Y-74425238D01*
X58012857Y-74320476D01*
X58055714Y-74215714D01*
X58098571Y-74006190D01*
X58098571Y-73849047D01*
X58055714Y-73639523D01*
X58012857Y-73534761D01*
X57927142Y-73430000D01*
X57798571Y-73377619D01*
X57712857Y-73377619D01*
X57584285Y-73430000D01*
X57541428Y-73482380D01*
X56641428Y-74372857D02*
X56684285Y-74425238D01*
X56812857Y-74477619D01*
X56898571Y-74477619D01*
X57027142Y-74425238D01*
X57112857Y-74320476D01*
X57155714Y-74215714D01*
X57198571Y-74006190D01*
X57198571Y-73849047D01*
X57155714Y-73639523D01*
X57112857Y-73534761D01*
X57027142Y-73430000D01*
X56898571Y-73377619D01*
X56812857Y-73377619D01*
X56684285Y-73430000D01*
X56641428Y-73482380D01*
X55612857Y-73482380D02*
X55570000Y-73430000D01*
X55484285Y-73377619D01*
X55270000Y-73377619D01*
X55184285Y-73430000D01*
X55141428Y-73482380D01*
X55098571Y-73587142D01*
X55098571Y-73691904D01*
X55141428Y-73849047D01*
X55655714Y-74477619D01*
X55098571Y-74477619D01*
X54712857Y-74372857D02*
X54670000Y-74425238D01*
X54712857Y-74477619D01*
X54755714Y-74425238D01*
X54712857Y-74372857D01*
X54712857Y-74477619D01*
X53898571Y-73744285D02*
X53898571Y-74477619D01*
X54112857Y-73325238D02*
X54327142Y-74110952D01*
X53770000Y-74110952D01*
X53427142Y-74058571D02*
X52741428Y-74058571D01*
X51884285Y-73377619D02*
X52312857Y-73377619D01*
X52355714Y-73901428D01*
X52312857Y-73849047D01*
X52227142Y-73796666D01*
X52012857Y-73796666D01*
X51927142Y-73849047D01*
X51884285Y-73901428D01*
X51841428Y-74006190D01*
X51841428Y-74268095D01*
X51884285Y-74372857D01*
X51927142Y-74425238D01*
X52012857Y-74477619D01*
X52227142Y-74477619D01*
X52312857Y-74425238D01*
X52355714Y-74372857D01*
X51455714Y-74372857D02*
X51412857Y-74425238D01*
X51455714Y-74477619D01*
X51498571Y-74425238D01*
X51455714Y-74372857D01*
X51455714Y-74477619D01*
X50598571Y-73377619D02*
X51027142Y-73377619D01*
X51070000Y-73901428D01*
X51027142Y-73849047D01*
X50941428Y-73796666D01*
X50727142Y-73796666D01*
X50641428Y-73849047D01*
X50598571Y-73901428D01*
X50555714Y-74006190D01*
X50555714Y-74268095D01*
X50598571Y-74372857D01*
X50641428Y-74425238D01*
X50727142Y-74477619D01*
X50941428Y-74477619D01*
X51027142Y-74425238D01*
X51070000Y-74372857D01*
X50255714Y-73744285D02*
X50041428Y-74477619D01*
X49827142Y-73744285D01*
X51648321Y-75498000D02*
X50948571Y-75498000D01*
X51120000Y-76942857D02*
X51162857Y-76995238D01*
X51291428Y-77047619D01*
X51377142Y-77047619D01*
X51505714Y-76995238D01*
X51591428Y-76890476D01*
X51634285Y-76785714D01*
X51677142Y-76576190D01*
X51677142Y-76419047D01*
X51634285Y-76209523D01*
X51591428Y-76104761D01*
X51505714Y-76000000D01*
X51377142Y-75947619D01*
X51291428Y-75947619D01*
X51162857Y-76000000D01*
X51120000Y-76052380D01*
X50948571Y-75498000D02*
X50091428Y-75498000D01*
X50777142Y-76995238D02*
X50648571Y-77047619D01*
X50434285Y-77047619D01*
X50348571Y-76995238D01*
X50305714Y-76942857D01*
X50262857Y-76838095D01*
X50262857Y-76733333D01*
X50305714Y-76628571D01*
X50348571Y-76576190D01*
X50434285Y-76523809D01*
X50605714Y-76471428D01*
X50691428Y-76419047D01*
X50734285Y-76366666D01*
X50777142Y-76261904D01*
X50777142Y-76157142D01*
X50734285Y-76052380D01*
X50691428Y-76000000D01*
X50605714Y-75947619D01*
X50391428Y-75947619D01*
X50262857Y-76000000D01*
X51699750Y-77928000D02*
X51000000Y-77928000D01*
X51171428Y-79477619D02*
X51471428Y-78953809D01*
X51685714Y-79477619D02*
X51685714Y-78377619D01*
X51342857Y-78377619D01*
X51257142Y-78430000D01*
X51214285Y-78482380D01*
X51171428Y-78587142D01*
X51171428Y-78744285D01*
X51214285Y-78849047D01*
X51257142Y-78901428D01*
X51342857Y-78953809D01*
X51685714Y-78953809D01*
X51000000Y-77928000D02*
X50100000Y-77928000D01*
X50785714Y-79477619D02*
X50785714Y-78377619D01*
X50571428Y-78377619D01*
X50442857Y-78430000D01*
X50357142Y-78534761D01*
X50314285Y-78639523D01*
X50271428Y-78849047D01*
X50271428Y-79006190D01*
X50314285Y-79215714D01*
X50357142Y-79320476D01*
X50442857Y-79425238D01*
X50571428Y-79477619D01*
X50785714Y-79477619D01*
X51734035Y-80388000D02*
X50905714Y-80388000D01*
X51805714Y-80837619D02*
X51591428Y-81937619D01*
X51420000Y-81151904D01*
X51248571Y-81937619D01*
X51034285Y-80837619D01*
X50905714Y-80388000D02*
X50005714Y-80388000D01*
X50177142Y-81937619D02*
X50477142Y-81413809D01*
X50691428Y-81937619D02*
X50691428Y-80837619D01*
X50348571Y-80837619D01*
X50262857Y-80890000D01*
X50220000Y-80942380D01*
X50177142Y-81047142D01*
X50177142Y-81204285D01*
X50220000Y-81309047D01*
X50262857Y-81361428D01*
X50348571Y-81413809D01*
X50691428Y-81413809D01*
D12*
G04 #@! TO.C,J1*
X74830000Y-67330000D02*
X76230000Y-67330000D01*
X74830000Y-68730000D02*
X74830000Y-67330000D01*
X80460000Y-67580000D02*
X76330000Y-67580000D01*
X80460000Y-70420000D02*
X80460000Y-67580000D01*
X75080000Y-70420000D02*
X80460000Y-70420000D01*
X75080000Y-68830000D02*
X75080000Y-70420000D01*
G04 #@! TO.C,J2*
X49670000Y-69550000D02*
X49670000Y-70950000D01*
X48270000Y-69550000D02*
X49670000Y-69550000D01*
X49420000Y-90420000D02*
X49420000Y-71050000D01*
X46580000Y-90420000D02*
X49420000Y-90420000D01*
X46580000Y-69800000D02*
X46580000Y-90420000D01*
X48170000Y-69800000D02*
X46580000Y-69800000D01*
G04 #@! TO.C,RN1*
X51330000Y-33550000D02*
X51330000Y-31450000D01*
X56670000Y-33550000D02*
X56670000Y-31450000D01*
G04 #@! TO.C,RN2*
X51330000Y-50450000D02*
X51330000Y-52550000D01*
X56670000Y-50450000D02*
X56670000Y-52550000D01*
G04 #@! TO.C,RN3*
X51330000Y-71550000D02*
X51330000Y-69450000D01*
X56670000Y-71550000D02*
X56670000Y-69450000D01*
G04 #@! TO.C,RN4*
X51330000Y-88450000D02*
X51330000Y-90550000D01*
X56670000Y-88450000D02*
X56670000Y-90550000D01*
G04 #@! TO.C,RN5*
X51330000Y-109550000D02*
X51330000Y-107450000D01*
X56670000Y-109550000D02*
X56670000Y-107450000D01*
G04 #@! TO.C,RN6*
X51330000Y-126450000D02*
X51330000Y-128550000D01*
X56670000Y-126450000D02*
X56670000Y-128550000D01*
G04 #@! TO.C,RN7*
X51330000Y-147550000D02*
X51330000Y-145450000D01*
X56670000Y-147550000D02*
X56670000Y-145450000D01*
G04 #@! TO.C,RN8*
X51330000Y-164450000D02*
X51330000Y-166550000D01*
X56670000Y-164450000D02*
X56670000Y-166550000D01*
G04 #@! TO.C,C1*
X58230000Y-79630000D02*
X58230000Y-78930000D01*
X57030000Y-78930000D02*
X57030000Y-79630000D01*
D13*
G04 #@! TO.C,U5*
X75900000Y-88000000D02*
X75900000Y-88150000D01*
X75900000Y-88150000D02*
X75750000Y-88150000D01*
X75900000Y-74000000D02*
X75900000Y-73850000D01*
X75900000Y-73850000D02*
X75750000Y-73850000D01*
X61600000Y-88000000D02*
X61600000Y-88150000D01*
X61600000Y-88150000D02*
X61750000Y-88150000D01*
X61600000Y-74000000D02*
X61600000Y-73850000D01*
X61600000Y-73850000D02*
X61750000Y-73850000D01*
D14*
X75777000Y-89300000D02*
G75*
G03X75777000Y-89300000I-127000J0D01*
G01*
G04 #@! TO.C,J1*
D13*
X80683333Y-71082380D02*
X80683333Y-71796666D01*
X80730952Y-71939523D01*
X80826190Y-72034761D01*
X80969047Y-72082380D01*
X81064285Y-72082380D01*
X79683333Y-72082380D02*
X80254761Y-72082380D01*
X79969047Y-72082380D02*
X79969047Y-71082380D01*
X80064285Y-71225238D01*
X80159523Y-71320476D01*
X80254761Y-71368095D01*
G04 #@! TO.C,J2*
X49882380Y-88726666D02*
X50596666Y-88726666D01*
X50739523Y-88679047D01*
X50834761Y-88583809D01*
X50882380Y-88440952D01*
X50882380Y-88345714D01*
X49977619Y-89155238D02*
X49930000Y-89202857D01*
X49882380Y-89298095D01*
X49882380Y-89536190D01*
X49930000Y-89631428D01*
X49977619Y-89679047D01*
X50072857Y-89726666D01*
X50168095Y-89726666D01*
X50310952Y-89679047D01*
X50882380Y-89107619D01*
X50882380Y-89726666D01*
G04 #@! TO.C,RN1*
X50952380Y-31809523D02*
X50476190Y-31476190D01*
X50952380Y-31238095D02*
X49952380Y-31238095D01*
X49952380Y-31619047D01*
X50000000Y-31714285D01*
X50047619Y-31761904D01*
X50142857Y-31809523D01*
X50285714Y-31809523D01*
X50380952Y-31761904D01*
X50428571Y-31714285D01*
X50476190Y-31619047D01*
X50476190Y-31238095D01*
X50952380Y-32238095D02*
X49952380Y-32238095D01*
X50952380Y-32809523D01*
X49952380Y-32809523D01*
X50952380Y-33809523D02*
X50952380Y-33238095D01*
X50952380Y-33523809D02*
X49952380Y-33523809D01*
X50095238Y-33428571D01*
X50190476Y-33333333D01*
X50238095Y-33238095D01*
G04 #@! TO.C,RN2*
X57952380Y-50809523D02*
X57476190Y-50476190D01*
X57952380Y-50238095D02*
X56952380Y-50238095D01*
X56952380Y-50619047D01*
X57000000Y-50714285D01*
X57047619Y-50761904D01*
X57142857Y-50809523D01*
X57285714Y-50809523D01*
X57380952Y-50761904D01*
X57428571Y-50714285D01*
X57476190Y-50619047D01*
X57476190Y-50238095D01*
X57952380Y-51238095D02*
X56952380Y-51238095D01*
X57952380Y-51809523D01*
X56952380Y-51809523D01*
X57047619Y-52238095D02*
X57000000Y-52285714D01*
X56952380Y-52380952D01*
X56952380Y-52619047D01*
X57000000Y-52714285D01*
X57047619Y-52761904D01*
X57142857Y-52809523D01*
X57238095Y-52809523D01*
X57380952Y-52761904D01*
X57952380Y-52190476D01*
X57952380Y-52809523D01*
G04 #@! TO.C,RN3*
X50952380Y-69809523D02*
X50476190Y-69476190D01*
X50952380Y-69238095D02*
X49952380Y-69238095D01*
X49952380Y-69619047D01*
X50000000Y-69714285D01*
X50047619Y-69761904D01*
X50142857Y-69809523D01*
X50285714Y-69809523D01*
X50380952Y-69761904D01*
X50428571Y-69714285D01*
X50476190Y-69619047D01*
X50476190Y-69238095D01*
X50952380Y-70238095D02*
X49952380Y-70238095D01*
X50952380Y-70809523D01*
X49952380Y-70809523D01*
X49952380Y-71190476D02*
X49952380Y-71809523D01*
X50333333Y-71476190D01*
X50333333Y-71619047D01*
X50380952Y-71714285D01*
X50428571Y-71761904D01*
X50523809Y-71809523D01*
X50761904Y-71809523D01*
X50857142Y-71761904D01*
X50904761Y-71714285D01*
X50952380Y-71619047D01*
X50952380Y-71333333D01*
X50904761Y-71238095D01*
X50857142Y-71190476D01*
G04 #@! TO.C,RN4*
X57952380Y-88809523D02*
X57476190Y-88476190D01*
X57952380Y-88238095D02*
X56952380Y-88238095D01*
X56952380Y-88619047D01*
X57000000Y-88714285D01*
X57047619Y-88761904D01*
X57142857Y-88809523D01*
X57285714Y-88809523D01*
X57380952Y-88761904D01*
X57428571Y-88714285D01*
X57476190Y-88619047D01*
X57476190Y-88238095D01*
X57952380Y-89238095D02*
X56952380Y-89238095D01*
X57952380Y-89809523D01*
X56952380Y-89809523D01*
X57285714Y-90714285D02*
X57952380Y-90714285D01*
X56904761Y-90476190D02*
X57619047Y-90238095D01*
X57619047Y-90857142D01*
G04 #@! TO.C,RN5*
X50952380Y-107809523D02*
X50476190Y-107476190D01*
X50952380Y-107238095D02*
X49952380Y-107238095D01*
X49952380Y-107619047D01*
X50000000Y-107714285D01*
X50047619Y-107761904D01*
X50142857Y-107809523D01*
X50285714Y-107809523D01*
X50380952Y-107761904D01*
X50428571Y-107714285D01*
X50476190Y-107619047D01*
X50476190Y-107238095D01*
X50952380Y-108238095D02*
X49952380Y-108238095D01*
X50952380Y-108809523D01*
X49952380Y-108809523D01*
X49952380Y-109761904D02*
X49952380Y-109285714D01*
X50428571Y-109238095D01*
X50380952Y-109285714D01*
X50333333Y-109380952D01*
X50333333Y-109619047D01*
X50380952Y-109714285D01*
X50428571Y-109761904D01*
X50523809Y-109809523D01*
X50761904Y-109809523D01*
X50857142Y-109761904D01*
X50904761Y-109714285D01*
X50952380Y-109619047D01*
X50952380Y-109380952D01*
X50904761Y-109285714D01*
X50857142Y-109238095D01*
G04 #@! TO.C,RN6*
X57952380Y-126809523D02*
X57476190Y-126476190D01*
X57952380Y-126238095D02*
X56952380Y-126238095D01*
X56952380Y-126619047D01*
X57000000Y-126714285D01*
X57047619Y-126761904D01*
X57142857Y-126809523D01*
X57285714Y-126809523D01*
X57380952Y-126761904D01*
X57428571Y-126714285D01*
X57476190Y-126619047D01*
X57476190Y-126238095D01*
X57952380Y-127238095D02*
X56952380Y-127238095D01*
X57952380Y-127809523D01*
X56952380Y-127809523D01*
X56952380Y-128714285D02*
X56952380Y-128523809D01*
X57000000Y-128428571D01*
X57047619Y-128380952D01*
X57190476Y-128285714D01*
X57380952Y-128238095D01*
X57761904Y-128238095D01*
X57857142Y-128285714D01*
X57904761Y-128333333D01*
X57952380Y-128428571D01*
X57952380Y-128619047D01*
X57904761Y-128714285D01*
X57857142Y-128761904D01*
X57761904Y-128809523D01*
X57523809Y-128809523D01*
X57428571Y-128761904D01*
X57380952Y-128714285D01*
X57333333Y-128619047D01*
X57333333Y-128428571D01*
X57380952Y-128333333D01*
X57428571Y-128285714D01*
X57523809Y-128238095D01*
G04 #@! TO.C,RN7*
X50952380Y-145809523D02*
X50476190Y-145476190D01*
X50952380Y-145238095D02*
X49952380Y-145238095D01*
X49952380Y-145619047D01*
X50000000Y-145714285D01*
X50047619Y-145761904D01*
X50142857Y-145809523D01*
X50285714Y-145809523D01*
X50380952Y-145761904D01*
X50428571Y-145714285D01*
X50476190Y-145619047D01*
X50476190Y-145238095D01*
X50952380Y-146238095D02*
X49952380Y-146238095D01*
X50952380Y-146809523D01*
X49952380Y-146809523D01*
X49952380Y-147190476D02*
X49952380Y-147857142D01*
X50952380Y-147428571D01*
G04 #@! TO.C,RN8*
X57952380Y-164809523D02*
X57476190Y-164476190D01*
X57952380Y-164238095D02*
X56952380Y-164238095D01*
X56952380Y-164619047D01*
X57000000Y-164714285D01*
X57047619Y-164761904D01*
X57142857Y-164809523D01*
X57285714Y-164809523D01*
X57380952Y-164761904D01*
X57428571Y-164714285D01*
X57476190Y-164619047D01*
X57476190Y-164238095D01*
X57952380Y-165238095D02*
X56952380Y-165238095D01*
X57952380Y-165809523D01*
X56952380Y-165809523D01*
X57380952Y-166428571D02*
X57333333Y-166333333D01*
X57285714Y-166285714D01*
X57190476Y-166238095D01*
X57142857Y-166238095D01*
X57047619Y-166285714D01*
X57000000Y-166333333D01*
X56952380Y-166428571D01*
X56952380Y-166619047D01*
X57000000Y-166714285D01*
X57047619Y-166761904D01*
X57142857Y-166809523D01*
X57190476Y-166809523D01*
X57285714Y-166761904D01*
X57333333Y-166714285D01*
X57380952Y-166619047D01*
X57380952Y-166428571D01*
X57428571Y-166333333D01*
X57476190Y-166285714D01*
X57571428Y-166238095D01*
X57761904Y-166238095D01*
X57857142Y-166285714D01*
X57904761Y-166333333D01*
X57952380Y-166428571D01*
X57952380Y-166619047D01*
X57904761Y-166714285D01*
X57857142Y-166761904D01*
X57761904Y-166809523D01*
X57571428Y-166809523D01*
X57476190Y-166761904D01*
X57428571Y-166714285D01*
X57380952Y-166619047D01*
G04 #@! TO.C,C1*
X59487142Y-79113333D02*
X59534761Y-79065714D01*
X59582380Y-78922857D01*
X59582380Y-78827619D01*
X59534761Y-78684761D01*
X59439523Y-78589523D01*
X59344285Y-78541904D01*
X59153809Y-78494285D01*
X59010952Y-78494285D01*
X58820476Y-78541904D01*
X58725238Y-78589523D01*
X58630000Y-78684761D01*
X58582380Y-78827619D01*
X58582380Y-78922857D01*
X58630000Y-79065714D01*
X58677619Y-79113333D01*
X59582380Y-80065714D02*
X59582380Y-79494285D01*
X59582380Y-79780000D02*
X58582380Y-79780000D01*
X58725238Y-79684761D01*
X58820476Y-79589523D01*
X58868095Y-79494285D01*
G04 #@! TO.C,U5*
X77952380Y-80238095D02*
X78761904Y-80238095D01*
X78857142Y-80285714D01*
X78904761Y-80333333D01*
X78952380Y-80428571D01*
X78952380Y-80619047D01*
X78904761Y-80714285D01*
X78857142Y-80761904D01*
X78761904Y-80809523D01*
X77952380Y-80809523D01*
X77952380Y-81761904D02*
X77952380Y-81285714D01*
X78428571Y-81238095D01*
X78380952Y-81285714D01*
X78333333Y-81380952D01*
X78333333Y-81619047D01*
X78380952Y-81714285D01*
X78428571Y-81761904D01*
X78523809Y-81809523D01*
X78761904Y-81809523D01*
X78857142Y-81761904D01*
X78904761Y-81714285D01*
X78952380Y-81619047D01*
X78952380Y-81380952D01*
X78904761Y-81285714D01*
X78857142Y-81238095D01*
G04 #@! TD*
M02*
