M48
;DRILL file {KiCad (2018-02-14 revision 6afdf1cf8)-makepkg} date 05/17/18 19:59:32
;FORMAT={-:-/ absolute / metric / decimal}
FMAT,2
METRIC,TZ
T1C0.400
T2C0.650
%
G90
G05
M71
T1
X43.028Y-127.102
X46.787Y-127.105
X49.581Y-175.412
X50.216Y-127.105
X51.079Y-156.794
X52.578Y-175.463
X52.883Y-147.193
X52.959Y-140.487
X53.01Y-156.794
X53.061Y-166.243
X53.147Y-159.566
X53.746Y-127.105
X53.772Y-161.138
X53.975Y-169.748
X54.864Y-153.695
X54.966Y-172.009
X54.997Y-159.485
X55.626Y-161.112
X55.626Y-175.463
X55.931Y-137.084
X55.931Y-150.901
X56.032Y-135.331
X56.167Y-155.407
X56.769Y-147.218
X56.82Y-140.513
X56.871Y-156.82
X56.896Y-166.116
X56.907Y-159.584
X57.226Y-127.105
X57.506Y-161.112
X58.674Y-156.058
X58.714Y-159.582
X59.298Y-161.186
X59.893Y-147.168
X59.969Y-156.718
X59.995Y-140.538
X60.046Y-166.116
X60.681Y-127.105
X60.909Y-170.282
X61.2Y-159.494
X61.722Y-161.087
X61.976Y-153.772
X62.244Y-171.882
X62.636Y-175.616
X63.043Y-151.155
X63.05Y-155.507
X63.068Y-137.109
X63.099Y-159.532
X63.144Y-135.331
X63.602Y-161.061
X63.805Y-147.218
X63.856Y-140.589
X63.881Y-156.82
X63.881Y-166.462
X64.237Y-127.105
X65.009Y-159.486
X65.405Y-161.061
X65.583Y-175.616
X65.71Y-150.089
X65.785Y-156.788
X67.31Y-160.122
X67.716Y-127.105
X68.631Y-175.616
X71.272Y-127.105
X73.609Y-175.666
X74.778Y-127.105
X76.581Y-147.117
X76.606Y-175.616
X77.064Y-137.744
X77.089Y-154.28
X77.724Y-156.21
X77.901Y-136.309
X78.308Y-127.105
X78.308Y-166.395
X78.359Y-159.512
X78.461Y-147.295
X78.511Y-140.487
X78.537Y-137.693
X78.588Y-154.432
X79.146Y-170.155
X79.172Y-156.21
X79.426Y-136.169
X79.553Y-175.616
X80.264Y-171.958
X80.442Y-134.823
X80.467Y-153.848
X81.204Y-156.413
X81.331Y-151.063
X81.382Y-151.841
X81.483Y-136.677
X81.538Y-154.996
X81.788Y-127.105
X81.89Y-134.493
X82.118Y-166.395
X82.169Y-159.487
X82.271Y-140.462
X82.347Y-147.295
X82.423Y-153.594
X82.829Y-156.489
X83.093Y-136.728
X83.533Y-155.026
X83.856Y-135.149
X84.099Y-153.568
X84.582Y-175.666
X84.709Y-156.667
X85.217Y-127.105
X85.293Y-166.421
X85.369Y-159.512
X85.446Y-155.042
X85.471Y-147.269
X85.522Y-140.411
X85.962Y-170.184
X86.004Y-137.008
X86.131Y-156.515
X87.147Y-172.06
X87.173Y-153.822
X87.579Y-175.616
X88.135Y-155.62
X88.417Y-151.867
X88.468Y-150.927
X88.57Y-136.906
X88.798Y-127.105
X89.002Y-154.026
X89.009Y-156.878
X89.154Y-166.37
X89.179Y-159.555
X89.23Y-147.32
X89.281Y-140.487
X90.119Y-155.169
X90.576Y-175.565
X90.83Y-156.997
X91.11Y-159.512
X91.567Y-156.591
X92.024Y-148.615
X92.202Y-127.105
X92.634Y-168.504
X95.682Y-127.105
X99.238Y-127.105
X100.965Y-132.817
X102.743Y-127.105
X104.496Y-133.037
X106.223Y-127.105
X107.95Y-133.037
X109.55Y-175.514
X109.753Y-127.105
X111.531Y-133.037
X111.557Y-156.616
X112.196Y-165.676
X112.547Y-175.539
X112.827Y-165.024
X113.259Y-127.105
X113.386Y-156.947
X113.411Y-166.319
X113.835Y-170.917
X114.021Y-164.998
X114.021Y-169.85
X114.757Y-164.414
X114.91Y-133.037
X115.367Y-153.662
X115.519Y-175.539
X115.951Y-164.338
X116.473Y-155.177
X116.586Y-163.652
X116.713Y-127.105
X117.17Y-156.896
X117.272Y-166.319
X117.907Y-163.627
X118.44Y-133.037
X118.491Y-162.89
X119.126Y-162.23
X119.786Y-161.569
X120.269Y-127.105
X120.371Y-156.87
X120.472Y-166.319
X120.98Y-161.468
X121.285Y-169.85
X121.285Y-170.942
X121.691Y-160.884
X122.022Y-133.037
X122.428Y-153.662
X122.53Y-175.565
X122.961Y-160.807
X123.545Y-155.177
X123.647Y-160.274
X123.774Y-127.105
X124.181Y-156.921
X124.257Y-166.37
X124.816Y-160.223
X125.4Y-159.588
X125.552Y-175.514
X126.086Y-156.921
X127.279Y-127.105
X128.6Y-175.463
X130.759Y-127.105
X133.604Y-175.514
X134.214Y-127.105
X135.077Y-147.549
X135.763Y-148.133
X136.373Y-166.37
X136.398Y-159.512
X136.55Y-175.514
X137.033Y-148.209
X137.262Y-170.205
X137.719Y-148.768
X137.77Y-127.105
X138.43Y-153.662
X138.43Y-172.11
X139.471Y-155.177
X139.548Y-148.768
X139.598Y-175.565
X140.183Y-166.345
X140.233Y-149.403
X140.284Y-159.487
X140.818Y-150.063
X141.249Y-127.105
X141.478Y-150.673
X142.113Y-151.308
X142.773Y-151.943
X143.281Y-166.345
X143.408Y-159.461
X143.719Y-152.494
X144.348Y-152.951
X144.602Y-175.565
X144.704Y-127.105
X145.263Y-172.034
X145.939Y-152.748
X146.261Y-156.589
X146.431Y-170.155
X146.563Y-153.261
X146.964Y-140.767
X147.193Y-166.294
X147.218Y-159.512
X147.34Y-153.308
X147.599Y-175.565
X147.941Y-154.623
X148.26Y-127.105
X148.565Y-155.448
X150.52Y-175.539
X150.774Y-167.513
X151.74Y-127.105
X155.27Y-126.517
X159.512Y-136.271
T2
X162.725Y-135.3
X163.995Y-135.3
X156.55Y-135.3
X157.82Y-135.3
T0
M30
