G04 #@! TF.GenerationSoftware,KiCad,Pcbnew,(2018-02-14 revision 6afdf1cf8)-makepkg*
G04 #@! TF.CreationDate,2018-05-17T19:59:26-07:00*
G04 #@! TF.ProjectId,register-card,72656769737465722D636172642E6B69,rev?*
G04 #@! TF.SameCoordinates,Original*
G04 #@! TF.FileFunction,Copper,L2,Inr,Plane*
G04 #@! TF.FilePolarity,Positive*
%FSLAX46Y46*%
G04 Gerber Fmt 4.6, Leading zero omitted, Abs format (unit mm)*
G04 Created by KiCad (PCBNEW (2018-02-14 revision 6afdf1cf8)-makepkg) date 05/17/18 19:59:26*
%MOMM*%
%LPD*%
G01*
G04 APERTURE LIST*
%ADD10R,1.000000X1.000000*%
%ADD11O,1.000000X1.000000*%
%ADD12C,0.600000*%
%ADD13C,0.254000*%
G04 APERTURE END LIST*
D10*
X162725000Y-135300000D03*
D11*
X163995000Y-135300000D03*
D10*
X156550000Y-135300000D03*
D11*
X157820000Y-135300000D03*
D12*
X88134891Y-155619658D03*
X88569800Y-136906000D03*
X81203800Y-156413200D03*
X147599400Y-175564800D03*
X136550400Y-175514000D03*
X125552200Y-175514000D03*
X112547400Y-175539400D03*
X137261600Y-170205400D03*
X146431000Y-170154600D03*
X121285000Y-169849800D03*
X114020600Y-169849800D03*
X85961510Y-170184041D03*
X79146400Y-170154600D03*
X146964400Y-140766800D03*
X63050458Y-155507066D03*
X56166907Y-155407094D03*
X63042800Y-151155400D03*
X81483200Y-136677400D03*
X123545195Y-155176510D03*
X116472578Y-155176510D03*
X139471400Y-155176510D03*
X146261289Y-156589340D03*
X81331329Y-151063389D03*
X88468200Y-150926800D03*
X63068200Y-137109200D03*
X55930800Y-137083800D03*
X60909200Y-170281600D03*
X53975000Y-169748200D03*
X55930800Y-150901400D03*
X87579200Y-175615600D03*
X76606400Y-175615600D03*
X65582800Y-175615600D03*
X52578000Y-175463200D03*
X46786800Y-127105416D03*
X50215800Y-127105416D03*
X53746400Y-127105416D03*
X57226200Y-127105416D03*
X60680600Y-127105416D03*
X64236600Y-127105416D03*
X67716400Y-127105416D03*
X71272400Y-127105416D03*
X74777600Y-127105416D03*
X78308200Y-127105416D03*
X81788000Y-127105416D03*
X85217000Y-127105416D03*
X88798400Y-127105416D03*
X92202000Y-127105416D03*
X95681800Y-127105416D03*
X99237800Y-127105416D03*
X102743000Y-127105416D03*
X106222800Y-127105416D03*
X109753400Y-127105416D03*
X113258600Y-127105416D03*
X116713000Y-127105416D03*
X120269000Y-127105416D03*
X123774200Y-127105416D03*
X127279400Y-127105416D03*
X130759200Y-127105416D03*
X134213600Y-127105416D03*
X137769600Y-127105416D03*
X141249400Y-127105416D03*
X144703800Y-127105416D03*
X148259800Y-127105416D03*
X151739600Y-127105416D03*
X136398000Y-159512000D03*
X86004400Y-137007600D03*
X80441800Y-134823200D03*
X87172800Y-153822400D03*
X80467200Y-153847800D03*
X124180600Y-156921200D03*
X120370600Y-156870400D03*
X117170200Y-156895800D03*
X113385600Y-156946600D03*
X147193000Y-166293800D03*
X143281400Y-166344600D03*
X140182600Y-166344600D03*
X136372600Y-166370000D03*
X113834890Y-170916600D03*
X150520400Y-175539400D03*
X144602200Y-175564800D03*
X139598400Y-175564800D03*
X133604000Y-175514000D03*
X128600200Y-175463200D03*
X122529600Y-175564800D03*
X115519200Y-175539400D03*
X109550200Y-175514000D03*
X113411000Y-166319200D03*
X117271800Y-166319200D03*
X120472200Y-166319200D03*
X124256800Y-166370000D03*
X140284200Y-159486600D03*
X145262600Y-172034200D03*
X138430000Y-172110400D03*
X121285000Y-170942000D03*
X63804800Y-147218400D03*
X59893200Y-147167600D03*
X56769000Y-147218400D03*
X52882800Y-147193000D03*
X89154000Y-166370000D03*
X85293200Y-166420800D03*
X82118200Y-166395400D03*
X78308200Y-166395400D03*
X87147400Y-172059600D03*
X80264000Y-171958000D03*
X43027600Y-127101600D03*
X155270200Y-126517400D03*
X63881000Y-166462144D03*
X65785412Y-156787715D03*
X63881000Y-156819600D03*
X59969400Y-156718000D03*
X56870600Y-156819600D03*
X51079400Y-156794200D03*
X53009800Y-156794200D03*
X89179400Y-159554758D03*
X89230200Y-147320000D03*
X85471000Y-147269200D03*
X82346800Y-147294600D03*
X78460600Y-147294600D03*
X78511400Y-140487400D03*
X89281000Y-140487400D03*
X85521800Y-140411200D03*
X82270600Y-140462000D03*
X115366800Y-153662075D03*
X122428000Y-153662075D03*
X138430000Y-153662077D03*
X145938529Y-152747690D03*
X81381600Y-151841200D03*
X78359000Y-159512000D03*
X143408400Y-159461200D03*
X147218400Y-159512000D03*
X88417400Y-151866600D03*
X82169000Y-159486600D03*
X85369400Y-159512000D03*
X91109800Y-159512000D03*
X63855600Y-140589000D03*
X59994800Y-140538200D03*
X63144400Y-135331200D03*
X56032400Y-135331200D03*
X56819800Y-140512800D03*
X52959000Y-140487400D03*
X61976000Y-153771600D03*
X54864000Y-153695400D03*
X60045600Y-166116000D03*
X56896000Y-166116000D03*
X53060600Y-166243000D03*
X62243871Y-171881886D03*
X54965600Y-172008800D03*
X90576400Y-175564800D03*
X84582000Y-175666400D03*
X79552800Y-175615600D03*
X73609200Y-175666400D03*
X68630800Y-175615600D03*
X62636400Y-175615600D03*
X55626000Y-175463200D03*
X49580800Y-175412400D03*
X111556800Y-156616398D03*
X91567000Y-156591000D03*
X126085600Y-156921200D03*
X92633800Y-168503600D03*
X65709800Y-150088600D03*
X92024200Y-148615400D03*
X76581000Y-147116800D03*
X159512000Y-136271000D03*
X150774400Y-167513000D03*
X77063600Y-137744202D03*
X100965000Y-132816600D03*
X107950000Y-133037246D03*
X78536798Y-137693400D03*
X114909600Y-133037246D03*
X81889600Y-134493000D03*
X83856082Y-135149033D03*
X122021600Y-133037246D03*
X104495600Y-133037246D03*
X77901226Y-136309111D03*
X111531400Y-133037246D03*
X79425800Y-136169400D03*
X118440200Y-133037246D03*
X83092933Y-136728200D03*
X67310000Y-160121600D03*
X125399800Y-159588200D03*
X65009084Y-159485734D03*
X124815600Y-160223200D03*
X65405000Y-161061400D03*
X123647200Y-160274000D03*
X63099058Y-159532252D03*
X122961402Y-160807402D03*
X63601600Y-161061400D03*
X121691400Y-160883600D03*
X61200437Y-159493701D03*
X120980200Y-161467798D03*
X61722000Y-161086800D03*
X119786400Y-161569400D03*
X58674000Y-156057600D03*
X119126000Y-162229800D03*
X58713852Y-159581899D03*
X118491000Y-162890200D03*
X59298417Y-161185545D03*
X117906800Y-163626800D03*
X56907045Y-159583764D03*
X116586000Y-163652200D03*
X57505600Y-161112200D03*
X115951000Y-164338000D03*
X54996741Y-159484759D03*
X114757200Y-164414200D03*
X55625996Y-161112200D03*
X114020600Y-164998400D03*
X53147432Y-159565704D03*
X112826800Y-165023800D03*
X112195999Y-165676290D03*
X53771800Y-161137600D03*
X77089000Y-154279600D03*
X135077200Y-147548602D03*
X135763000Y-148132801D03*
X77724000Y-156210000D03*
X78587604Y-154432000D03*
X137033000Y-148209000D03*
X137718800Y-148767800D03*
X79171800Y-156210000D03*
X81538356Y-154995914D03*
X139547600Y-148767800D03*
X82423000Y-153593800D03*
X140233400Y-149402798D03*
X82829400Y-156489400D03*
X140817599Y-150063200D03*
X83532690Y-155026015D03*
X141477996Y-150672800D03*
X84099400Y-153568400D03*
X142113000Y-151307798D03*
X142773400Y-151942800D03*
X84709000Y-156667200D03*
X143718635Y-152494086D03*
X85445600Y-155041598D03*
X144348200Y-152950857D03*
X86131400Y-156514800D03*
X89001600Y-154025600D03*
X146563357Y-153261025D03*
X147339768Y-153307694D03*
X89008885Y-156877684D03*
X90119200Y-155168600D03*
X147941461Y-154623410D03*
X148564600Y-155448000D03*
X90830400Y-156997400D03*
D13*
G36*
X166044001Y-175794000D02*
X161556000Y-175794000D01*
X161556000Y-174005091D01*
X161549665Y-173973243D01*
X161547238Y-173959838D01*
X161547238Y-173911039D01*
X161436863Y-173356148D01*
X161368775Y-173191768D01*
X161368773Y-173191766D01*
X161054455Y-172721355D01*
X160928645Y-172595545D01*
X160458234Y-172281227D01*
X160458232Y-172281225D01*
X160293852Y-172213137D01*
X159738961Y-172102762D01*
X159561039Y-172102762D01*
X159006148Y-172213137D01*
X158841768Y-172281225D01*
X158841766Y-172281227D01*
X158371355Y-172595545D01*
X158245545Y-172721355D01*
X157931227Y-173191766D01*
X157931225Y-173191768D01*
X157863137Y-173356148D01*
X157752762Y-173911039D01*
X157752762Y-173911047D01*
X157744001Y-173955091D01*
X157744000Y-181594000D01*
X120456000Y-181594000D01*
X120456000Y-175378541D01*
X124871200Y-175378541D01*
X124871200Y-175649459D01*
X124974876Y-175899756D01*
X125166444Y-176091324D01*
X125416741Y-176195000D01*
X125687659Y-176195000D01*
X125937956Y-176091324D01*
X126129524Y-175899756D01*
X126233200Y-175649459D01*
X126233200Y-175378541D01*
X135869400Y-175378541D01*
X135869400Y-175649459D01*
X135973076Y-175899756D01*
X136164644Y-176091324D01*
X136414941Y-176195000D01*
X136685859Y-176195000D01*
X136936156Y-176091324D01*
X137127724Y-175899756D01*
X137231400Y-175649459D01*
X137231400Y-175429341D01*
X146918400Y-175429341D01*
X146918400Y-175700259D01*
X147022076Y-175950556D01*
X147213644Y-176142124D01*
X147463941Y-176245800D01*
X147734859Y-176245800D01*
X147985156Y-176142124D01*
X148176724Y-175950556D01*
X148280400Y-175700259D01*
X148280400Y-175429341D01*
X148176724Y-175179044D01*
X147985156Y-174987476D01*
X147734859Y-174883800D01*
X147463941Y-174883800D01*
X147213644Y-174987476D01*
X147022076Y-175179044D01*
X146918400Y-175429341D01*
X137231400Y-175429341D01*
X137231400Y-175378541D01*
X137127724Y-175128244D01*
X136936156Y-174936676D01*
X136685859Y-174833000D01*
X136414941Y-174833000D01*
X136164644Y-174936676D01*
X135973076Y-175128244D01*
X135869400Y-175378541D01*
X126233200Y-175378541D01*
X126129524Y-175128244D01*
X125937956Y-174936676D01*
X125687659Y-174833000D01*
X125416741Y-174833000D01*
X125166444Y-174936676D01*
X124974876Y-175128244D01*
X124871200Y-175378541D01*
X120456000Y-175378541D01*
X120456000Y-173955091D01*
X120447238Y-173911042D01*
X120447238Y-173911039D01*
X120374924Y-173547490D01*
X120373507Y-173544068D01*
X120306836Y-173383110D01*
X120100901Y-173074908D01*
X120037996Y-173012004D01*
X119975092Y-172949099D01*
X119666890Y-172743164D01*
X119502511Y-172675076D01*
X119502509Y-172675076D01*
X119138963Y-172602762D01*
X118961037Y-172602762D01*
X118597490Y-172675076D01*
X118597489Y-172675076D01*
X118433110Y-172743164D01*
X118124908Y-172949099D01*
X118062004Y-173012004D01*
X117999099Y-173074908D01*
X117793164Y-173383110D01*
X117725076Y-173547489D01*
X117725076Y-173547491D01*
X117652762Y-173911039D01*
X117652762Y-173911047D01*
X117644001Y-173955091D01*
X117644000Y-181594000D01*
X107356000Y-181594000D01*
X107356000Y-175403941D01*
X111866400Y-175403941D01*
X111866400Y-175674859D01*
X111970076Y-175925156D01*
X112161644Y-176116724D01*
X112411941Y-176220400D01*
X112682859Y-176220400D01*
X112933156Y-176116724D01*
X113124724Y-175925156D01*
X113228400Y-175674859D01*
X113228400Y-175403941D01*
X113124724Y-175153644D01*
X112933156Y-174962076D01*
X112682859Y-174858400D01*
X112411941Y-174858400D01*
X112161644Y-174962076D01*
X111970076Y-175153644D01*
X111866400Y-175403941D01*
X107356000Y-175403941D01*
X107356000Y-174005091D01*
X107349663Y-173973235D01*
X107347238Y-173959839D01*
X107347238Y-173911039D01*
X107236863Y-173356148D01*
X107168775Y-173191768D01*
X107168773Y-173191766D01*
X106854455Y-172721355D01*
X106728645Y-172595545D01*
X106258234Y-172281227D01*
X106258232Y-172281225D01*
X106093852Y-172213137D01*
X105538961Y-172102762D01*
X105538958Y-172102762D01*
X105494909Y-172094000D01*
X99655091Y-172094000D01*
X99625065Y-172099973D01*
X99609709Y-172102762D01*
X99561039Y-172102762D01*
X99006148Y-172213137D01*
X98841768Y-172281225D01*
X98841766Y-172281227D01*
X98371355Y-172595545D01*
X98245545Y-172721355D01*
X97931227Y-173191766D01*
X97931225Y-173191768D01*
X97863137Y-173356148D01*
X97752762Y-173911039D01*
X97752762Y-173911047D01*
X97744001Y-173955091D01*
X97744000Y-181594000D01*
X60456000Y-181594000D01*
X60456000Y-175480141D01*
X64901800Y-175480141D01*
X64901800Y-175751059D01*
X65005476Y-176001356D01*
X65197044Y-176192924D01*
X65447341Y-176296600D01*
X65718259Y-176296600D01*
X65968556Y-176192924D01*
X66160124Y-176001356D01*
X66263800Y-175751059D01*
X66263800Y-175480141D01*
X75925400Y-175480141D01*
X75925400Y-175751059D01*
X76029076Y-176001356D01*
X76220644Y-176192924D01*
X76470941Y-176296600D01*
X76741859Y-176296600D01*
X76992156Y-176192924D01*
X77183724Y-176001356D01*
X77287400Y-175751059D01*
X77287400Y-175480141D01*
X86898200Y-175480141D01*
X86898200Y-175751059D01*
X87001876Y-176001356D01*
X87193444Y-176192924D01*
X87443741Y-176296600D01*
X87714659Y-176296600D01*
X87964956Y-176192924D01*
X88156524Y-176001356D01*
X88260200Y-175751059D01*
X88260200Y-175480141D01*
X88156524Y-175229844D01*
X87964956Y-175038276D01*
X87714659Y-174934600D01*
X87443741Y-174934600D01*
X87193444Y-175038276D01*
X87001876Y-175229844D01*
X86898200Y-175480141D01*
X77287400Y-175480141D01*
X77183724Y-175229844D01*
X76992156Y-175038276D01*
X76741859Y-174934600D01*
X76470941Y-174934600D01*
X76220644Y-175038276D01*
X76029076Y-175229844D01*
X75925400Y-175480141D01*
X66263800Y-175480141D01*
X66160124Y-175229844D01*
X65968556Y-175038276D01*
X65718259Y-174934600D01*
X65447341Y-174934600D01*
X65197044Y-175038276D01*
X65005476Y-175229844D01*
X64901800Y-175480141D01*
X60456000Y-175480141D01*
X60456000Y-173955091D01*
X60447238Y-173911042D01*
X60447238Y-173911039D01*
X60374924Y-173547490D01*
X60373507Y-173544068D01*
X60306836Y-173383110D01*
X60100901Y-173074908D01*
X60037996Y-173012004D01*
X59975092Y-172949099D01*
X59666890Y-172743164D01*
X59502511Y-172675076D01*
X59502509Y-172675076D01*
X59138963Y-172602762D01*
X58961037Y-172602762D01*
X58597490Y-172675076D01*
X58597489Y-172675076D01*
X58433110Y-172743164D01*
X58124908Y-172949099D01*
X58062004Y-173012004D01*
X57999099Y-173074908D01*
X57793164Y-173383110D01*
X57725076Y-173547489D01*
X57725076Y-173547491D01*
X57652762Y-173911039D01*
X57652762Y-173911043D01*
X57644000Y-173955092D01*
X57644001Y-181594000D01*
X47356000Y-181594000D01*
X47356000Y-175327741D01*
X51897000Y-175327741D01*
X51897000Y-175598659D01*
X52000676Y-175848956D01*
X52192244Y-176040524D01*
X52442541Y-176144200D01*
X52713459Y-176144200D01*
X52963756Y-176040524D01*
X53155324Y-175848956D01*
X53259000Y-175598659D01*
X53259000Y-175327741D01*
X53155324Y-175077444D01*
X52963756Y-174885876D01*
X52713459Y-174782200D01*
X52442541Y-174782200D01*
X52192244Y-174885876D01*
X52000676Y-175077444D01*
X51897000Y-175327741D01*
X47356000Y-175327741D01*
X47356000Y-174005091D01*
X47349665Y-173973243D01*
X47347238Y-173959838D01*
X47347238Y-173911039D01*
X47236863Y-173356148D01*
X47168775Y-173191768D01*
X47168773Y-173191766D01*
X46854455Y-172721355D01*
X46728645Y-172595545D01*
X46258234Y-172281227D01*
X46258232Y-172281225D01*
X46093852Y-172213137D01*
X45538961Y-172102762D01*
X45361039Y-172102762D01*
X44806148Y-172213137D01*
X44641768Y-172281225D01*
X44641766Y-172281227D01*
X44171355Y-172595545D01*
X44045545Y-172721355D01*
X43731227Y-173191766D01*
X43731225Y-173191768D01*
X43663137Y-173356148D01*
X43552762Y-173911039D01*
X43552762Y-173911043D01*
X43544000Y-173955092D01*
X43544001Y-175794000D01*
X40456000Y-175794000D01*
X40456000Y-169612741D01*
X53294000Y-169612741D01*
X53294000Y-169883659D01*
X53397676Y-170133956D01*
X53589244Y-170325524D01*
X53839541Y-170429200D01*
X54110459Y-170429200D01*
X54360756Y-170325524D01*
X54540139Y-170146141D01*
X60228200Y-170146141D01*
X60228200Y-170417059D01*
X60331876Y-170667356D01*
X60523444Y-170858924D01*
X60773741Y-170962600D01*
X61044659Y-170962600D01*
X61294956Y-170858924D01*
X61486524Y-170667356D01*
X61590200Y-170417059D01*
X61590200Y-170146141D01*
X61537596Y-170019141D01*
X78465400Y-170019141D01*
X78465400Y-170290059D01*
X78569076Y-170540356D01*
X78760644Y-170731924D01*
X79010941Y-170835600D01*
X79281859Y-170835600D01*
X79532156Y-170731924D01*
X79723724Y-170540356D01*
X79827400Y-170290059D01*
X79827400Y-170048582D01*
X85280510Y-170048582D01*
X85280510Y-170319500D01*
X85384186Y-170569797D01*
X85575754Y-170761365D01*
X85826051Y-170865041D01*
X86096969Y-170865041D01*
X86347266Y-170761365D01*
X86538834Y-170569797D01*
X86642510Y-170319500D01*
X86642510Y-170048582D01*
X86538834Y-169798285D01*
X86454890Y-169714341D01*
X113339600Y-169714341D01*
X113339600Y-169985259D01*
X113443276Y-170235556D01*
X113634844Y-170427124D01*
X113885141Y-170530800D01*
X114156059Y-170530800D01*
X114406356Y-170427124D01*
X114597924Y-170235556D01*
X114701600Y-169985259D01*
X114701600Y-169714341D01*
X120604000Y-169714341D01*
X120604000Y-169985259D01*
X120707676Y-170235556D01*
X120899244Y-170427124D01*
X121149541Y-170530800D01*
X121420459Y-170530800D01*
X121670756Y-170427124D01*
X121862324Y-170235556D01*
X121930923Y-170069941D01*
X136580600Y-170069941D01*
X136580600Y-170340859D01*
X136684276Y-170591156D01*
X136875844Y-170782724D01*
X137126141Y-170886400D01*
X137397059Y-170886400D01*
X137647356Y-170782724D01*
X137838924Y-170591156D01*
X137942600Y-170340859D01*
X137942600Y-170069941D01*
X137921559Y-170019141D01*
X145750000Y-170019141D01*
X145750000Y-170290059D01*
X145853676Y-170540356D01*
X146045244Y-170731924D01*
X146295541Y-170835600D01*
X146566459Y-170835600D01*
X146816756Y-170731924D01*
X147008324Y-170540356D01*
X147112000Y-170290059D01*
X147112000Y-170019141D01*
X147008324Y-169768844D01*
X146816756Y-169577276D01*
X146566459Y-169473600D01*
X146295541Y-169473600D01*
X146045244Y-169577276D01*
X145853676Y-169768844D01*
X145750000Y-170019141D01*
X137921559Y-170019141D01*
X137838924Y-169819644D01*
X137647356Y-169628076D01*
X137397059Y-169524400D01*
X137126141Y-169524400D01*
X136875844Y-169628076D01*
X136684276Y-169819644D01*
X136580600Y-170069941D01*
X121930923Y-170069941D01*
X121966000Y-169985259D01*
X121966000Y-169714341D01*
X121862324Y-169464044D01*
X121670756Y-169272476D01*
X121420459Y-169168800D01*
X121149541Y-169168800D01*
X120899244Y-169272476D01*
X120707676Y-169464044D01*
X120604000Y-169714341D01*
X114701600Y-169714341D01*
X114597924Y-169464044D01*
X114406356Y-169272476D01*
X114156059Y-169168800D01*
X113885141Y-169168800D01*
X113634844Y-169272476D01*
X113443276Y-169464044D01*
X113339600Y-169714341D01*
X86454890Y-169714341D01*
X86347266Y-169606717D01*
X86096969Y-169503041D01*
X85826051Y-169503041D01*
X85575754Y-169606717D01*
X85384186Y-169798285D01*
X85280510Y-170048582D01*
X79827400Y-170048582D01*
X79827400Y-170019141D01*
X79723724Y-169768844D01*
X79532156Y-169577276D01*
X79281859Y-169473600D01*
X79010941Y-169473600D01*
X78760644Y-169577276D01*
X78569076Y-169768844D01*
X78465400Y-170019141D01*
X61537596Y-170019141D01*
X61486524Y-169895844D01*
X61294956Y-169704276D01*
X61044659Y-169600600D01*
X60773741Y-169600600D01*
X60523444Y-169704276D01*
X60331876Y-169895844D01*
X60228200Y-170146141D01*
X54540139Y-170146141D01*
X54552324Y-170133956D01*
X54656000Y-169883659D01*
X54656000Y-169612741D01*
X54552324Y-169362444D01*
X54360756Y-169170876D01*
X54110459Y-169067200D01*
X53839541Y-169067200D01*
X53589244Y-169170876D01*
X53397676Y-169362444D01*
X53294000Y-169612741D01*
X40456000Y-169612741D01*
X40456000Y-168368141D01*
X91952800Y-168368141D01*
X91952800Y-168639059D01*
X92056476Y-168889356D01*
X92248044Y-169080924D01*
X92498341Y-169184600D01*
X92769259Y-169184600D01*
X93019556Y-169080924D01*
X93211124Y-168889356D01*
X93314800Y-168639059D01*
X93314800Y-168368141D01*
X93211124Y-168117844D01*
X93019556Y-167926276D01*
X92769259Y-167822600D01*
X92498341Y-167822600D01*
X92248044Y-167926276D01*
X92056476Y-168117844D01*
X91952800Y-168368141D01*
X40456000Y-168368141D01*
X40456000Y-167377541D01*
X150093400Y-167377541D01*
X150093400Y-167648459D01*
X150197076Y-167898756D01*
X150388644Y-168090324D01*
X150638941Y-168194000D01*
X150909859Y-168194000D01*
X151160156Y-168090324D01*
X151351724Y-167898756D01*
X151455400Y-167648459D01*
X151455400Y-167377541D01*
X151351724Y-167127244D01*
X151160156Y-166935676D01*
X150909859Y-166832000D01*
X150638941Y-166832000D01*
X150388644Y-166935676D01*
X150197076Y-167127244D01*
X150093400Y-167377541D01*
X40456000Y-167377541D01*
X40456000Y-165540831D01*
X111514999Y-165540831D01*
X111514999Y-165811749D01*
X111618675Y-166062046D01*
X111810243Y-166253614D01*
X112060540Y-166357290D01*
X112331458Y-166357290D01*
X112581755Y-166253614D01*
X112773323Y-166062046D01*
X112876999Y-165811749D01*
X112876999Y-165704800D01*
X112962259Y-165704800D01*
X113212556Y-165601124D01*
X113404124Y-165409556D01*
X113428960Y-165349595D01*
X113443276Y-165384156D01*
X113634844Y-165575724D01*
X113885141Y-165679400D01*
X114156059Y-165679400D01*
X114406356Y-165575724D01*
X114597924Y-165384156D01*
X114701600Y-165133859D01*
X114701600Y-165095200D01*
X114892659Y-165095200D01*
X115142956Y-164991524D01*
X115334524Y-164799956D01*
X115369881Y-164714595D01*
X115373676Y-164723756D01*
X115565244Y-164915324D01*
X115815541Y-165019000D01*
X116086459Y-165019000D01*
X116336756Y-164915324D01*
X116528324Y-164723756D01*
X116632000Y-164473459D01*
X116632000Y-164333200D01*
X116721459Y-164333200D01*
X116971756Y-164229524D01*
X117163324Y-164037956D01*
X117251660Y-163824692D01*
X117329476Y-164012556D01*
X117521044Y-164204124D01*
X117771341Y-164307800D01*
X118042259Y-164307800D01*
X118292556Y-164204124D01*
X118484124Y-164012556D01*
X118587800Y-163762259D01*
X118587800Y-163571200D01*
X118626459Y-163571200D01*
X118876756Y-163467524D01*
X119068324Y-163275956D01*
X119172000Y-163025659D01*
X119172000Y-162910800D01*
X119261459Y-162910800D01*
X119511756Y-162807124D01*
X119703324Y-162615556D01*
X119807000Y-162365259D01*
X119807000Y-162250400D01*
X119921859Y-162250400D01*
X120172156Y-162146724D01*
X120363724Y-161955156D01*
X120404950Y-161855628D01*
X120594444Y-162045122D01*
X120844741Y-162148798D01*
X121115659Y-162148798D01*
X121365956Y-162045122D01*
X121557524Y-161853554D01*
X121661200Y-161603257D01*
X121661200Y-161564600D01*
X121826859Y-161564600D01*
X122077156Y-161460924D01*
X122268724Y-161269356D01*
X122342182Y-161092012D01*
X122384078Y-161193158D01*
X122575646Y-161384726D01*
X122825943Y-161488402D01*
X123096861Y-161488402D01*
X123347158Y-161384726D01*
X123538726Y-161193158D01*
X123637374Y-160955000D01*
X123782659Y-160955000D01*
X124032956Y-160851324D01*
X124224524Y-160659756D01*
X124243431Y-160614111D01*
X124429844Y-160800524D01*
X124680141Y-160904200D01*
X124951059Y-160904200D01*
X125201356Y-160800524D01*
X125392924Y-160608956D01*
X125496600Y-160358659D01*
X125496600Y-160269200D01*
X125535259Y-160269200D01*
X125785556Y-160165524D01*
X125977124Y-159973956D01*
X126080800Y-159723659D01*
X126080800Y-159452741D01*
X125977124Y-159202444D01*
X125785556Y-159010876D01*
X125535259Y-158907200D01*
X125264341Y-158907200D01*
X125014044Y-159010876D01*
X124822476Y-159202444D01*
X124718800Y-159452741D01*
X124718800Y-159542200D01*
X124680141Y-159542200D01*
X124429844Y-159645876D01*
X124238276Y-159837444D01*
X124219369Y-159883089D01*
X124032956Y-159696676D01*
X123782659Y-159593000D01*
X123511741Y-159593000D01*
X123261444Y-159696676D01*
X123069876Y-159888244D01*
X122971228Y-160126402D01*
X122825943Y-160126402D01*
X122575646Y-160230078D01*
X122384078Y-160421646D01*
X122310620Y-160598990D01*
X122268724Y-160497844D01*
X122077156Y-160306276D01*
X121826859Y-160202600D01*
X121555941Y-160202600D01*
X121305644Y-160306276D01*
X121114076Y-160497844D01*
X121010400Y-160748141D01*
X121010400Y-160786798D01*
X120844741Y-160786798D01*
X120594444Y-160890474D01*
X120402876Y-161082042D01*
X120361650Y-161181570D01*
X120172156Y-160992076D01*
X119921859Y-160888400D01*
X119650941Y-160888400D01*
X119400644Y-160992076D01*
X119209076Y-161183644D01*
X119105400Y-161433941D01*
X119105400Y-161548800D01*
X118990541Y-161548800D01*
X118740244Y-161652476D01*
X118548676Y-161844044D01*
X118445000Y-162094341D01*
X118445000Y-162209200D01*
X118355541Y-162209200D01*
X118105244Y-162312876D01*
X117913676Y-162504444D01*
X117810000Y-162754741D01*
X117810000Y-162945800D01*
X117771341Y-162945800D01*
X117521044Y-163049476D01*
X117329476Y-163241044D01*
X117241140Y-163454308D01*
X117163324Y-163266444D01*
X116971756Y-163074876D01*
X116721459Y-162971200D01*
X116450541Y-162971200D01*
X116200244Y-163074876D01*
X116008676Y-163266444D01*
X115905000Y-163516741D01*
X115905000Y-163657000D01*
X115815541Y-163657000D01*
X115565244Y-163760676D01*
X115373676Y-163952244D01*
X115338319Y-164037605D01*
X115334524Y-164028444D01*
X115142956Y-163836876D01*
X114892659Y-163733200D01*
X114621741Y-163733200D01*
X114371444Y-163836876D01*
X114179876Y-164028444D01*
X114076200Y-164278741D01*
X114076200Y-164317400D01*
X113885141Y-164317400D01*
X113634844Y-164421076D01*
X113443276Y-164612644D01*
X113418440Y-164672605D01*
X113404124Y-164638044D01*
X113212556Y-164446476D01*
X112962259Y-164342800D01*
X112691341Y-164342800D01*
X112441044Y-164446476D01*
X112249476Y-164638044D01*
X112145800Y-164888341D01*
X112145800Y-164995290D01*
X112060540Y-164995290D01*
X111810243Y-165098966D01*
X111618675Y-165290534D01*
X111514999Y-165540831D01*
X40456000Y-165540831D01*
X40456000Y-161002141D01*
X53090800Y-161002141D01*
X53090800Y-161273059D01*
X53194476Y-161523356D01*
X53386044Y-161714924D01*
X53636341Y-161818600D01*
X53907259Y-161818600D01*
X54157556Y-161714924D01*
X54349124Y-161523356D01*
X54452800Y-161273059D01*
X54452800Y-161002141D01*
X54442280Y-160976741D01*
X54944996Y-160976741D01*
X54944996Y-161247659D01*
X55048672Y-161497956D01*
X55240240Y-161689524D01*
X55490537Y-161793200D01*
X55761455Y-161793200D01*
X56011752Y-161689524D01*
X56203320Y-161497956D01*
X56306996Y-161247659D01*
X56306996Y-160976741D01*
X56824600Y-160976741D01*
X56824600Y-161247659D01*
X56928276Y-161497956D01*
X57119844Y-161689524D01*
X57370141Y-161793200D01*
X57641059Y-161793200D01*
X57891356Y-161689524D01*
X58082924Y-161497956D01*
X58186600Y-161247659D01*
X58186600Y-161050086D01*
X58617417Y-161050086D01*
X58617417Y-161321004D01*
X58721093Y-161571301D01*
X58912661Y-161762869D01*
X59162958Y-161866545D01*
X59433876Y-161866545D01*
X59684173Y-161762869D01*
X59875741Y-161571301D01*
X59979417Y-161321004D01*
X59979417Y-161050086D01*
X59938516Y-160951341D01*
X61041000Y-160951341D01*
X61041000Y-161222259D01*
X61144676Y-161472556D01*
X61336244Y-161664124D01*
X61586541Y-161767800D01*
X61857459Y-161767800D01*
X62107756Y-161664124D01*
X62299324Y-161472556D01*
X62403000Y-161222259D01*
X62403000Y-160951341D01*
X62392480Y-160925941D01*
X62920600Y-160925941D01*
X62920600Y-161196859D01*
X63024276Y-161447156D01*
X63215844Y-161638724D01*
X63466141Y-161742400D01*
X63737059Y-161742400D01*
X63987356Y-161638724D01*
X64178924Y-161447156D01*
X64282600Y-161196859D01*
X64282600Y-160925941D01*
X64724000Y-160925941D01*
X64724000Y-161196859D01*
X64827676Y-161447156D01*
X65019244Y-161638724D01*
X65269541Y-161742400D01*
X65540459Y-161742400D01*
X65790756Y-161638724D01*
X65982324Y-161447156D01*
X66086000Y-161196859D01*
X66086000Y-160925941D01*
X65982324Y-160675644D01*
X65790756Y-160484076D01*
X65540459Y-160380400D01*
X65269541Y-160380400D01*
X65019244Y-160484076D01*
X64827676Y-160675644D01*
X64724000Y-160925941D01*
X64282600Y-160925941D01*
X64178924Y-160675644D01*
X63987356Y-160484076D01*
X63737059Y-160380400D01*
X63466141Y-160380400D01*
X63215844Y-160484076D01*
X63024276Y-160675644D01*
X62920600Y-160925941D01*
X62392480Y-160925941D01*
X62299324Y-160701044D01*
X62107756Y-160509476D01*
X61857459Y-160405800D01*
X61586541Y-160405800D01*
X61336244Y-160509476D01*
X61144676Y-160701044D01*
X61041000Y-160951341D01*
X59938516Y-160951341D01*
X59875741Y-160799789D01*
X59684173Y-160608221D01*
X59433876Y-160504545D01*
X59162958Y-160504545D01*
X58912661Y-160608221D01*
X58721093Y-160799789D01*
X58617417Y-161050086D01*
X58186600Y-161050086D01*
X58186600Y-160976741D01*
X58082924Y-160726444D01*
X57891356Y-160534876D01*
X57641059Y-160431200D01*
X57370141Y-160431200D01*
X57119844Y-160534876D01*
X56928276Y-160726444D01*
X56824600Y-160976741D01*
X56306996Y-160976741D01*
X56203320Y-160726444D01*
X56011752Y-160534876D01*
X55761455Y-160431200D01*
X55490537Y-160431200D01*
X55240240Y-160534876D01*
X55048672Y-160726444D01*
X54944996Y-160976741D01*
X54442280Y-160976741D01*
X54349124Y-160751844D01*
X54157556Y-160560276D01*
X53907259Y-160456600D01*
X53636341Y-160456600D01*
X53386044Y-160560276D01*
X53194476Y-160751844D01*
X53090800Y-161002141D01*
X40456000Y-161002141D01*
X40456000Y-159430245D01*
X52466432Y-159430245D01*
X52466432Y-159701163D01*
X52570108Y-159951460D01*
X52761676Y-160143028D01*
X53011973Y-160246704D01*
X53282891Y-160246704D01*
X53533188Y-160143028D01*
X53724756Y-159951460D01*
X53828432Y-159701163D01*
X53828432Y-159430245D01*
X53794904Y-159349300D01*
X54315741Y-159349300D01*
X54315741Y-159620218D01*
X54419417Y-159870515D01*
X54610985Y-160062083D01*
X54861282Y-160165759D01*
X55132200Y-160165759D01*
X55382497Y-160062083D01*
X55574065Y-159870515D01*
X55677741Y-159620218D01*
X55677741Y-159448305D01*
X56226045Y-159448305D01*
X56226045Y-159719223D01*
X56329721Y-159969520D01*
X56521289Y-160161088D01*
X56771586Y-160264764D01*
X57042504Y-160264764D01*
X57292801Y-160161088D01*
X57484369Y-159969520D01*
X57588045Y-159719223D01*
X57588045Y-159448305D01*
X57587273Y-159446440D01*
X58032852Y-159446440D01*
X58032852Y-159717358D01*
X58136528Y-159967655D01*
X58328096Y-160159223D01*
X58578393Y-160262899D01*
X58849311Y-160262899D01*
X59099608Y-160159223D01*
X59291176Y-159967655D01*
X59394852Y-159717358D01*
X59394852Y-159446440D01*
X59358320Y-159358242D01*
X60519437Y-159358242D01*
X60519437Y-159629160D01*
X60623113Y-159879457D01*
X60814681Y-160071025D01*
X61064978Y-160174701D01*
X61335896Y-160174701D01*
X61586193Y-160071025D01*
X61777761Y-159879457D01*
X61881437Y-159629160D01*
X61881437Y-159396793D01*
X62418058Y-159396793D01*
X62418058Y-159667711D01*
X62521734Y-159918008D01*
X62713302Y-160109576D01*
X62963599Y-160213252D01*
X63234517Y-160213252D01*
X63484814Y-160109576D01*
X63676382Y-159918008D01*
X63780058Y-159667711D01*
X63780058Y-159396793D01*
X63760790Y-159350275D01*
X64328084Y-159350275D01*
X64328084Y-159621193D01*
X64431760Y-159871490D01*
X64623328Y-160063058D01*
X64873625Y-160166734D01*
X65144543Y-160166734D01*
X65394840Y-160063058D01*
X65471757Y-159986141D01*
X66629000Y-159986141D01*
X66629000Y-160257059D01*
X66732676Y-160507356D01*
X66924244Y-160698924D01*
X67174541Y-160802600D01*
X67445459Y-160802600D01*
X67695756Y-160698924D01*
X67887324Y-160507356D01*
X67991000Y-160257059D01*
X67991000Y-159986141D01*
X67887324Y-159735844D01*
X67695756Y-159544276D01*
X67445459Y-159440600D01*
X67174541Y-159440600D01*
X66924244Y-159544276D01*
X66732676Y-159735844D01*
X66629000Y-159986141D01*
X65471757Y-159986141D01*
X65586408Y-159871490D01*
X65690084Y-159621193D01*
X65690084Y-159350275D01*
X65586408Y-159099978D01*
X65394840Y-158908410D01*
X65144543Y-158804734D01*
X64873625Y-158804734D01*
X64623328Y-158908410D01*
X64431760Y-159099978D01*
X64328084Y-159350275D01*
X63760790Y-159350275D01*
X63676382Y-159146496D01*
X63484814Y-158954928D01*
X63234517Y-158851252D01*
X62963599Y-158851252D01*
X62713302Y-158954928D01*
X62521734Y-159146496D01*
X62418058Y-159396793D01*
X61881437Y-159396793D01*
X61881437Y-159358242D01*
X61777761Y-159107945D01*
X61586193Y-158916377D01*
X61335896Y-158812701D01*
X61064978Y-158812701D01*
X60814681Y-158916377D01*
X60623113Y-159107945D01*
X60519437Y-159358242D01*
X59358320Y-159358242D01*
X59291176Y-159196143D01*
X59099608Y-159004575D01*
X58849311Y-158900899D01*
X58578393Y-158900899D01*
X58328096Y-159004575D01*
X58136528Y-159196143D01*
X58032852Y-159446440D01*
X57587273Y-159446440D01*
X57484369Y-159198008D01*
X57292801Y-159006440D01*
X57042504Y-158902764D01*
X56771586Y-158902764D01*
X56521289Y-159006440D01*
X56329721Y-159198008D01*
X56226045Y-159448305D01*
X55677741Y-159448305D01*
X55677741Y-159349300D01*
X55574065Y-159099003D01*
X55382497Y-158907435D01*
X55132200Y-158803759D01*
X54861282Y-158803759D01*
X54610985Y-158907435D01*
X54419417Y-159099003D01*
X54315741Y-159349300D01*
X53794904Y-159349300D01*
X53724756Y-159179948D01*
X53533188Y-158988380D01*
X53282891Y-158884704D01*
X53011973Y-158884704D01*
X52761676Y-158988380D01*
X52570108Y-159179948D01*
X52466432Y-159430245D01*
X40456000Y-159430245D01*
X40456000Y-155271635D01*
X55485907Y-155271635D01*
X55485907Y-155542553D01*
X55589583Y-155792850D01*
X55781151Y-155984418D01*
X56031448Y-156088094D01*
X56302366Y-156088094D01*
X56552663Y-155984418D01*
X56614940Y-155922141D01*
X57993000Y-155922141D01*
X57993000Y-156193059D01*
X58096676Y-156443356D01*
X58288244Y-156634924D01*
X58538541Y-156738600D01*
X58809459Y-156738600D01*
X59059756Y-156634924D01*
X59251324Y-156443356D01*
X59355000Y-156193059D01*
X59355000Y-155922141D01*
X59251324Y-155671844D01*
X59059756Y-155480276D01*
X58809459Y-155376600D01*
X58538541Y-155376600D01*
X58288244Y-155480276D01*
X58096676Y-155671844D01*
X57993000Y-155922141D01*
X56614940Y-155922141D01*
X56744231Y-155792850D01*
X56847907Y-155542553D01*
X56847907Y-155371607D01*
X62369458Y-155371607D01*
X62369458Y-155642525D01*
X62473134Y-155892822D01*
X62664702Y-156084390D01*
X62914999Y-156188066D01*
X63185917Y-156188066D01*
X63436214Y-156084390D01*
X63446063Y-156074541D01*
X77043000Y-156074541D01*
X77043000Y-156345459D01*
X77146676Y-156595756D01*
X77338244Y-156787324D01*
X77588541Y-156891000D01*
X77859459Y-156891000D01*
X78109756Y-156787324D01*
X78301324Y-156595756D01*
X78405000Y-156345459D01*
X78405000Y-156074541D01*
X78490800Y-156074541D01*
X78490800Y-156345459D01*
X78594476Y-156595756D01*
X78786044Y-156787324D01*
X79036341Y-156891000D01*
X79307259Y-156891000D01*
X79557556Y-156787324D01*
X79749124Y-156595756D01*
X79852800Y-156345459D01*
X79852800Y-156277741D01*
X80522800Y-156277741D01*
X80522800Y-156548659D01*
X80626476Y-156798956D01*
X80818044Y-156990524D01*
X81068341Y-157094200D01*
X81339259Y-157094200D01*
X81589556Y-156990524D01*
X81781124Y-156798956D01*
X81884800Y-156548659D01*
X81884800Y-156353941D01*
X82148400Y-156353941D01*
X82148400Y-156624859D01*
X82252076Y-156875156D01*
X82443644Y-157066724D01*
X82693941Y-157170400D01*
X82964859Y-157170400D01*
X83215156Y-157066724D01*
X83406724Y-156875156D01*
X83510400Y-156624859D01*
X83510400Y-156531741D01*
X84028000Y-156531741D01*
X84028000Y-156802659D01*
X84131676Y-157052956D01*
X84323244Y-157244524D01*
X84573541Y-157348200D01*
X84844459Y-157348200D01*
X85094756Y-157244524D01*
X85286324Y-157052956D01*
X85390000Y-156802659D01*
X85390000Y-156531741D01*
X85326875Y-156379341D01*
X85450400Y-156379341D01*
X85450400Y-156650259D01*
X85554076Y-156900556D01*
X85745644Y-157092124D01*
X85995941Y-157195800D01*
X86266859Y-157195800D01*
X86517156Y-157092124D01*
X86708724Y-156900556D01*
X86774306Y-156742225D01*
X88327885Y-156742225D01*
X88327885Y-157013143D01*
X88431561Y-157263440D01*
X88623129Y-157455008D01*
X88873426Y-157558684D01*
X89144344Y-157558684D01*
X89394641Y-157455008D01*
X89586209Y-157263440D01*
X89689885Y-157013143D01*
X89689885Y-156861941D01*
X90149400Y-156861941D01*
X90149400Y-157132859D01*
X90253076Y-157383156D01*
X90444644Y-157574724D01*
X90694941Y-157678400D01*
X90965859Y-157678400D01*
X91216156Y-157574724D01*
X91407724Y-157383156D01*
X91453766Y-157272000D01*
X91702459Y-157272000D01*
X91952756Y-157168324D01*
X92144324Y-156976756D01*
X92248000Y-156726459D01*
X92248000Y-156480939D01*
X110875800Y-156480939D01*
X110875800Y-156751857D01*
X110979476Y-157002154D01*
X111171044Y-157193722D01*
X111421341Y-157297398D01*
X111692259Y-157297398D01*
X111942556Y-157193722D01*
X112134124Y-157002154D01*
X112223764Y-156785741D01*
X125404600Y-156785741D01*
X125404600Y-157056659D01*
X125508276Y-157306956D01*
X125699844Y-157498524D01*
X125950141Y-157602200D01*
X126221059Y-157602200D01*
X126471356Y-157498524D01*
X126662924Y-157306956D01*
X126766600Y-157056659D01*
X126766600Y-156785741D01*
X126662924Y-156535444D01*
X126581361Y-156453881D01*
X145580289Y-156453881D01*
X145580289Y-156724799D01*
X145683965Y-156975096D01*
X145875533Y-157166664D01*
X146125830Y-157270340D01*
X146396748Y-157270340D01*
X146647045Y-157166664D01*
X146838613Y-156975096D01*
X146942289Y-156724799D01*
X146942289Y-156453881D01*
X146838613Y-156203584D01*
X146647045Y-156012016D01*
X146396748Y-155908340D01*
X146125830Y-155908340D01*
X145875533Y-156012016D01*
X145683965Y-156203584D01*
X145580289Y-156453881D01*
X126581361Y-156453881D01*
X126471356Y-156343876D01*
X126221059Y-156240200D01*
X125950141Y-156240200D01*
X125699844Y-156343876D01*
X125508276Y-156535444D01*
X125404600Y-156785741D01*
X112223764Y-156785741D01*
X112237800Y-156751857D01*
X112237800Y-156480939D01*
X112134124Y-156230642D01*
X111942556Y-156039074D01*
X111692259Y-155935398D01*
X111421341Y-155935398D01*
X111171044Y-156039074D01*
X110979476Y-156230642D01*
X110875800Y-156480939D01*
X92248000Y-156480939D01*
X92248000Y-156455541D01*
X92144324Y-156205244D01*
X91952756Y-156013676D01*
X91702459Y-155910000D01*
X91431541Y-155910000D01*
X91181244Y-156013676D01*
X90989676Y-156205244D01*
X90943634Y-156316400D01*
X90694941Y-156316400D01*
X90444644Y-156420076D01*
X90253076Y-156611644D01*
X90149400Y-156861941D01*
X89689885Y-156861941D01*
X89689885Y-156742225D01*
X89586209Y-156491928D01*
X89394641Y-156300360D01*
X89144344Y-156196684D01*
X88873426Y-156196684D01*
X88623129Y-156300360D01*
X88431561Y-156491928D01*
X88327885Y-156742225D01*
X86774306Y-156742225D01*
X86812400Y-156650259D01*
X86812400Y-156379341D01*
X86708724Y-156129044D01*
X86517156Y-155937476D01*
X86266859Y-155833800D01*
X85995941Y-155833800D01*
X85745644Y-155937476D01*
X85554076Y-156129044D01*
X85450400Y-156379341D01*
X85326875Y-156379341D01*
X85286324Y-156281444D01*
X85094756Y-156089876D01*
X84844459Y-155986200D01*
X84573541Y-155986200D01*
X84323244Y-156089876D01*
X84131676Y-156281444D01*
X84028000Y-156531741D01*
X83510400Y-156531741D01*
X83510400Y-156353941D01*
X83406724Y-156103644D01*
X83215156Y-155912076D01*
X82964859Y-155808400D01*
X82693941Y-155808400D01*
X82443644Y-155912076D01*
X82252076Y-156103644D01*
X82148400Y-156353941D01*
X81884800Y-156353941D01*
X81884800Y-156277741D01*
X81781124Y-156027444D01*
X81589556Y-155835876D01*
X81339259Y-155732200D01*
X81068341Y-155732200D01*
X80818044Y-155835876D01*
X80626476Y-156027444D01*
X80522800Y-156277741D01*
X79852800Y-156277741D01*
X79852800Y-156074541D01*
X79749124Y-155824244D01*
X79557556Y-155632676D01*
X79307259Y-155529000D01*
X79036341Y-155529000D01*
X78786044Y-155632676D01*
X78594476Y-155824244D01*
X78490800Y-156074541D01*
X78405000Y-156074541D01*
X78301324Y-155824244D01*
X78109756Y-155632676D01*
X77859459Y-155529000D01*
X77588541Y-155529000D01*
X77338244Y-155632676D01*
X77146676Y-155824244D01*
X77043000Y-156074541D01*
X63446063Y-156074541D01*
X63627782Y-155892822D01*
X63731458Y-155642525D01*
X63731458Y-155371607D01*
X63627782Y-155121310D01*
X63436214Y-154929742D01*
X63185917Y-154826066D01*
X62914999Y-154826066D01*
X62664702Y-154929742D01*
X62473134Y-155121310D01*
X62369458Y-155371607D01*
X56847907Y-155371607D01*
X56847907Y-155271635D01*
X56744231Y-155021338D01*
X56552663Y-154829770D01*
X56302366Y-154726094D01*
X56031448Y-154726094D01*
X55781151Y-154829770D01*
X55589583Y-155021338D01*
X55485907Y-155271635D01*
X40456000Y-155271635D01*
X40456000Y-154144141D01*
X76408000Y-154144141D01*
X76408000Y-154415059D01*
X76511676Y-154665356D01*
X76703244Y-154856924D01*
X76953541Y-154960600D01*
X77224459Y-154960600D01*
X77474756Y-154856924D01*
X77666324Y-154665356D01*
X77770000Y-154415059D01*
X77770000Y-154296541D01*
X77906604Y-154296541D01*
X77906604Y-154567459D01*
X78010280Y-154817756D01*
X78201848Y-155009324D01*
X78452145Y-155113000D01*
X78723063Y-155113000D01*
X78973360Y-155009324D01*
X79122229Y-154860455D01*
X80857356Y-154860455D01*
X80857356Y-155131373D01*
X80961032Y-155381670D01*
X81152600Y-155573238D01*
X81402897Y-155676914D01*
X81673815Y-155676914D01*
X81924112Y-155573238D01*
X82115680Y-155381670D01*
X82219356Y-155131373D01*
X82219356Y-154890556D01*
X82851690Y-154890556D01*
X82851690Y-155161474D01*
X82955366Y-155411771D01*
X83146934Y-155603339D01*
X83397231Y-155707015D01*
X83668149Y-155707015D01*
X83918446Y-155603339D01*
X84110014Y-155411771D01*
X84213690Y-155161474D01*
X84213690Y-154906139D01*
X84764600Y-154906139D01*
X84764600Y-155177057D01*
X84868276Y-155427354D01*
X85059844Y-155618922D01*
X85310141Y-155722598D01*
X85581059Y-155722598D01*
X85831356Y-155618922D01*
X85966079Y-155484199D01*
X87453891Y-155484199D01*
X87453891Y-155755117D01*
X87557567Y-156005414D01*
X87749135Y-156196982D01*
X87999432Y-156300658D01*
X88270350Y-156300658D01*
X88520647Y-156196982D01*
X88712215Y-156005414D01*
X88815891Y-155755117D01*
X88815891Y-155484199D01*
X88712215Y-155233902D01*
X88520647Y-155042334D01*
X88498454Y-155033141D01*
X89438200Y-155033141D01*
X89438200Y-155304059D01*
X89541876Y-155554356D01*
X89733444Y-155745924D01*
X89983741Y-155849600D01*
X90254659Y-155849600D01*
X90504956Y-155745924D01*
X90696524Y-155554356D01*
X90800200Y-155304059D01*
X90800200Y-155041051D01*
X115791578Y-155041051D01*
X115791578Y-155311969D01*
X115895254Y-155562266D01*
X116086822Y-155753834D01*
X116337119Y-155857510D01*
X116608037Y-155857510D01*
X116858334Y-155753834D01*
X117049902Y-155562266D01*
X117153578Y-155311969D01*
X117153578Y-155041051D01*
X122864195Y-155041051D01*
X122864195Y-155311969D01*
X122967871Y-155562266D01*
X123159439Y-155753834D01*
X123409736Y-155857510D01*
X123680654Y-155857510D01*
X123930951Y-155753834D01*
X124122519Y-155562266D01*
X124226195Y-155311969D01*
X124226195Y-155041051D01*
X138790400Y-155041051D01*
X138790400Y-155311969D01*
X138894076Y-155562266D01*
X139085644Y-155753834D01*
X139335941Y-155857510D01*
X139606859Y-155857510D01*
X139857156Y-155753834D01*
X140048724Y-155562266D01*
X140152400Y-155311969D01*
X140152400Y-155041051D01*
X140048724Y-154790754D01*
X139857156Y-154599186D01*
X139606859Y-154495510D01*
X139335941Y-154495510D01*
X139085644Y-154599186D01*
X138894076Y-154790754D01*
X138790400Y-155041051D01*
X124226195Y-155041051D01*
X124122519Y-154790754D01*
X123930951Y-154599186D01*
X123680654Y-154495510D01*
X123409736Y-154495510D01*
X123159439Y-154599186D01*
X122967871Y-154790754D01*
X122864195Y-155041051D01*
X117153578Y-155041051D01*
X117049902Y-154790754D01*
X116858334Y-154599186D01*
X116608037Y-154495510D01*
X116337119Y-154495510D01*
X116086822Y-154599186D01*
X115895254Y-154790754D01*
X115791578Y-155041051D01*
X90800200Y-155041051D01*
X90800200Y-155033141D01*
X90696524Y-154782844D01*
X90504956Y-154591276D01*
X90255507Y-154487951D01*
X147260461Y-154487951D01*
X147260461Y-154758869D01*
X147364137Y-155009166D01*
X147555705Y-155200734D01*
X147806002Y-155304410D01*
X147886968Y-155304410D01*
X147883600Y-155312541D01*
X147883600Y-155583459D01*
X147987276Y-155833756D01*
X148178844Y-156025324D01*
X148429141Y-156129000D01*
X148700059Y-156129000D01*
X148950356Y-156025324D01*
X149141924Y-155833756D01*
X149245600Y-155583459D01*
X149245600Y-155312541D01*
X149141924Y-155062244D01*
X148950356Y-154870676D01*
X148700059Y-154767000D01*
X148619093Y-154767000D01*
X148622461Y-154758869D01*
X148622461Y-154487951D01*
X148518785Y-154237654D01*
X148327217Y-154046086D01*
X148076920Y-153942410D01*
X147806002Y-153942410D01*
X147555705Y-154046086D01*
X147364137Y-154237654D01*
X147260461Y-154487951D01*
X90255507Y-154487951D01*
X90254659Y-154487600D01*
X89983741Y-154487600D01*
X89733444Y-154591276D01*
X89541876Y-154782844D01*
X89438200Y-155033141D01*
X88498454Y-155033141D01*
X88270350Y-154938658D01*
X87999432Y-154938658D01*
X87749135Y-155042334D01*
X87557567Y-155233902D01*
X87453891Y-155484199D01*
X85966079Y-155484199D01*
X86022924Y-155427354D01*
X86126600Y-155177057D01*
X86126600Y-154906139D01*
X86022924Y-154655842D01*
X85831356Y-154464274D01*
X85581059Y-154360598D01*
X85310141Y-154360598D01*
X85059844Y-154464274D01*
X84868276Y-154655842D01*
X84764600Y-154906139D01*
X84213690Y-154906139D01*
X84213690Y-154890556D01*
X84110014Y-154640259D01*
X83918446Y-154448691D01*
X83668149Y-154345015D01*
X83397231Y-154345015D01*
X83146934Y-154448691D01*
X82955366Y-154640259D01*
X82851690Y-154890556D01*
X82219356Y-154890556D01*
X82219356Y-154860455D01*
X82115680Y-154610158D01*
X81924112Y-154418590D01*
X81673815Y-154314914D01*
X81402897Y-154314914D01*
X81152600Y-154418590D01*
X80961032Y-154610158D01*
X80857356Y-154860455D01*
X79122229Y-154860455D01*
X79164928Y-154817756D01*
X79268604Y-154567459D01*
X79268604Y-154296541D01*
X79164928Y-154046244D01*
X78973360Y-153854676D01*
X78723063Y-153751000D01*
X78452145Y-153751000D01*
X78201848Y-153854676D01*
X78010280Y-154046244D01*
X77906604Y-154296541D01*
X77770000Y-154296541D01*
X77770000Y-154144141D01*
X77666324Y-153893844D01*
X77474756Y-153702276D01*
X77224459Y-153598600D01*
X76953541Y-153598600D01*
X76703244Y-153702276D01*
X76511676Y-153893844D01*
X76408000Y-154144141D01*
X40456000Y-154144141D01*
X40456000Y-153458341D01*
X81742000Y-153458341D01*
X81742000Y-153729259D01*
X81845676Y-153979556D01*
X82037244Y-154171124D01*
X82287541Y-154274800D01*
X82558459Y-154274800D01*
X82808756Y-154171124D01*
X83000324Y-153979556D01*
X83104000Y-153729259D01*
X83104000Y-153458341D01*
X83093480Y-153432941D01*
X83418400Y-153432941D01*
X83418400Y-153703859D01*
X83522076Y-153954156D01*
X83713644Y-154145724D01*
X83963941Y-154249400D01*
X84234859Y-154249400D01*
X84485156Y-154145724D01*
X84676724Y-153954156D01*
X84703239Y-153890141D01*
X88320600Y-153890141D01*
X88320600Y-154161059D01*
X88424276Y-154411356D01*
X88615844Y-154602924D01*
X88866141Y-154706600D01*
X89137059Y-154706600D01*
X89387356Y-154602924D01*
X89578924Y-154411356D01*
X89682600Y-154161059D01*
X89682600Y-153890141D01*
X89578924Y-153639844D01*
X89387356Y-153448276D01*
X89137059Y-153344600D01*
X88866141Y-153344600D01*
X88615844Y-153448276D01*
X88424276Y-153639844D01*
X88320600Y-153890141D01*
X84703239Y-153890141D01*
X84780400Y-153703859D01*
X84780400Y-153432941D01*
X84676724Y-153182644D01*
X84485156Y-152991076D01*
X84234859Y-152887400D01*
X83963941Y-152887400D01*
X83713644Y-152991076D01*
X83522076Y-153182644D01*
X83418400Y-153432941D01*
X83093480Y-153432941D01*
X83000324Y-153208044D01*
X82808756Y-153016476D01*
X82558459Y-152912800D01*
X82287541Y-152912800D01*
X82037244Y-153016476D01*
X81845676Y-153208044D01*
X81742000Y-153458341D01*
X40456000Y-153458341D01*
X40456000Y-150765941D01*
X55249800Y-150765941D01*
X55249800Y-151036859D01*
X55353476Y-151287156D01*
X55545044Y-151478724D01*
X55795341Y-151582400D01*
X56066259Y-151582400D01*
X56316556Y-151478724D01*
X56508124Y-151287156D01*
X56611800Y-151036859D01*
X56611800Y-151019941D01*
X62361800Y-151019941D01*
X62361800Y-151290859D01*
X62465476Y-151541156D01*
X62657044Y-151732724D01*
X62907341Y-151836400D01*
X63178259Y-151836400D01*
X63428556Y-151732724D01*
X63620124Y-151541156D01*
X63723800Y-151290859D01*
X63723800Y-151019941D01*
X63685688Y-150927930D01*
X80650329Y-150927930D01*
X80650329Y-151198848D01*
X80754005Y-151449145D01*
X80945573Y-151640713D01*
X81195870Y-151744389D01*
X81466788Y-151744389D01*
X81717085Y-151640713D01*
X81908653Y-151449145D01*
X82012329Y-151198848D01*
X82012329Y-150927930D01*
X81955753Y-150791341D01*
X87787200Y-150791341D01*
X87787200Y-151062259D01*
X87890876Y-151312556D01*
X88082444Y-151504124D01*
X88332741Y-151607800D01*
X88603659Y-151607800D01*
X88853956Y-151504124D01*
X89045524Y-151312556D01*
X89149200Y-151062259D01*
X89149200Y-150791341D01*
X89045524Y-150541044D01*
X88853956Y-150349476D01*
X88603659Y-150245800D01*
X88332741Y-150245800D01*
X88082444Y-150349476D01*
X87890876Y-150541044D01*
X87787200Y-150791341D01*
X81955753Y-150791341D01*
X81908653Y-150677633D01*
X81717085Y-150486065D01*
X81466788Y-150382389D01*
X81195870Y-150382389D01*
X80945573Y-150486065D01*
X80754005Y-150677633D01*
X80650329Y-150927930D01*
X63685688Y-150927930D01*
X63620124Y-150769644D01*
X63428556Y-150578076D01*
X63178259Y-150474400D01*
X62907341Y-150474400D01*
X62657044Y-150578076D01*
X62465476Y-150769644D01*
X62361800Y-151019941D01*
X56611800Y-151019941D01*
X56611800Y-150765941D01*
X56508124Y-150515644D01*
X56316556Y-150324076D01*
X56066259Y-150220400D01*
X55795341Y-150220400D01*
X55545044Y-150324076D01*
X55353476Y-150515644D01*
X55249800Y-150765941D01*
X40456000Y-150765941D01*
X40456000Y-149953141D01*
X65028800Y-149953141D01*
X65028800Y-150224059D01*
X65132476Y-150474356D01*
X65324044Y-150665924D01*
X65574341Y-150769600D01*
X65845259Y-150769600D01*
X66095556Y-150665924D01*
X66287124Y-150474356D01*
X66390800Y-150224059D01*
X66390800Y-149953141D01*
X66287124Y-149702844D01*
X66095556Y-149511276D01*
X65845259Y-149407600D01*
X65574341Y-149407600D01*
X65324044Y-149511276D01*
X65132476Y-149702844D01*
X65028800Y-149953141D01*
X40456000Y-149953141D01*
X40456000Y-148479941D01*
X91343200Y-148479941D01*
X91343200Y-148750859D01*
X91446876Y-149001156D01*
X91638444Y-149192724D01*
X91888741Y-149296400D01*
X92159659Y-149296400D01*
X92409956Y-149192724D01*
X92601524Y-149001156D01*
X92705200Y-148750859D01*
X92705200Y-148479941D01*
X92601524Y-148229644D01*
X92409956Y-148038076D01*
X92159659Y-147934400D01*
X91888741Y-147934400D01*
X91638444Y-148038076D01*
X91446876Y-148229644D01*
X91343200Y-148479941D01*
X40456000Y-148479941D01*
X40456000Y-146981341D01*
X75900000Y-146981341D01*
X75900000Y-147252259D01*
X76003676Y-147502556D01*
X76195244Y-147694124D01*
X76445541Y-147797800D01*
X76716459Y-147797800D01*
X76966756Y-147694124D01*
X77158324Y-147502556D01*
X77195359Y-147413143D01*
X134396200Y-147413143D01*
X134396200Y-147684061D01*
X134499876Y-147934358D01*
X134691444Y-148125926D01*
X134941741Y-148229602D01*
X135082000Y-148229602D01*
X135082000Y-148268260D01*
X135185676Y-148518557D01*
X135377244Y-148710125D01*
X135627541Y-148813801D01*
X135898459Y-148813801D01*
X136148756Y-148710125D01*
X136340324Y-148518557D01*
X136382219Y-148417414D01*
X136455676Y-148594756D01*
X136647244Y-148786324D01*
X136897541Y-148890000D01*
X137037800Y-148890000D01*
X137037800Y-148903259D01*
X137141476Y-149153556D01*
X137333044Y-149345124D01*
X137583341Y-149448800D01*
X137854259Y-149448800D01*
X138104556Y-149345124D01*
X138296124Y-149153556D01*
X138399800Y-148903259D01*
X138399800Y-148632341D01*
X138866600Y-148632341D01*
X138866600Y-148903259D01*
X138970276Y-149153556D01*
X139161844Y-149345124D01*
X139412141Y-149448800D01*
X139552400Y-149448800D01*
X139552400Y-149538257D01*
X139656076Y-149788554D01*
X139847644Y-149980122D01*
X140097941Y-150083798D01*
X140136599Y-150083798D01*
X140136599Y-150198659D01*
X140240275Y-150448956D01*
X140431843Y-150640524D01*
X140682140Y-150744200D01*
X140796996Y-150744200D01*
X140796996Y-150808259D01*
X140900672Y-151058556D01*
X141092240Y-151250124D01*
X141342537Y-151353800D01*
X141432000Y-151353800D01*
X141432000Y-151443257D01*
X141535676Y-151693554D01*
X141727244Y-151885122D01*
X141977541Y-151988798D01*
X142092400Y-151988798D01*
X142092400Y-152078259D01*
X142196076Y-152328556D01*
X142387644Y-152520124D01*
X142637941Y-152623800D01*
X142908859Y-152623800D01*
X143037635Y-152570459D01*
X143037635Y-152629545D01*
X143141311Y-152879842D01*
X143332879Y-153071410D01*
X143583176Y-153175086D01*
X143703970Y-153175086D01*
X143770876Y-153336613D01*
X143962444Y-153528181D01*
X144212741Y-153631857D01*
X144483659Y-153631857D01*
X144733956Y-153528181D01*
X144925524Y-153336613D01*
X145012942Y-153125566D01*
X145882357Y-153125566D01*
X145882357Y-153396484D01*
X145986033Y-153646781D01*
X146177601Y-153838349D01*
X146427898Y-153942025D01*
X146698816Y-153942025D01*
X146919577Y-153850583D01*
X146954012Y-153885018D01*
X147204309Y-153988694D01*
X147475227Y-153988694D01*
X147725524Y-153885018D01*
X147917092Y-153693450D01*
X148020768Y-153443153D01*
X148020768Y-153172235D01*
X147917092Y-152921938D01*
X147725524Y-152730370D01*
X147475227Y-152626694D01*
X147204309Y-152626694D01*
X146983548Y-152718136D01*
X146949113Y-152683701D01*
X146698816Y-152580025D01*
X146427898Y-152580025D01*
X146177601Y-152683701D01*
X145986033Y-152875269D01*
X145882357Y-153125566D01*
X145012942Y-153125566D01*
X145029200Y-153086316D01*
X145029200Y-152815398D01*
X144925524Y-152565101D01*
X144733956Y-152373533D01*
X144483659Y-152269857D01*
X144362865Y-152269857D01*
X144295959Y-152108330D01*
X144104391Y-151916762D01*
X143854094Y-151813086D01*
X143583176Y-151813086D01*
X143454400Y-151866427D01*
X143454400Y-151807341D01*
X143350724Y-151557044D01*
X143159156Y-151365476D01*
X142908859Y-151261800D01*
X142794000Y-151261800D01*
X142794000Y-151172339D01*
X142690324Y-150922042D01*
X142498756Y-150730474D01*
X142248459Y-150626798D01*
X142158996Y-150626798D01*
X142158996Y-150537341D01*
X142055320Y-150287044D01*
X141863752Y-150095476D01*
X141613455Y-149991800D01*
X141498599Y-149991800D01*
X141498599Y-149927741D01*
X141394923Y-149677444D01*
X141203355Y-149485876D01*
X140953058Y-149382200D01*
X140914400Y-149382200D01*
X140914400Y-149267339D01*
X140810724Y-149017042D01*
X140619156Y-148825474D01*
X140368859Y-148721798D01*
X140228600Y-148721798D01*
X140228600Y-148632341D01*
X140124924Y-148382044D01*
X139933356Y-148190476D01*
X139683059Y-148086800D01*
X139412141Y-148086800D01*
X139161844Y-148190476D01*
X138970276Y-148382044D01*
X138866600Y-148632341D01*
X138399800Y-148632341D01*
X138296124Y-148382044D01*
X138104556Y-148190476D01*
X137854259Y-148086800D01*
X137714000Y-148086800D01*
X137714000Y-148073541D01*
X137610324Y-147823244D01*
X137418756Y-147631676D01*
X137168459Y-147528000D01*
X136897541Y-147528000D01*
X136647244Y-147631676D01*
X136455676Y-147823244D01*
X136413781Y-147924387D01*
X136340324Y-147747045D01*
X136148756Y-147555477D01*
X135898459Y-147451801D01*
X135758200Y-147451801D01*
X135758200Y-147413143D01*
X135654524Y-147162846D01*
X135462956Y-146971278D01*
X135212659Y-146867602D01*
X134941741Y-146867602D01*
X134691444Y-146971278D01*
X134499876Y-147162846D01*
X134396200Y-147413143D01*
X77195359Y-147413143D01*
X77262000Y-147252259D01*
X77262000Y-146981341D01*
X77158324Y-146731044D01*
X76966756Y-146539476D01*
X76716459Y-146435800D01*
X76445541Y-146435800D01*
X76195244Y-146539476D01*
X76003676Y-146731044D01*
X75900000Y-146981341D01*
X40456000Y-146981341D01*
X40456000Y-140631341D01*
X146283400Y-140631341D01*
X146283400Y-140902259D01*
X146387076Y-141152556D01*
X146578644Y-141344124D01*
X146828941Y-141447800D01*
X147099859Y-141447800D01*
X147350156Y-141344124D01*
X147541724Y-141152556D01*
X147645400Y-140902259D01*
X147645400Y-140631341D01*
X147541724Y-140381044D01*
X147350156Y-140189476D01*
X147099859Y-140085800D01*
X146828941Y-140085800D01*
X146578644Y-140189476D01*
X146387076Y-140381044D01*
X146283400Y-140631341D01*
X40456000Y-140631341D01*
X40456000Y-136948341D01*
X55249800Y-136948341D01*
X55249800Y-137219259D01*
X55353476Y-137469556D01*
X55545044Y-137661124D01*
X55795341Y-137764800D01*
X56066259Y-137764800D01*
X56316556Y-137661124D01*
X56508124Y-137469556D01*
X56611800Y-137219259D01*
X56611800Y-136973741D01*
X62387200Y-136973741D01*
X62387200Y-137244659D01*
X62490876Y-137494956D01*
X62682444Y-137686524D01*
X62932741Y-137790200D01*
X63203659Y-137790200D01*
X63453956Y-137686524D01*
X63531737Y-137608743D01*
X76382600Y-137608743D01*
X76382600Y-137879661D01*
X76486276Y-138129958D01*
X76677844Y-138321526D01*
X76928141Y-138425202D01*
X77199059Y-138425202D01*
X77449356Y-138321526D01*
X77640924Y-138129958D01*
X77744600Y-137879661D01*
X77744600Y-137608743D01*
X77723558Y-137557941D01*
X77855798Y-137557941D01*
X77855798Y-137828859D01*
X77959474Y-138079156D01*
X78151042Y-138270724D01*
X78401339Y-138374400D01*
X78672257Y-138374400D01*
X78922554Y-138270724D01*
X79114122Y-138079156D01*
X79217798Y-137828859D01*
X79217798Y-137557941D01*
X79114122Y-137307644D01*
X78922554Y-137116076D01*
X78672257Y-137012400D01*
X78401339Y-137012400D01*
X78151042Y-137116076D01*
X77959474Y-137307644D01*
X77855798Y-137557941D01*
X77723558Y-137557941D01*
X77640924Y-137358446D01*
X77449356Y-137166878D01*
X77199059Y-137063202D01*
X76928141Y-137063202D01*
X76677844Y-137166878D01*
X76486276Y-137358446D01*
X76382600Y-137608743D01*
X63531737Y-137608743D01*
X63645524Y-137494956D01*
X63749200Y-137244659D01*
X63749200Y-136973741D01*
X63645524Y-136723444D01*
X63453956Y-136531876D01*
X63203659Y-136428200D01*
X62932741Y-136428200D01*
X62682444Y-136531876D01*
X62490876Y-136723444D01*
X62387200Y-136973741D01*
X56611800Y-136973741D01*
X56611800Y-136948341D01*
X56508124Y-136698044D01*
X56316556Y-136506476D01*
X56066259Y-136402800D01*
X55795341Y-136402800D01*
X55545044Y-136506476D01*
X55353476Y-136698044D01*
X55249800Y-136948341D01*
X40456000Y-136948341D01*
X40456000Y-136173652D01*
X77220226Y-136173652D01*
X77220226Y-136444570D01*
X77323902Y-136694867D01*
X77515470Y-136886435D01*
X77765767Y-136990111D01*
X78036685Y-136990111D01*
X78286982Y-136886435D01*
X78478550Y-136694867D01*
X78582226Y-136444570D01*
X78582226Y-136173652D01*
X78524357Y-136033941D01*
X78744800Y-136033941D01*
X78744800Y-136304859D01*
X78848476Y-136555156D01*
X79040044Y-136746724D01*
X79290341Y-136850400D01*
X79561259Y-136850400D01*
X79811556Y-136746724D01*
X80003124Y-136555156D01*
X80008597Y-136541941D01*
X80802200Y-136541941D01*
X80802200Y-136812859D01*
X80905876Y-137063156D01*
X81097444Y-137254724D01*
X81347741Y-137358400D01*
X81618659Y-137358400D01*
X81868956Y-137254724D01*
X82060524Y-137063156D01*
X82164200Y-136812859D01*
X82164200Y-136592741D01*
X82411933Y-136592741D01*
X82411933Y-136863659D01*
X82515609Y-137113956D01*
X82707177Y-137305524D01*
X82957474Y-137409200D01*
X83228392Y-137409200D01*
X83478689Y-137305524D01*
X83670257Y-137113956D01*
X83773933Y-136863659D01*
X83773933Y-136770541D01*
X87888800Y-136770541D01*
X87888800Y-137041459D01*
X87992476Y-137291756D01*
X88184044Y-137483324D01*
X88434341Y-137587000D01*
X88705259Y-137587000D01*
X88955556Y-137483324D01*
X89147124Y-137291756D01*
X89250800Y-137041459D01*
X89250800Y-136770541D01*
X89147124Y-136520244D01*
X88955556Y-136328676D01*
X88705259Y-136225000D01*
X88434341Y-136225000D01*
X88184044Y-136328676D01*
X87992476Y-136520244D01*
X87888800Y-136770541D01*
X83773933Y-136770541D01*
X83773933Y-136592741D01*
X83670257Y-136342444D01*
X83478689Y-136150876D01*
X83228392Y-136047200D01*
X82957474Y-136047200D01*
X82707177Y-136150876D01*
X82515609Y-136342444D01*
X82411933Y-136592741D01*
X82164200Y-136592741D01*
X82164200Y-136541941D01*
X82060524Y-136291644D01*
X81868956Y-136100076D01*
X81618659Y-135996400D01*
X81347741Y-135996400D01*
X81097444Y-136100076D01*
X80905876Y-136291644D01*
X80802200Y-136541941D01*
X80008597Y-136541941D01*
X80106800Y-136304859D01*
X80106800Y-136033941D01*
X80003124Y-135783644D01*
X79811556Y-135592076D01*
X79561259Y-135488400D01*
X79290341Y-135488400D01*
X79040044Y-135592076D01*
X78848476Y-135783644D01*
X78744800Y-136033941D01*
X78524357Y-136033941D01*
X78478550Y-135923355D01*
X78286982Y-135731787D01*
X78036685Y-135628111D01*
X77765767Y-135628111D01*
X77515470Y-135731787D01*
X77323902Y-135923355D01*
X77220226Y-136173652D01*
X40456000Y-136173652D01*
X40456000Y-134357541D01*
X81208600Y-134357541D01*
X81208600Y-134628459D01*
X81312276Y-134878756D01*
X81503844Y-135070324D01*
X81754141Y-135174000D01*
X82025059Y-135174000D01*
X82275356Y-135070324D01*
X82332106Y-135013574D01*
X83175082Y-135013574D01*
X83175082Y-135284492D01*
X83278758Y-135534789D01*
X83470326Y-135726357D01*
X83720623Y-135830033D01*
X83991541Y-135830033D01*
X84241838Y-135726357D01*
X84433406Y-135534789D01*
X84537082Y-135284492D01*
X84537082Y-135013574D01*
X84448618Y-134800000D01*
X155661536Y-134800000D01*
X155661536Y-135800000D01*
X155691106Y-135948659D01*
X155775314Y-136074686D01*
X155901341Y-136158894D01*
X156050000Y-136188464D01*
X157050000Y-136188464D01*
X157198659Y-136158894D01*
X157324686Y-136074686D01*
X157345970Y-136042832D01*
X157476251Y-136129883D01*
X157733233Y-136181000D01*
X157906767Y-136181000D01*
X158135304Y-136135541D01*
X158831000Y-136135541D01*
X158831000Y-136406459D01*
X158934676Y-136656756D01*
X159126244Y-136848324D01*
X159376541Y-136952000D01*
X159647459Y-136952000D01*
X159897756Y-136848324D01*
X160089324Y-136656756D01*
X160193000Y-136406459D01*
X160193000Y-136135541D01*
X160089324Y-135885244D01*
X159897756Y-135693676D01*
X159647459Y-135590000D01*
X159376541Y-135590000D01*
X159126244Y-135693676D01*
X158934676Y-135885244D01*
X158831000Y-136135541D01*
X158135304Y-136135541D01*
X158163749Y-136129883D01*
X158455165Y-135935165D01*
X158649883Y-135643749D01*
X158661419Y-135585750D01*
X161590000Y-135585750D01*
X161590000Y-135926309D01*
X161686673Y-136159698D01*
X161865301Y-136338327D01*
X162098690Y-136435000D01*
X162439250Y-136435000D01*
X162598000Y-136276250D01*
X162598000Y-135427000D01*
X161748750Y-135427000D01*
X161590000Y-135585750D01*
X158661419Y-135585750D01*
X158718259Y-135300000D01*
X158649883Y-134956251D01*
X158461083Y-134673691D01*
X161590000Y-134673691D01*
X161590000Y-135014250D01*
X161748750Y-135173000D01*
X162598000Y-135173000D01*
X162598000Y-134323750D01*
X162852000Y-134323750D01*
X162852000Y-135173000D01*
X162872000Y-135173000D01*
X162872000Y-135427000D01*
X162852000Y-135427000D01*
X162852000Y-136276250D01*
X163010750Y-136435000D01*
X163351310Y-136435000D01*
X163584699Y-136338327D01*
X163763327Y-136159698D01*
X163766205Y-136152749D01*
X163908233Y-136181000D01*
X164081767Y-136181000D01*
X164338749Y-136129883D01*
X164630165Y-135935165D01*
X164824883Y-135643749D01*
X164893259Y-135300000D01*
X164824883Y-134956251D01*
X164630165Y-134664835D01*
X164338749Y-134470117D01*
X164081767Y-134419000D01*
X163908233Y-134419000D01*
X163766205Y-134447251D01*
X163763327Y-134440302D01*
X163584699Y-134261673D01*
X163351310Y-134165000D01*
X163010750Y-134165000D01*
X162852000Y-134323750D01*
X162598000Y-134323750D01*
X162439250Y-134165000D01*
X162098690Y-134165000D01*
X161865301Y-134261673D01*
X161686673Y-134440302D01*
X161590000Y-134673691D01*
X158461083Y-134673691D01*
X158455165Y-134664835D01*
X158163749Y-134470117D01*
X157906767Y-134419000D01*
X157733233Y-134419000D01*
X157476251Y-134470117D01*
X157345970Y-134557168D01*
X157324686Y-134525314D01*
X157198659Y-134441106D01*
X157050000Y-134411536D01*
X156050000Y-134411536D01*
X155901341Y-134441106D01*
X155775314Y-134525314D01*
X155691106Y-134651341D01*
X155661536Y-134800000D01*
X84448618Y-134800000D01*
X84433406Y-134763277D01*
X84241838Y-134571709D01*
X83991541Y-134468033D01*
X83720623Y-134468033D01*
X83470326Y-134571709D01*
X83278758Y-134763277D01*
X83175082Y-135013574D01*
X82332106Y-135013574D01*
X82466924Y-134878756D01*
X82570600Y-134628459D01*
X82570600Y-134357541D01*
X82466924Y-134107244D01*
X82275356Y-133915676D01*
X82025059Y-133812000D01*
X81754141Y-133812000D01*
X81503844Y-133915676D01*
X81312276Y-134107244D01*
X81208600Y-134357541D01*
X40456000Y-134357541D01*
X40456000Y-132681141D01*
X100284000Y-132681141D01*
X100284000Y-132952059D01*
X100387676Y-133202356D01*
X100579244Y-133393924D01*
X100829541Y-133497600D01*
X101100459Y-133497600D01*
X101350756Y-133393924D01*
X101542324Y-133202356D01*
X101646000Y-132952059D01*
X101646000Y-132901787D01*
X103814600Y-132901787D01*
X103814600Y-133172705D01*
X103918276Y-133423002D01*
X104109844Y-133614570D01*
X104360141Y-133718246D01*
X104631059Y-133718246D01*
X104881356Y-133614570D01*
X105072924Y-133423002D01*
X105176600Y-133172705D01*
X105176600Y-132901787D01*
X107269000Y-132901787D01*
X107269000Y-133172705D01*
X107372676Y-133423002D01*
X107564244Y-133614570D01*
X107814541Y-133718246D01*
X108085459Y-133718246D01*
X108335756Y-133614570D01*
X108527324Y-133423002D01*
X108631000Y-133172705D01*
X108631000Y-132901787D01*
X110850400Y-132901787D01*
X110850400Y-133172705D01*
X110954076Y-133423002D01*
X111145644Y-133614570D01*
X111395941Y-133718246D01*
X111666859Y-133718246D01*
X111917156Y-133614570D01*
X112108724Y-133423002D01*
X112212400Y-133172705D01*
X112212400Y-132901787D01*
X114228600Y-132901787D01*
X114228600Y-133172705D01*
X114332276Y-133423002D01*
X114523844Y-133614570D01*
X114774141Y-133718246D01*
X115045059Y-133718246D01*
X115295356Y-133614570D01*
X115486924Y-133423002D01*
X115590600Y-133172705D01*
X115590600Y-132901787D01*
X117759200Y-132901787D01*
X117759200Y-133172705D01*
X117862876Y-133423002D01*
X118054444Y-133614570D01*
X118304741Y-133718246D01*
X118575659Y-133718246D01*
X118825956Y-133614570D01*
X119017524Y-133423002D01*
X119121200Y-133172705D01*
X119121200Y-132901787D01*
X121340600Y-132901787D01*
X121340600Y-133172705D01*
X121444276Y-133423002D01*
X121635844Y-133614570D01*
X121886141Y-133718246D01*
X122157059Y-133718246D01*
X122407356Y-133614570D01*
X122598924Y-133423002D01*
X122702600Y-133172705D01*
X122702600Y-132901787D01*
X122598924Y-132651490D01*
X122407356Y-132459922D01*
X122157059Y-132356246D01*
X121886141Y-132356246D01*
X121635844Y-132459922D01*
X121444276Y-132651490D01*
X121340600Y-132901787D01*
X119121200Y-132901787D01*
X119017524Y-132651490D01*
X118825956Y-132459922D01*
X118575659Y-132356246D01*
X118304741Y-132356246D01*
X118054444Y-132459922D01*
X117862876Y-132651490D01*
X117759200Y-132901787D01*
X115590600Y-132901787D01*
X115486924Y-132651490D01*
X115295356Y-132459922D01*
X115045059Y-132356246D01*
X114774141Y-132356246D01*
X114523844Y-132459922D01*
X114332276Y-132651490D01*
X114228600Y-132901787D01*
X112212400Y-132901787D01*
X112108724Y-132651490D01*
X111917156Y-132459922D01*
X111666859Y-132356246D01*
X111395941Y-132356246D01*
X111145644Y-132459922D01*
X110954076Y-132651490D01*
X110850400Y-132901787D01*
X108631000Y-132901787D01*
X108527324Y-132651490D01*
X108335756Y-132459922D01*
X108085459Y-132356246D01*
X107814541Y-132356246D01*
X107564244Y-132459922D01*
X107372676Y-132651490D01*
X107269000Y-132901787D01*
X105176600Y-132901787D01*
X105072924Y-132651490D01*
X104881356Y-132459922D01*
X104631059Y-132356246D01*
X104360141Y-132356246D01*
X104109844Y-132459922D01*
X103918276Y-132651490D01*
X103814600Y-132901787D01*
X101646000Y-132901787D01*
X101646000Y-132681141D01*
X101542324Y-132430844D01*
X101350756Y-132239276D01*
X101100459Y-132135600D01*
X100829541Y-132135600D01*
X100579244Y-132239276D01*
X100387676Y-132430844D01*
X100284000Y-132681141D01*
X40456000Y-132681141D01*
X40456000Y-125456000D01*
X166044000Y-125456000D01*
X166044001Y-175794000D01*
X166044001Y-175794000D01*
G37*
X166044001Y-175794000D02*
X161556000Y-175794000D01*
X161556000Y-174005091D01*
X161549665Y-173973243D01*
X161547238Y-173959838D01*
X161547238Y-173911039D01*
X161436863Y-173356148D01*
X161368775Y-173191768D01*
X161368773Y-173191766D01*
X161054455Y-172721355D01*
X160928645Y-172595545D01*
X160458234Y-172281227D01*
X160458232Y-172281225D01*
X160293852Y-172213137D01*
X159738961Y-172102762D01*
X159561039Y-172102762D01*
X159006148Y-172213137D01*
X158841768Y-172281225D01*
X158841766Y-172281227D01*
X158371355Y-172595545D01*
X158245545Y-172721355D01*
X157931227Y-173191766D01*
X157931225Y-173191768D01*
X157863137Y-173356148D01*
X157752762Y-173911039D01*
X157752762Y-173911047D01*
X157744001Y-173955091D01*
X157744000Y-181594000D01*
X120456000Y-181594000D01*
X120456000Y-175378541D01*
X124871200Y-175378541D01*
X124871200Y-175649459D01*
X124974876Y-175899756D01*
X125166444Y-176091324D01*
X125416741Y-176195000D01*
X125687659Y-176195000D01*
X125937956Y-176091324D01*
X126129524Y-175899756D01*
X126233200Y-175649459D01*
X126233200Y-175378541D01*
X135869400Y-175378541D01*
X135869400Y-175649459D01*
X135973076Y-175899756D01*
X136164644Y-176091324D01*
X136414941Y-176195000D01*
X136685859Y-176195000D01*
X136936156Y-176091324D01*
X137127724Y-175899756D01*
X137231400Y-175649459D01*
X137231400Y-175429341D01*
X146918400Y-175429341D01*
X146918400Y-175700259D01*
X147022076Y-175950556D01*
X147213644Y-176142124D01*
X147463941Y-176245800D01*
X147734859Y-176245800D01*
X147985156Y-176142124D01*
X148176724Y-175950556D01*
X148280400Y-175700259D01*
X148280400Y-175429341D01*
X148176724Y-175179044D01*
X147985156Y-174987476D01*
X147734859Y-174883800D01*
X147463941Y-174883800D01*
X147213644Y-174987476D01*
X147022076Y-175179044D01*
X146918400Y-175429341D01*
X137231400Y-175429341D01*
X137231400Y-175378541D01*
X137127724Y-175128244D01*
X136936156Y-174936676D01*
X136685859Y-174833000D01*
X136414941Y-174833000D01*
X136164644Y-174936676D01*
X135973076Y-175128244D01*
X135869400Y-175378541D01*
X126233200Y-175378541D01*
X126129524Y-175128244D01*
X125937956Y-174936676D01*
X125687659Y-174833000D01*
X125416741Y-174833000D01*
X125166444Y-174936676D01*
X124974876Y-175128244D01*
X124871200Y-175378541D01*
X120456000Y-175378541D01*
X120456000Y-173955091D01*
X120447238Y-173911042D01*
X120447238Y-173911039D01*
X120374924Y-173547490D01*
X120373507Y-173544068D01*
X120306836Y-173383110D01*
X120100901Y-173074908D01*
X120037996Y-173012004D01*
X119975092Y-172949099D01*
X119666890Y-172743164D01*
X119502511Y-172675076D01*
X119502509Y-172675076D01*
X119138963Y-172602762D01*
X118961037Y-172602762D01*
X118597490Y-172675076D01*
X118597489Y-172675076D01*
X118433110Y-172743164D01*
X118124908Y-172949099D01*
X118062004Y-173012004D01*
X117999099Y-173074908D01*
X117793164Y-173383110D01*
X117725076Y-173547489D01*
X117725076Y-173547491D01*
X117652762Y-173911039D01*
X117652762Y-173911047D01*
X117644001Y-173955091D01*
X117644000Y-181594000D01*
X107356000Y-181594000D01*
X107356000Y-175403941D01*
X111866400Y-175403941D01*
X111866400Y-175674859D01*
X111970076Y-175925156D01*
X112161644Y-176116724D01*
X112411941Y-176220400D01*
X112682859Y-176220400D01*
X112933156Y-176116724D01*
X113124724Y-175925156D01*
X113228400Y-175674859D01*
X113228400Y-175403941D01*
X113124724Y-175153644D01*
X112933156Y-174962076D01*
X112682859Y-174858400D01*
X112411941Y-174858400D01*
X112161644Y-174962076D01*
X111970076Y-175153644D01*
X111866400Y-175403941D01*
X107356000Y-175403941D01*
X107356000Y-174005091D01*
X107349663Y-173973235D01*
X107347238Y-173959839D01*
X107347238Y-173911039D01*
X107236863Y-173356148D01*
X107168775Y-173191768D01*
X107168773Y-173191766D01*
X106854455Y-172721355D01*
X106728645Y-172595545D01*
X106258234Y-172281227D01*
X106258232Y-172281225D01*
X106093852Y-172213137D01*
X105538961Y-172102762D01*
X105538958Y-172102762D01*
X105494909Y-172094000D01*
X99655091Y-172094000D01*
X99625065Y-172099973D01*
X99609709Y-172102762D01*
X99561039Y-172102762D01*
X99006148Y-172213137D01*
X98841768Y-172281225D01*
X98841766Y-172281227D01*
X98371355Y-172595545D01*
X98245545Y-172721355D01*
X97931227Y-173191766D01*
X97931225Y-173191768D01*
X97863137Y-173356148D01*
X97752762Y-173911039D01*
X97752762Y-173911047D01*
X97744001Y-173955091D01*
X97744000Y-181594000D01*
X60456000Y-181594000D01*
X60456000Y-175480141D01*
X64901800Y-175480141D01*
X64901800Y-175751059D01*
X65005476Y-176001356D01*
X65197044Y-176192924D01*
X65447341Y-176296600D01*
X65718259Y-176296600D01*
X65968556Y-176192924D01*
X66160124Y-176001356D01*
X66263800Y-175751059D01*
X66263800Y-175480141D01*
X75925400Y-175480141D01*
X75925400Y-175751059D01*
X76029076Y-176001356D01*
X76220644Y-176192924D01*
X76470941Y-176296600D01*
X76741859Y-176296600D01*
X76992156Y-176192924D01*
X77183724Y-176001356D01*
X77287400Y-175751059D01*
X77287400Y-175480141D01*
X86898200Y-175480141D01*
X86898200Y-175751059D01*
X87001876Y-176001356D01*
X87193444Y-176192924D01*
X87443741Y-176296600D01*
X87714659Y-176296600D01*
X87964956Y-176192924D01*
X88156524Y-176001356D01*
X88260200Y-175751059D01*
X88260200Y-175480141D01*
X88156524Y-175229844D01*
X87964956Y-175038276D01*
X87714659Y-174934600D01*
X87443741Y-174934600D01*
X87193444Y-175038276D01*
X87001876Y-175229844D01*
X86898200Y-175480141D01*
X77287400Y-175480141D01*
X77183724Y-175229844D01*
X76992156Y-175038276D01*
X76741859Y-174934600D01*
X76470941Y-174934600D01*
X76220644Y-175038276D01*
X76029076Y-175229844D01*
X75925400Y-175480141D01*
X66263800Y-175480141D01*
X66160124Y-175229844D01*
X65968556Y-175038276D01*
X65718259Y-174934600D01*
X65447341Y-174934600D01*
X65197044Y-175038276D01*
X65005476Y-175229844D01*
X64901800Y-175480141D01*
X60456000Y-175480141D01*
X60456000Y-173955091D01*
X60447238Y-173911042D01*
X60447238Y-173911039D01*
X60374924Y-173547490D01*
X60373507Y-173544068D01*
X60306836Y-173383110D01*
X60100901Y-173074908D01*
X60037996Y-173012004D01*
X59975092Y-172949099D01*
X59666890Y-172743164D01*
X59502511Y-172675076D01*
X59502509Y-172675076D01*
X59138963Y-172602762D01*
X58961037Y-172602762D01*
X58597490Y-172675076D01*
X58597489Y-172675076D01*
X58433110Y-172743164D01*
X58124908Y-172949099D01*
X58062004Y-173012004D01*
X57999099Y-173074908D01*
X57793164Y-173383110D01*
X57725076Y-173547489D01*
X57725076Y-173547491D01*
X57652762Y-173911039D01*
X57652762Y-173911043D01*
X57644000Y-173955092D01*
X57644001Y-181594000D01*
X47356000Y-181594000D01*
X47356000Y-175327741D01*
X51897000Y-175327741D01*
X51897000Y-175598659D01*
X52000676Y-175848956D01*
X52192244Y-176040524D01*
X52442541Y-176144200D01*
X52713459Y-176144200D01*
X52963756Y-176040524D01*
X53155324Y-175848956D01*
X53259000Y-175598659D01*
X53259000Y-175327741D01*
X53155324Y-175077444D01*
X52963756Y-174885876D01*
X52713459Y-174782200D01*
X52442541Y-174782200D01*
X52192244Y-174885876D01*
X52000676Y-175077444D01*
X51897000Y-175327741D01*
X47356000Y-175327741D01*
X47356000Y-174005091D01*
X47349665Y-173973243D01*
X47347238Y-173959838D01*
X47347238Y-173911039D01*
X47236863Y-173356148D01*
X47168775Y-173191768D01*
X47168773Y-173191766D01*
X46854455Y-172721355D01*
X46728645Y-172595545D01*
X46258234Y-172281227D01*
X46258232Y-172281225D01*
X46093852Y-172213137D01*
X45538961Y-172102762D01*
X45361039Y-172102762D01*
X44806148Y-172213137D01*
X44641768Y-172281225D01*
X44641766Y-172281227D01*
X44171355Y-172595545D01*
X44045545Y-172721355D01*
X43731227Y-173191766D01*
X43731225Y-173191768D01*
X43663137Y-173356148D01*
X43552762Y-173911039D01*
X43552762Y-173911043D01*
X43544000Y-173955092D01*
X43544001Y-175794000D01*
X40456000Y-175794000D01*
X40456000Y-169612741D01*
X53294000Y-169612741D01*
X53294000Y-169883659D01*
X53397676Y-170133956D01*
X53589244Y-170325524D01*
X53839541Y-170429200D01*
X54110459Y-170429200D01*
X54360756Y-170325524D01*
X54540139Y-170146141D01*
X60228200Y-170146141D01*
X60228200Y-170417059D01*
X60331876Y-170667356D01*
X60523444Y-170858924D01*
X60773741Y-170962600D01*
X61044659Y-170962600D01*
X61294956Y-170858924D01*
X61486524Y-170667356D01*
X61590200Y-170417059D01*
X61590200Y-170146141D01*
X61537596Y-170019141D01*
X78465400Y-170019141D01*
X78465400Y-170290059D01*
X78569076Y-170540356D01*
X78760644Y-170731924D01*
X79010941Y-170835600D01*
X79281859Y-170835600D01*
X79532156Y-170731924D01*
X79723724Y-170540356D01*
X79827400Y-170290059D01*
X79827400Y-170048582D01*
X85280510Y-170048582D01*
X85280510Y-170319500D01*
X85384186Y-170569797D01*
X85575754Y-170761365D01*
X85826051Y-170865041D01*
X86096969Y-170865041D01*
X86347266Y-170761365D01*
X86538834Y-170569797D01*
X86642510Y-170319500D01*
X86642510Y-170048582D01*
X86538834Y-169798285D01*
X86454890Y-169714341D01*
X113339600Y-169714341D01*
X113339600Y-169985259D01*
X113443276Y-170235556D01*
X113634844Y-170427124D01*
X113885141Y-170530800D01*
X114156059Y-170530800D01*
X114406356Y-170427124D01*
X114597924Y-170235556D01*
X114701600Y-169985259D01*
X114701600Y-169714341D01*
X120604000Y-169714341D01*
X120604000Y-169985259D01*
X120707676Y-170235556D01*
X120899244Y-170427124D01*
X121149541Y-170530800D01*
X121420459Y-170530800D01*
X121670756Y-170427124D01*
X121862324Y-170235556D01*
X121930923Y-170069941D01*
X136580600Y-170069941D01*
X136580600Y-170340859D01*
X136684276Y-170591156D01*
X136875844Y-170782724D01*
X137126141Y-170886400D01*
X137397059Y-170886400D01*
X137647356Y-170782724D01*
X137838924Y-170591156D01*
X137942600Y-170340859D01*
X137942600Y-170069941D01*
X137921559Y-170019141D01*
X145750000Y-170019141D01*
X145750000Y-170290059D01*
X145853676Y-170540356D01*
X146045244Y-170731924D01*
X146295541Y-170835600D01*
X146566459Y-170835600D01*
X146816756Y-170731924D01*
X147008324Y-170540356D01*
X147112000Y-170290059D01*
X147112000Y-170019141D01*
X147008324Y-169768844D01*
X146816756Y-169577276D01*
X146566459Y-169473600D01*
X146295541Y-169473600D01*
X146045244Y-169577276D01*
X145853676Y-169768844D01*
X145750000Y-170019141D01*
X137921559Y-170019141D01*
X137838924Y-169819644D01*
X137647356Y-169628076D01*
X137397059Y-169524400D01*
X137126141Y-169524400D01*
X136875844Y-169628076D01*
X136684276Y-169819644D01*
X136580600Y-170069941D01*
X121930923Y-170069941D01*
X121966000Y-169985259D01*
X121966000Y-169714341D01*
X121862324Y-169464044D01*
X121670756Y-169272476D01*
X121420459Y-169168800D01*
X121149541Y-169168800D01*
X120899244Y-169272476D01*
X120707676Y-169464044D01*
X120604000Y-169714341D01*
X114701600Y-169714341D01*
X114597924Y-169464044D01*
X114406356Y-169272476D01*
X114156059Y-169168800D01*
X113885141Y-169168800D01*
X113634844Y-169272476D01*
X113443276Y-169464044D01*
X113339600Y-169714341D01*
X86454890Y-169714341D01*
X86347266Y-169606717D01*
X86096969Y-169503041D01*
X85826051Y-169503041D01*
X85575754Y-169606717D01*
X85384186Y-169798285D01*
X85280510Y-170048582D01*
X79827400Y-170048582D01*
X79827400Y-170019141D01*
X79723724Y-169768844D01*
X79532156Y-169577276D01*
X79281859Y-169473600D01*
X79010941Y-169473600D01*
X78760644Y-169577276D01*
X78569076Y-169768844D01*
X78465400Y-170019141D01*
X61537596Y-170019141D01*
X61486524Y-169895844D01*
X61294956Y-169704276D01*
X61044659Y-169600600D01*
X60773741Y-169600600D01*
X60523444Y-169704276D01*
X60331876Y-169895844D01*
X60228200Y-170146141D01*
X54540139Y-170146141D01*
X54552324Y-170133956D01*
X54656000Y-169883659D01*
X54656000Y-169612741D01*
X54552324Y-169362444D01*
X54360756Y-169170876D01*
X54110459Y-169067200D01*
X53839541Y-169067200D01*
X53589244Y-169170876D01*
X53397676Y-169362444D01*
X53294000Y-169612741D01*
X40456000Y-169612741D01*
X40456000Y-168368141D01*
X91952800Y-168368141D01*
X91952800Y-168639059D01*
X92056476Y-168889356D01*
X92248044Y-169080924D01*
X92498341Y-169184600D01*
X92769259Y-169184600D01*
X93019556Y-169080924D01*
X93211124Y-168889356D01*
X93314800Y-168639059D01*
X93314800Y-168368141D01*
X93211124Y-168117844D01*
X93019556Y-167926276D01*
X92769259Y-167822600D01*
X92498341Y-167822600D01*
X92248044Y-167926276D01*
X92056476Y-168117844D01*
X91952800Y-168368141D01*
X40456000Y-168368141D01*
X40456000Y-167377541D01*
X150093400Y-167377541D01*
X150093400Y-167648459D01*
X150197076Y-167898756D01*
X150388644Y-168090324D01*
X150638941Y-168194000D01*
X150909859Y-168194000D01*
X151160156Y-168090324D01*
X151351724Y-167898756D01*
X151455400Y-167648459D01*
X151455400Y-167377541D01*
X151351724Y-167127244D01*
X151160156Y-166935676D01*
X150909859Y-166832000D01*
X150638941Y-166832000D01*
X150388644Y-166935676D01*
X150197076Y-167127244D01*
X150093400Y-167377541D01*
X40456000Y-167377541D01*
X40456000Y-165540831D01*
X111514999Y-165540831D01*
X111514999Y-165811749D01*
X111618675Y-166062046D01*
X111810243Y-166253614D01*
X112060540Y-166357290D01*
X112331458Y-166357290D01*
X112581755Y-166253614D01*
X112773323Y-166062046D01*
X112876999Y-165811749D01*
X112876999Y-165704800D01*
X112962259Y-165704800D01*
X113212556Y-165601124D01*
X113404124Y-165409556D01*
X113428960Y-165349595D01*
X113443276Y-165384156D01*
X113634844Y-165575724D01*
X113885141Y-165679400D01*
X114156059Y-165679400D01*
X114406356Y-165575724D01*
X114597924Y-165384156D01*
X114701600Y-165133859D01*
X114701600Y-165095200D01*
X114892659Y-165095200D01*
X115142956Y-164991524D01*
X115334524Y-164799956D01*
X115369881Y-164714595D01*
X115373676Y-164723756D01*
X115565244Y-164915324D01*
X115815541Y-165019000D01*
X116086459Y-165019000D01*
X116336756Y-164915324D01*
X116528324Y-164723756D01*
X116632000Y-164473459D01*
X116632000Y-164333200D01*
X116721459Y-164333200D01*
X116971756Y-164229524D01*
X117163324Y-164037956D01*
X117251660Y-163824692D01*
X117329476Y-164012556D01*
X117521044Y-164204124D01*
X117771341Y-164307800D01*
X118042259Y-164307800D01*
X118292556Y-164204124D01*
X118484124Y-164012556D01*
X118587800Y-163762259D01*
X118587800Y-163571200D01*
X118626459Y-163571200D01*
X118876756Y-163467524D01*
X119068324Y-163275956D01*
X119172000Y-163025659D01*
X119172000Y-162910800D01*
X119261459Y-162910800D01*
X119511756Y-162807124D01*
X119703324Y-162615556D01*
X119807000Y-162365259D01*
X119807000Y-162250400D01*
X119921859Y-162250400D01*
X120172156Y-162146724D01*
X120363724Y-161955156D01*
X120404950Y-161855628D01*
X120594444Y-162045122D01*
X120844741Y-162148798D01*
X121115659Y-162148798D01*
X121365956Y-162045122D01*
X121557524Y-161853554D01*
X121661200Y-161603257D01*
X121661200Y-161564600D01*
X121826859Y-161564600D01*
X122077156Y-161460924D01*
X122268724Y-161269356D01*
X122342182Y-161092012D01*
X122384078Y-161193158D01*
X122575646Y-161384726D01*
X122825943Y-161488402D01*
X123096861Y-161488402D01*
X123347158Y-161384726D01*
X123538726Y-161193158D01*
X123637374Y-160955000D01*
X123782659Y-160955000D01*
X124032956Y-160851324D01*
X124224524Y-160659756D01*
X124243431Y-160614111D01*
X124429844Y-160800524D01*
X124680141Y-160904200D01*
X124951059Y-160904200D01*
X125201356Y-160800524D01*
X125392924Y-160608956D01*
X125496600Y-160358659D01*
X125496600Y-160269200D01*
X125535259Y-160269200D01*
X125785556Y-160165524D01*
X125977124Y-159973956D01*
X126080800Y-159723659D01*
X126080800Y-159452741D01*
X125977124Y-159202444D01*
X125785556Y-159010876D01*
X125535259Y-158907200D01*
X125264341Y-158907200D01*
X125014044Y-159010876D01*
X124822476Y-159202444D01*
X124718800Y-159452741D01*
X124718800Y-159542200D01*
X124680141Y-159542200D01*
X124429844Y-159645876D01*
X124238276Y-159837444D01*
X124219369Y-159883089D01*
X124032956Y-159696676D01*
X123782659Y-159593000D01*
X123511741Y-159593000D01*
X123261444Y-159696676D01*
X123069876Y-159888244D01*
X122971228Y-160126402D01*
X122825943Y-160126402D01*
X122575646Y-160230078D01*
X122384078Y-160421646D01*
X122310620Y-160598990D01*
X122268724Y-160497844D01*
X122077156Y-160306276D01*
X121826859Y-160202600D01*
X121555941Y-160202600D01*
X121305644Y-160306276D01*
X121114076Y-160497844D01*
X121010400Y-160748141D01*
X121010400Y-160786798D01*
X120844741Y-160786798D01*
X120594444Y-160890474D01*
X120402876Y-161082042D01*
X120361650Y-161181570D01*
X120172156Y-160992076D01*
X119921859Y-160888400D01*
X119650941Y-160888400D01*
X119400644Y-160992076D01*
X119209076Y-161183644D01*
X119105400Y-161433941D01*
X119105400Y-161548800D01*
X118990541Y-161548800D01*
X118740244Y-161652476D01*
X118548676Y-161844044D01*
X118445000Y-162094341D01*
X118445000Y-162209200D01*
X118355541Y-162209200D01*
X118105244Y-162312876D01*
X117913676Y-162504444D01*
X117810000Y-162754741D01*
X117810000Y-162945800D01*
X117771341Y-162945800D01*
X117521044Y-163049476D01*
X117329476Y-163241044D01*
X117241140Y-163454308D01*
X117163324Y-163266444D01*
X116971756Y-163074876D01*
X116721459Y-162971200D01*
X116450541Y-162971200D01*
X116200244Y-163074876D01*
X116008676Y-163266444D01*
X115905000Y-163516741D01*
X115905000Y-163657000D01*
X115815541Y-163657000D01*
X115565244Y-163760676D01*
X115373676Y-163952244D01*
X115338319Y-164037605D01*
X115334524Y-164028444D01*
X115142956Y-163836876D01*
X114892659Y-163733200D01*
X114621741Y-163733200D01*
X114371444Y-163836876D01*
X114179876Y-164028444D01*
X114076200Y-164278741D01*
X114076200Y-164317400D01*
X113885141Y-164317400D01*
X113634844Y-164421076D01*
X113443276Y-164612644D01*
X113418440Y-164672605D01*
X113404124Y-164638044D01*
X113212556Y-164446476D01*
X112962259Y-164342800D01*
X112691341Y-164342800D01*
X112441044Y-164446476D01*
X112249476Y-164638044D01*
X112145800Y-164888341D01*
X112145800Y-164995290D01*
X112060540Y-164995290D01*
X111810243Y-165098966D01*
X111618675Y-165290534D01*
X111514999Y-165540831D01*
X40456000Y-165540831D01*
X40456000Y-161002141D01*
X53090800Y-161002141D01*
X53090800Y-161273059D01*
X53194476Y-161523356D01*
X53386044Y-161714924D01*
X53636341Y-161818600D01*
X53907259Y-161818600D01*
X54157556Y-161714924D01*
X54349124Y-161523356D01*
X54452800Y-161273059D01*
X54452800Y-161002141D01*
X54442280Y-160976741D01*
X54944996Y-160976741D01*
X54944996Y-161247659D01*
X55048672Y-161497956D01*
X55240240Y-161689524D01*
X55490537Y-161793200D01*
X55761455Y-161793200D01*
X56011752Y-161689524D01*
X56203320Y-161497956D01*
X56306996Y-161247659D01*
X56306996Y-160976741D01*
X56824600Y-160976741D01*
X56824600Y-161247659D01*
X56928276Y-161497956D01*
X57119844Y-161689524D01*
X57370141Y-161793200D01*
X57641059Y-161793200D01*
X57891356Y-161689524D01*
X58082924Y-161497956D01*
X58186600Y-161247659D01*
X58186600Y-161050086D01*
X58617417Y-161050086D01*
X58617417Y-161321004D01*
X58721093Y-161571301D01*
X58912661Y-161762869D01*
X59162958Y-161866545D01*
X59433876Y-161866545D01*
X59684173Y-161762869D01*
X59875741Y-161571301D01*
X59979417Y-161321004D01*
X59979417Y-161050086D01*
X59938516Y-160951341D01*
X61041000Y-160951341D01*
X61041000Y-161222259D01*
X61144676Y-161472556D01*
X61336244Y-161664124D01*
X61586541Y-161767800D01*
X61857459Y-161767800D01*
X62107756Y-161664124D01*
X62299324Y-161472556D01*
X62403000Y-161222259D01*
X62403000Y-160951341D01*
X62392480Y-160925941D01*
X62920600Y-160925941D01*
X62920600Y-161196859D01*
X63024276Y-161447156D01*
X63215844Y-161638724D01*
X63466141Y-161742400D01*
X63737059Y-161742400D01*
X63987356Y-161638724D01*
X64178924Y-161447156D01*
X64282600Y-161196859D01*
X64282600Y-160925941D01*
X64724000Y-160925941D01*
X64724000Y-161196859D01*
X64827676Y-161447156D01*
X65019244Y-161638724D01*
X65269541Y-161742400D01*
X65540459Y-161742400D01*
X65790756Y-161638724D01*
X65982324Y-161447156D01*
X66086000Y-161196859D01*
X66086000Y-160925941D01*
X65982324Y-160675644D01*
X65790756Y-160484076D01*
X65540459Y-160380400D01*
X65269541Y-160380400D01*
X65019244Y-160484076D01*
X64827676Y-160675644D01*
X64724000Y-160925941D01*
X64282600Y-160925941D01*
X64178924Y-160675644D01*
X63987356Y-160484076D01*
X63737059Y-160380400D01*
X63466141Y-160380400D01*
X63215844Y-160484076D01*
X63024276Y-160675644D01*
X62920600Y-160925941D01*
X62392480Y-160925941D01*
X62299324Y-160701044D01*
X62107756Y-160509476D01*
X61857459Y-160405800D01*
X61586541Y-160405800D01*
X61336244Y-160509476D01*
X61144676Y-160701044D01*
X61041000Y-160951341D01*
X59938516Y-160951341D01*
X59875741Y-160799789D01*
X59684173Y-160608221D01*
X59433876Y-160504545D01*
X59162958Y-160504545D01*
X58912661Y-160608221D01*
X58721093Y-160799789D01*
X58617417Y-161050086D01*
X58186600Y-161050086D01*
X58186600Y-160976741D01*
X58082924Y-160726444D01*
X57891356Y-160534876D01*
X57641059Y-160431200D01*
X57370141Y-160431200D01*
X57119844Y-160534876D01*
X56928276Y-160726444D01*
X56824600Y-160976741D01*
X56306996Y-160976741D01*
X56203320Y-160726444D01*
X56011752Y-160534876D01*
X55761455Y-160431200D01*
X55490537Y-160431200D01*
X55240240Y-160534876D01*
X55048672Y-160726444D01*
X54944996Y-160976741D01*
X54442280Y-160976741D01*
X54349124Y-160751844D01*
X54157556Y-160560276D01*
X53907259Y-160456600D01*
X53636341Y-160456600D01*
X53386044Y-160560276D01*
X53194476Y-160751844D01*
X53090800Y-161002141D01*
X40456000Y-161002141D01*
X40456000Y-159430245D01*
X52466432Y-159430245D01*
X52466432Y-159701163D01*
X52570108Y-159951460D01*
X52761676Y-160143028D01*
X53011973Y-160246704D01*
X53282891Y-160246704D01*
X53533188Y-160143028D01*
X53724756Y-159951460D01*
X53828432Y-159701163D01*
X53828432Y-159430245D01*
X53794904Y-159349300D01*
X54315741Y-159349300D01*
X54315741Y-159620218D01*
X54419417Y-159870515D01*
X54610985Y-160062083D01*
X54861282Y-160165759D01*
X55132200Y-160165759D01*
X55382497Y-160062083D01*
X55574065Y-159870515D01*
X55677741Y-159620218D01*
X55677741Y-159448305D01*
X56226045Y-159448305D01*
X56226045Y-159719223D01*
X56329721Y-159969520D01*
X56521289Y-160161088D01*
X56771586Y-160264764D01*
X57042504Y-160264764D01*
X57292801Y-160161088D01*
X57484369Y-159969520D01*
X57588045Y-159719223D01*
X57588045Y-159448305D01*
X57587273Y-159446440D01*
X58032852Y-159446440D01*
X58032852Y-159717358D01*
X58136528Y-159967655D01*
X58328096Y-160159223D01*
X58578393Y-160262899D01*
X58849311Y-160262899D01*
X59099608Y-160159223D01*
X59291176Y-159967655D01*
X59394852Y-159717358D01*
X59394852Y-159446440D01*
X59358320Y-159358242D01*
X60519437Y-159358242D01*
X60519437Y-159629160D01*
X60623113Y-159879457D01*
X60814681Y-160071025D01*
X61064978Y-160174701D01*
X61335896Y-160174701D01*
X61586193Y-160071025D01*
X61777761Y-159879457D01*
X61881437Y-159629160D01*
X61881437Y-159396793D01*
X62418058Y-159396793D01*
X62418058Y-159667711D01*
X62521734Y-159918008D01*
X62713302Y-160109576D01*
X62963599Y-160213252D01*
X63234517Y-160213252D01*
X63484814Y-160109576D01*
X63676382Y-159918008D01*
X63780058Y-159667711D01*
X63780058Y-159396793D01*
X63760790Y-159350275D01*
X64328084Y-159350275D01*
X64328084Y-159621193D01*
X64431760Y-159871490D01*
X64623328Y-160063058D01*
X64873625Y-160166734D01*
X65144543Y-160166734D01*
X65394840Y-160063058D01*
X65471757Y-159986141D01*
X66629000Y-159986141D01*
X66629000Y-160257059D01*
X66732676Y-160507356D01*
X66924244Y-160698924D01*
X67174541Y-160802600D01*
X67445459Y-160802600D01*
X67695756Y-160698924D01*
X67887324Y-160507356D01*
X67991000Y-160257059D01*
X67991000Y-159986141D01*
X67887324Y-159735844D01*
X67695756Y-159544276D01*
X67445459Y-159440600D01*
X67174541Y-159440600D01*
X66924244Y-159544276D01*
X66732676Y-159735844D01*
X66629000Y-159986141D01*
X65471757Y-159986141D01*
X65586408Y-159871490D01*
X65690084Y-159621193D01*
X65690084Y-159350275D01*
X65586408Y-159099978D01*
X65394840Y-158908410D01*
X65144543Y-158804734D01*
X64873625Y-158804734D01*
X64623328Y-158908410D01*
X64431760Y-159099978D01*
X64328084Y-159350275D01*
X63760790Y-159350275D01*
X63676382Y-159146496D01*
X63484814Y-158954928D01*
X63234517Y-158851252D01*
X62963599Y-158851252D01*
X62713302Y-158954928D01*
X62521734Y-159146496D01*
X62418058Y-159396793D01*
X61881437Y-159396793D01*
X61881437Y-159358242D01*
X61777761Y-159107945D01*
X61586193Y-158916377D01*
X61335896Y-158812701D01*
X61064978Y-158812701D01*
X60814681Y-158916377D01*
X60623113Y-159107945D01*
X60519437Y-159358242D01*
X59358320Y-159358242D01*
X59291176Y-159196143D01*
X59099608Y-159004575D01*
X58849311Y-158900899D01*
X58578393Y-158900899D01*
X58328096Y-159004575D01*
X58136528Y-159196143D01*
X58032852Y-159446440D01*
X57587273Y-159446440D01*
X57484369Y-159198008D01*
X57292801Y-159006440D01*
X57042504Y-158902764D01*
X56771586Y-158902764D01*
X56521289Y-159006440D01*
X56329721Y-159198008D01*
X56226045Y-159448305D01*
X55677741Y-159448305D01*
X55677741Y-159349300D01*
X55574065Y-159099003D01*
X55382497Y-158907435D01*
X55132200Y-158803759D01*
X54861282Y-158803759D01*
X54610985Y-158907435D01*
X54419417Y-159099003D01*
X54315741Y-159349300D01*
X53794904Y-159349300D01*
X53724756Y-159179948D01*
X53533188Y-158988380D01*
X53282891Y-158884704D01*
X53011973Y-158884704D01*
X52761676Y-158988380D01*
X52570108Y-159179948D01*
X52466432Y-159430245D01*
X40456000Y-159430245D01*
X40456000Y-155271635D01*
X55485907Y-155271635D01*
X55485907Y-155542553D01*
X55589583Y-155792850D01*
X55781151Y-155984418D01*
X56031448Y-156088094D01*
X56302366Y-156088094D01*
X56552663Y-155984418D01*
X56614940Y-155922141D01*
X57993000Y-155922141D01*
X57993000Y-156193059D01*
X58096676Y-156443356D01*
X58288244Y-156634924D01*
X58538541Y-156738600D01*
X58809459Y-156738600D01*
X59059756Y-156634924D01*
X59251324Y-156443356D01*
X59355000Y-156193059D01*
X59355000Y-155922141D01*
X59251324Y-155671844D01*
X59059756Y-155480276D01*
X58809459Y-155376600D01*
X58538541Y-155376600D01*
X58288244Y-155480276D01*
X58096676Y-155671844D01*
X57993000Y-155922141D01*
X56614940Y-155922141D01*
X56744231Y-155792850D01*
X56847907Y-155542553D01*
X56847907Y-155371607D01*
X62369458Y-155371607D01*
X62369458Y-155642525D01*
X62473134Y-155892822D01*
X62664702Y-156084390D01*
X62914999Y-156188066D01*
X63185917Y-156188066D01*
X63436214Y-156084390D01*
X63446063Y-156074541D01*
X77043000Y-156074541D01*
X77043000Y-156345459D01*
X77146676Y-156595756D01*
X77338244Y-156787324D01*
X77588541Y-156891000D01*
X77859459Y-156891000D01*
X78109756Y-156787324D01*
X78301324Y-156595756D01*
X78405000Y-156345459D01*
X78405000Y-156074541D01*
X78490800Y-156074541D01*
X78490800Y-156345459D01*
X78594476Y-156595756D01*
X78786044Y-156787324D01*
X79036341Y-156891000D01*
X79307259Y-156891000D01*
X79557556Y-156787324D01*
X79749124Y-156595756D01*
X79852800Y-156345459D01*
X79852800Y-156277741D01*
X80522800Y-156277741D01*
X80522800Y-156548659D01*
X80626476Y-156798956D01*
X80818044Y-156990524D01*
X81068341Y-157094200D01*
X81339259Y-157094200D01*
X81589556Y-156990524D01*
X81781124Y-156798956D01*
X81884800Y-156548659D01*
X81884800Y-156353941D01*
X82148400Y-156353941D01*
X82148400Y-156624859D01*
X82252076Y-156875156D01*
X82443644Y-157066724D01*
X82693941Y-157170400D01*
X82964859Y-157170400D01*
X83215156Y-157066724D01*
X83406724Y-156875156D01*
X83510400Y-156624859D01*
X83510400Y-156531741D01*
X84028000Y-156531741D01*
X84028000Y-156802659D01*
X84131676Y-157052956D01*
X84323244Y-157244524D01*
X84573541Y-157348200D01*
X84844459Y-157348200D01*
X85094756Y-157244524D01*
X85286324Y-157052956D01*
X85390000Y-156802659D01*
X85390000Y-156531741D01*
X85326875Y-156379341D01*
X85450400Y-156379341D01*
X85450400Y-156650259D01*
X85554076Y-156900556D01*
X85745644Y-157092124D01*
X85995941Y-157195800D01*
X86266859Y-157195800D01*
X86517156Y-157092124D01*
X86708724Y-156900556D01*
X86774306Y-156742225D01*
X88327885Y-156742225D01*
X88327885Y-157013143D01*
X88431561Y-157263440D01*
X88623129Y-157455008D01*
X88873426Y-157558684D01*
X89144344Y-157558684D01*
X89394641Y-157455008D01*
X89586209Y-157263440D01*
X89689885Y-157013143D01*
X89689885Y-156861941D01*
X90149400Y-156861941D01*
X90149400Y-157132859D01*
X90253076Y-157383156D01*
X90444644Y-157574724D01*
X90694941Y-157678400D01*
X90965859Y-157678400D01*
X91216156Y-157574724D01*
X91407724Y-157383156D01*
X91453766Y-157272000D01*
X91702459Y-157272000D01*
X91952756Y-157168324D01*
X92144324Y-156976756D01*
X92248000Y-156726459D01*
X92248000Y-156480939D01*
X110875800Y-156480939D01*
X110875800Y-156751857D01*
X110979476Y-157002154D01*
X111171044Y-157193722D01*
X111421341Y-157297398D01*
X111692259Y-157297398D01*
X111942556Y-157193722D01*
X112134124Y-157002154D01*
X112223764Y-156785741D01*
X125404600Y-156785741D01*
X125404600Y-157056659D01*
X125508276Y-157306956D01*
X125699844Y-157498524D01*
X125950141Y-157602200D01*
X126221059Y-157602200D01*
X126471356Y-157498524D01*
X126662924Y-157306956D01*
X126766600Y-157056659D01*
X126766600Y-156785741D01*
X126662924Y-156535444D01*
X126581361Y-156453881D01*
X145580289Y-156453881D01*
X145580289Y-156724799D01*
X145683965Y-156975096D01*
X145875533Y-157166664D01*
X146125830Y-157270340D01*
X146396748Y-157270340D01*
X146647045Y-157166664D01*
X146838613Y-156975096D01*
X146942289Y-156724799D01*
X146942289Y-156453881D01*
X146838613Y-156203584D01*
X146647045Y-156012016D01*
X146396748Y-155908340D01*
X146125830Y-155908340D01*
X145875533Y-156012016D01*
X145683965Y-156203584D01*
X145580289Y-156453881D01*
X126581361Y-156453881D01*
X126471356Y-156343876D01*
X126221059Y-156240200D01*
X125950141Y-156240200D01*
X125699844Y-156343876D01*
X125508276Y-156535444D01*
X125404600Y-156785741D01*
X112223764Y-156785741D01*
X112237800Y-156751857D01*
X112237800Y-156480939D01*
X112134124Y-156230642D01*
X111942556Y-156039074D01*
X111692259Y-155935398D01*
X111421341Y-155935398D01*
X111171044Y-156039074D01*
X110979476Y-156230642D01*
X110875800Y-156480939D01*
X92248000Y-156480939D01*
X92248000Y-156455541D01*
X92144324Y-156205244D01*
X91952756Y-156013676D01*
X91702459Y-155910000D01*
X91431541Y-155910000D01*
X91181244Y-156013676D01*
X90989676Y-156205244D01*
X90943634Y-156316400D01*
X90694941Y-156316400D01*
X90444644Y-156420076D01*
X90253076Y-156611644D01*
X90149400Y-156861941D01*
X89689885Y-156861941D01*
X89689885Y-156742225D01*
X89586209Y-156491928D01*
X89394641Y-156300360D01*
X89144344Y-156196684D01*
X88873426Y-156196684D01*
X88623129Y-156300360D01*
X88431561Y-156491928D01*
X88327885Y-156742225D01*
X86774306Y-156742225D01*
X86812400Y-156650259D01*
X86812400Y-156379341D01*
X86708724Y-156129044D01*
X86517156Y-155937476D01*
X86266859Y-155833800D01*
X85995941Y-155833800D01*
X85745644Y-155937476D01*
X85554076Y-156129044D01*
X85450400Y-156379341D01*
X85326875Y-156379341D01*
X85286324Y-156281444D01*
X85094756Y-156089876D01*
X84844459Y-155986200D01*
X84573541Y-155986200D01*
X84323244Y-156089876D01*
X84131676Y-156281444D01*
X84028000Y-156531741D01*
X83510400Y-156531741D01*
X83510400Y-156353941D01*
X83406724Y-156103644D01*
X83215156Y-155912076D01*
X82964859Y-155808400D01*
X82693941Y-155808400D01*
X82443644Y-155912076D01*
X82252076Y-156103644D01*
X82148400Y-156353941D01*
X81884800Y-156353941D01*
X81884800Y-156277741D01*
X81781124Y-156027444D01*
X81589556Y-155835876D01*
X81339259Y-155732200D01*
X81068341Y-155732200D01*
X80818044Y-155835876D01*
X80626476Y-156027444D01*
X80522800Y-156277741D01*
X79852800Y-156277741D01*
X79852800Y-156074541D01*
X79749124Y-155824244D01*
X79557556Y-155632676D01*
X79307259Y-155529000D01*
X79036341Y-155529000D01*
X78786044Y-155632676D01*
X78594476Y-155824244D01*
X78490800Y-156074541D01*
X78405000Y-156074541D01*
X78301324Y-155824244D01*
X78109756Y-155632676D01*
X77859459Y-155529000D01*
X77588541Y-155529000D01*
X77338244Y-155632676D01*
X77146676Y-155824244D01*
X77043000Y-156074541D01*
X63446063Y-156074541D01*
X63627782Y-155892822D01*
X63731458Y-155642525D01*
X63731458Y-155371607D01*
X63627782Y-155121310D01*
X63436214Y-154929742D01*
X63185917Y-154826066D01*
X62914999Y-154826066D01*
X62664702Y-154929742D01*
X62473134Y-155121310D01*
X62369458Y-155371607D01*
X56847907Y-155371607D01*
X56847907Y-155271635D01*
X56744231Y-155021338D01*
X56552663Y-154829770D01*
X56302366Y-154726094D01*
X56031448Y-154726094D01*
X55781151Y-154829770D01*
X55589583Y-155021338D01*
X55485907Y-155271635D01*
X40456000Y-155271635D01*
X40456000Y-154144141D01*
X76408000Y-154144141D01*
X76408000Y-154415059D01*
X76511676Y-154665356D01*
X76703244Y-154856924D01*
X76953541Y-154960600D01*
X77224459Y-154960600D01*
X77474756Y-154856924D01*
X77666324Y-154665356D01*
X77770000Y-154415059D01*
X77770000Y-154296541D01*
X77906604Y-154296541D01*
X77906604Y-154567459D01*
X78010280Y-154817756D01*
X78201848Y-155009324D01*
X78452145Y-155113000D01*
X78723063Y-155113000D01*
X78973360Y-155009324D01*
X79122229Y-154860455D01*
X80857356Y-154860455D01*
X80857356Y-155131373D01*
X80961032Y-155381670D01*
X81152600Y-155573238D01*
X81402897Y-155676914D01*
X81673815Y-155676914D01*
X81924112Y-155573238D01*
X82115680Y-155381670D01*
X82219356Y-155131373D01*
X82219356Y-154890556D01*
X82851690Y-154890556D01*
X82851690Y-155161474D01*
X82955366Y-155411771D01*
X83146934Y-155603339D01*
X83397231Y-155707015D01*
X83668149Y-155707015D01*
X83918446Y-155603339D01*
X84110014Y-155411771D01*
X84213690Y-155161474D01*
X84213690Y-154906139D01*
X84764600Y-154906139D01*
X84764600Y-155177057D01*
X84868276Y-155427354D01*
X85059844Y-155618922D01*
X85310141Y-155722598D01*
X85581059Y-155722598D01*
X85831356Y-155618922D01*
X85966079Y-155484199D01*
X87453891Y-155484199D01*
X87453891Y-155755117D01*
X87557567Y-156005414D01*
X87749135Y-156196982D01*
X87999432Y-156300658D01*
X88270350Y-156300658D01*
X88520647Y-156196982D01*
X88712215Y-156005414D01*
X88815891Y-155755117D01*
X88815891Y-155484199D01*
X88712215Y-155233902D01*
X88520647Y-155042334D01*
X88498454Y-155033141D01*
X89438200Y-155033141D01*
X89438200Y-155304059D01*
X89541876Y-155554356D01*
X89733444Y-155745924D01*
X89983741Y-155849600D01*
X90254659Y-155849600D01*
X90504956Y-155745924D01*
X90696524Y-155554356D01*
X90800200Y-155304059D01*
X90800200Y-155041051D01*
X115791578Y-155041051D01*
X115791578Y-155311969D01*
X115895254Y-155562266D01*
X116086822Y-155753834D01*
X116337119Y-155857510D01*
X116608037Y-155857510D01*
X116858334Y-155753834D01*
X117049902Y-155562266D01*
X117153578Y-155311969D01*
X117153578Y-155041051D01*
X122864195Y-155041051D01*
X122864195Y-155311969D01*
X122967871Y-155562266D01*
X123159439Y-155753834D01*
X123409736Y-155857510D01*
X123680654Y-155857510D01*
X123930951Y-155753834D01*
X124122519Y-155562266D01*
X124226195Y-155311969D01*
X124226195Y-155041051D01*
X138790400Y-155041051D01*
X138790400Y-155311969D01*
X138894076Y-155562266D01*
X139085644Y-155753834D01*
X139335941Y-155857510D01*
X139606859Y-155857510D01*
X139857156Y-155753834D01*
X140048724Y-155562266D01*
X140152400Y-155311969D01*
X140152400Y-155041051D01*
X140048724Y-154790754D01*
X139857156Y-154599186D01*
X139606859Y-154495510D01*
X139335941Y-154495510D01*
X139085644Y-154599186D01*
X138894076Y-154790754D01*
X138790400Y-155041051D01*
X124226195Y-155041051D01*
X124122519Y-154790754D01*
X123930951Y-154599186D01*
X123680654Y-154495510D01*
X123409736Y-154495510D01*
X123159439Y-154599186D01*
X122967871Y-154790754D01*
X122864195Y-155041051D01*
X117153578Y-155041051D01*
X117049902Y-154790754D01*
X116858334Y-154599186D01*
X116608037Y-154495510D01*
X116337119Y-154495510D01*
X116086822Y-154599186D01*
X115895254Y-154790754D01*
X115791578Y-155041051D01*
X90800200Y-155041051D01*
X90800200Y-155033141D01*
X90696524Y-154782844D01*
X90504956Y-154591276D01*
X90255507Y-154487951D01*
X147260461Y-154487951D01*
X147260461Y-154758869D01*
X147364137Y-155009166D01*
X147555705Y-155200734D01*
X147806002Y-155304410D01*
X147886968Y-155304410D01*
X147883600Y-155312541D01*
X147883600Y-155583459D01*
X147987276Y-155833756D01*
X148178844Y-156025324D01*
X148429141Y-156129000D01*
X148700059Y-156129000D01*
X148950356Y-156025324D01*
X149141924Y-155833756D01*
X149245600Y-155583459D01*
X149245600Y-155312541D01*
X149141924Y-155062244D01*
X148950356Y-154870676D01*
X148700059Y-154767000D01*
X148619093Y-154767000D01*
X148622461Y-154758869D01*
X148622461Y-154487951D01*
X148518785Y-154237654D01*
X148327217Y-154046086D01*
X148076920Y-153942410D01*
X147806002Y-153942410D01*
X147555705Y-154046086D01*
X147364137Y-154237654D01*
X147260461Y-154487951D01*
X90255507Y-154487951D01*
X90254659Y-154487600D01*
X89983741Y-154487600D01*
X89733444Y-154591276D01*
X89541876Y-154782844D01*
X89438200Y-155033141D01*
X88498454Y-155033141D01*
X88270350Y-154938658D01*
X87999432Y-154938658D01*
X87749135Y-155042334D01*
X87557567Y-155233902D01*
X87453891Y-155484199D01*
X85966079Y-155484199D01*
X86022924Y-155427354D01*
X86126600Y-155177057D01*
X86126600Y-154906139D01*
X86022924Y-154655842D01*
X85831356Y-154464274D01*
X85581059Y-154360598D01*
X85310141Y-154360598D01*
X85059844Y-154464274D01*
X84868276Y-154655842D01*
X84764600Y-154906139D01*
X84213690Y-154906139D01*
X84213690Y-154890556D01*
X84110014Y-154640259D01*
X83918446Y-154448691D01*
X83668149Y-154345015D01*
X83397231Y-154345015D01*
X83146934Y-154448691D01*
X82955366Y-154640259D01*
X82851690Y-154890556D01*
X82219356Y-154890556D01*
X82219356Y-154860455D01*
X82115680Y-154610158D01*
X81924112Y-154418590D01*
X81673815Y-154314914D01*
X81402897Y-154314914D01*
X81152600Y-154418590D01*
X80961032Y-154610158D01*
X80857356Y-154860455D01*
X79122229Y-154860455D01*
X79164928Y-154817756D01*
X79268604Y-154567459D01*
X79268604Y-154296541D01*
X79164928Y-154046244D01*
X78973360Y-153854676D01*
X78723063Y-153751000D01*
X78452145Y-153751000D01*
X78201848Y-153854676D01*
X78010280Y-154046244D01*
X77906604Y-154296541D01*
X77770000Y-154296541D01*
X77770000Y-154144141D01*
X77666324Y-153893844D01*
X77474756Y-153702276D01*
X77224459Y-153598600D01*
X76953541Y-153598600D01*
X76703244Y-153702276D01*
X76511676Y-153893844D01*
X76408000Y-154144141D01*
X40456000Y-154144141D01*
X40456000Y-153458341D01*
X81742000Y-153458341D01*
X81742000Y-153729259D01*
X81845676Y-153979556D01*
X82037244Y-154171124D01*
X82287541Y-154274800D01*
X82558459Y-154274800D01*
X82808756Y-154171124D01*
X83000324Y-153979556D01*
X83104000Y-153729259D01*
X83104000Y-153458341D01*
X83093480Y-153432941D01*
X83418400Y-153432941D01*
X83418400Y-153703859D01*
X83522076Y-153954156D01*
X83713644Y-154145724D01*
X83963941Y-154249400D01*
X84234859Y-154249400D01*
X84485156Y-154145724D01*
X84676724Y-153954156D01*
X84703239Y-153890141D01*
X88320600Y-153890141D01*
X88320600Y-154161059D01*
X88424276Y-154411356D01*
X88615844Y-154602924D01*
X88866141Y-154706600D01*
X89137059Y-154706600D01*
X89387356Y-154602924D01*
X89578924Y-154411356D01*
X89682600Y-154161059D01*
X89682600Y-153890141D01*
X89578924Y-153639844D01*
X89387356Y-153448276D01*
X89137059Y-153344600D01*
X88866141Y-153344600D01*
X88615844Y-153448276D01*
X88424276Y-153639844D01*
X88320600Y-153890141D01*
X84703239Y-153890141D01*
X84780400Y-153703859D01*
X84780400Y-153432941D01*
X84676724Y-153182644D01*
X84485156Y-152991076D01*
X84234859Y-152887400D01*
X83963941Y-152887400D01*
X83713644Y-152991076D01*
X83522076Y-153182644D01*
X83418400Y-153432941D01*
X83093480Y-153432941D01*
X83000324Y-153208044D01*
X82808756Y-153016476D01*
X82558459Y-152912800D01*
X82287541Y-152912800D01*
X82037244Y-153016476D01*
X81845676Y-153208044D01*
X81742000Y-153458341D01*
X40456000Y-153458341D01*
X40456000Y-150765941D01*
X55249800Y-150765941D01*
X55249800Y-151036859D01*
X55353476Y-151287156D01*
X55545044Y-151478724D01*
X55795341Y-151582400D01*
X56066259Y-151582400D01*
X56316556Y-151478724D01*
X56508124Y-151287156D01*
X56611800Y-151036859D01*
X56611800Y-151019941D01*
X62361800Y-151019941D01*
X62361800Y-151290859D01*
X62465476Y-151541156D01*
X62657044Y-151732724D01*
X62907341Y-151836400D01*
X63178259Y-151836400D01*
X63428556Y-151732724D01*
X63620124Y-151541156D01*
X63723800Y-151290859D01*
X63723800Y-151019941D01*
X63685688Y-150927930D01*
X80650329Y-150927930D01*
X80650329Y-151198848D01*
X80754005Y-151449145D01*
X80945573Y-151640713D01*
X81195870Y-151744389D01*
X81466788Y-151744389D01*
X81717085Y-151640713D01*
X81908653Y-151449145D01*
X82012329Y-151198848D01*
X82012329Y-150927930D01*
X81955753Y-150791341D01*
X87787200Y-150791341D01*
X87787200Y-151062259D01*
X87890876Y-151312556D01*
X88082444Y-151504124D01*
X88332741Y-151607800D01*
X88603659Y-151607800D01*
X88853956Y-151504124D01*
X89045524Y-151312556D01*
X89149200Y-151062259D01*
X89149200Y-150791341D01*
X89045524Y-150541044D01*
X88853956Y-150349476D01*
X88603659Y-150245800D01*
X88332741Y-150245800D01*
X88082444Y-150349476D01*
X87890876Y-150541044D01*
X87787200Y-150791341D01*
X81955753Y-150791341D01*
X81908653Y-150677633D01*
X81717085Y-150486065D01*
X81466788Y-150382389D01*
X81195870Y-150382389D01*
X80945573Y-150486065D01*
X80754005Y-150677633D01*
X80650329Y-150927930D01*
X63685688Y-150927930D01*
X63620124Y-150769644D01*
X63428556Y-150578076D01*
X63178259Y-150474400D01*
X62907341Y-150474400D01*
X62657044Y-150578076D01*
X62465476Y-150769644D01*
X62361800Y-151019941D01*
X56611800Y-151019941D01*
X56611800Y-150765941D01*
X56508124Y-150515644D01*
X56316556Y-150324076D01*
X56066259Y-150220400D01*
X55795341Y-150220400D01*
X55545044Y-150324076D01*
X55353476Y-150515644D01*
X55249800Y-150765941D01*
X40456000Y-150765941D01*
X40456000Y-149953141D01*
X65028800Y-149953141D01*
X65028800Y-150224059D01*
X65132476Y-150474356D01*
X65324044Y-150665924D01*
X65574341Y-150769600D01*
X65845259Y-150769600D01*
X66095556Y-150665924D01*
X66287124Y-150474356D01*
X66390800Y-150224059D01*
X66390800Y-149953141D01*
X66287124Y-149702844D01*
X66095556Y-149511276D01*
X65845259Y-149407600D01*
X65574341Y-149407600D01*
X65324044Y-149511276D01*
X65132476Y-149702844D01*
X65028800Y-149953141D01*
X40456000Y-149953141D01*
X40456000Y-148479941D01*
X91343200Y-148479941D01*
X91343200Y-148750859D01*
X91446876Y-149001156D01*
X91638444Y-149192724D01*
X91888741Y-149296400D01*
X92159659Y-149296400D01*
X92409956Y-149192724D01*
X92601524Y-149001156D01*
X92705200Y-148750859D01*
X92705200Y-148479941D01*
X92601524Y-148229644D01*
X92409956Y-148038076D01*
X92159659Y-147934400D01*
X91888741Y-147934400D01*
X91638444Y-148038076D01*
X91446876Y-148229644D01*
X91343200Y-148479941D01*
X40456000Y-148479941D01*
X40456000Y-146981341D01*
X75900000Y-146981341D01*
X75900000Y-147252259D01*
X76003676Y-147502556D01*
X76195244Y-147694124D01*
X76445541Y-147797800D01*
X76716459Y-147797800D01*
X76966756Y-147694124D01*
X77158324Y-147502556D01*
X77195359Y-147413143D01*
X134396200Y-147413143D01*
X134396200Y-147684061D01*
X134499876Y-147934358D01*
X134691444Y-148125926D01*
X134941741Y-148229602D01*
X135082000Y-148229602D01*
X135082000Y-148268260D01*
X135185676Y-148518557D01*
X135377244Y-148710125D01*
X135627541Y-148813801D01*
X135898459Y-148813801D01*
X136148756Y-148710125D01*
X136340324Y-148518557D01*
X136382219Y-148417414D01*
X136455676Y-148594756D01*
X136647244Y-148786324D01*
X136897541Y-148890000D01*
X137037800Y-148890000D01*
X137037800Y-148903259D01*
X137141476Y-149153556D01*
X137333044Y-149345124D01*
X137583341Y-149448800D01*
X137854259Y-149448800D01*
X138104556Y-149345124D01*
X138296124Y-149153556D01*
X138399800Y-148903259D01*
X138399800Y-148632341D01*
X138866600Y-148632341D01*
X138866600Y-148903259D01*
X138970276Y-149153556D01*
X139161844Y-149345124D01*
X139412141Y-149448800D01*
X139552400Y-149448800D01*
X139552400Y-149538257D01*
X139656076Y-149788554D01*
X139847644Y-149980122D01*
X140097941Y-150083798D01*
X140136599Y-150083798D01*
X140136599Y-150198659D01*
X140240275Y-150448956D01*
X140431843Y-150640524D01*
X140682140Y-150744200D01*
X140796996Y-150744200D01*
X140796996Y-150808259D01*
X140900672Y-151058556D01*
X141092240Y-151250124D01*
X141342537Y-151353800D01*
X141432000Y-151353800D01*
X141432000Y-151443257D01*
X141535676Y-151693554D01*
X141727244Y-151885122D01*
X141977541Y-151988798D01*
X142092400Y-151988798D01*
X142092400Y-152078259D01*
X142196076Y-152328556D01*
X142387644Y-152520124D01*
X142637941Y-152623800D01*
X142908859Y-152623800D01*
X143037635Y-152570459D01*
X143037635Y-152629545D01*
X143141311Y-152879842D01*
X143332879Y-153071410D01*
X143583176Y-153175086D01*
X143703970Y-153175086D01*
X143770876Y-153336613D01*
X143962444Y-153528181D01*
X144212741Y-153631857D01*
X144483659Y-153631857D01*
X144733956Y-153528181D01*
X144925524Y-153336613D01*
X145012942Y-153125566D01*
X145882357Y-153125566D01*
X145882357Y-153396484D01*
X145986033Y-153646781D01*
X146177601Y-153838349D01*
X146427898Y-153942025D01*
X146698816Y-153942025D01*
X146919577Y-153850583D01*
X146954012Y-153885018D01*
X147204309Y-153988694D01*
X147475227Y-153988694D01*
X147725524Y-153885018D01*
X147917092Y-153693450D01*
X148020768Y-153443153D01*
X148020768Y-153172235D01*
X147917092Y-152921938D01*
X147725524Y-152730370D01*
X147475227Y-152626694D01*
X147204309Y-152626694D01*
X146983548Y-152718136D01*
X146949113Y-152683701D01*
X146698816Y-152580025D01*
X146427898Y-152580025D01*
X146177601Y-152683701D01*
X145986033Y-152875269D01*
X145882357Y-153125566D01*
X145012942Y-153125566D01*
X145029200Y-153086316D01*
X145029200Y-152815398D01*
X144925524Y-152565101D01*
X144733956Y-152373533D01*
X144483659Y-152269857D01*
X144362865Y-152269857D01*
X144295959Y-152108330D01*
X144104391Y-151916762D01*
X143854094Y-151813086D01*
X143583176Y-151813086D01*
X143454400Y-151866427D01*
X143454400Y-151807341D01*
X143350724Y-151557044D01*
X143159156Y-151365476D01*
X142908859Y-151261800D01*
X142794000Y-151261800D01*
X142794000Y-151172339D01*
X142690324Y-150922042D01*
X142498756Y-150730474D01*
X142248459Y-150626798D01*
X142158996Y-150626798D01*
X142158996Y-150537341D01*
X142055320Y-150287044D01*
X141863752Y-150095476D01*
X141613455Y-149991800D01*
X141498599Y-149991800D01*
X141498599Y-149927741D01*
X141394923Y-149677444D01*
X141203355Y-149485876D01*
X140953058Y-149382200D01*
X140914400Y-149382200D01*
X140914400Y-149267339D01*
X140810724Y-149017042D01*
X140619156Y-148825474D01*
X140368859Y-148721798D01*
X140228600Y-148721798D01*
X140228600Y-148632341D01*
X140124924Y-148382044D01*
X139933356Y-148190476D01*
X139683059Y-148086800D01*
X139412141Y-148086800D01*
X139161844Y-148190476D01*
X138970276Y-148382044D01*
X138866600Y-148632341D01*
X138399800Y-148632341D01*
X138296124Y-148382044D01*
X138104556Y-148190476D01*
X137854259Y-148086800D01*
X137714000Y-148086800D01*
X137714000Y-148073541D01*
X137610324Y-147823244D01*
X137418756Y-147631676D01*
X137168459Y-147528000D01*
X136897541Y-147528000D01*
X136647244Y-147631676D01*
X136455676Y-147823244D01*
X136413781Y-147924387D01*
X136340324Y-147747045D01*
X136148756Y-147555477D01*
X135898459Y-147451801D01*
X135758200Y-147451801D01*
X135758200Y-147413143D01*
X135654524Y-147162846D01*
X135462956Y-146971278D01*
X135212659Y-146867602D01*
X134941741Y-146867602D01*
X134691444Y-146971278D01*
X134499876Y-147162846D01*
X134396200Y-147413143D01*
X77195359Y-147413143D01*
X77262000Y-147252259D01*
X77262000Y-146981341D01*
X77158324Y-146731044D01*
X76966756Y-146539476D01*
X76716459Y-146435800D01*
X76445541Y-146435800D01*
X76195244Y-146539476D01*
X76003676Y-146731044D01*
X75900000Y-146981341D01*
X40456000Y-146981341D01*
X40456000Y-140631341D01*
X146283400Y-140631341D01*
X146283400Y-140902259D01*
X146387076Y-141152556D01*
X146578644Y-141344124D01*
X146828941Y-141447800D01*
X147099859Y-141447800D01*
X147350156Y-141344124D01*
X147541724Y-141152556D01*
X147645400Y-140902259D01*
X147645400Y-140631341D01*
X147541724Y-140381044D01*
X147350156Y-140189476D01*
X147099859Y-140085800D01*
X146828941Y-140085800D01*
X146578644Y-140189476D01*
X146387076Y-140381044D01*
X146283400Y-140631341D01*
X40456000Y-140631341D01*
X40456000Y-136948341D01*
X55249800Y-136948341D01*
X55249800Y-137219259D01*
X55353476Y-137469556D01*
X55545044Y-137661124D01*
X55795341Y-137764800D01*
X56066259Y-137764800D01*
X56316556Y-137661124D01*
X56508124Y-137469556D01*
X56611800Y-137219259D01*
X56611800Y-136973741D01*
X62387200Y-136973741D01*
X62387200Y-137244659D01*
X62490876Y-137494956D01*
X62682444Y-137686524D01*
X62932741Y-137790200D01*
X63203659Y-137790200D01*
X63453956Y-137686524D01*
X63531737Y-137608743D01*
X76382600Y-137608743D01*
X76382600Y-137879661D01*
X76486276Y-138129958D01*
X76677844Y-138321526D01*
X76928141Y-138425202D01*
X77199059Y-138425202D01*
X77449356Y-138321526D01*
X77640924Y-138129958D01*
X77744600Y-137879661D01*
X77744600Y-137608743D01*
X77723558Y-137557941D01*
X77855798Y-137557941D01*
X77855798Y-137828859D01*
X77959474Y-138079156D01*
X78151042Y-138270724D01*
X78401339Y-138374400D01*
X78672257Y-138374400D01*
X78922554Y-138270724D01*
X79114122Y-138079156D01*
X79217798Y-137828859D01*
X79217798Y-137557941D01*
X79114122Y-137307644D01*
X78922554Y-137116076D01*
X78672257Y-137012400D01*
X78401339Y-137012400D01*
X78151042Y-137116076D01*
X77959474Y-137307644D01*
X77855798Y-137557941D01*
X77723558Y-137557941D01*
X77640924Y-137358446D01*
X77449356Y-137166878D01*
X77199059Y-137063202D01*
X76928141Y-137063202D01*
X76677844Y-137166878D01*
X76486276Y-137358446D01*
X76382600Y-137608743D01*
X63531737Y-137608743D01*
X63645524Y-137494956D01*
X63749200Y-137244659D01*
X63749200Y-136973741D01*
X63645524Y-136723444D01*
X63453956Y-136531876D01*
X63203659Y-136428200D01*
X62932741Y-136428200D01*
X62682444Y-136531876D01*
X62490876Y-136723444D01*
X62387200Y-136973741D01*
X56611800Y-136973741D01*
X56611800Y-136948341D01*
X56508124Y-136698044D01*
X56316556Y-136506476D01*
X56066259Y-136402800D01*
X55795341Y-136402800D01*
X55545044Y-136506476D01*
X55353476Y-136698044D01*
X55249800Y-136948341D01*
X40456000Y-136948341D01*
X40456000Y-136173652D01*
X77220226Y-136173652D01*
X77220226Y-136444570D01*
X77323902Y-136694867D01*
X77515470Y-136886435D01*
X77765767Y-136990111D01*
X78036685Y-136990111D01*
X78286982Y-136886435D01*
X78478550Y-136694867D01*
X78582226Y-136444570D01*
X78582226Y-136173652D01*
X78524357Y-136033941D01*
X78744800Y-136033941D01*
X78744800Y-136304859D01*
X78848476Y-136555156D01*
X79040044Y-136746724D01*
X79290341Y-136850400D01*
X79561259Y-136850400D01*
X79811556Y-136746724D01*
X80003124Y-136555156D01*
X80008597Y-136541941D01*
X80802200Y-136541941D01*
X80802200Y-136812859D01*
X80905876Y-137063156D01*
X81097444Y-137254724D01*
X81347741Y-137358400D01*
X81618659Y-137358400D01*
X81868956Y-137254724D01*
X82060524Y-137063156D01*
X82164200Y-136812859D01*
X82164200Y-136592741D01*
X82411933Y-136592741D01*
X82411933Y-136863659D01*
X82515609Y-137113956D01*
X82707177Y-137305524D01*
X82957474Y-137409200D01*
X83228392Y-137409200D01*
X83478689Y-137305524D01*
X83670257Y-137113956D01*
X83773933Y-136863659D01*
X83773933Y-136770541D01*
X87888800Y-136770541D01*
X87888800Y-137041459D01*
X87992476Y-137291756D01*
X88184044Y-137483324D01*
X88434341Y-137587000D01*
X88705259Y-137587000D01*
X88955556Y-137483324D01*
X89147124Y-137291756D01*
X89250800Y-137041459D01*
X89250800Y-136770541D01*
X89147124Y-136520244D01*
X88955556Y-136328676D01*
X88705259Y-136225000D01*
X88434341Y-136225000D01*
X88184044Y-136328676D01*
X87992476Y-136520244D01*
X87888800Y-136770541D01*
X83773933Y-136770541D01*
X83773933Y-136592741D01*
X83670257Y-136342444D01*
X83478689Y-136150876D01*
X83228392Y-136047200D01*
X82957474Y-136047200D01*
X82707177Y-136150876D01*
X82515609Y-136342444D01*
X82411933Y-136592741D01*
X82164200Y-136592741D01*
X82164200Y-136541941D01*
X82060524Y-136291644D01*
X81868956Y-136100076D01*
X81618659Y-135996400D01*
X81347741Y-135996400D01*
X81097444Y-136100076D01*
X80905876Y-136291644D01*
X80802200Y-136541941D01*
X80008597Y-136541941D01*
X80106800Y-136304859D01*
X80106800Y-136033941D01*
X80003124Y-135783644D01*
X79811556Y-135592076D01*
X79561259Y-135488400D01*
X79290341Y-135488400D01*
X79040044Y-135592076D01*
X78848476Y-135783644D01*
X78744800Y-136033941D01*
X78524357Y-136033941D01*
X78478550Y-135923355D01*
X78286982Y-135731787D01*
X78036685Y-135628111D01*
X77765767Y-135628111D01*
X77515470Y-135731787D01*
X77323902Y-135923355D01*
X77220226Y-136173652D01*
X40456000Y-136173652D01*
X40456000Y-134357541D01*
X81208600Y-134357541D01*
X81208600Y-134628459D01*
X81312276Y-134878756D01*
X81503844Y-135070324D01*
X81754141Y-135174000D01*
X82025059Y-135174000D01*
X82275356Y-135070324D01*
X82332106Y-135013574D01*
X83175082Y-135013574D01*
X83175082Y-135284492D01*
X83278758Y-135534789D01*
X83470326Y-135726357D01*
X83720623Y-135830033D01*
X83991541Y-135830033D01*
X84241838Y-135726357D01*
X84433406Y-135534789D01*
X84537082Y-135284492D01*
X84537082Y-135013574D01*
X84448618Y-134800000D01*
X155661536Y-134800000D01*
X155661536Y-135800000D01*
X155691106Y-135948659D01*
X155775314Y-136074686D01*
X155901341Y-136158894D01*
X156050000Y-136188464D01*
X157050000Y-136188464D01*
X157198659Y-136158894D01*
X157324686Y-136074686D01*
X157345970Y-136042832D01*
X157476251Y-136129883D01*
X157733233Y-136181000D01*
X157906767Y-136181000D01*
X158135304Y-136135541D01*
X158831000Y-136135541D01*
X158831000Y-136406459D01*
X158934676Y-136656756D01*
X159126244Y-136848324D01*
X159376541Y-136952000D01*
X159647459Y-136952000D01*
X159897756Y-136848324D01*
X160089324Y-136656756D01*
X160193000Y-136406459D01*
X160193000Y-136135541D01*
X160089324Y-135885244D01*
X159897756Y-135693676D01*
X159647459Y-135590000D01*
X159376541Y-135590000D01*
X159126244Y-135693676D01*
X158934676Y-135885244D01*
X158831000Y-136135541D01*
X158135304Y-136135541D01*
X158163749Y-136129883D01*
X158455165Y-135935165D01*
X158649883Y-135643749D01*
X158661419Y-135585750D01*
X161590000Y-135585750D01*
X161590000Y-135926309D01*
X161686673Y-136159698D01*
X161865301Y-136338327D01*
X162098690Y-136435000D01*
X162439250Y-136435000D01*
X162598000Y-136276250D01*
X162598000Y-135427000D01*
X161748750Y-135427000D01*
X161590000Y-135585750D01*
X158661419Y-135585750D01*
X158718259Y-135300000D01*
X158649883Y-134956251D01*
X158461083Y-134673691D01*
X161590000Y-134673691D01*
X161590000Y-135014250D01*
X161748750Y-135173000D01*
X162598000Y-135173000D01*
X162598000Y-134323750D01*
X162852000Y-134323750D01*
X162852000Y-135173000D01*
X162872000Y-135173000D01*
X162872000Y-135427000D01*
X162852000Y-135427000D01*
X162852000Y-136276250D01*
X163010750Y-136435000D01*
X163351310Y-136435000D01*
X163584699Y-136338327D01*
X163763327Y-136159698D01*
X163766205Y-136152749D01*
X163908233Y-136181000D01*
X164081767Y-136181000D01*
X164338749Y-136129883D01*
X164630165Y-135935165D01*
X164824883Y-135643749D01*
X164893259Y-135300000D01*
X164824883Y-134956251D01*
X164630165Y-134664835D01*
X164338749Y-134470117D01*
X164081767Y-134419000D01*
X163908233Y-134419000D01*
X163766205Y-134447251D01*
X163763327Y-134440302D01*
X163584699Y-134261673D01*
X163351310Y-134165000D01*
X163010750Y-134165000D01*
X162852000Y-134323750D01*
X162598000Y-134323750D01*
X162439250Y-134165000D01*
X162098690Y-134165000D01*
X161865301Y-134261673D01*
X161686673Y-134440302D01*
X161590000Y-134673691D01*
X158461083Y-134673691D01*
X158455165Y-134664835D01*
X158163749Y-134470117D01*
X157906767Y-134419000D01*
X157733233Y-134419000D01*
X157476251Y-134470117D01*
X157345970Y-134557168D01*
X157324686Y-134525314D01*
X157198659Y-134441106D01*
X157050000Y-134411536D01*
X156050000Y-134411536D01*
X155901341Y-134441106D01*
X155775314Y-134525314D01*
X155691106Y-134651341D01*
X155661536Y-134800000D01*
X84448618Y-134800000D01*
X84433406Y-134763277D01*
X84241838Y-134571709D01*
X83991541Y-134468033D01*
X83720623Y-134468033D01*
X83470326Y-134571709D01*
X83278758Y-134763277D01*
X83175082Y-135013574D01*
X82332106Y-135013574D01*
X82466924Y-134878756D01*
X82570600Y-134628459D01*
X82570600Y-134357541D01*
X82466924Y-134107244D01*
X82275356Y-133915676D01*
X82025059Y-133812000D01*
X81754141Y-133812000D01*
X81503844Y-133915676D01*
X81312276Y-134107244D01*
X81208600Y-134357541D01*
X40456000Y-134357541D01*
X40456000Y-132681141D01*
X100284000Y-132681141D01*
X100284000Y-132952059D01*
X100387676Y-133202356D01*
X100579244Y-133393924D01*
X100829541Y-133497600D01*
X101100459Y-133497600D01*
X101350756Y-133393924D01*
X101542324Y-133202356D01*
X101646000Y-132952059D01*
X101646000Y-132901787D01*
X103814600Y-132901787D01*
X103814600Y-133172705D01*
X103918276Y-133423002D01*
X104109844Y-133614570D01*
X104360141Y-133718246D01*
X104631059Y-133718246D01*
X104881356Y-133614570D01*
X105072924Y-133423002D01*
X105176600Y-133172705D01*
X105176600Y-132901787D01*
X107269000Y-132901787D01*
X107269000Y-133172705D01*
X107372676Y-133423002D01*
X107564244Y-133614570D01*
X107814541Y-133718246D01*
X108085459Y-133718246D01*
X108335756Y-133614570D01*
X108527324Y-133423002D01*
X108631000Y-133172705D01*
X108631000Y-132901787D01*
X110850400Y-132901787D01*
X110850400Y-133172705D01*
X110954076Y-133423002D01*
X111145644Y-133614570D01*
X111395941Y-133718246D01*
X111666859Y-133718246D01*
X111917156Y-133614570D01*
X112108724Y-133423002D01*
X112212400Y-133172705D01*
X112212400Y-132901787D01*
X114228600Y-132901787D01*
X114228600Y-133172705D01*
X114332276Y-133423002D01*
X114523844Y-133614570D01*
X114774141Y-133718246D01*
X115045059Y-133718246D01*
X115295356Y-133614570D01*
X115486924Y-133423002D01*
X115590600Y-133172705D01*
X115590600Y-132901787D01*
X117759200Y-132901787D01*
X117759200Y-133172705D01*
X117862876Y-133423002D01*
X118054444Y-133614570D01*
X118304741Y-133718246D01*
X118575659Y-133718246D01*
X118825956Y-133614570D01*
X119017524Y-133423002D01*
X119121200Y-133172705D01*
X119121200Y-132901787D01*
X121340600Y-132901787D01*
X121340600Y-133172705D01*
X121444276Y-133423002D01*
X121635844Y-133614570D01*
X121886141Y-133718246D01*
X122157059Y-133718246D01*
X122407356Y-133614570D01*
X122598924Y-133423002D01*
X122702600Y-133172705D01*
X122702600Y-132901787D01*
X122598924Y-132651490D01*
X122407356Y-132459922D01*
X122157059Y-132356246D01*
X121886141Y-132356246D01*
X121635844Y-132459922D01*
X121444276Y-132651490D01*
X121340600Y-132901787D01*
X119121200Y-132901787D01*
X119017524Y-132651490D01*
X118825956Y-132459922D01*
X118575659Y-132356246D01*
X118304741Y-132356246D01*
X118054444Y-132459922D01*
X117862876Y-132651490D01*
X117759200Y-132901787D01*
X115590600Y-132901787D01*
X115486924Y-132651490D01*
X115295356Y-132459922D01*
X115045059Y-132356246D01*
X114774141Y-132356246D01*
X114523844Y-132459922D01*
X114332276Y-132651490D01*
X114228600Y-132901787D01*
X112212400Y-132901787D01*
X112108724Y-132651490D01*
X111917156Y-132459922D01*
X111666859Y-132356246D01*
X111395941Y-132356246D01*
X111145644Y-132459922D01*
X110954076Y-132651490D01*
X110850400Y-132901787D01*
X108631000Y-132901787D01*
X108527324Y-132651490D01*
X108335756Y-132459922D01*
X108085459Y-132356246D01*
X107814541Y-132356246D01*
X107564244Y-132459922D01*
X107372676Y-132651490D01*
X107269000Y-132901787D01*
X105176600Y-132901787D01*
X105072924Y-132651490D01*
X104881356Y-132459922D01*
X104631059Y-132356246D01*
X104360141Y-132356246D01*
X104109844Y-132459922D01*
X103918276Y-132651490D01*
X103814600Y-132901787D01*
X101646000Y-132901787D01*
X101646000Y-132681141D01*
X101542324Y-132430844D01*
X101350756Y-132239276D01*
X101100459Y-132135600D01*
X100829541Y-132135600D01*
X100579244Y-132239276D01*
X100387676Y-132430844D01*
X100284000Y-132681141D01*
X40456000Y-132681141D01*
X40456000Y-125456000D01*
X166044000Y-125456000D01*
X166044001Y-175794000D01*
M02*
