G04 #@! TF.GenerationSoftware,KiCad,Pcbnew,(2018-02-14 revision 6afdf1cf8)-makepkg*
G04 #@! TF.CreationDate,2018-05-17T19:59:26-07:00*
G04 #@! TF.ProjectId,register-card,72656769737465722D636172642E6B69,rev?*
G04 #@! TF.SameCoordinates,Original*
G04 #@! TF.FileFunction,Legend,Bot*
G04 #@! TF.FilePolarity,Positive*
%FSLAX46Y46*%
G04 Gerber Fmt 4.6, Leading zero omitted, Abs format (unit mm)*
G04 Created by KiCad (PCBNEW (2018-02-14 revision 6afdf1cf8)-makepkg) date 05/17/18 19:59:26*
%MOMM*%
%LPD*%
G01*
G04 APERTURE LIST*
%ADD10C,0.400000*%
%ADD11C,0.125000*%
%ADD12C,0.300000*%
%ADD13C,0.175000*%
%ADD14C,0.010000*%
%ADD15C,0.120000*%
%ADD16C,0.150000*%
G04 APERTURE END LIST*
D10*
X151820003Y-167563800D02*
G75*
G03X151820003Y-167563800I-182003J0D01*
G01*
X127994803Y-167690800D02*
G75*
G03X127994803Y-167690800I-182003J0D01*
G01*
X67822203Y-167614600D02*
G75*
G03X67822203Y-167614600I-182003J0D01*
G01*
X93019003Y-167563800D02*
G75*
G03X93019003Y-167563800I-182003J0D01*
G01*
D11*
X78221351Y-130913370D02*
X78221351Y-131318132D01*
X78197541Y-131365751D01*
X78173732Y-131389560D01*
X78126113Y-131413370D01*
X78030875Y-131413370D01*
X77983256Y-131389560D01*
X77959446Y-131365751D01*
X77935637Y-131318132D01*
X77935637Y-130913370D01*
X77721351Y-131389560D02*
X77649922Y-131413370D01*
X77530875Y-131413370D01*
X77483256Y-131389560D01*
X77459446Y-131365751D01*
X77435637Y-131318132D01*
X77435637Y-131270513D01*
X77459446Y-131222894D01*
X77483256Y-131199084D01*
X77530875Y-131175275D01*
X77626113Y-131151465D01*
X77673732Y-131127656D01*
X77697541Y-131103846D01*
X77721351Y-131056227D01*
X77721351Y-131008608D01*
X77697541Y-130960989D01*
X77673732Y-130937180D01*
X77626113Y-130913370D01*
X77507065Y-130913370D01*
X77435637Y-130937180D01*
X77221351Y-131151465D02*
X77054684Y-131151465D01*
X76983256Y-131413370D02*
X77221351Y-131413370D01*
X77221351Y-130913370D01*
X76983256Y-130913370D01*
X76221351Y-131151465D02*
X76388018Y-131151465D01*
X76388018Y-131413370D02*
X76388018Y-130913370D01*
X76149922Y-130913370D01*
X75721351Y-131413370D02*
X75959446Y-131413370D01*
X75959446Y-130913370D01*
X75578494Y-131270513D02*
X75340399Y-131270513D01*
X75626113Y-131413370D02*
X75459446Y-130913370D01*
X75292780Y-131413370D01*
X75126113Y-131413370D02*
X75126113Y-130913370D01*
X74840399Y-131413370D01*
X74840399Y-130913370D01*
X74340399Y-130937180D02*
X74388018Y-130913370D01*
X74459446Y-130913370D01*
X74530875Y-130937180D01*
X74578494Y-130984799D01*
X74602303Y-131032418D01*
X74626113Y-131127656D01*
X74626113Y-131199084D01*
X74602303Y-131294322D01*
X74578494Y-131341941D01*
X74530875Y-131389560D01*
X74459446Y-131413370D01*
X74411827Y-131413370D01*
X74340399Y-131389560D01*
X74316589Y-131365751D01*
X74316589Y-131199084D01*
X74411827Y-131199084D01*
X74102303Y-131151465D02*
X73935637Y-131151465D01*
X73864208Y-131413370D02*
X74102303Y-131413370D01*
X74102303Y-130913370D01*
X73864208Y-130913370D01*
X73411827Y-131413370D02*
X73649922Y-131413370D01*
X73649922Y-130913370D01*
X73245160Y-131151465D02*
X73078494Y-131151465D01*
X73007065Y-131413370D02*
X73245160Y-131413370D01*
X73245160Y-130913370D01*
X73007065Y-130913370D01*
X72816589Y-131389560D02*
X72745160Y-131413370D01*
X72626113Y-131413370D01*
X72578494Y-131389560D01*
X72554684Y-131365751D01*
X72530875Y-131318132D01*
X72530875Y-131270513D01*
X72554684Y-131222894D01*
X72578494Y-131199084D01*
X72626113Y-131175275D01*
X72721351Y-131151465D01*
X72768970Y-131127656D01*
X72792780Y-131103846D01*
X72816589Y-131056227D01*
X72816589Y-131008608D01*
X72792780Y-130960989D01*
X72768970Y-130937180D01*
X72721351Y-130913370D01*
X72602303Y-130913370D01*
X72530875Y-130937180D01*
X72340399Y-131389560D02*
X72268970Y-131413370D01*
X72149922Y-131413370D01*
X72102303Y-131389560D01*
X72078494Y-131365751D01*
X72054684Y-131318132D01*
X72054684Y-131270513D01*
X72078494Y-131222894D01*
X72102303Y-131199084D01*
X72149922Y-131175275D01*
X72245160Y-131151465D01*
X72292780Y-131127656D01*
X72316589Y-131103846D01*
X72340399Y-131056227D01*
X72340399Y-131008608D01*
X72316589Y-130960989D01*
X72292780Y-130937180D01*
X72245160Y-130913370D01*
X72126113Y-130913370D01*
X72054684Y-130937180D01*
X71507065Y-130913370D02*
X71197541Y-130913370D01*
X71364208Y-131103846D01*
X71292780Y-131103846D01*
X71245160Y-131127656D01*
X71221351Y-131151465D01*
X71197541Y-131199084D01*
X71197541Y-131318132D01*
X71221351Y-131365751D01*
X71245160Y-131389560D01*
X71292780Y-131413370D01*
X71435637Y-131413370D01*
X71483256Y-131389560D01*
X71507065Y-131365751D01*
X70983256Y-131413370D02*
X70983256Y-130913370D01*
X70816589Y-131270513D01*
X70649922Y-130913370D01*
X70649922Y-131413370D01*
X70411827Y-131413370D02*
X70411827Y-130913370D01*
X70245160Y-131270513D01*
X70078494Y-130913370D01*
X70078494Y-131413370D01*
X69221351Y-131413370D02*
X69459446Y-131413370D01*
X69459446Y-130913370D01*
X69054684Y-131151465D02*
X68888018Y-131151465D01*
X68816589Y-131413370D02*
X69054684Y-131413370D01*
X69054684Y-130913370D01*
X68816589Y-130913370D01*
X68602303Y-131413370D02*
X68602303Y-130913370D01*
X68483256Y-130913370D01*
X68411827Y-130937180D01*
X68364208Y-130984799D01*
X68340399Y-131032418D01*
X68316589Y-131127656D01*
X68316589Y-131199084D01*
X68340399Y-131294322D01*
X68364208Y-131341941D01*
X68411827Y-131389560D01*
X68483256Y-131413370D01*
X68602303Y-131413370D01*
X68126113Y-131389560D02*
X68054684Y-131413370D01*
X67935637Y-131413370D01*
X67888018Y-131389560D01*
X67864208Y-131365751D01*
X67840399Y-131318132D01*
X67840399Y-131270513D01*
X67864208Y-131222894D01*
X67888018Y-131199084D01*
X67935637Y-131175275D01*
X68030875Y-131151465D01*
X68078494Y-131127656D01*
X68102303Y-131103846D01*
X68126113Y-131056227D01*
X68126113Y-131008608D01*
X68102303Y-130960989D01*
X68078494Y-130937180D01*
X68030875Y-130913370D01*
X67911827Y-130913370D01*
X67840399Y-130937180D01*
D12*
X108835714Y-132068619D02*
X109335714Y-131354333D01*
X109692857Y-132068619D02*
X109692857Y-130568619D01*
X109121428Y-130568619D01*
X108978571Y-130640048D01*
X108907142Y-130711476D01*
X108835714Y-130854333D01*
X108835714Y-131068619D01*
X108907142Y-131211476D01*
X108978571Y-131282905D01*
X109121428Y-131354333D01*
X109692857Y-131354333D01*
X108192857Y-131282905D02*
X107692857Y-131282905D01*
X107478571Y-132068619D02*
X108192857Y-132068619D01*
X108192857Y-130568619D01*
X107478571Y-130568619D01*
X106050000Y-130640048D02*
X106192857Y-130568619D01*
X106407142Y-130568619D01*
X106621428Y-130640048D01*
X106764285Y-130782905D01*
X106835714Y-130925762D01*
X106907142Y-131211476D01*
X106907142Y-131425762D01*
X106835714Y-131711476D01*
X106764285Y-131854333D01*
X106621428Y-131997190D01*
X106407142Y-132068619D01*
X106264285Y-132068619D01*
X106050000Y-131997190D01*
X105978571Y-131925762D01*
X105978571Y-131425762D01*
X106264285Y-131425762D01*
X105335714Y-132068619D02*
X105335714Y-130568619D01*
X104692857Y-131997190D02*
X104478571Y-132068619D01*
X104121428Y-132068619D01*
X103978571Y-131997190D01*
X103907142Y-131925762D01*
X103835714Y-131782905D01*
X103835714Y-131640048D01*
X103907142Y-131497190D01*
X103978571Y-131425762D01*
X104121428Y-131354333D01*
X104407142Y-131282905D01*
X104550000Y-131211476D01*
X104621428Y-131140048D01*
X104692857Y-130997190D01*
X104692857Y-130854333D01*
X104621428Y-130711476D01*
X104550000Y-130640048D01*
X104407142Y-130568619D01*
X104050000Y-130568619D01*
X103835714Y-130640048D01*
X103407142Y-130568619D02*
X102550000Y-130568619D01*
X102978571Y-132068619D02*
X102978571Y-130568619D01*
X102050000Y-131282905D02*
X101550000Y-131282905D01*
X101335714Y-132068619D02*
X102050000Y-132068619D01*
X102050000Y-130568619D01*
X101335714Y-130568619D01*
X99835714Y-132068619D02*
X100335714Y-131354333D01*
X100692857Y-132068619D02*
X100692857Y-130568619D01*
X100121428Y-130568619D01*
X99978571Y-130640048D01*
X99907142Y-130711476D01*
X99835714Y-130854333D01*
X99835714Y-131068619D01*
X99907142Y-131211476D01*
X99978571Y-131282905D01*
X100121428Y-131354333D01*
X100692857Y-131354333D01*
X97192857Y-131925762D02*
X97264285Y-131997190D01*
X97478571Y-132068619D01*
X97621428Y-132068619D01*
X97835714Y-131997190D01*
X97978571Y-131854333D01*
X98050000Y-131711476D01*
X98121428Y-131425762D01*
X98121428Y-131211476D01*
X98050000Y-130925762D01*
X97978571Y-130782905D01*
X97835714Y-130640048D01*
X97621428Y-130568619D01*
X97478571Y-130568619D01*
X97264285Y-130640048D01*
X97192857Y-130711476D01*
X96264285Y-130568619D02*
X95978571Y-130568619D01*
X95835714Y-130640048D01*
X95692857Y-130782905D01*
X95621428Y-131068619D01*
X95621428Y-131568619D01*
X95692857Y-131854333D01*
X95835714Y-131997190D01*
X95978571Y-132068619D01*
X96264285Y-132068619D01*
X96407142Y-131997190D01*
X96550000Y-131854333D01*
X96621428Y-131568619D01*
X96621428Y-131068619D01*
X96550000Y-130782905D01*
X96407142Y-130640048D01*
X96264285Y-130568619D01*
X94978571Y-132068619D02*
X94978571Y-130568619D01*
X94121428Y-132068619D01*
X94121428Y-130568619D01*
X93621428Y-130568619D02*
X92764285Y-130568619D01*
X93192857Y-132068619D02*
X93192857Y-130568619D01*
X92264285Y-131282905D02*
X91764285Y-131282905D01*
X91550000Y-132068619D02*
X92264285Y-132068619D01*
X92264285Y-130568619D01*
X91550000Y-130568619D01*
X90907142Y-132068619D02*
X90907142Y-130568619D01*
X90050000Y-132068619D01*
X90050000Y-130568619D01*
X89550000Y-130568619D02*
X88692857Y-130568619D01*
X89121428Y-132068619D02*
X89121428Y-130568619D01*
D13*
X162715304Y-144718019D02*
X161915304Y-144718019D01*
X162715304Y-145060876D02*
X162296257Y-145060876D01*
X162220066Y-145022780D01*
X162181971Y-144946590D01*
X162181971Y-144832304D01*
X162220066Y-144756114D01*
X162258161Y-144718019D01*
X162181971Y-145327542D02*
X162181971Y-145632304D01*
X161915304Y-145441828D02*
X162601019Y-145441828D01*
X162677209Y-145479923D01*
X162715304Y-145556114D01*
X162715304Y-145632304D01*
X162181971Y-145784685D02*
X162181971Y-146089447D01*
X161915304Y-145898971D02*
X162601019Y-145898971D01*
X162677209Y-145937066D01*
X162715304Y-146013257D01*
X162715304Y-146089447D01*
X162181971Y-146356114D02*
X162981971Y-146356114D01*
X162220066Y-146356114D02*
X162181971Y-146432304D01*
X162181971Y-146584685D01*
X162220066Y-146660876D01*
X162258161Y-146698971D01*
X162334352Y-146737066D01*
X162562923Y-146737066D01*
X162639114Y-146698971D01*
X162677209Y-146660876D01*
X162715304Y-146584685D01*
X162715304Y-146432304D01*
X162677209Y-146356114D01*
X162677209Y-147041828D02*
X162715304Y-147118019D01*
X162715304Y-147270399D01*
X162677209Y-147346590D01*
X162601019Y-147384685D01*
X162562923Y-147384685D01*
X162486733Y-147346590D01*
X162448638Y-147270399D01*
X162448638Y-147156114D01*
X162410542Y-147079923D01*
X162334352Y-147041828D01*
X162296257Y-147041828D01*
X162220066Y-147079923D01*
X162181971Y-147156114D01*
X162181971Y-147270399D01*
X162220066Y-147346590D01*
X162639114Y-147727542D02*
X162677209Y-147765638D01*
X162715304Y-147727542D01*
X162677209Y-147689447D01*
X162639114Y-147727542D01*
X162715304Y-147727542D01*
X162220066Y-147727542D02*
X162258161Y-147765638D01*
X162296257Y-147727542D01*
X162258161Y-147689447D01*
X162220066Y-147727542D01*
X162296257Y-147727542D01*
X161877209Y-148679923D02*
X162905780Y-147994209D01*
X161877209Y-149518019D02*
X162905780Y-148832304D01*
X162181971Y-150127542D02*
X162829590Y-150127542D01*
X162905780Y-150089447D01*
X162943876Y-150051352D01*
X162981971Y-149975161D01*
X162981971Y-149860876D01*
X162943876Y-149784685D01*
X162677209Y-150127542D02*
X162715304Y-150051352D01*
X162715304Y-149898971D01*
X162677209Y-149822780D01*
X162639114Y-149784685D01*
X162562923Y-149746590D01*
X162334352Y-149746590D01*
X162258161Y-149784685D01*
X162220066Y-149822780D01*
X162181971Y-149898971D01*
X162181971Y-150051352D01*
X162220066Y-150127542D01*
X162715304Y-150508495D02*
X162181971Y-150508495D01*
X161915304Y-150508495D02*
X161953400Y-150470399D01*
X161991495Y-150508495D01*
X161953400Y-150546590D01*
X161915304Y-150508495D01*
X161991495Y-150508495D01*
X162181971Y-150775161D02*
X162181971Y-151079923D01*
X161915304Y-150889447D02*
X162601019Y-150889447D01*
X162677209Y-150927542D01*
X162715304Y-151003733D01*
X162715304Y-151079923D01*
X162715304Y-151346590D02*
X161915304Y-151346590D01*
X162715304Y-151689447D02*
X162296257Y-151689447D01*
X162220066Y-151651352D01*
X162181971Y-151575161D01*
X162181971Y-151460876D01*
X162220066Y-151384685D01*
X162258161Y-151346590D01*
X162181971Y-152413257D02*
X162715304Y-152413257D01*
X162181971Y-152070399D02*
X162601019Y-152070399D01*
X162677209Y-152108495D01*
X162715304Y-152184685D01*
X162715304Y-152298971D01*
X162677209Y-152375161D01*
X162639114Y-152413257D01*
X162715304Y-152794209D02*
X161915304Y-152794209D01*
X162220066Y-152794209D02*
X162181971Y-152870399D01*
X162181971Y-153022780D01*
X162220066Y-153098971D01*
X162258161Y-153137066D01*
X162334352Y-153175161D01*
X162562923Y-153175161D01*
X162639114Y-153137066D01*
X162677209Y-153098971D01*
X162715304Y-153022780D01*
X162715304Y-152870399D01*
X162677209Y-152794209D01*
X162639114Y-153518019D02*
X162677209Y-153556114D01*
X162715304Y-153518019D01*
X162677209Y-153479923D01*
X162639114Y-153518019D01*
X162715304Y-153518019D01*
X162677209Y-154241828D02*
X162715304Y-154165638D01*
X162715304Y-154013257D01*
X162677209Y-153937066D01*
X162639114Y-153898971D01*
X162562923Y-153860876D01*
X162334352Y-153860876D01*
X162258161Y-153898971D01*
X162220066Y-153937066D01*
X162181971Y-154013257D01*
X162181971Y-154165638D01*
X162220066Y-154241828D01*
X162715304Y-154698971D02*
X162677209Y-154622780D01*
X162639114Y-154584685D01*
X162562923Y-154546590D01*
X162334352Y-154546590D01*
X162258161Y-154584685D01*
X162220066Y-154622780D01*
X162181971Y-154698971D01*
X162181971Y-154813257D01*
X162220066Y-154889447D01*
X162258161Y-154927542D01*
X162334352Y-154965638D01*
X162562923Y-154965638D01*
X162639114Y-154927542D01*
X162677209Y-154889447D01*
X162715304Y-154813257D01*
X162715304Y-154698971D01*
X162715304Y-155308495D02*
X162181971Y-155308495D01*
X162258161Y-155308495D02*
X162220066Y-155346590D01*
X162181971Y-155422780D01*
X162181971Y-155537066D01*
X162220066Y-155613257D01*
X162296257Y-155651352D01*
X162715304Y-155651352D01*
X162296257Y-155651352D02*
X162220066Y-155689447D01*
X162181971Y-155765638D01*
X162181971Y-155879923D01*
X162220066Y-155956114D01*
X162296257Y-155994209D01*
X162715304Y-155994209D01*
X161877209Y-156946590D02*
X162905780Y-156260876D01*
X162715304Y-157670399D02*
X162334352Y-157403733D01*
X162715304Y-157213257D02*
X161915304Y-157213257D01*
X161915304Y-157518019D01*
X161953400Y-157594209D01*
X161991495Y-157632304D01*
X162067685Y-157670399D01*
X162181971Y-157670399D01*
X162258161Y-157632304D01*
X162296257Y-157594209D01*
X162334352Y-157518019D01*
X162334352Y-157213257D01*
X162715304Y-158127542D02*
X162677209Y-158051352D01*
X162639114Y-158013257D01*
X162562923Y-157975161D01*
X162334352Y-157975161D01*
X162258161Y-158013257D01*
X162220066Y-158051352D01*
X162181971Y-158127542D01*
X162181971Y-158241828D01*
X162220066Y-158318019D01*
X162258161Y-158356114D01*
X162334352Y-158394209D01*
X162562923Y-158394209D01*
X162639114Y-158356114D01*
X162677209Y-158318019D01*
X162715304Y-158241828D01*
X162715304Y-158127542D01*
X162715304Y-158737066D02*
X161915304Y-158737066D01*
X162220066Y-158737066D02*
X162181971Y-158813257D01*
X162181971Y-158965638D01*
X162220066Y-159041828D01*
X162258161Y-159079923D01*
X162334352Y-159118019D01*
X162562923Y-159118019D01*
X162639114Y-159079923D01*
X162677209Y-159041828D01*
X162715304Y-158965638D01*
X162715304Y-158813257D01*
X162677209Y-158737066D01*
X162677209Y-159765638D02*
X162715304Y-159689447D01*
X162715304Y-159537066D01*
X162677209Y-159460876D01*
X162601019Y-159422780D01*
X162296257Y-159422780D01*
X162220066Y-159460876D01*
X162181971Y-159537066D01*
X162181971Y-159689447D01*
X162220066Y-159765638D01*
X162296257Y-159803733D01*
X162372447Y-159803733D01*
X162448638Y-159422780D01*
X162715304Y-160146590D02*
X162181971Y-160146590D01*
X162334352Y-160146590D02*
X162258161Y-160184685D01*
X162220066Y-160222780D01*
X162181971Y-160298971D01*
X162181971Y-160375161D01*
X162181971Y-160527542D02*
X162181971Y-160832304D01*
X161915304Y-160641828D02*
X162601019Y-160641828D01*
X162677209Y-160679923D01*
X162715304Y-160756114D01*
X162715304Y-160832304D01*
X162296257Y-161365638D02*
X162334352Y-161479923D01*
X162372447Y-161518019D01*
X162448638Y-161556114D01*
X162562923Y-161556114D01*
X162639114Y-161518019D01*
X162677209Y-161479923D01*
X162715304Y-161403733D01*
X162715304Y-161098971D01*
X161915304Y-161098971D01*
X161915304Y-161365638D01*
X161953400Y-161441828D01*
X161991495Y-161479923D01*
X162067685Y-161518019D01*
X162143876Y-161518019D01*
X162220066Y-161479923D01*
X162258161Y-161441828D01*
X162296257Y-161365638D01*
X162296257Y-161098971D01*
X162715304Y-162241828D02*
X162296257Y-162241828D01*
X162220066Y-162203733D01*
X162181971Y-162127542D01*
X162181971Y-161975161D01*
X162220066Y-161898971D01*
X162677209Y-162241828D02*
X162715304Y-162165638D01*
X162715304Y-161975161D01*
X162677209Y-161898971D01*
X162601019Y-161860876D01*
X162524828Y-161860876D01*
X162448638Y-161898971D01*
X162410542Y-161975161D01*
X162410542Y-162165638D01*
X162372447Y-162241828D01*
X162715304Y-162622780D02*
X162181971Y-162622780D01*
X162334352Y-162622780D02*
X162258161Y-162660876D01*
X162220066Y-162698971D01*
X162181971Y-162775161D01*
X162181971Y-162851352D01*
X162181971Y-163460876D02*
X162715304Y-163460876D01*
X162181971Y-163118019D02*
X162601019Y-163118019D01*
X162677209Y-163156114D01*
X162715304Y-163232304D01*
X162715304Y-163346590D01*
X162677209Y-163422780D01*
X162639114Y-163460876D01*
X162677209Y-164184685D02*
X162715304Y-164108495D01*
X162715304Y-163956114D01*
X162677209Y-163879923D01*
X162639114Y-163841828D01*
X162562923Y-163803733D01*
X162334352Y-163803733D01*
X162258161Y-163841828D01*
X162220066Y-163879923D01*
X162181971Y-163956114D01*
X162181971Y-164108495D01*
X162220066Y-164184685D01*
X162715304Y-164527542D02*
X161915304Y-164527542D01*
X162715304Y-164870399D02*
X162296257Y-164870399D01*
X162220066Y-164832304D01*
X162181971Y-164756114D01*
X162181971Y-164641828D01*
X162220066Y-164565638D01*
X162258161Y-164527542D01*
X161877209Y-165822780D02*
X162905780Y-165137066D01*
X162715304Y-166203733D02*
X162677209Y-166127542D01*
X162601019Y-166089447D01*
X161915304Y-166089447D01*
X162715304Y-166508495D02*
X162181971Y-166508495D01*
X162258161Y-166508495D02*
X162220066Y-166546590D01*
X162181971Y-166622780D01*
X162181971Y-166737066D01*
X162220066Y-166813257D01*
X162296257Y-166851352D01*
X162715304Y-166851352D01*
X162296257Y-166851352D02*
X162220066Y-166889447D01*
X162181971Y-166965638D01*
X162181971Y-167079923D01*
X162220066Y-167156114D01*
X162296257Y-167194209D01*
X162715304Y-167194209D01*
X162715304Y-167918019D02*
X162296257Y-167918019D01*
X162220066Y-167879923D01*
X162181971Y-167803733D01*
X162181971Y-167651352D01*
X162220066Y-167575161D01*
X162677209Y-167918019D02*
X162715304Y-167841828D01*
X162715304Y-167651352D01*
X162677209Y-167575161D01*
X162601019Y-167537066D01*
X162524828Y-167537066D01*
X162448638Y-167575161D01*
X162410542Y-167651352D01*
X162410542Y-167841828D01*
X162372447Y-167918019D01*
X162715304Y-168298971D02*
X162181971Y-168298971D01*
X162334352Y-168298971D02*
X162258161Y-168337066D01*
X162220066Y-168375161D01*
X162181971Y-168451352D01*
X162181971Y-168527542D01*
X162181971Y-168718019D02*
X162715304Y-168908495D01*
X162181971Y-169098971D01*
X164090304Y-151060876D02*
X163709352Y-150794209D01*
X164090304Y-150603733D02*
X163290304Y-150603733D01*
X163290304Y-150908495D01*
X163328400Y-150984685D01*
X163366495Y-151022780D01*
X163442685Y-151060876D01*
X163556971Y-151060876D01*
X163633161Y-151022780D01*
X163671257Y-150984685D01*
X163709352Y-150908495D01*
X163709352Y-150603733D01*
X163671257Y-151403733D02*
X163671257Y-151670400D01*
X164090304Y-151784685D02*
X164090304Y-151403733D01*
X163290304Y-151403733D01*
X163290304Y-151784685D01*
X163290304Y-152013257D02*
X164090304Y-152279923D01*
X163290304Y-152546590D01*
X164014114Y-153879923D02*
X164052209Y-153841828D01*
X164090304Y-153727542D01*
X164090304Y-153651352D01*
X164052209Y-153537066D01*
X163976019Y-153460876D01*
X163899828Y-153422780D01*
X163747447Y-153384685D01*
X163633161Y-153384685D01*
X163480780Y-153422780D01*
X163404590Y-153460876D01*
X163328400Y-153537066D01*
X163290304Y-153651352D01*
X163290304Y-153727542D01*
X163328400Y-153841828D01*
X163366495Y-153879923D01*
X163366495Y-155403733D02*
X163328400Y-155441828D01*
X163290304Y-155518019D01*
X163290304Y-155708495D01*
X163328400Y-155784685D01*
X163366495Y-155822780D01*
X163442685Y-155860876D01*
X163518876Y-155860876D01*
X163633161Y-155822780D01*
X164090304Y-155365638D01*
X164090304Y-155860876D01*
X163290304Y-156356114D02*
X163290304Y-156432304D01*
X163328400Y-156508495D01*
X163366495Y-156546590D01*
X163442685Y-156584685D01*
X163595066Y-156622780D01*
X163785542Y-156622780D01*
X163937923Y-156584685D01*
X164014114Y-156546590D01*
X164052209Y-156508495D01*
X164090304Y-156432304D01*
X164090304Y-156356114D01*
X164052209Y-156279923D01*
X164014114Y-156241828D01*
X163937923Y-156203733D01*
X163785542Y-156165638D01*
X163595066Y-156165638D01*
X163442685Y-156203733D01*
X163366495Y-156241828D01*
X163328400Y-156279923D01*
X163290304Y-156356114D01*
X164090304Y-157384685D02*
X164090304Y-156927542D01*
X164090304Y-157156114D02*
X163290304Y-157156114D01*
X163404590Y-157079923D01*
X163480780Y-157003733D01*
X163518876Y-156927542D01*
X163633161Y-157841828D02*
X163595066Y-157765638D01*
X163556971Y-157727542D01*
X163480780Y-157689447D01*
X163442685Y-157689447D01*
X163366495Y-157727542D01*
X163328400Y-157765638D01*
X163290304Y-157841828D01*
X163290304Y-157994209D01*
X163328400Y-158070400D01*
X163366495Y-158108495D01*
X163442685Y-158146590D01*
X163480780Y-158146590D01*
X163556971Y-158108495D01*
X163595066Y-158070400D01*
X163633161Y-157994209D01*
X163633161Y-157841828D01*
X163671257Y-157765638D01*
X163709352Y-157727542D01*
X163785542Y-157689447D01*
X163937923Y-157689447D01*
X164014114Y-157727542D01*
X164052209Y-157765638D01*
X164090304Y-157841828D01*
X164090304Y-157994209D01*
X164052209Y-158070400D01*
X164014114Y-158108495D01*
X163937923Y-158146590D01*
X163785542Y-158146590D01*
X163709352Y-158108495D01*
X163671257Y-158070400D01*
X163633161Y-157994209D01*
X164090304Y-159098971D02*
X163290304Y-159098971D01*
X163861733Y-159365638D01*
X163290304Y-159632304D01*
X164090304Y-159632304D01*
X163861733Y-159975161D02*
X163861733Y-160356114D01*
X164090304Y-159898971D02*
X163290304Y-160165638D01*
X164090304Y-160432304D01*
X163709352Y-160851352D02*
X164090304Y-160851352D01*
X163290304Y-160584685D02*
X163709352Y-160851352D01*
X163290304Y-161118019D01*
X164090304Y-162413257D02*
X164090304Y-161956114D01*
X164090304Y-162184685D02*
X163290304Y-162184685D01*
X163404590Y-162108495D01*
X163480780Y-162032304D01*
X163518876Y-161956114D01*
X163290304Y-162679923D02*
X163290304Y-163213257D01*
X164090304Y-162870400D01*
X165465304Y-149137066D02*
X165465304Y-148756114D01*
X164665304Y-148756114D01*
X165465304Y-149403733D02*
X164665304Y-149403733D01*
X165236733Y-149670400D01*
X164665304Y-149937066D01*
X165465304Y-149937066D01*
X165236733Y-150279923D02*
X165236733Y-150660876D01*
X165465304Y-150203733D02*
X164665304Y-150470400D01*
X165465304Y-150737066D01*
X165465304Y-151460876D02*
X165084352Y-151194209D01*
X165465304Y-151003733D02*
X164665304Y-151003733D01*
X164665304Y-151308495D01*
X164703400Y-151384685D01*
X164741495Y-151422780D01*
X164817685Y-151460876D01*
X164931971Y-151460876D01*
X165008161Y-151422780D01*
X165046257Y-151384685D01*
X165084352Y-151308495D01*
X165084352Y-151003733D01*
X164665304Y-151689447D02*
X165465304Y-151956114D01*
X164665304Y-152222780D01*
X165160542Y-152489447D02*
X165160542Y-153098971D01*
X165465304Y-153898971D02*
X165465304Y-153441828D01*
X165465304Y-153670400D02*
X164665304Y-153670400D01*
X164779590Y-153594209D01*
X164855780Y-153518019D01*
X164893876Y-153441828D01*
X164665304Y-154775161D02*
X164665304Y-155270400D01*
X164970066Y-155003733D01*
X164970066Y-155118019D01*
X165008161Y-155194209D01*
X165046257Y-155232304D01*
X165122447Y-155270400D01*
X165312923Y-155270400D01*
X165389114Y-155232304D01*
X165427209Y-155194209D01*
X165465304Y-155118019D01*
X165465304Y-154889447D01*
X165427209Y-154813257D01*
X165389114Y-154775161D01*
X164741495Y-155575161D02*
X164703400Y-155613257D01*
X164665304Y-155689447D01*
X164665304Y-155879923D01*
X164703400Y-155956114D01*
X164741495Y-155994209D01*
X164817685Y-156032304D01*
X164893876Y-156032304D01*
X165008161Y-155994209D01*
X165465304Y-155537066D01*
X165465304Y-156032304D01*
X165160542Y-156375161D02*
X165160542Y-156984685D01*
X165046257Y-157632304D02*
X165084352Y-157746590D01*
X165122447Y-157784685D01*
X165198638Y-157822780D01*
X165312923Y-157822780D01*
X165389114Y-157784685D01*
X165427209Y-157746590D01*
X165465304Y-157670400D01*
X165465304Y-157365638D01*
X164665304Y-157365638D01*
X164665304Y-157632304D01*
X164703400Y-157708495D01*
X164741495Y-157746590D01*
X164817685Y-157784685D01*
X164893876Y-157784685D01*
X164970066Y-157746590D01*
X165008161Y-157708495D01*
X165046257Y-157632304D01*
X165046257Y-157365638D01*
X165465304Y-158165638D02*
X164665304Y-158165638D01*
X164665304Y-158432304D02*
X164665304Y-158889447D01*
X165465304Y-158660876D02*
X164665304Y-158660876D01*
X165465304Y-160222780D02*
X165084352Y-159956114D01*
X165465304Y-159765638D02*
X164665304Y-159765638D01*
X164665304Y-160070400D01*
X164703400Y-160146590D01*
X164741495Y-160184685D01*
X164817685Y-160222780D01*
X164931971Y-160222780D01*
X165008161Y-160184685D01*
X165046257Y-160146590D01*
X165084352Y-160070400D01*
X165084352Y-159765638D01*
X165046257Y-160565638D02*
X165046257Y-160832304D01*
X165465304Y-160946590D02*
X165465304Y-160565638D01*
X164665304Y-160565638D01*
X164665304Y-160946590D01*
X164703400Y-161708495D02*
X164665304Y-161632304D01*
X164665304Y-161518019D01*
X164703400Y-161403733D01*
X164779590Y-161327542D01*
X164855780Y-161289447D01*
X165008161Y-161251352D01*
X165122447Y-161251352D01*
X165274828Y-161289447D01*
X165351019Y-161327542D01*
X165427209Y-161403733D01*
X165465304Y-161518019D01*
X165465304Y-161594209D01*
X165427209Y-161708495D01*
X165389114Y-161746590D01*
X165122447Y-161746590D01*
X165122447Y-161594209D01*
X165465304Y-162089447D02*
X164665304Y-162089447D01*
X165427209Y-162432304D02*
X165465304Y-162546590D01*
X165465304Y-162737066D01*
X165427209Y-162813257D01*
X165389114Y-162851352D01*
X165312923Y-162889447D01*
X165236733Y-162889447D01*
X165160542Y-162851352D01*
X165122447Y-162813257D01*
X165084352Y-162737066D01*
X165046257Y-162584685D01*
X165008161Y-162508495D01*
X164970066Y-162470400D01*
X164893876Y-162432304D01*
X164817685Y-162432304D01*
X164741495Y-162470400D01*
X164703400Y-162508495D01*
X164665304Y-162584685D01*
X164665304Y-162775161D01*
X164703400Y-162889447D01*
X164665304Y-163118019D02*
X164665304Y-163575161D01*
X165465304Y-163346590D02*
X164665304Y-163346590D01*
X165046257Y-163841828D02*
X165046257Y-164108495D01*
X165465304Y-164222780D02*
X165465304Y-163841828D01*
X164665304Y-163841828D01*
X164665304Y-164222780D01*
X165465304Y-165022780D02*
X165084352Y-164756114D01*
X165465304Y-164565638D02*
X164665304Y-164565638D01*
X164665304Y-164870400D01*
X164703400Y-164946590D01*
X164741495Y-164984685D01*
X164817685Y-165022780D01*
X164931971Y-165022780D01*
X165008161Y-164984685D01*
X165046257Y-164946590D01*
X165084352Y-164870400D01*
X165084352Y-164565638D01*
D12*
X141915114Y-174190742D02*
X141700828Y-174262171D01*
X141343685Y-174262171D01*
X141200828Y-174190742D01*
X141129400Y-174119314D01*
X141057971Y-173976457D01*
X141057971Y-173833600D01*
X141129400Y-173690742D01*
X141200828Y-173619314D01*
X141343685Y-173547885D01*
X141629400Y-173476457D01*
X141772257Y-173405028D01*
X141843685Y-173333600D01*
X141915114Y-173190742D01*
X141915114Y-173047885D01*
X141843685Y-172905028D01*
X141772257Y-172833600D01*
X141629400Y-172762171D01*
X141272257Y-172762171D01*
X141057971Y-172833600D01*
X140129400Y-172762171D02*
X139843685Y-172762171D01*
X139700828Y-172833600D01*
X139557971Y-172976457D01*
X139486542Y-173262171D01*
X139486542Y-173762171D01*
X139557971Y-174047885D01*
X139700828Y-174190742D01*
X139843685Y-174262171D01*
X140129400Y-174262171D01*
X140272257Y-174190742D01*
X140415114Y-174047885D01*
X140486542Y-173762171D01*
X140486542Y-173262171D01*
X140415114Y-172976457D01*
X140272257Y-172833600D01*
X140129400Y-172762171D01*
X138843685Y-172762171D02*
X138843685Y-173976457D01*
X138772257Y-174119314D01*
X138700828Y-174190742D01*
X138557971Y-174262171D01*
X138272257Y-174262171D01*
X138129400Y-174190742D01*
X138057971Y-174119314D01*
X137986542Y-173976457D01*
X137986542Y-172762171D01*
X136415114Y-174262171D02*
X136915114Y-173547885D01*
X137272257Y-174262171D02*
X137272257Y-172762171D01*
X136700828Y-172762171D01*
X136557971Y-172833600D01*
X136486542Y-172905028D01*
X136415114Y-173047885D01*
X136415114Y-173262171D01*
X136486542Y-173405028D01*
X136557971Y-173476457D01*
X136700828Y-173547885D01*
X137272257Y-173547885D01*
X134915114Y-174119314D02*
X134986542Y-174190742D01*
X135200828Y-174262171D01*
X135343685Y-174262171D01*
X135557971Y-174190742D01*
X135700828Y-174047885D01*
X135772257Y-173905028D01*
X135843685Y-173619314D01*
X135843685Y-173405028D01*
X135772257Y-173119314D01*
X135700828Y-172976457D01*
X135557971Y-172833600D01*
X135343685Y-172762171D01*
X135200828Y-172762171D01*
X134986542Y-172833600D01*
X134915114Y-172905028D01*
X134272257Y-173476457D02*
X133772257Y-173476457D01*
X133557971Y-174262171D02*
X134272257Y-174262171D01*
X134272257Y-172762171D01*
X133557971Y-172762171D01*
X131272257Y-173476457D02*
X131057971Y-173547885D01*
X130986542Y-173619314D01*
X130915114Y-173762171D01*
X130915114Y-173976457D01*
X130986542Y-174119314D01*
X131057971Y-174190742D01*
X131200828Y-174262171D01*
X131772257Y-174262171D01*
X131772257Y-172762171D01*
X131272257Y-172762171D01*
X131129400Y-172833600D01*
X131057971Y-172905028D01*
X130986542Y-173047885D01*
X130986542Y-173190742D01*
X131057971Y-173333600D01*
X131129400Y-173405028D01*
X131272257Y-173476457D01*
X131772257Y-173476457D01*
X130272257Y-172762171D02*
X130272257Y-173976457D01*
X130200828Y-174119314D01*
X130129400Y-174190742D01*
X129986542Y-174262171D01*
X129700828Y-174262171D01*
X129557971Y-174190742D01*
X129486542Y-174119314D01*
X129415114Y-173976457D01*
X129415114Y-172762171D01*
X128772257Y-174190742D02*
X128557971Y-174262171D01*
X128200828Y-174262171D01*
X128057971Y-174190742D01*
X127986542Y-174119314D01*
X127915114Y-173976457D01*
X127915114Y-173833600D01*
X127986542Y-173690742D01*
X128057971Y-173619314D01*
X128200828Y-173547885D01*
X128486542Y-173476457D01*
X128629400Y-173405028D01*
X128700828Y-173333600D01*
X128772257Y-173190742D01*
X128772257Y-173047885D01*
X128700828Y-172905028D01*
X128629400Y-172833600D01*
X128486542Y-172762171D01*
X128129400Y-172762171D01*
X127915114Y-172833600D01*
X125343685Y-174262171D02*
X126200828Y-174262171D01*
X125772257Y-174262171D02*
X125772257Y-172762171D01*
X125915114Y-172976457D01*
X126057971Y-173119314D01*
X126200828Y-173190742D01*
X80320114Y-174292342D02*
X80105828Y-174363771D01*
X79748685Y-174363771D01*
X79605828Y-174292342D01*
X79534400Y-174220914D01*
X79462971Y-174078057D01*
X79462971Y-173935200D01*
X79534400Y-173792342D01*
X79605828Y-173720914D01*
X79748685Y-173649485D01*
X80034400Y-173578057D01*
X80177257Y-173506628D01*
X80248685Y-173435200D01*
X80320114Y-173292342D01*
X80320114Y-173149485D01*
X80248685Y-173006628D01*
X80177257Y-172935200D01*
X80034400Y-172863771D01*
X79677257Y-172863771D01*
X79462971Y-172935200D01*
X78534400Y-172863771D02*
X78248685Y-172863771D01*
X78105828Y-172935200D01*
X77962971Y-173078057D01*
X77891542Y-173363771D01*
X77891542Y-173863771D01*
X77962971Y-174149485D01*
X78105828Y-174292342D01*
X78248685Y-174363771D01*
X78534400Y-174363771D01*
X78677257Y-174292342D01*
X78820114Y-174149485D01*
X78891542Y-173863771D01*
X78891542Y-173363771D01*
X78820114Y-173078057D01*
X78677257Y-172935200D01*
X78534400Y-172863771D01*
X77248685Y-172863771D02*
X77248685Y-174078057D01*
X77177257Y-174220914D01*
X77105828Y-174292342D01*
X76962971Y-174363771D01*
X76677257Y-174363771D01*
X76534400Y-174292342D01*
X76462971Y-174220914D01*
X76391542Y-174078057D01*
X76391542Y-172863771D01*
X74820114Y-174363771D02*
X75320114Y-173649485D01*
X75677257Y-174363771D02*
X75677257Y-172863771D01*
X75105828Y-172863771D01*
X74962971Y-172935200D01*
X74891542Y-173006628D01*
X74820114Y-173149485D01*
X74820114Y-173363771D01*
X74891542Y-173506628D01*
X74962971Y-173578057D01*
X75105828Y-173649485D01*
X75677257Y-173649485D01*
X73320114Y-174220914D02*
X73391542Y-174292342D01*
X73605828Y-174363771D01*
X73748685Y-174363771D01*
X73962971Y-174292342D01*
X74105828Y-174149485D01*
X74177257Y-174006628D01*
X74248685Y-173720914D01*
X74248685Y-173506628D01*
X74177257Y-173220914D01*
X74105828Y-173078057D01*
X73962971Y-172935200D01*
X73748685Y-172863771D01*
X73605828Y-172863771D01*
X73391542Y-172935200D01*
X73320114Y-173006628D01*
X72677257Y-173578057D02*
X72177257Y-173578057D01*
X71962971Y-174363771D02*
X72677257Y-174363771D01*
X72677257Y-172863771D01*
X71962971Y-172863771D01*
X69677257Y-173578057D02*
X69462971Y-173649485D01*
X69391542Y-173720914D01*
X69320114Y-173863771D01*
X69320114Y-174078057D01*
X69391542Y-174220914D01*
X69462971Y-174292342D01*
X69605828Y-174363771D01*
X70177257Y-174363771D01*
X70177257Y-172863771D01*
X69677257Y-172863771D01*
X69534400Y-172935200D01*
X69462971Y-173006628D01*
X69391542Y-173149485D01*
X69391542Y-173292342D01*
X69462971Y-173435200D01*
X69534400Y-173506628D01*
X69677257Y-173578057D01*
X70177257Y-173578057D01*
X68677257Y-172863771D02*
X68677257Y-174078057D01*
X68605828Y-174220914D01*
X68534400Y-174292342D01*
X68391542Y-174363771D01*
X68105828Y-174363771D01*
X67962971Y-174292342D01*
X67891542Y-174220914D01*
X67820114Y-174078057D01*
X67820114Y-172863771D01*
X67177257Y-174292342D02*
X66962971Y-174363771D01*
X66605828Y-174363771D01*
X66462971Y-174292342D01*
X66391542Y-174220914D01*
X66320114Y-174078057D01*
X66320114Y-173935200D01*
X66391542Y-173792342D01*
X66462971Y-173720914D01*
X66605828Y-173649485D01*
X66891542Y-173578057D01*
X67034400Y-173506628D01*
X67105828Y-173435200D01*
X67177257Y-173292342D01*
X67177257Y-173149485D01*
X67105828Y-173006628D01*
X67034400Y-172935200D01*
X66891542Y-172863771D01*
X66534400Y-172863771D01*
X66320114Y-172935200D01*
X64605828Y-173006628D02*
X64534400Y-172935200D01*
X64391542Y-172863771D01*
X64034400Y-172863771D01*
X63891542Y-172935200D01*
X63820114Y-173006628D01*
X63748685Y-173149485D01*
X63748685Y-173292342D01*
X63820114Y-173506628D01*
X64677257Y-174363771D01*
X63748685Y-174363771D01*
D11*
X150821428Y-131468619D02*
X150845238Y-131492428D01*
X150916666Y-131516238D01*
X150964285Y-131516238D01*
X151035714Y-131492428D01*
X151083333Y-131444809D01*
X151107142Y-131397190D01*
X151130952Y-131301952D01*
X151130952Y-131230524D01*
X151107142Y-131135286D01*
X151083333Y-131087667D01*
X151035714Y-131040048D01*
X150964285Y-131016238D01*
X150916666Y-131016238D01*
X150845238Y-131040048D01*
X150821428Y-131063857D01*
X150630952Y-131373381D02*
X150392857Y-131373381D01*
X150678571Y-131516238D02*
X150511904Y-131016238D01*
X150345238Y-131516238D01*
X150250000Y-131016238D02*
X149964285Y-131016238D01*
X150107142Y-131516238D02*
X150107142Y-131016238D01*
X149797619Y-131516238D02*
X149797619Y-131016238D01*
X149797619Y-131254333D02*
X149511904Y-131254333D01*
X149511904Y-131516238D02*
X149511904Y-131016238D01*
X149178571Y-131016238D02*
X149083333Y-131016238D01*
X149035714Y-131040048D01*
X148988095Y-131087667D01*
X148964285Y-131182905D01*
X148964285Y-131349571D01*
X148988095Y-131444809D01*
X149035714Y-131492428D01*
X149083333Y-131516238D01*
X149178571Y-131516238D01*
X149226190Y-131492428D01*
X149273809Y-131444809D01*
X149297619Y-131349571D01*
X149297619Y-131182905D01*
X149273809Y-131087667D01*
X149226190Y-131040048D01*
X149178571Y-131016238D01*
X148750000Y-131516238D02*
X148750000Y-131016238D01*
X148630952Y-131016238D01*
X148559523Y-131040048D01*
X148511904Y-131087667D01*
X148488095Y-131135286D01*
X148464285Y-131230524D01*
X148464285Y-131301952D01*
X148488095Y-131397190D01*
X148511904Y-131444809D01*
X148559523Y-131492428D01*
X148630952Y-131516238D01*
X148750000Y-131516238D01*
X148250000Y-131254333D02*
X148083333Y-131254333D01*
X148011904Y-131516238D02*
X148250000Y-131516238D01*
X148250000Y-131016238D01*
X148011904Y-131016238D01*
X147821428Y-131492428D02*
X147750000Y-131516238D01*
X147630952Y-131516238D01*
X147583333Y-131492428D01*
X147559523Y-131468619D01*
X147535714Y-131421000D01*
X147535714Y-131373381D01*
X147559523Y-131325762D01*
X147583333Y-131301952D01*
X147630952Y-131278143D01*
X147726190Y-131254333D01*
X147773809Y-131230524D01*
X147797619Y-131206714D01*
X147821428Y-131159095D01*
X147821428Y-131111476D01*
X147797619Y-131063857D01*
X147773809Y-131040048D01*
X147726190Y-131016238D01*
X147607142Y-131016238D01*
X147535714Y-131040048D01*
X146797619Y-131706714D02*
X146821428Y-131682905D01*
X146869047Y-131611476D01*
X146892857Y-131563857D01*
X146916666Y-131492428D01*
X146940476Y-131373381D01*
X146940476Y-131278143D01*
X146916666Y-131159095D01*
X146892857Y-131087667D01*
X146869047Y-131040048D01*
X146821428Y-130968619D01*
X146797619Y-130944809D01*
X146607142Y-131325762D02*
X146226190Y-131325762D01*
X146035714Y-131706714D02*
X146011904Y-131682905D01*
X145964285Y-131611476D01*
X145940476Y-131563857D01*
X145916666Y-131492428D01*
X145892857Y-131373381D01*
X145892857Y-131278143D01*
X145916666Y-131159095D01*
X145940476Y-131087667D01*
X145964285Y-131040048D01*
X146011904Y-130968619D01*
X146035714Y-130944809D01*
X161373333Y-125641363D02*
X161373333Y-125879459D01*
X161516190Y-125593744D02*
X161016190Y-125760411D01*
X161516190Y-125927078D01*
X161516190Y-126093744D02*
X161016190Y-126093744D01*
X161516190Y-126379459D01*
X161016190Y-126379459D01*
X161016190Y-126712792D02*
X161016190Y-126808030D01*
X161040000Y-126855649D01*
X161087619Y-126903268D01*
X161182857Y-126927078D01*
X161349523Y-126927078D01*
X161444761Y-126903268D01*
X161492380Y-126855649D01*
X161516190Y-126808030D01*
X161516190Y-126712792D01*
X161492380Y-126665173D01*
X161444761Y-126617554D01*
X161349523Y-126593744D01*
X161182857Y-126593744D01*
X161087619Y-126617554D01*
X161040000Y-126665173D01*
X161016190Y-126712792D01*
X161516190Y-127141363D02*
X161016190Y-127141363D01*
X161016190Y-127260411D01*
X161040000Y-127331840D01*
X161087619Y-127379459D01*
X161135238Y-127403268D01*
X161230476Y-127427078D01*
X161301904Y-127427078D01*
X161397142Y-127403268D01*
X161444761Y-127379459D01*
X161492380Y-127331840D01*
X161516190Y-127260411D01*
X161516190Y-127141363D01*
X161254285Y-127641363D02*
X161254285Y-127808030D01*
X161516190Y-127879459D02*
X161516190Y-127641363D01*
X161016190Y-127641363D01*
X161016190Y-127879459D01*
X161492380Y-128069935D02*
X161516190Y-128141363D01*
X161516190Y-128260411D01*
X161492380Y-128308030D01*
X161468571Y-128331840D01*
X161420952Y-128355649D01*
X161373333Y-128355649D01*
X161325714Y-128331840D01*
X161301904Y-128308030D01*
X161278095Y-128260411D01*
X161254285Y-128165173D01*
X161230476Y-128117554D01*
X161206666Y-128093744D01*
X161159047Y-128069935D01*
X161111428Y-128069935D01*
X161063809Y-128093744D01*
X161040000Y-128117554D01*
X161016190Y-128165173D01*
X161016190Y-128284220D01*
X161040000Y-128355649D01*
X161706666Y-129093744D02*
X161682857Y-129069935D01*
X161611428Y-129022316D01*
X161563809Y-128998506D01*
X161492380Y-128974697D01*
X161373333Y-128950887D01*
X161278095Y-128950887D01*
X161159047Y-128974697D01*
X161087619Y-128998506D01*
X161040000Y-129022316D01*
X160968571Y-129069935D01*
X160944761Y-129093744D01*
X161325714Y-129284220D02*
X161325714Y-129665173D01*
X161516190Y-129474697D02*
X161135238Y-129474697D01*
X161706666Y-129855649D02*
X161682857Y-129879459D01*
X161611428Y-129927078D01*
X161563809Y-129950887D01*
X161492380Y-129974697D01*
X161373333Y-129998506D01*
X161278095Y-129998506D01*
X161159047Y-129974697D01*
X161087619Y-129950887D01*
X161040000Y-129927078D01*
X160968571Y-129879459D01*
X160944761Y-129855649D01*
X52846828Y-131362841D02*
X52870638Y-131386650D01*
X52942066Y-131410460D01*
X52989685Y-131410460D01*
X53061114Y-131386650D01*
X53108733Y-131339031D01*
X53132542Y-131291412D01*
X53156352Y-131196174D01*
X53156352Y-131124746D01*
X53132542Y-131029508D01*
X53108733Y-130981889D01*
X53061114Y-130934270D01*
X52989685Y-130910460D01*
X52942066Y-130910460D01*
X52870638Y-130934270D01*
X52846828Y-130958079D01*
X52656352Y-131267603D02*
X52418257Y-131267603D01*
X52703971Y-131410460D02*
X52537304Y-130910460D01*
X52370638Y-131410460D01*
X52275400Y-130910460D02*
X51989685Y-130910460D01*
X52132542Y-131410460D02*
X52132542Y-130910460D01*
X51823019Y-131410460D02*
X51823019Y-130910460D01*
X51823019Y-131148555D02*
X51537304Y-131148555D01*
X51537304Y-131410460D02*
X51537304Y-130910460D01*
X51203971Y-130910460D02*
X51108733Y-130910460D01*
X51061114Y-130934270D01*
X51013495Y-130981889D01*
X50989685Y-131077127D01*
X50989685Y-131243793D01*
X51013495Y-131339031D01*
X51061114Y-131386650D01*
X51108733Y-131410460D01*
X51203971Y-131410460D01*
X51251590Y-131386650D01*
X51299209Y-131339031D01*
X51323019Y-131243793D01*
X51323019Y-131077127D01*
X51299209Y-130981889D01*
X51251590Y-130934270D01*
X51203971Y-130910460D01*
X50775400Y-131410460D02*
X50775400Y-130910460D01*
X50656352Y-130910460D01*
X50584923Y-130934270D01*
X50537304Y-130981889D01*
X50513495Y-131029508D01*
X50489685Y-131124746D01*
X50489685Y-131196174D01*
X50513495Y-131291412D01*
X50537304Y-131339031D01*
X50584923Y-131386650D01*
X50656352Y-131410460D01*
X50775400Y-131410460D01*
X50275400Y-131148555D02*
X50108733Y-131148555D01*
X50037304Y-131410460D02*
X50275400Y-131410460D01*
X50275400Y-130910460D01*
X50037304Y-130910460D01*
X49846828Y-131386650D02*
X49775400Y-131410460D01*
X49656352Y-131410460D01*
X49608733Y-131386650D01*
X49584923Y-131362841D01*
X49561114Y-131315222D01*
X49561114Y-131267603D01*
X49584923Y-131219984D01*
X49608733Y-131196174D01*
X49656352Y-131172365D01*
X49751590Y-131148555D01*
X49799209Y-131124746D01*
X49823019Y-131100936D01*
X49846828Y-131053317D01*
X49846828Y-131005698D01*
X49823019Y-130958079D01*
X49799209Y-130934270D01*
X49751590Y-130910460D01*
X49632542Y-130910460D01*
X49561114Y-130934270D01*
X48823019Y-131600936D02*
X48846828Y-131577127D01*
X48894447Y-131505698D01*
X48918257Y-131458079D01*
X48942066Y-131386650D01*
X48965876Y-131267603D01*
X48965876Y-131172365D01*
X48942066Y-131053317D01*
X48918257Y-130981889D01*
X48894447Y-130934270D01*
X48846828Y-130862841D01*
X48823019Y-130839031D01*
X48632542Y-131219984D02*
X48251590Y-131219984D01*
X48061114Y-131600936D02*
X48037304Y-131577127D01*
X47989685Y-131505698D01*
X47965876Y-131458079D01*
X47942066Y-131386650D01*
X47918257Y-131267603D01*
X47918257Y-131172365D01*
X47942066Y-131053317D01*
X47965876Y-130981889D01*
X47989685Y-130934270D01*
X48037304Y-130862841D01*
X48061114Y-130839031D01*
D12*
X156728571Y-127117857D02*
X155228571Y-127117857D01*
X155228571Y-127475000D01*
X155300000Y-127689285D01*
X155442857Y-127832142D01*
X155585714Y-127903571D01*
X155871428Y-127975000D01*
X156085714Y-127975000D01*
X156371428Y-127903571D01*
X156514285Y-127832142D01*
X156657142Y-127689285D01*
X156728571Y-127475000D01*
X156728571Y-127117857D01*
X155228571Y-128903571D02*
X155228571Y-129046428D01*
X155300000Y-129189285D01*
X155371428Y-129260714D01*
X155514285Y-129332142D01*
X155800000Y-129403571D01*
X156157142Y-129403571D01*
X156442857Y-129332142D01*
X156585714Y-129260714D01*
X156657142Y-129189285D01*
X156728571Y-129046428D01*
X156728571Y-128903571D01*
X156657142Y-128760714D01*
X156585714Y-128689285D01*
X156442857Y-128617857D01*
X156157142Y-128546428D01*
X155800000Y-128546428D01*
X155514285Y-128617857D01*
X155371428Y-128689285D01*
X155300000Y-128760714D01*
X155228571Y-128903571D01*
D13*
X163422284Y-130143401D02*
X163041332Y-129876735D01*
X163422284Y-129686259D02*
X162622284Y-129686259D01*
X162622284Y-129991020D01*
X162660380Y-130067211D01*
X162698475Y-130105306D01*
X162774665Y-130143401D01*
X162888951Y-130143401D01*
X162965141Y-130105306D01*
X163003237Y-130067211D01*
X163041332Y-129991020D01*
X163041332Y-129686259D01*
X163384189Y-130448163D02*
X163422284Y-130562449D01*
X163422284Y-130752925D01*
X163384189Y-130829116D01*
X163346094Y-130867211D01*
X163269903Y-130905306D01*
X163193713Y-130905306D01*
X163117522Y-130867211D01*
X163079427Y-130829116D01*
X163041332Y-130752925D01*
X163003237Y-130600544D01*
X162965141Y-130524354D01*
X162927046Y-130486259D01*
X162850856Y-130448163D01*
X162774665Y-130448163D01*
X162698475Y-130486259D01*
X162660380Y-130524354D01*
X162622284Y-130600544D01*
X162622284Y-130791020D01*
X162660380Y-130905306D01*
X163422284Y-131667211D02*
X163422284Y-131210068D01*
X163422284Y-131438640D02*
X162622284Y-131438640D01*
X162736570Y-131362449D01*
X162812760Y-131286259D01*
X162850856Y-131210068D01*
X162622284Y-132162449D02*
X162622284Y-132314830D01*
X162660380Y-132391020D01*
X162736570Y-132467211D01*
X162888951Y-132505306D01*
X163155618Y-132505306D01*
X163307999Y-132467211D01*
X163384189Y-132391020D01*
X163422284Y-132314830D01*
X163422284Y-132162449D01*
X163384189Y-132086259D01*
X163307999Y-132010068D01*
X163155618Y-131971973D01*
X162888951Y-131971973D01*
X162736570Y-132010068D01*
X162660380Y-132086259D01*
X162622284Y-132162449D01*
X163003237Y-132848163D02*
X163003237Y-133114830D01*
X163422284Y-133229116D02*
X163422284Y-132848163D01*
X162622284Y-132848163D01*
X162622284Y-133229116D01*
X159901844Y-130209441D02*
X159520892Y-129942775D01*
X159901844Y-129752299D02*
X159101844Y-129752299D01*
X159101844Y-130057060D01*
X159139940Y-130133251D01*
X159178035Y-130171346D01*
X159254225Y-130209441D01*
X159368511Y-130209441D01*
X159444701Y-130171346D01*
X159482797Y-130133251D01*
X159520892Y-130057060D01*
X159520892Y-129752299D01*
X159863749Y-130514203D02*
X159901844Y-130628489D01*
X159901844Y-130818965D01*
X159863749Y-130895156D01*
X159825654Y-130933251D01*
X159749463Y-130971346D01*
X159673273Y-130971346D01*
X159597082Y-130933251D01*
X159558987Y-130895156D01*
X159520892Y-130818965D01*
X159482797Y-130666584D01*
X159444701Y-130590394D01*
X159406606Y-130552299D01*
X159330416Y-130514203D01*
X159254225Y-130514203D01*
X159178035Y-130552299D01*
X159139940Y-130590394D01*
X159101844Y-130666584D01*
X159101844Y-130857060D01*
X159139940Y-130971346D01*
X159178035Y-131276108D02*
X159139940Y-131314203D01*
X159101844Y-131390394D01*
X159101844Y-131580870D01*
X159139940Y-131657060D01*
X159178035Y-131695156D01*
X159254225Y-131733251D01*
X159330416Y-131733251D01*
X159444701Y-131695156D01*
X159901844Y-131238013D01*
X159901844Y-131733251D01*
X159101844Y-132228489D02*
X159101844Y-132380870D01*
X159139940Y-132457060D01*
X159216130Y-132533251D01*
X159368511Y-132571346D01*
X159635178Y-132571346D01*
X159787559Y-132533251D01*
X159863749Y-132457060D01*
X159901844Y-132380870D01*
X159901844Y-132228489D01*
X159863749Y-132152299D01*
X159787559Y-132076108D01*
X159635178Y-132038013D01*
X159368511Y-132038013D01*
X159216130Y-132076108D01*
X159139940Y-132152299D01*
X159101844Y-132228489D01*
X159482797Y-132914203D02*
X159482797Y-133180870D01*
X159901844Y-133295156D02*
X159901844Y-132914203D01*
X159101844Y-132914203D01*
X159101844Y-133295156D01*
D12*
X43078571Y-127078571D02*
X41578571Y-127078571D01*
X41578571Y-127435714D01*
X41650000Y-127650000D01*
X41792857Y-127792857D01*
X41935714Y-127864285D01*
X42221428Y-127935714D01*
X42435714Y-127935714D01*
X42721428Y-127864285D01*
X42864285Y-127792857D01*
X43007142Y-127650000D01*
X43078571Y-127435714D01*
X43078571Y-127078571D01*
X41578571Y-128435714D02*
X41578571Y-129364285D01*
X42150000Y-128864285D01*
X42150000Y-129078571D01*
X42221428Y-129221428D01*
X42292857Y-129292857D01*
X42435714Y-129364285D01*
X42792857Y-129364285D01*
X42935714Y-129292857D01*
X43007142Y-129221428D01*
X43078571Y-129078571D01*
X43078571Y-128650000D01*
X43007142Y-128507142D01*
X42935714Y-128435714D01*
X43078571Y-130792857D02*
X43078571Y-129935714D01*
X43078571Y-130364285D02*
X41578571Y-130364285D01*
X41792857Y-130221428D01*
X41935714Y-130078571D01*
X42007142Y-129935714D01*
D14*
G36*
X158161784Y-154961641D02*
X158174882Y-154988153D01*
X158197706Y-155020847D01*
X158222596Y-155044675D01*
X158253849Y-155060994D01*
X158295766Y-155071160D01*
X158352644Y-155076528D01*
X158428784Y-155078456D01*
X158461517Y-155078569D01*
X158533256Y-155078239D01*
X158584527Y-155076873D01*
X158620004Y-155073900D01*
X158644363Y-155068751D01*
X158662280Y-155060857D01*
X158674502Y-155052643D01*
X158726505Y-155000213D01*
X158757784Y-154938470D01*
X158767192Y-154871864D01*
X158753580Y-154804842D01*
X158743954Y-154783608D01*
X158717459Y-154732776D01*
X159132652Y-154732776D01*
X159113468Y-154769875D01*
X159098625Y-154818757D01*
X159094822Y-154878839D01*
X159101843Y-154938836D01*
X159117613Y-154984144D01*
X159147647Y-155021725D01*
X159190624Y-155053836D01*
X159195036Y-155056250D01*
X159215821Y-155066433D01*
X159236770Y-155073870D01*
X159262148Y-155078989D01*
X159296218Y-155082219D01*
X159343241Y-155083987D01*
X159407482Y-155084723D01*
X159479776Y-155084856D01*
X159710422Y-155084856D01*
X159710422Y-154946539D01*
X159285133Y-154946539D01*
X159252579Y-154907851D01*
X159226540Y-154867662D01*
X159221805Y-154829603D01*
X159233989Y-154791334D01*
X159245920Y-154770938D01*
X159262913Y-154755758D01*
X159288595Y-154744962D01*
X159326591Y-154737717D01*
X159380526Y-154733192D01*
X159454025Y-154730556D01*
X159502947Y-154729628D01*
X159704135Y-154726489D01*
X159707936Y-154660474D01*
X159711736Y-154594460D01*
X158463250Y-154594460D01*
X158463250Y-154732776D01*
X158532854Y-154736303D01*
X158581169Y-154748185D01*
X158611231Y-154770380D01*
X158626071Y-154804841D01*
X158629036Y-154839658D01*
X158625628Y-154879071D01*
X158612217Y-154905229D01*
X158594496Y-154921586D01*
X158575435Y-154934463D01*
X158554201Y-154942128D01*
X158524449Y-154945539D01*
X158479836Y-154945651D01*
X158442480Y-154944503D01*
X158386204Y-154941868D01*
X158349258Y-154937944D01*
X158325823Y-154931337D01*
X158310080Y-154920651D01*
X158300980Y-154910567D01*
X158281137Y-154868430D01*
X158277932Y-154818560D01*
X158284768Y-154789924D01*
X158309064Y-154761572D01*
X158356328Y-154742791D01*
X158426224Y-154733688D01*
X158463250Y-154732776D01*
X158463250Y-154594460D01*
X158151214Y-154594460D01*
X158151214Y-154663618D01*
X158152856Y-154705140D01*
X158158687Y-154726562D01*
X158170061Y-154732774D01*
X158170398Y-154732776D01*
X158181538Y-154735658D01*
X158180273Y-154748370D01*
X158168033Y-154773643D01*
X158149307Y-154832531D01*
X158147339Y-154898785D01*
X158161784Y-154961641D01*
X158161784Y-154961641D01*
G37*
X158161784Y-154961641D02*
X158174882Y-154988153D01*
X158197706Y-155020847D01*
X158222596Y-155044675D01*
X158253849Y-155060994D01*
X158295766Y-155071160D01*
X158352644Y-155076528D01*
X158428784Y-155078456D01*
X158461517Y-155078569D01*
X158533256Y-155078239D01*
X158584527Y-155076873D01*
X158620004Y-155073900D01*
X158644363Y-155068751D01*
X158662280Y-155060857D01*
X158674502Y-155052643D01*
X158726505Y-155000213D01*
X158757784Y-154938470D01*
X158767192Y-154871864D01*
X158753580Y-154804842D01*
X158743954Y-154783608D01*
X158717459Y-154732776D01*
X159132652Y-154732776D01*
X159113468Y-154769875D01*
X159098625Y-154818757D01*
X159094822Y-154878839D01*
X159101843Y-154938836D01*
X159117613Y-154984144D01*
X159147647Y-155021725D01*
X159190624Y-155053836D01*
X159195036Y-155056250D01*
X159215821Y-155066433D01*
X159236770Y-155073870D01*
X159262148Y-155078989D01*
X159296218Y-155082219D01*
X159343241Y-155083987D01*
X159407482Y-155084723D01*
X159479776Y-155084856D01*
X159710422Y-155084856D01*
X159710422Y-154946539D01*
X159285133Y-154946539D01*
X159252579Y-154907851D01*
X159226540Y-154867662D01*
X159221805Y-154829603D01*
X159233989Y-154791334D01*
X159245920Y-154770938D01*
X159262913Y-154755758D01*
X159288595Y-154744962D01*
X159326591Y-154737717D01*
X159380526Y-154733192D01*
X159454025Y-154730556D01*
X159502947Y-154729628D01*
X159704135Y-154726489D01*
X159707936Y-154660474D01*
X159711736Y-154594460D01*
X158463250Y-154594460D01*
X158463250Y-154732776D01*
X158532854Y-154736303D01*
X158581169Y-154748185D01*
X158611231Y-154770380D01*
X158626071Y-154804841D01*
X158629036Y-154839658D01*
X158625628Y-154879071D01*
X158612217Y-154905229D01*
X158594496Y-154921586D01*
X158575435Y-154934463D01*
X158554201Y-154942128D01*
X158524449Y-154945539D01*
X158479836Y-154945651D01*
X158442480Y-154944503D01*
X158386204Y-154941868D01*
X158349258Y-154937944D01*
X158325823Y-154931337D01*
X158310080Y-154920651D01*
X158300980Y-154910567D01*
X158281137Y-154868430D01*
X158277932Y-154818560D01*
X158284768Y-154789924D01*
X158309064Y-154761572D01*
X158356328Y-154742791D01*
X158426224Y-154733688D01*
X158463250Y-154732776D01*
X158463250Y-154594460D01*
X158151214Y-154594460D01*
X158151214Y-154663618D01*
X158152856Y-154705140D01*
X158158687Y-154726562D01*
X158170061Y-154732774D01*
X158170398Y-154732776D01*
X158181538Y-154735658D01*
X158180273Y-154748370D01*
X158168033Y-154773643D01*
X158149307Y-154832531D01*
X158147339Y-154898785D01*
X158161784Y-154961641D01*
G36*
X159099155Y-155486190D02*
X159114939Y-155545345D01*
X159143548Y-155590377D01*
X159181019Y-155622154D01*
X159197011Y-155632034D01*
X159213763Y-155639327D01*
X159235192Y-155644426D01*
X159265216Y-155647721D01*
X159307754Y-155649603D01*
X159366722Y-155650463D01*
X159446040Y-155650693D01*
X159467084Y-155650697D01*
X159710422Y-155650697D01*
X159710422Y-155590341D01*
X159707726Y-155551843D01*
X159700895Y-155523377D01*
X159696683Y-155516245D01*
X159689413Y-155496748D01*
X159696683Y-155476834D01*
X159705760Y-155444047D01*
X159709413Y-155396422D01*
X159707828Y-155343636D01*
X159701189Y-155295364D01*
X159692672Y-155267182D01*
X159657663Y-155212647D01*
X159609079Y-155178565D01*
X159544482Y-155163243D01*
X159542823Y-155163101D01*
X159514166Y-155164445D01*
X159514166Y-155286044D01*
X159546761Y-155296674D01*
X159565105Y-155313990D01*
X159578979Y-155348748D01*
X159584517Y-155394627D01*
X159581791Y-155441412D01*
X159570874Y-155478886D01*
X159563869Y-155489385D01*
X159531504Y-155507732D01*
X159494711Y-155512380D01*
X159446363Y-155512380D01*
X159446363Y-155442818D01*
X159451450Y-155376733D01*
X159465863Y-155326636D01*
X159488329Y-155295471D01*
X159514166Y-155286044D01*
X159514166Y-155164445D01*
X159472247Y-155166413D01*
X159416445Y-155189690D01*
X159374247Y-155233452D01*
X159370408Y-155239501D01*
X159357909Y-155265493D01*
X159350340Y-155297665D01*
X159346661Y-155342640D01*
X159345816Y-155396069D01*
X159345769Y-155512380D01*
X159297011Y-155512380D01*
X159259181Y-155507447D01*
X159233836Y-155494857D01*
X159232487Y-155493383D01*
X159221400Y-155465366D01*
X159217103Y-155423074D01*
X159219215Y-155376336D01*
X159227356Y-155334982D01*
X159239565Y-155310443D01*
X159249346Y-155297147D01*
X159251213Y-155283106D01*
X159243200Y-155263729D01*
X159223339Y-155234424D01*
X159189663Y-155190597D01*
X159186509Y-155186575D01*
X159174836Y-155188636D01*
X159155422Y-155205832D01*
X159133848Y-155231967D01*
X159115696Y-155260848D01*
X159111409Y-155269922D01*
X159102856Y-155303020D01*
X159096755Y-155351520D01*
X159094308Y-155405705D01*
X159094303Y-155408239D01*
X159099155Y-155486190D01*
X159099155Y-155486190D01*
G37*
X159099155Y-155486190D02*
X159114939Y-155545345D01*
X159143548Y-155590377D01*
X159181019Y-155622154D01*
X159197011Y-155632034D01*
X159213763Y-155639327D01*
X159235192Y-155644426D01*
X159265216Y-155647721D01*
X159307754Y-155649603D01*
X159366722Y-155650463D01*
X159446040Y-155650693D01*
X159467084Y-155650697D01*
X159710422Y-155650697D01*
X159710422Y-155590341D01*
X159707726Y-155551843D01*
X159700895Y-155523377D01*
X159696683Y-155516245D01*
X159689413Y-155496748D01*
X159696683Y-155476834D01*
X159705760Y-155444047D01*
X159709413Y-155396422D01*
X159707828Y-155343636D01*
X159701189Y-155295364D01*
X159692672Y-155267182D01*
X159657663Y-155212647D01*
X159609079Y-155178565D01*
X159544482Y-155163243D01*
X159542823Y-155163101D01*
X159514166Y-155164445D01*
X159514166Y-155286044D01*
X159546761Y-155296674D01*
X159565105Y-155313990D01*
X159578979Y-155348748D01*
X159584517Y-155394627D01*
X159581791Y-155441412D01*
X159570874Y-155478886D01*
X159563869Y-155489385D01*
X159531504Y-155507732D01*
X159494711Y-155512380D01*
X159446363Y-155512380D01*
X159446363Y-155442818D01*
X159451450Y-155376733D01*
X159465863Y-155326636D01*
X159488329Y-155295471D01*
X159514166Y-155286044D01*
X159514166Y-155164445D01*
X159472247Y-155166413D01*
X159416445Y-155189690D01*
X159374247Y-155233452D01*
X159370408Y-155239501D01*
X159357909Y-155265493D01*
X159350340Y-155297665D01*
X159346661Y-155342640D01*
X159345816Y-155396069D01*
X159345769Y-155512380D01*
X159297011Y-155512380D01*
X159259181Y-155507447D01*
X159233836Y-155494857D01*
X159232487Y-155493383D01*
X159221400Y-155465366D01*
X159217103Y-155423074D01*
X159219215Y-155376336D01*
X159227356Y-155334982D01*
X159239565Y-155310443D01*
X159249346Y-155297147D01*
X159251213Y-155283106D01*
X159243200Y-155263729D01*
X159223339Y-155234424D01*
X159189663Y-155190597D01*
X159186509Y-155186575D01*
X159174836Y-155188636D01*
X159155422Y-155205832D01*
X159133848Y-155231967D01*
X159115696Y-155260848D01*
X159111409Y-155269922D01*
X159102856Y-155303020D01*
X159096755Y-155351520D01*
X159094308Y-155405705D01*
X159094303Y-155408239D01*
X159099155Y-155486190D01*
G36*
X159095620Y-155877044D02*
X159101260Y-155895861D01*
X159113653Y-155901927D01*
X159119247Y-155902182D01*
X159134830Y-155903271D01*
X159137276Y-155910768D01*
X159126593Y-155931019D01*
X159119294Y-155943049D01*
X159103663Y-155981000D01*
X159095934Y-156026328D01*
X159095340Y-156073856D01*
X159101113Y-156118405D01*
X159112484Y-156154798D01*
X159128688Y-156177857D01*
X159148955Y-156182404D01*
X159154443Y-156180109D01*
X159177226Y-156163380D01*
X159205247Y-156137437D01*
X159209777Y-156132745D01*
X159230605Y-156108017D01*
X159237335Y-156086682D01*
X159232638Y-156056845D01*
X159229517Y-156044892D01*
X159222021Y-156007695D01*
X159225392Y-155981541D01*
X159237281Y-155959454D01*
X159253235Y-155939222D01*
X159273300Y-155924321D01*
X159301302Y-155913966D01*
X159341067Y-155907371D01*
X159396423Y-155903751D01*
X159471194Y-155902322D01*
X159516340Y-155902182D01*
X159710422Y-155902182D01*
X159710422Y-155776440D01*
X159094283Y-155776440D01*
X159094283Y-155839311D01*
X159095620Y-155877044D01*
X159095620Y-155877044D01*
G37*
X159095620Y-155877044D02*
X159101260Y-155895861D01*
X159113653Y-155901927D01*
X159119247Y-155902182D01*
X159134830Y-155903271D01*
X159137276Y-155910768D01*
X159126593Y-155931019D01*
X159119294Y-155943049D01*
X159103663Y-155981000D01*
X159095934Y-156026328D01*
X159095340Y-156073856D01*
X159101113Y-156118405D01*
X159112484Y-156154798D01*
X159128688Y-156177857D01*
X159148955Y-156182404D01*
X159154443Y-156180109D01*
X159177226Y-156163380D01*
X159205247Y-156137437D01*
X159209777Y-156132745D01*
X159230605Y-156108017D01*
X159237335Y-156086682D01*
X159232638Y-156056845D01*
X159229517Y-156044892D01*
X159222021Y-156007695D01*
X159225392Y-155981541D01*
X159237281Y-155959454D01*
X159253235Y-155939222D01*
X159273300Y-155924321D01*
X159301302Y-155913966D01*
X159341067Y-155907371D01*
X159396423Y-155903751D01*
X159471194Y-155902322D01*
X159516340Y-155902182D01*
X159710422Y-155902182D01*
X159710422Y-155776440D01*
X159094283Y-155776440D01*
X159094283Y-155839311D01*
X159095620Y-155877044D01*
G36*
X159710422Y-156669212D02*
X159710422Y-156600054D01*
X159709245Y-156559912D01*
X159704372Y-156539006D01*
X159693786Y-156531478D01*
X159686629Y-156530895D01*
X159672276Y-156529626D01*
X159669523Y-156521621D01*
X159678371Y-156500585D01*
X159686629Y-156484227D01*
X159706197Y-156421423D01*
X159707329Y-156353152D01*
X159692735Y-156297648D01*
X159657477Y-156245962D01*
X159605435Y-156206562D01*
X159544050Y-156184987D01*
X159540618Y-156184438D01*
X159503171Y-156181233D01*
X159449413Y-156179639D01*
X159408755Y-156179767D01*
X159408755Y-156317121D01*
X159462794Y-156320303D01*
X159507335Y-156327541D01*
X159532488Y-156337340D01*
X159566860Y-156374411D01*
X159579182Y-156418426D01*
X159569218Y-156463816D01*
X159539495Y-156502603D01*
X159519505Y-156517292D01*
X159495650Y-156525881D01*
X159460830Y-156529904D01*
X159408530Y-156530895D01*
X159356739Y-156529122D01*
X159311234Y-156524437D01*
X159280781Y-156517797D01*
X159278052Y-156516690D01*
X159245600Y-156489909D01*
X159227783Y-156450821D01*
X159224906Y-156407085D01*
X159237274Y-156366362D01*
X159265193Y-156336313D01*
X159270748Y-156333196D01*
X159304622Y-156323439D01*
X159353328Y-156318123D01*
X159408755Y-156317121D01*
X159408755Y-156179767D01*
X159388140Y-156179832D01*
X159355163Y-156180736D01*
X159273581Y-156186886D01*
X159212330Y-156199667D01*
X159167049Y-156220929D01*
X159133379Y-156252522D01*
X159113614Y-156283193D01*
X159099720Y-156326046D01*
X159094954Y-156379344D01*
X159098836Y-156433920D01*
X159110882Y-156480608D01*
X159125293Y-156505276D01*
X159148478Y-156530895D01*
X158855373Y-156530895D01*
X158855373Y-156669212D01*
X159710422Y-156669212D01*
X159710422Y-156669212D01*
G37*
X159710422Y-156669212D02*
X159710422Y-156600054D01*
X159709245Y-156559912D01*
X159704372Y-156539006D01*
X159693786Y-156531478D01*
X159686629Y-156530895D01*
X159672276Y-156529626D01*
X159669523Y-156521621D01*
X159678371Y-156500585D01*
X159686629Y-156484227D01*
X159706197Y-156421423D01*
X159707329Y-156353152D01*
X159692735Y-156297648D01*
X159657477Y-156245962D01*
X159605435Y-156206562D01*
X159544050Y-156184987D01*
X159540618Y-156184438D01*
X159503171Y-156181233D01*
X159449413Y-156179639D01*
X159408755Y-156179767D01*
X159408755Y-156317121D01*
X159462794Y-156320303D01*
X159507335Y-156327541D01*
X159532488Y-156337340D01*
X159566860Y-156374411D01*
X159579182Y-156418426D01*
X159569218Y-156463816D01*
X159539495Y-156502603D01*
X159519505Y-156517292D01*
X159495650Y-156525881D01*
X159460830Y-156529904D01*
X159408530Y-156530895D01*
X159356739Y-156529122D01*
X159311234Y-156524437D01*
X159280781Y-156517797D01*
X159278052Y-156516690D01*
X159245600Y-156489909D01*
X159227783Y-156450821D01*
X159224906Y-156407085D01*
X159237274Y-156366362D01*
X159265193Y-156336313D01*
X159270748Y-156333196D01*
X159304622Y-156323439D01*
X159353328Y-156318123D01*
X159408755Y-156317121D01*
X159408755Y-156179767D01*
X159388140Y-156179832D01*
X159355163Y-156180736D01*
X159273581Y-156186886D01*
X159212330Y-156199667D01*
X159167049Y-156220929D01*
X159133379Y-156252522D01*
X159113614Y-156283193D01*
X159099720Y-156326046D01*
X159094954Y-156379344D01*
X159098836Y-156433920D01*
X159110882Y-156480608D01*
X159125293Y-156505276D01*
X159148478Y-156530895D01*
X158855373Y-156530895D01*
X158855373Y-156669212D01*
X159710422Y-156669212D01*
G36*
X159096837Y-157151924D02*
X159100571Y-157201655D01*
X159490373Y-157331691D01*
X159421214Y-157352078D01*
X159378474Y-157364346D01*
X159320715Y-157380485D01*
X159257225Y-157397912D01*
X159223170Y-157407126D01*
X159094283Y-157441788D01*
X159094283Y-157584791D01*
X159229457Y-157542046D01*
X159295942Y-157520996D01*
X159376139Y-157495567D01*
X159459793Y-157469010D01*
X159534382Y-157445302D01*
X159704135Y-157391302D01*
X159707928Y-157332998D01*
X159711722Y-157274695D01*
X159607334Y-157243079D01*
X159542489Y-157223582D01*
X159471000Y-157202304D01*
X159407863Y-157183708D01*
X159405350Y-157182974D01*
X159362569Y-157169084D01*
X159333379Y-157156829D01*
X159322341Y-157148246D01*
X159323618Y-157146482D01*
X159340730Y-157140291D01*
X159377387Y-157128528D01*
X159428978Y-157112625D01*
X159490894Y-157094014D01*
X159524952Y-157083943D01*
X159710422Y-157029407D01*
X159710422Y-156913664D01*
X159418071Y-156821137D01*
X159336062Y-156795144D01*
X159261587Y-156771466D01*
X159198144Y-156751220D01*
X159149232Y-156735526D01*
X159118349Y-156725502D01*
X159109326Y-156722455D01*
X159100087Y-156724867D01*
X159096041Y-156743808D01*
X159096446Y-156783223D01*
X159096752Y-156789393D01*
X159100571Y-156862486D01*
X159276610Y-156910357D01*
X159340811Y-156927953D01*
X159397249Y-156943677D01*
X159441022Y-156956146D01*
X159467230Y-156963974D01*
X159471503Y-156965420D01*
X159466590Y-156971414D01*
X159441132Y-156983501D01*
X159398597Y-157000293D01*
X159342450Y-157020403D01*
X159291730Y-157037403D01*
X159093104Y-157102194D01*
X159096837Y-157151924D01*
X159096837Y-157151924D01*
G37*
X159096837Y-157151924D02*
X159100571Y-157201655D01*
X159490373Y-157331691D01*
X159421214Y-157352078D01*
X159378474Y-157364346D01*
X159320715Y-157380485D01*
X159257225Y-157397912D01*
X159223170Y-157407126D01*
X159094283Y-157441788D01*
X159094283Y-157584791D01*
X159229457Y-157542046D01*
X159295942Y-157520996D01*
X159376139Y-157495567D01*
X159459793Y-157469010D01*
X159534382Y-157445302D01*
X159704135Y-157391302D01*
X159707928Y-157332998D01*
X159711722Y-157274695D01*
X159607334Y-157243079D01*
X159542489Y-157223582D01*
X159471000Y-157202304D01*
X159407863Y-157183708D01*
X159405350Y-157182974D01*
X159362569Y-157169084D01*
X159333379Y-157156829D01*
X159322341Y-157148246D01*
X159323618Y-157146482D01*
X159340730Y-157140291D01*
X159377387Y-157128528D01*
X159428978Y-157112625D01*
X159490894Y-157094014D01*
X159524952Y-157083943D01*
X159710422Y-157029407D01*
X159710422Y-156913664D01*
X159418071Y-156821137D01*
X159336062Y-156795144D01*
X159261587Y-156771466D01*
X159198144Y-156751220D01*
X159149232Y-156735526D01*
X159118349Y-156725502D01*
X159109326Y-156722455D01*
X159100087Y-156724867D01*
X159096041Y-156743808D01*
X159096446Y-156783223D01*
X159096752Y-156789393D01*
X159100571Y-156862486D01*
X159276610Y-156910357D01*
X159340811Y-156927953D01*
X159397249Y-156943677D01*
X159441022Y-156956146D01*
X159467230Y-156963974D01*
X159471503Y-156965420D01*
X159466590Y-156971414D01*
X159441132Y-156983501D01*
X159398597Y-157000293D01*
X159342450Y-157020403D01*
X159291730Y-157037403D01*
X159093104Y-157102194D01*
X159096837Y-157151924D01*
G36*
X159098017Y-157908811D02*
X159110890Y-157961811D01*
X159117710Y-157977131D01*
X159135574Y-158006828D01*
X159155693Y-158029620D01*
X159181562Y-158046483D01*
X159216673Y-158058398D01*
X159264520Y-158066342D01*
X159328596Y-158071294D01*
X159412394Y-158074231D01*
X159468368Y-158075347D01*
X159710422Y-158079452D01*
X159710422Y-158009332D01*
X159708638Y-157966793D01*
X159702542Y-157944876D01*
X159692306Y-157939212D01*
X159681237Y-157936221D01*
X159683354Y-157922851D01*
X159692229Y-157904633D01*
X159705833Y-157859024D01*
X159709499Y-157800407D01*
X159703503Y-157738754D01*
X159688121Y-157684038D01*
X159685986Y-157679130D01*
X159650855Y-157629123D01*
X159602019Y-157596156D01*
X159544933Y-157580987D01*
X159524424Y-157582146D01*
X159524424Y-157705908D01*
X159552025Y-157716813D01*
X159571804Y-157749145D01*
X159582419Y-157801310D01*
X159583828Y-157829187D01*
X159580220Y-157875647D01*
X159566197Y-157906529D01*
X159559531Y-157914064D01*
X159523266Y-157934476D01*
X159490373Y-157939212D01*
X159446363Y-157939212D01*
X159446363Y-157877913D01*
X159449995Y-157806656D01*
X159461418Y-157756676D01*
X159481424Y-157725096D01*
X159490343Y-157718026D01*
X159524424Y-157705908D01*
X159524424Y-157582146D01*
X159485056Y-157584371D01*
X159427844Y-157607063D01*
X159389180Y-157638024D01*
X159372464Y-157656776D01*
X159361478Y-157675133D01*
X159354780Y-157699019D01*
X159350926Y-157734357D01*
X159348473Y-157787069D01*
X159347768Y-157807977D01*
X159343479Y-157939212D01*
X159303758Y-157939020D01*
X159262005Y-157933937D01*
X159236758Y-157915562D01*
X159220630Y-157878439D01*
X159220342Y-157877443D01*
X159214000Y-157824810D01*
X159222284Y-157773306D01*
X159242427Y-157735030D01*
X159252373Y-157719672D01*
X159250997Y-157703130D01*
X159236587Y-157677675D01*
X159226417Y-157662728D01*
X159204688Y-157633491D01*
X159188400Y-157615380D01*
X159183737Y-157612474D01*
X159159605Y-157624440D01*
X159130785Y-157659796D01*
X159121061Y-157675153D01*
X159104314Y-157719301D01*
X159094827Y-157778798D01*
X159092695Y-157844887D01*
X159098017Y-157908811D01*
X159098017Y-157908811D01*
G37*
X159098017Y-157908811D02*
X159110890Y-157961811D01*
X159117710Y-157977131D01*
X159135574Y-158006828D01*
X159155693Y-158029620D01*
X159181562Y-158046483D01*
X159216673Y-158058398D01*
X159264520Y-158066342D01*
X159328596Y-158071294D01*
X159412394Y-158074231D01*
X159468368Y-158075347D01*
X159710422Y-158079452D01*
X159710422Y-158009332D01*
X159708638Y-157966793D01*
X159702542Y-157944876D01*
X159692306Y-157939212D01*
X159681237Y-157936221D01*
X159683354Y-157922851D01*
X159692229Y-157904633D01*
X159705833Y-157859024D01*
X159709499Y-157800407D01*
X159703503Y-157738754D01*
X159688121Y-157684038D01*
X159685986Y-157679130D01*
X159650855Y-157629123D01*
X159602019Y-157596156D01*
X159544933Y-157580987D01*
X159524424Y-157582146D01*
X159524424Y-157705908D01*
X159552025Y-157716813D01*
X159571804Y-157749145D01*
X159582419Y-157801310D01*
X159583828Y-157829187D01*
X159580220Y-157875647D01*
X159566197Y-157906529D01*
X159559531Y-157914064D01*
X159523266Y-157934476D01*
X159490373Y-157939212D01*
X159446363Y-157939212D01*
X159446363Y-157877913D01*
X159449995Y-157806656D01*
X159461418Y-157756676D01*
X159481424Y-157725096D01*
X159490343Y-157718026D01*
X159524424Y-157705908D01*
X159524424Y-157582146D01*
X159485056Y-157584371D01*
X159427844Y-157607063D01*
X159389180Y-157638024D01*
X159372464Y-157656776D01*
X159361478Y-157675133D01*
X159354780Y-157699019D01*
X159350926Y-157734357D01*
X159348473Y-157787069D01*
X159347768Y-157807977D01*
X159343479Y-157939212D01*
X159303758Y-157939020D01*
X159262005Y-157933937D01*
X159236758Y-157915562D01*
X159220630Y-157878439D01*
X159220342Y-157877443D01*
X159214000Y-157824810D01*
X159222284Y-157773306D01*
X159242427Y-157735030D01*
X159252373Y-157719672D01*
X159250997Y-157703130D01*
X159236587Y-157677675D01*
X159226417Y-157662728D01*
X159204688Y-157633491D01*
X159188400Y-157615380D01*
X159183737Y-157612474D01*
X159159605Y-157624440D01*
X159130785Y-157659796D01*
X159121061Y-157675153D01*
X159104314Y-157719301D01*
X159094827Y-157778798D01*
X159092695Y-157844887D01*
X159098017Y-157908811D01*
G36*
X159094086Y-158505655D02*
X159103615Y-158553995D01*
X159117725Y-158581514D01*
X159141168Y-158610464D01*
X159193171Y-158569276D01*
X159224664Y-158543882D01*
X159240028Y-158526638D01*
X159242376Y-158509502D01*
X159234817Y-158484427D01*
X159230541Y-158472657D01*
X159224231Y-158424670D01*
X159237756Y-158380724D01*
X159268310Y-158348460D01*
X159278052Y-158343219D01*
X159303858Y-158337512D01*
X159351417Y-158333106D01*
X159417358Y-158330211D01*
X159498310Y-158329031D01*
X159509826Y-158329014D01*
X159710422Y-158329014D01*
X159710422Y-158190697D01*
X159094283Y-158190697D01*
X159094283Y-158259856D01*
X159095325Y-158299733D01*
X159099958Y-158320507D01*
X159110449Y-158328189D01*
X159120345Y-158329014D01*
X159146406Y-158329014D01*
X159120345Y-158362145D01*
X159102565Y-158400135D01*
X159093774Y-158451170D01*
X159094086Y-158505655D01*
X159094086Y-158505655D01*
G37*
X159094086Y-158505655D02*
X159103615Y-158553995D01*
X159117725Y-158581514D01*
X159141168Y-158610464D01*
X159193171Y-158569276D01*
X159224664Y-158543882D01*
X159240028Y-158526638D01*
X159242376Y-158509502D01*
X159234817Y-158484427D01*
X159230541Y-158472657D01*
X159224231Y-158424670D01*
X159237756Y-158380724D01*
X159268310Y-158348460D01*
X159278052Y-158343219D01*
X159303858Y-158337512D01*
X159351417Y-158333106D01*
X159417358Y-158330211D01*
X159498310Y-158329031D01*
X159509826Y-158329014D01*
X159710422Y-158329014D01*
X159710422Y-158190697D01*
X159094283Y-158190697D01*
X159094283Y-158259856D01*
X159095325Y-158299733D01*
X159099958Y-158320507D01*
X159110449Y-158328189D01*
X159120345Y-158329014D01*
X159146406Y-158329014D01*
X159120345Y-158362145D01*
X159102565Y-158400135D01*
X159093774Y-158451170D01*
X159094086Y-158505655D01*
G36*
X159097570Y-158902981D02*
X159113197Y-158963085D01*
X159145448Y-159013421D01*
X159169540Y-159037793D01*
X159226495Y-159077745D01*
X159292565Y-159100642D01*
X159373782Y-159108508D01*
X159380348Y-159108548D01*
X159446363Y-159108618D01*
X159446363Y-158728664D01*
X159480942Y-158736763D01*
X159512259Y-158751387D01*
X159544891Y-158776981D01*
X159550100Y-158782335D01*
X159578294Y-158828343D01*
X159583075Y-158880810D01*
X159564526Y-158941203D01*
X159559531Y-158951440D01*
X159544345Y-158982839D01*
X159535694Y-159003870D01*
X159534893Y-159007539D01*
X159542663Y-159020348D01*
X159561672Y-159044778D01*
X159572060Y-159057179D01*
X159595921Y-159082876D01*
X159611677Y-159091315D01*
X159626171Y-159085458D01*
X159630134Y-159082328D01*
X159647479Y-159061125D01*
X159668559Y-159026138D01*
X159680865Y-159001737D01*
X159702546Y-158932472D01*
X159709571Y-158855788D01*
X159701247Y-158783165D01*
X159695286Y-158762826D01*
X159661552Y-158699876D01*
X159609645Y-158653215D01*
X159539059Y-158622573D01*
X159449292Y-158607682D01*
X159402353Y-158606047D01*
X159334013Y-158610821D01*
X159334013Y-158731390D01*
X159339065Y-158743052D01*
X159343029Y-158774398D01*
X159345368Y-158819971D01*
X159345769Y-158850846D01*
X159345383Y-158906381D01*
X159343575Y-158941433D01*
X159339373Y-158960662D01*
X159331803Y-158968730D01*
X159320818Y-158970301D01*
X159286981Y-158959521D01*
X159253540Y-158932380D01*
X159227872Y-158896677D01*
X159217372Y-158860960D01*
X159226686Y-158812448D01*
X159253613Y-158770453D01*
X159292427Y-158741336D01*
X159334013Y-158731390D01*
X159334013Y-158610821D01*
X159302836Y-158612999D01*
X159223549Y-158634455D01*
X159163863Y-158670870D01*
X159123149Y-158722697D01*
X159100779Y-158790390D01*
X159096471Y-158827062D01*
X159097570Y-158902981D01*
X159097570Y-158902981D01*
G37*
X159097570Y-158902981D02*
X159113197Y-158963085D01*
X159145448Y-159013421D01*
X159169540Y-159037793D01*
X159226495Y-159077745D01*
X159292565Y-159100642D01*
X159373782Y-159108508D01*
X159380348Y-159108548D01*
X159446363Y-159108618D01*
X159446363Y-158728664D01*
X159480942Y-158736763D01*
X159512259Y-158751387D01*
X159544891Y-158776981D01*
X159550100Y-158782335D01*
X159578294Y-158828343D01*
X159583075Y-158880810D01*
X159564526Y-158941203D01*
X159559531Y-158951440D01*
X159544345Y-158982839D01*
X159535694Y-159003870D01*
X159534893Y-159007539D01*
X159542663Y-159020348D01*
X159561672Y-159044778D01*
X159572060Y-159057179D01*
X159595921Y-159082876D01*
X159611677Y-159091315D01*
X159626171Y-159085458D01*
X159630134Y-159082328D01*
X159647479Y-159061125D01*
X159668559Y-159026138D01*
X159680865Y-159001737D01*
X159702546Y-158932472D01*
X159709571Y-158855788D01*
X159701247Y-158783165D01*
X159695286Y-158762826D01*
X159661552Y-158699876D01*
X159609645Y-158653215D01*
X159539059Y-158622573D01*
X159449292Y-158607682D01*
X159402353Y-158606047D01*
X159334013Y-158610821D01*
X159334013Y-158731390D01*
X159339065Y-158743052D01*
X159343029Y-158774398D01*
X159345368Y-158819971D01*
X159345769Y-158850846D01*
X159345383Y-158906381D01*
X159343575Y-158941433D01*
X159339373Y-158960662D01*
X159331803Y-158968730D01*
X159320818Y-158970301D01*
X159286981Y-158959521D01*
X159253540Y-158932380D01*
X159227872Y-158896677D01*
X159217372Y-158860960D01*
X159226686Y-158812448D01*
X159253613Y-158770453D01*
X159292427Y-158741336D01*
X159334013Y-158731390D01*
X159334013Y-158610821D01*
X159302836Y-158612999D01*
X159223549Y-158634455D01*
X159163863Y-158670870D01*
X159123149Y-158722697D01*
X159100779Y-158790390D01*
X159096471Y-158827062D01*
X159097570Y-158902981D01*
G36*
X158157748Y-154332139D02*
X158186831Y-154397921D01*
X158235393Y-154447860D01*
X158303508Y-154482026D01*
X158391251Y-154500493D01*
X158404951Y-154501817D01*
X158501539Y-154502854D01*
X158586202Y-154489407D01*
X158654821Y-154462292D01*
X158676894Y-154447773D01*
X158723611Y-154397199D01*
X158753868Y-154332791D01*
X158766424Y-154260734D01*
X158760039Y-154187215D01*
X158740372Y-154131328D01*
X158707229Y-154083268D01*
X158663775Y-154043988D01*
X158662758Y-154043308D01*
X158635938Y-154027356D01*
X158608968Y-154016990D01*
X158574932Y-154010712D01*
X158526910Y-154007027D01*
X158487531Y-154005403D01*
X158451819Y-154004728D01*
X158451819Y-154130445D01*
X158487370Y-154131674D01*
X158534694Y-154136134D01*
X158565065Y-154144003D01*
X158586672Y-154158193D01*
X158599294Y-154171483D01*
X158625722Y-154218598D01*
X158629253Y-154267895D01*
X158610239Y-154313807D01*
X158588931Y-154336762D01*
X158567459Y-154353304D01*
X158546913Y-154362979D01*
X158520174Y-154367226D01*
X158480123Y-154367480D01*
X158443238Y-154366172D01*
X158390547Y-154363357D01*
X158356372Y-154358895D01*
X158334080Y-154350852D01*
X158317042Y-154337297D01*
X158307303Y-154326555D01*
X158281723Y-154281623D01*
X158280447Y-154233151D01*
X158295599Y-154192506D01*
X158327242Y-154157833D01*
X158379220Y-154137176D01*
X158451819Y-154130445D01*
X158451819Y-154004728D01*
X158409221Y-154003921D01*
X158350656Y-154006452D01*
X158306607Y-154014038D01*
X158271848Y-154027719D01*
X158241151Y-154048535D01*
X158232036Y-154056253D01*
X158186621Y-154104511D01*
X158160093Y-154156272D01*
X158148979Y-154219572D01*
X158148071Y-154250439D01*
X158157748Y-154332139D01*
X158157748Y-154332139D01*
G37*
X158157748Y-154332139D02*
X158186831Y-154397921D01*
X158235393Y-154447860D01*
X158303508Y-154482026D01*
X158391251Y-154500493D01*
X158404951Y-154501817D01*
X158501539Y-154502854D01*
X158586202Y-154489407D01*
X158654821Y-154462292D01*
X158676894Y-154447773D01*
X158723611Y-154397199D01*
X158753868Y-154332791D01*
X158766424Y-154260734D01*
X158760039Y-154187215D01*
X158740372Y-154131328D01*
X158707229Y-154083268D01*
X158663775Y-154043988D01*
X158662758Y-154043308D01*
X158635938Y-154027356D01*
X158608968Y-154016990D01*
X158574932Y-154010712D01*
X158526910Y-154007027D01*
X158487531Y-154005403D01*
X158451819Y-154004728D01*
X158451819Y-154130445D01*
X158487370Y-154131674D01*
X158534694Y-154136134D01*
X158565065Y-154144003D01*
X158586672Y-154158193D01*
X158599294Y-154171483D01*
X158625722Y-154218598D01*
X158629253Y-154267895D01*
X158610239Y-154313807D01*
X158588931Y-154336762D01*
X158567459Y-154353304D01*
X158546913Y-154362979D01*
X158520174Y-154367226D01*
X158480123Y-154367480D01*
X158443238Y-154366172D01*
X158390547Y-154363357D01*
X158356372Y-154358895D01*
X158334080Y-154350852D01*
X158317042Y-154337297D01*
X158307303Y-154326555D01*
X158281723Y-154281623D01*
X158280447Y-154233151D01*
X158295599Y-154192506D01*
X158327242Y-154157833D01*
X158379220Y-154137176D01*
X158451819Y-154130445D01*
X158451819Y-154004728D01*
X158409221Y-154003921D01*
X158350656Y-154006452D01*
X158306607Y-154014038D01*
X158271848Y-154027719D01*
X158241151Y-154048535D01*
X158232036Y-154056253D01*
X158186621Y-154104511D01*
X158160093Y-154156272D01*
X158148979Y-154219572D01*
X158148071Y-154250439D01*
X158157748Y-154332139D01*
G36*
X158165214Y-155513701D02*
X158171114Y-155526232D01*
X158202883Y-155569601D01*
X158249246Y-155610610D01*
X158300296Y-155641232D01*
X158323766Y-155649941D01*
X158365691Y-155657888D01*
X158416357Y-155662626D01*
X158437279Y-155663201D01*
X158503293Y-155663271D01*
X158503293Y-155283317D01*
X158537873Y-155291417D01*
X158578770Y-155311296D01*
X158614114Y-155346053D01*
X158636882Y-155387402D01*
X158641610Y-155413751D01*
X158635873Y-155449484D01*
X158621482Y-155492118D01*
X158614862Y-155506601D01*
X158588113Y-155560160D01*
X158622976Y-155605867D01*
X158646555Y-155632242D01*
X158666017Y-155646276D01*
X158671729Y-155646986D01*
X158685573Y-155634449D01*
X158706612Y-155606972D01*
X158723025Y-155582034D01*
X158752530Y-155514736D01*
X158765884Y-155439290D01*
X158762412Y-155364512D01*
X158744263Y-155304905D01*
X158705384Y-155243459D01*
X158654195Y-155199792D01*
X158587967Y-155172474D01*
X158503971Y-155160078D01*
X158465536Y-155158979D01*
X158377461Y-155163378D01*
X158374899Y-155163918D01*
X158374899Y-155289818D01*
X158383158Y-155293285D01*
X158387713Y-155307537D01*
X158389665Y-155336930D01*
X158390117Y-155385825D01*
X158390125Y-155404652D01*
X158389443Y-155461933D01*
X158386964Y-155498259D01*
X158382043Y-155517796D01*
X158374034Y-155524710D01*
X158371462Y-155524955D01*
X158351023Y-155517064D01*
X158322389Y-155497315D01*
X158312363Y-155488825D01*
X158284008Y-155457306D01*
X158272859Y-155424451D01*
X158271927Y-155406749D01*
X158283581Y-155358861D01*
X158314885Y-155318701D01*
X158360352Y-155293227D01*
X158361833Y-155292775D01*
X158374899Y-155289818D01*
X158374899Y-155163918D01*
X158308110Y-155178008D01*
X158252625Y-155204362D01*
X158213239Y-155236593D01*
X158170531Y-155296183D01*
X158147709Y-155366232D01*
X158145646Y-155440739D01*
X158165214Y-155513701D01*
X158165214Y-155513701D01*
G37*
X158165214Y-155513701D02*
X158171114Y-155526232D01*
X158202883Y-155569601D01*
X158249246Y-155610610D01*
X158300296Y-155641232D01*
X158323766Y-155649941D01*
X158365691Y-155657888D01*
X158416357Y-155662626D01*
X158437279Y-155663201D01*
X158503293Y-155663271D01*
X158503293Y-155283317D01*
X158537873Y-155291417D01*
X158578770Y-155311296D01*
X158614114Y-155346053D01*
X158636882Y-155387402D01*
X158641610Y-155413751D01*
X158635873Y-155449484D01*
X158621482Y-155492118D01*
X158614862Y-155506601D01*
X158588113Y-155560160D01*
X158622976Y-155605867D01*
X158646555Y-155632242D01*
X158666017Y-155646276D01*
X158671729Y-155646986D01*
X158685573Y-155634449D01*
X158706612Y-155606972D01*
X158723025Y-155582034D01*
X158752530Y-155514736D01*
X158765884Y-155439290D01*
X158762412Y-155364512D01*
X158744263Y-155304905D01*
X158705384Y-155243459D01*
X158654195Y-155199792D01*
X158587967Y-155172474D01*
X158503971Y-155160078D01*
X158465536Y-155158979D01*
X158377461Y-155163378D01*
X158374899Y-155163918D01*
X158374899Y-155289818D01*
X158383158Y-155293285D01*
X158387713Y-155307537D01*
X158389665Y-155336930D01*
X158390117Y-155385825D01*
X158390125Y-155404652D01*
X158389443Y-155461933D01*
X158386964Y-155498259D01*
X158382043Y-155517796D01*
X158374034Y-155524710D01*
X158371462Y-155524955D01*
X158351023Y-155517064D01*
X158322389Y-155497315D01*
X158312363Y-155488825D01*
X158284008Y-155457306D01*
X158272859Y-155424451D01*
X158271927Y-155406749D01*
X158283581Y-155358861D01*
X158314885Y-155318701D01*
X158360352Y-155293227D01*
X158361833Y-155292775D01*
X158374899Y-155289818D01*
X158374899Y-155163918D01*
X158308110Y-155178008D01*
X158252625Y-155204362D01*
X158213239Y-155236593D01*
X158170531Y-155296183D01*
X158147709Y-155366232D01*
X158145646Y-155440739D01*
X158165214Y-155513701D01*
G36*
X158149052Y-156884417D02*
X158158082Y-156932034D01*
X158176970Y-156981434D01*
X158179377Y-156986712D01*
X158199076Y-157024174D01*
X158217381Y-157050117D01*
X158229108Y-157058503D01*
X158248232Y-157050517D01*
X158276450Y-157031120D01*
X158286984Y-157022510D01*
X158328447Y-156987028D01*
X158301458Y-156941285D01*
X158283478Y-156897750D01*
X158273867Y-156847450D01*
X158273260Y-156799212D01*
X158282291Y-156761867D01*
X158287927Y-156752905D01*
X158313771Y-156735837D01*
X158343541Y-156733763D01*
X158366797Y-156746534D01*
X158371308Y-156754088D01*
X158376909Y-156776725D01*
X158383492Y-156816515D01*
X158389783Y-156865566D01*
X158390770Y-156874615D01*
X158404398Y-156953396D01*
X158427546Y-157010536D01*
X158462352Y-157048430D01*
X158510954Y-157069479D01*
X158570318Y-157076035D01*
X158637798Y-157066977D01*
X158690788Y-157037564D01*
X158729383Y-156987678D01*
X158753681Y-156917200D01*
X158763267Y-156838965D01*
X158763152Y-156775166D01*
X158754445Y-156723416D01*
X158742425Y-156688073D01*
X158721480Y-156643417D01*
X158697174Y-156602147D01*
X158686476Y-156587479D01*
X158655684Y-156549757D01*
X158609649Y-156595252D01*
X158563613Y-156640747D01*
X158597843Y-156692472D01*
X158623552Y-156744352D01*
X158636999Y-156799751D01*
X158638418Y-156853005D01*
X158628043Y-156898449D01*
X158606107Y-156930416D01*
X158587598Y-156940738D01*
X158557914Y-156939189D01*
X158535215Y-156913540D01*
X158519540Y-156863860D01*
X158512295Y-156809431D01*
X158498473Y-156725664D01*
X158472396Y-156663433D01*
X158433299Y-156621907D01*
X158380420Y-156600253D01*
X158317726Y-156597253D01*
X158252242Y-156612071D01*
X158202744Y-156645854D01*
X158169008Y-156698905D01*
X158150807Y-156771526D01*
X158147239Y-156825328D01*
X158149052Y-156884417D01*
X158149052Y-156884417D01*
G37*
X158149052Y-156884417D02*
X158158082Y-156932034D01*
X158176970Y-156981434D01*
X158179377Y-156986712D01*
X158199076Y-157024174D01*
X158217381Y-157050117D01*
X158229108Y-157058503D01*
X158248232Y-157050517D01*
X158276450Y-157031120D01*
X158286984Y-157022510D01*
X158328447Y-156987028D01*
X158301458Y-156941285D01*
X158283478Y-156897750D01*
X158273867Y-156847450D01*
X158273260Y-156799212D01*
X158282291Y-156761867D01*
X158287927Y-156752905D01*
X158313771Y-156735837D01*
X158343541Y-156733763D01*
X158366797Y-156746534D01*
X158371308Y-156754088D01*
X158376909Y-156776725D01*
X158383492Y-156816515D01*
X158389783Y-156865566D01*
X158390770Y-156874615D01*
X158404398Y-156953396D01*
X158427546Y-157010536D01*
X158462352Y-157048430D01*
X158510954Y-157069479D01*
X158570318Y-157076035D01*
X158637798Y-157066977D01*
X158690788Y-157037564D01*
X158729383Y-156987678D01*
X158753681Y-156917200D01*
X158763267Y-156838965D01*
X158763152Y-156775166D01*
X158754445Y-156723416D01*
X158742425Y-156688073D01*
X158721480Y-156643417D01*
X158697174Y-156602147D01*
X158686476Y-156587479D01*
X158655684Y-156549757D01*
X158609649Y-156595252D01*
X158563613Y-156640747D01*
X158597843Y-156692472D01*
X158623552Y-156744352D01*
X158636999Y-156799751D01*
X158638418Y-156853005D01*
X158628043Y-156898449D01*
X158606107Y-156930416D01*
X158587598Y-156940738D01*
X158557914Y-156939189D01*
X158535215Y-156913540D01*
X158519540Y-156863860D01*
X158512295Y-156809431D01*
X158498473Y-156725664D01*
X158472396Y-156663433D01*
X158433299Y-156621907D01*
X158380420Y-156600253D01*
X158317726Y-156597253D01*
X158252242Y-156612071D01*
X158202744Y-156645854D01*
X158169008Y-156698905D01*
X158150807Y-156771526D01*
X158147239Y-156825328D01*
X158149052Y-156884417D01*
G36*
X158158655Y-157481162D02*
X158193292Y-157544763D01*
X158247972Y-157594523D01*
X158292442Y-157617968D01*
X158331721Y-157628034D01*
X158387716Y-157634556D01*
X158452221Y-157637351D01*
X158517029Y-157636236D01*
X158573934Y-157631026D01*
X158604327Y-157624941D01*
X158645906Y-157604414D01*
X158690068Y-157568863D01*
X158728687Y-157526019D01*
X158753634Y-157483611D01*
X158754030Y-157482577D01*
X158764931Y-157429953D01*
X158765201Y-157367588D01*
X158755276Y-157308324D01*
X158747322Y-157285440D01*
X158713900Y-157226502D01*
X158670111Y-157184290D01*
X158612138Y-157156556D01*
X158536165Y-157141051D01*
X158496371Y-157137543D01*
X158446366Y-157137990D01*
X158446366Y-157272776D01*
X158519332Y-157277317D01*
X158574934Y-157290386D01*
X158610461Y-157311156D01*
X158620620Y-157325952D01*
X158627704Y-157363864D01*
X158625607Y-157408927D01*
X158615412Y-157447887D01*
X158609804Y-157458104D01*
X158577138Y-157485059D01*
X158527145Y-157502851D01*
X158466305Y-157510424D01*
X158401097Y-157506725D01*
X158361853Y-157498457D01*
X158316405Y-157474720D01*
X158287996Y-157437249D01*
X158278173Y-157392120D01*
X158288487Y-157345411D01*
X158313712Y-157309532D01*
X158334525Y-157290677D01*
X158355039Y-157279672D01*
X158382803Y-157274426D01*
X158425362Y-157272849D01*
X158446366Y-157272776D01*
X158446366Y-157137990D01*
X158390180Y-157138494D01*
X158303101Y-157155788D01*
X158235130Y-157189429D01*
X158186264Y-157239418D01*
X158156499Y-157305756D01*
X158153048Y-157320001D01*
X158144945Y-157405610D01*
X158158655Y-157481162D01*
X158158655Y-157481162D01*
G37*
X158158655Y-157481162D02*
X158193292Y-157544763D01*
X158247972Y-157594523D01*
X158292442Y-157617968D01*
X158331721Y-157628034D01*
X158387716Y-157634556D01*
X158452221Y-157637351D01*
X158517029Y-157636236D01*
X158573934Y-157631026D01*
X158604327Y-157624941D01*
X158645906Y-157604414D01*
X158690068Y-157568863D01*
X158728687Y-157526019D01*
X158753634Y-157483611D01*
X158754030Y-157482577D01*
X158764931Y-157429953D01*
X158765201Y-157367588D01*
X158755276Y-157308324D01*
X158747322Y-157285440D01*
X158713900Y-157226502D01*
X158670111Y-157184290D01*
X158612138Y-157156556D01*
X158536165Y-157141051D01*
X158496371Y-157137543D01*
X158446366Y-157137990D01*
X158446366Y-157272776D01*
X158519332Y-157277317D01*
X158574934Y-157290386D01*
X158610461Y-157311156D01*
X158620620Y-157325952D01*
X158627704Y-157363864D01*
X158625607Y-157408927D01*
X158615412Y-157447887D01*
X158609804Y-157458104D01*
X158577138Y-157485059D01*
X158527145Y-157502851D01*
X158466305Y-157510424D01*
X158401097Y-157506725D01*
X158361853Y-157498457D01*
X158316405Y-157474720D01*
X158287996Y-157437249D01*
X158278173Y-157392120D01*
X158288487Y-157345411D01*
X158313712Y-157309532D01*
X158334525Y-157290677D01*
X158355039Y-157279672D01*
X158382803Y-157274426D01*
X158425362Y-157272849D01*
X158446366Y-157272776D01*
X158446366Y-157137990D01*
X158390180Y-157138494D01*
X158303101Y-157155788D01*
X158235130Y-157189429D01*
X158186264Y-157239418D01*
X158156499Y-157305756D01*
X158153048Y-157320001D01*
X158144945Y-157405610D01*
X158158655Y-157481162D01*
G36*
X158346942Y-157863767D02*
X158439163Y-157864955D01*
X158509210Y-157869297D01*
X158559981Y-157877958D01*
X158594372Y-157892104D01*
X158615279Y-157912900D01*
X158625600Y-157941510D01*
X158628236Y-157976935D01*
X158625282Y-158014036D01*
X158614489Y-158042218D01*
X158592960Y-158062643D01*
X158557799Y-158076479D01*
X158506110Y-158084891D01*
X158434994Y-158089043D01*
X158346942Y-158090103D01*
X158151214Y-158090103D01*
X158151214Y-158228420D01*
X158754779Y-158228420D01*
X158754779Y-158159262D01*
X158753089Y-158117570D01*
X158747156Y-158096101D01*
X158735893Y-158090103D01*
X158725861Y-158086491D01*
X158727983Y-158072114D01*
X158742180Y-158043136D01*
X158764080Y-157976719D01*
X158762528Y-157906275D01*
X158738747Y-157838777D01*
X158719962Y-157806633D01*
X158699622Y-157782115D01*
X158674173Y-157764204D01*
X158640058Y-157751879D01*
X158593721Y-157744123D01*
X158531607Y-157739916D01*
X158450161Y-157738240D01*
X158387178Y-157738024D01*
X158151214Y-157738024D01*
X158151214Y-157863767D01*
X158346942Y-157863767D01*
X158346942Y-157863767D01*
G37*
X158346942Y-157863767D02*
X158439163Y-157864955D01*
X158509210Y-157869297D01*
X158559981Y-157877958D01*
X158594372Y-157892104D01*
X158615279Y-157912900D01*
X158625600Y-157941510D01*
X158628236Y-157976935D01*
X158625282Y-158014036D01*
X158614489Y-158042218D01*
X158592960Y-158062643D01*
X158557799Y-158076479D01*
X158506110Y-158084891D01*
X158434994Y-158089043D01*
X158346942Y-158090103D01*
X158151214Y-158090103D01*
X158151214Y-158228420D01*
X158754779Y-158228420D01*
X158754779Y-158159262D01*
X158753089Y-158117570D01*
X158747156Y-158096101D01*
X158735893Y-158090103D01*
X158725861Y-158086491D01*
X158727983Y-158072114D01*
X158742180Y-158043136D01*
X158764080Y-157976719D01*
X158762528Y-157906275D01*
X158738747Y-157838777D01*
X158719962Y-157806633D01*
X158699622Y-157782115D01*
X158674173Y-157764204D01*
X158640058Y-157751879D01*
X158593721Y-157744123D01*
X158531607Y-157739916D01*
X158450161Y-157738240D01*
X158387178Y-157738024D01*
X158151214Y-157738024D01*
X158151214Y-157863767D01*
X158346942Y-157863767D01*
G36*
X158156480Y-159087626D02*
X158187430Y-159160480D01*
X158202495Y-159183427D01*
X158225648Y-159212754D01*
X158243853Y-159231164D01*
X158249783Y-159234361D01*
X158262940Y-159225335D01*
X158285267Y-159202237D01*
X158300850Y-159183744D01*
X158341526Y-159133128D01*
X158307895Y-159093160D01*
X158286184Y-159062274D01*
X158278690Y-159032159D01*
X158280520Y-158997692D01*
X158294128Y-158942961D01*
X158322372Y-158905286D01*
X158368033Y-158882391D01*
X158433889Y-158871997D01*
X158433931Y-158871995D01*
X158507539Y-158872894D01*
X158561546Y-158886863D01*
X158598316Y-158914728D01*
X158610768Y-158933725D01*
X158626273Y-158984176D01*
X158626283Y-159038063D01*
X158611238Y-159084946D01*
X158603887Y-159096044D01*
X158585111Y-159123876D01*
X158582034Y-159145636D01*
X158596009Y-159169104D01*
X158621110Y-159195049D01*
X158663480Y-159236116D01*
X158701064Y-159190521D01*
X158743482Y-159120074D01*
X158764385Y-159040633D01*
X158762872Y-158957615D01*
X158749011Y-158903094D01*
X158714735Y-158839370D01*
X158660812Y-158788405D01*
X158622749Y-158765251D01*
X158568136Y-158746499D01*
X158498969Y-158737115D01*
X158424007Y-158737043D01*
X158352009Y-158746224D01*
X158291737Y-158764599D01*
X158285558Y-158767493D01*
X158224951Y-158810352D01*
X158180824Y-158868379D01*
X158154093Y-158936991D01*
X158145673Y-159011601D01*
X158156480Y-159087626D01*
X158156480Y-159087626D01*
G37*
X158156480Y-159087626D02*
X158187430Y-159160480D01*
X158202495Y-159183427D01*
X158225648Y-159212754D01*
X158243853Y-159231164D01*
X158249783Y-159234361D01*
X158262940Y-159225335D01*
X158285267Y-159202237D01*
X158300850Y-159183744D01*
X158341526Y-159133128D01*
X158307895Y-159093160D01*
X158286184Y-159062274D01*
X158278690Y-159032159D01*
X158280520Y-158997692D01*
X158294128Y-158942961D01*
X158322372Y-158905286D01*
X158368033Y-158882391D01*
X158433889Y-158871997D01*
X158433931Y-158871995D01*
X158507539Y-158872894D01*
X158561546Y-158886863D01*
X158598316Y-158914728D01*
X158610768Y-158933725D01*
X158626273Y-158984176D01*
X158626283Y-159038063D01*
X158611238Y-159084946D01*
X158603887Y-159096044D01*
X158585111Y-159123876D01*
X158582034Y-159145636D01*
X158596009Y-159169104D01*
X158621110Y-159195049D01*
X158663480Y-159236116D01*
X158701064Y-159190521D01*
X158743482Y-159120074D01*
X158764385Y-159040633D01*
X158762872Y-158957615D01*
X158749011Y-158903094D01*
X158714735Y-158839370D01*
X158660812Y-158788405D01*
X158622749Y-158765251D01*
X158568136Y-158746499D01*
X158498969Y-158737115D01*
X158424007Y-158737043D01*
X158352009Y-158746224D01*
X158291737Y-158764599D01*
X158285558Y-158767493D01*
X158224951Y-158810352D01*
X158180824Y-158868379D01*
X158154093Y-158936991D01*
X158145673Y-159011601D01*
X158156480Y-159087626D01*
G36*
X158149057Y-159548298D02*
X158156879Y-159580496D01*
X158185521Y-159642225D01*
X158229267Y-159695010D01*
X158281717Y-159731541D01*
X158293493Y-159736560D01*
X158324340Y-159743445D01*
X158369971Y-159748264D01*
X158416092Y-159749905D01*
X158503293Y-159749905D01*
X158503293Y-159567578D01*
X158503578Y-159492379D01*
X158505304Y-159439403D01*
X158509781Y-159405725D01*
X158518320Y-159388420D01*
X158532230Y-159384563D01*
X158552822Y-159391229D01*
X158576915Y-159403170D01*
X158617125Y-159436480D01*
X158637158Y-159482768D01*
X158636505Y-159539344D01*
X158614701Y-159603431D01*
X158587793Y-159658817D01*
X158624132Y-159704775D01*
X158660472Y-159750733D01*
X158700419Y-159707496D01*
X158738163Y-159649774D01*
X158760920Y-159578786D01*
X158767288Y-159502429D01*
X158755868Y-159428599D01*
X158751993Y-159416687D01*
X158718106Y-159351799D01*
X158667586Y-159303530D01*
X158598925Y-159270865D01*
X158510614Y-159252785D01*
X158508721Y-159252575D01*
X158412478Y-159250956D01*
X158378142Y-159257500D01*
X158378142Y-159385252D01*
X158383422Y-159396984D01*
X158387467Y-159428838D01*
X158389776Y-159475797D01*
X158390125Y-159505554D01*
X158389906Y-159561048D01*
X158388516Y-159595746D01*
X158384851Y-159614001D01*
X158377810Y-159620166D01*
X158366290Y-159618595D01*
X158361833Y-159617278D01*
X158319955Y-159594782D01*
X158286204Y-159559403D01*
X158271373Y-159528180D01*
X158272268Y-159486701D01*
X158290764Y-159444669D01*
X158321386Y-159409412D01*
X158358662Y-159388254D01*
X158378142Y-159385252D01*
X158378142Y-159257500D01*
X158327829Y-159267090D01*
X158256791Y-159299098D01*
X158201379Y-159345101D01*
X158163609Y-159403221D01*
X158145496Y-159471580D01*
X158149057Y-159548298D01*
X158149057Y-159548298D01*
G37*
X158149057Y-159548298D02*
X158156879Y-159580496D01*
X158185521Y-159642225D01*
X158229267Y-159695010D01*
X158281717Y-159731541D01*
X158293493Y-159736560D01*
X158324340Y-159743445D01*
X158369971Y-159748264D01*
X158416092Y-159749905D01*
X158503293Y-159749905D01*
X158503293Y-159567578D01*
X158503578Y-159492379D01*
X158505304Y-159439403D01*
X158509781Y-159405725D01*
X158518320Y-159388420D01*
X158532230Y-159384563D01*
X158552822Y-159391229D01*
X158576915Y-159403170D01*
X158617125Y-159436480D01*
X158637158Y-159482768D01*
X158636505Y-159539344D01*
X158614701Y-159603431D01*
X158587793Y-159658817D01*
X158624132Y-159704775D01*
X158660472Y-159750733D01*
X158700419Y-159707496D01*
X158738163Y-159649774D01*
X158760920Y-159578786D01*
X158767288Y-159502429D01*
X158755868Y-159428599D01*
X158751993Y-159416687D01*
X158718106Y-159351799D01*
X158667586Y-159303530D01*
X158598925Y-159270865D01*
X158510614Y-159252785D01*
X158508721Y-159252575D01*
X158412478Y-159250956D01*
X158378142Y-159257500D01*
X158378142Y-159385252D01*
X158383422Y-159396984D01*
X158387467Y-159428838D01*
X158389776Y-159475797D01*
X158390125Y-159505554D01*
X158389906Y-159561048D01*
X158388516Y-159595746D01*
X158384851Y-159614001D01*
X158377810Y-159620166D01*
X158366290Y-159618595D01*
X158361833Y-159617278D01*
X158319955Y-159594782D01*
X158286204Y-159559403D01*
X158271373Y-159528180D01*
X158272268Y-159486701D01*
X158290764Y-159444669D01*
X158321386Y-159409412D01*
X158358662Y-159388254D01*
X158378142Y-159385252D01*
X158378142Y-159257500D01*
X158327829Y-159267090D01*
X158256791Y-159299098D01*
X158201379Y-159345101D01*
X158163609Y-159403221D01*
X158145496Y-159471580D01*
X158149057Y-159548298D01*
G36*
X158161602Y-156116388D02*
X158176550Y-156147683D01*
X158198141Y-156177991D01*
X158222991Y-156201082D01*
X158254687Y-156217900D01*
X158296814Y-156229394D01*
X158352958Y-156236509D01*
X158426706Y-156240193D01*
X158521644Y-156241392D01*
X158531585Y-156241411D01*
X158754779Y-156241687D01*
X158754779Y-156103370D01*
X158549018Y-156103370D01*
X158472789Y-156103272D01*
X158417539Y-156102591D01*
X158379101Y-156100749D01*
X158353306Y-156097167D01*
X158335984Y-156091268D01*
X158322968Y-156082473D01*
X158310107Y-156070220D01*
X158282473Y-156027353D01*
X158277345Y-155980557D01*
X158294817Y-155935976D01*
X158307821Y-155920472D01*
X158320047Y-155909090D01*
X158333140Y-155900919D01*
X158351215Y-155895426D01*
X158378387Y-155892080D01*
X158418770Y-155890349D01*
X158476479Y-155889703D01*
X158546732Y-155889608D01*
X158754779Y-155889608D01*
X158754779Y-155751291D01*
X158151214Y-155751291D01*
X158151214Y-155820450D01*
X158152856Y-155861972D01*
X158158687Y-155883394D01*
X158170061Y-155889605D01*
X158170398Y-155889608D01*
X158181538Y-155892490D01*
X158180274Y-155905201D01*
X158168034Y-155930474D01*
X158150024Y-155987795D01*
X158148021Y-156053363D01*
X158161602Y-156116388D01*
X158161602Y-156116388D01*
G37*
X158161602Y-156116388D02*
X158176550Y-156147683D01*
X158198141Y-156177991D01*
X158222991Y-156201082D01*
X158254687Y-156217900D01*
X158296814Y-156229394D01*
X158352958Y-156236509D01*
X158426706Y-156240193D01*
X158521644Y-156241392D01*
X158531585Y-156241411D01*
X158754779Y-156241687D01*
X158754779Y-156103370D01*
X158549018Y-156103370D01*
X158472789Y-156103272D01*
X158417539Y-156102591D01*
X158379101Y-156100749D01*
X158353306Y-156097167D01*
X158335984Y-156091268D01*
X158322968Y-156082473D01*
X158310107Y-156070220D01*
X158282473Y-156027353D01*
X158277345Y-155980557D01*
X158294817Y-155935976D01*
X158307821Y-155920472D01*
X158320047Y-155909090D01*
X158333140Y-155900919D01*
X158351215Y-155895426D01*
X158378387Y-155892080D01*
X158418770Y-155890349D01*
X158476479Y-155889703D01*
X158546732Y-155889608D01*
X158754779Y-155889608D01*
X158754779Y-155751291D01*
X158151214Y-155751291D01*
X158151214Y-155820450D01*
X158152856Y-155861972D01*
X158158687Y-155883394D01*
X158170061Y-155889605D01*
X158170398Y-155889608D01*
X158181538Y-155892490D01*
X158180274Y-155905201D01*
X158168034Y-155930474D01*
X158150024Y-155987795D01*
X158148021Y-156053363D01*
X158161602Y-156116388D01*
G36*
X158150630Y-158669860D02*
X158163845Y-158713111D01*
X158180541Y-158740958D01*
X158193745Y-158750029D01*
X158209397Y-158747532D01*
X158233985Y-158731331D01*
X158251400Y-158717632D01*
X158282883Y-158689392D01*
X158296129Y-158668175D01*
X158295264Y-158650088D01*
X158281610Y-158596435D01*
X158282230Y-158557030D01*
X158297704Y-158525032D01*
X158306761Y-158514290D01*
X158338627Y-158479905D01*
X158754779Y-158479905D01*
X158754779Y-158341588D01*
X158151214Y-158341588D01*
X158151214Y-158410747D01*
X158152856Y-158452269D01*
X158158687Y-158473691D01*
X158170061Y-158479902D01*
X158170398Y-158479905D01*
X158182313Y-158482839D01*
X158180759Y-158496104D01*
X158172163Y-158514484D01*
X158156168Y-158552446D01*
X158146545Y-158583272D01*
X158144078Y-158622936D01*
X158150630Y-158669860D01*
X158150630Y-158669860D01*
G37*
X158150630Y-158669860D02*
X158163845Y-158713111D01*
X158180541Y-158740958D01*
X158193745Y-158750029D01*
X158209397Y-158747532D01*
X158233985Y-158731331D01*
X158251400Y-158717632D01*
X158282883Y-158689392D01*
X158296129Y-158668175D01*
X158295264Y-158650088D01*
X158281610Y-158596435D01*
X158282230Y-158557030D01*
X158297704Y-158525032D01*
X158306761Y-158514290D01*
X158338627Y-158479905D01*
X158754779Y-158479905D01*
X158754779Y-158341588D01*
X158151214Y-158341588D01*
X158151214Y-158410747D01*
X158152856Y-158452269D01*
X158158687Y-158473691D01*
X158170061Y-158479902D01*
X158170398Y-158479905D01*
X158182313Y-158482839D01*
X158180759Y-158496104D01*
X158172163Y-158514484D01*
X158156168Y-158552446D01*
X158146545Y-158583272D01*
X158144078Y-158622936D01*
X158150630Y-158669860D01*
G36*
X153982618Y-157247364D02*
X154284170Y-157304212D01*
X154457112Y-157723738D01*
X154285995Y-157975384D01*
X154238350Y-158045858D01*
X154195810Y-158109563D01*
X154160315Y-158163526D01*
X154133810Y-158204773D01*
X154118236Y-158230334D01*
X154114878Y-158237295D01*
X154123514Y-158249835D01*
X154147392Y-158276631D01*
X154183459Y-158314680D01*
X154228667Y-158360979D01*
X154279964Y-158412523D01*
X154334301Y-158466309D01*
X154388628Y-158519335D01*
X154439895Y-158568595D01*
X154485051Y-158611087D01*
X154521046Y-158643807D01*
X154544830Y-158663751D01*
X154552790Y-158668519D01*
X154567465Y-158661657D01*
X154599614Y-158642420D01*
X154646092Y-158612830D01*
X154703756Y-158574910D01*
X154769460Y-158530682D01*
X154806936Y-158505054D01*
X154875368Y-158458341D01*
X154937120Y-158416832D01*
X154989119Y-158382540D01*
X155028292Y-158357480D01*
X155051565Y-158343664D01*
X155056455Y-158341588D01*
X155070355Y-158346295D01*
X155102750Y-158359123D01*
X155149085Y-158378138D01*
X155204806Y-158401403D01*
X155265358Y-158426984D01*
X155326186Y-158452945D01*
X155382736Y-158477350D01*
X155430452Y-158498263D01*
X155464781Y-158513749D01*
X155481168Y-158521872D01*
X155481812Y-158522352D01*
X155484941Y-158535107D01*
X155491921Y-158569077D01*
X155502067Y-158620740D01*
X155514692Y-158686576D01*
X155529109Y-158763064D01*
X155537423Y-158807690D01*
X155552984Y-158889421D01*
X155567792Y-158963243D01*
X155581036Y-159025421D01*
X155591905Y-159072222D01*
X155599589Y-159099909D01*
X155602027Y-159105474D01*
X155618530Y-159110926D01*
X155655800Y-159115324D01*
X155709480Y-159118672D01*
X155775212Y-159120974D01*
X155848637Y-159122232D01*
X155925396Y-159122448D01*
X156001132Y-159121627D01*
X156071486Y-159119771D01*
X156132100Y-159116882D01*
X156178616Y-159112965D01*
X156206675Y-159108022D01*
X156212516Y-159105057D01*
X156219517Y-159087334D01*
X156229527Y-159049781D01*
X156241369Y-158997364D01*
X156253867Y-158935052D01*
X156257910Y-158913300D01*
X156277120Y-158808424D01*
X156292591Y-158725580D01*
X156304937Y-158662030D01*
X156314773Y-158615037D01*
X156322714Y-158581863D01*
X156329376Y-158559771D01*
X156335373Y-158546024D01*
X156341319Y-158537884D01*
X156342494Y-158536745D01*
X156361426Y-158525377D01*
X156398269Y-158508035D01*
X156448513Y-158486450D01*
X156507646Y-158462354D01*
X156571156Y-158437479D01*
X156634532Y-158413557D01*
X156693262Y-158392319D01*
X156742835Y-158375497D01*
X156778739Y-158364822D01*
X156796462Y-158362027D01*
X156797083Y-158362260D01*
X156811570Y-158371731D01*
X156843444Y-158393218D01*
X156889389Y-158424463D01*
X156946085Y-158463207D01*
X157010217Y-158507193D01*
X157028442Y-158519719D01*
X157094514Y-158564384D01*
X157154800Y-158603688D01*
X157205835Y-158635488D01*
X157244160Y-158657645D01*
X157266311Y-158668017D01*
X157269032Y-158668519D01*
X157283336Y-158659805D01*
X157311672Y-158635725D01*
X157350996Y-158599376D01*
X157398261Y-158553853D01*
X157450423Y-158502252D01*
X157504435Y-158447667D01*
X157557253Y-158393194D01*
X157605831Y-158341929D01*
X157647123Y-158296967D01*
X157678085Y-158261404D01*
X157695670Y-158238335D01*
X157698541Y-158231954D01*
X157691778Y-158217099D01*
X157673539Y-158186686D01*
X157646897Y-158145668D01*
X157625452Y-158114109D01*
X157586103Y-158056925D01*
X157539771Y-157989206D01*
X157493513Y-157921280D01*
X157468755Y-157884761D01*
X157385147Y-157761152D01*
X157441250Y-157657391D01*
X157465828Y-157610120D01*
X157484931Y-157569923D01*
X157495827Y-157542726D01*
X157497343Y-157535802D01*
X157486149Y-157527477D01*
X157454517Y-157511054D01*
X157405365Y-157487757D01*
X157341610Y-157458814D01*
X157266171Y-157425450D01*
X157181964Y-157388891D01*
X157091908Y-157350364D01*
X156998921Y-157311094D01*
X156905920Y-157272308D01*
X156815823Y-157235230D01*
X156731548Y-157201089D01*
X156656013Y-157171108D01*
X156592134Y-157146516D01*
X156542831Y-157128536D01*
X156511021Y-157118397D01*
X156500096Y-157116766D01*
X156486161Y-157129691D01*
X156463540Y-157157989D01*
X156436933Y-157195746D01*
X156434828Y-157198915D01*
X156356714Y-157296500D01*
X156265582Y-157375186D01*
X156164345Y-157434291D01*
X156055918Y-157473132D01*
X155943214Y-157491028D01*
X155829148Y-157487297D01*
X155716634Y-157461257D01*
X155608585Y-157412225D01*
X155584945Y-157397800D01*
X155489487Y-157322769D01*
X155412832Y-157234130D01*
X155355380Y-157134949D01*
X155317529Y-157028295D01*
X155299678Y-156917236D01*
X155302225Y-156804839D01*
X155325570Y-156694173D01*
X155370110Y-156588306D01*
X155436245Y-156490305D01*
X155463087Y-156459990D01*
X155547112Y-156382838D01*
X155635566Y-156326618D01*
X155734715Y-156288053D01*
X155832903Y-156266574D01*
X155943297Y-156261272D01*
X156054240Y-156278952D01*
X156161981Y-156317819D01*
X156262769Y-156376077D01*
X156352856Y-156451931D01*
X156428492Y-156543583D01*
X156436464Y-156555628D01*
X156462574Y-156593789D01*
X156485195Y-156622799D01*
X156499639Y-156636668D01*
X156500096Y-156636869D01*
X156515721Y-156633892D01*
X156551182Y-156622089D01*
X156603562Y-156602686D01*
X156669945Y-156576912D01*
X156747414Y-156545991D01*
X156833050Y-156511151D01*
X156923937Y-156473617D01*
X157017159Y-156434617D01*
X157109797Y-156395377D01*
X157198935Y-156357124D01*
X157281655Y-156321083D01*
X157355041Y-156288483D01*
X157416175Y-156260548D01*
X157462141Y-156238505D01*
X157490021Y-156223582D01*
X157497343Y-156217572D01*
X157491641Y-156199209D01*
X157476349Y-156164848D01*
X157454199Y-156120416D01*
X157441250Y-156095983D01*
X157385147Y-155992222D01*
X157468755Y-155868613D01*
X157511587Y-155805514D01*
X157558722Y-155736430D01*
X157603103Y-155671693D01*
X157625452Y-155639266D01*
X157656077Y-155593659D01*
X157680347Y-155555040D01*
X157695187Y-155528448D01*
X157698324Y-155519810D01*
X157689861Y-155507239D01*
X157666236Y-155479416D01*
X157629902Y-155439039D01*
X157583311Y-155388805D01*
X157528917Y-155331412D01*
X157493992Y-155295114D01*
X157431596Y-155231610D01*
X157375788Y-155176727D01*
X157328954Y-155132686D01*
X157293482Y-155101705D01*
X157271761Y-155086002D01*
X157267352Y-155084495D01*
X157250585Y-155091486D01*
X157216682Y-155110806D01*
X157169076Y-155140309D01*
X157111199Y-155177855D01*
X157046484Y-155221300D01*
X157028442Y-155233655D01*
X156962867Y-155278673D01*
X156903828Y-155319060D01*
X156854642Y-155352560D01*
X156818628Y-155376914D01*
X156799102Y-155389864D01*
X156797083Y-155391115D01*
X156781522Y-155389244D01*
X156747309Y-155379313D01*
X156698955Y-155363053D01*
X156640971Y-155342195D01*
X156577870Y-155318473D01*
X156514163Y-155293616D01*
X156454361Y-155269358D01*
X156402976Y-155247429D01*
X156364519Y-155229562D01*
X156343502Y-155217487D01*
X156342494Y-155216629D01*
X156336488Y-155209246D01*
X156330548Y-155196775D01*
X156324060Y-155176480D01*
X156316409Y-155145622D01*
X156306980Y-155101466D01*
X156295159Y-155041274D01*
X156280329Y-154962307D01*
X156261877Y-154861830D01*
X156257910Y-154840075D01*
X156245453Y-154775598D01*
X156233266Y-154719389D01*
X156222526Y-154676413D01*
X156214409Y-154651640D01*
X156212516Y-154648318D01*
X156195738Y-154642844D01*
X156158245Y-154638394D01*
X156104394Y-154634972D01*
X156038544Y-154632581D01*
X155965053Y-154631223D01*
X155888280Y-154630901D01*
X155812583Y-154631619D01*
X155742320Y-154633379D01*
X155681850Y-154636184D01*
X155635530Y-154640038D01*
X155607719Y-154644943D01*
X155602027Y-154647900D01*
X155596286Y-154664363D01*
X155586945Y-154701849D01*
X155574815Y-154756625D01*
X155560707Y-154824955D01*
X155545430Y-154903106D01*
X155537423Y-154945684D01*
X155522321Y-155026471D01*
X155508640Y-155098513D01*
X155497067Y-155158289D01*
X155488287Y-155202279D01*
X155482987Y-155226961D01*
X155481812Y-155231023D01*
X155468565Y-155237889D01*
X155436657Y-155252402D01*
X155390647Y-155272629D01*
X155335092Y-155296634D01*
X155274553Y-155322482D01*
X155213586Y-155348240D01*
X155156751Y-155371973D01*
X155108606Y-155391746D01*
X155073710Y-155405624D01*
X155056621Y-155411674D01*
X155055874Y-155411786D01*
X155042393Y-155404928D01*
X155011370Y-155385702D01*
X154965889Y-155356128D01*
X154909032Y-155318227D01*
X154843883Y-155274020D01*
X154806462Y-155248321D01*
X154737847Y-155201493D01*
X154675552Y-155159901D01*
X154622729Y-155125575D01*
X154582527Y-155100543D01*
X154558100Y-155086835D01*
X154552624Y-155084856D01*
X154539878Y-155093366D01*
X154512663Y-155116893D01*
X154474028Y-155152432D01*
X154427023Y-155196977D01*
X154374695Y-155247523D01*
X154320095Y-155301064D01*
X154266270Y-155354595D01*
X154216270Y-155405111D01*
X154173143Y-155449606D01*
X154139939Y-155485075D01*
X154119706Y-155508513D01*
X154114878Y-155516354D01*
X154121667Y-155529120D01*
X154140742Y-155559656D01*
X154170161Y-155604990D01*
X154207981Y-155662156D01*
X154252261Y-155728184D01*
X154285995Y-155777990D01*
X154457112Y-156029636D01*
X154370641Y-156239399D01*
X154284170Y-156449163D01*
X153982618Y-156506011D01*
X153681066Y-156562860D01*
X153681066Y-157190515D01*
X153982618Y-157247364D01*
X153982618Y-157247364D01*
G37*
X153982618Y-157247364D02*
X154284170Y-157304212D01*
X154457112Y-157723738D01*
X154285995Y-157975384D01*
X154238350Y-158045858D01*
X154195810Y-158109563D01*
X154160315Y-158163526D01*
X154133810Y-158204773D01*
X154118236Y-158230334D01*
X154114878Y-158237295D01*
X154123514Y-158249835D01*
X154147392Y-158276631D01*
X154183459Y-158314680D01*
X154228667Y-158360979D01*
X154279964Y-158412523D01*
X154334301Y-158466309D01*
X154388628Y-158519335D01*
X154439895Y-158568595D01*
X154485051Y-158611087D01*
X154521046Y-158643807D01*
X154544830Y-158663751D01*
X154552790Y-158668519D01*
X154567465Y-158661657D01*
X154599614Y-158642420D01*
X154646092Y-158612830D01*
X154703756Y-158574910D01*
X154769460Y-158530682D01*
X154806936Y-158505054D01*
X154875368Y-158458341D01*
X154937120Y-158416832D01*
X154989119Y-158382540D01*
X155028292Y-158357480D01*
X155051565Y-158343664D01*
X155056455Y-158341588D01*
X155070355Y-158346295D01*
X155102750Y-158359123D01*
X155149085Y-158378138D01*
X155204806Y-158401403D01*
X155265358Y-158426984D01*
X155326186Y-158452945D01*
X155382736Y-158477350D01*
X155430452Y-158498263D01*
X155464781Y-158513749D01*
X155481168Y-158521872D01*
X155481812Y-158522352D01*
X155484941Y-158535107D01*
X155491921Y-158569077D01*
X155502067Y-158620740D01*
X155514692Y-158686576D01*
X155529109Y-158763064D01*
X155537423Y-158807690D01*
X155552984Y-158889421D01*
X155567792Y-158963243D01*
X155581036Y-159025421D01*
X155591905Y-159072222D01*
X155599589Y-159099909D01*
X155602027Y-159105474D01*
X155618530Y-159110926D01*
X155655800Y-159115324D01*
X155709480Y-159118672D01*
X155775212Y-159120974D01*
X155848637Y-159122232D01*
X155925396Y-159122448D01*
X156001132Y-159121627D01*
X156071486Y-159119771D01*
X156132100Y-159116882D01*
X156178616Y-159112965D01*
X156206675Y-159108022D01*
X156212516Y-159105057D01*
X156219517Y-159087334D01*
X156229527Y-159049781D01*
X156241369Y-158997364D01*
X156253867Y-158935052D01*
X156257910Y-158913300D01*
X156277120Y-158808424D01*
X156292591Y-158725580D01*
X156304937Y-158662030D01*
X156314773Y-158615037D01*
X156322714Y-158581863D01*
X156329376Y-158559771D01*
X156335373Y-158546024D01*
X156341319Y-158537884D01*
X156342494Y-158536745D01*
X156361426Y-158525377D01*
X156398269Y-158508035D01*
X156448513Y-158486450D01*
X156507646Y-158462354D01*
X156571156Y-158437479D01*
X156634532Y-158413557D01*
X156693262Y-158392319D01*
X156742835Y-158375497D01*
X156778739Y-158364822D01*
X156796462Y-158362027D01*
X156797083Y-158362260D01*
X156811570Y-158371731D01*
X156843444Y-158393218D01*
X156889389Y-158424463D01*
X156946085Y-158463207D01*
X157010217Y-158507193D01*
X157028442Y-158519719D01*
X157094514Y-158564384D01*
X157154800Y-158603688D01*
X157205835Y-158635488D01*
X157244160Y-158657645D01*
X157266311Y-158668017D01*
X157269032Y-158668519D01*
X157283336Y-158659805D01*
X157311672Y-158635725D01*
X157350996Y-158599376D01*
X157398261Y-158553853D01*
X157450423Y-158502252D01*
X157504435Y-158447667D01*
X157557253Y-158393194D01*
X157605831Y-158341929D01*
X157647123Y-158296967D01*
X157678085Y-158261404D01*
X157695670Y-158238335D01*
X157698541Y-158231954D01*
X157691778Y-158217099D01*
X157673539Y-158186686D01*
X157646897Y-158145668D01*
X157625452Y-158114109D01*
X157586103Y-158056925D01*
X157539771Y-157989206D01*
X157493513Y-157921280D01*
X157468755Y-157884761D01*
X157385147Y-157761152D01*
X157441250Y-157657391D01*
X157465828Y-157610120D01*
X157484931Y-157569923D01*
X157495827Y-157542726D01*
X157497343Y-157535802D01*
X157486149Y-157527477D01*
X157454517Y-157511054D01*
X157405365Y-157487757D01*
X157341610Y-157458814D01*
X157266171Y-157425450D01*
X157181964Y-157388891D01*
X157091908Y-157350364D01*
X156998921Y-157311094D01*
X156905920Y-157272308D01*
X156815823Y-157235230D01*
X156731548Y-157201089D01*
X156656013Y-157171108D01*
X156592134Y-157146516D01*
X156542831Y-157128536D01*
X156511021Y-157118397D01*
X156500096Y-157116766D01*
X156486161Y-157129691D01*
X156463540Y-157157989D01*
X156436933Y-157195746D01*
X156434828Y-157198915D01*
X156356714Y-157296500D01*
X156265582Y-157375186D01*
X156164345Y-157434291D01*
X156055918Y-157473132D01*
X155943214Y-157491028D01*
X155829148Y-157487297D01*
X155716634Y-157461257D01*
X155608585Y-157412225D01*
X155584945Y-157397800D01*
X155489487Y-157322769D01*
X155412832Y-157234130D01*
X155355380Y-157134949D01*
X155317529Y-157028295D01*
X155299678Y-156917236D01*
X155302225Y-156804839D01*
X155325570Y-156694173D01*
X155370110Y-156588306D01*
X155436245Y-156490305D01*
X155463087Y-156459990D01*
X155547112Y-156382838D01*
X155635566Y-156326618D01*
X155734715Y-156288053D01*
X155832903Y-156266574D01*
X155943297Y-156261272D01*
X156054240Y-156278952D01*
X156161981Y-156317819D01*
X156262769Y-156376077D01*
X156352856Y-156451931D01*
X156428492Y-156543583D01*
X156436464Y-156555628D01*
X156462574Y-156593789D01*
X156485195Y-156622799D01*
X156499639Y-156636668D01*
X156500096Y-156636869D01*
X156515721Y-156633892D01*
X156551182Y-156622089D01*
X156603562Y-156602686D01*
X156669945Y-156576912D01*
X156747414Y-156545991D01*
X156833050Y-156511151D01*
X156923937Y-156473617D01*
X157017159Y-156434617D01*
X157109797Y-156395377D01*
X157198935Y-156357124D01*
X157281655Y-156321083D01*
X157355041Y-156288483D01*
X157416175Y-156260548D01*
X157462141Y-156238505D01*
X157490021Y-156223582D01*
X157497343Y-156217572D01*
X157491641Y-156199209D01*
X157476349Y-156164848D01*
X157454199Y-156120416D01*
X157441250Y-156095983D01*
X157385147Y-155992222D01*
X157468755Y-155868613D01*
X157511587Y-155805514D01*
X157558722Y-155736430D01*
X157603103Y-155671693D01*
X157625452Y-155639266D01*
X157656077Y-155593659D01*
X157680347Y-155555040D01*
X157695187Y-155528448D01*
X157698324Y-155519810D01*
X157689861Y-155507239D01*
X157666236Y-155479416D01*
X157629902Y-155439039D01*
X157583311Y-155388805D01*
X157528917Y-155331412D01*
X157493992Y-155295114D01*
X157431596Y-155231610D01*
X157375788Y-155176727D01*
X157328954Y-155132686D01*
X157293482Y-155101705D01*
X157271761Y-155086002D01*
X157267352Y-155084495D01*
X157250585Y-155091486D01*
X157216682Y-155110806D01*
X157169076Y-155140309D01*
X157111199Y-155177855D01*
X157046484Y-155221300D01*
X157028442Y-155233655D01*
X156962867Y-155278673D01*
X156903828Y-155319060D01*
X156854642Y-155352560D01*
X156818628Y-155376914D01*
X156799102Y-155389864D01*
X156797083Y-155391115D01*
X156781522Y-155389244D01*
X156747309Y-155379313D01*
X156698955Y-155363053D01*
X156640971Y-155342195D01*
X156577870Y-155318473D01*
X156514163Y-155293616D01*
X156454361Y-155269358D01*
X156402976Y-155247429D01*
X156364519Y-155229562D01*
X156343502Y-155217487D01*
X156342494Y-155216629D01*
X156336488Y-155209246D01*
X156330548Y-155196775D01*
X156324060Y-155176480D01*
X156316409Y-155145622D01*
X156306980Y-155101466D01*
X156295159Y-155041274D01*
X156280329Y-154962307D01*
X156261877Y-154861830D01*
X156257910Y-154840075D01*
X156245453Y-154775598D01*
X156233266Y-154719389D01*
X156222526Y-154676413D01*
X156214409Y-154651640D01*
X156212516Y-154648318D01*
X156195738Y-154642844D01*
X156158245Y-154638394D01*
X156104394Y-154634972D01*
X156038544Y-154632581D01*
X155965053Y-154631223D01*
X155888280Y-154630901D01*
X155812583Y-154631619D01*
X155742320Y-154633379D01*
X155681850Y-154636184D01*
X155635530Y-154640038D01*
X155607719Y-154644943D01*
X155602027Y-154647900D01*
X155596286Y-154664363D01*
X155586945Y-154701849D01*
X155574815Y-154756625D01*
X155560707Y-154824955D01*
X155545430Y-154903106D01*
X155537423Y-154945684D01*
X155522321Y-155026471D01*
X155508640Y-155098513D01*
X155497067Y-155158289D01*
X155488287Y-155202279D01*
X155482987Y-155226961D01*
X155481812Y-155231023D01*
X155468565Y-155237889D01*
X155436657Y-155252402D01*
X155390647Y-155272629D01*
X155335092Y-155296634D01*
X155274553Y-155322482D01*
X155213586Y-155348240D01*
X155156751Y-155371973D01*
X155108606Y-155391746D01*
X155073710Y-155405624D01*
X155056621Y-155411674D01*
X155055874Y-155411786D01*
X155042393Y-155404928D01*
X155011370Y-155385702D01*
X154965889Y-155356128D01*
X154909032Y-155318227D01*
X154843883Y-155274020D01*
X154806462Y-155248321D01*
X154737847Y-155201493D01*
X154675552Y-155159901D01*
X154622729Y-155125575D01*
X154582527Y-155100543D01*
X154558100Y-155086835D01*
X154552624Y-155084856D01*
X154539878Y-155093366D01*
X154512663Y-155116893D01*
X154474028Y-155152432D01*
X154427023Y-155196977D01*
X154374695Y-155247523D01*
X154320095Y-155301064D01*
X154266270Y-155354595D01*
X154216270Y-155405111D01*
X154173143Y-155449606D01*
X154139939Y-155485075D01*
X154119706Y-155508513D01*
X154114878Y-155516354D01*
X154121667Y-155529120D01*
X154140742Y-155559656D01*
X154170161Y-155604990D01*
X154207981Y-155662156D01*
X154252261Y-155728184D01*
X154285995Y-155777990D01*
X154457112Y-156029636D01*
X154370641Y-156239399D01*
X154284170Y-156449163D01*
X153982618Y-156506011D01*
X153681066Y-156562860D01*
X153681066Y-157190515D01*
X153982618Y-157247364D01*
D15*
X115916000Y-170518000D02*
X115916000Y-169818000D01*
X114716000Y-169818000D02*
X114716000Y-170518000D01*
X121828000Y-169818000D02*
X121828000Y-170518000D01*
X123028000Y-170518000D02*
X123028000Y-169818000D01*
X114716000Y-155364000D02*
X114716000Y-156064000D01*
X115916000Y-156064000D02*
X115916000Y-155364000D01*
X123028000Y-156064000D02*
X123028000Y-155364000D01*
X121828000Y-155364000D02*
X121828000Y-156064000D01*
X55718000Y-170518000D02*
X55718000Y-169818000D01*
X54518000Y-169818000D02*
X54518000Y-170518000D01*
X61376000Y-169818000D02*
X61376000Y-170518000D01*
X62576000Y-170518000D02*
X62576000Y-169818000D01*
X54518000Y-155364000D02*
X54518000Y-156064000D01*
X55718000Y-156064000D02*
X55718000Y-155364000D01*
X62576000Y-156064000D02*
X62576000Y-155364000D01*
X61376000Y-155364000D02*
X61376000Y-156064000D01*
X80864000Y-170518000D02*
X80864000Y-169818000D01*
X79664000Y-169818000D02*
X79664000Y-170518000D01*
X86522000Y-169818000D02*
X86522000Y-170518000D01*
X87722000Y-170518000D02*
X87722000Y-169818000D01*
X79664000Y-155364000D02*
X79664000Y-156064000D01*
X80864000Y-156064000D02*
X80864000Y-155364000D01*
X87722000Y-156064000D02*
X87722000Y-155364000D01*
X86522000Y-155364000D02*
X86522000Y-156064000D01*
X139030000Y-170518000D02*
X139030000Y-169818000D01*
X137830000Y-169818000D02*
X137830000Y-170518000D01*
X144688000Y-169818000D02*
X144688000Y-170518000D01*
X145888000Y-170518000D02*
X145888000Y-169818000D01*
X137830000Y-155364000D02*
X137830000Y-156064000D01*
X139030000Y-156064000D02*
X139030000Y-155364000D01*
X145888000Y-156064000D02*
X145888000Y-155364000D01*
X144688000Y-155364000D02*
X144688000Y-156064000D01*
D16*
X126667740Y-166815000D02*
X126667740Y-168240000D01*
X110767740Y-166815000D02*
X110767740Y-159065000D01*
X126917740Y-166815000D02*
X126917740Y-159065000D01*
X110767740Y-166815000D02*
X111115240Y-166815000D01*
X110767740Y-159065000D02*
X111115240Y-159065000D01*
X126917740Y-159065000D02*
X126570240Y-159065000D01*
X126917740Y-166815000D02*
X126667740Y-166815000D01*
X66308500Y-166815000D02*
X66308500Y-168240000D01*
X50408500Y-166815000D02*
X50408500Y-159065000D01*
X66558500Y-166815000D02*
X66558500Y-159065000D01*
X50408500Y-166815000D02*
X50756000Y-166815000D01*
X50408500Y-159065000D02*
X50756000Y-159065000D01*
X66558500Y-159065000D02*
X66211000Y-159065000D01*
X66558500Y-166815000D02*
X66308500Y-166815000D01*
X149870500Y-166815000D02*
X149620500Y-166815000D01*
X149870500Y-159065000D02*
X149523000Y-159065000D01*
X133720500Y-159065000D02*
X134068000Y-159065000D01*
X133720500Y-166815000D02*
X134068000Y-166815000D01*
X149870500Y-166815000D02*
X149870500Y-159065000D01*
X133720500Y-166815000D02*
X133720500Y-159065000D01*
X149620500Y-166815000D02*
X149620500Y-168240000D01*
X91831500Y-166817000D02*
X91581500Y-166817000D01*
X91831500Y-159067000D02*
X91484000Y-159067000D01*
X75681500Y-159067000D02*
X76029000Y-159067000D01*
X75681500Y-166817000D02*
X76029000Y-166817000D01*
X91831500Y-166817000D02*
X91831500Y-159067000D01*
X75681500Y-166817000D02*
X75681500Y-159067000D01*
X91581500Y-166817000D02*
X91581500Y-168242000D01*
X114173142Y-169525142D02*
X114220761Y-169477523D01*
X114268380Y-169334666D01*
X114268380Y-169239428D01*
X114220761Y-169096571D01*
X114125523Y-169001333D01*
X114030285Y-168953714D01*
X113839809Y-168906095D01*
X113696952Y-168906095D01*
X113506476Y-168953714D01*
X113411238Y-169001333D01*
X113316000Y-169096571D01*
X113268380Y-169239428D01*
X113268380Y-169334666D01*
X113316000Y-169477523D01*
X113363619Y-169525142D01*
X114268380Y-170477523D02*
X114268380Y-169906095D01*
X114268380Y-170191809D02*
X113268380Y-170191809D01*
X113411238Y-170096571D01*
X113506476Y-170001333D01*
X113554095Y-169906095D01*
X114268380Y-171429904D02*
X114268380Y-170858476D01*
X114268380Y-171144190D02*
X113268380Y-171144190D01*
X113411238Y-171048952D01*
X113506476Y-170953714D01*
X113554095Y-170858476D01*
X121285142Y-169525142D02*
X121332761Y-169477523D01*
X121380380Y-169334666D01*
X121380380Y-169239428D01*
X121332761Y-169096571D01*
X121237523Y-169001333D01*
X121142285Y-168953714D01*
X120951809Y-168906095D01*
X120808952Y-168906095D01*
X120618476Y-168953714D01*
X120523238Y-169001333D01*
X120428000Y-169096571D01*
X120380380Y-169239428D01*
X120380380Y-169334666D01*
X120428000Y-169477523D01*
X120475619Y-169525142D01*
X121380380Y-170477523D02*
X121380380Y-169906095D01*
X121380380Y-170191809D02*
X120380380Y-170191809D01*
X120523238Y-170096571D01*
X120618476Y-170001333D01*
X120666095Y-169906095D01*
X120475619Y-170858476D02*
X120428000Y-170906095D01*
X120380380Y-171001333D01*
X120380380Y-171239428D01*
X120428000Y-171334666D01*
X120475619Y-171382285D01*
X120570857Y-171429904D01*
X120666095Y-171429904D01*
X120808952Y-171382285D01*
X121380380Y-170810857D01*
X121380380Y-171429904D01*
X117173142Y-155071142D02*
X117220761Y-155023523D01*
X117268380Y-154880666D01*
X117268380Y-154785428D01*
X117220761Y-154642571D01*
X117125523Y-154547333D01*
X117030285Y-154499714D01*
X116839809Y-154452095D01*
X116696952Y-154452095D01*
X116506476Y-154499714D01*
X116411238Y-154547333D01*
X116316000Y-154642571D01*
X116268380Y-154785428D01*
X116268380Y-154880666D01*
X116316000Y-155023523D01*
X116363619Y-155071142D01*
X117268380Y-156023523D02*
X117268380Y-155452095D01*
X117268380Y-155737809D02*
X116268380Y-155737809D01*
X116411238Y-155642571D01*
X116506476Y-155547333D01*
X116554095Y-155452095D01*
X116268380Y-156356857D02*
X116268380Y-156975904D01*
X116649333Y-156642571D01*
X116649333Y-156785428D01*
X116696952Y-156880666D01*
X116744571Y-156928285D01*
X116839809Y-156975904D01*
X117077904Y-156975904D01*
X117173142Y-156928285D01*
X117220761Y-156880666D01*
X117268380Y-156785428D01*
X117268380Y-156499714D01*
X117220761Y-156404476D01*
X117173142Y-156356857D01*
X124285142Y-155071142D02*
X124332761Y-155023523D01*
X124380380Y-154880666D01*
X124380380Y-154785428D01*
X124332761Y-154642571D01*
X124237523Y-154547333D01*
X124142285Y-154499714D01*
X123951809Y-154452095D01*
X123808952Y-154452095D01*
X123618476Y-154499714D01*
X123523238Y-154547333D01*
X123428000Y-154642571D01*
X123380380Y-154785428D01*
X123380380Y-154880666D01*
X123428000Y-155023523D01*
X123475619Y-155071142D01*
X124380380Y-156023523D02*
X124380380Y-155452095D01*
X124380380Y-155737809D02*
X123380380Y-155737809D01*
X123523238Y-155642571D01*
X123618476Y-155547333D01*
X123666095Y-155452095D01*
X123713714Y-156880666D02*
X124380380Y-156880666D01*
X123332761Y-156642571D02*
X124047047Y-156404476D01*
X124047047Y-157023523D01*
X53975142Y-169525142D02*
X54022761Y-169477523D01*
X54070380Y-169334666D01*
X54070380Y-169239428D01*
X54022761Y-169096571D01*
X53927523Y-169001333D01*
X53832285Y-168953714D01*
X53641809Y-168906095D01*
X53498952Y-168906095D01*
X53308476Y-168953714D01*
X53213238Y-169001333D01*
X53118000Y-169096571D01*
X53070380Y-169239428D01*
X53070380Y-169334666D01*
X53118000Y-169477523D01*
X53165619Y-169525142D01*
X53165619Y-169906095D02*
X53118000Y-169953714D01*
X53070380Y-170048952D01*
X53070380Y-170287047D01*
X53118000Y-170382285D01*
X53165619Y-170429904D01*
X53260857Y-170477523D01*
X53356095Y-170477523D01*
X53498952Y-170429904D01*
X54070380Y-169858476D01*
X54070380Y-170477523D01*
X54070380Y-171429904D02*
X54070380Y-170858476D01*
X54070380Y-171144190D02*
X53070380Y-171144190D01*
X53213238Y-171048952D01*
X53308476Y-170953714D01*
X53356095Y-170858476D01*
X60833142Y-169525142D02*
X60880761Y-169477523D01*
X60928380Y-169334666D01*
X60928380Y-169239428D01*
X60880761Y-169096571D01*
X60785523Y-169001333D01*
X60690285Y-168953714D01*
X60499809Y-168906095D01*
X60356952Y-168906095D01*
X60166476Y-168953714D01*
X60071238Y-169001333D01*
X59976000Y-169096571D01*
X59928380Y-169239428D01*
X59928380Y-169334666D01*
X59976000Y-169477523D01*
X60023619Y-169525142D01*
X60023619Y-169906095D02*
X59976000Y-169953714D01*
X59928380Y-170048952D01*
X59928380Y-170287047D01*
X59976000Y-170382285D01*
X60023619Y-170429904D01*
X60118857Y-170477523D01*
X60214095Y-170477523D01*
X60356952Y-170429904D01*
X60928380Y-169858476D01*
X60928380Y-170477523D01*
X60023619Y-170858476D02*
X59976000Y-170906095D01*
X59928380Y-171001333D01*
X59928380Y-171239428D01*
X59976000Y-171334666D01*
X60023619Y-171382285D01*
X60118857Y-171429904D01*
X60214095Y-171429904D01*
X60356952Y-171382285D01*
X60928380Y-170810857D01*
X60928380Y-171429904D01*
X56975142Y-155071142D02*
X57022761Y-155023523D01*
X57070380Y-154880666D01*
X57070380Y-154785428D01*
X57022761Y-154642571D01*
X56927523Y-154547333D01*
X56832285Y-154499714D01*
X56641809Y-154452095D01*
X56498952Y-154452095D01*
X56308476Y-154499714D01*
X56213238Y-154547333D01*
X56118000Y-154642571D01*
X56070380Y-154785428D01*
X56070380Y-154880666D01*
X56118000Y-155023523D01*
X56165619Y-155071142D01*
X56165619Y-155452095D02*
X56118000Y-155499714D01*
X56070380Y-155594952D01*
X56070380Y-155833047D01*
X56118000Y-155928285D01*
X56165619Y-155975904D01*
X56260857Y-156023523D01*
X56356095Y-156023523D01*
X56498952Y-155975904D01*
X57070380Y-155404476D01*
X57070380Y-156023523D01*
X56070380Y-156356857D02*
X56070380Y-156975904D01*
X56451333Y-156642571D01*
X56451333Y-156785428D01*
X56498952Y-156880666D01*
X56546571Y-156928285D01*
X56641809Y-156975904D01*
X56879904Y-156975904D01*
X56975142Y-156928285D01*
X57022761Y-156880666D01*
X57070380Y-156785428D01*
X57070380Y-156499714D01*
X57022761Y-156404476D01*
X56975142Y-156356857D01*
X63833142Y-155071142D02*
X63880761Y-155023523D01*
X63928380Y-154880666D01*
X63928380Y-154785428D01*
X63880761Y-154642571D01*
X63785523Y-154547333D01*
X63690285Y-154499714D01*
X63499809Y-154452095D01*
X63356952Y-154452095D01*
X63166476Y-154499714D01*
X63071238Y-154547333D01*
X62976000Y-154642571D01*
X62928380Y-154785428D01*
X62928380Y-154880666D01*
X62976000Y-155023523D01*
X63023619Y-155071142D01*
X63023619Y-155452095D02*
X62976000Y-155499714D01*
X62928380Y-155594952D01*
X62928380Y-155833047D01*
X62976000Y-155928285D01*
X63023619Y-155975904D01*
X63118857Y-156023523D01*
X63214095Y-156023523D01*
X63356952Y-155975904D01*
X63928380Y-155404476D01*
X63928380Y-156023523D01*
X63261714Y-156880666D02*
X63928380Y-156880666D01*
X62880761Y-156642571D02*
X63595047Y-156404476D01*
X63595047Y-157023523D01*
X79121142Y-169525142D02*
X79168761Y-169477523D01*
X79216380Y-169334666D01*
X79216380Y-169239428D01*
X79168761Y-169096571D01*
X79073523Y-169001333D01*
X78978285Y-168953714D01*
X78787809Y-168906095D01*
X78644952Y-168906095D01*
X78454476Y-168953714D01*
X78359238Y-169001333D01*
X78264000Y-169096571D01*
X78216380Y-169239428D01*
X78216380Y-169334666D01*
X78264000Y-169477523D01*
X78311619Y-169525142D01*
X78216380Y-170429904D02*
X78216380Y-169953714D01*
X78692571Y-169906095D01*
X78644952Y-169953714D01*
X78597333Y-170048952D01*
X78597333Y-170287047D01*
X78644952Y-170382285D01*
X78692571Y-170429904D01*
X78787809Y-170477523D01*
X79025904Y-170477523D01*
X79121142Y-170429904D01*
X79168761Y-170382285D01*
X79216380Y-170287047D01*
X79216380Y-170048952D01*
X79168761Y-169953714D01*
X79121142Y-169906095D01*
X79216380Y-171429904D02*
X79216380Y-170858476D01*
X79216380Y-171144190D02*
X78216380Y-171144190D01*
X78359238Y-171048952D01*
X78454476Y-170953714D01*
X78502095Y-170858476D01*
X85979142Y-169525142D02*
X86026761Y-169477523D01*
X86074380Y-169334666D01*
X86074380Y-169239428D01*
X86026761Y-169096571D01*
X85931523Y-169001333D01*
X85836285Y-168953714D01*
X85645809Y-168906095D01*
X85502952Y-168906095D01*
X85312476Y-168953714D01*
X85217238Y-169001333D01*
X85122000Y-169096571D01*
X85074380Y-169239428D01*
X85074380Y-169334666D01*
X85122000Y-169477523D01*
X85169619Y-169525142D01*
X85074380Y-170429904D02*
X85074380Y-169953714D01*
X85550571Y-169906095D01*
X85502952Y-169953714D01*
X85455333Y-170048952D01*
X85455333Y-170287047D01*
X85502952Y-170382285D01*
X85550571Y-170429904D01*
X85645809Y-170477523D01*
X85883904Y-170477523D01*
X85979142Y-170429904D01*
X86026761Y-170382285D01*
X86074380Y-170287047D01*
X86074380Y-170048952D01*
X86026761Y-169953714D01*
X85979142Y-169906095D01*
X85169619Y-170858476D02*
X85122000Y-170906095D01*
X85074380Y-171001333D01*
X85074380Y-171239428D01*
X85122000Y-171334666D01*
X85169619Y-171382285D01*
X85264857Y-171429904D01*
X85360095Y-171429904D01*
X85502952Y-171382285D01*
X86074380Y-170810857D01*
X86074380Y-171429904D01*
X82121142Y-155071142D02*
X82168761Y-155023523D01*
X82216380Y-154880666D01*
X82216380Y-154785428D01*
X82168761Y-154642571D01*
X82073523Y-154547333D01*
X81978285Y-154499714D01*
X81787809Y-154452095D01*
X81644952Y-154452095D01*
X81454476Y-154499714D01*
X81359238Y-154547333D01*
X81264000Y-154642571D01*
X81216380Y-154785428D01*
X81216380Y-154880666D01*
X81264000Y-155023523D01*
X81311619Y-155071142D01*
X81216380Y-155975904D02*
X81216380Y-155499714D01*
X81692571Y-155452095D01*
X81644952Y-155499714D01*
X81597333Y-155594952D01*
X81597333Y-155833047D01*
X81644952Y-155928285D01*
X81692571Y-155975904D01*
X81787809Y-156023523D01*
X82025904Y-156023523D01*
X82121142Y-155975904D01*
X82168761Y-155928285D01*
X82216380Y-155833047D01*
X82216380Y-155594952D01*
X82168761Y-155499714D01*
X82121142Y-155452095D01*
X81216380Y-156356857D02*
X81216380Y-156975904D01*
X81597333Y-156642571D01*
X81597333Y-156785428D01*
X81644952Y-156880666D01*
X81692571Y-156928285D01*
X81787809Y-156975904D01*
X82025904Y-156975904D01*
X82121142Y-156928285D01*
X82168761Y-156880666D01*
X82216380Y-156785428D01*
X82216380Y-156499714D01*
X82168761Y-156404476D01*
X82121142Y-156356857D01*
X88979142Y-155071142D02*
X89026761Y-155023523D01*
X89074380Y-154880666D01*
X89074380Y-154785428D01*
X89026761Y-154642571D01*
X88931523Y-154547333D01*
X88836285Y-154499714D01*
X88645809Y-154452095D01*
X88502952Y-154452095D01*
X88312476Y-154499714D01*
X88217238Y-154547333D01*
X88122000Y-154642571D01*
X88074380Y-154785428D01*
X88074380Y-154880666D01*
X88122000Y-155023523D01*
X88169619Y-155071142D01*
X88074380Y-155975904D02*
X88074380Y-155499714D01*
X88550571Y-155452095D01*
X88502952Y-155499714D01*
X88455333Y-155594952D01*
X88455333Y-155833047D01*
X88502952Y-155928285D01*
X88550571Y-155975904D01*
X88645809Y-156023523D01*
X88883904Y-156023523D01*
X88979142Y-155975904D01*
X89026761Y-155928285D01*
X89074380Y-155833047D01*
X89074380Y-155594952D01*
X89026761Y-155499714D01*
X88979142Y-155452095D01*
X88407714Y-156880666D02*
X89074380Y-156880666D01*
X88026761Y-156642571D02*
X88741047Y-156404476D01*
X88741047Y-157023523D01*
X137287142Y-169525142D02*
X137334761Y-169477523D01*
X137382380Y-169334666D01*
X137382380Y-169239428D01*
X137334761Y-169096571D01*
X137239523Y-169001333D01*
X137144285Y-168953714D01*
X136953809Y-168906095D01*
X136810952Y-168906095D01*
X136620476Y-168953714D01*
X136525238Y-169001333D01*
X136430000Y-169096571D01*
X136382380Y-169239428D01*
X136382380Y-169334666D01*
X136430000Y-169477523D01*
X136477619Y-169525142D01*
X136382380Y-170382285D02*
X136382380Y-170191809D01*
X136430000Y-170096571D01*
X136477619Y-170048952D01*
X136620476Y-169953714D01*
X136810952Y-169906095D01*
X137191904Y-169906095D01*
X137287142Y-169953714D01*
X137334761Y-170001333D01*
X137382380Y-170096571D01*
X137382380Y-170287047D01*
X137334761Y-170382285D01*
X137287142Y-170429904D01*
X137191904Y-170477523D01*
X136953809Y-170477523D01*
X136858571Y-170429904D01*
X136810952Y-170382285D01*
X136763333Y-170287047D01*
X136763333Y-170096571D01*
X136810952Y-170001333D01*
X136858571Y-169953714D01*
X136953809Y-169906095D01*
X137382380Y-171429904D02*
X137382380Y-170858476D01*
X137382380Y-171144190D02*
X136382380Y-171144190D01*
X136525238Y-171048952D01*
X136620476Y-170953714D01*
X136668095Y-170858476D01*
X144145142Y-169525142D02*
X144192761Y-169477523D01*
X144240380Y-169334666D01*
X144240380Y-169239428D01*
X144192761Y-169096571D01*
X144097523Y-169001333D01*
X144002285Y-168953714D01*
X143811809Y-168906095D01*
X143668952Y-168906095D01*
X143478476Y-168953714D01*
X143383238Y-169001333D01*
X143288000Y-169096571D01*
X143240380Y-169239428D01*
X143240380Y-169334666D01*
X143288000Y-169477523D01*
X143335619Y-169525142D01*
X143240380Y-170382285D02*
X143240380Y-170191809D01*
X143288000Y-170096571D01*
X143335619Y-170048952D01*
X143478476Y-169953714D01*
X143668952Y-169906095D01*
X144049904Y-169906095D01*
X144145142Y-169953714D01*
X144192761Y-170001333D01*
X144240380Y-170096571D01*
X144240380Y-170287047D01*
X144192761Y-170382285D01*
X144145142Y-170429904D01*
X144049904Y-170477523D01*
X143811809Y-170477523D01*
X143716571Y-170429904D01*
X143668952Y-170382285D01*
X143621333Y-170287047D01*
X143621333Y-170096571D01*
X143668952Y-170001333D01*
X143716571Y-169953714D01*
X143811809Y-169906095D01*
X143335619Y-170858476D02*
X143288000Y-170906095D01*
X143240380Y-171001333D01*
X143240380Y-171239428D01*
X143288000Y-171334666D01*
X143335619Y-171382285D01*
X143430857Y-171429904D01*
X143526095Y-171429904D01*
X143668952Y-171382285D01*
X144240380Y-170810857D01*
X144240380Y-171429904D01*
X140287142Y-155071142D02*
X140334761Y-155023523D01*
X140382380Y-154880666D01*
X140382380Y-154785428D01*
X140334761Y-154642571D01*
X140239523Y-154547333D01*
X140144285Y-154499714D01*
X139953809Y-154452095D01*
X139810952Y-154452095D01*
X139620476Y-154499714D01*
X139525238Y-154547333D01*
X139430000Y-154642571D01*
X139382380Y-154785428D01*
X139382380Y-154880666D01*
X139430000Y-155023523D01*
X139477619Y-155071142D01*
X139382380Y-155928285D02*
X139382380Y-155737809D01*
X139430000Y-155642571D01*
X139477619Y-155594952D01*
X139620476Y-155499714D01*
X139810952Y-155452095D01*
X140191904Y-155452095D01*
X140287142Y-155499714D01*
X140334761Y-155547333D01*
X140382380Y-155642571D01*
X140382380Y-155833047D01*
X140334761Y-155928285D01*
X140287142Y-155975904D01*
X140191904Y-156023523D01*
X139953809Y-156023523D01*
X139858571Y-155975904D01*
X139810952Y-155928285D01*
X139763333Y-155833047D01*
X139763333Y-155642571D01*
X139810952Y-155547333D01*
X139858571Y-155499714D01*
X139953809Y-155452095D01*
X139382380Y-156356857D02*
X139382380Y-156975904D01*
X139763333Y-156642571D01*
X139763333Y-156785428D01*
X139810952Y-156880666D01*
X139858571Y-156928285D01*
X139953809Y-156975904D01*
X140191904Y-156975904D01*
X140287142Y-156928285D01*
X140334761Y-156880666D01*
X140382380Y-156785428D01*
X140382380Y-156499714D01*
X140334761Y-156404476D01*
X140287142Y-156356857D01*
X147145142Y-155071142D02*
X147192761Y-155023523D01*
X147240380Y-154880666D01*
X147240380Y-154785428D01*
X147192761Y-154642571D01*
X147097523Y-154547333D01*
X147002285Y-154499714D01*
X146811809Y-154452095D01*
X146668952Y-154452095D01*
X146478476Y-154499714D01*
X146383238Y-154547333D01*
X146288000Y-154642571D01*
X146240380Y-154785428D01*
X146240380Y-154880666D01*
X146288000Y-155023523D01*
X146335619Y-155071142D01*
X146240380Y-155928285D02*
X146240380Y-155737809D01*
X146288000Y-155642571D01*
X146335619Y-155594952D01*
X146478476Y-155499714D01*
X146668952Y-155452095D01*
X147049904Y-155452095D01*
X147145142Y-155499714D01*
X147192761Y-155547333D01*
X147240380Y-155642571D01*
X147240380Y-155833047D01*
X147192761Y-155928285D01*
X147145142Y-155975904D01*
X147049904Y-156023523D01*
X146811809Y-156023523D01*
X146716571Y-155975904D01*
X146668952Y-155928285D01*
X146621333Y-155833047D01*
X146621333Y-155642571D01*
X146668952Y-155547333D01*
X146716571Y-155499714D01*
X146811809Y-155452095D01*
X146573714Y-156880666D02*
X147240380Y-156880666D01*
X146192761Y-156642571D02*
X146907047Y-156404476D01*
X146907047Y-157023523D01*
X127295120Y-162178095D02*
X128104644Y-162178095D01*
X128199882Y-162225714D01*
X128247501Y-162273333D01*
X128295120Y-162368571D01*
X128295120Y-162559047D01*
X128247501Y-162654285D01*
X128199882Y-162701904D01*
X128104644Y-162749523D01*
X127295120Y-162749523D01*
X128295120Y-163749523D02*
X128295120Y-163178095D01*
X128295120Y-163463809D02*
X127295120Y-163463809D01*
X127437978Y-163368571D01*
X127533216Y-163273333D01*
X127580835Y-163178095D01*
X66935880Y-162178095D02*
X67745404Y-162178095D01*
X67840642Y-162225714D01*
X67888261Y-162273333D01*
X67935880Y-162368571D01*
X67935880Y-162559047D01*
X67888261Y-162654285D01*
X67840642Y-162701904D01*
X67745404Y-162749523D01*
X66935880Y-162749523D01*
X67031119Y-163178095D02*
X66983500Y-163225714D01*
X66935880Y-163320952D01*
X66935880Y-163559047D01*
X66983500Y-163654285D01*
X67031119Y-163701904D01*
X67126357Y-163749523D01*
X67221595Y-163749523D01*
X67364452Y-163701904D01*
X67935880Y-163130476D01*
X67935880Y-163749523D01*
X150247880Y-162178095D02*
X151057404Y-162178095D01*
X151152642Y-162225714D01*
X151200261Y-162273333D01*
X151247880Y-162368571D01*
X151247880Y-162559047D01*
X151200261Y-162654285D01*
X151152642Y-162701904D01*
X151057404Y-162749523D01*
X150247880Y-162749523D01*
X150581214Y-163654285D02*
X151247880Y-163654285D01*
X150200261Y-163416190D02*
X150914547Y-163178095D01*
X150914547Y-163797142D01*
X92208880Y-162180095D02*
X93018404Y-162180095D01*
X93113642Y-162227714D01*
X93161261Y-162275333D01*
X93208880Y-162370571D01*
X93208880Y-162561047D01*
X93161261Y-162656285D01*
X93113642Y-162703904D01*
X93018404Y-162751523D01*
X92208880Y-162751523D01*
X92208880Y-163703904D02*
X92208880Y-163227714D01*
X92685071Y-163180095D01*
X92637452Y-163227714D01*
X92589833Y-163322952D01*
X92589833Y-163561047D01*
X92637452Y-163656285D01*
X92685071Y-163703904D01*
X92780309Y-163751523D01*
X93018404Y-163751523D01*
X93113642Y-163703904D01*
X93161261Y-163656285D01*
X93208880Y-163561047D01*
X93208880Y-163322952D01*
X93161261Y-163227714D01*
X93113642Y-163180095D01*
M02*
