G04 #@! TF.GenerationSoftware,KiCad,Pcbnew,(2018-02-14 revision 6afdf1cf8)-makepkg*
G04 #@! TF.CreationDate,2018-05-17T19:59:26-07:00*
G04 #@! TF.ProjectId,register-card,72656769737465722D636172642E6B69,rev?*
G04 #@! TF.SameCoordinates,Original*
G04 #@! TF.FileFunction,Soldermask,Top*
G04 #@! TF.FilePolarity,Negative*
%FSLAX46Y46*%
G04 Gerber Fmt 4.6, Leading zero omitted, Abs format (unit mm)*
G04 Created by KiCad (PCBNEW (2018-02-14 revision 6afdf1cf8)-makepkg) date 05/17/18 19:59:26*
%MOMM*%
%LPD*%
G01*
G04 APERTURE LIST*
%ADD10R,1.300000X5.000000*%
%ADD11R,2.400000X4.400000*%
%ADD12R,1.300000X0.900000*%
%ADD13R,1.400000X1.400000*%
%ADD14O,1.400000X1.400000*%
%ADD15R,1.150000X1.200000*%
%ADD16R,0.800000X1.600000*%
G04 APERTURE END LIST*
D10*
X47548800Y-178638200D03*
X48548800Y-178638200D03*
X49548800Y-178638200D03*
X50548800Y-178638200D03*
X51548800Y-178638200D03*
X52548800Y-178638200D03*
X53548800Y-178638200D03*
X54548800Y-178638200D03*
X55548800Y-178638200D03*
X56548800Y-178638200D03*
X57548800Y-178638200D03*
X60548800Y-178638200D03*
X61548800Y-178638200D03*
X62548800Y-178638200D03*
X63548800Y-178638200D03*
X64548800Y-178638200D03*
X65548800Y-178638200D03*
X66548800Y-178638200D03*
X67548800Y-178638200D03*
X68548800Y-178638200D03*
X69548800Y-178638200D03*
X70548800Y-178638200D03*
X71548800Y-178638200D03*
X72548800Y-178638200D03*
X73548800Y-178638200D03*
X74548800Y-178638200D03*
X75548800Y-178638200D03*
X76548800Y-178638200D03*
X77548800Y-178638200D03*
X78548800Y-178638200D03*
X79548800Y-178638200D03*
X80548800Y-178638200D03*
X81548800Y-178638200D03*
X82548800Y-178638200D03*
X83548800Y-178638200D03*
X84548800Y-178638200D03*
X85548800Y-178638200D03*
X86548800Y-178638200D03*
X87548800Y-178638200D03*
X88548800Y-178638200D03*
X89548800Y-178638200D03*
X90548800Y-178638200D03*
X91548800Y-178638200D03*
X92548800Y-178638200D03*
X93548800Y-178638200D03*
X94548800Y-178638200D03*
X95548800Y-178638200D03*
X96548800Y-178638200D03*
X97548800Y-178638200D03*
X107548800Y-178638200D03*
X120548800Y-178638200D03*
X108548800Y-178638200D03*
X109548800Y-178638200D03*
X110548800Y-178638200D03*
X111548800Y-178638200D03*
X112548800Y-178638200D03*
X113548800Y-178638200D03*
X114548800Y-178638200D03*
X115548800Y-178638200D03*
X116548800Y-178638200D03*
X117548800Y-178638200D03*
X121548800Y-178638200D03*
X122548800Y-178638200D03*
X123548800Y-178638200D03*
X124548800Y-178638200D03*
X125548800Y-178638200D03*
X126548800Y-178638200D03*
X127548800Y-178638200D03*
X128548800Y-178638200D03*
X129548800Y-178638200D03*
X130548800Y-178638200D03*
X131548800Y-178638200D03*
X132548800Y-178638200D03*
X133548800Y-178638200D03*
X134548800Y-178638200D03*
X135548800Y-178638200D03*
X136548800Y-178638200D03*
X137548800Y-178638200D03*
X138548800Y-178638200D03*
X139548800Y-178638200D03*
X140548800Y-178638200D03*
X141548800Y-178638200D03*
X142548800Y-178638200D03*
X143548800Y-178638200D03*
X144548800Y-178638200D03*
X145548800Y-178638200D03*
X146548800Y-178638200D03*
X147548800Y-178638200D03*
X148548800Y-178638200D03*
X149548800Y-178638200D03*
X150548800Y-178638200D03*
X151548800Y-178638200D03*
X152548800Y-178638200D03*
X153548800Y-178638200D03*
X154548800Y-178638200D03*
X155548800Y-178638200D03*
X156548800Y-178638200D03*
X157548800Y-178638200D03*
D11*
X45000000Y-127105416D03*
X48500000Y-127105416D03*
X52000000Y-127105416D03*
X55500000Y-127105416D03*
X59000000Y-127105416D03*
X62500000Y-127105416D03*
X66000000Y-127105416D03*
X69500000Y-127105416D03*
X73000000Y-127105416D03*
X76500000Y-127105416D03*
X80000000Y-127105416D03*
X83500000Y-127105416D03*
X87000000Y-127105416D03*
X90500000Y-127105416D03*
X94000000Y-127105416D03*
X97500000Y-127105416D03*
X101000000Y-127105416D03*
X104500000Y-127105416D03*
X108000000Y-127105416D03*
X111500000Y-127105416D03*
X115000000Y-127105416D03*
X118500000Y-127105416D03*
X122000000Y-127105416D03*
X125500000Y-127105416D03*
X129000000Y-127105416D03*
X132500000Y-127105416D03*
X136000000Y-127105416D03*
X139500000Y-127105416D03*
X143000000Y-127105416D03*
X146500000Y-127105416D03*
X150000000Y-127105416D03*
X153500000Y-127105416D03*
D12*
X44958000Y-130394000D03*
X44958000Y-131894000D03*
X48525400Y-130484270D03*
X48525400Y-131984270D03*
X52025400Y-130484270D03*
X52025400Y-131984270D03*
X55525400Y-130484270D03*
X55525400Y-131984270D03*
X59025400Y-130484270D03*
X59025400Y-131984270D03*
X62525400Y-130484270D03*
X62525400Y-131984270D03*
X66025400Y-130484270D03*
X66025400Y-131984270D03*
X69525400Y-130484270D03*
X69525400Y-131984270D03*
X73025400Y-130484270D03*
X73025400Y-131984270D03*
X76525400Y-130484270D03*
X76525400Y-131984270D03*
X80025400Y-130484270D03*
X80025400Y-131984270D03*
X83525400Y-130484270D03*
X83525400Y-131984270D03*
X87000000Y-130490048D03*
X87000000Y-131990048D03*
X90500000Y-130490048D03*
X90500000Y-131990048D03*
X94000000Y-130490048D03*
X94000000Y-131990048D03*
X97500000Y-130490048D03*
X97500000Y-131990048D03*
X101000000Y-130490048D03*
X101000000Y-131990048D03*
X104500000Y-130490048D03*
X104500000Y-131990048D03*
X108000000Y-130490048D03*
X108000000Y-131990048D03*
X111500000Y-130490048D03*
X111500000Y-131990048D03*
X115000000Y-130490048D03*
X115000000Y-131990048D03*
X118500000Y-130490048D03*
X118500000Y-131990048D03*
X122000000Y-130490048D03*
X122000000Y-131990048D03*
X125500000Y-130490048D03*
X125500000Y-131990048D03*
X129000000Y-130490048D03*
X129000000Y-131990048D03*
X132500000Y-130490048D03*
X132500000Y-131990048D03*
X136000000Y-130490048D03*
X136000000Y-131990048D03*
X139500000Y-130490048D03*
X139500000Y-131990048D03*
X143000000Y-130490048D03*
X143000000Y-131990048D03*
X146500000Y-130490048D03*
X146500000Y-131990048D03*
X150000000Y-130490048D03*
X150000000Y-131990048D03*
X153500000Y-130490048D03*
X153500000Y-131990048D03*
X159500000Y-132000000D03*
X159500000Y-130500000D03*
X163000000Y-132000000D03*
X163000000Y-130500000D03*
D11*
X159512000Y-127101600D03*
X162991800Y-127101600D03*
D12*
X146950000Y-139575000D03*
X146950000Y-138075000D03*
D13*
X162725000Y-135300000D03*
D14*
X163995000Y-135300000D03*
D13*
X156550000Y-135300000D03*
D14*
X157820000Y-135300000D03*
D15*
X54864000Y-151868000D03*
X54864000Y-150368000D03*
X61976000Y-150368000D03*
X61976000Y-151868000D03*
X54864000Y-135914000D03*
X54864000Y-137414000D03*
X61976000Y-137414000D03*
X61976000Y-135914000D03*
X80264000Y-151868000D03*
X80264000Y-150368000D03*
X87376000Y-150368000D03*
X87376000Y-151868000D03*
X80518000Y-135914000D03*
X80518000Y-137414000D03*
X87376000Y-137414000D03*
X87376000Y-135914000D03*
X55118000Y-169418000D03*
X55118000Y-170918000D03*
X61976000Y-170918000D03*
X61976000Y-169418000D03*
X55118000Y-156464000D03*
X55118000Y-154964000D03*
X61976000Y-154964000D03*
X61976000Y-156464000D03*
X80264000Y-169418000D03*
X80264000Y-170918000D03*
X87122000Y-170918000D03*
X87122000Y-169418000D03*
X80264000Y-156464000D03*
X80264000Y-154964000D03*
X87122000Y-154964000D03*
X87122000Y-156464000D03*
D16*
X65659000Y-148590000D03*
X65024000Y-148590000D03*
X64389000Y-148590000D03*
X63754000Y-148590000D03*
X63119000Y-148590000D03*
X62484000Y-148590000D03*
X61849000Y-148590000D03*
X61214000Y-148590000D03*
X60579000Y-148590000D03*
X59944000Y-148590000D03*
X59309000Y-148590000D03*
X58674000Y-148590000D03*
X58039000Y-148590000D03*
X57404000Y-148590000D03*
X56769000Y-148590000D03*
X56134000Y-148590000D03*
X55499000Y-148590000D03*
X54864000Y-148590000D03*
X54229000Y-148590000D03*
X53594000Y-148590000D03*
X52959000Y-148590000D03*
X52324000Y-148590000D03*
X51689000Y-148590000D03*
X51054000Y-148590000D03*
X51054000Y-139190000D03*
X51689000Y-139190000D03*
X52324000Y-139190000D03*
X52959000Y-139190000D03*
X53594000Y-139190000D03*
X54229000Y-139190000D03*
X54864000Y-139190000D03*
X55499000Y-139190000D03*
X56134000Y-139190000D03*
X56769000Y-139190000D03*
X57404000Y-139190000D03*
X58039000Y-139190000D03*
X58674000Y-139190000D03*
X59309000Y-139190000D03*
X59944000Y-139190000D03*
X60579000Y-139190000D03*
X61214000Y-139190000D03*
X61849000Y-139190000D03*
X62484000Y-139190000D03*
X63119000Y-139190000D03*
X63754000Y-139190000D03*
X64389000Y-139190000D03*
X65024000Y-139190000D03*
X65659000Y-139190000D03*
X91186000Y-139192000D03*
X90551000Y-139192000D03*
X89916000Y-139192000D03*
X89281000Y-139192000D03*
X88646000Y-139192000D03*
X88011000Y-139192000D03*
X87376000Y-139192000D03*
X86741000Y-139192000D03*
X86106000Y-139192000D03*
X85471000Y-139192000D03*
X84836000Y-139192000D03*
X84201000Y-139192000D03*
X83566000Y-139192000D03*
X82931000Y-139192000D03*
X82296000Y-139192000D03*
X81661000Y-139192000D03*
X81026000Y-139192000D03*
X80391000Y-139192000D03*
X79756000Y-139192000D03*
X79121000Y-139192000D03*
X78486000Y-139192000D03*
X77851000Y-139192000D03*
X77216000Y-139192000D03*
X76581000Y-139192000D03*
X76581000Y-148592000D03*
X77216000Y-148592000D03*
X77851000Y-148592000D03*
X78486000Y-148592000D03*
X79121000Y-148592000D03*
X79756000Y-148592000D03*
X80391000Y-148592000D03*
X81026000Y-148592000D03*
X81661000Y-148592000D03*
X82296000Y-148592000D03*
X82931000Y-148592000D03*
X83566000Y-148592000D03*
X84201000Y-148592000D03*
X84836000Y-148592000D03*
X85471000Y-148592000D03*
X86106000Y-148592000D03*
X86741000Y-148592000D03*
X87376000Y-148592000D03*
X88011000Y-148592000D03*
X88646000Y-148592000D03*
X89281000Y-148592000D03*
X89916000Y-148592000D03*
X90551000Y-148592000D03*
X91186000Y-148592000D03*
X65786000Y-158240000D03*
X65151000Y-158240000D03*
X64516000Y-158240000D03*
X63881000Y-158240000D03*
X63246000Y-158240000D03*
X62611000Y-158240000D03*
X61976000Y-158240000D03*
X61341000Y-158240000D03*
X60706000Y-158240000D03*
X60071000Y-158240000D03*
X59436000Y-158240000D03*
X58801000Y-158240000D03*
X58166000Y-158240000D03*
X57531000Y-158240000D03*
X56896000Y-158240000D03*
X56261000Y-158240000D03*
X55626000Y-158240000D03*
X54991000Y-158240000D03*
X54356000Y-158240000D03*
X53721000Y-158240000D03*
X53086000Y-158240000D03*
X52451000Y-158240000D03*
X51816000Y-158240000D03*
X51181000Y-158240000D03*
X51181000Y-167640000D03*
X51816000Y-167640000D03*
X52451000Y-167640000D03*
X53086000Y-167640000D03*
X53721000Y-167640000D03*
X54356000Y-167640000D03*
X54991000Y-167640000D03*
X55626000Y-167640000D03*
X56261000Y-167640000D03*
X56896000Y-167640000D03*
X57531000Y-167640000D03*
X58166000Y-167640000D03*
X58801000Y-167640000D03*
X59436000Y-167640000D03*
X60071000Y-167640000D03*
X60706000Y-167640000D03*
X61341000Y-167640000D03*
X61976000Y-167640000D03*
X62611000Y-167640000D03*
X63246000Y-167640000D03*
X63881000Y-167640000D03*
X64516000Y-167640000D03*
X65151000Y-167640000D03*
X65786000Y-167640000D03*
X91059000Y-167642000D03*
X90424000Y-167642000D03*
X89789000Y-167642000D03*
X89154000Y-167642000D03*
X88519000Y-167642000D03*
X87884000Y-167642000D03*
X87249000Y-167642000D03*
X86614000Y-167642000D03*
X85979000Y-167642000D03*
X85344000Y-167642000D03*
X84709000Y-167642000D03*
X84074000Y-167642000D03*
X83439000Y-167642000D03*
X82804000Y-167642000D03*
X82169000Y-167642000D03*
X81534000Y-167642000D03*
X80899000Y-167642000D03*
X80264000Y-167642000D03*
X79629000Y-167642000D03*
X78994000Y-167642000D03*
X78359000Y-167642000D03*
X77724000Y-167642000D03*
X77089000Y-167642000D03*
X76454000Y-167642000D03*
X76454000Y-158242000D03*
X77089000Y-158242000D03*
X77724000Y-158242000D03*
X78359000Y-158242000D03*
X78994000Y-158242000D03*
X79629000Y-158242000D03*
X80264000Y-158242000D03*
X80899000Y-158242000D03*
X81534000Y-158242000D03*
X82169000Y-158242000D03*
X82804000Y-158242000D03*
X83439000Y-158242000D03*
X84074000Y-158242000D03*
X84709000Y-158242000D03*
X85344000Y-158242000D03*
X85979000Y-158242000D03*
X86614000Y-158242000D03*
X87249000Y-158242000D03*
X87884000Y-158242000D03*
X88519000Y-158242000D03*
X89154000Y-158242000D03*
X89789000Y-158242000D03*
X90424000Y-158242000D03*
X91059000Y-158242000D03*
M02*
