G04 #@! TF.GenerationSoftware,KiCad,Pcbnew,(2018-02-14 revision 6afdf1cf8)-makepkg*
G04 #@! TF.CreationDate,2018-05-17T19:59:26-07:00*
G04 #@! TF.ProjectId,register-card,72656769737465722D636172642E6B69,rev?*
G04 #@! TF.SameCoordinates,Original*
G04 #@! TF.FileFunction,Copper,L4,Bot,Signal*
G04 #@! TF.FilePolarity,Positive*
%FSLAX46Y46*%
G04 Gerber Fmt 4.6, Leading zero omitted, Abs format (unit mm)*
G04 Created by KiCad (PCBNEW (2018-02-14 revision 6afdf1cf8)-makepkg) date 05/17/18 19:59:26*
%MOMM*%
%LPD*%
G01*
G04 APERTURE LIST*
%ADD10R,0.700000X4.400000*%
%ADD11R,2.000000X4.000000*%
%ADD12R,1.000000X1.000000*%
%ADD13O,1.000000X1.000000*%
%ADD14R,0.750000X0.800000*%
%ADD15R,0.400000X1.200000*%
%ADD16C,0.600000*%
%ADD17C,0.177800*%
G04 APERTURE END LIST*
D10*
X47548800Y-178638200D03*
X48548800Y-178638200D03*
X49548800Y-178638200D03*
X50548800Y-178638200D03*
X51548800Y-178638200D03*
X52548800Y-178638200D03*
X53548800Y-178638200D03*
X54548800Y-178638200D03*
X55548800Y-178638200D03*
X56548800Y-178638200D03*
X57548800Y-178638200D03*
X60548800Y-178638200D03*
X61548800Y-178638200D03*
X62548800Y-178638200D03*
X63548800Y-178638200D03*
X64548800Y-178638200D03*
X65548800Y-178638200D03*
X66548800Y-178638200D03*
X67548800Y-178638200D03*
X68548800Y-178638200D03*
X69548800Y-178638200D03*
X70548800Y-178638200D03*
X71548800Y-178638200D03*
X72548800Y-178638200D03*
X73548800Y-178638200D03*
X74548800Y-178638200D03*
X75548800Y-178638200D03*
X76548800Y-178638200D03*
X77548800Y-178638200D03*
X78548800Y-178638200D03*
X79548800Y-178638200D03*
X80548800Y-178638200D03*
X81548800Y-178638200D03*
X82548800Y-178638200D03*
X83548800Y-178638200D03*
X84548800Y-178638200D03*
X85548800Y-178638200D03*
X86548800Y-178638200D03*
X87548800Y-178638200D03*
X88548800Y-178638200D03*
X89548800Y-178638200D03*
X90548800Y-178638200D03*
X91548800Y-178638200D03*
X92548800Y-178638200D03*
X93548800Y-178638200D03*
X94548800Y-178638200D03*
X95548800Y-178638200D03*
X96548800Y-178638200D03*
X97548800Y-178638200D03*
X107548800Y-178638200D03*
X120548800Y-178638200D03*
X108548800Y-178638200D03*
X109548800Y-178638200D03*
X110548800Y-178638200D03*
X111548800Y-178638200D03*
X112548800Y-178638200D03*
X113548800Y-178638200D03*
X114548800Y-178638200D03*
X115548800Y-178638200D03*
X116548800Y-178638200D03*
X117548800Y-178638200D03*
X121548800Y-178638200D03*
X122548800Y-178638200D03*
X123548800Y-178638200D03*
X124548800Y-178638200D03*
X125548800Y-178638200D03*
X126548800Y-178638200D03*
X127548800Y-178638200D03*
X128548800Y-178638200D03*
X129548800Y-178638200D03*
X130548800Y-178638200D03*
X131548800Y-178638200D03*
X132548800Y-178638200D03*
X133548800Y-178638200D03*
X134548800Y-178638200D03*
X135548800Y-178638200D03*
X136548800Y-178638200D03*
X137548800Y-178638200D03*
X138548800Y-178638200D03*
X139548800Y-178638200D03*
X140548800Y-178638200D03*
X141548800Y-178638200D03*
X142548800Y-178638200D03*
X143548800Y-178638200D03*
X144548800Y-178638200D03*
X145548800Y-178638200D03*
X146548800Y-178638200D03*
X147548800Y-178638200D03*
X148548800Y-178638200D03*
X149548800Y-178638200D03*
X150548800Y-178638200D03*
X151548800Y-178638200D03*
X152548800Y-178638200D03*
X153548800Y-178638200D03*
X154548800Y-178638200D03*
X155548800Y-178638200D03*
X156548800Y-178638200D03*
X157548800Y-178638200D03*
D11*
X45000000Y-127105416D03*
X48500000Y-127105416D03*
X52000000Y-127105416D03*
X55500000Y-127105416D03*
X59000000Y-127105416D03*
X62500000Y-127105416D03*
X66000000Y-127105416D03*
X69500000Y-127105416D03*
X73000000Y-127105416D03*
X76500000Y-127105416D03*
X80000000Y-127105416D03*
X83500000Y-127105416D03*
X87000000Y-127105416D03*
X90500000Y-127105416D03*
X94000000Y-127105416D03*
X97500000Y-127105416D03*
X101000000Y-127105416D03*
X104500000Y-127105416D03*
X108000000Y-127105416D03*
X111500000Y-127105416D03*
X115000000Y-127105416D03*
X118500000Y-127105416D03*
X122000000Y-127105416D03*
X125500000Y-127105416D03*
X129000000Y-127105416D03*
X132500000Y-127105416D03*
X136000000Y-127105416D03*
X139500000Y-127105416D03*
X143000000Y-127105416D03*
X146500000Y-127105416D03*
X150000000Y-127105416D03*
X153500000Y-127105416D03*
X159512000Y-127101600D03*
X162991800Y-127101600D03*
D12*
X162725000Y-135300000D03*
D13*
X163995000Y-135300000D03*
D12*
X156550000Y-135300000D03*
D13*
X157820000Y-135300000D03*
D14*
X115316000Y-170918000D03*
X115316000Y-169418000D03*
X122428000Y-169418000D03*
X122428000Y-170918000D03*
X115316000Y-154964000D03*
X115316000Y-156464000D03*
X122428000Y-156464000D03*
X122428000Y-154964000D03*
X55118000Y-170918000D03*
X55118000Y-169418000D03*
X61976000Y-169418000D03*
X61976000Y-170918000D03*
X55118000Y-154964000D03*
X55118000Y-156464000D03*
X61976000Y-156464000D03*
X61976000Y-154964000D03*
X80264000Y-170918000D03*
X80264000Y-169418000D03*
X87122000Y-169418000D03*
X87122000Y-170918000D03*
X80264000Y-154964000D03*
X80264000Y-156464000D03*
X87122000Y-156464000D03*
X87122000Y-154964000D03*
X138430000Y-170918000D03*
X138430000Y-169418000D03*
X145288000Y-169418000D03*
X145288000Y-170918000D03*
X138430000Y-154964000D03*
X138430000Y-156464000D03*
X145288000Y-156464000D03*
X145288000Y-154964000D03*
D15*
X126145240Y-158240000D03*
X125510240Y-158240000D03*
X124875240Y-158240000D03*
X124240240Y-158240000D03*
X123605240Y-158240000D03*
X122970240Y-158240000D03*
X122335240Y-158240000D03*
X121700240Y-158240000D03*
X121065240Y-158240000D03*
X120430240Y-158240000D03*
X119795240Y-158240000D03*
X119160240Y-158240000D03*
X118525240Y-158240000D03*
X117890240Y-158240000D03*
X117255240Y-158240000D03*
X116620240Y-158240000D03*
X115985240Y-158240000D03*
X115350240Y-158240000D03*
X114715240Y-158240000D03*
X114080240Y-158240000D03*
X113445240Y-158240000D03*
X112810240Y-158240000D03*
X112175240Y-158240000D03*
X111540240Y-158240000D03*
X111540240Y-167640000D03*
X112175240Y-167640000D03*
X112810240Y-167640000D03*
X113445240Y-167640000D03*
X114080240Y-167640000D03*
X114715240Y-167640000D03*
X115350240Y-167640000D03*
X115985240Y-167640000D03*
X116620240Y-167640000D03*
X117255240Y-167640000D03*
X117890240Y-167640000D03*
X118525240Y-167640000D03*
X119160240Y-167640000D03*
X119795240Y-167640000D03*
X120430240Y-167640000D03*
X121065240Y-167640000D03*
X121700240Y-167640000D03*
X122335240Y-167640000D03*
X122970240Y-167640000D03*
X123605240Y-167640000D03*
X124240240Y-167640000D03*
X124875240Y-167640000D03*
X125510240Y-167640000D03*
X126145240Y-167640000D03*
X65786000Y-158240000D03*
X65151000Y-158240000D03*
X64516000Y-158240000D03*
X63881000Y-158240000D03*
X63246000Y-158240000D03*
X62611000Y-158240000D03*
X61976000Y-158240000D03*
X61341000Y-158240000D03*
X60706000Y-158240000D03*
X60071000Y-158240000D03*
X59436000Y-158240000D03*
X58801000Y-158240000D03*
X58166000Y-158240000D03*
X57531000Y-158240000D03*
X56896000Y-158240000D03*
X56261000Y-158240000D03*
X55626000Y-158240000D03*
X54991000Y-158240000D03*
X54356000Y-158240000D03*
X53721000Y-158240000D03*
X53086000Y-158240000D03*
X52451000Y-158240000D03*
X51816000Y-158240000D03*
X51181000Y-158240000D03*
X51181000Y-167640000D03*
X51816000Y-167640000D03*
X52451000Y-167640000D03*
X53086000Y-167640000D03*
X53721000Y-167640000D03*
X54356000Y-167640000D03*
X54991000Y-167640000D03*
X55626000Y-167640000D03*
X56261000Y-167640000D03*
X56896000Y-167640000D03*
X57531000Y-167640000D03*
X58166000Y-167640000D03*
X58801000Y-167640000D03*
X59436000Y-167640000D03*
X60071000Y-167640000D03*
X60706000Y-167640000D03*
X61341000Y-167640000D03*
X61976000Y-167640000D03*
X62611000Y-167640000D03*
X63246000Y-167640000D03*
X63881000Y-167640000D03*
X64516000Y-167640000D03*
X65151000Y-167640000D03*
X65786000Y-167640000D03*
X149098000Y-167640000D03*
X148463000Y-167640000D03*
X147828000Y-167640000D03*
X147193000Y-167640000D03*
X146558000Y-167640000D03*
X145923000Y-167640000D03*
X145288000Y-167640000D03*
X144653000Y-167640000D03*
X144018000Y-167640000D03*
X143383000Y-167640000D03*
X142748000Y-167640000D03*
X142113000Y-167640000D03*
X141478000Y-167640000D03*
X140843000Y-167640000D03*
X140208000Y-167640000D03*
X139573000Y-167640000D03*
X138938000Y-167640000D03*
X138303000Y-167640000D03*
X137668000Y-167640000D03*
X137033000Y-167640000D03*
X136398000Y-167640000D03*
X135763000Y-167640000D03*
X135128000Y-167640000D03*
X134493000Y-167640000D03*
X134493000Y-158240000D03*
X135128000Y-158240000D03*
X135763000Y-158240000D03*
X136398000Y-158240000D03*
X137033000Y-158240000D03*
X137668000Y-158240000D03*
X138303000Y-158240000D03*
X138938000Y-158240000D03*
X139573000Y-158240000D03*
X140208000Y-158240000D03*
X140843000Y-158240000D03*
X141478000Y-158240000D03*
X142113000Y-158240000D03*
X142748000Y-158240000D03*
X143383000Y-158240000D03*
X144018000Y-158240000D03*
X144653000Y-158240000D03*
X145288000Y-158240000D03*
X145923000Y-158240000D03*
X146558000Y-158240000D03*
X147193000Y-158240000D03*
X147828000Y-158240000D03*
X148463000Y-158240000D03*
X149098000Y-158240000D03*
X91059000Y-167642000D03*
X90424000Y-167642000D03*
X89789000Y-167642000D03*
X89154000Y-167642000D03*
X88519000Y-167642000D03*
X87884000Y-167642000D03*
X87249000Y-167642000D03*
X86614000Y-167642000D03*
X85979000Y-167642000D03*
X85344000Y-167642000D03*
X84709000Y-167642000D03*
X84074000Y-167642000D03*
X83439000Y-167642000D03*
X82804000Y-167642000D03*
X82169000Y-167642000D03*
X81534000Y-167642000D03*
X80899000Y-167642000D03*
X80264000Y-167642000D03*
X79629000Y-167642000D03*
X78994000Y-167642000D03*
X78359000Y-167642000D03*
X77724000Y-167642000D03*
X77089000Y-167642000D03*
X76454000Y-167642000D03*
X76454000Y-158242000D03*
X77089000Y-158242000D03*
X77724000Y-158242000D03*
X78359000Y-158242000D03*
X78994000Y-158242000D03*
X79629000Y-158242000D03*
X80264000Y-158242000D03*
X80899000Y-158242000D03*
X81534000Y-158242000D03*
X82169000Y-158242000D03*
X82804000Y-158242000D03*
X83439000Y-158242000D03*
X84074000Y-158242000D03*
X84709000Y-158242000D03*
X85344000Y-158242000D03*
X85979000Y-158242000D03*
X86614000Y-158242000D03*
X87249000Y-158242000D03*
X87884000Y-158242000D03*
X88519000Y-158242000D03*
X89154000Y-158242000D03*
X89789000Y-158242000D03*
X90424000Y-158242000D03*
X91059000Y-158242000D03*
D16*
X88134891Y-155619658D03*
X88569800Y-136906000D03*
X81203800Y-156413200D03*
X147599400Y-175564800D03*
X136550400Y-175514000D03*
X125552200Y-175514000D03*
X112547400Y-175539400D03*
X137261600Y-170205400D03*
X146431000Y-170154600D03*
X121285000Y-169849800D03*
X114020600Y-169849800D03*
X85961510Y-170184041D03*
X79146400Y-170154600D03*
X146964400Y-140766800D03*
X63050458Y-155507066D03*
X56166907Y-155407094D03*
X63042800Y-151155400D03*
X81483200Y-136677400D03*
X123545195Y-155176510D03*
X116472578Y-155176510D03*
X139471400Y-155176510D03*
X146261289Y-156589340D03*
X81331329Y-151063389D03*
X88468200Y-150926800D03*
X63068200Y-137109200D03*
X55930800Y-137083800D03*
X60909200Y-170281600D03*
X53975000Y-169748200D03*
X55930800Y-150901400D03*
X87579200Y-175615600D03*
X76606400Y-175615600D03*
X65582800Y-175615600D03*
X52578000Y-175463200D03*
X46786800Y-127105416D03*
X50215800Y-127105416D03*
X53746400Y-127105416D03*
X57226200Y-127105416D03*
X60680600Y-127105416D03*
X64236600Y-127105416D03*
X67716400Y-127105416D03*
X71272400Y-127105416D03*
X74777600Y-127105416D03*
X78308200Y-127105416D03*
X81788000Y-127105416D03*
X85217000Y-127105416D03*
X88798400Y-127105416D03*
X92202000Y-127105416D03*
X95681800Y-127105416D03*
X99237800Y-127105416D03*
X102743000Y-127105416D03*
X106222800Y-127105416D03*
X109753400Y-127105416D03*
X113258600Y-127105416D03*
X116713000Y-127105416D03*
X120269000Y-127105416D03*
X123774200Y-127105416D03*
X127279400Y-127105416D03*
X130759200Y-127105416D03*
X134213600Y-127105416D03*
X137769600Y-127105416D03*
X141249400Y-127105416D03*
X144703800Y-127105416D03*
X148259800Y-127105416D03*
X151739600Y-127105416D03*
X136398000Y-159512000D03*
X86004400Y-137007600D03*
X80441800Y-134823200D03*
X87172800Y-153822400D03*
X80467200Y-153847800D03*
X124180600Y-156921200D03*
X120370600Y-156870400D03*
X117170200Y-156895800D03*
X113385600Y-156946600D03*
X147193000Y-166293800D03*
X143281400Y-166344600D03*
X140182600Y-166344600D03*
X136372600Y-166370000D03*
X113834890Y-170916600D03*
X150520400Y-175539400D03*
X144602200Y-175564800D03*
X139598400Y-175564800D03*
X133604000Y-175514000D03*
X128600200Y-175463200D03*
X122529600Y-175564800D03*
X115519200Y-175539400D03*
X109550200Y-175514000D03*
X113411000Y-166319200D03*
X117271800Y-166319200D03*
X120472200Y-166319200D03*
X124256800Y-166370000D03*
X140284200Y-159486600D03*
X145262600Y-172034200D03*
X138430000Y-172110400D03*
X121285000Y-170942000D03*
X63804800Y-147218400D03*
X59893200Y-147167600D03*
X56769000Y-147218400D03*
X52882800Y-147193000D03*
X89154000Y-166370000D03*
X85293200Y-166420800D03*
X82118200Y-166395400D03*
X78308200Y-166395400D03*
X87147400Y-172059600D03*
X80264000Y-171958000D03*
X43027600Y-127101600D03*
X155270200Y-126517400D03*
X63881000Y-166462144D03*
X65785412Y-156787715D03*
X63881000Y-156819600D03*
X59969400Y-156718000D03*
X56870600Y-156819600D03*
X51079400Y-156794200D03*
X53009800Y-156794200D03*
X89179400Y-159554758D03*
X89230200Y-147320000D03*
X85471000Y-147269200D03*
X82346800Y-147294600D03*
X78460600Y-147294600D03*
X78511400Y-140487400D03*
X89281000Y-140487400D03*
X85521800Y-140411200D03*
X82270600Y-140462000D03*
X115366800Y-153662075D03*
X122428000Y-153662075D03*
X138430000Y-153662077D03*
X145938529Y-152747690D03*
X81381600Y-151841200D03*
X78359000Y-159512000D03*
X143408400Y-159461200D03*
X147218400Y-159512000D03*
X88417400Y-151866600D03*
X82169000Y-159486600D03*
X85369400Y-159512000D03*
X91109800Y-159512000D03*
X63855600Y-140589000D03*
X59994800Y-140538200D03*
X63144400Y-135331200D03*
X56032400Y-135331200D03*
X56819800Y-140512800D03*
X52959000Y-140487400D03*
X61976000Y-153771600D03*
X54864000Y-153695400D03*
X60045600Y-166116000D03*
X56896000Y-166116000D03*
X53060600Y-166243000D03*
X62243871Y-171881886D03*
X54965600Y-172008800D03*
X90576400Y-175564800D03*
X84582000Y-175666400D03*
X79552800Y-175615600D03*
X73609200Y-175666400D03*
X68630800Y-175615600D03*
X62636400Y-175615600D03*
X55626000Y-175463200D03*
X49580800Y-175412400D03*
X111556800Y-156616398D03*
X91567000Y-156591000D03*
X126085600Y-156921200D03*
X92633800Y-168503600D03*
X65709800Y-150088600D03*
X92024200Y-148615400D03*
X76581000Y-147116800D03*
X159512000Y-136271000D03*
X150774400Y-167513000D03*
X77063600Y-137744202D03*
X100965000Y-132816600D03*
X107950000Y-133037246D03*
X78536798Y-137693400D03*
X114909600Y-133037246D03*
X81889600Y-134493000D03*
X83856082Y-135149033D03*
X122021600Y-133037246D03*
X104495600Y-133037246D03*
X77901226Y-136309111D03*
X111531400Y-133037246D03*
X79425800Y-136169400D03*
X118440200Y-133037246D03*
X83092933Y-136728200D03*
X67310000Y-160121600D03*
X125399800Y-159588200D03*
X65009084Y-159485734D03*
X124815600Y-160223200D03*
X65405000Y-161061400D03*
X123647200Y-160274000D03*
X63099058Y-159532252D03*
X122961402Y-160807402D03*
X63601600Y-161061400D03*
X121691400Y-160883600D03*
X61200437Y-159493701D03*
X120980200Y-161467798D03*
X61722000Y-161086800D03*
X119786400Y-161569400D03*
X58674000Y-156057600D03*
X119126000Y-162229800D03*
X58713852Y-159581899D03*
X118491000Y-162890200D03*
X59298417Y-161185545D03*
X117906800Y-163626800D03*
X56907045Y-159583764D03*
X116586000Y-163652200D03*
X57505600Y-161112200D03*
X115951000Y-164338000D03*
X54996741Y-159484759D03*
X114757200Y-164414200D03*
X55625996Y-161112200D03*
X114020600Y-164998400D03*
X53147432Y-159565704D03*
X112826800Y-165023800D03*
X112195999Y-165676290D03*
X53771800Y-161137600D03*
X77089000Y-154279600D03*
X135077200Y-147548602D03*
X135763000Y-148132801D03*
X77724000Y-156210000D03*
X78587604Y-154432000D03*
X137033000Y-148209000D03*
X137718800Y-148767800D03*
X79171800Y-156210000D03*
X81538356Y-154995914D03*
X139547600Y-148767800D03*
X82423000Y-153593800D03*
X140233400Y-149402798D03*
X82829400Y-156489400D03*
X140817599Y-150063200D03*
X83532690Y-155026015D03*
X141477996Y-150672800D03*
X84099400Y-153568400D03*
X142113000Y-151307798D03*
X142773400Y-151942800D03*
X84709000Y-156667200D03*
X143718635Y-152494086D03*
X85445600Y-155041598D03*
X144348200Y-152950857D03*
X86131400Y-156514800D03*
X89001600Y-154025600D03*
X146563357Y-153261025D03*
X147339768Y-153307694D03*
X89008885Y-156877684D03*
X90119200Y-155168600D03*
X147941461Y-154623410D03*
X148564600Y-155448000D03*
X90830400Y-156997400D03*
D17*
X87122000Y-156464000D02*
X87122000Y-156439000D01*
X87941342Y-155619658D02*
X88134891Y-155619658D01*
X87122000Y-156439000D02*
X87941342Y-155619658D01*
X80264000Y-156464000D02*
X81153000Y-156464000D01*
X81153000Y-156464000D02*
X81203800Y-156413200D01*
X147599400Y-175564800D02*
X147599400Y-178587600D01*
X147599400Y-178587600D02*
X147548800Y-178638200D01*
X136548800Y-175515600D02*
X136550400Y-175514000D01*
X136548800Y-178638200D02*
X136548800Y-175515600D01*
X125552200Y-175514000D02*
X125552200Y-178634800D01*
X125552200Y-178634800D02*
X125548800Y-178638200D01*
X112548800Y-175540800D02*
X112547400Y-175539400D01*
X112548800Y-178638200D02*
X112548800Y-175540800D01*
X138049000Y-169418000D02*
X137261600Y-170205400D01*
X138430000Y-169418000D02*
X138049000Y-169418000D01*
X145694400Y-169418000D02*
X146431000Y-170154600D01*
X145288000Y-169418000D02*
X145694400Y-169418000D01*
X145288000Y-169418000D02*
X145288000Y-168840200D01*
X145288000Y-168840200D02*
X145288000Y-167640000D01*
X138430000Y-169418000D02*
X138430000Y-167767000D01*
X138430000Y-167767000D02*
X138303000Y-167640000D01*
X121716800Y-169418000D02*
X121285000Y-169849800D01*
X122428000Y-169418000D02*
X121716800Y-169418000D01*
X115316000Y-169418000D02*
X114452400Y-169418000D01*
X114452400Y-169418000D02*
X114020600Y-169849800D01*
X122428000Y-169418000D02*
X122428000Y-167732760D01*
X122428000Y-167732760D02*
X122335240Y-167640000D01*
X115316000Y-169418000D02*
X115316000Y-167674240D01*
X115316000Y-167674240D02*
X115350240Y-167640000D01*
X87122000Y-169418000D02*
X87122000Y-169443000D01*
X87122000Y-169443000D02*
X86380959Y-170184041D01*
X86380959Y-170184041D02*
X85961510Y-170184041D01*
X79883000Y-169418000D02*
X79146400Y-170154600D01*
X80264000Y-169418000D02*
X79883000Y-169418000D01*
X87249000Y-167642000D02*
X87249000Y-169291000D01*
X87249000Y-169291000D02*
X87122000Y-169418000D01*
X80264000Y-167642000D02*
X80264000Y-169418000D01*
X62907934Y-155507066D02*
X63050458Y-155507066D01*
X61976000Y-156439000D02*
X62907934Y-155507066D01*
X61976000Y-156464000D02*
X61976000Y-156439000D01*
X56149906Y-155407094D02*
X56166907Y-155407094D01*
X55118000Y-156464000D02*
X55118000Y-156439000D01*
X55118000Y-156439000D02*
X56149906Y-155407094D01*
X138430000Y-156439000D02*
X139471400Y-155397600D01*
X146135949Y-156464000D02*
X146261289Y-156589340D01*
X122428000Y-156464000D02*
X122428000Y-156439000D01*
X122428000Y-156439000D02*
X123545195Y-155321805D01*
X139471400Y-155397600D02*
X139471400Y-155176510D01*
X138430000Y-156464000D02*
X138430000Y-156439000D01*
X115316000Y-156439000D02*
X116472578Y-155282422D01*
X115316000Y-156464000D02*
X115316000Y-156439000D01*
X116472578Y-155282422D02*
X116472578Y-155176510D01*
X123545195Y-155321805D02*
X123545195Y-155176510D01*
X145288000Y-156464000D02*
X146135949Y-156464000D01*
X122428000Y-156464000D02*
X122428000Y-158147240D01*
X122428000Y-158147240D02*
X122335240Y-158240000D01*
X115316000Y-156464000D02*
X115316000Y-158205760D01*
X115316000Y-158205760D02*
X115350240Y-158240000D01*
X60909200Y-170281600D02*
X61112400Y-170281600D01*
X61112400Y-170281600D02*
X61976000Y-169418000D01*
X55118000Y-169418000D02*
X54305200Y-169418000D01*
X54305200Y-169418000D02*
X53975000Y-169748200D01*
X80264000Y-156464000D02*
X80264000Y-157041800D01*
X80264000Y-157041800D02*
X80264000Y-158242000D01*
X138303000Y-158240000D02*
X138303000Y-156591000D01*
X138303000Y-156591000D02*
X138430000Y-156464000D01*
X145288000Y-156464000D02*
X145288000Y-158240000D01*
X87122000Y-156464000D02*
X87122000Y-158115000D01*
X87122000Y-158115000D02*
X87249000Y-158242000D01*
X61976000Y-158240000D02*
X61976000Y-156464000D01*
X62001400Y-158265400D02*
X61976000Y-158240000D01*
X55118000Y-156464000D02*
X55118000Y-158113000D01*
X55118000Y-158113000D02*
X54991000Y-158240000D01*
X61976000Y-167640000D02*
X61976000Y-169418000D01*
X54991000Y-167640000D02*
X54991000Y-169291000D01*
X54991000Y-169291000D02*
X55118000Y-169418000D01*
X87548800Y-175646000D02*
X87579200Y-175615600D01*
X87548800Y-178638200D02*
X87548800Y-175646000D01*
X76606400Y-175615600D02*
X76606400Y-178580600D01*
X76606400Y-178580600D02*
X76548800Y-178638200D01*
X65548800Y-175649600D02*
X65582800Y-175615600D01*
X65548800Y-178638200D02*
X65548800Y-175649600D01*
X52578000Y-175463200D02*
X52578000Y-178609000D01*
X52578000Y-178609000D02*
X52548800Y-178638200D01*
X46786800Y-127105416D02*
X45000000Y-127105416D01*
X48500000Y-127105416D02*
X46786800Y-127105416D01*
X50215800Y-127105416D02*
X48500000Y-127105416D01*
X52000000Y-127105416D02*
X50215800Y-127105416D01*
X53746400Y-127105416D02*
X52000000Y-127105416D01*
X55500000Y-127105416D02*
X53746400Y-127105416D01*
X57226200Y-127105416D02*
X55500000Y-127105416D01*
X59000000Y-127105416D02*
X57226200Y-127105416D01*
X60680600Y-127105416D02*
X59000000Y-127105416D01*
X62500000Y-127105416D02*
X60680600Y-127105416D01*
X64236600Y-127105416D02*
X62500000Y-127105416D01*
X66000000Y-127105416D02*
X64236600Y-127105416D01*
X67716400Y-127105416D02*
X66000000Y-127105416D01*
X69500000Y-127105416D02*
X67716400Y-127105416D01*
X71272400Y-127105416D02*
X69500000Y-127105416D01*
X73000000Y-127105416D02*
X71272400Y-127105416D01*
X74777600Y-127105416D02*
X73000000Y-127105416D01*
X76500000Y-127105416D02*
X74777600Y-127105416D01*
X78308200Y-127105416D02*
X76500000Y-127105416D01*
X80000000Y-127105416D02*
X78308200Y-127105416D01*
X81788000Y-127105416D02*
X80000000Y-127105416D01*
X83500000Y-127105416D02*
X81788000Y-127105416D01*
X85217000Y-127105416D02*
X83500000Y-127105416D01*
X87000000Y-127105416D02*
X85217000Y-127105416D01*
X88798400Y-127105416D02*
X87000000Y-127105416D01*
X90500000Y-127105416D02*
X88798400Y-127105416D01*
X92202000Y-127105416D02*
X90500000Y-127105416D01*
X94000000Y-127105416D02*
X92202000Y-127105416D01*
X95681800Y-127105416D02*
X94000000Y-127105416D01*
X97500000Y-127105416D02*
X95681800Y-127105416D01*
X99237800Y-127105416D02*
X97500000Y-127105416D01*
X101000000Y-127105416D02*
X99237800Y-127105416D01*
X102743000Y-127105416D02*
X101000000Y-127105416D01*
X104500000Y-127105416D02*
X102743000Y-127105416D01*
X106222800Y-127105416D02*
X104500000Y-127105416D01*
X108000000Y-127105416D02*
X106222800Y-127105416D01*
X109753400Y-127105416D02*
X108000000Y-127105416D01*
X111500000Y-127105416D02*
X109753400Y-127105416D01*
X113258600Y-127105416D02*
X111500000Y-127105416D01*
X115000000Y-127105416D02*
X113258600Y-127105416D01*
X116713000Y-127105416D02*
X115000000Y-127105416D01*
X118500000Y-127105416D02*
X116713000Y-127105416D01*
X120269000Y-127105416D02*
X118500000Y-127105416D01*
X122000000Y-127105416D02*
X120269000Y-127105416D01*
X123774200Y-127105416D02*
X122000000Y-127105416D01*
X125500000Y-127105416D02*
X123774200Y-127105416D01*
X127279400Y-127105416D02*
X125500000Y-127105416D01*
X129000000Y-127105416D02*
X127279400Y-127105416D01*
X130759200Y-127105416D02*
X129000000Y-127105416D01*
X132500000Y-127105416D02*
X130759200Y-127105416D01*
X134213600Y-127105416D02*
X132500000Y-127105416D01*
X136000000Y-127105416D02*
X134213600Y-127105416D01*
X137769600Y-127105416D02*
X136000000Y-127105416D01*
X139500000Y-127105416D02*
X137769600Y-127105416D01*
X141249400Y-127105416D02*
X139500000Y-127105416D01*
X143000000Y-127105416D02*
X141249400Y-127105416D01*
X144703800Y-127105416D02*
X143000000Y-127105416D01*
X146500000Y-127105416D02*
X144703800Y-127105416D01*
X148259800Y-127105416D02*
X146500000Y-127105416D01*
X150000000Y-127105416D02*
X148259800Y-127105416D01*
X151739600Y-127105416D02*
X150000000Y-127105416D01*
X153500000Y-127105416D02*
X151739600Y-127105416D01*
X136398000Y-158240000D02*
X136398000Y-159512000D01*
X87122000Y-153873200D02*
X87172800Y-153822400D01*
X87122000Y-154964000D02*
X87122000Y-153873200D01*
X80264000Y-154051000D02*
X80467200Y-153847800D01*
X80264000Y-154964000D02*
X80264000Y-154051000D01*
X124240240Y-156980840D02*
X124180600Y-156921200D01*
X124240240Y-158240000D02*
X124240240Y-156980840D01*
X120430240Y-156930040D02*
X120370600Y-156870400D01*
X120430240Y-158240000D02*
X120430240Y-156930040D01*
X117255240Y-156980840D02*
X117170200Y-156895800D01*
X117255240Y-158240000D02*
X117255240Y-156980840D01*
X113445240Y-157006240D02*
X113385600Y-156946600D01*
X113445240Y-158240000D02*
X113445240Y-157006240D01*
X147193000Y-167640000D02*
X147193000Y-166293800D01*
X143383000Y-166446200D02*
X143281400Y-166344600D01*
X143383000Y-167640000D02*
X143383000Y-166446200D01*
X140208000Y-166370000D02*
X140182600Y-166344600D01*
X140208000Y-167640000D02*
X140208000Y-166370000D01*
X136398000Y-166395400D02*
X136372600Y-166370000D01*
X136398000Y-167640000D02*
X136398000Y-166395400D01*
X115316000Y-170918000D02*
X113836290Y-170918000D01*
X113836290Y-170918000D02*
X113834890Y-170916600D01*
X150548800Y-175567800D02*
X150520400Y-175539400D01*
X150548800Y-178638200D02*
X150548800Y-175567800D01*
X144548800Y-175618200D02*
X144602200Y-175564800D01*
X144548800Y-178638200D02*
X144548800Y-175618200D01*
X139598400Y-175564800D02*
X139598400Y-178588600D01*
X139598400Y-178588600D02*
X139548800Y-178638200D01*
X133604000Y-175514000D02*
X133604000Y-178583000D01*
X133604000Y-178583000D02*
X133548800Y-178638200D01*
X128548800Y-175514600D02*
X128600200Y-175463200D01*
X128548800Y-178638200D02*
X128548800Y-175514600D01*
X122548800Y-175584000D02*
X122529600Y-175564800D01*
X122548800Y-178638200D02*
X122548800Y-175584000D01*
X115519200Y-175539400D02*
X115519200Y-178608600D01*
X115519200Y-178608600D02*
X115548800Y-178638200D01*
X109550200Y-175514000D02*
X109550200Y-178636800D01*
X109550200Y-178636800D02*
X109548800Y-178638200D01*
X113445240Y-167640000D02*
X113445240Y-166353440D01*
X113445240Y-166353440D02*
X113411000Y-166319200D01*
X117255240Y-167640000D02*
X117255240Y-166335760D01*
X117255240Y-166335760D02*
X117271800Y-166319200D01*
X120430240Y-167640000D02*
X120430240Y-166361160D01*
X120430240Y-166361160D02*
X120472200Y-166319200D01*
X124240240Y-167640000D02*
X124240240Y-166386560D01*
X124240240Y-166386560D02*
X124256800Y-166370000D01*
X140208000Y-159410400D02*
X140284200Y-159486600D01*
X140208000Y-158240000D02*
X140208000Y-159410400D01*
X145288000Y-172008800D02*
X145262600Y-172034200D01*
X145288000Y-170918000D02*
X145288000Y-172008800D01*
X138430000Y-170918000D02*
X138430000Y-172110400D01*
X121309000Y-170918000D02*
X121285000Y-170942000D01*
X122428000Y-170918000D02*
X121309000Y-170918000D01*
X89154000Y-166370000D02*
X89154000Y-167642000D01*
X85344000Y-166471600D02*
X85293200Y-166420800D01*
X85344000Y-167642000D02*
X85344000Y-166471600D01*
X82118200Y-166395400D02*
X82118200Y-167591200D01*
X82118200Y-167591200D02*
X82169000Y-167642000D01*
X78359000Y-167642000D02*
X78359000Y-166446200D01*
X78359000Y-166446200D02*
X78308200Y-166395400D01*
X87147400Y-172059600D02*
X87147400Y-170943400D01*
X87147400Y-170943400D02*
X87122000Y-170918000D01*
X80264000Y-170918000D02*
X80264000Y-171958000D01*
X43031416Y-127105416D02*
X43027600Y-127101600D01*
X45000000Y-127105416D02*
X43031416Y-127105416D01*
X154677800Y-127105416D02*
X155265816Y-126517400D01*
X153500000Y-127105416D02*
X154677800Y-127105416D01*
X155265816Y-126517400D02*
X155270200Y-126517400D01*
X63881000Y-167640000D02*
X63881000Y-166462144D01*
X63881000Y-156819600D02*
X64320702Y-156379898D01*
X65485413Y-156487716D02*
X65785412Y-156787715D01*
X65377595Y-156379898D02*
X65485413Y-156487716D01*
X64320702Y-156379898D02*
X65377595Y-156379898D01*
X63881000Y-158240000D02*
X63881000Y-156819600D01*
X59969400Y-156718000D02*
X59969400Y-158138400D01*
X59969400Y-158138400D02*
X60071000Y-158240000D01*
X56896000Y-156845000D02*
X56870600Y-156819600D01*
X56896000Y-158240000D02*
X56896000Y-156845000D01*
X51079400Y-156794200D02*
X53009800Y-156794200D01*
X53086000Y-156870400D02*
X53009800Y-156794200D01*
X53086000Y-158240000D02*
X53086000Y-156870400D01*
X89154000Y-159529358D02*
X89179400Y-159554758D01*
X89154000Y-158242000D02*
X89154000Y-159529358D01*
X138430000Y-154964000D02*
X138430000Y-154386200D01*
X122428000Y-154964000D02*
X122428000Y-153662075D01*
X138430000Y-154386200D02*
X138430000Y-153662077D01*
X145638530Y-153047689D02*
X145938529Y-152747690D01*
X145288000Y-154964000D02*
X145288000Y-153398219D01*
X115316000Y-154964000D02*
X115316000Y-153712875D01*
X145288000Y-153398219D02*
X145638530Y-153047689D01*
X115316000Y-153712875D02*
X115366800Y-153662075D01*
X78359000Y-158242000D02*
X78359000Y-159512000D01*
X143383000Y-159435800D02*
X143408400Y-159461200D01*
X143383000Y-158240000D02*
X143383000Y-159435800D01*
X147193000Y-159486600D02*
X147218400Y-159512000D01*
X147193000Y-158240000D02*
X147193000Y-159486600D01*
X82169000Y-158242000D02*
X82169000Y-159486600D01*
X85369400Y-159512000D02*
X85369400Y-158267400D01*
X85369400Y-158267400D02*
X85344000Y-158242000D01*
X91109800Y-159512000D02*
X89646200Y-159512000D01*
X89646200Y-159512000D02*
X89154000Y-159019800D01*
X89154000Y-159019800D02*
X89154000Y-158242000D01*
X61976000Y-154964000D02*
X61976000Y-153771600D01*
X55118000Y-154964000D02*
X55118000Y-153949400D01*
X55118000Y-153949400D02*
X54864000Y-153695400D01*
X60045600Y-166116000D02*
X60045600Y-167614600D01*
X60045600Y-167614600D02*
X60071000Y-167640000D01*
X56896000Y-167640000D02*
X56896000Y-166116000D01*
X53086000Y-166268400D02*
X53060600Y-166243000D01*
X53086000Y-167640000D02*
X53086000Y-166268400D01*
X61976000Y-170918000D02*
X61976000Y-171614015D01*
X61976000Y-171614015D02*
X62243871Y-171881886D01*
X55118000Y-170918000D02*
X55118000Y-171856400D01*
X55118000Y-171856400D02*
X54965600Y-172008800D01*
X90548800Y-175592400D02*
X90576400Y-175564800D01*
X90548800Y-178638200D02*
X90548800Y-175592400D01*
X84582000Y-175666400D02*
X84582000Y-178605000D01*
X84582000Y-178605000D02*
X84548800Y-178638200D01*
X79548800Y-175619600D02*
X79552800Y-175615600D01*
X79548800Y-178638200D02*
X79548800Y-175619600D01*
X73609200Y-175666400D02*
X73609200Y-178577800D01*
X73609200Y-178577800D02*
X73548800Y-178638200D01*
X68548800Y-175697600D02*
X68630800Y-175615600D01*
X68548800Y-178638200D02*
X68548800Y-175697600D01*
X62636400Y-175615600D02*
X62636400Y-178550600D01*
X62636400Y-178550600D02*
X62548800Y-178638200D01*
X55548800Y-175540400D02*
X55626000Y-175463200D01*
X55548800Y-178638200D02*
X55548800Y-175540400D01*
X49548800Y-178638200D02*
X49548800Y-175444400D01*
X49548800Y-175444400D02*
X49580800Y-175412400D01*
X47548800Y-172745400D02*
X51816000Y-168478200D01*
X47548800Y-178638200D02*
X47548800Y-172745400D01*
X51816000Y-168478200D02*
X51816000Y-167640000D01*
X48615600Y-172491400D02*
X52451000Y-168656000D01*
X52451000Y-168656000D02*
X52451000Y-167640000D01*
X48615600Y-176193600D02*
X48615600Y-172491400D01*
X48548800Y-178638200D02*
X48548800Y-176260400D01*
X48548800Y-176260400D02*
X48615600Y-176193600D01*
X50546000Y-171805600D02*
X53721000Y-168630600D01*
X53721000Y-168630600D02*
X53721000Y-167640000D01*
X50546000Y-176257600D02*
X50546000Y-171805600D01*
X50548800Y-178638200D02*
X50548800Y-176260400D01*
X50548800Y-176260400D02*
X50546000Y-176257600D01*
X54356000Y-168528480D02*
X54356000Y-168417800D01*
X54356000Y-168417800D02*
X54356000Y-167640000D01*
X51548800Y-171335680D02*
X54356000Y-168528480D01*
X51548800Y-178638200D02*
X51548800Y-171335680D01*
X53746400Y-176062800D02*
X53548800Y-176260400D01*
X53746400Y-174091600D02*
X53746400Y-176062800D01*
X56134000Y-171704000D02*
X53746400Y-174091600D01*
X56134000Y-168925800D02*
X56134000Y-171704000D01*
X55626000Y-167640000D02*
X55626000Y-168417800D01*
X55626000Y-168417800D02*
X56134000Y-168925800D01*
X53548800Y-176260400D02*
X53548800Y-178638200D01*
X56184800Y-172389800D02*
X56261000Y-172313600D01*
X54508400Y-174066200D02*
X56184800Y-172389800D01*
X56642000Y-168798800D02*
X56642000Y-171932600D01*
X56642000Y-171932600D02*
X56184800Y-172389800D01*
X56261000Y-167640000D02*
X56261000Y-168417800D01*
X56261000Y-168417800D02*
X56642000Y-168798800D01*
X54508400Y-176220000D02*
X54508400Y-174066200D01*
X54548800Y-178638200D02*
X54548800Y-176260400D01*
X54548800Y-176260400D02*
X54508400Y-176220000D01*
X56692800Y-172491400D02*
X57531000Y-171653200D01*
X57531000Y-171653200D02*
X57531000Y-167640000D01*
X56692800Y-176116400D02*
X56692800Y-172491400D01*
X56548800Y-178638200D02*
X56548800Y-176260400D01*
X56548800Y-176260400D02*
X56692800Y-176116400D01*
X57548800Y-172727600D02*
X58166000Y-172110400D01*
X58166000Y-172110400D02*
X58166000Y-167640000D01*
X57548800Y-178638200D02*
X57548800Y-172727600D01*
X111540240Y-156632958D02*
X111556800Y-156616398D01*
X111540240Y-158240000D02*
X111540240Y-156632958D01*
X91567000Y-156591000D02*
X91567000Y-149072600D01*
X91567000Y-157334000D02*
X91567000Y-156591000D01*
X126085600Y-156921200D02*
X126085600Y-158180360D01*
X126085600Y-158180360D02*
X126145240Y-158240000D01*
X70358000Y-158240000D02*
X70662800Y-158240000D01*
X65786000Y-158240000D02*
X70358000Y-158240000D01*
X66598800Y-150977600D02*
X66598800Y-154480800D01*
X66598800Y-154480800D02*
X70358000Y-158240000D01*
X70662800Y-158240000D02*
X76452000Y-158240000D01*
X66573400Y-162026600D02*
X70360000Y-158240000D01*
X70360000Y-158240000D02*
X70662800Y-158240000D01*
X53213000Y-162026600D02*
X66573400Y-162026600D01*
X52324000Y-161137600D02*
X53213000Y-162026600D01*
X52324000Y-160160800D02*
X52324000Y-161137600D01*
X51181000Y-158240000D02*
X51181000Y-159017800D01*
X51181000Y-159017800D02*
X52324000Y-160160800D01*
X92633800Y-159969200D02*
X92633800Y-159439000D01*
X92633800Y-168503600D02*
X92633800Y-159969200D01*
X77784400Y-160350200D02*
X92252800Y-160350200D01*
X92252800Y-160350200D02*
X92633800Y-159969200D01*
X76454000Y-158242000D02*
X76454000Y-159019800D01*
X76454000Y-159019800D02*
X77784400Y-160350200D01*
X92633800Y-159439000D02*
X91436800Y-158242000D01*
X91436800Y-158242000D02*
X91059000Y-158242000D01*
X126145240Y-158240000D02*
X126523040Y-158240000D01*
X126523040Y-158240000D02*
X134493000Y-158240000D01*
X147511600Y-160604200D02*
X136079400Y-160604200D01*
X136079400Y-160604200D02*
X134493000Y-159017800D01*
X134493000Y-159017800D02*
X134493000Y-158240000D01*
X149098000Y-158240000D02*
X149098000Y-159017800D01*
X149098000Y-159017800D02*
X147511600Y-160604200D01*
X91567000Y-149072600D02*
X92024200Y-148615400D01*
X91059000Y-158242000D02*
X91059000Y-157842000D01*
X91059000Y-157842000D02*
X91567000Y-157334000D01*
X76454000Y-147243800D02*
X76581000Y-147116800D01*
X66598800Y-150977600D02*
X65709800Y-150088600D01*
X65786000Y-158240000D02*
X66163800Y-158240000D01*
X76452000Y-158240000D02*
X76454000Y-158242000D01*
X90830400Y-146456400D02*
X92024200Y-147650200D01*
X92024200Y-147650200D02*
X92024200Y-148615400D01*
X77241400Y-146456400D02*
X90830400Y-146456400D01*
X76581000Y-147116800D02*
X77241400Y-146456400D01*
X60452000Y-172745400D02*
X58801000Y-171094400D01*
X58801000Y-171094400D02*
X58801000Y-167640000D01*
X60452000Y-176163600D02*
X60452000Y-172745400D01*
X60548800Y-178638200D02*
X60548800Y-176260400D01*
X60548800Y-176260400D02*
X60452000Y-176163600D01*
X61548800Y-178638200D02*
X61548800Y-173197016D01*
X61548800Y-173197016D02*
X59436000Y-171084216D01*
X59436000Y-171084216D02*
X59436000Y-168417800D01*
X59436000Y-168417800D02*
X59436000Y-167640000D01*
X59986888Y-169136912D02*
X60706000Y-168417800D01*
X60706000Y-168417800D02*
X60706000Y-167640000D01*
X59986888Y-171132196D02*
X59986888Y-169136912D01*
X63548800Y-174694108D02*
X59986888Y-171132196D01*
X63548800Y-178638200D02*
X63548800Y-174694108D01*
X61341000Y-167640000D02*
X61341000Y-168417800D01*
X60342499Y-169416301D02*
X60342499Y-170984899D01*
X64548800Y-175191200D02*
X64548800Y-176260400D01*
X60342499Y-170984899D02*
X64548800Y-175191200D01*
X64548800Y-176260400D02*
X64548800Y-178638200D01*
X61341000Y-168417800D02*
X60342499Y-169416301D01*
X63119000Y-168925800D02*
X63119000Y-171500800D01*
X63119000Y-171500800D02*
X66624200Y-175006000D01*
X62611000Y-167640000D02*
X62611000Y-168417800D01*
X62611000Y-168417800D02*
X63119000Y-168925800D01*
X66624200Y-176185000D02*
X66624200Y-175006000D01*
X66548800Y-178638200D02*
X66548800Y-176260400D01*
X66548800Y-176260400D02*
X66624200Y-176185000D01*
X67548800Y-178638200D02*
X67548800Y-174909487D01*
X67548800Y-174909487D02*
X63474611Y-170835298D01*
X63474611Y-170835298D02*
X63474611Y-168646411D01*
X63246000Y-168417800D02*
X63246000Y-167640000D01*
X63474611Y-168646411D02*
X63246000Y-168417800D01*
X69548800Y-175009600D02*
X64516000Y-169976800D01*
X64516000Y-169976800D02*
X64516000Y-167640000D01*
X69548800Y-178638200D02*
X69548800Y-175009600D01*
X70510400Y-175031400D02*
X65151000Y-169672000D01*
X65151000Y-169672000D02*
X65151000Y-167640000D01*
X70510400Y-176222000D02*
X70510400Y-175031400D01*
X70548800Y-178638200D02*
X70548800Y-176260400D01*
X70548800Y-176260400D02*
X70510400Y-176222000D01*
X77089000Y-167642000D02*
X77089000Y-168419800D01*
X77089000Y-168419800D02*
X71548800Y-173960000D01*
X71548800Y-173960000D02*
X71548800Y-176260400D01*
X71548800Y-176260400D02*
X71548800Y-178638200D01*
X77724000Y-167642000D02*
X77724000Y-168419800D01*
X77724000Y-168419800D02*
X72548800Y-173595000D01*
X72548800Y-173595000D02*
X72548800Y-176260400D01*
X72548800Y-176260400D02*
X72548800Y-178638200D01*
X78994000Y-167642000D02*
X78994000Y-168419800D01*
X78994000Y-168419800D02*
X74548800Y-172865000D01*
X74548800Y-172865000D02*
X74548800Y-176260400D01*
X74548800Y-176260400D02*
X74548800Y-178638200D01*
X79629000Y-167642000D02*
X79629000Y-168419800D01*
X79629000Y-168419800D02*
X75548800Y-172500000D01*
X75548800Y-172500000D02*
X75548800Y-176260400D01*
X75548800Y-176260400D02*
X75548800Y-178638200D01*
X79603600Y-172593000D02*
X77548800Y-174647800D01*
X77548800Y-174647800D02*
X77548800Y-178638200D01*
X80670400Y-172593000D02*
X79603600Y-172593000D01*
X81381600Y-171881800D02*
X80670400Y-172593000D01*
X81381600Y-168902400D02*
X81381600Y-171881800D01*
X80899000Y-167642000D02*
X80899000Y-168419800D01*
X80899000Y-168419800D02*
X81381600Y-168902400D01*
X79959200Y-172999400D02*
X78548800Y-174409800D01*
X78548800Y-174409800D02*
X78548800Y-178638200D01*
X80797400Y-172999400D02*
X79959200Y-172999400D01*
X81737200Y-172059600D02*
X80797400Y-172999400D01*
X81737200Y-168623000D02*
X81737200Y-172059600D01*
X81534000Y-167642000D02*
X81534000Y-168419800D01*
X81534000Y-168419800D02*
X81737200Y-168623000D01*
X82804000Y-171627800D02*
X80548800Y-173883000D01*
X80548800Y-173883000D02*
X80548800Y-178638200D01*
X82804000Y-167642000D02*
X82804000Y-171627800D01*
X81548800Y-173573892D02*
X81548800Y-176260400D01*
X81548800Y-176260400D02*
X81548800Y-178638200D01*
X83439000Y-167642000D02*
X83439000Y-171683692D01*
X83439000Y-171683692D02*
X81548800Y-173573892D01*
X84023200Y-171602400D02*
X82548800Y-173076800D01*
X82548800Y-173076800D02*
X82548800Y-178638200D01*
X84023200Y-168470600D02*
X84023200Y-171602400D01*
X84074000Y-167642000D02*
X84074000Y-168419800D01*
X84074000Y-168419800D02*
X84023200Y-168470600D01*
X84632800Y-171577000D02*
X83548800Y-172661000D01*
X83548800Y-172661000D02*
X83548800Y-178638200D01*
X84632800Y-168496000D02*
X84632800Y-171577000D01*
X84709000Y-167642000D02*
X84709000Y-168419800D01*
X84709000Y-168419800D02*
X84632800Y-168496000D01*
X84988400Y-171958000D02*
X85548800Y-172518400D01*
X85548800Y-172518400D02*
X85548800Y-178638200D01*
X84988400Y-169410400D02*
X84988400Y-171958000D01*
X85979000Y-167642000D02*
X85979000Y-168419800D01*
X85979000Y-168419800D02*
X84988400Y-169410400D01*
X85394800Y-171780200D02*
X86548800Y-172934200D01*
X86548800Y-172934200D02*
X86548800Y-178638200D01*
X85394800Y-169639000D02*
X85394800Y-171780200D01*
X86614000Y-167642000D02*
X86614000Y-168419800D01*
X86614000Y-168419800D02*
X85394800Y-169639000D01*
X87884000Y-169087800D02*
X88548800Y-169752600D01*
X87884000Y-167642000D02*
X87884000Y-169087800D01*
X88548800Y-169752600D02*
X88548800Y-178638200D01*
X88519000Y-168884600D02*
X89548800Y-169914400D01*
X88519000Y-167642000D02*
X88519000Y-168884600D01*
X89548800Y-169914400D02*
X89548800Y-178638200D01*
X89789000Y-169367200D02*
X91548800Y-171127000D01*
X91548800Y-171127000D02*
X91548800Y-178638200D01*
X89789000Y-167642000D02*
X89789000Y-169367200D01*
X90424000Y-169214800D02*
X92548800Y-171339600D01*
X90424000Y-167642000D02*
X90424000Y-169214800D01*
X92548800Y-171339600D02*
X92548800Y-178638200D01*
X93548800Y-171526200D02*
X93548800Y-178638200D01*
X93548800Y-171119200D02*
X93548800Y-171526200D01*
X91059000Y-167642000D02*
X91059000Y-168419800D01*
X91059000Y-168419800D02*
X93548800Y-170909600D01*
X93548800Y-170909600D02*
X93548800Y-171526200D01*
X95758000Y-168910000D02*
X93548800Y-171119200D01*
X159512000Y-136695264D02*
X151706664Y-144500600D01*
X95758000Y-156514800D02*
X95758000Y-168910000D01*
X107772200Y-144500600D02*
X95758000Y-156514800D01*
X151706664Y-144500600D02*
X107772200Y-144500600D01*
X159512000Y-136271000D02*
X159512000Y-136695264D01*
X52044600Y-165455600D02*
X51181000Y-166319200D01*
X51181000Y-166319200D02*
X51181000Y-167640000D01*
X64379400Y-165455600D02*
X52044600Y-165455600D01*
X65786000Y-167640000D02*
X65786000Y-166862200D01*
X65786000Y-166862200D02*
X64379400Y-165455600D01*
X65786000Y-167640000D02*
X76452000Y-167640000D01*
X76452000Y-167640000D02*
X76454000Y-167642000D01*
X90195400Y-165608000D02*
X91059000Y-166471600D01*
X91059000Y-166471600D02*
X91059000Y-167642000D01*
X77710200Y-165608000D02*
X90195400Y-165608000D01*
X76454000Y-167642000D02*
X76454000Y-166864200D01*
X76454000Y-166864200D02*
X77710200Y-165608000D01*
X107548800Y-173451400D02*
X112175240Y-168824960D01*
X112175240Y-168824960D02*
X112175240Y-167640000D01*
X107548800Y-178638200D02*
X107548800Y-173451400D01*
X120548800Y-173152200D02*
X119160240Y-171763640D01*
X119160240Y-171763640D02*
X119160240Y-167640000D01*
X120548800Y-178638200D02*
X120548800Y-173152200D01*
X108585000Y-173228000D02*
X112810240Y-169002760D01*
X112810240Y-169002760D02*
X112810240Y-167640000D01*
X108585000Y-176224200D02*
X108585000Y-173228000D01*
X108548800Y-178638200D02*
X108548800Y-176260400D01*
X108548800Y-176260400D02*
X108585000Y-176224200D01*
X110548800Y-171949240D02*
X114080240Y-168417800D01*
X114080240Y-168417800D02*
X114080240Y-167640000D01*
X110548800Y-178638200D02*
X110548800Y-171949240D01*
X111548800Y-178638200D02*
X111548800Y-171482880D01*
X114715240Y-168316440D02*
X114715240Y-167640000D01*
X111548800Y-171482880D02*
X114715240Y-168316440D01*
X113548800Y-173940262D02*
X115957701Y-171531361D01*
X113548800Y-178638200D02*
X113548800Y-173940262D01*
X115957701Y-171531361D02*
X115957701Y-168445339D01*
X115957701Y-168445339D02*
X115985240Y-168417800D01*
X115985240Y-168417800D02*
X115985240Y-167640000D01*
X116620240Y-171568160D02*
X114548800Y-173639600D01*
X114548800Y-173639600D02*
X114548800Y-178638200D01*
X116620240Y-167640000D02*
X116620240Y-171568160D01*
X117119400Y-172313600D02*
X116548800Y-172884200D01*
X116548800Y-172884200D02*
X116548800Y-178638200D01*
X117119400Y-169188640D02*
X117119400Y-172313600D01*
X117890240Y-167640000D02*
X117890240Y-168417800D01*
X117890240Y-168417800D02*
X117119400Y-169188640D01*
X117551200Y-170103800D02*
X118525240Y-169129760D01*
X118525240Y-169129760D02*
X118525240Y-167640000D01*
X117551200Y-176258000D02*
X117551200Y-170103800D01*
X117548800Y-178638200D02*
X117548800Y-176260400D01*
X117548800Y-176260400D02*
X117551200Y-176258000D01*
X121548800Y-173466400D02*
X119795240Y-171712840D01*
X119795240Y-171712840D02*
X119795240Y-167640000D01*
X121548800Y-178638200D02*
X121548800Y-173466400D01*
X120167400Y-171323000D02*
X123548800Y-174704400D01*
X123548800Y-174704400D02*
X123548800Y-178638200D01*
X120167400Y-169315640D02*
X120167400Y-171323000D01*
X121065240Y-167640000D02*
X121065240Y-168417800D01*
X121065240Y-168417800D02*
X120167400Y-169315640D01*
X120624600Y-171094400D02*
X124548800Y-175018600D01*
X124548800Y-175018600D02*
X124548800Y-178638200D01*
X120624600Y-169493440D02*
X120624600Y-171094400D01*
X121700240Y-167640000D02*
X121700240Y-168417800D01*
X121700240Y-168417800D02*
X120624600Y-169493440D01*
X126548800Y-178638200D02*
X126548800Y-171996360D01*
X126548800Y-171996360D02*
X122970240Y-168417800D01*
X122970240Y-168417800D02*
X122970240Y-167640000D01*
X123605240Y-167640000D02*
X123605240Y-168417800D01*
X123605240Y-168417800D02*
X127548800Y-172361360D01*
X127548800Y-172361360D02*
X127548800Y-176260400D01*
X127548800Y-176260400D02*
X127548800Y-178638200D01*
X124875240Y-167640000D02*
X124875240Y-168417800D01*
X124875240Y-168417800D02*
X129548800Y-173091360D01*
X129548800Y-173091360D02*
X129548800Y-176260400D01*
X129548800Y-176260400D02*
X129548800Y-178638200D01*
X125510240Y-167640000D02*
X125510240Y-168417800D01*
X125510240Y-168417800D02*
X130548800Y-173456360D01*
X130548800Y-173456360D02*
X130548800Y-176260400D01*
X130548800Y-176260400D02*
X130548800Y-178638200D01*
X131548800Y-178638200D02*
X131548800Y-171864262D01*
X131548800Y-171864262D02*
X135128000Y-168285062D01*
X135128000Y-168285062D02*
X135128000Y-167640000D01*
X132548800Y-178638200D02*
X132548800Y-171499262D01*
X132548800Y-171499262D02*
X135763000Y-168285062D01*
X135763000Y-168285062D02*
X135763000Y-167640000D01*
X134548800Y-178638200D02*
X134548800Y-170769262D01*
X134548800Y-170769262D02*
X137033000Y-168285062D01*
X137033000Y-168285062D02*
X137033000Y-167640000D01*
X135585200Y-176224000D02*
X135585200Y-170500600D01*
X135585200Y-170500600D02*
X137668000Y-168417800D01*
X137668000Y-168417800D02*
X137668000Y-167640000D01*
X135548800Y-178638200D02*
X135548800Y-176260400D01*
X135548800Y-176260400D02*
X135585200Y-176224000D01*
X138938000Y-167640000D02*
X138938000Y-168417800D01*
X138938000Y-168417800D02*
X139318989Y-168798789D01*
X139318989Y-168798789D02*
X139318989Y-172339011D01*
X139318989Y-172339011D02*
X137548800Y-174109200D01*
X137548800Y-176260400D02*
X137548800Y-178638200D01*
X137548800Y-174109200D02*
X137548800Y-176260400D01*
X139674600Y-173177200D02*
X138548800Y-174303000D01*
X138548800Y-174303000D02*
X138548800Y-178638200D01*
X139674600Y-168519400D02*
X139674600Y-173177200D01*
X139573000Y-167640000D02*
X139573000Y-168417800D01*
X139573000Y-168417800D02*
X139674600Y-168519400D01*
X140843000Y-173202600D02*
X140548800Y-173496800D01*
X140548800Y-173496800D02*
X140548800Y-178638200D01*
X140843000Y-167640000D02*
X140843000Y-173202600D01*
X141478000Y-167640000D02*
X141478000Y-178567400D01*
X141478000Y-178567400D02*
X141548800Y-178638200D01*
X142113000Y-173202600D02*
X142548800Y-173638400D01*
X142548800Y-173638400D02*
X142548800Y-178638200D01*
X142113000Y-167640000D02*
X142113000Y-173202600D01*
X142824200Y-173380400D02*
X143548800Y-174105000D01*
X143548800Y-174105000D02*
X143548800Y-178638200D01*
X142824200Y-168494000D02*
X142824200Y-173380400D01*
X142748000Y-167640000D02*
X142748000Y-168417800D01*
X142748000Y-168417800D02*
X142824200Y-168494000D01*
X143433800Y-172770800D02*
X145548800Y-174885800D01*
X145548800Y-174885800D02*
X145548800Y-178638200D01*
X143433800Y-169002000D02*
X143433800Y-172770800D01*
X144018000Y-167640000D02*
X144018000Y-168417800D01*
X144018000Y-168417800D02*
X143433800Y-169002000D01*
X144170400Y-172694600D02*
X146548800Y-175073000D01*
X146548800Y-175073000D02*
X146548800Y-178638200D01*
X144170400Y-168900400D02*
X144170400Y-172694600D01*
X144653000Y-167640000D02*
X144653000Y-168417800D01*
X144653000Y-168417800D02*
X144170400Y-168900400D01*
X145923000Y-167640000D02*
X145923000Y-168417800D01*
X145923000Y-168417800D02*
X148548800Y-171043600D01*
X148548800Y-171043600D02*
X148548800Y-176260400D01*
X148548800Y-176260400D02*
X148548800Y-178638200D01*
X146558000Y-167640000D02*
X146558000Y-168417800D01*
X146558000Y-168417800D02*
X149548800Y-171408600D01*
X149548800Y-171408600D02*
X149548800Y-176260400D01*
X149548800Y-176260400D02*
X149548800Y-178638200D01*
X147828000Y-167640000D02*
X147828000Y-168417800D01*
X147828000Y-168417800D02*
X151548800Y-172138600D01*
X151548800Y-172138600D02*
X151548800Y-176260400D01*
X151548800Y-176260400D02*
X151548800Y-178638200D01*
X148463000Y-167640000D02*
X148463000Y-168417800D01*
X148463000Y-168417800D02*
X152548800Y-172503600D01*
X152548800Y-172503600D02*
X152548800Y-176260400D01*
X152548800Y-176260400D02*
X152548800Y-178638200D01*
X134500902Y-165727098D02*
X147962898Y-165727098D01*
X149098000Y-166862200D02*
X149098000Y-167640000D01*
X133985000Y-166243000D02*
X134500902Y-165727098D01*
X147962898Y-165727098D02*
X149098000Y-166862200D01*
X150545800Y-169865600D02*
X149098000Y-168417800D01*
X153466800Y-172786600D02*
X150545800Y-169865600D01*
X150774400Y-167513000D02*
X150474401Y-167812999D01*
X150474401Y-167812999D02*
X150474401Y-169794201D01*
X150474401Y-169794201D02*
X150545800Y-169865600D01*
X153466800Y-176178400D02*
X153466800Y-172786600D01*
X149098000Y-168417800D02*
X149098000Y-167640000D01*
X153548800Y-178638200D02*
X153548800Y-176260400D01*
X153548800Y-176260400D02*
X153466800Y-176178400D01*
X111540240Y-167640000D02*
X111540240Y-166862200D01*
X111540240Y-166862200D02*
X112159440Y-166243000D01*
X112159440Y-166243000D02*
X112648480Y-166243000D01*
X112648480Y-166243000D02*
X113138982Y-165752498D01*
X125442698Y-165752498D02*
X125933200Y-166243000D01*
X113138982Y-165752498D02*
X125442698Y-165752498D01*
X133985000Y-166243000D02*
X134493000Y-166751000D01*
X134493000Y-166751000D02*
X134493000Y-167640000D01*
X125933200Y-166243000D02*
X133985000Y-166243000D01*
X125933200Y-166243000D02*
X126145240Y-166455040D01*
X126145240Y-166455040D02*
X126145240Y-167640000D01*
X100965000Y-132816600D02*
X100665001Y-132516601D01*
X100665001Y-132516601D02*
X80370463Y-132516601D01*
X77063600Y-137319938D02*
X77063600Y-137744202D01*
X80370463Y-132516601D02*
X77063600Y-135823464D01*
X77063600Y-135823464D02*
X77063600Y-137319938D01*
X78536798Y-137693400D02*
X78536798Y-135356084D01*
X78536798Y-135356084D02*
X80449195Y-133443687D01*
X80449195Y-133443687D02*
X84523599Y-133443687D01*
X107650001Y-133337245D02*
X107950000Y-133037246D01*
X84828399Y-133748487D02*
X107238759Y-133748487D01*
X84523599Y-133443687D02*
X84828399Y-133748487D01*
X107238759Y-133748487D02*
X107650001Y-133337245D01*
X82580144Y-134226720D02*
X84300814Y-134226720D01*
X84300814Y-134226720D02*
X84554546Y-134480452D01*
X81889600Y-134493000D02*
X82313864Y-134493000D01*
X114609601Y-133337245D02*
X114909600Y-133037246D01*
X113466394Y-134480452D02*
X114609601Y-133337245D01*
X84554546Y-134480452D02*
X113466394Y-134480452D01*
X82313864Y-134493000D02*
X82580144Y-134226720D01*
X84156081Y-135449032D02*
X83856082Y-135149033D01*
X119609814Y-135449032D02*
X84156081Y-135449032D01*
X122021600Y-133037246D02*
X119609814Y-135449032D01*
X77901226Y-135488747D02*
X80301897Y-133088076D01*
X77901226Y-136309111D02*
X77901226Y-135488747D01*
X80301897Y-133088076D02*
X84670897Y-133088076D01*
X84670897Y-133088076D02*
X84970866Y-133388045D01*
X84970866Y-133388045D02*
X104144801Y-133388045D01*
X104144801Y-133388045D02*
X104195601Y-133337245D01*
X104195601Y-133337245D02*
X104495600Y-133037246D01*
X111231401Y-133337245D02*
X111531400Y-133037246D01*
X110464548Y-134104098D02*
X111231401Y-133337245D01*
X79425800Y-136169400D02*
X79900864Y-136169400D01*
X79900864Y-136169400D02*
X81272098Y-134798166D01*
X81272098Y-134195582D02*
X81596571Y-133871109D01*
X81596571Y-133871109D02*
X84448112Y-133871109D01*
X84681101Y-134104098D02*
X110464548Y-134104098D01*
X84448112Y-133871109D02*
X84681101Y-134104098D01*
X81272098Y-134798166D02*
X81272098Y-134195582D01*
X118140201Y-133337245D02*
X118440200Y-133037246D01*
X83092933Y-135073462D02*
X83584064Y-134582331D01*
X83092933Y-136728200D02*
X83092933Y-135073462D01*
X116641383Y-134836063D02*
X118140201Y-133337245D01*
X83584064Y-134582331D02*
X84128100Y-134582331D01*
X84128100Y-134582331D02*
X84381832Y-134836063D01*
X84381832Y-134836063D02*
X116641383Y-134836063D01*
X159500000Y-127000000D02*
X160677800Y-127000000D01*
X160677800Y-127000000D02*
X163000000Y-127000000D01*
X157820000Y-135300000D02*
X159500000Y-133620000D01*
X159500000Y-133620000D02*
X159500000Y-127000000D01*
X67310000Y-160121600D02*
X66471800Y-160121600D01*
X66471800Y-160121600D02*
X65151000Y-158800800D01*
X65151000Y-158800800D02*
X65151000Y-158240000D01*
X125399800Y-159588200D02*
X125399800Y-158350440D01*
X125399800Y-158350440D02*
X125510240Y-158240000D01*
X64983934Y-159485734D02*
X65009084Y-159485734D01*
X64516000Y-158240000D02*
X64516000Y-159017800D01*
X64516000Y-159017800D02*
X64983934Y-159485734D01*
X124815600Y-160223200D02*
X124815600Y-158299640D01*
X124815600Y-158299640D02*
X124875240Y-158240000D01*
X63246000Y-158240000D02*
X63246000Y-158877000D01*
X65105001Y-160736001D02*
X65105001Y-160761401D01*
X63246000Y-158877000D02*
X65105001Y-160736001D01*
X65105001Y-160761401D02*
X65405000Y-161061400D01*
X123605240Y-160232040D02*
X123647200Y-160274000D01*
X123605240Y-158240000D02*
X123605240Y-160232040D01*
X63099058Y-159532252D02*
X62611000Y-159044194D01*
X62611000Y-159044194D02*
X62611000Y-158240000D01*
X122970240Y-158240000D02*
X122970240Y-160798564D01*
X122970240Y-160798564D02*
X122961402Y-160807402D01*
X63301601Y-160761401D02*
X63601600Y-161061400D01*
X61341000Y-158800800D02*
X63301601Y-160761401D01*
X61341000Y-158240000D02*
X61341000Y-158800800D01*
X121700240Y-158240000D02*
X121700240Y-160874760D01*
X121700240Y-160874760D02*
X121691400Y-160883600D01*
X60706000Y-158240000D02*
X60706000Y-159017800D01*
X60706000Y-159017800D02*
X61181901Y-159493701D01*
X61181901Y-159493701D02*
X61200437Y-159493701D01*
X121065240Y-158240000D02*
X121065240Y-161382758D01*
X121065240Y-161382758D02*
X120980200Y-161467798D01*
X59436000Y-158240000D02*
X59436000Y-159017800D01*
X59436000Y-159017800D02*
X61505000Y-161086800D01*
X61505000Y-161086800D02*
X61722000Y-161086800D01*
X119786400Y-161569400D02*
X119786400Y-158248840D01*
X119786400Y-158248840D02*
X119795240Y-158240000D01*
X58674000Y-156057600D02*
X58674000Y-158113000D01*
X58674000Y-158113000D02*
X58801000Y-158240000D01*
X119126000Y-162229800D02*
X119126000Y-158274240D01*
X119126000Y-158274240D02*
X119160240Y-158240000D01*
X58166000Y-158240000D02*
X58166000Y-159034047D01*
X58413853Y-159281900D02*
X58713852Y-159581899D01*
X58166000Y-159034047D02*
X58413853Y-159281900D01*
X118491000Y-162890200D02*
X118491000Y-158274240D01*
X118491000Y-158274240D02*
X118525240Y-158240000D01*
X57531000Y-159418128D02*
X58998418Y-160885546D01*
X58998418Y-160885546D02*
X59298417Y-161185545D01*
X57531000Y-158240000D02*
X57531000Y-159418128D01*
X117906800Y-163626800D02*
X117906800Y-158256560D01*
X117906800Y-158256560D02*
X117890240Y-158240000D01*
X56907045Y-159583764D02*
X56261000Y-158937719D01*
X56261000Y-158937719D02*
X56261000Y-158240000D01*
X116586000Y-163652200D02*
X116586000Y-158274240D01*
X116586000Y-158274240D02*
X116620240Y-158240000D01*
X55626000Y-159232600D02*
X57205601Y-160812201D01*
X57205601Y-160812201D02*
X57505600Y-161112200D01*
X55626000Y-158240000D02*
X55626000Y-159232600D01*
X115951000Y-164338000D02*
X115951000Y-158274240D01*
X115951000Y-158274240D02*
X115985240Y-158240000D01*
X54996741Y-159484759D02*
X54356000Y-158844018D01*
X54356000Y-158844018D02*
X54356000Y-158240000D01*
X114757200Y-164414200D02*
X114757200Y-158281960D01*
X114757200Y-158281960D02*
X114715240Y-158240000D01*
X55625996Y-161112200D02*
X53721000Y-159207204D01*
X53721000Y-159207204D02*
X53721000Y-158240000D01*
X114020600Y-164998400D02*
X114020600Y-158299640D01*
X114020600Y-158299640D02*
X114080240Y-158240000D01*
X53147432Y-159565704D02*
X52451000Y-158869272D01*
X52451000Y-158869272D02*
X52451000Y-158240000D01*
X112826800Y-165023800D02*
X112826800Y-158256560D01*
X112826800Y-158256560D02*
X112810240Y-158240000D01*
X112175240Y-165655531D02*
X112195999Y-165676290D01*
X112175240Y-158240000D02*
X112175240Y-165655531D01*
X53471801Y-160805693D02*
X53471801Y-160837601D01*
X53471801Y-160837601D02*
X53771800Y-161137600D01*
X51816000Y-158240000D02*
X51816000Y-159149892D01*
X51816000Y-159149892D02*
X53471801Y-160805693D01*
X77089000Y-158242000D02*
X77089000Y-154279600D01*
X135128000Y-158240000D02*
X135128000Y-147599402D01*
X135128000Y-147599402D02*
X135077200Y-147548602D01*
X77724000Y-156210000D02*
X77724000Y-158242000D01*
X135763000Y-158240000D02*
X135763000Y-148132801D01*
X78587604Y-156921204D02*
X78587604Y-154856264D01*
X78587604Y-154856264D02*
X78587604Y-154432000D01*
X78994000Y-157327600D02*
X78587604Y-156921204D01*
X78994000Y-158242000D02*
X78994000Y-157327600D01*
X137033000Y-158240000D02*
X137033000Y-148209000D01*
X137668000Y-148818600D02*
X137718800Y-148767800D01*
X137668000Y-158240000D02*
X137668000Y-148818600D01*
X79171800Y-157002491D02*
X79171800Y-156634264D01*
X79171800Y-156634264D02*
X79171800Y-156210000D01*
X79629000Y-157459691D02*
X79171800Y-157002491D01*
X79629000Y-158242000D02*
X79629000Y-157459691D01*
X80899000Y-158242000D02*
X80899000Y-157556718D01*
X80899000Y-157556718D02*
X81838355Y-156617363D01*
X81838355Y-156617363D02*
X81838355Y-155295913D01*
X81838355Y-155295913D02*
X81538356Y-154995914D01*
X138938000Y-157150320D02*
X140038102Y-156050218D01*
X139547600Y-153940968D02*
X139547600Y-149192064D01*
X138938000Y-158240000D02*
X138938000Y-157150320D01*
X140038102Y-154431470D02*
X139547600Y-153940968D01*
X139547600Y-149192064D02*
X139547600Y-148767800D01*
X140038102Y-156050218D02*
X140038102Y-154431470D01*
X81534000Y-158242000D02*
X81534000Y-157424627D01*
X81534000Y-157424627D02*
X82253112Y-156705515D01*
X82423000Y-154018064D02*
X82423000Y-153593800D01*
X82253112Y-156705515D02*
X82253112Y-154187952D01*
X82253112Y-154187952D02*
X82423000Y-154018064D01*
X140233400Y-150317718D02*
X140233400Y-149827062D01*
X140393713Y-150478031D02*
X140233400Y-150317718D01*
X140393713Y-156641487D02*
X140393713Y-150478031D01*
X140233400Y-149827062D02*
X140233400Y-149402798D01*
X139573000Y-157462200D02*
X140393713Y-156641487D01*
X139573000Y-158240000D02*
X139573000Y-157462200D01*
X82804000Y-158242000D02*
X82804000Y-156514800D01*
X82804000Y-156514800D02*
X82829400Y-156489400D01*
X140843000Y-150088601D02*
X140817599Y-150063200D01*
X140843000Y-158240000D02*
X140843000Y-150088601D01*
X83439000Y-155119705D02*
X83532690Y-155026015D01*
X83439000Y-158242000D02*
X83439000Y-155119705D01*
X141478000Y-150672804D02*
X141477996Y-150672800D01*
X141478000Y-158240000D02*
X141478000Y-150672804D01*
X84399399Y-155478721D02*
X84399399Y-153868399D01*
X84074000Y-155804120D02*
X84399399Y-155478721D01*
X84399399Y-153868399D02*
X84099400Y-153568400D01*
X84074000Y-158242000D02*
X84074000Y-155804120D01*
X142113000Y-158240000D02*
X142113000Y-157462200D01*
X142113000Y-157462200D02*
X142113000Y-151307798D01*
X142748000Y-151968200D02*
X142773400Y-151942800D01*
X142748000Y-158240000D02*
X142748000Y-151968200D01*
X84709000Y-158242000D02*
X84709000Y-156667200D01*
X143718635Y-157162835D02*
X143718635Y-152918350D01*
X144018000Y-158240000D02*
X144018000Y-157462200D01*
X144018000Y-157462200D02*
X143718635Y-157162835D01*
X143718635Y-152918350D02*
X143718635Y-152494086D01*
X85445600Y-156794200D02*
X85979000Y-157327600D01*
X85979000Y-157327600D02*
X85979000Y-158242000D01*
X85445600Y-155041598D02*
X85445600Y-156794200D01*
X144348200Y-153375121D02*
X144348200Y-152950857D01*
X144653000Y-158240000D02*
X144653000Y-157462200D01*
X144653000Y-157462200D02*
X144348200Y-157157400D01*
X144348200Y-157157400D02*
X144348200Y-153375121D01*
X86131400Y-156977092D02*
X86131400Y-156939064D01*
X86131400Y-156939064D02*
X86131400Y-156514800D01*
X86614000Y-157459692D02*
X86131400Y-156977092D01*
X86614000Y-158242000D02*
X86614000Y-157459692D01*
X87884000Y-157164828D02*
X89001600Y-156047228D01*
X89001600Y-156047228D02*
X89001600Y-154449864D01*
X89001600Y-154449864D02*
X89001600Y-154025600D01*
X87884000Y-158242000D02*
X87884000Y-157164828D01*
X146632341Y-157017688D02*
X146784319Y-157017688D01*
X145923000Y-157462200D02*
X146168788Y-157216412D01*
X146784319Y-157017688D02*
X146880287Y-156921720D01*
X146880287Y-155719487D02*
X146532600Y-155371800D01*
X146532600Y-155371800D02*
X146563357Y-155341043D01*
X146563357Y-155341043D02*
X146563357Y-153685289D01*
X146563357Y-153685289D02*
X146563357Y-153261025D01*
X146880287Y-156921720D02*
X146880287Y-155719487D01*
X146168788Y-157216412D02*
X146433617Y-157216412D01*
X146433617Y-157216412D02*
X146632341Y-157017688D01*
X145923000Y-158240000D02*
X145923000Y-157462200D01*
X146532600Y-155371800D02*
X146532600Y-155244800D01*
X145973800Y-158290800D02*
X145923000Y-158240000D01*
X146558000Y-157594938D02*
X146779639Y-157373299D01*
X147339768Y-153731958D02*
X147339768Y-153307694D01*
X146779639Y-157373299D02*
X146931617Y-157373299D01*
X146931617Y-157373299D02*
X147339768Y-156965148D01*
X146558000Y-158240000D02*
X146558000Y-157594938D01*
X147339768Y-156965148D02*
X147339768Y-153731958D01*
X88708886Y-157177683D02*
X89008885Y-156877684D01*
X88519000Y-158242000D02*
X88519000Y-157367569D01*
X88519000Y-157367569D02*
X88708886Y-157177683D01*
X89789000Y-158242000D02*
X89789000Y-155498800D01*
X89789000Y-155498800D02*
X89819201Y-155468599D01*
X89819201Y-155468599D02*
X90119200Y-155168600D01*
X147828000Y-154736871D02*
X147941461Y-154623410D01*
X147828000Y-158240000D02*
X147828000Y-154736871D01*
X148463000Y-155549600D02*
X148564600Y-155448000D01*
X148463000Y-158240000D02*
X148463000Y-155549600D01*
X90424000Y-158242000D02*
X90424000Y-157403800D01*
X90424000Y-157403800D02*
X90530401Y-157297399D01*
X90530401Y-157297399D02*
X90830400Y-156997400D01*
M02*
