G04 #@! TF.GenerationSoftware,KiCad,Pcbnew,(5.0.0-rc2-35-gda6600525)*
G04 #@! TF.CreationDate,2018-07-08T09:44:57-07:00*
G04 #@! TF.ProjectId,shifter,736869667465722E6B696361645F7063,rev?*
G04 #@! TF.SameCoordinates,Original*
G04 #@! TF.FileFunction,Profile,NP*
%FSLAX46Y46*%
G04 Gerber Fmt 4.6, Leading zero omitted, Abs format (unit mm)*
G04 Created by KiCad (PCBNEW (5.0.0-rc2-35-gda6600525)) date 07/08/18 09:44:57*
%MOMM*%
%LPD*%
G01*
G04 APERTURE LIST*
%ADD10C,0.150000*%
G04 #@! TA.AperFunction,NonConductor*
%ADD11C,0.120000*%
G04 #@! TD*
G04 APERTURE END LIST*
D10*
X270000000Y-47000000D02*
X270000000Y-160600000D01*
X65000000Y-47000000D02*
X270000000Y-47000000D01*
X65000000Y-160600000D02*
X65000000Y-47000000D01*
X219575000Y-160600000D02*
X270000000Y-160600000D01*
X102450000Y-160600000D02*
X65000000Y-160600000D01*
D11*
G04 #@! TO.C,P1*
X118477247Y-166408230D02*
X156677247Y-166408230D01*
X102477247Y-158358230D02*
X102477247Y-160608230D01*
X118477247Y-158358230D02*
G75*
G03X116577247Y-158358230I-950000J0D01*
G01*
X216677247Y-158358230D02*
X216677247Y-166408230D01*
X219577247Y-158358230D02*
G75*
G03X216677247Y-158358230I-1450000J0D01*
G01*
X105377247Y-158358230D02*
G75*
G03X102477247Y-158358230I-1450000J0D01*
G01*
X116577247Y-166408230D02*
X105377247Y-166408230D01*
X156677247Y-158358230D02*
X156677247Y-166408230D01*
X178477247Y-158358230D02*
G75*
G03X176577247Y-158358230I-950000J0D01*
G01*
X158127247Y-156908230D02*
G75*
G03X156677247Y-158358230I0J-1450000D01*
G01*
X178477247Y-158358230D02*
X178477247Y-160608230D01*
X158127247Y-156908230D02*
X163927247Y-156908230D01*
X105377247Y-166408230D02*
X105377247Y-158358230D01*
X178477247Y-160608230D02*
X178477247Y-166408230D01*
X176577247Y-160608230D02*
X176577247Y-158358230D01*
X118477247Y-158358230D02*
X118477247Y-160608230D01*
X176577247Y-166408230D02*
X165377247Y-166408230D01*
X116577247Y-160608230D02*
X116577247Y-158358230D01*
X118477247Y-160608230D02*
X118477247Y-166408230D01*
X116577247Y-160608230D02*
X116577247Y-166408230D01*
X178477247Y-166408230D02*
X216677247Y-166408230D01*
X219577247Y-158358230D02*
X219577247Y-160608230D01*
X176577247Y-160608230D02*
X176577247Y-166408230D01*
X165377247Y-158358230D02*
G75*
G03X163927247Y-156908230I-1450000J0D01*
G01*
X165377247Y-166408230D02*
X165377247Y-158358230D01*
G04 #@! TD*
M02*
