G04 #@! TF.GenerationSoftware,KiCad,Pcbnew,(5.0.0-rc2-35-gda6600525)*
G04 #@! TF.CreationDate,2018-07-08T09:44:57-07:00*
G04 #@! TF.ProjectId,shifter,736869667465722E6B696361645F7063,rev?*
G04 #@! TF.SameCoordinates,Original*
G04 #@! TF.FileFunction,Copper,L4,Bot,Signal*
G04 #@! TF.FilePolarity,Positive*
%FSLAX46Y46*%
G04 Gerber Fmt 4.6, Leading zero omitted, Abs format (unit mm)*
G04 Created by KiCad (PCBNEW (5.0.0-rc2-35-gda6600525)) date 07/08/18 09:44:57*
%MOMM*%
%LPD*%
G01*
G04 APERTURE LIST*
G04 #@! TA.AperFunction,ConnectorPad*
%ADD10R,0.700000X4.400000*%
G04 #@! TD*
G04 #@! TA.AperFunction,ComponentPad*
%ADD11C,2.000000*%
G04 #@! TD*
G04 #@! TA.AperFunction,ComponentPad*
%ADD12R,2.000000X2.000000*%
G04 #@! TD*
G04 #@! TA.AperFunction,ViaPad*
%ADD13C,0.800000*%
G04 #@! TD*
G04 #@! TA.AperFunction,Conductor*
%ADD14C,0.300000*%
G04 #@! TD*
G04 #@! TA.AperFunction,Conductor*
%ADD15C,0.177800*%
G04 #@! TD*
G04 APERTURE END LIST*
D10*
G04 #@! TO.P,P1,99*
G04 #@! TO.N,/rs1[31]*
X106040000Y-163010000D03*
G04 #@! TO.P,P1,100*
G04 #@! TO.N,/rs1[30]*
X107040000Y-163010000D03*
G04 #@! TO.P,P1,101*
G04 #@! TO.N,GND*
X108040000Y-163010000D03*
G04 #@! TO.P,P1,102*
G04 #@! TO.N,/rs1[29]*
X109040000Y-163010000D03*
G04 #@! TO.P,P1,103*
G04 #@! TO.N,/rs1[28]*
X110040000Y-163010000D03*
G04 #@! TO.P,P1,104*
G04 #@! TO.N,VCC*
X111040000Y-163010000D03*
G04 #@! TO.P,P1,105*
G04 #@! TO.N,/rs1[27]*
X112040000Y-163010000D03*
G04 #@! TO.P,P1,106*
G04 #@! TO.N,/rs1[26]*
X113040000Y-163010000D03*
G04 #@! TO.P,P1,107*
G04 #@! TO.N,GND*
X114040000Y-163010000D03*
G04 #@! TO.P,P1,108*
G04 #@! TO.N,/rs1[25]*
X115040000Y-163010000D03*
G04 #@! TO.P,P1,109*
G04 #@! TO.N,/rs1[24]*
X116040000Y-163010000D03*
G04 #@! TO.P,P1,110*
G04 #@! TO.N,/rs1[23]*
X119040000Y-163010000D03*
G04 #@! TO.P,P1,111*
G04 #@! TO.N,/rs1[22]*
X120040000Y-163010000D03*
G04 #@! TO.P,P1,112*
G04 #@! TO.N,GND*
X121040000Y-163010000D03*
G04 #@! TO.P,P1,113*
G04 #@! TO.N,/rs1[21]*
X122040000Y-163010000D03*
G04 #@! TO.P,P1,114*
G04 #@! TO.N,/rs1[20]*
X123040000Y-163010000D03*
G04 #@! TO.P,P1,115*
G04 #@! TO.N,VCC*
X124040000Y-163010000D03*
G04 #@! TO.P,P1,116*
G04 #@! TO.N,/rs1[19]*
X125040000Y-163010000D03*
G04 #@! TO.P,P1,117*
G04 #@! TO.N,/rs1[18]*
X126040000Y-163010000D03*
G04 #@! TO.P,P1,118*
G04 #@! TO.N,GND*
X127040000Y-163010000D03*
G04 #@! TO.P,P1,119*
G04 #@! TO.N,/rs1[17]*
X128040000Y-163010000D03*
G04 #@! TO.P,P1,120*
G04 #@! TO.N,/rs1[16]*
X129040000Y-163010000D03*
G04 #@! TO.P,P1,121*
G04 #@! TO.N,Net-(P1-Pad121)*
X130040000Y-163010000D03*
G04 #@! TO.P,P1,122*
G04 #@! TO.N,Net-(P1-Pad122)*
X131040000Y-163010000D03*
G04 #@! TO.P,P1,123*
G04 #@! TO.N,GND*
X132040000Y-163010000D03*
G04 #@! TO.P,P1,124*
G04 #@! TO.N,Net-(P1-Pad124)*
X133040000Y-163010000D03*
G04 #@! TO.P,P1,125*
G04 #@! TO.N,Net-(P1-Pad125)*
X134040000Y-163010000D03*
G04 #@! TO.P,P1,126*
G04 #@! TO.N,VCC*
X135040000Y-163010000D03*
G04 #@! TO.P,P1,127*
G04 #@! TO.N,Net-(P1-Pad127)*
X136040000Y-163010000D03*
G04 #@! TO.P,P1,128*
G04 #@! TO.N,Net-(P1-Pad128)*
X137040000Y-163010000D03*
G04 #@! TO.P,P1,129*
G04 #@! TO.N,GND*
X138040000Y-163010000D03*
G04 #@! TO.P,P1,130*
G04 #@! TO.N,Net-(P1-Pad130)*
X139040000Y-163010000D03*
G04 #@! TO.P,P1,131*
G04 #@! TO.N,Net-(P1-Pad131)*
X140040000Y-163010000D03*
G04 #@! TO.P,P1,132*
G04 #@! TO.N,Net-(P1-Pad132)*
X141040000Y-163010000D03*
G04 #@! TO.P,P1,133*
G04 #@! TO.N,Net-(P1-Pad133)*
X142040000Y-163010000D03*
G04 #@! TO.P,P1,134*
G04 #@! TO.N,GND*
X143040000Y-163010000D03*
G04 #@! TO.P,P1,135*
G04 #@! TO.N,Net-(P1-Pad135)*
X144040000Y-163010000D03*
G04 #@! TO.P,P1,136*
G04 #@! TO.N,Net-(P1-Pad136)*
X145040000Y-163010000D03*
G04 #@! TO.P,P1,137*
G04 #@! TO.N,VCC*
X146040000Y-163010000D03*
G04 #@! TO.P,P1,138*
G04 #@! TO.N,Net-(P1-Pad138)*
X147040000Y-163010000D03*
G04 #@! TO.P,P1,139*
G04 #@! TO.N,Net-(P1-Pad139)*
X148040000Y-163010000D03*
G04 #@! TO.P,P1,140*
G04 #@! TO.N,GND*
X149040000Y-163010000D03*
G04 #@! TO.P,P1,141*
G04 #@! TO.N,Net-(P1-Pad141)*
X150040000Y-163010000D03*
G04 #@! TO.P,P1,142*
G04 #@! TO.N,Net-(P1-Pad142)*
X151040000Y-163010000D03*
G04 #@! TO.P,P1,143*
G04 #@! TO.N,Net-(P1-Pad143)*
X152040000Y-163010000D03*
G04 #@! TO.P,P1,144*
G04 #@! TO.N,Net-(P1-Pad144)*
X153040000Y-163010000D03*
G04 #@! TO.P,P1,145*
G04 #@! TO.N,Net-(P1-Pad145)*
X154040000Y-163010000D03*
G04 #@! TO.P,P1,146*
G04 #@! TO.N,Net-(P1-Pad146)*
X155040000Y-163010000D03*
G04 #@! TO.P,P1,147*
G04 #@! TO.N,Net-(P1-Pad147)*
X156040000Y-163010000D03*
G04 #@! TO.P,P1,148*
G04 #@! TO.N,Net-(P1-Pad148)*
X166040000Y-163010000D03*
G04 #@! TO.P,P1,159*
G04 #@! TO.N,/rs1[12]*
X179040000Y-163010000D03*
G04 #@! TO.P,P1,149*
G04 #@! TO.N,Net-(P1-Pad149)*
X167040000Y-163010000D03*
G04 #@! TO.P,P1,150*
G04 #@! TO.N,GND*
X168040000Y-163010000D03*
G04 #@! TO.P,P1,151*
G04 #@! TO.N,Net-(P1-Pad151)*
X169040000Y-163010000D03*
G04 #@! TO.P,P1,152*
G04 #@! TO.N,Net-(P1-Pad152)*
X170040000Y-163010000D03*
G04 #@! TO.P,P1,153*
G04 #@! TO.N,VCC*
X171040000Y-163010000D03*
G04 #@! TO.P,P1,154*
G04 #@! TO.N,Net-(P1-Pad154)*
X172040000Y-163010000D03*
G04 #@! TO.P,P1,155*
G04 #@! TO.N,/rs1[15]*
X173040000Y-163010000D03*
G04 #@! TO.P,P1,156*
G04 #@! TO.N,GND*
X174040000Y-163010000D03*
G04 #@! TO.P,P1,157*
G04 #@! TO.N,/rs1[14]*
X175040000Y-163010000D03*
G04 #@! TO.P,P1,158*
G04 #@! TO.N,/rs1[13]*
X176040000Y-163010000D03*
G04 #@! TO.P,P1,160*
G04 #@! TO.N,/rs1[11]*
X180040000Y-163010000D03*
G04 #@! TO.P,P1,161*
G04 #@! TO.N,GND*
X181040000Y-163010000D03*
G04 #@! TO.P,P1,162*
G04 #@! TO.N,/rs1[10]*
X182040000Y-163010000D03*
G04 #@! TO.P,P1,163*
G04 #@! TO.N,/rs1[9]*
X183040000Y-163010000D03*
G04 #@! TO.P,P1,164*
G04 #@! TO.N,VCC*
X184040000Y-163010000D03*
G04 #@! TO.P,P1,165*
G04 #@! TO.N,/rs1[8]*
X185040000Y-163010000D03*
G04 #@! TO.P,P1,166*
G04 #@! TO.N,/rs1[7]*
X186040000Y-163010000D03*
G04 #@! TO.P,P1,167*
G04 #@! TO.N,GND*
X187040000Y-163010000D03*
G04 #@! TO.P,P1,168*
G04 #@! TO.N,/rs1[6]*
X188040000Y-163010000D03*
G04 #@! TO.P,P1,169*
G04 #@! TO.N,/rs1[5]*
X189040000Y-163010000D03*
G04 #@! TO.P,P1,170*
G04 #@! TO.N,/rs1[4]*
X190040000Y-163010000D03*
G04 #@! TO.P,P1,171*
G04 #@! TO.N,/rs1[3]*
X191040000Y-163010000D03*
G04 #@! TO.P,P1,172*
G04 #@! TO.N,GND*
X192040000Y-163010000D03*
G04 #@! TO.P,P1,173*
G04 #@! TO.N,/rs1[2]*
X193040000Y-163010000D03*
G04 #@! TO.P,P1,174*
G04 #@! TO.N,/rs1[1]*
X194040000Y-163010000D03*
G04 #@! TO.P,P1,175*
G04 #@! TO.N,VCC*
X195040000Y-163010000D03*
G04 #@! TO.P,P1,176*
G04 #@! TO.N,/rs1[0]*
X196040000Y-163010000D03*
G04 #@! TO.P,P1,177*
G04 #@! TO.N,Net-(P1-Pad177)*
X197040000Y-163010000D03*
G04 #@! TO.P,P1,178*
G04 #@! TO.N,GND*
X198040000Y-163010000D03*
G04 #@! TO.P,P1,179*
G04 #@! TO.N,Net-(P1-Pad179)*
X199040000Y-163010000D03*
G04 #@! TO.P,P1,180*
G04 #@! TO.N,Net-(P1-Pad180)*
X200040000Y-163010000D03*
G04 #@! TO.P,P1,181*
G04 #@! TO.N,Net-(P1-Pad181)*
X201040000Y-163010000D03*
G04 #@! TO.P,P1,182*
G04 #@! TO.N,Net-(P1-Pad182)*
X202040000Y-163010000D03*
G04 #@! TO.P,P1,183*
G04 #@! TO.N,GND*
X203040000Y-163010000D03*
G04 #@! TO.P,P1,184*
G04 #@! TO.N,Net-(P1-Pad184)*
X204040000Y-163010000D03*
G04 #@! TO.P,P1,185*
G04 #@! TO.N,/~shift_oe'*
X205040000Y-163010000D03*
G04 #@! TO.P,P1,186*
G04 #@! TO.N,VCC*
X206040000Y-163010000D03*
G04 #@! TO.P,P1,187*
G04 #@! TO.N,Net-(P1-Pad187)*
X207040000Y-163010000D03*
G04 #@! TO.P,P1,188*
G04 #@! TO.N,Net-(P1-Pad188)*
X208040000Y-163010000D03*
G04 #@! TO.P,P1,189*
G04 #@! TO.N,GND*
X209040000Y-163010000D03*
G04 #@! TO.P,P1,190*
G04 #@! TO.N,Net-(P1-Pad190)*
X210040000Y-163010000D03*
G04 #@! TO.P,P1,191*
G04 #@! TO.N,/~shift_left'*
X211040000Y-163010000D03*
G04 #@! TO.P,P1,192*
G04 #@! TO.N,/shift_arith'*
X212040000Y-163010000D03*
G04 #@! TO.P,P1,193*
G04 #@! TO.N,Net-(P1-Pad193)*
X213040000Y-163010000D03*
G04 #@! TO.P,P1,194*
G04 #@! TO.N,Net-(P1-Pad194)*
X214040000Y-163010000D03*
G04 #@! TO.P,P1,195*
G04 #@! TO.N,Net-(P1-Pad195)*
X215040000Y-163010000D03*
G04 #@! TO.P,P1,196*
G04 #@! TO.N,Net-(P1-Pad196)*
X216040000Y-163010000D03*
G04 #@! TD*
D11*
G04 #@! TO.P,J1,18*
G04 #@! TO.N,VCC*
X262240000Y-81920000D03*
G04 #@! TO.P,J1,16*
G04 #@! TO.N,/~noshift_16_oe*
X262240000Y-79380000D03*
G04 #@! TO.P,J1,14*
G04 #@! TO.N,/~shift_16_oe*
X262240000Y-76840000D03*
G04 #@! TO.P,J1,12*
G04 #@! TO.N,/~shift_right*
X262240000Y-74300000D03*
G04 #@! TO.P,J1,10*
G04 #@! TO.N,/~shift16*
X262240000Y-71760000D03*
G04 #@! TO.P,J1,8*
G04 #@! TO.N,/~shift8*
X262240000Y-69220000D03*
G04 #@! TO.P,J1,6*
G04 #@! TO.N,/~shift4*
X262240000Y-66680000D03*
G04 #@! TO.P,J1,4*
G04 #@! TO.N,/~shift2*
X262240000Y-64140000D03*
G04 #@! TO.P,J1,2*
G04 #@! TO.N,/~shift1*
X262240000Y-61600000D03*
G04 #@! TO.P,J1,17*
G04 #@! TO.N,GND*
X259700000Y-81920000D03*
G04 #@! TO.P,J1,15*
G04 #@! TO.N,/shift_arith*
X259700000Y-79380000D03*
G04 #@! TO.P,J1,13*
G04 #@! TO.N,/~shift_oe*
X259700000Y-76840000D03*
G04 #@! TO.P,J1,11*
G04 #@! TO.N,/~shift_left*
X259700000Y-74300000D03*
G04 #@! TO.P,J1,9*
G04 #@! TO.N,/shift16*
X259700000Y-71760000D03*
G04 #@! TO.P,J1,7*
G04 #@! TO.N,/shift8*
X259700000Y-69220000D03*
G04 #@! TO.P,J1,5*
G04 #@! TO.N,/shift4*
X259700000Y-66680000D03*
G04 #@! TO.P,J1,3*
G04 #@! TO.N,/shift2*
X259700000Y-64140000D03*
D12*
G04 #@! TO.P,J1,1*
G04 #@! TO.N,/shift1*
X259700000Y-61600000D03*
G04 #@! TD*
D13*
G04 #@! TO.N,VCC*
X222000000Y-54600000D03*
X215000000Y-54600000D03*
X207600000Y-54600000D03*
X193200000Y-54600000D03*
X185600000Y-54600000D03*
X171400000Y-54600000D03*
X157000000Y-54600000D03*
X142400000Y-54600000D03*
X128000000Y-54600000D03*
X113600000Y-54600000D03*
X99200000Y-54600000D03*
X258600000Y-111600000D03*
X243400000Y-93600000D03*
X236200000Y-93600000D03*
X229000000Y-93600000D03*
X221800000Y-93600000D03*
X214600000Y-93600000D03*
X207400000Y-93600000D03*
X204400000Y-103400000D03*
X197200000Y-103400000D03*
X190000000Y-103400000D03*
X182800000Y-103400000D03*
X175200000Y-103400000D03*
X168400000Y-103400000D03*
X157000000Y-93400000D03*
X149600000Y-93400000D03*
X142600000Y-93400000D03*
X135400000Y-93400000D03*
X128200000Y-93400000D03*
X121000000Y-93400000D03*
X117400000Y-103600000D03*
X110800000Y-103600000D03*
X103600000Y-103600000D03*
X96400000Y-103600000D03*
X89200000Y-103600000D03*
X82000000Y-103600000D03*
X206000000Y-159800000D03*
X195000000Y-159800000D03*
X184000000Y-159800000D03*
X146000000Y-160000000D03*
X135000000Y-160000000D03*
X124000000Y-160000000D03*
X111000000Y-160000000D03*
X171022321Y-159799334D03*
X251600000Y-144000000D03*
X84800000Y-54600000D03*
X69700000Y-131600000D03*
X77700000Y-131300000D03*
X85000000Y-131400000D03*
X98100000Y-141200000D03*
X105300000Y-141200000D03*
X106600000Y-131200000D03*
X117900000Y-141300000D03*
X127016170Y-140801967D03*
X134100000Y-141100000D03*
X133600000Y-131400000D03*
X142600000Y-131400000D03*
X149500000Y-131400000D03*
X161100000Y-141200000D03*
X168400000Y-141200000D03*
X177700000Y-141300000D03*
X184500000Y-141200000D03*
X191600000Y-141100000D03*
X198800000Y-141100000D03*
X206000000Y-141200000D03*
X207400000Y-131100000D03*
X214400000Y-131200000D03*
X221800000Y-131200000D03*
X229000000Y-131300000D03*
X236300000Y-131200000D03*
X243600000Y-131200000D03*
X76000000Y-58500000D03*
X77000000Y-58500000D03*
X75000000Y-58500000D03*
X242700000Y-63800000D03*
X244700000Y-63800000D03*
X243700000Y-63800000D03*
X262700000Y-97900000D03*
X263700000Y-97900000D03*
X264700000Y-97900000D03*
X75500000Y-116700000D03*
X73500000Y-116700000D03*
X74500000Y-116700000D03*
X72900000Y-153700000D03*
X70900000Y-153700000D03*
X71900000Y-153700000D03*
X264800000Y-152400000D03*
X263800000Y-152400000D03*
X262800000Y-152400000D03*
X252946224Y-111838679D03*
X267500000Y-133900000D03*
X262200000Y-127700000D03*
X263100000Y-108400000D03*
X257800000Y-102400000D03*
G04 #@! TO.N,GND*
X209000000Y-159800000D03*
X89800000Y-64000000D03*
X104200000Y-63800000D03*
X118600000Y-63800000D03*
X133000000Y-63800000D03*
X147400000Y-64000000D03*
X161800000Y-63800000D03*
X176200000Y-63800000D03*
X190600000Y-63800000D03*
X198000000Y-63800000D03*
X212800000Y-64000000D03*
X219600000Y-64000000D03*
X226600000Y-64200000D03*
X221000000Y-52200000D03*
X213800000Y-52200000D03*
X214200000Y-57800000D03*
X206600000Y-52200000D03*
X192000000Y-52200000D03*
X184600000Y-52200000D03*
X185400000Y-57800000D03*
X170400000Y-52200000D03*
X156000000Y-52200000D03*
X141600000Y-52200000D03*
X142200000Y-57800000D03*
X127000000Y-52200000D03*
X112800000Y-52200000D03*
X99000000Y-57800000D03*
X98400000Y-52200000D03*
X257600000Y-109000000D03*
X263400000Y-119400000D03*
X256600000Y-120800000D03*
X252200000Y-109200000D03*
X242600000Y-91200000D03*
X235400000Y-91200000D03*
X236399902Y-96802256D03*
X228200000Y-91200000D03*
X221000000Y-91200000D03*
X213800000Y-91200000D03*
X214527724Y-96720461D03*
X206600000Y-91200000D03*
X198000000Y-93600000D03*
X205200000Y-105800000D03*
X198000000Y-105800000D03*
X190800000Y-105800000D03*
X183600000Y-105800000D03*
X176200000Y-105800000D03*
X169200000Y-105800000D03*
X162000000Y-102800000D03*
X154800000Y-102800000D03*
X156125656Y-91074344D03*
X148800000Y-91000000D03*
X149800000Y-96800000D03*
X141800000Y-91000000D03*
X134600000Y-91000000D03*
X127400000Y-91000000D03*
X128200000Y-96800000D03*
X120200000Y-91000000D03*
X118200000Y-106000000D03*
X111600000Y-106000000D03*
X104400000Y-106000000D03*
X97200000Y-106000000D03*
X90000000Y-106000000D03*
X82800000Y-106000000D03*
X77000000Y-96800000D03*
X84200000Y-96800000D03*
X90000000Y-96800000D03*
X98566433Y-96633567D03*
X105800000Y-96800000D03*
X113000000Y-96800000D03*
X126200000Y-102800000D03*
X133400000Y-102800000D03*
X140600000Y-102800000D03*
X147800000Y-102800000D03*
X163200000Y-94200000D03*
X170400000Y-94200000D03*
X212600000Y-102800000D03*
X220017187Y-102772876D03*
X226800000Y-102800000D03*
X234200000Y-102800000D03*
X241400000Y-102800000D03*
X248400000Y-103000000D03*
X192200000Y-96800000D03*
X184966433Y-96633567D03*
X177766433Y-96633567D03*
X203000000Y-159800000D03*
X198200000Y-159800000D03*
X192200000Y-159800000D03*
X187200000Y-159800000D03*
X181200000Y-159800000D03*
X168000000Y-159800000D03*
X149000000Y-160000000D03*
X143000000Y-160000000D03*
X138000000Y-160000000D03*
X132000000Y-160000000D03*
X127000000Y-160000000D03*
X121000000Y-160000000D03*
X114000000Y-160000000D03*
X108000000Y-160000000D03*
X174066710Y-159800000D03*
X250600000Y-141400000D03*
X248800000Y-140600000D03*
X251400000Y-147800000D03*
X250600000Y-150600000D03*
X257800000Y-152000000D03*
X84000000Y-52200000D03*
X68800000Y-129100000D03*
X72600000Y-140600000D03*
X76900000Y-129000000D03*
X82900000Y-140500000D03*
X84100000Y-129000000D03*
X84800000Y-134500000D03*
X90600000Y-140700000D03*
X91300000Y-134500000D03*
X98500000Y-134400000D03*
X97300000Y-143500000D03*
X104400000Y-143600000D03*
X111700000Y-140500000D03*
X112966433Y-134433567D03*
X105800000Y-128900000D03*
X118800000Y-143400000D03*
X126100000Y-143400000D03*
X133300000Y-143600000D03*
X134500000Y-129100000D03*
X141800000Y-129000000D03*
X148700000Y-129100000D03*
X149600001Y-134416446D03*
X156166433Y-134433567D03*
X120100000Y-134400000D03*
X127366433Y-134433567D03*
X140500000Y-140500000D03*
X147608257Y-140307286D03*
X155500000Y-140800000D03*
X163366433Y-134433567D03*
X162000000Y-143400000D03*
X170600000Y-134500000D03*
X169300000Y-143500000D03*
X176900000Y-143600000D03*
X183700000Y-143600000D03*
X190800000Y-143400000D03*
X198100000Y-143400000D03*
X205300000Y-143500000D03*
X212500000Y-140400000D03*
X199300000Y-131700000D03*
X192100000Y-132100000D03*
X184900000Y-132000000D03*
X183000000Y-131800000D03*
X206600000Y-128900000D03*
X213700000Y-128900000D03*
X214399999Y-134416445D03*
X219600000Y-140400000D03*
X226900000Y-140400000D03*
X221100000Y-128900000D03*
X228100000Y-128900000D03*
X235600000Y-129000000D03*
X236000000Y-134416445D03*
X234000000Y-140400000D03*
X241500000Y-140500000D03*
X242800000Y-128900000D03*
X76000000Y-50900000D03*
X76900000Y-50900000D03*
X75100000Y-50900000D03*
X243700000Y-56200000D03*
X242800000Y-56200000D03*
X244600000Y-56200000D03*
X263700000Y-90300000D03*
X264600000Y-90300000D03*
X262800000Y-90300000D03*
X75400000Y-109100000D03*
X74500000Y-109100000D03*
X73600000Y-109100000D03*
X71000000Y-146100000D03*
X71900000Y-146100000D03*
X72800000Y-146100000D03*
X262900000Y-144800000D03*
X264700000Y-144800000D03*
X263800000Y-144800000D03*
X259900000Y-112000000D03*
G04 #@! TO.N,/rd[31]*
X122600000Y-153700000D03*
X98600000Y-153600000D03*
X91300000Y-153600000D03*
G04 #@! TO.N,/rd[30]*
X123500000Y-151600000D03*
X99216710Y-151900000D03*
X92016710Y-151900000D03*
G04 #@! TO.N,/rd[29]*
X124500000Y-149900000D03*
X92666710Y-150100000D03*
X99745860Y-150171143D03*
G04 #@! TO.N,/rd[28]*
X126100000Y-148600000D03*
X100516710Y-148500000D03*
X93316710Y-148500000D03*
G04 #@! TO.N,/rd[27]*
X129778248Y-145900008D03*
X101200000Y-145400000D03*
X93966710Y-145300000D03*
G04 #@! TO.N,/rd[26]*
X130600037Y-144199935D03*
X101816710Y-143800000D03*
X94616710Y-143900000D03*
G04 #@! TO.N,/rd[25]*
X131100000Y-142400000D03*
X95266710Y-142400000D03*
X102433290Y-142400000D03*
G04 #@! TO.N,/rd[24]*
X131916710Y-140800000D03*
X103116710Y-140800000D03*
X95916710Y-140800000D03*
G04 #@! TO.N,/rs1[31]*
X84800000Y-154900000D03*
X78100000Y-154900000D03*
G04 #@! TO.N,/rs1[30]*
X105800000Y-152600000D03*
X78800000Y-152700000D03*
X85466710Y-152700000D03*
X107100000Y-154200000D03*
G04 #@! TO.N,/rs1[29]*
X107066710Y-151000000D03*
X86066710Y-151100000D03*
X79600000Y-151100000D03*
X109100000Y-155900000D03*
G04 #@! TO.N,/rs1[28]*
X107716710Y-149300000D03*
X86766710Y-149300000D03*
X80216710Y-149300000D03*
X110300000Y-154300000D03*
G04 #@! TO.N,/rs1[27]*
X87400000Y-146400000D03*
X108366710Y-146400000D03*
X80900000Y-146400000D03*
X112000000Y-156900000D03*
G04 #@! TO.N,/rs1[26]*
X88100000Y-144600000D03*
X109016710Y-144600000D03*
X81516710Y-144600000D03*
X113880711Y-156544631D03*
G04 #@! TO.N,/rs1[25]*
X109700000Y-143100000D03*
X88716710Y-143100000D03*
X82166710Y-143100000D03*
X115000000Y-158000000D03*
G04 #@! TO.N,/rs1[24]*
X115800000Y-156400000D03*
X142200000Y-153300000D03*
X110316710Y-141600000D03*
X89366710Y-141600000D03*
G04 #@! TO.N,/rd[23]*
X163400000Y-152800000D03*
X156200000Y-152800000D03*
X118802908Y-152948688D03*
X113071436Y-152728564D03*
G04 #@! TO.N,/rd[22]*
X164016710Y-151200000D03*
X156816710Y-151200000D03*
X120075142Y-151422321D03*
X113655160Y-151133290D03*
G04 #@! TO.N,/rd[21]*
X164666710Y-149600000D03*
X157466710Y-149588584D03*
X114153669Y-149433290D03*
X121477679Y-149694342D03*
G04 #@! TO.N,/rd[20]*
X165316710Y-148000000D03*
X158066710Y-148000000D03*
X122654318Y-147933290D03*
X114820379Y-147854008D03*
G04 #@! TO.N,/rd[19]*
X166000000Y-152000000D03*
X158800000Y-152000000D03*
X125000000Y-152000000D03*
X115336525Y-152566710D03*
G04 #@! TO.N,/rd[18]*
X166616710Y-150400000D03*
X159416710Y-150400000D03*
X126000000Y-150400000D03*
X115721741Y-150777679D03*
G04 #@! TO.N,/rd[17]*
X167266710Y-148800000D03*
X160066710Y-148788584D03*
X128000000Y-148800000D03*
X116911542Y-149077679D03*
G04 #@! TO.N,/rd[16]*
X168000000Y-147200000D03*
X160666710Y-147200000D03*
X117666710Y-147188584D03*
X128747311Y-147577932D03*
G04 #@! TO.N,/rs1[23]*
X143000000Y-147600000D03*
X149567313Y-147458231D03*
X117400000Y-156100000D03*
X112300000Y-145800000D03*
G04 #@! TO.N,/rs1[22]*
X143728414Y-145565151D03*
X150264910Y-145418782D03*
X134933290Y-145145967D03*
X134800000Y-152600000D03*
G04 #@! TO.N,/rs1[21]*
X144400000Y-143800000D03*
X150890559Y-143748832D03*
X135533290Y-143573145D03*
X135600000Y-154200000D03*
G04 #@! TO.N,/rs1[20]*
X136466710Y-141685762D03*
X151565043Y-141668980D03*
X145066710Y-141400000D03*
X136400000Y-155800000D03*
G04 #@! TO.N,/rs1[19]*
X152223012Y-146057711D03*
X145600000Y-146777932D03*
X136866710Y-146748491D03*
X136861911Y-151804783D03*
G04 #@! TO.N,/rs1[18]*
X152872668Y-144345770D03*
X146200000Y-144733290D03*
X137600000Y-153400000D03*
X137404920Y-144698622D03*
G04 #@! TO.N,/rs1[17]*
X153421851Y-142658733D03*
X147003138Y-142715866D03*
X138533290Y-142444342D03*
X138400000Y-155000000D03*
G04 #@! TO.N,/rs1[16]*
X154275038Y-141092723D03*
X207200000Y-140600000D03*
X139200000Y-156400000D03*
X139083290Y-140399709D03*
G04 #@! TO.N,/rd[15]*
X177800000Y-146400000D03*
X170533290Y-146400000D03*
X120188622Y-146522321D03*
G04 #@! TO.N,/rd[7]*
X199200000Y-146400000D03*
X192000000Y-146400000D03*
X184950000Y-146400000D03*
G04 #@! TO.N,/rs1[12]*
X223000000Y-142400000D03*
X216400000Y-142400000D03*
X209816710Y-142400000D03*
X209800000Y-151400000D03*
G04 #@! TO.N,/rd[14]*
X178416710Y-144800000D03*
X171200000Y-144788584D03*
X120863753Y-144733290D03*
G04 #@! TO.N,/rd[13]*
X179066710Y-143200000D03*
X171866710Y-143200000D03*
X121466710Y-143133290D03*
G04 #@! TO.N,/rd[12]*
X179800000Y-141600000D03*
X172600000Y-141600000D03*
X122200000Y-141600000D03*
G04 #@! TO.N,/rd[11]*
X180400000Y-145600000D03*
X173150000Y-145600000D03*
X122612696Y-145533045D03*
G04 #@! TO.N,/rd[10]*
X181016710Y-144000000D03*
X173816710Y-144000000D03*
X123330807Y-143892990D03*
G04 #@! TO.N,/rd[9]*
X181666710Y-142400000D03*
X174368492Y-142558709D03*
X124136538Y-142296240D03*
G04 #@! TO.N,/rd[8]*
X182400000Y-140800000D03*
X175188584Y-140733290D03*
X124816494Y-140642035D03*
G04 #@! TO.N,/rd[6]*
X192800000Y-144800000D03*
X185600000Y-144800000D03*
X200016710Y-144800000D03*
G04 #@! TO.N,/rd[5]*
X186250000Y-143200000D03*
X200666710Y-143200000D03*
X193466710Y-143188584D03*
G04 #@! TO.N,/rd[4]*
X201400000Y-141600000D03*
X186900000Y-141600000D03*
X194066710Y-141588584D03*
G04 #@! TO.N,/rd[3]*
X201800000Y-145600000D03*
X194800000Y-145600000D03*
X187550000Y-145600000D03*
G04 #@! TO.N,/rd[2]*
X188200000Y-144000000D03*
X202616710Y-144000000D03*
X195466710Y-143988584D03*
G04 #@! TO.N,/rd[1]*
X188850000Y-142400000D03*
X203266710Y-142400000D03*
X196066710Y-142388584D03*
G04 #@! TO.N,/rd[0]*
X203916710Y-140800000D03*
X196666710Y-140800000D03*
X189516710Y-140798866D03*
G04 #@! TO.N,/rs1[15]*
X214400000Y-147200000D03*
X207800000Y-147200000D03*
X139800000Y-154000000D03*
G04 #@! TO.N,/rs1[14]*
X221600000Y-145600000D03*
X215066710Y-145600000D03*
X208466710Y-145588584D03*
X207600000Y-149200000D03*
G04 #@! TO.N,/rs1[13]*
X222266710Y-144000000D03*
X215666710Y-144000000D03*
X209133290Y-143999220D03*
X209200000Y-149800000D03*
G04 #@! TO.N,/rs1[11]*
X223600000Y-146400000D03*
X217000000Y-146400000D03*
X210466710Y-148200014D03*
X210466710Y-146389168D03*
G04 #@! TO.N,/rs1[10]*
X211200000Y-144800000D03*
X224216710Y-144800000D03*
X217666710Y-144800000D03*
X211200000Y-149800000D03*
G04 #@! TO.N,/rs1[9]*
X211800000Y-143200000D03*
X224866710Y-143200000D03*
X218266710Y-143188584D03*
X211800000Y-151400000D03*
G04 #@! TO.N,/rs1[8]*
X228800000Y-141600000D03*
X225600000Y-141600000D03*
X218866710Y-141600000D03*
X218800000Y-151600000D03*
G04 #@! TO.N,/rs1[7]*
X236000000Y-146400000D03*
X229400000Y-146400000D03*
X226200000Y-146400000D03*
G04 #@! TO.N,/rs1[6]*
X243200000Y-144800000D03*
X236666710Y-144800000D03*
X230066710Y-144800000D03*
X230200000Y-148600000D03*
G04 #@! TO.N,/rs1[5]*
X237400000Y-143200000D03*
X243866710Y-143200000D03*
X230533290Y-143083485D03*
X230800000Y-150200000D03*
G04 #@! TO.N,/rs1[4]*
X244600000Y-141600000D03*
X238066710Y-141588584D03*
X231416710Y-141600000D03*
X231400000Y-152000000D03*
G04 #@! TO.N,/rs1[3]*
X245000000Y-145600000D03*
X238600000Y-145600000D03*
X232066710Y-147800000D03*
X232066710Y-145600000D03*
G04 #@! TO.N,/rs1[2]*
X245816710Y-144000000D03*
X239266710Y-144000000D03*
X232700000Y-144000000D03*
X232600000Y-149400000D03*
G04 #@! TO.N,/rs1[1]*
X246466710Y-142400000D03*
X233366710Y-142400000D03*
X233400000Y-151000000D03*
X239933290Y-142400000D03*
G04 #@! TO.N,/rs1[0]*
X247116710Y-140800000D03*
X239200000Y-153733535D03*
X240526960Y-140840360D03*
G04 #@! TO.N,/~shift_oe'*
X255800000Y-153400000D03*
G04 #@! TO.N,/~shift_left'*
X251200000Y-153866710D03*
G04 #@! TO.N,/shift_arith'*
X255200000Y-155400000D03*
G04 #@! TO.N,/shift1*
X84000000Y-137600000D03*
X149011416Y-137866710D03*
X213611416Y-137866710D03*
X235483673Y-137866710D03*
X252716710Y-138466710D03*
X255577932Y-138466710D03*
X266800000Y-121800000D03*
X252750000Y-121800000D03*
X252400000Y-96800000D03*
X254972890Y-92027110D03*
G04 #@! TO.N,/~shift_left*
X133200000Y-135600000D03*
X135200000Y-135200000D03*
X169200000Y-135400000D03*
X183600000Y-135600000D03*
X205200000Y-135600000D03*
X244400000Y-135600000D03*
X253400000Y-109200000D03*
X97200000Y-97200000D03*
X118800000Y-97200000D03*
X135200000Y-96800000D03*
X157000000Y-96800000D03*
X183600000Y-97000000D03*
X204800000Y-97000000D03*
X221600000Y-96800000D03*
X243200000Y-96800000D03*
X113400000Y-58800000D03*
X156600000Y-58800000D03*
X192600000Y-58800000D03*
X266200000Y-135600000D03*
X222211416Y-59666710D03*
X228400000Y-59666710D03*
X244533290Y-75800000D03*
X249830929Y-106947363D03*
X250418970Y-96573034D03*
X251200000Y-135600000D03*
X106400004Y-134900000D03*
X220900000Y-135200000D03*
G04 #@! TO.N,/shift2*
X254000000Y-117200000D03*
X127400000Y-97600000D03*
X235400000Y-97600000D03*
X149000000Y-97666710D03*
X266222321Y-117000000D03*
X213678570Y-97815471D03*
X249322068Y-117139957D03*
X253567268Y-78189861D03*
X248199998Y-97600000D03*
G04 #@! TO.N,/shift_arith*
X67600000Y-130800000D03*
X256000000Y-130800000D03*
X252100000Y-130800000D03*
X251000000Y-94500000D03*
X264800000Y-130900000D03*
G04 #@! TO.N,/shift4*
X254600000Y-123600000D03*
X256200000Y-123600000D03*
X98400000Y-60200000D03*
X141400000Y-60200000D03*
X184600000Y-60200000D03*
X213600000Y-60200000D03*
X265000000Y-123600000D03*
X235200000Y-60200000D03*
X246700000Y-71700000D03*
G04 #@! TO.N,/~shift_oe*
X97200000Y-135400000D03*
X176400000Y-135400000D03*
X162011416Y-135333290D03*
X198000000Y-135133290D03*
X258600000Y-134933290D03*
X264800000Y-134800000D03*
X258600000Y-122800000D03*
X268400000Y-122800000D03*
X260600000Y-122799994D03*
G04 #@! TO.N,/shift8*
X254000000Y-125400000D03*
X257666710Y-125400000D03*
X89400000Y-99200000D03*
X110800000Y-99200000D03*
X175600000Y-99200000D03*
X197400000Y-99200000D03*
X264800000Y-125400000D03*
X255089030Y-98999114D03*
X255900004Y-78200000D03*
G04 #@! TO.N,/shift16*
X253400000Y-127400000D03*
X256800000Y-127400000D03*
X252600000Y-93900000D03*
X252500000Y-81000000D03*
X260233290Y-127400000D03*
X260200000Y-133900000D03*
X262200000Y-133900000D03*
G04 #@! TO.N,/~shift8*
X82000000Y-100000000D03*
X96600000Y-100000000D03*
X103600000Y-100000000D03*
X118000000Y-100000000D03*
X168400000Y-100000000D03*
X182800000Y-100000000D03*
X190200000Y-100000000D03*
X204600000Y-100000000D03*
X256600000Y-100000000D03*
X263600000Y-85800000D03*
G04 #@! TO.N,/~shift16*
X255400000Y-111800000D03*
X259188584Y-115333290D03*
X255400000Y-102800000D03*
X267433290Y-101000000D03*
X264424344Y-100975656D03*
X259200000Y-101375655D03*
G04 #@! TO.N,/~shift4*
X84000000Y-61000000D03*
X112800000Y-61000000D03*
X127000000Y-61000000D03*
X155800000Y-61000000D03*
X170200000Y-61000000D03*
X191800000Y-61000000D03*
X206200000Y-61000000D03*
X220800000Y-61000000D03*
X256000000Y-117800000D03*
X264000000Y-117800000D03*
X233600000Y-61000000D03*
X246500000Y-73900000D03*
X259200000Y-108700000D03*
X264622313Y-108900000D03*
G04 #@! TO.N,/~shift_right*
X77600000Y-134600000D03*
X104400000Y-134600000D03*
X118800000Y-134600000D03*
X126000000Y-134600000D03*
X190800000Y-134600000D03*
X142605100Y-134559320D03*
X207200000Y-134577679D03*
X228801644Y-134577679D03*
X82800000Y-96800000D03*
X104400000Y-96800000D03*
X120800000Y-96800000D03*
X169200000Y-96800000D03*
X190800000Y-96800000D03*
X207200000Y-96800000D03*
X142411416Y-96733290D03*
X228800000Y-96733290D03*
X84600000Y-57800000D03*
X127800000Y-57800000D03*
X171000000Y-57800000D03*
X207000000Y-57800000D03*
X229400000Y-57800000D03*
X248200000Y-76600000D03*
X249066457Y-110839645D03*
X253833290Y-110796153D03*
X260400000Y-105300000D03*
X253533291Y-103500000D03*
X250400004Y-133800000D03*
X253300003Y-95400003D03*
G04 #@! TO.N,/~shift2*
X120000000Y-98400000D03*
X134600000Y-98400000D03*
X156200000Y-98400000D03*
X221000000Y-98400000D03*
X242600000Y-98400000D03*
X254600000Y-115600000D03*
X141579670Y-98618310D03*
X206702668Y-98622321D03*
X228179670Y-98618310D03*
X263600000Y-113200000D03*
X251533290Y-98390263D03*
X251333290Y-115600000D03*
X251600000Y-76600000D03*
G04 #@! TO.N,/~shift_16_oe*
X103800000Y-137200000D03*
X118000000Y-137200000D03*
X125400000Y-137200000D03*
X132600000Y-137200000D03*
X168600000Y-137000000D03*
X190000000Y-137200000D03*
X204600000Y-137200000D03*
X183025815Y-137222321D03*
X260000000Y-136933290D03*
X266600000Y-105000000D03*
X267800000Y-124600000D03*
X259900000Y-124600000D03*
X261700000Y-102200000D03*
G04 #@! TO.N,/~shift1*
X136047989Y-136533290D03*
X208111926Y-136533290D03*
X221828579Y-136533290D03*
X243005259Y-136533290D03*
X107070378Y-136711835D03*
X143083341Y-136666710D03*
X229222082Y-136666345D03*
X253130490Y-136289791D03*
X263600000Y-115000000D03*
X252800000Y-116400000D03*
X268400000Y-115000000D03*
X76900000Y-136100004D03*
G04 #@! TO.N,/~noshift_16_oe*
X96600000Y-137800000D03*
X161211416Y-137666710D03*
X175800000Y-137666710D03*
X197200000Y-137866710D03*
X261800000Y-137800000D03*
X265000000Y-106400000D03*
X263200000Y-105200000D03*
G04 #@! TO.N,/msb*
X77616710Y-137600000D03*
X70600000Y-137600000D03*
X84600000Y-64400000D03*
X71800000Y-64400000D03*
X120800000Y-103000000D03*
X71800000Y-103000000D03*
G04 #@! TO.N,/msb'''*
X77600000Y-93800000D03*
X70600000Y-93800000D03*
G04 #@! TO.N,/msb''*
X113600000Y-131600000D03*
X72600000Y-131600000D03*
G04 #@! TO.N,/msb'*
X99200000Y-130000000D03*
X74200000Y-130000000D03*
G04 #@! TO.N,/s1[24]*
X132400000Y-127600000D03*
X139000000Y-127600000D03*
X142800000Y-127600000D03*
X113400000Y-127600000D03*
X90016710Y-127600000D03*
X82816710Y-127600000D03*
G04 #@! TO.N,/s1[25]*
X131600008Y-126000000D03*
X138177679Y-125998356D03*
X142000000Y-126000000D03*
X112600000Y-126000000D03*
X89400000Y-126000000D03*
X82200000Y-126000000D03*
G04 #@! TO.N,/s1[26]*
X130400000Y-124400000D03*
X137377679Y-124398356D03*
X125163478Y-124579394D03*
X112000376Y-124384327D03*
X88716710Y-124400000D03*
X81516710Y-124400000D03*
G04 #@! TO.N,/s1[27]*
X129600000Y-122800000D03*
X136600000Y-122800000D03*
X124666710Y-122886947D03*
X111644765Y-122800000D03*
X88066710Y-122800000D03*
X80866710Y-122800000D03*
G04 #@! TO.N,/s1[28]*
X128800000Y-121200000D03*
X135800000Y-121200000D03*
X123933290Y-121211416D03*
X110733543Y-121274878D03*
X87416710Y-121200000D03*
X80400000Y-121200000D03*
G04 #@! TO.N,/s1[29]*
X128200000Y-119600000D03*
X135000000Y-119600000D03*
X123333290Y-119605960D03*
X109982418Y-119466710D03*
X86800000Y-119600000D03*
X79600000Y-119600000D03*
G04 #@! TO.N,/s1[30]*
X127400000Y-118000000D03*
X122333280Y-118000000D03*
X108822321Y-117998357D03*
X86116710Y-118000000D03*
X78916710Y-118000000D03*
G04 #@! TO.N,/s1[31]*
X126600000Y-116200000D03*
X107800000Y-116400000D03*
X121600000Y-116400000D03*
X85400000Y-116400000D03*
X78000000Y-116400000D03*
G04 #@! TO.N,/s1[23]*
X149600000Y-104400000D03*
X143600000Y-104400000D03*
X139116710Y-104400000D03*
X135733387Y-104388584D03*
G04 #@! TO.N,/s1[22]*
X144400000Y-106000000D03*
X139800000Y-106000000D03*
X150266710Y-106000000D03*
X136600000Y-106000000D03*
G04 #@! TO.N,/s1[21]*
X156800000Y-107600000D03*
X151000000Y-107600000D03*
X145000000Y-107600000D03*
X137266710Y-107588584D03*
G04 #@! TO.N,/s1[20]*
X157400000Y-109200000D03*
X145600000Y-109200000D03*
X151666710Y-109200000D03*
X137999297Y-109078319D03*
G04 #@! TO.N,/s1[19]*
X152800000Y-110800000D03*
X158200000Y-110800000D03*
X146400000Y-110800000D03*
X138711596Y-110694276D03*
G04 #@! TO.N,/s1[18]*
X158800000Y-112400000D03*
X147000000Y-112400000D03*
X153533290Y-112411422D03*
X139400376Y-112283681D03*
G04 #@! TO.N,/s1[17]*
X159400000Y-114000000D03*
X207200000Y-114000000D03*
X154200000Y-114000000D03*
X147000000Y-114000000D03*
X139800000Y-114000000D03*
G04 #@! TO.N,/s1[16]*
X160000000Y-115600000D03*
X207733290Y-115600000D03*
X155000000Y-115600000D03*
X147800000Y-115600000D03*
X140600000Y-115600000D03*
G04 #@! TO.N,/s1[15]*
X207800000Y-119600000D03*
X160733290Y-119588584D03*
X221800000Y-119600000D03*
X214533290Y-119600000D03*
G04 #@! TO.N,/s1[14]*
X208600000Y-121200000D03*
X161400000Y-121200000D03*
X222866580Y-121200000D03*
X215766710Y-121200000D03*
G04 #@! TO.N,/s1[13]*
X209200000Y-122800000D03*
X223533290Y-122800000D03*
X216350000Y-122800000D03*
G04 #@! TO.N,/s1[12]*
X217016710Y-124400000D03*
X209816710Y-124400000D03*
X224200000Y-124400000D03*
G04 #@! TO.N,/s1[11]*
X224866710Y-126000000D03*
X210466710Y-126000000D03*
X217733290Y-126000000D03*
G04 #@! TO.N,/s1[10]*
X211116710Y-127600000D03*
X225483290Y-127611416D03*
X218333290Y-127600000D03*
G04 #@! TO.N,/s1[9]*
X211800000Y-129200000D03*
X226150000Y-129200000D03*
X218950000Y-129200000D03*
X229700000Y-128200000D03*
G04 #@! TO.N,/s1[8]*
X226816710Y-130800000D03*
X219616710Y-130800000D03*
X212416710Y-130800000D03*
X230300000Y-130000000D03*
G04 #@! TO.N,/s1[0]*
X248416710Y-131600000D03*
X241216710Y-131600000D03*
X234016710Y-131600000D03*
G04 #@! TO.N,/s1[1]*
X247750000Y-130000000D03*
X240533290Y-129988584D03*
X233411466Y-130000000D03*
G04 #@! TO.N,/s1[2]*
X247083290Y-128400000D03*
X239933290Y-128388584D03*
X233011467Y-128400000D03*
G04 #@! TO.N,/s1[3]*
X239266710Y-126800000D03*
X246416580Y-126800000D03*
X232141556Y-126700329D03*
G04 #@! TO.N,/s1[4]*
X245749870Y-125183298D03*
X238333290Y-125200000D03*
X231489154Y-125200000D03*
G04 #@! TO.N,/s1[5]*
X245133290Y-123600000D03*
X237733290Y-123450797D03*
X231133543Y-123600000D03*
G04 #@! TO.N,/s1[6]*
X244516710Y-122000000D03*
X237133290Y-121988584D03*
X227600000Y-122000000D03*
X230733290Y-122000000D03*
G04 #@! TO.N,/s1[7]*
X243800000Y-120400000D03*
X236533290Y-120400000D03*
X226600000Y-120400000D03*
X230084349Y-121024247D03*
G04 #@! TO.N,/s2[31]*
X134400000Y-65800000D03*
X99000000Y-65800000D03*
X87200000Y-65800000D03*
X126000000Y-65800000D03*
X121400000Y-65800000D03*
G04 #@! TO.N,/s2[30]*
X135400000Y-67400000D03*
X99600000Y-67400000D03*
X87800000Y-67400000D03*
X127000000Y-67400000D03*
X122116710Y-67400000D03*
G04 #@! TO.N,/s2[29]*
X136200000Y-69000000D03*
X100200000Y-69000000D03*
X88400000Y-69000000D03*
X127675325Y-69001773D03*
X122766710Y-69000000D03*
G04 #@! TO.N,/s2[28]*
X137000000Y-70600000D03*
X101000000Y-70600000D03*
X89200000Y-70600000D03*
X128400000Y-70600000D03*
X123416710Y-70600000D03*
G04 #@! TO.N,/s2[27]*
X113400000Y-76200000D03*
X101600000Y-76200000D03*
X131200000Y-76200000D03*
X138399935Y-76200037D03*
X128022321Y-76200000D03*
X124066710Y-76200000D03*
G04 #@! TO.N,/s2[26]*
X128600000Y-65000000D03*
X138800000Y-65000000D03*
X114066710Y-65000000D03*
X102266710Y-65000000D03*
X131400000Y-65000000D03*
X123600000Y-65000000D03*
G04 #@! TO.N,/s2[25]*
X129200000Y-66600000D03*
X139600000Y-66600000D03*
X114800000Y-66600000D03*
X102800000Y-66600000D03*
X132422323Y-66600000D03*
X124400000Y-66600000D03*
G04 #@! TO.N,/s2[24]*
X129800000Y-68200000D03*
X140400000Y-68200000D03*
X115400000Y-68200000D03*
X103600000Y-68200000D03*
X133422321Y-68200000D03*
X125200000Y-68200000D03*
G04 #@! TO.N,/s2[16]*
X162067078Y-81001644D03*
X158600000Y-81000000D03*
X146800000Y-81000000D03*
X152666710Y-81000000D03*
X172395593Y-80768254D03*
G04 #@! TO.N,/s2[17]*
X161222321Y-79504192D03*
X157800000Y-79400000D03*
X152000000Y-79400000D03*
X146083543Y-79398704D03*
X171716673Y-79196486D03*
G04 #@! TO.N,/s2[18]*
X160422321Y-77904192D03*
X157200000Y-77800000D03*
X151266710Y-77800000D03*
X145614444Y-77683318D03*
X170733290Y-77618130D03*
G04 #@! TO.N,/s2[19]*
X159572321Y-76200000D03*
X156400000Y-76200000D03*
X144800000Y-76200000D03*
X150666710Y-76200000D03*
X169933290Y-75832741D03*
G04 #@! TO.N,/s2[20]*
X155600000Y-74600000D03*
X150066710Y-74600000D03*
X144066710Y-74600000D03*
X118000000Y-74600000D03*
X132266710Y-74600000D03*
G04 #@! TO.N,/s2[21]*
X154866710Y-73000000D03*
X149466710Y-73000000D03*
X143466710Y-73000000D03*
X117200000Y-73000000D03*
X131666710Y-72959448D03*
G04 #@! TO.N,/s2[22]*
X154000000Y-71400000D03*
X148866710Y-71400000D03*
X142866710Y-71400000D03*
X116600000Y-71400000D03*
X130733290Y-71317732D03*
G04 #@! TO.N,/s2[23]*
X142200000Y-69800000D03*
X153200000Y-69800000D03*
X148200000Y-69800000D03*
X116000000Y-69800000D03*
X130377679Y-69800000D03*
G04 #@! TO.N,/s2[8]*
X216000000Y-80200000D03*
X226800000Y-80200000D03*
X190000000Y-80200000D03*
X219822321Y-80200000D03*
X212600000Y-80200000D03*
X201733290Y-80200000D03*
G04 #@! TO.N,/s2[9]*
X215200000Y-78600000D03*
X226066710Y-78611416D03*
X201000000Y-78600000D03*
X189200000Y-78600000D03*
X218933543Y-78574368D03*
X211800000Y-78600000D03*
G04 #@! TO.N,/s2[10]*
X214400000Y-77000000D03*
X225466710Y-77011416D03*
X188600000Y-77000000D03*
X218022321Y-77000000D03*
X211116710Y-77000000D03*
X200333290Y-77000000D03*
G04 #@! TO.N,/s2[11]*
X224800000Y-75400000D03*
X217000000Y-75400000D03*
X213733290Y-75411416D03*
X210400000Y-75400000D03*
X188016710Y-75400000D03*
X199733290Y-75400000D03*
G04 #@! TO.N,/s2[12]*
X224216710Y-93000000D03*
X217016710Y-93000000D03*
X209816710Y-93000000D03*
X161200000Y-93000000D03*
X175766710Y-93000000D03*
X186954821Y-93411949D03*
G04 #@! TO.N,/s2[13]*
X223600000Y-91400000D03*
X216400000Y-91400000D03*
X209166710Y-91400000D03*
X174822321Y-91533109D03*
X186533290Y-91405789D03*
X160483543Y-91400000D03*
G04 #@! TO.N,/s2[14]*
X215800000Y-89800000D03*
X222916710Y-89800000D03*
X208516710Y-89800000D03*
X186000000Y-89800000D03*
X173933290Y-89887687D03*
X159733290Y-89826406D03*
G04 #@! TO.N,/s2[15]*
X222200000Y-88200000D03*
X215000000Y-88000000D03*
X207800000Y-88200000D03*
X185400000Y-88200000D03*
X159133290Y-88204462D03*
X173222321Y-88332353D03*
G04 #@! TO.N,/s2[7]*
X243800000Y-81800000D03*
X236400000Y-81800000D03*
X229200000Y-81800000D03*
X216533290Y-81611848D03*
X202333290Y-81800000D03*
G04 #@! TO.N,/s2[6]*
X237200000Y-83400000D03*
X244516710Y-83400000D03*
X217173799Y-83369073D03*
X230016450Y-83400000D03*
X202933290Y-83400000D03*
G04 #@! TO.N,/s2[5]*
X238000000Y-85000000D03*
X245166710Y-85000000D03*
X217938081Y-85004791D03*
X230683160Y-85000000D03*
X203533290Y-85000000D03*
G04 #@! TO.N,/s2[4]*
X245666580Y-86549429D03*
X204200000Y-86600000D03*
X218666710Y-86600000D03*
X231349870Y-86600000D03*
X238533290Y-86617166D03*
G04 #@! TO.N,/s2[3]*
X246333290Y-88163595D03*
X232016580Y-88200000D03*
X239200000Y-88200000D03*
G04 #@! TO.N,/s2[2]*
X239866710Y-89811416D03*
X247000000Y-89800000D03*
X232683290Y-89800000D03*
G04 #@! TO.N,/s2[1]*
X247800000Y-91400000D03*
X233350000Y-91410832D03*
X240550000Y-91400000D03*
G04 #@! TO.N,/s2[0]*
X248416710Y-93000000D03*
X241216710Y-93000000D03*
X234016710Y-93000000D03*
G04 #@! TO.N,/s4[31]*
X99200000Y-88200000D03*
X84800000Y-88000000D03*
X85200000Y-49200000D03*
X99600000Y-49200000D03*
X114000000Y-49200000D03*
X92400000Y-49200000D03*
G04 #@! TO.N,/s4[30]*
X99866710Y-89800000D03*
X85466710Y-89800000D03*
X100400000Y-50800000D03*
X85916710Y-50800000D03*
X114716710Y-50800000D03*
X93200000Y-50800000D03*
G04 #@! TO.N,/s4[29]*
X100516710Y-91400000D03*
X86066710Y-91400000D03*
X101000000Y-52400000D03*
X86566710Y-52400000D03*
X115400000Y-52400000D03*
X94000000Y-52400000D03*
G04 #@! TO.N,/s4[28]*
X101200000Y-93000000D03*
X86666710Y-93000000D03*
X87216710Y-54000000D03*
X101616710Y-54000000D03*
X116016710Y-54000000D03*
X94666710Y-54000000D03*
G04 #@! TO.N,/s4[27]*
X87400000Y-89000000D03*
X87800000Y-50000000D03*
X102200000Y-50000000D03*
X116600000Y-50000000D03*
X95200000Y-50000000D03*
X101866710Y-88988584D03*
G04 #@! TO.N,/s4[26]*
X102466710Y-90600000D03*
X88066710Y-90611416D03*
X88516710Y-51600000D03*
X102866710Y-51600000D03*
X117400000Y-51600000D03*
X95866710Y-51600000D03*
G04 #@! TO.N,/s4[25]*
X88800000Y-92200000D03*
X103116710Y-92200000D03*
X103600000Y-53200000D03*
X89166710Y-53200000D03*
X118000000Y-53200000D03*
X96466710Y-53200000D03*
G04 #@! TO.N,/s4[24]*
X103800000Y-93800000D03*
X89400000Y-93800000D03*
X89816710Y-54800000D03*
X104216710Y-54800000D03*
X118600000Y-54800000D03*
X97066710Y-54800000D03*
G04 #@! TO.N,/s4[16]*
X168600000Y-83400000D03*
X111000000Y-83400000D03*
X96566710Y-83400000D03*
X166066710Y-55000000D03*
X161866710Y-55011416D03*
X147416710Y-55000000D03*
X133016710Y-55000000D03*
G04 #@! TO.N,/s4[17]*
X167800000Y-81800000D03*
X110266710Y-81800000D03*
X95916710Y-81800000D03*
X161200000Y-53400000D03*
X165466710Y-53400000D03*
X146766710Y-53400000D03*
X132400000Y-53400000D03*
G04 #@! TO.N,/s4[18]*
X109666710Y-80211416D03*
X95266710Y-80200000D03*
X164800000Y-51800000D03*
X160600000Y-51800000D03*
X146200000Y-51800000D03*
X131800000Y-51800000D03*
X167089154Y-80211431D03*
G04 #@! TO.N,/s4[19]*
X166400000Y-78600000D03*
X109000000Y-78600000D03*
X164000000Y-50200000D03*
X159800000Y-50200000D03*
X145400000Y-50200000D03*
X131000000Y-50200000D03*
X94616710Y-78600000D03*
G04 #@! TO.N,/s4[20]*
X141200000Y-77000000D03*
X159200000Y-54200000D03*
X130416710Y-54200000D03*
X144816710Y-54200000D03*
X108266710Y-77011416D03*
X93966710Y-77000000D03*
X140266710Y-54200000D03*
X165688282Y-77012188D03*
G04 #@! TO.N,/s4[21]*
X129800000Y-52600000D03*
X144200000Y-52600000D03*
X158466710Y-52600000D03*
X140400000Y-75400000D03*
X139600000Y-52600000D03*
X107666710Y-75411416D03*
X93316710Y-75400000D03*
X165333420Y-75400000D03*
G04 #@! TO.N,/s4[22]*
X129116710Y-51000000D03*
X143466710Y-51000000D03*
X157866710Y-51000000D03*
X92800000Y-73800000D03*
X164666710Y-73800000D03*
X107066710Y-73800000D03*
X139000000Y-73800000D03*
X138800000Y-51000000D03*
G04 #@! TO.N,/s4[23]*
X128400000Y-49400000D03*
X142800000Y-49400000D03*
X157200000Y-49400000D03*
X163800000Y-72200000D03*
X106200000Y-72200000D03*
X92000000Y-72200000D03*
X137800000Y-72200000D03*
X137800000Y-49400000D03*
G04 #@! TO.N,/s4[8]*
X190200000Y-90600000D03*
X176622319Y-90959699D03*
X182600000Y-55000000D03*
X190666710Y-55011416D03*
X176216710Y-55000000D03*
X118166710Y-90600000D03*
X198000000Y-55000000D03*
G04 #@! TO.N,/s4[9]*
X176200000Y-68200000D03*
X181600000Y-68200000D03*
X190000000Y-53400000D03*
X181666710Y-53400000D03*
X175622566Y-89000000D03*
X189689152Y-88976735D03*
X175600000Y-53400000D03*
X117516710Y-89000000D03*
X197216710Y-53400000D03*
G04 #@! TO.N,/s4[10]*
X175000000Y-87400000D03*
X180800000Y-66600000D03*
X181000000Y-51800000D03*
X175022323Y-66600000D03*
X189266710Y-51811416D03*
X188908416Y-87376799D03*
X175000000Y-51800000D03*
X116866710Y-87400000D03*
X196600000Y-51800000D03*
G04 #@! TO.N,/s4[11]*
X174000000Y-65000000D03*
X180200000Y-65000000D03*
X180400000Y-50200000D03*
X188600000Y-50200000D03*
X188377930Y-85830726D03*
X173878929Y-85780028D03*
X174400000Y-50200000D03*
X116216710Y-85800000D03*
X196000000Y-50200000D03*
G04 #@! TO.N,/s4[12]*
X172866710Y-84188584D03*
X187822321Y-84304192D03*
X169000000Y-68200000D03*
X169000000Y-54200000D03*
X173022321Y-68200000D03*
X188016710Y-54200000D03*
X173583290Y-54200000D03*
X115600000Y-84200000D03*
X195266710Y-54200000D03*
G04 #@! TO.N,/s4[13]*
X186800000Y-82600000D03*
X172133387Y-82588584D03*
X168200000Y-66600000D03*
X168200000Y-52600000D03*
X173000000Y-52600000D03*
X187400000Y-52600000D03*
X172022894Y-66577114D03*
X114800000Y-82600000D03*
X194616710Y-52600000D03*
G04 #@! TO.N,/s4[14]*
X184666710Y-86600000D03*
X171866710Y-86600000D03*
X172400000Y-51000000D03*
X186800000Y-51000000D03*
X171000000Y-65000000D03*
X167400000Y-65000000D03*
X167400000Y-51000000D03*
X114266710Y-86600000D03*
X194000000Y-51000000D03*
G04 #@! TO.N,/s4[15]*
X184000000Y-85000000D03*
X171600000Y-49400000D03*
X186000000Y-49400000D03*
X170885728Y-85028599D03*
X170600000Y-69800000D03*
X166600000Y-49400000D03*
X113600000Y-85000000D03*
X166666710Y-69800000D03*
X193200000Y-49400000D03*
G04 #@! TO.N,/s4[7]*
X178200000Y-69800000D03*
X192800000Y-69800000D03*
X222000000Y-49400000D03*
X214800000Y-49400000D03*
X207600000Y-49400000D03*
X200400000Y-49400000D03*
X202221339Y-69846751D03*
G04 #@! TO.N,/s4[6]*
X193450000Y-71400000D03*
X179066710Y-71400000D03*
X215600000Y-51000000D03*
X222766710Y-51000000D03*
X208366710Y-51000000D03*
X201066710Y-51000000D03*
X204174176Y-71425824D03*
G04 #@! TO.N,/s4[5]*
X194100000Y-73000000D03*
X179716710Y-73000000D03*
X223416710Y-52600000D03*
X216216710Y-52600000D03*
X209016710Y-52600000D03*
X201666710Y-52600000D03*
X205400000Y-73000000D03*
G04 #@! TO.N,/s4[4]*
X194750000Y-74600000D03*
X180366710Y-74600000D03*
X209666710Y-54200000D03*
X202200000Y-54200000D03*
X206000000Y-74600000D03*
X224244634Y-54200000D03*
X217044634Y-54211416D03*
G04 #@! TO.N,/s4[3]*
X210266710Y-50200000D03*
X195400000Y-76200000D03*
X181016710Y-76200000D03*
X217400000Y-50200000D03*
X224800000Y-50200000D03*
X206800000Y-76200000D03*
X203000000Y-50066710D03*
G04 #@! TO.N,/s4[2]*
X211000000Y-51800000D03*
X196050000Y-77800000D03*
X181666710Y-77800000D03*
X218200000Y-51800000D03*
X225400000Y-51800000D03*
X207600000Y-77800000D03*
X203666710Y-51933290D03*
G04 #@! TO.N,/s4[1]*
X211666710Y-53411416D03*
X182400000Y-79400000D03*
X196422321Y-79400000D03*
X218816710Y-53400000D03*
X226016710Y-53400000D03*
X208400000Y-79400000D03*
X204466710Y-53400000D03*
G04 #@! TO.N,/s4[0]*
X212400000Y-55000000D03*
X219600000Y-55000000D03*
X226800000Y-55000000D03*
X197350000Y-81000000D03*
X182966710Y-81000000D03*
X205000000Y-55000000D03*
X209200000Y-81000000D03*
G04 #@! TO.N,/s8[31]*
X91400000Y-104400000D03*
X84200000Y-104400000D03*
X76933290Y-104400000D03*
X119600000Y-104400000D03*
G04 #@! TO.N,/s8[30]*
X84800000Y-106000000D03*
X77533290Y-105988584D03*
X92066710Y-106011416D03*
X120600000Y-106000000D03*
G04 #@! TO.N,/s8[29]*
X85400000Y-107600000D03*
X78200000Y-107600000D03*
X92666710Y-107611416D03*
X121600000Y-107200000D03*
G04 #@! TO.N,/s8[28]*
X93400000Y-109200000D03*
X86200000Y-109200000D03*
X78933290Y-109200000D03*
X122600000Y-108800000D03*
G04 #@! TO.N,/s8[27]*
X86800000Y-110800000D03*
X79533290Y-110788584D03*
X94066710Y-110800000D03*
X123622321Y-110304192D03*
G04 #@! TO.N,/s8[26]*
X87400000Y-112400000D03*
X80133290Y-112388584D03*
X94666710Y-112400000D03*
X124333543Y-111975298D03*
G04 #@! TO.N,/s8[25]*
X88000000Y-114000000D03*
X80800000Y-114000000D03*
X95266710Y-114000000D03*
X125044765Y-113469591D03*
G04 #@! TO.N,/s8[24]*
X88800000Y-115600000D03*
X81400000Y-115600000D03*
X95866710Y-115611416D03*
X125853991Y-114790756D03*
G04 #@! TO.N,/s8[16]*
X161466710Y-128411416D03*
X191400000Y-128400000D03*
X117600000Y-128400000D03*
X110400000Y-128400000D03*
X103000000Y-128400000D03*
G04 #@! TO.N,/s8[17]*
X160800000Y-126800000D03*
X190400008Y-126800000D03*
X116933290Y-126788584D03*
X102400000Y-126800000D03*
X109533290Y-126800000D03*
G04 #@! TO.N,/s8[18]*
X160066710Y-125200000D03*
X189600244Y-125121533D03*
X116200000Y-125200000D03*
X101800000Y-125200000D03*
X108938081Y-125204791D03*
G04 #@! TO.N,/s8[19]*
X159416710Y-123600000D03*
X189000244Y-123488140D03*
X115533290Y-123600000D03*
X101200000Y-123600000D03*
X108143789Y-123599083D03*
G04 #@! TO.N,/s8[20]*
X158866710Y-122011416D03*
X187851017Y-121818517D03*
X114933290Y-122000000D03*
X100400000Y-122000000D03*
X107200000Y-122000000D03*
G04 #@! TO.N,/s8[21]*
X158200000Y-120400000D03*
X187200000Y-120400000D03*
X114200000Y-120400000D03*
X99800000Y-120400000D03*
X106577679Y-120316167D03*
G04 #@! TO.N,/s8[22]*
X157466710Y-118811416D03*
X186304791Y-118838081D03*
X113533290Y-118788584D03*
X99000000Y-118800000D03*
X105800014Y-118800000D03*
G04 #@! TO.N,/s8[23]*
X156800000Y-117200000D03*
X183200000Y-117200000D03*
X98400000Y-117200000D03*
X112942009Y-117133290D03*
X104999990Y-117200000D03*
G04 #@! TO.N,/s8[8]*
X175800000Y-114800000D03*
X182400000Y-114800000D03*
X168000000Y-114800000D03*
X132533290Y-114811416D03*
G04 #@! TO.N,/s8[9]*
X181600000Y-113200000D03*
X131800000Y-113200000D03*
X175116710Y-113200000D03*
X167200000Y-113200000D03*
G04 #@! TO.N,/s8[10]*
X181000000Y-111600000D03*
X174466710Y-111600000D03*
X166600000Y-111749203D03*
X131133290Y-111789371D03*
G04 #@! TO.N,/s8[11]*
X180400000Y-110000000D03*
X173800000Y-110000000D03*
X130533290Y-110115762D03*
X165933290Y-110010333D03*
G04 #@! TO.N,/s8[12]*
X179600000Y-108400000D03*
X173150000Y-108400000D03*
X165200000Y-108411416D03*
X129867740Y-108389389D03*
G04 #@! TO.N,/s8[13]*
X179000000Y-106800000D03*
X172516710Y-106800000D03*
X164600000Y-106811416D03*
X129283290Y-106955215D03*
G04 #@! TO.N,/s8[14]*
X178400000Y-105200000D03*
X171850000Y-105200000D03*
X164000000Y-105211416D03*
X128699083Y-105243789D03*
G04 #@! TO.N,/s8[15]*
X177600000Y-103600000D03*
X171000000Y-103600000D03*
X163200000Y-103600000D03*
X127983290Y-103690946D03*
G04 #@! TO.N,/s8[7]*
X192600000Y-116400000D03*
X199200000Y-116400000D03*
X164000000Y-116400000D03*
X184800000Y-116400000D03*
G04 #@! TO.N,/s8[6]*
X164666710Y-118011416D03*
X184800008Y-118000000D03*
X193383160Y-118000000D03*
X199983290Y-118000000D03*
G04 #@! TO.N,/s8[5]*
X165266710Y-122800000D03*
X194049870Y-122800000D03*
X200600000Y-122800000D03*
X186400000Y-122800000D03*
G04 #@! TO.N,/s8[4]*
X166000000Y-124333290D03*
X194716580Y-124411416D03*
X201283290Y-124400000D03*
X187200000Y-124400000D03*
G04 #@! TO.N,/s8[3]*
X166616710Y-126000000D03*
X195383290Y-126000000D03*
X201933290Y-126000000D03*
X187800000Y-126000000D03*
G04 #@! TO.N,/s8[2]*
X167266710Y-127600000D03*
X196050000Y-127600000D03*
X202533290Y-127600000D03*
X188600000Y-127600000D03*
G04 #@! TO.N,/s8[1]*
X168000000Y-129200000D03*
X196716710Y-129200000D03*
X203200000Y-129200000D03*
X189599990Y-129200000D03*
G04 #@! TO.N,/s8[0]*
X197400000Y-130800000D03*
X168600000Y-130800000D03*
X204000000Y-130800000D03*
X190400000Y-130800000D03*
G04 #@! TD*
D14*
G04 #@! TO.N,VCC*
X206040000Y-163010000D02*
X206040000Y-159840000D01*
X206040000Y-159840000D02*
X206000000Y-159800000D01*
X195000000Y-162970000D02*
X195040000Y-163010000D01*
X195000000Y-159800000D02*
X195000000Y-162970000D01*
X184040000Y-163010000D02*
X184040000Y-159840000D01*
X184040000Y-159840000D02*
X184000000Y-159800000D01*
X146040000Y-163010000D02*
X146040000Y-160040000D01*
X146040000Y-160040000D02*
X146000000Y-160000000D01*
X135040000Y-160605685D02*
X135040000Y-163010000D01*
X135000000Y-160565685D02*
X135040000Y-160605685D01*
X135000000Y-160000000D02*
X135000000Y-160565685D01*
X124040000Y-163010000D02*
X124040000Y-160040000D01*
X124040000Y-160040000D02*
X124000000Y-160000000D01*
X111000000Y-162970000D02*
X111040000Y-163010000D01*
X111000000Y-160000000D02*
X111000000Y-162970000D01*
X171040000Y-163010000D02*
X171040000Y-159817013D01*
X171040000Y-159817013D02*
X171022321Y-159799334D01*
G04 #@! TO.N,GND*
X209000000Y-162970000D02*
X209040000Y-163010000D01*
X209000000Y-159800000D02*
X209000000Y-162970000D01*
X203000000Y-162970000D02*
X203040000Y-163010000D01*
X203000000Y-159800000D02*
X203000000Y-162970000D01*
X198040000Y-163010000D02*
X198040000Y-159960000D01*
X198040000Y-159960000D02*
X198200000Y-159800000D01*
X192040000Y-163010000D02*
X192040000Y-159960000D01*
X192040000Y-159960000D02*
X192200000Y-159800000D01*
X187200000Y-162850000D02*
X187040000Y-163010000D01*
X187200000Y-159800000D02*
X187200000Y-162850000D01*
X181200000Y-162850000D02*
X181040000Y-163010000D01*
X181200000Y-159800000D02*
X181200000Y-162850000D01*
X168040000Y-163010000D02*
X168040000Y-159840000D01*
X168040000Y-159840000D02*
X168000000Y-159800000D01*
X149040000Y-160605685D02*
X149040000Y-163010000D01*
X149000000Y-160565685D02*
X149040000Y-160605685D01*
X149000000Y-160000000D02*
X149000000Y-160565685D01*
X143000000Y-162970000D02*
X143040000Y-163010000D01*
X143000000Y-160000000D02*
X143000000Y-162970000D01*
X138040000Y-163010000D02*
X138040000Y-160040000D01*
X138040000Y-160040000D02*
X138000000Y-160000000D01*
X132040000Y-163010000D02*
X132040000Y-160040000D01*
X132040000Y-160040000D02*
X132000000Y-160000000D01*
X127000000Y-162970000D02*
X127040000Y-163010000D01*
X127000000Y-160000000D02*
X127000000Y-162970000D01*
X121000000Y-162970000D02*
X121040000Y-163010000D01*
X121000000Y-160000000D02*
X121000000Y-162970000D01*
X114040000Y-163010000D02*
X114040000Y-160040000D01*
X114040000Y-160040000D02*
X114000000Y-160000000D01*
X108040000Y-163010000D02*
X108040000Y-160040000D01*
X108040000Y-160040000D02*
X108000000Y-160000000D01*
X174040000Y-159826710D02*
X174066710Y-159800000D01*
X174040000Y-163010000D02*
X174040000Y-159826710D01*
D15*
G04 #@! TO.N,/rd[31]*
X91300000Y-153600000D02*
X98600000Y-153600000D01*
X107486720Y-153600000D02*
X107420018Y-153533298D01*
X111300000Y-153600000D02*
X107486720Y-153600000D01*
X106779982Y-153533298D02*
X106713280Y-153600000D01*
X106713280Y-153600000D02*
X98600000Y-153600000D01*
X111799999Y-154099999D02*
X111300000Y-153600000D01*
X122200001Y-154099999D02*
X111799999Y-154099999D01*
X122600000Y-153700000D02*
X122200001Y-154099999D01*
X107420018Y-153533298D02*
X106779982Y-153533298D01*
G04 #@! TO.N,/rd[30]*
X99216710Y-151900000D02*
X92016710Y-151900000D01*
X120400000Y-152200000D02*
X119500000Y-152200000D01*
X105313282Y-151900000D02*
X99216710Y-151900000D01*
X121000000Y-151600000D02*
X120400000Y-152200000D01*
X105479983Y-151733299D02*
X105313282Y-151900000D01*
X119500000Y-152200000D02*
X119200000Y-151900000D01*
X119200000Y-151900000D02*
X106286718Y-151900000D01*
X106120017Y-151733299D02*
X105479983Y-151733299D01*
X123500000Y-151600000D02*
X121000000Y-151600000D01*
X106286718Y-151900000D02*
X106120017Y-151733299D01*
G04 #@! TO.N,/rd[29]*
X122707464Y-150400000D02*
X119500000Y-150400000D01*
X119200000Y-150100000D02*
X100382688Y-150100000D01*
X92666710Y-150100000D02*
X99674717Y-150100000D01*
X99674717Y-150100000D02*
X99745860Y-150171143D01*
X123207464Y-149900000D02*
X122707464Y-150400000D01*
X124500000Y-149900000D02*
X123207464Y-149900000D01*
X100382688Y-150100000D02*
X100311545Y-150171143D01*
X100311545Y-150171143D02*
X99745860Y-150171143D01*
X119500000Y-150400000D02*
X119200000Y-150100000D01*
G04 #@! TO.N,/rd[28]*
X100516710Y-148500000D02*
X93316710Y-148500000D01*
X125534315Y-148600000D02*
X125456392Y-148522077D01*
X117231560Y-148410977D02*
X115211106Y-148410977D01*
X114443377Y-148500000D02*
X100516710Y-148500000D01*
X123885387Y-148522077D02*
X123807464Y-148600000D01*
X117320583Y-148500000D02*
X117231560Y-148410977D01*
X126100000Y-148600000D02*
X125534315Y-148600000D01*
X115211106Y-148410977D02*
X115101373Y-148520710D01*
X125456392Y-148522077D02*
X123885387Y-148522077D01*
X114464087Y-148520710D02*
X114443377Y-148500000D01*
X115101373Y-148520710D02*
X114464087Y-148520710D01*
X121800000Y-148500000D02*
X117320583Y-148500000D01*
X123807464Y-148600000D02*
X121900000Y-148600000D01*
X121900000Y-148600000D02*
X121800000Y-148500000D01*
G04 #@! TO.N,/rd[27]*
X101200000Y-145400000D02*
X94066710Y-145400000D01*
X94066710Y-145400000D02*
X93966710Y-145300000D01*
X128912816Y-146199755D02*
X121699755Y-146199755D01*
X119900000Y-145500000D02*
X119371436Y-144971436D01*
X109631994Y-144971436D02*
X109203430Y-145400000D01*
X109203430Y-145400000D02*
X101200000Y-145400000D01*
X119371436Y-144971436D02*
X109631994Y-144971436D01*
X129212563Y-145900008D02*
X128912816Y-146199755D01*
X129778248Y-145900008D02*
X129212563Y-145900008D01*
X121699755Y-146199755D02*
X121000000Y-145500000D01*
X121000000Y-145500000D02*
X119900000Y-145500000D01*
G04 #@! TO.N,/rd[26]*
X94916709Y-144199999D02*
X94616710Y-143900000D01*
X101416711Y-144199999D02*
X94916709Y-144199999D01*
X101816710Y-143800000D02*
X101416711Y-144199999D01*
X129712211Y-144522076D02*
X129185387Y-144522076D01*
X123080012Y-144510732D02*
X122610729Y-144510732D01*
X130600037Y-144199935D02*
X130034352Y-144199935D01*
X130034352Y-144199935D02*
X129712211Y-144522076D01*
X129185387Y-144522076D02*
X128907465Y-144799998D01*
X128907465Y-144799998D02*
X123369277Y-144799998D01*
X108579983Y-143733299D02*
X108513282Y-143800000D01*
X104720017Y-144266701D02*
X104079983Y-144266701D01*
X108513282Y-143800000D02*
X105186718Y-143800000D01*
X109220017Y-143733299D02*
X108579983Y-143733299D01*
X105186718Y-143800000D02*
X104720017Y-144266701D01*
X103613282Y-143800000D02*
X101816710Y-143800000D01*
X104079983Y-144266701D02*
X103613282Y-143800000D01*
X109286718Y-143800000D02*
X109220017Y-143733299D01*
X118213282Y-143800000D02*
X109286718Y-143800000D01*
X118479983Y-144066701D02*
X118213282Y-143800000D01*
X119220017Y-144066701D02*
X118479983Y-144066701D01*
X119486718Y-143800000D02*
X119220017Y-144066701D01*
X122610729Y-144510732D02*
X121899997Y-143800000D01*
X121899997Y-143800000D02*
X119486718Y-143800000D01*
X123369277Y-144799998D02*
X123080012Y-144510732D01*
G04 #@! TO.N,/rd[25]*
X95266710Y-142400000D02*
X102433290Y-142400000D01*
X123798123Y-142870677D02*
X123516077Y-142870677D01*
X123516077Y-142870677D02*
X123045400Y-142400000D01*
X123045400Y-142400000D02*
X102433290Y-142400000D01*
X126786717Y-142799999D02*
X126520017Y-142533299D01*
X125066701Y-142533299D02*
X124487096Y-143112904D01*
X131100000Y-142400000D02*
X130700001Y-142799999D01*
X130700001Y-142799999D02*
X126786717Y-142799999D01*
X126520017Y-142533299D02*
X125066701Y-142533299D01*
X124487096Y-143112904D02*
X124040349Y-143112904D01*
X124040349Y-143112904D02*
X123798123Y-142870677D01*
G04 #@! TO.N,/rd[24]*
X96316709Y-140400001D02*
X95916710Y-140800000D01*
X102716711Y-140400001D02*
X96316709Y-140400001D01*
X103116710Y-140800000D02*
X102716711Y-140400001D01*
X124796393Y-141466466D02*
X124603854Y-141273927D01*
X123600000Y-140800000D02*
X118386718Y-140800000D01*
X127320017Y-141666701D02*
X127162146Y-141666701D01*
X103516709Y-140400001D02*
X103116710Y-140800000D01*
X127162146Y-141666701D02*
X126961911Y-141466466D01*
X128186718Y-140800000D02*
X127320017Y-141666701D01*
X131916710Y-140800000D02*
X128186718Y-140800000D01*
X124603854Y-141273927D02*
X124073927Y-141273927D01*
X117479983Y-140633299D02*
X117313282Y-140800000D01*
X110933299Y-140800000D02*
X105886718Y-140800000D01*
X118220017Y-140633299D02*
X117479983Y-140633299D01*
X112386718Y-140800000D02*
X112020017Y-141166701D01*
X126961911Y-141466466D02*
X124796393Y-141466466D01*
X105486719Y-140400001D02*
X103516709Y-140400001D01*
X111300000Y-141166701D02*
X110933299Y-140800000D01*
X118386718Y-140800000D02*
X118220017Y-140633299D01*
X117313282Y-140800000D02*
X112386718Y-140800000D01*
X105886718Y-140800000D02*
X105486719Y-140400001D01*
X112020017Y-141166701D02*
X111300000Y-141166701D01*
X124073927Y-141273927D02*
X123600000Y-140800000D01*
G04 #@! TO.N,/rs1[31]*
X106040000Y-157440000D02*
X106040000Y-163010000D01*
X84800000Y-154900000D02*
X103500000Y-154900000D01*
X103500000Y-154900000D02*
X106040000Y-157440000D01*
X84800000Y-154900000D02*
X78100000Y-154900000D01*
G04 #@! TO.N,/rs1[30]*
X105134315Y-152700000D02*
X85466710Y-152700000D01*
X105234315Y-152600000D02*
X105134315Y-152700000D01*
X105800000Y-152600000D02*
X105234315Y-152600000D01*
X78800000Y-152700000D02*
X85466710Y-152700000D01*
X107040000Y-154260000D02*
X107100000Y-154200000D01*
X107040000Y-163010000D02*
X107040000Y-154260000D01*
G04 #@! TO.N,/rs1[29]*
X86166710Y-151000000D02*
X86066710Y-151100000D01*
X107066710Y-151000000D02*
X86166710Y-151000000D01*
X79600000Y-151100000D02*
X86066710Y-151100000D01*
X109040000Y-163010000D02*
X109040000Y-155960000D01*
X109040000Y-155960000D02*
X109100000Y-155900000D01*
G04 #@! TO.N,/rs1[28]*
X107716710Y-149300000D02*
X86766710Y-149300000D01*
X86766710Y-149300000D02*
X80216710Y-149300000D01*
X110040000Y-154560000D02*
X110300000Y-154300000D01*
X110040000Y-163010000D02*
X110040000Y-154560000D01*
G04 #@! TO.N,/rs1[27]*
X87400000Y-146400000D02*
X108366710Y-146400000D01*
X80900000Y-146400000D02*
X87400000Y-146400000D01*
X112040000Y-160632200D02*
X112100000Y-160572200D01*
X112040000Y-163010000D02*
X112040000Y-160632200D01*
X112100000Y-160572200D02*
X112100000Y-157000000D01*
X112100000Y-157000000D02*
X112000000Y-156900000D01*
G04 #@! TO.N,/rs1[26]*
X88100000Y-144600000D02*
X81516710Y-144600000D01*
X113040000Y-163010000D02*
X113040000Y-157385342D01*
X113040000Y-157385342D02*
X113880711Y-156544631D01*
X104867315Y-144622312D02*
X104889627Y-144600000D01*
X104889627Y-144600000D02*
X109016710Y-144600000D01*
X103932685Y-144622312D02*
X104867315Y-144622312D01*
X103910373Y-144600000D02*
X103932685Y-144622312D01*
X88100000Y-144600000D02*
X103910373Y-144600000D01*
G04 #@! TO.N,/rs1[25]*
X88716710Y-143100000D02*
X82166710Y-143100000D01*
X115040000Y-163010000D02*
X115040000Y-158040000D01*
X115040000Y-158040000D02*
X115000000Y-158000000D01*
X104720017Y-142933299D02*
X104079983Y-142933299D01*
X109700000Y-143100000D02*
X104886718Y-143100000D01*
X97620017Y-142833299D02*
X96979983Y-142833299D01*
X97886718Y-143100000D02*
X97620017Y-142833299D01*
X96979983Y-142833299D02*
X96713282Y-143100000D01*
X104079983Y-142933299D02*
X103913282Y-143100000D01*
X96713282Y-143100000D02*
X88716710Y-143100000D01*
X104886718Y-143100000D02*
X104720017Y-142933299D01*
X103913282Y-143100000D02*
X97886718Y-143100000D01*
G04 #@! TO.N,/rs1[24]*
X115800000Y-162770000D02*
X116040000Y-163010000D01*
X115800000Y-156400000D02*
X115800000Y-162770000D01*
X142200000Y-153300000D02*
X139400000Y-153300000D01*
X139400000Y-153300000D02*
X137100000Y-151000000D01*
X137100000Y-151000000D02*
X129700000Y-151000000D01*
X129700000Y-151000000D02*
X126000000Y-154700000D01*
X117500000Y-154700000D02*
X115800000Y-156400000D01*
X126000000Y-154700000D02*
X117500000Y-154700000D01*
X98686718Y-141600000D02*
X98420017Y-141866701D01*
X109916711Y-141999999D02*
X105113281Y-141999999D01*
X104713282Y-141600000D02*
X98686718Y-141600000D01*
X110316710Y-141600000D02*
X109916711Y-141999999D01*
X105113281Y-141999999D02*
X104713282Y-141600000D01*
X97513282Y-141600000D02*
X89366710Y-141600000D01*
X97779983Y-141866701D02*
X97513282Y-141600000D01*
X98420017Y-141866701D02*
X97779983Y-141866701D01*
G04 #@! TO.N,/rd[23]*
X163400000Y-152800000D02*
X156200000Y-152800000D01*
X118802908Y-152948688D02*
X118402909Y-153348687D01*
X113691559Y-153348687D02*
X113071436Y-152728564D01*
X118402909Y-153348687D02*
X113691559Y-153348687D01*
X122064594Y-152948688D02*
X118802908Y-152948688D01*
X129552702Y-150644389D02*
X127248403Y-152948688D01*
X122820017Y-152833299D02*
X122179983Y-152833299D01*
X139147299Y-152544391D02*
X137247298Y-150644389D01*
X122935406Y-152948688D02*
X122820017Y-152833299D01*
X137247298Y-150644389D02*
X129552702Y-150644389D01*
X155378706Y-152544391D02*
X139147299Y-152544391D01*
X155634315Y-152800000D02*
X155378706Y-152544391D01*
X156200000Y-152800000D02*
X155634315Y-152800000D01*
X122179983Y-152833299D02*
X122064594Y-152948688D01*
X127248403Y-152948688D02*
X122935406Y-152948688D01*
G04 #@! TO.N,/rd[22]*
X164016710Y-151200000D02*
X156816710Y-151200000D01*
X119487389Y-151444389D02*
X114531944Y-151444389D01*
X114220845Y-151133290D02*
X113655160Y-151133290D01*
X120075142Y-151422321D02*
X119509457Y-151422321D01*
X114531944Y-151444389D02*
X114220845Y-151133290D01*
X119509457Y-151422321D02*
X119487389Y-151444389D01*
X137541894Y-149933167D02*
X129258106Y-149933167D01*
X127968596Y-151222678D02*
X124409396Y-151222678D01*
X123179983Y-150933299D02*
X122868893Y-151244389D01*
X120818759Y-151244389D02*
X120640827Y-151422321D01*
X122868893Y-151244389D02*
X120818759Y-151244389D01*
X120640827Y-151422321D02*
X120075142Y-151422321D01*
X138808726Y-151200000D02*
X137541894Y-149933167D01*
X156816710Y-151200000D02*
X138808726Y-151200000D01*
X129258106Y-149933167D02*
X127968596Y-151222678D01*
X124409396Y-151222678D02*
X124120017Y-150933299D01*
X124120017Y-150933299D02*
X123179983Y-150933299D01*
G04 #@! TO.N,/rd[21]*
X157478126Y-149600000D02*
X157466710Y-149588584D01*
X164666710Y-149600000D02*
X157478126Y-149600000D01*
X120861947Y-149744389D02*
X120911994Y-149694342D01*
X115030453Y-149744389D02*
X120861947Y-149744389D01*
X120911994Y-149694342D02*
X121477679Y-149694342D01*
X114719354Y-149433290D02*
X115030453Y-149744389D01*
X114153669Y-149433290D02*
X114719354Y-149433290D01*
X142390229Y-149988583D02*
X142001646Y-149600000D01*
X125209396Y-149622678D02*
X124820017Y-149233299D01*
X122193317Y-149544389D02*
X122043364Y-149694342D01*
X124820017Y-149233299D02*
X124179983Y-149233299D01*
X124179983Y-149233299D02*
X123868893Y-149544389D01*
X123868893Y-149544389D02*
X122193317Y-149544389D01*
X122043364Y-149694342D02*
X121477679Y-149694342D01*
X128562778Y-149622678D02*
X125209396Y-149622678D01*
X128963510Y-149221945D02*
X128562778Y-149622678D01*
X137836490Y-149221945D02*
X128963510Y-149221945D01*
X138214545Y-149600000D02*
X137836490Y-149221945D01*
X142001646Y-149600000D02*
X138214545Y-149600000D01*
X157066711Y-149988583D02*
X142390229Y-149988583D01*
X157466710Y-149588584D02*
X157066711Y-149988583D01*
G04 #@! TO.N,/rd[20]*
X165316710Y-148000000D02*
X158066710Y-148000000D01*
X150174780Y-148866833D02*
X143725703Y-148866833D01*
X158066710Y-148000000D02*
X157666711Y-148399999D01*
X142274297Y-148866833D02*
X138487196Y-148866833D01*
X143725703Y-148866833D02*
X143614613Y-148977923D01*
X128115949Y-147933290D02*
X122654318Y-147933290D01*
X142385387Y-148977923D02*
X142274297Y-148866833D01*
X138487196Y-148866833D02*
X138131086Y-148510723D01*
X128693382Y-148510723D02*
X128115949Y-147933290D01*
X150641614Y-148399999D02*
X150174780Y-148866833D01*
X138131086Y-148510723D02*
X128693382Y-148510723D01*
X157666711Y-148399999D02*
X150641614Y-148399999D01*
X143614613Y-148977923D02*
X142385387Y-148977923D01*
X114899661Y-147933290D02*
X114820379Y-147854008D01*
X122654318Y-147933290D02*
X114899661Y-147933290D01*
G04 #@! TO.N,/rd[19]*
X166000000Y-152000000D02*
X158800000Y-152000000D01*
X119052702Y-152255611D02*
X116213309Y-152255611D01*
X120847300Y-152255609D02*
X120547298Y-152555611D01*
X120547298Y-152555611D02*
X119352702Y-152555611D01*
X124600001Y-152399999D02*
X123313281Y-152399999D01*
X123168891Y-152255609D02*
X120847300Y-152255609D01*
X123313281Y-152399999D02*
X123168891Y-152255609D01*
X115902210Y-152566710D02*
X115336525Y-152566710D01*
X119352702Y-152555611D02*
X119052702Y-152255611D01*
X116213309Y-152255611D02*
X115902210Y-152566710D01*
X125000000Y-152000000D02*
X124600001Y-152399999D01*
X129405404Y-150288778D02*
X127694182Y-152000000D01*
X137394596Y-150288778D02*
X129405404Y-150288778D01*
X127694182Y-152000000D02*
X125000000Y-152000000D01*
X158800000Y-152000000D02*
X139105817Y-152000000D01*
X139105817Y-152000000D02*
X137394596Y-150288778D01*
G04 #@! TO.N,/rd[18]*
X166616710Y-150400000D02*
X159416710Y-150400000D01*
X125256627Y-150577688D02*
X123032685Y-150577688D01*
X116309494Y-150755611D02*
X116287426Y-150777679D01*
X116287426Y-150777679D02*
X115721741Y-150777679D01*
X125434315Y-150400000D02*
X125256627Y-150577688D01*
X126000000Y-150400000D02*
X125434315Y-150400000D01*
X122854762Y-150755611D02*
X116309494Y-150755611D01*
X123032685Y-150577688D02*
X122854762Y-150755611D01*
X159416710Y-150400000D02*
X138511636Y-150400000D01*
X138511636Y-150400000D02*
X137689192Y-149577556D01*
X137689192Y-149577556D02*
X129110808Y-149577556D01*
X129110808Y-149577556D02*
X128288364Y-150400000D01*
X128288364Y-150400000D02*
X126000000Y-150400000D01*
G04 #@! TO.N,/rd[17]*
X160078126Y-148800000D02*
X160066710Y-148788584D01*
X167266710Y-148800000D02*
X160078126Y-148800000D01*
X117592460Y-148962446D02*
X117477227Y-149077679D01*
X117477227Y-149077679D02*
X116911542Y-149077679D01*
X124032685Y-148877688D02*
X123947927Y-148962446D01*
X126886718Y-148800000D02*
X126420017Y-149266701D01*
X123947927Y-148962446D02*
X117592460Y-148962446D01*
X125356328Y-149266701D02*
X124967315Y-148877688D01*
X124967315Y-148877688D02*
X124032685Y-148877688D01*
X126420017Y-149266701D02*
X125356328Y-149266701D01*
X128000000Y-148800000D02*
X126886718Y-148800000D01*
X150322078Y-149222444D02*
X143873001Y-149222444D01*
X128066334Y-148866334D02*
X128000000Y-148800000D01*
X137983788Y-148866334D02*
X128066334Y-148866334D01*
X143761911Y-149333534D02*
X142238089Y-149333534D01*
X142126999Y-149222444D02*
X138339898Y-149222444D01*
X143873001Y-149222444D02*
X143761911Y-149333534D01*
X150755938Y-148788584D02*
X150322078Y-149222444D01*
X142238089Y-149333534D02*
X142126999Y-149222444D01*
X160066710Y-148788584D02*
X150755938Y-148788584D01*
X138339898Y-149222444D02*
X137983788Y-148866334D01*
G04 #@! TO.N,/rd[16]*
X168000000Y-147200000D02*
X160666710Y-147200000D01*
X118310399Y-147266588D02*
X128435967Y-147266588D01*
X117666710Y-147188584D02*
X118232395Y-147188584D01*
X118232395Y-147188584D02*
X118310399Y-147266588D01*
X128435967Y-147266588D02*
X128747311Y-147577932D01*
X151482046Y-147200000D02*
X150761087Y-147920959D01*
X160666710Y-147200000D02*
X151482046Y-147200000D01*
X150617745Y-147920959D02*
X150027482Y-148511222D01*
X150027482Y-148511222D02*
X143578405Y-148511222D01*
X138278384Y-148155112D02*
X129324491Y-148155112D01*
X142421595Y-148511222D02*
X138634494Y-148511222D01*
X142532685Y-148622312D02*
X142421595Y-148511222D01*
X129324491Y-148155112D02*
X128747311Y-147577932D01*
X143578405Y-148511222D02*
X143467315Y-148622312D01*
X138634494Y-148511222D02*
X138278384Y-148155112D01*
X150761087Y-147920959D02*
X150617745Y-147920959D01*
X143467315Y-148622312D02*
X142532685Y-148622312D01*
G04 #@! TO.N,/rs1[23]*
X142749221Y-147600000D02*
X142600000Y-147450779D01*
X143000000Y-147600000D02*
X142749221Y-147600000D01*
X141749221Y-147600000D02*
X143000000Y-147600000D01*
X141600000Y-147450779D02*
X141749221Y-147600000D01*
X141607452Y-147458231D02*
X149567313Y-147458231D01*
X141600000Y-147450779D02*
X141607452Y-147458231D01*
X119040000Y-160632200D02*
X119100000Y-160572200D01*
X119040000Y-163010000D02*
X119040000Y-160632200D01*
X119100000Y-160572200D02*
X119100000Y-157800000D01*
X119100000Y-157800000D02*
X117400000Y-156100000D01*
X129368648Y-146555366D02*
X121252457Y-146555366D01*
X141600000Y-147450779D02*
X138579869Y-147450779D01*
X121252457Y-146555366D02*
X120552702Y-145855611D01*
X133843891Y-147443890D02*
X133066702Y-146666701D01*
X129479983Y-146666701D02*
X129368648Y-146555366D01*
X120552702Y-145855611D02*
X112921296Y-145855611D01*
X112921296Y-145855611D02*
X112865685Y-145800000D01*
X112865685Y-145800000D02*
X112300000Y-145800000D01*
X133066702Y-146666701D02*
X129479983Y-146666701D01*
X138579869Y-147450779D02*
X138572980Y-147443890D01*
X138572980Y-147443890D02*
X133843891Y-147443890D01*
G04 #@! TO.N,/rs1[22]*
X143200000Y-145400000D02*
X143365151Y-145565151D01*
X143365151Y-145565151D02*
X143728414Y-145565151D01*
X144234849Y-145565151D02*
X144400000Y-145400000D01*
X143728414Y-145565151D02*
X144234849Y-145565151D01*
X144400000Y-145400000D02*
X150246128Y-145400000D01*
X150246128Y-145400000D02*
X150264910Y-145418782D01*
X135498975Y-145145967D02*
X134933290Y-145145967D01*
X144400000Y-145400000D02*
X144367503Y-145367503D01*
X144367503Y-145367503D02*
X135720511Y-145367503D01*
X135720511Y-145367503D02*
X135498975Y-145145967D01*
X134800000Y-155400000D02*
X134800000Y-152600000D01*
X134400000Y-155800000D02*
X134800000Y-155400000D01*
X124000000Y-155800000D02*
X134400000Y-155800000D01*
X120000000Y-159800000D02*
X124000000Y-155800000D01*
X120000000Y-160592200D02*
X120000000Y-159800000D01*
X120040000Y-160632200D02*
X120000000Y-160592200D01*
X120040000Y-163010000D02*
X120040000Y-160632200D01*
G04 #@! TO.N,/rs1[21]*
X143800000Y-143765685D02*
X143800000Y-143710969D01*
X143834315Y-143800000D02*
X143800000Y-143765685D01*
X144400000Y-143800000D02*
X143834315Y-143800000D01*
X146705169Y-143748832D02*
X150890559Y-143748832D01*
X146667306Y-143710969D02*
X146705169Y-143748832D01*
X143800000Y-143710969D02*
X146667306Y-143710969D01*
X143662176Y-143573145D02*
X135533290Y-143573145D01*
X143800000Y-143710969D02*
X143662176Y-143573145D01*
X124644389Y-156155611D02*
X134547298Y-156155611D01*
X122040000Y-163010000D02*
X122040000Y-160632200D01*
X122040000Y-160632200D02*
X122000000Y-160592200D01*
X122000000Y-160592200D02*
X122000000Y-158800000D01*
X122000000Y-158800000D02*
X124644389Y-156155611D01*
X134547298Y-156155611D02*
X135600000Y-155102909D01*
X135600000Y-155102909D02*
X135600000Y-154200000D01*
G04 #@! TO.N,/rs1[20]*
X150752408Y-141422030D02*
X150999358Y-141668980D01*
X150999358Y-141668980D02*
X151565043Y-141668980D01*
X145088740Y-141422030D02*
X145066710Y-141400000D01*
X147400000Y-141422030D02*
X145088740Y-141422030D01*
X147400000Y-141422030D02*
X150752408Y-141422030D01*
X123000000Y-160592200D02*
X123000000Y-158400000D01*
X134694596Y-156511222D02*
X135405818Y-155800000D01*
X123040000Y-163010000D02*
X123040000Y-160632200D01*
X123000000Y-158400000D02*
X124888778Y-156511222D01*
X124888778Y-156511222D02*
X134694596Y-156511222D01*
X135405818Y-155800000D02*
X136400000Y-155800000D01*
X123040000Y-160632200D02*
X123000000Y-160592200D01*
X137032395Y-141685762D02*
X137296127Y-141422030D01*
X136466710Y-141685762D02*
X137032395Y-141685762D01*
X140032685Y-141722312D02*
X141067315Y-141722312D01*
X141367596Y-141422030D02*
X147400000Y-141422030D01*
X137296127Y-141422030D02*
X139732404Y-141422030D01*
X141067315Y-141722312D02*
X141367596Y-141422030D01*
X139732404Y-141422030D02*
X140032685Y-141722312D01*
G04 #@! TO.N,/rs1[19]*
X145600000Y-146777932D02*
X149631524Y-146777932D01*
X149631524Y-146777932D02*
X149650297Y-146796705D01*
X149650297Y-146796705D02*
X150879523Y-146796705D01*
X150879523Y-146796705D02*
X151618517Y-146057711D01*
X151618517Y-146057711D02*
X152223012Y-146057711D01*
X143320017Y-146933299D02*
X137051518Y-146933299D01*
X144801609Y-147010638D02*
X143397356Y-147010638D01*
X145600000Y-146777932D02*
X145034315Y-146777932D01*
X145034315Y-146777932D02*
X144801609Y-147010638D01*
X137051518Y-146933299D02*
X136866710Y-146748491D01*
X143397356Y-147010638D02*
X143320017Y-146933299D01*
X136861911Y-155275191D02*
X136861911Y-151804783D01*
X137066702Y-155479982D02*
X136861911Y-155275191D01*
X136386720Y-156800000D02*
X137066702Y-156120018D01*
X134908727Y-156800000D02*
X136386720Y-156800000D01*
X134841894Y-156866833D02*
X134908727Y-156800000D01*
X128333167Y-156866833D02*
X134841894Y-156866833D01*
X125000000Y-160200000D02*
X128333167Y-156866833D01*
X125000000Y-160592200D02*
X125000000Y-160200000D01*
X125040000Y-160632200D02*
X125000000Y-160592200D01*
X125040000Y-163010000D02*
X125040000Y-160632200D01*
X137066702Y-156120018D02*
X137066702Y-155479982D01*
G04 #@! TO.N,/rs1[18]*
X151821888Y-144345770D02*
X152872668Y-144345770D01*
X150423243Y-144771145D02*
X151396513Y-144771145D01*
X151396513Y-144771145D02*
X151821888Y-144345770D01*
X150385388Y-144733290D02*
X150423243Y-144771145D01*
X146200000Y-144733290D02*
X150385388Y-144733290D01*
X145634315Y-144733290D02*
X145545293Y-144822312D01*
X137528610Y-144822312D02*
X137404920Y-144698622D01*
X145545293Y-144822312D02*
X137528610Y-144822312D01*
X146200000Y-144733290D02*
X145634315Y-144733290D01*
X128480464Y-157222444D02*
X134989192Y-157222444D01*
X136534018Y-157155611D02*
X137600000Y-156089629D01*
X135056025Y-157155611D02*
X136534018Y-157155611D01*
X137600000Y-156089629D02*
X137600000Y-153400000D01*
X126040000Y-163010000D02*
X126040000Y-159662908D01*
X134989192Y-157222444D02*
X135056025Y-157155611D01*
X126040000Y-159662908D02*
X128480464Y-157222444D01*
G04 #@! TO.N,/rs1[17]*
X152856166Y-142658733D02*
X152796145Y-142718754D01*
X152856166Y-142658733D02*
X153421851Y-142658733D01*
X152788388Y-142726511D02*
X152856166Y-142658733D01*
X147568823Y-142715866D02*
X147003138Y-142715866D01*
X147579468Y-142726511D02*
X147568823Y-142715866D01*
X152788388Y-142726511D02*
X147579468Y-142726511D01*
X139381144Y-142726511D02*
X139098975Y-142444342D01*
X139098975Y-142444342D02*
X138533290Y-142444342D01*
X146992493Y-142726511D02*
X139381144Y-142726511D01*
X147003138Y-142715866D02*
X146992493Y-142726511D01*
X128040000Y-163010000D02*
X128040000Y-160632200D01*
X131094145Y-157578055D02*
X135136490Y-157578055D01*
X136681316Y-157511222D02*
X138400000Y-155792538D01*
X138400000Y-155792538D02*
X138400000Y-155000000D01*
X128040000Y-160632200D02*
X131094145Y-157578055D01*
X135203323Y-157511222D02*
X136681316Y-157511222D01*
X135136490Y-157578055D02*
X135203323Y-157511222D01*
G04 #@! TO.N,/rs1[16]*
X137733167Y-157866833D02*
X139200000Y-156400000D01*
X129040000Y-163010000D02*
X129040000Y-160632200D01*
X135350621Y-157866833D02*
X137733167Y-157866833D01*
X135283788Y-157933666D02*
X135350621Y-157866833D01*
X131738534Y-157933666D02*
X135283788Y-157933666D01*
X129040000Y-160632200D02*
X131738534Y-157933666D01*
X147288240Y-139640585D02*
X147095526Y-139833299D01*
X140215385Y-139833299D02*
X139648975Y-140399709D01*
X147095526Y-139833299D02*
X140215385Y-139833299D01*
X139648975Y-140399709D02*
X139083290Y-140399709D01*
X152822900Y-139640585D02*
X147288240Y-139640585D01*
X154275038Y-141092723D02*
X152822900Y-139640585D01*
X175763282Y-141400000D02*
X174200000Y-141400000D01*
X168879442Y-140692724D02*
X168720017Y-140533299D01*
X207200000Y-140600000D02*
X206400000Y-139800000D01*
X206400000Y-139800000D02*
X184913282Y-139800000D01*
X183113282Y-141600000D02*
X181200000Y-141600000D01*
X181200000Y-141600000D02*
X180183299Y-140583299D01*
X180183299Y-140583299D02*
X176579983Y-140583299D01*
X176579983Y-140583299D02*
X175763282Y-141400000D01*
X174200000Y-141400000D02*
X173492724Y-140692724D01*
X173492724Y-140692724D02*
X168879442Y-140692724D01*
X168079983Y-140533299D02*
X167920558Y-140692724D01*
X154275038Y-140527038D02*
X154275038Y-141092723D01*
X184913282Y-139800000D02*
X183113282Y-141600000D01*
X161420017Y-140533299D02*
X160779983Y-140533299D01*
X168720017Y-140533299D02*
X168079983Y-140533299D01*
X167920558Y-140692724D02*
X161579442Y-140692724D01*
X154668777Y-140133299D02*
X154275038Y-140527038D01*
X155920017Y-140133299D02*
X154668777Y-140133299D01*
X156479442Y-140692724D02*
X155920017Y-140133299D01*
X160620558Y-140692724D02*
X156479442Y-140692724D01*
X160779983Y-140533299D02*
X160620558Y-140692724D01*
X161579442Y-140692724D02*
X161420017Y-140533299D01*
G04 #@! TO.N,/rd[15]*
X177800000Y-146400000D02*
X170533290Y-146400000D01*
X152867441Y-146400000D02*
X152495435Y-146772006D01*
X149850122Y-148155611D02*
X143431107Y-148155611D01*
X132919404Y-147022312D02*
X129318257Y-147022312D01*
X138781791Y-148155611D02*
X138425682Y-147799501D01*
X150561099Y-147444634D02*
X149850122Y-148155611D01*
X129318257Y-147022312D02*
X129206922Y-146910977D01*
X151407130Y-146772006D02*
X150734502Y-147444634D01*
X152495435Y-146772006D02*
X151407130Y-146772006D01*
X150734502Y-147444634D02*
X150561099Y-147444634D01*
X143431107Y-148155611D02*
X143320017Y-148266701D01*
X143320017Y-148266701D02*
X142679983Y-148266701D01*
X170533290Y-146400000D02*
X152867441Y-146400000D01*
X129206922Y-146910977D02*
X120577278Y-146910977D01*
X120577278Y-146910977D02*
X120188622Y-146522321D01*
X142679983Y-148266701D02*
X142568893Y-148155611D01*
X133696593Y-147799501D02*
X132919404Y-147022312D01*
X138425682Y-147799501D02*
X133696593Y-147799501D01*
X142568893Y-148155611D02*
X138781791Y-148155611D01*
G04 #@! TO.N,/rd[7]*
X199200000Y-146400000D02*
X192000000Y-146400000D01*
X192000000Y-146400000D02*
X184950000Y-146400000D01*
G04 #@! TO.N,/rs1[12]*
X223000000Y-142400000D02*
X216400000Y-142400000D01*
X216400000Y-142400000D02*
X209816710Y-142400000D01*
X186733167Y-152266833D02*
X203241894Y-152266833D01*
X179040000Y-163010000D02*
X179040000Y-159960000D01*
X179040000Y-159960000D02*
X186733167Y-152266833D01*
X209088778Y-152111222D02*
X209800000Y-151400000D01*
X203241894Y-152266833D02*
X203397505Y-152111222D01*
X203397505Y-152111222D02*
X209088778Y-152111222D01*
G04 #@! TO.N,/rd[14]*
X178416710Y-144800000D02*
X171211416Y-144800000D01*
X171211416Y-144800000D02*
X171200000Y-144788584D01*
X121429438Y-144733290D02*
X120863753Y-144733290D01*
X149615031Y-145755620D02*
X144575374Y-145755620D01*
X129332685Y-144877687D02*
X129054763Y-145155609D01*
X123221980Y-145155609D02*
X122932714Y-144866343D01*
X143691952Y-146299416D02*
X143614613Y-146222077D01*
X122932714Y-144866343D02*
X121562491Y-144866343D01*
X143614613Y-146222077D02*
X137829923Y-146222077D01*
X153192685Y-145012471D02*
X151890438Y-145012471D01*
X144031578Y-146299416D02*
X143691952Y-146299416D01*
X137334025Y-145726179D02*
X136155122Y-145726179D01*
X135814600Y-146066701D02*
X134879983Y-146066701D01*
X153416572Y-144788584D02*
X153192685Y-145012471D01*
X133690969Y-144877687D02*
X129332685Y-144877687D01*
X150579397Y-146085483D02*
X149944893Y-146085483D01*
X129054763Y-145155609D02*
X123221980Y-145155609D01*
X151890438Y-145012471D02*
X151814008Y-145088901D01*
X121562491Y-144866343D02*
X121429438Y-144733290D01*
X149944893Y-146085483D02*
X149615031Y-145755620D01*
X137829923Y-146222077D02*
X137334025Y-145726179D01*
X151814008Y-145088901D02*
X151575979Y-145088901D01*
X134879983Y-146066701D02*
X133690969Y-144877687D01*
X171200000Y-144788584D02*
X153416572Y-144788584D01*
X136155122Y-145726179D02*
X135814600Y-146066701D01*
X144575374Y-145755620D02*
X144031578Y-146299416D01*
X151575979Y-145088901D02*
X150579397Y-146085483D01*
G04 #@! TO.N,/rd[13]*
X169000000Y-142833299D02*
X168633299Y-143200000D01*
X162320017Y-144066701D02*
X154083228Y-144066701D01*
X146814613Y-143355367D02*
X146642138Y-143355367D01*
X122032395Y-143133290D02*
X121466710Y-143133290D01*
X154083228Y-144066701D02*
X153336482Y-143319955D01*
X122125393Y-143226288D02*
X122032395Y-143133290D01*
X150533222Y-143082122D02*
X150222132Y-143393212D01*
X133867315Y-142577688D02*
X132832685Y-142577688D01*
X132232750Y-143177623D02*
X127309095Y-143177623D01*
X170934324Y-142833299D02*
X169000000Y-142833299D01*
X132832685Y-142577688D02*
X132232750Y-143177623D01*
X171866710Y-143200000D02*
X171301025Y-143200000D01*
X171301025Y-143200000D02*
X170934324Y-142833299D01*
X168633299Y-143200000D02*
X163186718Y-143200000D01*
X163186718Y-143200000D02*
X162320017Y-144066701D01*
X153336482Y-143319955D02*
X151486801Y-143319955D01*
X151486801Y-143319955D02*
X151248968Y-143082122D01*
X151248968Y-143082122D02*
X150533222Y-143082122D01*
X150222132Y-143393212D02*
X146852458Y-143393212D01*
X146852458Y-143393212D02*
X146814613Y-143355367D01*
X146642138Y-143355367D02*
X146420069Y-143133298D01*
X146420069Y-143133298D02*
X136204349Y-143133298D01*
X127309095Y-143177623D02*
X126420017Y-144066701D01*
X134067315Y-142777688D02*
X133867315Y-142577688D01*
X123650825Y-143226288D02*
X122125393Y-143226288D01*
X124491238Y-144066701D02*
X123650825Y-143226288D01*
X126420017Y-144066701D02*
X124491238Y-144066701D01*
X135848739Y-142777688D02*
X134067315Y-142777688D01*
X136204349Y-143133298D02*
X135848739Y-142777688D01*
X172457806Y-143225411D02*
X172432395Y-143200000D01*
X176579983Y-142933299D02*
X176287871Y-143225411D01*
X176287871Y-143225411D02*
X172457806Y-143225411D01*
X178501025Y-143200000D02*
X178234324Y-142933299D01*
X178234324Y-142933299D02*
X176579983Y-142933299D01*
X179066710Y-143200000D02*
X178501025Y-143200000D01*
X172432395Y-143200000D02*
X171866710Y-143200000D01*
G04 #@! TO.N,/rd[12]*
X124456556Y-141629538D02*
X122795223Y-141629538D01*
X136744354Y-141019061D02*
X135167657Y-141019061D01*
X135167657Y-141019061D02*
X134420017Y-141766701D01*
X122795223Y-141629538D02*
X122765685Y-141600000D01*
X140179983Y-141366701D02*
X139879701Y-141066419D01*
X144679983Y-140733299D02*
X144346863Y-141066419D01*
X128111939Y-141377688D02*
X127467315Y-142022312D01*
X172600000Y-141600000D02*
X172200001Y-141999999D01*
X172200001Y-141999999D02*
X154252746Y-141999999D01*
X154252746Y-141999999D02*
X153889167Y-141636420D01*
X153889167Y-141636420D02*
X152519201Y-141636420D01*
X152519201Y-141636420D02*
X151616080Y-140733299D01*
X151616080Y-140733299D02*
X148168962Y-140733299D01*
X131956328Y-141766701D02*
X131567315Y-141377688D01*
X148168962Y-140733299D02*
X147928274Y-140973987D01*
X127467315Y-142022312D02*
X127014848Y-142022312D01*
X147928274Y-140973987D02*
X147288240Y-140973987D01*
X144346863Y-141066419D02*
X141220299Y-141066419D01*
X122765685Y-141600000D02*
X122200000Y-141600000D01*
X124649095Y-141822077D02*
X124456556Y-141629538D01*
X126814613Y-141822077D02*
X124649095Y-141822077D01*
X127014848Y-142022312D02*
X126814613Y-141822077D01*
X131567315Y-141377688D02*
X128111939Y-141377688D01*
X147288240Y-140973987D02*
X147047552Y-140733299D01*
X134420017Y-141766701D02*
X131956328Y-141766701D01*
X147047552Y-140733299D02*
X144679983Y-140733299D01*
X136791712Y-141066419D02*
X136744354Y-141019061D01*
X139879701Y-141066419D02*
X136791712Y-141066419D01*
X140920017Y-141366701D02*
X140179983Y-141366701D01*
X141220299Y-141066419D02*
X140920017Y-141366701D01*
X179800000Y-141600000D02*
X178486718Y-141600000D01*
X176729983Y-142066701D02*
X176418893Y-141755611D01*
X178486718Y-141600000D02*
X178020017Y-142066701D01*
X178020017Y-142066701D02*
X176729983Y-142066701D01*
X173321296Y-141755611D02*
X173165685Y-141600000D01*
X173165685Y-141600000D02*
X172600000Y-141600000D01*
X176418893Y-141755611D02*
X173321296Y-141755611D01*
G04 #@! TO.N,/rd[11]*
X180400000Y-145600000D02*
X173150000Y-145600000D01*
X143467315Y-146577688D02*
X137682625Y-146577688D01*
X149797595Y-146441094D02*
X149467733Y-146111231D01*
X133543671Y-145233298D02*
X129479984Y-145233298D01*
X152554800Y-145368082D02*
X152037736Y-145368082D01*
X149467733Y-146111231D02*
X144722672Y-146111231D01*
X173150000Y-145600000D02*
X152786718Y-145600000D01*
X137682625Y-146577688D02*
X137186727Y-146081790D01*
X129180237Y-145533045D02*
X122612696Y-145533045D01*
X144178876Y-146655027D02*
X143544654Y-146655027D01*
X137186727Y-146081790D02*
X136302420Y-146081790D01*
X144722672Y-146111231D02*
X144178876Y-146655027D01*
X151961306Y-145444512D02*
X151728807Y-145444512D01*
X135961898Y-146422312D02*
X134732685Y-146422312D01*
X143544654Y-146655027D02*
X143467315Y-146577688D01*
X150732225Y-146441094D02*
X149797595Y-146441094D01*
X134732685Y-146422312D02*
X133543671Y-145233298D01*
X129479984Y-145233298D02*
X129180237Y-145533045D01*
X136302420Y-146081790D02*
X135961898Y-146422312D01*
X152037736Y-145368082D02*
X151961306Y-145444512D01*
X152786718Y-145600000D02*
X152554800Y-145368082D01*
X151728807Y-145444512D02*
X150732225Y-146441094D01*
G04 #@! TO.N,/rd[10]*
X144720017Y-144466701D02*
X138159190Y-144466701D01*
X138159190Y-144466701D02*
X137724250Y-144031761D01*
X137724250Y-144031761D02*
X137084216Y-144031761D01*
X137084216Y-144031761D02*
X136449275Y-144666702D01*
X153935930Y-144422312D02*
X153189184Y-143675566D01*
X136449275Y-144666702D02*
X135453420Y-144666702D01*
X145120129Y-144066589D02*
X144720017Y-144466701D01*
X135453420Y-144666702D02*
X133720017Y-142933299D01*
X168813282Y-144000000D02*
X162889627Y-144000000D01*
X146831107Y-144377679D02*
X146520017Y-144066589D01*
X133720017Y-142933299D02*
X132979983Y-142933299D01*
X150570541Y-144415534D02*
X150532686Y-144377679D01*
X123860129Y-144422312D02*
X123330807Y-143892990D01*
X151989183Y-143675566D02*
X151249215Y-144415534D01*
X146520017Y-144066589D02*
X145120129Y-144066589D01*
X126567315Y-144422312D02*
X123860129Y-144422312D01*
X127456393Y-143533234D02*
X126567315Y-144422312D01*
X169620017Y-144166701D02*
X168979983Y-144166701D01*
X132380048Y-143533234D02*
X127456393Y-143533234D01*
X173816710Y-144000000D02*
X169786718Y-144000000D01*
X132979983Y-142933299D02*
X132380048Y-143533234D01*
X150532686Y-144377679D02*
X146831107Y-144377679D01*
X151249215Y-144415534D02*
X150570541Y-144415534D01*
X153189184Y-143675566D02*
X151989183Y-143675566D01*
X162467315Y-144422312D02*
X153935930Y-144422312D01*
X162889627Y-144000000D02*
X162467315Y-144422312D01*
X168979983Y-144166701D02*
X168813282Y-144000000D01*
X169786718Y-144000000D02*
X169620017Y-144166701D01*
X174216709Y-144399999D02*
X173816710Y-144000000D01*
X177566701Y-144000000D02*
X177166702Y-144399999D01*
X181016710Y-144000000D02*
X177566701Y-144000000D01*
X177166702Y-144399999D02*
X174216709Y-144399999D01*
G04 #@! TO.N,/rd[9]*
X147323155Y-142049165D02*
X146683121Y-142049165D01*
X152712525Y-141992031D02*
X152341413Y-142363143D01*
X131908795Y-142222077D02*
X131420017Y-141733299D01*
X174368492Y-142558709D02*
X173802807Y-142558709D01*
X126667315Y-142177688D02*
X124820775Y-142177688D01*
X137467362Y-141777641D02*
X136822926Y-142422077D01*
X146361386Y-142370900D02*
X140178365Y-142370900D01*
X128259237Y-141733299D02*
X127614613Y-142377923D01*
X131420017Y-141733299D02*
X128259237Y-141733299D01*
X124820775Y-142177688D02*
X124702223Y-142296240D01*
X147637133Y-142363143D02*
X147323155Y-142049165D01*
X153741869Y-141992031D02*
X152712525Y-141992031D01*
X173703055Y-142458957D02*
X154208795Y-142458957D01*
X124702223Y-142296240D02*
X124136538Y-142296240D01*
X154208795Y-142458957D02*
X153741869Y-141992031D01*
X134214613Y-142422077D02*
X134014613Y-142222077D01*
X146683121Y-142049165D02*
X146361386Y-142370900D01*
X152341413Y-142363143D02*
X147637133Y-142363143D01*
X140178365Y-142370900D02*
X139585106Y-141777641D01*
X139585106Y-141777641D02*
X137467362Y-141777641D01*
X173802807Y-142558709D02*
X173703055Y-142458957D01*
X127614613Y-142377923D02*
X126867550Y-142377923D01*
X136822926Y-142422077D02*
X134214613Y-142422077D01*
X126867550Y-142377923D02*
X126667315Y-142177688D01*
X134014613Y-142222077D02*
X131908795Y-142222077D01*
X178189627Y-142400000D02*
X178030918Y-142558709D01*
X178030918Y-142558709D02*
X174368492Y-142558709D01*
X181666710Y-142400000D02*
X178189627Y-142400000D01*
G04 #@! TO.N,/rd[8]*
X175188584Y-140733290D02*
X173740268Y-139284974D01*
X173740268Y-139284974D02*
X147140942Y-139284974D01*
X147140942Y-139284974D02*
X146948228Y-139477688D01*
X146948228Y-139477688D02*
X140032685Y-139477688D01*
X140032685Y-139477688D02*
X139777367Y-139733007D01*
X139777367Y-139733007D02*
X125725522Y-139733007D01*
X125725522Y-139733007D02*
X124816494Y-140642035D01*
X175694186Y-140227688D02*
X175188584Y-140733290D01*
X181827688Y-140227688D02*
X175694186Y-140227688D01*
X182400000Y-140800000D02*
X181827688Y-140227688D01*
G04 #@! TO.N,/rd[6]*
X192800000Y-144800000D02*
X185600000Y-144800000D01*
X192800000Y-144800000D02*
X200016710Y-144800000D01*
G04 #@! TO.N,/rd[5]*
X191575302Y-143188584D02*
X193466710Y-143188584D01*
X190479983Y-142733299D02*
X191120017Y-142733299D01*
X191120017Y-142733299D02*
X191575302Y-143188584D01*
X190013282Y-143200000D02*
X190479983Y-142733299D01*
X186250000Y-143200000D02*
X190013282Y-143200000D01*
X197224698Y-143188584D02*
X193466710Y-143188584D01*
X198986718Y-143200000D02*
X198420017Y-142633299D01*
X197779983Y-142633299D02*
X197224698Y-143188584D01*
X198420017Y-142633299D02*
X197779983Y-142633299D01*
X200666710Y-143200000D02*
X198986718Y-143200000D01*
G04 #@! TO.N,/rd[4]*
X191501865Y-141988583D02*
X193666711Y-141988583D01*
X186900000Y-141600000D02*
X191113282Y-141600000D01*
X193666711Y-141988583D02*
X194066710Y-141588584D01*
X191113282Y-141600000D02*
X191501865Y-141988583D01*
X200512238Y-141922077D02*
X198535359Y-141922077D01*
X200834315Y-141600000D02*
X200512238Y-141922077D01*
X201400000Y-141600000D02*
X200834315Y-141600000D01*
X198201866Y-141588584D02*
X194066710Y-141588584D01*
X198535359Y-141922077D02*
X198201866Y-141588584D01*
G04 #@! TO.N,/rd[3]*
X201800000Y-145600000D02*
X194800000Y-145600000D01*
X194800000Y-145600000D02*
X187550000Y-145600000D01*
G04 #@! TO.N,/rd[2]*
X188200000Y-144000000D02*
X188599999Y-144399999D01*
X190986719Y-144399999D02*
X191398134Y-143988584D01*
X191398134Y-143988584D02*
X195466710Y-143988584D01*
X188599999Y-144399999D02*
X190986719Y-144399999D01*
X195866709Y-144388583D02*
X195466710Y-143988584D01*
X198098135Y-144388583D02*
X195866709Y-144388583D01*
X198486718Y-144000000D02*
X198098135Y-144388583D01*
X202616710Y-144000000D02*
X198486718Y-144000000D01*
G04 #@! TO.N,/rd[1]*
X190889628Y-142000001D02*
X191289627Y-142400000D01*
X188850000Y-142400000D02*
X189249999Y-142000001D01*
X189249999Y-142000001D02*
X190889628Y-142000001D01*
X195489609Y-142400000D02*
X195501025Y-142388584D01*
X191289627Y-142400000D02*
X195489609Y-142400000D01*
X195501025Y-142388584D02*
X196066710Y-142388584D01*
X198567315Y-142277688D02*
X196743291Y-142277688D01*
X196743291Y-142277688D02*
X196632395Y-142388584D01*
X196632395Y-142388584D02*
X196066710Y-142388584D01*
X198689627Y-142400000D02*
X198567315Y-142277688D01*
X203266710Y-142400000D02*
X198689627Y-142400000D01*
G04 #@! TO.N,/rd[0]*
X189915575Y-140400001D02*
X189516710Y-140798866D01*
X196666710Y-140800000D02*
X196266711Y-140400001D01*
X196266711Y-140400001D02*
X189915575Y-140400001D01*
X197066709Y-140400001D02*
X196666710Y-140800000D01*
X203516711Y-140400001D02*
X197066709Y-140400001D01*
X203916710Y-140800000D02*
X203516711Y-140400001D01*
G04 #@! TO.N,/rs1[15]*
X214400000Y-147200000D02*
X207800000Y-147200000D01*
X173040000Y-160632200D02*
X173200000Y-160472200D01*
X173040000Y-163010000D02*
X173040000Y-160632200D01*
X173200000Y-160472200D02*
X173200000Y-158000000D01*
X173200000Y-158000000D02*
X180400000Y-150800000D01*
X204200000Y-150800000D02*
X207800000Y-147200000D01*
X180400000Y-150800000D02*
X204200000Y-150800000D01*
X169200000Y-154000000D02*
X173200000Y-158000000D01*
X139800000Y-154000000D02*
X169200000Y-154000000D01*
G04 #@! TO.N,/rs1[14]*
X221600000Y-145600000D02*
X215066710Y-145600000D01*
X215066710Y-145600000D02*
X208478126Y-145600000D01*
X208478126Y-145600000D02*
X208466710Y-145588584D01*
X181244389Y-151155611D02*
X205644389Y-151155611D01*
X205644389Y-151155611D02*
X207600000Y-149200000D01*
X175040000Y-163010000D02*
X175040000Y-160632200D01*
X175000000Y-157400000D02*
X181244389Y-151155611D01*
X175040000Y-160632200D02*
X175000000Y-160592200D01*
X175000000Y-160592200D02*
X175000000Y-157400000D01*
G04 #@! TO.N,/rs1[13]*
X222266710Y-144000000D02*
X215666710Y-144000000D01*
X215666710Y-144000000D02*
X209134070Y-144000000D01*
X209134070Y-144000000D02*
X209133290Y-143999220D01*
X176040000Y-160632200D02*
X176000000Y-160592200D01*
X176040000Y-163010000D02*
X176040000Y-160632200D01*
X176000000Y-160592200D02*
X176000000Y-157200000D01*
X203250207Y-151755611D02*
X207244389Y-151755611D01*
X207244389Y-151755611D02*
X209200000Y-149800000D01*
X176000000Y-157200000D02*
X181288778Y-151911222D01*
X203094596Y-151911222D02*
X203250207Y-151755611D01*
X181288778Y-151911222D02*
X203094596Y-151911222D01*
G04 #@! TO.N,/rs1[11]*
X223600000Y-146400000D02*
X217000000Y-146400000D01*
X210477542Y-146400000D02*
X210466710Y-146389168D01*
X217000000Y-146400000D02*
X210477542Y-146400000D01*
X210466710Y-151720010D02*
X210466710Y-148200014D01*
X180040000Y-159862909D02*
X187280465Y-152622444D01*
X203544803Y-152466833D02*
X209719887Y-152466833D01*
X187280465Y-152622444D02*
X203389192Y-152622444D01*
X180040000Y-163010000D02*
X180040000Y-159862909D01*
X203389192Y-152622444D02*
X203544803Y-152466833D01*
X209719887Y-152466833D02*
X210466710Y-151720010D01*
G04 #@! TO.N,/rs1[10]*
X211200000Y-144800000D02*
X217666710Y-144800000D01*
X224216710Y-144800000D02*
X217666710Y-144800000D01*
X203692101Y-152822444D02*
X209867185Y-152822444D01*
X210822321Y-151867308D02*
X210822321Y-150743364D01*
X182040000Y-163010000D02*
X182040000Y-158760000D01*
X203536490Y-152978055D02*
X203692101Y-152822444D01*
X187821945Y-152978055D02*
X203536490Y-152978055D01*
X182040000Y-158760000D02*
X187821945Y-152978055D01*
X211200000Y-150365685D02*
X211200000Y-149800000D01*
X210822321Y-150743364D02*
X211200000Y-150365685D01*
X209867185Y-152822444D02*
X210822321Y-151867308D01*
G04 #@! TO.N,/rs1[9]*
X218278126Y-143200000D02*
X218266710Y-143188584D01*
X224866710Y-143200000D02*
X218278126Y-143200000D01*
X211800000Y-143200000D02*
X218255294Y-143200000D01*
X218255294Y-143200000D02*
X218266710Y-143188584D01*
X203839399Y-153178055D02*
X210021945Y-153178055D01*
X210021945Y-153178055D02*
X211800000Y-151400000D01*
X183040000Y-158262908D02*
X187969242Y-153333666D01*
X203683788Y-153333666D02*
X203839399Y-153178055D01*
X187969242Y-153333666D02*
X203683788Y-153333666D01*
X183040000Y-163010000D02*
X183040000Y-158262908D01*
G04 #@! TO.N,/rs1[8]*
X228800000Y-141600000D02*
X225600000Y-141600000D01*
X225600000Y-141600000D02*
X218866710Y-141600000D01*
X212586720Y-151600000D02*
X218800000Y-151600000D01*
X185040000Y-163010000D02*
X185040000Y-156765816D01*
X188116539Y-153689277D02*
X203831086Y-153689277D01*
X185040000Y-156765816D02*
X188116539Y-153689277D01*
X203986697Y-153533666D02*
X210653054Y-153533666D01*
X210653054Y-153533666D02*
X212586720Y-151600000D01*
X203831086Y-153689277D02*
X203986697Y-153533666D01*
G04 #@! TO.N,/rs1[7]*
X236000000Y-146400000D02*
X229400000Y-146400000D01*
X226200000Y-146400000D02*
X229400000Y-146400000D01*
X220244389Y-152355611D02*
X226200000Y-146400000D01*
X204133995Y-153889277D02*
X210800352Y-153889277D01*
X210800352Y-153889277D02*
X212334018Y-152355611D01*
X203978384Y-154044888D02*
X204133995Y-153889277D01*
X212334018Y-152355611D02*
X220244389Y-152355611D01*
X186040000Y-163010000D02*
X186040000Y-156560000D01*
X186040000Y-156560000D02*
X188555112Y-154044888D01*
X188555112Y-154044888D02*
X203978384Y-154044888D01*
G04 #@! TO.N,/rs1[6]*
X243200000Y-144800000D02*
X236666710Y-144800000D01*
X236666710Y-144800000D02*
X230066710Y-144800000D01*
X204281293Y-154244888D02*
X210947650Y-154244888D01*
X226088778Y-152711222D02*
X230200000Y-148600000D01*
X212481316Y-152711222D02*
X226088778Y-152711222D01*
X210947650Y-154244888D02*
X212481316Y-152711222D01*
X189999501Y-154400499D02*
X204125682Y-154400499D01*
X204125682Y-154400499D02*
X204281293Y-154244888D01*
X188040000Y-156360000D02*
X189999501Y-154400499D01*
X188040000Y-163010000D02*
X188040000Y-156360000D01*
G04 #@! TO.N,/rs1[5]*
X237400000Y-143200000D02*
X243866710Y-143200000D01*
X230649805Y-143200000D02*
X230533290Y-143083485D01*
X237400000Y-143200000D02*
X230649805Y-143200000D01*
X227933167Y-153066833D02*
X230800000Y-150200000D01*
X190643890Y-154756110D02*
X204272980Y-154756110D01*
X189040000Y-156360000D02*
X190643890Y-154756110D01*
X211094948Y-154600499D02*
X212628614Y-153066833D01*
X212628614Y-153066833D02*
X227933167Y-153066833D01*
X189040000Y-163010000D02*
X189040000Y-156360000D01*
X204272980Y-154756110D02*
X204428591Y-154600499D01*
X204428591Y-154600499D02*
X211094948Y-154600499D01*
G04 #@! TO.N,/rs1[4]*
X244600000Y-141600000D02*
X238078126Y-141600000D01*
X238078126Y-141600000D02*
X238066710Y-141588584D01*
X238066710Y-141588584D02*
X231428126Y-141588584D01*
X231428126Y-141588584D02*
X231416710Y-141600000D01*
X190040000Y-163010000D02*
X190040000Y-156160000D01*
X190040000Y-156160000D02*
X191088279Y-155111721D01*
X191088279Y-155111721D02*
X204420278Y-155111721D01*
X204420278Y-155111721D02*
X204575889Y-154956110D01*
X204575889Y-154956110D02*
X211242246Y-154956110D01*
X212775912Y-153422444D02*
X229977556Y-153422444D01*
X229977556Y-153422444D02*
X231400000Y-152000000D01*
X211242246Y-154956110D02*
X212775912Y-153422444D01*
G04 #@! TO.N,/rs1[3]*
X245000000Y-145600000D02*
X238600000Y-145600000D01*
X238600000Y-145600000D02*
X232066710Y-145600000D01*
X191040000Y-163010000D02*
X191040000Y-156360000D01*
X191040000Y-156360000D02*
X191932668Y-155467332D01*
X191932668Y-155467332D02*
X204567576Y-155467332D01*
X204567576Y-155467332D02*
X204723187Y-155311721D01*
X204723187Y-155311721D02*
X211389544Y-155311721D01*
X211389544Y-155311721D02*
X212923210Y-153778055D01*
X212923210Y-153778055D02*
X230124854Y-153778055D01*
X230124854Y-153778055D02*
X231236207Y-152666702D01*
X231236207Y-152666702D02*
X231720018Y-152666702D01*
X231666711Y-151279991D02*
X231666711Y-148199999D01*
X232066702Y-151679982D02*
X231666711Y-151279991D01*
X231720018Y-152666702D02*
X232066702Y-152320018D01*
X231666711Y-148199999D02*
X232066710Y-147800000D01*
X232066702Y-152320018D02*
X232066702Y-151679982D01*
G04 #@! TO.N,/rs1[2]*
X245816710Y-144000000D02*
X239266710Y-144000000D01*
X239266710Y-144000000D02*
X232700000Y-144000000D01*
X231867316Y-153022313D02*
X232600000Y-152289629D01*
X231383504Y-153022313D02*
X231867316Y-153022313D01*
X230272152Y-154133666D02*
X231383504Y-153022313D01*
X213070508Y-154133666D02*
X230272152Y-154133666D01*
X193040000Y-163010000D02*
X193040000Y-157382943D01*
X193040000Y-157382943D02*
X194600000Y-155822943D01*
X194600000Y-155822943D02*
X204714874Y-155822943D01*
X232600000Y-152289629D02*
X232600000Y-149400000D01*
X204714874Y-155822943D02*
X204870485Y-155667332D01*
X204870485Y-155667332D02*
X211536842Y-155667332D01*
X211536842Y-155667332D02*
X213070508Y-154133666D01*
G04 #@! TO.N,/rs1[1]*
X233366710Y-142400000D02*
X239933290Y-142400000D01*
X246466710Y-142400000D02*
X239933290Y-142400000D01*
X211684140Y-156022942D02*
X205017783Y-156022942D01*
X205017783Y-156022942D02*
X204862172Y-156178553D01*
X213217806Y-154489276D02*
X211684140Y-156022942D01*
X233400000Y-151000000D02*
X233400000Y-151992538D01*
X194040000Y-157760000D02*
X194040000Y-163010000D01*
X195621446Y-156178554D02*
X194040000Y-157760000D01*
X230419450Y-154489276D02*
X213217806Y-154489276D01*
X231530803Y-153377923D02*
X230419450Y-154489276D01*
X232014614Y-153377923D02*
X231530803Y-153377923D01*
X204862172Y-156178553D02*
X195621446Y-156178554D01*
X233400000Y-151992538D02*
X232014614Y-153377923D01*
G04 #@! TO.N,/rs1[0]*
X196040000Y-160632200D02*
X200138037Y-156534163D01*
X200138037Y-156534163D02*
X205009471Y-156534162D01*
X205009471Y-156534162D02*
X205165080Y-156378553D01*
X231678100Y-153733535D02*
X239200000Y-153733535D01*
X213365104Y-154844887D02*
X230566748Y-154844887D01*
X230566748Y-154844887D02*
X231678100Y-153733535D01*
X211831438Y-156378553D02*
X213365104Y-154844887D01*
X196040000Y-163010000D02*
X196040000Y-160632200D01*
X205165080Y-156378553D02*
X211831438Y-156378553D01*
X240926959Y-141240359D02*
X240526960Y-140840360D01*
X242166701Y-140800000D02*
X241726342Y-141240359D01*
X247116710Y-140800000D02*
X242166701Y-140800000D01*
X241726342Y-141240359D02*
X240926959Y-141240359D01*
G04 #@! TO.N,/~shift_oe'*
X211978739Y-156734161D02*
X213512402Y-155200498D01*
X230714046Y-155200498D02*
X230958934Y-154955611D01*
X213512402Y-155200498D02*
X230714046Y-155200498D01*
X246347298Y-154955611D02*
X248302908Y-153000001D01*
X205040000Y-163010000D02*
X205040000Y-159697814D01*
X255400001Y-153000001D02*
X255800000Y-153400000D01*
X230958934Y-154955611D02*
X246347298Y-154955611D01*
X248302908Y-153000001D02*
X255400001Y-153000001D01*
X208003653Y-156734161D02*
X211978739Y-156734161D01*
X205040000Y-159697814D02*
X208003653Y-156734161D01*
G04 #@! TO.N,/~shift_left'*
X211040000Y-160632200D02*
X216116096Y-155556104D01*
X216116096Y-155556104D02*
X230861350Y-155556104D01*
X211040000Y-163010000D02*
X211040000Y-160632200D01*
X231106232Y-155311222D02*
X249755488Y-155311222D01*
X249755488Y-155311222D02*
X251200000Y-153866710D01*
X230861350Y-155556104D02*
X231106232Y-155311222D01*
G04 #@! TO.N,/shift_arith'*
X212040000Y-160632200D02*
X216760485Y-155911715D01*
X212040000Y-163010000D02*
X212040000Y-160632200D01*
X254800001Y-155799999D02*
X255200000Y-155400000D01*
X216760485Y-155911715D02*
X254688285Y-155911715D01*
X254688285Y-155911715D02*
X254800001Y-155799999D01*
G04 #@! TO.N,/shift1*
X148411425Y-138466701D02*
X149011416Y-137866710D01*
X84866701Y-138466701D02*
X148411425Y-138466701D01*
X84000000Y-137600000D02*
X84866701Y-138466701D01*
X235083674Y-138266709D02*
X235483673Y-137866710D01*
X213611416Y-137866710D02*
X214011415Y-138266709D01*
X214011415Y-138266709D02*
X235083674Y-138266709D01*
X213122517Y-138355609D02*
X213611416Y-137866710D01*
X149011416Y-137866710D02*
X149678118Y-138533412D01*
X197697821Y-138355609D02*
X213122517Y-138355609D01*
X149678118Y-138533412D02*
X197520018Y-138533412D01*
X197520018Y-138533412D02*
X197697821Y-138355609D01*
X236083673Y-138466710D02*
X252716710Y-138466710D01*
X235483673Y-137866710D02*
X236083673Y-138466710D01*
X252716710Y-138466710D02*
X255577932Y-138466710D01*
X266800000Y-121800000D02*
X252750000Y-121800000D01*
X252400000Y-96800000D02*
X253600000Y-96800000D01*
X253600000Y-96800000D02*
X254972890Y-95427110D01*
X254972890Y-95427110D02*
X254972890Y-92027110D01*
G04 #@! TO.N,/~shift_left*
X133200000Y-135600000D02*
X134800000Y-135600000D01*
X134800000Y-135600000D02*
X135200000Y-135200000D01*
X184165685Y-135600000D02*
X184365685Y-135800000D01*
X183600000Y-135600000D02*
X184165685Y-135600000D01*
X184365685Y-135800000D02*
X205000000Y-135800000D01*
X205000000Y-135800000D02*
X205200000Y-135600000D01*
X244400000Y-135600000D02*
X250200000Y-135600000D01*
X250200000Y-135600000D02*
X250400000Y-135600000D01*
X228400000Y-59666710D02*
X222211416Y-59666710D01*
X193155609Y-59355609D02*
X221334630Y-59355609D01*
X192600000Y-58800000D02*
X193155609Y-59355609D01*
X221645731Y-59666710D02*
X222211416Y-59666710D01*
X221334630Y-59355609D02*
X221645731Y-59666710D01*
X156999999Y-59199999D02*
X192200001Y-59199999D01*
X156600000Y-58800000D02*
X156999999Y-59199999D01*
X192200001Y-59199999D02*
X192600000Y-58800000D01*
X113799999Y-59199999D02*
X156200001Y-59199999D01*
X156200001Y-59199999D02*
X156600000Y-58800000D01*
X113400000Y-58800000D02*
X113799999Y-59199999D01*
X229400000Y-97400000D02*
X230000000Y-96800000D01*
X242535555Y-96135555D02*
X243200000Y-96800000D01*
X228200000Y-97400000D02*
X229400000Y-97400000D01*
X236079885Y-96135555D02*
X242535555Y-96135555D01*
X221600000Y-96800000D02*
X227600000Y-96800000D01*
X235415440Y-96800000D02*
X236079885Y-96135555D01*
X230000000Y-96800000D02*
X235415440Y-96800000D01*
X227600000Y-96800000D02*
X228200000Y-97400000D01*
X214207707Y-97387162D02*
X215402358Y-97387162D01*
X215402358Y-97387162D02*
X215989520Y-96800000D01*
X204800000Y-97000000D02*
X205400000Y-97600000D01*
X207800000Y-97600000D02*
X208600000Y-96800000D01*
X213620545Y-96800000D02*
X214207707Y-97387162D01*
X215989520Y-96800000D02*
X221600000Y-96800000D01*
X205400000Y-97600000D02*
X207800000Y-97600000D01*
X208600000Y-96800000D02*
X213620545Y-96800000D01*
X141800000Y-97600000D02*
X142600000Y-97600000D01*
X141000000Y-96800000D02*
X141800000Y-97600000D01*
X142600000Y-97600000D02*
X143400000Y-96800000D01*
X135200000Y-96800000D02*
X141000000Y-96800000D01*
X150517215Y-96133299D02*
X151183916Y-96800000D01*
X151183916Y-96800000D02*
X157000000Y-96800000D01*
X149479983Y-96133299D02*
X150517215Y-96133299D01*
X143400000Y-96800000D02*
X148813282Y-96800000D01*
X148813282Y-96800000D02*
X149479983Y-96133299D01*
X121400000Y-97600000D02*
X122200000Y-96800000D01*
X122200000Y-96800000D02*
X127213282Y-96800000D01*
X127879983Y-96133299D02*
X128717663Y-96133299D01*
X118800000Y-97200000D02*
X119200000Y-97600000D01*
X129384364Y-96800000D02*
X135200000Y-96800000D01*
X128717663Y-96133299D02*
X129384364Y-96800000D01*
X119200000Y-97600000D02*
X121400000Y-97600000D01*
X127213282Y-96800000D02*
X127879983Y-96133299D01*
X97200000Y-97200000D02*
X97599999Y-97599999D01*
X98986718Y-97200000D02*
X103000000Y-97200000D01*
X103000000Y-97200000D02*
X103399999Y-97599999D01*
X98586719Y-97599999D02*
X98986718Y-97200000D01*
X118400001Y-97599999D02*
X118800000Y-97200000D01*
X103399999Y-97599999D02*
X118400001Y-97599999D01*
X97599999Y-97599999D02*
X98586719Y-97599999D01*
X184066701Y-97466701D02*
X204333299Y-97466701D01*
X204333299Y-97466701D02*
X204800000Y-97000000D01*
X183600000Y-97000000D02*
X184066701Y-97466701D01*
X177546147Y-97399999D02*
X183200001Y-97399999D01*
X177146148Y-97000000D02*
X177546147Y-97399999D01*
X183200001Y-97399999D02*
X183600000Y-97000000D01*
X170600000Y-97000000D02*
X177146148Y-97000000D01*
X170000000Y-97600000D02*
X170600000Y-97000000D01*
X157800000Y-97600000D02*
X170000000Y-97600000D01*
X157000000Y-96800000D02*
X157800000Y-97600000D01*
X135800000Y-135800000D02*
X155540330Y-135800000D01*
X155540330Y-135800000D02*
X155740330Y-136000000D01*
X155740330Y-136000000D02*
X163792535Y-136000000D01*
X163792535Y-136000000D02*
X164392535Y-135400000D01*
X164392535Y-135400000D02*
X169200000Y-135400000D01*
X135200000Y-135200000D02*
X135800000Y-135800000D01*
X169887997Y-135522312D02*
X174522312Y-135522312D01*
X169200000Y-135400000D02*
X169765685Y-135400000D01*
X169765685Y-135400000D02*
X169887997Y-135522312D01*
X174522312Y-135522312D02*
X175200000Y-136200000D01*
X175200000Y-136200000D02*
X183000000Y-136200000D01*
X183000000Y-136200000D02*
X183600000Y-135600000D01*
X243200000Y-96800000D02*
X250192004Y-96800000D01*
X253400000Y-109200000D02*
X251147363Y-106947363D01*
X250192004Y-96800000D02*
X250418970Y-96573034D01*
X251147363Y-106947363D02*
X249830929Y-106947363D01*
X258700001Y-73300001D02*
X252907463Y-73300001D01*
X250407464Y-75800000D02*
X244533290Y-75800000D01*
X252907463Y-73300001D02*
X250407464Y-75800000D01*
X259700000Y-74300000D02*
X258700001Y-73300001D01*
X250200000Y-135600000D02*
X251200000Y-135600000D01*
X266200000Y-135600000D02*
X251200000Y-135600000D01*
X132800001Y-135999999D02*
X117999999Y-135999999D01*
X117999999Y-135999999D02*
X117400000Y-135400000D01*
X107311494Y-135811490D02*
X106800003Y-135299999D01*
X106800003Y-135299999D02*
X106400004Y-134900000D01*
X113581046Y-135811490D02*
X107311494Y-135811490D01*
X117400000Y-135400000D02*
X113992535Y-135400000D01*
X133200000Y-135600000D02*
X132800001Y-135999999D01*
X113992535Y-135400000D02*
X113581046Y-135811490D01*
X205200000Y-135600000D02*
X213591018Y-135600000D01*
X243639947Y-135794368D02*
X235385387Y-135794368D01*
X220500001Y-135599999D02*
X220900000Y-135200000D01*
X235291018Y-135699999D02*
X221399999Y-135699999D01*
X213591018Y-135600000D02*
X213791017Y-135799999D01*
X221299999Y-135599999D02*
X220900000Y-135200000D01*
X243834315Y-135600000D02*
X243639947Y-135794368D01*
X235385387Y-135794368D02*
X235291018Y-135699999D01*
X244400000Y-135600000D02*
X243834315Y-135600000D01*
X213791017Y-135799999D02*
X220300001Y-135799999D01*
X220300001Y-135799999D02*
X220500001Y-135599999D01*
X221399999Y-135699999D02*
X221299999Y-135599999D01*
G04 #@! TO.N,/shift2*
X254000000Y-117200000D02*
X254565685Y-117200000D01*
X254765685Y-117000000D02*
X266222321Y-117000000D01*
X254565685Y-117200000D02*
X254765685Y-117000000D01*
X215476957Y-97815471D02*
X213678570Y-97815471D01*
X229702909Y-97600000D02*
X229547298Y-97755611D01*
X229547298Y-97755611D02*
X228052702Y-97755611D01*
X228052702Y-97755611D02*
X227897091Y-97600000D01*
X235400000Y-97600000D02*
X229702909Y-97600000D01*
X227897091Y-97600000D02*
X215692428Y-97600000D01*
X215692428Y-97600000D02*
X215476957Y-97815471D01*
X157408911Y-97955611D02*
X207947298Y-97955611D01*
X157120010Y-97666710D02*
X157408911Y-97955611D01*
X208087438Y-97815471D02*
X213678570Y-97815471D01*
X149565685Y-97666710D02*
X149765676Y-97866701D01*
X149000000Y-97666710D02*
X149565685Y-97666710D01*
X207947298Y-97955611D02*
X208087438Y-97815471D01*
X150720008Y-97666710D02*
X157120010Y-97666710D01*
X150520017Y-97866701D02*
X150720008Y-97666710D01*
X149765676Y-97866701D02*
X150520017Y-97866701D01*
X128986718Y-97600000D02*
X141297091Y-97600000D01*
X127799999Y-97999999D02*
X128586719Y-97999999D01*
X128586719Y-97999999D02*
X128986718Y-97600000D01*
X141297091Y-97600000D02*
X141652702Y-97955611D01*
X127400000Y-97600000D02*
X127799999Y-97999999D01*
X148145414Y-97955611D02*
X148434315Y-97666710D01*
X148434315Y-97666710D02*
X149000000Y-97666710D01*
X141652702Y-97955611D02*
X148145414Y-97955611D01*
X249382111Y-117200000D02*
X249322068Y-117139957D01*
X254000000Y-117200000D02*
X249382111Y-117200000D01*
X253567268Y-78189861D02*
X253567268Y-89634770D01*
X253567268Y-89634770D02*
X255639591Y-91707093D01*
X255639591Y-91707093D02*
X255639591Y-95463317D01*
X248765683Y-97600000D02*
X248199998Y-97600000D01*
X253502908Y-97600000D02*
X248765683Y-97600000D01*
X235400000Y-97600000D02*
X248199998Y-97600000D01*
X255639591Y-95463317D02*
X253502908Y-97600000D01*
G04 #@! TO.N,/shift_arith*
X77379983Y-130633299D02*
X78020017Y-130633299D01*
X243179983Y-130433299D02*
X243800000Y-130433299D01*
X67600000Y-130800000D02*
X77213282Y-130800000D01*
X242813282Y-130800000D02*
X243179983Y-130433299D01*
X78020017Y-130633299D02*
X78186718Y-130800000D01*
X200186718Y-131600000D02*
X206913282Y-131600000D01*
X133279983Y-130733299D02*
X133920017Y-130733299D01*
X236866701Y-130800000D02*
X242813282Y-130800000D01*
X85320017Y-130733299D02*
X85386718Y-130800000D01*
X235779983Y-130433299D02*
X236500000Y-130433299D01*
X235433299Y-130779983D02*
X235779983Y-130433299D01*
X233020017Y-130779983D02*
X235433299Y-130779983D01*
X228313282Y-131600000D02*
X228679983Y-131966701D01*
X213813282Y-131600000D02*
X214079983Y-131866701D01*
X221479983Y-131866701D02*
X222220017Y-131866701D01*
X221213282Y-131600000D02*
X221479983Y-131866701D01*
X207079983Y-131766701D02*
X207720017Y-131766701D01*
X243800000Y-130433299D02*
X244166701Y-130800000D01*
X214986718Y-131600000D02*
X221213282Y-131600000D01*
X85386718Y-130800000D02*
X106013282Y-130800000D01*
X214079983Y-131866701D02*
X214720017Y-131866701D01*
X185120017Y-131133299D02*
X185586718Y-131600000D01*
X207886718Y-131600000D02*
X213813282Y-131600000D01*
X84679983Y-130733299D02*
X85320017Y-130733299D01*
X206913282Y-131600000D02*
X207079983Y-131766701D01*
X236500000Y-130433299D02*
X236866701Y-130800000D01*
X222486718Y-131600000D02*
X228313282Y-131600000D01*
X133213282Y-130800000D02*
X133279983Y-130733299D01*
X191779983Y-131433299D02*
X192520017Y-131433299D01*
X231833299Y-131966701D02*
X233020017Y-130779983D01*
X77213282Y-130800000D02*
X77379983Y-130633299D01*
X192520017Y-131433299D02*
X192686718Y-131600000D01*
X214720017Y-131866701D02*
X214986718Y-131600000D01*
X207720017Y-131766701D02*
X207886718Y-131600000D01*
X228679983Y-131966701D02*
X231833299Y-131966701D01*
X133920017Y-130733299D02*
X133986718Y-130800000D01*
X222220017Y-131866701D02*
X222486718Y-131600000D01*
X192686718Y-131600000D02*
X198413282Y-131600000D01*
X148979983Y-130733299D02*
X149820017Y-130733299D01*
X191613282Y-131600000D02*
X191779983Y-131433299D01*
X148913282Y-130800000D02*
X148979983Y-130733299D01*
X199620017Y-131033299D02*
X200186718Y-131600000D01*
X198979983Y-131033299D02*
X199620017Y-131033299D01*
X198413282Y-131600000D02*
X198979983Y-131033299D01*
X185586718Y-131600000D02*
X191613282Y-131600000D01*
X182579983Y-131133299D02*
X185120017Y-131133299D01*
X182113282Y-131600000D02*
X182579983Y-131133299D01*
X168400000Y-131600000D02*
X182113282Y-131600000D01*
X106279983Y-130533299D02*
X106920017Y-130533299D01*
X168200000Y-131800000D02*
X168400000Y-131600000D01*
X167200000Y-130800000D02*
X168200000Y-131800000D01*
X149886718Y-130800000D02*
X167200000Y-130800000D01*
X149820017Y-130733299D02*
X149886718Y-130800000D01*
X142986718Y-130800000D02*
X148913282Y-130800000D01*
X142920017Y-130733299D02*
X142986718Y-130800000D01*
X142279983Y-130733299D02*
X142920017Y-130733299D01*
X142213282Y-130800000D02*
X142279983Y-130733299D01*
X133986718Y-130800000D02*
X142213282Y-130800000D01*
X107186718Y-130800000D02*
X133213282Y-130800000D01*
X106920017Y-130533299D02*
X107186718Y-130800000D01*
X106013282Y-130800000D02*
X106279983Y-130533299D01*
X84613282Y-130800000D02*
X84679983Y-130733299D01*
X78186718Y-130800000D02*
X84613282Y-130800000D01*
X256000000Y-130800000D02*
X252100000Y-130800000D01*
X244166701Y-130800000D02*
X252100000Y-130800000D01*
X250600001Y-94100001D02*
X250600001Y-76613281D01*
X250600001Y-76613281D02*
X252479983Y-74733299D01*
X251000000Y-94500000D02*
X250600001Y-94100001D01*
X255053299Y-74733299D02*
X259700000Y-79380000D01*
X252479983Y-74733299D02*
X255053299Y-74733299D01*
X256000000Y-130800000D02*
X264700000Y-130800000D01*
X264700000Y-130800000D02*
X264800000Y-130900000D01*
G04 #@! TO.N,/shift4*
X254600000Y-123600000D02*
X256200000Y-123600000D01*
X98400000Y-60200000D02*
X141400000Y-60200000D01*
X141400000Y-60200000D02*
X184600000Y-60200000D01*
X184600000Y-60200000D02*
X213600000Y-60200000D01*
X213600000Y-60200000D02*
X221757986Y-60200000D01*
X221757986Y-60200000D02*
X221891398Y-60333412D01*
X221891398Y-60333412D02*
X222531434Y-60333412D01*
X228720017Y-60333411D02*
X228853428Y-60200000D01*
X228079983Y-60333411D02*
X228720017Y-60333411D01*
X227946572Y-60200000D02*
X228079983Y-60333411D01*
X222664846Y-60200000D02*
X227946572Y-60200000D01*
X222531434Y-60333412D02*
X222664846Y-60200000D01*
X228853428Y-60200000D02*
X235200000Y-60200000D01*
X251720000Y-66680000D02*
X246700000Y-71700000D01*
X259700000Y-66680000D02*
X251720000Y-66680000D01*
X264600001Y-123999999D02*
X265000000Y-123600000D01*
X259913280Y-123600000D02*
X260313279Y-123999999D01*
X256200000Y-123600000D02*
X259913280Y-123600000D01*
X260313279Y-123999999D02*
X264600001Y-123999999D01*
G04 #@! TO.N,/~shift_oe*
X184586720Y-135400000D02*
X197167605Y-135400000D01*
X197434315Y-135133290D02*
X198000000Y-135133290D01*
X197167605Y-135400000D02*
X197434315Y-135133290D01*
X176400000Y-135400000D02*
X177066702Y-134733298D01*
X177066702Y-134733298D02*
X183920018Y-134733298D01*
X183920018Y-134733298D02*
X184586720Y-135400000D01*
X258733290Y-134800000D02*
X258600000Y-134933290D01*
X264800000Y-134800000D02*
X258733290Y-134800000D01*
X175834315Y-135400000D02*
X175601016Y-135166701D01*
X163833748Y-135455879D02*
X162699690Y-135455879D01*
X162699690Y-135455879D02*
X162577101Y-135333290D01*
X164556329Y-134733298D02*
X163833748Y-135455879D01*
X162577101Y-135333290D02*
X162011416Y-135333290D01*
X169846580Y-134733298D02*
X164556329Y-134733298D01*
X170279983Y-135166701D02*
X169846580Y-134733298D01*
X175601016Y-135166701D02*
X170279983Y-135166701D01*
X176400000Y-135400000D02*
X175834315Y-135400000D01*
X268400000Y-122800000D02*
X260600006Y-122800000D01*
X260599994Y-122800000D02*
X260600000Y-122799994D01*
X258600000Y-122800000D02*
X260599994Y-122800000D01*
X260600006Y-122800000D02*
X260600000Y-122799994D01*
X161323142Y-135455879D02*
X161445731Y-135333290D01*
X113433748Y-135455879D02*
X113956328Y-134933299D01*
X142436198Y-135333290D02*
X149027218Y-135333290D01*
X161445731Y-135333290D02*
X162011416Y-135333290D01*
X106079981Y-134233299D02*
X106820017Y-134233299D01*
X150067316Y-135438758D02*
X150172784Y-135333290D01*
X126899118Y-135455879D02*
X127833748Y-135455879D01*
X149027218Y-135333290D02*
X149132686Y-135438758D01*
X98589628Y-135799999D02*
X98989627Y-135400000D01*
X127833748Y-135455879D02*
X127889627Y-135400000D01*
X155543663Y-135333290D02*
X155666252Y-135455879D01*
X127889627Y-135400000D02*
X132413280Y-135400000D01*
X104913280Y-135400000D02*
X106079981Y-134233299D01*
X132413280Y-135400000D02*
X133279982Y-134533298D01*
X113956328Y-134933299D02*
X117436207Y-134933299D01*
X133279982Y-134533298D02*
X141636206Y-134533298D01*
X126843239Y-135400000D02*
X126899118Y-135455879D01*
X120567315Y-135422312D02*
X120589627Y-135400000D01*
X98989627Y-135400000D02*
X104913280Y-135400000D01*
X107520017Y-134933299D02*
X111976538Y-134933299D01*
X117925220Y-135422312D02*
X120567315Y-135422312D01*
X149132686Y-135438758D02*
X150067316Y-135438758D01*
X150172784Y-135333290D02*
X155543663Y-135333290D01*
X112499118Y-135455879D02*
X113433748Y-135455879D01*
X111976538Y-134933299D02*
X112499118Y-135455879D01*
X120589627Y-135400000D02*
X126843239Y-135400000D01*
X106820017Y-134233299D02*
X107520017Y-134933299D01*
X97200000Y-135400000D02*
X97599999Y-135799999D01*
X155666252Y-135455879D02*
X161323142Y-135455879D01*
X117436207Y-134933299D02*
X117925220Y-135422312D01*
X97599999Y-135799999D02*
X98589628Y-135799999D01*
X141636206Y-134533298D02*
X142436198Y-135333290D01*
X221931107Y-135244389D02*
X235338317Y-135244389D01*
X250146588Y-134933290D02*
X258034315Y-134933290D01*
X220579983Y-134533299D02*
X221220017Y-134533299D01*
X215372773Y-134933298D02*
X220179984Y-134933298D01*
X205320011Y-134733291D02*
X205831109Y-135244389D01*
X213738316Y-135244389D02*
X213932684Y-135438757D01*
X205831109Y-135244389D02*
X213738316Y-135244389D01*
X221220017Y-134533299D02*
X221931107Y-135244389D01*
X220179984Y-134933298D02*
X220579983Y-134533299D01*
X214867314Y-135438757D02*
X215372773Y-134933298D01*
X198399999Y-134733291D02*
X205320011Y-134733291D01*
X213932684Y-135438757D02*
X214867314Y-135438757D01*
X258034315Y-134933290D02*
X258600000Y-134933290D01*
X235338317Y-135244389D02*
X235532685Y-135438757D01*
X198000000Y-135133290D02*
X198399999Y-134733291D01*
X243479982Y-134933298D02*
X250146580Y-134933298D01*
X250146580Y-134933298D02*
X250146588Y-134933290D01*
X242974523Y-135438757D02*
X243479982Y-134933298D01*
X235532685Y-135438757D02*
X242974523Y-135438757D01*
G04 #@! TO.N,/shift8*
X254000000Y-125400000D02*
X257666710Y-125400000D01*
X89400000Y-99200000D02*
X110800000Y-99200000D01*
X175600000Y-99200000D02*
X197400000Y-99200000D01*
X110800000Y-99200000D02*
X141174640Y-99200000D01*
X141984700Y-99200000D02*
X175600000Y-99200000D01*
X141174640Y-99200000D02*
X141259652Y-99285012D01*
X141899688Y-99285012D02*
X141984700Y-99200000D01*
X141259652Y-99285012D02*
X141899688Y-99285012D01*
X264800000Y-125400000D02*
X257666710Y-125400000D01*
X206313410Y-99200000D02*
X206512523Y-99399113D01*
X206512523Y-99399113D02*
X254689031Y-99399113D01*
X254689031Y-99399113D02*
X255089030Y-98999114D01*
X197400000Y-99200000D02*
X206313410Y-99200000D01*
X256300813Y-91362497D02*
X256300813Y-78600809D01*
X256350813Y-91412497D02*
X256300813Y-91362497D01*
X256300813Y-78600809D02*
X255900004Y-78200000D01*
X256350813Y-97737331D02*
X256350813Y-91412497D01*
X255089030Y-98999114D02*
X256350813Y-97737331D01*
G04 #@! TO.N,/shift16*
X253400000Y-127400000D02*
X256800000Y-127400000D01*
X252600000Y-81100000D02*
X252500000Y-81000000D01*
X252600000Y-93900000D02*
X252600000Y-81100000D01*
X256800000Y-127400000D02*
X260233290Y-127400000D01*
X260200000Y-133900000D02*
X262200000Y-133900000D01*
G04 #@! TO.N,/~shift8*
X82000000Y-100000000D02*
X96600000Y-100000000D01*
X96600000Y-100000000D02*
X103600000Y-100000000D01*
X103600000Y-100000000D02*
X118000000Y-100000000D01*
X118000000Y-100000000D02*
X168400000Y-100000000D01*
X168400000Y-100000000D02*
X182800000Y-100000000D01*
X182800000Y-100000000D02*
X190200000Y-100000000D01*
X190200000Y-100000000D02*
X204600000Y-100000000D01*
X204600000Y-100000000D02*
X256600000Y-100000000D01*
X256999999Y-99600001D02*
X256999999Y-92400001D01*
X256600000Y-100000000D02*
X256999999Y-99600001D01*
X256999999Y-92400001D02*
X263600000Y-85800000D01*
G04 #@! TO.N,/~shift16*
X258933290Y-115333290D02*
X259188584Y-115333290D01*
X255400000Y-111800000D02*
X258933290Y-115333290D01*
X267433290Y-76953290D02*
X267433290Y-101000000D01*
X262240000Y-71760000D02*
X267433290Y-76953290D01*
X264024345Y-101375655D02*
X264424344Y-100975656D01*
X255400000Y-102800000D02*
X256824345Y-101375655D01*
X256824345Y-101375655D02*
X259200000Y-101375655D01*
X259200000Y-101375655D02*
X264024345Y-101375655D01*
G04 #@! TO.N,/~shift4*
X84000000Y-61000000D02*
X112800000Y-61000000D01*
X112800000Y-61000000D02*
X127000000Y-61000000D01*
X127000000Y-61000000D02*
X155800000Y-61000000D01*
X155800000Y-61000000D02*
X170200000Y-61000000D01*
X170200000Y-61000000D02*
X191800000Y-61000000D01*
X191800000Y-61000000D02*
X206200000Y-61000000D01*
X206200000Y-61000000D02*
X220800000Y-61000000D01*
X256000000Y-117800000D02*
X264000000Y-117800000D01*
X233600000Y-61000000D02*
X220800000Y-61000000D01*
X252453299Y-67946701D02*
X246500000Y-73900000D01*
X260973299Y-67946701D02*
X252453299Y-67946701D01*
X262240000Y-66680000D02*
X260973299Y-67946701D01*
X264422314Y-109099999D02*
X264622313Y-108900000D01*
X259200000Y-108700000D02*
X259599999Y-109099999D01*
X259599999Y-109099999D02*
X264422314Y-109099999D01*
G04 #@! TO.N,/~shift_right*
X191199999Y-134200001D02*
X206822322Y-134200001D01*
X190800000Y-134600000D02*
X191199999Y-134200001D01*
X206822322Y-134200001D02*
X207200000Y-134577679D01*
X82800000Y-96234315D02*
X83234315Y-95800000D01*
X82800000Y-96800000D02*
X82800000Y-96234315D01*
X83234315Y-95800000D02*
X103400000Y-95800000D01*
X103400000Y-95800000D02*
X104400000Y-96800000D01*
X104400000Y-96800000D02*
X105400000Y-95800000D01*
X105400000Y-95800000D02*
X119800000Y-95800000D01*
X119800000Y-95800000D02*
X120800000Y-96800000D01*
X190800000Y-96800000D02*
X191800000Y-95800000D01*
X191800000Y-95800000D02*
X206200000Y-95800000D01*
X206200000Y-95800000D02*
X207200000Y-96800000D01*
X208200000Y-95800000D02*
X227866710Y-95800000D01*
X227866710Y-95800000D02*
X228800000Y-96733290D01*
X207200000Y-96800000D02*
X208200000Y-95800000D01*
X224400000Y-59000000D02*
X218200000Y-59000000D01*
X217666701Y-58466701D02*
X207666701Y-58466701D01*
X207666701Y-58466701D02*
X207000000Y-57800000D01*
X225600000Y-57800000D02*
X224400000Y-59000000D01*
X218200000Y-59000000D02*
X217666701Y-58466701D01*
X186386718Y-57800000D02*
X207000000Y-57800000D01*
X185720017Y-58466701D02*
X186386718Y-57800000D01*
X171666701Y-58466701D02*
X185720017Y-58466701D01*
X171000000Y-57800000D02*
X171666701Y-58466701D01*
X143186718Y-57800000D02*
X171000000Y-57800000D01*
X127800000Y-57800000D02*
X128466701Y-58466701D01*
X142520017Y-58466701D02*
X143186718Y-57800000D01*
X128466701Y-58466701D02*
X142520017Y-58466701D01*
X99986718Y-57800000D02*
X127800000Y-57800000D01*
X99320017Y-58466701D02*
X99986718Y-57800000D01*
X85266701Y-58466701D02*
X99320017Y-58466701D01*
X84600000Y-57800000D02*
X85266701Y-58466701D01*
X168533298Y-96133298D02*
X156679982Y-96133298D01*
X142900315Y-96244391D02*
X142411416Y-96733290D01*
X156679982Y-96133298D02*
X156568889Y-96244391D01*
X151131216Y-96244391D02*
X150664513Y-95777688D01*
X148865982Y-96244391D02*
X142900315Y-96244391D01*
X150664513Y-95777688D02*
X149332685Y-95777688D01*
X169200000Y-96800000D02*
X168533298Y-96133298D01*
X149332685Y-95777688D02*
X148865982Y-96244391D01*
X156568889Y-96244391D02*
X151131216Y-96244391D01*
X128864961Y-95777688D02*
X128887273Y-95800000D01*
X141478126Y-95800000D02*
X142411416Y-96733290D01*
X128887273Y-95800000D02*
X141478126Y-95800000D01*
X121822312Y-95777688D02*
X128864961Y-95777688D01*
X120800000Y-96800000D02*
X121822312Y-95777688D01*
X189800000Y-95800000D02*
X190800000Y-96800000D01*
X177920017Y-95733299D02*
X177986718Y-95800000D01*
X177986718Y-95800000D02*
X189800000Y-95800000D01*
X170266701Y-95733299D02*
X177920017Y-95733299D01*
X169200000Y-96800000D02*
X170266701Y-95733299D01*
X229400000Y-57800000D02*
X225600000Y-57800000D01*
X78166701Y-135166701D02*
X85120017Y-135166701D01*
X85686718Y-134600000D02*
X90413282Y-134600000D01*
X98179983Y-135066701D02*
X98820017Y-135066701D01*
X85120017Y-135166701D02*
X85686718Y-134600000D01*
X91620017Y-135166701D02*
X92186718Y-134600000D01*
X99286718Y-134600000D02*
X104400000Y-134600000D01*
X77600000Y-134600000D02*
X78166701Y-135166701D01*
X98820017Y-135066701D02*
X99286718Y-134600000D01*
X97713282Y-134600000D02*
X98179983Y-135066701D01*
X92186718Y-134600000D02*
X97713282Y-134600000D01*
X90979983Y-135166701D02*
X91620017Y-135166701D01*
X90413282Y-134600000D02*
X90979983Y-135166701D01*
X120420017Y-135066701D02*
X120886718Y-134600000D01*
X119266701Y-135066701D02*
X120420017Y-135066701D01*
X120886718Y-134600000D02*
X126000000Y-134600000D01*
X118800000Y-134600000D02*
X119266701Y-135066701D01*
X127686450Y-135100268D02*
X128627397Y-134159321D01*
X142205101Y-134159321D02*
X142605100Y-134559320D01*
X127065953Y-135100268D02*
X127686450Y-135100268D01*
X126565685Y-134600000D02*
X127065953Y-135100268D01*
X126000000Y-134600000D02*
X126565685Y-134600000D01*
X128627397Y-134159321D02*
X142205101Y-134159321D01*
X148756157Y-134559320D02*
X142605100Y-134559320D01*
X164586717Y-134200001D02*
X163686450Y-135100268D01*
X190800000Y-134600000D02*
X190033299Y-133833299D01*
X163046416Y-135100268D02*
X162546148Y-134600000D01*
X155813550Y-135100268D02*
X155313282Y-134600000D01*
X162546148Y-134600000D02*
X156986718Y-134600000D01*
X149279984Y-135083147D02*
X148756157Y-134559320D01*
X163686450Y-135100268D02*
X163046416Y-135100268D01*
X156986718Y-134600000D02*
X156486450Y-135100268D01*
X170300001Y-133833299D02*
X169933299Y-134200001D01*
X155313282Y-134600000D02*
X150403165Y-134600000D01*
X190033299Y-133833299D02*
X170300001Y-133833299D01*
X169933299Y-134200001D02*
X164586717Y-134200001D01*
X156486450Y-135100268D02*
X155813550Y-135100268D01*
X150403165Y-134600000D02*
X149920018Y-135083147D01*
X149920018Y-135083147D02*
X149279984Y-135083147D01*
X253789798Y-110839645D02*
X253833290Y-110796153D01*
X249066457Y-110839645D02*
X253789798Y-110839645D01*
X256389609Y-75566701D02*
X255200597Y-74377688D01*
X250110373Y-76600000D02*
X248200000Y-76600000D01*
X262240000Y-74300000D02*
X260973299Y-75566701D01*
X255200597Y-74377688D02*
X252332685Y-74377688D01*
X260973299Y-75566701D02*
X256389609Y-75566701D01*
X252332685Y-74377688D02*
X250110373Y-76600000D01*
X260400000Y-105300000D02*
X258600000Y-103500000D01*
X258600000Y-103500000D02*
X253533291Y-103500000D01*
X228801644Y-134577679D02*
X235174516Y-134577679D01*
X236320017Y-135083146D02*
X237603163Y-133800000D01*
X235679983Y-135083146D02*
X236320017Y-135083146D01*
X235174516Y-134577679D02*
X235679983Y-135083146D01*
X237603163Y-133800000D02*
X250400004Y-133800000D01*
X111746149Y-134200001D02*
X112646416Y-135100268D01*
X114186717Y-134200001D02*
X118400001Y-134200001D01*
X113286450Y-135100268D02*
X114186717Y-134200001D01*
X107289627Y-134200001D02*
X111746149Y-134200001D01*
X118400001Y-134200001D02*
X118800000Y-134600000D01*
X104400000Y-134600000D02*
X105122312Y-133877688D01*
X106967315Y-133877688D02*
X107289627Y-134200001D01*
X112646416Y-135100268D02*
X113286450Y-135100268D01*
X105122312Y-133877688D02*
X106967315Y-133877688D01*
X220032694Y-134577679D02*
X220432693Y-134177680D01*
X215225483Y-134577679D02*
X220032694Y-134577679D01*
X228401645Y-134177680D02*
X228801644Y-134577679D01*
X220432693Y-134177680D02*
X228401645Y-134177680D01*
X213574515Y-134577679D02*
X214079982Y-135083146D01*
X214720016Y-135083146D02*
X215225483Y-134577679D01*
X214079982Y-135083146D02*
X214720016Y-135083146D01*
X207200000Y-134577679D02*
X213574515Y-134577679D01*
X252734318Y-95400003D02*
X253300003Y-95400003D01*
X228800000Y-96733290D02*
X230133287Y-95400003D01*
X230133287Y-95400003D02*
X252734318Y-95400003D01*
G04 #@! TO.N,/~shift2*
X120000000Y-98400000D02*
X134600000Y-98400000D01*
X156200000Y-98400000D02*
X141797980Y-98400000D01*
X134600000Y-98400000D02*
X141361360Y-98400000D01*
X141361360Y-98400000D02*
X141579670Y-98618310D01*
X141797980Y-98400000D02*
X141579670Y-98618310D01*
X156200000Y-98400000D02*
X206480347Y-98400000D01*
X206480347Y-98400000D02*
X206702668Y-98622321D01*
X227961360Y-98400000D02*
X228179670Y-98618310D01*
X242600000Y-98400000D02*
X228397980Y-98400000D01*
X228397980Y-98400000D02*
X228179670Y-98618310D01*
X221000000Y-98400000D02*
X227961360Y-98400000D01*
X263600000Y-113200000D02*
X260800000Y-116000000D01*
X254999999Y-115999999D02*
X254600000Y-115600000D01*
X260800000Y-116000000D02*
X254999999Y-115999999D01*
X213690952Y-98799999D02*
X213290953Y-98400000D01*
X207490674Y-98400000D02*
X207268353Y-98622321D01*
X220600001Y-98799999D02*
X213690952Y-98799999D01*
X213290953Y-98400000D02*
X207490674Y-98400000D01*
X221000000Y-98400000D02*
X220600001Y-98799999D01*
X207268353Y-98622321D02*
X206702668Y-98622321D01*
X254600000Y-115600000D02*
X251333290Y-115600000D01*
X255995202Y-91559795D02*
X255622312Y-91186905D01*
X253512646Y-98390263D02*
X255995202Y-95907707D01*
X255995202Y-95907707D02*
X255995202Y-91559795D01*
X255622312Y-79256627D02*
X252965685Y-76600000D01*
X255622312Y-91186905D02*
X255622312Y-79256627D01*
X251533290Y-98390263D02*
X253512646Y-98390263D01*
X252965685Y-76600000D02*
X251600000Y-76600000D01*
X242999999Y-98799999D02*
X251123554Y-98799999D01*
X251133291Y-98790262D02*
X251533290Y-98390263D01*
X251123554Y-98799999D02*
X251133291Y-98790262D01*
X242600000Y-98400000D02*
X242999999Y-98799999D01*
G04 #@! TO.N,/~shift_16_oe*
X118000000Y-137200000D02*
X125400000Y-137200000D01*
X125400000Y-137200000D02*
X132600000Y-137200000D01*
X190000000Y-137200000D02*
X204600000Y-137200000D01*
X107568933Y-137200000D02*
X118000000Y-137200000D01*
X107390396Y-137378537D02*
X107568933Y-137200000D01*
X103800000Y-137200000D02*
X106571823Y-137200000D01*
X106750360Y-137378537D02*
X107390396Y-137378537D01*
X106571823Y-137200000D02*
X106750360Y-137378537D01*
X142763323Y-137333412D02*
X147866589Y-137333412D01*
X150200000Y-137000000D02*
X168600000Y-137000000D01*
X142629911Y-137200000D02*
X142763323Y-137333412D01*
X147866589Y-137333412D02*
X148399999Y-136800002D01*
X148399999Y-136800002D02*
X150000002Y-136800002D01*
X150000002Y-136800002D02*
X150200000Y-137000000D01*
X132600000Y-137200000D02*
X142629911Y-137200000D01*
X183048136Y-137200000D02*
X183025815Y-137222321D01*
X190000000Y-137200000D02*
X183048136Y-137200000D01*
X168600000Y-137000000D02*
X182803494Y-137000000D01*
X182803494Y-137000000D02*
X183025815Y-137222321D01*
X215000000Y-137200000D02*
X228769017Y-137200000D01*
X234800000Y-136800000D02*
X236200000Y-136800000D01*
X229675147Y-137200000D02*
X234400000Y-137200000D01*
X204600000Y-137200000D02*
X212800000Y-137200000D01*
X228769017Y-137200000D02*
X228902064Y-137333047D01*
X236200000Y-136800000D02*
X236600000Y-137200000D01*
X234400000Y-137200000D02*
X234800000Y-136800000D01*
X228902064Y-137333047D02*
X229542100Y-137333047D01*
X214600000Y-136800000D02*
X215000000Y-137200000D01*
X213200000Y-136800000D02*
X214600000Y-136800000D01*
X259434315Y-136933290D02*
X260000000Y-136933290D01*
X212800000Y-137200000D02*
X213200000Y-136800000D01*
X259167605Y-137200000D02*
X259434315Y-136933290D01*
X236600000Y-137200000D02*
X259167605Y-137200000D01*
X229542100Y-137333047D02*
X229675147Y-137200000D01*
X267800000Y-124600000D02*
X259900000Y-124600000D01*
X260973299Y-78106701D02*
X260973299Y-80473299D01*
X262240000Y-76840000D02*
X260973299Y-78106701D01*
X261153299Y-80653299D02*
X263753299Y-80653299D01*
X260973299Y-80473299D02*
X261153299Y-80653299D01*
X263753299Y-80653299D02*
X265700000Y-82600000D01*
X265700000Y-104100000D02*
X266600000Y-105000000D01*
X265700000Y-102200000D02*
X261700000Y-102200000D01*
X265700000Y-82600000D02*
X265700000Y-102200000D01*
X265700000Y-102200000D02*
X265700000Y-104100000D01*
G04 #@! TO.N,/~shift1*
X136047989Y-136533290D02*
X107248923Y-136533290D01*
X107248923Y-136533290D02*
X107070378Y-136711835D01*
X142949921Y-136533290D02*
X143083341Y-136666710D01*
X136047989Y-136533290D02*
X142949921Y-136533290D01*
X229089027Y-136533290D02*
X229222082Y-136666345D01*
X221828579Y-136533290D02*
X229089027Y-136533290D01*
X252886991Y-136533290D02*
X253130490Y-136289791D01*
X243005259Y-136533290D02*
X252886991Y-136533290D01*
X263600000Y-115000000D02*
X262200000Y-116400000D01*
X262200000Y-116400000D02*
X252800000Y-116400000D01*
X166147300Y-136355609D02*
X155593030Y-136355609D01*
X166369618Y-136133291D02*
X166147300Y-136355609D01*
X183169619Y-136533290D02*
X183147298Y-136555611D01*
X175052702Y-136555611D02*
X174630383Y-136133291D01*
X155393032Y-136155611D02*
X143594440Y-136155611D01*
X143594440Y-136155611D02*
X143083341Y-136666710D01*
X155593030Y-136355609D02*
X155393032Y-136155611D01*
X174630383Y-136133291D02*
X166369618Y-136133291D01*
X208111926Y-136533290D02*
X183169619Y-136533290D01*
X183147298Y-136555611D02*
X175052702Y-136555611D01*
X229755136Y-136133291D02*
X229222082Y-136666345D01*
X235221401Y-136133291D02*
X229755136Y-136133291D01*
X235238089Y-136149979D02*
X235221401Y-136133291D01*
X242056263Y-136149979D02*
X235238089Y-136149979D01*
X242439574Y-136533290D02*
X242056263Y-136149979D01*
X243005259Y-136533290D02*
X242439574Y-136533290D01*
X268400000Y-115000000D02*
X263600000Y-115000000D01*
X77565682Y-136200001D02*
X77465685Y-136100004D01*
X77465685Y-136100004D02*
X76900000Y-136100004D01*
X107070378Y-136711835D02*
X106558544Y-136200001D01*
X106558544Y-136200001D02*
X77565682Y-136200001D01*
X221262894Y-136533290D02*
X221828579Y-136533290D01*
X220479984Y-136266702D02*
X220746572Y-136533290D01*
X208677611Y-136533290D02*
X208944199Y-136266702D01*
X208944199Y-136266702D02*
X220479984Y-136266702D01*
X208111926Y-136533290D02*
X208677611Y-136533290D01*
X220746572Y-136533290D02*
X221262894Y-136533290D01*
G04 #@! TO.N,/~noshift_16_oe*
X134963794Y-137866702D02*
X135052701Y-137955609D01*
X135702908Y-137800000D02*
X148102908Y-137800000D01*
X103413282Y-137800000D02*
X103479983Y-137866701D01*
X148102908Y-137800000D02*
X148702907Y-137200001D01*
X132279982Y-137866702D02*
X134963794Y-137866702D01*
X96600000Y-137800000D02*
X103413282Y-137800000D01*
X117679982Y-137866702D02*
X118320018Y-137866702D01*
X125720018Y-137866702D02*
X125786720Y-137800000D01*
X125786720Y-137800000D02*
X132213280Y-137800000D01*
X150363802Y-137666710D02*
X161211416Y-137666710D01*
X135052701Y-137955609D02*
X135547299Y-137955609D01*
X135547299Y-137955609D02*
X135702908Y-137800000D01*
X149897093Y-137200001D02*
X150363802Y-137666710D01*
X125013280Y-137800000D02*
X125079982Y-137866702D01*
X125079982Y-137866702D02*
X125720018Y-137866702D01*
X118320018Y-137866702D02*
X118386720Y-137800000D01*
X117613280Y-137800000D02*
X117679982Y-137866702D01*
X132213280Y-137800000D02*
X132279982Y-137866702D01*
X104186718Y-137800000D02*
X117613280Y-137800000D01*
X118386720Y-137800000D02*
X125013280Y-137800000D01*
X104120017Y-137866701D02*
X104186718Y-137800000D01*
X103479983Y-137866701D02*
X104120017Y-137866701D01*
X148702907Y-137200001D02*
X149897093Y-137200001D01*
X161843811Y-137600000D02*
X168213280Y-137600000D01*
X161211416Y-137666710D02*
X161777101Y-137666710D01*
X168213280Y-137600000D02*
X168279990Y-137666710D01*
X168279990Y-137666710D02*
X175800000Y-137666710D01*
X161777101Y-137666710D02*
X161843811Y-137600000D01*
X183630217Y-137600000D02*
X189413280Y-137600000D01*
X189679990Y-137866710D02*
X197200000Y-137866710D01*
X175800000Y-137666710D02*
X176199999Y-138066709D01*
X176199999Y-138066709D02*
X183163508Y-138066709D01*
X189413280Y-137600000D02*
X189679990Y-137866710D01*
X183163508Y-138066709D02*
X183630217Y-137600000D01*
X213302909Y-137200000D02*
X212636199Y-137866710D01*
X234502908Y-137800000D02*
X215000000Y-137800000D01*
X212636199Y-137866710D02*
X197200000Y-137866710D01*
X214400000Y-137200000D02*
X213302909Y-137200000D01*
X261800000Y-137800000D02*
X236400000Y-137800000D01*
X236400000Y-137800000D02*
X235800000Y-137200000D01*
X215000000Y-137800000D02*
X214400000Y-137200000D01*
X235800000Y-137200000D02*
X235102908Y-137200000D01*
X235102908Y-137200000D02*
X234502908Y-137800000D01*
X262240000Y-79380000D02*
X264380000Y-79380000D01*
X264380000Y-79380000D02*
X266400000Y-81400000D01*
X266400000Y-81400000D02*
X266400000Y-103100000D01*
X266400000Y-103100000D02*
X267500000Y-104200000D01*
X267500000Y-104200000D02*
X267500000Y-106100000D01*
X267200000Y-106400000D02*
X265000000Y-106400000D01*
X267500000Y-106100000D02*
X267200000Y-106400000D01*
X265000000Y-106400000D02*
X264400000Y-106400000D01*
X264400000Y-106400000D02*
X263200000Y-105200000D01*
G04 #@! TO.N,/msb*
X70600000Y-137600000D02*
X77616710Y-137600000D01*
X84600000Y-64400000D02*
X71800000Y-64400000D01*
X120800000Y-103000000D02*
X120400001Y-102600001D01*
X72199999Y-102600001D02*
X71800000Y-103000000D01*
X120400001Y-102600001D02*
X72199999Y-102600001D01*
G04 #@! TO.N,/msb'''*
X77600000Y-93800000D02*
X70600000Y-93800000D01*
G04 #@! TO.N,/msb''*
X113133299Y-132066701D02*
X73066701Y-132066701D01*
X73066701Y-132066701D02*
X72600000Y-131600000D01*
X113600000Y-131600000D02*
X113133299Y-132066701D01*
G04 #@! TO.N,/msb'*
X99200000Y-130000000D02*
X74200000Y-130000000D01*
G04 #@! TO.N,/s1[24]*
X132400000Y-127600000D02*
X139000000Y-127600000D01*
X142800000Y-127600000D02*
X139000000Y-127600000D01*
X132400000Y-127600000D02*
X113400000Y-127600000D01*
X113400000Y-127600000D02*
X90016710Y-127600000D01*
X90016710Y-127600000D02*
X82816710Y-127600000D01*
G04 #@! TO.N,/s1[25]*
X138176035Y-126000000D02*
X138177679Y-125998356D01*
X131600008Y-126000000D02*
X138176035Y-126000000D01*
X138179323Y-126000000D02*
X138177679Y-125998356D01*
X142000000Y-126000000D02*
X138179323Y-126000000D01*
X112600000Y-126000000D02*
X131600008Y-126000000D01*
X89400000Y-126000000D02*
X112600000Y-126000000D01*
X82200000Y-126000000D02*
X89400000Y-126000000D01*
G04 #@! TO.N,/s1[26]*
X130400000Y-124400000D02*
X137376035Y-124400000D01*
X137376035Y-124400000D02*
X137377679Y-124398356D01*
X130400000Y-124400000D02*
X125342872Y-124400000D01*
X125342872Y-124400000D02*
X125163478Y-124579394D01*
X124402726Y-124384327D02*
X112000376Y-124384327D01*
X125163478Y-124579394D02*
X124597793Y-124579394D01*
X124597793Y-124579394D02*
X124402726Y-124384327D01*
X88732383Y-124384327D02*
X88716710Y-124400000D01*
X112000376Y-124384327D02*
X88732383Y-124384327D01*
X88716710Y-124400000D02*
X81516710Y-124400000D01*
G04 #@! TO.N,/s1[27]*
X129600000Y-122800000D02*
X136600000Y-122800000D01*
X129600000Y-122800000D02*
X124753657Y-122800000D01*
X124753657Y-122800000D02*
X124666710Y-122886947D01*
X111731712Y-122886947D02*
X111644765Y-122800000D01*
X124666710Y-122886947D02*
X111731712Y-122886947D01*
X106813282Y-122800000D02*
X88066710Y-122800000D01*
X106879983Y-122866701D02*
X106813282Y-122800000D01*
X107520017Y-122866701D02*
X106879983Y-122866701D01*
X107586718Y-122800000D02*
X107520017Y-122866701D01*
X111644765Y-122800000D02*
X107586718Y-122800000D01*
X88066710Y-122800000D02*
X80866710Y-122800000D01*
G04 #@! TO.N,/s1[28]*
X128800000Y-121200000D02*
X135800000Y-121200000D01*
X128800000Y-121200000D02*
X123944706Y-121200000D01*
X123944706Y-121200000D02*
X123933290Y-121211416D01*
X123933290Y-121211416D02*
X110797005Y-121211416D01*
X110797005Y-121211416D02*
X110733543Y-121274878D01*
X110167858Y-121274878D02*
X110092980Y-121200000D01*
X110092980Y-121200000D02*
X87416710Y-121200000D01*
X110733543Y-121274878D02*
X110167858Y-121274878D01*
X80400000Y-121200000D02*
X87416710Y-121200000D01*
G04 #@! TO.N,/s1[29]*
X128200000Y-119600000D02*
X135000000Y-119600000D01*
X128200000Y-119600000D02*
X123339250Y-119600000D01*
X123339250Y-119600000D02*
X123333290Y-119605960D01*
X110121668Y-119605960D02*
X109982418Y-119466710D01*
X123333290Y-119605960D02*
X110121668Y-119605960D01*
X105679983Y-119666701D02*
X106320017Y-119666701D01*
X86800000Y-119600000D02*
X105613282Y-119600000D01*
X105613282Y-119600000D02*
X105679983Y-119666701D01*
X106320017Y-119666701D02*
X106520008Y-119466710D01*
X106520008Y-119466710D02*
X109982418Y-119466710D01*
X79600000Y-119600000D02*
X86800000Y-119600000D01*
G04 #@! TO.N,/s1[30]*
X127400000Y-118000000D02*
X122333280Y-118000000D01*
X108823964Y-118000000D02*
X108822321Y-117998357D01*
X122333280Y-118000000D02*
X108823964Y-118000000D01*
X108822321Y-117998357D02*
X86118353Y-117998357D01*
X86118353Y-117998357D02*
X86116710Y-118000000D01*
X86116710Y-118000000D02*
X78916710Y-118000000D01*
G04 #@! TO.N,/s1[31]*
X121800000Y-116200000D02*
X121600000Y-116400000D01*
X107800000Y-116400000D02*
X121600000Y-116400000D01*
X126600000Y-116200000D02*
X121800000Y-116200000D01*
X85400000Y-116400000D02*
X107800000Y-116400000D01*
X78000000Y-116400000D02*
X85400000Y-116400000D01*
G04 #@! TO.N,/s1[23]*
X149600000Y-104400000D02*
X143600000Y-104400000D01*
X143600000Y-104400000D02*
X139116710Y-104400000D01*
X135744803Y-104400000D02*
X135733387Y-104388584D01*
X139116710Y-104400000D02*
X135744803Y-104400000D01*
G04 #@! TO.N,/s1[22]*
X139800000Y-106000000D02*
X144400000Y-106000000D01*
X144400000Y-106000000D02*
X150266710Y-106000000D01*
X136600000Y-106000000D02*
X139800000Y-106000000D01*
G04 #@! TO.N,/s1[21]*
X156800000Y-107600000D02*
X151000000Y-107600000D01*
X145000000Y-107600000D02*
X151000000Y-107600000D01*
X145000000Y-107600000D02*
X137278126Y-107600000D01*
X137278126Y-107600000D02*
X137266710Y-107588584D01*
G04 #@! TO.N,/s1[20]*
X145600000Y-109200000D02*
X151666710Y-109200000D01*
X157400000Y-109200000D02*
X151666710Y-109200000D01*
X145600000Y-109200000D02*
X138120978Y-109200000D01*
X138120978Y-109200000D02*
X137999297Y-109078319D01*
G04 #@! TO.N,/s1[19]*
X152800000Y-110800000D02*
X158200000Y-110800000D01*
X146400000Y-110800000D02*
X152800000Y-110800000D01*
X146400000Y-110800000D02*
X138817320Y-110800000D01*
X138817320Y-110800000D02*
X138711596Y-110694276D01*
G04 #@! TO.N,/s1[18]*
X153521868Y-112400000D02*
X153533290Y-112411422D01*
X158800000Y-112400000D02*
X153544712Y-112400000D01*
X153544712Y-112400000D02*
X153533290Y-112411422D01*
X147000000Y-112400000D02*
X153521868Y-112400000D01*
X139516695Y-112400000D02*
X139400376Y-112283681D01*
X147000000Y-112400000D02*
X139516695Y-112400000D01*
G04 #@! TO.N,/s1[17]*
X159400000Y-114000000D02*
X207200000Y-114000000D01*
X154200000Y-114000000D02*
X159400000Y-114000000D01*
X147000000Y-114000000D02*
X154200000Y-114000000D01*
X139800000Y-114000000D02*
X147000000Y-114000000D01*
G04 #@! TO.N,/s1[16]*
X160000000Y-115600000D02*
X207733290Y-115600000D01*
X155000000Y-115600000D02*
X160000000Y-115600000D01*
X147800000Y-115600000D02*
X155000000Y-115600000D01*
X140600000Y-115600000D02*
X147800000Y-115600000D01*
G04 #@! TO.N,/s1[15]*
X160744706Y-119600000D02*
X160733290Y-119588584D01*
X207800000Y-119600000D02*
X160744706Y-119600000D01*
X207800000Y-119600000D02*
X214533290Y-119600000D01*
X221800000Y-119600000D02*
X214533290Y-119600000D01*
G04 #@! TO.N,/s1[14]*
X187986719Y-120800001D02*
X187586720Y-121200000D01*
X187586720Y-121200000D02*
X161400000Y-121200000D01*
X208200001Y-120800001D02*
X187986719Y-120800001D01*
X208600000Y-121200000D02*
X208200001Y-120800001D01*
X208600000Y-121200000D02*
X215766710Y-121200000D01*
X222866580Y-121200000D02*
X215766710Y-121200000D01*
G04 #@! TO.N,/s1[13]*
X223533290Y-122800000D02*
X216350000Y-122800000D01*
X209200000Y-122800000D02*
X216350000Y-122800000D01*
G04 #@! TO.N,/s1[12]*
X217016710Y-124400000D02*
X209816710Y-124400000D01*
X217016710Y-124400000D02*
X224200000Y-124400000D01*
G04 #@! TO.N,/s1[11]*
X210466710Y-126000000D02*
X217733290Y-126000000D01*
X224866710Y-126000000D02*
X217733290Y-126000000D01*
G04 #@! TO.N,/s1[10]*
X211116710Y-127600000D02*
X218333290Y-127600000D01*
X225483290Y-127611416D02*
X218344706Y-127611416D01*
X218344706Y-127611416D02*
X218333290Y-127600000D01*
G04 #@! TO.N,/s1[9]*
X212199999Y-129599999D02*
X218550001Y-129599999D01*
X218550001Y-129599999D02*
X218950000Y-129200000D01*
X211800000Y-129200000D02*
X212199999Y-129599999D01*
X226150000Y-129200000D02*
X225750001Y-129599999D01*
X225750001Y-129599999D02*
X219349999Y-129599999D01*
X219349999Y-129599999D02*
X218950000Y-129200000D01*
X229700000Y-128765685D02*
X229700000Y-128200000D01*
X226549999Y-129599999D02*
X228865686Y-129599999D01*
X228865686Y-129599999D02*
X229700000Y-128765685D01*
X226150000Y-129200000D02*
X226549999Y-129599999D01*
G04 #@! TO.N,/s1[8]*
X219216711Y-130400001D02*
X212816709Y-130400001D01*
X212816709Y-130400001D02*
X212416710Y-130800000D01*
X219616710Y-130800000D02*
X219216711Y-130400001D01*
X220016709Y-130400001D02*
X219616710Y-130800000D01*
X226416711Y-130400001D02*
X220016709Y-130400001D01*
X226816710Y-130800000D02*
X226416711Y-130400001D01*
X227616710Y-130000000D02*
X230300000Y-130000000D01*
X226816710Y-130800000D02*
X227616710Y-130000000D01*
G04 #@! TO.N,/s1[0]*
X234416709Y-131999999D02*
X234016710Y-131600000D01*
X240816711Y-131999999D02*
X234416709Y-131999999D01*
X241216710Y-131600000D02*
X240816711Y-131999999D01*
X248416710Y-131600000D02*
X248016711Y-131999999D01*
X248016711Y-131999999D02*
X241616709Y-131999999D01*
X241616709Y-131999999D02*
X241216710Y-131600000D01*
G04 #@! TO.N,/s1[1]*
X240544706Y-130000000D02*
X240533290Y-129988584D01*
X247750000Y-130000000D02*
X240544706Y-130000000D01*
X233422882Y-129988584D02*
X233411466Y-130000000D01*
X240533290Y-129988584D02*
X233422882Y-129988584D01*
G04 #@! TO.N,/s1[2]*
X239533291Y-127988585D02*
X233422882Y-127988585D01*
X239933290Y-128388584D02*
X239533291Y-127988585D01*
X233422882Y-127988585D02*
X233011467Y-128400000D01*
X247083290Y-128400000D02*
X246683291Y-128000001D01*
X246683291Y-128000001D02*
X240321873Y-128000001D01*
X240321873Y-128000001D02*
X239933290Y-128388584D01*
G04 #@! TO.N,/s1[3]*
X239266710Y-126800000D02*
X246416580Y-126800000D01*
X232241227Y-126800000D02*
X232141556Y-126700329D01*
X239266710Y-126800000D02*
X232241227Y-126800000D01*
G04 #@! TO.N,/s1[4]*
X238349992Y-125183298D02*
X238333290Y-125200000D01*
X245749870Y-125183298D02*
X238349992Y-125183298D01*
X238333290Y-125200000D02*
X231489154Y-125200000D01*
G04 #@! TO.N,/s1[5]*
X238000000Y-123600000D02*
X237850797Y-123450797D01*
X237850797Y-123450797D02*
X237733290Y-123450797D01*
X245133290Y-123600000D02*
X238000000Y-123600000D01*
X231282746Y-123450797D02*
X231133543Y-123600000D01*
X237733290Y-123450797D02*
X231282746Y-123450797D01*
G04 #@! TO.N,/s1[6]*
X244516710Y-122000000D02*
X237144706Y-122000000D01*
X237144706Y-122000000D02*
X237133290Y-121988584D01*
X230744706Y-121988584D02*
X230733290Y-122000000D01*
X227600000Y-122000000D02*
X230733290Y-122000000D01*
X237133290Y-121988584D02*
X230744706Y-121988584D01*
G04 #@! TO.N,/s1[7]*
X243800000Y-120400000D02*
X236533290Y-120400000D01*
X229460102Y-120400000D02*
X230084349Y-121024247D01*
X230708596Y-120400000D02*
X230084349Y-121024247D01*
X226600000Y-120400000D02*
X229460102Y-120400000D01*
X236533290Y-120400000D02*
X230708596Y-120400000D01*
G04 #@! TO.N,/s2[31]*
X87200000Y-65800000D02*
X99000000Y-65800000D01*
X134400000Y-65800000D02*
X126000000Y-65800000D01*
X125120018Y-65866702D02*
X123879982Y-65866702D01*
X121400000Y-65800000D02*
X99000000Y-65800000D01*
X126000000Y-65800000D02*
X125186720Y-65800000D01*
X123879982Y-65866702D02*
X123813280Y-65800000D01*
X125186720Y-65800000D02*
X125120018Y-65866702D01*
X123813280Y-65800000D02*
X121400000Y-65800000D01*
G04 #@! TO.N,/s2[30]*
X87800000Y-67400000D02*
X99600000Y-67400000D01*
X135400000Y-67400000D02*
X122116710Y-67400000D01*
X99600000Y-67400000D02*
X122116710Y-67400000D01*
X122116710Y-67400000D02*
X127000000Y-67400000D01*
G04 #@! TO.N,/s2[29]*
X88400000Y-69000000D02*
X100200000Y-69000000D01*
X136200000Y-69000000D02*
X122766710Y-69000000D01*
X127673552Y-69000000D02*
X127675325Y-69001773D01*
X122766710Y-69000000D02*
X100200000Y-69000000D01*
X122768483Y-69001773D02*
X122766710Y-69000000D01*
X127675325Y-69001773D02*
X122768483Y-69001773D01*
G04 #@! TO.N,/s2[28]*
X137000000Y-70600000D02*
X128400000Y-70600000D01*
X89200000Y-70600000D02*
X101000000Y-70600000D01*
X128400000Y-70600000D02*
X101000000Y-70600000D01*
X123416710Y-70600000D02*
X128400000Y-70600000D01*
G04 #@! TO.N,/s2[27]*
X101600000Y-76200000D02*
X113400000Y-76200000D01*
X138399898Y-76200000D02*
X138399935Y-76200037D01*
X131200000Y-76200000D02*
X138399898Y-76200000D01*
X131200000Y-76200000D02*
X128022321Y-76200000D01*
X128022321Y-76200000D02*
X124066710Y-76200000D01*
X113400000Y-76200000D02*
X124066710Y-76200000D01*
G04 #@! TO.N,/s2[26]*
X114066710Y-65000000D02*
X102266710Y-65000000D01*
X128600000Y-65000000D02*
X131400000Y-65000000D01*
X131400000Y-65000000D02*
X138800000Y-65000000D01*
X128600000Y-65000000D02*
X123600000Y-65000000D01*
X114066710Y-65000000D02*
X123600000Y-65000000D01*
G04 #@! TO.N,/s2[25]*
X129200000Y-66600000D02*
X139600000Y-66600000D01*
X102800000Y-66600000D02*
X114800000Y-66600000D01*
X128501016Y-66466701D02*
X125098984Y-66466701D01*
X128634315Y-66600000D02*
X128501016Y-66466701D01*
X114800000Y-66600000D02*
X124400000Y-66600000D01*
X125098984Y-66466701D02*
X124965685Y-66600000D01*
X129200000Y-66600000D02*
X128634315Y-66600000D01*
X124965685Y-66600000D02*
X124400000Y-66600000D01*
X132422323Y-66600000D02*
X129200000Y-66600000D01*
G04 #@! TO.N,/s2[24]*
X103600000Y-68200000D02*
X115400000Y-68200000D01*
X140400000Y-68200000D02*
X133422321Y-68200000D01*
X129800000Y-68200000D02*
X133422321Y-68200000D01*
X115400000Y-68200000D02*
X125200000Y-68200000D01*
X125765685Y-68200000D02*
X125200000Y-68200000D01*
X125832386Y-68266701D02*
X125765685Y-68200000D01*
X129800000Y-68200000D02*
X127586718Y-68200000D01*
X127586718Y-68200000D02*
X127520017Y-68266701D01*
X127520017Y-68266701D02*
X125832386Y-68266701D01*
G04 #@! TO.N,/s2[16]*
X162065434Y-81000000D02*
X162067078Y-81001644D01*
X158600000Y-81000000D02*
X162065434Y-81000000D01*
X158600000Y-81000000D02*
X152666710Y-81000000D01*
X146800000Y-81000000D02*
X152666710Y-81000000D01*
X167585074Y-81001644D02*
X167818464Y-80768254D01*
X162067078Y-81001644D02*
X167585074Y-81001644D01*
X167818464Y-80768254D02*
X172395593Y-80768254D01*
G04 #@! TO.N,/s2[17]*
X161118129Y-79400000D02*
X161222321Y-79504192D01*
X157800000Y-79400000D02*
X161118129Y-79400000D01*
X157800000Y-79400000D02*
X146084839Y-79400000D01*
X146084839Y-79400000D02*
X146083543Y-79398704D01*
X161222321Y-79504192D02*
X166422444Y-79504192D01*
X166422444Y-79504192D02*
X166730150Y-79196486D01*
X166730150Y-79196486D02*
X171716673Y-79196486D01*
X157800000Y-79400000D02*
X152000000Y-79400000D01*
G04 #@! TO.N,/s2[18]*
X160318129Y-77800000D02*
X160422321Y-77904192D01*
X157200000Y-77800000D02*
X160318129Y-77800000D01*
X157200000Y-77800000D02*
X151266710Y-77800000D01*
X151266710Y-77800000D02*
X145731126Y-77800000D01*
X145731126Y-77800000D02*
X145614444Y-77683318D01*
X160422321Y-77904192D02*
X165711222Y-77904192D01*
X165711222Y-77904192D02*
X165997284Y-77618130D01*
X165997284Y-77618130D02*
X170733290Y-77618130D01*
G04 #@! TO.N,/s2[19]*
X156400000Y-76200000D02*
X159572321Y-76200000D01*
X144800000Y-76200000D02*
X150666710Y-76200000D01*
X156400000Y-76200000D02*
X150666710Y-76200000D01*
X159572321Y-76200000D02*
X169566031Y-76200000D01*
X169566031Y-76200000D02*
X169933290Y-75832741D01*
G04 #@! TO.N,/s2[20]*
X155600000Y-74600000D02*
X150066710Y-74600000D01*
X150066710Y-74600000D02*
X144066710Y-74600000D01*
X118000000Y-74600000D02*
X132266710Y-74600000D01*
X144066710Y-74600000D02*
X132266710Y-74600000D01*
G04 #@! TO.N,/s2[21]*
X154866710Y-73000000D02*
X149466710Y-73000000D01*
X149466710Y-73000000D02*
X143466710Y-73000000D01*
X143466710Y-73000000D02*
X131707262Y-73000000D01*
X131707262Y-73000000D02*
X131666710Y-72959448D01*
X131626158Y-73000000D02*
X131666710Y-72959448D01*
X117200000Y-73000000D02*
X131626158Y-73000000D01*
G04 #@! TO.N,/s2[22]*
X154000000Y-71400000D02*
X148866710Y-71400000D01*
X148866710Y-71400000D02*
X142866710Y-71400000D01*
X142866710Y-71400000D02*
X130815558Y-71400000D01*
X130651022Y-71400000D02*
X130733290Y-71317732D01*
X116600000Y-71400000D02*
X130651022Y-71400000D01*
X130815558Y-71400000D02*
X130733290Y-71317732D01*
G04 #@! TO.N,/s2[23]*
X142200000Y-69800000D02*
X148200000Y-69800000D01*
X148200000Y-69800000D02*
X153200000Y-69800000D01*
X142200000Y-69800000D02*
X130377679Y-69800000D01*
X116000000Y-69800000D02*
X130377679Y-69800000D01*
G04 #@! TO.N,/s2[8]*
X216000000Y-80200000D02*
X219822321Y-80200000D01*
X226800000Y-80200000D02*
X219822321Y-80200000D01*
X212600000Y-80200000D02*
X216000000Y-80200000D01*
X190000000Y-80200000D02*
X201733290Y-80200000D01*
X212600000Y-80200000D02*
X201733290Y-80200000D01*
G04 #@! TO.N,/s2[9]*
X226055294Y-78600000D02*
X226066710Y-78611416D01*
X215200000Y-78600000D02*
X226055294Y-78600000D01*
X189200000Y-78600000D02*
X201000000Y-78600000D01*
X201000000Y-78600000D02*
X211800000Y-78600000D01*
X211800000Y-78600000D02*
X215200000Y-78600000D01*
X215225632Y-78574368D02*
X215200000Y-78600000D01*
X218933543Y-78574368D02*
X215225632Y-78574368D01*
G04 #@! TO.N,/s2[10]*
X214400000Y-77000000D02*
X218022321Y-77000000D01*
X218033737Y-77011416D02*
X218022321Y-77000000D01*
X225466710Y-77011416D02*
X218033737Y-77011416D01*
X214400000Y-77000000D02*
X211116710Y-77000000D01*
X211116710Y-77000000D02*
X200333290Y-77000000D01*
X188600000Y-77000000D02*
X200333290Y-77000000D01*
G04 #@! TO.N,/s2[11]*
X217000000Y-75400000D02*
X224800000Y-75400000D01*
X217000000Y-75400000D02*
X213744706Y-75400000D01*
X213744706Y-75400000D02*
X213733290Y-75411416D01*
X213721874Y-75400000D02*
X213733290Y-75411416D01*
X210400000Y-75400000D02*
X211200000Y-75400000D01*
X211200000Y-75400000D02*
X213721874Y-75400000D01*
X211200000Y-75400000D02*
X199733290Y-75400000D01*
X188016710Y-75400000D02*
X199733290Y-75400000D01*
G04 #@! TO.N,/s2[12]*
X161200000Y-93000000D02*
X175766710Y-93000000D01*
X176178659Y-93411949D02*
X186954821Y-93411949D01*
X175766710Y-93000000D02*
X176178659Y-93411949D01*
X224216710Y-93000000D02*
X223816711Y-92600001D01*
X223816711Y-92600001D02*
X217416709Y-92600001D01*
X217416709Y-92600001D02*
X217016710Y-93000000D01*
X210216709Y-92600001D02*
X209816710Y-93000000D01*
X217016710Y-93000000D02*
X216616711Y-92600001D01*
X216616711Y-92600001D02*
X210216709Y-92600001D01*
X187766769Y-92600001D02*
X186954821Y-93411949D01*
X209816710Y-93000000D02*
X209416711Y-92600001D01*
X209416711Y-92600001D02*
X187766769Y-92600001D01*
G04 #@! TO.N,/s2[13]*
X175222320Y-91933108D02*
X186005971Y-91933108D01*
X186005971Y-91933108D02*
X186533290Y-91405789D01*
X174822321Y-91533109D02*
X175222320Y-91933108D01*
X223600000Y-91400000D02*
X223133299Y-91866701D01*
X223133299Y-91866701D02*
X216866701Y-91866701D01*
X216866701Y-91866701D02*
X216400000Y-91400000D01*
X216400000Y-91400000D02*
X215933299Y-91866701D01*
X215933299Y-91866701D02*
X209633411Y-91866701D01*
X209633411Y-91866701D02*
X209166710Y-91400000D01*
X187104764Y-91400000D02*
X187098975Y-91405789D01*
X187098975Y-91405789D02*
X186533290Y-91405789D01*
X205813282Y-91400000D02*
X187104764Y-91400000D01*
X206279983Y-91866701D02*
X205813282Y-91400000D01*
X208700009Y-91866701D02*
X206279983Y-91866701D01*
X209166710Y-91400000D02*
X208700009Y-91866701D01*
X160616652Y-91533109D02*
X160483543Y-91400000D01*
X174822321Y-91533109D02*
X160616652Y-91533109D01*
G04 #@! TO.N,/s2[14]*
X215800000Y-89800000D02*
X222916710Y-89800000D01*
X215800000Y-89800000D02*
X208516710Y-89800000D01*
X208516710Y-89800000D02*
X186000000Y-89800000D01*
X174020977Y-89800000D02*
X173933290Y-89887687D01*
X186000000Y-89800000D02*
X174020977Y-89800000D01*
X173933290Y-89887687D02*
X159794571Y-89887687D01*
X159794571Y-89887687D02*
X159733290Y-89826406D01*
G04 #@! TO.N,/s2[15]*
X222200000Y-88200000D02*
X215200000Y-88200000D01*
X215200000Y-88200000D02*
X215000000Y-88000000D01*
X214800000Y-88200000D02*
X215000000Y-88000000D01*
X207800000Y-88200000D02*
X214800000Y-88200000D01*
X207800000Y-88200000D02*
X185400000Y-88200000D01*
X185400000Y-88200000D02*
X173354674Y-88200000D01*
X173094430Y-88204462D02*
X173222321Y-88332353D01*
X173354674Y-88200000D02*
X173222321Y-88332353D01*
X159133290Y-88204462D02*
X173094430Y-88204462D01*
G04 #@! TO.N,/s2[7]*
X243800000Y-81800000D02*
X236400000Y-81800000D01*
X229200000Y-81800000D02*
X236400000Y-81800000D01*
X216721442Y-81800000D02*
X216533290Y-81611848D01*
X229200000Y-81800000D02*
X216721442Y-81800000D01*
X209225129Y-82011847D02*
X209013282Y-81800000D01*
X209013282Y-81800000D02*
X202333290Y-81800000D01*
X216133291Y-82011847D02*
X209225129Y-82011847D01*
X216533290Y-81611848D02*
X216133291Y-82011847D01*
G04 #@! TO.N,/s2[6]*
X237200000Y-83400000D02*
X244516710Y-83400000D01*
X217173799Y-83369073D02*
X229985523Y-83369073D01*
X237200000Y-83400000D02*
X230016450Y-83400000D01*
X229985523Y-83369073D02*
X230016450Y-83400000D01*
X202964217Y-83369073D02*
X202933290Y-83400000D01*
X217173799Y-83369073D02*
X202964217Y-83369073D01*
G04 #@! TO.N,/s2[5]*
X238000000Y-85000000D02*
X245166710Y-85000000D01*
X230678369Y-85004791D02*
X230683160Y-85000000D01*
X217938081Y-85004791D02*
X230678369Y-85004791D01*
X238000000Y-85000000D02*
X230683160Y-85000000D01*
X203538081Y-85004791D02*
X203533290Y-85000000D01*
X217938081Y-85004791D02*
X203538081Y-85004791D01*
G04 #@! TO.N,/s2[4]*
X204200000Y-86600000D02*
X218666710Y-86600000D01*
X218666710Y-86600000D02*
X231349870Y-86600000D01*
X231349870Y-86600000D02*
X238516124Y-86600000D01*
X238601027Y-86549429D02*
X238533290Y-86617166D01*
X238516124Y-86600000D02*
X238533290Y-86617166D01*
X245666580Y-86549429D02*
X238601027Y-86549429D01*
G04 #@! TO.N,/s2[3]*
X246333290Y-88163595D02*
X239236405Y-88163595D01*
X239236405Y-88163595D02*
X239200000Y-88200000D01*
X232016580Y-88200000D02*
X239200000Y-88200000D01*
G04 #@! TO.N,/s2[2]*
X246988584Y-89811416D02*
X247000000Y-89800000D01*
X239866710Y-89811416D02*
X246988584Y-89811416D01*
X239866710Y-89811416D02*
X232694706Y-89811416D01*
X232694706Y-89811416D02*
X232683290Y-89800000D01*
G04 #@! TO.N,/s2[1]*
X247333299Y-91866701D02*
X241016701Y-91866701D01*
X247800000Y-91400000D02*
X247333299Y-91866701D01*
X241016701Y-91866701D02*
X240550000Y-91400000D01*
X233350000Y-91410832D02*
X233805869Y-91866701D01*
X233805869Y-91866701D02*
X240083299Y-91866701D01*
X240083299Y-91866701D02*
X240550000Y-91400000D01*
G04 #@! TO.N,/s2[0]*
X248016711Y-92600001D02*
X241616709Y-92600001D01*
X241616709Y-92600001D02*
X241216710Y-93000000D01*
X248416710Y-93000000D02*
X248016711Y-92600001D01*
X234416709Y-92600001D02*
X234016710Y-93000000D01*
X241216710Y-93000000D02*
X240816711Y-92600001D01*
X240816711Y-92600001D02*
X234416709Y-92600001D01*
G04 #@! TO.N,/s4[31]*
X99200000Y-88200000D02*
X85000000Y-88200000D01*
X85000000Y-88200000D02*
X84800000Y-88000000D01*
X114000000Y-49200000D02*
X99600000Y-49200000D01*
X85200000Y-49200000D02*
X92400000Y-49200000D01*
X92400000Y-49200000D02*
X99600000Y-49200000D01*
G04 #@! TO.N,/s4[30]*
X99866710Y-89800000D02*
X85466710Y-89800000D01*
X100400000Y-50800000D02*
X114716710Y-50800000D01*
X100400000Y-50800000D02*
X93200000Y-50800000D01*
X93200000Y-50800000D02*
X85916710Y-50800000D01*
G04 #@! TO.N,/s4[29]*
X100516710Y-91400000D02*
X86066710Y-91400000D01*
X94000000Y-52400000D02*
X86566710Y-52400000D01*
X115400000Y-52400000D02*
X113586718Y-52400000D01*
X113586718Y-52400000D02*
X113120017Y-52866701D01*
X112013282Y-52400000D02*
X101000000Y-52400000D01*
X113120017Y-52866701D02*
X112479983Y-52866701D01*
X112479983Y-52866701D02*
X112013282Y-52400000D01*
X97413282Y-52400000D02*
X94000000Y-52400000D01*
X101000000Y-52400000D02*
X99386718Y-52400000D01*
X98079983Y-53066701D02*
X97413282Y-52400000D01*
X99386718Y-52400000D02*
X98720017Y-53066701D01*
X98720017Y-53066701D02*
X98079983Y-53066701D01*
G04 #@! TO.N,/s4[28]*
X101200000Y-93000000D02*
X86666710Y-93000000D01*
X87216710Y-54000000D02*
X94666710Y-54000000D01*
X115616711Y-53600001D02*
X116016710Y-54000000D01*
X113013282Y-54000000D02*
X113413281Y-53600001D01*
X101616710Y-54000000D02*
X113013282Y-54000000D01*
X113413281Y-53600001D02*
X115616711Y-53600001D01*
X99213281Y-53600001D02*
X98813282Y-54000000D01*
X98813282Y-54000000D02*
X94666710Y-54000000D01*
X101216711Y-53600001D02*
X99213281Y-53600001D01*
X101616710Y-54000000D02*
X101216711Y-53600001D01*
G04 #@! TO.N,/s4[27]*
X87800000Y-50000000D02*
X102200000Y-50000000D01*
X116600000Y-50000000D02*
X102200000Y-50000000D01*
X87400000Y-89000000D02*
X101855294Y-89000000D01*
X101855294Y-89000000D02*
X101866710Y-88988584D01*
X95200000Y-50000000D02*
X102200000Y-50000000D01*
G04 #@! TO.N,/s4[26]*
X102466710Y-90600000D02*
X88078126Y-90600000D01*
X88078126Y-90600000D02*
X88066710Y-90611416D01*
X88516710Y-51600000D02*
X95866710Y-51600000D01*
X117400000Y-51600000D02*
X113386718Y-51600000D01*
X112986719Y-51200001D02*
X103266709Y-51200001D01*
X113386718Y-51600000D02*
X112986719Y-51200001D01*
X103266709Y-51200001D02*
X102866710Y-51600000D01*
X102866710Y-51600000D02*
X98786718Y-51600000D01*
X98386719Y-51200001D02*
X96266709Y-51200001D01*
X98786718Y-51600000D02*
X98386719Y-51200001D01*
X96266709Y-51200001D02*
X95866710Y-51600000D01*
G04 #@! TO.N,/s4[25]*
X88800000Y-92200000D02*
X103116710Y-92200000D01*
X89166710Y-53200000D02*
X96466710Y-53200000D01*
X113289627Y-53200000D02*
X112889628Y-53599999D01*
X112889628Y-53599999D02*
X103999999Y-53599999D01*
X118000000Y-53200000D02*
X113289627Y-53200000D01*
X103999999Y-53599999D02*
X103600000Y-53200000D01*
X96866709Y-53599999D02*
X96466710Y-53200000D01*
X103600000Y-53200000D02*
X99089626Y-53200000D01*
X99089626Y-53200000D02*
X98689627Y-53599999D01*
X98689627Y-53599999D02*
X96866709Y-53599999D01*
G04 #@! TO.N,/s4[24]*
X103800000Y-93800000D02*
X89400000Y-93800000D01*
X89816710Y-54800000D02*
X97066710Y-54800000D01*
X104683411Y-55266701D02*
X104216710Y-54800000D01*
X118133299Y-55266701D02*
X104683411Y-55266701D01*
X118600000Y-54800000D02*
X118133299Y-55266701D01*
X103750009Y-55266701D02*
X97533411Y-55266701D01*
X97533411Y-55266701D02*
X97066710Y-54800000D01*
X104216710Y-54800000D02*
X103750009Y-55266701D01*
G04 #@! TO.N,/s4[16]*
X111000000Y-83400000D02*
X96566710Y-83400000D01*
X168600000Y-83400000D02*
X111000000Y-83400000D01*
X161878126Y-55000000D02*
X161866710Y-55011416D01*
X166066710Y-55000000D02*
X161878126Y-55000000D01*
X147828125Y-55411415D02*
X147416710Y-55000000D01*
X161466711Y-55411415D02*
X147828125Y-55411415D01*
X161866710Y-55011416D02*
X161466711Y-55411415D01*
X133416709Y-55399999D02*
X133016710Y-55000000D01*
X147016711Y-55399999D02*
X133416709Y-55399999D01*
X147416710Y-55000000D02*
X147016711Y-55399999D01*
G04 #@! TO.N,/s4[17]*
X110266710Y-81800000D02*
X95916710Y-81800000D01*
X161200000Y-53400000D02*
X165466710Y-53400000D01*
X161200000Y-53400000D02*
X146766710Y-53400000D01*
X132400000Y-53400000D02*
X146766710Y-53400000D01*
X167800000Y-81800000D02*
X110266710Y-81800000D01*
G04 #@! TO.N,/s4[18]*
X95278126Y-80211416D02*
X95266710Y-80200000D01*
X109666710Y-80211416D02*
X95278126Y-80211416D01*
X164800000Y-51800000D02*
X160600000Y-51800000D01*
X167089139Y-80211416D02*
X167089154Y-80211431D01*
X109666710Y-80211416D02*
X167089139Y-80211416D01*
X156186719Y-51400001D02*
X156586718Y-51800000D01*
X156586718Y-51800000D02*
X160600000Y-51800000D01*
X146599999Y-51400001D02*
X156186719Y-51400001D01*
X146200000Y-51800000D02*
X146599999Y-51400001D01*
X141013282Y-51800000D02*
X141279983Y-51533299D01*
X141920017Y-51533299D02*
X142186718Y-51800000D01*
X141279983Y-51533299D02*
X141920017Y-51533299D01*
X142186718Y-51800000D02*
X146200000Y-51800000D01*
X131800000Y-51800000D02*
X141013282Y-51800000D01*
G04 #@! TO.N,/s4[19]*
X164000000Y-50200000D02*
X159800000Y-50200000D01*
X145400000Y-50200000D02*
X159800000Y-50200000D01*
X131000000Y-50200000D02*
X145400000Y-50200000D01*
X109000000Y-78600000D02*
X94616710Y-78600000D01*
X166400000Y-78600000D02*
X109000000Y-78600000D01*
G04 #@! TO.N,/s4[20]*
X141200000Y-77000000D02*
X108278126Y-77000000D01*
X108278126Y-77000000D02*
X108266710Y-77011416D01*
X93978126Y-77011416D02*
X93966710Y-77000000D01*
X108266710Y-77011416D02*
X93978126Y-77011416D01*
X130416710Y-54200000D02*
X140266710Y-54200000D01*
X165676094Y-77000000D02*
X165688282Y-77012188D01*
X141200000Y-77000000D02*
X165676094Y-77000000D01*
X159200000Y-54200000D02*
X158800001Y-53800001D01*
X158800001Y-53800001D02*
X156813281Y-53800001D01*
X156413282Y-54200000D02*
X144816710Y-54200000D01*
X156813281Y-53800001D02*
X156413282Y-54200000D01*
X140666709Y-53800001D02*
X140266710Y-54200000D01*
X144816710Y-54200000D02*
X144416711Y-53800001D01*
X144416711Y-53800001D02*
X140666709Y-53800001D01*
G04 #@! TO.N,/s4[21]*
X140000000Y-75400000D02*
X140400000Y-75400000D01*
X139988584Y-75411416D02*
X107666710Y-75411416D01*
X140000000Y-75400000D02*
X139988584Y-75411416D01*
X107666710Y-75411416D02*
X93328126Y-75411416D01*
X93328126Y-75411416D02*
X93316710Y-75400000D01*
X140000000Y-75400000D02*
X165333420Y-75400000D01*
X155413282Y-52600000D02*
X155813281Y-52999999D01*
X144200000Y-52600000D02*
X155413282Y-52600000D01*
X158066711Y-52999999D02*
X158466710Y-52600000D01*
X155813281Y-52999999D02*
X158066711Y-52999999D01*
X143800001Y-52999999D02*
X144200000Y-52600000D01*
X139999999Y-52999999D02*
X143800001Y-52999999D01*
X139600000Y-52600000D02*
X139999999Y-52999999D01*
X129800000Y-52600000D02*
X141013282Y-52600000D01*
X141413281Y-52999999D02*
X143800001Y-52999999D01*
X141013282Y-52600000D02*
X141413281Y-52999999D01*
G04 #@! TO.N,/s4[22]*
X143466710Y-51000000D02*
X157866710Y-51000000D01*
X92800000Y-73800000D02*
X107066710Y-73800000D01*
X164666710Y-73800000D02*
X139000000Y-73800000D01*
X139000000Y-73800000D02*
X107066710Y-73800000D01*
X129116710Y-51000000D02*
X138800000Y-51000000D01*
X138800000Y-51000000D02*
X143466710Y-51000000D01*
G04 #@! TO.N,/s4[23]*
X142800000Y-49400000D02*
X157200000Y-49400000D01*
X92000000Y-72200000D02*
X106200000Y-72200000D01*
X137800000Y-72200000D02*
X106200000Y-72200000D01*
X163800000Y-72200000D02*
X137800000Y-72200000D01*
X128400000Y-49400000D02*
X137800000Y-49400000D01*
X137800000Y-49400000D02*
X142800000Y-49400000D01*
G04 #@! TO.N,/s4[8]*
X176982018Y-90600000D02*
X176622319Y-90959699D01*
X190200000Y-90600000D02*
X176982018Y-90600000D01*
X182600000Y-55000000D02*
X176216710Y-55000000D01*
X191066709Y-55411415D02*
X197588585Y-55411415D01*
X190666710Y-55011416D02*
X191066709Y-55411415D01*
X197588585Y-55411415D02*
X198000000Y-55000000D01*
X190101025Y-55011416D02*
X190666710Y-55011416D01*
X186186718Y-55000000D02*
X190089609Y-55000000D01*
X185786719Y-55399999D02*
X186186718Y-55000000D01*
X182999999Y-55399999D02*
X185786719Y-55399999D01*
X182600000Y-55000000D02*
X182999999Y-55399999D01*
X190089609Y-55000000D02*
X190101025Y-55011416D01*
X127720017Y-90333299D02*
X127079983Y-90333299D01*
X141213282Y-90600000D02*
X135186718Y-90600000D01*
X176622319Y-90959699D02*
X176056634Y-90959699D01*
X176056634Y-90959699D02*
X175696935Y-90600000D01*
X175696935Y-90600000D02*
X156786718Y-90600000D01*
X156786718Y-90600000D02*
X156520017Y-90333299D01*
X156520017Y-90333299D02*
X155879983Y-90333299D01*
X134279983Y-90333299D02*
X134013282Y-90600000D01*
X155879983Y-90333299D02*
X155613282Y-90600000D01*
X134920017Y-90333299D02*
X134279983Y-90333299D01*
X127986718Y-90600000D02*
X127720017Y-90333299D01*
X127079983Y-90333299D02*
X126813282Y-90600000D01*
X126813282Y-90600000D02*
X120786718Y-90600000D01*
X155613282Y-90600000D02*
X149386718Y-90600000D01*
X141479983Y-90333299D02*
X141213282Y-90600000D01*
X118566709Y-90200001D02*
X118166710Y-90600000D01*
X120786718Y-90600000D02*
X120386719Y-90200001D01*
X148213282Y-90600000D02*
X142386718Y-90600000D01*
X135186718Y-90600000D02*
X134920017Y-90333299D01*
X142120017Y-90333299D02*
X141479983Y-90333299D01*
X142386718Y-90600000D02*
X142120017Y-90333299D01*
X134013282Y-90600000D02*
X127986718Y-90600000D01*
X148479983Y-90333299D02*
X148213282Y-90600000D01*
X120386719Y-90200001D02*
X118566709Y-90200001D01*
X149386718Y-90600000D02*
X149120017Y-90333299D01*
X149120017Y-90333299D02*
X148479983Y-90333299D01*
G04 #@! TO.N,/s4[9]*
X176200000Y-68200000D02*
X181600000Y-68200000D01*
X190000000Y-53400000D02*
X181666710Y-53400000D01*
X189665887Y-89000000D02*
X189689152Y-88976735D01*
X175622566Y-89000000D02*
X189665887Y-89000000D01*
X175600000Y-53400000D02*
X181666710Y-53400000D01*
X175622566Y-89000000D02*
X117516710Y-89000000D01*
X192689625Y-53000001D02*
X193089628Y-53000001D01*
X192289626Y-53400000D02*
X192689625Y-53000001D01*
X193089628Y-53000001D02*
X193489627Y-53400000D01*
X193489627Y-53400000D02*
X197216710Y-53400000D01*
X190000000Y-53400000D02*
X192289626Y-53400000D01*
G04 #@! TO.N,/s4[10]*
X180800000Y-66600000D02*
X175022323Y-66600000D01*
X175000000Y-87400000D02*
X188885215Y-87400000D01*
X188885215Y-87400000D02*
X188908416Y-87376799D01*
X175000000Y-51800000D02*
X181000000Y-51800000D01*
X175000000Y-87400000D02*
X116866710Y-87400000D01*
X196600000Y-51800000D02*
X192586718Y-51800000D01*
X189666709Y-51411417D02*
X189266710Y-51811416D01*
X192198135Y-51411417D02*
X189666709Y-51411417D01*
X192586718Y-51800000D02*
X192198135Y-51411417D01*
X181399999Y-51400001D02*
X184786719Y-51400001D01*
X185198134Y-51811416D02*
X189266710Y-51811416D01*
X184786719Y-51400001D02*
X185198134Y-51811416D01*
X181000000Y-51800000D02*
X181399999Y-51400001D01*
G04 #@! TO.N,/s4[11]*
X174000000Y-65000000D02*
X180200000Y-65000000D01*
X180400000Y-50200000D02*
X188600000Y-50200000D01*
X188377930Y-85830726D02*
X173929627Y-85830726D01*
X173929627Y-85830726D02*
X173878929Y-85780028D01*
X174400000Y-50200000D02*
X180400000Y-50200000D01*
X116236682Y-85780028D02*
X116216710Y-85800000D01*
X173878929Y-85780028D02*
X116236682Y-85780028D01*
X196000000Y-50200000D02*
X188600000Y-50200000D01*
G04 #@! TO.N,/s4[12]*
X172866710Y-84188584D02*
X187706713Y-84188584D01*
X187706713Y-84188584D02*
X187822321Y-84304192D01*
X169000000Y-68200000D02*
X173022321Y-68200000D01*
X115600000Y-84200000D02*
X116165685Y-84200000D01*
X116177101Y-84188584D02*
X172866710Y-84188584D01*
X116165685Y-84200000D02*
X116177101Y-84188584D01*
X193786718Y-54200000D02*
X195266710Y-54200000D01*
X193320017Y-53733299D02*
X193786718Y-54200000D01*
X188016710Y-54200000D02*
X192213282Y-54200000D01*
X192679983Y-53733299D02*
X193320017Y-53733299D01*
X192213282Y-54200000D02*
X192679983Y-53733299D01*
X187616711Y-53800001D02*
X185413281Y-53800001D01*
X188016710Y-54200000D02*
X187616711Y-53800001D01*
X185413281Y-53800001D02*
X185013282Y-54200000D01*
X185013282Y-54200000D02*
X173583290Y-54200000D01*
X173183291Y-53800001D02*
X173583290Y-54200000D01*
X169000000Y-54200000D02*
X169399999Y-53800001D01*
X169399999Y-53800001D02*
X173183291Y-53800001D01*
G04 #@! TO.N,/s4[13]*
X172144803Y-82600000D02*
X172133387Y-82588584D01*
X186800000Y-82600000D02*
X172144803Y-82600000D01*
X172000008Y-66600000D02*
X172022894Y-66577114D01*
X168200000Y-66600000D02*
X172000008Y-66600000D01*
X166223272Y-82600000D02*
X166234688Y-82588584D01*
X166234688Y-82588584D02*
X172133387Y-82588584D01*
X114800000Y-82600000D02*
X166223272Y-82600000D01*
X192586718Y-52600000D02*
X194616710Y-52600000D01*
X192320017Y-52866701D02*
X192586718Y-52600000D01*
X187400000Y-52600000D02*
X191413282Y-52600000D01*
X191679983Y-52866701D02*
X192320017Y-52866701D01*
X191413282Y-52600000D02*
X191679983Y-52866701D01*
X173000000Y-52600000D02*
X184013282Y-52600000D01*
X184013282Y-52600000D02*
X184413281Y-52999999D01*
X187000001Y-52999999D02*
X187400000Y-52600000D01*
X184413281Y-52999999D02*
X187000001Y-52999999D01*
X168200000Y-52600000D02*
X168599999Y-52999999D01*
X172600001Y-52999999D02*
X173000000Y-52600000D01*
X168599999Y-52999999D02*
X172600001Y-52999999D01*
G04 #@! TO.N,/s4[14]*
X184666710Y-86600000D02*
X171866710Y-86600000D01*
X172400000Y-51000000D02*
X186800000Y-51000000D01*
X171000000Y-65000000D02*
X167400000Y-65000000D01*
X167400000Y-51000000D02*
X172400000Y-51000000D01*
X171866710Y-86600000D02*
X114266710Y-86600000D01*
X194000000Y-51000000D02*
X186800000Y-51000000D01*
G04 #@! TO.N,/s4[15]*
X171600000Y-49400000D02*
X186000000Y-49400000D01*
X170914327Y-85000000D02*
X170885728Y-85028599D01*
X184000000Y-85000000D02*
X170914327Y-85000000D01*
X166600000Y-49400000D02*
X171600000Y-49400000D01*
X113600000Y-85000000D02*
X117000000Y-85000000D01*
X117028599Y-85028599D02*
X170885728Y-85028599D01*
X117000000Y-85000000D02*
X117028599Y-85028599D01*
X170600000Y-69800000D02*
X166666710Y-69800000D01*
X193200000Y-49400000D02*
X186000000Y-49400000D01*
G04 #@! TO.N,/s4[7]*
X178200000Y-69800000D02*
X192800000Y-69800000D01*
X222000000Y-49400000D02*
X214800000Y-49400000D01*
X207600000Y-49400000D02*
X214800000Y-49400000D01*
X207600000Y-49400000D02*
X200400000Y-49400000D01*
X192800000Y-69800000D02*
X202174588Y-69800000D01*
X202174588Y-69800000D02*
X202221339Y-69846751D01*
G04 #@! TO.N,/s4[6]*
X193450000Y-71400000D02*
X179066710Y-71400000D01*
X215600000Y-51000000D02*
X222766710Y-51000000D01*
X208366710Y-51000000D02*
X201066710Y-51000000D01*
X204148352Y-71400000D02*
X204174176Y-71425824D01*
X193450000Y-71400000D02*
X204148352Y-71400000D01*
X213310373Y-51000000D02*
X208366710Y-51000000D01*
X215600000Y-51000000D02*
X215200001Y-50600001D01*
X215200001Y-50600001D02*
X213710372Y-50600001D01*
X213710372Y-50600001D02*
X213310373Y-51000000D01*
G04 #@! TO.N,/s4[5]*
X194100000Y-73000000D02*
X179716710Y-73000000D01*
X194100000Y-73000000D02*
X205400000Y-73000000D01*
X223416710Y-52600000D02*
X223016711Y-52999999D01*
X223016711Y-52999999D02*
X220813281Y-52999999D01*
X220413282Y-52600000D02*
X216216710Y-52600000D01*
X220813281Y-52999999D02*
X220413282Y-52600000D01*
X213613281Y-52999999D02*
X213213282Y-52600000D01*
X215816711Y-52999999D02*
X213613281Y-52999999D01*
X213213282Y-52600000D02*
X209016710Y-52600000D01*
X216216710Y-52600000D02*
X215816711Y-52999999D01*
X209016710Y-52600000D02*
X208616711Y-52999999D01*
X206013282Y-52600000D02*
X201666710Y-52600000D01*
X208616711Y-52999999D02*
X206413281Y-52999999D01*
X206413281Y-52999999D02*
X206013282Y-52600000D01*
G04 #@! TO.N,/s4[4]*
X194750000Y-74600000D02*
X180366710Y-74600000D01*
X206000000Y-74600000D02*
X194750000Y-74600000D01*
X221813281Y-53800001D02*
X221401866Y-54211416D01*
X221401866Y-54211416D02*
X217044634Y-54211416D01*
X216644635Y-53811417D02*
X217044634Y-54211416D01*
X224244634Y-54200000D02*
X223844635Y-53800001D01*
X214201866Y-54211416D02*
X214601865Y-53811417D01*
X223844635Y-53800001D02*
X221813281Y-53800001D01*
X209666710Y-54200000D02*
X210232395Y-54200000D01*
X210232395Y-54200000D02*
X210243811Y-54211416D01*
X214601865Y-53811417D02*
X216644635Y-53811417D01*
X210243811Y-54211416D02*
X214201866Y-54211416D01*
X207413281Y-53800001D02*
X207013282Y-54200000D01*
X207013282Y-54200000D02*
X202200000Y-54200000D01*
X209666710Y-54200000D02*
X209266711Y-53800001D01*
X209266711Y-53800001D02*
X207413281Y-53800001D01*
G04 #@! TO.N,/s4[3]*
X195400000Y-76200000D02*
X181016710Y-76200000D01*
X217400000Y-50200000D02*
X210266710Y-50200000D01*
X224800000Y-50200000D02*
X217400000Y-50200000D01*
X206800000Y-76200000D02*
X195400000Y-76200000D01*
X210266710Y-50200000D02*
X203133290Y-50200000D01*
X203133290Y-50200000D02*
X203000000Y-50066710D01*
G04 #@! TO.N,/s4[2]*
X196050000Y-77800000D02*
X181666710Y-77800000D01*
X207600000Y-77800000D02*
X196050000Y-77800000D01*
X221586718Y-51800000D02*
X221186719Y-51400001D01*
X218599999Y-51400001D02*
X218200000Y-51800000D01*
X225400000Y-51800000D02*
X221586718Y-51800000D01*
X221186719Y-51400001D02*
X218599999Y-51400001D01*
X213013282Y-51800000D02*
X211000000Y-51800000D01*
X214120017Y-51333299D02*
X213479983Y-51333299D01*
X213479983Y-51333299D02*
X213013282Y-51800000D01*
X218200000Y-51800000D02*
X214586718Y-51800000D01*
X214586718Y-51800000D02*
X214120017Y-51333299D01*
X207186718Y-51800000D02*
X206920009Y-51533291D01*
X206920009Y-51533291D02*
X204066709Y-51533291D01*
X204066709Y-51533291D02*
X203666710Y-51933290D01*
X211000000Y-51800000D02*
X207186718Y-51800000D01*
G04 #@! TO.N,/s4[1]*
X182400000Y-79400000D02*
X196422321Y-79400000D01*
X218805294Y-53411416D02*
X218816710Y-53400000D01*
X211666710Y-53411416D02*
X218805294Y-53411416D01*
X218816710Y-53400000D02*
X226016710Y-53400000D01*
X208400000Y-79400000D02*
X196422321Y-79400000D01*
X211666710Y-53411416D02*
X204478126Y-53411416D01*
X204478126Y-53411416D02*
X204466710Y-53400000D01*
G04 #@! TO.N,/s4[0]*
X197350000Y-81000000D02*
X182966710Y-81000000D01*
X209200000Y-81000000D02*
X197350000Y-81000000D01*
X226400001Y-55399999D02*
X226800000Y-55000000D01*
X219600000Y-55000000D02*
X219999999Y-55399999D01*
X219999999Y-55399999D02*
X226400001Y-55399999D01*
X212799999Y-55399999D02*
X219200001Y-55399999D01*
X219200001Y-55399999D02*
X219600000Y-55000000D01*
X212400000Y-55000000D02*
X212799999Y-55399999D01*
X212000001Y-55399999D02*
X205399999Y-55399999D01*
X205399999Y-55399999D02*
X205000000Y-55000000D01*
X212400000Y-55000000D02*
X212000001Y-55399999D01*
G04 #@! TO.N,/s8[31]*
X91400000Y-104400000D02*
X84200000Y-104400000D01*
X84200000Y-104400000D02*
X76933290Y-104400000D01*
X91400000Y-104400000D02*
X119600000Y-104400000D01*
G04 #@! TO.N,/s8[30]*
X92066710Y-106011416D02*
X92744827Y-105333299D01*
X92744827Y-105333299D02*
X119933299Y-105333299D01*
X119933299Y-105333299D02*
X120600000Y-106000000D01*
X85466701Y-105333299D02*
X91388593Y-105333299D01*
X84800000Y-106000000D02*
X85466701Y-105333299D01*
X91388593Y-105333299D02*
X92066710Y-106011416D01*
X78188575Y-105333299D02*
X77533290Y-105988584D01*
X84800000Y-106000000D02*
X84133299Y-105333299D01*
X84133299Y-105333299D02*
X78188575Y-105333299D01*
G04 #@! TO.N,/s8[29]*
X85400000Y-107600000D02*
X78200000Y-107600000D01*
X92655294Y-107600000D02*
X92666710Y-107611416D01*
X85400000Y-107600000D02*
X92655294Y-107600000D01*
X92666710Y-107611416D02*
X94188584Y-107611416D01*
X94188584Y-107611416D02*
X94200000Y-107600000D01*
X121200000Y-107600000D02*
X121600000Y-107200000D01*
X94200000Y-107600000D02*
X121200000Y-107600000D01*
G04 #@! TO.N,/s8[28]*
X93400000Y-109200000D02*
X86200000Y-109200000D01*
X86200000Y-109200000D02*
X78933290Y-109200000D01*
X122200000Y-109200000D02*
X122600000Y-108800000D01*
X93400000Y-109200000D02*
X122200000Y-109200000D01*
G04 #@! TO.N,/s8[27]*
X86800000Y-110800000D02*
X79544706Y-110800000D01*
X79544706Y-110800000D02*
X79533290Y-110788584D01*
X86800000Y-110800000D02*
X94066710Y-110800000D01*
X94562518Y-110304192D02*
X123622321Y-110304192D01*
X94066710Y-110800000D02*
X94562518Y-110304192D01*
G04 #@! TO.N,/s8[26]*
X80144706Y-112400000D02*
X80133290Y-112388584D01*
X87400000Y-112400000D02*
X80144706Y-112400000D01*
X87400000Y-112400000D02*
X94666710Y-112400000D01*
X94666710Y-112400000D02*
X95091412Y-111975298D01*
X95091412Y-111975298D02*
X124333543Y-111975298D01*
G04 #@! TO.N,/s8[25]*
X88000000Y-114000000D02*
X80800000Y-114000000D01*
X88000000Y-114000000D02*
X95266710Y-114000000D01*
X95797119Y-113469591D02*
X125044765Y-113469591D01*
X95266710Y-114000000D02*
X95797119Y-113469591D01*
G04 #@! TO.N,/s8[24]*
X88800000Y-115600000D02*
X81400000Y-115600000D01*
X95855294Y-115600000D02*
X95866710Y-115611416D01*
X88800000Y-115600000D02*
X95855294Y-115600000D01*
X96687370Y-114790756D02*
X125853991Y-114790756D01*
X95866710Y-115611416D02*
X96687370Y-114790756D01*
G04 #@! TO.N,/s8[16]*
X190767613Y-128466702D02*
X190834315Y-128400000D01*
X188079982Y-128466702D02*
X190767613Y-128466702D01*
X188024696Y-128411416D02*
X188079982Y-128466702D01*
X190834315Y-128400000D02*
X191400000Y-128400000D01*
X162000000Y-128411416D02*
X161466710Y-128411416D01*
X188024696Y-128411416D02*
X161466710Y-128411416D01*
X110400000Y-128400000D02*
X117600000Y-128400000D01*
X103000000Y-128400000D02*
X103399999Y-128000001D01*
X110000001Y-128000001D02*
X110400000Y-128400000D01*
X103399999Y-128000001D02*
X110000001Y-128000001D01*
X161466710Y-128411416D02*
X142198134Y-128411416D01*
X142198134Y-128411416D02*
X142120017Y-128333299D01*
X134755286Y-128400000D02*
X117600000Y-128400000D01*
X134766702Y-128411416D02*
X134755286Y-128400000D01*
X141401866Y-128411416D02*
X134766702Y-128411416D01*
X141479983Y-128333299D02*
X141401866Y-128411416D01*
X142120017Y-128333299D02*
X141479983Y-128333299D01*
G04 #@! TO.N,/s8[17]*
X189767621Y-126866702D02*
X189834323Y-126800000D01*
X189834323Y-126800000D02*
X190400008Y-126800000D01*
X187413280Y-126800000D02*
X187479982Y-126866702D01*
X187479982Y-126866702D02*
X189767621Y-126866702D01*
X161600000Y-126800000D02*
X160800000Y-126800000D01*
X187413280Y-126800000D02*
X160800000Y-126800000D01*
X129824698Y-126788584D02*
X116933290Y-126788584D01*
X129836114Y-126800000D02*
X129824698Y-126788584D01*
X160800000Y-126800000D02*
X129836114Y-126800000D01*
X102400000Y-126800000D02*
X109533290Y-126800000D01*
X109544706Y-126788584D02*
X109533290Y-126800000D01*
X116933290Y-126788584D02*
X109544706Y-126788584D01*
G04 #@! TO.N,/s8[18]*
X188889356Y-125266736D02*
X189034559Y-125121533D01*
X189034559Y-125121533D02*
X189600244Y-125121533D01*
X160066710Y-125200000D02*
X160632395Y-125200000D01*
X161133264Y-125200000D02*
X160066710Y-125200000D01*
X161200000Y-125266736D02*
X161133264Y-125200000D01*
X161733264Y-125200000D02*
X160066710Y-125200000D01*
X161800000Y-125266736D02*
X161733264Y-125200000D01*
X161800000Y-125266736D02*
X188889356Y-125266736D01*
X125529590Y-125200000D02*
X125483495Y-125246095D01*
X125483495Y-125246095D02*
X124843461Y-125246095D01*
X124843461Y-125246095D02*
X124797366Y-125200000D01*
X124797366Y-125200000D02*
X116200000Y-125200000D01*
X160066710Y-125200000D02*
X125529590Y-125200000D01*
X116200000Y-125200000D02*
X108942872Y-125200000D01*
X101800000Y-125200000D02*
X108933290Y-125200000D01*
X108933290Y-125200000D02*
X108938081Y-125204791D01*
X108942872Y-125200000D02*
X108938081Y-125204791D01*
G04 #@! TO.N,/s8[19]*
X188223409Y-123699290D02*
X188434559Y-123488140D01*
X186094799Y-123600000D02*
X186194089Y-123699290D01*
X186194089Y-123699290D02*
X188223409Y-123699290D01*
X188434559Y-123488140D02*
X189000244Y-123488140D01*
X160200000Y-123600000D02*
X159416710Y-123600000D01*
X186094799Y-123600000D02*
X159416710Y-123600000D01*
X159416710Y-123600000D02*
X115533290Y-123600000D01*
X108142872Y-123600000D02*
X108143789Y-123599083D01*
X115533290Y-123600000D02*
X108144706Y-123600000D01*
X101200000Y-123600000D02*
X108142872Y-123600000D01*
X108144706Y-123600000D02*
X108143789Y-123599083D01*
G04 #@! TO.N,/s8[20]*
X187658118Y-122011416D02*
X187851017Y-121818517D01*
X159800000Y-122011416D02*
X158866710Y-122011416D01*
X187658118Y-122011416D02*
X158866710Y-122011416D01*
X115988584Y-122000000D02*
X116000000Y-122011416D01*
X114933290Y-122000000D02*
X115988584Y-122000000D01*
X158866710Y-122011416D02*
X116000000Y-122011416D01*
X100400000Y-122000000D02*
X107200000Y-122000000D01*
X114933290Y-122000000D02*
X107200000Y-122000000D01*
G04 #@! TO.N,/s8[21]*
X158800000Y-120400000D02*
X158200000Y-120400000D01*
X187200000Y-120400000D02*
X158200000Y-120400000D01*
X114200000Y-120400000D02*
X158200000Y-120400000D01*
X106916167Y-120316167D02*
X106577679Y-120316167D01*
X106493846Y-120400000D02*
X106577679Y-120316167D01*
X114200000Y-120400000D02*
X107000000Y-120400000D01*
X107000000Y-120400000D02*
X106916167Y-120316167D01*
X99800000Y-120400000D02*
X106493846Y-120400000D01*
G04 #@! TO.N,/s8[22]*
X186278126Y-118811416D02*
X186304791Y-118838081D01*
X158200000Y-118811416D02*
X157466710Y-118811416D01*
X186278126Y-118811416D02*
X157466710Y-118811416D01*
X123177168Y-118788584D02*
X123200000Y-118811416D01*
X113533290Y-118788584D02*
X123177168Y-118788584D01*
X157466710Y-118811416D02*
X123200000Y-118811416D01*
X99000000Y-118800000D02*
X105800014Y-118800000D01*
X113533290Y-118788584D02*
X105811430Y-118788584D01*
X105811430Y-118788584D02*
X105800014Y-118800000D01*
G04 #@! TO.N,/s8[23]*
X157400000Y-117200000D02*
X156800000Y-117200000D01*
X183200000Y-117200000D02*
X156800000Y-117200000D01*
X113818793Y-117444389D02*
X113507694Y-117133290D01*
X156800000Y-117200000D02*
X121964453Y-117200000D01*
X121964453Y-117200000D02*
X121720064Y-117444389D01*
X121720064Y-117444389D02*
X113818793Y-117444389D01*
X113507694Y-117133290D02*
X112942009Y-117133290D01*
X112942009Y-117133290D02*
X105066700Y-117133290D01*
X105066700Y-117133290D02*
X104999990Y-117200000D01*
X98400000Y-117200000D02*
X104999990Y-117200000D01*
G04 #@! TO.N,/s8[8]*
X175800000Y-114800000D02*
X182400000Y-114800000D01*
X175800000Y-114800000D02*
X168000000Y-114800000D01*
X133388584Y-114811416D02*
X132533290Y-114811416D01*
X132544706Y-114800000D02*
X132533290Y-114811416D01*
X133400000Y-114800000D02*
X133388584Y-114811416D01*
X168000000Y-114800000D02*
X132544706Y-114800000D01*
G04 #@! TO.N,/s8[9]*
X181600000Y-113200000D02*
X175116710Y-113200000D01*
X132600000Y-113200000D02*
X131800000Y-113200000D01*
X167200000Y-113200000D02*
X175116710Y-113200000D01*
X167200000Y-113200000D02*
X131800000Y-113200000D01*
G04 #@! TO.N,/s8[10]*
X181000000Y-111600000D02*
X174466710Y-111600000D01*
X153120017Y-111466701D02*
X132021645Y-111466701D01*
X174466710Y-111600000D02*
X158013280Y-111600000D01*
X158013280Y-111600000D02*
X157762484Y-111349204D01*
X157762484Y-111349204D02*
X153237514Y-111349204D01*
X153237514Y-111349204D02*
X153120017Y-111466701D01*
X132021645Y-111466701D02*
X131698975Y-111789371D01*
X131698975Y-111789371D02*
X131133290Y-111789371D01*
X166749203Y-111600000D02*
X166600000Y-111749203D01*
X174466710Y-111600000D02*
X166749203Y-111600000D01*
G04 #@! TO.N,/s8[11]*
X180400000Y-110000000D02*
X173800000Y-110000000D01*
X131284238Y-110115762D02*
X131098975Y-110115762D01*
X131400000Y-110000000D02*
X131284238Y-110115762D01*
X131204404Y-110010333D02*
X165933290Y-110010333D01*
X131098975Y-110115762D02*
X131204404Y-110010333D01*
X165943623Y-110000000D02*
X165933290Y-110010333D01*
X173800000Y-110000000D02*
X165943623Y-110000000D01*
X130533290Y-110115762D02*
X131098975Y-110115762D01*
G04 #@! TO.N,/s8[12]*
X173138584Y-108411416D02*
X173150000Y-108400000D01*
X179600000Y-108400000D02*
X173150000Y-108400000D01*
X165200000Y-108411416D02*
X173138584Y-108411416D01*
X130777973Y-108389389D02*
X129867740Y-108389389D01*
X129889767Y-108411416D02*
X129867740Y-108389389D01*
X165200000Y-108411416D02*
X129889767Y-108411416D01*
X130800000Y-108411416D02*
X130777973Y-108389389D01*
G04 #@! TO.N,/s8[13]*
X172505294Y-106811416D02*
X172516710Y-106800000D01*
X179000000Y-106800000D02*
X172516710Y-106800000D01*
X164600000Y-106811416D02*
X172505294Y-106811416D01*
X164600000Y-106811416D02*
X129427089Y-106811416D01*
X130056201Y-106955215D02*
X129283290Y-106955215D01*
X129427089Y-106811416D02*
X129283290Y-106955215D01*
X130200000Y-106811416D02*
X130056201Y-106955215D01*
G04 #@! TO.N,/s8[14]*
X164000000Y-105211416D02*
X128731456Y-105211416D01*
X129567627Y-105243789D02*
X128699083Y-105243789D01*
X129600000Y-105211416D02*
X129567627Y-105243789D01*
X128731456Y-105211416D02*
X128699083Y-105243789D01*
X178400000Y-105200000D02*
X178000001Y-104800001D01*
X172249999Y-104800001D02*
X171850000Y-105200000D01*
X178000001Y-104800001D02*
X172249999Y-104800001D01*
X164000000Y-105211416D02*
X164399999Y-104811417D01*
X164399999Y-104811417D02*
X171461417Y-104811417D01*
X171461417Y-104811417D02*
X171850000Y-105200000D01*
G04 #@! TO.N,/s8[15]*
X128709054Y-103690946D02*
X127983290Y-103690946D01*
X128074236Y-103600000D02*
X127983290Y-103690946D01*
X163200000Y-103600000D02*
X128074236Y-103600000D01*
X128800000Y-103600000D02*
X128709054Y-103690946D01*
X171866701Y-102733299D02*
X171000000Y-103600000D01*
X176733299Y-102733299D02*
X171866701Y-102733299D01*
X177600000Y-103600000D02*
X176733299Y-102733299D01*
X163666701Y-104066701D02*
X163200000Y-103600000D01*
X170533299Y-104066701D02*
X163666701Y-104066701D01*
X171000000Y-103600000D02*
X170533299Y-104066701D01*
G04 #@! TO.N,/s8[7]*
X199200000Y-116400000D02*
X192600000Y-116400000D01*
X164800000Y-116400000D02*
X164000000Y-116400000D01*
X184800000Y-116400000D02*
X164000000Y-116400000D01*
X192600000Y-116400000D02*
X184800000Y-116400000D01*
G04 #@! TO.N,/s8[6]*
X184788592Y-118011416D02*
X184800008Y-118000000D01*
X184800008Y-118000000D02*
X193383160Y-118000000D01*
X193383160Y-118000000D02*
X199983290Y-118000000D01*
X165400000Y-118011416D02*
X164666710Y-118011416D01*
X184788592Y-118011416D02*
X164666710Y-118011416D01*
G04 #@! TO.N,/s8[5]*
X200600000Y-122800000D02*
X194049870Y-122800000D01*
X194049870Y-122800000D02*
X186400000Y-122800000D01*
X166000000Y-122800000D02*
X165266710Y-122800000D01*
X186400000Y-122800000D02*
X165266710Y-122800000D01*
G04 #@! TO.N,/s8[4]*
X194716580Y-124411416D02*
X201271874Y-124411416D01*
X201271874Y-124411416D02*
X201283290Y-124400000D01*
X187211416Y-124411416D02*
X187200000Y-124400000D01*
X194716580Y-124411416D02*
X187211416Y-124411416D01*
X187133290Y-124333290D02*
X187200000Y-124400000D01*
X166800000Y-124333290D02*
X166000000Y-124333290D01*
X187133290Y-124333290D02*
X166000000Y-124333290D01*
G04 #@! TO.N,/s8[3]*
X195383290Y-126000000D02*
X201933290Y-126000000D01*
X195383290Y-126000000D02*
X187800000Y-126000000D01*
X167400000Y-126000000D02*
X166616710Y-126000000D01*
X187800000Y-126000000D02*
X166616710Y-126000000D01*
G04 #@! TO.N,/s8[2]*
X196050000Y-127600000D02*
X202533290Y-127600000D01*
X196050000Y-127600000D02*
X188600000Y-127600000D01*
X168000000Y-127600000D02*
X167266710Y-127600000D01*
X188600000Y-127600000D02*
X167266710Y-127600000D01*
G04 #@! TO.N,/s8[1]*
X203200000Y-129200000D02*
X196716710Y-129200000D01*
X196716710Y-129200000D02*
X189599990Y-129200000D01*
X168800000Y-129200000D02*
X168000000Y-129200000D01*
X189599990Y-129200000D02*
X168000000Y-129200000D01*
G04 #@! TO.N,/s8[0]*
X197400000Y-130800000D02*
X190400000Y-130800000D01*
X197799999Y-130400001D02*
X203600001Y-130400001D01*
X203600001Y-130400001D02*
X204000000Y-130800000D01*
X197400000Y-130800000D02*
X197799999Y-130400001D01*
X168600000Y-130800000D02*
X168999999Y-130400001D01*
X190000001Y-130400001D02*
X190400000Y-130800000D01*
X168999999Y-130400001D02*
X190000001Y-130400001D01*
G04 #@! TD*
M02*
