G04 #@! TF.GenerationSoftware,KiCad,Pcbnew,(5.0.0-rc2-35-gda6600525)*
G04 #@! TF.CreationDate,2018-07-08T09:44:57-07:00*
G04 #@! TF.ProjectId,shifter,736869667465722E6B696361645F7063,rev?*
G04 #@! TF.SameCoordinates,Original*
G04 #@! TF.FileFunction,Soldermask,Bot*
G04 #@! TF.FilePolarity,Negative*
%FSLAX46Y46*%
G04 Gerber Fmt 4.6, Leading zero omitted, Abs format (unit mm)*
G04 Created by KiCad (PCBNEW (5.0.0-rc2-35-gda6600525)) date 07/08/18 09:44:57*
%MOMM*%
%LPD*%
G01*
G04 APERTURE LIST*
%ADD10R,0.700000X4.400000*%
%ADD11C,2.400000*%
%ADD12R,2.000000X2.000000*%
G04 APERTURE END LIST*
D10*
G04 #@! TO.C,P1*
X106040000Y-163010000D03*
X107040000Y-163010000D03*
X108040000Y-163010000D03*
X109040000Y-163010000D03*
X110040000Y-163010000D03*
X111040000Y-163010000D03*
X112040000Y-163010000D03*
X113040000Y-163010000D03*
X114040000Y-163010000D03*
X115040000Y-163010000D03*
X116040000Y-163010000D03*
X119040000Y-163010000D03*
X120040000Y-163010000D03*
X121040000Y-163010000D03*
X122040000Y-163010000D03*
X123040000Y-163010000D03*
X124040000Y-163010000D03*
X125040000Y-163010000D03*
X126040000Y-163010000D03*
X127040000Y-163010000D03*
X128040000Y-163010000D03*
X129040000Y-163010000D03*
X130040000Y-163010000D03*
X131040000Y-163010000D03*
X132040000Y-163010000D03*
X133040000Y-163010000D03*
X134040000Y-163010000D03*
X135040000Y-163010000D03*
X136040000Y-163010000D03*
X137040000Y-163010000D03*
X138040000Y-163010000D03*
X139040000Y-163010000D03*
X140040000Y-163010000D03*
X141040000Y-163010000D03*
X142040000Y-163010000D03*
X143040000Y-163010000D03*
X144040000Y-163010000D03*
X145040000Y-163010000D03*
X146040000Y-163010000D03*
X147040000Y-163010000D03*
X148040000Y-163010000D03*
X149040000Y-163010000D03*
X150040000Y-163010000D03*
X151040000Y-163010000D03*
X152040000Y-163010000D03*
X153040000Y-163010000D03*
X154040000Y-163010000D03*
X155040000Y-163010000D03*
X156040000Y-163010000D03*
X166040000Y-163010000D03*
X179040000Y-163010000D03*
X167040000Y-163010000D03*
X168040000Y-163010000D03*
X169040000Y-163010000D03*
X170040000Y-163010000D03*
X171040000Y-163010000D03*
X172040000Y-163010000D03*
X173040000Y-163010000D03*
X174040000Y-163010000D03*
X175040000Y-163010000D03*
X176040000Y-163010000D03*
X180040000Y-163010000D03*
X181040000Y-163010000D03*
X182040000Y-163010000D03*
X183040000Y-163010000D03*
X184040000Y-163010000D03*
X185040000Y-163010000D03*
X186040000Y-163010000D03*
X187040000Y-163010000D03*
X188040000Y-163010000D03*
X189040000Y-163010000D03*
X190040000Y-163010000D03*
X191040000Y-163010000D03*
X192040000Y-163010000D03*
X193040000Y-163010000D03*
X194040000Y-163010000D03*
X195040000Y-163010000D03*
X196040000Y-163010000D03*
X197040000Y-163010000D03*
X198040000Y-163010000D03*
X199040000Y-163010000D03*
X200040000Y-163010000D03*
X201040000Y-163010000D03*
X202040000Y-163010000D03*
X203040000Y-163010000D03*
X204040000Y-163010000D03*
X205040000Y-163010000D03*
X206040000Y-163010000D03*
X207040000Y-163010000D03*
X208040000Y-163010000D03*
X209040000Y-163010000D03*
X210040000Y-163010000D03*
X211040000Y-163010000D03*
X212040000Y-163010000D03*
X213040000Y-163010000D03*
X214040000Y-163010000D03*
X215040000Y-163010000D03*
X216040000Y-163010000D03*
G04 #@! TD*
D11*
G04 #@! TO.C,J1*
X262240000Y-81920000D03*
X262240000Y-79380000D03*
X262240000Y-76840000D03*
X262240000Y-74300000D03*
X262240000Y-71760000D03*
X262240000Y-69220000D03*
X262240000Y-66680000D03*
X262240000Y-64140000D03*
X262240000Y-61600000D03*
X259700000Y-81920000D03*
X259700000Y-79380000D03*
X259700000Y-76840000D03*
X259700000Y-74300000D03*
X259700000Y-71760000D03*
X259700000Y-69220000D03*
X259700000Y-66680000D03*
X259700000Y-64140000D03*
D12*
X259700000Y-61600000D03*
G04 #@! TD*
M02*
