M48
;DRILL file {KiCad (5.0.0-rc2-35-gda6600525)} date 07/08/18 09:45:01
;FORMAT={-:-/ absolute / metric / decimal}
FMAT,2
METRIC,TZ
T1C0.400
T2C0.950
%
G90
G05
M71
T1
X67.6Y-130.8
X68.8Y-129.1
X69.7Y-131.6
X70.6Y-93.8
X70.6Y-137.6
X70.9Y-153.7
X71.Y-146.1
X71.8Y-64.4
X71.8Y-103.
X71.9Y-146.1
X71.9Y-153.7
X72.6Y-131.6
X72.6Y-140.6
X72.8Y-146.1
X72.9Y-153.7
X73.5Y-116.7
X73.6Y-109.1
X74.2Y-130.
X74.5Y-109.1
X74.5Y-116.7
X75.Y-58.5
X75.1Y-50.9
X75.4Y-109.1
X75.5Y-116.7
X76.Y-50.9
X76.Y-58.5
X76.9Y-50.9
X76.9Y-129.
X76.9Y-136.1
X76.933Y-104.4
X77.Y-58.5
X77.Y-96.8
X77.533Y-105.989
X77.6Y-93.8
X77.6Y-134.6
X77.617Y-137.6
X77.7Y-131.3
X78.Y-116.4
X78.1Y-154.9
X78.2Y-107.6
X78.8Y-152.7
X78.917Y-118.
X78.933Y-109.2
X79.533Y-110.789
X79.6Y-119.6
X79.6Y-151.1
X80.133Y-112.389
X80.217Y-149.3
X80.4Y-121.2
X80.8Y-114.
X80.867Y-122.8
X80.9Y-146.4
X81.4Y-115.6
X81.517Y-124.4
X81.517Y-144.6
X82.Y-100.
X82.Y-103.6
X82.167Y-143.1
X82.2Y-126.
X82.8Y-96.8
X82.8Y-106.
X82.817Y-127.6
X82.9Y-140.5
X84.Y-52.2
X84.Y-61.
X84.Y-137.6
X84.1Y-129.
X84.2Y-96.8
X84.2Y-104.4
X84.6Y-57.8
X84.6Y-64.4
X84.8Y-54.6
X84.8Y-88.
X84.8Y-106.
X84.8Y-134.5
X84.8Y-154.9
X85.Y-131.4
X85.2Y-49.2
X85.4Y-107.6
X85.4Y-116.4
X85.467Y-89.8
X85.467Y-152.7
X85.917Y-50.8
X86.067Y-91.4
X86.067Y-151.1
X86.117Y-118.
X86.2Y-109.2
X86.567Y-52.4
X86.667Y-93.
X86.767Y-149.3
X86.8Y-110.8
X86.8Y-119.6
X87.2Y-65.8
X87.217Y-54.
X87.4Y-89.
X87.4Y-112.4
X87.4Y-146.4
X87.417Y-121.2
X87.8Y-50.
X87.8Y-67.4
X88.Y-114.
X88.067Y-90.611
X88.067Y-122.8
X88.1Y-144.6
X88.4Y-69.
X88.517Y-51.6
X88.717Y-124.4
X88.717Y-143.1
X88.8Y-92.2
X88.8Y-115.6
X89.167Y-53.2
X89.2Y-70.6
X89.2Y-103.6
X89.367Y-141.6
X89.4Y-93.8
X89.4Y-99.2
X89.4Y-126.
X89.8Y-64.
X89.817Y-54.8
X90.Y-96.8
X90.Y-106.
X90.017Y-127.6
X90.6Y-140.7
X91.3Y-134.5
X91.3Y-153.6
X91.4Y-104.4
X92.Y-72.2
X92.017Y-151.9
X92.067Y-106.011
X92.4Y-49.2
X92.667Y-107.611
X92.667Y-150.1
X92.8Y-73.8
X93.2Y-50.8
X93.317Y-75.4
X93.317Y-148.5
X93.4Y-109.2
X93.967Y-77.
X93.967Y-145.3
X94.Y-52.4
X94.067Y-110.8
X94.617Y-78.6
X94.617Y-143.9
X94.667Y-54.
X94.667Y-112.4
X95.2Y-50.
X95.267Y-80.2
X95.267Y-114.
X95.267Y-142.4
X95.867Y-51.6
X95.867Y-115.611
X95.917Y-81.8
X95.917Y-140.8
X96.4Y-103.6
X96.467Y-53.2
X96.567Y-83.4
X96.6Y-100.
X96.6Y-137.8
X97.067Y-54.8
X97.2Y-97.2
X97.2Y-106.
X97.2Y-135.4
X97.3Y-143.5
X98.1Y-141.2
X98.4Y-52.2
X98.4Y-60.2
X98.4Y-117.2
X98.5Y-134.4
X98.566Y-96.634
X98.6Y-153.6
X99.Y-57.8
X99.Y-65.8
X99.Y-118.8
X99.2Y-54.6
X99.2Y-88.2
X99.2Y-130.
X99.217Y-151.9
X99.6Y-49.2
X99.6Y-67.4
X99.746Y-150.171
X99.8Y-120.4
X99.867Y-89.8
X100.2Y-69.
X100.4Y-50.8
X100.4Y-122.
X100.517Y-91.4
X100.517Y-148.5
X101.Y-52.4
X101.Y-70.6
X101.2Y-93.
X101.2Y-123.6
X101.2Y-145.4
X101.6Y-76.2
X101.617Y-54.
X101.8Y-125.2
X101.817Y-143.8
X101.867Y-88.989
X102.2Y-50.
X102.267Y-65.
X102.4Y-126.8
X102.433Y-142.4
X102.467Y-90.6
X102.8Y-66.6
X102.867Y-51.6
X103.Y-128.4
X103.117Y-92.2
X103.117Y-140.8
X103.6Y-53.2
X103.6Y-68.2
X103.6Y-100.
X103.6Y-103.6
X103.8Y-93.8
X103.8Y-137.2
X104.2Y-63.8
X104.217Y-54.8
X104.4Y-96.8
X104.4Y-106.
X104.4Y-134.6
X104.4Y-143.6
X105.Y-117.2
X105.3Y-141.2
X105.8Y-96.8
X105.8Y-128.9
X105.8Y-152.6
X105.8Y-118.8
X106.2Y-72.2
X106.4Y-134.9
X106.578Y-120.316
X106.6Y-131.2
X107.067Y-73.8
X107.067Y-151.
X107.07Y-136.712
X107.1Y-154.2
X107.2Y-122.
X107.667Y-75.411
X107.717Y-149.3
X107.8Y-116.4
X108.Y-160.
X108.144Y-123.599
X108.267Y-77.011
X108.367Y-146.4
X108.822Y-117.998
X108.938Y-125.205
X109.Y-78.6
X109.017Y-144.6
X109.1Y-155.9
X109.533Y-126.8
X109.667Y-80.211
X109.7Y-143.1
X109.982Y-119.467
X110.267Y-81.8
X110.3Y-154.3
X110.317Y-141.6
X110.4Y-128.4
X110.734Y-121.275
X110.8Y-99.2
X110.8Y-103.6
X111.Y-83.4
X111.Y-160.
X111.6Y-106.
X111.645Y-122.8
X111.7Y-140.5
X112.Y-156.9
X112.Y-124.384
X112.3Y-145.8
X112.6Y-126.
X112.8Y-52.2
X112.8Y-61.
X112.942Y-117.133
X112.966Y-134.434
X113.Y-96.8
X113.071Y-152.729
X113.4Y-58.8
X113.4Y-76.2
X113.4Y-127.6
X113.533Y-118.789
X113.6Y-54.6
X113.6Y-85.
X113.6Y-131.6
X113.655Y-151.133
X113.881Y-156.545
X114.Y-49.2
X114.Y-160.
X114.067Y-65.
X114.154Y-149.433
X114.2Y-120.4
X114.267Y-86.6
X114.717Y-50.8
X114.8Y-66.6
X114.8Y-82.6
X114.82Y-147.854
X114.933Y-122.
X115.Y-158.
X115.337Y-152.567
X115.4Y-52.4
X115.4Y-68.2
X115.533Y-123.6
X115.6Y-84.2
X115.722Y-150.778
X115.8Y-156.4
X116.Y-69.8
X116.017Y-54.
X116.2Y-125.2
X116.217Y-85.8
X116.6Y-50.
X116.6Y-71.4
X116.867Y-87.4
X116.912Y-149.078
X116.933Y-126.789
X117.2Y-73.
X117.4Y-51.6
X117.4Y-103.6
X117.4Y-156.1
X117.517Y-89.
X117.6Y-128.4
X117.667Y-147.189
X117.9Y-141.3
X118.Y-53.2
X118.Y-74.6
X118.Y-100.
X118.Y-137.2
X118.167Y-90.6
X118.2Y-106.
X118.6Y-54.8
X118.6Y-63.8
X118.8Y-97.2
X118.8Y-134.6
X118.8Y-143.4
X118.803Y-152.949
X119.6Y-104.4
X120.Y-98.4
X120.075Y-151.422
X120.1Y-134.4
X120.189Y-146.522
X120.2Y-91.
X120.6Y-106.
X120.8Y-96.8
X120.8Y-103.
X120.864Y-144.733
X121.Y-93.4
X121.Y-160.
X121.4Y-65.8
X121.467Y-143.133
X121.478Y-149.694
X121.6Y-107.2
X121.6Y-116.4
X122.117Y-67.4
X122.2Y-141.6
X122.333Y-118.
X122.6Y-108.8
X122.6Y-153.7
X122.613Y-145.533
X122.654Y-147.933
X122.767Y-69.
X123.331Y-143.893
X123.333Y-119.606
X123.417Y-70.6
X123.5Y-151.6
X123.6Y-65.
X123.622Y-110.304
X123.933Y-121.211
X124.Y-160.
X124.067Y-76.2
X124.137Y-142.296
X124.334Y-111.975
X124.4Y-66.6
X124.5Y-149.9
X124.667Y-122.887
X124.816Y-140.642
X125.Y-152.
X125.045Y-113.47
X125.163Y-124.579
X125.2Y-68.2
X125.4Y-137.2
X125.854Y-114.791
X126.Y-65.8
X126.Y-134.6
X126.Y-150.4
X126.1Y-143.4
X126.1Y-148.6
X126.2Y-102.8
X126.6Y-116.2
X127.Y-52.2
X127.Y-61.
X127.Y-67.4
X127.Y-160.
X127.016Y-140.802
X127.366Y-134.434
X127.4Y-91.
X127.4Y-97.6
X127.4Y-118.
X127.675Y-69.002
X127.8Y-57.8
X127.983Y-103.691
X128.Y-54.6
X128.Y-148.8
X128.022Y-76.2
X128.2Y-93.4
X128.2Y-96.8
X128.2Y-119.6
X128.4Y-49.4
X128.4Y-70.6
X128.6Y-65.
X128.699Y-105.244
X128.747Y-147.578
X128.8Y-121.2
X129.117Y-51.
X129.2Y-66.6
X129.283Y-106.955
X129.6Y-122.8
X129.778Y-145.9
X129.8Y-52.6
X129.8Y-68.2
X129.868Y-108.389
X130.378Y-69.8
X130.4Y-124.4
X130.417Y-54.2
X130.533Y-110.116
X130.6Y-144.2
X130.733Y-71.318
X131.Y-50.2
X131.1Y-142.4
X131.133Y-111.789
X131.2Y-76.2
X131.4Y-65.
X131.6Y-126.
X131.667Y-72.959
X131.8Y-51.8
X131.8Y-113.2
X131.917Y-140.8
X132.Y-160.
X132.267Y-74.6
X132.4Y-53.4
X132.4Y-127.6
X132.422Y-66.6
X132.533Y-114.811
X132.6Y-137.2
X133.Y-63.8
X133.017Y-55.
X133.2Y-135.6
X133.3Y-143.6
X133.4Y-102.8
X133.422Y-68.2
X133.6Y-131.4
X134.1Y-141.1
X134.4Y-65.8
X134.5Y-129.1
X134.6Y-91.
X134.6Y-98.4
X134.8Y-152.6
X134.933Y-145.146
X135.Y-119.6
X135.Y-160.
X135.2Y-96.8
X135.2Y-135.2
X135.4Y-67.4
X135.4Y-93.4
X135.533Y-143.573
X135.6Y-154.2
X135.733Y-104.389
X135.8Y-121.2
X136.048Y-136.533
X136.2Y-69.
X136.4Y-155.8
X136.467Y-141.686
X136.6Y-106.
X136.6Y-122.8
X136.862Y-151.805
X136.867Y-146.748
X137.Y-70.6
X137.267Y-107.589
X137.378Y-124.398
X137.405Y-144.699
X137.6Y-153.4
X137.8Y-49.4
X137.8Y-72.2
X137.999Y-109.078
X138.Y-160.
X138.178Y-125.998
X138.4Y-76.2
X138.4Y-155.
X138.533Y-142.444
X138.712Y-110.694
X138.8Y-51.
X138.8Y-65.
X139.Y-73.8
X139.Y-127.6
X139.083Y-140.4
X139.117Y-104.4
X139.2Y-156.4
X139.4Y-112.284
X139.6Y-52.6
X139.6Y-66.6
X139.8Y-106.
X139.8Y-114.
X139.8Y-154.
X140.267Y-54.2
X140.4Y-68.2
X140.4Y-75.4
X140.5Y-140.5
X140.6Y-102.8
X140.6Y-115.6
X141.2Y-77.
X141.4Y-60.2
X141.58Y-98.618
X141.6Y-52.2
X141.8Y-91.
X141.8Y-129.
X142.Y-126.
X142.2Y-57.8
X142.2Y-69.8
X142.2Y-153.3
X142.4Y-54.6
X142.411Y-96.733
X142.6Y-93.4
X142.6Y-131.4
X142.605Y-134.559
X142.8Y-49.4
X142.8Y-127.6
X142.867Y-71.4
X143.Y-147.6
X143.Y-160.
X143.083Y-136.667
X143.467Y-51.
X143.467Y-73.
X143.6Y-104.4
X143.728Y-145.565
X144.067Y-74.6
X144.2Y-52.6
X144.4Y-106.
X144.4Y-143.8
X144.8Y-76.2
X144.817Y-54.2
X145.Y-107.6
X145.067Y-141.4
X145.4Y-50.2
X145.6Y-109.2
X145.6Y-146.778
X145.614Y-77.683
X146.Y-160.
X146.084Y-79.399
X146.2Y-51.8
X146.2Y-144.733
X146.4Y-110.8
X146.767Y-53.4
X146.8Y-81.
X147.Y-112.4
X147.Y-114.
X147.003Y-142.716
X147.4Y-64.
X147.417Y-55.
X147.608Y-140.307
X147.8Y-102.8
X147.8Y-115.6
X148.2Y-69.8
X148.7Y-129.1
X148.8Y-91.
X148.867Y-71.4
X149.Y-97.667
X149.Y-160.
X149.011Y-137.867
X149.467Y-73.
X149.5Y-131.4
X149.567Y-147.458
X149.6Y-93.4
X149.6Y-104.4
X149.6Y-134.416
X149.8Y-96.8
X150.067Y-74.6
X150.265Y-145.419
X150.267Y-106.
X150.667Y-76.2
X150.891Y-143.749
X151.Y-107.6
X151.267Y-77.8
X151.565Y-141.669
X151.667Y-109.2
X152.Y-79.4
X152.223Y-146.058
X152.667Y-81.
X152.8Y-110.8
X152.873Y-144.346
X153.2Y-69.8
X153.422Y-142.659
X153.533Y-112.411
X154.Y-71.4
X154.2Y-114.
X154.275Y-141.093
X154.8Y-102.8
X154.867Y-73.
X155.Y-115.6
X155.5Y-140.8
X155.6Y-74.6
X155.8Y-61.
X156.Y-52.2
X156.126Y-91.074
X156.166Y-134.434
X156.2Y-98.4
X156.2Y-152.8
X156.4Y-76.2
X156.6Y-58.8
X156.8Y-107.6
X156.8Y-117.2
X156.817Y-151.2
X157.Y-54.6
X157.Y-93.4
X157.Y-96.8
X157.2Y-49.4
X157.2Y-77.8
X157.4Y-109.2
X157.467Y-118.811
X157.467Y-149.589
X157.8Y-79.4
X157.867Y-51.
X158.067Y-148.
X158.2Y-110.8
X158.2Y-120.4
X158.467Y-52.6
X158.6Y-81.
X158.8Y-112.4
X158.8Y-152.
X158.867Y-122.011
X159.133Y-88.204
X159.2Y-54.2
X159.4Y-114.
X159.417Y-123.6
X159.417Y-150.4
X159.572Y-76.2
X159.733Y-89.826
X159.8Y-50.2
X160.Y-115.6
X160.067Y-125.2
X160.067Y-148.789
X160.422Y-77.904
X160.484Y-91.4
X160.6Y-51.8
X160.667Y-147.2
X160.733Y-119.589
X160.8Y-126.8
X161.1Y-141.2
X161.2Y-53.4
X161.2Y-93.
X161.211Y-137.667
X161.222Y-79.504
X161.4Y-121.2
X161.467Y-128.411
X161.8Y-63.8
X161.867Y-55.011
X162.Y-102.8
X162.Y-143.4
X162.011Y-135.333
X162.067Y-81.002
X163.2Y-94.2
X163.2Y-103.6
X163.366Y-134.434
X163.4Y-152.8
X163.8Y-72.2
X164.Y-50.2
X164.Y-105.211
X164.Y-116.4
X164.017Y-151.2
X164.6Y-106.811
X164.667Y-73.8
X164.667Y-118.011
X164.667Y-149.6
X164.8Y-51.8
X165.2Y-108.411
X165.267Y-122.8
X165.317Y-148.
X165.333Y-75.4
X165.467Y-53.4
X165.688Y-77.012
X165.933Y-110.01
X166.Y-124.333
X166.Y-152.
X166.067Y-55.
X166.4Y-78.6
X166.6Y-49.4
X166.6Y-111.749
X166.617Y-126.
X166.617Y-150.4
X166.667Y-69.8
X167.089Y-80.211
X167.2Y-113.2
X167.267Y-127.6
X167.267Y-148.8
X167.4Y-51.
X167.4Y-65.
X167.8Y-81.8
X168.Y-114.8
X168.Y-129.2
X168.Y-147.2
X168.Y-159.8
X168.2Y-52.6
X168.2Y-66.6
X168.4Y-100.
X168.4Y-103.4
X168.4Y-141.2
X168.6Y-83.4
X168.6Y-130.8
X168.6Y-137.
X169.Y-54.2
X169.Y-68.2
X169.2Y-96.8
X169.2Y-105.8
X169.2Y-135.4
X169.3Y-143.5
X169.933Y-75.833
X170.2Y-61.
X170.4Y-52.2
X170.4Y-94.2
X170.533Y-146.4
X170.6Y-69.8
X170.6Y-134.5
X170.733Y-77.618
X170.886Y-85.029
X171.Y-57.8
X171.Y-65.
X171.Y-103.6
X171.022Y-159.799
X171.2Y-144.789
X171.4Y-54.6
X171.6Y-49.4
X171.717Y-79.196
X171.85Y-105.2
X171.867Y-86.6
X171.867Y-143.2
X172.023Y-66.577
X172.133Y-82.589
X172.396Y-80.768
X172.4Y-51.
X172.517Y-106.8
X172.6Y-141.6
X172.867Y-84.189
X173.Y-52.6
X173.022Y-68.2
X173.15Y-108.4
X173.15Y-145.6
X173.222Y-88.332
X173.583Y-54.2
X173.8Y-110.
X173.817Y-144.
X173.879Y-85.78
X173.933Y-89.888
X174.Y-65.
X174.067Y-159.8
X174.368Y-142.559
X174.4Y-50.2
X174.467Y-111.6
X174.822Y-91.533
X175.Y-51.8
X175.Y-87.4
X175.022Y-66.6
X175.117Y-113.2
X175.189Y-140.733
X175.2Y-103.4
X175.6Y-53.4
X175.6Y-99.2
X175.623Y-89.
X175.767Y-93.
X175.8Y-114.8
X175.8Y-137.667
X176.2Y-63.8
X176.2Y-68.2
X176.2Y-105.8
X176.217Y-55.
X176.4Y-135.4
X176.622Y-90.96
X176.9Y-143.6
X177.6Y-103.6
X177.7Y-141.3
X177.766Y-96.634
X177.8Y-146.4
X178.2Y-69.8
X178.4Y-105.2
X178.417Y-144.8
X179.Y-106.8
X179.067Y-71.4
X179.067Y-143.2
X179.6Y-108.4
X179.717Y-73.
X179.8Y-141.6
X180.2Y-65.
X180.367Y-74.6
X180.4Y-50.2
X180.4Y-110.
X180.4Y-145.6
X180.8Y-66.6
X181.Y-51.8
X181.Y-111.6
X181.017Y-76.2
X181.017Y-144.
X181.2Y-159.8
X181.6Y-68.2
X181.6Y-113.2
X181.667Y-53.4
X181.667Y-77.8
X181.667Y-142.4
X182.4Y-79.4
X182.4Y-114.8
X182.4Y-140.8
X182.6Y-55.
X182.8Y-100.
X182.8Y-103.4
X182.967Y-81.
X183.Y-131.8
X183.026Y-137.222
X183.2Y-117.2
X183.6Y-97.
X183.6Y-105.8
X183.6Y-135.6
X183.7Y-143.6
X184.Y-85.
X184.Y-159.8
X184.5Y-141.2
X184.6Y-52.2
X184.6Y-60.2
X184.667Y-86.6
X184.8Y-116.4
X184.8Y-118.
X184.9Y-132.
X184.95Y-146.4
X184.966Y-96.634
X185.4Y-57.8
X185.4Y-88.2
X185.6Y-54.6
X185.6Y-144.8
X186.Y-49.4
X186.Y-89.8
X186.25Y-143.2
X186.305Y-118.838
X186.4Y-122.8
X186.533Y-91.406
X186.8Y-51.
X186.8Y-82.6
X186.9Y-141.6
X186.955Y-93.412
X187.2Y-120.4
X187.2Y-124.4
X187.2Y-159.8
X187.4Y-52.6
X187.55Y-145.6
X187.8Y-126.
X187.822Y-84.304
X187.851Y-121.819
X188.017Y-54.2
X188.017Y-75.4
X188.2Y-144.
X188.378Y-85.831
X188.6Y-50.2
X188.6Y-77.
X188.6Y-127.6
X188.85Y-142.4
X188.908Y-87.377
X189.Y-123.488
X189.2Y-78.6
X189.267Y-51.811
X189.517Y-140.799
X189.6Y-129.2
X189.6Y-125.122
X189.689Y-88.977
X190.Y-53.4
X190.Y-80.2
X190.Y-103.4
X190.Y-137.2
X190.2Y-90.6
X190.2Y-100.
X190.4Y-130.8
X190.4Y-126.8
X190.6Y-63.8
X190.667Y-55.011
X190.8Y-96.8
X190.8Y-105.8
X190.8Y-134.6
X190.8Y-143.4
X191.4Y-128.4
X191.6Y-141.1
X191.8Y-61.
X192.Y-52.2
X192.Y-146.4
X192.1Y-132.1
X192.2Y-96.8
X192.2Y-159.8
X192.6Y-58.8
X192.6Y-116.4
X192.8Y-69.8
X192.8Y-144.8
X193.2Y-49.4
X193.2Y-54.6
X193.383Y-118.
X193.45Y-71.4
X193.467Y-143.189
X194.Y-51.
X194.05Y-122.8
X194.067Y-141.589
X194.1Y-73.
X194.617Y-52.6
X194.717Y-124.411
X194.75Y-74.6
X194.8Y-145.6
X195.Y-159.8
X195.267Y-54.2
X195.383Y-126.
X195.4Y-76.2
X195.467Y-143.989
X196.Y-50.2
X196.05Y-77.8
X196.05Y-127.6
X196.067Y-142.389
X196.422Y-79.4
X196.6Y-51.8
X196.667Y-140.8
X196.717Y-129.2
X197.2Y-103.4
X197.2Y-137.867
X197.217Y-53.4
X197.35Y-81.
X197.4Y-99.2
X197.4Y-130.8
X198.Y-55.
X198.Y-63.8
X198.Y-93.6
X198.Y-105.8
X198.Y-135.133
X198.1Y-143.4
X198.2Y-159.8
X198.8Y-141.1
X199.2Y-116.4
X199.2Y-146.4
X199.3Y-131.7
X199.733Y-75.4
X199.983Y-118.
X200.017Y-144.8
X200.333Y-77.
X200.4Y-49.4
X200.6Y-122.8
X200.667Y-143.2
X201.Y-78.6
X201.067Y-51.
X201.283Y-124.4
X201.4Y-141.6
X201.667Y-52.6
X201.733Y-80.2
X201.8Y-145.6
X201.933Y-126.
X202.2Y-54.2
X202.221Y-69.847
X202.333Y-81.8
X202.533Y-127.6
X202.617Y-144.
X202.933Y-83.4
X203.Y-50.067
X203.Y-159.8
X203.2Y-129.2
X203.267Y-142.4
X203.533Y-85.
X203.667Y-51.933
X203.917Y-140.8
X204.Y-130.8
X204.174Y-71.426
X204.2Y-86.6
X204.4Y-103.4
X204.467Y-53.4
X204.6Y-100.
X204.6Y-137.2
X204.8Y-97.
X205.Y-55.
X205.2Y-105.8
X205.2Y-135.6
X205.3Y-143.5
X205.4Y-73.
X206.Y-74.6
X206.Y-141.2
X206.Y-159.8
X206.2Y-61.
X206.6Y-52.2
X206.6Y-91.2
X206.6Y-128.9
X206.703Y-98.622
X206.8Y-76.2
X207.Y-57.8
X207.2Y-96.8
X207.2Y-114.
X207.2Y-134.578
X207.2Y-140.6
X207.4Y-93.6
X207.4Y-131.1
X207.6Y-49.4
X207.6Y-54.6
X207.6Y-77.8
X207.6Y-149.2
X207.733Y-115.6
X207.8Y-88.2
X207.8Y-119.6
X207.8Y-147.2
X208.112Y-136.533
X208.367Y-51.
X208.4Y-79.4
X208.467Y-145.589
X208.517Y-89.8
X208.6Y-121.2
X209.Y-159.8
X209.017Y-52.6
X209.133Y-143.999
X209.167Y-91.4
X209.2Y-81.
X209.2Y-122.8
X209.2Y-149.8
X209.667Y-54.2
X209.8Y-151.4
X209.817Y-93.
X209.817Y-124.4
X209.817Y-142.4
X210.267Y-50.2
X210.4Y-75.4
X210.467Y-126.
X210.467Y-146.389
X210.467Y-148.2
X211.Y-51.8
X211.117Y-77.
X211.117Y-127.6
X211.2Y-144.8
X211.2Y-149.8
X211.667Y-53.411
X211.8Y-78.6
X211.8Y-129.2
X211.8Y-143.2
X211.8Y-151.4
X212.4Y-55.
X212.417Y-130.8
X212.5Y-140.4
X212.6Y-80.2
X212.6Y-102.8
X212.8Y-64.
X213.6Y-60.2
X213.611Y-137.867
X213.679Y-97.815
X213.7Y-128.9
X213.733Y-75.411
X213.8Y-52.2
X213.8Y-91.2
X214.2Y-57.8
X214.4Y-134.416
X214.4Y-77.
X214.4Y-131.2
X214.4Y-147.2
X214.528Y-96.72
X214.533Y-119.6
X214.6Y-93.6
X214.8Y-49.4
X215.Y-54.6
X215.Y-88.
X215.067Y-145.6
X215.2Y-78.6
X215.6Y-51.
X215.667Y-144.
X215.767Y-121.2
X215.8Y-89.8
X216.Y-80.2
X216.217Y-52.6
X216.35Y-122.8
X216.4Y-91.4
X216.4Y-142.4
X216.533Y-81.612
X217.Y-75.4
X217.Y-146.4
X217.017Y-93.
X217.017Y-124.4
X217.045Y-54.211
X217.174Y-83.369
X217.4Y-50.2
X217.667Y-144.8
X217.733Y-126.
X217.938Y-85.005
X218.022Y-77.
X218.2Y-51.8
X218.267Y-143.189
X218.333Y-127.6
X218.667Y-86.6
X218.8Y-151.6
X218.817Y-53.4
X218.867Y-141.6
X218.934Y-78.574
X218.95Y-129.2
X219.6Y-55.
X219.6Y-64.
X219.6Y-140.4
X219.617Y-130.8
X219.822Y-80.2
X220.017Y-102.773
X220.8Y-61.
X220.9Y-135.2
X221.Y-52.2
X221.Y-91.2
X221.Y-98.4
X221.1Y-128.9
X221.6Y-96.8
X221.6Y-145.6
X221.8Y-93.6
X221.8Y-119.6
X221.8Y-131.2
X221.829Y-136.533
X222.Y-49.4
X222.Y-54.6
X222.2Y-88.2
X222.211Y-59.667
X222.267Y-144.
X222.767Y-51.
X222.867Y-121.2
X222.917Y-89.8
X223.Y-142.4
X223.417Y-52.6
X223.533Y-122.8
X223.6Y-91.4
X223.6Y-146.4
X224.2Y-124.4
X224.217Y-93.
X224.217Y-144.8
X224.245Y-54.2
X224.8Y-50.2
X224.8Y-75.4
X224.867Y-126.
X224.867Y-143.2
X225.4Y-51.8
X225.467Y-77.011
X225.483Y-127.611
X225.6Y-141.6
X226.017Y-53.4
X226.067Y-78.611
X226.15Y-129.2
X226.2Y-146.4
X226.6Y-64.2
X226.6Y-120.4
X226.8Y-55.
X226.8Y-80.2
X226.8Y-102.8
X226.817Y-130.8
X226.9Y-140.4
X227.6Y-122.
X228.1Y-128.9
X228.18Y-98.618
X228.2Y-91.2
X228.4Y-59.667
X228.8Y-96.733
X228.8Y-141.6
X228.802Y-134.578
X229.Y-93.6
X229.Y-131.3
X229.2Y-81.8
X229.222Y-136.666
X229.4Y-57.8
X229.4Y-146.4
X229.7Y-128.2
X230.016Y-83.4
X230.067Y-144.8
X230.084Y-121.024
X230.2Y-148.6
X230.3Y-130.
X230.533Y-143.083
X230.683Y-85.
X230.733Y-122.
X230.8Y-150.2
X231.134Y-123.6
X231.35Y-86.6
X231.4Y-152.
X231.417Y-141.6
X231.489Y-125.2
X232.017Y-88.2
X232.067Y-145.6
X232.067Y-147.8
X232.142Y-126.7
X232.6Y-149.4
X232.683Y-89.8
X232.7Y-144.
X233.011Y-128.4
X233.35Y-91.411
X233.367Y-142.4
X233.4Y-151.
X233.411Y-130.
X233.6Y-61.
X234.Y-140.4
X234.017Y-93.
X234.017Y-131.6
X234.2Y-102.8
X235.2Y-60.2
X235.4Y-91.2
X235.4Y-97.6
X235.484Y-137.867
X235.6Y-129.
X236.Y-134.416
X236.Y-146.4
X236.2Y-93.6
X236.3Y-131.2
X236.4Y-96.802
X236.4Y-81.8
X236.533Y-120.4
X236.667Y-144.8
X237.133Y-121.989
X237.2Y-83.4
X237.4Y-143.2
X237.733Y-123.451
X238.Y-85.
X238.067Y-141.589
X238.333Y-125.2
X238.533Y-86.617
X238.6Y-145.6
X239.2Y-88.2
X239.2Y-153.734
X239.267Y-126.8
X239.267Y-144.
X239.867Y-89.811
X239.933Y-128.389
X239.933Y-142.4
X240.527Y-140.84
X240.533Y-129.989
X240.55Y-91.4
X241.217Y-93.
X241.217Y-131.6
X241.4Y-102.8
X241.5Y-140.5
X242.6Y-91.2
X242.6Y-98.4
X242.7Y-63.8
X242.8Y-56.2
X242.8Y-128.9
X243.005Y-136.533
X243.2Y-96.8
X243.2Y-144.8
X243.4Y-93.6
X243.6Y-131.2
X243.7Y-56.2
X243.7Y-63.8
X243.8Y-81.8
X243.8Y-120.4
X243.867Y-143.2
X244.4Y-135.6
X244.517Y-83.4
X244.517Y-122.
X244.533Y-75.8
X244.6Y-56.2
X244.6Y-141.6
X244.7Y-63.8
X245.Y-145.6
X245.133Y-123.6
X245.167Y-85.
X245.667Y-86.549
X245.75Y-125.183
X245.817Y-144.
X246.333Y-88.164
X246.417Y-126.8
X246.467Y-142.4
X246.5Y-73.9
X246.7Y-71.7
X247.Y-89.8
X247.083Y-128.4
X247.117Y-140.8
X247.75Y-130.
X247.8Y-91.4
X248.2Y-97.6
X248.2Y-76.6
X248.4Y-103.
X248.417Y-93.
X248.417Y-131.6
X248.8Y-140.6
X249.066Y-110.84
X249.322Y-117.14
X249.831Y-106.947
X250.4Y-133.8
X250.419Y-96.573
X250.6Y-141.4
X250.6Y-150.6
X251.Y-94.5
X251.2Y-135.6
X251.2Y-153.867
X251.333Y-115.6
X251.4Y-147.8
X251.533Y-98.39
X251.6Y-76.6
X251.6Y-144.
X252.1Y-130.8
X252.2Y-109.2
X252.4Y-96.8
X252.5Y-81.
X252.6Y-93.9
X252.717Y-138.467
X252.75Y-121.8
X252.8Y-116.4
X252.946Y-111.839
X253.13Y-136.29
X253.3Y-95.4
X253.4Y-109.2
X253.4Y-127.4
X253.533Y-103.5
X253.567Y-78.19
X253.833Y-110.796
X254.Y-117.2
X254.Y-125.4
X254.6Y-115.6
X254.6Y-123.6
X254.973Y-92.027
X255.089Y-98.999
X255.2Y-155.4
X255.4Y-102.8
X255.4Y-111.8
X255.578Y-138.467
X255.8Y-153.4
X255.9Y-78.2
X256.Y-117.8
X256.Y-130.8
X256.2Y-123.6
X256.6Y-100.
X256.6Y-120.8
X256.8Y-127.4
X257.6Y-109.
X257.667Y-125.4
X257.8Y-102.4
X257.8Y-152.
X258.6Y-111.6
X258.6Y-122.8
X258.6Y-134.933
X259.189Y-115.333
X259.2Y-101.376
X259.2Y-108.7
X259.9Y-112.
X259.9Y-124.6
X260.Y-136.933
X260.2Y-133.9
X260.233Y-127.4
X260.4Y-105.3
X260.6Y-122.8
X261.7Y-102.2
X261.8Y-137.8
X262.2Y-127.7
X262.2Y-133.9
X262.7Y-97.9
X262.8Y-90.3
X262.8Y-152.4
X262.9Y-144.8
X263.1Y-108.4
X263.2Y-105.2
X263.4Y-119.4
X263.6Y-85.8
X263.6Y-113.2
X263.6Y-115.
X263.7Y-90.3
X263.7Y-97.9
X263.8Y-144.8
X263.8Y-152.4
X264.Y-117.8
X264.424Y-100.976
X264.6Y-90.3
X264.622Y-108.9
X264.7Y-97.9
X264.7Y-144.8
X264.8Y-125.4
X264.8Y-130.9
X264.8Y-134.8
X264.8Y-152.4
X265.Y-106.4
X265.Y-123.6
X266.2Y-135.6
X266.222Y-117.
X266.6Y-105.
X266.8Y-121.8
X267.433Y-101.
X267.5Y-133.9
X267.8Y-124.6
X268.4Y-115.
X268.4Y-122.8
T2
X259.7Y-61.6
X259.7Y-64.14
X259.7Y-66.68
X259.7Y-69.22
X259.7Y-71.76
X259.7Y-74.3
X259.7Y-76.84
X259.7Y-79.38
X259.7Y-81.92
X262.24Y-61.6
X262.24Y-64.14
X262.24Y-66.68
X262.24Y-69.22
X262.24Y-71.76
X262.24Y-74.3
X262.24Y-76.84
X262.24Y-79.38
X262.24Y-81.92
T0
M30
