G04 #@! TF.GenerationSoftware,KiCad,Pcbnew,(5.0.0-rc2-35-gda6600525)*
G04 #@! TF.CreationDate,2018-07-08T09:44:57-07:00*
G04 #@! TF.ProjectId,shifter,736869667465722E6B696361645F7063,rev?*
G04 #@! TF.SameCoordinates,Original*
G04 #@! TF.FileFunction,Soldermask,Top*
G04 #@! TF.FilePolarity,Negative*
%FSLAX46Y46*%
G04 Gerber Fmt 4.6, Leading zero omitted, Abs format (unit mm)*
G04 Created by KiCad (PCBNEW (5.0.0-rc2-35-gda6600525)) date 07/08/18 09:44:57*
%MOMM*%
%LPD*%
G01*
G04 APERTURE LIST*
%ADD10R,0.750000X0.800000*%
%ADD11R,0.450000X1.450000*%
%ADD12R,0.700000X4.400000*%
%ADD13R,1.600000X2.600000*%
%ADD14C,2.400000*%
%ADD15R,2.000000X2.000000*%
%ADD16R,1.100000X1.500000*%
%ADD17R,0.900000X1.500000*%
G04 APERTURE END LIST*
D10*
G04 #@! TO.C,C30*
X156000000Y-53050000D03*
X156000000Y-54550000D03*
G04 #@! TD*
G04 #@! TO.C,C32*
X141600000Y-54550000D03*
X141600000Y-53050000D03*
G04 #@! TD*
G04 #@! TO.C,C33*
X84000000Y-53050000D03*
X84000000Y-54550000D03*
G04 #@! TD*
G04 #@! TO.C,C35*
X192000000Y-54550000D03*
X192000000Y-53050000D03*
G04 #@! TD*
G04 #@! TO.C,C36*
X221000000Y-54600000D03*
X221000000Y-53100000D03*
G04 #@! TD*
G04 #@! TO.C,C37*
X184600000Y-54550000D03*
X184600000Y-53050000D03*
G04 #@! TD*
G04 #@! TO.C,C38*
X213800000Y-54550000D03*
X213800000Y-53050000D03*
G04 #@! TD*
G04 #@! TO.C,C39*
X170400000Y-54550000D03*
X170400000Y-53050000D03*
G04 #@! TD*
G04 #@! TO.C,C40*
X206600000Y-54550000D03*
X206600000Y-53050000D03*
G04 #@! TD*
D11*
G04 #@! TO.C,U1*
X250750000Y-146200000D03*
X251400000Y-146200000D03*
X252050000Y-146200000D03*
X252700000Y-146200000D03*
X253350000Y-146200000D03*
X254000000Y-146200000D03*
X254650000Y-146200000D03*
X255300000Y-146200000D03*
X255950000Y-146200000D03*
X256600000Y-146200000D03*
X256600000Y-152100000D03*
X255950000Y-152100000D03*
X255300000Y-152100000D03*
X254650000Y-152100000D03*
X254000000Y-152100000D03*
X253350000Y-152100000D03*
X252700000Y-152100000D03*
X252050000Y-152100000D03*
X251400000Y-152100000D03*
X250750000Y-152100000D03*
G04 #@! TD*
G04 #@! TO.C,U2*
X252750000Y-113500000D03*
X253400000Y-113500000D03*
X254050000Y-113500000D03*
X254700000Y-113500000D03*
X255350000Y-113500000D03*
X256000000Y-113500000D03*
X256650000Y-113500000D03*
X256650000Y-119400000D03*
X256000000Y-119400000D03*
X255350000Y-119400000D03*
X254700000Y-119400000D03*
X254050000Y-119400000D03*
X253400000Y-119400000D03*
X252750000Y-119400000D03*
G04 #@! TD*
G04 #@! TO.C,U3*
X68700000Y-133400000D03*
X69350000Y-133400000D03*
X70000000Y-133400000D03*
X70650000Y-133400000D03*
X71300000Y-133400000D03*
X71950000Y-133400000D03*
X72600000Y-133400000D03*
X72600000Y-139300000D03*
X71950000Y-139300000D03*
X71300000Y-139300000D03*
X70650000Y-139300000D03*
X70000000Y-139300000D03*
X69350000Y-139300000D03*
X68700000Y-139300000D03*
G04 #@! TD*
G04 #@! TO.C,U4*
X258600000Y-119400000D03*
X259250000Y-119400000D03*
X259900000Y-119400000D03*
X260550000Y-119400000D03*
X261200000Y-119400000D03*
X261850000Y-119400000D03*
X262500000Y-119400000D03*
X262500000Y-113500000D03*
X261850000Y-113500000D03*
X261200000Y-113500000D03*
X260550000Y-113500000D03*
X259900000Y-113500000D03*
X259250000Y-113500000D03*
X258600000Y-113500000D03*
G04 #@! TD*
G04 #@! TO.C,U5*
X105750000Y-133300000D03*
X106400000Y-133300000D03*
X107050000Y-133300000D03*
X107700000Y-133300000D03*
X108350000Y-133300000D03*
X109000000Y-133300000D03*
X109650000Y-133300000D03*
X110300000Y-133300000D03*
X110950000Y-133300000D03*
X111600000Y-133300000D03*
X111600000Y-139200000D03*
X110950000Y-139200000D03*
X110300000Y-139200000D03*
X109650000Y-139200000D03*
X109000000Y-139200000D03*
X108350000Y-139200000D03*
X107700000Y-139200000D03*
X107050000Y-139200000D03*
X106400000Y-139200000D03*
X105750000Y-139200000D03*
G04 #@! TD*
G04 #@! TO.C,U6*
X134550000Y-139200000D03*
X135200000Y-139200000D03*
X135850000Y-139200000D03*
X136500000Y-139200000D03*
X137150000Y-139200000D03*
X137800000Y-139200000D03*
X138450000Y-139200000D03*
X139100000Y-139200000D03*
X139750000Y-139200000D03*
X140400000Y-139200000D03*
X140400000Y-133300000D03*
X139750000Y-133300000D03*
X139100000Y-133300000D03*
X138450000Y-133300000D03*
X137800000Y-133300000D03*
X137150000Y-133300000D03*
X136500000Y-133300000D03*
X135850000Y-133300000D03*
X135200000Y-133300000D03*
X134550000Y-133300000D03*
G04 #@! TD*
G04 #@! TO.C,U7*
X84150000Y-133300000D03*
X84800000Y-133300000D03*
X85450000Y-133300000D03*
X86100000Y-133300000D03*
X86750000Y-133300000D03*
X87400000Y-133300000D03*
X88050000Y-133300000D03*
X88700000Y-133300000D03*
X89350000Y-133300000D03*
X90000000Y-133300000D03*
X90000000Y-139200000D03*
X89350000Y-139200000D03*
X88700000Y-139200000D03*
X88050000Y-139200000D03*
X87400000Y-139200000D03*
X86750000Y-139200000D03*
X86100000Y-139200000D03*
X85450000Y-139200000D03*
X84800000Y-139200000D03*
X84150000Y-139200000D03*
G04 #@! TD*
G04 #@! TO.C,U8*
X148950000Y-139200000D03*
X149600000Y-139200000D03*
X150250000Y-139200000D03*
X150900000Y-139200000D03*
X151550000Y-139200000D03*
X152200000Y-139200000D03*
X152850000Y-139200000D03*
X153500000Y-139200000D03*
X154150000Y-139200000D03*
X154800000Y-139200000D03*
X154800000Y-133300000D03*
X154150000Y-133300000D03*
X153500000Y-133300000D03*
X152850000Y-133300000D03*
X152200000Y-133300000D03*
X151550000Y-133300000D03*
X150900000Y-133300000D03*
X150250000Y-133300000D03*
X149600000Y-133300000D03*
X148950000Y-133300000D03*
G04 #@! TD*
G04 #@! TO.C,U9*
X76950000Y-133300000D03*
X77600000Y-133300000D03*
X78250000Y-133300000D03*
X78900000Y-133300000D03*
X79550000Y-133300000D03*
X80200000Y-133300000D03*
X80850000Y-133300000D03*
X81500000Y-133300000D03*
X82150000Y-133300000D03*
X82800000Y-133300000D03*
X82800000Y-139200000D03*
X82150000Y-139200000D03*
X81500000Y-139200000D03*
X80850000Y-139200000D03*
X80200000Y-139200000D03*
X79550000Y-139200000D03*
X78900000Y-139200000D03*
X78250000Y-139200000D03*
X77600000Y-139200000D03*
X76950000Y-139200000D03*
G04 #@! TD*
G04 #@! TO.C,U10*
X141750000Y-139200000D03*
X142400000Y-139200000D03*
X143050000Y-139200000D03*
X143700000Y-139200000D03*
X144350000Y-139200000D03*
X145000000Y-139200000D03*
X145650000Y-139200000D03*
X146300000Y-139200000D03*
X146950000Y-139200000D03*
X147600000Y-139200000D03*
X147600000Y-133300000D03*
X146950000Y-133300000D03*
X146300000Y-133300000D03*
X145650000Y-133300000D03*
X145000000Y-133300000D03*
X144350000Y-133300000D03*
X143700000Y-133300000D03*
X143050000Y-133300000D03*
X142400000Y-133300000D03*
X141750000Y-133300000D03*
G04 #@! TD*
G04 #@! TO.C,U11*
X220950000Y-139200000D03*
X221600000Y-139200000D03*
X222250000Y-139200000D03*
X222900000Y-139200000D03*
X223550000Y-139200000D03*
X224200000Y-139200000D03*
X224850000Y-139200000D03*
X225500000Y-139200000D03*
X226150000Y-139200000D03*
X226800000Y-139200000D03*
X226800000Y-133300000D03*
X226150000Y-133300000D03*
X225500000Y-133300000D03*
X224850000Y-133300000D03*
X224200000Y-133300000D03*
X223550000Y-133300000D03*
X222900000Y-133300000D03*
X222250000Y-133300000D03*
X221600000Y-133300000D03*
X220950000Y-133300000D03*
G04 #@! TD*
G04 #@! TO.C,U12*
X242550000Y-133300000D03*
X243200000Y-133300000D03*
X243850000Y-133300000D03*
X244500000Y-133300000D03*
X245150000Y-133300000D03*
X245800000Y-133300000D03*
X246450000Y-133300000D03*
X247100000Y-133300000D03*
X247750000Y-133300000D03*
X248400000Y-133300000D03*
X248400000Y-139200000D03*
X247750000Y-139200000D03*
X247100000Y-139200000D03*
X246450000Y-139200000D03*
X245800000Y-139200000D03*
X245150000Y-139200000D03*
X244500000Y-139200000D03*
X243850000Y-139200000D03*
X243200000Y-139200000D03*
X242550000Y-139200000D03*
G04 #@! TD*
G04 #@! TO.C,U13*
X213750000Y-133300000D03*
X214400000Y-133300000D03*
X215050000Y-133300000D03*
X215700000Y-133300000D03*
X216350000Y-133300000D03*
X217000000Y-133300000D03*
X217650000Y-133300000D03*
X218300000Y-133300000D03*
X218950000Y-133300000D03*
X219600000Y-133300000D03*
X219600000Y-139200000D03*
X218950000Y-139200000D03*
X218300000Y-139200000D03*
X217650000Y-139200000D03*
X217000000Y-139200000D03*
X216350000Y-139200000D03*
X215700000Y-139200000D03*
X215050000Y-139200000D03*
X214400000Y-139200000D03*
X213750000Y-139200000D03*
G04 #@! TD*
G04 #@! TO.C,U14*
X235350000Y-139200000D03*
X236000000Y-139200000D03*
X236650000Y-139200000D03*
X237300000Y-139200000D03*
X237950000Y-139200000D03*
X238600000Y-139200000D03*
X239250000Y-139200000D03*
X239900000Y-139200000D03*
X240550000Y-139200000D03*
X241200000Y-139200000D03*
X241200000Y-133300000D03*
X240550000Y-133300000D03*
X239900000Y-133300000D03*
X239250000Y-133300000D03*
X238600000Y-133300000D03*
X237950000Y-133300000D03*
X237300000Y-133300000D03*
X236650000Y-133300000D03*
X236000000Y-133300000D03*
X235350000Y-133300000D03*
G04 #@! TD*
G04 #@! TO.C,U15*
X206550000Y-139200000D03*
X207200000Y-139200000D03*
X207850000Y-139200000D03*
X208500000Y-139200000D03*
X209150000Y-139200000D03*
X209800000Y-139200000D03*
X210450000Y-139200000D03*
X211100000Y-139200000D03*
X211750000Y-139200000D03*
X212400000Y-139200000D03*
X212400000Y-133300000D03*
X211750000Y-133300000D03*
X211100000Y-133300000D03*
X210450000Y-133300000D03*
X209800000Y-133300000D03*
X209150000Y-133300000D03*
X208500000Y-133300000D03*
X207850000Y-133300000D03*
X207200000Y-133300000D03*
X206550000Y-133300000D03*
G04 #@! TD*
G04 #@! TO.C,U17*
X134550000Y-101400000D03*
X135200000Y-101400000D03*
X135850000Y-101400000D03*
X136500000Y-101400000D03*
X137150000Y-101400000D03*
X137800000Y-101400000D03*
X138450000Y-101400000D03*
X139100000Y-101400000D03*
X139750000Y-101400000D03*
X140400000Y-101400000D03*
X140400000Y-95500000D03*
X139750000Y-95500000D03*
X139100000Y-95500000D03*
X138450000Y-95500000D03*
X137800000Y-95500000D03*
X137150000Y-95500000D03*
X136500000Y-95500000D03*
X135850000Y-95500000D03*
X135200000Y-95500000D03*
X134550000Y-95500000D03*
G04 #@! TD*
G04 #@! TO.C,U18*
X156150000Y-95500000D03*
X156800000Y-95500000D03*
X157450000Y-95500000D03*
X158100000Y-95500000D03*
X158750000Y-95500000D03*
X159400000Y-95500000D03*
X160050000Y-95500000D03*
X160700000Y-95500000D03*
X161350000Y-95500000D03*
X162000000Y-95500000D03*
X162000000Y-101400000D03*
X161350000Y-101400000D03*
X160700000Y-101400000D03*
X160050000Y-101400000D03*
X159400000Y-101400000D03*
X158750000Y-101400000D03*
X158100000Y-101400000D03*
X157450000Y-101400000D03*
X156800000Y-101400000D03*
X156150000Y-101400000D03*
G04 #@! TD*
G04 #@! TO.C,U19*
X127350000Y-101400000D03*
X128000000Y-101400000D03*
X128650000Y-101400000D03*
X129300000Y-101400000D03*
X129950000Y-101400000D03*
X130600000Y-101400000D03*
X131250000Y-101400000D03*
X131900000Y-101400000D03*
X132550000Y-101400000D03*
X133200000Y-101400000D03*
X133200000Y-95500000D03*
X132550000Y-95500000D03*
X131900000Y-95500000D03*
X131250000Y-95500000D03*
X130600000Y-95500000D03*
X129950000Y-95500000D03*
X129300000Y-95500000D03*
X128650000Y-95500000D03*
X128000000Y-95500000D03*
X127350000Y-95500000D03*
G04 #@! TD*
G04 #@! TO.C,U20*
X148950000Y-101400000D03*
X149600000Y-101400000D03*
X150250000Y-101400000D03*
X150900000Y-101400000D03*
X151550000Y-101400000D03*
X152200000Y-101400000D03*
X152850000Y-101400000D03*
X153500000Y-101400000D03*
X154150000Y-101400000D03*
X154800000Y-101400000D03*
X154800000Y-95500000D03*
X154150000Y-95500000D03*
X153500000Y-95500000D03*
X152850000Y-95500000D03*
X152200000Y-95500000D03*
X151550000Y-95500000D03*
X150900000Y-95500000D03*
X150250000Y-95500000D03*
X149600000Y-95500000D03*
X148950000Y-95500000D03*
G04 #@! TD*
G04 #@! TO.C,U21*
X120150000Y-101400000D03*
X120800000Y-101400000D03*
X121450000Y-101400000D03*
X122100000Y-101400000D03*
X122750000Y-101400000D03*
X123400000Y-101400000D03*
X124050000Y-101400000D03*
X124700000Y-101400000D03*
X125350000Y-101400000D03*
X126000000Y-101400000D03*
X126000000Y-95500000D03*
X125350000Y-95500000D03*
X124700000Y-95500000D03*
X124050000Y-95500000D03*
X123400000Y-95500000D03*
X122750000Y-95500000D03*
X122100000Y-95500000D03*
X121450000Y-95500000D03*
X120800000Y-95500000D03*
X120150000Y-95500000D03*
G04 #@! TD*
G04 #@! TO.C,U22*
X141750000Y-95500000D03*
X142400000Y-95500000D03*
X143050000Y-95500000D03*
X143700000Y-95500000D03*
X144350000Y-95500000D03*
X145000000Y-95500000D03*
X145650000Y-95500000D03*
X146300000Y-95500000D03*
X146950000Y-95500000D03*
X147600000Y-95500000D03*
X147600000Y-101400000D03*
X146950000Y-101400000D03*
X146300000Y-101400000D03*
X145650000Y-101400000D03*
X145000000Y-101400000D03*
X144350000Y-101400000D03*
X143700000Y-101400000D03*
X143050000Y-101400000D03*
X142400000Y-101400000D03*
X141750000Y-101400000D03*
G04 #@! TD*
G04 #@! TO.C,U23*
X220950000Y-95500000D03*
X221600000Y-95500000D03*
X222250000Y-95500000D03*
X222900000Y-95500000D03*
X223550000Y-95500000D03*
X224200000Y-95500000D03*
X224850000Y-95500000D03*
X225500000Y-95500000D03*
X226150000Y-95500000D03*
X226800000Y-95500000D03*
X226800000Y-101400000D03*
X226150000Y-101400000D03*
X225500000Y-101400000D03*
X224850000Y-101400000D03*
X224200000Y-101400000D03*
X223550000Y-101400000D03*
X222900000Y-101400000D03*
X222250000Y-101400000D03*
X221600000Y-101400000D03*
X220950000Y-101400000D03*
G04 #@! TD*
G04 #@! TO.C,U24*
X242550000Y-101400000D03*
X243200000Y-101400000D03*
X243850000Y-101400000D03*
X244500000Y-101400000D03*
X245150000Y-101400000D03*
X245800000Y-101400000D03*
X246450000Y-101400000D03*
X247100000Y-101400000D03*
X247750000Y-101400000D03*
X248400000Y-101400000D03*
X248400000Y-95500000D03*
X247750000Y-95500000D03*
X247100000Y-95500000D03*
X246450000Y-95500000D03*
X245800000Y-95500000D03*
X245150000Y-95500000D03*
X244500000Y-95500000D03*
X243850000Y-95500000D03*
X243200000Y-95500000D03*
X242550000Y-95500000D03*
G04 #@! TD*
G04 #@! TO.C,U25*
X213750000Y-95500000D03*
X214400000Y-95500000D03*
X215050000Y-95500000D03*
X215700000Y-95500000D03*
X216350000Y-95500000D03*
X217000000Y-95500000D03*
X217650000Y-95500000D03*
X218300000Y-95500000D03*
X218950000Y-95500000D03*
X219600000Y-95500000D03*
X219600000Y-101400000D03*
X218950000Y-101400000D03*
X218300000Y-101400000D03*
X217650000Y-101400000D03*
X217000000Y-101400000D03*
X216350000Y-101400000D03*
X215700000Y-101400000D03*
X215050000Y-101400000D03*
X214400000Y-101400000D03*
X213750000Y-101400000D03*
G04 #@! TD*
G04 #@! TO.C,U26*
X235350000Y-101400000D03*
X236000000Y-101400000D03*
X236650000Y-101400000D03*
X237300000Y-101400000D03*
X237950000Y-101400000D03*
X238600000Y-101400000D03*
X239250000Y-101400000D03*
X239900000Y-101400000D03*
X240550000Y-101400000D03*
X241200000Y-101400000D03*
X241200000Y-95500000D03*
X240550000Y-95500000D03*
X239900000Y-95500000D03*
X239250000Y-95500000D03*
X238600000Y-95500000D03*
X237950000Y-95500000D03*
X237300000Y-95500000D03*
X236650000Y-95500000D03*
X236000000Y-95500000D03*
X235350000Y-95500000D03*
G04 #@! TD*
G04 #@! TO.C,U27*
X206550000Y-95500000D03*
X207200000Y-95500000D03*
X207850000Y-95500000D03*
X208500000Y-95500000D03*
X209150000Y-95500000D03*
X209800000Y-95500000D03*
X210450000Y-95500000D03*
X211100000Y-95500000D03*
X211750000Y-95500000D03*
X212400000Y-95500000D03*
X212400000Y-101400000D03*
X211750000Y-101400000D03*
X211100000Y-101400000D03*
X210450000Y-101400000D03*
X209800000Y-101400000D03*
X209150000Y-101400000D03*
X208500000Y-101400000D03*
X207850000Y-101400000D03*
X207200000Y-101400000D03*
X206550000Y-101400000D03*
G04 #@! TD*
G04 #@! TO.C,U28*
X228150000Y-101400000D03*
X228800000Y-101400000D03*
X229450000Y-101400000D03*
X230100000Y-101400000D03*
X230750000Y-101400000D03*
X231400000Y-101400000D03*
X232050000Y-101400000D03*
X232700000Y-101400000D03*
X233350000Y-101400000D03*
X234000000Y-101400000D03*
X234000000Y-95500000D03*
X233350000Y-95500000D03*
X232700000Y-95500000D03*
X232050000Y-95500000D03*
X231400000Y-95500000D03*
X230750000Y-95500000D03*
X230100000Y-95500000D03*
X229450000Y-95500000D03*
X228800000Y-95500000D03*
X228150000Y-95500000D03*
G04 #@! TD*
G04 #@! TO.C,U29*
X112750000Y-62400000D03*
X113400000Y-62400000D03*
X114050000Y-62400000D03*
X114700000Y-62400000D03*
X115350000Y-62400000D03*
X116000000Y-62400000D03*
X116650000Y-62400000D03*
X117300000Y-62400000D03*
X117950000Y-62400000D03*
X118600000Y-62400000D03*
X118600000Y-56500000D03*
X117950000Y-56500000D03*
X117300000Y-56500000D03*
X116650000Y-56500000D03*
X116000000Y-56500000D03*
X115350000Y-56500000D03*
X114700000Y-56500000D03*
X114050000Y-56500000D03*
X113400000Y-56500000D03*
X112750000Y-56500000D03*
G04 #@! TD*
G04 #@! TO.C,U30*
X155950000Y-56500000D03*
X156600000Y-56500000D03*
X157250000Y-56500000D03*
X157900000Y-56500000D03*
X158550000Y-56500000D03*
X159200000Y-56500000D03*
X159850000Y-56500000D03*
X160500000Y-56500000D03*
X161150000Y-56500000D03*
X161800000Y-56500000D03*
X161800000Y-62400000D03*
X161150000Y-62400000D03*
X160500000Y-62400000D03*
X159850000Y-62400000D03*
X159200000Y-62400000D03*
X158550000Y-62400000D03*
X157900000Y-62400000D03*
X157250000Y-62400000D03*
X156600000Y-62400000D03*
X155950000Y-62400000D03*
G04 #@! TD*
G04 #@! TO.C,U31*
X98350000Y-62400000D03*
X99000000Y-62400000D03*
X99650000Y-62400000D03*
X100300000Y-62400000D03*
X100950000Y-62400000D03*
X101600000Y-62400000D03*
X102250000Y-62400000D03*
X102900000Y-62400000D03*
X103550000Y-62400000D03*
X104200000Y-62400000D03*
X104200000Y-56500000D03*
X103550000Y-56500000D03*
X102900000Y-56500000D03*
X102250000Y-56500000D03*
X101600000Y-56500000D03*
X100950000Y-56500000D03*
X100300000Y-56500000D03*
X99650000Y-56500000D03*
X99000000Y-56500000D03*
X98350000Y-56500000D03*
G04 #@! TD*
G04 #@! TO.C,U32*
X141550000Y-56500000D03*
X142200000Y-56500000D03*
X142850000Y-56500000D03*
X143500000Y-56500000D03*
X144150000Y-56500000D03*
X144800000Y-56500000D03*
X145450000Y-56500000D03*
X146100000Y-56500000D03*
X146750000Y-56500000D03*
X147400000Y-56500000D03*
X147400000Y-62400000D03*
X146750000Y-62400000D03*
X146100000Y-62400000D03*
X145450000Y-62400000D03*
X144800000Y-62400000D03*
X144150000Y-62400000D03*
X143500000Y-62400000D03*
X142850000Y-62400000D03*
X142200000Y-62400000D03*
X141550000Y-62400000D03*
G04 #@! TD*
G04 #@! TO.C,U33*
X83950000Y-62400000D03*
X84600000Y-62400000D03*
X85250000Y-62400000D03*
X85900000Y-62400000D03*
X86550000Y-62400000D03*
X87200000Y-62400000D03*
X87850000Y-62400000D03*
X88500000Y-62400000D03*
X89150000Y-62400000D03*
X89800000Y-62400000D03*
X89800000Y-56500000D03*
X89150000Y-56500000D03*
X88500000Y-56500000D03*
X87850000Y-56500000D03*
X87200000Y-56500000D03*
X86550000Y-56500000D03*
X85900000Y-56500000D03*
X85250000Y-56500000D03*
X84600000Y-56500000D03*
X83950000Y-56500000D03*
G04 #@! TD*
G04 #@! TO.C,U34*
X127150000Y-56500000D03*
X127800000Y-56500000D03*
X128450000Y-56500000D03*
X129100000Y-56500000D03*
X129750000Y-56500000D03*
X130400000Y-56500000D03*
X131050000Y-56500000D03*
X131700000Y-56500000D03*
X132350000Y-56500000D03*
X133000000Y-56500000D03*
X133000000Y-62400000D03*
X132350000Y-62400000D03*
X131700000Y-62400000D03*
X131050000Y-62400000D03*
X130400000Y-62400000D03*
X129750000Y-62400000D03*
X129100000Y-62400000D03*
X128450000Y-62400000D03*
X127800000Y-62400000D03*
X127150000Y-62400000D03*
G04 #@! TD*
G04 #@! TO.C,U35*
X192000000Y-56500000D03*
X192650000Y-56500000D03*
X193300000Y-56500000D03*
X193950000Y-56500000D03*
X194600000Y-56500000D03*
X195250000Y-56500000D03*
X195900000Y-56500000D03*
X196550000Y-56500000D03*
X197200000Y-56500000D03*
X197850000Y-56500000D03*
X197850000Y-62400000D03*
X197200000Y-62400000D03*
X196550000Y-62400000D03*
X195900000Y-62400000D03*
X195250000Y-62400000D03*
X194600000Y-62400000D03*
X193950000Y-62400000D03*
X193300000Y-62400000D03*
X192650000Y-62400000D03*
X192000000Y-62400000D03*
G04 #@! TD*
G04 #@! TO.C,U36*
X220800000Y-62400000D03*
X221450000Y-62400000D03*
X222100000Y-62400000D03*
X222750000Y-62400000D03*
X223400000Y-62400000D03*
X224050000Y-62400000D03*
X224700000Y-62400000D03*
X225350000Y-62400000D03*
X226000000Y-62400000D03*
X226650000Y-62400000D03*
X226650000Y-56500000D03*
X226000000Y-56500000D03*
X225350000Y-56500000D03*
X224700000Y-56500000D03*
X224050000Y-56500000D03*
X223400000Y-56500000D03*
X222750000Y-56500000D03*
X222100000Y-56500000D03*
X221450000Y-56500000D03*
X220800000Y-56500000D03*
G04 #@! TD*
G04 #@! TO.C,U37*
X184750000Y-56500000D03*
X185400000Y-56500000D03*
X186050000Y-56500000D03*
X186700000Y-56500000D03*
X187350000Y-56500000D03*
X188000000Y-56500000D03*
X188650000Y-56500000D03*
X189300000Y-56500000D03*
X189950000Y-56500000D03*
X190600000Y-56500000D03*
X190600000Y-62400000D03*
X189950000Y-62400000D03*
X189300000Y-62400000D03*
X188650000Y-62400000D03*
X188000000Y-62400000D03*
X187350000Y-62400000D03*
X186700000Y-62400000D03*
X186050000Y-62400000D03*
X185400000Y-62400000D03*
X184750000Y-62400000D03*
G04 #@! TD*
G04 #@! TO.C,U38*
X213600000Y-62400000D03*
X214250000Y-62400000D03*
X214900000Y-62400000D03*
X215550000Y-62400000D03*
X216200000Y-62400000D03*
X216850000Y-62400000D03*
X217500000Y-62400000D03*
X218150000Y-62400000D03*
X218800000Y-62400000D03*
X219450000Y-62400000D03*
X219450000Y-56500000D03*
X218800000Y-56500000D03*
X218150000Y-56500000D03*
X217500000Y-56500000D03*
X216850000Y-56500000D03*
X216200000Y-56500000D03*
X215550000Y-56500000D03*
X214900000Y-56500000D03*
X214250000Y-56500000D03*
X213600000Y-56500000D03*
G04 #@! TD*
G04 #@! TO.C,U39*
X170350000Y-56500000D03*
X171000000Y-56500000D03*
X171650000Y-56500000D03*
X172300000Y-56500000D03*
X172950000Y-56500000D03*
X173600000Y-56500000D03*
X174250000Y-56500000D03*
X174900000Y-56500000D03*
X175550000Y-56500000D03*
X176200000Y-56500000D03*
X176200000Y-62400000D03*
X175550000Y-62400000D03*
X174900000Y-62400000D03*
X174250000Y-62400000D03*
X173600000Y-62400000D03*
X172950000Y-62400000D03*
X172300000Y-62400000D03*
X171650000Y-62400000D03*
X171000000Y-62400000D03*
X170350000Y-62400000D03*
G04 #@! TD*
G04 #@! TO.C,U40*
X206400000Y-62400000D03*
X207050000Y-62400000D03*
X207700000Y-62400000D03*
X208350000Y-62400000D03*
X209000000Y-62400000D03*
X209650000Y-62400000D03*
X210300000Y-62400000D03*
X210950000Y-62400000D03*
X211600000Y-62400000D03*
X212250000Y-62400000D03*
X212250000Y-56500000D03*
X211600000Y-56500000D03*
X210950000Y-56500000D03*
X210300000Y-56500000D03*
X209650000Y-56500000D03*
X209000000Y-56500000D03*
X208350000Y-56500000D03*
X207700000Y-56500000D03*
X207050000Y-56500000D03*
X206400000Y-56500000D03*
G04 #@! TD*
G04 #@! TO.C,U41*
X97200000Y-95500000D03*
X96550000Y-95500000D03*
X95900000Y-95500000D03*
X95250000Y-95500000D03*
X94600000Y-95500000D03*
X93950000Y-95500000D03*
X93300000Y-95500000D03*
X92650000Y-95500000D03*
X92000000Y-95500000D03*
X91350000Y-95500000D03*
X91350000Y-101400000D03*
X92000000Y-101400000D03*
X92650000Y-101400000D03*
X93300000Y-101400000D03*
X93950000Y-101400000D03*
X94600000Y-101400000D03*
X95250000Y-101400000D03*
X95900000Y-101400000D03*
X96550000Y-101400000D03*
X97200000Y-101400000D03*
G04 #@! TD*
G04 #@! TO.C,U42*
X118800000Y-101400000D03*
X118150000Y-101400000D03*
X117500000Y-101400000D03*
X116850000Y-101400000D03*
X116200000Y-101400000D03*
X115550000Y-101400000D03*
X114900000Y-101400000D03*
X114250000Y-101400000D03*
X113600000Y-101400000D03*
X112950000Y-101400000D03*
X112950000Y-95500000D03*
X113600000Y-95500000D03*
X114250000Y-95500000D03*
X114900000Y-95500000D03*
X115550000Y-95500000D03*
X116200000Y-95500000D03*
X116850000Y-95500000D03*
X117500000Y-95500000D03*
X118150000Y-95500000D03*
X118800000Y-95500000D03*
G04 #@! TD*
G04 #@! TO.C,U43*
X90000000Y-95500000D03*
X89350000Y-95500000D03*
X88700000Y-95500000D03*
X88050000Y-95500000D03*
X87400000Y-95500000D03*
X86750000Y-95500000D03*
X86100000Y-95500000D03*
X85450000Y-95500000D03*
X84800000Y-95500000D03*
X84150000Y-95500000D03*
X84150000Y-101400000D03*
X84800000Y-101400000D03*
X85450000Y-101400000D03*
X86100000Y-101400000D03*
X86750000Y-101400000D03*
X87400000Y-101400000D03*
X88050000Y-101400000D03*
X88700000Y-101400000D03*
X89350000Y-101400000D03*
X90000000Y-101400000D03*
G04 #@! TD*
G04 #@! TO.C,U44*
X111600000Y-101400000D03*
X110950000Y-101400000D03*
X110300000Y-101400000D03*
X109650000Y-101400000D03*
X109000000Y-101400000D03*
X108350000Y-101400000D03*
X107700000Y-101400000D03*
X107050000Y-101400000D03*
X106400000Y-101400000D03*
X105750000Y-101400000D03*
X105750000Y-95500000D03*
X106400000Y-95500000D03*
X107050000Y-95500000D03*
X107700000Y-95500000D03*
X108350000Y-95500000D03*
X109000000Y-95500000D03*
X109650000Y-95500000D03*
X110300000Y-95500000D03*
X110950000Y-95500000D03*
X111600000Y-95500000D03*
G04 #@! TD*
G04 #@! TO.C,U45*
X82800000Y-101400000D03*
X82150000Y-101400000D03*
X81500000Y-101400000D03*
X80850000Y-101400000D03*
X80200000Y-101400000D03*
X79550000Y-101400000D03*
X78900000Y-101400000D03*
X78250000Y-101400000D03*
X77600000Y-101400000D03*
X76950000Y-101400000D03*
X76950000Y-95500000D03*
X77600000Y-95500000D03*
X78250000Y-95500000D03*
X78900000Y-95500000D03*
X79550000Y-95500000D03*
X80200000Y-95500000D03*
X80850000Y-95500000D03*
X81500000Y-95500000D03*
X82150000Y-95500000D03*
X82800000Y-95500000D03*
G04 #@! TD*
G04 #@! TO.C,U46*
X104400000Y-101400000D03*
X103750000Y-101400000D03*
X103100000Y-101400000D03*
X102450000Y-101400000D03*
X101800000Y-101400000D03*
X101150000Y-101400000D03*
X100500000Y-101400000D03*
X99850000Y-101400000D03*
X99200000Y-101400000D03*
X98550000Y-101400000D03*
X98550000Y-95500000D03*
X99200000Y-95500000D03*
X99850000Y-95500000D03*
X100500000Y-95500000D03*
X101150000Y-95500000D03*
X101800000Y-95500000D03*
X102450000Y-95500000D03*
X103100000Y-95500000D03*
X103750000Y-95500000D03*
X104400000Y-95500000D03*
G04 #@! TD*
G04 #@! TO.C,U47*
X183600000Y-101400000D03*
X182950000Y-101400000D03*
X182300000Y-101400000D03*
X181650000Y-101400000D03*
X181000000Y-101400000D03*
X180350000Y-101400000D03*
X179700000Y-101400000D03*
X179050000Y-101400000D03*
X178400000Y-101400000D03*
X177750000Y-101400000D03*
X177750000Y-95500000D03*
X178400000Y-95500000D03*
X179050000Y-95500000D03*
X179700000Y-95500000D03*
X180350000Y-95500000D03*
X181000000Y-95500000D03*
X181650000Y-95500000D03*
X182300000Y-95500000D03*
X182950000Y-95500000D03*
X183600000Y-95500000D03*
G04 #@! TD*
G04 #@! TO.C,U48*
X205200000Y-95500000D03*
X204550000Y-95500000D03*
X203900000Y-95500000D03*
X203250000Y-95500000D03*
X202600000Y-95500000D03*
X201950000Y-95500000D03*
X201300000Y-95500000D03*
X200650000Y-95500000D03*
X200000000Y-95500000D03*
X199350000Y-95500000D03*
X199350000Y-101400000D03*
X200000000Y-101400000D03*
X200650000Y-101400000D03*
X201300000Y-101400000D03*
X201950000Y-101400000D03*
X202600000Y-101400000D03*
X203250000Y-101400000D03*
X203900000Y-101400000D03*
X204550000Y-101400000D03*
X205200000Y-101400000D03*
G04 #@! TD*
G04 #@! TO.C,U49*
X176400000Y-101400000D03*
X175750000Y-101400000D03*
X175100000Y-101400000D03*
X174450000Y-101400000D03*
X173800000Y-101400000D03*
X173150000Y-101400000D03*
X172500000Y-101400000D03*
X171850000Y-101400000D03*
X171200000Y-101400000D03*
X170550000Y-101400000D03*
X170550000Y-95500000D03*
X171200000Y-95500000D03*
X171850000Y-95500000D03*
X172500000Y-95500000D03*
X173150000Y-95500000D03*
X173800000Y-95500000D03*
X174450000Y-95500000D03*
X175100000Y-95500000D03*
X175750000Y-95500000D03*
X176400000Y-95500000D03*
G04 #@! TD*
G04 #@! TO.C,U50*
X198000000Y-95500000D03*
X197350000Y-95500000D03*
X196700000Y-95500000D03*
X196050000Y-95500000D03*
X195400000Y-95500000D03*
X194750000Y-95500000D03*
X194100000Y-95500000D03*
X193450000Y-95500000D03*
X192800000Y-95500000D03*
X192150000Y-95500000D03*
X192150000Y-101400000D03*
X192800000Y-101400000D03*
X193450000Y-101400000D03*
X194100000Y-101400000D03*
X194750000Y-101400000D03*
X195400000Y-101400000D03*
X196050000Y-101400000D03*
X196700000Y-101400000D03*
X197350000Y-101400000D03*
X198000000Y-101400000D03*
G04 #@! TD*
G04 #@! TO.C,U51*
X169200000Y-101400000D03*
X168550000Y-101400000D03*
X167900000Y-101400000D03*
X167250000Y-101400000D03*
X166600000Y-101400000D03*
X165950000Y-101400000D03*
X165300000Y-101400000D03*
X164650000Y-101400000D03*
X164000000Y-101400000D03*
X163350000Y-101400000D03*
X163350000Y-95500000D03*
X164000000Y-95500000D03*
X164650000Y-95500000D03*
X165300000Y-95500000D03*
X165950000Y-95500000D03*
X166600000Y-95500000D03*
X167250000Y-95500000D03*
X167900000Y-95500000D03*
X168550000Y-95500000D03*
X169200000Y-95500000D03*
G04 #@! TD*
G04 #@! TO.C,U52*
X190800000Y-95500000D03*
X190150000Y-95500000D03*
X189500000Y-95500000D03*
X188850000Y-95500000D03*
X188200000Y-95500000D03*
X187550000Y-95500000D03*
X186900000Y-95500000D03*
X186250000Y-95500000D03*
X185600000Y-95500000D03*
X184950000Y-95500000D03*
X184950000Y-101400000D03*
X185600000Y-101400000D03*
X186250000Y-101400000D03*
X186900000Y-101400000D03*
X187550000Y-101400000D03*
X188200000Y-101400000D03*
X188850000Y-101400000D03*
X189500000Y-101400000D03*
X190150000Y-101400000D03*
X190800000Y-101400000D03*
G04 #@! TD*
G04 #@! TO.C,U53*
X133200000Y-133300000D03*
X132550000Y-133300000D03*
X131900000Y-133300000D03*
X131250000Y-133300000D03*
X130600000Y-133300000D03*
X129950000Y-133300000D03*
X129300000Y-133300000D03*
X128650000Y-133300000D03*
X128000000Y-133300000D03*
X127350000Y-133300000D03*
X127350000Y-139200000D03*
X128000000Y-139200000D03*
X128650000Y-139200000D03*
X129300000Y-139200000D03*
X129950000Y-139200000D03*
X130600000Y-139200000D03*
X131250000Y-139200000D03*
X131900000Y-139200000D03*
X132550000Y-139200000D03*
X133200000Y-139200000D03*
G04 #@! TD*
G04 #@! TO.C,U54*
X169200000Y-139200000D03*
X168550000Y-139200000D03*
X167900000Y-139200000D03*
X167250000Y-139200000D03*
X166600000Y-139200000D03*
X165950000Y-139200000D03*
X165300000Y-139200000D03*
X164650000Y-139200000D03*
X164000000Y-139200000D03*
X163350000Y-139200000D03*
X163350000Y-133300000D03*
X164000000Y-133300000D03*
X164650000Y-133300000D03*
X165300000Y-133300000D03*
X165950000Y-133300000D03*
X166600000Y-133300000D03*
X167250000Y-133300000D03*
X167900000Y-133300000D03*
X168550000Y-133300000D03*
X169200000Y-133300000D03*
G04 #@! TD*
G04 #@! TO.C,U55*
X97200000Y-133300000D03*
X96550000Y-133300000D03*
X95900000Y-133300000D03*
X95250000Y-133300000D03*
X94600000Y-133300000D03*
X93950000Y-133300000D03*
X93300000Y-133300000D03*
X92650000Y-133300000D03*
X92000000Y-133300000D03*
X91350000Y-133300000D03*
X91350000Y-139200000D03*
X92000000Y-139200000D03*
X92650000Y-139200000D03*
X93300000Y-139200000D03*
X93950000Y-139200000D03*
X94600000Y-139200000D03*
X95250000Y-139200000D03*
X95900000Y-139200000D03*
X96550000Y-139200000D03*
X97200000Y-139200000D03*
G04 #@! TD*
G04 #@! TO.C,U56*
X162000000Y-139200000D03*
X161350000Y-139200000D03*
X160700000Y-139200000D03*
X160050000Y-139200000D03*
X159400000Y-139200000D03*
X158750000Y-139200000D03*
X158100000Y-139200000D03*
X157450000Y-139200000D03*
X156800000Y-139200000D03*
X156150000Y-139200000D03*
X156150000Y-133300000D03*
X156800000Y-133300000D03*
X157450000Y-133300000D03*
X158100000Y-133300000D03*
X158750000Y-133300000D03*
X159400000Y-133300000D03*
X160050000Y-133300000D03*
X160700000Y-133300000D03*
X161350000Y-133300000D03*
X162000000Y-133300000D03*
G04 #@! TD*
G04 #@! TO.C,U57*
X104400000Y-133300000D03*
X103750000Y-133300000D03*
X103100000Y-133300000D03*
X102450000Y-133300000D03*
X101800000Y-133300000D03*
X101150000Y-133300000D03*
X100500000Y-133300000D03*
X99850000Y-133300000D03*
X99200000Y-133300000D03*
X98550000Y-133300000D03*
X98550000Y-139200000D03*
X99200000Y-139200000D03*
X99850000Y-139200000D03*
X100500000Y-139200000D03*
X101150000Y-139200000D03*
X101800000Y-139200000D03*
X102450000Y-139200000D03*
X103100000Y-139200000D03*
X103750000Y-139200000D03*
X104400000Y-139200000D03*
G04 #@! TD*
G04 #@! TO.C,U58*
X118800000Y-139200000D03*
X118150000Y-139200000D03*
X117500000Y-139200000D03*
X116850000Y-139200000D03*
X116200000Y-139200000D03*
X115550000Y-139200000D03*
X114900000Y-139200000D03*
X114250000Y-139200000D03*
X113600000Y-139200000D03*
X112950000Y-139200000D03*
X112950000Y-133300000D03*
X113600000Y-133300000D03*
X114250000Y-133300000D03*
X114900000Y-133300000D03*
X115550000Y-133300000D03*
X116200000Y-133300000D03*
X116850000Y-133300000D03*
X117500000Y-133300000D03*
X118150000Y-133300000D03*
X118800000Y-133300000D03*
G04 #@! TD*
G04 #@! TO.C,U59*
X183600000Y-133300000D03*
X182950000Y-133300000D03*
X182300000Y-133300000D03*
X181650000Y-133300000D03*
X181000000Y-133300000D03*
X180350000Y-133300000D03*
X179700000Y-133300000D03*
X179050000Y-133300000D03*
X178400000Y-133300000D03*
X177750000Y-133300000D03*
X177750000Y-139200000D03*
X178400000Y-139200000D03*
X179050000Y-139200000D03*
X179700000Y-139200000D03*
X180350000Y-139200000D03*
X181000000Y-139200000D03*
X181650000Y-139200000D03*
X182300000Y-139200000D03*
X182950000Y-139200000D03*
X183600000Y-139200000D03*
G04 #@! TD*
G04 #@! TO.C,U60*
X205200000Y-139200000D03*
X204550000Y-139200000D03*
X203900000Y-139200000D03*
X203250000Y-139200000D03*
X202600000Y-139200000D03*
X201950000Y-139200000D03*
X201300000Y-139200000D03*
X200650000Y-139200000D03*
X200000000Y-139200000D03*
X199350000Y-139200000D03*
X199350000Y-133300000D03*
X200000000Y-133300000D03*
X200650000Y-133300000D03*
X201300000Y-133300000D03*
X201950000Y-133300000D03*
X202600000Y-133300000D03*
X203250000Y-133300000D03*
X203900000Y-133300000D03*
X204550000Y-133300000D03*
X205200000Y-133300000D03*
G04 #@! TD*
G04 #@! TO.C,U61*
X176400000Y-133300000D03*
X175750000Y-133300000D03*
X175100000Y-133300000D03*
X174450000Y-133300000D03*
X173800000Y-133300000D03*
X173150000Y-133300000D03*
X172500000Y-133300000D03*
X171850000Y-133300000D03*
X171200000Y-133300000D03*
X170550000Y-133300000D03*
X170550000Y-139200000D03*
X171200000Y-139200000D03*
X171850000Y-139200000D03*
X172500000Y-139200000D03*
X173150000Y-139200000D03*
X173800000Y-139200000D03*
X174450000Y-139200000D03*
X175100000Y-139200000D03*
X175750000Y-139200000D03*
X176400000Y-139200000D03*
G04 #@! TD*
G04 #@! TO.C,U62*
X198000000Y-139200000D03*
X197350000Y-139200000D03*
X196700000Y-139200000D03*
X196050000Y-139200000D03*
X195400000Y-139200000D03*
X194750000Y-139200000D03*
X194100000Y-139200000D03*
X193450000Y-139200000D03*
X192800000Y-139200000D03*
X192150000Y-139200000D03*
X192150000Y-133300000D03*
X192800000Y-133300000D03*
X193450000Y-133300000D03*
X194100000Y-133300000D03*
X194750000Y-133300000D03*
X195400000Y-133300000D03*
X196050000Y-133300000D03*
X196700000Y-133300000D03*
X197350000Y-133300000D03*
X198000000Y-133300000D03*
G04 #@! TD*
G04 #@! TO.C,U63*
X126000000Y-133300000D03*
X125350000Y-133300000D03*
X124700000Y-133300000D03*
X124050000Y-133300000D03*
X123400000Y-133300000D03*
X122750000Y-133300000D03*
X122100000Y-133300000D03*
X121450000Y-133300000D03*
X120800000Y-133300000D03*
X120150000Y-133300000D03*
X120150000Y-139200000D03*
X120800000Y-139200000D03*
X121450000Y-139200000D03*
X122100000Y-139200000D03*
X122750000Y-139200000D03*
X123400000Y-139200000D03*
X124050000Y-139200000D03*
X124700000Y-139200000D03*
X125350000Y-139200000D03*
X126000000Y-139200000D03*
G04 #@! TD*
G04 #@! TO.C,U64*
X190800000Y-139200000D03*
X190150000Y-139200000D03*
X189500000Y-139200000D03*
X188850000Y-139200000D03*
X188200000Y-139200000D03*
X187550000Y-139200000D03*
X186900000Y-139200000D03*
X186250000Y-139200000D03*
X185600000Y-139200000D03*
X184950000Y-139200000D03*
X184950000Y-133300000D03*
X185600000Y-133300000D03*
X186250000Y-133300000D03*
X186900000Y-133300000D03*
X187550000Y-133300000D03*
X188200000Y-133300000D03*
X188850000Y-133300000D03*
X189500000Y-133300000D03*
X190150000Y-133300000D03*
X190800000Y-133300000D03*
G04 #@! TD*
G04 #@! TO.C,U16*
X228150000Y-133300000D03*
X228800000Y-133300000D03*
X229450000Y-133300000D03*
X230100000Y-133300000D03*
X230750000Y-133300000D03*
X231400000Y-133300000D03*
X232050000Y-133300000D03*
X232700000Y-133300000D03*
X233350000Y-133300000D03*
X234000000Y-133300000D03*
X234000000Y-139200000D03*
X233350000Y-139200000D03*
X232700000Y-139200000D03*
X232050000Y-139200000D03*
X231400000Y-139200000D03*
X230750000Y-139200000D03*
X230100000Y-139200000D03*
X229450000Y-139200000D03*
X228800000Y-139200000D03*
X228150000Y-139200000D03*
G04 #@! TD*
D12*
G04 #@! TO.C,P1*
X106040000Y-163010000D03*
X107040000Y-163010000D03*
X108040000Y-163010000D03*
X109040000Y-163010000D03*
X110040000Y-163010000D03*
X111040000Y-163010000D03*
X112040000Y-163010000D03*
X113040000Y-163010000D03*
X114040000Y-163010000D03*
X115040000Y-163010000D03*
X116040000Y-163010000D03*
X119040000Y-163010000D03*
X120040000Y-163010000D03*
X121040000Y-163010000D03*
X122040000Y-163010000D03*
X123040000Y-163010000D03*
X124040000Y-163010000D03*
X125040000Y-163010000D03*
X126040000Y-163010000D03*
X127040000Y-163010000D03*
X128040000Y-163010000D03*
X129040000Y-163010000D03*
X130040000Y-163010000D03*
X131040000Y-163010000D03*
X132040000Y-163010000D03*
X133040000Y-163010000D03*
X134040000Y-163010000D03*
X135040000Y-163010000D03*
X136040000Y-163010000D03*
X137040000Y-163010000D03*
X138040000Y-163010000D03*
X139040000Y-163010000D03*
X140040000Y-163010000D03*
X141040000Y-163010000D03*
X142040000Y-163010000D03*
X143040000Y-163010000D03*
X144040000Y-163010000D03*
X145040000Y-163010000D03*
X146040000Y-163010000D03*
X147040000Y-163010000D03*
X148040000Y-163010000D03*
X149040000Y-163010000D03*
X150040000Y-163010000D03*
X151040000Y-163010000D03*
X152040000Y-163010000D03*
X153040000Y-163010000D03*
X154040000Y-163010000D03*
X155040000Y-163010000D03*
X156040000Y-163010000D03*
X166040000Y-163010000D03*
X179040000Y-163010000D03*
X167040000Y-163010000D03*
X168040000Y-163010000D03*
X169040000Y-163010000D03*
X170040000Y-163010000D03*
X171040000Y-163010000D03*
X172040000Y-163010000D03*
X173040000Y-163010000D03*
X174040000Y-163010000D03*
X175040000Y-163010000D03*
X176040000Y-163010000D03*
X180040000Y-163010000D03*
X181040000Y-163010000D03*
X182040000Y-163010000D03*
X183040000Y-163010000D03*
X184040000Y-163010000D03*
X185040000Y-163010000D03*
X186040000Y-163010000D03*
X187040000Y-163010000D03*
X188040000Y-163010000D03*
X189040000Y-163010000D03*
X190040000Y-163010000D03*
X191040000Y-163010000D03*
X192040000Y-163010000D03*
X193040000Y-163010000D03*
X194040000Y-163010000D03*
X195040000Y-163010000D03*
X196040000Y-163010000D03*
X197040000Y-163010000D03*
X198040000Y-163010000D03*
X199040000Y-163010000D03*
X200040000Y-163010000D03*
X201040000Y-163010000D03*
X202040000Y-163010000D03*
X203040000Y-163010000D03*
X204040000Y-163010000D03*
X205040000Y-163010000D03*
X206040000Y-163010000D03*
X207040000Y-163010000D03*
X208040000Y-163010000D03*
X209040000Y-163010000D03*
X210040000Y-163010000D03*
X211040000Y-163010000D03*
X212040000Y-163010000D03*
X213040000Y-163010000D03*
X214040000Y-163010000D03*
X215040000Y-163010000D03*
X216040000Y-163010000D03*
G04 #@! TD*
D10*
G04 #@! TO.C,C1*
X250600000Y-142450000D03*
X250600000Y-143950000D03*
G04 #@! TD*
G04 #@! TO.C,C2*
X252200000Y-110250000D03*
X252200000Y-111750000D03*
G04 #@! TD*
G04 #@! TO.C,C3*
X68800000Y-130050000D03*
X68800000Y-131550000D03*
G04 #@! TD*
G04 #@! TO.C,C4*
X257600000Y-111550000D03*
X257600000Y-110050000D03*
G04 #@! TD*
G04 #@! TO.C,C5*
X105800000Y-129650000D03*
X105800000Y-131150000D03*
G04 #@! TD*
G04 #@! TO.C,C6*
X134500000Y-131350000D03*
X134500000Y-129850000D03*
G04 #@! TD*
G04 #@! TO.C,C7*
X84100000Y-129850000D03*
X84100000Y-131350000D03*
G04 #@! TD*
G04 #@! TO.C,C8*
X148700000Y-131350000D03*
X148700000Y-129850000D03*
G04 #@! TD*
G04 #@! TO.C,C9*
X76900000Y-129850000D03*
X76900000Y-131350000D03*
G04 #@! TD*
G04 #@! TO.C,C10*
X141800000Y-131350000D03*
X141800000Y-129850000D03*
G04 #@! TD*
G04 #@! TO.C,C11*
X221100000Y-131200000D03*
X221100000Y-129700000D03*
G04 #@! TD*
G04 #@! TO.C,C12*
X242800000Y-131250000D03*
X242800000Y-129750000D03*
G04 #@! TD*
G04 #@! TO.C,C13*
X213700000Y-131250000D03*
X213700000Y-129750000D03*
G04 #@! TD*
G04 #@! TO.C,C14*
X235600000Y-129750000D03*
X235600000Y-131250000D03*
G04 #@! TD*
G04 #@! TO.C,C15*
X206600000Y-131250000D03*
X206600000Y-129750000D03*
G04 #@! TD*
G04 #@! TO.C,C16*
X228100000Y-129750000D03*
X228100000Y-131250000D03*
G04 #@! TD*
G04 #@! TO.C,C17*
X134600000Y-91850000D03*
X134600000Y-93350000D03*
G04 #@! TD*
G04 #@! TO.C,C18*
X156200000Y-91900000D03*
X156200000Y-93400000D03*
G04 #@! TD*
G04 #@! TO.C,C19*
X127400000Y-93350000D03*
X127400000Y-91850000D03*
G04 #@! TD*
G04 #@! TO.C,C20*
X148800000Y-93350000D03*
X148800000Y-91850000D03*
G04 #@! TD*
G04 #@! TO.C,C21*
X120200000Y-91850000D03*
X120200000Y-93350000D03*
G04 #@! TD*
G04 #@! TO.C,C22*
X141800000Y-93350000D03*
X141800000Y-91850000D03*
G04 #@! TD*
G04 #@! TO.C,C23*
X221000000Y-92050000D03*
X221000000Y-93550000D03*
G04 #@! TD*
G04 #@! TO.C,C24*
X242600000Y-92050000D03*
X242600000Y-93550000D03*
G04 #@! TD*
G04 #@! TO.C,C25*
X213800000Y-92050000D03*
X213800000Y-93550000D03*
G04 #@! TD*
G04 #@! TO.C,C26*
X235400000Y-93550000D03*
X235400000Y-92050000D03*
G04 #@! TD*
G04 #@! TO.C,C27*
X206600000Y-93550000D03*
X206600000Y-92050000D03*
G04 #@! TD*
G04 #@! TO.C,C28*
X228200000Y-93550000D03*
X228200000Y-92050000D03*
G04 #@! TD*
G04 #@! TO.C,C29*
X112800000Y-53050000D03*
X112800000Y-54550000D03*
G04 #@! TD*
G04 #@! TO.C,C31*
X98400000Y-53050000D03*
X98400000Y-54550000D03*
G04 #@! TD*
G04 #@! TO.C,C34*
X127000000Y-54550000D03*
X127000000Y-53050000D03*
G04 #@! TD*
G04 #@! TO.C,C41*
X97200000Y-105150000D03*
X97200000Y-103650000D03*
G04 #@! TD*
G04 #@! TO.C,C42*
X118200000Y-103650000D03*
X118200000Y-105150000D03*
G04 #@! TD*
G04 #@! TO.C,C43*
X90000000Y-105150000D03*
X90000000Y-103650000D03*
G04 #@! TD*
G04 #@! TO.C,C44*
X111600000Y-103650000D03*
X111600000Y-105150000D03*
G04 #@! TD*
G04 #@! TO.C,C45*
X82800000Y-105150000D03*
X82800000Y-103650000D03*
G04 #@! TD*
G04 #@! TO.C,C46*
X104400000Y-105150000D03*
X104400000Y-103650000D03*
G04 #@! TD*
G04 #@! TO.C,C47*
X183600000Y-103450000D03*
X183600000Y-104950000D03*
G04 #@! TD*
G04 #@! TO.C,C48*
X205200000Y-104950000D03*
X205200000Y-103450000D03*
G04 #@! TD*
G04 #@! TO.C,C49*
X176200000Y-103400000D03*
X176200000Y-104900000D03*
G04 #@! TD*
G04 #@! TO.C,C50*
X198000000Y-103450000D03*
X198000000Y-104950000D03*
G04 #@! TD*
G04 #@! TO.C,C51*
X169200000Y-104950000D03*
X169200000Y-103450000D03*
G04 #@! TD*
G04 #@! TO.C,C52*
X190800000Y-103450000D03*
X190800000Y-104950000D03*
G04 #@! TD*
G04 #@! TO.C,C53*
X133300000Y-142650000D03*
X133300000Y-141150000D03*
G04 #@! TD*
G04 #@! TO.C,C54*
X169300000Y-142650000D03*
X169300000Y-141150000D03*
G04 #@! TD*
G04 #@! TO.C,C55*
X97300000Y-141250000D03*
X97300000Y-142750000D03*
G04 #@! TD*
G04 #@! TO.C,C56*
X162000000Y-141150000D03*
X162000000Y-142650000D03*
G04 #@! TD*
G04 #@! TO.C,C57*
X104400000Y-141250000D03*
X104400000Y-142750000D03*
G04 #@! TD*
G04 #@! TO.C,C58*
X118800000Y-142650000D03*
X118800000Y-141150000D03*
G04 #@! TD*
G04 #@! TO.C,C59*
X183700000Y-141250000D03*
X183700000Y-142750000D03*
G04 #@! TD*
G04 #@! TO.C,C60*
X205300000Y-142650000D03*
X205300000Y-141150000D03*
G04 #@! TD*
G04 #@! TO.C,C61*
X176900000Y-141250000D03*
X176900000Y-142750000D03*
G04 #@! TD*
G04 #@! TO.C,C62*
X198100000Y-141150000D03*
X198100000Y-142650000D03*
G04 #@! TD*
G04 #@! TO.C,C63*
X126100000Y-142650000D03*
X126100000Y-141150000D03*
G04 #@! TD*
G04 #@! TO.C,C64*
X190800000Y-141150000D03*
X190800000Y-142650000D03*
G04 #@! TD*
D13*
G04 #@! TO.C,C100*
X76000000Y-52900000D03*
X76000000Y-56500000D03*
G04 #@! TD*
G04 #@! TO.C,C101*
X74400000Y-114700000D03*
X74400000Y-111100000D03*
G04 #@! TD*
G04 #@! TO.C,C102*
X243700000Y-58200000D03*
X243700000Y-61800000D03*
G04 #@! TD*
G04 #@! TO.C,C103*
X263700000Y-92200000D03*
X263700000Y-95800000D03*
G04 #@! TD*
G04 #@! TO.C,C104*
X263800000Y-150400000D03*
X263800000Y-146800000D03*
G04 #@! TD*
G04 #@! TO.C,C105*
X71900000Y-148100000D03*
X71900000Y-151700000D03*
G04 #@! TD*
D14*
G04 #@! TO.C,J1*
X262240000Y-81920000D03*
X262240000Y-79380000D03*
X262240000Y-76840000D03*
X262240000Y-74300000D03*
X262240000Y-71760000D03*
X262240000Y-69220000D03*
X262240000Y-66680000D03*
X262240000Y-64140000D03*
X262240000Y-61600000D03*
X259700000Y-81920000D03*
X259700000Y-79380000D03*
X259700000Y-76840000D03*
X259700000Y-74300000D03*
X259700000Y-71760000D03*
X259700000Y-69220000D03*
X259700000Y-66680000D03*
X259700000Y-64140000D03*
D15*
X259700000Y-61600000D03*
G04 #@! TD*
D16*
G04 #@! TO.C,RN1*
X262200000Y-129200000D03*
X262200000Y-132400000D03*
D17*
X263570000Y-129200000D03*
X263570000Y-132400000D03*
X264840000Y-129200000D03*
X264840000Y-132400000D03*
X266110000Y-129200000D03*
X266110000Y-132400000D03*
D16*
X267480000Y-129200000D03*
X267480000Y-132400000D03*
G04 #@! TD*
G04 #@! TO.C,RN2*
X263080000Y-107000000D03*
X263080000Y-103800000D03*
D17*
X261710000Y-107000000D03*
X261710000Y-103800000D03*
X260440000Y-107000000D03*
X260440000Y-103800000D03*
X259170000Y-107000000D03*
X259170000Y-103800000D03*
D16*
X257800000Y-107000000D03*
X257800000Y-103800000D03*
G04 #@! TD*
M02*
