G04 #@! TF.GenerationSoftware,KiCad,Pcbnew,(5.0.0-rc2-35-gda6600525)*
G04 #@! TF.CreationDate,2018-07-08T09:44:57-07:00*
G04 #@! TF.ProjectId,shifter,736869667465722E6B696361645F7063,rev?*
G04 #@! TF.SameCoordinates,Original*
G04 #@! TF.FileFunction,Legend,Top*
G04 #@! TF.FilePolarity,Positive*
%FSLAX46Y46*%
G04 Gerber Fmt 4.6, Leading zero omitted, Abs format (unit mm)*
G04 Created by KiCad (PCBNEW (5.0.0-rc2-35-gda6600525)) date 07/08/18 09:44:57*
%MOMM*%
%LPD*%
G01*
G04 APERTURE LIST*
%ADD10C,0.300000*%
%ADD11C,0.200000*%
%ADD12C,0.152400*%
%ADD13C,0.120000*%
%ADD14C,0.150000*%
G04 APERTURE END LIST*
D10*
X233566428Y-51003571D02*
X232852142Y-51003571D01*
X232852142Y-49503571D01*
X234066428Y-51003571D02*
X234066428Y-49503571D01*
X234566428Y-50575000D01*
X235066428Y-49503571D01*
X235066428Y-51003571D01*
X235709285Y-50575000D02*
X236423571Y-50575000D01*
X235566428Y-51003571D02*
X236066428Y-49503571D01*
X236566428Y-51003571D01*
X237923571Y-51003571D02*
X237423571Y-50289285D01*
X237066428Y-51003571D02*
X237066428Y-49503571D01*
X237637857Y-49503571D01*
X237780714Y-49575000D01*
X237852142Y-49646428D01*
X237923571Y-49789285D01*
X237923571Y-50003571D01*
X237852142Y-50146428D01*
X237780714Y-50217857D01*
X237637857Y-50289285D01*
X237066428Y-50289285D01*
X238352142Y-49503571D02*
X238852142Y-51003571D01*
X239352142Y-49503571D01*
X239852142Y-50432142D02*
X240995000Y-50432142D01*
X242495000Y-51003571D02*
X241637857Y-51003571D01*
X242066428Y-51003571D02*
X242066428Y-49503571D01*
X241923571Y-49717857D01*
X241780714Y-49860714D01*
X241637857Y-49932142D01*
X244995000Y-51003571D02*
X244280714Y-51003571D01*
X244280714Y-49503571D01*
X245780714Y-49503571D02*
X246066428Y-49503571D01*
X246209285Y-49575000D01*
X246352142Y-49717857D01*
X246423571Y-50003571D01*
X246423571Y-50503571D01*
X246352142Y-50789285D01*
X246209285Y-50932142D01*
X246066428Y-51003571D01*
X245780714Y-51003571D01*
X245637857Y-50932142D01*
X245495000Y-50789285D01*
X245423571Y-50503571D01*
X245423571Y-50003571D01*
X245495000Y-49717857D01*
X245637857Y-49575000D01*
X245780714Y-49503571D01*
X247852142Y-49575000D02*
X247709285Y-49503571D01*
X247495000Y-49503571D01*
X247280714Y-49575000D01*
X247137857Y-49717857D01*
X247066428Y-49860714D01*
X246995000Y-50146428D01*
X246995000Y-50360714D01*
X247066428Y-50646428D01*
X247137857Y-50789285D01*
X247280714Y-50932142D01*
X247495000Y-51003571D01*
X247637857Y-51003571D01*
X247852142Y-50932142D01*
X247923571Y-50860714D01*
X247923571Y-50360714D01*
X247637857Y-50360714D01*
X248495000Y-50575000D02*
X249209285Y-50575000D01*
X248352142Y-51003571D02*
X248852142Y-49503571D01*
X249352142Y-51003571D01*
X250709285Y-51003571D02*
X250209285Y-50289285D01*
X249852142Y-51003571D02*
X249852142Y-49503571D01*
X250423571Y-49503571D01*
X250566428Y-49575000D01*
X250637857Y-49646428D01*
X250709285Y-49789285D01*
X250709285Y-50003571D01*
X250637857Y-50146428D01*
X250566428Y-50217857D01*
X250423571Y-50289285D01*
X249852142Y-50289285D01*
X251352142Y-51003571D02*
X251352142Y-49503571D01*
X251852142Y-49503571D02*
X252709285Y-49503571D01*
X252280714Y-51003571D02*
X252280714Y-49503571D01*
X253209285Y-51003571D02*
X253209285Y-49503571D01*
X253209285Y-50217857D02*
X254066428Y-50217857D01*
X254066428Y-51003571D02*
X254066428Y-49503571D01*
X254780714Y-51003571D02*
X254780714Y-49503571D01*
X255280714Y-50575000D01*
X255780714Y-49503571D01*
X255780714Y-51003571D01*
X256495000Y-51003571D02*
X256495000Y-49503571D01*
X258066428Y-50860714D02*
X257995000Y-50932142D01*
X257780714Y-51003571D01*
X257637857Y-51003571D01*
X257423571Y-50932142D01*
X257280714Y-50789285D01*
X257209285Y-50646428D01*
X257137857Y-50360714D01*
X257137857Y-50146428D01*
X257209285Y-49860714D01*
X257280714Y-49717857D01*
X257423571Y-49575000D01*
X257637857Y-49503571D01*
X257780714Y-49503571D01*
X257995000Y-49575000D01*
X258066428Y-49646428D01*
X259780714Y-50932142D02*
X259995000Y-51003571D01*
X260352142Y-51003571D01*
X260495000Y-50932142D01*
X260566428Y-50860714D01*
X260637857Y-50717857D01*
X260637857Y-50575000D01*
X260566428Y-50432142D01*
X260495000Y-50360714D01*
X260352142Y-50289285D01*
X260066428Y-50217857D01*
X259923571Y-50146428D01*
X259852142Y-50075000D01*
X259780714Y-49932142D01*
X259780714Y-49789285D01*
X259852142Y-49646428D01*
X259923571Y-49575000D01*
X260066428Y-49503571D01*
X260423571Y-49503571D01*
X260637857Y-49575000D01*
X261280714Y-51003571D02*
X261280714Y-49503571D01*
X261280714Y-50217857D02*
X262137857Y-50217857D01*
X262137857Y-51003571D02*
X262137857Y-49503571D01*
X262852142Y-51003571D02*
X262852142Y-49503571D01*
X264066428Y-50217857D02*
X263566428Y-50217857D01*
X263566428Y-51003571D02*
X263566428Y-49503571D01*
X264280714Y-49503571D01*
X264637857Y-49503571D02*
X265495000Y-49503571D01*
X265066428Y-51003571D02*
X265066428Y-49503571D01*
X265995000Y-50217857D02*
X266495000Y-50217857D01*
X266709285Y-51003571D02*
X265995000Y-51003571D01*
X265995000Y-49503571D01*
X266709285Y-49503571D01*
X268209285Y-51003571D02*
X267709285Y-50289285D01*
X267352142Y-51003571D02*
X267352142Y-49503571D01*
X267923571Y-49503571D01*
X268066428Y-49575000D01*
X268137857Y-49646428D01*
X268209285Y-49789285D01*
X268209285Y-50003571D01*
X268137857Y-50146428D01*
X268066428Y-50217857D01*
X267923571Y-50289285D01*
X267352142Y-50289285D01*
X233709285Y-53553571D02*
X233209285Y-52839285D01*
X232852142Y-53553571D02*
X232852142Y-52053571D01*
X233423571Y-52053571D01*
X233566428Y-52125000D01*
X233637857Y-52196428D01*
X233709285Y-52339285D01*
X233709285Y-52553571D01*
X233637857Y-52696428D01*
X233566428Y-52767857D01*
X233423571Y-52839285D01*
X232852142Y-52839285D01*
X234352142Y-52767857D02*
X234852142Y-52767857D01*
X235066428Y-53553571D02*
X234352142Y-53553571D01*
X234352142Y-52053571D01*
X235066428Y-52053571D01*
X235495000Y-52053571D02*
X235995000Y-53553571D01*
X236495000Y-52053571D01*
X238066428Y-53125000D02*
X238780714Y-53125000D01*
X237923571Y-53553571D02*
X238423571Y-52053571D01*
X238923571Y-53553571D01*
X241637857Y-52196428D02*
X241709285Y-52125000D01*
X241852142Y-52053571D01*
X242209285Y-52053571D01*
X242352142Y-52125000D01*
X242423571Y-52196428D01*
X242495000Y-52339285D01*
X242495000Y-52482142D01*
X242423571Y-52696428D01*
X241566428Y-53553571D01*
X242495000Y-53553571D01*
X243423571Y-52053571D02*
X243566428Y-52053571D01*
X243709285Y-52125000D01*
X243780714Y-52196428D01*
X243852142Y-52339285D01*
X243923571Y-52625000D01*
X243923571Y-52982142D01*
X243852142Y-53267857D01*
X243780714Y-53410714D01*
X243709285Y-53482142D01*
X243566428Y-53553571D01*
X243423571Y-53553571D01*
X243280714Y-53482142D01*
X243209285Y-53410714D01*
X243137857Y-53267857D01*
X243066428Y-52982142D01*
X243066428Y-52625000D01*
X243137857Y-52339285D01*
X243209285Y-52196428D01*
X243280714Y-52125000D01*
X243423571Y-52053571D01*
X245352142Y-53553571D02*
X244495000Y-53553571D01*
X244923571Y-53553571D02*
X244923571Y-52053571D01*
X244780714Y-52267857D01*
X244637857Y-52410714D01*
X244495000Y-52482142D01*
X246209285Y-52696428D02*
X246066428Y-52625000D01*
X245995000Y-52553571D01*
X245923571Y-52410714D01*
X245923571Y-52339285D01*
X245995000Y-52196428D01*
X246066428Y-52125000D01*
X246209285Y-52053571D01*
X246495000Y-52053571D01*
X246637857Y-52125000D01*
X246709285Y-52196428D01*
X246780714Y-52339285D01*
X246780714Y-52410714D01*
X246709285Y-52553571D01*
X246637857Y-52625000D01*
X246495000Y-52696428D01*
X246209285Y-52696428D01*
X246066428Y-52767857D01*
X245995000Y-52839285D01*
X245923571Y-52982142D01*
X245923571Y-53267857D01*
X245995000Y-53410714D01*
X246066428Y-53482142D01*
X246209285Y-53553571D01*
X246495000Y-53553571D01*
X246637857Y-53482142D01*
X246709285Y-53410714D01*
X246780714Y-53267857D01*
X246780714Y-52982142D01*
X246709285Y-52839285D01*
X246637857Y-52767857D01*
X246495000Y-52696428D01*
X248995000Y-52053571D02*
X248995000Y-53125000D01*
X248923571Y-53339285D01*
X248780714Y-53482142D01*
X248566428Y-53553571D01*
X248423571Y-53553571D01*
X249709285Y-52053571D02*
X249709285Y-53267857D01*
X249780714Y-53410714D01*
X249852142Y-53482142D01*
X249995000Y-53553571D01*
X250280714Y-53553571D01*
X250423571Y-53482142D01*
X250495000Y-53410714D01*
X250566428Y-53267857D01*
X250566428Y-52053571D01*
X251995000Y-53553571D02*
X251280714Y-53553571D01*
X251280714Y-52053571D01*
X254280714Y-52053571D02*
X253995000Y-52053571D01*
X253852142Y-52125000D01*
X253780714Y-52196428D01*
X253637857Y-52410714D01*
X253566428Y-52696428D01*
X253566428Y-53267857D01*
X253637857Y-53410714D01*
X253709285Y-53482142D01*
X253852142Y-53553571D01*
X254137857Y-53553571D01*
X254280714Y-53482142D01*
X254352142Y-53410714D01*
X254423571Y-53267857D01*
X254423571Y-52910714D01*
X254352142Y-52767857D01*
X254280714Y-52696428D01*
X254137857Y-52625000D01*
X253852142Y-52625000D01*
X253709285Y-52696428D01*
X253637857Y-52767857D01*
X253566428Y-52910714D01*
D11*
X263700000Y-79400000D02*
X266200000Y-79400000D01*
X263600000Y-76900000D02*
X268300000Y-76900000D01*
D12*
X253660273Y-62059833D02*
X253744940Y-62102166D01*
X253914273Y-62102166D01*
X253998940Y-62059833D01*
X254041273Y-61975166D01*
X254041273Y-61932833D01*
X253998940Y-61848166D01*
X253914273Y-61805833D01*
X253787273Y-61805833D01*
X253702606Y-61763500D01*
X253660273Y-61678833D01*
X253660273Y-61636500D01*
X253702606Y-61551833D01*
X253787273Y-61509500D01*
X253914273Y-61509500D01*
X253998940Y-61551833D01*
X254422273Y-62102166D02*
X254422273Y-61213166D01*
X254803273Y-62102166D02*
X254803273Y-61636500D01*
X254760940Y-61551833D01*
X254676273Y-61509500D01*
X254549273Y-61509500D01*
X254464606Y-61551833D01*
X254422273Y-61594166D01*
X255226606Y-62102166D02*
X255226606Y-61509500D01*
X255226606Y-61213166D02*
X255184273Y-61255500D01*
X255226606Y-61297833D01*
X255268940Y-61255500D01*
X255226606Y-61213166D01*
X255226606Y-61297833D01*
X255522940Y-61509500D02*
X255861606Y-61509500D01*
X255649940Y-62102166D02*
X255649940Y-61340166D01*
X255692273Y-61255500D01*
X255776940Y-61213166D01*
X255861606Y-61213166D01*
X256030940Y-61509500D02*
X256369606Y-61509500D01*
X256157940Y-61213166D02*
X256157940Y-61975166D01*
X256200273Y-62059833D01*
X256284940Y-62102166D01*
X256369606Y-62102166D01*
X257131606Y-62102166D02*
X256623606Y-62102166D01*
X256877606Y-62102166D02*
X256877606Y-61213166D01*
X256792940Y-61340166D01*
X256708273Y-61424833D01*
X256623606Y-61467166D01*
X253660273Y-64559833D02*
X253744940Y-64602166D01*
X253914273Y-64602166D01*
X253998940Y-64559833D01*
X254041273Y-64475166D01*
X254041273Y-64432833D01*
X253998940Y-64348166D01*
X253914273Y-64305833D01*
X253787273Y-64305833D01*
X253702606Y-64263500D01*
X253660273Y-64178833D01*
X253660273Y-64136500D01*
X253702606Y-64051833D01*
X253787273Y-64009500D01*
X253914273Y-64009500D01*
X253998940Y-64051833D01*
X254422273Y-64602166D02*
X254422273Y-63713166D01*
X254803273Y-64602166D02*
X254803273Y-64136500D01*
X254760940Y-64051833D01*
X254676273Y-64009500D01*
X254549273Y-64009500D01*
X254464606Y-64051833D01*
X254422273Y-64094166D01*
X255226606Y-64602166D02*
X255226606Y-64009500D01*
X255226606Y-63713166D02*
X255184273Y-63755500D01*
X255226606Y-63797833D01*
X255268940Y-63755500D01*
X255226606Y-63713166D01*
X255226606Y-63797833D01*
X255522940Y-64009500D02*
X255861606Y-64009500D01*
X255649940Y-64602166D02*
X255649940Y-63840166D01*
X255692273Y-63755500D01*
X255776940Y-63713166D01*
X255861606Y-63713166D01*
X256030940Y-64009500D02*
X256369606Y-64009500D01*
X256157940Y-63713166D02*
X256157940Y-64475166D01*
X256200273Y-64559833D01*
X256284940Y-64602166D01*
X256369606Y-64602166D01*
X256623606Y-63797833D02*
X256665940Y-63755500D01*
X256750606Y-63713166D01*
X256962273Y-63713166D01*
X257046940Y-63755500D01*
X257089273Y-63797833D01*
X257131606Y-63882500D01*
X257131606Y-63967166D01*
X257089273Y-64094166D01*
X256581273Y-64602166D01*
X257131606Y-64602166D01*
X253760273Y-67059833D02*
X253844940Y-67102166D01*
X254014273Y-67102166D01*
X254098940Y-67059833D01*
X254141273Y-66975166D01*
X254141273Y-66932833D01*
X254098940Y-66848166D01*
X254014273Y-66805833D01*
X253887273Y-66805833D01*
X253802606Y-66763500D01*
X253760273Y-66678833D01*
X253760273Y-66636500D01*
X253802606Y-66551833D01*
X253887273Y-66509500D01*
X254014273Y-66509500D01*
X254098940Y-66551833D01*
X254522273Y-67102166D02*
X254522273Y-66213166D01*
X254903273Y-67102166D02*
X254903273Y-66636500D01*
X254860940Y-66551833D01*
X254776273Y-66509500D01*
X254649273Y-66509500D01*
X254564606Y-66551833D01*
X254522273Y-66594166D01*
X255326606Y-67102166D02*
X255326606Y-66509500D01*
X255326606Y-66213166D02*
X255284273Y-66255500D01*
X255326606Y-66297833D01*
X255368940Y-66255500D01*
X255326606Y-66213166D01*
X255326606Y-66297833D01*
X255622940Y-66509500D02*
X255961606Y-66509500D01*
X255749940Y-67102166D02*
X255749940Y-66340166D01*
X255792273Y-66255500D01*
X255876940Y-66213166D01*
X255961606Y-66213166D01*
X256130940Y-66509500D02*
X256469606Y-66509500D01*
X256257940Y-66213166D02*
X256257940Y-66975166D01*
X256300273Y-67059833D01*
X256384940Y-67102166D01*
X256469606Y-67102166D01*
X257146940Y-66509500D02*
X257146940Y-67102166D01*
X256935273Y-66170833D02*
X256723606Y-66805833D01*
X257273940Y-66805833D01*
X253760273Y-69659833D02*
X253844940Y-69702166D01*
X254014273Y-69702166D01*
X254098940Y-69659833D01*
X254141273Y-69575166D01*
X254141273Y-69532833D01*
X254098940Y-69448166D01*
X254014273Y-69405833D01*
X253887273Y-69405833D01*
X253802606Y-69363500D01*
X253760273Y-69278833D01*
X253760273Y-69236500D01*
X253802606Y-69151833D01*
X253887273Y-69109500D01*
X254014273Y-69109500D01*
X254098940Y-69151833D01*
X254522273Y-69702166D02*
X254522273Y-68813166D01*
X254903273Y-69702166D02*
X254903273Y-69236500D01*
X254860940Y-69151833D01*
X254776273Y-69109500D01*
X254649273Y-69109500D01*
X254564606Y-69151833D01*
X254522273Y-69194166D01*
X255326606Y-69702166D02*
X255326606Y-69109500D01*
X255326606Y-68813166D02*
X255284273Y-68855500D01*
X255326606Y-68897833D01*
X255368940Y-68855500D01*
X255326606Y-68813166D01*
X255326606Y-68897833D01*
X255622940Y-69109500D02*
X255961606Y-69109500D01*
X255749940Y-69702166D02*
X255749940Y-68940166D01*
X255792273Y-68855500D01*
X255876940Y-68813166D01*
X255961606Y-68813166D01*
X256130940Y-69109500D02*
X256469606Y-69109500D01*
X256257940Y-68813166D02*
X256257940Y-69575166D01*
X256300273Y-69659833D01*
X256384940Y-69702166D01*
X256469606Y-69702166D01*
X256892940Y-69194166D02*
X256808273Y-69151833D01*
X256765940Y-69109500D01*
X256723606Y-69024833D01*
X256723606Y-68982500D01*
X256765940Y-68897833D01*
X256808273Y-68855500D01*
X256892940Y-68813166D01*
X257062273Y-68813166D01*
X257146940Y-68855500D01*
X257189273Y-68897833D01*
X257231606Y-68982500D01*
X257231606Y-69024833D01*
X257189273Y-69109500D01*
X257146940Y-69151833D01*
X257062273Y-69194166D01*
X256892940Y-69194166D01*
X256808273Y-69236500D01*
X256765940Y-69278833D01*
X256723606Y-69363500D01*
X256723606Y-69532833D01*
X256765940Y-69617500D01*
X256808273Y-69659833D01*
X256892940Y-69702166D01*
X257062273Y-69702166D01*
X257146940Y-69659833D01*
X257189273Y-69617500D01*
X257231606Y-69532833D01*
X257231606Y-69363500D01*
X257189273Y-69278833D01*
X257146940Y-69236500D01*
X257062273Y-69194166D01*
X252913606Y-72159833D02*
X252998273Y-72202166D01*
X253167606Y-72202166D01*
X253252273Y-72159833D01*
X253294606Y-72075166D01*
X253294606Y-72032833D01*
X253252273Y-71948166D01*
X253167606Y-71905833D01*
X253040606Y-71905833D01*
X252955940Y-71863500D01*
X252913606Y-71778833D01*
X252913606Y-71736500D01*
X252955940Y-71651833D01*
X253040606Y-71609500D01*
X253167606Y-71609500D01*
X253252273Y-71651833D01*
X253675606Y-72202166D02*
X253675606Y-71313166D01*
X254056606Y-72202166D02*
X254056606Y-71736500D01*
X254014273Y-71651833D01*
X253929606Y-71609500D01*
X253802606Y-71609500D01*
X253717940Y-71651833D01*
X253675606Y-71694166D01*
X254479940Y-72202166D02*
X254479940Y-71609500D01*
X254479940Y-71313166D02*
X254437606Y-71355500D01*
X254479940Y-71397833D01*
X254522273Y-71355500D01*
X254479940Y-71313166D01*
X254479940Y-71397833D01*
X254776273Y-71609500D02*
X255114940Y-71609500D01*
X254903273Y-72202166D02*
X254903273Y-71440166D01*
X254945606Y-71355500D01*
X255030273Y-71313166D01*
X255114940Y-71313166D01*
X255284273Y-71609500D02*
X255622940Y-71609500D01*
X255411273Y-71313166D02*
X255411273Y-72075166D01*
X255453606Y-72159833D01*
X255538273Y-72202166D01*
X255622940Y-72202166D01*
X256384940Y-72202166D02*
X255876940Y-72202166D01*
X256130940Y-72202166D02*
X256130940Y-71313166D01*
X256046273Y-71440166D01*
X255961606Y-71524833D01*
X255876940Y-71567166D01*
X257146940Y-71313166D02*
X256977606Y-71313166D01*
X256892940Y-71355500D01*
X256850606Y-71397833D01*
X256765940Y-71524833D01*
X256723606Y-71694166D01*
X256723606Y-72032833D01*
X256765940Y-72117500D01*
X256808273Y-72159833D01*
X256892940Y-72202166D01*
X257062273Y-72202166D01*
X257146940Y-72159833D01*
X257189273Y-72117500D01*
X257231606Y-72032833D01*
X257231606Y-71821166D01*
X257189273Y-71736500D01*
X257146940Y-71694166D01*
X257062273Y-71651833D01*
X256892940Y-71651833D01*
X256808273Y-71694166D01*
X256765940Y-71736500D01*
X256723606Y-71821166D01*
X255471610Y-73561800D02*
X256030940Y-73561800D01*
X255480606Y-74759833D02*
X255565273Y-74802166D01*
X255734606Y-74802166D01*
X255819273Y-74759833D01*
X255861606Y-74675166D01*
X255861606Y-74632833D01*
X255819273Y-74548166D01*
X255734606Y-74505833D01*
X255607606Y-74505833D01*
X255522940Y-74463500D01*
X255480606Y-74378833D01*
X255480606Y-74336500D01*
X255522940Y-74251833D01*
X255607606Y-74209500D01*
X255734606Y-74209500D01*
X255819273Y-74251833D01*
X256030940Y-73561800D02*
X256835273Y-73561800D01*
X256242606Y-74802166D02*
X256242606Y-73913166D01*
X256623606Y-74802166D02*
X256623606Y-74336500D01*
X256581273Y-74251833D01*
X256496606Y-74209500D01*
X256369606Y-74209500D01*
X256284940Y-74251833D01*
X256242606Y-74294166D01*
X256835273Y-73561800D02*
X257300940Y-73561800D01*
X257173940Y-74802166D02*
X257089273Y-74759833D01*
X257046940Y-74675166D01*
X257046940Y-73913166D01*
X252254277Y-76061800D02*
X252813606Y-76061800D01*
X252263273Y-77259833D02*
X252347940Y-77302166D01*
X252517273Y-77302166D01*
X252601940Y-77259833D01*
X252644273Y-77175166D01*
X252644273Y-77132833D01*
X252601940Y-77048166D01*
X252517273Y-77005833D01*
X252390273Y-77005833D01*
X252305606Y-76963500D01*
X252263273Y-76878833D01*
X252263273Y-76836500D01*
X252305606Y-76751833D01*
X252390273Y-76709500D01*
X252517273Y-76709500D01*
X252601940Y-76751833D01*
X252813606Y-76061800D02*
X253617940Y-76061800D01*
X253025273Y-77302166D02*
X253025273Y-76413166D01*
X253406273Y-77302166D02*
X253406273Y-76836500D01*
X253363940Y-76751833D01*
X253279273Y-76709500D01*
X253152273Y-76709500D01*
X253067606Y-76751833D01*
X253025273Y-76794166D01*
X253617940Y-76061800D02*
X254041273Y-76061800D01*
X253829606Y-77302166D02*
X253829606Y-76709500D01*
X253829606Y-76413166D02*
X253787273Y-76455500D01*
X253829606Y-76497833D01*
X253871940Y-76455500D01*
X253829606Y-76413166D01*
X253829606Y-76497833D01*
X254041273Y-76061800D02*
X254549273Y-76061800D01*
X254125940Y-76709500D02*
X254464606Y-76709500D01*
X254252940Y-77302166D02*
X254252940Y-76540166D01*
X254295273Y-76455500D01*
X254379940Y-76413166D01*
X254464606Y-76413166D01*
X254549273Y-76061800D02*
X255057273Y-76061800D01*
X254633940Y-76709500D02*
X254972606Y-76709500D01*
X254760940Y-76413166D02*
X254760940Y-77175166D01*
X254803273Y-77259833D01*
X254887940Y-77302166D01*
X254972606Y-77302166D01*
X255057273Y-76061800D02*
X255734606Y-76061800D01*
X255057273Y-77386833D02*
X255734606Y-77386833D01*
X255734606Y-76061800D02*
X256538940Y-76061800D01*
X256073273Y-77302166D02*
X255988606Y-77259833D01*
X255946273Y-77217500D01*
X255903940Y-77132833D01*
X255903940Y-76878833D01*
X255946273Y-76794166D01*
X255988606Y-76751833D01*
X256073273Y-76709500D01*
X256200273Y-76709500D01*
X256284940Y-76751833D01*
X256327273Y-76794166D01*
X256369606Y-76878833D01*
X256369606Y-77132833D01*
X256327273Y-77217500D01*
X256284940Y-77259833D01*
X256200273Y-77302166D01*
X256073273Y-77302166D01*
X256538940Y-76061800D02*
X257300940Y-76061800D01*
X257089273Y-77259833D02*
X257004606Y-77302166D01*
X256835273Y-77302166D01*
X256750606Y-77259833D01*
X256708273Y-77175166D01*
X256708273Y-76836500D01*
X256750606Y-76751833D01*
X256835273Y-76709500D01*
X257004606Y-76709500D01*
X257089273Y-76751833D01*
X257131606Y-76836500D01*
X257131606Y-76921166D01*
X256708273Y-77005833D01*
X250739273Y-79859833D02*
X250823940Y-79902166D01*
X250993273Y-79902166D01*
X251077940Y-79859833D01*
X251120273Y-79775166D01*
X251120273Y-79732833D01*
X251077940Y-79648166D01*
X250993273Y-79605833D01*
X250866273Y-79605833D01*
X250781606Y-79563500D01*
X250739273Y-79478833D01*
X250739273Y-79436500D01*
X250781606Y-79351833D01*
X250866273Y-79309500D01*
X250993273Y-79309500D01*
X251077940Y-79351833D01*
X251501273Y-79902166D02*
X251501273Y-79013166D01*
X251882273Y-79902166D02*
X251882273Y-79436500D01*
X251839940Y-79351833D01*
X251755273Y-79309500D01*
X251628273Y-79309500D01*
X251543606Y-79351833D01*
X251501273Y-79394166D01*
X252305606Y-79902166D02*
X252305606Y-79309500D01*
X252305606Y-79013166D02*
X252263273Y-79055500D01*
X252305606Y-79097833D01*
X252347940Y-79055500D01*
X252305606Y-79013166D01*
X252305606Y-79097833D01*
X252601940Y-79309500D02*
X252940606Y-79309500D01*
X252728940Y-79902166D02*
X252728940Y-79140166D01*
X252771273Y-79055500D01*
X252855940Y-79013166D01*
X252940606Y-79013166D01*
X253109940Y-79309500D02*
X253448606Y-79309500D01*
X253236940Y-79013166D02*
X253236940Y-79775166D01*
X253279273Y-79859833D01*
X253363940Y-79902166D01*
X253448606Y-79902166D01*
X253533273Y-79986833D02*
X254210606Y-79986833D01*
X254803273Y-79902166D02*
X254803273Y-79436500D01*
X254760940Y-79351833D01*
X254676273Y-79309500D01*
X254506940Y-79309500D01*
X254422273Y-79351833D01*
X254803273Y-79859833D02*
X254718606Y-79902166D01*
X254506940Y-79902166D01*
X254422273Y-79859833D01*
X254379940Y-79775166D01*
X254379940Y-79690500D01*
X254422273Y-79605833D01*
X254506940Y-79563500D01*
X254718606Y-79563500D01*
X254803273Y-79521166D01*
X255226606Y-79902166D02*
X255226606Y-79309500D01*
X255226606Y-79478833D02*
X255268940Y-79394166D01*
X255311273Y-79351833D01*
X255395940Y-79309500D01*
X255480606Y-79309500D01*
X255776940Y-79902166D02*
X255776940Y-79309500D01*
X255776940Y-79013166D02*
X255734606Y-79055500D01*
X255776940Y-79097833D01*
X255819273Y-79055500D01*
X255776940Y-79013166D01*
X255776940Y-79097833D01*
X256073273Y-79309500D02*
X256411940Y-79309500D01*
X256200273Y-79013166D02*
X256200273Y-79775166D01*
X256242606Y-79859833D01*
X256327273Y-79902166D01*
X256411940Y-79902166D01*
X256708273Y-79902166D02*
X256708273Y-79013166D01*
X257089273Y-79902166D02*
X257089273Y-79436500D01*
X257046940Y-79351833D01*
X256962273Y-79309500D01*
X256835273Y-79309500D01*
X256750606Y-79351833D01*
X256708273Y-79394166D01*
X259255500Y-85931060D02*
X259213166Y-86015726D01*
X259213166Y-86142726D01*
X259255500Y-86269726D01*
X259340166Y-86354393D01*
X259424833Y-86396726D01*
X259594166Y-86439060D01*
X259721166Y-86439060D01*
X259890500Y-86396726D01*
X259975166Y-86354393D01*
X260059833Y-86269726D01*
X260102166Y-86142726D01*
X260102166Y-86058060D01*
X260059833Y-85931060D01*
X260017500Y-85888726D01*
X259721166Y-85888726D01*
X259721166Y-86058060D01*
X260102166Y-85507726D02*
X259213166Y-85507726D01*
X260102166Y-84999726D01*
X259213166Y-84999726D01*
X260102166Y-84576393D02*
X259213166Y-84576393D01*
X259213166Y-84364726D01*
X259255500Y-84237726D01*
X259340166Y-84153060D01*
X259424833Y-84110726D01*
X259594166Y-84068393D01*
X259721166Y-84068393D01*
X259890500Y-84110726D01*
X259975166Y-84153060D01*
X260059833Y-84237726D01*
X260102166Y-84364726D01*
X260102166Y-84576393D01*
X261813166Y-86416273D02*
X262702166Y-86119940D01*
X261813166Y-85823606D01*
X262617500Y-85019273D02*
X262659833Y-85061606D01*
X262702166Y-85188606D01*
X262702166Y-85273273D01*
X262659833Y-85400273D01*
X262575166Y-85484940D01*
X262490500Y-85527273D01*
X262321166Y-85569606D01*
X262194166Y-85569606D01*
X262024833Y-85527273D01*
X261940166Y-85484940D01*
X261855500Y-85400273D01*
X261813166Y-85273273D01*
X261813166Y-85188606D01*
X261855500Y-85061606D01*
X261897833Y-85019273D01*
X262617500Y-84130273D02*
X262659833Y-84172606D01*
X262702166Y-84299606D01*
X262702166Y-84384273D01*
X262659833Y-84511273D01*
X262575166Y-84595940D01*
X262490500Y-84638273D01*
X262321166Y-84680606D01*
X262194166Y-84680606D01*
X262024833Y-84638273D01*
X261940166Y-84595940D01*
X261855500Y-84511273D01*
X261813166Y-84384273D01*
X261813166Y-84299606D01*
X261855500Y-84172606D01*
X261897833Y-84130273D01*
X266138200Y-79859397D02*
X266138200Y-80503393D01*
X265490500Y-79910726D02*
X264897833Y-79910726D01*
X265405833Y-79910726D02*
X265448166Y-79953060D01*
X265490500Y-80037726D01*
X265490500Y-80164726D01*
X265448166Y-80249393D01*
X265363500Y-80291726D01*
X264897833Y-80291726D01*
X266138200Y-80503393D02*
X266138200Y-81307726D01*
X264897833Y-80842060D02*
X264940166Y-80757393D01*
X264982500Y-80715060D01*
X265067166Y-80672726D01*
X265321166Y-80672726D01*
X265405833Y-80715060D01*
X265448166Y-80757393D01*
X265490500Y-80842060D01*
X265490500Y-80969060D01*
X265448166Y-81053726D01*
X265405833Y-81096060D01*
X265321166Y-81138393D01*
X265067166Y-81138393D01*
X264982500Y-81096060D01*
X264940166Y-81053726D01*
X264897833Y-80969060D01*
X264897833Y-80842060D01*
X266138200Y-81307726D02*
X266138200Y-82027393D01*
X264940166Y-81477060D02*
X264897833Y-81561726D01*
X264897833Y-81731060D01*
X264940166Y-81815726D01*
X265024833Y-81858060D01*
X265067166Y-81858060D01*
X265151833Y-81815726D01*
X265194166Y-81731060D01*
X265194166Y-81604060D01*
X265236500Y-81519393D01*
X265321166Y-81477060D01*
X265363500Y-81477060D01*
X265448166Y-81519393D01*
X265490500Y-81604060D01*
X265490500Y-81731060D01*
X265448166Y-81815726D01*
X266138200Y-82027393D02*
X266138200Y-82831726D01*
X264897833Y-82239060D02*
X265786833Y-82239060D01*
X264897833Y-82620060D02*
X265363500Y-82620060D01*
X265448166Y-82577726D01*
X265490500Y-82493060D01*
X265490500Y-82366060D01*
X265448166Y-82281393D01*
X265405833Y-82239060D01*
X266138200Y-82831726D02*
X266138200Y-83255060D01*
X264897833Y-83043393D02*
X265490500Y-83043393D01*
X265786833Y-83043393D02*
X265744500Y-83001060D01*
X265702166Y-83043393D01*
X265744500Y-83085726D01*
X265786833Y-83043393D01*
X265702166Y-83043393D01*
X266138200Y-83255060D02*
X266138200Y-83763060D01*
X265490500Y-83339726D02*
X265490500Y-83678393D01*
X264897833Y-83466726D02*
X265659833Y-83466726D01*
X265744500Y-83509060D01*
X265786833Y-83593726D01*
X265786833Y-83678393D01*
X266138200Y-83763060D02*
X266138200Y-84271060D01*
X265490500Y-83847726D02*
X265490500Y-84186393D01*
X265786833Y-83974726D02*
X265024833Y-83974726D01*
X264940166Y-84017060D01*
X264897833Y-84101726D01*
X264897833Y-84186393D01*
X266138200Y-84271060D02*
X266138200Y-85117726D01*
X264897833Y-84948393D02*
X264897833Y-84440393D01*
X264897833Y-84694393D02*
X265786833Y-84694393D01*
X265659833Y-84609726D01*
X265575166Y-84525060D01*
X265532833Y-84440393D01*
X266138200Y-85117726D02*
X266138200Y-85964393D01*
X265786833Y-85710393D02*
X265786833Y-85541060D01*
X265744500Y-85456393D01*
X265702166Y-85414060D01*
X265575166Y-85329393D01*
X265405833Y-85287060D01*
X265067166Y-85287060D01*
X264982500Y-85329393D01*
X264940166Y-85371726D01*
X264897833Y-85456393D01*
X264897833Y-85625726D01*
X264940166Y-85710393D01*
X264982500Y-85752726D01*
X265067166Y-85795060D01*
X265278833Y-85795060D01*
X265363500Y-85752726D01*
X265405833Y-85710393D01*
X265448166Y-85625726D01*
X265448166Y-85456393D01*
X265405833Y-85371726D01*
X265363500Y-85329393D01*
X265278833Y-85287060D01*
X266138200Y-85964393D02*
X266138200Y-86768726D01*
X264897833Y-86303060D02*
X264940166Y-86218393D01*
X264982500Y-86176060D01*
X265067166Y-86133726D01*
X265321166Y-86133726D01*
X265405833Y-86176060D01*
X265448166Y-86218393D01*
X265490500Y-86303060D01*
X265490500Y-86430060D01*
X265448166Y-86514726D01*
X265405833Y-86557060D01*
X265321166Y-86599393D01*
X265067166Y-86599393D01*
X264982500Y-86557060D01*
X264940166Y-86514726D01*
X264897833Y-86430060D01*
X264897833Y-86303060D01*
X266138200Y-86768726D02*
X266138200Y-87530726D01*
X264940166Y-87319060D02*
X264897833Y-87234393D01*
X264897833Y-87065060D01*
X264940166Y-86980393D01*
X265024833Y-86938060D01*
X265363500Y-86938060D01*
X265448166Y-86980393D01*
X265490500Y-87065060D01*
X265490500Y-87234393D01*
X265448166Y-87319060D01*
X265363500Y-87361393D01*
X265278833Y-87361393D01*
X265194166Y-86938060D01*
X268238200Y-77459397D02*
X268238200Y-78018726D01*
X267040166Y-77468393D02*
X266997833Y-77553060D01*
X266997833Y-77722393D01*
X267040166Y-77807060D01*
X267124833Y-77849393D01*
X267167166Y-77849393D01*
X267251833Y-77807060D01*
X267294166Y-77722393D01*
X267294166Y-77595393D01*
X267336500Y-77510726D01*
X267421166Y-77468393D01*
X267463500Y-77468393D01*
X267548166Y-77510726D01*
X267590500Y-77595393D01*
X267590500Y-77722393D01*
X267548166Y-77807060D01*
X268238200Y-78018726D02*
X268238200Y-78823060D01*
X266997833Y-78230393D02*
X267886833Y-78230393D01*
X266997833Y-78611393D02*
X267463500Y-78611393D01*
X267548166Y-78569060D01*
X267590500Y-78484393D01*
X267590500Y-78357393D01*
X267548166Y-78272726D01*
X267505833Y-78230393D01*
X268238200Y-78823060D02*
X268238200Y-79246393D01*
X266997833Y-79034726D02*
X267590500Y-79034726D01*
X267886833Y-79034726D02*
X267844500Y-78992393D01*
X267802166Y-79034726D01*
X267844500Y-79077060D01*
X267886833Y-79034726D01*
X267802166Y-79034726D01*
X268238200Y-79246393D02*
X268238200Y-79754393D01*
X267590500Y-79331060D02*
X267590500Y-79669726D01*
X266997833Y-79458060D02*
X267759833Y-79458060D01*
X267844500Y-79500393D01*
X267886833Y-79585060D01*
X267886833Y-79669726D01*
X268238200Y-79754393D02*
X268238200Y-80262393D01*
X267590500Y-79839060D02*
X267590500Y-80177726D01*
X267886833Y-79966060D02*
X267124833Y-79966060D01*
X267040166Y-80008393D01*
X266997833Y-80093060D01*
X266997833Y-80177726D01*
X268238200Y-80262393D02*
X268238200Y-81109060D01*
X266997833Y-80939726D02*
X266997833Y-80431726D01*
X266997833Y-80685726D02*
X267886833Y-80685726D01*
X267759833Y-80601060D01*
X267675166Y-80516393D01*
X267632833Y-80431726D01*
X268238200Y-81109060D02*
X268238200Y-81955726D01*
X267886833Y-81701726D02*
X267886833Y-81532393D01*
X267844500Y-81447726D01*
X267802166Y-81405393D01*
X267675166Y-81320726D01*
X267505833Y-81278393D01*
X267167166Y-81278393D01*
X267082500Y-81320726D01*
X267040166Y-81363060D01*
X266997833Y-81447726D01*
X266997833Y-81617060D01*
X267040166Y-81701726D01*
X267082500Y-81744060D01*
X267167166Y-81786393D01*
X267378833Y-81786393D01*
X267463500Y-81744060D01*
X267505833Y-81701726D01*
X267548166Y-81617060D01*
X267548166Y-81447726D01*
X267505833Y-81363060D01*
X267463500Y-81320726D01*
X267378833Y-81278393D01*
X268238200Y-81955726D02*
X268238200Y-82760060D01*
X266997833Y-82294393D02*
X267040166Y-82209726D01*
X267082500Y-82167393D01*
X267167166Y-82125060D01*
X267421166Y-82125060D01*
X267505833Y-82167393D01*
X267548166Y-82209726D01*
X267590500Y-82294393D01*
X267590500Y-82421393D01*
X267548166Y-82506060D01*
X267505833Y-82548393D01*
X267421166Y-82590726D01*
X267167166Y-82590726D01*
X267082500Y-82548393D01*
X267040166Y-82506060D01*
X266997833Y-82421393D01*
X266997833Y-82294393D01*
X268238200Y-82760060D02*
X268238200Y-83522060D01*
X267040166Y-83310393D02*
X266997833Y-83225726D01*
X266997833Y-83056393D01*
X267040166Y-82971726D01*
X267124833Y-82929393D01*
X267463500Y-82929393D01*
X267548166Y-82971726D01*
X267590500Y-83056393D01*
X267590500Y-83225726D01*
X267548166Y-83310393D01*
X267463500Y-83352726D01*
X267378833Y-83352726D01*
X267294166Y-82929393D01*
X264759397Y-73561800D02*
X265318726Y-73561800D01*
X264768393Y-74759833D02*
X264853060Y-74802166D01*
X265022393Y-74802166D01*
X265107060Y-74759833D01*
X265149393Y-74675166D01*
X265149393Y-74632833D01*
X265107060Y-74548166D01*
X265022393Y-74505833D01*
X264895393Y-74505833D01*
X264810726Y-74463500D01*
X264768393Y-74378833D01*
X264768393Y-74336500D01*
X264810726Y-74251833D01*
X264895393Y-74209500D01*
X265022393Y-74209500D01*
X265107060Y-74251833D01*
X265318726Y-73561800D02*
X266123060Y-73561800D01*
X265530393Y-74802166D02*
X265530393Y-73913166D01*
X265911393Y-74802166D02*
X265911393Y-74336500D01*
X265869060Y-74251833D01*
X265784393Y-74209500D01*
X265657393Y-74209500D01*
X265572726Y-74251833D01*
X265530393Y-74294166D01*
X266123060Y-73561800D02*
X266673393Y-73561800D01*
X266334726Y-74802166D02*
X266334726Y-74209500D01*
X266334726Y-74378833D02*
X266377060Y-74294166D01*
X266419393Y-74251833D01*
X266504060Y-74209500D01*
X266588726Y-74209500D01*
X264859397Y-70961800D02*
X265418726Y-70961800D01*
X264868393Y-72159833D02*
X264953060Y-72202166D01*
X265122393Y-72202166D01*
X265207060Y-72159833D01*
X265249393Y-72075166D01*
X265249393Y-72032833D01*
X265207060Y-71948166D01*
X265122393Y-71905833D01*
X264995393Y-71905833D01*
X264910726Y-71863500D01*
X264868393Y-71778833D01*
X264868393Y-71736500D01*
X264910726Y-71651833D01*
X264995393Y-71609500D01*
X265122393Y-71609500D01*
X265207060Y-71651833D01*
X265418726Y-70961800D02*
X266223060Y-70961800D01*
X265630393Y-72202166D02*
X265630393Y-71313166D01*
X266011393Y-72202166D02*
X266011393Y-71736500D01*
X265969060Y-71651833D01*
X265884393Y-71609500D01*
X265757393Y-71609500D01*
X265672726Y-71651833D01*
X265630393Y-71694166D01*
X266223060Y-70961800D02*
X266646393Y-70961800D01*
X266434726Y-72202166D02*
X266434726Y-71609500D01*
X266434726Y-71313166D02*
X266392393Y-71355500D01*
X266434726Y-71397833D01*
X266477060Y-71355500D01*
X266434726Y-71313166D01*
X266434726Y-71397833D01*
X266646393Y-70961800D02*
X267154393Y-70961800D01*
X266731060Y-71609500D02*
X267069726Y-71609500D01*
X266858060Y-72202166D02*
X266858060Y-71440166D01*
X266900393Y-71355500D01*
X266985060Y-71313166D01*
X267069726Y-71313166D01*
X267154393Y-70961800D02*
X267662393Y-70961800D01*
X267239060Y-71609500D02*
X267577726Y-71609500D01*
X267366060Y-71313166D02*
X267366060Y-72075166D01*
X267408393Y-72159833D01*
X267493060Y-72202166D01*
X267577726Y-72202166D01*
X267662393Y-70961800D02*
X268509060Y-70961800D01*
X268339726Y-72202166D02*
X267831726Y-72202166D01*
X268085726Y-72202166D02*
X268085726Y-71313166D01*
X268001060Y-71440166D01*
X267916393Y-71524833D01*
X267831726Y-71567166D01*
X268509060Y-70961800D02*
X269355726Y-70961800D01*
X269101726Y-71313166D02*
X268932393Y-71313166D01*
X268847726Y-71355500D01*
X268805393Y-71397833D01*
X268720726Y-71524833D01*
X268678393Y-71694166D01*
X268678393Y-72032833D01*
X268720726Y-72117500D01*
X268763060Y-72159833D01*
X268847726Y-72202166D01*
X269017060Y-72202166D01*
X269101726Y-72159833D01*
X269144060Y-72117500D01*
X269186393Y-72032833D01*
X269186393Y-71821166D01*
X269144060Y-71736500D01*
X269101726Y-71694166D01*
X269017060Y-71651833D01*
X268847726Y-71651833D01*
X268763060Y-71694166D01*
X268720726Y-71736500D01*
X268678393Y-71821166D01*
X264855337Y-68361800D02*
X265414666Y-68361800D01*
X264864333Y-69559833D02*
X264949000Y-69602166D01*
X265118333Y-69602166D01*
X265203000Y-69559833D01*
X265245333Y-69475166D01*
X265245333Y-69432833D01*
X265203000Y-69348166D01*
X265118333Y-69305833D01*
X264991333Y-69305833D01*
X264906666Y-69263500D01*
X264864333Y-69178833D01*
X264864333Y-69136500D01*
X264906666Y-69051833D01*
X264991333Y-69009500D01*
X265118333Y-69009500D01*
X265203000Y-69051833D01*
X265414666Y-68361800D02*
X266219000Y-68361800D01*
X265626333Y-69602166D02*
X265626333Y-68713166D01*
X266007333Y-69602166D02*
X266007333Y-69136500D01*
X265965000Y-69051833D01*
X265880333Y-69009500D01*
X265753333Y-69009500D01*
X265668666Y-69051833D01*
X265626333Y-69094166D01*
X266219000Y-68361800D02*
X266642333Y-68361800D01*
X266430666Y-69602166D02*
X266430666Y-69009500D01*
X266430666Y-68713166D02*
X266388333Y-68755500D01*
X266430666Y-68797833D01*
X266473000Y-68755500D01*
X266430666Y-68713166D01*
X266430666Y-68797833D01*
X266642333Y-68361800D02*
X267150333Y-68361800D01*
X266727000Y-69009500D02*
X267065666Y-69009500D01*
X266854000Y-69602166D02*
X266854000Y-68840166D01*
X266896333Y-68755500D01*
X266981000Y-68713166D01*
X267065666Y-68713166D01*
X267150333Y-68361800D02*
X267658333Y-68361800D01*
X267235000Y-69009500D02*
X267573666Y-69009500D01*
X267362000Y-68713166D02*
X267362000Y-69475166D01*
X267404333Y-69559833D01*
X267489000Y-69602166D01*
X267573666Y-69602166D01*
X267658333Y-68361800D02*
X268505000Y-68361800D01*
X267997000Y-69094166D02*
X267912333Y-69051833D01*
X267870000Y-69009500D01*
X267827666Y-68924833D01*
X267827666Y-68882500D01*
X267870000Y-68797833D01*
X267912333Y-68755500D01*
X267997000Y-68713166D01*
X268166333Y-68713166D01*
X268251000Y-68755500D01*
X268293333Y-68797833D01*
X268335666Y-68882500D01*
X268335666Y-68924833D01*
X268293333Y-69009500D01*
X268251000Y-69051833D01*
X268166333Y-69094166D01*
X267997000Y-69094166D01*
X267912333Y-69136500D01*
X267870000Y-69178833D01*
X267827666Y-69263500D01*
X267827666Y-69432833D01*
X267870000Y-69517500D01*
X267912333Y-69559833D01*
X267997000Y-69602166D01*
X268166333Y-69602166D01*
X268251000Y-69559833D01*
X268293333Y-69517500D01*
X268335666Y-69432833D01*
X268335666Y-69263500D01*
X268293333Y-69178833D01*
X268251000Y-69136500D01*
X268166333Y-69094166D01*
X264855337Y-65861800D02*
X265414666Y-65861800D01*
X264864333Y-67059833D02*
X264949000Y-67102166D01*
X265118333Y-67102166D01*
X265203000Y-67059833D01*
X265245333Y-66975166D01*
X265245333Y-66932833D01*
X265203000Y-66848166D01*
X265118333Y-66805833D01*
X264991333Y-66805833D01*
X264906666Y-66763500D01*
X264864333Y-66678833D01*
X264864333Y-66636500D01*
X264906666Y-66551833D01*
X264991333Y-66509500D01*
X265118333Y-66509500D01*
X265203000Y-66551833D01*
X265414666Y-65861800D02*
X266219000Y-65861800D01*
X265626333Y-67102166D02*
X265626333Y-66213166D01*
X266007333Y-67102166D02*
X266007333Y-66636500D01*
X265965000Y-66551833D01*
X265880333Y-66509500D01*
X265753333Y-66509500D01*
X265668666Y-66551833D01*
X265626333Y-66594166D01*
X266219000Y-65861800D02*
X266642333Y-65861800D01*
X266430666Y-67102166D02*
X266430666Y-66509500D01*
X266430666Y-66213166D02*
X266388333Y-66255500D01*
X266430666Y-66297833D01*
X266473000Y-66255500D01*
X266430666Y-66213166D01*
X266430666Y-66297833D01*
X266642333Y-65861800D02*
X267150333Y-65861800D01*
X266727000Y-66509500D02*
X267065666Y-66509500D01*
X266854000Y-67102166D02*
X266854000Y-66340166D01*
X266896333Y-66255500D01*
X266981000Y-66213166D01*
X267065666Y-66213166D01*
X267150333Y-65861800D02*
X267658333Y-65861800D01*
X267235000Y-66509500D02*
X267573666Y-66509500D01*
X267362000Y-66213166D02*
X267362000Y-66975166D01*
X267404333Y-67059833D01*
X267489000Y-67102166D01*
X267573666Y-67102166D01*
X267658333Y-65861800D02*
X268505000Y-65861800D01*
X268251000Y-66509500D02*
X268251000Y-67102166D01*
X268039333Y-66170833D02*
X267827666Y-66805833D01*
X268378000Y-66805833D01*
X264855337Y-63361800D02*
X265414666Y-63361800D01*
X264864333Y-64559833D02*
X264949000Y-64602166D01*
X265118333Y-64602166D01*
X265203000Y-64559833D01*
X265245333Y-64475166D01*
X265245333Y-64432833D01*
X265203000Y-64348166D01*
X265118333Y-64305833D01*
X264991333Y-64305833D01*
X264906666Y-64263500D01*
X264864333Y-64178833D01*
X264864333Y-64136500D01*
X264906666Y-64051833D01*
X264991333Y-64009500D01*
X265118333Y-64009500D01*
X265203000Y-64051833D01*
X265414666Y-63361800D02*
X266219000Y-63361800D01*
X265626333Y-64602166D02*
X265626333Y-63713166D01*
X266007333Y-64602166D02*
X266007333Y-64136500D01*
X265965000Y-64051833D01*
X265880333Y-64009500D01*
X265753333Y-64009500D01*
X265668666Y-64051833D01*
X265626333Y-64094166D01*
X266219000Y-63361800D02*
X266642333Y-63361800D01*
X266430666Y-64602166D02*
X266430666Y-64009500D01*
X266430666Y-63713166D02*
X266388333Y-63755500D01*
X266430666Y-63797833D01*
X266473000Y-63755500D01*
X266430666Y-63713166D01*
X266430666Y-63797833D01*
X266642333Y-63361800D02*
X267150333Y-63361800D01*
X266727000Y-64009500D02*
X267065666Y-64009500D01*
X266854000Y-64602166D02*
X266854000Y-63840166D01*
X266896333Y-63755500D01*
X266981000Y-63713166D01*
X267065666Y-63713166D01*
X267150333Y-63361800D02*
X267658333Y-63361800D01*
X267235000Y-64009500D02*
X267573666Y-64009500D01*
X267362000Y-63713166D02*
X267362000Y-64475166D01*
X267404333Y-64559833D01*
X267489000Y-64602166D01*
X267573666Y-64602166D01*
X267658333Y-63361800D02*
X268505000Y-63361800D01*
X267827666Y-63797833D02*
X267870000Y-63755500D01*
X267954666Y-63713166D01*
X268166333Y-63713166D01*
X268251000Y-63755500D01*
X268293333Y-63797833D01*
X268335666Y-63882500D01*
X268335666Y-63967166D01*
X268293333Y-64094166D01*
X267785333Y-64602166D01*
X268335666Y-64602166D01*
X264855337Y-60861800D02*
X265414666Y-60861800D01*
X264864333Y-62059833D02*
X264949000Y-62102166D01*
X265118333Y-62102166D01*
X265203000Y-62059833D01*
X265245333Y-61975166D01*
X265245333Y-61932833D01*
X265203000Y-61848166D01*
X265118333Y-61805833D01*
X264991333Y-61805833D01*
X264906666Y-61763500D01*
X264864333Y-61678833D01*
X264864333Y-61636500D01*
X264906666Y-61551833D01*
X264991333Y-61509500D01*
X265118333Y-61509500D01*
X265203000Y-61551833D01*
X265414666Y-60861800D02*
X266219000Y-60861800D01*
X265626333Y-62102166D02*
X265626333Y-61213166D01*
X266007333Y-62102166D02*
X266007333Y-61636500D01*
X265965000Y-61551833D01*
X265880333Y-61509500D01*
X265753333Y-61509500D01*
X265668666Y-61551833D01*
X265626333Y-61594166D01*
X266219000Y-60861800D02*
X266642333Y-60861800D01*
X266430666Y-62102166D02*
X266430666Y-61509500D01*
X266430666Y-61213166D02*
X266388333Y-61255500D01*
X266430666Y-61297833D01*
X266473000Y-61255500D01*
X266430666Y-61213166D01*
X266430666Y-61297833D01*
X266642333Y-60861800D02*
X267150333Y-60861800D01*
X266727000Y-61509500D02*
X267065666Y-61509500D01*
X266854000Y-62102166D02*
X266854000Y-61340166D01*
X266896333Y-61255500D01*
X266981000Y-61213166D01*
X267065666Y-61213166D01*
X267150333Y-60861800D02*
X267658333Y-60861800D01*
X267235000Y-61509500D02*
X267573666Y-61509500D01*
X267362000Y-61213166D02*
X267362000Y-61975166D01*
X267404333Y-62059833D01*
X267489000Y-62102166D01*
X267573666Y-62102166D01*
X267658333Y-60861800D02*
X268505000Y-60861800D01*
X268335666Y-62102166D02*
X267827666Y-62102166D01*
X268081666Y-62102166D02*
X268081666Y-61213166D01*
X267997000Y-61340166D01*
X267912333Y-61424833D01*
X267827666Y-61467166D01*
D13*
G04 #@! TO.C,C30*
X156600000Y-53450000D02*
X156600000Y-54150000D01*
X155400000Y-54150000D02*
X155400000Y-53450000D01*
G04 #@! TO.C,C32*
X141000000Y-54150000D02*
X141000000Y-53450000D01*
X142200000Y-53450000D02*
X142200000Y-54150000D01*
G04 #@! TO.C,C33*
X84600000Y-53450000D02*
X84600000Y-54150000D01*
X83400000Y-54150000D02*
X83400000Y-53450000D01*
G04 #@! TO.C,C35*
X191400000Y-54150000D02*
X191400000Y-53450000D01*
X192600000Y-53450000D02*
X192600000Y-54150000D01*
G04 #@! TO.C,C36*
X220400000Y-54200000D02*
X220400000Y-53500000D01*
X221600000Y-53500000D02*
X221600000Y-54200000D01*
G04 #@! TO.C,C37*
X184000000Y-54150000D02*
X184000000Y-53450000D01*
X185200000Y-53450000D02*
X185200000Y-54150000D01*
G04 #@! TO.C,C38*
X213200000Y-54150000D02*
X213200000Y-53450000D01*
X214400000Y-53450000D02*
X214400000Y-54150000D01*
G04 #@! TO.C,C39*
X169800000Y-54150000D02*
X169800000Y-53450000D01*
X171000000Y-53450000D02*
X171000000Y-54150000D01*
G04 #@! TO.C,C40*
X206000000Y-54150000D02*
X206000000Y-53450000D01*
X207200000Y-53450000D02*
X207200000Y-54150000D01*
D14*
G04 #@! TO.C,U1*
X250225000Y-152900000D02*
X250225000Y-146925000D01*
X257125000Y-151375000D02*
X257125000Y-146925000D01*
G04 #@! TO.C,U2*
X252200000Y-118775000D02*
X252200000Y-120125000D01*
X257325000Y-118775000D02*
X257325000Y-114125000D01*
X252075000Y-118775000D02*
X252075000Y-114125000D01*
X257325000Y-118775000D02*
X257100000Y-118775000D01*
X257325000Y-114125000D02*
X257100000Y-114125000D01*
X252075000Y-114125000D02*
X252300000Y-114125000D01*
X252075000Y-118775000D02*
X252200000Y-118775000D01*
G04 #@! TO.C,U3*
X68150000Y-138675000D02*
X68150000Y-140025000D01*
X73275000Y-138675000D02*
X73275000Y-134025000D01*
X68025000Y-138675000D02*
X68025000Y-134025000D01*
X73275000Y-138675000D02*
X73050000Y-138675000D01*
X73275000Y-134025000D02*
X73050000Y-134025000D01*
X68025000Y-134025000D02*
X68250000Y-134025000D01*
X68025000Y-138675000D02*
X68150000Y-138675000D01*
G04 #@! TO.C,U4*
X257925000Y-118775000D02*
X258050000Y-118775000D01*
X257925000Y-114125000D02*
X258150000Y-114125000D01*
X263175000Y-114125000D02*
X262950000Y-114125000D01*
X263175000Y-118775000D02*
X262950000Y-118775000D01*
X257925000Y-118775000D02*
X257925000Y-114125000D01*
X263175000Y-118775000D02*
X263175000Y-114125000D01*
X258050000Y-118775000D02*
X258050000Y-120125000D01*
G04 #@! TO.C,U5*
X105225000Y-140000000D02*
X105225000Y-134025000D01*
X112125000Y-138475000D02*
X112125000Y-134025000D01*
G04 #@! TO.C,U6*
X140925000Y-138475000D02*
X140925000Y-134025000D01*
X134025000Y-140000000D02*
X134025000Y-134025000D01*
G04 #@! TO.C,U7*
X83625000Y-140000000D02*
X83625000Y-134025000D01*
X90525000Y-138475000D02*
X90525000Y-134025000D01*
G04 #@! TO.C,U8*
X155325000Y-138475000D02*
X155325000Y-134025000D01*
X148425000Y-140000000D02*
X148425000Y-134025000D01*
G04 #@! TO.C,U9*
X76425000Y-140000000D02*
X76425000Y-134025000D01*
X83325000Y-138475000D02*
X83325000Y-134025000D01*
G04 #@! TO.C,U10*
X148125000Y-138475000D02*
X148125000Y-134025000D01*
X141225000Y-140000000D02*
X141225000Y-134025000D01*
G04 #@! TO.C,U11*
X227325000Y-138475000D02*
X227325000Y-134025000D01*
X220425000Y-140000000D02*
X220425000Y-134025000D01*
G04 #@! TO.C,U12*
X242025000Y-140000000D02*
X242025000Y-134025000D01*
X248925000Y-138475000D02*
X248925000Y-134025000D01*
G04 #@! TO.C,U13*
X213225000Y-140000000D02*
X213225000Y-134025000D01*
X220125000Y-138475000D02*
X220125000Y-134025000D01*
G04 #@! TO.C,U14*
X241725000Y-138475000D02*
X241725000Y-134025000D01*
X234825000Y-140000000D02*
X234825000Y-134025000D01*
G04 #@! TO.C,U15*
X212925000Y-138475000D02*
X212925000Y-134025000D01*
X206025000Y-140000000D02*
X206025000Y-134025000D01*
G04 #@! TO.C,U17*
X140925000Y-100675000D02*
X140925000Y-96225000D01*
X134025000Y-102200000D02*
X134025000Y-96225000D01*
G04 #@! TO.C,U18*
X155625000Y-102200000D02*
X155625000Y-96225000D01*
X162525000Y-100675000D02*
X162525000Y-96225000D01*
G04 #@! TO.C,U19*
X133725000Y-100675000D02*
X133725000Y-96225000D01*
X126825000Y-102200000D02*
X126825000Y-96225000D01*
G04 #@! TO.C,U20*
X155325000Y-100675000D02*
X155325000Y-96225000D01*
X148425000Y-102200000D02*
X148425000Y-96225000D01*
G04 #@! TO.C,U21*
X126525000Y-100675000D02*
X126525000Y-96225000D01*
X119625000Y-102200000D02*
X119625000Y-96225000D01*
G04 #@! TO.C,U22*
X141225000Y-102200000D02*
X141225000Y-96225000D01*
X148125000Y-100675000D02*
X148125000Y-96225000D01*
G04 #@! TO.C,U23*
X220425000Y-102200000D02*
X220425000Y-96225000D01*
X227325000Y-100675000D02*
X227325000Y-96225000D01*
G04 #@! TO.C,U24*
X248925000Y-100675000D02*
X248925000Y-96225000D01*
X242025000Y-102200000D02*
X242025000Y-96225000D01*
G04 #@! TO.C,U25*
X213225000Y-102200000D02*
X213225000Y-96225000D01*
X220125000Y-100675000D02*
X220125000Y-96225000D01*
G04 #@! TO.C,U26*
X241725000Y-100675000D02*
X241725000Y-96225000D01*
X234825000Y-102200000D02*
X234825000Y-96225000D01*
G04 #@! TO.C,U27*
X206025000Y-102200000D02*
X206025000Y-96225000D01*
X212925000Y-100675000D02*
X212925000Y-96225000D01*
G04 #@! TO.C,U28*
X234525000Y-100675000D02*
X234525000Y-96225000D01*
X227625000Y-102200000D02*
X227625000Y-96225000D01*
G04 #@! TO.C,U29*
X119125000Y-61675000D02*
X119125000Y-57225000D01*
X112225000Y-63200000D02*
X112225000Y-57225000D01*
G04 #@! TO.C,U30*
X155425000Y-63200000D02*
X155425000Y-57225000D01*
X162325000Y-61675000D02*
X162325000Y-57225000D01*
G04 #@! TO.C,U31*
X104725000Y-61675000D02*
X104725000Y-57225000D01*
X97825000Y-63200000D02*
X97825000Y-57225000D01*
G04 #@! TO.C,U32*
X141025000Y-63200000D02*
X141025000Y-57225000D01*
X147925000Y-61675000D02*
X147925000Y-57225000D01*
G04 #@! TO.C,U33*
X90325000Y-61675000D02*
X90325000Y-57225000D01*
X83425000Y-63200000D02*
X83425000Y-57225000D01*
G04 #@! TO.C,U34*
X126625000Y-63200000D02*
X126625000Y-57225000D01*
X133525000Y-61675000D02*
X133525000Y-57225000D01*
G04 #@! TO.C,U35*
X191475000Y-63200000D02*
X191475000Y-57225000D01*
X198375000Y-61675000D02*
X198375000Y-57225000D01*
G04 #@! TO.C,U36*
X227175000Y-61675000D02*
X227175000Y-57225000D01*
X220275000Y-63200000D02*
X220275000Y-57225000D01*
G04 #@! TO.C,U37*
X184225000Y-63200000D02*
X184225000Y-57225000D01*
X191125000Y-61675000D02*
X191125000Y-57225000D01*
G04 #@! TO.C,U38*
X219975000Y-61675000D02*
X219975000Y-57225000D01*
X213075000Y-63200000D02*
X213075000Y-57225000D01*
G04 #@! TO.C,U39*
X169825000Y-63200000D02*
X169825000Y-57225000D01*
X176725000Y-61675000D02*
X176725000Y-57225000D01*
G04 #@! TO.C,U40*
X212775000Y-61675000D02*
X212775000Y-57225000D01*
X205875000Y-63200000D02*
X205875000Y-57225000D01*
G04 #@! TO.C,U41*
X90825000Y-96225000D02*
X90825000Y-100675000D01*
X97725000Y-94700000D02*
X97725000Y-100675000D01*
G04 #@! TO.C,U42*
X119325000Y-94700000D02*
X119325000Y-100675000D01*
X112425000Y-96225000D02*
X112425000Y-100675000D01*
G04 #@! TO.C,U43*
X83625000Y-96225000D02*
X83625000Y-100675000D01*
X90525000Y-94700000D02*
X90525000Y-100675000D01*
G04 #@! TO.C,U44*
X112125000Y-94700000D02*
X112125000Y-100675000D01*
X105225000Y-96225000D02*
X105225000Y-100675000D01*
G04 #@! TO.C,U45*
X83325000Y-94700000D02*
X83325000Y-100675000D01*
X76425000Y-96225000D02*
X76425000Y-100675000D01*
G04 #@! TO.C,U46*
X104925000Y-94700000D02*
X104925000Y-100675000D01*
X98025000Y-96225000D02*
X98025000Y-100675000D01*
G04 #@! TO.C,U47*
X184125000Y-94700000D02*
X184125000Y-100675000D01*
X177225000Y-96225000D02*
X177225000Y-100675000D01*
G04 #@! TO.C,U48*
X198825000Y-96225000D02*
X198825000Y-100675000D01*
X205725000Y-94700000D02*
X205725000Y-100675000D01*
G04 #@! TO.C,U49*
X176925000Y-94700000D02*
X176925000Y-100675000D01*
X170025000Y-96225000D02*
X170025000Y-100675000D01*
G04 #@! TO.C,U50*
X191625000Y-96225000D02*
X191625000Y-100675000D01*
X198525000Y-94700000D02*
X198525000Y-100675000D01*
G04 #@! TO.C,U51*
X169725000Y-94700000D02*
X169725000Y-100675000D01*
X162825000Y-96225000D02*
X162825000Y-100675000D01*
G04 #@! TO.C,U52*
X184425000Y-96225000D02*
X184425000Y-100675000D01*
X191325000Y-94700000D02*
X191325000Y-100675000D01*
G04 #@! TO.C,U53*
X126825000Y-134025000D02*
X126825000Y-138475000D01*
X133725000Y-132500000D02*
X133725000Y-138475000D01*
G04 #@! TO.C,U54*
X169725000Y-132500000D02*
X169725000Y-138475000D01*
X162825000Y-134025000D02*
X162825000Y-138475000D01*
G04 #@! TO.C,U55*
X90825000Y-134025000D02*
X90825000Y-138475000D01*
X97725000Y-132500000D02*
X97725000Y-138475000D01*
G04 #@! TO.C,U56*
X162525000Y-132500000D02*
X162525000Y-138475000D01*
X155625000Y-134025000D02*
X155625000Y-138475000D01*
G04 #@! TO.C,U57*
X98025000Y-134025000D02*
X98025000Y-138475000D01*
X104925000Y-132500000D02*
X104925000Y-138475000D01*
G04 #@! TO.C,U58*
X119325000Y-132500000D02*
X119325000Y-138475000D01*
X112425000Y-134025000D02*
X112425000Y-138475000D01*
G04 #@! TO.C,U59*
X177225000Y-134025000D02*
X177225000Y-138475000D01*
X184125000Y-132500000D02*
X184125000Y-138475000D01*
G04 #@! TO.C,U60*
X205725000Y-132500000D02*
X205725000Y-138475000D01*
X198825000Y-134025000D02*
X198825000Y-138475000D01*
G04 #@! TO.C,U61*
X170025000Y-134025000D02*
X170025000Y-138475000D01*
X176925000Y-132500000D02*
X176925000Y-138475000D01*
G04 #@! TO.C,U62*
X198525000Y-132500000D02*
X198525000Y-138475000D01*
X191625000Y-134025000D02*
X191625000Y-138475000D01*
G04 #@! TO.C,U63*
X119625000Y-134025000D02*
X119625000Y-138475000D01*
X126525000Y-132500000D02*
X126525000Y-138475000D01*
G04 #@! TO.C,U64*
X191325000Y-132500000D02*
X191325000Y-138475000D01*
X184425000Y-134025000D02*
X184425000Y-138475000D01*
G04 #@! TO.C,U16*
X227625000Y-140000000D02*
X227625000Y-134025000D01*
X234525000Y-138475000D02*
X234525000Y-134025000D01*
D13*
G04 #@! TO.C,P1*
X158140000Y-156910000D02*
X163940000Y-156910000D01*
X102490000Y-158360000D02*
X102490000Y-160610000D01*
X105390000Y-158360000D02*
G75*
G03X102490000Y-158360000I-1450000J0D01*
G01*
X118490000Y-158360000D02*
G75*
G03X116590000Y-158360000I-950000J0D01*
G01*
X116590000Y-160610000D02*
X116590000Y-158360000D01*
X118490000Y-158360000D02*
X118490000Y-160610000D01*
X105390000Y-160610000D02*
X116590000Y-160610000D01*
X116590000Y-160610000D02*
X116590000Y-166410000D01*
X116590000Y-166410000D02*
X105390000Y-166410000D01*
X105390000Y-166410000D02*
X105390000Y-158360000D01*
X156690000Y-160610000D02*
X118490000Y-160610000D01*
X118490000Y-166410000D02*
X156690000Y-166410000D01*
X118490000Y-160610000D02*
X118490000Y-166410000D01*
X156690000Y-158360000D02*
X156690000Y-166410000D01*
X158140000Y-156910000D02*
G75*
G03X156690000Y-158360000I0J-1450000D01*
G01*
X178490000Y-158360000D02*
X178490000Y-160610000D01*
X178490000Y-160610000D02*
X178490000Y-166410000D01*
X216690000Y-160610000D02*
X178490000Y-160610000D01*
X178490000Y-166410000D02*
X216690000Y-166410000D01*
X216690000Y-158360000D02*
X216690000Y-166410000D01*
X219590000Y-158360000D02*
G75*
G03X216690000Y-158360000I-1450000J0D01*
G01*
X219590000Y-158360000D02*
X219590000Y-160610000D01*
X176590000Y-160610000D02*
X176590000Y-166410000D01*
X178490000Y-158360000D02*
G75*
G03X176590000Y-158360000I-950000J0D01*
G01*
X176590000Y-160610000D02*
X176590000Y-158360000D01*
X176590000Y-166410000D02*
X165390000Y-166410000D01*
X165390000Y-160610000D02*
X176590000Y-160610000D01*
X165390000Y-158360000D02*
G75*
G03X163940000Y-156910000I-1450000J0D01*
G01*
X165390000Y-166410000D02*
X165390000Y-158360000D01*
G04 #@! TO.C,C1*
X251200000Y-142850000D02*
X251200000Y-143550000D01*
X250000000Y-143550000D02*
X250000000Y-142850000D01*
G04 #@! TO.C,C2*
X252800000Y-110650000D02*
X252800000Y-111350000D01*
X251600000Y-111350000D02*
X251600000Y-110650000D01*
G04 #@! TO.C,C3*
X69400000Y-130450000D02*
X69400000Y-131150000D01*
X68200000Y-131150000D02*
X68200000Y-130450000D01*
G04 #@! TO.C,C4*
X257000000Y-111150000D02*
X257000000Y-110450000D01*
X258200000Y-110450000D02*
X258200000Y-111150000D01*
G04 #@! TO.C,C5*
X106400000Y-130050000D02*
X106400000Y-130750000D01*
X105200000Y-130750000D02*
X105200000Y-130050000D01*
G04 #@! TO.C,C6*
X133900000Y-130950000D02*
X133900000Y-130250000D01*
X135100000Y-130250000D02*
X135100000Y-130950000D01*
G04 #@! TO.C,C7*
X84700000Y-130250000D02*
X84700000Y-130950000D01*
X83500000Y-130950000D02*
X83500000Y-130250000D01*
G04 #@! TO.C,C8*
X148100000Y-130950000D02*
X148100000Y-130250000D01*
X149300000Y-130250000D02*
X149300000Y-130950000D01*
G04 #@! TO.C,C9*
X77500000Y-130250000D02*
X77500000Y-130950000D01*
X76300000Y-130950000D02*
X76300000Y-130250000D01*
G04 #@! TO.C,C10*
X141200000Y-130950000D02*
X141200000Y-130250000D01*
X142400000Y-130250000D02*
X142400000Y-130950000D01*
G04 #@! TO.C,C11*
X220500000Y-130800000D02*
X220500000Y-130100000D01*
X221700000Y-130100000D02*
X221700000Y-130800000D01*
G04 #@! TO.C,C12*
X242200000Y-130850000D02*
X242200000Y-130150000D01*
X243400000Y-130150000D02*
X243400000Y-130850000D01*
G04 #@! TO.C,C13*
X213100000Y-130850000D02*
X213100000Y-130150000D01*
X214300000Y-130150000D02*
X214300000Y-130850000D01*
G04 #@! TO.C,C14*
X236200000Y-130150000D02*
X236200000Y-130850000D01*
X235000000Y-130850000D02*
X235000000Y-130150000D01*
G04 #@! TO.C,C15*
X206000000Y-130850000D02*
X206000000Y-130150000D01*
X207200000Y-130150000D02*
X207200000Y-130850000D01*
G04 #@! TO.C,C16*
X228700000Y-130150000D02*
X228700000Y-130850000D01*
X227500000Y-130850000D02*
X227500000Y-130150000D01*
G04 #@! TO.C,C17*
X135200000Y-92250000D02*
X135200000Y-92950000D01*
X134000000Y-92950000D02*
X134000000Y-92250000D01*
G04 #@! TO.C,C18*
X156800000Y-92300000D02*
X156800000Y-93000000D01*
X155600000Y-93000000D02*
X155600000Y-92300000D01*
G04 #@! TO.C,C19*
X126800000Y-92950000D02*
X126800000Y-92250000D01*
X128000000Y-92250000D02*
X128000000Y-92950000D01*
G04 #@! TO.C,C20*
X148200000Y-92950000D02*
X148200000Y-92250000D01*
X149400000Y-92250000D02*
X149400000Y-92950000D01*
G04 #@! TO.C,C21*
X120800000Y-92250000D02*
X120800000Y-92950000D01*
X119600000Y-92950000D02*
X119600000Y-92250000D01*
G04 #@! TO.C,C22*
X141200000Y-92950000D02*
X141200000Y-92250000D01*
X142400000Y-92250000D02*
X142400000Y-92950000D01*
G04 #@! TO.C,C23*
X221600000Y-92450000D02*
X221600000Y-93150000D01*
X220400000Y-93150000D02*
X220400000Y-92450000D01*
G04 #@! TO.C,C24*
X243200000Y-92450000D02*
X243200000Y-93150000D01*
X242000000Y-93150000D02*
X242000000Y-92450000D01*
G04 #@! TO.C,C25*
X214400000Y-92450000D02*
X214400000Y-93150000D01*
X213200000Y-93150000D02*
X213200000Y-92450000D01*
G04 #@! TO.C,C26*
X234800000Y-93150000D02*
X234800000Y-92450000D01*
X236000000Y-92450000D02*
X236000000Y-93150000D01*
G04 #@! TO.C,C27*
X206000000Y-93150000D02*
X206000000Y-92450000D01*
X207200000Y-92450000D02*
X207200000Y-93150000D01*
G04 #@! TO.C,C28*
X227600000Y-93150000D02*
X227600000Y-92450000D01*
X228800000Y-92450000D02*
X228800000Y-93150000D01*
G04 #@! TO.C,C29*
X113400000Y-53450000D02*
X113400000Y-54150000D01*
X112200000Y-54150000D02*
X112200000Y-53450000D01*
G04 #@! TO.C,C31*
X99000000Y-53450000D02*
X99000000Y-54150000D01*
X97800000Y-54150000D02*
X97800000Y-53450000D01*
G04 #@! TO.C,C34*
X126400000Y-54150000D02*
X126400000Y-53450000D01*
X127600000Y-53450000D02*
X127600000Y-54150000D01*
G04 #@! TO.C,C41*
X96600000Y-104750000D02*
X96600000Y-104050000D01*
X97800000Y-104050000D02*
X97800000Y-104750000D01*
G04 #@! TO.C,C42*
X118800000Y-104050000D02*
X118800000Y-104750000D01*
X117600000Y-104750000D02*
X117600000Y-104050000D01*
G04 #@! TO.C,C43*
X89400000Y-104750000D02*
X89400000Y-104050000D01*
X90600000Y-104050000D02*
X90600000Y-104750000D01*
G04 #@! TO.C,C44*
X112200000Y-104050000D02*
X112200000Y-104750000D01*
X111000000Y-104750000D02*
X111000000Y-104050000D01*
G04 #@! TO.C,C45*
X82200000Y-104750000D02*
X82200000Y-104050000D01*
X83400000Y-104050000D02*
X83400000Y-104750000D01*
G04 #@! TO.C,C46*
X103800000Y-104750000D02*
X103800000Y-104050000D01*
X105000000Y-104050000D02*
X105000000Y-104750000D01*
G04 #@! TO.C,C47*
X184200000Y-103850000D02*
X184200000Y-104550000D01*
X183000000Y-104550000D02*
X183000000Y-103850000D01*
G04 #@! TO.C,C48*
X204600000Y-104550000D02*
X204600000Y-103850000D01*
X205800000Y-103850000D02*
X205800000Y-104550000D01*
G04 #@! TO.C,C49*
X176800000Y-103800000D02*
X176800000Y-104500000D01*
X175600000Y-104500000D02*
X175600000Y-103800000D01*
G04 #@! TO.C,C50*
X198600000Y-103850000D02*
X198600000Y-104550000D01*
X197400000Y-104550000D02*
X197400000Y-103850000D01*
G04 #@! TO.C,C51*
X168600000Y-104550000D02*
X168600000Y-103850000D01*
X169800000Y-103850000D02*
X169800000Y-104550000D01*
G04 #@! TO.C,C52*
X191400000Y-103850000D02*
X191400000Y-104550000D01*
X190200000Y-104550000D02*
X190200000Y-103850000D01*
G04 #@! TO.C,C53*
X132700000Y-142250000D02*
X132700000Y-141550000D01*
X133900000Y-141550000D02*
X133900000Y-142250000D01*
G04 #@! TO.C,C54*
X168700000Y-142250000D02*
X168700000Y-141550000D01*
X169900000Y-141550000D02*
X169900000Y-142250000D01*
G04 #@! TO.C,C55*
X97900000Y-141650000D02*
X97900000Y-142350000D01*
X96700000Y-142350000D02*
X96700000Y-141650000D01*
G04 #@! TO.C,C56*
X162600000Y-141550000D02*
X162600000Y-142250000D01*
X161400000Y-142250000D02*
X161400000Y-141550000D01*
G04 #@! TO.C,C57*
X105000000Y-141650000D02*
X105000000Y-142350000D01*
X103800000Y-142350000D02*
X103800000Y-141650000D01*
G04 #@! TO.C,C58*
X118200000Y-142250000D02*
X118200000Y-141550000D01*
X119400000Y-141550000D02*
X119400000Y-142250000D01*
G04 #@! TO.C,C59*
X184300000Y-141650000D02*
X184300000Y-142350000D01*
X183100000Y-142350000D02*
X183100000Y-141650000D01*
G04 #@! TO.C,C60*
X204700000Y-142250000D02*
X204700000Y-141550000D01*
X205900000Y-141550000D02*
X205900000Y-142250000D01*
G04 #@! TO.C,C61*
X177500000Y-141650000D02*
X177500000Y-142350000D01*
X176300000Y-142350000D02*
X176300000Y-141650000D01*
G04 #@! TO.C,C62*
X198700000Y-141550000D02*
X198700000Y-142250000D01*
X197500000Y-142250000D02*
X197500000Y-141550000D01*
G04 #@! TO.C,C63*
X125500000Y-142250000D02*
X125500000Y-141550000D01*
X126700000Y-141550000D02*
X126700000Y-142250000D01*
G04 #@! TO.C,C64*
X191400000Y-141550000D02*
X191400000Y-142250000D01*
X190200000Y-142250000D02*
X190200000Y-141550000D01*
G04 #@! TO.C,C100*
X78270000Y-56220000D02*
X77510000Y-56990000D01*
X78270000Y-56220000D02*
X78270000Y-52410000D01*
X73700000Y-56220000D02*
X74460000Y-56990000D01*
X73700000Y-56220000D02*
X73700000Y-52410000D01*
X74460000Y-56990000D02*
X74870000Y-56990000D01*
X77510000Y-56990000D02*
X77100000Y-56990000D01*
X78270000Y-52410000D02*
X77100000Y-52410000D01*
X73700000Y-52410000D02*
X74870000Y-52410000D01*
G04 #@! TO.C,C101*
X72100000Y-110610000D02*
X73270000Y-110610000D01*
X76670000Y-110610000D02*
X75500000Y-110610000D01*
X75910000Y-115190000D02*
X75500000Y-115190000D01*
X72860000Y-115190000D02*
X73270000Y-115190000D01*
X72100000Y-114420000D02*
X72100000Y-110610000D01*
X72100000Y-114420000D02*
X72860000Y-115190000D01*
X76670000Y-114420000D02*
X76670000Y-110610000D01*
X76670000Y-114420000D02*
X75910000Y-115190000D01*
G04 #@! TO.C,C102*
X245970000Y-61520000D02*
X245210000Y-62290000D01*
X245970000Y-61520000D02*
X245970000Y-57710000D01*
X241400000Y-61520000D02*
X242160000Y-62290000D01*
X241400000Y-61520000D02*
X241400000Y-57710000D01*
X242160000Y-62290000D02*
X242570000Y-62290000D01*
X245210000Y-62290000D02*
X244800000Y-62290000D01*
X245970000Y-57710000D02*
X244800000Y-57710000D01*
X241400000Y-57710000D02*
X242570000Y-57710000D01*
G04 #@! TO.C,C103*
X265970000Y-95520000D02*
X265210000Y-96290000D01*
X265970000Y-95520000D02*
X265970000Y-91710000D01*
X261400000Y-95520000D02*
X262160000Y-96290000D01*
X261400000Y-95520000D02*
X261400000Y-91710000D01*
X262160000Y-96290000D02*
X262570000Y-96290000D01*
X265210000Y-96290000D02*
X264800000Y-96290000D01*
X265970000Y-91710000D02*
X264800000Y-91710000D01*
X261400000Y-91710000D02*
X262570000Y-91710000D01*
G04 #@! TO.C,C104*
X261500000Y-146310000D02*
X262670000Y-146310000D01*
X266070000Y-146310000D02*
X264900000Y-146310000D01*
X265310000Y-150890000D02*
X264900000Y-150890000D01*
X262260000Y-150890000D02*
X262670000Y-150890000D01*
X261500000Y-150120000D02*
X261500000Y-146310000D01*
X261500000Y-150120000D02*
X262260000Y-150890000D01*
X266070000Y-150120000D02*
X266070000Y-146310000D01*
X266070000Y-150120000D02*
X265310000Y-150890000D01*
G04 #@! TO.C,C105*
X74170000Y-151420000D02*
X73410000Y-152190000D01*
X74170000Y-151420000D02*
X74170000Y-147610000D01*
X69600000Y-151420000D02*
X70360000Y-152190000D01*
X69600000Y-151420000D02*
X69600000Y-147610000D01*
X70360000Y-152190000D02*
X70770000Y-152190000D01*
X73410000Y-152190000D02*
X73000000Y-152190000D01*
X74170000Y-147610000D02*
X73000000Y-147610000D01*
X69600000Y-147610000D02*
X70770000Y-147610000D01*
G04 #@! TO.C,J1*
X258030000Y-59930000D02*
X258030000Y-61330000D01*
X259430000Y-59930000D02*
X258030000Y-59930000D01*
X258280000Y-83340000D02*
X258280000Y-61430000D01*
X263660000Y-83340000D02*
X258280000Y-83340000D01*
X263660000Y-60180000D02*
X263660000Y-83340000D01*
X259530000Y-60180000D02*
X263660000Y-60180000D01*
D14*
G04 #@! TO.C,RN1*
X268240000Y-132400000D02*
X268240000Y-129200000D01*
X261440000Y-132400000D02*
X261440000Y-129200000D01*
G04 #@! TO.C,RN2*
X257040000Y-107000000D02*
X257040000Y-103800000D01*
X263840000Y-107000000D02*
X263840000Y-103800000D01*
G04 #@! TO.C,C30*
X154857142Y-54442857D02*
X154904761Y-54490476D01*
X154952380Y-54633333D01*
X154952380Y-54728571D01*
X154904761Y-54871428D01*
X154809523Y-54966666D01*
X154714285Y-55014285D01*
X154523809Y-55061904D01*
X154380952Y-55061904D01*
X154190476Y-55014285D01*
X154095238Y-54966666D01*
X154000000Y-54871428D01*
X153952380Y-54728571D01*
X153952380Y-54633333D01*
X154000000Y-54490476D01*
X154047619Y-54442857D01*
X153952380Y-54109523D02*
X153952380Y-53490476D01*
X154333333Y-53823809D01*
X154333333Y-53680952D01*
X154380952Y-53585714D01*
X154428571Y-53538095D01*
X154523809Y-53490476D01*
X154761904Y-53490476D01*
X154857142Y-53538095D01*
X154904761Y-53585714D01*
X154952380Y-53680952D01*
X154952380Y-53966666D01*
X154904761Y-54061904D01*
X154857142Y-54109523D01*
X153952380Y-52871428D02*
X153952380Y-52776190D01*
X154000000Y-52680952D01*
X154047619Y-52633333D01*
X154142857Y-52585714D01*
X154333333Y-52538095D01*
X154571428Y-52538095D01*
X154761904Y-52585714D01*
X154857142Y-52633333D01*
X154904761Y-52680952D01*
X154952380Y-52776190D01*
X154952380Y-52871428D01*
X154904761Y-52966666D01*
X154857142Y-53014285D01*
X154761904Y-53061904D01*
X154571428Y-53109523D01*
X154333333Y-53109523D01*
X154142857Y-53061904D01*
X154047619Y-53014285D01*
X154000000Y-52966666D01*
X153952380Y-52871428D01*
G04 #@! TO.C,C32*
X140457142Y-54442857D02*
X140504761Y-54490476D01*
X140552380Y-54633333D01*
X140552380Y-54728571D01*
X140504761Y-54871428D01*
X140409523Y-54966666D01*
X140314285Y-55014285D01*
X140123809Y-55061904D01*
X139980952Y-55061904D01*
X139790476Y-55014285D01*
X139695238Y-54966666D01*
X139600000Y-54871428D01*
X139552380Y-54728571D01*
X139552380Y-54633333D01*
X139600000Y-54490476D01*
X139647619Y-54442857D01*
X139552380Y-54109523D02*
X139552380Y-53490476D01*
X139933333Y-53823809D01*
X139933333Y-53680952D01*
X139980952Y-53585714D01*
X140028571Y-53538095D01*
X140123809Y-53490476D01*
X140361904Y-53490476D01*
X140457142Y-53538095D01*
X140504761Y-53585714D01*
X140552380Y-53680952D01*
X140552380Y-53966666D01*
X140504761Y-54061904D01*
X140457142Y-54109523D01*
X139647619Y-53109523D02*
X139600000Y-53061904D01*
X139552380Y-52966666D01*
X139552380Y-52728571D01*
X139600000Y-52633333D01*
X139647619Y-52585714D01*
X139742857Y-52538095D01*
X139838095Y-52538095D01*
X139980952Y-52585714D01*
X140552380Y-53157142D01*
X140552380Y-52538095D01*
G04 #@! TO.C,C33*
X82857142Y-54442857D02*
X82904761Y-54490476D01*
X82952380Y-54633333D01*
X82952380Y-54728571D01*
X82904761Y-54871428D01*
X82809523Y-54966666D01*
X82714285Y-55014285D01*
X82523809Y-55061904D01*
X82380952Y-55061904D01*
X82190476Y-55014285D01*
X82095238Y-54966666D01*
X82000000Y-54871428D01*
X81952380Y-54728571D01*
X81952380Y-54633333D01*
X82000000Y-54490476D01*
X82047619Y-54442857D01*
X81952380Y-54109523D02*
X81952380Y-53490476D01*
X82333333Y-53823809D01*
X82333333Y-53680952D01*
X82380952Y-53585714D01*
X82428571Y-53538095D01*
X82523809Y-53490476D01*
X82761904Y-53490476D01*
X82857142Y-53538095D01*
X82904761Y-53585714D01*
X82952380Y-53680952D01*
X82952380Y-53966666D01*
X82904761Y-54061904D01*
X82857142Y-54109523D01*
X81952380Y-53157142D02*
X81952380Y-52538095D01*
X82333333Y-52871428D01*
X82333333Y-52728571D01*
X82380952Y-52633333D01*
X82428571Y-52585714D01*
X82523809Y-52538095D01*
X82761904Y-52538095D01*
X82857142Y-52585714D01*
X82904761Y-52633333D01*
X82952380Y-52728571D01*
X82952380Y-53014285D01*
X82904761Y-53109523D01*
X82857142Y-53157142D01*
G04 #@! TO.C,C35*
X190857142Y-54442857D02*
X190904761Y-54490476D01*
X190952380Y-54633333D01*
X190952380Y-54728571D01*
X190904761Y-54871428D01*
X190809523Y-54966666D01*
X190714285Y-55014285D01*
X190523809Y-55061904D01*
X190380952Y-55061904D01*
X190190476Y-55014285D01*
X190095238Y-54966666D01*
X190000000Y-54871428D01*
X189952380Y-54728571D01*
X189952380Y-54633333D01*
X190000000Y-54490476D01*
X190047619Y-54442857D01*
X189952380Y-54109523D02*
X189952380Y-53490476D01*
X190333333Y-53823809D01*
X190333333Y-53680952D01*
X190380952Y-53585714D01*
X190428571Y-53538095D01*
X190523809Y-53490476D01*
X190761904Y-53490476D01*
X190857142Y-53538095D01*
X190904761Y-53585714D01*
X190952380Y-53680952D01*
X190952380Y-53966666D01*
X190904761Y-54061904D01*
X190857142Y-54109523D01*
X189952380Y-52585714D02*
X189952380Y-53061904D01*
X190428571Y-53109523D01*
X190380952Y-53061904D01*
X190333333Y-52966666D01*
X190333333Y-52728571D01*
X190380952Y-52633333D01*
X190428571Y-52585714D01*
X190523809Y-52538095D01*
X190761904Y-52538095D01*
X190857142Y-52585714D01*
X190904761Y-52633333D01*
X190952380Y-52728571D01*
X190952380Y-52966666D01*
X190904761Y-53061904D01*
X190857142Y-53109523D01*
G04 #@! TO.C,C36*
X219857142Y-54492857D02*
X219904761Y-54540476D01*
X219952380Y-54683333D01*
X219952380Y-54778571D01*
X219904761Y-54921428D01*
X219809523Y-55016666D01*
X219714285Y-55064285D01*
X219523809Y-55111904D01*
X219380952Y-55111904D01*
X219190476Y-55064285D01*
X219095238Y-55016666D01*
X219000000Y-54921428D01*
X218952380Y-54778571D01*
X218952380Y-54683333D01*
X219000000Y-54540476D01*
X219047619Y-54492857D01*
X218952380Y-54159523D02*
X218952380Y-53540476D01*
X219333333Y-53873809D01*
X219333333Y-53730952D01*
X219380952Y-53635714D01*
X219428571Y-53588095D01*
X219523809Y-53540476D01*
X219761904Y-53540476D01*
X219857142Y-53588095D01*
X219904761Y-53635714D01*
X219952380Y-53730952D01*
X219952380Y-54016666D01*
X219904761Y-54111904D01*
X219857142Y-54159523D01*
X218952380Y-52683333D02*
X218952380Y-52873809D01*
X219000000Y-52969047D01*
X219047619Y-53016666D01*
X219190476Y-53111904D01*
X219380952Y-53159523D01*
X219761904Y-53159523D01*
X219857142Y-53111904D01*
X219904761Y-53064285D01*
X219952380Y-52969047D01*
X219952380Y-52778571D01*
X219904761Y-52683333D01*
X219857142Y-52635714D01*
X219761904Y-52588095D01*
X219523809Y-52588095D01*
X219428571Y-52635714D01*
X219380952Y-52683333D01*
X219333333Y-52778571D01*
X219333333Y-52969047D01*
X219380952Y-53064285D01*
X219428571Y-53111904D01*
X219523809Y-53159523D01*
G04 #@! TO.C,C37*
X183457142Y-54442857D02*
X183504761Y-54490476D01*
X183552380Y-54633333D01*
X183552380Y-54728571D01*
X183504761Y-54871428D01*
X183409523Y-54966666D01*
X183314285Y-55014285D01*
X183123809Y-55061904D01*
X182980952Y-55061904D01*
X182790476Y-55014285D01*
X182695238Y-54966666D01*
X182600000Y-54871428D01*
X182552380Y-54728571D01*
X182552380Y-54633333D01*
X182600000Y-54490476D01*
X182647619Y-54442857D01*
X182552380Y-54109523D02*
X182552380Y-53490476D01*
X182933333Y-53823809D01*
X182933333Y-53680952D01*
X182980952Y-53585714D01*
X183028571Y-53538095D01*
X183123809Y-53490476D01*
X183361904Y-53490476D01*
X183457142Y-53538095D01*
X183504761Y-53585714D01*
X183552380Y-53680952D01*
X183552380Y-53966666D01*
X183504761Y-54061904D01*
X183457142Y-54109523D01*
X182552380Y-53157142D02*
X182552380Y-52490476D01*
X183552380Y-52919047D01*
G04 #@! TO.C,C38*
X212657142Y-54442857D02*
X212704761Y-54490476D01*
X212752380Y-54633333D01*
X212752380Y-54728571D01*
X212704761Y-54871428D01*
X212609523Y-54966666D01*
X212514285Y-55014285D01*
X212323809Y-55061904D01*
X212180952Y-55061904D01*
X211990476Y-55014285D01*
X211895238Y-54966666D01*
X211800000Y-54871428D01*
X211752380Y-54728571D01*
X211752380Y-54633333D01*
X211800000Y-54490476D01*
X211847619Y-54442857D01*
X211752380Y-54109523D02*
X211752380Y-53490476D01*
X212133333Y-53823809D01*
X212133333Y-53680952D01*
X212180952Y-53585714D01*
X212228571Y-53538095D01*
X212323809Y-53490476D01*
X212561904Y-53490476D01*
X212657142Y-53538095D01*
X212704761Y-53585714D01*
X212752380Y-53680952D01*
X212752380Y-53966666D01*
X212704761Y-54061904D01*
X212657142Y-54109523D01*
X212180952Y-52919047D02*
X212133333Y-53014285D01*
X212085714Y-53061904D01*
X211990476Y-53109523D01*
X211942857Y-53109523D01*
X211847619Y-53061904D01*
X211800000Y-53014285D01*
X211752380Y-52919047D01*
X211752380Y-52728571D01*
X211800000Y-52633333D01*
X211847619Y-52585714D01*
X211942857Y-52538095D01*
X211990476Y-52538095D01*
X212085714Y-52585714D01*
X212133333Y-52633333D01*
X212180952Y-52728571D01*
X212180952Y-52919047D01*
X212228571Y-53014285D01*
X212276190Y-53061904D01*
X212371428Y-53109523D01*
X212561904Y-53109523D01*
X212657142Y-53061904D01*
X212704761Y-53014285D01*
X212752380Y-52919047D01*
X212752380Y-52728571D01*
X212704761Y-52633333D01*
X212657142Y-52585714D01*
X212561904Y-52538095D01*
X212371428Y-52538095D01*
X212276190Y-52585714D01*
X212228571Y-52633333D01*
X212180952Y-52728571D01*
G04 #@! TO.C,C39*
X169257142Y-54442857D02*
X169304761Y-54490476D01*
X169352380Y-54633333D01*
X169352380Y-54728571D01*
X169304761Y-54871428D01*
X169209523Y-54966666D01*
X169114285Y-55014285D01*
X168923809Y-55061904D01*
X168780952Y-55061904D01*
X168590476Y-55014285D01*
X168495238Y-54966666D01*
X168400000Y-54871428D01*
X168352380Y-54728571D01*
X168352380Y-54633333D01*
X168400000Y-54490476D01*
X168447619Y-54442857D01*
X168352380Y-54109523D02*
X168352380Y-53490476D01*
X168733333Y-53823809D01*
X168733333Y-53680952D01*
X168780952Y-53585714D01*
X168828571Y-53538095D01*
X168923809Y-53490476D01*
X169161904Y-53490476D01*
X169257142Y-53538095D01*
X169304761Y-53585714D01*
X169352380Y-53680952D01*
X169352380Y-53966666D01*
X169304761Y-54061904D01*
X169257142Y-54109523D01*
X169352380Y-53014285D02*
X169352380Y-52823809D01*
X169304761Y-52728571D01*
X169257142Y-52680952D01*
X169114285Y-52585714D01*
X168923809Y-52538095D01*
X168542857Y-52538095D01*
X168447619Y-52585714D01*
X168400000Y-52633333D01*
X168352380Y-52728571D01*
X168352380Y-52919047D01*
X168400000Y-53014285D01*
X168447619Y-53061904D01*
X168542857Y-53109523D01*
X168780952Y-53109523D01*
X168876190Y-53061904D01*
X168923809Y-53014285D01*
X168971428Y-52919047D01*
X168971428Y-52728571D01*
X168923809Y-52633333D01*
X168876190Y-52585714D01*
X168780952Y-52538095D01*
G04 #@! TO.C,C40*
X205457142Y-54442857D02*
X205504761Y-54490476D01*
X205552380Y-54633333D01*
X205552380Y-54728571D01*
X205504761Y-54871428D01*
X205409523Y-54966666D01*
X205314285Y-55014285D01*
X205123809Y-55061904D01*
X204980952Y-55061904D01*
X204790476Y-55014285D01*
X204695238Y-54966666D01*
X204600000Y-54871428D01*
X204552380Y-54728571D01*
X204552380Y-54633333D01*
X204600000Y-54490476D01*
X204647619Y-54442857D01*
X204885714Y-53585714D02*
X205552380Y-53585714D01*
X204504761Y-53823809D02*
X205219047Y-54061904D01*
X205219047Y-53442857D01*
X204552380Y-52871428D02*
X204552380Y-52776190D01*
X204600000Y-52680952D01*
X204647619Y-52633333D01*
X204742857Y-52585714D01*
X204933333Y-52538095D01*
X205171428Y-52538095D01*
X205361904Y-52585714D01*
X205457142Y-52633333D01*
X205504761Y-52680952D01*
X205552380Y-52776190D01*
X205552380Y-52871428D01*
X205504761Y-52966666D01*
X205457142Y-53014285D01*
X205361904Y-53061904D01*
X205171428Y-53109523D01*
X204933333Y-53109523D01*
X204742857Y-53061904D01*
X204647619Y-53014285D01*
X204600000Y-52966666D01*
X204552380Y-52871428D01*
G04 #@! TO.C,U1*
X248827380Y-149911904D02*
X249636904Y-149911904D01*
X249732142Y-149864285D01*
X249779761Y-149816666D01*
X249827380Y-149721428D01*
X249827380Y-149530952D01*
X249779761Y-149435714D01*
X249732142Y-149388095D01*
X249636904Y-149340476D01*
X248827380Y-149340476D01*
X249827380Y-148340476D02*
X249827380Y-148911904D01*
X249827380Y-148626190D02*
X248827380Y-148626190D01*
X248970238Y-148721428D01*
X249065476Y-148816666D01*
X249113095Y-148911904D01*
G04 #@! TO.C,U2*
X250602380Y-117211904D02*
X251411904Y-117211904D01*
X251507142Y-117164285D01*
X251554761Y-117116666D01*
X251602380Y-117021428D01*
X251602380Y-116830952D01*
X251554761Y-116735714D01*
X251507142Y-116688095D01*
X251411904Y-116640476D01*
X250602380Y-116640476D01*
X250697619Y-116211904D02*
X250650000Y-116164285D01*
X250602380Y-116069047D01*
X250602380Y-115830952D01*
X250650000Y-115735714D01*
X250697619Y-115688095D01*
X250792857Y-115640476D01*
X250888095Y-115640476D01*
X251030952Y-115688095D01*
X251602380Y-116259523D01*
X251602380Y-115640476D01*
G04 #@! TO.C,U3*
X66552380Y-137111904D02*
X67361904Y-137111904D01*
X67457142Y-137064285D01*
X67504761Y-137016666D01*
X67552380Y-136921428D01*
X67552380Y-136730952D01*
X67504761Y-136635714D01*
X67457142Y-136588095D01*
X67361904Y-136540476D01*
X66552380Y-136540476D01*
X66552380Y-136159523D02*
X66552380Y-135540476D01*
X66933333Y-135873809D01*
X66933333Y-135730952D01*
X66980952Y-135635714D01*
X67028571Y-135588095D01*
X67123809Y-135540476D01*
X67361904Y-135540476D01*
X67457142Y-135588095D01*
X67504761Y-135635714D01*
X67552380Y-135730952D01*
X67552380Y-136016666D01*
X67504761Y-136111904D01*
X67457142Y-136159523D01*
G04 #@! TO.C,U4*
X256452380Y-117211904D02*
X257261904Y-117211904D01*
X257357142Y-117164285D01*
X257404761Y-117116666D01*
X257452380Y-117021428D01*
X257452380Y-116830952D01*
X257404761Y-116735714D01*
X257357142Y-116688095D01*
X257261904Y-116640476D01*
X256452380Y-116640476D01*
X256785714Y-115735714D02*
X257452380Y-115735714D01*
X256404761Y-115973809D02*
X257119047Y-116211904D01*
X257119047Y-115592857D01*
G04 #@! TO.C,U5*
X103827380Y-137011904D02*
X104636904Y-137011904D01*
X104732142Y-136964285D01*
X104779761Y-136916666D01*
X104827380Y-136821428D01*
X104827380Y-136630952D01*
X104779761Y-136535714D01*
X104732142Y-136488095D01*
X104636904Y-136440476D01*
X103827380Y-136440476D01*
X103827380Y-135488095D02*
X103827380Y-135964285D01*
X104303571Y-136011904D01*
X104255952Y-135964285D01*
X104208333Y-135869047D01*
X104208333Y-135630952D01*
X104255952Y-135535714D01*
X104303571Y-135488095D01*
X104398809Y-135440476D01*
X104636904Y-135440476D01*
X104732142Y-135488095D01*
X104779761Y-135535714D01*
X104827380Y-135630952D01*
X104827380Y-135869047D01*
X104779761Y-135964285D01*
X104732142Y-136011904D01*
G04 #@! TO.C,U6*
X132627380Y-137011904D02*
X133436904Y-137011904D01*
X133532142Y-136964285D01*
X133579761Y-136916666D01*
X133627380Y-136821428D01*
X133627380Y-136630952D01*
X133579761Y-136535714D01*
X133532142Y-136488095D01*
X133436904Y-136440476D01*
X132627380Y-136440476D01*
X132627380Y-135535714D02*
X132627380Y-135726190D01*
X132675000Y-135821428D01*
X132722619Y-135869047D01*
X132865476Y-135964285D01*
X133055952Y-136011904D01*
X133436904Y-136011904D01*
X133532142Y-135964285D01*
X133579761Y-135916666D01*
X133627380Y-135821428D01*
X133627380Y-135630952D01*
X133579761Y-135535714D01*
X133532142Y-135488095D01*
X133436904Y-135440476D01*
X133198809Y-135440476D01*
X133103571Y-135488095D01*
X133055952Y-135535714D01*
X133008333Y-135630952D01*
X133008333Y-135821428D01*
X133055952Y-135916666D01*
X133103571Y-135964285D01*
X133198809Y-136011904D01*
G04 #@! TO.C,U7*
X82227380Y-137011904D02*
X83036904Y-137011904D01*
X83132142Y-136964285D01*
X83179761Y-136916666D01*
X83227380Y-136821428D01*
X83227380Y-136630952D01*
X83179761Y-136535714D01*
X83132142Y-136488095D01*
X83036904Y-136440476D01*
X82227380Y-136440476D01*
X82227380Y-136059523D02*
X82227380Y-135392857D01*
X83227380Y-135821428D01*
G04 #@! TO.C,U8*
X147027380Y-137011904D02*
X147836904Y-137011904D01*
X147932142Y-136964285D01*
X147979761Y-136916666D01*
X148027380Y-136821428D01*
X148027380Y-136630952D01*
X147979761Y-136535714D01*
X147932142Y-136488095D01*
X147836904Y-136440476D01*
X147027380Y-136440476D01*
X147455952Y-135821428D02*
X147408333Y-135916666D01*
X147360714Y-135964285D01*
X147265476Y-136011904D01*
X147217857Y-136011904D01*
X147122619Y-135964285D01*
X147075000Y-135916666D01*
X147027380Y-135821428D01*
X147027380Y-135630952D01*
X147075000Y-135535714D01*
X147122619Y-135488095D01*
X147217857Y-135440476D01*
X147265476Y-135440476D01*
X147360714Y-135488095D01*
X147408333Y-135535714D01*
X147455952Y-135630952D01*
X147455952Y-135821428D01*
X147503571Y-135916666D01*
X147551190Y-135964285D01*
X147646428Y-136011904D01*
X147836904Y-136011904D01*
X147932142Y-135964285D01*
X147979761Y-135916666D01*
X148027380Y-135821428D01*
X148027380Y-135630952D01*
X147979761Y-135535714D01*
X147932142Y-135488095D01*
X147836904Y-135440476D01*
X147646428Y-135440476D01*
X147551190Y-135488095D01*
X147503571Y-135535714D01*
X147455952Y-135630952D01*
G04 #@! TO.C,U9*
X75027380Y-137011904D02*
X75836904Y-137011904D01*
X75932142Y-136964285D01*
X75979761Y-136916666D01*
X76027380Y-136821428D01*
X76027380Y-136630952D01*
X75979761Y-136535714D01*
X75932142Y-136488095D01*
X75836904Y-136440476D01*
X75027380Y-136440476D01*
X76027380Y-135916666D02*
X76027380Y-135726190D01*
X75979761Y-135630952D01*
X75932142Y-135583333D01*
X75789285Y-135488095D01*
X75598809Y-135440476D01*
X75217857Y-135440476D01*
X75122619Y-135488095D01*
X75075000Y-135535714D01*
X75027380Y-135630952D01*
X75027380Y-135821428D01*
X75075000Y-135916666D01*
X75122619Y-135964285D01*
X75217857Y-136011904D01*
X75455952Y-136011904D01*
X75551190Y-135964285D01*
X75598809Y-135916666D01*
X75646428Y-135821428D01*
X75646428Y-135630952D01*
X75598809Y-135535714D01*
X75551190Y-135488095D01*
X75455952Y-135440476D01*
G04 #@! TO.C,U10*
X139827380Y-137488095D02*
X140636904Y-137488095D01*
X140732142Y-137440476D01*
X140779761Y-137392857D01*
X140827380Y-137297619D01*
X140827380Y-137107142D01*
X140779761Y-137011904D01*
X140732142Y-136964285D01*
X140636904Y-136916666D01*
X139827380Y-136916666D01*
X140827380Y-135916666D02*
X140827380Y-136488095D01*
X140827380Y-136202380D02*
X139827380Y-136202380D01*
X139970238Y-136297619D01*
X140065476Y-136392857D01*
X140113095Y-136488095D01*
X139827380Y-135297619D02*
X139827380Y-135202380D01*
X139875000Y-135107142D01*
X139922619Y-135059523D01*
X140017857Y-135011904D01*
X140208333Y-134964285D01*
X140446428Y-134964285D01*
X140636904Y-135011904D01*
X140732142Y-135059523D01*
X140779761Y-135107142D01*
X140827380Y-135202380D01*
X140827380Y-135297619D01*
X140779761Y-135392857D01*
X140732142Y-135440476D01*
X140636904Y-135488095D01*
X140446428Y-135535714D01*
X140208333Y-135535714D01*
X140017857Y-135488095D01*
X139922619Y-135440476D01*
X139875000Y-135392857D01*
X139827380Y-135297619D01*
G04 #@! TO.C,U11*
X219027380Y-137488095D02*
X219836904Y-137488095D01*
X219932142Y-137440476D01*
X219979761Y-137392857D01*
X220027380Y-137297619D01*
X220027380Y-137107142D01*
X219979761Y-137011904D01*
X219932142Y-136964285D01*
X219836904Y-136916666D01*
X219027380Y-136916666D01*
X220027380Y-135916666D02*
X220027380Y-136488095D01*
X220027380Y-136202380D02*
X219027380Y-136202380D01*
X219170238Y-136297619D01*
X219265476Y-136392857D01*
X219313095Y-136488095D01*
X220027380Y-134964285D02*
X220027380Y-135535714D01*
X220027380Y-135250000D02*
X219027380Y-135250000D01*
X219170238Y-135345238D01*
X219265476Y-135440476D01*
X219313095Y-135535714D01*
G04 #@! TO.C,U12*
X240627380Y-137488095D02*
X241436904Y-137488095D01*
X241532142Y-137440476D01*
X241579761Y-137392857D01*
X241627380Y-137297619D01*
X241627380Y-137107142D01*
X241579761Y-137011904D01*
X241532142Y-136964285D01*
X241436904Y-136916666D01*
X240627380Y-136916666D01*
X241627380Y-135916666D02*
X241627380Y-136488095D01*
X241627380Y-136202380D02*
X240627380Y-136202380D01*
X240770238Y-136297619D01*
X240865476Y-136392857D01*
X240913095Y-136488095D01*
X240722619Y-135535714D02*
X240675000Y-135488095D01*
X240627380Y-135392857D01*
X240627380Y-135154761D01*
X240675000Y-135059523D01*
X240722619Y-135011904D01*
X240817857Y-134964285D01*
X240913095Y-134964285D01*
X241055952Y-135011904D01*
X241627380Y-135583333D01*
X241627380Y-134964285D01*
G04 #@! TO.C,U13*
X211827380Y-137488095D02*
X212636904Y-137488095D01*
X212732142Y-137440476D01*
X212779761Y-137392857D01*
X212827380Y-137297619D01*
X212827380Y-137107142D01*
X212779761Y-137011904D01*
X212732142Y-136964285D01*
X212636904Y-136916666D01*
X211827380Y-136916666D01*
X212827380Y-135916666D02*
X212827380Y-136488095D01*
X212827380Y-136202380D02*
X211827380Y-136202380D01*
X211970238Y-136297619D01*
X212065476Y-136392857D01*
X212113095Y-136488095D01*
X211827380Y-135583333D02*
X211827380Y-134964285D01*
X212208333Y-135297619D01*
X212208333Y-135154761D01*
X212255952Y-135059523D01*
X212303571Y-135011904D01*
X212398809Y-134964285D01*
X212636904Y-134964285D01*
X212732142Y-135011904D01*
X212779761Y-135059523D01*
X212827380Y-135154761D01*
X212827380Y-135440476D01*
X212779761Y-135535714D01*
X212732142Y-135583333D01*
G04 #@! TO.C,U14*
X233427380Y-137488095D02*
X234236904Y-137488095D01*
X234332142Y-137440476D01*
X234379761Y-137392857D01*
X234427380Y-137297619D01*
X234427380Y-137107142D01*
X234379761Y-137011904D01*
X234332142Y-136964285D01*
X234236904Y-136916666D01*
X233427380Y-136916666D01*
X234427380Y-135916666D02*
X234427380Y-136488095D01*
X234427380Y-136202380D02*
X233427380Y-136202380D01*
X233570238Y-136297619D01*
X233665476Y-136392857D01*
X233713095Y-136488095D01*
X233760714Y-135059523D02*
X234427380Y-135059523D01*
X233379761Y-135297619D02*
X234094047Y-135535714D01*
X234094047Y-134916666D01*
G04 #@! TO.C,U15*
X204627380Y-137488095D02*
X205436904Y-137488095D01*
X205532142Y-137440476D01*
X205579761Y-137392857D01*
X205627380Y-137297619D01*
X205627380Y-137107142D01*
X205579761Y-137011904D01*
X205532142Y-136964285D01*
X205436904Y-136916666D01*
X204627380Y-136916666D01*
X205627380Y-135916666D02*
X205627380Y-136488095D01*
X205627380Y-136202380D02*
X204627380Y-136202380D01*
X204770238Y-136297619D01*
X204865476Y-136392857D01*
X204913095Y-136488095D01*
X204627380Y-135011904D02*
X204627380Y-135488095D01*
X205103571Y-135535714D01*
X205055952Y-135488095D01*
X205008333Y-135392857D01*
X205008333Y-135154761D01*
X205055952Y-135059523D01*
X205103571Y-135011904D01*
X205198809Y-134964285D01*
X205436904Y-134964285D01*
X205532142Y-135011904D01*
X205579761Y-135059523D01*
X205627380Y-135154761D01*
X205627380Y-135392857D01*
X205579761Y-135488095D01*
X205532142Y-135535714D01*
G04 #@! TO.C,U17*
X132627380Y-99688095D02*
X133436904Y-99688095D01*
X133532142Y-99640476D01*
X133579761Y-99592857D01*
X133627380Y-99497619D01*
X133627380Y-99307142D01*
X133579761Y-99211904D01*
X133532142Y-99164285D01*
X133436904Y-99116666D01*
X132627380Y-99116666D01*
X133627380Y-98116666D02*
X133627380Y-98688095D01*
X133627380Y-98402380D02*
X132627380Y-98402380D01*
X132770238Y-98497619D01*
X132865476Y-98592857D01*
X132913095Y-98688095D01*
X132627380Y-97783333D02*
X132627380Y-97116666D01*
X133627380Y-97545238D01*
G04 #@! TO.C,U18*
X154227380Y-99688095D02*
X155036904Y-99688095D01*
X155132142Y-99640476D01*
X155179761Y-99592857D01*
X155227380Y-99497619D01*
X155227380Y-99307142D01*
X155179761Y-99211904D01*
X155132142Y-99164285D01*
X155036904Y-99116666D01*
X154227380Y-99116666D01*
X155227380Y-98116666D02*
X155227380Y-98688095D01*
X155227380Y-98402380D02*
X154227380Y-98402380D01*
X154370238Y-98497619D01*
X154465476Y-98592857D01*
X154513095Y-98688095D01*
X154655952Y-97545238D02*
X154608333Y-97640476D01*
X154560714Y-97688095D01*
X154465476Y-97735714D01*
X154417857Y-97735714D01*
X154322619Y-97688095D01*
X154275000Y-97640476D01*
X154227380Y-97545238D01*
X154227380Y-97354761D01*
X154275000Y-97259523D01*
X154322619Y-97211904D01*
X154417857Y-97164285D01*
X154465476Y-97164285D01*
X154560714Y-97211904D01*
X154608333Y-97259523D01*
X154655952Y-97354761D01*
X154655952Y-97545238D01*
X154703571Y-97640476D01*
X154751190Y-97688095D01*
X154846428Y-97735714D01*
X155036904Y-97735714D01*
X155132142Y-97688095D01*
X155179761Y-97640476D01*
X155227380Y-97545238D01*
X155227380Y-97354761D01*
X155179761Y-97259523D01*
X155132142Y-97211904D01*
X155036904Y-97164285D01*
X154846428Y-97164285D01*
X154751190Y-97211904D01*
X154703571Y-97259523D01*
X154655952Y-97354761D01*
G04 #@! TO.C,U19*
X125427380Y-99688095D02*
X126236904Y-99688095D01*
X126332142Y-99640476D01*
X126379761Y-99592857D01*
X126427380Y-99497619D01*
X126427380Y-99307142D01*
X126379761Y-99211904D01*
X126332142Y-99164285D01*
X126236904Y-99116666D01*
X125427380Y-99116666D01*
X126427380Y-98116666D02*
X126427380Y-98688095D01*
X126427380Y-98402380D02*
X125427380Y-98402380D01*
X125570238Y-98497619D01*
X125665476Y-98592857D01*
X125713095Y-98688095D01*
X126427380Y-97640476D02*
X126427380Y-97450000D01*
X126379761Y-97354761D01*
X126332142Y-97307142D01*
X126189285Y-97211904D01*
X125998809Y-97164285D01*
X125617857Y-97164285D01*
X125522619Y-97211904D01*
X125475000Y-97259523D01*
X125427380Y-97354761D01*
X125427380Y-97545238D01*
X125475000Y-97640476D01*
X125522619Y-97688095D01*
X125617857Y-97735714D01*
X125855952Y-97735714D01*
X125951190Y-97688095D01*
X125998809Y-97640476D01*
X126046428Y-97545238D01*
X126046428Y-97354761D01*
X125998809Y-97259523D01*
X125951190Y-97211904D01*
X125855952Y-97164285D01*
G04 #@! TO.C,U20*
X147027380Y-99688095D02*
X147836904Y-99688095D01*
X147932142Y-99640476D01*
X147979761Y-99592857D01*
X148027380Y-99497619D01*
X148027380Y-99307142D01*
X147979761Y-99211904D01*
X147932142Y-99164285D01*
X147836904Y-99116666D01*
X147027380Y-99116666D01*
X147122619Y-98688095D02*
X147075000Y-98640476D01*
X147027380Y-98545238D01*
X147027380Y-98307142D01*
X147075000Y-98211904D01*
X147122619Y-98164285D01*
X147217857Y-98116666D01*
X147313095Y-98116666D01*
X147455952Y-98164285D01*
X148027380Y-98735714D01*
X148027380Y-98116666D01*
X147027380Y-97497619D02*
X147027380Y-97402380D01*
X147075000Y-97307142D01*
X147122619Y-97259523D01*
X147217857Y-97211904D01*
X147408333Y-97164285D01*
X147646428Y-97164285D01*
X147836904Y-97211904D01*
X147932142Y-97259523D01*
X147979761Y-97307142D01*
X148027380Y-97402380D01*
X148027380Y-97497619D01*
X147979761Y-97592857D01*
X147932142Y-97640476D01*
X147836904Y-97688095D01*
X147646428Y-97735714D01*
X147408333Y-97735714D01*
X147217857Y-97688095D01*
X147122619Y-97640476D01*
X147075000Y-97592857D01*
X147027380Y-97497619D01*
G04 #@! TO.C,U21*
X118227380Y-99688095D02*
X119036904Y-99688095D01*
X119132142Y-99640476D01*
X119179761Y-99592857D01*
X119227380Y-99497619D01*
X119227380Y-99307142D01*
X119179761Y-99211904D01*
X119132142Y-99164285D01*
X119036904Y-99116666D01*
X118227380Y-99116666D01*
X118322619Y-98688095D02*
X118275000Y-98640476D01*
X118227380Y-98545238D01*
X118227380Y-98307142D01*
X118275000Y-98211904D01*
X118322619Y-98164285D01*
X118417857Y-98116666D01*
X118513095Y-98116666D01*
X118655952Y-98164285D01*
X119227380Y-98735714D01*
X119227380Y-98116666D01*
X119227380Y-97164285D02*
X119227380Y-97735714D01*
X119227380Y-97450000D02*
X118227380Y-97450000D01*
X118370238Y-97545238D01*
X118465476Y-97640476D01*
X118513095Y-97735714D01*
G04 #@! TO.C,U22*
X139827380Y-99688095D02*
X140636904Y-99688095D01*
X140732142Y-99640476D01*
X140779761Y-99592857D01*
X140827380Y-99497619D01*
X140827380Y-99307142D01*
X140779761Y-99211904D01*
X140732142Y-99164285D01*
X140636904Y-99116666D01*
X139827380Y-99116666D01*
X139922619Y-98688095D02*
X139875000Y-98640476D01*
X139827380Y-98545238D01*
X139827380Y-98307142D01*
X139875000Y-98211904D01*
X139922619Y-98164285D01*
X140017857Y-98116666D01*
X140113095Y-98116666D01*
X140255952Y-98164285D01*
X140827380Y-98735714D01*
X140827380Y-98116666D01*
X139922619Y-97735714D02*
X139875000Y-97688095D01*
X139827380Y-97592857D01*
X139827380Y-97354761D01*
X139875000Y-97259523D01*
X139922619Y-97211904D01*
X140017857Y-97164285D01*
X140113095Y-97164285D01*
X140255952Y-97211904D01*
X140827380Y-97783333D01*
X140827380Y-97164285D01*
G04 #@! TO.C,U23*
X219027380Y-99688095D02*
X219836904Y-99688095D01*
X219932142Y-99640476D01*
X219979761Y-99592857D01*
X220027380Y-99497619D01*
X220027380Y-99307142D01*
X219979761Y-99211904D01*
X219932142Y-99164285D01*
X219836904Y-99116666D01*
X219027380Y-99116666D01*
X219122619Y-98688095D02*
X219075000Y-98640476D01*
X219027380Y-98545238D01*
X219027380Y-98307142D01*
X219075000Y-98211904D01*
X219122619Y-98164285D01*
X219217857Y-98116666D01*
X219313095Y-98116666D01*
X219455952Y-98164285D01*
X220027380Y-98735714D01*
X220027380Y-98116666D01*
X219027380Y-97783333D02*
X219027380Y-97164285D01*
X219408333Y-97497619D01*
X219408333Y-97354761D01*
X219455952Y-97259523D01*
X219503571Y-97211904D01*
X219598809Y-97164285D01*
X219836904Y-97164285D01*
X219932142Y-97211904D01*
X219979761Y-97259523D01*
X220027380Y-97354761D01*
X220027380Y-97640476D01*
X219979761Y-97735714D01*
X219932142Y-97783333D01*
G04 #@! TO.C,U24*
X240627380Y-99688095D02*
X241436904Y-99688095D01*
X241532142Y-99640476D01*
X241579761Y-99592857D01*
X241627380Y-99497619D01*
X241627380Y-99307142D01*
X241579761Y-99211904D01*
X241532142Y-99164285D01*
X241436904Y-99116666D01*
X240627380Y-99116666D01*
X240722619Y-98688095D02*
X240675000Y-98640476D01*
X240627380Y-98545238D01*
X240627380Y-98307142D01*
X240675000Y-98211904D01*
X240722619Y-98164285D01*
X240817857Y-98116666D01*
X240913095Y-98116666D01*
X241055952Y-98164285D01*
X241627380Y-98735714D01*
X241627380Y-98116666D01*
X240960714Y-97259523D02*
X241627380Y-97259523D01*
X240579761Y-97497619D02*
X241294047Y-97735714D01*
X241294047Y-97116666D01*
G04 #@! TO.C,U25*
X211827380Y-99688095D02*
X212636904Y-99688095D01*
X212732142Y-99640476D01*
X212779761Y-99592857D01*
X212827380Y-99497619D01*
X212827380Y-99307142D01*
X212779761Y-99211904D01*
X212732142Y-99164285D01*
X212636904Y-99116666D01*
X211827380Y-99116666D01*
X211922619Y-98688095D02*
X211875000Y-98640476D01*
X211827380Y-98545238D01*
X211827380Y-98307142D01*
X211875000Y-98211904D01*
X211922619Y-98164285D01*
X212017857Y-98116666D01*
X212113095Y-98116666D01*
X212255952Y-98164285D01*
X212827380Y-98735714D01*
X212827380Y-98116666D01*
X211827380Y-97211904D02*
X211827380Y-97688095D01*
X212303571Y-97735714D01*
X212255952Y-97688095D01*
X212208333Y-97592857D01*
X212208333Y-97354761D01*
X212255952Y-97259523D01*
X212303571Y-97211904D01*
X212398809Y-97164285D01*
X212636904Y-97164285D01*
X212732142Y-97211904D01*
X212779761Y-97259523D01*
X212827380Y-97354761D01*
X212827380Y-97592857D01*
X212779761Y-97688095D01*
X212732142Y-97735714D01*
G04 #@! TO.C,U26*
X233427380Y-99688095D02*
X234236904Y-99688095D01*
X234332142Y-99640476D01*
X234379761Y-99592857D01*
X234427380Y-99497619D01*
X234427380Y-99307142D01*
X234379761Y-99211904D01*
X234332142Y-99164285D01*
X234236904Y-99116666D01*
X233427380Y-99116666D01*
X233522619Y-98688095D02*
X233475000Y-98640476D01*
X233427380Y-98545238D01*
X233427380Y-98307142D01*
X233475000Y-98211904D01*
X233522619Y-98164285D01*
X233617857Y-98116666D01*
X233713095Y-98116666D01*
X233855952Y-98164285D01*
X234427380Y-98735714D01*
X234427380Y-98116666D01*
X233427380Y-97259523D02*
X233427380Y-97450000D01*
X233475000Y-97545238D01*
X233522619Y-97592857D01*
X233665476Y-97688095D01*
X233855952Y-97735714D01*
X234236904Y-97735714D01*
X234332142Y-97688095D01*
X234379761Y-97640476D01*
X234427380Y-97545238D01*
X234427380Y-97354761D01*
X234379761Y-97259523D01*
X234332142Y-97211904D01*
X234236904Y-97164285D01*
X233998809Y-97164285D01*
X233903571Y-97211904D01*
X233855952Y-97259523D01*
X233808333Y-97354761D01*
X233808333Y-97545238D01*
X233855952Y-97640476D01*
X233903571Y-97688095D01*
X233998809Y-97735714D01*
G04 #@! TO.C,U27*
X204627380Y-99688095D02*
X205436904Y-99688095D01*
X205532142Y-99640476D01*
X205579761Y-99592857D01*
X205627380Y-99497619D01*
X205627380Y-99307142D01*
X205579761Y-99211904D01*
X205532142Y-99164285D01*
X205436904Y-99116666D01*
X204627380Y-99116666D01*
X204722619Y-98688095D02*
X204675000Y-98640476D01*
X204627380Y-98545238D01*
X204627380Y-98307142D01*
X204675000Y-98211904D01*
X204722619Y-98164285D01*
X204817857Y-98116666D01*
X204913095Y-98116666D01*
X205055952Y-98164285D01*
X205627380Y-98735714D01*
X205627380Y-98116666D01*
X204627380Y-97783333D02*
X204627380Y-97116666D01*
X205627380Y-97545238D01*
G04 #@! TO.C,U28*
X226227380Y-99688095D02*
X227036904Y-99688095D01*
X227132142Y-99640476D01*
X227179761Y-99592857D01*
X227227380Y-99497619D01*
X227227380Y-99307142D01*
X227179761Y-99211904D01*
X227132142Y-99164285D01*
X227036904Y-99116666D01*
X226227380Y-99116666D01*
X226322619Y-98688095D02*
X226275000Y-98640476D01*
X226227380Y-98545238D01*
X226227380Y-98307142D01*
X226275000Y-98211904D01*
X226322619Y-98164285D01*
X226417857Y-98116666D01*
X226513095Y-98116666D01*
X226655952Y-98164285D01*
X227227380Y-98735714D01*
X227227380Y-98116666D01*
X226655952Y-97545238D02*
X226608333Y-97640476D01*
X226560714Y-97688095D01*
X226465476Y-97735714D01*
X226417857Y-97735714D01*
X226322619Y-97688095D01*
X226275000Y-97640476D01*
X226227380Y-97545238D01*
X226227380Y-97354761D01*
X226275000Y-97259523D01*
X226322619Y-97211904D01*
X226417857Y-97164285D01*
X226465476Y-97164285D01*
X226560714Y-97211904D01*
X226608333Y-97259523D01*
X226655952Y-97354761D01*
X226655952Y-97545238D01*
X226703571Y-97640476D01*
X226751190Y-97688095D01*
X226846428Y-97735714D01*
X227036904Y-97735714D01*
X227132142Y-97688095D01*
X227179761Y-97640476D01*
X227227380Y-97545238D01*
X227227380Y-97354761D01*
X227179761Y-97259523D01*
X227132142Y-97211904D01*
X227036904Y-97164285D01*
X226846428Y-97164285D01*
X226751190Y-97211904D01*
X226703571Y-97259523D01*
X226655952Y-97354761D01*
G04 #@! TO.C,U29*
X110827380Y-60688095D02*
X111636904Y-60688095D01*
X111732142Y-60640476D01*
X111779761Y-60592857D01*
X111827380Y-60497619D01*
X111827380Y-60307142D01*
X111779761Y-60211904D01*
X111732142Y-60164285D01*
X111636904Y-60116666D01*
X110827380Y-60116666D01*
X110922619Y-59688095D02*
X110875000Y-59640476D01*
X110827380Y-59545238D01*
X110827380Y-59307142D01*
X110875000Y-59211904D01*
X110922619Y-59164285D01*
X111017857Y-59116666D01*
X111113095Y-59116666D01*
X111255952Y-59164285D01*
X111827380Y-59735714D01*
X111827380Y-59116666D01*
X111827380Y-58640476D02*
X111827380Y-58450000D01*
X111779761Y-58354761D01*
X111732142Y-58307142D01*
X111589285Y-58211904D01*
X111398809Y-58164285D01*
X111017857Y-58164285D01*
X110922619Y-58211904D01*
X110875000Y-58259523D01*
X110827380Y-58354761D01*
X110827380Y-58545238D01*
X110875000Y-58640476D01*
X110922619Y-58688095D01*
X111017857Y-58735714D01*
X111255952Y-58735714D01*
X111351190Y-58688095D01*
X111398809Y-58640476D01*
X111446428Y-58545238D01*
X111446428Y-58354761D01*
X111398809Y-58259523D01*
X111351190Y-58211904D01*
X111255952Y-58164285D01*
G04 #@! TO.C,U30*
X154027380Y-60688095D02*
X154836904Y-60688095D01*
X154932142Y-60640476D01*
X154979761Y-60592857D01*
X155027380Y-60497619D01*
X155027380Y-60307142D01*
X154979761Y-60211904D01*
X154932142Y-60164285D01*
X154836904Y-60116666D01*
X154027380Y-60116666D01*
X154027380Y-59735714D02*
X154027380Y-59116666D01*
X154408333Y-59450000D01*
X154408333Y-59307142D01*
X154455952Y-59211904D01*
X154503571Y-59164285D01*
X154598809Y-59116666D01*
X154836904Y-59116666D01*
X154932142Y-59164285D01*
X154979761Y-59211904D01*
X155027380Y-59307142D01*
X155027380Y-59592857D01*
X154979761Y-59688095D01*
X154932142Y-59735714D01*
X154027380Y-58497619D02*
X154027380Y-58402380D01*
X154075000Y-58307142D01*
X154122619Y-58259523D01*
X154217857Y-58211904D01*
X154408333Y-58164285D01*
X154646428Y-58164285D01*
X154836904Y-58211904D01*
X154932142Y-58259523D01*
X154979761Y-58307142D01*
X155027380Y-58402380D01*
X155027380Y-58497619D01*
X154979761Y-58592857D01*
X154932142Y-58640476D01*
X154836904Y-58688095D01*
X154646428Y-58735714D01*
X154408333Y-58735714D01*
X154217857Y-58688095D01*
X154122619Y-58640476D01*
X154075000Y-58592857D01*
X154027380Y-58497619D01*
G04 #@! TO.C,U31*
X96427380Y-60688095D02*
X97236904Y-60688095D01*
X97332142Y-60640476D01*
X97379761Y-60592857D01*
X97427380Y-60497619D01*
X97427380Y-60307142D01*
X97379761Y-60211904D01*
X97332142Y-60164285D01*
X97236904Y-60116666D01*
X96427380Y-60116666D01*
X96427380Y-59735714D02*
X96427380Y-59116666D01*
X96808333Y-59450000D01*
X96808333Y-59307142D01*
X96855952Y-59211904D01*
X96903571Y-59164285D01*
X96998809Y-59116666D01*
X97236904Y-59116666D01*
X97332142Y-59164285D01*
X97379761Y-59211904D01*
X97427380Y-59307142D01*
X97427380Y-59592857D01*
X97379761Y-59688095D01*
X97332142Y-59735714D01*
X97427380Y-58164285D02*
X97427380Y-58735714D01*
X97427380Y-58450000D02*
X96427380Y-58450000D01*
X96570238Y-58545238D01*
X96665476Y-58640476D01*
X96713095Y-58735714D01*
G04 #@! TO.C,U32*
X139627380Y-60688095D02*
X140436904Y-60688095D01*
X140532142Y-60640476D01*
X140579761Y-60592857D01*
X140627380Y-60497619D01*
X140627380Y-60307142D01*
X140579761Y-60211904D01*
X140532142Y-60164285D01*
X140436904Y-60116666D01*
X139627380Y-60116666D01*
X139627380Y-59735714D02*
X139627380Y-59116666D01*
X140008333Y-59450000D01*
X140008333Y-59307142D01*
X140055952Y-59211904D01*
X140103571Y-59164285D01*
X140198809Y-59116666D01*
X140436904Y-59116666D01*
X140532142Y-59164285D01*
X140579761Y-59211904D01*
X140627380Y-59307142D01*
X140627380Y-59592857D01*
X140579761Y-59688095D01*
X140532142Y-59735714D01*
X139722619Y-58735714D02*
X139675000Y-58688095D01*
X139627380Y-58592857D01*
X139627380Y-58354761D01*
X139675000Y-58259523D01*
X139722619Y-58211904D01*
X139817857Y-58164285D01*
X139913095Y-58164285D01*
X140055952Y-58211904D01*
X140627380Y-58783333D01*
X140627380Y-58164285D01*
G04 #@! TO.C,U33*
X82027380Y-60688095D02*
X82836904Y-60688095D01*
X82932142Y-60640476D01*
X82979761Y-60592857D01*
X83027380Y-60497619D01*
X83027380Y-60307142D01*
X82979761Y-60211904D01*
X82932142Y-60164285D01*
X82836904Y-60116666D01*
X82027380Y-60116666D01*
X82027380Y-59735714D02*
X82027380Y-59116666D01*
X82408333Y-59450000D01*
X82408333Y-59307142D01*
X82455952Y-59211904D01*
X82503571Y-59164285D01*
X82598809Y-59116666D01*
X82836904Y-59116666D01*
X82932142Y-59164285D01*
X82979761Y-59211904D01*
X83027380Y-59307142D01*
X83027380Y-59592857D01*
X82979761Y-59688095D01*
X82932142Y-59735714D01*
X82027380Y-58783333D02*
X82027380Y-58164285D01*
X82408333Y-58497619D01*
X82408333Y-58354761D01*
X82455952Y-58259523D01*
X82503571Y-58211904D01*
X82598809Y-58164285D01*
X82836904Y-58164285D01*
X82932142Y-58211904D01*
X82979761Y-58259523D01*
X83027380Y-58354761D01*
X83027380Y-58640476D01*
X82979761Y-58735714D01*
X82932142Y-58783333D01*
G04 #@! TO.C,U34*
X125227380Y-60688095D02*
X126036904Y-60688095D01*
X126132142Y-60640476D01*
X126179761Y-60592857D01*
X126227380Y-60497619D01*
X126227380Y-60307142D01*
X126179761Y-60211904D01*
X126132142Y-60164285D01*
X126036904Y-60116666D01*
X125227380Y-60116666D01*
X125227380Y-59735714D02*
X125227380Y-59116666D01*
X125608333Y-59450000D01*
X125608333Y-59307142D01*
X125655952Y-59211904D01*
X125703571Y-59164285D01*
X125798809Y-59116666D01*
X126036904Y-59116666D01*
X126132142Y-59164285D01*
X126179761Y-59211904D01*
X126227380Y-59307142D01*
X126227380Y-59592857D01*
X126179761Y-59688095D01*
X126132142Y-59735714D01*
X125560714Y-58259523D02*
X126227380Y-58259523D01*
X125179761Y-58497619D02*
X125894047Y-58735714D01*
X125894047Y-58116666D01*
G04 #@! TO.C,U35*
X190077380Y-60688095D02*
X190886904Y-60688095D01*
X190982142Y-60640476D01*
X191029761Y-60592857D01*
X191077380Y-60497619D01*
X191077380Y-60307142D01*
X191029761Y-60211904D01*
X190982142Y-60164285D01*
X190886904Y-60116666D01*
X190077380Y-60116666D01*
X190077380Y-59735714D02*
X190077380Y-59116666D01*
X190458333Y-59450000D01*
X190458333Y-59307142D01*
X190505952Y-59211904D01*
X190553571Y-59164285D01*
X190648809Y-59116666D01*
X190886904Y-59116666D01*
X190982142Y-59164285D01*
X191029761Y-59211904D01*
X191077380Y-59307142D01*
X191077380Y-59592857D01*
X191029761Y-59688095D01*
X190982142Y-59735714D01*
X190077380Y-58211904D02*
X190077380Y-58688095D01*
X190553571Y-58735714D01*
X190505952Y-58688095D01*
X190458333Y-58592857D01*
X190458333Y-58354761D01*
X190505952Y-58259523D01*
X190553571Y-58211904D01*
X190648809Y-58164285D01*
X190886904Y-58164285D01*
X190982142Y-58211904D01*
X191029761Y-58259523D01*
X191077380Y-58354761D01*
X191077380Y-58592857D01*
X191029761Y-58688095D01*
X190982142Y-58735714D01*
G04 #@! TO.C,U36*
X218877380Y-60688095D02*
X219686904Y-60688095D01*
X219782142Y-60640476D01*
X219829761Y-60592857D01*
X219877380Y-60497619D01*
X219877380Y-60307142D01*
X219829761Y-60211904D01*
X219782142Y-60164285D01*
X219686904Y-60116666D01*
X218877380Y-60116666D01*
X218877380Y-59735714D02*
X218877380Y-59116666D01*
X219258333Y-59450000D01*
X219258333Y-59307142D01*
X219305952Y-59211904D01*
X219353571Y-59164285D01*
X219448809Y-59116666D01*
X219686904Y-59116666D01*
X219782142Y-59164285D01*
X219829761Y-59211904D01*
X219877380Y-59307142D01*
X219877380Y-59592857D01*
X219829761Y-59688095D01*
X219782142Y-59735714D01*
X218877380Y-58259523D02*
X218877380Y-58450000D01*
X218925000Y-58545238D01*
X218972619Y-58592857D01*
X219115476Y-58688095D01*
X219305952Y-58735714D01*
X219686904Y-58735714D01*
X219782142Y-58688095D01*
X219829761Y-58640476D01*
X219877380Y-58545238D01*
X219877380Y-58354761D01*
X219829761Y-58259523D01*
X219782142Y-58211904D01*
X219686904Y-58164285D01*
X219448809Y-58164285D01*
X219353571Y-58211904D01*
X219305952Y-58259523D01*
X219258333Y-58354761D01*
X219258333Y-58545238D01*
X219305952Y-58640476D01*
X219353571Y-58688095D01*
X219448809Y-58735714D01*
G04 #@! TO.C,U37*
X182827380Y-60688095D02*
X183636904Y-60688095D01*
X183732142Y-60640476D01*
X183779761Y-60592857D01*
X183827380Y-60497619D01*
X183827380Y-60307142D01*
X183779761Y-60211904D01*
X183732142Y-60164285D01*
X183636904Y-60116666D01*
X182827380Y-60116666D01*
X182827380Y-59735714D02*
X182827380Y-59116666D01*
X183208333Y-59450000D01*
X183208333Y-59307142D01*
X183255952Y-59211904D01*
X183303571Y-59164285D01*
X183398809Y-59116666D01*
X183636904Y-59116666D01*
X183732142Y-59164285D01*
X183779761Y-59211904D01*
X183827380Y-59307142D01*
X183827380Y-59592857D01*
X183779761Y-59688095D01*
X183732142Y-59735714D01*
X182827380Y-58783333D02*
X182827380Y-58116666D01*
X183827380Y-58545238D01*
G04 #@! TO.C,U38*
X211677380Y-60688095D02*
X212486904Y-60688095D01*
X212582142Y-60640476D01*
X212629761Y-60592857D01*
X212677380Y-60497619D01*
X212677380Y-60307142D01*
X212629761Y-60211904D01*
X212582142Y-60164285D01*
X212486904Y-60116666D01*
X211677380Y-60116666D01*
X211677380Y-59735714D02*
X211677380Y-59116666D01*
X212058333Y-59450000D01*
X212058333Y-59307142D01*
X212105952Y-59211904D01*
X212153571Y-59164285D01*
X212248809Y-59116666D01*
X212486904Y-59116666D01*
X212582142Y-59164285D01*
X212629761Y-59211904D01*
X212677380Y-59307142D01*
X212677380Y-59592857D01*
X212629761Y-59688095D01*
X212582142Y-59735714D01*
X212105952Y-58545238D02*
X212058333Y-58640476D01*
X212010714Y-58688095D01*
X211915476Y-58735714D01*
X211867857Y-58735714D01*
X211772619Y-58688095D01*
X211725000Y-58640476D01*
X211677380Y-58545238D01*
X211677380Y-58354761D01*
X211725000Y-58259523D01*
X211772619Y-58211904D01*
X211867857Y-58164285D01*
X211915476Y-58164285D01*
X212010714Y-58211904D01*
X212058333Y-58259523D01*
X212105952Y-58354761D01*
X212105952Y-58545238D01*
X212153571Y-58640476D01*
X212201190Y-58688095D01*
X212296428Y-58735714D01*
X212486904Y-58735714D01*
X212582142Y-58688095D01*
X212629761Y-58640476D01*
X212677380Y-58545238D01*
X212677380Y-58354761D01*
X212629761Y-58259523D01*
X212582142Y-58211904D01*
X212486904Y-58164285D01*
X212296428Y-58164285D01*
X212201190Y-58211904D01*
X212153571Y-58259523D01*
X212105952Y-58354761D01*
G04 #@! TO.C,U39*
X168427380Y-60688095D02*
X169236904Y-60688095D01*
X169332142Y-60640476D01*
X169379761Y-60592857D01*
X169427380Y-60497619D01*
X169427380Y-60307142D01*
X169379761Y-60211904D01*
X169332142Y-60164285D01*
X169236904Y-60116666D01*
X168427380Y-60116666D01*
X168427380Y-59735714D02*
X168427380Y-59116666D01*
X168808333Y-59450000D01*
X168808333Y-59307142D01*
X168855952Y-59211904D01*
X168903571Y-59164285D01*
X168998809Y-59116666D01*
X169236904Y-59116666D01*
X169332142Y-59164285D01*
X169379761Y-59211904D01*
X169427380Y-59307142D01*
X169427380Y-59592857D01*
X169379761Y-59688095D01*
X169332142Y-59735714D01*
X169427380Y-58640476D02*
X169427380Y-58450000D01*
X169379761Y-58354761D01*
X169332142Y-58307142D01*
X169189285Y-58211904D01*
X168998809Y-58164285D01*
X168617857Y-58164285D01*
X168522619Y-58211904D01*
X168475000Y-58259523D01*
X168427380Y-58354761D01*
X168427380Y-58545238D01*
X168475000Y-58640476D01*
X168522619Y-58688095D01*
X168617857Y-58735714D01*
X168855952Y-58735714D01*
X168951190Y-58688095D01*
X168998809Y-58640476D01*
X169046428Y-58545238D01*
X169046428Y-58354761D01*
X168998809Y-58259523D01*
X168951190Y-58211904D01*
X168855952Y-58164285D01*
G04 #@! TO.C,U40*
X204477380Y-60688095D02*
X205286904Y-60688095D01*
X205382142Y-60640476D01*
X205429761Y-60592857D01*
X205477380Y-60497619D01*
X205477380Y-60307142D01*
X205429761Y-60211904D01*
X205382142Y-60164285D01*
X205286904Y-60116666D01*
X204477380Y-60116666D01*
X204810714Y-59211904D02*
X205477380Y-59211904D01*
X204429761Y-59450000D02*
X205144047Y-59688095D01*
X205144047Y-59069047D01*
X204477380Y-58497619D02*
X204477380Y-58402380D01*
X204525000Y-58307142D01*
X204572619Y-58259523D01*
X204667857Y-58211904D01*
X204858333Y-58164285D01*
X205096428Y-58164285D01*
X205286904Y-58211904D01*
X205382142Y-58259523D01*
X205429761Y-58307142D01*
X205477380Y-58402380D01*
X205477380Y-58497619D01*
X205429761Y-58592857D01*
X205382142Y-58640476D01*
X205286904Y-58688095D01*
X205096428Y-58735714D01*
X204858333Y-58735714D01*
X204667857Y-58688095D01*
X204572619Y-58640476D01*
X204525000Y-58592857D01*
X204477380Y-58497619D01*
G04 #@! TO.C,U41*
X98027380Y-99688095D02*
X98836904Y-99688095D01*
X98932142Y-99640476D01*
X98979761Y-99592857D01*
X99027380Y-99497619D01*
X99027380Y-99307142D01*
X98979761Y-99211904D01*
X98932142Y-99164285D01*
X98836904Y-99116666D01*
X98027380Y-99116666D01*
X98360714Y-98211904D02*
X99027380Y-98211904D01*
X97979761Y-98450000D02*
X98694047Y-98688095D01*
X98694047Y-98069047D01*
X99027380Y-97164285D02*
X99027380Y-97735714D01*
X99027380Y-97450000D02*
X98027380Y-97450000D01*
X98170238Y-97545238D01*
X98265476Y-97640476D01*
X98313095Y-97735714D01*
G04 #@! TO.C,U42*
X119627380Y-99688095D02*
X120436904Y-99688095D01*
X120532142Y-99640476D01*
X120579761Y-99592857D01*
X120627380Y-99497619D01*
X120627380Y-99307142D01*
X120579761Y-99211904D01*
X120532142Y-99164285D01*
X120436904Y-99116666D01*
X119627380Y-99116666D01*
X119960714Y-98211904D02*
X120627380Y-98211904D01*
X119579761Y-98450000D02*
X120294047Y-98688095D01*
X120294047Y-98069047D01*
X119722619Y-97735714D02*
X119675000Y-97688095D01*
X119627380Y-97592857D01*
X119627380Y-97354761D01*
X119675000Y-97259523D01*
X119722619Y-97211904D01*
X119817857Y-97164285D01*
X119913095Y-97164285D01*
X120055952Y-97211904D01*
X120627380Y-97783333D01*
X120627380Y-97164285D01*
G04 #@! TO.C,U43*
X90827380Y-99688095D02*
X91636904Y-99688095D01*
X91732142Y-99640476D01*
X91779761Y-99592857D01*
X91827380Y-99497619D01*
X91827380Y-99307142D01*
X91779761Y-99211904D01*
X91732142Y-99164285D01*
X91636904Y-99116666D01*
X90827380Y-99116666D01*
X91160714Y-98211904D02*
X91827380Y-98211904D01*
X90779761Y-98450000D02*
X91494047Y-98688095D01*
X91494047Y-98069047D01*
X90827380Y-97783333D02*
X90827380Y-97164285D01*
X91208333Y-97497619D01*
X91208333Y-97354761D01*
X91255952Y-97259523D01*
X91303571Y-97211904D01*
X91398809Y-97164285D01*
X91636904Y-97164285D01*
X91732142Y-97211904D01*
X91779761Y-97259523D01*
X91827380Y-97354761D01*
X91827380Y-97640476D01*
X91779761Y-97735714D01*
X91732142Y-97783333D01*
G04 #@! TO.C,U44*
X112427380Y-99688095D02*
X113236904Y-99688095D01*
X113332142Y-99640476D01*
X113379761Y-99592857D01*
X113427380Y-99497619D01*
X113427380Y-99307142D01*
X113379761Y-99211904D01*
X113332142Y-99164285D01*
X113236904Y-99116666D01*
X112427380Y-99116666D01*
X112760714Y-98211904D02*
X113427380Y-98211904D01*
X112379761Y-98450000D02*
X113094047Y-98688095D01*
X113094047Y-98069047D01*
X112760714Y-97259523D02*
X113427380Y-97259523D01*
X112379761Y-97497619D02*
X113094047Y-97735714D01*
X113094047Y-97116666D01*
G04 #@! TO.C,U45*
X83627380Y-99688095D02*
X84436904Y-99688095D01*
X84532142Y-99640476D01*
X84579761Y-99592857D01*
X84627380Y-99497619D01*
X84627380Y-99307142D01*
X84579761Y-99211904D01*
X84532142Y-99164285D01*
X84436904Y-99116666D01*
X83627380Y-99116666D01*
X83960714Y-98211904D02*
X84627380Y-98211904D01*
X83579761Y-98450000D02*
X84294047Y-98688095D01*
X84294047Y-98069047D01*
X83627380Y-97211904D02*
X83627380Y-97688095D01*
X84103571Y-97735714D01*
X84055952Y-97688095D01*
X84008333Y-97592857D01*
X84008333Y-97354761D01*
X84055952Y-97259523D01*
X84103571Y-97211904D01*
X84198809Y-97164285D01*
X84436904Y-97164285D01*
X84532142Y-97211904D01*
X84579761Y-97259523D01*
X84627380Y-97354761D01*
X84627380Y-97592857D01*
X84579761Y-97688095D01*
X84532142Y-97735714D01*
G04 #@! TO.C,U46*
X105227380Y-99688095D02*
X106036904Y-99688095D01*
X106132142Y-99640476D01*
X106179761Y-99592857D01*
X106227380Y-99497619D01*
X106227380Y-99307142D01*
X106179761Y-99211904D01*
X106132142Y-99164285D01*
X106036904Y-99116666D01*
X105227380Y-99116666D01*
X105560714Y-98211904D02*
X106227380Y-98211904D01*
X105179761Y-98450000D02*
X105894047Y-98688095D01*
X105894047Y-98069047D01*
X105227380Y-97259523D02*
X105227380Y-97450000D01*
X105275000Y-97545238D01*
X105322619Y-97592857D01*
X105465476Y-97688095D01*
X105655952Y-97735714D01*
X106036904Y-97735714D01*
X106132142Y-97688095D01*
X106179761Y-97640476D01*
X106227380Y-97545238D01*
X106227380Y-97354761D01*
X106179761Y-97259523D01*
X106132142Y-97211904D01*
X106036904Y-97164285D01*
X105798809Y-97164285D01*
X105703571Y-97211904D01*
X105655952Y-97259523D01*
X105608333Y-97354761D01*
X105608333Y-97545238D01*
X105655952Y-97640476D01*
X105703571Y-97688095D01*
X105798809Y-97735714D01*
G04 #@! TO.C,U47*
X184427380Y-99688095D02*
X185236904Y-99688095D01*
X185332142Y-99640476D01*
X185379761Y-99592857D01*
X185427380Y-99497619D01*
X185427380Y-99307142D01*
X185379761Y-99211904D01*
X185332142Y-99164285D01*
X185236904Y-99116666D01*
X184427380Y-99116666D01*
X184760714Y-98211904D02*
X185427380Y-98211904D01*
X184379761Y-98450000D02*
X185094047Y-98688095D01*
X185094047Y-98069047D01*
X184427380Y-97783333D02*
X184427380Y-97116666D01*
X185427380Y-97545238D01*
G04 #@! TO.C,U48*
X206027380Y-99688095D02*
X206836904Y-99688095D01*
X206932142Y-99640476D01*
X206979761Y-99592857D01*
X207027380Y-99497619D01*
X207027380Y-99307142D01*
X206979761Y-99211904D01*
X206932142Y-99164285D01*
X206836904Y-99116666D01*
X206027380Y-99116666D01*
X206360714Y-98211904D02*
X207027380Y-98211904D01*
X205979761Y-98450000D02*
X206694047Y-98688095D01*
X206694047Y-98069047D01*
X206455952Y-97545238D02*
X206408333Y-97640476D01*
X206360714Y-97688095D01*
X206265476Y-97735714D01*
X206217857Y-97735714D01*
X206122619Y-97688095D01*
X206075000Y-97640476D01*
X206027380Y-97545238D01*
X206027380Y-97354761D01*
X206075000Y-97259523D01*
X206122619Y-97211904D01*
X206217857Y-97164285D01*
X206265476Y-97164285D01*
X206360714Y-97211904D01*
X206408333Y-97259523D01*
X206455952Y-97354761D01*
X206455952Y-97545238D01*
X206503571Y-97640476D01*
X206551190Y-97688095D01*
X206646428Y-97735714D01*
X206836904Y-97735714D01*
X206932142Y-97688095D01*
X206979761Y-97640476D01*
X207027380Y-97545238D01*
X207027380Y-97354761D01*
X206979761Y-97259523D01*
X206932142Y-97211904D01*
X206836904Y-97164285D01*
X206646428Y-97164285D01*
X206551190Y-97211904D01*
X206503571Y-97259523D01*
X206455952Y-97354761D01*
G04 #@! TO.C,U49*
X177227380Y-99688095D02*
X178036904Y-99688095D01*
X178132142Y-99640476D01*
X178179761Y-99592857D01*
X178227380Y-99497619D01*
X178227380Y-99307142D01*
X178179761Y-99211904D01*
X178132142Y-99164285D01*
X178036904Y-99116666D01*
X177227380Y-99116666D01*
X177560714Y-98211904D02*
X178227380Y-98211904D01*
X177179761Y-98450000D02*
X177894047Y-98688095D01*
X177894047Y-98069047D01*
X178227380Y-97640476D02*
X178227380Y-97450000D01*
X178179761Y-97354761D01*
X178132142Y-97307142D01*
X177989285Y-97211904D01*
X177798809Y-97164285D01*
X177417857Y-97164285D01*
X177322619Y-97211904D01*
X177275000Y-97259523D01*
X177227380Y-97354761D01*
X177227380Y-97545238D01*
X177275000Y-97640476D01*
X177322619Y-97688095D01*
X177417857Y-97735714D01*
X177655952Y-97735714D01*
X177751190Y-97688095D01*
X177798809Y-97640476D01*
X177846428Y-97545238D01*
X177846428Y-97354761D01*
X177798809Y-97259523D01*
X177751190Y-97211904D01*
X177655952Y-97164285D01*
G04 #@! TO.C,U50*
X198827380Y-99688095D02*
X199636904Y-99688095D01*
X199732142Y-99640476D01*
X199779761Y-99592857D01*
X199827380Y-99497619D01*
X199827380Y-99307142D01*
X199779761Y-99211904D01*
X199732142Y-99164285D01*
X199636904Y-99116666D01*
X198827380Y-99116666D01*
X198827380Y-98164285D02*
X198827380Y-98640476D01*
X199303571Y-98688095D01*
X199255952Y-98640476D01*
X199208333Y-98545238D01*
X199208333Y-98307142D01*
X199255952Y-98211904D01*
X199303571Y-98164285D01*
X199398809Y-98116666D01*
X199636904Y-98116666D01*
X199732142Y-98164285D01*
X199779761Y-98211904D01*
X199827380Y-98307142D01*
X199827380Y-98545238D01*
X199779761Y-98640476D01*
X199732142Y-98688095D01*
X198827380Y-97497619D02*
X198827380Y-97402380D01*
X198875000Y-97307142D01*
X198922619Y-97259523D01*
X199017857Y-97211904D01*
X199208333Y-97164285D01*
X199446428Y-97164285D01*
X199636904Y-97211904D01*
X199732142Y-97259523D01*
X199779761Y-97307142D01*
X199827380Y-97402380D01*
X199827380Y-97497619D01*
X199779761Y-97592857D01*
X199732142Y-97640476D01*
X199636904Y-97688095D01*
X199446428Y-97735714D01*
X199208333Y-97735714D01*
X199017857Y-97688095D01*
X198922619Y-97640476D01*
X198875000Y-97592857D01*
X198827380Y-97497619D01*
G04 #@! TO.C,U51*
X170027380Y-99688095D02*
X170836904Y-99688095D01*
X170932142Y-99640476D01*
X170979761Y-99592857D01*
X171027380Y-99497619D01*
X171027380Y-99307142D01*
X170979761Y-99211904D01*
X170932142Y-99164285D01*
X170836904Y-99116666D01*
X170027380Y-99116666D01*
X170027380Y-98164285D02*
X170027380Y-98640476D01*
X170503571Y-98688095D01*
X170455952Y-98640476D01*
X170408333Y-98545238D01*
X170408333Y-98307142D01*
X170455952Y-98211904D01*
X170503571Y-98164285D01*
X170598809Y-98116666D01*
X170836904Y-98116666D01*
X170932142Y-98164285D01*
X170979761Y-98211904D01*
X171027380Y-98307142D01*
X171027380Y-98545238D01*
X170979761Y-98640476D01*
X170932142Y-98688095D01*
X171027380Y-97164285D02*
X171027380Y-97735714D01*
X171027380Y-97450000D02*
X170027380Y-97450000D01*
X170170238Y-97545238D01*
X170265476Y-97640476D01*
X170313095Y-97735714D01*
G04 #@! TO.C,U52*
X191627380Y-99688095D02*
X192436904Y-99688095D01*
X192532142Y-99640476D01*
X192579761Y-99592857D01*
X192627380Y-99497619D01*
X192627380Y-99307142D01*
X192579761Y-99211904D01*
X192532142Y-99164285D01*
X192436904Y-99116666D01*
X191627380Y-99116666D01*
X191627380Y-98164285D02*
X191627380Y-98640476D01*
X192103571Y-98688095D01*
X192055952Y-98640476D01*
X192008333Y-98545238D01*
X192008333Y-98307142D01*
X192055952Y-98211904D01*
X192103571Y-98164285D01*
X192198809Y-98116666D01*
X192436904Y-98116666D01*
X192532142Y-98164285D01*
X192579761Y-98211904D01*
X192627380Y-98307142D01*
X192627380Y-98545238D01*
X192579761Y-98640476D01*
X192532142Y-98688095D01*
X191722619Y-97735714D02*
X191675000Y-97688095D01*
X191627380Y-97592857D01*
X191627380Y-97354761D01*
X191675000Y-97259523D01*
X191722619Y-97211904D01*
X191817857Y-97164285D01*
X191913095Y-97164285D01*
X192055952Y-97211904D01*
X192627380Y-97783333D01*
X192627380Y-97164285D01*
G04 #@! TO.C,U53*
X134027380Y-137488095D02*
X134836904Y-137488095D01*
X134932142Y-137440476D01*
X134979761Y-137392857D01*
X135027380Y-137297619D01*
X135027380Y-137107142D01*
X134979761Y-137011904D01*
X134932142Y-136964285D01*
X134836904Y-136916666D01*
X134027380Y-136916666D01*
X134027380Y-135964285D02*
X134027380Y-136440476D01*
X134503571Y-136488095D01*
X134455952Y-136440476D01*
X134408333Y-136345238D01*
X134408333Y-136107142D01*
X134455952Y-136011904D01*
X134503571Y-135964285D01*
X134598809Y-135916666D01*
X134836904Y-135916666D01*
X134932142Y-135964285D01*
X134979761Y-136011904D01*
X135027380Y-136107142D01*
X135027380Y-136345238D01*
X134979761Y-136440476D01*
X134932142Y-136488095D01*
X134027380Y-135583333D02*
X134027380Y-134964285D01*
X134408333Y-135297619D01*
X134408333Y-135154761D01*
X134455952Y-135059523D01*
X134503571Y-135011904D01*
X134598809Y-134964285D01*
X134836904Y-134964285D01*
X134932142Y-135011904D01*
X134979761Y-135059523D01*
X135027380Y-135154761D01*
X135027380Y-135440476D01*
X134979761Y-135535714D01*
X134932142Y-135583333D01*
G04 #@! TO.C,U54*
X170027380Y-137488095D02*
X170836904Y-137488095D01*
X170932142Y-137440476D01*
X170979761Y-137392857D01*
X171027380Y-137297619D01*
X171027380Y-137107142D01*
X170979761Y-137011904D01*
X170932142Y-136964285D01*
X170836904Y-136916666D01*
X170027380Y-136916666D01*
X170027380Y-135964285D02*
X170027380Y-136440476D01*
X170503571Y-136488095D01*
X170455952Y-136440476D01*
X170408333Y-136345238D01*
X170408333Y-136107142D01*
X170455952Y-136011904D01*
X170503571Y-135964285D01*
X170598809Y-135916666D01*
X170836904Y-135916666D01*
X170932142Y-135964285D01*
X170979761Y-136011904D01*
X171027380Y-136107142D01*
X171027380Y-136345238D01*
X170979761Y-136440476D01*
X170932142Y-136488095D01*
X170360714Y-135059523D02*
X171027380Y-135059523D01*
X169979761Y-135297619D02*
X170694047Y-135535714D01*
X170694047Y-134916666D01*
G04 #@! TO.C,U55*
X98027380Y-137488095D02*
X98836904Y-137488095D01*
X98932142Y-137440476D01*
X98979761Y-137392857D01*
X99027380Y-137297619D01*
X99027380Y-137107142D01*
X98979761Y-137011904D01*
X98932142Y-136964285D01*
X98836904Y-136916666D01*
X98027380Y-136916666D01*
X98027380Y-135964285D02*
X98027380Y-136440476D01*
X98503571Y-136488095D01*
X98455952Y-136440476D01*
X98408333Y-136345238D01*
X98408333Y-136107142D01*
X98455952Y-136011904D01*
X98503571Y-135964285D01*
X98598809Y-135916666D01*
X98836904Y-135916666D01*
X98932142Y-135964285D01*
X98979761Y-136011904D01*
X99027380Y-136107142D01*
X99027380Y-136345238D01*
X98979761Y-136440476D01*
X98932142Y-136488095D01*
X98027380Y-135011904D02*
X98027380Y-135488095D01*
X98503571Y-135535714D01*
X98455952Y-135488095D01*
X98408333Y-135392857D01*
X98408333Y-135154761D01*
X98455952Y-135059523D01*
X98503571Y-135011904D01*
X98598809Y-134964285D01*
X98836904Y-134964285D01*
X98932142Y-135011904D01*
X98979761Y-135059523D01*
X99027380Y-135154761D01*
X99027380Y-135392857D01*
X98979761Y-135488095D01*
X98932142Y-135535714D01*
G04 #@! TO.C,U56*
X162827380Y-137488095D02*
X163636904Y-137488095D01*
X163732142Y-137440476D01*
X163779761Y-137392857D01*
X163827380Y-137297619D01*
X163827380Y-137107142D01*
X163779761Y-137011904D01*
X163732142Y-136964285D01*
X163636904Y-136916666D01*
X162827380Y-136916666D01*
X162827380Y-135964285D02*
X162827380Y-136440476D01*
X163303571Y-136488095D01*
X163255952Y-136440476D01*
X163208333Y-136345238D01*
X163208333Y-136107142D01*
X163255952Y-136011904D01*
X163303571Y-135964285D01*
X163398809Y-135916666D01*
X163636904Y-135916666D01*
X163732142Y-135964285D01*
X163779761Y-136011904D01*
X163827380Y-136107142D01*
X163827380Y-136345238D01*
X163779761Y-136440476D01*
X163732142Y-136488095D01*
X162827380Y-135059523D02*
X162827380Y-135250000D01*
X162875000Y-135345238D01*
X162922619Y-135392857D01*
X163065476Y-135488095D01*
X163255952Y-135535714D01*
X163636904Y-135535714D01*
X163732142Y-135488095D01*
X163779761Y-135440476D01*
X163827380Y-135345238D01*
X163827380Y-135154761D01*
X163779761Y-135059523D01*
X163732142Y-135011904D01*
X163636904Y-134964285D01*
X163398809Y-134964285D01*
X163303571Y-135011904D01*
X163255952Y-135059523D01*
X163208333Y-135154761D01*
X163208333Y-135345238D01*
X163255952Y-135440476D01*
X163303571Y-135488095D01*
X163398809Y-135535714D01*
G04 #@! TO.C,U57*
X105227380Y-137488095D02*
X106036904Y-137488095D01*
X106132142Y-137440476D01*
X106179761Y-137392857D01*
X106227380Y-137297619D01*
X106227380Y-137107142D01*
X106179761Y-137011904D01*
X106132142Y-136964285D01*
X106036904Y-136916666D01*
X105227380Y-136916666D01*
X105227380Y-135964285D02*
X105227380Y-136440476D01*
X105703571Y-136488095D01*
X105655952Y-136440476D01*
X105608333Y-136345238D01*
X105608333Y-136107142D01*
X105655952Y-136011904D01*
X105703571Y-135964285D01*
X105798809Y-135916666D01*
X106036904Y-135916666D01*
X106132142Y-135964285D01*
X106179761Y-136011904D01*
X106227380Y-136107142D01*
X106227380Y-136345238D01*
X106179761Y-136440476D01*
X106132142Y-136488095D01*
X105227380Y-135583333D02*
X105227380Y-134916666D01*
X106227380Y-135345238D01*
G04 #@! TO.C,U58*
X119627380Y-137488095D02*
X120436904Y-137488095D01*
X120532142Y-137440476D01*
X120579761Y-137392857D01*
X120627380Y-137297619D01*
X120627380Y-137107142D01*
X120579761Y-137011904D01*
X120532142Y-136964285D01*
X120436904Y-136916666D01*
X119627380Y-136916666D01*
X119627380Y-135964285D02*
X119627380Y-136440476D01*
X120103571Y-136488095D01*
X120055952Y-136440476D01*
X120008333Y-136345238D01*
X120008333Y-136107142D01*
X120055952Y-136011904D01*
X120103571Y-135964285D01*
X120198809Y-135916666D01*
X120436904Y-135916666D01*
X120532142Y-135964285D01*
X120579761Y-136011904D01*
X120627380Y-136107142D01*
X120627380Y-136345238D01*
X120579761Y-136440476D01*
X120532142Y-136488095D01*
X120055952Y-135345238D02*
X120008333Y-135440476D01*
X119960714Y-135488095D01*
X119865476Y-135535714D01*
X119817857Y-135535714D01*
X119722619Y-135488095D01*
X119675000Y-135440476D01*
X119627380Y-135345238D01*
X119627380Y-135154761D01*
X119675000Y-135059523D01*
X119722619Y-135011904D01*
X119817857Y-134964285D01*
X119865476Y-134964285D01*
X119960714Y-135011904D01*
X120008333Y-135059523D01*
X120055952Y-135154761D01*
X120055952Y-135345238D01*
X120103571Y-135440476D01*
X120151190Y-135488095D01*
X120246428Y-135535714D01*
X120436904Y-135535714D01*
X120532142Y-135488095D01*
X120579761Y-135440476D01*
X120627380Y-135345238D01*
X120627380Y-135154761D01*
X120579761Y-135059523D01*
X120532142Y-135011904D01*
X120436904Y-134964285D01*
X120246428Y-134964285D01*
X120151190Y-135011904D01*
X120103571Y-135059523D01*
X120055952Y-135154761D01*
G04 #@! TO.C,U59*
X184427380Y-137488095D02*
X185236904Y-137488095D01*
X185332142Y-137440476D01*
X185379761Y-137392857D01*
X185427380Y-137297619D01*
X185427380Y-137107142D01*
X185379761Y-137011904D01*
X185332142Y-136964285D01*
X185236904Y-136916666D01*
X184427380Y-136916666D01*
X184427380Y-135964285D02*
X184427380Y-136440476D01*
X184903571Y-136488095D01*
X184855952Y-136440476D01*
X184808333Y-136345238D01*
X184808333Y-136107142D01*
X184855952Y-136011904D01*
X184903571Y-135964285D01*
X184998809Y-135916666D01*
X185236904Y-135916666D01*
X185332142Y-135964285D01*
X185379761Y-136011904D01*
X185427380Y-136107142D01*
X185427380Y-136345238D01*
X185379761Y-136440476D01*
X185332142Y-136488095D01*
X185427380Y-135440476D02*
X185427380Y-135250000D01*
X185379761Y-135154761D01*
X185332142Y-135107142D01*
X185189285Y-135011904D01*
X184998809Y-134964285D01*
X184617857Y-134964285D01*
X184522619Y-135011904D01*
X184475000Y-135059523D01*
X184427380Y-135154761D01*
X184427380Y-135345238D01*
X184475000Y-135440476D01*
X184522619Y-135488095D01*
X184617857Y-135535714D01*
X184855952Y-135535714D01*
X184951190Y-135488095D01*
X184998809Y-135440476D01*
X185046428Y-135345238D01*
X185046428Y-135154761D01*
X184998809Y-135059523D01*
X184951190Y-135011904D01*
X184855952Y-134964285D01*
G04 #@! TO.C,U60*
X206027380Y-137488095D02*
X206836904Y-137488095D01*
X206932142Y-137440476D01*
X206979761Y-137392857D01*
X207027380Y-137297619D01*
X207027380Y-137107142D01*
X206979761Y-137011904D01*
X206932142Y-136964285D01*
X206836904Y-136916666D01*
X206027380Y-136916666D01*
X206027380Y-136011904D02*
X206027380Y-136202380D01*
X206075000Y-136297619D01*
X206122619Y-136345238D01*
X206265476Y-136440476D01*
X206455952Y-136488095D01*
X206836904Y-136488095D01*
X206932142Y-136440476D01*
X206979761Y-136392857D01*
X207027380Y-136297619D01*
X207027380Y-136107142D01*
X206979761Y-136011904D01*
X206932142Y-135964285D01*
X206836904Y-135916666D01*
X206598809Y-135916666D01*
X206503571Y-135964285D01*
X206455952Y-136011904D01*
X206408333Y-136107142D01*
X206408333Y-136297619D01*
X206455952Y-136392857D01*
X206503571Y-136440476D01*
X206598809Y-136488095D01*
X206027380Y-135297619D02*
X206027380Y-135202380D01*
X206075000Y-135107142D01*
X206122619Y-135059523D01*
X206217857Y-135011904D01*
X206408333Y-134964285D01*
X206646428Y-134964285D01*
X206836904Y-135011904D01*
X206932142Y-135059523D01*
X206979761Y-135107142D01*
X207027380Y-135202380D01*
X207027380Y-135297619D01*
X206979761Y-135392857D01*
X206932142Y-135440476D01*
X206836904Y-135488095D01*
X206646428Y-135535714D01*
X206408333Y-135535714D01*
X206217857Y-135488095D01*
X206122619Y-135440476D01*
X206075000Y-135392857D01*
X206027380Y-135297619D01*
G04 #@! TO.C,U61*
X177227380Y-137488095D02*
X178036904Y-137488095D01*
X178132142Y-137440476D01*
X178179761Y-137392857D01*
X178227380Y-137297619D01*
X178227380Y-137107142D01*
X178179761Y-137011904D01*
X178132142Y-136964285D01*
X178036904Y-136916666D01*
X177227380Y-136916666D01*
X177227380Y-136011904D02*
X177227380Y-136202380D01*
X177275000Y-136297619D01*
X177322619Y-136345238D01*
X177465476Y-136440476D01*
X177655952Y-136488095D01*
X178036904Y-136488095D01*
X178132142Y-136440476D01*
X178179761Y-136392857D01*
X178227380Y-136297619D01*
X178227380Y-136107142D01*
X178179761Y-136011904D01*
X178132142Y-135964285D01*
X178036904Y-135916666D01*
X177798809Y-135916666D01*
X177703571Y-135964285D01*
X177655952Y-136011904D01*
X177608333Y-136107142D01*
X177608333Y-136297619D01*
X177655952Y-136392857D01*
X177703571Y-136440476D01*
X177798809Y-136488095D01*
X178227380Y-134964285D02*
X178227380Y-135535714D01*
X178227380Y-135250000D02*
X177227380Y-135250000D01*
X177370238Y-135345238D01*
X177465476Y-135440476D01*
X177513095Y-135535714D01*
G04 #@! TO.C,U62*
X198827380Y-137488095D02*
X199636904Y-137488095D01*
X199732142Y-137440476D01*
X199779761Y-137392857D01*
X199827380Y-137297619D01*
X199827380Y-137107142D01*
X199779761Y-137011904D01*
X199732142Y-136964285D01*
X199636904Y-136916666D01*
X198827380Y-136916666D01*
X198827380Y-136011904D02*
X198827380Y-136202380D01*
X198875000Y-136297619D01*
X198922619Y-136345238D01*
X199065476Y-136440476D01*
X199255952Y-136488095D01*
X199636904Y-136488095D01*
X199732142Y-136440476D01*
X199779761Y-136392857D01*
X199827380Y-136297619D01*
X199827380Y-136107142D01*
X199779761Y-136011904D01*
X199732142Y-135964285D01*
X199636904Y-135916666D01*
X199398809Y-135916666D01*
X199303571Y-135964285D01*
X199255952Y-136011904D01*
X199208333Y-136107142D01*
X199208333Y-136297619D01*
X199255952Y-136392857D01*
X199303571Y-136440476D01*
X199398809Y-136488095D01*
X198922619Y-135535714D02*
X198875000Y-135488095D01*
X198827380Y-135392857D01*
X198827380Y-135154761D01*
X198875000Y-135059523D01*
X198922619Y-135011904D01*
X199017857Y-134964285D01*
X199113095Y-134964285D01*
X199255952Y-135011904D01*
X199827380Y-135583333D01*
X199827380Y-134964285D01*
G04 #@! TO.C,U63*
X126827380Y-137488095D02*
X127636904Y-137488095D01*
X127732142Y-137440476D01*
X127779761Y-137392857D01*
X127827380Y-137297619D01*
X127827380Y-137107142D01*
X127779761Y-137011904D01*
X127732142Y-136964285D01*
X127636904Y-136916666D01*
X126827380Y-136916666D01*
X126827380Y-136011904D02*
X126827380Y-136202380D01*
X126875000Y-136297619D01*
X126922619Y-136345238D01*
X127065476Y-136440476D01*
X127255952Y-136488095D01*
X127636904Y-136488095D01*
X127732142Y-136440476D01*
X127779761Y-136392857D01*
X127827380Y-136297619D01*
X127827380Y-136107142D01*
X127779761Y-136011904D01*
X127732142Y-135964285D01*
X127636904Y-135916666D01*
X127398809Y-135916666D01*
X127303571Y-135964285D01*
X127255952Y-136011904D01*
X127208333Y-136107142D01*
X127208333Y-136297619D01*
X127255952Y-136392857D01*
X127303571Y-136440476D01*
X127398809Y-136488095D01*
X126827380Y-135583333D02*
X126827380Y-134964285D01*
X127208333Y-135297619D01*
X127208333Y-135154761D01*
X127255952Y-135059523D01*
X127303571Y-135011904D01*
X127398809Y-134964285D01*
X127636904Y-134964285D01*
X127732142Y-135011904D01*
X127779761Y-135059523D01*
X127827380Y-135154761D01*
X127827380Y-135440476D01*
X127779761Y-135535714D01*
X127732142Y-135583333D01*
G04 #@! TO.C,U64*
X191627380Y-137488095D02*
X192436904Y-137488095D01*
X192532142Y-137440476D01*
X192579761Y-137392857D01*
X192627380Y-137297619D01*
X192627380Y-137107142D01*
X192579761Y-137011904D01*
X192532142Y-136964285D01*
X192436904Y-136916666D01*
X191627380Y-136916666D01*
X191627380Y-136011904D02*
X191627380Y-136202380D01*
X191675000Y-136297619D01*
X191722619Y-136345238D01*
X191865476Y-136440476D01*
X192055952Y-136488095D01*
X192436904Y-136488095D01*
X192532142Y-136440476D01*
X192579761Y-136392857D01*
X192627380Y-136297619D01*
X192627380Y-136107142D01*
X192579761Y-136011904D01*
X192532142Y-135964285D01*
X192436904Y-135916666D01*
X192198809Y-135916666D01*
X192103571Y-135964285D01*
X192055952Y-136011904D01*
X192008333Y-136107142D01*
X192008333Y-136297619D01*
X192055952Y-136392857D01*
X192103571Y-136440476D01*
X192198809Y-136488095D01*
X191960714Y-135059523D02*
X192627380Y-135059523D01*
X191579761Y-135297619D02*
X192294047Y-135535714D01*
X192294047Y-134916666D01*
G04 #@! TO.C,U16*
X226227380Y-137488095D02*
X227036904Y-137488095D01*
X227132142Y-137440476D01*
X227179761Y-137392857D01*
X227227380Y-137297619D01*
X227227380Y-137107142D01*
X227179761Y-137011904D01*
X227132142Y-136964285D01*
X227036904Y-136916666D01*
X226227380Y-136916666D01*
X227227380Y-135916666D02*
X227227380Y-136488095D01*
X227227380Y-136202380D02*
X226227380Y-136202380D01*
X226370238Y-136297619D01*
X226465476Y-136392857D01*
X226513095Y-136488095D01*
X226227380Y-135059523D02*
X226227380Y-135250000D01*
X226275000Y-135345238D01*
X226322619Y-135392857D01*
X226465476Y-135488095D01*
X226655952Y-135535714D01*
X227036904Y-135535714D01*
X227132142Y-135488095D01*
X227179761Y-135440476D01*
X227227380Y-135345238D01*
X227227380Y-135154761D01*
X227179761Y-135059523D01*
X227132142Y-135011904D01*
X227036904Y-134964285D01*
X226798809Y-134964285D01*
X226703571Y-135011904D01*
X226655952Y-135059523D01*
X226608333Y-135154761D01*
X226608333Y-135345238D01*
X226655952Y-135440476D01*
X226703571Y-135488095D01*
X226798809Y-135535714D01*
G04 #@! TO.C,P1*
X110401904Y-159752380D02*
X110401904Y-158752380D01*
X110782857Y-158752380D01*
X110878095Y-158800000D01*
X110925714Y-158847619D01*
X110973333Y-158942857D01*
X110973333Y-159085714D01*
X110925714Y-159180952D01*
X110878095Y-159228571D01*
X110782857Y-159276190D01*
X110401904Y-159276190D01*
X111925714Y-159752380D02*
X111354285Y-159752380D01*
X111640000Y-159752380D02*
X111640000Y-158752380D01*
X111544761Y-158895238D01*
X111449523Y-158990476D01*
X111354285Y-159038095D01*
G04 #@! TO.C,C1*
X249457142Y-143366666D02*
X249504761Y-143414285D01*
X249552380Y-143557142D01*
X249552380Y-143652380D01*
X249504761Y-143795238D01*
X249409523Y-143890476D01*
X249314285Y-143938095D01*
X249123809Y-143985714D01*
X248980952Y-143985714D01*
X248790476Y-143938095D01*
X248695238Y-143890476D01*
X248600000Y-143795238D01*
X248552380Y-143652380D01*
X248552380Y-143557142D01*
X248600000Y-143414285D01*
X248647619Y-143366666D01*
X249552380Y-142414285D02*
X249552380Y-142985714D01*
X249552380Y-142700000D02*
X248552380Y-142700000D01*
X248695238Y-142795238D01*
X248790476Y-142890476D01*
X248838095Y-142985714D01*
G04 #@! TO.C,C2*
X251057142Y-111166666D02*
X251104761Y-111214285D01*
X251152380Y-111357142D01*
X251152380Y-111452380D01*
X251104761Y-111595238D01*
X251009523Y-111690476D01*
X250914285Y-111738095D01*
X250723809Y-111785714D01*
X250580952Y-111785714D01*
X250390476Y-111738095D01*
X250295238Y-111690476D01*
X250200000Y-111595238D01*
X250152380Y-111452380D01*
X250152380Y-111357142D01*
X250200000Y-111214285D01*
X250247619Y-111166666D01*
X250247619Y-110785714D02*
X250200000Y-110738095D01*
X250152380Y-110642857D01*
X250152380Y-110404761D01*
X250200000Y-110309523D01*
X250247619Y-110261904D01*
X250342857Y-110214285D01*
X250438095Y-110214285D01*
X250580952Y-110261904D01*
X251152380Y-110833333D01*
X251152380Y-110214285D01*
G04 #@! TO.C,C3*
X67657142Y-130966666D02*
X67704761Y-131014285D01*
X67752380Y-131157142D01*
X67752380Y-131252380D01*
X67704761Y-131395238D01*
X67609523Y-131490476D01*
X67514285Y-131538095D01*
X67323809Y-131585714D01*
X67180952Y-131585714D01*
X66990476Y-131538095D01*
X66895238Y-131490476D01*
X66800000Y-131395238D01*
X66752380Y-131252380D01*
X66752380Y-131157142D01*
X66800000Y-131014285D01*
X66847619Y-130966666D01*
X66752380Y-130633333D02*
X66752380Y-130014285D01*
X67133333Y-130347619D01*
X67133333Y-130204761D01*
X67180952Y-130109523D01*
X67228571Y-130061904D01*
X67323809Y-130014285D01*
X67561904Y-130014285D01*
X67657142Y-130061904D01*
X67704761Y-130109523D01*
X67752380Y-130204761D01*
X67752380Y-130490476D01*
X67704761Y-130585714D01*
X67657142Y-130633333D01*
G04 #@! TO.C,C4*
X256457142Y-110966666D02*
X256504761Y-111014285D01*
X256552380Y-111157142D01*
X256552380Y-111252380D01*
X256504761Y-111395238D01*
X256409523Y-111490476D01*
X256314285Y-111538095D01*
X256123809Y-111585714D01*
X255980952Y-111585714D01*
X255790476Y-111538095D01*
X255695238Y-111490476D01*
X255600000Y-111395238D01*
X255552380Y-111252380D01*
X255552380Y-111157142D01*
X255600000Y-111014285D01*
X255647619Y-110966666D01*
X255885714Y-110109523D02*
X256552380Y-110109523D01*
X255504761Y-110347619D02*
X256219047Y-110585714D01*
X256219047Y-109966666D01*
G04 #@! TO.C,C5*
X104657142Y-130566666D02*
X104704761Y-130614285D01*
X104752380Y-130757142D01*
X104752380Y-130852380D01*
X104704761Y-130995238D01*
X104609523Y-131090476D01*
X104514285Y-131138095D01*
X104323809Y-131185714D01*
X104180952Y-131185714D01*
X103990476Y-131138095D01*
X103895238Y-131090476D01*
X103800000Y-130995238D01*
X103752380Y-130852380D01*
X103752380Y-130757142D01*
X103800000Y-130614285D01*
X103847619Y-130566666D01*
X103752380Y-129661904D02*
X103752380Y-130138095D01*
X104228571Y-130185714D01*
X104180952Y-130138095D01*
X104133333Y-130042857D01*
X104133333Y-129804761D01*
X104180952Y-129709523D01*
X104228571Y-129661904D01*
X104323809Y-129614285D01*
X104561904Y-129614285D01*
X104657142Y-129661904D01*
X104704761Y-129709523D01*
X104752380Y-129804761D01*
X104752380Y-130042857D01*
X104704761Y-130138095D01*
X104657142Y-130185714D01*
G04 #@! TO.C,C6*
X133357142Y-130766666D02*
X133404761Y-130814285D01*
X133452380Y-130957142D01*
X133452380Y-131052380D01*
X133404761Y-131195238D01*
X133309523Y-131290476D01*
X133214285Y-131338095D01*
X133023809Y-131385714D01*
X132880952Y-131385714D01*
X132690476Y-131338095D01*
X132595238Y-131290476D01*
X132500000Y-131195238D01*
X132452380Y-131052380D01*
X132452380Y-130957142D01*
X132500000Y-130814285D01*
X132547619Y-130766666D01*
X132452380Y-129909523D02*
X132452380Y-130100000D01*
X132500000Y-130195238D01*
X132547619Y-130242857D01*
X132690476Y-130338095D01*
X132880952Y-130385714D01*
X133261904Y-130385714D01*
X133357142Y-130338095D01*
X133404761Y-130290476D01*
X133452380Y-130195238D01*
X133452380Y-130004761D01*
X133404761Y-129909523D01*
X133357142Y-129861904D01*
X133261904Y-129814285D01*
X133023809Y-129814285D01*
X132928571Y-129861904D01*
X132880952Y-129909523D01*
X132833333Y-130004761D01*
X132833333Y-130195238D01*
X132880952Y-130290476D01*
X132928571Y-130338095D01*
X133023809Y-130385714D01*
G04 #@! TO.C,C7*
X82957142Y-130766666D02*
X83004761Y-130814285D01*
X83052380Y-130957142D01*
X83052380Y-131052380D01*
X83004761Y-131195238D01*
X82909523Y-131290476D01*
X82814285Y-131338095D01*
X82623809Y-131385714D01*
X82480952Y-131385714D01*
X82290476Y-131338095D01*
X82195238Y-131290476D01*
X82100000Y-131195238D01*
X82052380Y-131052380D01*
X82052380Y-130957142D01*
X82100000Y-130814285D01*
X82147619Y-130766666D01*
X82052380Y-130433333D02*
X82052380Y-129766666D01*
X83052380Y-130195238D01*
G04 #@! TO.C,C8*
X147557142Y-130766666D02*
X147604761Y-130814285D01*
X147652380Y-130957142D01*
X147652380Y-131052380D01*
X147604761Y-131195238D01*
X147509523Y-131290476D01*
X147414285Y-131338095D01*
X147223809Y-131385714D01*
X147080952Y-131385714D01*
X146890476Y-131338095D01*
X146795238Y-131290476D01*
X146700000Y-131195238D01*
X146652380Y-131052380D01*
X146652380Y-130957142D01*
X146700000Y-130814285D01*
X146747619Y-130766666D01*
X147080952Y-130195238D02*
X147033333Y-130290476D01*
X146985714Y-130338095D01*
X146890476Y-130385714D01*
X146842857Y-130385714D01*
X146747619Y-130338095D01*
X146700000Y-130290476D01*
X146652380Y-130195238D01*
X146652380Y-130004761D01*
X146700000Y-129909523D01*
X146747619Y-129861904D01*
X146842857Y-129814285D01*
X146890476Y-129814285D01*
X146985714Y-129861904D01*
X147033333Y-129909523D01*
X147080952Y-130004761D01*
X147080952Y-130195238D01*
X147128571Y-130290476D01*
X147176190Y-130338095D01*
X147271428Y-130385714D01*
X147461904Y-130385714D01*
X147557142Y-130338095D01*
X147604761Y-130290476D01*
X147652380Y-130195238D01*
X147652380Y-130004761D01*
X147604761Y-129909523D01*
X147557142Y-129861904D01*
X147461904Y-129814285D01*
X147271428Y-129814285D01*
X147176190Y-129861904D01*
X147128571Y-129909523D01*
X147080952Y-130004761D01*
G04 #@! TO.C,C9*
X75757142Y-130766666D02*
X75804761Y-130814285D01*
X75852380Y-130957142D01*
X75852380Y-131052380D01*
X75804761Y-131195238D01*
X75709523Y-131290476D01*
X75614285Y-131338095D01*
X75423809Y-131385714D01*
X75280952Y-131385714D01*
X75090476Y-131338095D01*
X74995238Y-131290476D01*
X74900000Y-131195238D01*
X74852380Y-131052380D01*
X74852380Y-130957142D01*
X74900000Y-130814285D01*
X74947619Y-130766666D01*
X75852380Y-130290476D02*
X75852380Y-130100000D01*
X75804761Y-130004761D01*
X75757142Y-129957142D01*
X75614285Y-129861904D01*
X75423809Y-129814285D01*
X75042857Y-129814285D01*
X74947619Y-129861904D01*
X74900000Y-129909523D01*
X74852380Y-130004761D01*
X74852380Y-130195238D01*
X74900000Y-130290476D01*
X74947619Y-130338095D01*
X75042857Y-130385714D01*
X75280952Y-130385714D01*
X75376190Y-130338095D01*
X75423809Y-130290476D01*
X75471428Y-130195238D01*
X75471428Y-130004761D01*
X75423809Y-129909523D01*
X75376190Y-129861904D01*
X75280952Y-129814285D01*
G04 #@! TO.C,C10*
X140657142Y-131242857D02*
X140704761Y-131290476D01*
X140752380Y-131433333D01*
X140752380Y-131528571D01*
X140704761Y-131671428D01*
X140609523Y-131766666D01*
X140514285Y-131814285D01*
X140323809Y-131861904D01*
X140180952Y-131861904D01*
X139990476Y-131814285D01*
X139895238Y-131766666D01*
X139800000Y-131671428D01*
X139752380Y-131528571D01*
X139752380Y-131433333D01*
X139800000Y-131290476D01*
X139847619Y-131242857D01*
X140752380Y-130290476D02*
X140752380Y-130861904D01*
X140752380Y-130576190D02*
X139752380Y-130576190D01*
X139895238Y-130671428D01*
X139990476Y-130766666D01*
X140038095Y-130861904D01*
X139752380Y-129671428D02*
X139752380Y-129576190D01*
X139800000Y-129480952D01*
X139847619Y-129433333D01*
X139942857Y-129385714D01*
X140133333Y-129338095D01*
X140371428Y-129338095D01*
X140561904Y-129385714D01*
X140657142Y-129433333D01*
X140704761Y-129480952D01*
X140752380Y-129576190D01*
X140752380Y-129671428D01*
X140704761Y-129766666D01*
X140657142Y-129814285D01*
X140561904Y-129861904D01*
X140371428Y-129909523D01*
X140133333Y-129909523D01*
X139942857Y-129861904D01*
X139847619Y-129814285D01*
X139800000Y-129766666D01*
X139752380Y-129671428D01*
G04 #@! TO.C,C11*
X219957142Y-131092857D02*
X220004761Y-131140476D01*
X220052380Y-131283333D01*
X220052380Y-131378571D01*
X220004761Y-131521428D01*
X219909523Y-131616666D01*
X219814285Y-131664285D01*
X219623809Y-131711904D01*
X219480952Y-131711904D01*
X219290476Y-131664285D01*
X219195238Y-131616666D01*
X219100000Y-131521428D01*
X219052380Y-131378571D01*
X219052380Y-131283333D01*
X219100000Y-131140476D01*
X219147619Y-131092857D01*
X220052380Y-130140476D02*
X220052380Y-130711904D01*
X220052380Y-130426190D02*
X219052380Y-130426190D01*
X219195238Y-130521428D01*
X219290476Y-130616666D01*
X219338095Y-130711904D01*
X220052380Y-129188095D02*
X220052380Y-129759523D01*
X220052380Y-129473809D02*
X219052380Y-129473809D01*
X219195238Y-129569047D01*
X219290476Y-129664285D01*
X219338095Y-129759523D01*
G04 #@! TO.C,C12*
X241657142Y-131142857D02*
X241704761Y-131190476D01*
X241752380Y-131333333D01*
X241752380Y-131428571D01*
X241704761Y-131571428D01*
X241609523Y-131666666D01*
X241514285Y-131714285D01*
X241323809Y-131761904D01*
X241180952Y-131761904D01*
X240990476Y-131714285D01*
X240895238Y-131666666D01*
X240800000Y-131571428D01*
X240752380Y-131428571D01*
X240752380Y-131333333D01*
X240800000Y-131190476D01*
X240847619Y-131142857D01*
X241752380Y-130190476D02*
X241752380Y-130761904D01*
X241752380Y-130476190D02*
X240752380Y-130476190D01*
X240895238Y-130571428D01*
X240990476Y-130666666D01*
X241038095Y-130761904D01*
X240847619Y-129809523D02*
X240800000Y-129761904D01*
X240752380Y-129666666D01*
X240752380Y-129428571D01*
X240800000Y-129333333D01*
X240847619Y-129285714D01*
X240942857Y-129238095D01*
X241038095Y-129238095D01*
X241180952Y-129285714D01*
X241752380Y-129857142D01*
X241752380Y-129238095D01*
G04 #@! TO.C,C13*
X212557142Y-131142857D02*
X212604761Y-131190476D01*
X212652380Y-131333333D01*
X212652380Y-131428571D01*
X212604761Y-131571428D01*
X212509523Y-131666666D01*
X212414285Y-131714285D01*
X212223809Y-131761904D01*
X212080952Y-131761904D01*
X211890476Y-131714285D01*
X211795238Y-131666666D01*
X211700000Y-131571428D01*
X211652380Y-131428571D01*
X211652380Y-131333333D01*
X211700000Y-131190476D01*
X211747619Y-131142857D01*
X212652380Y-130190476D02*
X212652380Y-130761904D01*
X212652380Y-130476190D02*
X211652380Y-130476190D01*
X211795238Y-130571428D01*
X211890476Y-130666666D01*
X211938095Y-130761904D01*
X211652380Y-129857142D02*
X211652380Y-129238095D01*
X212033333Y-129571428D01*
X212033333Y-129428571D01*
X212080952Y-129333333D01*
X212128571Y-129285714D01*
X212223809Y-129238095D01*
X212461904Y-129238095D01*
X212557142Y-129285714D01*
X212604761Y-129333333D01*
X212652380Y-129428571D01*
X212652380Y-129714285D01*
X212604761Y-129809523D01*
X212557142Y-129857142D01*
G04 #@! TO.C,C14*
X234457142Y-131142857D02*
X234504761Y-131190476D01*
X234552380Y-131333333D01*
X234552380Y-131428571D01*
X234504761Y-131571428D01*
X234409523Y-131666666D01*
X234314285Y-131714285D01*
X234123809Y-131761904D01*
X233980952Y-131761904D01*
X233790476Y-131714285D01*
X233695238Y-131666666D01*
X233600000Y-131571428D01*
X233552380Y-131428571D01*
X233552380Y-131333333D01*
X233600000Y-131190476D01*
X233647619Y-131142857D01*
X234552380Y-130190476D02*
X234552380Y-130761904D01*
X234552380Y-130476190D02*
X233552380Y-130476190D01*
X233695238Y-130571428D01*
X233790476Y-130666666D01*
X233838095Y-130761904D01*
X233885714Y-129333333D02*
X234552380Y-129333333D01*
X233504761Y-129571428D02*
X234219047Y-129809523D01*
X234219047Y-129190476D01*
G04 #@! TO.C,C15*
X205457142Y-131142857D02*
X205504761Y-131190476D01*
X205552380Y-131333333D01*
X205552380Y-131428571D01*
X205504761Y-131571428D01*
X205409523Y-131666666D01*
X205314285Y-131714285D01*
X205123809Y-131761904D01*
X204980952Y-131761904D01*
X204790476Y-131714285D01*
X204695238Y-131666666D01*
X204600000Y-131571428D01*
X204552380Y-131428571D01*
X204552380Y-131333333D01*
X204600000Y-131190476D01*
X204647619Y-131142857D01*
X205552380Y-130190476D02*
X205552380Y-130761904D01*
X205552380Y-130476190D02*
X204552380Y-130476190D01*
X204695238Y-130571428D01*
X204790476Y-130666666D01*
X204838095Y-130761904D01*
X204552380Y-129285714D02*
X204552380Y-129761904D01*
X205028571Y-129809523D01*
X204980952Y-129761904D01*
X204933333Y-129666666D01*
X204933333Y-129428571D01*
X204980952Y-129333333D01*
X205028571Y-129285714D01*
X205123809Y-129238095D01*
X205361904Y-129238095D01*
X205457142Y-129285714D01*
X205504761Y-129333333D01*
X205552380Y-129428571D01*
X205552380Y-129666666D01*
X205504761Y-129761904D01*
X205457142Y-129809523D01*
G04 #@! TO.C,C16*
X226957142Y-131142857D02*
X227004761Y-131190476D01*
X227052380Y-131333333D01*
X227052380Y-131428571D01*
X227004761Y-131571428D01*
X226909523Y-131666666D01*
X226814285Y-131714285D01*
X226623809Y-131761904D01*
X226480952Y-131761904D01*
X226290476Y-131714285D01*
X226195238Y-131666666D01*
X226100000Y-131571428D01*
X226052380Y-131428571D01*
X226052380Y-131333333D01*
X226100000Y-131190476D01*
X226147619Y-131142857D01*
X227052380Y-130190476D02*
X227052380Y-130761904D01*
X227052380Y-130476190D02*
X226052380Y-130476190D01*
X226195238Y-130571428D01*
X226290476Y-130666666D01*
X226338095Y-130761904D01*
X226052380Y-129333333D02*
X226052380Y-129523809D01*
X226100000Y-129619047D01*
X226147619Y-129666666D01*
X226290476Y-129761904D01*
X226480952Y-129809523D01*
X226861904Y-129809523D01*
X226957142Y-129761904D01*
X227004761Y-129714285D01*
X227052380Y-129619047D01*
X227052380Y-129428571D01*
X227004761Y-129333333D01*
X226957142Y-129285714D01*
X226861904Y-129238095D01*
X226623809Y-129238095D01*
X226528571Y-129285714D01*
X226480952Y-129333333D01*
X226433333Y-129428571D01*
X226433333Y-129619047D01*
X226480952Y-129714285D01*
X226528571Y-129761904D01*
X226623809Y-129809523D01*
G04 #@! TO.C,C17*
X133457142Y-93242857D02*
X133504761Y-93290476D01*
X133552380Y-93433333D01*
X133552380Y-93528571D01*
X133504761Y-93671428D01*
X133409523Y-93766666D01*
X133314285Y-93814285D01*
X133123809Y-93861904D01*
X132980952Y-93861904D01*
X132790476Y-93814285D01*
X132695238Y-93766666D01*
X132600000Y-93671428D01*
X132552380Y-93528571D01*
X132552380Y-93433333D01*
X132600000Y-93290476D01*
X132647619Y-93242857D01*
X133552380Y-92290476D02*
X133552380Y-92861904D01*
X133552380Y-92576190D02*
X132552380Y-92576190D01*
X132695238Y-92671428D01*
X132790476Y-92766666D01*
X132838095Y-92861904D01*
X132552380Y-91957142D02*
X132552380Y-91290476D01*
X133552380Y-91719047D01*
G04 #@! TO.C,C18*
X155057142Y-93292857D02*
X155104761Y-93340476D01*
X155152380Y-93483333D01*
X155152380Y-93578571D01*
X155104761Y-93721428D01*
X155009523Y-93816666D01*
X154914285Y-93864285D01*
X154723809Y-93911904D01*
X154580952Y-93911904D01*
X154390476Y-93864285D01*
X154295238Y-93816666D01*
X154200000Y-93721428D01*
X154152380Y-93578571D01*
X154152380Y-93483333D01*
X154200000Y-93340476D01*
X154247619Y-93292857D01*
X155152380Y-92340476D02*
X155152380Y-92911904D01*
X155152380Y-92626190D02*
X154152380Y-92626190D01*
X154295238Y-92721428D01*
X154390476Y-92816666D01*
X154438095Y-92911904D01*
X154580952Y-91769047D02*
X154533333Y-91864285D01*
X154485714Y-91911904D01*
X154390476Y-91959523D01*
X154342857Y-91959523D01*
X154247619Y-91911904D01*
X154200000Y-91864285D01*
X154152380Y-91769047D01*
X154152380Y-91578571D01*
X154200000Y-91483333D01*
X154247619Y-91435714D01*
X154342857Y-91388095D01*
X154390476Y-91388095D01*
X154485714Y-91435714D01*
X154533333Y-91483333D01*
X154580952Y-91578571D01*
X154580952Y-91769047D01*
X154628571Y-91864285D01*
X154676190Y-91911904D01*
X154771428Y-91959523D01*
X154961904Y-91959523D01*
X155057142Y-91911904D01*
X155104761Y-91864285D01*
X155152380Y-91769047D01*
X155152380Y-91578571D01*
X155104761Y-91483333D01*
X155057142Y-91435714D01*
X154961904Y-91388095D01*
X154771428Y-91388095D01*
X154676190Y-91435714D01*
X154628571Y-91483333D01*
X154580952Y-91578571D01*
G04 #@! TO.C,C19*
X126257142Y-93242857D02*
X126304761Y-93290476D01*
X126352380Y-93433333D01*
X126352380Y-93528571D01*
X126304761Y-93671428D01*
X126209523Y-93766666D01*
X126114285Y-93814285D01*
X125923809Y-93861904D01*
X125780952Y-93861904D01*
X125590476Y-93814285D01*
X125495238Y-93766666D01*
X125400000Y-93671428D01*
X125352380Y-93528571D01*
X125352380Y-93433333D01*
X125400000Y-93290476D01*
X125447619Y-93242857D01*
X126352380Y-92290476D02*
X126352380Y-92861904D01*
X126352380Y-92576190D02*
X125352380Y-92576190D01*
X125495238Y-92671428D01*
X125590476Y-92766666D01*
X125638095Y-92861904D01*
X126352380Y-91814285D02*
X126352380Y-91623809D01*
X126304761Y-91528571D01*
X126257142Y-91480952D01*
X126114285Y-91385714D01*
X125923809Y-91338095D01*
X125542857Y-91338095D01*
X125447619Y-91385714D01*
X125400000Y-91433333D01*
X125352380Y-91528571D01*
X125352380Y-91719047D01*
X125400000Y-91814285D01*
X125447619Y-91861904D01*
X125542857Y-91909523D01*
X125780952Y-91909523D01*
X125876190Y-91861904D01*
X125923809Y-91814285D01*
X125971428Y-91719047D01*
X125971428Y-91528571D01*
X125923809Y-91433333D01*
X125876190Y-91385714D01*
X125780952Y-91338095D01*
G04 #@! TO.C,C20*
X147657142Y-93242857D02*
X147704761Y-93290476D01*
X147752380Y-93433333D01*
X147752380Y-93528571D01*
X147704761Y-93671428D01*
X147609523Y-93766666D01*
X147514285Y-93814285D01*
X147323809Y-93861904D01*
X147180952Y-93861904D01*
X146990476Y-93814285D01*
X146895238Y-93766666D01*
X146800000Y-93671428D01*
X146752380Y-93528571D01*
X146752380Y-93433333D01*
X146800000Y-93290476D01*
X146847619Y-93242857D01*
X146847619Y-92861904D02*
X146800000Y-92814285D01*
X146752380Y-92719047D01*
X146752380Y-92480952D01*
X146800000Y-92385714D01*
X146847619Y-92338095D01*
X146942857Y-92290476D01*
X147038095Y-92290476D01*
X147180952Y-92338095D01*
X147752380Y-92909523D01*
X147752380Y-92290476D01*
X146752380Y-91671428D02*
X146752380Y-91576190D01*
X146800000Y-91480952D01*
X146847619Y-91433333D01*
X146942857Y-91385714D01*
X147133333Y-91338095D01*
X147371428Y-91338095D01*
X147561904Y-91385714D01*
X147657142Y-91433333D01*
X147704761Y-91480952D01*
X147752380Y-91576190D01*
X147752380Y-91671428D01*
X147704761Y-91766666D01*
X147657142Y-91814285D01*
X147561904Y-91861904D01*
X147371428Y-91909523D01*
X147133333Y-91909523D01*
X146942857Y-91861904D01*
X146847619Y-91814285D01*
X146800000Y-91766666D01*
X146752380Y-91671428D01*
G04 #@! TO.C,C21*
X119057142Y-93242857D02*
X119104761Y-93290476D01*
X119152380Y-93433333D01*
X119152380Y-93528571D01*
X119104761Y-93671428D01*
X119009523Y-93766666D01*
X118914285Y-93814285D01*
X118723809Y-93861904D01*
X118580952Y-93861904D01*
X118390476Y-93814285D01*
X118295238Y-93766666D01*
X118200000Y-93671428D01*
X118152380Y-93528571D01*
X118152380Y-93433333D01*
X118200000Y-93290476D01*
X118247619Y-93242857D01*
X118247619Y-92861904D02*
X118200000Y-92814285D01*
X118152380Y-92719047D01*
X118152380Y-92480952D01*
X118200000Y-92385714D01*
X118247619Y-92338095D01*
X118342857Y-92290476D01*
X118438095Y-92290476D01*
X118580952Y-92338095D01*
X119152380Y-92909523D01*
X119152380Y-92290476D01*
X119152380Y-91338095D02*
X119152380Y-91909523D01*
X119152380Y-91623809D02*
X118152380Y-91623809D01*
X118295238Y-91719047D01*
X118390476Y-91814285D01*
X118438095Y-91909523D01*
G04 #@! TO.C,C22*
X140657142Y-93242857D02*
X140704761Y-93290476D01*
X140752380Y-93433333D01*
X140752380Y-93528571D01*
X140704761Y-93671428D01*
X140609523Y-93766666D01*
X140514285Y-93814285D01*
X140323809Y-93861904D01*
X140180952Y-93861904D01*
X139990476Y-93814285D01*
X139895238Y-93766666D01*
X139800000Y-93671428D01*
X139752380Y-93528571D01*
X139752380Y-93433333D01*
X139800000Y-93290476D01*
X139847619Y-93242857D01*
X139847619Y-92861904D02*
X139800000Y-92814285D01*
X139752380Y-92719047D01*
X139752380Y-92480952D01*
X139800000Y-92385714D01*
X139847619Y-92338095D01*
X139942857Y-92290476D01*
X140038095Y-92290476D01*
X140180952Y-92338095D01*
X140752380Y-92909523D01*
X140752380Y-92290476D01*
X139847619Y-91909523D02*
X139800000Y-91861904D01*
X139752380Y-91766666D01*
X139752380Y-91528571D01*
X139800000Y-91433333D01*
X139847619Y-91385714D01*
X139942857Y-91338095D01*
X140038095Y-91338095D01*
X140180952Y-91385714D01*
X140752380Y-91957142D01*
X140752380Y-91338095D01*
G04 #@! TO.C,C23*
X219857142Y-93442857D02*
X219904761Y-93490476D01*
X219952380Y-93633333D01*
X219952380Y-93728571D01*
X219904761Y-93871428D01*
X219809523Y-93966666D01*
X219714285Y-94014285D01*
X219523809Y-94061904D01*
X219380952Y-94061904D01*
X219190476Y-94014285D01*
X219095238Y-93966666D01*
X219000000Y-93871428D01*
X218952380Y-93728571D01*
X218952380Y-93633333D01*
X219000000Y-93490476D01*
X219047619Y-93442857D01*
X219047619Y-93061904D02*
X219000000Y-93014285D01*
X218952380Y-92919047D01*
X218952380Y-92680952D01*
X219000000Y-92585714D01*
X219047619Y-92538095D01*
X219142857Y-92490476D01*
X219238095Y-92490476D01*
X219380952Y-92538095D01*
X219952380Y-93109523D01*
X219952380Y-92490476D01*
X218952380Y-92157142D02*
X218952380Y-91538095D01*
X219333333Y-91871428D01*
X219333333Y-91728571D01*
X219380952Y-91633333D01*
X219428571Y-91585714D01*
X219523809Y-91538095D01*
X219761904Y-91538095D01*
X219857142Y-91585714D01*
X219904761Y-91633333D01*
X219952380Y-91728571D01*
X219952380Y-92014285D01*
X219904761Y-92109523D01*
X219857142Y-92157142D01*
G04 #@! TO.C,C24*
X241457142Y-93442857D02*
X241504761Y-93490476D01*
X241552380Y-93633333D01*
X241552380Y-93728571D01*
X241504761Y-93871428D01*
X241409523Y-93966666D01*
X241314285Y-94014285D01*
X241123809Y-94061904D01*
X240980952Y-94061904D01*
X240790476Y-94014285D01*
X240695238Y-93966666D01*
X240600000Y-93871428D01*
X240552380Y-93728571D01*
X240552380Y-93633333D01*
X240600000Y-93490476D01*
X240647619Y-93442857D01*
X240647619Y-93061904D02*
X240600000Y-93014285D01*
X240552380Y-92919047D01*
X240552380Y-92680952D01*
X240600000Y-92585714D01*
X240647619Y-92538095D01*
X240742857Y-92490476D01*
X240838095Y-92490476D01*
X240980952Y-92538095D01*
X241552380Y-93109523D01*
X241552380Y-92490476D01*
X240885714Y-91633333D02*
X241552380Y-91633333D01*
X240504761Y-91871428D02*
X241219047Y-92109523D01*
X241219047Y-91490476D01*
G04 #@! TO.C,C25*
X212657142Y-93442857D02*
X212704761Y-93490476D01*
X212752380Y-93633333D01*
X212752380Y-93728571D01*
X212704761Y-93871428D01*
X212609523Y-93966666D01*
X212514285Y-94014285D01*
X212323809Y-94061904D01*
X212180952Y-94061904D01*
X211990476Y-94014285D01*
X211895238Y-93966666D01*
X211800000Y-93871428D01*
X211752380Y-93728571D01*
X211752380Y-93633333D01*
X211800000Y-93490476D01*
X211847619Y-93442857D01*
X211847619Y-93061904D02*
X211800000Y-93014285D01*
X211752380Y-92919047D01*
X211752380Y-92680952D01*
X211800000Y-92585714D01*
X211847619Y-92538095D01*
X211942857Y-92490476D01*
X212038095Y-92490476D01*
X212180952Y-92538095D01*
X212752380Y-93109523D01*
X212752380Y-92490476D01*
X211752380Y-91585714D02*
X211752380Y-92061904D01*
X212228571Y-92109523D01*
X212180952Y-92061904D01*
X212133333Y-91966666D01*
X212133333Y-91728571D01*
X212180952Y-91633333D01*
X212228571Y-91585714D01*
X212323809Y-91538095D01*
X212561904Y-91538095D01*
X212657142Y-91585714D01*
X212704761Y-91633333D01*
X212752380Y-91728571D01*
X212752380Y-91966666D01*
X212704761Y-92061904D01*
X212657142Y-92109523D01*
G04 #@! TO.C,C26*
X234257142Y-93442857D02*
X234304761Y-93490476D01*
X234352380Y-93633333D01*
X234352380Y-93728571D01*
X234304761Y-93871428D01*
X234209523Y-93966666D01*
X234114285Y-94014285D01*
X233923809Y-94061904D01*
X233780952Y-94061904D01*
X233590476Y-94014285D01*
X233495238Y-93966666D01*
X233400000Y-93871428D01*
X233352380Y-93728571D01*
X233352380Y-93633333D01*
X233400000Y-93490476D01*
X233447619Y-93442857D01*
X233447619Y-93061904D02*
X233400000Y-93014285D01*
X233352380Y-92919047D01*
X233352380Y-92680952D01*
X233400000Y-92585714D01*
X233447619Y-92538095D01*
X233542857Y-92490476D01*
X233638095Y-92490476D01*
X233780952Y-92538095D01*
X234352380Y-93109523D01*
X234352380Y-92490476D01*
X233352380Y-91633333D02*
X233352380Y-91823809D01*
X233400000Y-91919047D01*
X233447619Y-91966666D01*
X233590476Y-92061904D01*
X233780952Y-92109523D01*
X234161904Y-92109523D01*
X234257142Y-92061904D01*
X234304761Y-92014285D01*
X234352380Y-91919047D01*
X234352380Y-91728571D01*
X234304761Y-91633333D01*
X234257142Y-91585714D01*
X234161904Y-91538095D01*
X233923809Y-91538095D01*
X233828571Y-91585714D01*
X233780952Y-91633333D01*
X233733333Y-91728571D01*
X233733333Y-91919047D01*
X233780952Y-92014285D01*
X233828571Y-92061904D01*
X233923809Y-92109523D01*
G04 #@! TO.C,C27*
X205457142Y-93442857D02*
X205504761Y-93490476D01*
X205552380Y-93633333D01*
X205552380Y-93728571D01*
X205504761Y-93871428D01*
X205409523Y-93966666D01*
X205314285Y-94014285D01*
X205123809Y-94061904D01*
X204980952Y-94061904D01*
X204790476Y-94014285D01*
X204695238Y-93966666D01*
X204600000Y-93871428D01*
X204552380Y-93728571D01*
X204552380Y-93633333D01*
X204600000Y-93490476D01*
X204647619Y-93442857D01*
X204647619Y-93061904D02*
X204600000Y-93014285D01*
X204552380Y-92919047D01*
X204552380Y-92680952D01*
X204600000Y-92585714D01*
X204647619Y-92538095D01*
X204742857Y-92490476D01*
X204838095Y-92490476D01*
X204980952Y-92538095D01*
X205552380Y-93109523D01*
X205552380Y-92490476D01*
X204552380Y-92157142D02*
X204552380Y-91490476D01*
X205552380Y-91919047D01*
G04 #@! TO.C,C28*
X227057142Y-93442857D02*
X227104761Y-93490476D01*
X227152380Y-93633333D01*
X227152380Y-93728571D01*
X227104761Y-93871428D01*
X227009523Y-93966666D01*
X226914285Y-94014285D01*
X226723809Y-94061904D01*
X226580952Y-94061904D01*
X226390476Y-94014285D01*
X226295238Y-93966666D01*
X226200000Y-93871428D01*
X226152380Y-93728571D01*
X226152380Y-93633333D01*
X226200000Y-93490476D01*
X226247619Y-93442857D01*
X226247619Y-93061904D02*
X226200000Y-93014285D01*
X226152380Y-92919047D01*
X226152380Y-92680952D01*
X226200000Y-92585714D01*
X226247619Y-92538095D01*
X226342857Y-92490476D01*
X226438095Y-92490476D01*
X226580952Y-92538095D01*
X227152380Y-93109523D01*
X227152380Y-92490476D01*
X226580952Y-91919047D02*
X226533333Y-92014285D01*
X226485714Y-92061904D01*
X226390476Y-92109523D01*
X226342857Y-92109523D01*
X226247619Y-92061904D01*
X226200000Y-92014285D01*
X226152380Y-91919047D01*
X226152380Y-91728571D01*
X226200000Y-91633333D01*
X226247619Y-91585714D01*
X226342857Y-91538095D01*
X226390476Y-91538095D01*
X226485714Y-91585714D01*
X226533333Y-91633333D01*
X226580952Y-91728571D01*
X226580952Y-91919047D01*
X226628571Y-92014285D01*
X226676190Y-92061904D01*
X226771428Y-92109523D01*
X226961904Y-92109523D01*
X227057142Y-92061904D01*
X227104761Y-92014285D01*
X227152380Y-91919047D01*
X227152380Y-91728571D01*
X227104761Y-91633333D01*
X227057142Y-91585714D01*
X226961904Y-91538095D01*
X226771428Y-91538095D01*
X226676190Y-91585714D01*
X226628571Y-91633333D01*
X226580952Y-91728571D01*
G04 #@! TO.C,C29*
X111657142Y-54442857D02*
X111704761Y-54490476D01*
X111752380Y-54633333D01*
X111752380Y-54728571D01*
X111704761Y-54871428D01*
X111609523Y-54966666D01*
X111514285Y-55014285D01*
X111323809Y-55061904D01*
X111180952Y-55061904D01*
X110990476Y-55014285D01*
X110895238Y-54966666D01*
X110800000Y-54871428D01*
X110752380Y-54728571D01*
X110752380Y-54633333D01*
X110800000Y-54490476D01*
X110847619Y-54442857D01*
X110847619Y-54061904D02*
X110800000Y-54014285D01*
X110752380Y-53919047D01*
X110752380Y-53680952D01*
X110800000Y-53585714D01*
X110847619Y-53538095D01*
X110942857Y-53490476D01*
X111038095Y-53490476D01*
X111180952Y-53538095D01*
X111752380Y-54109523D01*
X111752380Y-53490476D01*
X111752380Y-53014285D02*
X111752380Y-52823809D01*
X111704761Y-52728571D01*
X111657142Y-52680952D01*
X111514285Y-52585714D01*
X111323809Y-52538095D01*
X110942857Y-52538095D01*
X110847619Y-52585714D01*
X110800000Y-52633333D01*
X110752380Y-52728571D01*
X110752380Y-52919047D01*
X110800000Y-53014285D01*
X110847619Y-53061904D01*
X110942857Y-53109523D01*
X111180952Y-53109523D01*
X111276190Y-53061904D01*
X111323809Y-53014285D01*
X111371428Y-52919047D01*
X111371428Y-52728571D01*
X111323809Y-52633333D01*
X111276190Y-52585714D01*
X111180952Y-52538095D01*
G04 #@! TO.C,C31*
X97257142Y-54442857D02*
X97304761Y-54490476D01*
X97352380Y-54633333D01*
X97352380Y-54728571D01*
X97304761Y-54871428D01*
X97209523Y-54966666D01*
X97114285Y-55014285D01*
X96923809Y-55061904D01*
X96780952Y-55061904D01*
X96590476Y-55014285D01*
X96495238Y-54966666D01*
X96400000Y-54871428D01*
X96352380Y-54728571D01*
X96352380Y-54633333D01*
X96400000Y-54490476D01*
X96447619Y-54442857D01*
X96352380Y-54109523D02*
X96352380Y-53490476D01*
X96733333Y-53823809D01*
X96733333Y-53680952D01*
X96780952Y-53585714D01*
X96828571Y-53538095D01*
X96923809Y-53490476D01*
X97161904Y-53490476D01*
X97257142Y-53538095D01*
X97304761Y-53585714D01*
X97352380Y-53680952D01*
X97352380Y-53966666D01*
X97304761Y-54061904D01*
X97257142Y-54109523D01*
X97352380Y-52538095D02*
X97352380Y-53109523D01*
X97352380Y-52823809D02*
X96352380Y-52823809D01*
X96495238Y-52919047D01*
X96590476Y-53014285D01*
X96638095Y-53109523D01*
G04 #@! TO.C,C34*
X125857142Y-54442857D02*
X125904761Y-54490476D01*
X125952380Y-54633333D01*
X125952380Y-54728571D01*
X125904761Y-54871428D01*
X125809523Y-54966666D01*
X125714285Y-55014285D01*
X125523809Y-55061904D01*
X125380952Y-55061904D01*
X125190476Y-55014285D01*
X125095238Y-54966666D01*
X125000000Y-54871428D01*
X124952380Y-54728571D01*
X124952380Y-54633333D01*
X125000000Y-54490476D01*
X125047619Y-54442857D01*
X124952380Y-54109523D02*
X124952380Y-53490476D01*
X125333333Y-53823809D01*
X125333333Y-53680952D01*
X125380952Y-53585714D01*
X125428571Y-53538095D01*
X125523809Y-53490476D01*
X125761904Y-53490476D01*
X125857142Y-53538095D01*
X125904761Y-53585714D01*
X125952380Y-53680952D01*
X125952380Y-53966666D01*
X125904761Y-54061904D01*
X125857142Y-54109523D01*
X125285714Y-52633333D02*
X125952380Y-52633333D01*
X124904761Y-52871428D02*
X125619047Y-53109523D01*
X125619047Y-52490476D01*
G04 #@! TO.C,C41*
X99057142Y-105042857D02*
X99104761Y-105090476D01*
X99152380Y-105233333D01*
X99152380Y-105328571D01*
X99104761Y-105471428D01*
X99009523Y-105566666D01*
X98914285Y-105614285D01*
X98723809Y-105661904D01*
X98580952Y-105661904D01*
X98390476Y-105614285D01*
X98295238Y-105566666D01*
X98200000Y-105471428D01*
X98152380Y-105328571D01*
X98152380Y-105233333D01*
X98200000Y-105090476D01*
X98247619Y-105042857D01*
X98485714Y-104185714D02*
X99152380Y-104185714D01*
X98104761Y-104423809D02*
X98819047Y-104661904D01*
X98819047Y-104042857D01*
X99152380Y-103138095D02*
X99152380Y-103709523D01*
X99152380Y-103423809D02*
X98152380Y-103423809D01*
X98295238Y-103519047D01*
X98390476Y-103614285D01*
X98438095Y-103709523D01*
G04 #@! TO.C,C42*
X120057142Y-105042857D02*
X120104761Y-105090476D01*
X120152380Y-105233333D01*
X120152380Y-105328571D01*
X120104761Y-105471428D01*
X120009523Y-105566666D01*
X119914285Y-105614285D01*
X119723809Y-105661904D01*
X119580952Y-105661904D01*
X119390476Y-105614285D01*
X119295238Y-105566666D01*
X119200000Y-105471428D01*
X119152380Y-105328571D01*
X119152380Y-105233333D01*
X119200000Y-105090476D01*
X119247619Y-105042857D01*
X119485714Y-104185714D02*
X120152380Y-104185714D01*
X119104761Y-104423809D02*
X119819047Y-104661904D01*
X119819047Y-104042857D01*
X119247619Y-103709523D02*
X119200000Y-103661904D01*
X119152380Y-103566666D01*
X119152380Y-103328571D01*
X119200000Y-103233333D01*
X119247619Y-103185714D01*
X119342857Y-103138095D01*
X119438095Y-103138095D01*
X119580952Y-103185714D01*
X120152380Y-103757142D01*
X120152380Y-103138095D01*
G04 #@! TO.C,C43*
X91857142Y-105042857D02*
X91904761Y-105090476D01*
X91952380Y-105233333D01*
X91952380Y-105328571D01*
X91904761Y-105471428D01*
X91809523Y-105566666D01*
X91714285Y-105614285D01*
X91523809Y-105661904D01*
X91380952Y-105661904D01*
X91190476Y-105614285D01*
X91095238Y-105566666D01*
X91000000Y-105471428D01*
X90952380Y-105328571D01*
X90952380Y-105233333D01*
X91000000Y-105090476D01*
X91047619Y-105042857D01*
X91285714Y-104185714D02*
X91952380Y-104185714D01*
X90904761Y-104423809D02*
X91619047Y-104661904D01*
X91619047Y-104042857D01*
X90952380Y-103757142D02*
X90952380Y-103138095D01*
X91333333Y-103471428D01*
X91333333Y-103328571D01*
X91380952Y-103233333D01*
X91428571Y-103185714D01*
X91523809Y-103138095D01*
X91761904Y-103138095D01*
X91857142Y-103185714D01*
X91904761Y-103233333D01*
X91952380Y-103328571D01*
X91952380Y-103614285D01*
X91904761Y-103709523D01*
X91857142Y-103757142D01*
G04 #@! TO.C,C44*
X113457142Y-105042857D02*
X113504761Y-105090476D01*
X113552380Y-105233333D01*
X113552380Y-105328571D01*
X113504761Y-105471428D01*
X113409523Y-105566666D01*
X113314285Y-105614285D01*
X113123809Y-105661904D01*
X112980952Y-105661904D01*
X112790476Y-105614285D01*
X112695238Y-105566666D01*
X112600000Y-105471428D01*
X112552380Y-105328571D01*
X112552380Y-105233333D01*
X112600000Y-105090476D01*
X112647619Y-105042857D01*
X112885714Y-104185714D02*
X113552380Y-104185714D01*
X112504761Y-104423809D02*
X113219047Y-104661904D01*
X113219047Y-104042857D01*
X112885714Y-103233333D02*
X113552380Y-103233333D01*
X112504761Y-103471428D02*
X113219047Y-103709523D01*
X113219047Y-103090476D01*
G04 #@! TO.C,C45*
X84657142Y-105042857D02*
X84704761Y-105090476D01*
X84752380Y-105233333D01*
X84752380Y-105328571D01*
X84704761Y-105471428D01*
X84609523Y-105566666D01*
X84514285Y-105614285D01*
X84323809Y-105661904D01*
X84180952Y-105661904D01*
X83990476Y-105614285D01*
X83895238Y-105566666D01*
X83800000Y-105471428D01*
X83752380Y-105328571D01*
X83752380Y-105233333D01*
X83800000Y-105090476D01*
X83847619Y-105042857D01*
X84085714Y-104185714D02*
X84752380Y-104185714D01*
X83704761Y-104423809D02*
X84419047Y-104661904D01*
X84419047Y-104042857D01*
X83752380Y-103185714D02*
X83752380Y-103661904D01*
X84228571Y-103709523D01*
X84180952Y-103661904D01*
X84133333Y-103566666D01*
X84133333Y-103328571D01*
X84180952Y-103233333D01*
X84228571Y-103185714D01*
X84323809Y-103138095D01*
X84561904Y-103138095D01*
X84657142Y-103185714D01*
X84704761Y-103233333D01*
X84752380Y-103328571D01*
X84752380Y-103566666D01*
X84704761Y-103661904D01*
X84657142Y-103709523D01*
G04 #@! TO.C,C46*
X106257142Y-105042857D02*
X106304761Y-105090476D01*
X106352380Y-105233333D01*
X106352380Y-105328571D01*
X106304761Y-105471428D01*
X106209523Y-105566666D01*
X106114285Y-105614285D01*
X105923809Y-105661904D01*
X105780952Y-105661904D01*
X105590476Y-105614285D01*
X105495238Y-105566666D01*
X105400000Y-105471428D01*
X105352380Y-105328571D01*
X105352380Y-105233333D01*
X105400000Y-105090476D01*
X105447619Y-105042857D01*
X105685714Y-104185714D02*
X106352380Y-104185714D01*
X105304761Y-104423809D02*
X106019047Y-104661904D01*
X106019047Y-104042857D01*
X105352380Y-103233333D02*
X105352380Y-103423809D01*
X105400000Y-103519047D01*
X105447619Y-103566666D01*
X105590476Y-103661904D01*
X105780952Y-103709523D01*
X106161904Y-103709523D01*
X106257142Y-103661904D01*
X106304761Y-103614285D01*
X106352380Y-103519047D01*
X106352380Y-103328571D01*
X106304761Y-103233333D01*
X106257142Y-103185714D01*
X106161904Y-103138095D01*
X105923809Y-103138095D01*
X105828571Y-103185714D01*
X105780952Y-103233333D01*
X105733333Y-103328571D01*
X105733333Y-103519047D01*
X105780952Y-103614285D01*
X105828571Y-103661904D01*
X105923809Y-103709523D01*
G04 #@! TO.C,C47*
X185457142Y-104842857D02*
X185504761Y-104890476D01*
X185552380Y-105033333D01*
X185552380Y-105128571D01*
X185504761Y-105271428D01*
X185409523Y-105366666D01*
X185314285Y-105414285D01*
X185123809Y-105461904D01*
X184980952Y-105461904D01*
X184790476Y-105414285D01*
X184695238Y-105366666D01*
X184600000Y-105271428D01*
X184552380Y-105128571D01*
X184552380Y-105033333D01*
X184600000Y-104890476D01*
X184647619Y-104842857D01*
X184885714Y-103985714D02*
X185552380Y-103985714D01*
X184504761Y-104223809D02*
X185219047Y-104461904D01*
X185219047Y-103842857D01*
X184552380Y-103557142D02*
X184552380Y-102890476D01*
X185552380Y-103319047D01*
G04 #@! TO.C,C48*
X207057142Y-104842857D02*
X207104761Y-104890476D01*
X207152380Y-105033333D01*
X207152380Y-105128571D01*
X207104761Y-105271428D01*
X207009523Y-105366666D01*
X206914285Y-105414285D01*
X206723809Y-105461904D01*
X206580952Y-105461904D01*
X206390476Y-105414285D01*
X206295238Y-105366666D01*
X206200000Y-105271428D01*
X206152380Y-105128571D01*
X206152380Y-105033333D01*
X206200000Y-104890476D01*
X206247619Y-104842857D01*
X206485714Y-103985714D02*
X207152380Y-103985714D01*
X206104761Y-104223809D02*
X206819047Y-104461904D01*
X206819047Y-103842857D01*
X206580952Y-103319047D02*
X206533333Y-103414285D01*
X206485714Y-103461904D01*
X206390476Y-103509523D01*
X206342857Y-103509523D01*
X206247619Y-103461904D01*
X206200000Y-103414285D01*
X206152380Y-103319047D01*
X206152380Y-103128571D01*
X206200000Y-103033333D01*
X206247619Y-102985714D01*
X206342857Y-102938095D01*
X206390476Y-102938095D01*
X206485714Y-102985714D01*
X206533333Y-103033333D01*
X206580952Y-103128571D01*
X206580952Y-103319047D01*
X206628571Y-103414285D01*
X206676190Y-103461904D01*
X206771428Y-103509523D01*
X206961904Y-103509523D01*
X207057142Y-103461904D01*
X207104761Y-103414285D01*
X207152380Y-103319047D01*
X207152380Y-103128571D01*
X207104761Y-103033333D01*
X207057142Y-102985714D01*
X206961904Y-102938095D01*
X206771428Y-102938095D01*
X206676190Y-102985714D01*
X206628571Y-103033333D01*
X206580952Y-103128571D01*
G04 #@! TO.C,C49*
X178057142Y-104792857D02*
X178104761Y-104840476D01*
X178152380Y-104983333D01*
X178152380Y-105078571D01*
X178104761Y-105221428D01*
X178009523Y-105316666D01*
X177914285Y-105364285D01*
X177723809Y-105411904D01*
X177580952Y-105411904D01*
X177390476Y-105364285D01*
X177295238Y-105316666D01*
X177200000Y-105221428D01*
X177152380Y-105078571D01*
X177152380Y-104983333D01*
X177200000Y-104840476D01*
X177247619Y-104792857D01*
X177485714Y-103935714D02*
X178152380Y-103935714D01*
X177104761Y-104173809D02*
X177819047Y-104411904D01*
X177819047Y-103792857D01*
X178152380Y-103364285D02*
X178152380Y-103173809D01*
X178104761Y-103078571D01*
X178057142Y-103030952D01*
X177914285Y-102935714D01*
X177723809Y-102888095D01*
X177342857Y-102888095D01*
X177247619Y-102935714D01*
X177200000Y-102983333D01*
X177152380Y-103078571D01*
X177152380Y-103269047D01*
X177200000Y-103364285D01*
X177247619Y-103411904D01*
X177342857Y-103459523D01*
X177580952Y-103459523D01*
X177676190Y-103411904D01*
X177723809Y-103364285D01*
X177771428Y-103269047D01*
X177771428Y-103078571D01*
X177723809Y-102983333D01*
X177676190Y-102935714D01*
X177580952Y-102888095D01*
G04 #@! TO.C,C50*
X199857142Y-104842857D02*
X199904761Y-104890476D01*
X199952380Y-105033333D01*
X199952380Y-105128571D01*
X199904761Y-105271428D01*
X199809523Y-105366666D01*
X199714285Y-105414285D01*
X199523809Y-105461904D01*
X199380952Y-105461904D01*
X199190476Y-105414285D01*
X199095238Y-105366666D01*
X199000000Y-105271428D01*
X198952380Y-105128571D01*
X198952380Y-105033333D01*
X199000000Y-104890476D01*
X199047619Y-104842857D01*
X198952380Y-103938095D02*
X198952380Y-104414285D01*
X199428571Y-104461904D01*
X199380952Y-104414285D01*
X199333333Y-104319047D01*
X199333333Y-104080952D01*
X199380952Y-103985714D01*
X199428571Y-103938095D01*
X199523809Y-103890476D01*
X199761904Y-103890476D01*
X199857142Y-103938095D01*
X199904761Y-103985714D01*
X199952380Y-104080952D01*
X199952380Y-104319047D01*
X199904761Y-104414285D01*
X199857142Y-104461904D01*
X198952380Y-103271428D02*
X198952380Y-103176190D01*
X199000000Y-103080952D01*
X199047619Y-103033333D01*
X199142857Y-102985714D01*
X199333333Y-102938095D01*
X199571428Y-102938095D01*
X199761904Y-102985714D01*
X199857142Y-103033333D01*
X199904761Y-103080952D01*
X199952380Y-103176190D01*
X199952380Y-103271428D01*
X199904761Y-103366666D01*
X199857142Y-103414285D01*
X199761904Y-103461904D01*
X199571428Y-103509523D01*
X199333333Y-103509523D01*
X199142857Y-103461904D01*
X199047619Y-103414285D01*
X199000000Y-103366666D01*
X198952380Y-103271428D01*
G04 #@! TO.C,C51*
X171057142Y-104842857D02*
X171104761Y-104890476D01*
X171152380Y-105033333D01*
X171152380Y-105128571D01*
X171104761Y-105271428D01*
X171009523Y-105366666D01*
X170914285Y-105414285D01*
X170723809Y-105461904D01*
X170580952Y-105461904D01*
X170390476Y-105414285D01*
X170295238Y-105366666D01*
X170200000Y-105271428D01*
X170152380Y-105128571D01*
X170152380Y-105033333D01*
X170200000Y-104890476D01*
X170247619Y-104842857D01*
X170152380Y-103938095D02*
X170152380Y-104414285D01*
X170628571Y-104461904D01*
X170580952Y-104414285D01*
X170533333Y-104319047D01*
X170533333Y-104080952D01*
X170580952Y-103985714D01*
X170628571Y-103938095D01*
X170723809Y-103890476D01*
X170961904Y-103890476D01*
X171057142Y-103938095D01*
X171104761Y-103985714D01*
X171152380Y-104080952D01*
X171152380Y-104319047D01*
X171104761Y-104414285D01*
X171057142Y-104461904D01*
X171152380Y-102938095D02*
X171152380Y-103509523D01*
X171152380Y-103223809D02*
X170152380Y-103223809D01*
X170295238Y-103319047D01*
X170390476Y-103414285D01*
X170438095Y-103509523D01*
G04 #@! TO.C,C52*
X192657142Y-104842857D02*
X192704761Y-104890476D01*
X192752380Y-105033333D01*
X192752380Y-105128571D01*
X192704761Y-105271428D01*
X192609523Y-105366666D01*
X192514285Y-105414285D01*
X192323809Y-105461904D01*
X192180952Y-105461904D01*
X191990476Y-105414285D01*
X191895238Y-105366666D01*
X191800000Y-105271428D01*
X191752380Y-105128571D01*
X191752380Y-105033333D01*
X191800000Y-104890476D01*
X191847619Y-104842857D01*
X191752380Y-103938095D02*
X191752380Y-104414285D01*
X192228571Y-104461904D01*
X192180952Y-104414285D01*
X192133333Y-104319047D01*
X192133333Y-104080952D01*
X192180952Y-103985714D01*
X192228571Y-103938095D01*
X192323809Y-103890476D01*
X192561904Y-103890476D01*
X192657142Y-103938095D01*
X192704761Y-103985714D01*
X192752380Y-104080952D01*
X192752380Y-104319047D01*
X192704761Y-104414285D01*
X192657142Y-104461904D01*
X191847619Y-103509523D02*
X191800000Y-103461904D01*
X191752380Y-103366666D01*
X191752380Y-103128571D01*
X191800000Y-103033333D01*
X191847619Y-102985714D01*
X191942857Y-102938095D01*
X192038095Y-102938095D01*
X192180952Y-102985714D01*
X192752380Y-103557142D01*
X192752380Y-102938095D01*
G04 #@! TO.C,C53*
X135157142Y-142542857D02*
X135204761Y-142590476D01*
X135252380Y-142733333D01*
X135252380Y-142828571D01*
X135204761Y-142971428D01*
X135109523Y-143066666D01*
X135014285Y-143114285D01*
X134823809Y-143161904D01*
X134680952Y-143161904D01*
X134490476Y-143114285D01*
X134395238Y-143066666D01*
X134300000Y-142971428D01*
X134252380Y-142828571D01*
X134252380Y-142733333D01*
X134300000Y-142590476D01*
X134347619Y-142542857D01*
X134252380Y-141638095D02*
X134252380Y-142114285D01*
X134728571Y-142161904D01*
X134680952Y-142114285D01*
X134633333Y-142019047D01*
X134633333Y-141780952D01*
X134680952Y-141685714D01*
X134728571Y-141638095D01*
X134823809Y-141590476D01*
X135061904Y-141590476D01*
X135157142Y-141638095D01*
X135204761Y-141685714D01*
X135252380Y-141780952D01*
X135252380Y-142019047D01*
X135204761Y-142114285D01*
X135157142Y-142161904D01*
X134252380Y-141257142D02*
X134252380Y-140638095D01*
X134633333Y-140971428D01*
X134633333Y-140828571D01*
X134680952Y-140733333D01*
X134728571Y-140685714D01*
X134823809Y-140638095D01*
X135061904Y-140638095D01*
X135157142Y-140685714D01*
X135204761Y-140733333D01*
X135252380Y-140828571D01*
X135252380Y-141114285D01*
X135204761Y-141209523D01*
X135157142Y-141257142D01*
G04 #@! TO.C,C54*
X171157142Y-142542857D02*
X171204761Y-142590476D01*
X171252380Y-142733333D01*
X171252380Y-142828571D01*
X171204761Y-142971428D01*
X171109523Y-143066666D01*
X171014285Y-143114285D01*
X170823809Y-143161904D01*
X170680952Y-143161904D01*
X170490476Y-143114285D01*
X170395238Y-143066666D01*
X170300000Y-142971428D01*
X170252380Y-142828571D01*
X170252380Y-142733333D01*
X170300000Y-142590476D01*
X170347619Y-142542857D01*
X170252380Y-141638095D02*
X170252380Y-142114285D01*
X170728571Y-142161904D01*
X170680952Y-142114285D01*
X170633333Y-142019047D01*
X170633333Y-141780952D01*
X170680952Y-141685714D01*
X170728571Y-141638095D01*
X170823809Y-141590476D01*
X171061904Y-141590476D01*
X171157142Y-141638095D01*
X171204761Y-141685714D01*
X171252380Y-141780952D01*
X171252380Y-142019047D01*
X171204761Y-142114285D01*
X171157142Y-142161904D01*
X170585714Y-140733333D02*
X171252380Y-140733333D01*
X170204761Y-140971428D02*
X170919047Y-141209523D01*
X170919047Y-140590476D01*
G04 #@! TO.C,C55*
X99157142Y-142642857D02*
X99204761Y-142690476D01*
X99252380Y-142833333D01*
X99252380Y-142928571D01*
X99204761Y-143071428D01*
X99109523Y-143166666D01*
X99014285Y-143214285D01*
X98823809Y-143261904D01*
X98680952Y-143261904D01*
X98490476Y-143214285D01*
X98395238Y-143166666D01*
X98300000Y-143071428D01*
X98252380Y-142928571D01*
X98252380Y-142833333D01*
X98300000Y-142690476D01*
X98347619Y-142642857D01*
X98252380Y-141738095D02*
X98252380Y-142214285D01*
X98728571Y-142261904D01*
X98680952Y-142214285D01*
X98633333Y-142119047D01*
X98633333Y-141880952D01*
X98680952Y-141785714D01*
X98728571Y-141738095D01*
X98823809Y-141690476D01*
X99061904Y-141690476D01*
X99157142Y-141738095D01*
X99204761Y-141785714D01*
X99252380Y-141880952D01*
X99252380Y-142119047D01*
X99204761Y-142214285D01*
X99157142Y-142261904D01*
X98252380Y-140785714D02*
X98252380Y-141261904D01*
X98728571Y-141309523D01*
X98680952Y-141261904D01*
X98633333Y-141166666D01*
X98633333Y-140928571D01*
X98680952Y-140833333D01*
X98728571Y-140785714D01*
X98823809Y-140738095D01*
X99061904Y-140738095D01*
X99157142Y-140785714D01*
X99204761Y-140833333D01*
X99252380Y-140928571D01*
X99252380Y-141166666D01*
X99204761Y-141261904D01*
X99157142Y-141309523D01*
G04 #@! TO.C,C56*
X163857142Y-142542857D02*
X163904761Y-142590476D01*
X163952380Y-142733333D01*
X163952380Y-142828571D01*
X163904761Y-142971428D01*
X163809523Y-143066666D01*
X163714285Y-143114285D01*
X163523809Y-143161904D01*
X163380952Y-143161904D01*
X163190476Y-143114285D01*
X163095238Y-143066666D01*
X163000000Y-142971428D01*
X162952380Y-142828571D01*
X162952380Y-142733333D01*
X163000000Y-142590476D01*
X163047619Y-142542857D01*
X162952380Y-141638095D02*
X162952380Y-142114285D01*
X163428571Y-142161904D01*
X163380952Y-142114285D01*
X163333333Y-142019047D01*
X163333333Y-141780952D01*
X163380952Y-141685714D01*
X163428571Y-141638095D01*
X163523809Y-141590476D01*
X163761904Y-141590476D01*
X163857142Y-141638095D01*
X163904761Y-141685714D01*
X163952380Y-141780952D01*
X163952380Y-142019047D01*
X163904761Y-142114285D01*
X163857142Y-142161904D01*
X162952380Y-140733333D02*
X162952380Y-140923809D01*
X163000000Y-141019047D01*
X163047619Y-141066666D01*
X163190476Y-141161904D01*
X163380952Y-141209523D01*
X163761904Y-141209523D01*
X163857142Y-141161904D01*
X163904761Y-141114285D01*
X163952380Y-141019047D01*
X163952380Y-140828571D01*
X163904761Y-140733333D01*
X163857142Y-140685714D01*
X163761904Y-140638095D01*
X163523809Y-140638095D01*
X163428571Y-140685714D01*
X163380952Y-140733333D01*
X163333333Y-140828571D01*
X163333333Y-141019047D01*
X163380952Y-141114285D01*
X163428571Y-141161904D01*
X163523809Y-141209523D01*
G04 #@! TO.C,C57*
X106257142Y-142642857D02*
X106304761Y-142690476D01*
X106352380Y-142833333D01*
X106352380Y-142928571D01*
X106304761Y-143071428D01*
X106209523Y-143166666D01*
X106114285Y-143214285D01*
X105923809Y-143261904D01*
X105780952Y-143261904D01*
X105590476Y-143214285D01*
X105495238Y-143166666D01*
X105400000Y-143071428D01*
X105352380Y-142928571D01*
X105352380Y-142833333D01*
X105400000Y-142690476D01*
X105447619Y-142642857D01*
X105352380Y-141738095D02*
X105352380Y-142214285D01*
X105828571Y-142261904D01*
X105780952Y-142214285D01*
X105733333Y-142119047D01*
X105733333Y-141880952D01*
X105780952Y-141785714D01*
X105828571Y-141738095D01*
X105923809Y-141690476D01*
X106161904Y-141690476D01*
X106257142Y-141738095D01*
X106304761Y-141785714D01*
X106352380Y-141880952D01*
X106352380Y-142119047D01*
X106304761Y-142214285D01*
X106257142Y-142261904D01*
X105352380Y-141357142D02*
X105352380Y-140690476D01*
X106352380Y-141119047D01*
G04 #@! TO.C,C58*
X120657142Y-142542857D02*
X120704761Y-142590476D01*
X120752380Y-142733333D01*
X120752380Y-142828571D01*
X120704761Y-142971428D01*
X120609523Y-143066666D01*
X120514285Y-143114285D01*
X120323809Y-143161904D01*
X120180952Y-143161904D01*
X119990476Y-143114285D01*
X119895238Y-143066666D01*
X119800000Y-142971428D01*
X119752380Y-142828571D01*
X119752380Y-142733333D01*
X119800000Y-142590476D01*
X119847619Y-142542857D01*
X119752380Y-141638095D02*
X119752380Y-142114285D01*
X120228571Y-142161904D01*
X120180952Y-142114285D01*
X120133333Y-142019047D01*
X120133333Y-141780952D01*
X120180952Y-141685714D01*
X120228571Y-141638095D01*
X120323809Y-141590476D01*
X120561904Y-141590476D01*
X120657142Y-141638095D01*
X120704761Y-141685714D01*
X120752380Y-141780952D01*
X120752380Y-142019047D01*
X120704761Y-142114285D01*
X120657142Y-142161904D01*
X120180952Y-141019047D02*
X120133333Y-141114285D01*
X120085714Y-141161904D01*
X119990476Y-141209523D01*
X119942857Y-141209523D01*
X119847619Y-141161904D01*
X119800000Y-141114285D01*
X119752380Y-141019047D01*
X119752380Y-140828571D01*
X119800000Y-140733333D01*
X119847619Y-140685714D01*
X119942857Y-140638095D01*
X119990476Y-140638095D01*
X120085714Y-140685714D01*
X120133333Y-140733333D01*
X120180952Y-140828571D01*
X120180952Y-141019047D01*
X120228571Y-141114285D01*
X120276190Y-141161904D01*
X120371428Y-141209523D01*
X120561904Y-141209523D01*
X120657142Y-141161904D01*
X120704761Y-141114285D01*
X120752380Y-141019047D01*
X120752380Y-140828571D01*
X120704761Y-140733333D01*
X120657142Y-140685714D01*
X120561904Y-140638095D01*
X120371428Y-140638095D01*
X120276190Y-140685714D01*
X120228571Y-140733333D01*
X120180952Y-140828571D01*
G04 #@! TO.C,C59*
X185557142Y-142642857D02*
X185604761Y-142690476D01*
X185652380Y-142833333D01*
X185652380Y-142928571D01*
X185604761Y-143071428D01*
X185509523Y-143166666D01*
X185414285Y-143214285D01*
X185223809Y-143261904D01*
X185080952Y-143261904D01*
X184890476Y-143214285D01*
X184795238Y-143166666D01*
X184700000Y-143071428D01*
X184652380Y-142928571D01*
X184652380Y-142833333D01*
X184700000Y-142690476D01*
X184747619Y-142642857D01*
X184652380Y-141738095D02*
X184652380Y-142214285D01*
X185128571Y-142261904D01*
X185080952Y-142214285D01*
X185033333Y-142119047D01*
X185033333Y-141880952D01*
X185080952Y-141785714D01*
X185128571Y-141738095D01*
X185223809Y-141690476D01*
X185461904Y-141690476D01*
X185557142Y-141738095D01*
X185604761Y-141785714D01*
X185652380Y-141880952D01*
X185652380Y-142119047D01*
X185604761Y-142214285D01*
X185557142Y-142261904D01*
X185652380Y-141214285D02*
X185652380Y-141023809D01*
X185604761Y-140928571D01*
X185557142Y-140880952D01*
X185414285Y-140785714D01*
X185223809Y-140738095D01*
X184842857Y-140738095D01*
X184747619Y-140785714D01*
X184700000Y-140833333D01*
X184652380Y-140928571D01*
X184652380Y-141119047D01*
X184700000Y-141214285D01*
X184747619Y-141261904D01*
X184842857Y-141309523D01*
X185080952Y-141309523D01*
X185176190Y-141261904D01*
X185223809Y-141214285D01*
X185271428Y-141119047D01*
X185271428Y-140928571D01*
X185223809Y-140833333D01*
X185176190Y-140785714D01*
X185080952Y-140738095D01*
G04 #@! TO.C,C60*
X207157142Y-142542857D02*
X207204761Y-142590476D01*
X207252380Y-142733333D01*
X207252380Y-142828571D01*
X207204761Y-142971428D01*
X207109523Y-143066666D01*
X207014285Y-143114285D01*
X206823809Y-143161904D01*
X206680952Y-143161904D01*
X206490476Y-143114285D01*
X206395238Y-143066666D01*
X206300000Y-142971428D01*
X206252380Y-142828571D01*
X206252380Y-142733333D01*
X206300000Y-142590476D01*
X206347619Y-142542857D01*
X206252380Y-141685714D02*
X206252380Y-141876190D01*
X206300000Y-141971428D01*
X206347619Y-142019047D01*
X206490476Y-142114285D01*
X206680952Y-142161904D01*
X207061904Y-142161904D01*
X207157142Y-142114285D01*
X207204761Y-142066666D01*
X207252380Y-141971428D01*
X207252380Y-141780952D01*
X207204761Y-141685714D01*
X207157142Y-141638095D01*
X207061904Y-141590476D01*
X206823809Y-141590476D01*
X206728571Y-141638095D01*
X206680952Y-141685714D01*
X206633333Y-141780952D01*
X206633333Y-141971428D01*
X206680952Y-142066666D01*
X206728571Y-142114285D01*
X206823809Y-142161904D01*
X206252380Y-140971428D02*
X206252380Y-140876190D01*
X206300000Y-140780952D01*
X206347619Y-140733333D01*
X206442857Y-140685714D01*
X206633333Y-140638095D01*
X206871428Y-140638095D01*
X207061904Y-140685714D01*
X207157142Y-140733333D01*
X207204761Y-140780952D01*
X207252380Y-140876190D01*
X207252380Y-140971428D01*
X207204761Y-141066666D01*
X207157142Y-141114285D01*
X207061904Y-141161904D01*
X206871428Y-141209523D01*
X206633333Y-141209523D01*
X206442857Y-141161904D01*
X206347619Y-141114285D01*
X206300000Y-141066666D01*
X206252380Y-140971428D01*
G04 #@! TO.C,C61*
X178757142Y-142642857D02*
X178804761Y-142690476D01*
X178852380Y-142833333D01*
X178852380Y-142928571D01*
X178804761Y-143071428D01*
X178709523Y-143166666D01*
X178614285Y-143214285D01*
X178423809Y-143261904D01*
X178280952Y-143261904D01*
X178090476Y-143214285D01*
X177995238Y-143166666D01*
X177900000Y-143071428D01*
X177852380Y-142928571D01*
X177852380Y-142833333D01*
X177900000Y-142690476D01*
X177947619Y-142642857D01*
X177852380Y-141785714D02*
X177852380Y-141976190D01*
X177900000Y-142071428D01*
X177947619Y-142119047D01*
X178090476Y-142214285D01*
X178280952Y-142261904D01*
X178661904Y-142261904D01*
X178757142Y-142214285D01*
X178804761Y-142166666D01*
X178852380Y-142071428D01*
X178852380Y-141880952D01*
X178804761Y-141785714D01*
X178757142Y-141738095D01*
X178661904Y-141690476D01*
X178423809Y-141690476D01*
X178328571Y-141738095D01*
X178280952Y-141785714D01*
X178233333Y-141880952D01*
X178233333Y-142071428D01*
X178280952Y-142166666D01*
X178328571Y-142214285D01*
X178423809Y-142261904D01*
X178852380Y-140738095D02*
X178852380Y-141309523D01*
X178852380Y-141023809D02*
X177852380Y-141023809D01*
X177995238Y-141119047D01*
X178090476Y-141214285D01*
X178138095Y-141309523D01*
G04 #@! TO.C,C62*
X199957142Y-142542857D02*
X200004761Y-142590476D01*
X200052380Y-142733333D01*
X200052380Y-142828571D01*
X200004761Y-142971428D01*
X199909523Y-143066666D01*
X199814285Y-143114285D01*
X199623809Y-143161904D01*
X199480952Y-143161904D01*
X199290476Y-143114285D01*
X199195238Y-143066666D01*
X199100000Y-142971428D01*
X199052380Y-142828571D01*
X199052380Y-142733333D01*
X199100000Y-142590476D01*
X199147619Y-142542857D01*
X199052380Y-141685714D02*
X199052380Y-141876190D01*
X199100000Y-141971428D01*
X199147619Y-142019047D01*
X199290476Y-142114285D01*
X199480952Y-142161904D01*
X199861904Y-142161904D01*
X199957142Y-142114285D01*
X200004761Y-142066666D01*
X200052380Y-141971428D01*
X200052380Y-141780952D01*
X200004761Y-141685714D01*
X199957142Y-141638095D01*
X199861904Y-141590476D01*
X199623809Y-141590476D01*
X199528571Y-141638095D01*
X199480952Y-141685714D01*
X199433333Y-141780952D01*
X199433333Y-141971428D01*
X199480952Y-142066666D01*
X199528571Y-142114285D01*
X199623809Y-142161904D01*
X199147619Y-141209523D02*
X199100000Y-141161904D01*
X199052380Y-141066666D01*
X199052380Y-140828571D01*
X199100000Y-140733333D01*
X199147619Y-140685714D01*
X199242857Y-140638095D01*
X199338095Y-140638095D01*
X199480952Y-140685714D01*
X200052380Y-141257142D01*
X200052380Y-140638095D01*
G04 #@! TO.C,C63*
X127957142Y-142542857D02*
X128004761Y-142590476D01*
X128052380Y-142733333D01*
X128052380Y-142828571D01*
X128004761Y-142971428D01*
X127909523Y-143066666D01*
X127814285Y-143114285D01*
X127623809Y-143161904D01*
X127480952Y-143161904D01*
X127290476Y-143114285D01*
X127195238Y-143066666D01*
X127100000Y-142971428D01*
X127052380Y-142828571D01*
X127052380Y-142733333D01*
X127100000Y-142590476D01*
X127147619Y-142542857D01*
X127052380Y-141685714D02*
X127052380Y-141876190D01*
X127100000Y-141971428D01*
X127147619Y-142019047D01*
X127290476Y-142114285D01*
X127480952Y-142161904D01*
X127861904Y-142161904D01*
X127957142Y-142114285D01*
X128004761Y-142066666D01*
X128052380Y-141971428D01*
X128052380Y-141780952D01*
X128004761Y-141685714D01*
X127957142Y-141638095D01*
X127861904Y-141590476D01*
X127623809Y-141590476D01*
X127528571Y-141638095D01*
X127480952Y-141685714D01*
X127433333Y-141780952D01*
X127433333Y-141971428D01*
X127480952Y-142066666D01*
X127528571Y-142114285D01*
X127623809Y-142161904D01*
X127052380Y-141257142D02*
X127052380Y-140638095D01*
X127433333Y-140971428D01*
X127433333Y-140828571D01*
X127480952Y-140733333D01*
X127528571Y-140685714D01*
X127623809Y-140638095D01*
X127861904Y-140638095D01*
X127957142Y-140685714D01*
X128004761Y-140733333D01*
X128052380Y-140828571D01*
X128052380Y-141114285D01*
X128004761Y-141209523D01*
X127957142Y-141257142D01*
G04 #@! TO.C,C64*
X192657142Y-142542857D02*
X192704761Y-142590476D01*
X192752380Y-142733333D01*
X192752380Y-142828571D01*
X192704761Y-142971428D01*
X192609523Y-143066666D01*
X192514285Y-143114285D01*
X192323809Y-143161904D01*
X192180952Y-143161904D01*
X191990476Y-143114285D01*
X191895238Y-143066666D01*
X191800000Y-142971428D01*
X191752380Y-142828571D01*
X191752380Y-142733333D01*
X191800000Y-142590476D01*
X191847619Y-142542857D01*
X191752380Y-141685714D02*
X191752380Y-141876190D01*
X191800000Y-141971428D01*
X191847619Y-142019047D01*
X191990476Y-142114285D01*
X192180952Y-142161904D01*
X192561904Y-142161904D01*
X192657142Y-142114285D01*
X192704761Y-142066666D01*
X192752380Y-141971428D01*
X192752380Y-141780952D01*
X192704761Y-141685714D01*
X192657142Y-141638095D01*
X192561904Y-141590476D01*
X192323809Y-141590476D01*
X192228571Y-141638095D01*
X192180952Y-141685714D01*
X192133333Y-141780952D01*
X192133333Y-141971428D01*
X192180952Y-142066666D01*
X192228571Y-142114285D01*
X192323809Y-142161904D01*
X192085714Y-140733333D02*
X192752380Y-140733333D01*
X191704761Y-140971428D02*
X192419047Y-141209523D01*
X192419047Y-140590476D01*
G04 #@! TO.C,C100*
X79937142Y-55819047D02*
X79984761Y-55866666D01*
X80032380Y-56009523D01*
X80032380Y-56104761D01*
X79984761Y-56247619D01*
X79889523Y-56342857D01*
X79794285Y-56390476D01*
X79603809Y-56438095D01*
X79460952Y-56438095D01*
X79270476Y-56390476D01*
X79175238Y-56342857D01*
X79080000Y-56247619D01*
X79032380Y-56104761D01*
X79032380Y-56009523D01*
X79080000Y-55866666D01*
X79127619Y-55819047D01*
X80032380Y-54866666D02*
X80032380Y-55438095D01*
X80032380Y-55152380D02*
X79032380Y-55152380D01*
X79175238Y-55247619D01*
X79270476Y-55342857D01*
X79318095Y-55438095D01*
X79032380Y-54247619D02*
X79032380Y-54152380D01*
X79080000Y-54057142D01*
X79127619Y-54009523D01*
X79222857Y-53961904D01*
X79413333Y-53914285D01*
X79651428Y-53914285D01*
X79841904Y-53961904D01*
X79937142Y-54009523D01*
X79984761Y-54057142D01*
X80032380Y-54152380D01*
X80032380Y-54247619D01*
X79984761Y-54342857D01*
X79937142Y-54390476D01*
X79841904Y-54438095D01*
X79651428Y-54485714D01*
X79413333Y-54485714D01*
X79222857Y-54438095D01*
X79127619Y-54390476D01*
X79080000Y-54342857D01*
X79032380Y-54247619D01*
X79032380Y-53295238D02*
X79032380Y-53200000D01*
X79080000Y-53104761D01*
X79127619Y-53057142D01*
X79222857Y-53009523D01*
X79413333Y-52961904D01*
X79651428Y-52961904D01*
X79841904Y-53009523D01*
X79937142Y-53057142D01*
X79984761Y-53104761D01*
X80032380Y-53200000D01*
X80032380Y-53295238D01*
X79984761Y-53390476D01*
X79937142Y-53438095D01*
X79841904Y-53485714D01*
X79651428Y-53533333D01*
X79413333Y-53533333D01*
X79222857Y-53485714D01*
X79127619Y-53438095D01*
X79080000Y-53390476D01*
X79032380Y-53295238D01*
X78061428Y-57860952D02*
X78061428Y-57099047D01*
X78442380Y-57480000D02*
X77680476Y-57480000D01*
G04 #@! TO.C,C101*
X78337142Y-114019047D02*
X78384761Y-114066666D01*
X78432380Y-114209523D01*
X78432380Y-114304761D01*
X78384761Y-114447619D01*
X78289523Y-114542857D01*
X78194285Y-114590476D01*
X78003809Y-114638095D01*
X77860952Y-114638095D01*
X77670476Y-114590476D01*
X77575238Y-114542857D01*
X77480000Y-114447619D01*
X77432380Y-114304761D01*
X77432380Y-114209523D01*
X77480000Y-114066666D01*
X77527619Y-114019047D01*
X78432380Y-113066666D02*
X78432380Y-113638095D01*
X78432380Y-113352380D02*
X77432380Y-113352380D01*
X77575238Y-113447619D01*
X77670476Y-113542857D01*
X77718095Y-113638095D01*
X77432380Y-112447619D02*
X77432380Y-112352380D01*
X77480000Y-112257142D01*
X77527619Y-112209523D01*
X77622857Y-112161904D01*
X77813333Y-112114285D01*
X78051428Y-112114285D01*
X78241904Y-112161904D01*
X78337142Y-112209523D01*
X78384761Y-112257142D01*
X78432380Y-112352380D01*
X78432380Y-112447619D01*
X78384761Y-112542857D01*
X78337142Y-112590476D01*
X78241904Y-112638095D01*
X78051428Y-112685714D01*
X77813333Y-112685714D01*
X77622857Y-112638095D01*
X77527619Y-112590476D01*
X77480000Y-112542857D01*
X77432380Y-112447619D01*
X78432380Y-111161904D02*
X78432380Y-111733333D01*
X78432380Y-111447619D02*
X77432380Y-111447619D01*
X77575238Y-111542857D01*
X77670476Y-111638095D01*
X77718095Y-111733333D01*
X76461428Y-116060952D02*
X76461428Y-115299047D01*
X76842380Y-115680000D02*
X76080476Y-115680000D01*
G04 #@! TO.C,C102*
X247637142Y-61119047D02*
X247684761Y-61166666D01*
X247732380Y-61309523D01*
X247732380Y-61404761D01*
X247684761Y-61547619D01*
X247589523Y-61642857D01*
X247494285Y-61690476D01*
X247303809Y-61738095D01*
X247160952Y-61738095D01*
X246970476Y-61690476D01*
X246875238Y-61642857D01*
X246780000Y-61547619D01*
X246732380Y-61404761D01*
X246732380Y-61309523D01*
X246780000Y-61166666D01*
X246827619Y-61119047D01*
X247732380Y-60166666D02*
X247732380Y-60738095D01*
X247732380Y-60452380D02*
X246732380Y-60452380D01*
X246875238Y-60547619D01*
X246970476Y-60642857D01*
X247018095Y-60738095D01*
X246732380Y-59547619D02*
X246732380Y-59452380D01*
X246780000Y-59357142D01*
X246827619Y-59309523D01*
X246922857Y-59261904D01*
X247113333Y-59214285D01*
X247351428Y-59214285D01*
X247541904Y-59261904D01*
X247637142Y-59309523D01*
X247684761Y-59357142D01*
X247732380Y-59452380D01*
X247732380Y-59547619D01*
X247684761Y-59642857D01*
X247637142Y-59690476D01*
X247541904Y-59738095D01*
X247351428Y-59785714D01*
X247113333Y-59785714D01*
X246922857Y-59738095D01*
X246827619Y-59690476D01*
X246780000Y-59642857D01*
X246732380Y-59547619D01*
X246827619Y-58833333D02*
X246780000Y-58785714D01*
X246732380Y-58690476D01*
X246732380Y-58452380D01*
X246780000Y-58357142D01*
X246827619Y-58309523D01*
X246922857Y-58261904D01*
X247018095Y-58261904D01*
X247160952Y-58309523D01*
X247732380Y-58880952D01*
X247732380Y-58261904D01*
X245761428Y-63160952D02*
X245761428Y-62399047D01*
X246142380Y-62780000D02*
X245380476Y-62780000D01*
G04 #@! TO.C,C103*
X267637142Y-95119047D02*
X267684761Y-95166666D01*
X267732380Y-95309523D01*
X267732380Y-95404761D01*
X267684761Y-95547619D01*
X267589523Y-95642857D01*
X267494285Y-95690476D01*
X267303809Y-95738095D01*
X267160952Y-95738095D01*
X266970476Y-95690476D01*
X266875238Y-95642857D01*
X266780000Y-95547619D01*
X266732380Y-95404761D01*
X266732380Y-95309523D01*
X266780000Y-95166666D01*
X266827619Y-95119047D01*
X267732380Y-94166666D02*
X267732380Y-94738095D01*
X267732380Y-94452380D02*
X266732380Y-94452380D01*
X266875238Y-94547619D01*
X266970476Y-94642857D01*
X267018095Y-94738095D01*
X266732380Y-93547619D02*
X266732380Y-93452380D01*
X266780000Y-93357142D01*
X266827619Y-93309523D01*
X266922857Y-93261904D01*
X267113333Y-93214285D01*
X267351428Y-93214285D01*
X267541904Y-93261904D01*
X267637142Y-93309523D01*
X267684761Y-93357142D01*
X267732380Y-93452380D01*
X267732380Y-93547619D01*
X267684761Y-93642857D01*
X267637142Y-93690476D01*
X267541904Y-93738095D01*
X267351428Y-93785714D01*
X267113333Y-93785714D01*
X266922857Y-93738095D01*
X266827619Y-93690476D01*
X266780000Y-93642857D01*
X266732380Y-93547619D01*
X266732380Y-92880952D02*
X266732380Y-92261904D01*
X267113333Y-92595238D01*
X267113333Y-92452380D01*
X267160952Y-92357142D01*
X267208571Y-92309523D01*
X267303809Y-92261904D01*
X267541904Y-92261904D01*
X267637142Y-92309523D01*
X267684761Y-92357142D01*
X267732380Y-92452380D01*
X267732380Y-92738095D01*
X267684761Y-92833333D01*
X267637142Y-92880952D01*
X265761428Y-97160952D02*
X265761428Y-96399047D01*
X266142380Y-96780000D02*
X265380476Y-96780000D01*
G04 #@! TO.C,C104*
X267737142Y-149719047D02*
X267784761Y-149766666D01*
X267832380Y-149909523D01*
X267832380Y-150004761D01*
X267784761Y-150147619D01*
X267689523Y-150242857D01*
X267594285Y-150290476D01*
X267403809Y-150338095D01*
X267260952Y-150338095D01*
X267070476Y-150290476D01*
X266975238Y-150242857D01*
X266880000Y-150147619D01*
X266832380Y-150004761D01*
X266832380Y-149909523D01*
X266880000Y-149766666D01*
X266927619Y-149719047D01*
X267832380Y-148766666D02*
X267832380Y-149338095D01*
X267832380Y-149052380D02*
X266832380Y-149052380D01*
X266975238Y-149147619D01*
X267070476Y-149242857D01*
X267118095Y-149338095D01*
X266832380Y-148147619D02*
X266832380Y-148052380D01*
X266880000Y-147957142D01*
X266927619Y-147909523D01*
X267022857Y-147861904D01*
X267213333Y-147814285D01*
X267451428Y-147814285D01*
X267641904Y-147861904D01*
X267737142Y-147909523D01*
X267784761Y-147957142D01*
X267832380Y-148052380D01*
X267832380Y-148147619D01*
X267784761Y-148242857D01*
X267737142Y-148290476D01*
X267641904Y-148338095D01*
X267451428Y-148385714D01*
X267213333Y-148385714D01*
X267022857Y-148338095D01*
X266927619Y-148290476D01*
X266880000Y-148242857D01*
X266832380Y-148147619D01*
X267165714Y-146957142D02*
X267832380Y-146957142D01*
X266784761Y-147195238D02*
X267499047Y-147433333D01*
X267499047Y-146814285D01*
X265861428Y-151760952D02*
X265861428Y-150999047D01*
X266242380Y-151380000D02*
X265480476Y-151380000D01*
G04 #@! TO.C,C105*
X75837142Y-151019047D02*
X75884761Y-151066666D01*
X75932380Y-151209523D01*
X75932380Y-151304761D01*
X75884761Y-151447619D01*
X75789523Y-151542857D01*
X75694285Y-151590476D01*
X75503809Y-151638095D01*
X75360952Y-151638095D01*
X75170476Y-151590476D01*
X75075238Y-151542857D01*
X74980000Y-151447619D01*
X74932380Y-151304761D01*
X74932380Y-151209523D01*
X74980000Y-151066666D01*
X75027619Y-151019047D01*
X75932380Y-150066666D02*
X75932380Y-150638095D01*
X75932380Y-150352380D02*
X74932380Y-150352380D01*
X75075238Y-150447619D01*
X75170476Y-150542857D01*
X75218095Y-150638095D01*
X74932380Y-149447619D02*
X74932380Y-149352380D01*
X74980000Y-149257142D01*
X75027619Y-149209523D01*
X75122857Y-149161904D01*
X75313333Y-149114285D01*
X75551428Y-149114285D01*
X75741904Y-149161904D01*
X75837142Y-149209523D01*
X75884761Y-149257142D01*
X75932380Y-149352380D01*
X75932380Y-149447619D01*
X75884761Y-149542857D01*
X75837142Y-149590476D01*
X75741904Y-149638095D01*
X75551428Y-149685714D01*
X75313333Y-149685714D01*
X75122857Y-149638095D01*
X75027619Y-149590476D01*
X74980000Y-149542857D01*
X74932380Y-149447619D01*
X74932380Y-148209523D02*
X74932380Y-148685714D01*
X75408571Y-148733333D01*
X75360952Y-148685714D01*
X75313333Y-148590476D01*
X75313333Y-148352380D01*
X75360952Y-148257142D01*
X75408571Y-148209523D01*
X75503809Y-148161904D01*
X75741904Y-148161904D01*
X75837142Y-148209523D01*
X75884761Y-148257142D01*
X75932380Y-148352380D01*
X75932380Y-148590476D01*
X75884761Y-148685714D01*
X75837142Y-148733333D01*
X73961428Y-153060952D02*
X73961428Y-152299047D01*
X74342380Y-152680000D02*
X73580476Y-152680000D01*
G04 #@! TO.C,J1*
X260666666Y-58252380D02*
X260666666Y-58966666D01*
X260619047Y-59109523D01*
X260523809Y-59204761D01*
X260380952Y-59252380D01*
X260285714Y-59252380D01*
X261666666Y-59252380D02*
X261095238Y-59252380D01*
X261380952Y-59252380D02*
X261380952Y-58252380D01*
X261285714Y-58395238D01*
X261190476Y-58490476D01*
X261095238Y-58538095D01*
G04 #@! TO.C,RN1*
X260652380Y-131490476D02*
X260176190Y-131823809D01*
X260652380Y-132061904D02*
X259652380Y-132061904D01*
X259652380Y-131680952D01*
X259700000Y-131585714D01*
X259747619Y-131538095D01*
X259842857Y-131490476D01*
X259985714Y-131490476D01*
X260080952Y-131538095D01*
X260128571Y-131585714D01*
X260176190Y-131680952D01*
X260176190Y-132061904D01*
X260652380Y-131061904D02*
X259652380Y-131061904D01*
X260652380Y-130490476D01*
X259652380Y-130490476D01*
X260652380Y-129490476D02*
X260652380Y-130061904D01*
X260652380Y-129776190D02*
X259652380Y-129776190D01*
X259795238Y-129871428D01*
X259890476Y-129966666D01*
X259938095Y-130061904D01*
G04 #@! TO.C,RN2*
X265292380Y-106090476D02*
X264816190Y-106423809D01*
X265292380Y-106661904D02*
X264292380Y-106661904D01*
X264292380Y-106280952D01*
X264340000Y-106185714D01*
X264387619Y-106138095D01*
X264482857Y-106090476D01*
X264625714Y-106090476D01*
X264720952Y-106138095D01*
X264768571Y-106185714D01*
X264816190Y-106280952D01*
X264816190Y-106661904D01*
X265292380Y-105661904D02*
X264292380Y-105661904D01*
X265292380Y-105090476D01*
X264292380Y-105090476D01*
X264387619Y-104661904D02*
X264340000Y-104614285D01*
X264292380Y-104519047D01*
X264292380Y-104280952D01*
X264340000Y-104185714D01*
X264387619Y-104138095D01*
X264482857Y-104090476D01*
X264578095Y-104090476D01*
X264720952Y-104138095D01*
X265292380Y-104709523D01*
X265292380Y-104090476D01*
G04 #@! TD*
M02*
