G04 #@! TF.GenerationSoftware,KiCad,Pcbnew,(5.0.1)-4*
G04 #@! TF.CreationDate,2018-12-09T17:15:49-08:00*
G04 #@! TF.ProjectId,ht1632c-to-dip,687431363332632D746F2D6469702E6B,rev?*
G04 #@! TF.SameCoordinates,Original*
G04 #@! TF.FileFunction,Copper,L1,Top,Signal*
G04 #@! TF.FilePolarity,Positive*
%FSLAX46Y46*%
G04 Gerber Fmt 4.6, Leading zero omitted, Abs format (unit mm)*
G04 Created by KiCad (PCBNEW (5.0.1)-4) date 12/9/2018 5:15:49 PM*
%MOMM*%
%LPD*%
G01*
G04 APERTURE LIST*
G04 #@! TA.AperFunction,ComponentPad*
%ADD10R,1.700000X1.700000*%
G04 #@! TD*
G04 #@! TA.AperFunction,ComponentPad*
%ADD11O,1.700000X1.700000*%
G04 #@! TD*
G04 #@! TA.AperFunction,SMDPad,CuDef*
%ADD12C,0.500000*%
G04 #@! TD*
G04 #@! TA.AperFunction,Conductor*
%ADD13C,0.500000*%
G04 #@! TD*
G04 #@! TA.AperFunction,Conductor*
%ADD14C,0.250000*%
G04 #@! TD*
G04 APERTURE END LIST*
D10*
G04 #@! TO.P,J1,1*
G04 #@! TO.N,/1*
X77470000Y-93980000D03*
D11*
G04 #@! TO.P,J1,2*
G04 #@! TO.N,/2*
X80010000Y-93980000D03*
G04 #@! TO.P,J1,3*
G04 #@! TO.N,/3*
X82550000Y-93980000D03*
G04 #@! TO.P,J1,4*
G04 #@! TO.N,/4*
X85090000Y-93980000D03*
G04 #@! TO.P,J1,5*
G04 #@! TO.N,/5*
X87630000Y-93980000D03*
G04 #@! TO.P,J1,6*
G04 #@! TO.N,/6*
X90170000Y-93980000D03*
G04 #@! TO.P,J1,7*
G04 #@! TO.N,/7*
X92710000Y-93980000D03*
G04 #@! TO.P,J1,8*
G04 #@! TO.N,/8*
X95250000Y-93980000D03*
G04 #@! TO.P,J1,9*
G04 #@! TO.N,/9*
X97790000Y-93980000D03*
G04 #@! TO.P,J1,10*
G04 #@! TO.N,/10*
X100330000Y-93980000D03*
G04 #@! TO.P,J1,11*
G04 #@! TO.N,/11*
X102870000Y-93980000D03*
G04 #@! TO.P,J1,12*
G04 #@! TO.N,/12*
X105410000Y-93980000D03*
G04 #@! TO.P,J1,13*
G04 #@! TO.N,/13*
X107950000Y-93980000D03*
G04 #@! TO.P,J1,14*
G04 #@! TO.N,/14*
X110490000Y-93980000D03*
G04 #@! TO.P,J1,15*
G04 #@! TO.N,/15*
X113030000Y-93980000D03*
G04 #@! TO.P,J1,16*
G04 #@! TO.N,/16*
X115570000Y-93980000D03*
G04 #@! TO.P,J1,17*
G04 #@! TO.N,/17*
X118110000Y-93980000D03*
G04 #@! TO.P,J1,18*
G04 #@! TO.N,/18*
X120650000Y-93980000D03*
G04 #@! TO.P,J1,19*
G04 #@! TO.N,/19*
X123190000Y-93980000D03*
G04 #@! TO.P,J1,20*
G04 #@! TO.N,/20*
X125730000Y-93980000D03*
G04 #@! TO.P,J1,21*
G04 #@! TO.N,/21*
X128270000Y-93980000D03*
G04 #@! TO.P,J1,22*
G04 #@! TO.N,/22*
X130810000Y-93980000D03*
G04 #@! TO.P,J1,23*
G04 #@! TO.N,/23*
X133350000Y-93980000D03*
G04 #@! TO.P,J1,24*
G04 #@! TO.N,/24*
X135890000Y-93980000D03*
G04 #@! TO.P,J1,25*
G04 #@! TO.N,/25*
X138430000Y-93980000D03*
G04 #@! TO.P,J1,26*
G04 #@! TO.N,/26*
X140970000Y-93980000D03*
G04 #@! TD*
G04 #@! TO.P,J2,26*
G04 #@! TO.N,/52*
X77470000Y-62992000D03*
G04 #@! TO.P,J2,25*
G04 #@! TO.N,/51*
X80010000Y-62992000D03*
G04 #@! TO.P,J2,24*
G04 #@! TO.N,/50*
X82550000Y-62992000D03*
G04 #@! TO.P,J2,23*
G04 #@! TO.N,/49*
X85090000Y-62992000D03*
G04 #@! TO.P,J2,22*
G04 #@! TO.N,/48*
X87630000Y-62992000D03*
G04 #@! TO.P,J2,21*
G04 #@! TO.N,/47*
X90170000Y-62992000D03*
G04 #@! TO.P,J2,20*
G04 #@! TO.N,/46*
X92710000Y-62992000D03*
G04 #@! TO.P,J2,19*
G04 #@! TO.N,/45*
X95250000Y-62992000D03*
G04 #@! TO.P,J2,18*
G04 #@! TO.N,/44*
X97790000Y-62992000D03*
G04 #@! TO.P,J2,17*
G04 #@! TO.N,/43*
X100330000Y-62992000D03*
G04 #@! TO.P,J2,16*
G04 #@! TO.N,/42*
X102870000Y-62992000D03*
G04 #@! TO.P,J2,15*
G04 #@! TO.N,/41*
X105410000Y-62992000D03*
G04 #@! TO.P,J2,14*
G04 #@! TO.N,/40*
X107950000Y-62992000D03*
G04 #@! TO.P,J2,13*
G04 #@! TO.N,/39*
X110490000Y-62992000D03*
G04 #@! TO.P,J2,12*
G04 #@! TO.N,/38*
X113030000Y-62992000D03*
G04 #@! TO.P,J2,11*
G04 #@! TO.N,/37*
X115570000Y-62992000D03*
G04 #@! TO.P,J2,10*
G04 #@! TO.N,/25*
X118110000Y-62992000D03*
G04 #@! TO.P,J2,9*
G04 #@! TO.N,/35*
X120650000Y-62992000D03*
G04 #@! TO.P,J2,8*
G04 #@! TO.N,/34*
X123190000Y-62992000D03*
G04 #@! TO.P,J2,7*
G04 #@! TO.N,/33*
X125730000Y-62992000D03*
G04 #@! TO.P,J2,6*
G04 #@! TO.N,/32*
X128270000Y-62992000D03*
G04 #@! TO.P,J2,5*
G04 #@! TO.N,/31*
X130810000Y-62992000D03*
G04 #@! TO.P,J2,4*
G04 #@! TO.N,/30*
X133350000Y-62992000D03*
G04 #@! TO.P,J2,3*
G04 #@! TO.N,/29*
X135890000Y-62992000D03*
G04 #@! TO.P,J2,2*
G04 #@! TO.N,/28*
X138430000Y-62992000D03*
D10*
G04 #@! TO.P,J2,1*
G04 #@! TO.N,/27*
X140970000Y-62992000D03*
G04 #@! TD*
D12*
G04 #@! TO.P,U1,1*
G04 #@! TO.N,/1*
X99497282Y-79723437D03*
D13*
G04 #@! TD*
G04 #@! TO.N,/1*
G04 #@! TO.C,U1*
X98966952Y-80253767D02*
X100027612Y-79193107D01*
D12*
G04 #@! TO.P,U1,2*
G04 #@! TO.N,/2*
X100204389Y-80430544D03*
D13*
G04 #@! TD*
G04 #@! TO.N,/2*
G04 #@! TO.C,U1*
X99674059Y-80960874D02*
X100734719Y-79900214D01*
D12*
G04 #@! TO.P,U1,3*
G04 #@! TO.N,/3*
X100911495Y-81137650D03*
D13*
G04 #@! TD*
G04 #@! TO.N,/3*
G04 #@! TO.C,U1*
X100381165Y-81667980D02*
X101441825Y-80607320D01*
D12*
G04 #@! TO.P,U1,4*
G04 #@! TO.N,/4*
X101618602Y-81844757D03*
D13*
G04 #@! TD*
G04 #@! TO.N,/4*
G04 #@! TO.C,U1*
X101088272Y-82375087D02*
X102148932Y-81314427D01*
D12*
G04 #@! TO.P,U1,5*
G04 #@! TO.N,/5*
X102325709Y-82551864D03*
D13*
G04 #@! TD*
G04 #@! TO.N,/5*
G04 #@! TO.C,U1*
X101795379Y-83082194D02*
X102856039Y-82021534D01*
D12*
G04 #@! TO.P,U1,6*
G04 #@! TO.N,/6*
X103032816Y-83258971D03*
D13*
G04 #@! TD*
G04 #@! TO.N,/6*
G04 #@! TO.C,U1*
X102502486Y-83789301D02*
X103563146Y-82728641D01*
D12*
G04 #@! TO.P,U1,7*
G04 #@! TO.N,/7*
X103739922Y-83966078D03*
D13*
G04 #@! TD*
G04 #@! TO.N,/7*
G04 #@! TO.C,U1*
X103209592Y-84496408D02*
X104270252Y-83435748D01*
D12*
G04 #@! TO.P,U1,8*
G04 #@! TO.N,/8*
X104447029Y-84673184D03*
D13*
G04 #@! TD*
G04 #@! TO.N,/8*
G04 #@! TO.C,U1*
X103916699Y-85203514D02*
X104977359Y-84142854D01*
D12*
G04 #@! TO.P,U1,9*
G04 #@! TO.N,/9*
X105154136Y-85380291D03*
D13*
G04 #@! TD*
G04 #@! TO.N,/9*
G04 #@! TO.C,U1*
X104623806Y-85910621D02*
X105684466Y-84849961D01*
D12*
G04 #@! TO.P,U1,10*
G04 #@! TO.N,/10*
X105861243Y-86087398D03*
D13*
G04 #@! TD*
G04 #@! TO.N,/10*
G04 #@! TO.C,U1*
X105330913Y-86617728D02*
X106391573Y-85557068D01*
D12*
G04 #@! TO.P,U1,11*
G04 #@! TO.N,/11*
X106568350Y-86794505D03*
D13*
G04 #@! TD*
G04 #@! TO.N,/11*
G04 #@! TO.C,U1*
X106038020Y-87324835D02*
X107098680Y-86264175D01*
D12*
G04 #@! TO.P,U1,12*
G04 #@! TO.N,/12*
X107275456Y-87501611D03*
D13*
G04 #@! TD*
G04 #@! TO.N,/12*
G04 #@! TO.C,U1*
X106745126Y-88031941D02*
X107805786Y-86971281D01*
D12*
G04 #@! TO.P,U1,13*
G04 #@! TO.N,/13*
X107982563Y-88208718D03*
D13*
G04 #@! TD*
G04 #@! TO.N,/13*
G04 #@! TO.C,U1*
X107452233Y-88739048D02*
X108512893Y-87678388D01*
D12*
G04 #@! TO.P,U1,14*
G04 #@! TO.N,/14*
X110457437Y-88208718D03*
D13*
G04 #@! TD*
G04 #@! TO.N,/14*
G04 #@! TO.C,U1*
X109927107Y-87678388D02*
X110987767Y-88739048D01*
D12*
G04 #@! TO.P,U1,15*
G04 #@! TO.N,/15*
X111164544Y-87501611D03*
D13*
G04 #@! TD*
G04 #@! TO.N,/15*
G04 #@! TO.C,U1*
X110634214Y-86971281D02*
X111694874Y-88031941D01*
D12*
G04 #@! TO.P,U1,16*
G04 #@! TO.N,/16*
X111871650Y-86794505D03*
D13*
G04 #@! TD*
G04 #@! TO.N,/16*
G04 #@! TO.C,U1*
X111341320Y-86264175D02*
X112401980Y-87324835D01*
D12*
G04 #@! TO.P,U1,17*
G04 #@! TO.N,/17*
X112578757Y-86087398D03*
D13*
G04 #@! TD*
G04 #@! TO.N,/17*
G04 #@! TO.C,U1*
X112048427Y-85557068D02*
X113109087Y-86617728D01*
D12*
G04 #@! TO.P,U1,18*
G04 #@! TO.N,/18*
X113285864Y-85380291D03*
D13*
G04 #@! TD*
G04 #@! TO.N,/18*
G04 #@! TO.C,U1*
X112755534Y-84849961D02*
X113816194Y-85910621D01*
D12*
G04 #@! TO.P,U1,19*
G04 #@! TO.N,/19*
X113992971Y-84673184D03*
D13*
G04 #@! TD*
G04 #@! TO.N,/19*
G04 #@! TO.C,U1*
X113462641Y-84142854D02*
X114523301Y-85203514D01*
D12*
G04 #@! TO.P,U1,20*
G04 #@! TO.N,/20*
X114700078Y-83966078D03*
D13*
G04 #@! TD*
G04 #@! TO.N,/20*
G04 #@! TO.C,U1*
X114169748Y-83435748D02*
X115230408Y-84496408D01*
D12*
G04 #@! TO.P,U1,21*
G04 #@! TO.N,/21*
X115407184Y-83258971D03*
D13*
G04 #@! TD*
G04 #@! TO.N,/21*
G04 #@! TO.C,U1*
X114876854Y-82728641D02*
X115937514Y-83789301D01*
D12*
G04 #@! TO.P,U1,22*
G04 #@! TO.N,/22*
X116114291Y-82551864D03*
D13*
G04 #@! TD*
G04 #@! TO.N,/22*
G04 #@! TO.C,U1*
X115583961Y-82021534D02*
X116644621Y-83082194D01*
D12*
G04 #@! TO.P,U1,23*
G04 #@! TO.N,/23*
X116821398Y-81844757D03*
D13*
G04 #@! TD*
G04 #@! TO.N,/23*
G04 #@! TO.C,U1*
X116291068Y-81314427D02*
X117351728Y-82375087D01*
D12*
G04 #@! TO.P,U1,24*
G04 #@! TO.N,/24*
X117528505Y-81137650D03*
D13*
G04 #@! TD*
G04 #@! TO.N,/24*
G04 #@! TO.C,U1*
X116998175Y-80607320D02*
X118058835Y-81667980D01*
D12*
G04 #@! TO.P,U1,25*
G04 #@! TO.N,/25*
X118235611Y-80430544D03*
D13*
G04 #@! TD*
G04 #@! TO.N,/25*
G04 #@! TO.C,U1*
X117705281Y-79900214D02*
X118765941Y-80960874D01*
D12*
G04 #@! TO.P,U1,26*
G04 #@! TO.N,/26*
X118942718Y-79723437D03*
D13*
G04 #@! TD*
G04 #@! TO.N,/26*
G04 #@! TO.C,U1*
X118412388Y-79193107D02*
X119473048Y-80253767D01*
D12*
G04 #@! TO.P,U1,27*
G04 #@! TO.N,/27*
X118942718Y-77248563D03*
D13*
G04 #@! TD*
G04 #@! TO.N,/27*
G04 #@! TO.C,U1*
X118412388Y-77778893D02*
X119473048Y-76718233D01*
D12*
G04 #@! TO.P,U1,28*
G04 #@! TO.N,/28*
X118235611Y-76541456D03*
D13*
G04 #@! TD*
G04 #@! TO.N,/28*
G04 #@! TO.C,U1*
X117705281Y-77071786D02*
X118765941Y-76011126D01*
D12*
G04 #@! TO.P,U1,29*
G04 #@! TO.N,/29*
X117528505Y-75834350D03*
D13*
G04 #@! TD*
G04 #@! TO.N,/29*
G04 #@! TO.C,U1*
X116998175Y-76364680D02*
X118058835Y-75304020D01*
D12*
G04 #@! TO.P,U1,30*
G04 #@! TO.N,/30*
X116821398Y-75127243D03*
D13*
G04 #@! TD*
G04 #@! TO.N,/30*
G04 #@! TO.C,U1*
X116291068Y-75657573D02*
X117351728Y-74596913D01*
D12*
G04 #@! TO.P,U1,31*
G04 #@! TO.N,/31*
X116114291Y-74420136D03*
D13*
G04 #@! TD*
G04 #@! TO.N,/31*
G04 #@! TO.C,U1*
X115583961Y-74950466D02*
X116644621Y-73889806D01*
D12*
G04 #@! TO.P,U1,32*
G04 #@! TO.N,/32*
X115407184Y-73713029D03*
D13*
G04 #@! TD*
G04 #@! TO.N,/32*
G04 #@! TO.C,U1*
X114876854Y-74243359D02*
X115937514Y-73182699D01*
D12*
G04 #@! TO.P,U1,33*
G04 #@! TO.N,/33*
X114700078Y-73005922D03*
D13*
G04 #@! TD*
G04 #@! TO.N,/33*
G04 #@! TO.C,U1*
X114169748Y-73536252D02*
X115230408Y-72475592D01*
D12*
G04 #@! TO.P,U1,34*
G04 #@! TO.N,/34*
X113992971Y-72298816D03*
D13*
G04 #@! TD*
G04 #@! TO.N,/34*
G04 #@! TO.C,U1*
X113462641Y-72829146D02*
X114523301Y-71768486D01*
D12*
G04 #@! TO.P,U1,35*
G04 #@! TO.N,/35*
X113285864Y-71591709D03*
D13*
G04 #@! TD*
G04 #@! TO.N,/35*
G04 #@! TO.C,U1*
X112755534Y-72122039D02*
X113816194Y-71061379D01*
D12*
G04 #@! TO.P,U1,36*
G04 #@! TO.N,/25*
X112578757Y-70884602D03*
D13*
G04 #@! TD*
G04 #@! TO.N,/25*
G04 #@! TO.C,U1*
X112048427Y-71414932D02*
X113109087Y-70354272D01*
D12*
G04 #@! TO.P,U1,37*
G04 #@! TO.N,/37*
X111871650Y-70177495D03*
D13*
G04 #@! TD*
G04 #@! TO.N,/37*
G04 #@! TO.C,U1*
X111341320Y-70707825D02*
X112401980Y-69647165D01*
D12*
G04 #@! TO.P,U1,38*
G04 #@! TO.N,/38*
X111164544Y-69470389D03*
D13*
G04 #@! TD*
G04 #@! TO.N,/38*
G04 #@! TO.C,U1*
X110634214Y-70000719D02*
X111694874Y-68940059D01*
D12*
G04 #@! TO.P,U1,39*
G04 #@! TO.N,/39*
X110457437Y-68763282D03*
D13*
G04 #@! TD*
G04 #@! TO.N,/39*
G04 #@! TO.C,U1*
X109927107Y-69293612D02*
X110987767Y-68232952D01*
D12*
G04 #@! TO.P,U1,40*
G04 #@! TO.N,/40*
X107982563Y-68763282D03*
D13*
G04 #@! TD*
G04 #@! TO.N,/40*
G04 #@! TO.C,U1*
X107452233Y-68232952D02*
X108512893Y-69293612D01*
D12*
G04 #@! TO.P,U1,41*
G04 #@! TO.N,/41*
X107275456Y-69470389D03*
D13*
G04 #@! TD*
G04 #@! TO.N,/41*
G04 #@! TO.C,U1*
X106745126Y-68940059D02*
X107805786Y-70000719D01*
D12*
G04 #@! TO.P,U1,42*
G04 #@! TO.N,/42*
X106568350Y-70177495D03*
D13*
G04 #@! TD*
G04 #@! TO.N,/42*
G04 #@! TO.C,U1*
X106038020Y-69647165D02*
X107098680Y-70707825D01*
D12*
G04 #@! TO.P,U1,43*
G04 #@! TO.N,/43*
X105861243Y-70884602D03*
D13*
G04 #@! TD*
G04 #@! TO.N,/43*
G04 #@! TO.C,U1*
X105330913Y-70354272D02*
X106391573Y-71414932D01*
D12*
G04 #@! TO.P,U1,44*
G04 #@! TO.N,/44*
X105154136Y-71591709D03*
D13*
G04 #@! TD*
G04 #@! TO.N,/44*
G04 #@! TO.C,U1*
X104623806Y-71061379D02*
X105684466Y-72122039D01*
D12*
G04 #@! TO.P,U1,45*
G04 #@! TO.N,/45*
X104447029Y-72298816D03*
D13*
G04 #@! TD*
G04 #@! TO.N,/45*
G04 #@! TO.C,U1*
X103916699Y-71768486D02*
X104977359Y-72829146D01*
D12*
G04 #@! TO.P,U1,46*
G04 #@! TO.N,/46*
X103739922Y-73005922D03*
D13*
G04 #@! TD*
G04 #@! TO.N,/46*
G04 #@! TO.C,U1*
X103209592Y-72475592D02*
X104270252Y-73536252D01*
D12*
G04 #@! TO.P,U1,47*
G04 #@! TO.N,/47*
X103032816Y-73713029D03*
D13*
G04 #@! TD*
G04 #@! TO.N,/47*
G04 #@! TO.C,U1*
X102502486Y-73182699D02*
X103563146Y-74243359D01*
D12*
G04 #@! TO.P,U1,48*
G04 #@! TO.N,/48*
X102325709Y-74420136D03*
D13*
G04 #@! TD*
G04 #@! TO.N,/48*
G04 #@! TO.C,U1*
X101795379Y-73889806D02*
X102856039Y-74950466D01*
D12*
G04 #@! TO.P,U1,49*
G04 #@! TO.N,/49*
X101618602Y-75127243D03*
D13*
G04 #@! TD*
G04 #@! TO.N,/49*
G04 #@! TO.C,U1*
X101088272Y-74596913D02*
X102148932Y-75657573D01*
D12*
G04 #@! TO.P,U1,50*
G04 #@! TO.N,/50*
X100911495Y-75834350D03*
D13*
G04 #@! TD*
G04 #@! TO.N,/50*
G04 #@! TO.C,U1*
X100381165Y-75304020D02*
X101441825Y-76364680D01*
D12*
G04 #@! TO.P,U1,51*
G04 #@! TO.N,/51*
X100204389Y-76541456D03*
D13*
G04 #@! TD*
G04 #@! TO.N,/51*
G04 #@! TO.C,U1*
X99674059Y-76011126D02*
X100734719Y-77071786D01*
D12*
G04 #@! TO.P,U1,52*
G04 #@! TO.N,/52*
X99497282Y-77248563D03*
D13*
G04 #@! TD*
G04 #@! TO.N,/52*
G04 #@! TO.C,U1*
X98966952Y-76718233D02*
X100027612Y-77778893D01*
D14*
G04 #@! TO.N,/1*
X77470000Y-92880000D02*
X77470000Y-93980000D01*
X90626563Y-79723437D02*
X77470000Y-92880000D01*
X99497282Y-79723437D02*
X90626563Y-79723437D01*
G04 #@! TO.N,/2*
X80859999Y-93130001D02*
X80010000Y-93980000D01*
X92781639Y-81208361D02*
X80859999Y-93130001D01*
X99426572Y-81208361D02*
X92781639Y-81208361D01*
X100204389Y-80430544D02*
X99426572Y-81208361D01*
G04 #@! TO.N,/3*
X99085556Y-82963589D02*
X100133678Y-81915467D01*
X100133678Y-81915467D02*
X100911495Y-81137650D01*
X93566411Y-82963589D02*
X99085556Y-82963589D01*
X82550000Y-93980000D02*
X93566411Y-82963589D01*
G04 #@! TO.N,/4*
X100840785Y-82622574D02*
X101618602Y-81844757D01*
X85090000Y-93980000D02*
X95656400Y-83413600D01*
X95656400Y-83413600D02*
X100049759Y-83413600D01*
X100049759Y-83413600D02*
X100840785Y-82622574D01*
G04 #@! TO.N,/5*
X93811227Y-87798773D02*
X97078800Y-87798773D01*
X87630000Y-93980000D02*
X93811227Y-87798773D01*
X102325709Y-82551864D02*
X97078800Y-87798773D01*
G04 #@! TO.N,/6*
X97290187Y-88900000D02*
X97340987Y-88950800D01*
X95250000Y-88900000D02*
X97290187Y-88900000D01*
X90170000Y-93980000D02*
X95250000Y-88900000D01*
X103032816Y-83258971D02*
X97340987Y-88950800D01*
G04 #@! TO.N,/7*
X92710000Y-93980000D02*
X93559999Y-93130001D01*
X102412800Y-85293200D02*
X103739922Y-83966078D01*
X101959246Y-85293200D02*
X102412800Y-85293200D01*
X93559999Y-93130001D02*
X93585399Y-93130001D01*
X96520000Y-90195400D02*
X97057046Y-90195400D01*
X93585399Y-93130001D02*
X96520000Y-90195400D01*
X97057046Y-90195400D02*
X101959246Y-85293200D01*
G04 #@! TO.N,/8*
X104447029Y-84782971D02*
X104447029Y-84673184D01*
X95250000Y-93980000D02*
X104447029Y-84782971D01*
G04 #@! TO.N,/9*
X104376319Y-86158108D02*
X105154136Y-85380291D01*
X98639999Y-91894428D02*
X104376319Y-86158108D01*
X98639999Y-93130001D02*
X98639999Y-91894428D01*
X97790000Y-93980000D02*
X98639999Y-93130001D01*
G04 #@! TO.N,/10*
X105083426Y-86865215D02*
X105861243Y-86087398D01*
X101179999Y-90768642D02*
X105083426Y-86865215D01*
X101179999Y-93130001D02*
X101179999Y-90768642D01*
X100330000Y-93980000D02*
X101179999Y-93130001D01*
G04 #@! TO.N,/11*
X105790533Y-87572322D02*
X106568350Y-86794505D01*
X103719999Y-89642856D02*
X105790533Y-87572322D01*
X103719999Y-93130001D02*
X103719999Y-89642856D01*
X102870000Y-93980000D02*
X103719999Y-93130001D01*
G04 #@! TO.N,/12*
X105410000Y-89367067D02*
X107275456Y-87501611D01*
X105410000Y-93980000D02*
X105410000Y-89367067D01*
G04 #@! TO.N,/13*
X107950000Y-88241281D02*
X107982563Y-88208718D01*
X107950000Y-93980000D02*
X107950000Y-88241281D01*
G04 #@! TO.N,/14*
X110490000Y-88241281D02*
X110457437Y-88208718D01*
X110490000Y-93980000D02*
X110490000Y-88241281D01*
G04 #@! TO.N,/15*
X113030000Y-89367067D02*
X111164544Y-87501611D01*
X113030000Y-93980000D02*
X113030000Y-89367067D01*
G04 #@! TO.N,/16*
X115570000Y-90492855D02*
X111871650Y-86794505D01*
X115570000Y-93980000D02*
X115570000Y-90492855D01*
G04 #@! TO.N,/17*
X118110000Y-91618641D02*
X112578757Y-86087398D01*
X118110000Y-93980000D02*
X118110000Y-91618641D01*
G04 #@! TO.N,/18*
X120650000Y-92744427D02*
X113285864Y-85380291D01*
X120650000Y-93980000D02*
X120650000Y-92744427D01*
G04 #@! TO.N,/19*
X113992971Y-84782971D02*
X113992971Y-84673184D01*
X123190000Y-93980000D02*
X113992971Y-84782971D01*
G04 #@! TO.N,/20*
X115477895Y-84743895D02*
X114700078Y-83966078D01*
X115692897Y-84743895D02*
X115477895Y-84743895D01*
X122414402Y-91465400D02*
X115692897Y-84743895D01*
X123215400Y-91465400D02*
X122414402Y-91465400D01*
X125730000Y-93980000D02*
X123215400Y-91465400D01*
G04 #@! TO.N,/21*
X116185001Y-84036788D02*
X115407184Y-83258971D01*
X124866400Y-90576400D02*
X122724613Y-90576400D01*
X128270000Y-93980000D02*
X124866400Y-90576400D01*
X122724613Y-90576400D02*
X116185001Y-84036788D01*
G04 #@! TO.N,/22*
X116892108Y-83329681D02*
X116114291Y-82551864D01*
X123072027Y-89509600D02*
X116892108Y-83329681D01*
X126339600Y-89509600D02*
X123072027Y-89509600D01*
X130810000Y-93980000D02*
X126339600Y-89509600D01*
G04 #@! TO.N,/23*
X117599215Y-82622574D02*
X116821398Y-81844757D01*
X121539841Y-86563200D02*
X117599215Y-82622574D01*
X125933200Y-86563200D02*
X121539841Y-86563200D01*
X133350000Y-93980000D02*
X125933200Y-86563200D01*
G04 #@! TO.N,/24*
X118306322Y-81915467D02*
X117528505Y-81137650D01*
X121684055Y-85293200D02*
X118306322Y-81915467D01*
X127203200Y-85293200D02*
X121684055Y-85293200D01*
X135890000Y-93980000D02*
X127203200Y-85293200D01*
G04 #@! TO.N,/25*
X119013428Y-81208361D02*
X118235611Y-80430544D01*
X126860442Y-81208361D02*
X119013428Y-81208361D01*
X138430000Y-92777919D02*
X126860442Y-81208361D01*
X138430000Y-93980000D02*
X138430000Y-92777919D01*
G04 #@! TO.N,/26*
X126713437Y-79723437D02*
X118942718Y-79723437D01*
X140970000Y-93980000D02*
X126713437Y-79723437D01*
G04 #@! TO.N,/52*
X91726563Y-77248563D02*
X99497282Y-77248563D01*
X77470000Y-62992000D02*
X91726563Y-77248563D01*
G04 #@! TO.N,/51*
X99426572Y-75763639D02*
X100204389Y-76541456D01*
X91579558Y-75763639D02*
X99426572Y-75763639D01*
X80010000Y-64194081D02*
X91579558Y-75763639D01*
X80010000Y-62992000D02*
X80010000Y-64194081D01*
G04 #@! TO.N,/50*
X100133678Y-75056533D02*
X100911495Y-75834350D01*
X93412452Y-75056533D02*
X100133678Y-75056533D01*
X82550000Y-64194081D02*
X93412452Y-75056533D01*
X82550000Y-62992000D02*
X82550000Y-64194081D01*
G04 #@! TO.N,/49*
X100840785Y-74349426D02*
X101618602Y-75127243D01*
X95245345Y-74349426D02*
X100840785Y-74349426D01*
X85090000Y-64194081D02*
X95245345Y-74349426D01*
X85090000Y-62992000D02*
X85090000Y-64194081D01*
G04 #@! TO.N,/48*
X101547892Y-73642319D02*
X102325709Y-74420136D01*
X97078238Y-73642319D02*
X101547892Y-73642319D01*
X87630000Y-64194081D02*
X97078238Y-73642319D01*
X87630000Y-62992000D02*
X87630000Y-64194081D01*
G04 #@! TO.N,/47*
X102254999Y-72935212D02*
X103032816Y-73713029D01*
X95089413Y-67911413D02*
X97231200Y-67911413D01*
X90170000Y-62992000D02*
X95089413Y-67911413D01*
X97231200Y-67911413D02*
X102254999Y-72935212D01*
G04 #@! TO.N,/46*
X103286368Y-73005922D02*
X103739922Y-73005922D01*
X97006246Y-66725800D02*
X103286368Y-73005922D01*
X96443800Y-66725800D02*
X97006246Y-66725800D01*
X92710000Y-62992000D02*
X96443800Y-66725800D01*
G04 #@! TO.N,/45*
X104447029Y-72189029D02*
X104447029Y-72298816D01*
X95250000Y-62992000D02*
X104447029Y-72189029D01*
G04 #@! TO.N,/44*
X97790000Y-64227573D02*
X105154136Y-71591709D01*
X97790000Y-62992000D02*
X97790000Y-64227573D01*
G04 #@! TO.N,/43*
X100330000Y-65353359D02*
X105861243Y-70884602D01*
X100330000Y-62992000D02*
X100330000Y-65353359D01*
G04 #@! TO.N,/42*
X102870000Y-66479145D02*
X106568350Y-70177495D01*
X102870000Y-62992000D02*
X102870000Y-66479145D01*
G04 #@! TO.N,/41*
X105410000Y-67604933D02*
X107275456Y-69470389D01*
X105410000Y-62992000D02*
X105410000Y-67604933D01*
G04 #@! TO.N,/40*
X107950000Y-68730719D02*
X107982563Y-68763282D01*
X107950000Y-62992000D02*
X107950000Y-68730719D01*
G04 #@! TO.N,/39*
X110490000Y-68730719D02*
X110457437Y-68763282D01*
X110490000Y-62992000D02*
X110490000Y-68730719D01*
G04 #@! TO.N,/38*
X111942361Y-68692572D02*
X111164544Y-69470389D01*
X113879999Y-66754934D02*
X111942361Y-68692572D01*
X113879999Y-63841999D02*
X113879999Y-66754934D01*
X113030000Y-62992000D02*
X113879999Y-63841999D01*
G04 #@! TO.N,/37*
X115570000Y-66479145D02*
X111871650Y-70177495D01*
X115570000Y-62992000D02*
X115570000Y-66479145D01*
G04 #@! TO.N,/25*
X118110000Y-65353359D02*
X112578757Y-70884602D01*
X118110000Y-62992000D02*
X118110000Y-65353359D01*
G04 #@! TO.N,/35*
X114063681Y-70813892D02*
X113285864Y-71591709D01*
X119800001Y-65077572D02*
X114063681Y-70813892D01*
X119800001Y-63841999D02*
X119800001Y-65077572D01*
X120650000Y-62992000D02*
X119800001Y-63841999D01*
G04 #@! TO.N,/34*
X113992971Y-72189029D02*
X113992971Y-72298816D01*
X123190000Y-62992000D02*
X113992971Y-72189029D01*
G04 #@! TO.N,/33*
X115477895Y-72228105D02*
X114700078Y-73005922D01*
X121158000Y-67564000D02*
X120142000Y-67564000D01*
X125730000Y-62992000D02*
X121158000Y-67564000D01*
X120142000Y-67564000D02*
X115477895Y-72228105D01*
G04 #@! TO.N,/32*
X116185001Y-72935212D02*
X115407184Y-73713029D01*
X117525790Y-72935212D02*
X116185001Y-72935212D01*
X128270000Y-62992000D02*
X127420001Y-63841999D01*
X127420001Y-63841999D02*
X127420001Y-63867399D01*
X124956198Y-66331202D02*
X124129800Y-66331202D01*
X127420001Y-63867399D02*
X124956198Y-66331202D01*
X124129800Y-66331202D02*
X117525790Y-72935212D01*
G04 #@! TO.N,/31*
X116567845Y-74420136D02*
X116114291Y-74420136D01*
X116677276Y-74420136D02*
X116567845Y-74420136D01*
X126568200Y-67233800D02*
X123863612Y-67233800D01*
X130810000Y-62992000D02*
X126568200Y-67233800D01*
X123863612Y-67233800D02*
X116677276Y-74420136D01*
G04 #@! TO.N,/30*
X117599215Y-74349426D02*
X116821398Y-75127243D01*
X128548559Y-67793441D02*
X124155200Y-67793441D01*
X133350000Y-62992000D02*
X128548559Y-67793441D01*
X124155200Y-67793441D02*
X117599215Y-74349426D01*
G04 #@! TO.N,/29*
X130200400Y-68681600D02*
X135890000Y-62992000D01*
X124681255Y-68681600D02*
X117528505Y-75834350D01*
X130200400Y-68681600D02*
X124681255Y-68681600D01*
G04 #@! TO.N,/28*
X125658361Y-75763639D02*
X137580001Y-63841999D01*
X137580001Y-63841999D02*
X138430000Y-62992000D01*
X119013428Y-75763639D02*
X125658361Y-75763639D01*
X118235611Y-76541456D02*
X119013428Y-75763639D01*
G04 #@! TO.N,/27*
X119396272Y-77248563D02*
X118942718Y-77248563D01*
X127813437Y-77248563D02*
X119396272Y-77248563D01*
X140970000Y-64092000D02*
X127813437Y-77248563D01*
X140970000Y-62992000D02*
X140970000Y-64092000D01*
G04 #@! TD*
M02*
