G04 #@! TF.GenerationSoftware,KiCad,Pcbnew,(5.0.1)-4*
G04 #@! TF.CreationDate,2018-12-09T17:15:49-08:00*
G04 #@! TF.ProjectId,ht1632c-to-dip,687431363332632D746F2D6469702E6B,rev?*
G04 #@! TF.SameCoordinates,Original*
G04 #@! TF.FileFunction,Copper,L2,Bot,Signal*
G04 #@! TF.FilePolarity,Positive*
%FSLAX46Y46*%
G04 Gerber Fmt 4.6, Leading zero omitted, Abs format (unit mm)*
G04 Created by KiCad (PCBNEW (5.0.1)-4) date 12/9/2018 5:15:49 PM*
%MOMM*%
%LPD*%
G01*
G04 APERTURE LIST*
G04 #@! TA.AperFunction,ComponentPad*
%ADD10R,1.700000X1.700000*%
G04 #@! TD*
G04 #@! TA.AperFunction,ComponentPad*
%ADD11O,1.700000X1.700000*%
G04 #@! TD*
G04 #@! TA.AperFunction,Conductor*
%ADD12C,0.254000*%
G04 #@! TD*
G04 APERTURE END LIST*
D10*
G04 #@! TO.P,J1,1*
G04 #@! TO.N,/1*
X77470000Y-93980000D03*
D11*
G04 #@! TO.P,J1,2*
G04 #@! TO.N,/2*
X80010000Y-93980000D03*
G04 #@! TO.P,J1,3*
G04 #@! TO.N,/3*
X82550000Y-93980000D03*
G04 #@! TO.P,J1,4*
G04 #@! TO.N,/4*
X85090000Y-93980000D03*
G04 #@! TO.P,J1,5*
G04 #@! TO.N,/5*
X87630000Y-93980000D03*
G04 #@! TO.P,J1,6*
G04 #@! TO.N,/6*
X90170000Y-93980000D03*
G04 #@! TO.P,J1,7*
G04 #@! TO.N,/7*
X92710000Y-93980000D03*
G04 #@! TO.P,J1,8*
G04 #@! TO.N,/8*
X95250000Y-93980000D03*
G04 #@! TO.P,J1,9*
G04 #@! TO.N,/9*
X97790000Y-93980000D03*
G04 #@! TO.P,J1,10*
G04 #@! TO.N,/10*
X100330000Y-93980000D03*
G04 #@! TO.P,J1,11*
G04 #@! TO.N,/11*
X102870000Y-93980000D03*
G04 #@! TO.P,J1,12*
G04 #@! TO.N,/12*
X105410000Y-93980000D03*
G04 #@! TO.P,J1,13*
G04 #@! TO.N,/13*
X107950000Y-93980000D03*
G04 #@! TO.P,J1,14*
G04 #@! TO.N,/14*
X110490000Y-93980000D03*
G04 #@! TO.P,J1,15*
G04 #@! TO.N,/15*
X113030000Y-93980000D03*
G04 #@! TO.P,J1,16*
G04 #@! TO.N,/16*
X115570000Y-93980000D03*
G04 #@! TO.P,J1,17*
G04 #@! TO.N,/17*
X118110000Y-93980000D03*
G04 #@! TO.P,J1,18*
G04 #@! TO.N,/18*
X120650000Y-93980000D03*
G04 #@! TO.P,J1,19*
G04 #@! TO.N,/19*
X123190000Y-93980000D03*
G04 #@! TO.P,J1,20*
G04 #@! TO.N,/20*
X125730000Y-93980000D03*
G04 #@! TO.P,J1,21*
G04 #@! TO.N,/21*
X128270000Y-93980000D03*
G04 #@! TO.P,J1,22*
G04 #@! TO.N,/22*
X130810000Y-93980000D03*
G04 #@! TO.P,J1,23*
G04 #@! TO.N,/23*
X133350000Y-93980000D03*
G04 #@! TO.P,J1,24*
G04 #@! TO.N,/24*
X135890000Y-93980000D03*
G04 #@! TO.P,J1,25*
G04 #@! TO.N,/25*
X138430000Y-93980000D03*
G04 #@! TO.P,J1,26*
G04 #@! TO.N,/26*
X140970000Y-93980000D03*
G04 #@! TD*
G04 #@! TO.P,J2,26*
G04 #@! TO.N,/52*
X77470000Y-62992000D03*
G04 #@! TO.P,J2,25*
G04 #@! TO.N,/51*
X80010000Y-62992000D03*
G04 #@! TO.P,J2,24*
G04 #@! TO.N,/50*
X82550000Y-62992000D03*
G04 #@! TO.P,J2,23*
G04 #@! TO.N,/49*
X85090000Y-62992000D03*
G04 #@! TO.P,J2,22*
G04 #@! TO.N,/48*
X87630000Y-62992000D03*
G04 #@! TO.P,J2,21*
G04 #@! TO.N,/47*
X90170000Y-62992000D03*
G04 #@! TO.P,J2,20*
G04 #@! TO.N,/46*
X92710000Y-62992000D03*
G04 #@! TO.P,J2,19*
G04 #@! TO.N,/45*
X95250000Y-62992000D03*
G04 #@! TO.P,J2,18*
G04 #@! TO.N,/44*
X97790000Y-62992000D03*
G04 #@! TO.P,J2,17*
G04 #@! TO.N,/43*
X100330000Y-62992000D03*
G04 #@! TO.P,J2,16*
G04 #@! TO.N,/42*
X102870000Y-62992000D03*
G04 #@! TO.P,J2,15*
G04 #@! TO.N,/41*
X105410000Y-62992000D03*
G04 #@! TO.P,J2,14*
G04 #@! TO.N,/40*
X107950000Y-62992000D03*
G04 #@! TO.P,J2,13*
G04 #@! TO.N,/39*
X110490000Y-62992000D03*
G04 #@! TO.P,J2,12*
G04 #@! TO.N,/38*
X113030000Y-62992000D03*
G04 #@! TO.P,J2,11*
G04 #@! TO.N,/37*
X115570000Y-62992000D03*
G04 #@! TO.P,J2,10*
G04 #@! TO.N,/25*
X118110000Y-62992000D03*
G04 #@! TO.P,J2,9*
G04 #@! TO.N,/35*
X120650000Y-62992000D03*
G04 #@! TO.P,J2,8*
G04 #@! TO.N,/34*
X123190000Y-62992000D03*
G04 #@! TO.P,J2,7*
G04 #@! TO.N,/33*
X125730000Y-62992000D03*
G04 #@! TO.P,J2,6*
G04 #@! TO.N,/32*
X128270000Y-62992000D03*
G04 #@! TO.P,J2,5*
G04 #@! TO.N,/31*
X130810000Y-62992000D03*
G04 #@! TO.P,J2,4*
G04 #@! TO.N,/30*
X133350000Y-62992000D03*
G04 #@! TO.P,J2,3*
G04 #@! TO.N,/29*
X135890000Y-62992000D03*
G04 #@! TO.P,J2,2*
G04 #@! TO.N,/28*
X138430000Y-62992000D03*
D10*
G04 #@! TO.P,J2,1*
G04 #@! TO.N,/27*
X140970000Y-62992000D03*
G04 #@! TD*
D12*
G04 #@! TO.N,/14*
G36*
X122465197Y-88354803D02*
X122506399Y-88382333D01*
X122555000Y-88392000D01*
X125691548Y-88392000D01*
X129413000Y-90872968D01*
X129413000Y-93474880D01*
X129157501Y-93092499D01*
X128750312Y-92820424D01*
X128391239Y-92749000D01*
X128148761Y-92749000D01*
X127789688Y-92820424D01*
X127382499Y-93092499D01*
X127110424Y-93499688D01*
X127014884Y-93980000D01*
X127110424Y-94460312D01*
X127382499Y-94867501D01*
X127789688Y-95139576D01*
X128148761Y-95211000D01*
X128391239Y-95211000D01*
X128750312Y-95139576D01*
X129157501Y-94867501D01*
X129413000Y-94485120D01*
X129413000Y-96064000D01*
X109347000Y-96064000D01*
X109347000Y-94908914D01*
X109723076Y-95251645D01*
X110133110Y-95421476D01*
X110363000Y-95300155D01*
X110363000Y-94107000D01*
X110343000Y-94107000D01*
X110343000Y-93853000D01*
X110363000Y-93853000D01*
X110363000Y-92659845D01*
X110617000Y-92659845D01*
X110617000Y-93853000D01*
X110637000Y-93853000D01*
X110637000Y-94107000D01*
X110617000Y-94107000D01*
X110617000Y-95300155D01*
X110846890Y-95421476D01*
X111256924Y-95251645D01*
X111685183Y-94861358D01*
X111872245Y-94463037D01*
X112142499Y-94867501D01*
X112549688Y-95139576D01*
X112908761Y-95211000D01*
X113151239Y-95211000D01*
X113510312Y-95139576D01*
X113917501Y-94867501D01*
X114189576Y-94460312D01*
X114285116Y-93980000D01*
X114314884Y-93980000D01*
X114410424Y-94460312D01*
X114682499Y-94867501D01*
X115089688Y-95139576D01*
X115448761Y-95211000D01*
X115691239Y-95211000D01*
X116050312Y-95139576D01*
X116457501Y-94867501D01*
X116729576Y-94460312D01*
X116825116Y-93980000D01*
X116854884Y-93980000D01*
X116950424Y-94460312D01*
X117222499Y-94867501D01*
X117629688Y-95139576D01*
X117988761Y-95211000D01*
X118231239Y-95211000D01*
X118590312Y-95139576D01*
X118997501Y-94867501D01*
X119269576Y-94460312D01*
X119365116Y-93980000D01*
X119394884Y-93980000D01*
X119490424Y-94460312D01*
X119762499Y-94867501D01*
X120169688Y-95139576D01*
X120528761Y-95211000D01*
X120771239Y-95211000D01*
X121130312Y-95139576D01*
X121537501Y-94867501D01*
X121809576Y-94460312D01*
X121905116Y-93980000D01*
X121934884Y-93980000D01*
X122030424Y-94460312D01*
X122302499Y-94867501D01*
X122709688Y-95139576D01*
X123068761Y-95211000D01*
X123311239Y-95211000D01*
X123670312Y-95139576D01*
X124077501Y-94867501D01*
X124349576Y-94460312D01*
X124445116Y-93980000D01*
X124474884Y-93980000D01*
X124570424Y-94460312D01*
X124842499Y-94867501D01*
X125249688Y-95139576D01*
X125608761Y-95211000D01*
X125851239Y-95211000D01*
X126210312Y-95139576D01*
X126617501Y-94867501D01*
X126889576Y-94460312D01*
X126985116Y-93980000D01*
X126889576Y-93499688D01*
X126617501Y-93092499D01*
X126210312Y-92820424D01*
X125851239Y-92749000D01*
X125608761Y-92749000D01*
X125249688Y-92820424D01*
X124842499Y-93092499D01*
X124570424Y-93499688D01*
X124474884Y-93980000D01*
X124445116Y-93980000D01*
X124349576Y-93499688D01*
X124077501Y-93092499D01*
X123670312Y-92820424D01*
X123311239Y-92749000D01*
X123068761Y-92749000D01*
X122709688Y-92820424D01*
X122302499Y-93092499D01*
X122030424Y-93499688D01*
X121934884Y-93980000D01*
X121905116Y-93980000D01*
X121809576Y-93499688D01*
X121537501Y-93092499D01*
X121130312Y-92820424D01*
X120771239Y-92749000D01*
X120528761Y-92749000D01*
X120169688Y-92820424D01*
X119762499Y-93092499D01*
X119490424Y-93499688D01*
X119394884Y-93980000D01*
X119365116Y-93980000D01*
X119269576Y-93499688D01*
X118997501Y-93092499D01*
X118590312Y-92820424D01*
X118231239Y-92749000D01*
X117988761Y-92749000D01*
X117629688Y-92820424D01*
X117222499Y-93092499D01*
X116950424Y-93499688D01*
X116854884Y-93980000D01*
X116825116Y-93980000D01*
X116729576Y-93499688D01*
X116457501Y-93092499D01*
X116050312Y-92820424D01*
X115691239Y-92749000D01*
X115448761Y-92749000D01*
X115089688Y-92820424D01*
X114682499Y-93092499D01*
X114410424Y-93499688D01*
X114314884Y-93980000D01*
X114285116Y-93980000D01*
X114189576Y-93499688D01*
X113917501Y-93092499D01*
X113510312Y-92820424D01*
X113151239Y-92749000D01*
X112908761Y-92749000D01*
X112549688Y-92820424D01*
X112142499Y-93092499D01*
X111872245Y-93496963D01*
X111685183Y-93098642D01*
X111256924Y-92708355D01*
X110846890Y-92538524D01*
X110617000Y-92659845D01*
X110363000Y-92659845D01*
X110133110Y-92538524D01*
X109723076Y-92708355D01*
X109347000Y-93051086D01*
X109347000Y-86412606D01*
X114935000Y-80824606D01*
X122465197Y-88354803D01*
X122465197Y-88354803D01*
G37*
X122465197Y-88354803D02*
X122506399Y-88382333D01*
X122555000Y-88392000D01*
X125691548Y-88392000D01*
X129413000Y-90872968D01*
X129413000Y-93474880D01*
X129157501Y-93092499D01*
X128750312Y-92820424D01*
X128391239Y-92749000D01*
X128148761Y-92749000D01*
X127789688Y-92820424D01*
X127382499Y-93092499D01*
X127110424Y-93499688D01*
X127014884Y-93980000D01*
X127110424Y-94460312D01*
X127382499Y-94867501D01*
X127789688Y-95139576D01*
X128148761Y-95211000D01*
X128391239Y-95211000D01*
X128750312Y-95139576D01*
X129157501Y-94867501D01*
X129413000Y-94485120D01*
X129413000Y-96064000D01*
X109347000Y-96064000D01*
X109347000Y-94908914D01*
X109723076Y-95251645D01*
X110133110Y-95421476D01*
X110363000Y-95300155D01*
X110363000Y-94107000D01*
X110343000Y-94107000D01*
X110343000Y-93853000D01*
X110363000Y-93853000D01*
X110363000Y-92659845D01*
X110617000Y-92659845D01*
X110617000Y-93853000D01*
X110637000Y-93853000D01*
X110637000Y-94107000D01*
X110617000Y-94107000D01*
X110617000Y-95300155D01*
X110846890Y-95421476D01*
X111256924Y-95251645D01*
X111685183Y-94861358D01*
X111872245Y-94463037D01*
X112142499Y-94867501D01*
X112549688Y-95139576D01*
X112908761Y-95211000D01*
X113151239Y-95211000D01*
X113510312Y-95139576D01*
X113917501Y-94867501D01*
X114189576Y-94460312D01*
X114285116Y-93980000D01*
X114314884Y-93980000D01*
X114410424Y-94460312D01*
X114682499Y-94867501D01*
X115089688Y-95139576D01*
X115448761Y-95211000D01*
X115691239Y-95211000D01*
X116050312Y-95139576D01*
X116457501Y-94867501D01*
X116729576Y-94460312D01*
X116825116Y-93980000D01*
X116854884Y-93980000D01*
X116950424Y-94460312D01*
X117222499Y-94867501D01*
X117629688Y-95139576D01*
X117988761Y-95211000D01*
X118231239Y-95211000D01*
X118590312Y-95139576D01*
X118997501Y-94867501D01*
X119269576Y-94460312D01*
X119365116Y-93980000D01*
X119394884Y-93980000D01*
X119490424Y-94460312D01*
X119762499Y-94867501D01*
X120169688Y-95139576D01*
X120528761Y-95211000D01*
X120771239Y-95211000D01*
X121130312Y-95139576D01*
X121537501Y-94867501D01*
X121809576Y-94460312D01*
X121905116Y-93980000D01*
X121934884Y-93980000D01*
X122030424Y-94460312D01*
X122302499Y-94867501D01*
X122709688Y-95139576D01*
X123068761Y-95211000D01*
X123311239Y-95211000D01*
X123670312Y-95139576D01*
X124077501Y-94867501D01*
X124349576Y-94460312D01*
X124445116Y-93980000D01*
X124474884Y-93980000D01*
X124570424Y-94460312D01*
X124842499Y-94867501D01*
X125249688Y-95139576D01*
X125608761Y-95211000D01*
X125851239Y-95211000D01*
X126210312Y-95139576D01*
X126617501Y-94867501D01*
X126889576Y-94460312D01*
X126985116Y-93980000D01*
X126889576Y-93499688D01*
X126617501Y-93092499D01*
X126210312Y-92820424D01*
X125851239Y-92749000D01*
X125608761Y-92749000D01*
X125249688Y-92820424D01*
X124842499Y-93092499D01*
X124570424Y-93499688D01*
X124474884Y-93980000D01*
X124445116Y-93980000D01*
X124349576Y-93499688D01*
X124077501Y-93092499D01*
X123670312Y-92820424D01*
X123311239Y-92749000D01*
X123068761Y-92749000D01*
X122709688Y-92820424D01*
X122302499Y-93092499D01*
X122030424Y-93499688D01*
X121934884Y-93980000D01*
X121905116Y-93980000D01*
X121809576Y-93499688D01*
X121537501Y-93092499D01*
X121130312Y-92820424D01*
X120771239Y-92749000D01*
X120528761Y-92749000D01*
X120169688Y-92820424D01*
X119762499Y-93092499D01*
X119490424Y-93499688D01*
X119394884Y-93980000D01*
X119365116Y-93980000D01*
X119269576Y-93499688D01*
X118997501Y-93092499D01*
X118590312Y-92820424D01*
X118231239Y-92749000D01*
X117988761Y-92749000D01*
X117629688Y-92820424D01*
X117222499Y-93092499D01*
X116950424Y-93499688D01*
X116854884Y-93980000D01*
X116825116Y-93980000D01*
X116729576Y-93499688D01*
X116457501Y-93092499D01*
X116050312Y-92820424D01*
X115691239Y-92749000D01*
X115448761Y-92749000D01*
X115089688Y-92820424D01*
X114682499Y-93092499D01*
X114410424Y-93499688D01*
X114314884Y-93980000D01*
X114285116Y-93980000D01*
X114189576Y-93499688D01*
X113917501Y-93092499D01*
X113510312Y-92820424D01*
X113151239Y-92749000D01*
X112908761Y-92749000D01*
X112549688Y-92820424D01*
X112142499Y-93092499D01*
X111872245Y-93496963D01*
X111685183Y-93098642D01*
X111256924Y-92708355D01*
X110846890Y-92538524D01*
X110617000Y-92659845D01*
X110363000Y-92659845D01*
X110133110Y-92538524D01*
X109723076Y-92708355D01*
X109347000Y-93051086D01*
X109347000Y-86412606D01*
X114935000Y-80824606D01*
X122465197Y-88354803D01*
G04 #@! TO.N,/25*
G36*
X144324001Y-96064000D02*
X130302000Y-96064000D01*
X130302000Y-95121075D01*
X130329688Y-95139576D01*
X130688761Y-95211000D01*
X130931239Y-95211000D01*
X131290312Y-95139576D01*
X131697501Y-94867501D01*
X131969576Y-94460312D01*
X132065116Y-93980000D01*
X132094884Y-93980000D01*
X132190424Y-94460312D01*
X132462499Y-94867501D01*
X132869688Y-95139576D01*
X133228761Y-95211000D01*
X133471239Y-95211000D01*
X133830312Y-95139576D01*
X134237501Y-94867501D01*
X134509576Y-94460312D01*
X134605116Y-93980000D01*
X134634884Y-93980000D01*
X134730424Y-94460312D01*
X135002499Y-94867501D01*
X135409688Y-95139576D01*
X135768761Y-95211000D01*
X136011239Y-95211000D01*
X136370312Y-95139576D01*
X136777501Y-94867501D01*
X137047755Y-94463037D01*
X137234817Y-94861358D01*
X137663076Y-95251645D01*
X138073110Y-95421476D01*
X138303000Y-95300155D01*
X138303000Y-94107000D01*
X138283000Y-94107000D01*
X138283000Y-93853000D01*
X138303000Y-93853000D01*
X138303000Y-92659845D01*
X138557000Y-92659845D01*
X138557000Y-93853000D01*
X138577000Y-93853000D01*
X138577000Y-94107000D01*
X138557000Y-94107000D01*
X138557000Y-95300155D01*
X138786890Y-95421476D01*
X139196924Y-95251645D01*
X139625183Y-94861358D01*
X139812245Y-94463037D01*
X140082499Y-94867501D01*
X140489688Y-95139576D01*
X140848761Y-95211000D01*
X141091239Y-95211000D01*
X141450312Y-95139576D01*
X141857501Y-94867501D01*
X142129576Y-94460312D01*
X142225116Y-93980000D01*
X142129576Y-93499688D01*
X141857501Y-93092499D01*
X141450312Y-92820424D01*
X141091239Y-92749000D01*
X140848761Y-92749000D01*
X140489688Y-92820424D01*
X140082499Y-93092499D01*
X139812245Y-93496963D01*
X139625183Y-93098642D01*
X139196924Y-92708355D01*
X138786890Y-92538524D01*
X138557000Y-92659845D01*
X138303000Y-92659845D01*
X138073110Y-92538524D01*
X137663076Y-92708355D01*
X137234817Y-93098642D01*
X137047755Y-93496963D01*
X136777501Y-93092499D01*
X136370312Y-92820424D01*
X136011239Y-92749000D01*
X135768761Y-92749000D01*
X135409688Y-92820424D01*
X135002499Y-93092499D01*
X134730424Y-93499688D01*
X134634884Y-93980000D01*
X134605116Y-93980000D01*
X134509576Y-93499688D01*
X134237501Y-93092499D01*
X133830312Y-92820424D01*
X133471239Y-92749000D01*
X133228761Y-92749000D01*
X132869688Y-92820424D01*
X132462499Y-93092499D01*
X132190424Y-93499688D01*
X132094884Y-93980000D01*
X132065116Y-93980000D01*
X131969576Y-93499688D01*
X131697501Y-93092499D01*
X131290312Y-92820424D01*
X130931239Y-92749000D01*
X130688761Y-92749000D01*
X130329688Y-92820424D01*
X130302000Y-92838925D01*
X130302000Y-90805000D01*
X130292333Y-90756399D01*
X130248817Y-90701656D01*
X125803817Y-87526656D01*
X125758650Y-87506274D01*
X125730000Y-87503000D01*
X122607606Y-87503000D01*
X115024803Y-79920197D01*
X114983601Y-79892667D01*
X114935000Y-79883000D01*
X114886399Y-79892667D01*
X114845197Y-79920197D01*
X108495197Y-86270197D01*
X108467667Y-86311399D01*
X108458000Y-86360000D01*
X108458000Y-92838925D01*
X108430312Y-92820424D01*
X108071239Y-92749000D01*
X107828761Y-92749000D01*
X107469688Y-92820424D01*
X107062499Y-93092499D01*
X106790424Y-93499688D01*
X106694884Y-93980000D01*
X106790424Y-94460312D01*
X107062499Y-94867501D01*
X107469688Y-95139576D01*
X107828761Y-95211000D01*
X108071239Y-95211000D01*
X108430312Y-95139576D01*
X108458000Y-95121075D01*
X108458000Y-96064000D01*
X74116000Y-96064000D01*
X74116000Y-93130000D01*
X76231536Y-93130000D01*
X76231536Y-94830000D01*
X76261106Y-94978659D01*
X76345314Y-95104686D01*
X76471341Y-95188894D01*
X76620000Y-95218464D01*
X78320000Y-95218464D01*
X78468659Y-95188894D01*
X78594686Y-95104686D01*
X78678894Y-94978659D01*
X78708464Y-94830000D01*
X78708464Y-93980000D01*
X78754884Y-93980000D01*
X78850424Y-94460312D01*
X79122499Y-94867501D01*
X79529688Y-95139576D01*
X79888761Y-95211000D01*
X80131239Y-95211000D01*
X80490312Y-95139576D01*
X80897501Y-94867501D01*
X81169576Y-94460312D01*
X81265116Y-93980000D01*
X81294884Y-93980000D01*
X81390424Y-94460312D01*
X81662499Y-94867501D01*
X82069688Y-95139576D01*
X82428761Y-95211000D01*
X82671239Y-95211000D01*
X83030312Y-95139576D01*
X83437501Y-94867501D01*
X83709576Y-94460312D01*
X83805116Y-93980000D01*
X83834884Y-93980000D01*
X83930424Y-94460312D01*
X84202499Y-94867501D01*
X84609688Y-95139576D01*
X84968761Y-95211000D01*
X85211239Y-95211000D01*
X85570312Y-95139576D01*
X85977501Y-94867501D01*
X86249576Y-94460312D01*
X86345116Y-93980000D01*
X86374884Y-93980000D01*
X86470424Y-94460312D01*
X86742499Y-94867501D01*
X87149688Y-95139576D01*
X87508761Y-95211000D01*
X87751239Y-95211000D01*
X88110312Y-95139576D01*
X88517501Y-94867501D01*
X88789576Y-94460312D01*
X88885116Y-93980000D01*
X88914884Y-93980000D01*
X89010424Y-94460312D01*
X89282499Y-94867501D01*
X89689688Y-95139576D01*
X90048761Y-95211000D01*
X90291239Y-95211000D01*
X90650312Y-95139576D01*
X91057501Y-94867501D01*
X91329576Y-94460312D01*
X91425116Y-93980000D01*
X91454884Y-93980000D01*
X91550424Y-94460312D01*
X91822499Y-94867501D01*
X92229688Y-95139576D01*
X92588761Y-95211000D01*
X92831239Y-95211000D01*
X93190312Y-95139576D01*
X93597501Y-94867501D01*
X93869576Y-94460312D01*
X93965116Y-93980000D01*
X93994884Y-93980000D01*
X94090424Y-94460312D01*
X94362499Y-94867501D01*
X94769688Y-95139576D01*
X95128761Y-95211000D01*
X95371239Y-95211000D01*
X95730312Y-95139576D01*
X96137501Y-94867501D01*
X96409576Y-94460312D01*
X96505116Y-93980000D01*
X96534884Y-93980000D01*
X96630424Y-94460312D01*
X96902499Y-94867501D01*
X97309688Y-95139576D01*
X97668761Y-95211000D01*
X97911239Y-95211000D01*
X98270312Y-95139576D01*
X98677501Y-94867501D01*
X98949576Y-94460312D01*
X99045116Y-93980000D01*
X99074884Y-93980000D01*
X99170424Y-94460312D01*
X99442499Y-94867501D01*
X99849688Y-95139576D01*
X100208761Y-95211000D01*
X100451239Y-95211000D01*
X100810312Y-95139576D01*
X101217501Y-94867501D01*
X101489576Y-94460312D01*
X101585116Y-93980000D01*
X101614884Y-93980000D01*
X101710424Y-94460312D01*
X101982499Y-94867501D01*
X102389688Y-95139576D01*
X102748761Y-95211000D01*
X102991239Y-95211000D01*
X103350312Y-95139576D01*
X103757501Y-94867501D01*
X104029576Y-94460312D01*
X104125116Y-93980000D01*
X104154884Y-93980000D01*
X104250424Y-94460312D01*
X104522499Y-94867501D01*
X104929688Y-95139576D01*
X105288761Y-95211000D01*
X105531239Y-95211000D01*
X105890312Y-95139576D01*
X106297501Y-94867501D01*
X106569576Y-94460312D01*
X106665116Y-93980000D01*
X106569576Y-93499688D01*
X106297501Y-93092499D01*
X105890312Y-92820424D01*
X105531239Y-92749000D01*
X105288761Y-92749000D01*
X104929688Y-92820424D01*
X104522499Y-93092499D01*
X104250424Y-93499688D01*
X104154884Y-93980000D01*
X104125116Y-93980000D01*
X104029576Y-93499688D01*
X103757501Y-93092499D01*
X103350312Y-92820424D01*
X102991239Y-92749000D01*
X102748761Y-92749000D01*
X102389688Y-92820424D01*
X101982499Y-93092499D01*
X101710424Y-93499688D01*
X101614884Y-93980000D01*
X101585116Y-93980000D01*
X101489576Y-93499688D01*
X101217501Y-93092499D01*
X100810312Y-92820424D01*
X100451239Y-92749000D01*
X100208761Y-92749000D01*
X99849688Y-92820424D01*
X99442499Y-93092499D01*
X99170424Y-93499688D01*
X99074884Y-93980000D01*
X99045116Y-93980000D01*
X98949576Y-93499688D01*
X98677501Y-93092499D01*
X98270312Y-92820424D01*
X97911239Y-92749000D01*
X97668761Y-92749000D01*
X97309688Y-92820424D01*
X96902499Y-93092499D01*
X96630424Y-93499688D01*
X96534884Y-93980000D01*
X96505116Y-93980000D01*
X96409576Y-93499688D01*
X96137501Y-93092499D01*
X95730312Y-92820424D01*
X95371239Y-92749000D01*
X95128761Y-92749000D01*
X94769688Y-92820424D01*
X94362499Y-93092499D01*
X94090424Y-93499688D01*
X93994884Y-93980000D01*
X93965116Y-93980000D01*
X93869576Y-93499688D01*
X93597501Y-93092499D01*
X93190312Y-92820424D01*
X92831239Y-92749000D01*
X92588761Y-92749000D01*
X92229688Y-92820424D01*
X91822499Y-93092499D01*
X91550424Y-93499688D01*
X91454884Y-93980000D01*
X91425116Y-93980000D01*
X91329576Y-93499688D01*
X91057501Y-93092499D01*
X90650312Y-92820424D01*
X90291239Y-92749000D01*
X90048761Y-92749000D01*
X89689688Y-92820424D01*
X89282499Y-93092499D01*
X89010424Y-93499688D01*
X88914884Y-93980000D01*
X88885116Y-93980000D01*
X88789576Y-93499688D01*
X88517501Y-93092499D01*
X88110312Y-92820424D01*
X87751239Y-92749000D01*
X87508761Y-92749000D01*
X87149688Y-92820424D01*
X86742499Y-93092499D01*
X86470424Y-93499688D01*
X86374884Y-93980000D01*
X86345116Y-93980000D01*
X86249576Y-93499688D01*
X85977501Y-93092499D01*
X85570312Y-92820424D01*
X85211239Y-92749000D01*
X84968761Y-92749000D01*
X84609688Y-92820424D01*
X84202499Y-93092499D01*
X83930424Y-93499688D01*
X83834884Y-93980000D01*
X83805116Y-93980000D01*
X83709576Y-93499688D01*
X83437501Y-93092499D01*
X83030312Y-92820424D01*
X82671239Y-92749000D01*
X82428761Y-92749000D01*
X82069688Y-92820424D01*
X81662499Y-93092499D01*
X81390424Y-93499688D01*
X81294884Y-93980000D01*
X81265116Y-93980000D01*
X81169576Y-93499688D01*
X80897501Y-93092499D01*
X80490312Y-92820424D01*
X80131239Y-92749000D01*
X79888761Y-92749000D01*
X79529688Y-92820424D01*
X79122499Y-93092499D01*
X78850424Y-93499688D01*
X78754884Y-93980000D01*
X78708464Y-93980000D01*
X78708464Y-93130000D01*
X78678894Y-92981341D01*
X78594686Y-92855314D01*
X78468659Y-92771106D01*
X78320000Y-92741536D01*
X76620000Y-92741536D01*
X76471341Y-92771106D01*
X76345314Y-92855314D01*
X76261106Y-92981341D01*
X76231536Y-93130000D01*
X74116000Y-93130000D01*
X74116000Y-62992000D01*
X76214884Y-62992000D01*
X76310424Y-63472312D01*
X76582499Y-63879501D01*
X76989688Y-64151576D01*
X77348761Y-64223000D01*
X77591239Y-64223000D01*
X77950312Y-64151576D01*
X78357501Y-63879501D01*
X78629576Y-63472312D01*
X78725116Y-62992000D01*
X78754884Y-62992000D01*
X78850424Y-63472312D01*
X79122499Y-63879501D01*
X79529688Y-64151576D01*
X79888761Y-64223000D01*
X80131239Y-64223000D01*
X80490312Y-64151576D01*
X80897501Y-63879501D01*
X81169576Y-63472312D01*
X81265116Y-62992000D01*
X81294884Y-62992000D01*
X81390424Y-63472312D01*
X81662499Y-63879501D01*
X82069688Y-64151576D01*
X82428761Y-64223000D01*
X82671239Y-64223000D01*
X83030312Y-64151576D01*
X83437501Y-63879501D01*
X83709576Y-63472312D01*
X83805116Y-62992000D01*
X83834884Y-62992000D01*
X83930424Y-63472312D01*
X84202499Y-63879501D01*
X84609688Y-64151576D01*
X84968761Y-64223000D01*
X85211239Y-64223000D01*
X85570312Y-64151576D01*
X85977501Y-63879501D01*
X86249576Y-63472312D01*
X86345116Y-62992000D01*
X86374884Y-62992000D01*
X86470424Y-63472312D01*
X86742499Y-63879501D01*
X87149688Y-64151576D01*
X87508761Y-64223000D01*
X87751239Y-64223000D01*
X88110312Y-64151576D01*
X88517501Y-63879501D01*
X88789576Y-63472312D01*
X88885116Y-62992000D01*
X88914884Y-62992000D01*
X89010424Y-63472312D01*
X89282499Y-63879501D01*
X89689688Y-64151576D01*
X90048761Y-64223000D01*
X90291239Y-64223000D01*
X90650312Y-64151576D01*
X91057501Y-63879501D01*
X91329576Y-63472312D01*
X91425116Y-62992000D01*
X91454884Y-62992000D01*
X91550424Y-63472312D01*
X91822499Y-63879501D01*
X92229688Y-64151576D01*
X92588761Y-64223000D01*
X92831239Y-64223000D01*
X93190312Y-64151576D01*
X93597501Y-63879501D01*
X93869576Y-63472312D01*
X93965116Y-62992000D01*
X93994884Y-62992000D01*
X94090424Y-63472312D01*
X94362499Y-63879501D01*
X94769688Y-64151576D01*
X95128761Y-64223000D01*
X95371239Y-64223000D01*
X95730312Y-64151576D01*
X96137501Y-63879501D01*
X96409576Y-63472312D01*
X96505116Y-62992000D01*
X96534884Y-62992000D01*
X96630424Y-63472312D01*
X96902499Y-63879501D01*
X97309688Y-64151576D01*
X97668761Y-64223000D01*
X97911239Y-64223000D01*
X98270312Y-64151576D01*
X98677501Y-63879501D01*
X98949576Y-63472312D01*
X99045116Y-62992000D01*
X99074884Y-62992000D01*
X99170424Y-63472312D01*
X99442499Y-63879501D01*
X99849688Y-64151576D01*
X100208761Y-64223000D01*
X100451239Y-64223000D01*
X100810312Y-64151576D01*
X101217501Y-63879501D01*
X101489576Y-63472312D01*
X101585116Y-62992000D01*
X101614884Y-62992000D01*
X101710424Y-63472312D01*
X101982499Y-63879501D01*
X102389688Y-64151576D01*
X102748761Y-64223000D01*
X102991239Y-64223000D01*
X103350312Y-64151576D01*
X103757501Y-63879501D01*
X104029576Y-63472312D01*
X104125116Y-62992000D01*
X104154884Y-62992000D01*
X104250424Y-63472312D01*
X104522499Y-63879501D01*
X104929688Y-64151576D01*
X105288761Y-64223000D01*
X105531239Y-64223000D01*
X105890312Y-64151576D01*
X106297501Y-63879501D01*
X106569576Y-63472312D01*
X106665116Y-62992000D01*
X106694884Y-62992000D01*
X106790424Y-63472312D01*
X107062499Y-63879501D01*
X107469688Y-64151576D01*
X107828761Y-64223000D01*
X108071239Y-64223000D01*
X108430312Y-64151576D01*
X108837501Y-63879501D01*
X109109576Y-63472312D01*
X109205116Y-62992000D01*
X109234884Y-62992000D01*
X109330424Y-63472312D01*
X109602499Y-63879501D01*
X110009688Y-64151576D01*
X110368761Y-64223000D01*
X110611239Y-64223000D01*
X110970312Y-64151576D01*
X111377501Y-63879501D01*
X111649576Y-63472312D01*
X111745116Y-62992000D01*
X111774884Y-62992000D01*
X111870424Y-63472312D01*
X112142499Y-63879501D01*
X112549688Y-64151576D01*
X112908761Y-64223000D01*
X113151239Y-64223000D01*
X113510312Y-64151576D01*
X113917501Y-63879501D01*
X114189576Y-63472312D01*
X114285116Y-62992000D01*
X114314884Y-62992000D01*
X114410424Y-63472312D01*
X114682499Y-63879501D01*
X115089688Y-64151576D01*
X115448761Y-64223000D01*
X115691239Y-64223000D01*
X116050312Y-64151576D01*
X116457501Y-63879501D01*
X116727755Y-63475037D01*
X116914817Y-63873358D01*
X117343076Y-64263645D01*
X117753110Y-64433476D01*
X117983000Y-64312155D01*
X117983000Y-63119000D01*
X117963000Y-63119000D01*
X117963000Y-62865000D01*
X117983000Y-62865000D01*
X117983000Y-61671845D01*
X118237000Y-61671845D01*
X118237000Y-62865000D01*
X118257000Y-62865000D01*
X118257000Y-63119000D01*
X118237000Y-63119000D01*
X118237000Y-64312155D01*
X118466890Y-64433476D01*
X118876924Y-64263645D01*
X119305183Y-63873358D01*
X119492245Y-63475037D01*
X119762499Y-63879501D01*
X120169688Y-64151576D01*
X120528761Y-64223000D01*
X120771239Y-64223000D01*
X121130312Y-64151576D01*
X121537501Y-63879501D01*
X121809576Y-63472312D01*
X121905116Y-62992000D01*
X121934884Y-62992000D01*
X122030424Y-63472312D01*
X122302499Y-63879501D01*
X122709688Y-64151576D01*
X123068761Y-64223000D01*
X123311239Y-64223000D01*
X123670312Y-64151576D01*
X124077501Y-63879501D01*
X124349576Y-63472312D01*
X124445116Y-62992000D01*
X124474884Y-62992000D01*
X124570424Y-63472312D01*
X124842499Y-63879501D01*
X125249688Y-64151576D01*
X125608761Y-64223000D01*
X125851239Y-64223000D01*
X126210312Y-64151576D01*
X126617501Y-63879501D01*
X126889576Y-63472312D01*
X126985116Y-62992000D01*
X127014884Y-62992000D01*
X127110424Y-63472312D01*
X127382499Y-63879501D01*
X127789688Y-64151576D01*
X128148761Y-64223000D01*
X128391239Y-64223000D01*
X128750312Y-64151576D01*
X129157501Y-63879501D01*
X129429576Y-63472312D01*
X129525116Y-62992000D01*
X129554884Y-62992000D01*
X129650424Y-63472312D01*
X129922499Y-63879501D01*
X130329688Y-64151576D01*
X130688761Y-64223000D01*
X130931239Y-64223000D01*
X131290312Y-64151576D01*
X131697501Y-63879501D01*
X131969576Y-63472312D01*
X132065116Y-62992000D01*
X132094884Y-62992000D01*
X132190424Y-63472312D01*
X132462499Y-63879501D01*
X132869688Y-64151576D01*
X133228761Y-64223000D01*
X133471239Y-64223000D01*
X133830312Y-64151576D01*
X134237501Y-63879501D01*
X134509576Y-63472312D01*
X134605116Y-62992000D01*
X134634884Y-62992000D01*
X134730424Y-63472312D01*
X135002499Y-63879501D01*
X135409688Y-64151576D01*
X135768761Y-64223000D01*
X136011239Y-64223000D01*
X136370312Y-64151576D01*
X136777501Y-63879501D01*
X137049576Y-63472312D01*
X137145116Y-62992000D01*
X137174884Y-62992000D01*
X137270424Y-63472312D01*
X137542499Y-63879501D01*
X137949688Y-64151576D01*
X138308761Y-64223000D01*
X138551239Y-64223000D01*
X138910312Y-64151576D01*
X139317501Y-63879501D01*
X139589576Y-63472312D01*
X139685116Y-62992000D01*
X139589576Y-62511688D01*
X139342559Y-62142000D01*
X139731536Y-62142000D01*
X139731536Y-63842000D01*
X139761106Y-63990659D01*
X139845314Y-64116686D01*
X139971341Y-64200894D01*
X140120000Y-64230464D01*
X141820000Y-64230464D01*
X141968659Y-64200894D01*
X142094686Y-64116686D01*
X142178894Y-63990659D01*
X142208464Y-63842000D01*
X142208464Y-62142000D01*
X142178894Y-61993341D01*
X142094686Y-61867314D01*
X141968659Y-61783106D01*
X141820000Y-61753536D01*
X140120000Y-61753536D01*
X139971341Y-61783106D01*
X139845314Y-61867314D01*
X139761106Y-61993341D01*
X139731536Y-62142000D01*
X139342559Y-62142000D01*
X139317501Y-62104499D01*
X138910312Y-61832424D01*
X138551239Y-61761000D01*
X138308761Y-61761000D01*
X137949688Y-61832424D01*
X137542499Y-62104499D01*
X137270424Y-62511688D01*
X137174884Y-62992000D01*
X137145116Y-62992000D01*
X137049576Y-62511688D01*
X136777501Y-62104499D01*
X136370312Y-61832424D01*
X136011239Y-61761000D01*
X135768761Y-61761000D01*
X135409688Y-61832424D01*
X135002499Y-62104499D01*
X134730424Y-62511688D01*
X134634884Y-62992000D01*
X134605116Y-62992000D01*
X134509576Y-62511688D01*
X134237501Y-62104499D01*
X133830312Y-61832424D01*
X133471239Y-61761000D01*
X133228761Y-61761000D01*
X132869688Y-61832424D01*
X132462499Y-62104499D01*
X132190424Y-62511688D01*
X132094884Y-62992000D01*
X132065116Y-62992000D01*
X131969576Y-62511688D01*
X131697501Y-62104499D01*
X131290312Y-61832424D01*
X130931239Y-61761000D01*
X130688761Y-61761000D01*
X130329688Y-61832424D01*
X129922499Y-62104499D01*
X129650424Y-62511688D01*
X129554884Y-62992000D01*
X129525116Y-62992000D01*
X129429576Y-62511688D01*
X129157501Y-62104499D01*
X128750312Y-61832424D01*
X128391239Y-61761000D01*
X128148761Y-61761000D01*
X127789688Y-61832424D01*
X127382499Y-62104499D01*
X127110424Y-62511688D01*
X127014884Y-62992000D01*
X126985116Y-62992000D01*
X126889576Y-62511688D01*
X126617501Y-62104499D01*
X126210312Y-61832424D01*
X125851239Y-61761000D01*
X125608761Y-61761000D01*
X125249688Y-61832424D01*
X124842499Y-62104499D01*
X124570424Y-62511688D01*
X124474884Y-62992000D01*
X124445116Y-62992000D01*
X124349576Y-62511688D01*
X124077501Y-62104499D01*
X123670312Y-61832424D01*
X123311239Y-61761000D01*
X123068761Y-61761000D01*
X122709688Y-61832424D01*
X122302499Y-62104499D01*
X122030424Y-62511688D01*
X121934884Y-62992000D01*
X121905116Y-62992000D01*
X121809576Y-62511688D01*
X121537501Y-62104499D01*
X121130312Y-61832424D01*
X120771239Y-61761000D01*
X120528761Y-61761000D01*
X120169688Y-61832424D01*
X119762499Y-62104499D01*
X119492245Y-62508963D01*
X119305183Y-62110642D01*
X118876924Y-61720355D01*
X118466890Y-61550524D01*
X118237000Y-61671845D01*
X117983000Y-61671845D01*
X117753110Y-61550524D01*
X117343076Y-61720355D01*
X116914817Y-62110642D01*
X116727755Y-62508963D01*
X116457501Y-62104499D01*
X116050312Y-61832424D01*
X115691239Y-61761000D01*
X115448761Y-61761000D01*
X115089688Y-61832424D01*
X114682499Y-62104499D01*
X114410424Y-62511688D01*
X114314884Y-62992000D01*
X114285116Y-62992000D01*
X114189576Y-62511688D01*
X113917501Y-62104499D01*
X113510312Y-61832424D01*
X113151239Y-61761000D01*
X112908761Y-61761000D01*
X112549688Y-61832424D01*
X112142499Y-62104499D01*
X111870424Y-62511688D01*
X111774884Y-62992000D01*
X111745116Y-62992000D01*
X111649576Y-62511688D01*
X111377501Y-62104499D01*
X110970312Y-61832424D01*
X110611239Y-61761000D01*
X110368761Y-61761000D01*
X110009688Y-61832424D01*
X109602499Y-62104499D01*
X109330424Y-62511688D01*
X109234884Y-62992000D01*
X109205116Y-62992000D01*
X109109576Y-62511688D01*
X108837501Y-62104499D01*
X108430312Y-61832424D01*
X108071239Y-61761000D01*
X107828761Y-61761000D01*
X107469688Y-61832424D01*
X107062499Y-62104499D01*
X106790424Y-62511688D01*
X106694884Y-62992000D01*
X106665116Y-62992000D01*
X106569576Y-62511688D01*
X106297501Y-62104499D01*
X105890312Y-61832424D01*
X105531239Y-61761000D01*
X105288761Y-61761000D01*
X104929688Y-61832424D01*
X104522499Y-62104499D01*
X104250424Y-62511688D01*
X104154884Y-62992000D01*
X104125116Y-62992000D01*
X104029576Y-62511688D01*
X103757501Y-62104499D01*
X103350312Y-61832424D01*
X102991239Y-61761000D01*
X102748761Y-61761000D01*
X102389688Y-61832424D01*
X101982499Y-62104499D01*
X101710424Y-62511688D01*
X101614884Y-62992000D01*
X101585116Y-62992000D01*
X101489576Y-62511688D01*
X101217501Y-62104499D01*
X100810312Y-61832424D01*
X100451239Y-61761000D01*
X100208761Y-61761000D01*
X99849688Y-61832424D01*
X99442499Y-62104499D01*
X99170424Y-62511688D01*
X99074884Y-62992000D01*
X99045116Y-62992000D01*
X98949576Y-62511688D01*
X98677501Y-62104499D01*
X98270312Y-61832424D01*
X97911239Y-61761000D01*
X97668761Y-61761000D01*
X97309688Y-61832424D01*
X96902499Y-62104499D01*
X96630424Y-62511688D01*
X96534884Y-62992000D01*
X96505116Y-62992000D01*
X96409576Y-62511688D01*
X96137501Y-62104499D01*
X95730312Y-61832424D01*
X95371239Y-61761000D01*
X95128761Y-61761000D01*
X94769688Y-61832424D01*
X94362499Y-62104499D01*
X94090424Y-62511688D01*
X93994884Y-62992000D01*
X93965116Y-62992000D01*
X93869576Y-62511688D01*
X93597501Y-62104499D01*
X93190312Y-61832424D01*
X92831239Y-61761000D01*
X92588761Y-61761000D01*
X92229688Y-61832424D01*
X91822499Y-62104499D01*
X91550424Y-62511688D01*
X91454884Y-62992000D01*
X91425116Y-62992000D01*
X91329576Y-62511688D01*
X91057501Y-62104499D01*
X90650312Y-61832424D01*
X90291239Y-61761000D01*
X90048761Y-61761000D01*
X89689688Y-61832424D01*
X89282499Y-62104499D01*
X89010424Y-62511688D01*
X88914884Y-62992000D01*
X88885116Y-62992000D01*
X88789576Y-62511688D01*
X88517501Y-62104499D01*
X88110312Y-61832424D01*
X87751239Y-61761000D01*
X87508761Y-61761000D01*
X87149688Y-61832424D01*
X86742499Y-62104499D01*
X86470424Y-62511688D01*
X86374884Y-62992000D01*
X86345116Y-62992000D01*
X86249576Y-62511688D01*
X85977501Y-62104499D01*
X85570312Y-61832424D01*
X85211239Y-61761000D01*
X84968761Y-61761000D01*
X84609688Y-61832424D01*
X84202499Y-62104499D01*
X83930424Y-62511688D01*
X83834884Y-62992000D01*
X83805116Y-62992000D01*
X83709576Y-62511688D01*
X83437501Y-62104499D01*
X83030312Y-61832424D01*
X82671239Y-61761000D01*
X82428761Y-61761000D01*
X82069688Y-61832424D01*
X81662499Y-62104499D01*
X81390424Y-62511688D01*
X81294884Y-62992000D01*
X81265116Y-62992000D01*
X81169576Y-62511688D01*
X80897501Y-62104499D01*
X80490312Y-61832424D01*
X80131239Y-61761000D01*
X79888761Y-61761000D01*
X79529688Y-61832424D01*
X79122499Y-62104499D01*
X78850424Y-62511688D01*
X78754884Y-62992000D01*
X78725116Y-62992000D01*
X78629576Y-62511688D01*
X78357501Y-62104499D01*
X77950312Y-61832424D01*
X77591239Y-61761000D01*
X77348761Y-61761000D01*
X76989688Y-61832424D01*
X76582499Y-62104499D01*
X76310424Y-62511688D01*
X76214884Y-62992000D01*
X74116000Y-62992000D01*
X74116000Y-60781000D01*
X144324000Y-60781000D01*
X144324001Y-96064000D01*
X144324001Y-96064000D01*
G37*
X144324001Y-96064000D02*
X130302000Y-96064000D01*
X130302000Y-95121075D01*
X130329688Y-95139576D01*
X130688761Y-95211000D01*
X130931239Y-95211000D01*
X131290312Y-95139576D01*
X131697501Y-94867501D01*
X131969576Y-94460312D01*
X132065116Y-93980000D01*
X132094884Y-93980000D01*
X132190424Y-94460312D01*
X132462499Y-94867501D01*
X132869688Y-95139576D01*
X133228761Y-95211000D01*
X133471239Y-95211000D01*
X133830312Y-95139576D01*
X134237501Y-94867501D01*
X134509576Y-94460312D01*
X134605116Y-93980000D01*
X134634884Y-93980000D01*
X134730424Y-94460312D01*
X135002499Y-94867501D01*
X135409688Y-95139576D01*
X135768761Y-95211000D01*
X136011239Y-95211000D01*
X136370312Y-95139576D01*
X136777501Y-94867501D01*
X137047755Y-94463037D01*
X137234817Y-94861358D01*
X137663076Y-95251645D01*
X138073110Y-95421476D01*
X138303000Y-95300155D01*
X138303000Y-94107000D01*
X138283000Y-94107000D01*
X138283000Y-93853000D01*
X138303000Y-93853000D01*
X138303000Y-92659845D01*
X138557000Y-92659845D01*
X138557000Y-93853000D01*
X138577000Y-93853000D01*
X138577000Y-94107000D01*
X138557000Y-94107000D01*
X138557000Y-95300155D01*
X138786890Y-95421476D01*
X139196924Y-95251645D01*
X139625183Y-94861358D01*
X139812245Y-94463037D01*
X140082499Y-94867501D01*
X140489688Y-95139576D01*
X140848761Y-95211000D01*
X141091239Y-95211000D01*
X141450312Y-95139576D01*
X141857501Y-94867501D01*
X142129576Y-94460312D01*
X142225116Y-93980000D01*
X142129576Y-93499688D01*
X141857501Y-93092499D01*
X141450312Y-92820424D01*
X141091239Y-92749000D01*
X140848761Y-92749000D01*
X140489688Y-92820424D01*
X140082499Y-93092499D01*
X139812245Y-93496963D01*
X139625183Y-93098642D01*
X139196924Y-92708355D01*
X138786890Y-92538524D01*
X138557000Y-92659845D01*
X138303000Y-92659845D01*
X138073110Y-92538524D01*
X137663076Y-92708355D01*
X137234817Y-93098642D01*
X137047755Y-93496963D01*
X136777501Y-93092499D01*
X136370312Y-92820424D01*
X136011239Y-92749000D01*
X135768761Y-92749000D01*
X135409688Y-92820424D01*
X135002499Y-93092499D01*
X134730424Y-93499688D01*
X134634884Y-93980000D01*
X134605116Y-93980000D01*
X134509576Y-93499688D01*
X134237501Y-93092499D01*
X133830312Y-92820424D01*
X133471239Y-92749000D01*
X133228761Y-92749000D01*
X132869688Y-92820424D01*
X132462499Y-93092499D01*
X132190424Y-93499688D01*
X132094884Y-93980000D01*
X132065116Y-93980000D01*
X131969576Y-93499688D01*
X131697501Y-93092499D01*
X131290312Y-92820424D01*
X130931239Y-92749000D01*
X130688761Y-92749000D01*
X130329688Y-92820424D01*
X130302000Y-92838925D01*
X130302000Y-90805000D01*
X130292333Y-90756399D01*
X130248817Y-90701656D01*
X125803817Y-87526656D01*
X125758650Y-87506274D01*
X125730000Y-87503000D01*
X122607606Y-87503000D01*
X115024803Y-79920197D01*
X114983601Y-79892667D01*
X114935000Y-79883000D01*
X114886399Y-79892667D01*
X114845197Y-79920197D01*
X108495197Y-86270197D01*
X108467667Y-86311399D01*
X108458000Y-86360000D01*
X108458000Y-92838925D01*
X108430312Y-92820424D01*
X108071239Y-92749000D01*
X107828761Y-92749000D01*
X107469688Y-92820424D01*
X107062499Y-93092499D01*
X106790424Y-93499688D01*
X106694884Y-93980000D01*
X106790424Y-94460312D01*
X107062499Y-94867501D01*
X107469688Y-95139576D01*
X107828761Y-95211000D01*
X108071239Y-95211000D01*
X108430312Y-95139576D01*
X108458000Y-95121075D01*
X108458000Y-96064000D01*
X74116000Y-96064000D01*
X74116000Y-93130000D01*
X76231536Y-93130000D01*
X76231536Y-94830000D01*
X76261106Y-94978659D01*
X76345314Y-95104686D01*
X76471341Y-95188894D01*
X76620000Y-95218464D01*
X78320000Y-95218464D01*
X78468659Y-95188894D01*
X78594686Y-95104686D01*
X78678894Y-94978659D01*
X78708464Y-94830000D01*
X78708464Y-93980000D01*
X78754884Y-93980000D01*
X78850424Y-94460312D01*
X79122499Y-94867501D01*
X79529688Y-95139576D01*
X79888761Y-95211000D01*
X80131239Y-95211000D01*
X80490312Y-95139576D01*
X80897501Y-94867501D01*
X81169576Y-94460312D01*
X81265116Y-93980000D01*
X81294884Y-93980000D01*
X81390424Y-94460312D01*
X81662499Y-94867501D01*
X82069688Y-95139576D01*
X82428761Y-95211000D01*
X82671239Y-95211000D01*
X83030312Y-95139576D01*
X83437501Y-94867501D01*
X83709576Y-94460312D01*
X83805116Y-93980000D01*
X83834884Y-93980000D01*
X83930424Y-94460312D01*
X84202499Y-94867501D01*
X84609688Y-95139576D01*
X84968761Y-95211000D01*
X85211239Y-95211000D01*
X85570312Y-95139576D01*
X85977501Y-94867501D01*
X86249576Y-94460312D01*
X86345116Y-93980000D01*
X86374884Y-93980000D01*
X86470424Y-94460312D01*
X86742499Y-94867501D01*
X87149688Y-95139576D01*
X87508761Y-95211000D01*
X87751239Y-95211000D01*
X88110312Y-95139576D01*
X88517501Y-94867501D01*
X88789576Y-94460312D01*
X88885116Y-93980000D01*
X88914884Y-93980000D01*
X89010424Y-94460312D01*
X89282499Y-94867501D01*
X89689688Y-95139576D01*
X90048761Y-95211000D01*
X90291239Y-95211000D01*
X90650312Y-95139576D01*
X91057501Y-94867501D01*
X91329576Y-94460312D01*
X91425116Y-93980000D01*
X91454884Y-93980000D01*
X91550424Y-94460312D01*
X91822499Y-94867501D01*
X92229688Y-95139576D01*
X92588761Y-95211000D01*
X92831239Y-95211000D01*
X93190312Y-95139576D01*
X93597501Y-94867501D01*
X93869576Y-94460312D01*
X93965116Y-93980000D01*
X93994884Y-93980000D01*
X94090424Y-94460312D01*
X94362499Y-94867501D01*
X94769688Y-95139576D01*
X95128761Y-95211000D01*
X95371239Y-95211000D01*
X95730312Y-95139576D01*
X96137501Y-94867501D01*
X96409576Y-94460312D01*
X96505116Y-93980000D01*
X96534884Y-93980000D01*
X96630424Y-94460312D01*
X96902499Y-94867501D01*
X97309688Y-95139576D01*
X97668761Y-95211000D01*
X97911239Y-95211000D01*
X98270312Y-95139576D01*
X98677501Y-94867501D01*
X98949576Y-94460312D01*
X99045116Y-93980000D01*
X99074884Y-93980000D01*
X99170424Y-94460312D01*
X99442499Y-94867501D01*
X99849688Y-95139576D01*
X100208761Y-95211000D01*
X100451239Y-95211000D01*
X100810312Y-95139576D01*
X101217501Y-94867501D01*
X101489576Y-94460312D01*
X101585116Y-93980000D01*
X101614884Y-93980000D01*
X101710424Y-94460312D01*
X101982499Y-94867501D01*
X102389688Y-95139576D01*
X102748761Y-95211000D01*
X102991239Y-95211000D01*
X103350312Y-95139576D01*
X103757501Y-94867501D01*
X104029576Y-94460312D01*
X104125116Y-93980000D01*
X104154884Y-93980000D01*
X104250424Y-94460312D01*
X104522499Y-94867501D01*
X104929688Y-95139576D01*
X105288761Y-95211000D01*
X105531239Y-95211000D01*
X105890312Y-95139576D01*
X106297501Y-94867501D01*
X106569576Y-94460312D01*
X106665116Y-93980000D01*
X106569576Y-93499688D01*
X106297501Y-93092499D01*
X105890312Y-92820424D01*
X105531239Y-92749000D01*
X105288761Y-92749000D01*
X104929688Y-92820424D01*
X104522499Y-93092499D01*
X104250424Y-93499688D01*
X104154884Y-93980000D01*
X104125116Y-93980000D01*
X104029576Y-93499688D01*
X103757501Y-93092499D01*
X103350312Y-92820424D01*
X102991239Y-92749000D01*
X102748761Y-92749000D01*
X102389688Y-92820424D01*
X101982499Y-93092499D01*
X101710424Y-93499688D01*
X101614884Y-93980000D01*
X101585116Y-93980000D01*
X101489576Y-93499688D01*
X101217501Y-93092499D01*
X100810312Y-92820424D01*
X100451239Y-92749000D01*
X100208761Y-92749000D01*
X99849688Y-92820424D01*
X99442499Y-93092499D01*
X99170424Y-93499688D01*
X99074884Y-93980000D01*
X99045116Y-93980000D01*
X98949576Y-93499688D01*
X98677501Y-93092499D01*
X98270312Y-92820424D01*
X97911239Y-92749000D01*
X97668761Y-92749000D01*
X97309688Y-92820424D01*
X96902499Y-93092499D01*
X96630424Y-93499688D01*
X96534884Y-93980000D01*
X96505116Y-93980000D01*
X96409576Y-93499688D01*
X96137501Y-93092499D01*
X95730312Y-92820424D01*
X95371239Y-92749000D01*
X95128761Y-92749000D01*
X94769688Y-92820424D01*
X94362499Y-93092499D01*
X94090424Y-93499688D01*
X93994884Y-93980000D01*
X93965116Y-93980000D01*
X93869576Y-93499688D01*
X93597501Y-93092499D01*
X93190312Y-92820424D01*
X92831239Y-92749000D01*
X92588761Y-92749000D01*
X92229688Y-92820424D01*
X91822499Y-93092499D01*
X91550424Y-93499688D01*
X91454884Y-93980000D01*
X91425116Y-93980000D01*
X91329576Y-93499688D01*
X91057501Y-93092499D01*
X90650312Y-92820424D01*
X90291239Y-92749000D01*
X90048761Y-92749000D01*
X89689688Y-92820424D01*
X89282499Y-93092499D01*
X89010424Y-93499688D01*
X88914884Y-93980000D01*
X88885116Y-93980000D01*
X88789576Y-93499688D01*
X88517501Y-93092499D01*
X88110312Y-92820424D01*
X87751239Y-92749000D01*
X87508761Y-92749000D01*
X87149688Y-92820424D01*
X86742499Y-93092499D01*
X86470424Y-93499688D01*
X86374884Y-93980000D01*
X86345116Y-93980000D01*
X86249576Y-93499688D01*
X85977501Y-93092499D01*
X85570312Y-92820424D01*
X85211239Y-92749000D01*
X84968761Y-92749000D01*
X84609688Y-92820424D01*
X84202499Y-93092499D01*
X83930424Y-93499688D01*
X83834884Y-93980000D01*
X83805116Y-93980000D01*
X83709576Y-93499688D01*
X83437501Y-93092499D01*
X83030312Y-92820424D01*
X82671239Y-92749000D01*
X82428761Y-92749000D01*
X82069688Y-92820424D01*
X81662499Y-93092499D01*
X81390424Y-93499688D01*
X81294884Y-93980000D01*
X81265116Y-93980000D01*
X81169576Y-93499688D01*
X80897501Y-93092499D01*
X80490312Y-92820424D01*
X80131239Y-92749000D01*
X79888761Y-92749000D01*
X79529688Y-92820424D01*
X79122499Y-93092499D01*
X78850424Y-93499688D01*
X78754884Y-93980000D01*
X78708464Y-93980000D01*
X78708464Y-93130000D01*
X78678894Y-92981341D01*
X78594686Y-92855314D01*
X78468659Y-92771106D01*
X78320000Y-92741536D01*
X76620000Y-92741536D01*
X76471341Y-92771106D01*
X76345314Y-92855314D01*
X76261106Y-92981341D01*
X76231536Y-93130000D01*
X74116000Y-93130000D01*
X74116000Y-62992000D01*
X76214884Y-62992000D01*
X76310424Y-63472312D01*
X76582499Y-63879501D01*
X76989688Y-64151576D01*
X77348761Y-64223000D01*
X77591239Y-64223000D01*
X77950312Y-64151576D01*
X78357501Y-63879501D01*
X78629576Y-63472312D01*
X78725116Y-62992000D01*
X78754884Y-62992000D01*
X78850424Y-63472312D01*
X79122499Y-63879501D01*
X79529688Y-64151576D01*
X79888761Y-64223000D01*
X80131239Y-64223000D01*
X80490312Y-64151576D01*
X80897501Y-63879501D01*
X81169576Y-63472312D01*
X81265116Y-62992000D01*
X81294884Y-62992000D01*
X81390424Y-63472312D01*
X81662499Y-63879501D01*
X82069688Y-64151576D01*
X82428761Y-64223000D01*
X82671239Y-64223000D01*
X83030312Y-64151576D01*
X83437501Y-63879501D01*
X83709576Y-63472312D01*
X83805116Y-62992000D01*
X83834884Y-62992000D01*
X83930424Y-63472312D01*
X84202499Y-63879501D01*
X84609688Y-64151576D01*
X84968761Y-64223000D01*
X85211239Y-64223000D01*
X85570312Y-64151576D01*
X85977501Y-63879501D01*
X86249576Y-63472312D01*
X86345116Y-62992000D01*
X86374884Y-62992000D01*
X86470424Y-63472312D01*
X86742499Y-63879501D01*
X87149688Y-64151576D01*
X87508761Y-64223000D01*
X87751239Y-64223000D01*
X88110312Y-64151576D01*
X88517501Y-63879501D01*
X88789576Y-63472312D01*
X88885116Y-62992000D01*
X88914884Y-62992000D01*
X89010424Y-63472312D01*
X89282499Y-63879501D01*
X89689688Y-64151576D01*
X90048761Y-64223000D01*
X90291239Y-64223000D01*
X90650312Y-64151576D01*
X91057501Y-63879501D01*
X91329576Y-63472312D01*
X91425116Y-62992000D01*
X91454884Y-62992000D01*
X91550424Y-63472312D01*
X91822499Y-63879501D01*
X92229688Y-64151576D01*
X92588761Y-64223000D01*
X92831239Y-64223000D01*
X93190312Y-64151576D01*
X93597501Y-63879501D01*
X93869576Y-63472312D01*
X93965116Y-62992000D01*
X93994884Y-62992000D01*
X94090424Y-63472312D01*
X94362499Y-63879501D01*
X94769688Y-64151576D01*
X95128761Y-64223000D01*
X95371239Y-64223000D01*
X95730312Y-64151576D01*
X96137501Y-63879501D01*
X96409576Y-63472312D01*
X96505116Y-62992000D01*
X96534884Y-62992000D01*
X96630424Y-63472312D01*
X96902499Y-63879501D01*
X97309688Y-64151576D01*
X97668761Y-64223000D01*
X97911239Y-64223000D01*
X98270312Y-64151576D01*
X98677501Y-63879501D01*
X98949576Y-63472312D01*
X99045116Y-62992000D01*
X99074884Y-62992000D01*
X99170424Y-63472312D01*
X99442499Y-63879501D01*
X99849688Y-64151576D01*
X100208761Y-64223000D01*
X100451239Y-64223000D01*
X100810312Y-64151576D01*
X101217501Y-63879501D01*
X101489576Y-63472312D01*
X101585116Y-62992000D01*
X101614884Y-62992000D01*
X101710424Y-63472312D01*
X101982499Y-63879501D01*
X102389688Y-64151576D01*
X102748761Y-64223000D01*
X102991239Y-64223000D01*
X103350312Y-64151576D01*
X103757501Y-63879501D01*
X104029576Y-63472312D01*
X104125116Y-62992000D01*
X104154884Y-62992000D01*
X104250424Y-63472312D01*
X104522499Y-63879501D01*
X104929688Y-64151576D01*
X105288761Y-64223000D01*
X105531239Y-64223000D01*
X105890312Y-64151576D01*
X106297501Y-63879501D01*
X106569576Y-63472312D01*
X106665116Y-62992000D01*
X106694884Y-62992000D01*
X106790424Y-63472312D01*
X107062499Y-63879501D01*
X107469688Y-64151576D01*
X107828761Y-64223000D01*
X108071239Y-64223000D01*
X108430312Y-64151576D01*
X108837501Y-63879501D01*
X109109576Y-63472312D01*
X109205116Y-62992000D01*
X109234884Y-62992000D01*
X109330424Y-63472312D01*
X109602499Y-63879501D01*
X110009688Y-64151576D01*
X110368761Y-64223000D01*
X110611239Y-64223000D01*
X110970312Y-64151576D01*
X111377501Y-63879501D01*
X111649576Y-63472312D01*
X111745116Y-62992000D01*
X111774884Y-62992000D01*
X111870424Y-63472312D01*
X112142499Y-63879501D01*
X112549688Y-64151576D01*
X112908761Y-64223000D01*
X113151239Y-64223000D01*
X113510312Y-64151576D01*
X113917501Y-63879501D01*
X114189576Y-63472312D01*
X114285116Y-62992000D01*
X114314884Y-62992000D01*
X114410424Y-63472312D01*
X114682499Y-63879501D01*
X115089688Y-64151576D01*
X115448761Y-64223000D01*
X115691239Y-64223000D01*
X116050312Y-64151576D01*
X116457501Y-63879501D01*
X116727755Y-63475037D01*
X116914817Y-63873358D01*
X117343076Y-64263645D01*
X117753110Y-64433476D01*
X117983000Y-64312155D01*
X117983000Y-63119000D01*
X117963000Y-63119000D01*
X117963000Y-62865000D01*
X117983000Y-62865000D01*
X117983000Y-61671845D01*
X118237000Y-61671845D01*
X118237000Y-62865000D01*
X118257000Y-62865000D01*
X118257000Y-63119000D01*
X118237000Y-63119000D01*
X118237000Y-64312155D01*
X118466890Y-64433476D01*
X118876924Y-64263645D01*
X119305183Y-63873358D01*
X119492245Y-63475037D01*
X119762499Y-63879501D01*
X120169688Y-64151576D01*
X120528761Y-64223000D01*
X120771239Y-64223000D01*
X121130312Y-64151576D01*
X121537501Y-63879501D01*
X121809576Y-63472312D01*
X121905116Y-62992000D01*
X121934884Y-62992000D01*
X122030424Y-63472312D01*
X122302499Y-63879501D01*
X122709688Y-64151576D01*
X123068761Y-64223000D01*
X123311239Y-64223000D01*
X123670312Y-64151576D01*
X124077501Y-63879501D01*
X124349576Y-63472312D01*
X124445116Y-62992000D01*
X124474884Y-62992000D01*
X124570424Y-63472312D01*
X124842499Y-63879501D01*
X125249688Y-64151576D01*
X125608761Y-64223000D01*
X125851239Y-64223000D01*
X126210312Y-64151576D01*
X126617501Y-63879501D01*
X126889576Y-63472312D01*
X126985116Y-62992000D01*
X127014884Y-62992000D01*
X127110424Y-63472312D01*
X127382499Y-63879501D01*
X127789688Y-64151576D01*
X128148761Y-64223000D01*
X128391239Y-64223000D01*
X128750312Y-64151576D01*
X129157501Y-63879501D01*
X129429576Y-63472312D01*
X129525116Y-62992000D01*
X129554884Y-62992000D01*
X129650424Y-63472312D01*
X129922499Y-63879501D01*
X130329688Y-64151576D01*
X130688761Y-64223000D01*
X130931239Y-64223000D01*
X131290312Y-64151576D01*
X131697501Y-63879501D01*
X131969576Y-63472312D01*
X132065116Y-62992000D01*
X132094884Y-62992000D01*
X132190424Y-63472312D01*
X132462499Y-63879501D01*
X132869688Y-64151576D01*
X133228761Y-64223000D01*
X133471239Y-64223000D01*
X133830312Y-64151576D01*
X134237501Y-63879501D01*
X134509576Y-63472312D01*
X134605116Y-62992000D01*
X134634884Y-62992000D01*
X134730424Y-63472312D01*
X135002499Y-63879501D01*
X135409688Y-64151576D01*
X135768761Y-64223000D01*
X136011239Y-64223000D01*
X136370312Y-64151576D01*
X136777501Y-63879501D01*
X137049576Y-63472312D01*
X137145116Y-62992000D01*
X137174884Y-62992000D01*
X137270424Y-63472312D01*
X137542499Y-63879501D01*
X137949688Y-64151576D01*
X138308761Y-64223000D01*
X138551239Y-64223000D01*
X138910312Y-64151576D01*
X139317501Y-63879501D01*
X139589576Y-63472312D01*
X139685116Y-62992000D01*
X139589576Y-62511688D01*
X139342559Y-62142000D01*
X139731536Y-62142000D01*
X139731536Y-63842000D01*
X139761106Y-63990659D01*
X139845314Y-64116686D01*
X139971341Y-64200894D01*
X140120000Y-64230464D01*
X141820000Y-64230464D01*
X141968659Y-64200894D01*
X142094686Y-64116686D01*
X142178894Y-63990659D01*
X142208464Y-63842000D01*
X142208464Y-62142000D01*
X142178894Y-61993341D01*
X142094686Y-61867314D01*
X141968659Y-61783106D01*
X141820000Y-61753536D01*
X140120000Y-61753536D01*
X139971341Y-61783106D01*
X139845314Y-61867314D01*
X139761106Y-61993341D01*
X139731536Y-62142000D01*
X139342559Y-62142000D01*
X139317501Y-62104499D01*
X138910312Y-61832424D01*
X138551239Y-61761000D01*
X138308761Y-61761000D01*
X137949688Y-61832424D01*
X137542499Y-62104499D01*
X137270424Y-62511688D01*
X137174884Y-62992000D01*
X137145116Y-62992000D01*
X137049576Y-62511688D01*
X136777501Y-62104499D01*
X136370312Y-61832424D01*
X136011239Y-61761000D01*
X135768761Y-61761000D01*
X135409688Y-61832424D01*
X135002499Y-62104499D01*
X134730424Y-62511688D01*
X134634884Y-62992000D01*
X134605116Y-62992000D01*
X134509576Y-62511688D01*
X134237501Y-62104499D01*
X133830312Y-61832424D01*
X133471239Y-61761000D01*
X133228761Y-61761000D01*
X132869688Y-61832424D01*
X132462499Y-62104499D01*
X132190424Y-62511688D01*
X132094884Y-62992000D01*
X132065116Y-62992000D01*
X131969576Y-62511688D01*
X131697501Y-62104499D01*
X131290312Y-61832424D01*
X130931239Y-61761000D01*
X130688761Y-61761000D01*
X130329688Y-61832424D01*
X129922499Y-62104499D01*
X129650424Y-62511688D01*
X129554884Y-62992000D01*
X129525116Y-62992000D01*
X129429576Y-62511688D01*
X129157501Y-62104499D01*
X128750312Y-61832424D01*
X128391239Y-61761000D01*
X128148761Y-61761000D01*
X127789688Y-61832424D01*
X127382499Y-62104499D01*
X127110424Y-62511688D01*
X127014884Y-62992000D01*
X126985116Y-62992000D01*
X126889576Y-62511688D01*
X126617501Y-62104499D01*
X126210312Y-61832424D01*
X125851239Y-61761000D01*
X125608761Y-61761000D01*
X125249688Y-61832424D01*
X124842499Y-62104499D01*
X124570424Y-62511688D01*
X124474884Y-62992000D01*
X124445116Y-62992000D01*
X124349576Y-62511688D01*
X124077501Y-62104499D01*
X123670312Y-61832424D01*
X123311239Y-61761000D01*
X123068761Y-61761000D01*
X122709688Y-61832424D01*
X122302499Y-62104499D01*
X122030424Y-62511688D01*
X121934884Y-62992000D01*
X121905116Y-62992000D01*
X121809576Y-62511688D01*
X121537501Y-62104499D01*
X121130312Y-61832424D01*
X120771239Y-61761000D01*
X120528761Y-61761000D01*
X120169688Y-61832424D01*
X119762499Y-62104499D01*
X119492245Y-62508963D01*
X119305183Y-62110642D01*
X118876924Y-61720355D01*
X118466890Y-61550524D01*
X118237000Y-61671845D01*
X117983000Y-61671845D01*
X117753110Y-61550524D01*
X117343076Y-61720355D01*
X116914817Y-62110642D01*
X116727755Y-62508963D01*
X116457501Y-62104499D01*
X116050312Y-61832424D01*
X115691239Y-61761000D01*
X115448761Y-61761000D01*
X115089688Y-61832424D01*
X114682499Y-62104499D01*
X114410424Y-62511688D01*
X114314884Y-62992000D01*
X114285116Y-62992000D01*
X114189576Y-62511688D01*
X113917501Y-62104499D01*
X113510312Y-61832424D01*
X113151239Y-61761000D01*
X112908761Y-61761000D01*
X112549688Y-61832424D01*
X112142499Y-62104499D01*
X111870424Y-62511688D01*
X111774884Y-62992000D01*
X111745116Y-62992000D01*
X111649576Y-62511688D01*
X111377501Y-62104499D01*
X110970312Y-61832424D01*
X110611239Y-61761000D01*
X110368761Y-61761000D01*
X110009688Y-61832424D01*
X109602499Y-62104499D01*
X109330424Y-62511688D01*
X109234884Y-62992000D01*
X109205116Y-62992000D01*
X109109576Y-62511688D01*
X108837501Y-62104499D01*
X108430312Y-61832424D01*
X108071239Y-61761000D01*
X107828761Y-61761000D01*
X107469688Y-61832424D01*
X107062499Y-62104499D01*
X106790424Y-62511688D01*
X106694884Y-62992000D01*
X106665116Y-62992000D01*
X106569576Y-62511688D01*
X106297501Y-62104499D01*
X105890312Y-61832424D01*
X105531239Y-61761000D01*
X105288761Y-61761000D01*
X104929688Y-61832424D01*
X104522499Y-62104499D01*
X104250424Y-62511688D01*
X104154884Y-62992000D01*
X104125116Y-62992000D01*
X104029576Y-62511688D01*
X103757501Y-62104499D01*
X103350312Y-61832424D01*
X102991239Y-61761000D01*
X102748761Y-61761000D01*
X102389688Y-61832424D01*
X101982499Y-62104499D01*
X101710424Y-62511688D01*
X101614884Y-62992000D01*
X101585116Y-62992000D01*
X101489576Y-62511688D01*
X101217501Y-62104499D01*
X100810312Y-61832424D01*
X100451239Y-61761000D01*
X100208761Y-61761000D01*
X99849688Y-61832424D01*
X99442499Y-62104499D01*
X99170424Y-62511688D01*
X99074884Y-62992000D01*
X99045116Y-62992000D01*
X98949576Y-62511688D01*
X98677501Y-62104499D01*
X98270312Y-61832424D01*
X97911239Y-61761000D01*
X97668761Y-61761000D01*
X97309688Y-61832424D01*
X96902499Y-62104499D01*
X96630424Y-62511688D01*
X96534884Y-62992000D01*
X96505116Y-62992000D01*
X96409576Y-62511688D01*
X96137501Y-62104499D01*
X95730312Y-61832424D01*
X95371239Y-61761000D01*
X95128761Y-61761000D01*
X94769688Y-61832424D01*
X94362499Y-62104499D01*
X94090424Y-62511688D01*
X93994884Y-62992000D01*
X93965116Y-62992000D01*
X93869576Y-62511688D01*
X93597501Y-62104499D01*
X93190312Y-61832424D01*
X92831239Y-61761000D01*
X92588761Y-61761000D01*
X92229688Y-61832424D01*
X91822499Y-62104499D01*
X91550424Y-62511688D01*
X91454884Y-62992000D01*
X91425116Y-62992000D01*
X91329576Y-62511688D01*
X91057501Y-62104499D01*
X90650312Y-61832424D01*
X90291239Y-61761000D01*
X90048761Y-61761000D01*
X89689688Y-61832424D01*
X89282499Y-62104499D01*
X89010424Y-62511688D01*
X88914884Y-62992000D01*
X88885116Y-62992000D01*
X88789576Y-62511688D01*
X88517501Y-62104499D01*
X88110312Y-61832424D01*
X87751239Y-61761000D01*
X87508761Y-61761000D01*
X87149688Y-61832424D01*
X86742499Y-62104499D01*
X86470424Y-62511688D01*
X86374884Y-62992000D01*
X86345116Y-62992000D01*
X86249576Y-62511688D01*
X85977501Y-62104499D01*
X85570312Y-61832424D01*
X85211239Y-61761000D01*
X84968761Y-61761000D01*
X84609688Y-61832424D01*
X84202499Y-62104499D01*
X83930424Y-62511688D01*
X83834884Y-62992000D01*
X83805116Y-62992000D01*
X83709576Y-62511688D01*
X83437501Y-62104499D01*
X83030312Y-61832424D01*
X82671239Y-61761000D01*
X82428761Y-61761000D01*
X82069688Y-61832424D01*
X81662499Y-62104499D01*
X81390424Y-62511688D01*
X81294884Y-62992000D01*
X81265116Y-62992000D01*
X81169576Y-62511688D01*
X80897501Y-62104499D01*
X80490312Y-61832424D01*
X80131239Y-61761000D01*
X79888761Y-61761000D01*
X79529688Y-61832424D01*
X79122499Y-62104499D01*
X78850424Y-62511688D01*
X78754884Y-62992000D01*
X78725116Y-62992000D01*
X78629576Y-62511688D01*
X78357501Y-62104499D01*
X77950312Y-61832424D01*
X77591239Y-61761000D01*
X77348761Y-61761000D01*
X76989688Y-61832424D01*
X76582499Y-62104499D01*
X76310424Y-62511688D01*
X76214884Y-62992000D01*
X74116000Y-62992000D01*
X74116000Y-60781000D01*
X144324000Y-60781000D01*
X144324001Y-96064000D01*
G04 #@! TD*
M02*
