M48
;DRILL file {KiCad (5.0.1)-4} date 12/9/2018 5:15:55 PM
;FORMAT={-:-/ absolute / metric / decimal}
FMAT,2
METRIC,TZ
T1C1.000
%
G90
G05
M71
T1
X77.47Y-93.98
X80.01Y-93.98
X82.55Y-93.98
X85.09Y-93.98
X87.63Y-93.98
X90.17Y-93.98
X92.71Y-93.98
X95.25Y-93.98
X97.79Y-93.98
X100.33Y-93.98
X102.87Y-93.98
X105.41Y-93.98
X107.95Y-93.98
X110.49Y-93.98
X113.03Y-93.98
X115.57Y-93.98
X118.11Y-93.98
X120.65Y-93.98
X123.19Y-93.98
X125.73Y-93.98
X128.27Y-93.98
X130.81Y-93.98
X133.35Y-93.98
X135.89Y-93.98
X138.43Y-93.98
X140.97Y-93.98
X77.47Y-62.992
X80.01Y-62.992
X82.55Y-62.992
X85.09Y-62.992
X87.63Y-62.992
X90.17Y-62.992
X92.71Y-62.992
X95.25Y-62.992
X97.79Y-62.992
X100.33Y-62.992
X102.87Y-62.992
X105.41Y-62.992
X107.95Y-62.992
X110.49Y-62.992
X113.03Y-62.992
X115.57Y-62.992
X118.11Y-62.992
X120.65Y-62.992
X123.19Y-62.992
X125.73Y-62.992
X128.27Y-62.992
X130.81Y-62.992
X133.35Y-62.992
X135.89Y-62.992
X138.43Y-62.992
X140.97Y-62.992
T0
M30
