G04 #@! TF.GenerationSoftware,KiCad,Pcbnew,(5.0.1)-4*
G04 #@! TF.CreationDate,2018-12-09T17:15:49-08:00*
G04 #@! TF.ProjectId,ht1632c-to-dip,687431363332632D746F2D6469702E6B,rev?*
G04 #@! TF.SameCoordinates,Original*
G04 #@! TF.FileFunction,Soldermask,Bot*
G04 #@! TF.FilePolarity,Negative*
%FSLAX46Y46*%
G04 Gerber Fmt 4.6, Leading zero omitted, Abs format (unit mm)*
G04 Created by KiCad (PCBNEW (5.0.1)-4) date 12/9/2018 5:15:49 PM*
%MOMM*%
%LPD*%
G01*
G04 APERTURE LIST*
%ADD10C,0.100000*%
G04 APERTURE END LIST*
D10*
G36*
X78371000Y-94881000D02*
X76569000Y-94881000D01*
X76569000Y-93079000D01*
X78371000Y-93079000D01*
X78371000Y-94881000D01*
X78371000Y-94881000D01*
G37*
G36*
X110600443Y-93085519D02*
X110666627Y-93092037D01*
X110779853Y-93126384D01*
X110836467Y-93143557D01*
X110975087Y-93217652D01*
X110992991Y-93227222D01*
X111028729Y-93256552D01*
X111130186Y-93339814D01*
X111213448Y-93441271D01*
X111242778Y-93477009D01*
X111242779Y-93477011D01*
X111326443Y-93633533D01*
X111326443Y-93633534D01*
X111377963Y-93803373D01*
X111395359Y-93980000D01*
X111377963Y-94156627D01*
X111343616Y-94269853D01*
X111326443Y-94326467D01*
X111252348Y-94465087D01*
X111242778Y-94482991D01*
X111213448Y-94518729D01*
X111130186Y-94620186D01*
X111028729Y-94703448D01*
X110992991Y-94732778D01*
X110992989Y-94732779D01*
X110836467Y-94816443D01*
X110779853Y-94833616D01*
X110666627Y-94867963D01*
X110600443Y-94874481D01*
X110534260Y-94881000D01*
X110445740Y-94881000D01*
X110379557Y-94874481D01*
X110313373Y-94867963D01*
X110200147Y-94833616D01*
X110143533Y-94816443D01*
X109987011Y-94732779D01*
X109987009Y-94732778D01*
X109951271Y-94703448D01*
X109849814Y-94620186D01*
X109766552Y-94518729D01*
X109737222Y-94482991D01*
X109727652Y-94465087D01*
X109653557Y-94326467D01*
X109636384Y-94269853D01*
X109602037Y-94156627D01*
X109584641Y-93980000D01*
X109602037Y-93803373D01*
X109653557Y-93633534D01*
X109653557Y-93633533D01*
X109737221Y-93477011D01*
X109737222Y-93477009D01*
X109766552Y-93441271D01*
X109849814Y-93339814D01*
X109951271Y-93256552D01*
X109987009Y-93227222D01*
X110004913Y-93217652D01*
X110143533Y-93143557D01*
X110200147Y-93126384D01*
X110313373Y-93092037D01*
X110379557Y-93085519D01*
X110445740Y-93079000D01*
X110534260Y-93079000D01*
X110600443Y-93085519D01*
X110600443Y-93085519D01*
G37*
G36*
X141080443Y-93085519D02*
X141146627Y-93092037D01*
X141259853Y-93126384D01*
X141316467Y-93143557D01*
X141455087Y-93217652D01*
X141472991Y-93227222D01*
X141508729Y-93256552D01*
X141610186Y-93339814D01*
X141693448Y-93441271D01*
X141722778Y-93477009D01*
X141722779Y-93477011D01*
X141806443Y-93633533D01*
X141806443Y-93633534D01*
X141857963Y-93803373D01*
X141875359Y-93980000D01*
X141857963Y-94156627D01*
X141823616Y-94269853D01*
X141806443Y-94326467D01*
X141732348Y-94465087D01*
X141722778Y-94482991D01*
X141693448Y-94518729D01*
X141610186Y-94620186D01*
X141508729Y-94703448D01*
X141472991Y-94732778D01*
X141472989Y-94732779D01*
X141316467Y-94816443D01*
X141259853Y-94833616D01*
X141146627Y-94867963D01*
X141080443Y-94874481D01*
X141014260Y-94881000D01*
X140925740Y-94881000D01*
X140859557Y-94874481D01*
X140793373Y-94867963D01*
X140680147Y-94833616D01*
X140623533Y-94816443D01*
X140467011Y-94732779D01*
X140467009Y-94732778D01*
X140431271Y-94703448D01*
X140329814Y-94620186D01*
X140246552Y-94518729D01*
X140217222Y-94482991D01*
X140207652Y-94465087D01*
X140133557Y-94326467D01*
X140116384Y-94269853D01*
X140082037Y-94156627D01*
X140064641Y-93980000D01*
X140082037Y-93803373D01*
X140133557Y-93633534D01*
X140133557Y-93633533D01*
X140217221Y-93477011D01*
X140217222Y-93477009D01*
X140246552Y-93441271D01*
X140329814Y-93339814D01*
X140431271Y-93256552D01*
X140467009Y-93227222D01*
X140484913Y-93217652D01*
X140623533Y-93143557D01*
X140680147Y-93126384D01*
X140793373Y-93092037D01*
X140859557Y-93085519D01*
X140925740Y-93079000D01*
X141014260Y-93079000D01*
X141080443Y-93085519D01*
X141080443Y-93085519D01*
G37*
G36*
X136000443Y-93085519D02*
X136066627Y-93092037D01*
X136179853Y-93126384D01*
X136236467Y-93143557D01*
X136375087Y-93217652D01*
X136392991Y-93227222D01*
X136428729Y-93256552D01*
X136530186Y-93339814D01*
X136613448Y-93441271D01*
X136642778Y-93477009D01*
X136642779Y-93477011D01*
X136726443Y-93633533D01*
X136726443Y-93633534D01*
X136777963Y-93803373D01*
X136795359Y-93980000D01*
X136777963Y-94156627D01*
X136743616Y-94269853D01*
X136726443Y-94326467D01*
X136652348Y-94465087D01*
X136642778Y-94482991D01*
X136613448Y-94518729D01*
X136530186Y-94620186D01*
X136428729Y-94703448D01*
X136392991Y-94732778D01*
X136392989Y-94732779D01*
X136236467Y-94816443D01*
X136179853Y-94833616D01*
X136066627Y-94867963D01*
X136000443Y-94874481D01*
X135934260Y-94881000D01*
X135845740Y-94881000D01*
X135779557Y-94874481D01*
X135713373Y-94867963D01*
X135600147Y-94833616D01*
X135543533Y-94816443D01*
X135387011Y-94732779D01*
X135387009Y-94732778D01*
X135351271Y-94703448D01*
X135249814Y-94620186D01*
X135166552Y-94518729D01*
X135137222Y-94482991D01*
X135127652Y-94465087D01*
X135053557Y-94326467D01*
X135036384Y-94269853D01*
X135002037Y-94156627D01*
X134984641Y-93980000D01*
X135002037Y-93803373D01*
X135053557Y-93633534D01*
X135053557Y-93633533D01*
X135137221Y-93477011D01*
X135137222Y-93477009D01*
X135166552Y-93441271D01*
X135249814Y-93339814D01*
X135351271Y-93256552D01*
X135387009Y-93227222D01*
X135404913Y-93217652D01*
X135543533Y-93143557D01*
X135600147Y-93126384D01*
X135713373Y-93092037D01*
X135779557Y-93085519D01*
X135845740Y-93079000D01*
X135934260Y-93079000D01*
X136000443Y-93085519D01*
X136000443Y-93085519D01*
G37*
G36*
X133460443Y-93085519D02*
X133526627Y-93092037D01*
X133639853Y-93126384D01*
X133696467Y-93143557D01*
X133835087Y-93217652D01*
X133852991Y-93227222D01*
X133888729Y-93256552D01*
X133990186Y-93339814D01*
X134073448Y-93441271D01*
X134102778Y-93477009D01*
X134102779Y-93477011D01*
X134186443Y-93633533D01*
X134186443Y-93633534D01*
X134237963Y-93803373D01*
X134255359Y-93980000D01*
X134237963Y-94156627D01*
X134203616Y-94269853D01*
X134186443Y-94326467D01*
X134112348Y-94465087D01*
X134102778Y-94482991D01*
X134073448Y-94518729D01*
X133990186Y-94620186D01*
X133888729Y-94703448D01*
X133852991Y-94732778D01*
X133852989Y-94732779D01*
X133696467Y-94816443D01*
X133639853Y-94833616D01*
X133526627Y-94867963D01*
X133460443Y-94874481D01*
X133394260Y-94881000D01*
X133305740Y-94881000D01*
X133239557Y-94874481D01*
X133173373Y-94867963D01*
X133060147Y-94833616D01*
X133003533Y-94816443D01*
X132847011Y-94732779D01*
X132847009Y-94732778D01*
X132811271Y-94703448D01*
X132709814Y-94620186D01*
X132626552Y-94518729D01*
X132597222Y-94482991D01*
X132587652Y-94465087D01*
X132513557Y-94326467D01*
X132496384Y-94269853D01*
X132462037Y-94156627D01*
X132444641Y-93980000D01*
X132462037Y-93803373D01*
X132513557Y-93633534D01*
X132513557Y-93633533D01*
X132597221Y-93477011D01*
X132597222Y-93477009D01*
X132626552Y-93441271D01*
X132709814Y-93339814D01*
X132811271Y-93256552D01*
X132847009Y-93227222D01*
X132864913Y-93217652D01*
X133003533Y-93143557D01*
X133060147Y-93126384D01*
X133173373Y-93092037D01*
X133239557Y-93085519D01*
X133305740Y-93079000D01*
X133394260Y-93079000D01*
X133460443Y-93085519D01*
X133460443Y-93085519D01*
G37*
G36*
X130920443Y-93085519D02*
X130986627Y-93092037D01*
X131099853Y-93126384D01*
X131156467Y-93143557D01*
X131295087Y-93217652D01*
X131312991Y-93227222D01*
X131348729Y-93256552D01*
X131450186Y-93339814D01*
X131533448Y-93441271D01*
X131562778Y-93477009D01*
X131562779Y-93477011D01*
X131646443Y-93633533D01*
X131646443Y-93633534D01*
X131697963Y-93803373D01*
X131715359Y-93980000D01*
X131697963Y-94156627D01*
X131663616Y-94269853D01*
X131646443Y-94326467D01*
X131572348Y-94465087D01*
X131562778Y-94482991D01*
X131533448Y-94518729D01*
X131450186Y-94620186D01*
X131348729Y-94703448D01*
X131312991Y-94732778D01*
X131312989Y-94732779D01*
X131156467Y-94816443D01*
X131099853Y-94833616D01*
X130986627Y-94867963D01*
X130920443Y-94874481D01*
X130854260Y-94881000D01*
X130765740Y-94881000D01*
X130699557Y-94874481D01*
X130633373Y-94867963D01*
X130520147Y-94833616D01*
X130463533Y-94816443D01*
X130307011Y-94732779D01*
X130307009Y-94732778D01*
X130271271Y-94703448D01*
X130169814Y-94620186D01*
X130086552Y-94518729D01*
X130057222Y-94482991D01*
X130047652Y-94465087D01*
X129973557Y-94326467D01*
X129956384Y-94269853D01*
X129922037Y-94156627D01*
X129904641Y-93980000D01*
X129922037Y-93803373D01*
X129973557Y-93633534D01*
X129973557Y-93633533D01*
X130057221Y-93477011D01*
X130057222Y-93477009D01*
X130086552Y-93441271D01*
X130169814Y-93339814D01*
X130271271Y-93256552D01*
X130307009Y-93227222D01*
X130324913Y-93217652D01*
X130463533Y-93143557D01*
X130520147Y-93126384D01*
X130633373Y-93092037D01*
X130699557Y-93085519D01*
X130765740Y-93079000D01*
X130854260Y-93079000D01*
X130920443Y-93085519D01*
X130920443Y-93085519D01*
G37*
G36*
X128380443Y-93085519D02*
X128446627Y-93092037D01*
X128559853Y-93126384D01*
X128616467Y-93143557D01*
X128755087Y-93217652D01*
X128772991Y-93227222D01*
X128808729Y-93256552D01*
X128910186Y-93339814D01*
X128993448Y-93441271D01*
X129022778Y-93477009D01*
X129022779Y-93477011D01*
X129106443Y-93633533D01*
X129106443Y-93633534D01*
X129157963Y-93803373D01*
X129175359Y-93980000D01*
X129157963Y-94156627D01*
X129123616Y-94269853D01*
X129106443Y-94326467D01*
X129032348Y-94465087D01*
X129022778Y-94482991D01*
X128993448Y-94518729D01*
X128910186Y-94620186D01*
X128808729Y-94703448D01*
X128772991Y-94732778D01*
X128772989Y-94732779D01*
X128616467Y-94816443D01*
X128559853Y-94833616D01*
X128446627Y-94867963D01*
X128380443Y-94874481D01*
X128314260Y-94881000D01*
X128225740Y-94881000D01*
X128159557Y-94874481D01*
X128093373Y-94867963D01*
X127980147Y-94833616D01*
X127923533Y-94816443D01*
X127767011Y-94732779D01*
X127767009Y-94732778D01*
X127731271Y-94703448D01*
X127629814Y-94620186D01*
X127546552Y-94518729D01*
X127517222Y-94482991D01*
X127507652Y-94465087D01*
X127433557Y-94326467D01*
X127416384Y-94269853D01*
X127382037Y-94156627D01*
X127364641Y-93980000D01*
X127382037Y-93803373D01*
X127433557Y-93633534D01*
X127433557Y-93633533D01*
X127517221Y-93477011D01*
X127517222Y-93477009D01*
X127546552Y-93441271D01*
X127629814Y-93339814D01*
X127731271Y-93256552D01*
X127767009Y-93227222D01*
X127784913Y-93217652D01*
X127923533Y-93143557D01*
X127980147Y-93126384D01*
X128093373Y-93092037D01*
X128159557Y-93085519D01*
X128225740Y-93079000D01*
X128314260Y-93079000D01*
X128380443Y-93085519D01*
X128380443Y-93085519D01*
G37*
G36*
X125840443Y-93085519D02*
X125906627Y-93092037D01*
X126019853Y-93126384D01*
X126076467Y-93143557D01*
X126215087Y-93217652D01*
X126232991Y-93227222D01*
X126268729Y-93256552D01*
X126370186Y-93339814D01*
X126453448Y-93441271D01*
X126482778Y-93477009D01*
X126482779Y-93477011D01*
X126566443Y-93633533D01*
X126566443Y-93633534D01*
X126617963Y-93803373D01*
X126635359Y-93980000D01*
X126617963Y-94156627D01*
X126583616Y-94269853D01*
X126566443Y-94326467D01*
X126492348Y-94465087D01*
X126482778Y-94482991D01*
X126453448Y-94518729D01*
X126370186Y-94620186D01*
X126268729Y-94703448D01*
X126232991Y-94732778D01*
X126232989Y-94732779D01*
X126076467Y-94816443D01*
X126019853Y-94833616D01*
X125906627Y-94867963D01*
X125840443Y-94874481D01*
X125774260Y-94881000D01*
X125685740Y-94881000D01*
X125619557Y-94874481D01*
X125553373Y-94867963D01*
X125440147Y-94833616D01*
X125383533Y-94816443D01*
X125227011Y-94732779D01*
X125227009Y-94732778D01*
X125191271Y-94703448D01*
X125089814Y-94620186D01*
X125006552Y-94518729D01*
X124977222Y-94482991D01*
X124967652Y-94465087D01*
X124893557Y-94326467D01*
X124876384Y-94269853D01*
X124842037Y-94156627D01*
X124824641Y-93980000D01*
X124842037Y-93803373D01*
X124893557Y-93633534D01*
X124893557Y-93633533D01*
X124977221Y-93477011D01*
X124977222Y-93477009D01*
X125006552Y-93441271D01*
X125089814Y-93339814D01*
X125191271Y-93256552D01*
X125227009Y-93227222D01*
X125244913Y-93217652D01*
X125383533Y-93143557D01*
X125440147Y-93126384D01*
X125553373Y-93092037D01*
X125619557Y-93085519D01*
X125685740Y-93079000D01*
X125774260Y-93079000D01*
X125840443Y-93085519D01*
X125840443Y-93085519D01*
G37*
G36*
X123300443Y-93085519D02*
X123366627Y-93092037D01*
X123479853Y-93126384D01*
X123536467Y-93143557D01*
X123675087Y-93217652D01*
X123692991Y-93227222D01*
X123728729Y-93256552D01*
X123830186Y-93339814D01*
X123913448Y-93441271D01*
X123942778Y-93477009D01*
X123942779Y-93477011D01*
X124026443Y-93633533D01*
X124026443Y-93633534D01*
X124077963Y-93803373D01*
X124095359Y-93980000D01*
X124077963Y-94156627D01*
X124043616Y-94269853D01*
X124026443Y-94326467D01*
X123952348Y-94465087D01*
X123942778Y-94482991D01*
X123913448Y-94518729D01*
X123830186Y-94620186D01*
X123728729Y-94703448D01*
X123692991Y-94732778D01*
X123692989Y-94732779D01*
X123536467Y-94816443D01*
X123479853Y-94833616D01*
X123366627Y-94867963D01*
X123300443Y-94874481D01*
X123234260Y-94881000D01*
X123145740Y-94881000D01*
X123079557Y-94874481D01*
X123013373Y-94867963D01*
X122900147Y-94833616D01*
X122843533Y-94816443D01*
X122687011Y-94732779D01*
X122687009Y-94732778D01*
X122651271Y-94703448D01*
X122549814Y-94620186D01*
X122466552Y-94518729D01*
X122437222Y-94482991D01*
X122427652Y-94465087D01*
X122353557Y-94326467D01*
X122336384Y-94269853D01*
X122302037Y-94156627D01*
X122284641Y-93980000D01*
X122302037Y-93803373D01*
X122353557Y-93633534D01*
X122353557Y-93633533D01*
X122437221Y-93477011D01*
X122437222Y-93477009D01*
X122466552Y-93441271D01*
X122549814Y-93339814D01*
X122651271Y-93256552D01*
X122687009Y-93227222D01*
X122704913Y-93217652D01*
X122843533Y-93143557D01*
X122900147Y-93126384D01*
X123013373Y-93092037D01*
X123079557Y-93085519D01*
X123145740Y-93079000D01*
X123234260Y-93079000D01*
X123300443Y-93085519D01*
X123300443Y-93085519D01*
G37*
G36*
X120760443Y-93085519D02*
X120826627Y-93092037D01*
X120939853Y-93126384D01*
X120996467Y-93143557D01*
X121135087Y-93217652D01*
X121152991Y-93227222D01*
X121188729Y-93256552D01*
X121290186Y-93339814D01*
X121373448Y-93441271D01*
X121402778Y-93477009D01*
X121402779Y-93477011D01*
X121486443Y-93633533D01*
X121486443Y-93633534D01*
X121537963Y-93803373D01*
X121555359Y-93980000D01*
X121537963Y-94156627D01*
X121503616Y-94269853D01*
X121486443Y-94326467D01*
X121412348Y-94465087D01*
X121402778Y-94482991D01*
X121373448Y-94518729D01*
X121290186Y-94620186D01*
X121188729Y-94703448D01*
X121152991Y-94732778D01*
X121152989Y-94732779D01*
X120996467Y-94816443D01*
X120939853Y-94833616D01*
X120826627Y-94867963D01*
X120760443Y-94874481D01*
X120694260Y-94881000D01*
X120605740Y-94881000D01*
X120539557Y-94874481D01*
X120473373Y-94867963D01*
X120360147Y-94833616D01*
X120303533Y-94816443D01*
X120147011Y-94732779D01*
X120147009Y-94732778D01*
X120111271Y-94703448D01*
X120009814Y-94620186D01*
X119926552Y-94518729D01*
X119897222Y-94482991D01*
X119887652Y-94465087D01*
X119813557Y-94326467D01*
X119796384Y-94269853D01*
X119762037Y-94156627D01*
X119744641Y-93980000D01*
X119762037Y-93803373D01*
X119813557Y-93633534D01*
X119813557Y-93633533D01*
X119897221Y-93477011D01*
X119897222Y-93477009D01*
X119926552Y-93441271D01*
X120009814Y-93339814D01*
X120111271Y-93256552D01*
X120147009Y-93227222D01*
X120164913Y-93217652D01*
X120303533Y-93143557D01*
X120360147Y-93126384D01*
X120473373Y-93092037D01*
X120539557Y-93085519D01*
X120605740Y-93079000D01*
X120694260Y-93079000D01*
X120760443Y-93085519D01*
X120760443Y-93085519D01*
G37*
G36*
X118220443Y-93085519D02*
X118286627Y-93092037D01*
X118399853Y-93126384D01*
X118456467Y-93143557D01*
X118595087Y-93217652D01*
X118612991Y-93227222D01*
X118648729Y-93256552D01*
X118750186Y-93339814D01*
X118833448Y-93441271D01*
X118862778Y-93477009D01*
X118862779Y-93477011D01*
X118946443Y-93633533D01*
X118946443Y-93633534D01*
X118997963Y-93803373D01*
X119015359Y-93980000D01*
X118997963Y-94156627D01*
X118963616Y-94269853D01*
X118946443Y-94326467D01*
X118872348Y-94465087D01*
X118862778Y-94482991D01*
X118833448Y-94518729D01*
X118750186Y-94620186D01*
X118648729Y-94703448D01*
X118612991Y-94732778D01*
X118612989Y-94732779D01*
X118456467Y-94816443D01*
X118399853Y-94833616D01*
X118286627Y-94867963D01*
X118220443Y-94874481D01*
X118154260Y-94881000D01*
X118065740Y-94881000D01*
X117999557Y-94874481D01*
X117933373Y-94867963D01*
X117820147Y-94833616D01*
X117763533Y-94816443D01*
X117607011Y-94732779D01*
X117607009Y-94732778D01*
X117571271Y-94703448D01*
X117469814Y-94620186D01*
X117386552Y-94518729D01*
X117357222Y-94482991D01*
X117347652Y-94465087D01*
X117273557Y-94326467D01*
X117256384Y-94269853D01*
X117222037Y-94156627D01*
X117204641Y-93980000D01*
X117222037Y-93803373D01*
X117273557Y-93633534D01*
X117273557Y-93633533D01*
X117357221Y-93477011D01*
X117357222Y-93477009D01*
X117386552Y-93441271D01*
X117469814Y-93339814D01*
X117571271Y-93256552D01*
X117607009Y-93227222D01*
X117624913Y-93217652D01*
X117763533Y-93143557D01*
X117820147Y-93126384D01*
X117933373Y-93092037D01*
X117999557Y-93085519D01*
X118065740Y-93079000D01*
X118154260Y-93079000D01*
X118220443Y-93085519D01*
X118220443Y-93085519D01*
G37*
G36*
X115680443Y-93085519D02*
X115746627Y-93092037D01*
X115859853Y-93126384D01*
X115916467Y-93143557D01*
X116055087Y-93217652D01*
X116072991Y-93227222D01*
X116108729Y-93256552D01*
X116210186Y-93339814D01*
X116293448Y-93441271D01*
X116322778Y-93477009D01*
X116322779Y-93477011D01*
X116406443Y-93633533D01*
X116406443Y-93633534D01*
X116457963Y-93803373D01*
X116475359Y-93980000D01*
X116457963Y-94156627D01*
X116423616Y-94269853D01*
X116406443Y-94326467D01*
X116332348Y-94465087D01*
X116322778Y-94482991D01*
X116293448Y-94518729D01*
X116210186Y-94620186D01*
X116108729Y-94703448D01*
X116072991Y-94732778D01*
X116072989Y-94732779D01*
X115916467Y-94816443D01*
X115859853Y-94833616D01*
X115746627Y-94867963D01*
X115680443Y-94874481D01*
X115614260Y-94881000D01*
X115525740Y-94881000D01*
X115459557Y-94874481D01*
X115393373Y-94867963D01*
X115280147Y-94833616D01*
X115223533Y-94816443D01*
X115067011Y-94732779D01*
X115067009Y-94732778D01*
X115031271Y-94703448D01*
X114929814Y-94620186D01*
X114846552Y-94518729D01*
X114817222Y-94482991D01*
X114807652Y-94465087D01*
X114733557Y-94326467D01*
X114716384Y-94269853D01*
X114682037Y-94156627D01*
X114664641Y-93980000D01*
X114682037Y-93803373D01*
X114733557Y-93633534D01*
X114733557Y-93633533D01*
X114817221Y-93477011D01*
X114817222Y-93477009D01*
X114846552Y-93441271D01*
X114929814Y-93339814D01*
X115031271Y-93256552D01*
X115067009Y-93227222D01*
X115084913Y-93217652D01*
X115223533Y-93143557D01*
X115280147Y-93126384D01*
X115393373Y-93092037D01*
X115459557Y-93085519D01*
X115525740Y-93079000D01*
X115614260Y-93079000D01*
X115680443Y-93085519D01*
X115680443Y-93085519D01*
G37*
G36*
X113140443Y-93085519D02*
X113206627Y-93092037D01*
X113319853Y-93126384D01*
X113376467Y-93143557D01*
X113515087Y-93217652D01*
X113532991Y-93227222D01*
X113568729Y-93256552D01*
X113670186Y-93339814D01*
X113753448Y-93441271D01*
X113782778Y-93477009D01*
X113782779Y-93477011D01*
X113866443Y-93633533D01*
X113866443Y-93633534D01*
X113917963Y-93803373D01*
X113935359Y-93980000D01*
X113917963Y-94156627D01*
X113883616Y-94269853D01*
X113866443Y-94326467D01*
X113792348Y-94465087D01*
X113782778Y-94482991D01*
X113753448Y-94518729D01*
X113670186Y-94620186D01*
X113568729Y-94703448D01*
X113532991Y-94732778D01*
X113532989Y-94732779D01*
X113376467Y-94816443D01*
X113319853Y-94833616D01*
X113206627Y-94867963D01*
X113140443Y-94874481D01*
X113074260Y-94881000D01*
X112985740Y-94881000D01*
X112919557Y-94874481D01*
X112853373Y-94867963D01*
X112740147Y-94833616D01*
X112683533Y-94816443D01*
X112527011Y-94732779D01*
X112527009Y-94732778D01*
X112491271Y-94703448D01*
X112389814Y-94620186D01*
X112306552Y-94518729D01*
X112277222Y-94482991D01*
X112267652Y-94465087D01*
X112193557Y-94326467D01*
X112176384Y-94269853D01*
X112142037Y-94156627D01*
X112124641Y-93980000D01*
X112142037Y-93803373D01*
X112193557Y-93633534D01*
X112193557Y-93633533D01*
X112277221Y-93477011D01*
X112277222Y-93477009D01*
X112306552Y-93441271D01*
X112389814Y-93339814D01*
X112491271Y-93256552D01*
X112527009Y-93227222D01*
X112544913Y-93217652D01*
X112683533Y-93143557D01*
X112740147Y-93126384D01*
X112853373Y-93092037D01*
X112919557Y-93085519D01*
X112985740Y-93079000D01*
X113074260Y-93079000D01*
X113140443Y-93085519D01*
X113140443Y-93085519D01*
G37*
G36*
X138540443Y-93085519D02*
X138606627Y-93092037D01*
X138719853Y-93126384D01*
X138776467Y-93143557D01*
X138915087Y-93217652D01*
X138932991Y-93227222D01*
X138968729Y-93256552D01*
X139070186Y-93339814D01*
X139153448Y-93441271D01*
X139182778Y-93477009D01*
X139182779Y-93477011D01*
X139266443Y-93633533D01*
X139266443Y-93633534D01*
X139317963Y-93803373D01*
X139335359Y-93980000D01*
X139317963Y-94156627D01*
X139283616Y-94269853D01*
X139266443Y-94326467D01*
X139192348Y-94465087D01*
X139182778Y-94482991D01*
X139153448Y-94518729D01*
X139070186Y-94620186D01*
X138968729Y-94703448D01*
X138932991Y-94732778D01*
X138932989Y-94732779D01*
X138776467Y-94816443D01*
X138719853Y-94833616D01*
X138606627Y-94867963D01*
X138540443Y-94874481D01*
X138474260Y-94881000D01*
X138385740Y-94881000D01*
X138319557Y-94874481D01*
X138253373Y-94867963D01*
X138140147Y-94833616D01*
X138083533Y-94816443D01*
X137927011Y-94732779D01*
X137927009Y-94732778D01*
X137891271Y-94703448D01*
X137789814Y-94620186D01*
X137706552Y-94518729D01*
X137677222Y-94482991D01*
X137667652Y-94465087D01*
X137593557Y-94326467D01*
X137576384Y-94269853D01*
X137542037Y-94156627D01*
X137524641Y-93980000D01*
X137542037Y-93803373D01*
X137593557Y-93633534D01*
X137593557Y-93633533D01*
X137677221Y-93477011D01*
X137677222Y-93477009D01*
X137706552Y-93441271D01*
X137789814Y-93339814D01*
X137891271Y-93256552D01*
X137927009Y-93227222D01*
X137944913Y-93217652D01*
X138083533Y-93143557D01*
X138140147Y-93126384D01*
X138253373Y-93092037D01*
X138319557Y-93085519D01*
X138385740Y-93079000D01*
X138474260Y-93079000D01*
X138540443Y-93085519D01*
X138540443Y-93085519D01*
G37*
G36*
X105520443Y-93085519D02*
X105586627Y-93092037D01*
X105699853Y-93126384D01*
X105756467Y-93143557D01*
X105895087Y-93217652D01*
X105912991Y-93227222D01*
X105948729Y-93256552D01*
X106050186Y-93339814D01*
X106133448Y-93441271D01*
X106162778Y-93477009D01*
X106162779Y-93477011D01*
X106246443Y-93633533D01*
X106246443Y-93633534D01*
X106297963Y-93803373D01*
X106315359Y-93980000D01*
X106297963Y-94156627D01*
X106263616Y-94269853D01*
X106246443Y-94326467D01*
X106172348Y-94465087D01*
X106162778Y-94482991D01*
X106133448Y-94518729D01*
X106050186Y-94620186D01*
X105948729Y-94703448D01*
X105912991Y-94732778D01*
X105912989Y-94732779D01*
X105756467Y-94816443D01*
X105699853Y-94833616D01*
X105586627Y-94867963D01*
X105520443Y-94874481D01*
X105454260Y-94881000D01*
X105365740Y-94881000D01*
X105299557Y-94874481D01*
X105233373Y-94867963D01*
X105120147Y-94833616D01*
X105063533Y-94816443D01*
X104907011Y-94732779D01*
X104907009Y-94732778D01*
X104871271Y-94703448D01*
X104769814Y-94620186D01*
X104686552Y-94518729D01*
X104657222Y-94482991D01*
X104647652Y-94465087D01*
X104573557Y-94326467D01*
X104556384Y-94269853D01*
X104522037Y-94156627D01*
X104504641Y-93980000D01*
X104522037Y-93803373D01*
X104573557Y-93633534D01*
X104573557Y-93633533D01*
X104657221Y-93477011D01*
X104657222Y-93477009D01*
X104686552Y-93441271D01*
X104769814Y-93339814D01*
X104871271Y-93256552D01*
X104907009Y-93227222D01*
X104924913Y-93217652D01*
X105063533Y-93143557D01*
X105120147Y-93126384D01*
X105233373Y-93092037D01*
X105299557Y-93085519D01*
X105365740Y-93079000D01*
X105454260Y-93079000D01*
X105520443Y-93085519D01*
X105520443Y-93085519D01*
G37*
G36*
X108060443Y-93085519D02*
X108126627Y-93092037D01*
X108239853Y-93126384D01*
X108296467Y-93143557D01*
X108435087Y-93217652D01*
X108452991Y-93227222D01*
X108488729Y-93256552D01*
X108590186Y-93339814D01*
X108673448Y-93441271D01*
X108702778Y-93477009D01*
X108702779Y-93477011D01*
X108786443Y-93633533D01*
X108786443Y-93633534D01*
X108837963Y-93803373D01*
X108855359Y-93980000D01*
X108837963Y-94156627D01*
X108803616Y-94269853D01*
X108786443Y-94326467D01*
X108712348Y-94465087D01*
X108702778Y-94482991D01*
X108673448Y-94518729D01*
X108590186Y-94620186D01*
X108488729Y-94703448D01*
X108452991Y-94732778D01*
X108452989Y-94732779D01*
X108296467Y-94816443D01*
X108239853Y-94833616D01*
X108126627Y-94867963D01*
X108060443Y-94874481D01*
X107994260Y-94881000D01*
X107905740Y-94881000D01*
X107839557Y-94874481D01*
X107773373Y-94867963D01*
X107660147Y-94833616D01*
X107603533Y-94816443D01*
X107447011Y-94732779D01*
X107447009Y-94732778D01*
X107411271Y-94703448D01*
X107309814Y-94620186D01*
X107226552Y-94518729D01*
X107197222Y-94482991D01*
X107187652Y-94465087D01*
X107113557Y-94326467D01*
X107096384Y-94269853D01*
X107062037Y-94156627D01*
X107044641Y-93980000D01*
X107062037Y-93803373D01*
X107113557Y-93633534D01*
X107113557Y-93633533D01*
X107197221Y-93477011D01*
X107197222Y-93477009D01*
X107226552Y-93441271D01*
X107309814Y-93339814D01*
X107411271Y-93256552D01*
X107447009Y-93227222D01*
X107464913Y-93217652D01*
X107603533Y-93143557D01*
X107660147Y-93126384D01*
X107773373Y-93092037D01*
X107839557Y-93085519D01*
X107905740Y-93079000D01*
X107994260Y-93079000D01*
X108060443Y-93085519D01*
X108060443Y-93085519D01*
G37*
G36*
X80120443Y-93085519D02*
X80186627Y-93092037D01*
X80299853Y-93126384D01*
X80356467Y-93143557D01*
X80495087Y-93217652D01*
X80512991Y-93227222D01*
X80548729Y-93256552D01*
X80650186Y-93339814D01*
X80733448Y-93441271D01*
X80762778Y-93477009D01*
X80762779Y-93477011D01*
X80846443Y-93633533D01*
X80846443Y-93633534D01*
X80897963Y-93803373D01*
X80915359Y-93980000D01*
X80897963Y-94156627D01*
X80863616Y-94269853D01*
X80846443Y-94326467D01*
X80772348Y-94465087D01*
X80762778Y-94482991D01*
X80733448Y-94518729D01*
X80650186Y-94620186D01*
X80548729Y-94703448D01*
X80512991Y-94732778D01*
X80512989Y-94732779D01*
X80356467Y-94816443D01*
X80299853Y-94833616D01*
X80186627Y-94867963D01*
X80120443Y-94874481D01*
X80054260Y-94881000D01*
X79965740Y-94881000D01*
X79899557Y-94874481D01*
X79833373Y-94867963D01*
X79720147Y-94833616D01*
X79663533Y-94816443D01*
X79507011Y-94732779D01*
X79507009Y-94732778D01*
X79471271Y-94703448D01*
X79369814Y-94620186D01*
X79286552Y-94518729D01*
X79257222Y-94482991D01*
X79247652Y-94465087D01*
X79173557Y-94326467D01*
X79156384Y-94269853D01*
X79122037Y-94156627D01*
X79104641Y-93980000D01*
X79122037Y-93803373D01*
X79173557Y-93633534D01*
X79173557Y-93633533D01*
X79257221Y-93477011D01*
X79257222Y-93477009D01*
X79286552Y-93441271D01*
X79369814Y-93339814D01*
X79471271Y-93256552D01*
X79507009Y-93227222D01*
X79524913Y-93217652D01*
X79663533Y-93143557D01*
X79720147Y-93126384D01*
X79833373Y-93092037D01*
X79899557Y-93085519D01*
X79965740Y-93079000D01*
X80054260Y-93079000D01*
X80120443Y-93085519D01*
X80120443Y-93085519D01*
G37*
G36*
X82660443Y-93085519D02*
X82726627Y-93092037D01*
X82839853Y-93126384D01*
X82896467Y-93143557D01*
X83035087Y-93217652D01*
X83052991Y-93227222D01*
X83088729Y-93256552D01*
X83190186Y-93339814D01*
X83273448Y-93441271D01*
X83302778Y-93477009D01*
X83302779Y-93477011D01*
X83386443Y-93633533D01*
X83386443Y-93633534D01*
X83437963Y-93803373D01*
X83455359Y-93980000D01*
X83437963Y-94156627D01*
X83403616Y-94269853D01*
X83386443Y-94326467D01*
X83312348Y-94465087D01*
X83302778Y-94482991D01*
X83273448Y-94518729D01*
X83190186Y-94620186D01*
X83088729Y-94703448D01*
X83052991Y-94732778D01*
X83052989Y-94732779D01*
X82896467Y-94816443D01*
X82839853Y-94833616D01*
X82726627Y-94867963D01*
X82660443Y-94874481D01*
X82594260Y-94881000D01*
X82505740Y-94881000D01*
X82439557Y-94874481D01*
X82373373Y-94867963D01*
X82260147Y-94833616D01*
X82203533Y-94816443D01*
X82047011Y-94732779D01*
X82047009Y-94732778D01*
X82011271Y-94703448D01*
X81909814Y-94620186D01*
X81826552Y-94518729D01*
X81797222Y-94482991D01*
X81787652Y-94465087D01*
X81713557Y-94326467D01*
X81696384Y-94269853D01*
X81662037Y-94156627D01*
X81644641Y-93980000D01*
X81662037Y-93803373D01*
X81713557Y-93633534D01*
X81713557Y-93633533D01*
X81797221Y-93477011D01*
X81797222Y-93477009D01*
X81826552Y-93441271D01*
X81909814Y-93339814D01*
X82011271Y-93256552D01*
X82047009Y-93227222D01*
X82064913Y-93217652D01*
X82203533Y-93143557D01*
X82260147Y-93126384D01*
X82373373Y-93092037D01*
X82439557Y-93085519D01*
X82505740Y-93079000D01*
X82594260Y-93079000D01*
X82660443Y-93085519D01*
X82660443Y-93085519D01*
G37*
G36*
X85200443Y-93085519D02*
X85266627Y-93092037D01*
X85379853Y-93126384D01*
X85436467Y-93143557D01*
X85575087Y-93217652D01*
X85592991Y-93227222D01*
X85628729Y-93256552D01*
X85730186Y-93339814D01*
X85813448Y-93441271D01*
X85842778Y-93477009D01*
X85842779Y-93477011D01*
X85926443Y-93633533D01*
X85926443Y-93633534D01*
X85977963Y-93803373D01*
X85995359Y-93980000D01*
X85977963Y-94156627D01*
X85943616Y-94269853D01*
X85926443Y-94326467D01*
X85852348Y-94465087D01*
X85842778Y-94482991D01*
X85813448Y-94518729D01*
X85730186Y-94620186D01*
X85628729Y-94703448D01*
X85592991Y-94732778D01*
X85592989Y-94732779D01*
X85436467Y-94816443D01*
X85379853Y-94833616D01*
X85266627Y-94867963D01*
X85200443Y-94874481D01*
X85134260Y-94881000D01*
X85045740Y-94881000D01*
X84979557Y-94874481D01*
X84913373Y-94867963D01*
X84800147Y-94833616D01*
X84743533Y-94816443D01*
X84587011Y-94732779D01*
X84587009Y-94732778D01*
X84551271Y-94703448D01*
X84449814Y-94620186D01*
X84366552Y-94518729D01*
X84337222Y-94482991D01*
X84327652Y-94465087D01*
X84253557Y-94326467D01*
X84236384Y-94269853D01*
X84202037Y-94156627D01*
X84184641Y-93980000D01*
X84202037Y-93803373D01*
X84253557Y-93633534D01*
X84253557Y-93633533D01*
X84337221Y-93477011D01*
X84337222Y-93477009D01*
X84366552Y-93441271D01*
X84449814Y-93339814D01*
X84551271Y-93256552D01*
X84587009Y-93227222D01*
X84604913Y-93217652D01*
X84743533Y-93143557D01*
X84800147Y-93126384D01*
X84913373Y-93092037D01*
X84979557Y-93085519D01*
X85045740Y-93079000D01*
X85134260Y-93079000D01*
X85200443Y-93085519D01*
X85200443Y-93085519D01*
G37*
G36*
X87740443Y-93085519D02*
X87806627Y-93092037D01*
X87919853Y-93126384D01*
X87976467Y-93143557D01*
X88115087Y-93217652D01*
X88132991Y-93227222D01*
X88168729Y-93256552D01*
X88270186Y-93339814D01*
X88353448Y-93441271D01*
X88382778Y-93477009D01*
X88382779Y-93477011D01*
X88466443Y-93633533D01*
X88466443Y-93633534D01*
X88517963Y-93803373D01*
X88535359Y-93980000D01*
X88517963Y-94156627D01*
X88483616Y-94269853D01*
X88466443Y-94326467D01*
X88392348Y-94465087D01*
X88382778Y-94482991D01*
X88353448Y-94518729D01*
X88270186Y-94620186D01*
X88168729Y-94703448D01*
X88132991Y-94732778D01*
X88132989Y-94732779D01*
X87976467Y-94816443D01*
X87919853Y-94833616D01*
X87806627Y-94867963D01*
X87740443Y-94874481D01*
X87674260Y-94881000D01*
X87585740Y-94881000D01*
X87519557Y-94874481D01*
X87453373Y-94867963D01*
X87340147Y-94833616D01*
X87283533Y-94816443D01*
X87127011Y-94732779D01*
X87127009Y-94732778D01*
X87091271Y-94703448D01*
X86989814Y-94620186D01*
X86906552Y-94518729D01*
X86877222Y-94482991D01*
X86867652Y-94465087D01*
X86793557Y-94326467D01*
X86776384Y-94269853D01*
X86742037Y-94156627D01*
X86724641Y-93980000D01*
X86742037Y-93803373D01*
X86793557Y-93633534D01*
X86793557Y-93633533D01*
X86877221Y-93477011D01*
X86877222Y-93477009D01*
X86906552Y-93441271D01*
X86989814Y-93339814D01*
X87091271Y-93256552D01*
X87127009Y-93227222D01*
X87144913Y-93217652D01*
X87283533Y-93143557D01*
X87340147Y-93126384D01*
X87453373Y-93092037D01*
X87519557Y-93085519D01*
X87585740Y-93079000D01*
X87674260Y-93079000D01*
X87740443Y-93085519D01*
X87740443Y-93085519D01*
G37*
G36*
X90280443Y-93085519D02*
X90346627Y-93092037D01*
X90459853Y-93126384D01*
X90516467Y-93143557D01*
X90655087Y-93217652D01*
X90672991Y-93227222D01*
X90708729Y-93256552D01*
X90810186Y-93339814D01*
X90893448Y-93441271D01*
X90922778Y-93477009D01*
X90922779Y-93477011D01*
X91006443Y-93633533D01*
X91006443Y-93633534D01*
X91057963Y-93803373D01*
X91075359Y-93980000D01*
X91057963Y-94156627D01*
X91023616Y-94269853D01*
X91006443Y-94326467D01*
X90932348Y-94465087D01*
X90922778Y-94482991D01*
X90893448Y-94518729D01*
X90810186Y-94620186D01*
X90708729Y-94703448D01*
X90672991Y-94732778D01*
X90672989Y-94732779D01*
X90516467Y-94816443D01*
X90459853Y-94833616D01*
X90346627Y-94867963D01*
X90280443Y-94874481D01*
X90214260Y-94881000D01*
X90125740Y-94881000D01*
X90059557Y-94874481D01*
X89993373Y-94867963D01*
X89880147Y-94833616D01*
X89823533Y-94816443D01*
X89667011Y-94732779D01*
X89667009Y-94732778D01*
X89631271Y-94703448D01*
X89529814Y-94620186D01*
X89446552Y-94518729D01*
X89417222Y-94482991D01*
X89407652Y-94465087D01*
X89333557Y-94326467D01*
X89316384Y-94269853D01*
X89282037Y-94156627D01*
X89264641Y-93980000D01*
X89282037Y-93803373D01*
X89333557Y-93633534D01*
X89333557Y-93633533D01*
X89417221Y-93477011D01*
X89417222Y-93477009D01*
X89446552Y-93441271D01*
X89529814Y-93339814D01*
X89631271Y-93256552D01*
X89667009Y-93227222D01*
X89684913Y-93217652D01*
X89823533Y-93143557D01*
X89880147Y-93126384D01*
X89993373Y-93092037D01*
X90059557Y-93085519D01*
X90125740Y-93079000D01*
X90214260Y-93079000D01*
X90280443Y-93085519D01*
X90280443Y-93085519D01*
G37*
G36*
X92820443Y-93085519D02*
X92886627Y-93092037D01*
X92999853Y-93126384D01*
X93056467Y-93143557D01*
X93195087Y-93217652D01*
X93212991Y-93227222D01*
X93248729Y-93256552D01*
X93350186Y-93339814D01*
X93433448Y-93441271D01*
X93462778Y-93477009D01*
X93462779Y-93477011D01*
X93546443Y-93633533D01*
X93546443Y-93633534D01*
X93597963Y-93803373D01*
X93615359Y-93980000D01*
X93597963Y-94156627D01*
X93563616Y-94269853D01*
X93546443Y-94326467D01*
X93472348Y-94465087D01*
X93462778Y-94482991D01*
X93433448Y-94518729D01*
X93350186Y-94620186D01*
X93248729Y-94703448D01*
X93212991Y-94732778D01*
X93212989Y-94732779D01*
X93056467Y-94816443D01*
X92999853Y-94833616D01*
X92886627Y-94867963D01*
X92820443Y-94874481D01*
X92754260Y-94881000D01*
X92665740Y-94881000D01*
X92599557Y-94874481D01*
X92533373Y-94867963D01*
X92420147Y-94833616D01*
X92363533Y-94816443D01*
X92207011Y-94732779D01*
X92207009Y-94732778D01*
X92171271Y-94703448D01*
X92069814Y-94620186D01*
X91986552Y-94518729D01*
X91957222Y-94482991D01*
X91947652Y-94465087D01*
X91873557Y-94326467D01*
X91856384Y-94269853D01*
X91822037Y-94156627D01*
X91804641Y-93980000D01*
X91822037Y-93803373D01*
X91873557Y-93633534D01*
X91873557Y-93633533D01*
X91957221Y-93477011D01*
X91957222Y-93477009D01*
X91986552Y-93441271D01*
X92069814Y-93339814D01*
X92171271Y-93256552D01*
X92207009Y-93227222D01*
X92224913Y-93217652D01*
X92363533Y-93143557D01*
X92420147Y-93126384D01*
X92533373Y-93092037D01*
X92599557Y-93085519D01*
X92665740Y-93079000D01*
X92754260Y-93079000D01*
X92820443Y-93085519D01*
X92820443Y-93085519D01*
G37*
G36*
X95360443Y-93085519D02*
X95426627Y-93092037D01*
X95539853Y-93126384D01*
X95596467Y-93143557D01*
X95735087Y-93217652D01*
X95752991Y-93227222D01*
X95788729Y-93256552D01*
X95890186Y-93339814D01*
X95973448Y-93441271D01*
X96002778Y-93477009D01*
X96002779Y-93477011D01*
X96086443Y-93633533D01*
X96086443Y-93633534D01*
X96137963Y-93803373D01*
X96155359Y-93980000D01*
X96137963Y-94156627D01*
X96103616Y-94269853D01*
X96086443Y-94326467D01*
X96012348Y-94465087D01*
X96002778Y-94482991D01*
X95973448Y-94518729D01*
X95890186Y-94620186D01*
X95788729Y-94703448D01*
X95752991Y-94732778D01*
X95752989Y-94732779D01*
X95596467Y-94816443D01*
X95539853Y-94833616D01*
X95426627Y-94867963D01*
X95360443Y-94874481D01*
X95294260Y-94881000D01*
X95205740Y-94881000D01*
X95139557Y-94874481D01*
X95073373Y-94867963D01*
X94960147Y-94833616D01*
X94903533Y-94816443D01*
X94747011Y-94732779D01*
X94747009Y-94732778D01*
X94711271Y-94703448D01*
X94609814Y-94620186D01*
X94526552Y-94518729D01*
X94497222Y-94482991D01*
X94487652Y-94465087D01*
X94413557Y-94326467D01*
X94396384Y-94269853D01*
X94362037Y-94156627D01*
X94344641Y-93980000D01*
X94362037Y-93803373D01*
X94413557Y-93633534D01*
X94413557Y-93633533D01*
X94497221Y-93477011D01*
X94497222Y-93477009D01*
X94526552Y-93441271D01*
X94609814Y-93339814D01*
X94711271Y-93256552D01*
X94747009Y-93227222D01*
X94764913Y-93217652D01*
X94903533Y-93143557D01*
X94960147Y-93126384D01*
X95073373Y-93092037D01*
X95139557Y-93085519D01*
X95205740Y-93079000D01*
X95294260Y-93079000D01*
X95360443Y-93085519D01*
X95360443Y-93085519D01*
G37*
G36*
X97900443Y-93085519D02*
X97966627Y-93092037D01*
X98079853Y-93126384D01*
X98136467Y-93143557D01*
X98275087Y-93217652D01*
X98292991Y-93227222D01*
X98328729Y-93256552D01*
X98430186Y-93339814D01*
X98513448Y-93441271D01*
X98542778Y-93477009D01*
X98542779Y-93477011D01*
X98626443Y-93633533D01*
X98626443Y-93633534D01*
X98677963Y-93803373D01*
X98695359Y-93980000D01*
X98677963Y-94156627D01*
X98643616Y-94269853D01*
X98626443Y-94326467D01*
X98552348Y-94465087D01*
X98542778Y-94482991D01*
X98513448Y-94518729D01*
X98430186Y-94620186D01*
X98328729Y-94703448D01*
X98292991Y-94732778D01*
X98292989Y-94732779D01*
X98136467Y-94816443D01*
X98079853Y-94833616D01*
X97966627Y-94867963D01*
X97900443Y-94874481D01*
X97834260Y-94881000D01*
X97745740Y-94881000D01*
X97679557Y-94874481D01*
X97613373Y-94867963D01*
X97500147Y-94833616D01*
X97443533Y-94816443D01*
X97287011Y-94732779D01*
X97287009Y-94732778D01*
X97251271Y-94703448D01*
X97149814Y-94620186D01*
X97066552Y-94518729D01*
X97037222Y-94482991D01*
X97027652Y-94465087D01*
X96953557Y-94326467D01*
X96936384Y-94269853D01*
X96902037Y-94156627D01*
X96884641Y-93980000D01*
X96902037Y-93803373D01*
X96953557Y-93633534D01*
X96953557Y-93633533D01*
X97037221Y-93477011D01*
X97037222Y-93477009D01*
X97066552Y-93441271D01*
X97149814Y-93339814D01*
X97251271Y-93256552D01*
X97287009Y-93227222D01*
X97304913Y-93217652D01*
X97443533Y-93143557D01*
X97500147Y-93126384D01*
X97613373Y-93092037D01*
X97679557Y-93085519D01*
X97745740Y-93079000D01*
X97834260Y-93079000D01*
X97900443Y-93085519D01*
X97900443Y-93085519D01*
G37*
G36*
X100440443Y-93085519D02*
X100506627Y-93092037D01*
X100619853Y-93126384D01*
X100676467Y-93143557D01*
X100815087Y-93217652D01*
X100832991Y-93227222D01*
X100868729Y-93256552D01*
X100970186Y-93339814D01*
X101053448Y-93441271D01*
X101082778Y-93477009D01*
X101082779Y-93477011D01*
X101166443Y-93633533D01*
X101166443Y-93633534D01*
X101217963Y-93803373D01*
X101235359Y-93980000D01*
X101217963Y-94156627D01*
X101183616Y-94269853D01*
X101166443Y-94326467D01*
X101092348Y-94465087D01*
X101082778Y-94482991D01*
X101053448Y-94518729D01*
X100970186Y-94620186D01*
X100868729Y-94703448D01*
X100832991Y-94732778D01*
X100832989Y-94732779D01*
X100676467Y-94816443D01*
X100619853Y-94833616D01*
X100506627Y-94867963D01*
X100440443Y-94874481D01*
X100374260Y-94881000D01*
X100285740Y-94881000D01*
X100219557Y-94874481D01*
X100153373Y-94867963D01*
X100040147Y-94833616D01*
X99983533Y-94816443D01*
X99827011Y-94732779D01*
X99827009Y-94732778D01*
X99791271Y-94703448D01*
X99689814Y-94620186D01*
X99606552Y-94518729D01*
X99577222Y-94482991D01*
X99567652Y-94465087D01*
X99493557Y-94326467D01*
X99476384Y-94269853D01*
X99442037Y-94156627D01*
X99424641Y-93980000D01*
X99442037Y-93803373D01*
X99493557Y-93633534D01*
X99493557Y-93633533D01*
X99577221Y-93477011D01*
X99577222Y-93477009D01*
X99606552Y-93441271D01*
X99689814Y-93339814D01*
X99791271Y-93256552D01*
X99827009Y-93227222D01*
X99844913Y-93217652D01*
X99983533Y-93143557D01*
X100040147Y-93126384D01*
X100153373Y-93092037D01*
X100219557Y-93085519D01*
X100285740Y-93079000D01*
X100374260Y-93079000D01*
X100440443Y-93085519D01*
X100440443Y-93085519D01*
G37*
G36*
X102980443Y-93085519D02*
X103046627Y-93092037D01*
X103159853Y-93126384D01*
X103216467Y-93143557D01*
X103355087Y-93217652D01*
X103372991Y-93227222D01*
X103408729Y-93256552D01*
X103510186Y-93339814D01*
X103593448Y-93441271D01*
X103622778Y-93477009D01*
X103622779Y-93477011D01*
X103706443Y-93633533D01*
X103706443Y-93633534D01*
X103757963Y-93803373D01*
X103775359Y-93980000D01*
X103757963Y-94156627D01*
X103723616Y-94269853D01*
X103706443Y-94326467D01*
X103632348Y-94465087D01*
X103622778Y-94482991D01*
X103593448Y-94518729D01*
X103510186Y-94620186D01*
X103408729Y-94703448D01*
X103372991Y-94732778D01*
X103372989Y-94732779D01*
X103216467Y-94816443D01*
X103159853Y-94833616D01*
X103046627Y-94867963D01*
X102980443Y-94874481D01*
X102914260Y-94881000D01*
X102825740Y-94881000D01*
X102759557Y-94874481D01*
X102693373Y-94867963D01*
X102580147Y-94833616D01*
X102523533Y-94816443D01*
X102367011Y-94732779D01*
X102367009Y-94732778D01*
X102331271Y-94703448D01*
X102229814Y-94620186D01*
X102146552Y-94518729D01*
X102117222Y-94482991D01*
X102107652Y-94465087D01*
X102033557Y-94326467D01*
X102016384Y-94269853D01*
X101982037Y-94156627D01*
X101964641Y-93980000D01*
X101982037Y-93803373D01*
X102033557Y-93633534D01*
X102033557Y-93633533D01*
X102117221Y-93477011D01*
X102117222Y-93477009D01*
X102146552Y-93441271D01*
X102229814Y-93339814D01*
X102331271Y-93256552D01*
X102367009Y-93227222D01*
X102384913Y-93217652D01*
X102523533Y-93143557D01*
X102580147Y-93126384D01*
X102693373Y-93092037D01*
X102759557Y-93085519D01*
X102825740Y-93079000D01*
X102914260Y-93079000D01*
X102980443Y-93085519D01*
X102980443Y-93085519D01*
G37*
G36*
X141871000Y-63893000D02*
X140069000Y-63893000D01*
X140069000Y-62091000D01*
X141871000Y-62091000D01*
X141871000Y-63893000D01*
X141871000Y-63893000D01*
G37*
G36*
X108060443Y-62097519D02*
X108126627Y-62104037D01*
X108239853Y-62138384D01*
X108296467Y-62155557D01*
X108435087Y-62229652D01*
X108452991Y-62239222D01*
X108488729Y-62268552D01*
X108590186Y-62351814D01*
X108673448Y-62453271D01*
X108702778Y-62489009D01*
X108702779Y-62489011D01*
X108786443Y-62645533D01*
X108786443Y-62645534D01*
X108837963Y-62815373D01*
X108855359Y-62992000D01*
X108837963Y-63168627D01*
X108803616Y-63281853D01*
X108786443Y-63338467D01*
X108712348Y-63477087D01*
X108702778Y-63494991D01*
X108673448Y-63530729D01*
X108590186Y-63632186D01*
X108488729Y-63715448D01*
X108452991Y-63744778D01*
X108452989Y-63744779D01*
X108296467Y-63828443D01*
X108239853Y-63845616D01*
X108126627Y-63879963D01*
X108060442Y-63886482D01*
X107994260Y-63893000D01*
X107905740Y-63893000D01*
X107839558Y-63886482D01*
X107773373Y-63879963D01*
X107660147Y-63845616D01*
X107603533Y-63828443D01*
X107447011Y-63744779D01*
X107447009Y-63744778D01*
X107411271Y-63715448D01*
X107309814Y-63632186D01*
X107226552Y-63530729D01*
X107197222Y-63494991D01*
X107187652Y-63477087D01*
X107113557Y-63338467D01*
X107096384Y-63281853D01*
X107062037Y-63168627D01*
X107044641Y-62992000D01*
X107062037Y-62815373D01*
X107113557Y-62645534D01*
X107113557Y-62645533D01*
X107197221Y-62489011D01*
X107197222Y-62489009D01*
X107226552Y-62453271D01*
X107309814Y-62351814D01*
X107411271Y-62268552D01*
X107447009Y-62239222D01*
X107464913Y-62229652D01*
X107603533Y-62155557D01*
X107660147Y-62138384D01*
X107773373Y-62104037D01*
X107839557Y-62097519D01*
X107905740Y-62091000D01*
X107994260Y-62091000D01*
X108060443Y-62097519D01*
X108060443Y-62097519D01*
G37*
G36*
X105520443Y-62097519D02*
X105586627Y-62104037D01*
X105699853Y-62138384D01*
X105756467Y-62155557D01*
X105895087Y-62229652D01*
X105912991Y-62239222D01*
X105948729Y-62268552D01*
X106050186Y-62351814D01*
X106133448Y-62453271D01*
X106162778Y-62489009D01*
X106162779Y-62489011D01*
X106246443Y-62645533D01*
X106246443Y-62645534D01*
X106297963Y-62815373D01*
X106315359Y-62992000D01*
X106297963Y-63168627D01*
X106263616Y-63281853D01*
X106246443Y-63338467D01*
X106172348Y-63477087D01*
X106162778Y-63494991D01*
X106133448Y-63530729D01*
X106050186Y-63632186D01*
X105948729Y-63715448D01*
X105912991Y-63744778D01*
X105912989Y-63744779D01*
X105756467Y-63828443D01*
X105699853Y-63845616D01*
X105586627Y-63879963D01*
X105520442Y-63886482D01*
X105454260Y-63893000D01*
X105365740Y-63893000D01*
X105299558Y-63886482D01*
X105233373Y-63879963D01*
X105120147Y-63845616D01*
X105063533Y-63828443D01*
X104907011Y-63744779D01*
X104907009Y-63744778D01*
X104871271Y-63715448D01*
X104769814Y-63632186D01*
X104686552Y-63530729D01*
X104657222Y-63494991D01*
X104647652Y-63477087D01*
X104573557Y-63338467D01*
X104556384Y-63281853D01*
X104522037Y-63168627D01*
X104504641Y-62992000D01*
X104522037Y-62815373D01*
X104573557Y-62645534D01*
X104573557Y-62645533D01*
X104657221Y-62489011D01*
X104657222Y-62489009D01*
X104686552Y-62453271D01*
X104769814Y-62351814D01*
X104871271Y-62268552D01*
X104907009Y-62239222D01*
X104924913Y-62229652D01*
X105063533Y-62155557D01*
X105120147Y-62138384D01*
X105233373Y-62104037D01*
X105299557Y-62097519D01*
X105365740Y-62091000D01*
X105454260Y-62091000D01*
X105520443Y-62097519D01*
X105520443Y-62097519D01*
G37*
G36*
X102980443Y-62097519D02*
X103046627Y-62104037D01*
X103159853Y-62138384D01*
X103216467Y-62155557D01*
X103355087Y-62229652D01*
X103372991Y-62239222D01*
X103408729Y-62268552D01*
X103510186Y-62351814D01*
X103593448Y-62453271D01*
X103622778Y-62489009D01*
X103622779Y-62489011D01*
X103706443Y-62645533D01*
X103706443Y-62645534D01*
X103757963Y-62815373D01*
X103775359Y-62992000D01*
X103757963Y-63168627D01*
X103723616Y-63281853D01*
X103706443Y-63338467D01*
X103632348Y-63477087D01*
X103622778Y-63494991D01*
X103593448Y-63530729D01*
X103510186Y-63632186D01*
X103408729Y-63715448D01*
X103372991Y-63744778D01*
X103372989Y-63744779D01*
X103216467Y-63828443D01*
X103159853Y-63845616D01*
X103046627Y-63879963D01*
X102980442Y-63886482D01*
X102914260Y-63893000D01*
X102825740Y-63893000D01*
X102759558Y-63886482D01*
X102693373Y-63879963D01*
X102580147Y-63845616D01*
X102523533Y-63828443D01*
X102367011Y-63744779D01*
X102367009Y-63744778D01*
X102331271Y-63715448D01*
X102229814Y-63632186D01*
X102146552Y-63530729D01*
X102117222Y-63494991D01*
X102107652Y-63477087D01*
X102033557Y-63338467D01*
X102016384Y-63281853D01*
X101982037Y-63168627D01*
X101964641Y-62992000D01*
X101982037Y-62815373D01*
X102033557Y-62645534D01*
X102033557Y-62645533D01*
X102117221Y-62489011D01*
X102117222Y-62489009D01*
X102146552Y-62453271D01*
X102229814Y-62351814D01*
X102331271Y-62268552D01*
X102367009Y-62239222D01*
X102384913Y-62229652D01*
X102523533Y-62155557D01*
X102580147Y-62138384D01*
X102693373Y-62104037D01*
X102759557Y-62097519D01*
X102825740Y-62091000D01*
X102914260Y-62091000D01*
X102980443Y-62097519D01*
X102980443Y-62097519D01*
G37*
G36*
X100440443Y-62097519D02*
X100506627Y-62104037D01*
X100619853Y-62138384D01*
X100676467Y-62155557D01*
X100815087Y-62229652D01*
X100832991Y-62239222D01*
X100868729Y-62268552D01*
X100970186Y-62351814D01*
X101053448Y-62453271D01*
X101082778Y-62489009D01*
X101082779Y-62489011D01*
X101166443Y-62645533D01*
X101166443Y-62645534D01*
X101217963Y-62815373D01*
X101235359Y-62992000D01*
X101217963Y-63168627D01*
X101183616Y-63281853D01*
X101166443Y-63338467D01*
X101092348Y-63477087D01*
X101082778Y-63494991D01*
X101053448Y-63530729D01*
X100970186Y-63632186D01*
X100868729Y-63715448D01*
X100832991Y-63744778D01*
X100832989Y-63744779D01*
X100676467Y-63828443D01*
X100619853Y-63845616D01*
X100506627Y-63879963D01*
X100440442Y-63886482D01*
X100374260Y-63893000D01*
X100285740Y-63893000D01*
X100219558Y-63886482D01*
X100153373Y-63879963D01*
X100040147Y-63845616D01*
X99983533Y-63828443D01*
X99827011Y-63744779D01*
X99827009Y-63744778D01*
X99791271Y-63715448D01*
X99689814Y-63632186D01*
X99606552Y-63530729D01*
X99577222Y-63494991D01*
X99567652Y-63477087D01*
X99493557Y-63338467D01*
X99476384Y-63281853D01*
X99442037Y-63168627D01*
X99424641Y-62992000D01*
X99442037Y-62815373D01*
X99493557Y-62645534D01*
X99493557Y-62645533D01*
X99577221Y-62489011D01*
X99577222Y-62489009D01*
X99606552Y-62453271D01*
X99689814Y-62351814D01*
X99791271Y-62268552D01*
X99827009Y-62239222D01*
X99844913Y-62229652D01*
X99983533Y-62155557D01*
X100040147Y-62138384D01*
X100153373Y-62104037D01*
X100219557Y-62097519D01*
X100285740Y-62091000D01*
X100374260Y-62091000D01*
X100440443Y-62097519D01*
X100440443Y-62097519D01*
G37*
G36*
X97900443Y-62097519D02*
X97966627Y-62104037D01*
X98079853Y-62138384D01*
X98136467Y-62155557D01*
X98275087Y-62229652D01*
X98292991Y-62239222D01*
X98328729Y-62268552D01*
X98430186Y-62351814D01*
X98513448Y-62453271D01*
X98542778Y-62489009D01*
X98542779Y-62489011D01*
X98626443Y-62645533D01*
X98626443Y-62645534D01*
X98677963Y-62815373D01*
X98695359Y-62992000D01*
X98677963Y-63168627D01*
X98643616Y-63281853D01*
X98626443Y-63338467D01*
X98552348Y-63477087D01*
X98542778Y-63494991D01*
X98513448Y-63530729D01*
X98430186Y-63632186D01*
X98328729Y-63715448D01*
X98292991Y-63744778D01*
X98292989Y-63744779D01*
X98136467Y-63828443D01*
X98079853Y-63845616D01*
X97966627Y-63879963D01*
X97900442Y-63886482D01*
X97834260Y-63893000D01*
X97745740Y-63893000D01*
X97679558Y-63886482D01*
X97613373Y-63879963D01*
X97500147Y-63845616D01*
X97443533Y-63828443D01*
X97287011Y-63744779D01*
X97287009Y-63744778D01*
X97251271Y-63715448D01*
X97149814Y-63632186D01*
X97066552Y-63530729D01*
X97037222Y-63494991D01*
X97027652Y-63477087D01*
X96953557Y-63338467D01*
X96936384Y-63281853D01*
X96902037Y-63168627D01*
X96884641Y-62992000D01*
X96902037Y-62815373D01*
X96953557Y-62645534D01*
X96953557Y-62645533D01*
X97037221Y-62489011D01*
X97037222Y-62489009D01*
X97066552Y-62453271D01*
X97149814Y-62351814D01*
X97251271Y-62268552D01*
X97287009Y-62239222D01*
X97304913Y-62229652D01*
X97443533Y-62155557D01*
X97500147Y-62138384D01*
X97613373Y-62104037D01*
X97679557Y-62097519D01*
X97745740Y-62091000D01*
X97834260Y-62091000D01*
X97900443Y-62097519D01*
X97900443Y-62097519D01*
G37*
G36*
X95360443Y-62097519D02*
X95426627Y-62104037D01*
X95539853Y-62138384D01*
X95596467Y-62155557D01*
X95735087Y-62229652D01*
X95752991Y-62239222D01*
X95788729Y-62268552D01*
X95890186Y-62351814D01*
X95973448Y-62453271D01*
X96002778Y-62489009D01*
X96002779Y-62489011D01*
X96086443Y-62645533D01*
X96086443Y-62645534D01*
X96137963Y-62815373D01*
X96155359Y-62992000D01*
X96137963Y-63168627D01*
X96103616Y-63281853D01*
X96086443Y-63338467D01*
X96012348Y-63477087D01*
X96002778Y-63494991D01*
X95973448Y-63530729D01*
X95890186Y-63632186D01*
X95788729Y-63715448D01*
X95752991Y-63744778D01*
X95752989Y-63744779D01*
X95596467Y-63828443D01*
X95539853Y-63845616D01*
X95426627Y-63879963D01*
X95360442Y-63886482D01*
X95294260Y-63893000D01*
X95205740Y-63893000D01*
X95139558Y-63886482D01*
X95073373Y-63879963D01*
X94960147Y-63845616D01*
X94903533Y-63828443D01*
X94747011Y-63744779D01*
X94747009Y-63744778D01*
X94711271Y-63715448D01*
X94609814Y-63632186D01*
X94526552Y-63530729D01*
X94497222Y-63494991D01*
X94487652Y-63477087D01*
X94413557Y-63338467D01*
X94396384Y-63281853D01*
X94362037Y-63168627D01*
X94344641Y-62992000D01*
X94362037Y-62815373D01*
X94413557Y-62645534D01*
X94413557Y-62645533D01*
X94497221Y-62489011D01*
X94497222Y-62489009D01*
X94526552Y-62453271D01*
X94609814Y-62351814D01*
X94711271Y-62268552D01*
X94747009Y-62239222D01*
X94764913Y-62229652D01*
X94903533Y-62155557D01*
X94960147Y-62138384D01*
X95073373Y-62104037D01*
X95139557Y-62097519D01*
X95205740Y-62091000D01*
X95294260Y-62091000D01*
X95360443Y-62097519D01*
X95360443Y-62097519D01*
G37*
G36*
X92820443Y-62097519D02*
X92886627Y-62104037D01*
X92999853Y-62138384D01*
X93056467Y-62155557D01*
X93195087Y-62229652D01*
X93212991Y-62239222D01*
X93248729Y-62268552D01*
X93350186Y-62351814D01*
X93433448Y-62453271D01*
X93462778Y-62489009D01*
X93462779Y-62489011D01*
X93546443Y-62645533D01*
X93546443Y-62645534D01*
X93597963Y-62815373D01*
X93615359Y-62992000D01*
X93597963Y-63168627D01*
X93563616Y-63281853D01*
X93546443Y-63338467D01*
X93472348Y-63477087D01*
X93462778Y-63494991D01*
X93433448Y-63530729D01*
X93350186Y-63632186D01*
X93248729Y-63715448D01*
X93212991Y-63744778D01*
X93212989Y-63744779D01*
X93056467Y-63828443D01*
X92999853Y-63845616D01*
X92886627Y-63879963D01*
X92820442Y-63886482D01*
X92754260Y-63893000D01*
X92665740Y-63893000D01*
X92599558Y-63886482D01*
X92533373Y-63879963D01*
X92420147Y-63845616D01*
X92363533Y-63828443D01*
X92207011Y-63744779D01*
X92207009Y-63744778D01*
X92171271Y-63715448D01*
X92069814Y-63632186D01*
X91986552Y-63530729D01*
X91957222Y-63494991D01*
X91947652Y-63477087D01*
X91873557Y-63338467D01*
X91856384Y-63281853D01*
X91822037Y-63168627D01*
X91804641Y-62992000D01*
X91822037Y-62815373D01*
X91873557Y-62645534D01*
X91873557Y-62645533D01*
X91957221Y-62489011D01*
X91957222Y-62489009D01*
X91986552Y-62453271D01*
X92069814Y-62351814D01*
X92171271Y-62268552D01*
X92207009Y-62239222D01*
X92224913Y-62229652D01*
X92363533Y-62155557D01*
X92420147Y-62138384D01*
X92533373Y-62104037D01*
X92599557Y-62097519D01*
X92665740Y-62091000D01*
X92754260Y-62091000D01*
X92820443Y-62097519D01*
X92820443Y-62097519D01*
G37*
G36*
X90280443Y-62097519D02*
X90346627Y-62104037D01*
X90459853Y-62138384D01*
X90516467Y-62155557D01*
X90655087Y-62229652D01*
X90672991Y-62239222D01*
X90708729Y-62268552D01*
X90810186Y-62351814D01*
X90893448Y-62453271D01*
X90922778Y-62489009D01*
X90922779Y-62489011D01*
X91006443Y-62645533D01*
X91006443Y-62645534D01*
X91057963Y-62815373D01*
X91075359Y-62992000D01*
X91057963Y-63168627D01*
X91023616Y-63281853D01*
X91006443Y-63338467D01*
X90932348Y-63477087D01*
X90922778Y-63494991D01*
X90893448Y-63530729D01*
X90810186Y-63632186D01*
X90708729Y-63715448D01*
X90672991Y-63744778D01*
X90672989Y-63744779D01*
X90516467Y-63828443D01*
X90459853Y-63845616D01*
X90346627Y-63879963D01*
X90280442Y-63886482D01*
X90214260Y-63893000D01*
X90125740Y-63893000D01*
X90059558Y-63886482D01*
X89993373Y-63879963D01*
X89880147Y-63845616D01*
X89823533Y-63828443D01*
X89667011Y-63744779D01*
X89667009Y-63744778D01*
X89631271Y-63715448D01*
X89529814Y-63632186D01*
X89446552Y-63530729D01*
X89417222Y-63494991D01*
X89407652Y-63477087D01*
X89333557Y-63338467D01*
X89316384Y-63281853D01*
X89282037Y-63168627D01*
X89264641Y-62992000D01*
X89282037Y-62815373D01*
X89333557Y-62645534D01*
X89333557Y-62645533D01*
X89417221Y-62489011D01*
X89417222Y-62489009D01*
X89446552Y-62453271D01*
X89529814Y-62351814D01*
X89631271Y-62268552D01*
X89667009Y-62239222D01*
X89684913Y-62229652D01*
X89823533Y-62155557D01*
X89880147Y-62138384D01*
X89993373Y-62104037D01*
X90059557Y-62097519D01*
X90125740Y-62091000D01*
X90214260Y-62091000D01*
X90280443Y-62097519D01*
X90280443Y-62097519D01*
G37*
G36*
X87740443Y-62097519D02*
X87806627Y-62104037D01*
X87919853Y-62138384D01*
X87976467Y-62155557D01*
X88115087Y-62229652D01*
X88132991Y-62239222D01*
X88168729Y-62268552D01*
X88270186Y-62351814D01*
X88353448Y-62453271D01*
X88382778Y-62489009D01*
X88382779Y-62489011D01*
X88466443Y-62645533D01*
X88466443Y-62645534D01*
X88517963Y-62815373D01*
X88535359Y-62992000D01*
X88517963Y-63168627D01*
X88483616Y-63281853D01*
X88466443Y-63338467D01*
X88392348Y-63477087D01*
X88382778Y-63494991D01*
X88353448Y-63530729D01*
X88270186Y-63632186D01*
X88168729Y-63715448D01*
X88132991Y-63744778D01*
X88132989Y-63744779D01*
X87976467Y-63828443D01*
X87919853Y-63845616D01*
X87806627Y-63879963D01*
X87740442Y-63886482D01*
X87674260Y-63893000D01*
X87585740Y-63893000D01*
X87519558Y-63886482D01*
X87453373Y-63879963D01*
X87340147Y-63845616D01*
X87283533Y-63828443D01*
X87127011Y-63744779D01*
X87127009Y-63744778D01*
X87091271Y-63715448D01*
X86989814Y-63632186D01*
X86906552Y-63530729D01*
X86877222Y-63494991D01*
X86867652Y-63477087D01*
X86793557Y-63338467D01*
X86776384Y-63281853D01*
X86742037Y-63168627D01*
X86724641Y-62992000D01*
X86742037Y-62815373D01*
X86793557Y-62645534D01*
X86793557Y-62645533D01*
X86877221Y-62489011D01*
X86877222Y-62489009D01*
X86906552Y-62453271D01*
X86989814Y-62351814D01*
X87091271Y-62268552D01*
X87127009Y-62239222D01*
X87144913Y-62229652D01*
X87283533Y-62155557D01*
X87340147Y-62138384D01*
X87453373Y-62104037D01*
X87519557Y-62097519D01*
X87585740Y-62091000D01*
X87674260Y-62091000D01*
X87740443Y-62097519D01*
X87740443Y-62097519D01*
G37*
G36*
X85200443Y-62097519D02*
X85266627Y-62104037D01*
X85379853Y-62138384D01*
X85436467Y-62155557D01*
X85575087Y-62229652D01*
X85592991Y-62239222D01*
X85628729Y-62268552D01*
X85730186Y-62351814D01*
X85813448Y-62453271D01*
X85842778Y-62489009D01*
X85842779Y-62489011D01*
X85926443Y-62645533D01*
X85926443Y-62645534D01*
X85977963Y-62815373D01*
X85995359Y-62992000D01*
X85977963Y-63168627D01*
X85943616Y-63281853D01*
X85926443Y-63338467D01*
X85852348Y-63477087D01*
X85842778Y-63494991D01*
X85813448Y-63530729D01*
X85730186Y-63632186D01*
X85628729Y-63715448D01*
X85592991Y-63744778D01*
X85592989Y-63744779D01*
X85436467Y-63828443D01*
X85379853Y-63845616D01*
X85266627Y-63879963D01*
X85200442Y-63886482D01*
X85134260Y-63893000D01*
X85045740Y-63893000D01*
X84979558Y-63886482D01*
X84913373Y-63879963D01*
X84800147Y-63845616D01*
X84743533Y-63828443D01*
X84587011Y-63744779D01*
X84587009Y-63744778D01*
X84551271Y-63715448D01*
X84449814Y-63632186D01*
X84366552Y-63530729D01*
X84337222Y-63494991D01*
X84327652Y-63477087D01*
X84253557Y-63338467D01*
X84236384Y-63281853D01*
X84202037Y-63168627D01*
X84184641Y-62992000D01*
X84202037Y-62815373D01*
X84253557Y-62645534D01*
X84253557Y-62645533D01*
X84337221Y-62489011D01*
X84337222Y-62489009D01*
X84366552Y-62453271D01*
X84449814Y-62351814D01*
X84551271Y-62268552D01*
X84587009Y-62239222D01*
X84604913Y-62229652D01*
X84743533Y-62155557D01*
X84800147Y-62138384D01*
X84913373Y-62104037D01*
X84979557Y-62097519D01*
X85045740Y-62091000D01*
X85134260Y-62091000D01*
X85200443Y-62097519D01*
X85200443Y-62097519D01*
G37*
G36*
X82660443Y-62097519D02*
X82726627Y-62104037D01*
X82839853Y-62138384D01*
X82896467Y-62155557D01*
X83035087Y-62229652D01*
X83052991Y-62239222D01*
X83088729Y-62268552D01*
X83190186Y-62351814D01*
X83273448Y-62453271D01*
X83302778Y-62489009D01*
X83302779Y-62489011D01*
X83386443Y-62645533D01*
X83386443Y-62645534D01*
X83437963Y-62815373D01*
X83455359Y-62992000D01*
X83437963Y-63168627D01*
X83403616Y-63281853D01*
X83386443Y-63338467D01*
X83312348Y-63477087D01*
X83302778Y-63494991D01*
X83273448Y-63530729D01*
X83190186Y-63632186D01*
X83088729Y-63715448D01*
X83052991Y-63744778D01*
X83052989Y-63744779D01*
X82896467Y-63828443D01*
X82839853Y-63845616D01*
X82726627Y-63879963D01*
X82660442Y-63886482D01*
X82594260Y-63893000D01*
X82505740Y-63893000D01*
X82439558Y-63886482D01*
X82373373Y-63879963D01*
X82260147Y-63845616D01*
X82203533Y-63828443D01*
X82047011Y-63744779D01*
X82047009Y-63744778D01*
X82011271Y-63715448D01*
X81909814Y-63632186D01*
X81826552Y-63530729D01*
X81797222Y-63494991D01*
X81787652Y-63477087D01*
X81713557Y-63338467D01*
X81696384Y-63281853D01*
X81662037Y-63168627D01*
X81644641Y-62992000D01*
X81662037Y-62815373D01*
X81713557Y-62645534D01*
X81713557Y-62645533D01*
X81797221Y-62489011D01*
X81797222Y-62489009D01*
X81826552Y-62453271D01*
X81909814Y-62351814D01*
X82011271Y-62268552D01*
X82047009Y-62239222D01*
X82064913Y-62229652D01*
X82203533Y-62155557D01*
X82260147Y-62138384D01*
X82373373Y-62104037D01*
X82439557Y-62097519D01*
X82505740Y-62091000D01*
X82594260Y-62091000D01*
X82660443Y-62097519D01*
X82660443Y-62097519D01*
G37*
G36*
X77580443Y-62097519D02*
X77646627Y-62104037D01*
X77759853Y-62138384D01*
X77816467Y-62155557D01*
X77955087Y-62229652D01*
X77972991Y-62239222D01*
X78008729Y-62268552D01*
X78110186Y-62351814D01*
X78193448Y-62453271D01*
X78222778Y-62489009D01*
X78222779Y-62489011D01*
X78306443Y-62645533D01*
X78306443Y-62645534D01*
X78357963Y-62815373D01*
X78375359Y-62992000D01*
X78357963Y-63168627D01*
X78323616Y-63281853D01*
X78306443Y-63338467D01*
X78232348Y-63477087D01*
X78222778Y-63494991D01*
X78193448Y-63530729D01*
X78110186Y-63632186D01*
X78008729Y-63715448D01*
X77972991Y-63744778D01*
X77972989Y-63744779D01*
X77816467Y-63828443D01*
X77759853Y-63845616D01*
X77646627Y-63879963D01*
X77580442Y-63886482D01*
X77514260Y-63893000D01*
X77425740Y-63893000D01*
X77359558Y-63886482D01*
X77293373Y-63879963D01*
X77180147Y-63845616D01*
X77123533Y-63828443D01*
X76967011Y-63744779D01*
X76967009Y-63744778D01*
X76931271Y-63715448D01*
X76829814Y-63632186D01*
X76746552Y-63530729D01*
X76717222Y-63494991D01*
X76707652Y-63477087D01*
X76633557Y-63338467D01*
X76616384Y-63281853D01*
X76582037Y-63168627D01*
X76564641Y-62992000D01*
X76582037Y-62815373D01*
X76633557Y-62645534D01*
X76633557Y-62645533D01*
X76717221Y-62489011D01*
X76717222Y-62489009D01*
X76746552Y-62453271D01*
X76829814Y-62351814D01*
X76931271Y-62268552D01*
X76967009Y-62239222D01*
X76984913Y-62229652D01*
X77123533Y-62155557D01*
X77180147Y-62138384D01*
X77293373Y-62104037D01*
X77359557Y-62097519D01*
X77425740Y-62091000D01*
X77514260Y-62091000D01*
X77580443Y-62097519D01*
X77580443Y-62097519D01*
G37*
G36*
X113140443Y-62097519D02*
X113206627Y-62104037D01*
X113319853Y-62138384D01*
X113376467Y-62155557D01*
X113515087Y-62229652D01*
X113532991Y-62239222D01*
X113568729Y-62268552D01*
X113670186Y-62351814D01*
X113753448Y-62453271D01*
X113782778Y-62489009D01*
X113782779Y-62489011D01*
X113866443Y-62645533D01*
X113866443Y-62645534D01*
X113917963Y-62815373D01*
X113935359Y-62992000D01*
X113917963Y-63168627D01*
X113883616Y-63281853D01*
X113866443Y-63338467D01*
X113792348Y-63477087D01*
X113782778Y-63494991D01*
X113753448Y-63530729D01*
X113670186Y-63632186D01*
X113568729Y-63715448D01*
X113532991Y-63744778D01*
X113532989Y-63744779D01*
X113376467Y-63828443D01*
X113319853Y-63845616D01*
X113206627Y-63879963D01*
X113140442Y-63886482D01*
X113074260Y-63893000D01*
X112985740Y-63893000D01*
X112919558Y-63886482D01*
X112853373Y-63879963D01*
X112740147Y-63845616D01*
X112683533Y-63828443D01*
X112527011Y-63744779D01*
X112527009Y-63744778D01*
X112491271Y-63715448D01*
X112389814Y-63632186D01*
X112306552Y-63530729D01*
X112277222Y-63494991D01*
X112267652Y-63477087D01*
X112193557Y-63338467D01*
X112176384Y-63281853D01*
X112142037Y-63168627D01*
X112124641Y-62992000D01*
X112142037Y-62815373D01*
X112193557Y-62645534D01*
X112193557Y-62645533D01*
X112277221Y-62489011D01*
X112277222Y-62489009D01*
X112306552Y-62453271D01*
X112389814Y-62351814D01*
X112491271Y-62268552D01*
X112527009Y-62239222D01*
X112544913Y-62229652D01*
X112683533Y-62155557D01*
X112740147Y-62138384D01*
X112853373Y-62104037D01*
X112919557Y-62097519D01*
X112985740Y-62091000D01*
X113074260Y-62091000D01*
X113140443Y-62097519D01*
X113140443Y-62097519D01*
G37*
G36*
X115680443Y-62097519D02*
X115746627Y-62104037D01*
X115859853Y-62138384D01*
X115916467Y-62155557D01*
X116055087Y-62229652D01*
X116072991Y-62239222D01*
X116108729Y-62268552D01*
X116210186Y-62351814D01*
X116293448Y-62453271D01*
X116322778Y-62489009D01*
X116322779Y-62489011D01*
X116406443Y-62645533D01*
X116406443Y-62645534D01*
X116457963Y-62815373D01*
X116475359Y-62992000D01*
X116457963Y-63168627D01*
X116423616Y-63281853D01*
X116406443Y-63338467D01*
X116332348Y-63477087D01*
X116322778Y-63494991D01*
X116293448Y-63530729D01*
X116210186Y-63632186D01*
X116108729Y-63715448D01*
X116072991Y-63744778D01*
X116072989Y-63744779D01*
X115916467Y-63828443D01*
X115859853Y-63845616D01*
X115746627Y-63879963D01*
X115680442Y-63886482D01*
X115614260Y-63893000D01*
X115525740Y-63893000D01*
X115459558Y-63886482D01*
X115393373Y-63879963D01*
X115280147Y-63845616D01*
X115223533Y-63828443D01*
X115067011Y-63744779D01*
X115067009Y-63744778D01*
X115031271Y-63715448D01*
X114929814Y-63632186D01*
X114846552Y-63530729D01*
X114817222Y-63494991D01*
X114807652Y-63477087D01*
X114733557Y-63338467D01*
X114716384Y-63281853D01*
X114682037Y-63168627D01*
X114664641Y-62992000D01*
X114682037Y-62815373D01*
X114733557Y-62645534D01*
X114733557Y-62645533D01*
X114817221Y-62489011D01*
X114817222Y-62489009D01*
X114846552Y-62453271D01*
X114929814Y-62351814D01*
X115031271Y-62268552D01*
X115067009Y-62239222D01*
X115084913Y-62229652D01*
X115223533Y-62155557D01*
X115280147Y-62138384D01*
X115393373Y-62104037D01*
X115459557Y-62097519D01*
X115525740Y-62091000D01*
X115614260Y-62091000D01*
X115680443Y-62097519D01*
X115680443Y-62097519D01*
G37*
G36*
X118220443Y-62097519D02*
X118286627Y-62104037D01*
X118399853Y-62138384D01*
X118456467Y-62155557D01*
X118595087Y-62229652D01*
X118612991Y-62239222D01*
X118648729Y-62268552D01*
X118750186Y-62351814D01*
X118833448Y-62453271D01*
X118862778Y-62489009D01*
X118862779Y-62489011D01*
X118946443Y-62645533D01*
X118946443Y-62645534D01*
X118997963Y-62815373D01*
X119015359Y-62992000D01*
X118997963Y-63168627D01*
X118963616Y-63281853D01*
X118946443Y-63338467D01*
X118872348Y-63477087D01*
X118862778Y-63494991D01*
X118833448Y-63530729D01*
X118750186Y-63632186D01*
X118648729Y-63715448D01*
X118612991Y-63744778D01*
X118612989Y-63744779D01*
X118456467Y-63828443D01*
X118399853Y-63845616D01*
X118286627Y-63879963D01*
X118220442Y-63886482D01*
X118154260Y-63893000D01*
X118065740Y-63893000D01*
X117999558Y-63886482D01*
X117933373Y-63879963D01*
X117820147Y-63845616D01*
X117763533Y-63828443D01*
X117607011Y-63744779D01*
X117607009Y-63744778D01*
X117571271Y-63715448D01*
X117469814Y-63632186D01*
X117386552Y-63530729D01*
X117357222Y-63494991D01*
X117347652Y-63477087D01*
X117273557Y-63338467D01*
X117256384Y-63281853D01*
X117222037Y-63168627D01*
X117204641Y-62992000D01*
X117222037Y-62815373D01*
X117273557Y-62645534D01*
X117273557Y-62645533D01*
X117357221Y-62489011D01*
X117357222Y-62489009D01*
X117386552Y-62453271D01*
X117469814Y-62351814D01*
X117571271Y-62268552D01*
X117607009Y-62239222D01*
X117624913Y-62229652D01*
X117763533Y-62155557D01*
X117820147Y-62138384D01*
X117933373Y-62104037D01*
X117999557Y-62097519D01*
X118065740Y-62091000D01*
X118154260Y-62091000D01*
X118220443Y-62097519D01*
X118220443Y-62097519D01*
G37*
G36*
X120760443Y-62097519D02*
X120826627Y-62104037D01*
X120939853Y-62138384D01*
X120996467Y-62155557D01*
X121135087Y-62229652D01*
X121152991Y-62239222D01*
X121188729Y-62268552D01*
X121290186Y-62351814D01*
X121373448Y-62453271D01*
X121402778Y-62489009D01*
X121402779Y-62489011D01*
X121486443Y-62645533D01*
X121486443Y-62645534D01*
X121537963Y-62815373D01*
X121555359Y-62992000D01*
X121537963Y-63168627D01*
X121503616Y-63281853D01*
X121486443Y-63338467D01*
X121412348Y-63477087D01*
X121402778Y-63494991D01*
X121373448Y-63530729D01*
X121290186Y-63632186D01*
X121188729Y-63715448D01*
X121152991Y-63744778D01*
X121152989Y-63744779D01*
X120996467Y-63828443D01*
X120939853Y-63845616D01*
X120826627Y-63879963D01*
X120760442Y-63886482D01*
X120694260Y-63893000D01*
X120605740Y-63893000D01*
X120539558Y-63886482D01*
X120473373Y-63879963D01*
X120360147Y-63845616D01*
X120303533Y-63828443D01*
X120147011Y-63744779D01*
X120147009Y-63744778D01*
X120111271Y-63715448D01*
X120009814Y-63632186D01*
X119926552Y-63530729D01*
X119897222Y-63494991D01*
X119887652Y-63477087D01*
X119813557Y-63338467D01*
X119796384Y-63281853D01*
X119762037Y-63168627D01*
X119744641Y-62992000D01*
X119762037Y-62815373D01*
X119813557Y-62645534D01*
X119813557Y-62645533D01*
X119897221Y-62489011D01*
X119897222Y-62489009D01*
X119926552Y-62453271D01*
X120009814Y-62351814D01*
X120111271Y-62268552D01*
X120147009Y-62239222D01*
X120164913Y-62229652D01*
X120303533Y-62155557D01*
X120360147Y-62138384D01*
X120473373Y-62104037D01*
X120539557Y-62097519D01*
X120605740Y-62091000D01*
X120694260Y-62091000D01*
X120760443Y-62097519D01*
X120760443Y-62097519D01*
G37*
G36*
X123300443Y-62097519D02*
X123366627Y-62104037D01*
X123479853Y-62138384D01*
X123536467Y-62155557D01*
X123675087Y-62229652D01*
X123692991Y-62239222D01*
X123728729Y-62268552D01*
X123830186Y-62351814D01*
X123913448Y-62453271D01*
X123942778Y-62489009D01*
X123942779Y-62489011D01*
X124026443Y-62645533D01*
X124026443Y-62645534D01*
X124077963Y-62815373D01*
X124095359Y-62992000D01*
X124077963Y-63168627D01*
X124043616Y-63281853D01*
X124026443Y-63338467D01*
X123952348Y-63477087D01*
X123942778Y-63494991D01*
X123913448Y-63530729D01*
X123830186Y-63632186D01*
X123728729Y-63715448D01*
X123692991Y-63744778D01*
X123692989Y-63744779D01*
X123536467Y-63828443D01*
X123479853Y-63845616D01*
X123366627Y-63879963D01*
X123300442Y-63886482D01*
X123234260Y-63893000D01*
X123145740Y-63893000D01*
X123079558Y-63886482D01*
X123013373Y-63879963D01*
X122900147Y-63845616D01*
X122843533Y-63828443D01*
X122687011Y-63744779D01*
X122687009Y-63744778D01*
X122651271Y-63715448D01*
X122549814Y-63632186D01*
X122466552Y-63530729D01*
X122437222Y-63494991D01*
X122427652Y-63477087D01*
X122353557Y-63338467D01*
X122336384Y-63281853D01*
X122302037Y-63168627D01*
X122284641Y-62992000D01*
X122302037Y-62815373D01*
X122353557Y-62645534D01*
X122353557Y-62645533D01*
X122437221Y-62489011D01*
X122437222Y-62489009D01*
X122466552Y-62453271D01*
X122549814Y-62351814D01*
X122651271Y-62268552D01*
X122687009Y-62239222D01*
X122704913Y-62229652D01*
X122843533Y-62155557D01*
X122900147Y-62138384D01*
X123013373Y-62104037D01*
X123079557Y-62097519D01*
X123145740Y-62091000D01*
X123234260Y-62091000D01*
X123300443Y-62097519D01*
X123300443Y-62097519D01*
G37*
G36*
X125840443Y-62097519D02*
X125906627Y-62104037D01*
X126019853Y-62138384D01*
X126076467Y-62155557D01*
X126215087Y-62229652D01*
X126232991Y-62239222D01*
X126268729Y-62268552D01*
X126370186Y-62351814D01*
X126453448Y-62453271D01*
X126482778Y-62489009D01*
X126482779Y-62489011D01*
X126566443Y-62645533D01*
X126566443Y-62645534D01*
X126617963Y-62815373D01*
X126635359Y-62992000D01*
X126617963Y-63168627D01*
X126583616Y-63281853D01*
X126566443Y-63338467D01*
X126492348Y-63477087D01*
X126482778Y-63494991D01*
X126453448Y-63530729D01*
X126370186Y-63632186D01*
X126268729Y-63715448D01*
X126232991Y-63744778D01*
X126232989Y-63744779D01*
X126076467Y-63828443D01*
X126019853Y-63845616D01*
X125906627Y-63879963D01*
X125840442Y-63886482D01*
X125774260Y-63893000D01*
X125685740Y-63893000D01*
X125619558Y-63886482D01*
X125553373Y-63879963D01*
X125440147Y-63845616D01*
X125383533Y-63828443D01*
X125227011Y-63744779D01*
X125227009Y-63744778D01*
X125191271Y-63715448D01*
X125089814Y-63632186D01*
X125006552Y-63530729D01*
X124977222Y-63494991D01*
X124967652Y-63477087D01*
X124893557Y-63338467D01*
X124876384Y-63281853D01*
X124842037Y-63168627D01*
X124824641Y-62992000D01*
X124842037Y-62815373D01*
X124893557Y-62645534D01*
X124893557Y-62645533D01*
X124977221Y-62489011D01*
X124977222Y-62489009D01*
X125006552Y-62453271D01*
X125089814Y-62351814D01*
X125191271Y-62268552D01*
X125227009Y-62239222D01*
X125244913Y-62229652D01*
X125383533Y-62155557D01*
X125440147Y-62138384D01*
X125553373Y-62104037D01*
X125619557Y-62097519D01*
X125685740Y-62091000D01*
X125774260Y-62091000D01*
X125840443Y-62097519D01*
X125840443Y-62097519D01*
G37*
G36*
X128380443Y-62097519D02*
X128446627Y-62104037D01*
X128559853Y-62138384D01*
X128616467Y-62155557D01*
X128755087Y-62229652D01*
X128772991Y-62239222D01*
X128808729Y-62268552D01*
X128910186Y-62351814D01*
X128993448Y-62453271D01*
X129022778Y-62489009D01*
X129022779Y-62489011D01*
X129106443Y-62645533D01*
X129106443Y-62645534D01*
X129157963Y-62815373D01*
X129175359Y-62992000D01*
X129157963Y-63168627D01*
X129123616Y-63281853D01*
X129106443Y-63338467D01*
X129032348Y-63477087D01*
X129022778Y-63494991D01*
X128993448Y-63530729D01*
X128910186Y-63632186D01*
X128808729Y-63715448D01*
X128772991Y-63744778D01*
X128772989Y-63744779D01*
X128616467Y-63828443D01*
X128559853Y-63845616D01*
X128446627Y-63879963D01*
X128380442Y-63886482D01*
X128314260Y-63893000D01*
X128225740Y-63893000D01*
X128159558Y-63886482D01*
X128093373Y-63879963D01*
X127980147Y-63845616D01*
X127923533Y-63828443D01*
X127767011Y-63744779D01*
X127767009Y-63744778D01*
X127731271Y-63715448D01*
X127629814Y-63632186D01*
X127546552Y-63530729D01*
X127517222Y-63494991D01*
X127507652Y-63477087D01*
X127433557Y-63338467D01*
X127416384Y-63281853D01*
X127382037Y-63168627D01*
X127364641Y-62992000D01*
X127382037Y-62815373D01*
X127433557Y-62645534D01*
X127433557Y-62645533D01*
X127517221Y-62489011D01*
X127517222Y-62489009D01*
X127546552Y-62453271D01*
X127629814Y-62351814D01*
X127731271Y-62268552D01*
X127767009Y-62239222D01*
X127784913Y-62229652D01*
X127923533Y-62155557D01*
X127980147Y-62138384D01*
X128093373Y-62104037D01*
X128159557Y-62097519D01*
X128225740Y-62091000D01*
X128314260Y-62091000D01*
X128380443Y-62097519D01*
X128380443Y-62097519D01*
G37*
G36*
X130920443Y-62097519D02*
X130986627Y-62104037D01*
X131099853Y-62138384D01*
X131156467Y-62155557D01*
X131295087Y-62229652D01*
X131312991Y-62239222D01*
X131348729Y-62268552D01*
X131450186Y-62351814D01*
X131533448Y-62453271D01*
X131562778Y-62489009D01*
X131562779Y-62489011D01*
X131646443Y-62645533D01*
X131646443Y-62645534D01*
X131697963Y-62815373D01*
X131715359Y-62992000D01*
X131697963Y-63168627D01*
X131663616Y-63281853D01*
X131646443Y-63338467D01*
X131572348Y-63477087D01*
X131562778Y-63494991D01*
X131533448Y-63530729D01*
X131450186Y-63632186D01*
X131348729Y-63715448D01*
X131312991Y-63744778D01*
X131312989Y-63744779D01*
X131156467Y-63828443D01*
X131099853Y-63845616D01*
X130986627Y-63879963D01*
X130920442Y-63886482D01*
X130854260Y-63893000D01*
X130765740Y-63893000D01*
X130699558Y-63886482D01*
X130633373Y-63879963D01*
X130520147Y-63845616D01*
X130463533Y-63828443D01*
X130307011Y-63744779D01*
X130307009Y-63744778D01*
X130271271Y-63715448D01*
X130169814Y-63632186D01*
X130086552Y-63530729D01*
X130057222Y-63494991D01*
X130047652Y-63477087D01*
X129973557Y-63338467D01*
X129956384Y-63281853D01*
X129922037Y-63168627D01*
X129904641Y-62992000D01*
X129922037Y-62815373D01*
X129973557Y-62645534D01*
X129973557Y-62645533D01*
X130057221Y-62489011D01*
X130057222Y-62489009D01*
X130086552Y-62453271D01*
X130169814Y-62351814D01*
X130271271Y-62268552D01*
X130307009Y-62239222D01*
X130324913Y-62229652D01*
X130463533Y-62155557D01*
X130520147Y-62138384D01*
X130633373Y-62104037D01*
X130699557Y-62097519D01*
X130765740Y-62091000D01*
X130854260Y-62091000D01*
X130920443Y-62097519D01*
X130920443Y-62097519D01*
G37*
G36*
X133460443Y-62097519D02*
X133526627Y-62104037D01*
X133639853Y-62138384D01*
X133696467Y-62155557D01*
X133835087Y-62229652D01*
X133852991Y-62239222D01*
X133888729Y-62268552D01*
X133990186Y-62351814D01*
X134073448Y-62453271D01*
X134102778Y-62489009D01*
X134102779Y-62489011D01*
X134186443Y-62645533D01*
X134186443Y-62645534D01*
X134237963Y-62815373D01*
X134255359Y-62992000D01*
X134237963Y-63168627D01*
X134203616Y-63281853D01*
X134186443Y-63338467D01*
X134112348Y-63477087D01*
X134102778Y-63494991D01*
X134073448Y-63530729D01*
X133990186Y-63632186D01*
X133888729Y-63715448D01*
X133852991Y-63744778D01*
X133852989Y-63744779D01*
X133696467Y-63828443D01*
X133639853Y-63845616D01*
X133526627Y-63879963D01*
X133460442Y-63886482D01*
X133394260Y-63893000D01*
X133305740Y-63893000D01*
X133239558Y-63886482D01*
X133173373Y-63879963D01*
X133060147Y-63845616D01*
X133003533Y-63828443D01*
X132847011Y-63744779D01*
X132847009Y-63744778D01*
X132811271Y-63715448D01*
X132709814Y-63632186D01*
X132626552Y-63530729D01*
X132597222Y-63494991D01*
X132587652Y-63477087D01*
X132513557Y-63338467D01*
X132496384Y-63281853D01*
X132462037Y-63168627D01*
X132444641Y-62992000D01*
X132462037Y-62815373D01*
X132513557Y-62645534D01*
X132513557Y-62645533D01*
X132597221Y-62489011D01*
X132597222Y-62489009D01*
X132626552Y-62453271D01*
X132709814Y-62351814D01*
X132811271Y-62268552D01*
X132847009Y-62239222D01*
X132864913Y-62229652D01*
X133003533Y-62155557D01*
X133060147Y-62138384D01*
X133173373Y-62104037D01*
X133239557Y-62097519D01*
X133305740Y-62091000D01*
X133394260Y-62091000D01*
X133460443Y-62097519D01*
X133460443Y-62097519D01*
G37*
G36*
X136000443Y-62097519D02*
X136066627Y-62104037D01*
X136179853Y-62138384D01*
X136236467Y-62155557D01*
X136375087Y-62229652D01*
X136392991Y-62239222D01*
X136428729Y-62268552D01*
X136530186Y-62351814D01*
X136613448Y-62453271D01*
X136642778Y-62489009D01*
X136642779Y-62489011D01*
X136726443Y-62645533D01*
X136726443Y-62645534D01*
X136777963Y-62815373D01*
X136795359Y-62992000D01*
X136777963Y-63168627D01*
X136743616Y-63281853D01*
X136726443Y-63338467D01*
X136652348Y-63477087D01*
X136642778Y-63494991D01*
X136613448Y-63530729D01*
X136530186Y-63632186D01*
X136428729Y-63715448D01*
X136392991Y-63744778D01*
X136392989Y-63744779D01*
X136236467Y-63828443D01*
X136179853Y-63845616D01*
X136066627Y-63879963D01*
X136000442Y-63886482D01*
X135934260Y-63893000D01*
X135845740Y-63893000D01*
X135779558Y-63886482D01*
X135713373Y-63879963D01*
X135600147Y-63845616D01*
X135543533Y-63828443D01*
X135387011Y-63744779D01*
X135387009Y-63744778D01*
X135351271Y-63715448D01*
X135249814Y-63632186D01*
X135166552Y-63530729D01*
X135137222Y-63494991D01*
X135127652Y-63477087D01*
X135053557Y-63338467D01*
X135036384Y-63281853D01*
X135002037Y-63168627D01*
X134984641Y-62992000D01*
X135002037Y-62815373D01*
X135053557Y-62645534D01*
X135053557Y-62645533D01*
X135137221Y-62489011D01*
X135137222Y-62489009D01*
X135166552Y-62453271D01*
X135249814Y-62351814D01*
X135351271Y-62268552D01*
X135387009Y-62239222D01*
X135404913Y-62229652D01*
X135543533Y-62155557D01*
X135600147Y-62138384D01*
X135713373Y-62104037D01*
X135779557Y-62097519D01*
X135845740Y-62091000D01*
X135934260Y-62091000D01*
X136000443Y-62097519D01*
X136000443Y-62097519D01*
G37*
G36*
X138540443Y-62097519D02*
X138606627Y-62104037D01*
X138719853Y-62138384D01*
X138776467Y-62155557D01*
X138915087Y-62229652D01*
X138932991Y-62239222D01*
X138968729Y-62268552D01*
X139070186Y-62351814D01*
X139153448Y-62453271D01*
X139182778Y-62489009D01*
X139182779Y-62489011D01*
X139266443Y-62645533D01*
X139266443Y-62645534D01*
X139317963Y-62815373D01*
X139335359Y-62992000D01*
X139317963Y-63168627D01*
X139283616Y-63281853D01*
X139266443Y-63338467D01*
X139192348Y-63477087D01*
X139182778Y-63494991D01*
X139153448Y-63530729D01*
X139070186Y-63632186D01*
X138968729Y-63715448D01*
X138932991Y-63744778D01*
X138932989Y-63744779D01*
X138776467Y-63828443D01*
X138719853Y-63845616D01*
X138606627Y-63879963D01*
X138540442Y-63886482D01*
X138474260Y-63893000D01*
X138385740Y-63893000D01*
X138319558Y-63886482D01*
X138253373Y-63879963D01*
X138140147Y-63845616D01*
X138083533Y-63828443D01*
X137927011Y-63744779D01*
X137927009Y-63744778D01*
X137891271Y-63715448D01*
X137789814Y-63632186D01*
X137706552Y-63530729D01*
X137677222Y-63494991D01*
X137667652Y-63477087D01*
X137593557Y-63338467D01*
X137576384Y-63281853D01*
X137542037Y-63168627D01*
X137524641Y-62992000D01*
X137542037Y-62815373D01*
X137593557Y-62645534D01*
X137593557Y-62645533D01*
X137677221Y-62489011D01*
X137677222Y-62489009D01*
X137706552Y-62453271D01*
X137789814Y-62351814D01*
X137891271Y-62268552D01*
X137927009Y-62239222D01*
X137944913Y-62229652D01*
X138083533Y-62155557D01*
X138140147Y-62138384D01*
X138253373Y-62104037D01*
X138319557Y-62097519D01*
X138385740Y-62091000D01*
X138474260Y-62091000D01*
X138540443Y-62097519D01*
X138540443Y-62097519D01*
G37*
G36*
X110600443Y-62097519D02*
X110666627Y-62104037D01*
X110779853Y-62138384D01*
X110836467Y-62155557D01*
X110975087Y-62229652D01*
X110992991Y-62239222D01*
X111028729Y-62268552D01*
X111130186Y-62351814D01*
X111213448Y-62453271D01*
X111242778Y-62489009D01*
X111242779Y-62489011D01*
X111326443Y-62645533D01*
X111326443Y-62645534D01*
X111377963Y-62815373D01*
X111395359Y-62992000D01*
X111377963Y-63168627D01*
X111343616Y-63281853D01*
X111326443Y-63338467D01*
X111252348Y-63477087D01*
X111242778Y-63494991D01*
X111213448Y-63530729D01*
X111130186Y-63632186D01*
X111028729Y-63715448D01*
X110992991Y-63744778D01*
X110992989Y-63744779D01*
X110836467Y-63828443D01*
X110779853Y-63845616D01*
X110666627Y-63879963D01*
X110600442Y-63886482D01*
X110534260Y-63893000D01*
X110445740Y-63893000D01*
X110379558Y-63886482D01*
X110313373Y-63879963D01*
X110200147Y-63845616D01*
X110143533Y-63828443D01*
X109987011Y-63744779D01*
X109987009Y-63744778D01*
X109951271Y-63715448D01*
X109849814Y-63632186D01*
X109766552Y-63530729D01*
X109737222Y-63494991D01*
X109727652Y-63477087D01*
X109653557Y-63338467D01*
X109636384Y-63281853D01*
X109602037Y-63168627D01*
X109584641Y-62992000D01*
X109602037Y-62815373D01*
X109653557Y-62645534D01*
X109653557Y-62645533D01*
X109737221Y-62489011D01*
X109737222Y-62489009D01*
X109766552Y-62453271D01*
X109849814Y-62351814D01*
X109951271Y-62268552D01*
X109987009Y-62239222D01*
X110004913Y-62229652D01*
X110143533Y-62155557D01*
X110200147Y-62138384D01*
X110313373Y-62104037D01*
X110379557Y-62097519D01*
X110445740Y-62091000D01*
X110534260Y-62091000D01*
X110600443Y-62097519D01*
X110600443Y-62097519D01*
G37*
G36*
X80120443Y-62097519D02*
X80186627Y-62104037D01*
X80299853Y-62138384D01*
X80356467Y-62155557D01*
X80495087Y-62229652D01*
X80512991Y-62239222D01*
X80548729Y-62268552D01*
X80650186Y-62351814D01*
X80733448Y-62453271D01*
X80762778Y-62489009D01*
X80762779Y-62489011D01*
X80846443Y-62645533D01*
X80846443Y-62645534D01*
X80897963Y-62815373D01*
X80915359Y-62992000D01*
X80897963Y-63168627D01*
X80863616Y-63281853D01*
X80846443Y-63338467D01*
X80772348Y-63477087D01*
X80762778Y-63494991D01*
X80733448Y-63530729D01*
X80650186Y-63632186D01*
X80548729Y-63715448D01*
X80512991Y-63744778D01*
X80512989Y-63744779D01*
X80356467Y-63828443D01*
X80299853Y-63845616D01*
X80186627Y-63879963D01*
X80120442Y-63886482D01*
X80054260Y-63893000D01*
X79965740Y-63893000D01*
X79899558Y-63886482D01*
X79833373Y-63879963D01*
X79720147Y-63845616D01*
X79663533Y-63828443D01*
X79507011Y-63744779D01*
X79507009Y-63744778D01*
X79471271Y-63715448D01*
X79369814Y-63632186D01*
X79286552Y-63530729D01*
X79257222Y-63494991D01*
X79247652Y-63477087D01*
X79173557Y-63338467D01*
X79156384Y-63281853D01*
X79122037Y-63168627D01*
X79104641Y-62992000D01*
X79122037Y-62815373D01*
X79173557Y-62645534D01*
X79173557Y-62645533D01*
X79257221Y-62489011D01*
X79257222Y-62489009D01*
X79286552Y-62453271D01*
X79369814Y-62351814D01*
X79471271Y-62268552D01*
X79507009Y-62239222D01*
X79524913Y-62229652D01*
X79663533Y-62155557D01*
X79720147Y-62138384D01*
X79833373Y-62104037D01*
X79899557Y-62097519D01*
X79965740Y-62091000D01*
X80054260Y-62091000D01*
X80120443Y-62097519D01*
X80120443Y-62097519D01*
G37*
M02*
