G04 #@! TF.GenerationSoftware,KiCad,Pcbnew,(5.0.0)*
G04 #@! TF.CreationDate,2018-10-29T19:26:44-07:00*
G04 #@! TF.ProjectId,tester_v2,7465737465725F76322E6B696361645F,rev?*
G04 #@! TF.SameCoordinates,Original*
G04 #@! TF.FileFunction,Soldermask,Top*
G04 #@! TF.FilePolarity,Negative*
%FSLAX46Y46*%
G04 Gerber Fmt 4.6, Leading zero omitted, Abs format (unit mm)*
G04 Created by KiCad (PCBNEW (5.0.0)) date 10/29/18 19:26:44*
%MOMM*%
%LPD*%
G01*
G04 APERTURE LIST*
%ADD10O,2.400000X1.600000*%
%ADD11R,1.466800X1.466800*%
%ADD12R,2.900000X1.400000*%
%ADD13R,1.400000X2.000000*%
%ADD14R,1.150000X1.200000*%
%ADD15R,1.200000X1.150000*%
%ADD16R,1.600000X1.600000*%
%ADD17O,2.900000X5.400000*%
%ADD18O,5.400000X2.900000*%
%ADD19O,2.100000X2.100000*%
%ADD20R,2.100000X2.100000*%
%ADD21R,1.100000X4.800000*%
%ADD22R,1.100000X1.700000*%
%ADD23R,1.400000X0.685000*%
G04 APERTURE END LIST*
D10*
G04 #@! TO.C,A1*
X145160000Y-68570000D03*
X124840000Y-68570000D03*
X145160000Y-71110000D03*
X124840000Y-71110000D03*
X145160000Y-73650000D03*
X124840000Y-73650000D03*
X145160000Y-76190000D03*
X124840000Y-76190000D03*
X145160000Y-78730000D03*
X124840000Y-78730000D03*
X145160000Y-81270000D03*
X124840000Y-81270000D03*
X145160000Y-83810000D03*
X124840000Y-83810000D03*
X145160000Y-86350000D03*
X124840000Y-86350000D03*
X145160000Y-88890000D03*
X124840000Y-88890000D03*
X145160000Y-91430000D03*
X124840000Y-91430000D03*
G04 #@! TD*
D11*
G04 #@! TO.C,A2*
X162428000Y-86000000D03*
X162428000Y-88286000D03*
X162428000Y-90572000D03*
X162428000Y-81428000D03*
X162428000Y-83714000D03*
X164714000Y-86000000D03*
X164714000Y-88286000D03*
X164714000Y-90572000D03*
X164714000Y-81428000D03*
X164714000Y-83714000D03*
X167000000Y-90572000D03*
X167000000Y-88286000D03*
X167000000Y-83714000D03*
X167000000Y-86000000D03*
X167000000Y-81428000D03*
X157856000Y-90572000D03*
X157856000Y-88286000D03*
X157856000Y-83714000D03*
X157856000Y-86000000D03*
X157856000Y-81428000D03*
X160142000Y-81428000D03*
X160142000Y-83714000D03*
X160142000Y-88286000D03*
X160142000Y-86000000D03*
X160142000Y-90572000D03*
G04 #@! TD*
D12*
G04 #@! TO.C,C1*
X172000000Y-85500000D03*
X172000000Y-82500000D03*
G04 #@! TD*
D13*
G04 #@! TO.C,C2*
X170000000Y-95000000D03*
X167000000Y-95000000D03*
G04 #@! TD*
D14*
G04 #@! TO.C,C4*
X100550000Y-107400000D03*
X100550000Y-108900000D03*
G04 #@! TD*
D15*
G04 #@! TO.C,C5*
X185400000Y-106200000D03*
X186900000Y-106200000D03*
G04 #@! TD*
D16*
G04 #@! TO.C,D1*
X178300000Y-91000000D03*
X176100000Y-91000000D03*
G04 #@! TD*
D17*
G04 #@! TO.C,J1*
X189250000Y-82600000D03*
X195250000Y-82600000D03*
D18*
X192250000Y-77900000D03*
G04 #@! TD*
D19*
G04 #@! TO.C,J2*
X128330000Y-101450000D03*
X125790000Y-101450000D03*
D20*
X123250000Y-101450000D03*
G04 #@! TD*
D21*
G04 #@! TO.C,P1*
X82000000Y-136000000D03*
X83000000Y-136000000D03*
X84000000Y-136000000D03*
X85000000Y-136000000D03*
X86000000Y-136000000D03*
X87000000Y-136000000D03*
X88000000Y-136000000D03*
X89000000Y-136000000D03*
X90000000Y-136000000D03*
X91000000Y-136000000D03*
X92000000Y-136000000D03*
X95000000Y-136000000D03*
X96000000Y-136000000D03*
X97000000Y-136000000D03*
X98000000Y-136000000D03*
X99000000Y-136000000D03*
X100000000Y-136000000D03*
X101000000Y-136000000D03*
X102000000Y-136000000D03*
X103000000Y-136000000D03*
X104000000Y-136000000D03*
X105000000Y-136000000D03*
X106000000Y-136000000D03*
X107000000Y-136000000D03*
X108000000Y-136000000D03*
X109000000Y-136000000D03*
X110000000Y-136000000D03*
X111000000Y-136000000D03*
X112000000Y-136000000D03*
X113000000Y-136000000D03*
X114000000Y-136000000D03*
X115000000Y-136000000D03*
X116000000Y-136000000D03*
X117000000Y-136000000D03*
X118000000Y-136000000D03*
X119000000Y-136000000D03*
X120000000Y-136000000D03*
X121000000Y-136000000D03*
X122000000Y-136000000D03*
X123000000Y-136000000D03*
X124000000Y-136000000D03*
X125000000Y-136000000D03*
X126000000Y-136000000D03*
X127000000Y-136000000D03*
X128000000Y-136000000D03*
X129000000Y-136000000D03*
X130000000Y-136000000D03*
X131000000Y-136000000D03*
X132000000Y-136000000D03*
X142000000Y-136000000D03*
X155000000Y-136000000D03*
X143000000Y-136000000D03*
X144000000Y-136000000D03*
X145000000Y-136000000D03*
X146000000Y-136000000D03*
X147000000Y-136000000D03*
X148000000Y-136000000D03*
X149000000Y-136000000D03*
X150000000Y-136000000D03*
X151000000Y-136000000D03*
X152000000Y-136000000D03*
X156000000Y-136000000D03*
X157000000Y-136000000D03*
X158000000Y-136000000D03*
X159000000Y-136000000D03*
X160000000Y-136000000D03*
X161000000Y-136000000D03*
X162000000Y-136000000D03*
X163000000Y-136000000D03*
X164000000Y-136000000D03*
X165000000Y-136000000D03*
X166000000Y-136000000D03*
X167000000Y-136000000D03*
X168000000Y-136000000D03*
X169000000Y-136000000D03*
X170000000Y-136000000D03*
X171000000Y-136000000D03*
X172000000Y-136000000D03*
X173000000Y-136000000D03*
X174000000Y-136000000D03*
X175000000Y-136000000D03*
X176000000Y-136000000D03*
X177000000Y-136000000D03*
X178000000Y-136000000D03*
X179000000Y-136000000D03*
X180000000Y-136000000D03*
X181000000Y-136000000D03*
X182000000Y-136000000D03*
X183000000Y-136000000D03*
X184000000Y-136000000D03*
X185000000Y-136000000D03*
X186000000Y-136000000D03*
X187000000Y-136000000D03*
X188000000Y-136000000D03*
X189000000Y-136000000D03*
X190000000Y-136000000D03*
X191000000Y-136000000D03*
X192000000Y-136000000D03*
G04 #@! TD*
D22*
G04 #@! TO.C,R1*
X148150000Y-88850000D03*
X150050000Y-88850000D03*
G04 #@! TD*
G04 #@! TO.C,R2*
X149350000Y-91600000D03*
X151250000Y-91600000D03*
G04 #@! TD*
G04 #@! TO.C,R3*
X133000000Y-101900000D03*
X134900000Y-101900000D03*
G04 #@! TD*
G04 #@! TO.C,R4*
X136350000Y-105650000D03*
X134450000Y-105650000D03*
G04 #@! TD*
G04 #@! TO.C,R5*
X171650000Y-91000000D03*
X173550000Y-91000000D03*
G04 #@! TD*
D23*
G04 #@! TO.C,U1*
X156750000Y-114750000D03*
X156750000Y-114250000D03*
X156750000Y-113750000D03*
X156750000Y-113250000D03*
X156750000Y-112750000D03*
X156750000Y-112250000D03*
X156750000Y-111750000D03*
X156750000Y-111250000D03*
X156750000Y-110750000D03*
X156750000Y-110250000D03*
X156750000Y-109750000D03*
X156750000Y-109250000D03*
X156750000Y-108750000D03*
X156750000Y-108250000D03*
X156750000Y-107750000D03*
X156750000Y-107250000D03*
X156750000Y-106750000D03*
X156750000Y-106250000D03*
X156750000Y-105750000D03*
X156750000Y-105250000D03*
X156750000Y-104750000D03*
X156750000Y-104250000D03*
X156750000Y-103750000D03*
X156750000Y-103250000D03*
X156750000Y-102750000D03*
X156750000Y-102250000D03*
X156750000Y-101750000D03*
X156750000Y-101250000D03*
X149250000Y-101250000D03*
X149250000Y-101750000D03*
X149250000Y-102250000D03*
X149250000Y-102750000D03*
X149250000Y-103250000D03*
X149250000Y-103750000D03*
X149250000Y-104250000D03*
X149250000Y-104750000D03*
X149250000Y-105250000D03*
X149250000Y-105750000D03*
X149250000Y-106250000D03*
X149250000Y-106750000D03*
X149250000Y-107250000D03*
X149250000Y-107750000D03*
X149250000Y-108250000D03*
X149250000Y-108750000D03*
X149250000Y-109250000D03*
X149250000Y-109750000D03*
X149250000Y-110250000D03*
X149250000Y-110750000D03*
X149250000Y-111250000D03*
X149250000Y-111750000D03*
X149250000Y-112250000D03*
X149250000Y-112750000D03*
X149250000Y-113250000D03*
X149250000Y-113750000D03*
X149250000Y-114250000D03*
X149250000Y-114750000D03*
G04 #@! TD*
G04 #@! TO.C,U2*
X175250000Y-114750000D03*
X175250000Y-114250000D03*
X175250000Y-113750000D03*
X175250000Y-113250000D03*
X175250000Y-112750000D03*
X175250000Y-112250000D03*
X175250000Y-111750000D03*
X175250000Y-111250000D03*
X175250000Y-110750000D03*
X175250000Y-110250000D03*
X175250000Y-109750000D03*
X175250000Y-109250000D03*
X175250000Y-108750000D03*
X175250000Y-108250000D03*
X175250000Y-107750000D03*
X175250000Y-107250000D03*
X175250000Y-106750000D03*
X175250000Y-106250000D03*
X175250000Y-105750000D03*
X175250000Y-105250000D03*
X175250000Y-104750000D03*
X175250000Y-104250000D03*
X175250000Y-103750000D03*
X175250000Y-103250000D03*
X175250000Y-102750000D03*
X175250000Y-102250000D03*
X175250000Y-101750000D03*
X175250000Y-101250000D03*
X182750000Y-101250000D03*
X182750000Y-101750000D03*
X182750000Y-102250000D03*
X182750000Y-102750000D03*
X182750000Y-103250000D03*
X182750000Y-103750000D03*
X182750000Y-104250000D03*
X182750000Y-104750000D03*
X182750000Y-105250000D03*
X182750000Y-105750000D03*
X182750000Y-106250000D03*
X182750000Y-106750000D03*
X182750000Y-107250000D03*
X182750000Y-107750000D03*
X182750000Y-108250000D03*
X182750000Y-108750000D03*
X182750000Y-109250000D03*
X182750000Y-109750000D03*
X182750000Y-110250000D03*
X182750000Y-110750000D03*
X182750000Y-111250000D03*
X182750000Y-111750000D03*
X182750000Y-112250000D03*
X182750000Y-112750000D03*
X182750000Y-113250000D03*
X182750000Y-113750000D03*
X182750000Y-114250000D03*
X182750000Y-114750000D03*
G04 #@! TD*
G04 #@! TO.C,U3*
X97750000Y-114750000D03*
X97750000Y-114250000D03*
X97750000Y-113750000D03*
X97750000Y-113250000D03*
X97750000Y-112750000D03*
X97750000Y-112250000D03*
X97750000Y-111750000D03*
X97750000Y-111250000D03*
X97750000Y-110750000D03*
X97750000Y-110250000D03*
X97750000Y-109750000D03*
X97750000Y-109250000D03*
X97750000Y-108750000D03*
X97750000Y-108250000D03*
X97750000Y-107750000D03*
X97750000Y-107250000D03*
X97750000Y-106750000D03*
X97750000Y-106250000D03*
X97750000Y-105750000D03*
X97750000Y-105250000D03*
X97750000Y-104750000D03*
X97750000Y-104250000D03*
X97750000Y-103750000D03*
X97750000Y-103250000D03*
X97750000Y-102750000D03*
X97750000Y-102250000D03*
X97750000Y-101750000D03*
X97750000Y-101250000D03*
X90250000Y-101250000D03*
X90250000Y-101750000D03*
X90250000Y-102250000D03*
X90250000Y-102750000D03*
X90250000Y-103250000D03*
X90250000Y-103750000D03*
X90250000Y-104250000D03*
X90250000Y-104750000D03*
X90250000Y-105250000D03*
X90250000Y-105750000D03*
X90250000Y-106250000D03*
X90250000Y-106750000D03*
X90250000Y-107250000D03*
X90250000Y-107750000D03*
X90250000Y-108250000D03*
X90250000Y-108750000D03*
X90250000Y-109250000D03*
X90250000Y-109750000D03*
X90250000Y-110250000D03*
X90250000Y-110750000D03*
X90250000Y-111250000D03*
X90250000Y-111750000D03*
X90250000Y-112250000D03*
X90250000Y-112750000D03*
X90250000Y-113250000D03*
X90250000Y-113750000D03*
X90250000Y-114250000D03*
X90250000Y-114750000D03*
G04 #@! TD*
G04 #@! TO.C,U4*
X112250000Y-114750000D03*
X112250000Y-114250000D03*
X112250000Y-113750000D03*
X112250000Y-113250000D03*
X112250000Y-112750000D03*
X112250000Y-112250000D03*
X112250000Y-111750000D03*
X112250000Y-111250000D03*
X112250000Y-110750000D03*
X112250000Y-110250000D03*
X112250000Y-109750000D03*
X112250000Y-109250000D03*
X112250000Y-108750000D03*
X112250000Y-108250000D03*
X112250000Y-107750000D03*
X112250000Y-107250000D03*
X112250000Y-106750000D03*
X112250000Y-106250000D03*
X112250000Y-105750000D03*
X112250000Y-105250000D03*
X112250000Y-104750000D03*
X112250000Y-104250000D03*
X112250000Y-103750000D03*
X112250000Y-103250000D03*
X112250000Y-102750000D03*
X112250000Y-102250000D03*
X112250000Y-101750000D03*
X112250000Y-101250000D03*
X119750000Y-101250000D03*
X119750000Y-101750000D03*
X119750000Y-102250000D03*
X119750000Y-102750000D03*
X119750000Y-103250000D03*
X119750000Y-103750000D03*
X119750000Y-104250000D03*
X119750000Y-104750000D03*
X119750000Y-105250000D03*
X119750000Y-105750000D03*
X119750000Y-106250000D03*
X119750000Y-106750000D03*
X119750000Y-107250000D03*
X119750000Y-107750000D03*
X119750000Y-108250000D03*
X119750000Y-108750000D03*
X119750000Y-109250000D03*
X119750000Y-109750000D03*
X119750000Y-110250000D03*
X119750000Y-110750000D03*
X119750000Y-111250000D03*
X119750000Y-111750000D03*
X119750000Y-112250000D03*
X119750000Y-112750000D03*
X119750000Y-113250000D03*
X119750000Y-113750000D03*
X119750000Y-114250000D03*
X119750000Y-114750000D03*
G04 #@! TD*
D15*
G04 #@! TO.C,C3*
X86550000Y-109650000D03*
X85050000Y-109650000D03*
G04 #@! TD*
G04 #@! TO.C,C8*
X122350000Y-106300000D03*
X123850000Y-106300000D03*
G04 #@! TD*
M02*
