G04 #@! TF.GenerationSoftware,KiCad,Pcbnew,(5.0.0)*
G04 #@! TF.CreationDate,2018-10-29T19:26:44-07:00*
G04 #@! TF.ProjectId,tester_v2,7465737465725F76322E6B696361645F,rev?*
G04 #@! TF.SameCoordinates,Original*
G04 #@! TF.FileFunction,Legend,Top*
G04 #@! TF.FilePolarity,Positive*
%FSLAX46Y46*%
G04 Gerber Fmt 4.6, Leading zero omitted, Abs format (unit mm)*
G04 Created by KiCad (PCBNEW (5.0.0)) date 10/29/18 19:26:44*
%MOMM*%
%LPD*%
G01*
G04 APERTURE LIST*
%ADD10C,0.250000*%
%ADD11C,0.200000*%
%ADD12C,0.150000*%
%ADD13C,0.300000*%
%ADD14C,0.120000*%
%ADD15C,0.508000*%
%ADD16C,0.010000*%
G04 APERTURE END LIST*
D10*
X180216666Y-91502380D02*
X180216666Y-90502380D01*
X180597619Y-90502380D01*
X180692857Y-90550000D01*
X180740476Y-90597619D01*
X180788095Y-90692857D01*
X180788095Y-90835714D01*
X180740476Y-90930952D01*
X180692857Y-90978571D01*
X180597619Y-91026190D01*
X180216666Y-91026190D01*
X181121428Y-90502380D02*
X181359523Y-91502380D01*
X181550000Y-90788095D01*
X181740476Y-91502380D01*
X181978571Y-90502380D01*
X182930952Y-91502380D02*
X182597619Y-91026190D01*
X182359523Y-91502380D02*
X182359523Y-90502380D01*
X182740476Y-90502380D01*
X182835714Y-90550000D01*
X182883333Y-90597619D01*
X182930952Y-90692857D01*
X182930952Y-90835714D01*
X182883333Y-90930952D01*
X182835714Y-90978571D01*
X182740476Y-91026190D01*
X182359523Y-91026190D01*
X172147619Y-73077380D02*
X172147619Y-72077380D01*
X172385714Y-72077380D01*
X172528571Y-72125000D01*
X172623809Y-72220238D01*
X172671428Y-72315476D01*
X172719047Y-72505952D01*
X172719047Y-72648809D01*
X172671428Y-72839285D01*
X172623809Y-72934523D01*
X172528571Y-73029761D01*
X172385714Y-73077380D01*
X172147619Y-73077380D01*
X173719047Y-72982142D02*
X173671428Y-73029761D01*
X173528571Y-73077380D01*
X173433333Y-73077380D01*
X173290476Y-73029761D01*
X173195238Y-72934523D01*
X173147619Y-72839285D01*
X173100000Y-72648809D01*
X173100000Y-72505952D01*
X173147619Y-72315476D01*
X173195238Y-72220238D01*
X173290476Y-72125000D01*
X173433333Y-72077380D01*
X173528571Y-72077380D01*
X173671428Y-72125000D01*
X173719047Y-72172619D01*
X174909523Y-73077380D02*
X174909523Y-72077380D01*
X175385714Y-73077380D02*
X175385714Y-72077380D01*
X175957142Y-73077380D01*
X175957142Y-72077380D01*
X176433333Y-72982142D02*
X176480952Y-73029761D01*
X176433333Y-73077380D01*
X176385714Y-73029761D01*
X176433333Y-72982142D01*
X176433333Y-73077380D01*
X176433333Y-72458333D02*
X176480952Y-72505952D01*
X176433333Y-72553571D01*
X176385714Y-72505952D01*
X176433333Y-72458333D01*
X176433333Y-72553571D01*
X177576190Y-72077380D02*
X178195238Y-72077380D01*
X177861904Y-72458333D01*
X178004761Y-72458333D01*
X178100000Y-72505952D01*
X178147619Y-72553571D01*
X178195238Y-72648809D01*
X178195238Y-72886904D01*
X178147619Y-72982142D01*
X178100000Y-73029761D01*
X178004761Y-73077380D01*
X177719047Y-73077380D01*
X177623809Y-73029761D01*
X177576190Y-72982142D01*
X178623809Y-72982142D02*
X178671428Y-73029761D01*
X178623809Y-73077380D01*
X178576190Y-73029761D01*
X178623809Y-72982142D01*
X178623809Y-73077380D01*
X179528571Y-72410714D02*
X179528571Y-73077380D01*
X179290476Y-72029761D02*
X179052380Y-72744047D01*
X179671428Y-72744047D01*
X180528571Y-72077380D02*
X180052380Y-72077380D01*
X180004761Y-72553571D01*
X180052380Y-72505952D01*
X180147619Y-72458333D01*
X180385714Y-72458333D01*
X180480952Y-72505952D01*
X180528571Y-72553571D01*
X180576190Y-72648809D01*
X180576190Y-72886904D01*
X180528571Y-72982142D01*
X180480952Y-73029761D01*
X180385714Y-73077380D01*
X180147619Y-73077380D01*
X180052380Y-73029761D01*
X180004761Y-72982142D01*
X181766666Y-72696428D02*
X182528571Y-72696428D01*
X184290476Y-73077380D02*
X183719047Y-73077380D01*
X184004761Y-73077380D02*
X184004761Y-72077380D01*
X183909523Y-72220238D01*
X183814285Y-72315476D01*
X183719047Y-72363095D01*
X184623809Y-72077380D02*
X185290476Y-72077380D01*
X184861904Y-73077380D01*
X185528571Y-72077380D02*
X185861904Y-73077380D01*
X186195238Y-72077380D01*
X174600000Y-75208333D02*
X174552380Y-75160714D01*
X174457142Y-75017857D01*
X174409523Y-74922619D01*
X174361904Y-74779761D01*
X174314285Y-74541666D01*
X174314285Y-74351190D01*
X174361904Y-74113095D01*
X174409523Y-73970238D01*
X174457142Y-73875000D01*
X174552380Y-73732142D01*
X174600000Y-73684523D01*
X175504761Y-74827380D02*
X174933333Y-74827380D01*
X175219047Y-74827380D02*
X175219047Y-73827380D01*
X175123809Y-73970238D01*
X175028571Y-74065476D01*
X174933333Y-74113095D01*
X175885714Y-73922619D02*
X175933333Y-73875000D01*
X176028571Y-73827380D01*
X176266666Y-73827380D01*
X176361904Y-73875000D01*
X176409523Y-73922619D01*
X176457142Y-74017857D01*
X176457142Y-74113095D01*
X176409523Y-74255952D01*
X175838095Y-74827380D01*
X176457142Y-74827380D01*
X176742857Y-73827380D02*
X177076190Y-74827380D01*
X177409523Y-73827380D01*
X179028571Y-74827380D02*
X178457142Y-74827380D01*
X178742857Y-74827380D02*
X178742857Y-73827380D01*
X178647619Y-73970238D01*
X178552380Y-74065476D01*
X178457142Y-74113095D01*
X179409523Y-74541666D02*
X179885714Y-74541666D01*
X179314285Y-74827380D02*
X179647619Y-73827380D01*
X179980952Y-74827380D01*
X180933333Y-73827380D02*
X181504761Y-73827380D01*
X181219047Y-74827380D02*
X181219047Y-73827380D01*
X182028571Y-74351190D02*
X182028571Y-74827380D01*
X181695238Y-73827380D02*
X182028571Y-74351190D01*
X182361904Y-73827380D01*
X182695238Y-74827380D02*
X182695238Y-73827380D01*
X183076190Y-73827380D01*
X183171428Y-73875000D01*
X183219047Y-73922619D01*
X183266666Y-74017857D01*
X183266666Y-74160714D01*
X183219047Y-74255952D01*
X183171428Y-74303571D01*
X183076190Y-74351190D01*
X182695238Y-74351190D01*
X183600000Y-75208333D02*
X183647619Y-75160714D01*
X183742857Y-75017857D01*
X183790476Y-74922619D01*
X183838095Y-74779761D01*
X183885714Y-74541666D01*
X183885714Y-74351190D01*
X183838095Y-74113095D01*
X183790476Y-73970238D01*
X183742857Y-73875000D01*
X183647619Y-73732142D01*
X183600000Y-73684523D01*
X173480952Y-76482142D02*
X173433333Y-76529761D01*
X173290476Y-76577380D01*
X173195238Y-76577380D01*
X173052380Y-76529761D01*
X172957142Y-76434523D01*
X172909523Y-76339285D01*
X172861904Y-76148809D01*
X172861904Y-76005952D01*
X172909523Y-75815476D01*
X172957142Y-75720238D01*
X173052380Y-75625000D01*
X173195238Y-75577380D01*
X173290476Y-75577380D01*
X173433333Y-75625000D01*
X173480952Y-75672619D01*
X173909523Y-76053571D02*
X174242857Y-76053571D01*
X174385714Y-76577380D02*
X173909523Y-76577380D01*
X173909523Y-75577380D01*
X174385714Y-75577380D01*
X174814285Y-76577380D02*
X174814285Y-75577380D01*
X175385714Y-76577380D01*
X175385714Y-75577380D01*
X175719047Y-75577380D02*
X176290476Y-75577380D01*
X176004761Y-76577380D02*
X176004761Y-75577380D01*
X176623809Y-76053571D02*
X176957142Y-76053571D01*
X177100000Y-76577380D02*
X176623809Y-76577380D01*
X176623809Y-75577380D01*
X177100000Y-75577380D01*
X178100000Y-76577380D02*
X177766666Y-76101190D01*
X177528571Y-76577380D02*
X177528571Y-75577380D01*
X177909523Y-75577380D01*
X178004761Y-75625000D01*
X178052380Y-75672619D01*
X178100000Y-75767857D01*
X178100000Y-75910714D01*
X178052380Y-76005952D01*
X178004761Y-76053571D01*
X177909523Y-76101190D01*
X177528571Y-76101190D01*
X179290476Y-76577380D02*
X179290476Y-75577380D01*
X179671428Y-75577380D01*
X179766666Y-75625000D01*
X179814285Y-75672619D01*
X179861904Y-75767857D01*
X179861904Y-75910714D01*
X179814285Y-76005952D01*
X179766666Y-76053571D01*
X179671428Y-76101190D01*
X179290476Y-76101190D01*
X180480952Y-75577380D02*
X180671428Y-75577380D01*
X180766666Y-75625000D01*
X180861904Y-75720238D01*
X180909523Y-75910714D01*
X180909523Y-76244047D01*
X180861904Y-76434523D01*
X180766666Y-76529761D01*
X180671428Y-76577380D01*
X180480952Y-76577380D01*
X180385714Y-76529761D01*
X180290476Y-76434523D01*
X180242857Y-76244047D01*
X180242857Y-75910714D01*
X180290476Y-75720238D01*
X180385714Y-75625000D01*
X180480952Y-75577380D01*
X181290476Y-76529761D02*
X181433333Y-76577380D01*
X181671428Y-76577380D01*
X181766666Y-76529761D01*
X181814285Y-76482142D01*
X181861904Y-76386904D01*
X181861904Y-76291666D01*
X181814285Y-76196428D01*
X181766666Y-76148809D01*
X181671428Y-76101190D01*
X181480952Y-76053571D01*
X181385714Y-76005952D01*
X181338095Y-75958333D01*
X181290476Y-75863095D01*
X181290476Y-75767857D01*
X181338095Y-75672619D01*
X181385714Y-75625000D01*
X181480952Y-75577380D01*
X181719047Y-75577380D01*
X181861904Y-75625000D01*
X182290476Y-76577380D02*
X182290476Y-75577380D01*
X182623809Y-75577380D02*
X183195238Y-75577380D01*
X182909523Y-76577380D02*
X182909523Y-75577380D01*
X183528571Y-76577380D02*
X183528571Y-75577380D01*
X183861904Y-75577380D02*
X184195238Y-76577380D01*
X184528571Y-75577380D01*
X184861904Y-76053571D02*
X185195238Y-76053571D01*
X185338095Y-76577380D02*
X184861904Y-76577380D01*
X184861904Y-75577380D01*
X185338095Y-75577380D01*
X172004761Y-77327380D02*
X171528571Y-77327380D01*
X171480952Y-77803571D01*
X171528571Y-77755952D01*
X171623809Y-77708333D01*
X171861904Y-77708333D01*
X171957142Y-77755952D01*
X172004761Y-77803571D01*
X172052380Y-77898809D01*
X172052380Y-78136904D01*
X172004761Y-78232142D01*
X171957142Y-78279761D01*
X171861904Y-78327380D01*
X171623809Y-78327380D01*
X171528571Y-78279761D01*
X171480952Y-78232142D01*
X172480952Y-78232142D02*
X172528571Y-78279761D01*
X172480952Y-78327380D01*
X172433333Y-78279761D01*
X172480952Y-78232142D01*
X172480952Y-78327380D01*
X173433333Y-77327380D02*
X172957142Y-77327380D01*
X172909523Y-77803571D01*
X172957142Y-77755952D01*
X173052380Y-77708333D01*
X173290476Y-77708333D01*
X173385714Y-77755952D01*
X173433333Y-77803571D01*
X173480952Y-77898809D01*
X173480952Y-78136904D01*
X173433333Y-78232142D01*
X173385714Y-78279761D01*
X173290476Y-78327380D01*
X173052380Y-78327380D01*
X172957142Y-78279761D01*
X172909523Y-78232142D01*
X173909523Y-78327380D02*
X173909523Y-77327380D01*
X174242857Y-78041666D01*
X174576190Y-77327380D01*
X174576190Y-78327380D01*
X175052380Y-78327380D02*
X175052380Y-77327380D01*
X175385714Y-78041666D01*
X175719047Y-77327380D01*
X175719047Y-78327380D01*
X177147619Y-77327380D02*
X177338095Y-77327380D01*
X177433333Y-77375000D01*
X177528571Y-77470238D01*
X177576190Y-77660714D01*
X177576190Y-77994047D01*
X177528571Y-78184523D01*
X177433333Y-78279761D01*
X177338095Y-78327380D01*
X177147619Y-78327380D01*
X177052380Y-78279761D01*
X176957142Y-78184523D01*
X176909523Y-77994047D01*
X176909523Y-77660714D01*
X176957142Y-77470238D01*
X177052380Y-77375000D01*
X177147619Y-77327380D01*
X178004761Y-78327380D02*
X178004761Y-77327380D01*
X178242857Y-77327380D01*
X178385714Y-77375000D01*
X178480952Y-77470238D01*
X178528571Y-77565476D01*
X178576190Y-77755952D01*
X178576190Y-77898809D01*
X178528571Y-78089285D01*
X178480952Y-78184523D01*
X178385714Y-78279761D01*
X178242857Y-78327380D01*
X178004761Y-78327380D01*
X179052380Y-78279761D02*
X179052380Y-78327380D01*
X179004761Y-78422619D01*
X178957142Y-78470238D01*
X180195238Y-77422619D02*
X180242857Y-77375000D01*
X180338095Y-77327380D01*
X180576190Y-77327380D01*
X180671428Y-77375000D01*
X180719047Y-77422619D01*
X180766666Y-77517857D01*
X180766666Y-77613095D01*
X180719047Y-77755952D01*
X180147619Y-78327380D01*
X180766666Y-78327380D01*
X181195238Y-78232142D02*
X181242857Y-78279761D01*
X181195238Y-78327380D01*
X181147619Y-78279761D01*
X181195238Y-78232142D01*
X181195238Y-78327380D01*
X181861904Y-77327380D02*
X181957142Y-77327380D01*
X182052380Y-77375000D01*
X182100000Y-77422619D01*
X182147619Y-77517857D01*
X182195238Y-77708333D01*
X182195238Y-77946428D01*
X182147619Y-78136904D01*
X182100000Y-78232142D01*
X182052380Y-78279761D01*
X181957142Y-78327380D01*
X181861904Y-78327380D01*
X181766666Y-78279761D01*
X181719047Y-78232142D01*
X181671428Y-78136904D01*
X181623809Y-77946428D01*
X181623809Y-77708333D01*
X181671428Y-77517857D01*
X181719047Y-77422619D01*
X181766666Y-77375000D01*
X181861904Y-77327380D01*
X182623809Y-78327380D02*
X182623809Y-77327380D01*
X182957142Y-78041666D01*
X183290476Y-77327380D01*
X183290476Y-78327380D01*
X183766666Y-78327380D02*
X183766666Y-77327380D01*
X184100000Y-78041666D01*
X184433333Y-77327380D01*
X184433333Y-78327380D01*
X185671428Y-78327380D02*
X185671428Y-77327380D01*
X186147619Y-78327380D02*
X186147619Y-77327380D01*
X186385714Y-77327380D01*
X186528571Y-77375000D01*
X186623809Y-77470238D01*
X186671428Y-77565476D01*
X186719047Y-77755952D01*
X186719047Y-77898809D01*
X186671428Y-78089285D01*
X186623809Y-78184523D01*
X186528571Y-78279761D01*
X186385714Y-78327380D01*
X186147619Y-78327380D01*
D11*
X99011803Y-115500000D02*
G75*
G03X99011803Y-115500000I-111803J0D01*
G01*
X120961803Y-115550000D02*
G75*
G03X120961803Y-115550000I-111803J0D01*
G01*
X157761803Y-115650000D02*
G75*
G03X157761803Y-115650000I-111803J0D01*
G01*
X184011803Y-115500000D02*
G75*
G03X184011803Y-115500000I-111803J0D01*
G01*
D12*
X124721428Y-103796428D02*
X124721428Y-103196428D01*
X124978571Y-103253571D02*
X125007142Y-103225000D01*
X125064285Y-103196428D01*
X125207142Y-103196428D01*
X125264285Y-103225000D01*
X125292857Y-103253571D01*
X125321428Y-103310714D01*
X125321428Y-103367857D01*
X125292857Y-103453571D01*
X124950000Y-103796428D01*
X125321428Y-103796428D01*
X125921428Y-103739285D02*
X125892857Y-103767857D01*
X125807142Y-103796428D01*
X125750000Y-103796428D01*
X125664285Y-103767857D01*
X125607142Y-103710714D01*
X125578571Y-103653571D01*
X125550000Y-103539285D01*
X125550000Y-103453571D01*
X125578571Y-103339285D01*
X125607142Y-103282142D01*
X125664285Y-103225000D01*
X125750000Y-103196428D01*
X125807142Y-103196428D01*
X125892857Y-103225000D01*
X125921428Y-103253571D01*
X126635714Y-103796428D02*
X126635714Y-103196428D01*
X126864285Y-103196428D01*
X126921428Y-103225000D01*
X126950000Y-103253571D01*
X126978571Y-103310714D01*
X126978571Y-103396428D01*
X126950000Y-103453571D01*
X126921428Y-103482142D01*
X126864285Y-103510714D01*
X126635714Y-103510714D01*
X127235714Y-103196428D02*
X127235714Y-103682142D01*
X127264285Y-103739285D01*
X127292857Y-103767857D01*
X127350000Y-103796428D01*
X127464285Y-103796428D01*
X127521428Y-103767857D01*
X127550000Y-103739285D01*
X127578571Y-103682142D01*
X127578571Y-103196428D01*
X128150000Y-103796428D02*
X127864285Y-103796428D01*
X127864285Y-103196428D01*
X128635714Y-103796428D02*
X128350000Y-103796428D01*
X128350000Y-103196428D01*
X128835714Y-103196428D02*
X128835714Y-103682142D01*
X128864285Y-103739285D01*
X128892857Y-103767857D01*
X128950000Y-103796428D01*
X129064285Y-103796428D01*
X129121428Y-103767857D01*
X129150000Y-103739285D01*
X129178571Y-103682142D01*
X129178571Y-103196428D01*
X129464285Y-103796428D02*
X129464285Y-103196428D01*
X129692857Y-103196428D01*
X129750000Y-103225000D01*
X129778571Y-103253571D01*
X129807142Y-103310714D01*
X129807142Y-103396428D01*
X129778571Y-103453571D01*
X129750000Y-103482142D01*
X129692857Y-103510714D01*
X129464285Y-103510714D01*
X125435714Y-104246428D02*
X125635714Y-104846428D01*
X125835714Y-104246428D01*
X126150000Y-104246428D02*
X126264285Y-104246428D01*
X126321428Y-104275000D01*
X126378571Y-104332142D01*
X126407142Y-104446428D01*
X126407142Y-104646428D01*
X126378571Y-104760714D01*
X126321428Y-104817857D01*
X126264285Y-104846428D01*
X126150000Y-104846428D01*
X126092857Y-104817857D01*
X126035714Y-104760714D01*
X126007142Y-104646428D01*
X126007142Y-104446428D01*
X126035714Y-104332142D01*
X126092857Y-104275000D01*
X126150000Y-104246428D01*
X126950000Y-104846428D02*
X126664285Y-104846428D01*
X126664285Y-104246428D01*
X127064285Y-104246428D02*
X127407142Y-104246428D01*
X127235714Y-104846428D02*
X127235714Y-104246428D01*
X127578571Y-104675000D02*
X127864285Y-104675000D01*
X127521428Y-104846428D02*
X127721428Y-104246428D01*
X127921428Y-104846428D01*
X128435714Y-104275000D02*
X128378571Y-104246428D01*
X128292857Y-104246428D01*
X128207142Y-104275000D01*
X128150000Y-104332142D01*
X128121428Y-104389285D01*
X128092857Y-104503571D01*
X128092857Y-104589285D01*
X128121428Y-104703571D01*
X128150000Y-104760714D01*
X128207142Y-104817857D01*
X128292857Y-104846428D01*
X128350000Y-104846428D01*
X128435714Y-104817857D01*
X128464285Y-104789285D01*
X128464285Y-104589285D01*
X128350000Y-104589285D01*
X128721428Y-104532142D02*
X128921428Y-104532142D01*
X129007142Y-104846428D02*
X128721428Y-104846428D01*
X128721428Y-104246428D01*
X129007142Y-104246428D01*
D13*
X127792857Y-98278571D02*
X128721428Y-98278571D01*
X128221428Y-98850000D01*
X128435714Y-98850000D01*
X128578571Y-98921428D01*
X128650000Y-98992857D01*
X128721428Y-99135714D01*
X128721428Y-99492857D01*
X128650000Y-99635714D01*
X128578571Y-99707142D01*
X128435714Y-99778571D01*
X128007142Y-99778571D01*
X127864285Y-99707142D01*
X127792857Y-99635714D01*
X129150000Y-98278571D02*
X129650000Y-99778571D01*
X130150000Y-98278571D01*
X130507142Y-98278571D02*
X131435714Y-98278571D01*
X130935714Y-98850000D01*
X131150000Y-98850000D01*
X131292857Y-98921428D01*
X131364285Y-98992857D01*
X131435714Y-99135714D01*
X131435714Y-99492857D01*
X131364285Y-99635714D01*
X131292857Y-99707142D01*
X131150000Y-99778571D01*
X130721428Y-99778571D01*
X130578571Y-99707142D01*
X130507142Y-99635714D01*
X122264285Y-98128571D02*
X121550000Y-98128571D01*
X121478571Y-98842857D01*
X121550000Y-98771428D01*
X121692857Y-98700000D01*
X122050000Y-98700000D01*
X122192857Y-98771428D01*
X122264285Y-98842857D01*
X122335714Y-98985714D01*
X122335714Y-99342857D01*
X122264285Y-99485714D01*
X122192857Y-99557142D01*
X122050000Y-99628571D01*
X121692857Y-99628571D01*
X121550000Y-99557142D01*
X121478571Y-99485714D01*
X122764285Y-98128571D02*
X123264285Y-99628571D01*
X123764285Y-98128571D01*
X177142857Y-64853571D02*
X176428571Y-64853571D01*
X176428571Y-63353571D01*
X177642857Y-64853571D02*
X177642857Y-63353571D01*
X178142857Y-64425000D01*
X178642857Y-63353571D01*
X178642857Y-64853571D01*
X179285714Y-64425000D02*
X180000000Y-64425000D01*
X179142857Y-64853571D02*
X179642857Y-63353571D01*
X180142857Y-64853571D01*
X181500000Y-64853571D02*
X181000000Y-64139285D01*
X180642857Y-64853571D02*
X180642857Y-63353571D01*
X181214285Y-63353571D01*
X181357142Y-63425000D01*
X181428571Y-63496428D01*
X181500000Y-63639285D01*
X181500000Y-63853571D01*
X181428571Y-63996428D01*
X181357142Y-64067857D01*
X181214285Y-64139285D01*
X180642857Y-64139285D01*
X181928571Y-63353571D02*
X182428571Y-64853571D01*
X182928571Y-63353571D01*
X183428571Y-64282142D02*
X184571428Y-64282142D01*
X186071428Y-64853571D02*
X185214285Y-64853571D01*
X185642857Y-64853571D02*
X185642857Y-63353571D01*
X185500000Y-63567857D01*
X185357142Y-63710714D01*
X185214285Y-63782142D01*
X187642857Y-63353571D02*
X188500000Y-63353571D01*
X188071428Y-64853571D02*
X188071428Y-63353571D01*
X189000000Y-64067857D02*
X189500000Y-64067857D01*
X189714285Y-64853571D02*
X189000000Y-64853571D01*
X189000000Y-63353571D01*
X189714285Y-63353571D01*
X190285714Y-64782142D02*
X190500000Y-64853571D01*
X190857142Y-64853571D01*
X191000000Y-64782142D01*
X191071428Y-64710714D01*
X191142857Y-64567857D01*
X191142857Y-64425000D01*
X191071428Y-64282142D01*
X191000000Y-64210714D01*
X190857142Y-64139285D01*
X190571428Y-64067857D01*
X190428571Y-63996428D01*
X190357142Y-63925000D01*
X190285714Y-63782142D01*
X190285714Y-63639285D01*
X190357142Y-63496428D01*
X190428571Y-63425000D01*
X190571428Y-63353571D01*
X190928571Y-63353571D01*
X191142857Y-63425000D01*
X191571428Y-63353571D02*
X192428571Y-63353571D01*
X192000000Y-64853571D02*
X192000000Y-63353571D01*
X192928571Y-64067857D02*
X193428571Y-64067857D01*
X193642857Y-64853571D02*
X192928571Y-64853571D01*
X192928571Y-63353571D01*
X193642857Y-63353571D01*
X195142857Y-64853571D02*
X194642857Y-64139285D01*
X194285714Y-64853571D02*
X194285714Y-63353571D01*
X194857142Y-63353571D01*
X195000000Y-63425000D01*
X195071428Y-63496428D01*
X195142857Y-63639285D01*
X195142857Y-63853571D01*
X195071428Y-63996428D01*
X195000000Y-64067857D01*
X194857142Y-64139285D01*
X194285714Y-64139285D01*
X175000000Y-67403571D02*
X174500000Y-66689285D01*
X174142857Y-67403571D02*
X174142857Y-65903571D01*
X174714285Y-65903571D01*
X174857142Y-65975000D01*
X174928571Y-66046428D01*
X175000000Y-66189285D01*
X175000000Y-66403571D01*
X174928571Y-66546428D01*
X174857142Y-66617857D01*
X174714285Y-66689285D01*
X174142857Y-66689285D01*
X175642857Y-66617857D02*
X176142857Y-66617857D01*
X176357142Y-67403571D02*
X175642857Y-67403571D01*
X175642857Y-65903571D01*
X176357142Y-65903571D01*
X176785714Y-65903571D02*
X177285714Y-67403571D01*
X177785714Y-65903571D01*
X179357142Y-66975000D02*
X180071428Y-66975000D01*
X179214285Y-67403571D02*
X179714285Y-65903571D01*
X180214285Y-67403571D01*
X182928571Y-66046428D02*
X183000000Y-65975000D01*
X183142857Y-65903571D01*
X183500000Y-65903571D01*
X183642857Y-65975000D01*
X183714285Y-66046428D01*
X183785714Y-66189285D01*
X183785714Y-66332142D01*
X183714285Y-66546428D01*
X182857142Y-67403571D01*
X183785714Y-67403571D01*
X184714285Y-65903571D02*
X184857142Y-65903571D01*
X185000000Y-65975000D01*
X185071428Y-66046428D01*
X185142857Y-66189285D01*
X185214285Y-66475000D01*
X185214285Y-66832142D01*
X185142857Y-67117857D01*
X185071428Y-67260714D01*
X185000000Y-67332142D01*
X184857142Y-67403571D01*
X184714285Y-67403571D01*
X184571428Y-67332142D01*
X184500000Y-67260714D01*
X184428571Y-67117857D01*
X184357142Y-66832142D01*
X184357142Y-66475000D01*
X184428571Y-66189285D01*
X184500000Y-66046428D01*
X184571428Y-65975000D01*
X184714285Y-65903571D01*
X186642857Y-67403571D02*
X185785714Y-67403571D01*
X186214285Y-67403571D02*
X186214285Y-65903571D01*
X186071428Y-66117857D01*
X185928571Y-66260714D01*
X185785714Y-66332142D01*
X187500000Y-66546428D02*
X187357142Y-66475000D01*
X187285714Y-66403571D01*
X187214285Y-66260714D01*
X187214285Y-66189285D01*
X187285714Y-66046428D01*
X187357142Y-65975000D01*
X187500000Y-65903571D01*
X187785714Y-65903571D01*
X187928571Y-65975000D01*
X188000000Y-66046428D01*
X188071428Y-66189285D01*
X188071428Y-66260714D01*
X188000000Y-66403571D01*
X187928571Y-66475000D01*
X187785714Y-66546428D01*
X187500000Y-66546428D01*
X187357142Y-66617857D01*
X187285714Y-66689285D01*
X187214285Y-66832142D01*
X187214285Y-67117857D01*
X187285714Y-67260714D01*
X187357142Y-67332142D01*
X187500000Y-67403571D01*
X187785714Y-67403571D01*
X187928571Y-67332142D01*
X188000000Y-67260714D01*
X188071428Y-67117857D01*
X188071428Y-66832142D01*
X188000000Y-66689285D01*
X187928571Y-66617857D01*
X187785714Y-66546428D01*
X190142857Y-65903571D02*
X190428571Y-65903571D01*
X190571428Y-65975000D01*
X190714285Y-66117857D01*
X190785714Y-66403571D01*
X190785714Y-66903571D01*
X190714285Y-67189285D01*
X190571428Y-67332142D01*
X190428571Y-67403571D01*
X190142857Y-67403571D01*
X190000000Y-67332142D01*
X189857142Y-67189285D01*
X189785714Y-66903571D01*
X189785714Y-66403571D01*
X189857142Y-66117857D01*
X190000000Y-65975000D01*
X190142857Y-65903571D01*
X192285714Y-67260714D02*
X192214285Y-67332142D01*
X192000000Y-67403571D01*
X191857142Y-67403571D01*
X191642857Y-67332142D01*
X191500000Y-67189285D01*
X191428571Y-67046428D01*
X191357142Y-66760714D01*
X191357142Y-66546428D01*
X191428571Y-66260714D01*
X191500000Y-66117857D01*
X191642857Y-65975000D01*
X191857142Y-65903571D01*
X192000000Y-65903571D01*
X192214285Y-65975000D01*
X192285714Y-66046428D01*
X192714285Y-65903571D02*
X193571428Y-65903571D01*
X193142857Y-67403571D02*
X193142857Y-65903571D01*
X195142857Y-66046428D02*
X195214285Y-65975000D01*
X195357142Y-65903571D01*
X195714285Y-65903571D01*
X195857142Y-65975000D01*
X195928571Y-66046428D01*
X196000000Y-66189285D01*
X196000000Y-66332142D01*
X195928571Y-66546428D01*
X195071428Y-67403571D01*
X196000000Y-67403571D01*
X197357142Y-65903571D02*
X196642857Y-65903571D01*
X196571428Y-66617857D01*
X196642857Y-66546428D01*
X196785714Y-66475000D01*
X197142857Y-66475000D01*
X197285714Y-66546428D01*
X197357142Y-66617857D01*
X197428571Y-66760714D01*
X197428571Y-67117857D01*
X197357142Y-67260714D01*
X197285714Y-67332142D01*
X197142857Y-67403571D01*
X196785714Y-67403571D01*
X196642857Y-67332142D01*
X196571428Y-67260714D01*
D14*
G04 #@! TO.C,A1*
X146430000Y-59680000D02*
X123570000Y-59680000D01*
X146430000Y-59680000D02*
X146430000Y-97780000D01*
X146430000Y-97780000D02*
X123570000Y-97780000D01*
X123570000Y-97780000D02*
X123570000Y-59680000D01*
D12*
G36*
X122935000Y-68570000D02*
X122300000Y-67935000D01*
X122300000Y-69205000D01*
X122935000Y-68570000D01*
G37*
X122935000Y-68570000D02*
X122300000Y-67935000D01*
X122300000Y-69205000D01*
X122935000Y-68570000D01*
D14*
X127380000Y-62220000D02*
G75*
G03X127380000Y-62220000I-1270000J0D01*
G01*
X127380000Y-95240000D02*
G75*
G03X127380000Y-95240000I-1270000J0D01*
G01*
X145160000Y-95240000D02*
G75*
G03X145160000Y-95240000I-1270000J0D01*
G01*
X145160000Y-62220000D02*
G75*
G03X145160000Y-62220000I-1270000J0D01*
G01*
G04 #@! TO.C,A2*
X168524000Y-79904000D02*
X168524000Y-92096000D01*
X168524000Y-92096000D02*
X156332000Y-92096000D01*
X156332000Y-92096000D02*
X156332000Y-79904000D01*
X156332000Y-79904000D02*
X168524000Y-79904000D01*
D15*
X169286000Y-79396000D02*
G75*
G03X169286000Y-79396000I-254000J0D01*
G01*
D14*
G04 #@! TO.C,C1*
X170520000Y-83000000D02*
X170520000Y-85000000D01*
X173480000Y-85000000D02*
X173480000Y-83000000D01*
G04 #@! TO.C,C2*
X167500000Y-96020000D02*
X169500000Y-96020000D01*
X169500000Y-93980000D02*
X167500000Y-93980000D01*
G04 #@! TO.C,C4*
X101150000Y-107800000D02*
X101150000Y-108500000D01*
X99950000Y-108500000D02*
X99950000Y-107800000D01*
G04 #@! TO.C,C5*
X185800000Y-105600000D02*
X186500000Y-105600000D01*
X186500000Y-106800000D02*
X185800000Y-106800000D01*
G04 #@! TO.C,D1*
X179000000Y-91700000D02*
X176200000Y-91700000D01*
X179000000Y-90300000D02*
X176200000Y-90300000D01*
X179000000Y-91700000D02*
X179000000Y-90300000D01*
D12*
G04 #@! TO.C,J1*
X202950000Y-78100000D02*
X202950000Y-87100000D01*
X188550000Y-85400000D02*
X188550000Y-87100000D01*
X188550000Y-78100000D02*
X189250000Y-78100000D01*
X202950000Y-87100000D02*
X188550000Y-87100000D01*
X199450000Y-78100000D02*
X199450000Y-87100000D01*
G36*
X187500000Y-82600000D02*
X187000000Y-82100000D01*
X187000000Y-83100000D01*
X187500000Y-82600000D01*
G37*
X187500000Y-82600000D02*
X187000000Y-82100000D01*
X187000000Y-83100000D01*
X187500000Y-82600000D01*
X188550000Y-78100000D02*
X188550000Y-79800000D01*
X195250000Y-78100000D02*
X202950000Y-78100000D01*
D14*
G04 #@! TO.C,J2*
X121920000Y-102780000D02*
X121920000Y-101450000D01*
X123250000Y-102780000D02*
X121920000Y-102780000D01*
X124520000Y-102780000D02*
X124520000Y-100120000D01*
X124520000Y-100120000D02*
X129660000Y-100120000D01*
X124520000Y-102780000D02*
X129660000Y-102780000D01*
X129660000Y-102780000D02*
X129660000Y-100120000D01*
G04 #@! TO.C,P1*
X134100000Y-129900000D02*
X139900000Y-129900000D01*
X78450000Y-131350000D02*
X78450000Y-133600000D01*
X81350000Y-131350000D02*
G75*
G03X78450000Y-131350000I-1450000J0D01*
G01*
X94450000Y-131350000D02*
G75*
G03X92550000Y-131350000I-950000J0D01*
G01*
X92550000Y-133600000D02*
X92550000Y-131350000D01*
X94450000Y-131350000D02*
X94450000Y-133600000D01*
X81350000Y-133600000D02*
X92550000Y-133600000D01*
X92550000Y-133600000D02*
X92550000Y-139400000D01*
X92550000Y-139400000D02*
X81350000Y-139400000D01*
X81350000Y-139400000D02*
X81350000Y-131350000D01*
X132650000Y-133600000D02*
X94450000Y-133600000D01*
X94450000Y-139400000D02*
X132650000Y-139400000D01*
X94450000Y-133600000D02*
X94450000Y-139400000D01*
X132650000Y-131350000D02*
X132650000Y-139400000D01*
X134100000Y-129900000D02*
G75*
G03X132650000Y-131350000I0J-1450000D01*
G01*
X154450000Y-131350000D02*
X154450000Y-133600000D01*
X154450000Y-133600000D02*
X154450000Y-139400000D01*
X192650000Y-133600000D02*
X154450000Y-133600000D01*
X154450000Y-139400000D02*
X192650000Y-139400000D01*
X192650000Y-131350000D02*
X192650000Y-139400000D01*
X195550000Y-131350000D02*
G75*
G03X192650000Y-131350000I-1450000J0D01*
G01*
X195550000Y-131350000D02*
X195550000Y-133600000D01*
X152550000Y-133600000D02*
X152550000Y-139400000D01*
X154450000Y-131350000D02*
G75*
G03X152550000Y-131350000I-950000J0D01*
G01*
X152550000Y-133600000D02*
X152550000Y-131350000D01*
X152550000Y-139400000D02*
X141350000Y-139400000D01*
X141350000Y-133600000D02*
X152550000Y-133600000D01*
X141350000Y-131350000D02*
G75*
G03X139900000Y-129900000I-1450000J0D01*
G01*
X141350000Y-139400000D02*
X141350000Y-131350000D01*
G04 #@! TO.C,R1*
X149700000Y-89730000D02*
X148500000Y-89730000D01*
X148500000Y-87970000D02*
X149700000Y-87970000D01*
G04 #@! TO.C,R2*
X150900000Y-92480000D02*
X149700000Y-92480000D01*
X149700000Y-90720000D02*
X150900000Y-90720000D01*
G04 #@! TO.C,R3*
X134550000Y-102780000D02*
X133350000Y-102780000D01*
X133350000Y-101020000D02*
X134550000Y-101020000D01*
G04 #@! TO.C,R4*
X134800000Y-104770000D02*
X136000000Y-104770000D01*
X136000000Y-106530000D02*
X134800000Y-106530000D01*
G04 #@! TO.C,R5*
X173200000Y-91880000D02*
X172000000Y-91880000D01*
X172000000Y-90120000D02*
X173200000Y-90120000D01*
D12*
G04 #@! TO.C,U1*
X149825000Y-115125000D02*
X149825000Y-115117500D01*
X149825000Y-100875000D02*
X149825000Y-100882500D01*
X156175000Y-100875000D02*
X156175000Y-100882500D01*
X157250000Y-115200000D02*
X149825000Y-115200000D01*
X156175000Y-100875000D02*
X149825000Y-100875000D01*
G04 #@! TO.C,U2*
X182175000Y-100875000D02*
X175825000Y-100875000D01*
X183250000Y-115200000D02*
X175825000Y-115200000D01*
X182175000Y-100875000D02*
X182175000Y-100882500D01*
X175825000Y-100875000D02*
X175825000Y-100882500D01*
X175825000Y-115125000D02*
X175825000Y-115117500D01*
G04 #@! TO.C,U3*
X90825000Y-115125000D02*
X90825000Y-115117500D01*
X90825000Y-100875000D02*
X90825000Y-100882500D01*
X97175000Y-100875000D02*
X97175000Y-100882500D01*
X98250000Y-115200000D02*
X90825000Y-115200000D01*
X97175000Y-100875000D02*
X90825000Y-100875000D01*
G04 #@! TO.C,U4*
X119175000Y-100875000D02*
X112825000Y-100875000D01*
X120250000Y-115200000D02*
X112825000Y-115200000D01*
X119175000Y-100875000D02*
X119175000Y-100882500D01*
X112825000Y-100875000D02*
X112825000Y-100882500D01*
X112825000Y-115125000D02*
X112825000Y-115117500D01*
D14*
G04 #@! TO.C,C3*
X86150000Y-110250000D02*
X85450000Y-110250000D01*
X85450000Y-109050000D02*
X86150000Y-109050000D01*
G04 #@! TO.C,C8*
X122750000Y-105700000D02*
X123450000Y-105700000D01*
X123450000Y-106900000D02*
X122750000Y-106900000D01*
D16*
G04 #@! TO.C,REF\002A\002A\002A*
G36*
X166549744Y-66919918D02*
X166605201Y-66947568D01*
X166654148Y-66998480D01*
X166667629Y-67017338D01*
X166682314Y-67042015D01*
X166691842Y-67068816D01*
X166697293Y-67104587D01*
X166699747Y-67156169D01*
X166700286Y-67224267D01*
X166697852Y-67317588D01*
X166689394Y-67387657D01*
X166673174Y-67439931D01*
X166647454Y-67479869D01*
X166610497Y-67512929D01*
X166607782Y-67514886D01*
X166571360Y-67534908D01*
X166527502Y-67544815D01*
X166471724Y-67547257D01*
X166381048Y-67547257D01*
X166381010Y-67635283D01*
X166380166Y-67684308D01*
X166375024Y-67713065D01*
X166361587Y-67730311D01*
X166335858Y-67744808D01*
X166329679Y-67747769D01*
X166300764Y-67761648D01*
X166278376Y-67770414D01*
X166261729Y-67771171D01*
X166250036Y-67761023D01*
X166242510Y-67737073D01*
X166238366Y-67696426D01*
X166236815Y-67636186D01*
X166237071Y-67553455D01*
X166238349Y-67445339D01*
X166238748Y-67413000D01*
X166240185Y-67301524D01*
X166241472Y-67228603D01*
X166380971Y-67228603D01*
X166381755Y-67290499D01*
X166385240Y-67330997D01*
X166393124Y-67357708D01*
X166407105Y-67378244D01*
X166416597Y-67388260D01*
X166455404Y-67417567D01*
X166489763Y-67419952D01*
X166525216Y-67395750D01*
X166526114Y-67394857D01*
X166540539Y-67376153D01*
X166549313Y-67350732D01*
X166553739Y-67311584D01*
X166555118Y-67251697D01*
X166555143Y-67238430D01*
X166551812Y-67155901D01*
X166540969Y-67098691D01*
X166521340Y-67063766D01*
X166491650Y-67048094D01*
X166474491Y-67046514D01*
X166433766Y-67053926D01*
X166405832Y-67078330D01*
X166389017Y-67122980D01*
X166381650Y-67191130D01*
X166380971Y-67228603D01*
X166241472Y-67228603D01*
X166241708Y-67215245D01*
X166243677Y-67150333D01*
X166246450Y-67102958D01*
X166250388Y-67069290D01*
X166255849Y-67045498D01*
X166263192Y-67027753D01*
X166272777Y-67012224D01*
X166276887Y-67006381D01*
X166331405Y-66951185D01*
X166400336Y-66919890D01*
X166480072Y-66911165D01*
X166549744Y-66919918D01*
X166549744Y-66919918D01*
G37*
X166549744Y-66919918D02*
X166605201Y-66947568D01*
X166654148Y-66998480D01*
X166667629Y-67017338D01*
X166682314Y-67042015D01*
X166691842Y-67068816D01*
X166697293Y-67104587D01*
X166699747Y-67156169D01*
X166700286Y-67224267D01*
X166697852Y-67317588D01*
X166689394Y-67387657D01*
X166673174Y-67439931D01*
X166647454Y-67479869D01*
X166610497Y-67512929D01*
X166607782Y-67514886D01*
X166571360Y-67534908D01*
X166527502Y-67544815D01*
X166471724Y-67547257D01*
X166381048Y-67547257D01*
X166381010Y-67635283D01*
X166380166Y-67684308D01*
X166375024Y-67713065D01*
X166361587Y-67730311D01*
X166335858Y-67744808D01*
X166329679Y-67747769D01*
X166300764Y-67761648D01*
X166278376Y-67770414D01*
X166261729Y-67771171D01*
X166250036Y-67761023D01*
X166242510Y-67737073D01*
X166238366Y-67696426D01*
X166236815Y-67636186D01*
X166237071Y-67553455D01*
X166238349Y-67445339D01*
X166238748Y-67413000D01*
X166240185Y-67301524D01*
X166241472Y-67228603D01*
X166380971Y-67228603D01*
X166381755Y-67290499D01*
X166385240Y-67330997D01*
X166393124Y-67357708D01*
X166407105Y-67378244D01*
X166416597Y-67388260D01*
X166455404Y-67417567D01*
X166489763Y-67419952D01*
X166525216Y-67395750D01*
X166526114Y-67394857D01*
X166540539Y-67376153D01*
X166549313Y-67350732D01*
X166553739Y-67311584D01*
X166555118Y-67251697D01*
X166555143Y-67238430D01*
X166551812Y-67155901D01*
X166540969Y-67098691D01*
X166521340Y-67063766D01*
X166491650Y-67048094D01*
X166474491Y-67046514D01*
X166433766Y-67053926D01*
X166405832Y-67078330D01*
X166389017Y-67122980D01*
X166381650Y-67191130D01*
X166380971Y-67228603D01*
X166241472Y-67228603D01*
X166241708Y-67215245D01*
X166243677Y-67150333D01*
X166246450Y-67102958D01*
X166250388Y-67069290D01*
X166255849Y-67045498D01*
X166263192Y-67027753D01*
X166272777Y-67012224D01*
X166276887Y-67006381D01*
X166331405Y-66951185D01*
X166400336Y-66919890D01*
X166480072Y-66911165D01*
X166549744Y-66919918D01*
G36*
X167666093Y-66927780D02*
X167712672Y-66954723D01*
X167745057Y-66981466D01*
X167768742Y-67009484D01*
X167785059Y-67043748D01*
X167795339Y-67089227D01*
X167800914Y-67150892D01*
X167803116Y-67233711D01*
X167803371Y-67293246D01*
X167803371Y-67512391D01*
X167741686Y-67540044D01*
X167680000Y-67567697D01*
X167672743Y-67327670D01*
X167669744Y-67238028D01*
X167666598Y-67172962D01*
X167662701Y-67128026D01*
X167657447Y-67098770D01*
X167650231Y-67080748D01*
X167640450Y-67069511D01*
X167637312Y-67067079D01*
X167589761Y-67048083D01*
X167541697Y-67055600D01*
X167513086Y-67075543D01*
X167501447Y-67089675D01*
X167493391Y-67108220D01*
X167488271Y-67136334D01*
X167485441Y-67179173D01*
X167484256Y-67241895D01*
X167484057Y-67307261D01*
X167484018Y-67389268D01*
X167482614Y-67447316D01*
X167477914Y-67486465D01*
X167467987Y-67511780D01*
X167450903Y-67528323D01*
X167424732Y-67541156D01*
X167389775Y-67554491D01*
X167351596Y-67569007D01*
X167356141Y-67311389D01*
X167357971Y-67218519D01*
X167360112Y-67149889D01*
X167363181Y-67100711D01*
X167367794Y-67066198D01*
X167374568Y-67041562D01*
X167384119Y-67022016D01*
X167395634Y-67004770D01*
X167451190Y-66949680D01*
X167518980Y-66917822D01*
X167592713Y-66910191D01*
X167666093Y-66927780D01*
X167666093Y-66927780D01*
G37*
X167666093Y-66927780D02*
X167712672Y-66954723D01*
X167745057Y-66981466D01*
X167768742Y-67009484D01*
X167785059Y-67043748D01*
X167795339Y-67089227D01*
X167800914Y-67150892D01*
X167803116Y-67233711D01*
X167803371Y-67293246D01*
X167803371Y-67512391D01*
X167741686Y-67540044D01*
X167680000Y-67567697D01*
X167672743Y-67327670D01*
X167669744Y-67238028D01*
X167666598Y-67172962D01*
X167662701Y-67128026D01*
X167657447Y-67098770D01*
X167650231Y-67080748D01*
X167640450Y-67069511D01*
X167637312Y-67067079D01*
X167589761Y-67048083D01*
X167541697Y-67055600D01*
X167513086Y-67075543D01*
X167501447Y-67089675D01*
X167493391Y-67108220D01*
X167488271Y-67136334D01*
X167485441Y-67179173D01*
X167484256Y-67241895D01*
X167484057Y-67307261D01*
X167484018Y-67389268D01*
X167482614Y-67447316D01*
X167477914Y-67486465D01*
X167467987Y-67511780D01*
X167450903Y-67528323D01*
X167424732Y-67541156D01*
X167389775Y-67554491D01*
X167351596Y-67569007D01*
X167356141Y-67311389D01*
X167357971Y-67218519D01*
X167360112Y-67149889D01*
X167363181Y-67100711D01*
X167367794Y-67066198D01*
X167374568Y-67041562D01*
X167384119Y-67022016D01*
X167395634Y-67004770D01*
X167451190Y-66949680D01*
X167518980Y-66917822D01*
X167592713Y-66910191D01*
X167666093Y-66927780D01*
G36*
X165991115Y-66921962D02*
X166059145Y-66957733D01*
X166109351Y-67015301D01*
X166127185Y-67052312D01*
X166141063Y-67107882D01*
X166148167Y-67178096D01*
X166148840Y-67254727D01*
X166143427Y-67329552D01*
X166132270Y-67394342D01*
X166115714Y-67440873D01*
X166110626Y-67448887D01*
X166050355Y-67508707D01*
X165978769Y-67544535D01*
X165901092Y-67555020D01*
X165822548Y-67538810D01*
X165800689Y-67529092D01*
X165758122Y-67499143D01*
X165720763Y-67459433D01*
X165717232Y-67454397D01*
X165702881Y-67430124D01*
X165693394Y-67404178D01*
X165687790Y-67370022D01*
X165685086Y-67321119D01*
X165684299Y-67250935D01*
X165684286Y-67235200D01*
X165684322Y-67230192D01*
X165829429Y-67230192D01*
X165830273Y-67296430D01*
X165833596Y-67340386D01*
X165840583Y-67368779D01*
X165852416Y-67388325D01*
X165858457Y-67394857D01*
X165893186Y-67419680D01*
X165926903Y-67418548D01*
X165960995Y-67397016D01*
X165981329Y-67374029D01*
X165993371Y-67340478D01*
X166000134Y-67287569D01*
X166000598Y-67281399D01*
X166001752Y-67185513D01*
X165989688Y-67114299D01*
X165964570Y-67068194D01*
X165926560Y-67047635D01*
X165912992Y-67046514D01*
X165877364Y-67052152D01*
X165852994Y-67071686D01*
X165838093Y-67109042D01*
X165830875Y-67168150D01*
X165829429Y-67230192D01*
X165684322Y-67230192D01*
X165684826Y-67160413D01*
X165687096Y-67108159D01*
X165692068Y-67071949D01*
X165700713Y-67045299D01*
X165714005Y-67021722D01*
X165716943Y-67017338D01*
X165766313Y-66958249D01*
X165820109Y-66923947D01*
X165885602Y-66910331D01*
X165907842Y-66909665D01*
X165991115Y-66921962D01*
X165991115Y-66921962D01*
G37*
X165991115Y-66921962D02*
X166059145Y-66957733D01*
X166109351Y-67015301D01*
X166127185Y-67052312D01*
X166141063Y-67107882D01*
X166148167Y-67178096D01*
X166148840Y-67254727D01*
X166143427Y-67329552D01*
X166132270Y-67394342D01*
X166115714Y-67440873D01*
X166110626Y-67448887D01*
X166050355Y-67508707D01*
X165978769Y-67544535D01*
X165901092Y-67555020D01*
X165822548Y-67538810D01*
X165800689Y-67529092D01*
X165758122Y-67499143D01*
X165720763Y-67459433D01*
X165717232Y-67454397D01*
X165702881Y-67430124D01*
X165693394Y-67404178D01*
X165687790Y-67370022D01*
X165685086Y-67321119D01*
X165684299Y-67250935D01*
X165684286Y-67235200D01*
X165684322Y-67230192D01*
X165829429Y-67230192D01*
X165830273Y-67296430D01*
X165833596Y-67340386D01*
X165840583Y-67368779D01*
X165852416Y-67388325D01*
X165858457Y-67394857D01*
X165893186Y-67419680D01*
X165926903Y-67418548D01*
X165960995Y-67397016D01*
X165981329Y-67374029D01*
X165993371Y-67340478D01*
X166000134Y-67287569D01*
X166000598Y-67281399D01*
X166001752Y-67185513D01*
X165989688Y-67114299D01*
X165964570Y-67068194D01*
X165926560Y-67047635D01*
X165912992Y-67046514D01*
X165877364Y-67052152D01*
X165852994Y-67071686D01*
X165838093Y-67109042D01*
X165830875Y-67168150D01*
X165829429Y-67230192D01*
X165684322Y-67230192D01*
X165684826Y-67160413D01*
X165687096Y-67108159D01*
X165692068Y-67071949D01*
X165700713Y-67045299D01*
X165714005Y-67021722D01*
X165716943Y-67017338D01*
X165766313Y-66958249D01*
X165820109Y-66923947D01*
X165885602Y-66910331D01*
X165907842Y-66909665D01*
X165991115Y-66921962D01*
G36*
X167118303Y-66931239D02*
X167175527Y-66969735D01*
X167219749Y-67025335D01*
X167246167Y-67096086D01*
X167251510Y-67148162D01*
X167250903Y-67169893D01*
X167245822Y-67186531D01*
X167231855Y-67201437D01*
X167204589Y-67217973D01*
X167159612Y-67239498D01*
X167092511Y-67269374D01*
X167092171Y-67269524D01*
X167030407Y-67297813D01*
X166979759Y-67322933D01*
X166945404Y-67342179D01*
X166932518Y-67352848D01*
X166932514Y-67352934D01*
X166943872Y-67376166D01*
X166970431Y-67401774D01*
X167000923Y-67420221D01*
X167016370Y-67423886D01*
X167058515Y-67411212D01*
X167094808Y-67379471D01*
X167112517Y-67344572D01*
X167129552Y-67318845D01*
X167162922Y-67289546D01*
X167202149Y-67264235D01*
X167236756Y-67250471D01*
X167243993Y-67249714D01*
X167252139Y-67262160D01*
X167252630Y-67293972D01*
X167246643Y-67336866D01*
X167235357Y-67382558D01*
X167219950Y-67422761D01*
X167219171Y-67424322D01*
X167172804Y-67489062D01*
X167112711Y-67533097D01*
X167044465Y-67554711D01*
X166973638Y-67552185D01*
X166905804Y-67523804D01*
X166902788Y-67521808D01*
X166849427Y-67473448D01*
X166814340Y-67410352D01*
X166794922Y-67327387D01*
X166792316Y-67304078D01*
X166787701Y-67194055D01*
X166793233Y-67142748D01*
X166932514Y-67142748D01*
X166934324Y-67174753D01*
X166944222Y-67184093D01*
X166968898Y-67177105D01*
X167007795Y-67160587D01*
X167051275Y-67139881D01*
X167052356Y-67139333D01*
X167089209Y-67119949D01*
X167104000Y-67107013D01*
X167100353Y-67093451D01*
X167084995Y-67075632D01*
X167045923Y-67049845D01*
X167003846Y-67047950D01*
X166966103Y-67066717D01*
X166940034Y-67102915D01*
X166932514Y-67142748D01*
X166793233Y-67142748D01*
X166797194Y-67106027D01*
X166821550Y-67036212D01*
X166855456Y-66987302D01*
X166916653Y-66937878D01*
X166984063Y-66913359D01*
X167052880Y-66911797D01*
X167118303Y-66931239D01*
X167118303Y-66931239D01*
G37*
X167118303Y-66931239D02*
X167175527Y-66969735D01*
X167219749Y-67025335D01*
X167246167Y-67096086D01*
X167251510Y-67148162D01*
X167250903Y-67169893D01*
X167245822Y-67186531D01*
X167231855Y-67201437D01*
X167204589Y-67217973D01*
X167159612Y-67239498D01*
X167092511Y-67269374D01*
X167092171Y-67269524D01*
X167030407Y-67297813D01*
X166979759Y-67322933D01*
X166945404Y-67342179D01*
X166932518Y-67352848D01*
X166932514Y-67352934D01*
X166943872Y-67376166D01*
X166970431Y-67401774D01*
X167000923Y-67420221D01*
X167016370Y-67423886D01*
X167058515Y-67411212D01*
X167094808Y-67379471D01*
X167112517Y-67344572D01*
X167129552Y-67318845D01*
X167162922Y-67289546D01*
X167202149Y-67264235D01*
X167236756Y-67250471D01*
X167243993Y-67249714D01*
X167252139Y-67262160D01*
X167252630Y-67293972D01*
X167246643Y-67336866D01*
X167235357Y-67382558D01*
X167219950Y-67422761D01*
X167219171Y-67424322D01*
X167172804Y-67489062D01*
X167112711Y-67533097D01*
X167044465Y-67554711D01*
X166973638Y-67552185D01*
X166905804Y-67523804D01*
X166902788Y-67521808D01*
X166849427Y-67473448D01*
X166814340Y-67410352D01*
X166794922Y-67327387D01*
X166792316Y-67304078D01*
X166787701Y-67194055D01*
X166793233Y-67142748D01*
X166932514Y-67142748D01*
X166934324Y-67174753D01*
X166944222Y-67184093D01*
X166968898Y-67177105D01*
X167007795Y-67160587D01*
X167051275Y-67139881D01*
X167052356Y-67139333D01*
X167089209Y-67119949D01*
X167104000Y-67107013D01*
X167100353Y-67093451D01*
X167084995Y-67075632D01*
X167045923Y-67049845D01*
X167003846Y-67047950D01*
X166966103Y-67066717D01*
X166940034Y-67102915D01*
X166932514Y-67142748D01*
X166793233Y-67142748D01*
X166797194Y-67106027D01*
X166821550Y-67036212D01*
X166855456Y-66987302D01*
X166916653Y-66937878D01*
X166984063Y-66913359D01*
X167052880Y-66911797D01*
X167118303Y-66931239D01*
G36*
X168325886Y-66851289D02*
X168330139Y-66910613D01*
X168335025Y-66945572D01*
X168341795Y-66960820D01*
X168351702Y-66961015D01*
X168354914Y-66959195D01*
X168397644Y-66946015D01*
X168453227Y-66946785D01*
X168509737Y-66960333D01*
X168545082Y-66977861D01*
X168581321Y-67005861D01*
X168607813Y-67037549D01*
X168625999Y-67077813D01*
X168637322Y-67131543D01*
X168643222Y-67203626D01*
X168645143Y-67298951D01*
X168645177Y-67317237D01*
X168645200Y-67522646D01*
X168599491Y-67538580D01*
X168567027Y-67549420D01*
X168549215Y-67554468D01*
X168548691Y-67554514D01*
X168546937Y-67540828D01*
X168545444Y-67503076D01*
X168544326Y-67446224D01*
X168543697Y-67375234D01*
X168543600Y-67332073D01*
X168543398Y-67246973D01*
X168542358Y-67185981D01*
X168539831Y-67144177D01*
X168535164Y-67116642D01*
X168527707Y-67098456D01*
X168516811Y-67084698D01*
X168510007Y-67078073D01*
X168463272Y-67051375D01*
X168412272Y-67049375D01*
X168366001Y-67071955D01*
X168357444Y-67080107D01*
X168344893Y-67095436D01*
X168336188Y-67113618D01*
X168330631Y-67139909D01*
X168327526Y-67179562D01*
X168326176Y-67237832D01*
X168325886Y-67318173D01*
X168325886Y-67522646D01*
X168280177Y-67538580D01*
X168247713Y-67549420D01*
X168229901Y-67554468D01*
X168229377Y-67554514D01*
X168228037Y-67540623D01*
X168226828Y-67501439D01*
X168225801Y-67440700D01*
X168225002Y-67362141D01*
X168224481Y-67269498D01*
X168224286Y-67166509D01*
X168224286Y-66769342D01*
X168271457Y-66749444D01*
X168318629Y-66729547D01*
X168325886Y-66851289D01*
X168325886Y-66851289D01*
G37*
X168325886Y-66851289D02*
X168330139Y-66910613D01*
X168335025Y-66945572D01*
X168341795Y-66960820D01*
X168351702Y-66961015D01*
X168354914Y-66959195D01*
X168397644Y-66946015D01*
X168453227Y-66946785D01*
X168509737Y-66960333D01*
X168545082Y-66977861D01*
X168581321Y-67005861D01*
X168607813Y-67037549D01*
X168625999Y-67077813D01*
X168637322Y-67131543D01*
X168643222Y-67203626D01*
X168645143Y-67298951D01*
X168645177Y-67317237D01*
X168645200Y-67522646D01*
X168599491Y-67538580D01*
X168567027Y-67549420D01*
X168549215Y-67554468D01*
X168548691Y-67554514D01*
X168546937Y-67540828D01*
X168545444Y-67503076D01*
X168544326Y-67446224D01*
X168543697Y-67375234D01*
X168543600Y-67332073D01*
X168543398Y-67246973D01*
X168542358Y-67185981D01*
X168539831Y-67144177D01*
X168535164Y-67116642D01*
X168527707Y-67098456D01*
X168516811Y-67084698D01*
X168510007Y-67078073D01*
X168463272Y-67051375D01*
X168412272Y-67049375D01*
X168366001Y-67071955D01*
X168357444Y-67080107D01*
X168344893Y-67095436D01*
X168336188Y-67113618D01*
X168330631Y-67139909D01*
X168327526Y-67179562D01*
X168326176Y-67237832D01*
X168325886Y-67318173D01*
X168325886Y-67522646D01*
X168280177Y-67538580D01*
X168247713Y-67549420D01*
X168229901Y-67554468D01*
X168229377Y-67554514D01*
X168228037Y-67540623D01*
X168226828Y-67501439D01*
X168225801Y-67440700D01*
X168225002Y-67362141D01*
X168224481Y-67269498D01*
X168224286Y-67166509D01*
X168224286Y-66769342D01*
X168271457Y-66749444D01*
X168318629Y-66729547D01*
X168325886Y-66851289D01*
G36*
X168989744Y-66950968D02*
X169046616Y-66972087D01*
X169047267Y-66972493D01*
X169082440Y-66998380D01*
X169108407Y-67028633D01*
X169126670Y-67068058D01*
X169138732Y-67121462D01*
X169146096Y-67193651D01*
X169150264Y-67289432D01*
X169150629Y-67303078D01*
X169155876Y-67508842D01*
X169111716Y-67531678D01*
X169079763Y-67547110D01*
X169060470Y-67554423D01*
X169059578Y-67554514D01*
X169056239Y-67541022D01*
X169053587Y-67504626D01*
X169051956Y-67451452D01*
X169051600Y-67408393D01*
X169051592Y-67338641D01*
X169048403Y-67294837D01*
X169037288Y-67273944D01*
X169013501Y-67272925D01*
X168972296Y-67288741D01*
X168910086Y-67317815D01*
X168864341Y-67341963D01*
X168840813Y-67362913D01*
X168833896Y-67385747D01*
X168833886Y-67386877D01*
X168845299Y-67426212D01*
X168879092Y-67447462D01*
X168930809Y-67450539D01*
X168968061Y-67450006D01*
X168987703Y-67460735D01*
X168999952Y-67486505D01*
X169007002Y-67519337D01*
X168996842Y-67537966D01*
X168993017Y-67540632D01*
X168957001Y-67551340D01*
X168906566Y-67552856D01*
X168854626Y-67545759D01*
X168817822Y-67532788D01*
X168766938Y-67489585D01*
X168738014Y-67429446D01*
X168732286Y-67382462D01*
X168736657Y-67340082D01*
X168752475Y-67305488D01*
X168783797Y-67274763D01*
X168834678Y-67243990D01*
X168909176Y-67209252D01*
X168913714Y-67207288D01*
X168980821Y-67176287D01*
X169022232Y-67150862D01*
X169039981Y-67128014D01*
X169036107Y-67104745D01*
X169012643Y-67078056D01*
X169005627Y-67071914D01*
X168958630Y-67048100D01*
X168909933Y-67049103D01*
X168867522Y-67072451D01*
X168839384Y-67115675D01*
X168836769Y-67124160D01*
X168811308Y-67165308D01*
X168779001Y-67185128D01*
X168732286Y-67204770D01*
X168732286Y-67153950D01*
X168746496Y-67080082D01*
X168788675Y-67012327D01*
X168810624Y-66989661D01*
X168860517Y-66960569D01*
X168923967Y-66947400D01*
X168989744Y-66950968D01*
X168989744Y-66950968D01*
G37*
X168989744Y-66950968D02*
X169046616Y-66972087D01*
X169047267Y-66972493D01*
X169082440Y-66998380D01*
X169108407Y-67028633D01*
X169126670Y-67068058D01*
X169138732Y-67121462D01*
X169146096Y-67193651D01*
X169150264Y-67289432D01*
X169150629Y-67303078D01*
X169155876Y-67508842D01*
X169111716Y-67531678D01*
X169079763Y-67547110D01*
X169060470Y-67554423D01*
X169059578Y-67554514D01*
X169056239Y-67541022D01*
X169053587Y-67504626D01*
X169051956Y-67451452D01*
X169051600Y-67408393D01*
X169051592Y-67338641D01*
X169048403Y-67294837D01*
X169037288Y-67273944D01*
X169013501Y-67272925D01*
X168972296Y-67288741D01*
X168910086Y-67317815D01*
X168864341Y-67341963D01*
X168840813Y-67362913D01*
X168833896Y-67385747D01*
X168833886Y-67386877D01*
X168845299Y-67426212D01*
X168879092Y-67447462D01*
X168930809Y-67450539D01*
X168968061Y-67450006D01*
X168987703Y-67460735D01*
X168999952Y-67486505D01*
X169007002Y-67519337D01*
X168996842Y-67537966D01*
X168993017Y-67540632D01*
X168957001Y-67551340D01*
X168906566Y-67552856D01*
X168854626Y-67545759D01*
X168817822Y-67532788D01*
X168766938Y-67489585D01*
X168738014Y-67429446D01*
X168732286Y-67382462D01*
X168736657Y-67340082D01*
X168752475Y-67305488D01*
X168783797Y-67274763D01*
X168834678Y-67243990D01*
X168909176Y-67209252D01*
X168913714Y-67207288D01*
X168980821Y-67176287D01*
X169022232Y-67150862D01*
X169039981Y-67128014D01*
X169036107Y-67104745D01*
X169012643Y-67078056D01*
X169005627Y-67071914D01*
X168958630Y-67048100D01*
X168909933Y-67049103D01*
X168867522Y-67072451D01*
X168839384Y-67115675D01*
X168836769Y-67124160D01*
X168811308Y-67165308D01*
X168779001Y-67185128D01*
X168732286Y-67204770D01*
X168732286Y-67153950D01*
X168746496Y-67080082D01*
X168788675Y-67012327D01*
X168810624Y-66989661D01*
X168860517Y-66960569D01*
X168923967Y-66947400D01*
X168989744Y-66950968D01*
G36*
X169479926Y-66949755D02*
X169545858Y-66974084D01*
X169599273Y-67017117D01*
X169620164Y-67047409D01*
X169642939Y-67102994D01*
X169642466Y-67143186D01*
X169618562Y-67170217D01*
X169609717Y-67174813D01*
X169571530Y-67189144D01*
X169552028Y-67185472D01*
X169545422Y-67161407D01*
X169545086Y-67148114D01*
X169532992Y-67099210D01*
X169501471Y-67064999D01*
X169457659Y-67048476D01*
X169408695Y-67052634D01*
X169368894Y-67074227D01*
X169355450Y-67086544D01*
X169345921Y-67101487D01*
X169339485Y-67124075D01*
X169335317Y-67159328D01*
X169332597Y-67212266D01*
X169330502Y-67287907D01*
X169329960Y-67311857D01*
X169327981Y-67393790D01*
X169325731Y-67451455D01*
X169322357Y-67489608D01*
X169317006Y-67513004D01*
X169308824Y-67526398D01*
X169296959Y-67534545D01*
X169289362Y-67538144D01*
X169257102Y-67550452D01*
X169238111Y-67554514D01*
X169231836Y-67540948D01*
X169228006Y-67499934D01*
X169226600Y-67430999D01*
X169227598Y-67333669D01*
X169227908Y-67318657D01*
X169230101Y-67229859D01*
X169232693Y-67165019D01*
X169236382Y-67119067D01*
X169241864Y-67086935D01*
X169249835Y-67063553D01*
X169260993Y-67043852D01*
X169266830Y-67035410D01*
X169300296Y-66998057D01*
X169337727Y-66969003D01*
X169342309Y-66966467D01*
X169409426Y-66946443D01*
X169479926Y-66949755D01*
X169479926Y-66949755D01*
G37*
X169479926Y-66949755D02*
X169545858Y-66974084D01*
X169599273Y-67017117D01*
X169620164Y-67047409D01*
X169642939Y-67102994D01*
X169642466Y-67143186D01*
X169618562Y-67170217D01*
X169609717Y-67174813D01*
X169571530Y-67189144D01*
X169552028Y-67185472D01*
X169545422Y-67161407D01*
X169545086Y-67148114D01*
X169532992Y-67099210D01*
X169501471Y-67064999D01*
X169457659Y-67048476D01*
X169408695Y-67052634D01*
X169368894Y-67074227D01*
X169355450Y-67086544D01*
X169345921Y-67101487D01*
X169339485Y-67124075D01*
X169335317Y-67159328D01*
X169332597Y-67212266D01*
X169330502Y-67287907D01*
X169329960Y-67311857D01*
X169327981Y-67393790D01*
X169325731Y-67451455D01*
X169322357Y-67489608D01*
X169317006Y-67513004D01*
X169308824Y-67526398D01*
X169296959Y-67534545D01*
X169289362Y-67538144D01*
X169257102Y-67550452D01*
X169238111Y-67554514D01*
X169231836Y-67540948D01*
X169228006Y-67499934D01*
X169226600Y-67430999D01*
X169227598Y-67333669D01*
X169227908Y-67318657D01*
X169230101Y-67229859D01*
X169232693Y-67165019D01*
X169236382Y-67119067D01*
X169241864Y-67086935D01*
X169249835Y-67063553D01*
X169260993Y-67043852D01*
X169266830Y-67035410D01*
X169300296Y-66998057D01*
X169337727Y-66969003D01*
X169342309Y-66966467D01*
X169409426Y-66946443D01*
X169479926Y-66949755D01*
G36*
X170140117Y-67065358D02*
X170139933Y-67173837D01*
X170139219Y-67257287D01*
X170137675Y-67319704D01*
X170135001Y-67365085D01*
X170130894Y-67397429D01*
X170125055Y-67420733D01*
X170117182Y-67438995D01*
X170111221Y-67449418D01*
X170061855Y-67505945D01*
X169999264Y-67541377D01*
X169930013Y-67554090D01*
X169860668Y-67542463D01*
X169819375Y-67521568D01*
X169776025Y-67485422D01*
X169746481Y-67441276D01*
X169728655Y-67383462D01*
X169720463Y-67306313D01*
X169719302Y-67249714D01*
X169719458Y-67245647D01*
X169820857Y-67245647D01*
X169821476Y-67310550D01*
X169824314Y-67353514D01*
X169830840Y-67381622D01*
X169842523Y-67401953D01*
X169856483Y-67417288D01*
X169903365Y-67446890D01*
X169953701Y-67449419D01*
X170001276Y-67424705D01*
X170004979Y-67421356D01*
X170020783Y-67403935D01*
X170030693Y-67383209D01*
X170036058Y-67352362D01*
X170038228Y-67304577D01*
X170038571Y-67251748D01*
X170037827Y-67185381D01*
X170034748Y-67141106D01*
X170028061Y-67112009D01*
X170016496Y-67091173D01*
X170007013Y-67080107D01*
X169962960Y-67052198D01*
X169912224Y-67048843D01*
X169863796Y-67070159D01*
X169854450Y-67078073D01*
X169838540Y-67095647D01*
X169828610Y-67116587D01*
X169823278Y-67147782D01*
X169821163Y-67196122D01*
X169820857Y-67245647D01*
X169719458Y-67245647D01*
X169722810Y-67158568D01*
X169734726Y-67090086D01*
X169757135Y-67038600D01*
X169792124Y-66998443D01*
X169819375Y-66977861D01*
X169868907Y-66955625D01*
X169926316Y-66945304D01*
X169979682Y-66948067D01*
X170009543Y-66959212D01*
X170021261Y-66962383D01*
X170029037Y-66950557D01*
X170034465Y-66918866D01*
X170038571Y-66870593D01*
X170043067Y-66816829D01*
X170049313Y-66784482D01*
X170060676Y-66765985D01*
X170080528Y-66753770D01*
X170093000Y-66748362D01*
X170140171Y-66728601D01*
X170140117Y-67065358D01*
X170140117Y-67065358D01*
G37*
X170140117Y-67065358D02*
X170139933Y-67173837D01*
X170139219Y-67257287D01*
X170137675Y-67319704D01*
X170135001Y-67365085D01*
X170130894Y-67397429D01*
X170125055Y-67420733D01*
X170117182Y-67438995D01*
X170111221Y-67449418D01*
X170061855Y-67505945D01*
X169999264Y-67541377D01*
X169930013Y-67554090D01*
X169860668Y-67542463D01*
X169819375Y-67521568D01*
X169776025Y-67485422D01*
X169746481Y-67441276D01*
X169728655Y-67383462D01*
X169720463Y-67306313D01*
X169719302Y-67249714D01*
X169719458Y-67245647D01*
X169820857Y-67245647D01*
X169821476Y-67310550D01*
X169824314Y-67353514D01*
X169830840Y-67381622D01*
X169842523Y-67401953D01*
X169856483Y-67417288D01*
X169903365Y-67446890D01*
X169953701Y-67449419D01*
X170001276Y-67424705D01*
X170004979Y-67421356D01*
X170020783Y-67403935D01*
X170030693Y-67383209D01*
X170036058Y-67352362D01*
X170038228Y-67304577D01*
X170038571Y-67251748D01*
X170037827Y-67185381D01*
X170034748Y-67141106D01*
X170028061Y-67112009D01*
X170016496Y-67091173D01*
X170007013Y-67080107D01*
X169962960Y-67052198D01*
X169912224Y-67048843D01*
X169863796Y-67070159D01*
X169854450Y-67078073D01*
X169838540Y-67095647D01*
X169828610Y-67116587D01*
X169823278Y-67147782D01*
X169821163Y-67196122D01*
X169820857Y-67245647D01*
X169719458Y-67245647D01*
X169722810Y-67158568D01*
X169734726Y-67090086D01*
X169757135Y-67038600D01*
X169792124Y-66998443D01*
X169819375Y-66977861D01*
X169868907Y-66955625D01*
X169926316Y-66945304D01*
X169979682Y-66948067D01*
X170009543Y-66959212D01*
X170021261Y-66962383D01*
X170029037Y-66950557D01*
X170034465Y-66918866D01*
X170038571Y-66870593D01*
X170043067Y-66816829D01*
X170049313Y-66784482D01*
X170060676Y-66765985D01*
X170080528Y-66753770D01*
X170093000Y-66748362D01*
X170140171Y-66728601D01*
X170140117Y-67065358D01*
G36*
X170729833Y-66958663D02*
X170732048Y-66996850D01*
X170733784Y-67054886D01*
X170734899Y-67128180D01*
X170735257Y-67205055D01*
X170735257Y-67465196D01*
X170689326Y-67511127D01*
X170657675Y-67539429D01*
X170629890Y-67550893D01*
X170591915Y-67550168D01*
X170576840Y-67548321D01*
X170529726Y-67542948D01*
X170490756Y-67539869D01*
X170481257Y-67539585D01*
X170449233Y-67541445D01*
X170403432Y-67546114D01*
X170385674Y-67548321D01*
X170342057Y-67551735D01*
X170312745Y-67544320D01*
X170283680Y-67521427D01*
X170273188Y-67511127D01*
X170227257Y-67465196D01*
X170227257Y-66978602D01*
X170264226Y-66961758D01*
X170296059Y-66949282D01*
X170314683Y-66944914D01*
X170319458Y-66958718D01*
X170323921Y-66997286D01*
X170327775Y-67056356D01*
X170330722Y-67131663D01*
X170332143Y-67195286D01*
X170336114Y-67445657D01*
X170370759Y-67450556D01*
X170402268Y-67447131D01*
X170417708Y-67436041D01*
X170422023Y-67415308D01*
X170425708Y-67371145D01*
X170428469Y-67309146D01*
X170430012Y-67234909D01*
X170430235Y-67196706D01*
X170430457Y-66976783D01*
X170476166Y-66960849D01*
X170508518Y-66950015D01*
X170526115Y-66944962D01*
X170526623Y-66944914D01*
X170528388Y-66958648D01*
X170530329Y-66996730D01*
X170532282Y-67054482D01*
X170534084Y-67127227D01*
X170535343Y-67195286D01*
X170539314Y-67445657D01*
X170626400Y-67445657D01*
X170630396Y-67217240D01*
X170634392Y-66988822D01*
X170676847Y-66966868D01*
X170708192Y-66951793D01*
X170726744Y-66944951D01*
X170727279Y-66944914D01*
X170729833Y-66958663D01*
X170729833Y-66958663D01*
G37*
X170729833Y-66958663D02*
X170732048Y-66996850D01*
X170733784Y-67054886D01*
X170734899Y-67128180D01*
X170735257Y-67205055D01*
X170735257Y-67465196D01*
X170689326Y-67511127D01*
X170657675Y-67539429D01*
X170629890Y-67550893D01*
X170591915Y-67550168D01*
X170576840Y-67548321D01*
X170529726Y-67542948D01*
X170490756Y-67539869D01*
X170481257Y-67539585D01*
X170449233Y-67541445D01*
X170403432Y-67546114D01*
X170385674Y-67548321D01*
X170342057Y-67551735D01*
X170312745Y-67544320D01*
X170283680Y-67521427D01*
X170273188Y-67511127D01*
X170227257Y-67465196D01*
X170227257Y-66978602D01*
X170264226Y-66961758D01*
X170296059Y-66949282D01*
X170314683Y-66944914D01*
X170319458Y-66958718D01*
X170323921Y-66997286D01*
X170327775Y-67056356D01*
X170330722Y-67131663D01*
X170332143Y-67195286D01*
X170336114Y-67445657D01*
X170370759Y-67450556D01*
X170402268Y-67447131D01*
X170417708Y-67436041D01*
X170422023Y-67415308D01*
X170425708Y-67371145D01*
X170428469Y-67309146D01*
X170430012Y-67234909D01*
X170430235Y-67196706D01*
X170430457Y-66976783D01*
X170476166Y-66960849D01*
X170508518Y-66950015D01*
X170526115Y-66944962D01*
X170526623Y-66944914D01*
X170528388Y-66958648D01*
X170530329Y-66996730D01*
X170532282Y-67054482D01*
X170534084Y-67127227D01*
X170535343Y-67195286D01*
X170539314Y-67445657D01*
X170626400Y-67445657D01*
X170630396Y-67217240D01*
X170634392Y-66988822D01*
X170676847Y-66966868D01*
X170708192Y-66951793D01*
X170726744Y-66944951D01*
X170727279Y-66944914D01*
X170729833Y-66958663D01*
G36*
X171094876Y-66956335D02*
X171136667Y-66975344D01*
X171169469Y-66998378D01*
X171193503Y-67024133D01*
X171210097Y-67057358D01*
X171220577Y-67102800D01*
X171226271Y-67165207D01*
X171228507Y-67249327D01*
X171228743Y-67304721D01*
X171228743Y-67520826D01*
X171191774Y-67537670D01*
X171162656Y-67549981D01*
X171148231Y-67554514D01*
X171145472Y-67541025D01*
X171143282Y-67504653D01*
X171141942Y-67451542D01*
X171141657Y-67409372D01*
X171140434Y-67348447D01*
X171137136Y-67300115D01*
X171132321Y-67270518D01*
X171128496Y-67264229D01*
X171102783Y-67270652D01*
X171062418Y-67287125D01*
X171015679Y-67309458D01*
X170970845Y-67333457D01*
X170936193Y-67354930D01*
X170920002Y-67369685D01*
X170919938Y-67369845D01*
X170921330Y-67397152D01*
X170933818Y-67423219D01*
X170955743Y-67444392D01*
X170987743Y-67451474D01*
X171015092Y-67450649D01*
X171053826Y-67450042D01*
X171074158Y-67459116D01*
X171086369Y-67483092D01*
X171087909Y-67487613D01*
X171093203Y-67521806D01*
X171079047Y-67542568D01*
X171042148Y-67552462D01*
X171002289Y-67554292D01*
X170930562Y-67540727D01*
X170893432Y-67521355D01*
X170847576Y-67475845D01*
X170823256Y-67419983D01*
X170821073Y-67360957D01*
X170841629Y-67305953D01*
X170872549Y-67271486D01*
X170903420Y-67252189D01*
X170951942Y-67227759D01*
X171008485Y-67202985D01*
X171017910Y-67199199D01*
X171080019Y-67171791D01*
X171115822Y-67147634D01*
X171127337Y-67123619D01*
X171116580Y-67096635D01*
X171098114Y-67075543D01*
X171054469Y-67049572D01*
X171006446Y-67047624D01*
X170962406Y-67067637D01*
X170930709Y-67107551D01*
X170926549Y-67117848D01*
X170902327Y-67155724D01*
X170866965Y-67183842D01*
X170822343Y-67206917D01*
X170822343Y-67141485D01*
X170824969Y-67101506D01*
X170836230Y-67069997D01*
X170861199Y-67036378D01*
X170885169Y-67010484D01*
X170922441Y-66973817D01*
X170951401Y-66954121D01*
X170982505Y-66946220D01*
X171017713Y-66944914D01*
X171094876Y-66956335D01*
X171094876Y-66956335D01*
G37*
X171094876Y-66956335D02*
X171136667Y-66975344D01*
X171169469Y-66998378D01*
X171193503Y-67024133D01*
X171210097Y-67057358D01*
X171220577Y-67102800D01*
X171226271Y-67165207D01*
X171228507Y-67249327D01*
X171228743Y-67304721D01*
X171228743Y-67520826D01*
X171191774Y-67537670D01*
X171162656Y-67549981D01*
X171148231Y-67554514D01*
X171145472Y-67541025D01*
X171143282Y-67504653D01*
X171141942Y-67451542D01*
X171141657Y-67409372D01*
X171140434Y-67348447D01*
X171137136Y-67300115D01*
X171132321Y-67270518D01*
X171128496Y-67264229D01*
X171102783Y-67270652D01*
X171062418Y-67287125D01*
X171015679Y-67309458D01*
X170970845Y-67333457D01*
X170936193Y-67354930D01*
X170920002Y-67369685D01*
X170919938Y-67369845D01*
X170921330Y-67397152D01*
X170933818Y-67423219D01*
X170955743Y-67444392D01*
X170987743Y-67451474D01*
X171015092Y-67450649D01*
X171053826Y-67450042D01*
X171074158Y-67459116D01*
X171086369Y-67483092D01*
X171087909Y-67487613D01*
X171093203Y-67521806D01*
X171079047Y-67542568D01*
X171042148Y-67552462D01*
X171002289Y-67554292D01*
X170930562Y-67540727D01*
X170893432Y-67521355D01*
X170847576Y-67475845D01*
X170823256Y-67419983D01*
X170821073Y-67360957D01*
X170841629Y-67305953D01*
X170872549Y-67271486D01*
X170903420Y-67252189D01*
X170951942Y-67227759D01*
X171008485Y-67202985D01*
X171017910Y-67199199D01*
X171080019Y-67171791D01*
X171115822Y-67147634D01*
X171127337Y-67123619D01*
X171116580Y-67096635D01*
X171098114Y-67075543D01*
X171054469Y-67049572D01*
X171006446Y-67047624D01*
X170962406Y-67067637D01*
X170930709Y-67107551D01*
X170926549Y-67117848D01*
X170902327Y-67155724D01*
X170866965Y-67183842D01*
X170822343Y-67206917D01*
X170822343Y-67141485D01*
X170824969Y-67101506D01*
X170836230Y-67069997D01*
X170861199Y-67036378D01*
X170885169Y-67010484D01*
X170922441Y-66973817D01*
X170951401Y-66954121D01*
X170982505Y-66946220D01*
X171017713Y-66944914D01*
X171094876Y-66956335D01*
G36*
X171602600Y-66958752D02*
X171619948Y-66966334D01*
X171661356Y-66999128D01*
X171696765Y-67046547D01*
X171718664Y-67097151D01*
X171722229Y-67122098D01*
X171710279Y-67156927D01*
X171684067Y-67175357D01*
X171655964Y-67186516D01*
X171643095Y-67188572D01*
X171636829Y-67173649D01*
X171624456Y-67141175D01*
X171619028Y-67126502D01*
X171588590Y-67075744D01*
X171544520Y-67050427D01*
X171488010Y-67051206D01*
X171483825Y-67052203D01*
X171453655Y-67066507D01*
X171431476Y-67094393D01*
X171416327Y-67139287D01*
X171407250Y-67204615D01*
X171403286Y-67293804D01*
X171402914Y-67341261D01*
X171402730Y-67416071D01*
X171401522Y-67467069D01*
X171398309Y-67499471D01*
X171392109Y-67518495D01*
X171381940Y-67529356D01*
X171366819Y-67537272D01*
X171365946Y-67537670D01*
X171336828Y-67549981D01*
X171322403Y-67554514D01*
X171320186Y-67540809D01*
X171318289Y-67502925D01*
X171316847Y-67445715D01*
X171315998Y-67374027D01*
X171315829Y-67321565D01*
X171316692Y-67220047D01*
X171320070Y-67143032D01*
X171327142Y-67086023D01*
X171339088Y-67044526D01*
X171357090Y-67014043D01*
X171382327Y-66990080D01*
X171407247Y-66973355D01*
X171467171Y-66951097D01*
X171536911Y-66946076D01*
X171602600Y-66958752D01*
X171602600Y-66958752D01*
G37*
X171602600Y-66958752D02*
X171619948Y-66966334D01*
X171661356Y-66999128D01*
X171696765Y-67046547D01*
X171718664Y-67097151D01*
X171722229Y-67122098D01*
X171710279Y-67156927D01*
X171684067Y-67175357D01*
X171655964Y-67186516D01*
X171643095Y-67188572D01*
X171636829Y-67173649D01*
X171624456Y-67141175D01*
X171619028Y-67126502D01*
X171588590Y-67075744D01*
X171544520Y-67050427D01*
X171488010Y-67051206D01*
X171483825Y-67052203D01*
X171453655Y-67066507D01*
X171431476Y-67094393D01*
X171416327Y-67139287D01*
X171407250Y-67204615D01*
X171403286Y-67293804D01*
X171402914Y-67341261D01*
X171402730Y-67416071D01*
X171401522Y-67467069D01*
X171398309Y-67499471D01*
X171392109Y-67518495D01*
X171381940Y-67529356D01*
X171366819Y-67537272D01*
X171365946Y-67537670D01*
X171336828Y-67549981D01*
X171322403Y-67554514D01*
X171320186Y-67540809D01*
X171318289Y-67502925D01*
X171316847Y-67445715D01*
X171315998Y-67374027D01*
X171315829Y-67321565D01*
X171316692Y-67220047D01*
X171320070Y-67143032D01*
X171327142Y-67086023D01*
X171339088Y-67044526D01*
X171357090Y-67014043D01*
X171382327Y-66990080D01*
X171407247Y-66973355D01*
X171467171Y-66951097D01*
X171536911Y-66946076D01*
X171602600Y-66958752D01*
G36*
X172103595Y-66966966D02*
X172161021Y-67004497D01*
X172188719Y-67038096D01*
X172210662Y-67099064D01*
X172212405Y-67147308D01*
X172208457Y-67211816D01*
X172059686Y-67276934D01*
X171987349Y-67310202D01*
X171940084Y-67336964D01*
X171915507Y-67360144D01*
X171911237Y-67382667D01*
X171924889Y-67407455D01*
X171939943Y-67423886D01*
X171983746Y-67450235D01*
X172031389Y-67452081D01*
X172075145Y-67431546D01*
X172107289Y-67390752D01*
X172113038Y-67376347D01*
X172140576Y-67331356D01*
X172172258Y-67312182D01*
X172215714Y-67295779D01*
X172215714Y-67357966D01*
X172211872Y-67400283D01*
X172196823Y-67435969D01*
X172165280Y-67476943D01*
X172160592Y-67482267D01*
X172125506Y-67518720D01*
X172095347Y-67538283D01*
X172057615Y-67547283D01*
X172026335Y-67550230D01*
X171970385Y-67550965D01*
X171930555Y-67541660D01*
X171905708Y-67527846D01*
X171866656Y-67497467D01*
X171839625Y-67464613D01*
X171822517Y-67423294D01*
X171813238Y-67367521D01*
X171809693Y-67291305D01*
X171809410Y-67252622D01*
X171810372Y-67206247D01*
X171898007Y-67206247D01*
X171899023Y-67231126D01*
X171901556Y-67235200D01*
X171918274Y-67229665D01*
X171954249Y-67215017D01*
X172002331Y-67194190D01*
X172012386Y-67189714D01*
X172073152Y-67158814D01*
X172106632Y-67131657D01*
X172113990Y-67106220D01*
X172096391Y-67080481D01*
X172081856Y-67069109D01*
X172029410Y-67046364D01*
X171980322Y-67050122D01*
X171939227Y-67077884D01*
X171910758Y-67127152D01*
X171901631Y-67166257D01*
X171898007Y-67206247D01*
X171810372Y-67206247D01*
X171811285Y-67162249D01*
X171818196Y-67095384D01*
X171831884Y-67046695D01*
X171854096Y-67010849D01*
X171886574Y-66982513D01*
X171900733Y-66973355D01*
X171965053Y-66949507D01*
X172035473Y-66948006D01*
X172103595Y-66966966D01*
X172103595Y-66966966D01*
G37*
X172103595Y-66966966D02*
X172161021Y-67004497D01*
X172188719Y-67038096D01*
X172210662Y-67099064D01*
X172212405Y-67147308D01*
X172208457Y-67211816D01*
X172059686Y-67276934D01*
X171987349Y-67310202D01*
X171940084Y-67336964D01*
X171915507Y-67360144D01*
X171911237Y-67382667D01*
X171924889Y-67407455D01*
X171939943Y-67423886D01*
X171983746Y-67450235D01*
X172031389Y-67452081D01*
X172075145Y-67431546D01*
X172107289Y-67390752D01*
X172113038Y-67376347D01*
X172140576Y-67331356D01*
X172172258Y-67312182D01*
X172215714Y-67295779D01*
X172215714Y-67357966D01*
X172211872Y-67400283D01*
X172196823Y-67435969D01*
X172165280Y-67476943D01*
X172160592Y-67482267D01*
X172125506Y-67518720D01*
X172095347Y-67538283D01*
X172057615Y-67547283D01*
X172026335Y-67550230D01*
X171970385Y-67550965D01*
X171930555Y-67541660D01*
X171905708Y-67527846D01*
X171866656Y-67497467D01*
X171839625Y-67464613D01*
X171822517Y-67423294D01*
X171813238Y-67367521D01*
X171809693Y-67291305D01*
X171809410Y-67252622D01*
X171810372Y-67206247D01*
X171898007Y-67206247D01*
X171899023Y-67231126D01*
X171901556Y-67235200D01*
X171918274Y-67229665D01*
X171954249Y-67215017D01*
X172002331Y-67194190D01*
X172012386Y-67189714D01*
X172073152Y-67158814D01*
X172106632Y-67131657D01*
X172113990Y-67106220D01*
X172096391Y-67080481D01*
X172081856Y-67069109D01*
X172029410Y-67046364D01*
X171980322Y-67050122D01*
X171939227Y-67077884D01*
X171910758Y-67127152D01*
X171901631Y-67166257D01*
X171898007Y-67206247D01*
X171810372Y-67206247D01*
X171811285Y-67162249D01*
X171818196Y-67095384D01*
X171831884Y-67046695D01*
X171854096Y-67010849D01*
X171886574Y-66982513D01*
X171900733Y-66973355D01*
X171965053Y-66949507D01*
X172035473Y-66948006D01*
X172103595Y-66966966D01*
G36*
X169053910Y-62242348D02*
X169132454Y-62242778D01*
X169189298Y-62243942D01*
X169228105Y-62246207D01*
X169252538Y-62249940D01*
X169266262Y-62255506D01*
X169272940Y-62263273D01*
X169276236Y-62273605D01*
X169276556Y-62274943D01*
X169281562Y-62299079D01*
X169290829Y-62346701D01*
X169303392Y-62412741D01*
X169318287Y-62492128D01*
X169334551Y-62579796D01*
X169335119Y-62582875D01*
X169351410Y-62668789D01*
X169366652Y-62744696D01*
X169379861Y-62806045D01*
X169390054Y-62848282D01*
X169396248Y-62866855D01*
X169396543Y-62867184D01*
X169414788Y-62876253D01*
X169452405Y-62891367D01*
X169501271Y-62909262D01*
X169501543Y-62909358D01*
X169563093Y-62932493D01*
X169635657Y-62961965D01*
X169704057Y-62991597D01*
X169707294Y-62993062D01*
X169818702Y-63043626D01*
X170065399Y-62875160D01*
X170141077Y-62823803D01*
X170209631Y-62777889D01*
X170267088Y-62740030D01*
X170309476Y-62712837D01*
X170332825Y-62698921D01*
X170335042Y-62697889D01*
X170352010Y-62702484D01*
X170383701Y-62724655D01*
X170431352Y-62765447D01*
X170496198Y-62825905D01*
X170562397Y-62890227D01*
X170626214Y-62953612D01*
X170683329Y-63011451D01*
X170730305Y-63060175D01*
X170763703Y-63096210D01*
X170780085Y-63115984D01*
X170780694Y-63117002D01*
X170782505Y-63130572D01*
X170775683Y-63152733D01*
X170758540Y-63186478D01*
X170729393Y-63234800D01*
X170686555Y-63300692D01*
X170629448Y-63385517D01*
X170578766Y-63460177D01*
X170533461Y-63527140D01*
X170496150Y-63582516D01*
X170469452Y-63622420D01*
X170455985Y-63642962D01*
X170455137Y-63644356D01*
X170456781Y-63664038D01*
X170469245Y-63702293D01*
X170490048Y-63751889D01*
X170497462Y-63767728D01*
X170529814Y-63838290D01*
X170564328Y-63918353D01*
X170592365Y-63987629D01*
X170612568Y-64039045D01*
X170628615Y-64078119D01*
X170637888Y-64098541D01*
X170639041Y-64100114D01*
X170656096Y-64102721D01*
X170696298Y-64109863D01*
X170754302Y-64120523D01*
X170824763Y-64133685D01*
X170902335Y-64148333D01*
X170981672Y-64163449D01*
X171057431Y-64178018D01*
X171124264Y-64191022D01*
X171176828Y-64201445D01*
X171209776Y-64208270D01*
X171217857Y-64210199D01*
X171226205Y-64214962D01*
X171232506Y-64225718D01*
X171237045Y-64246098D01*
X171240104Y-64279734D01*
X171241967Y-64330255D01*
X171242918Y-64401292D01*
X171243240Y-64496476D01*
X171243257Y-64535492D01*
X171243257Y-64852799D01*
X171167057Y-64867839D01*
X171124663Y-64875995D01*
X171061400Y-64887899D01*
X170984962Y-64902116D01*
X170903043Y-64917210D01*
X170880400Y-64921355D01*
X170804806Y-64936053D01*
X170738953Y-64950505D01*
X170688366Y-64963375D01*
X170658574Y-64973322D01*
X170653612Y-64976287D01*
X170641426Y-64997283D01*
X170623953Y-65037967D01*
X170604577Y-65090322D01*
X170600734Y-65101600D01*
X170575339Y-65171523D01*
X170543817Y-65250418D01*
X170512969Y-65321266D01*
X170512817Y-65321595D01*
X170461447Y-65432733D01*
X170630399Y-65681253D01*
X170799352Y-65929772D01*
X170582429Y-66147058D01*
X170516819Y-66211726D01*
X170456979Y-66268733D01*
X170406267Y-66315033D01*
X170368046Y-66347584D01*
X170345675Y-66363343D01*
X170342466Y-66364343D01*
X170323626Y-66356469D01*
X170285180Y-66334578D01*
X170231330Y-66301267D01*
X170166276Y-66259131D01*
X170095940Y-66211943D01*
X170024555Y-66163810D01*
X169960908Y-66121928D01*
X169909041Y-66088871D01*
X169872995Y-66067218D01*
X169856867Y-66059543D01*
X169837189Y-66066037D01*
X169799875Y-66083150D01*
X169752621Y-66107326D01*
X169747612Y-66110013D01*
X169683977Y-66141927D01*
X169640341Y-66157579D01*
X169613202Y-66157745D01*
X169599057Y-66143204D01*
X169598975Y-66143000D01*
X169591905Y-66125779D01*
X169575042Y-66084899D01*
X169549695Y-66023525D01*
X169517171Y-65944819D01*
X169478778Y-65851947D01*
X169435822Y-65748072D01*
X169394222Y-65647502D01*
X169348504Y-65536516D01*
X169306526Y-65433703D01*
X169269548Y-65342215D01*
X169238827Y-65265201D01*
X169215622Y-65205815D01*
X169201190Y-65167209D01*
X169196743Y-65152800D01*
X169207896Y-65136272D01*
X169237069Y-65109930D01*
X169275971Y-65080887D01*
X169386757Y-64989039D01*
X169473351Y-64883759D01*
X169534716Y-64767266D01*
X169569815Y-64641776D01*
X169577608Y-64509507D01*
X169571943Y-64448457D01*
X169541078Y-64321795D01*
X169487920Y-64209941D01*
X169415767Y-64114001D01*
X169327917Y-64035076D01*
X169227665Y-63974270D01*
X169118310Y-63932687D01*
X169003147Y-63911428D01*
X168885475Y-63911599D01*
X168768590Y-63934301D01*
X168655789Y-63980638D01*
X168550369Y-64051713D01*
X168506368Y-64091911D01*
X168421979Y-64195129D01*
X168363222Y-64307925D01*
X168329704Y-64427010D01*
X168321035Y-64549095D01*
X168336823Y-64670893D01*
X168376678Y-64789116D01*
X168440207Y-64900475D01*
X168527021Y-65001684D01*
X168624029Y-65080887D01*
X168664437Y-65111162D01*
X168692982Y-65137219D01*
X168703257Y-65152825D01*
X168697877Y-65169843D01*
X168682575Y-65210500D01*
X168658612Y-65271642D01*
X168627244Y-65350119D01*
X168589732Y-65442780D01*
X168547333Y-65546472D01*
X168505663Y-65647526D01*
X168459690Y-65758607D01*
X168417107Y-65861541D01*
X168379221Y-65953165D01*
X168347340Y-66030316D01*
X168322771Y-66089831D01*
X168306820Y-66128544D01*
X168300910Y-66143000D01*
X168286948Y-66157685D01*
X168259940Y-66157642D01*
X168216413Y-66142099D01*
X168152890Y-66110284D01*
X168152388Y-66110013D01*
X168104560Y-66085323D01*
X168065897Y-66067338D01*
X168044095Y-66059614D01*
X168043133Y-66059543D01*
X168026721Y-66067378D01*
X167990487Y-66089165D01*
X167938474Y-66122328D01*
X167874725Y-66164291D01*
X167804060Y-66211943D01*
X167732116Y-66260191D01*
X167667274Y-66302151D01*
X167613735Y-66335227D01*
X167575697Y-66356821D01*
X167557533Y-66364343D01*
X167540808Y-66354457D01*
X167507180Y-66326826D01*
X167460010Y-66284495D01*
X167402658Y-66230505D01*
X167338484Y-66167899D01*
X167317497Y-66146983D01*
X167100499Y-65929623D01*
X167265668Y-65687220D01*
X167315864Y-65612781D01*
X167359919Y-65545972D01*
X167395362Y-65490665D01*
X167419719Y-65450729D01*
X167430522Y-65430036D01*
X167430838Y-65428563D01*
X167425143Y-65409058D01*
X167409826Y-65369822D01*
X167387537Y-65317430D01*
X167371893Y-65282355D01*
X167342641Y-65215201D01*
X167315094Y-65147358D01*
X167293737Y-65090034D01*
X167287935Y-65072572D01*
X167271452Y-65025938D01*
X167255340Y-64989905D01*
X167246490Y-64976287D01*
X167226960Y-64967952D01*
X167184334Y-64956137D01*
X167124145Y-64942181D01*
X167051922Y-64927422D01*
X167019600Y-64921355D01*
X166937522Y-64906273D01*
X166858795Y-64891669D01*
X166791109Y-64878980D01*
X166742160Y-64869642D01*
X166732943Y-64867839D01*
X166656743Y-64852799D01*
X166656743Y-64535492D01*
X166656914Y-64431154D01*
X166657616Y-64352213D01*
X166659134Y-64295038D01*
X166661749Y-64255999D01*
X166665746Y-64231465D01*
X166671409Y-64217805D01*
X166679020Y-64211389D01*
X166682143Y-64210199D01*
X166700978Y-64205980D01*
X166742588Y-64197562D01*
X166801630Y-64185961D01*
X166872757Y-64172195D01*
X166950625Y-64157280D01*
X167029887Y-64142232D01*
X167105198Y-64128069D01*
X167171213Y-64115806D01*
X167222587Y-64106461D01*
X167253975Y-64101050D01*
X167260959Y-64100114D01*
X167267285Y-64087596D01*
X167281290Y-64054246D01*
X167300355Y-64006377D01*
X167307634Y-63987629D01*
X167336996Y-63915195D01*
X167371571Y-63835170D01*
X167402537Y-63767728D01*
X167425323Y-63716159D01*
X167440482Y-63673785D01*
X167445542Y-63647834D01*
X167444736Y-63644356D01*
X167434041Y-63627936D01*
X167409620Y-63591417D01*
X167374095Y-63538687D01*
X167330087Y-63473635D01*
X167280217Y-63400151D01*
X167270356Y-63385645D01*
X167212492Y-63299704D01*
X167169956Y-63234261D01*
X167141054Y-63186304D01*
X167124090Y-63152820D01*
X167117367Y-63130795D01*
X167119190Y-63117217D01*
X167119236Y-63117131D01*
X167133586Y-63099297D01*
X167165323Y-63064817D01*
X167211010Y-63017268D01*
X167267204Y-62960222D01*
X167330468Y-62897255D01*
X167337602Y-62890227D01*
X167417330Y-62813020D01*
X167478857Y-62756330D01*
X167523421Y-62719110D01*
X167552257Y-62700315D01*
X167564958Y-62697889D01*
X167583494Y-62708471D01*
X167621961Y-62732916D01*
X167676386Y-62768612D01*
X167742798Y-62812947D01*
X167817225Y-62863311D01*
X167834601Y-62875160D01*
X168081297Y-63043626D01*
X168192706Y-62993062D01*
X168260457Y-62963595D01*
X168333183Y-62933959D01*
X168395703Y-62910330D01*
X168398457Y-62909358D01*
X168447360Y-62891457D01*
X168485057Y-62876320D01*
X168503425Y-62867210D01*
X168503456Y-62867184D01*
X168509285Y-62850717D01*
X168519192Y-62810219D01*
X168532195Y-62750242D01*
X168547309Y-62675340D01*
X168563552Y-62590064D01*
X168564881Y-62582875D01*
X168581175Y-62495014D01*
X168596133Y-62415260D01*
X168608791Y-62348681D01*
X168618186Y-62300347D01*
X168623354Y-62275325D01*
X168623444Y-62274943D01*
X168626589Y-62264299D01*
X168632704Y-62256262D01*
X168645453Y-62250467D01*
X168668500Y-62246547D01*
X168705509Y-62244135D01*
X168760144Y-62242865D01*
X168836067Y-62242371D01*
X168936944Y-62242286D01*
X168950000Y-62242286D01*
X169053910Y-62242348D01*
X169053910Y-62242348D01*
G37*
X169053910Y-62242348D02*
X169132454Y-62242778D01*
X169189298Y-62243942D01*
X169228105Y-62246207D01*
X169252538Y-62249940D01*
X169266262Y-62255506D01*
X169272940Y-62263273D01*
X169276236Y-62273605D01*
X169276556Y-62274943D01*
X169281562Y-62299079D01*
X169290829Y-62346701D01*
X169303392Y-62412741D01*
X169318287Y-62492128D01*
X169334551Y-62579796D01*
X169335119Y-62582875D01*
X169351410Y-62668789D01*
X169366652Y-62744696D01*
X169379861Y-62806045D01*
X169390054Y-62848282D01*
X169396248Y-62866855D01*
X169396543Y-62867184D01*
X169414788Y-62876253D01*
X169452405Y-62891367D01*
X169501271Y-62909262D01*
X169501543Y-62909358D01*
X169563093Y-62932493D01*
X169635657Y-62961965D01*
X169704057Y-62991597D01*
X169707294Y-62993062D01*
X169818702Y-63043626D01*
X170065399Y-62875160D01*
X170141077Y-62823803D01*
X170209631Y-62777889D01*
X170267088Y-62740030D01*
X170309476Y-62712837D01*
X170332825Y-62698921D01*
X170335042Y-62697889D01*
X170352010Y-62702484D01*
X170383701Y-62724655D01*
X170431352Y-62765447D01*
X170496198Y-62825905D01*
X170562397Y-62890227D01*
X170626214Y-62953612D01*
X170683329Y-63011451D01*
X170730305Y-63060175D01*
X170763703Y-63096210D01*
X170780085Y-63115984D01*
X170780694Y-63117002D01*
X170782505Y-63130572D01*
X170775683Y-63152733D01*
X170758540Y-63186478D01*
X170729393Y-63234800D01*
X170686555Y-63300692D01*
X170629448Y-63385517D01*
X170578766Y-63460177D01*
X170533461Y-63527140D01*
X170496150Y-63582516D01*
X170469452Y-63622420D01*
X170455985Y-63642962D01*
X170455137Y-63644356D01*
X170456781Y-63664038D01*
X170469245Y-63702293D01*
X170490048Y-63751889D01*
X170497462Y-63767728D01*
X170529814Y-63838290D01*
X170564328Y-63918353D01*
X170592365Y-63987629D01*
X170612568Y-64039045D01*
X170628615Y-64078119D01*
X170637888Y-64098541D01*
X170639041Y-64100114D01*
X170656096Y-64102721D01*
X170696298Y-64109863D01*
X170754302Y-64120523D01*
X170824763Y-64133685D01*
X170902335Y-64148333D01*
X170981672Y-64163449D01*
X171057431Y-64178018D01*
X171124264Y-64191022D01*
X171176828Y-64201445D01*
X171209776Y-64208270D01*
X171217857Y-64210199D01*
X171226205Y-64214962D01*
X171232506Y-64225718D01*
X171237045Y-64246098D01*
X171240104Y-64279734D01*
X171241967Y-64330255D01*
X171242918Y-64401292D01*
X171243240Y-64496476D01*
X171243257Y-64535492D01*
X171243257Y-64852799D01*
X171167057Y-64867839D01*
X171124663Y-64875995D01*
X171061400Y-64887899D01*
X170984962Y-64902116D01*
X170903043Y-64917210D01*
X170880400Y-64921355D01*
X170804806Y-64936053D01*
X170738953Y-64950505D01*
X170688366Y-64963375D01*
X170658574Y-64973322D01*
X170653612Y-64976287D01*
X170641426Y-64997283D01*
X170623953Y-65037967D01*
X170604577Y-65090322D01*
X170600734Y-65101600D01*
X170575339Y-65171523D01*
X170543817Y-65250418D01*
X170512969Y-65321266D01*
X170512817Y-65321595D01*
X170461447Y-65432733D01*
X170630399Y-65681253D01*
X170799352Y-65929772D01*
X170582429Y-66147058D01*
X170516819Y-66211726D01*
X170456979Y-66268733D01*
X170406267Y-66315033D01*
X170368046Y-66347584D01*
X170345675Y-66363343D01*
X170342466Y-66364343D01*
X170323626Y-66356469D01*
X170285180Y-66334578D01*
X170231330Y-66301267D01*
X170166276Y-66259131D01*
X170095940Y-66211943D01*
X170024555Y-66163810D01*
X169960908Y-66121928D01*
X169909041Y-66088871D01*
X169872995Y-66067218D01*
X169856867Y-66059543D01*
X169837189Y-66066037D01*
X169799875Y-66083150D01*
X169752621Y-66107326D01*
X169747612Y-66110013D01*
X169683977Y-66141927D01*
X169640341Y-66157579D01*
X169613202Y-66157745D01*
X169599057Y-66143204D01*
X169598975Y-66143000D01*
X169591905Y-66125779D01*
X169575042Y-66084899D01*
X169549695Y-66023525D01*
X169517171Y-65944819D01*
X169478778Y-65851947D01*
X169435822Y-65748072D01*
X169394222Y-65647502D01*
X169348504Y-65536516D01*
X169306526Y-65433703D01*
X169269548Y-65342215D01*
X169238827Y-65265201D01*
X169215622Y-65205815D01*
X169201190Y-65167209D01*
X169196743Y-65152800D01*
X169207896Y-65136272D01*
X169237069Y-65109930D01*
X169275971Y-65080887D01*
X169386757Y-64989039D01*
X169473351Y-64883759D01*
X169534716Y-64767266D01*
X169569815Y-64641776D01*
X169577608Y-64509507D01*
X169571943Y-64448457D01*
X169541078Y-64321795D01*
X169487920Y-64209941D01*
X169415767Y-64114001D01*
X169327917Y-64035076D01*
X169227665Y-63974270D01*
X169118310Y-63932687D01*
X169003147Y-63911428D01*
X168885475Y-63911599D01*
X168768590Y-63934301D01*
X168655789Y-63980638D01*
X168550369Y-64051713D01*
X168506368Y-64091911D01*
X168421979Y-64195129D01*
X168363222Y-64307925D01*
X168329704Y-64427010D01*
X168321035Y-64549095D01*
X168336823Y-64670893D01*
X168376678Y-64789116D01*
X168440207Y-64900475D01*
X168527021Y-65001684D01*
X168624029Y-65080887D01*
X168664437Y-65111162D01*
X168692982Y-65137219D01*
X168703257Y-65152825D01*
X168697877Y-65169843D01*
X168682575Y-65210500D01*
X168658612Y-65271642D01*
X168627244Y-65350119D01*
X168589732Y-65442780D01*
X168547333Y-65546472D01*
X168505663Y-65647526D01*
X168459690Y-65758607D01*
X168417107Y-65861541D01*
X168379221Y-65953165D01*
X168347340Y-66030316D01*
X168322771Y-66089831D01*
X168306820Y-66128544D01*
X168300910Y-66143000D01*
X168286948Y-66157685D01*
X168259940Y-66157642D01*
X168216413Y-66142099D01*
X168152890Y-66110284D01*
X168152388Y-66110013D01*
X168104560Y-66085323D01*
X168065897Y-66067338D01*
X168044095Y-66059614D01*
X168043133Y-66059543D01*
X168026721Y-66067378D01*
X167990487Y-66089165D01*
X167938474Y-66122328D01*
X167874725Y-66164291D01*
X167804060Y-66211943D01*
X167732116Y-66260191D01*
X167667274Y-66302151D01*
X167613735Y-66335227D01*
X167575697Y-66356821D01*
X167557533Y-66364343D01*
X167540808Y-66354457D01*
X167507180Y-66326826D01*
X167460010Y-66284495D01*
X167402658Y-66230505D01*
X167338484Y-66167899D01*
X167317497Y-66146983D01*
X167100499Y-65929623D01*
X167265668Y-65687220D01*
X167315864Y-65612781D01*
X167359919Y-65545972D01*
X167395362Y-65490665D01*
X167419719Y-65450729D01*
X167430522Y-65430036D01*
X167430838Y-65428563D01*
X167425143Y-65409058D01*
X167409826Y-65369822D01*
X167387537Y-65317430D01*
X167371893Y-65282355D01*
X167342641Y-65215201D01*
X167315094Y-65147358D01*
X167293737Y-65090034D01*
X167287935Y-65072572D01*
X167271452Y-65025938D01*
X167255340Y-64989905D01*
X167246490Y-64976287D01*
X167226960Y-64967952D01*
X167184334Y-64956137D01*
X167124145Y-64942181D01*
X167051922Y-64927422D01*
X167019600Y-64921355D01*
X166937522Y-64906273D01*
X166858795Y-64891669D01*
X166791109Y-64878980D01*
X166742160Y-64869642D01*
X166732943Y-64867839D01*
X166656743Y-64852799D01*
X166656743Y-64535492D01*
X166656914Y-64431154D01*
X166657616Y-64352213D01*
X166659134Y-64295038D01*
X166661749Y-64255999D01*
X166665746Y-64231465D01*
X166671409Y-64217805D01*
X166679020Y-64211389D01*
X166682143Y-64210199D01*
X166700978Y-64205980D01*
X166742588Y-64197562D01*
X166801630Y-64185961D01*
X166872757Y-64172195D01*
X166950625Y-64157280D01*
X167029887Y-64142232D01*
X167105198Y-64128069D01*
X167171213Y-64115806D01*
X167222587Y-64106461D01*
X167253975Y-64101050D01*
X167260959Y-64100114D01*
X167267285Y-64087596D01*
X167281290Y-64054246D01*
X167300355Y-64006377D01*
X167307634Y-63987629D01*
X167336996Y-63915195D01*
X167371571Y-63835170D01*
X167402537Y-63767728D01*
X167425323Y-63716159D01*
X167440482Y-63673785D01*
X167445542Y-63647834D01*
X167444736Y-63644356D01*
X167434041Y-63627936D01*
X167409620Y-63591417D01*
X167374095Y-63538687D01*
X167330087Y-63473635D01*
X167280217Y-63400151D01*
X167270356Y-63385645D01*
X167212492Y-63299704D01*
X167169956Y-63234261D01*
X167141054Y-63186304D01*
X167124090Y-63152820D01*
X167117367Y-63130795D01*
X167119190Y-63117217D01*
X167119236Y-63117131D01*
X167133586Y-63099297D01*
X167165323Y-63064817D01*
X167211010Y-63017268D01*
X167267204Y-62960222D01*
X167330468Y-62897255D01*
X167337602Y-62890227D01*
X167417330Y-62813020D01*
X167478857Y-62756330D01*
X167523421Y-62719110D01*
X167552257Y-62700315D01*
X167564958Y-62697889D01*
X167583494Y-62708471D01*
X167621961Y-62732916D01*
X167676386Y-62768612D01*
X167742798Y-62812947D01*
X167817225Y-62863311D01*
X167834601Y-62875160D01*
X168081297Y-63043626D01*
X168192706Y-62993062D01*
X168260457Y-62963595D01*
X168333183Y-62933959D01*
X168395703Y-62910330D01*
X168398457Y-62909358D01*
X168447360Y-62891457D01*
X168485057Y-62876320D01*
X168503425Y-62867210D01*
X168503456Y-62867184D01*
X168509285Y-62850717D01*
X168519192Y-62810219D01*
X168532195Y-62750242D01*
X168547309Y-62675340D01*
X168563552Y-62590064D01*
X168564881Y-62582875D01*
X168581175Y-62495014D01*
X168596133Y-62415260D01*
X168608791Y-62348681D01*
X168618186Y-62300347D01*
X168623354Y-62275325D01*
X168623444Y-62274943D01*
X168626589Y-62264299D01*
X168632704Y-62256262D01*
X168645453Y-62250467D01*
X168668500Y-62246547D01*
X168705509Y-62244135D01*
X168760144Y-62242865D01*
X168836067Y-62242371D01*
X168936944Y-62242286D01*
X168950000Y-62242286D01*
X169053910Y-62242348D01*
G04 #@! TO.C,A1*
D12*
X134285714Y-99216666D02*
X134761904Y-99216666D01*
X134190476Y-99502380D02*
X134523809Y-98502380D01*
X134857142Y-99502380D01*
X135714285Y-99502380D02*
X135142857Y-99502380D01*
X135428571Y-99502380D02*
X135428571Y-98502380D01*
X135333333Y-98645238D01*
X135238095Y-98740476D01*
X135142857Y-98788095D01*
G04 #@! TO.C,A2*
X154094666Y-87214285D02*
X154094666Y-86738095D01*
X154380380Y-87309523D02*
X153380380Y-86976190D01*
X154380380Y-86642857D01*
X153475619Y-86357142D02*
X153428000Y-86309523D01*
X153380380Y-86214285D01*
X153380380Y-85976190D01*
X153428000Y-85880952D01*
X153475619Y-85833333D01*
X153570857Y-85785714D01*
X153666095Y-85785714D01*
X153808952Y-85833333D01*
X154380380Y-86404761D01*
X154380380Y-85785714D01*
G04 #@! TO.C,C1*
X172357142Y-88166666D02*
X172404761Y-88214285D01*
X172452380Y-88357142D01*
X172452380Y-88452380D01*
X172404761Y-88595238D01*
X172309523Y-88690476D01*
X172214285Y-88738095D01*
X172023809Y-88785714D01*
X171880952Y-88785714D01*
X171690476Y-88738095D01*
X171595238Y-88690476D01*
X171500000Y-88595238D01*
X171452380Y-88452380D01*
X171452380Y-88357142D01*
X171500000Y-88214285D01*
X171547619Y-88166666D01*
X172452380Y-87214285D02*
X172452380Y-87785714D01*
X172452380Y-87500000D02*
X171452380Y-87500000D01*
X171595238Y-87595238D01*
X171690476Y-87690476D01*
X171738095Y-87785714D01*
G04 #@! TO.C,C2*
X171833333Y-95357142D02*
X171785714Y-95404761D01*
X171642857Y-95452380D01*
X171547619Y-95452380D01*
X171404761Y-95404761D01*
X171309523Y-95309523D01*
X171261904Y-95214285D01*
X171214285Y-95023809D01*
X171214285Y-94880952D01*
X171261904Y-94690476D01*
X171309523Y-94595238D01*
X171404761Y-94500000D01*
X171547619Y-94452380D01*
X171642857Y-94452380D01*
X171785714Y-94500000D01*
X171833333Y-94547619D01*
X172214285Y-94547619D02*
X172261904Y-94500000D01*
X172357142Y-94452380D01*
X172595238Y-94452380D01*
X172690476Y-94500000D01*
X172738095Y-94547619D01*
X172785714Y-94642857D01*
X172785714Y-94738095D01*
X172738095Y-94880952D01*
X172166666Y-95452380D01*
X172785714Y-95452380D01*
G04 #@! TO.C,C4*
X102257142Y-110716666D02*
X102304761Y-110764285D01*
X102352380Y-110907142D01*
X102352380Y-111002380D01*
X102304761Y-111145238D01*
X102209523Y-111240476D01*
X102114285Y-111288095D01*
X101923809Y-111335714D01*
X101780952Y-111335714D01*
X101590476Y-111288095D01*
X101495238Y-111240476D01*
X101400000Y-111145238D01*
X101352380Y-111002380D01*
X101352380Y-110907142D01*
X101400000Y-110764285D01*
X101447619Y-110716666D01*
X101685714Y-109859523D02*
X102352380Y-109859523D01*
X101304761Y-110097619D02*
X102019047Y-110335714D01*
X102019047Y-109716666D01*
G04 #@! TO.C,C5*
X185983333Y-105057142D02*
X185935714Y-105104761D01*
X185792857Y-105152380D01*
X185697619Y-105152380D01*
X185554761Y-105104761D01*
X185459523Y-105009523D01*
X185411904Y-104914285D01*
X185364285Y-104723809D01*
X185364285Y-104580952D01*
X185411904Y-104390476D01*
X185459523Y-104295238D01*
X185554761Y-104200000D01*
X185697619Y-104152380D01*
X185792857Y-104152380D01*
X185935714Y-104200000D01*
X185983333Y-104247619D01*
X186888095Y-104152380D02*
X186411904Y-104152380D01*
X186364285Y-104628571D01*
X186411904Y-104580952D01*
X186507142Y-104533333D01*
X186745238Y-104533333D01*
X186840476Y-104580952D01*
X186888095Y-104628571D01*
X186935714Y-104723809D01*
X186935714Y-104961904D01*
X186888095Y-105057142D01*
X186840476Y-105104761D01*
X186745238Y-105152380D01*
X186507142Y-105152380D01*
X186411904Y-105104761D01*
X186364285Y-105057142D01*
G04 #@! TO.C,D1*
X176461904Y-92902380D02*
X176461904Y-91902380D01*
X176700000Y-91902380D01*
X176842857Y-91950000D01*
X176938095Y-92045238D01*
X176985714Y-92140476D01*
X177033333Y-92330952D01*
X177033333Y-92473809D01*
X176985714Y-92664285D01*
X176938095Y-92759523D01*
X176842857Y-92854761D01*
X176700000Y-92902380D01*
X176461904Y-92902380D01*
X177985714Y-92902380D02*
X177414285Y-92902380D01*
X177700000Y-92902380D02*
X177700000Y-91902380D01*
X177604761Y-92045238D01*
X177509523Y-92140476D01*
X177414285Y-92188095D01*
G04 #@! TO.C,J1*
X192416666Y-87552380D02*
X192416666Y-88266666D01*
X192369047Y-88409523D01*
X192273809Y-88504761D01*
X192130952Y-88552380D01*
X192035714Y-88552380D01*
X193416666Y-88552380D02*
X192845238Y-88552380D01*
X193130952Y-88552380D02*
X193130952Y-87552380D01*
X193035714Y-87695238D01*
X192940476Y-87790476D01*
X192845238Y-87838095D01*
G04 #@! TO.C,J2*
X130102380Y-101833333D02*
X130816666Y-101833333D01*
X130959523Y-101880952D01*
X131054761Y-101976190D01*
X131102380Y-102119047D01*
X131102380Y-102214285D01*
X130197619Y-101404761D02*
X130150000Y-101357142D01*
X130102380Y-101261904D01*
X130102380Y-101023809D01*
X130150000Y-100928571D01*
X130197619Y-100880952D01*
X130292857Y-100833333D01*
X130388095Y-100833333D01*
X130530952Y-100880952D01*
X131102380Y-101452380D01*
X131102380Y-100833333D01*
G04 #@! TO.C,P1*
X86361904Y-132742380D02*
X86361904Y-131742380D01*
X86742857Y-131742380D01*
X86838095Y-131790000D01*
X86885714Y-131837619D01*
X86933333Y-131932857D01*
X86933333Y-132075714D01*
X86885714Y-132170952D01*
X86838095Y-132218571D01*
X86742857Y-132266190D01*
X86361904Y-132266190D01*
X87885714Y-132742380D02*
X87314285Y-132742380D01*
X87600000Y-132742380D02*
X87600000Y-131742380D01*
X87504761Y-131885238D01*
X87409523Y-131980476D01*
X87314285Y-132028095D01*
G04 #@! TO.C,R1*
X148933333Y-87652380D02*
X148600000Y-87176190D01*
X148361904Y-87652380D02*
X148361904Y-86652380D01*
X148742857Y-86652380D01*
X148838095Y-86700000D01*
X148885714Y-86747619D01*
X148933333Y-86842857D01*
X148933333Y-86985714D01*
X148885714Y-87080952D01*
X148838095Y-87128571D01*
X148742857Y-87176190D01*
X148361904Y-87176190D01*
X149885714Y-87652380D02*
X149314285Y-87652380D01*
X149600000Y-87652380D02*
X149600000Y-86652380D01*
X149504761Y-86795238D01*
X149409523Y-86890476D01*
X149314285Y-86938095D01*
G04 #@! TO.C,R2*
X150133333Y-93702380D02*
X149800000Y-93226190D01*
X149561904Y-93702380D02*
X149561904Y-92702380D01*
X149942857Y-92702380D01*
X150038095Y-92750000D01*
X150085714Y-92797619D01*
X150133333Y-92892857D01*
X150133333Y-93035714D01*
X150085714Y-93130952D01*
X150038095Y-93178571D01*
X149942857Y-93226190D01*
X149561904Y-93226190D01*
X150514285Y-92797619D02*
X150561904Y-92750000D01*
X150657142Y-92702380D01*
X150895238Y-92702380D01*
X150990476Y-92750000D01*
X151038095Y-92797619D01*
X151085714Y-92892857D01*
X151085714Y-92988095D01*
X151038095Y-93130952D01*
X150466666Y-93702380D01*
X151085714Y-93702380D01*
G04 #@! TO.C,R3*
X133783333Y-100702380D02*
X133450000Y-100226190D01*
X133211904Y-100702380D02*
X133211904Y-99702380D01*
X133592857Y-99702380D01*
X133688095Y-99750000D01*
X133735714Y-99797619D01*
X133783333Y-99892857D01*
X133783333Y-100035714D01*
X133735714Y-100130952D01*
X133688095Y-100178571D01*
X133592857Y-100226190D01*
X133211904Y-100226190D01*
X134116666Y-99702380D02*
X134735714Y-99702380D01*
X134402380Y-100083333D01*
X134545238Y-100083333D01*
X134640476Y-100130952D01*
X134688095Y-100178571D01*
X134735714Y-100273809D01*
X134735714Y-100511904D01*
X134688095Y-100607142D01*
X134640476Y-100654761D01*
X134545238Y-100702380D01*
X134259523Y-100702380D01*
X134164285Y-100654761D01*
X134116666Y-100607142D01*
G04 #@! TO.C,R4*
X135233333Y-104452380D02*
X134900000Y-103976190D01*
X134661904Y-104452380D02*
X134661904Y-103452380D01*
X135042857Y-103452380D01*
X135138095Y-103500000D01*
X135185714Y-103547619D01*
X135233333Y-103642857D01*
X135233333Y-103785714D01*
X135185714Y-103880952D01*
X135138095Y-103928571D01*
X135042857Y-103976190D01*
X134661904Y-103976190D01*
X136090476Y-103785714D02*
X136090476Y-104452380D01*
X135852380Y-103404761D02*
X135614285Y-104119047D01*
X136233333Y-104119047D01*
G04 #@! TO.C,R5*
X172433333Y-93102380D02*
X172100000Y-92626190D01*
X171861904Y-93102380D02*
X171861904Y-92102380D01*
X172242857Y-92102380D01*
X172338095Y-92150000D01*
X172385714Y-92197619D01*
X172433333Y-92292857D01*
X172433333Y-92435714D01*
X172385714Y-92530952D01*
X172338095Y-92578571D01*
X172242857Y-92626190D01*
X171861904Y-92626190D01*
X173338095Y-92102380D02*
X172861904Y-92102380D01*
X172814285Y-92578571D01*
X172861904Y-92530952D01*
X172957142Y-92483333D01*
X173195238Y-92483333D01*
X173290476Y-92530952D01*
X173338095Y-92578571D01*
X173385714Y-92673809D01*
X173385714Y-92911904D01*
X173338095Y-93007142D01*
X173290476Y-93054761D01*
X173195238Y-93102380D01*
X172957142Y-93102380D01*
X172861904Y-93054761D01*
X172814285Y-93007142D01*
G04 #@! TO.C,U1*
X152238095Y-115502380D02*
X152238095Y-116311904D01*
X152285714Y-116407142D01*
X152333333Y-116454761D01*
X152428571Y-116502380D01*
X152619047Y-116502380D01*
X152714285Y-116454761D01*
X152761904Y-116407142D01*
X152809523Y-116311904D01*
X152809523Y-115502380D01*
X153809523Y-116502380D02*
X153238095Y-116502380D01*
X153523809Y-116502380D02*
X153523809Y-115502380D01*
X153428571Y-115645238D01*
X153333333Y-115740476D01*
X153238095Y-115788095D01*
G04 #@! TO.C,U2*
X178238095Y-115502380D02*
X178238095Y-116311904D01*
X178285714Y-116407142D01*
X178333333Y-116454761D01*
X178428571Y-116502380D01*
X178619047Y-116502380D01*
X178714285Y-116454761D01*
X178761904Y-116407142D01*
X178809523Y-116311904D01*
X178809523Y-115502380D01*
X179238095Y-115597619D02*
X179285714Y-115550000D01*
X179380952Y-115502380D01*
X179619047Y-115502380D01*
X179714285Y-115550000D01*
X179761904Y-115597619D01*
X179809523Y-115692857D01*
X179809523Y-115788095D01*
X179761904Y-115930952D01*
X179190476Y-116502380D01*
X179809523Y-116502380D01*
G04 #@! TO.C,U3*
X93238095Y-115502380D02*
X93238095Y-116311904D01*
X93285714Y-116407142D01*
X93333333Y-116454761D01*
X93428571Y-116502380D01*
X93619047Y-116502380D01*
X93714285Y-116454761D01*
X93761904Y-116407142D01*
X93809523Y-116311904D01*
X93809523Y-115502380D01*
X94190476Y-115502380D02*
X94809523Y-115502380D01*
X94476190Y-115883333D01*
X94619047Y-115883333D01*
X94714285Y-115930952D01*
X94761904Y-115978571D01*
X94809523Y-116073809D01*
X94809523Y-116311904D01*
X94761904Y-116407142D01*
X94714285Y-116454761D01*
X94619047Y-116502380D01*
X94333333Y-116502380D01*
X94238095Y-116454761D01*
X94190476Y-116407142D01*
G04 #@! TO.C,U4*
X115238095Y-115502380D02*
X115238095Y-116311904D01*
X115285714Y-116407142D01*
X115333333Y-116454761D01*
X115428571Y-116502380D01*
X115619047Y-116502380D01*
X115714285Y-116454761D01*
X115761904Y-116407142D01*
X115809523Y-116311904D01*
X115809523Y-115502380D01*
X116714285Y-115835714D02*
X116714285Y-116502380D01*
X116476190Y-115454761D02*
X116238095Y-116169047D01*
X116857142Y-116169047D01*
G04 #@! TO.C,C3*
X84733333Y-111457142D02*
X84685714Y-111504761D01*
X84542857Y-111552380D01*
X84447619Y-111552380D01*
X84304761Y-111504761D01*
X84209523Y-111409523D01*
X84161904Y-111314285D01*
X84114285Y-111123809D01*
X84114285Y-110980952D01*
X84161904Y-110790476D01*
X84209523Y-110695238D01*
X84304761Y-110600000D01*
X84447619Y-110552380D01*
X84542857Y-110552380D01*
X84685714Y-110600000D01*
X84733333Y-110647619D01*
X85066666Y-110552380D02*
X85685714Y-110552380D01*
X85352380Y-110933333D01*
X85495238Y-110933333D01*
X85590476Y-110980952D01*
X85638095Y-111028571D01*
X85685714Y-111123809D01*
X85685714Y-111361904D01*
X85638095Y-111457142D01*
X85590476Y-111504761D01*
X85495238Y-111552380D01*
X85209523Y-111552380D01*
X85114285Y-111504761D01*
X85066666Y-111457142D01*
G04 #@! TO.C,C8*
X122833333Y-108257142D02*
X122785714Y-108304761D01*
X122642857Y-108352380D01*
X122547619Y-108352380D01*
X122404761Y-108304761D01*
X122309523Y-108209523D01*
X122261904Y-108114285D01*
X122214285Y-107923809D01*
X122214285Y-107780952D01*
X122261904Y-107590476D01*
X122309523Y-107495238D01*
X122404761Y-107400000D01*
X122547619Y-107352380D01*
X122642857Y-107352380D01*
X122785714Y-107400000D01*
X122833333Y-107447619D01*
X123404761Y-107780952D02*
X123309523Y-107733333D01*
X123261904Y-107685714D01*
X123214285Y-107590476D01*
X123214285Y-107542857D01*
X123261904Y-107447619D01*
X123309523Y-107400000D01*
X123404761Y-107352380D01*
X123595238Y-107352380D01*
X123690476Y-107400000D01*
X123738095Y-107447619D01*
X123785714Y-107542857D01*
X123785714Y-107590476D01*
X123738095Y-107685714D01*
X123690476Y-107733333D01*
X123595238Y-107780952D01*
X123404761Y-107780952D01*
X123309523Y-107828571D01*
X123261904Y-107876190D01*
X123214285Y-107971428D01*
X123214285Y-108161904D01*
X123261904Y-108257142D01*
X123309523Y-108304761D01*
X123404761Y-108352380D01*
X123595238Y-108352380D01*
X123690476Y-108304761D01*
X123738095Y-108257142D01*
X123785714Y-108161904D01*
X123785714Y-107971428D01*
X123738095Y-107876190D01*
X123690476Y-107828571D01*
X123595238Y-107780952D01*
G04 #@! TD*
M02*
