G04 #@! TF.GenerationSoftware,KiCad,Pcbnew,(5.0.0)*
G04 #@! TF.CreationDate,2018-10-29T19:26:44-07:00*
G04 #@! TF.ProjectId,tester_v2,7465737465725F76322E6B696361645F,rev?*
G04 #@! TF.SameCoordinates,Original*
G04 #@! TF.FileFunction,Profile,NP*
%FSLAX46Y46*%
G04 Gerber Fmt 4.6, Leading zero omitted, Abs format (unit mm)*
G04 Created by KiCad (PCBNEW (5.0.0)) date 10/29/18 19:26:44*
%MOMM*%
%LPD*%
G01*
G04 APERTURE LIST*
%ADD10C,0.150000*%
G04 #@! TA.AperFunction,NonConductor*
%ADD11C,0.120000*%
G04 #@! TD*
G04 APERTURE END LIST*
D10*
X200000000Y-133600000D02*
X195550000Y-133600000D01*
X200000000Y-60000000D02*
X200000000Y-133600000D01*
X76000000Y-60000000D02*
X200000000Y-60000000D01*
X76000000Y-133600000D02*
X76000000Y-60000000D01*
X78450000Y-133600000D02*
X76000000Y-133600000D01*
D11*
G04 #@! TO.C,P1*
X94437247Y-139398230D02*
X132637247Y-139398230D01*
X78437247Y-131348230D02*
X78437247Y-133598230D01*
X94437247Y-131348230D02*
G75*
G03X92537247Y-131348230I-950000J0D01*
G01*
X192637247Y-131348230D02*
X192637247Y-139398230D01*
X195537247Y-131348230D02*
G75*
G03X192637247Y-131348230I-1450000J0D01*
G01*
X81337247Y-131348230D02*
G75*
G03X78437247Y-131348230I-1450000J0D01*
G01*
X92537247Y-139398230D02*
X81337247Y-139398230D01*
X132637247Y-131348230D02*
X132637247Y-139398230D01*
X154437247Y-131348230D02*
G75*
G03X152537247Y-131348230I-950000J0D01*
G01*
X134087247Y-129898230D02*
G75*
G03X132637247Y-131348230I0J-1450000D01*
G01*
X154437247Y-131348230D02*
X154437247Y-133598230D01*
X134087247Y-129898230D02*
X139887247Y-129898230D01*
X81337247Y-139398230D02*
X81337247Y-131348230D01*
X154437247Y-133598230D02*
X154437247Y-139398230D01*
X152537247Y-133598230D02*
X152537247Y-131348230D01*
X94437247Y-131348230D02*
X94437247Y-133598230D01*
X152537247Y-139398230D02*
X141337247Y-139398230D01*
X92537247Y-133598230D02*
X92537247Y-131348230D01*
X94437247Y-133598230D02*
X94437247Y-139398230D01*
X92537247Y-133598230D02*
X92537247Y-139398230D01*
X154437247Y-139398230D02*
X192637247Y-139398230D01*
X195537247Y-131348230D02*
X195537247Y-133598230D01*
X152537247Y-133598230D02*
X152537247Y-139398230D01*
X141337247Y-131348230D02*
G75*
G03X139887247Y-129898230I-1450000J0D01*
G01*
X141337247Y-139398230D02*
X141337247Y-131348230D01*
G04 #@! TD*
M02*
