M48
;DRILL file {KiCad (5.0.0)} date 10/29/18 19:27:04
;FORMAT={-:-/ absolute / metric / decimal}
FMAT,2
METRIC,TZ
T1C0.400
T2C0.800
T3C1.000
%
G90
G05
M71
T1
X83.4Y-109.9
X84.Y-132.3
X84.996Y-108.396
X85.623Y-106.904
X85.95Y-111.65
X86.65Y-113.25
X86.85Y-114.65
X86.95Y-132.6
X87.534Y-112.051
X87.826Y-110.295
X87.95Y-108.3
X88.15Y-114.5
X88.55Y-105.1
X88.6Y-102.5
X88.65Y-100.65
X89.056Y-115.765
X90.Y-132.4
X90.41Y-115.949
X91.35Y-100.15
X95.2Y-104.25
X95.4Y-107.15
X95.45Y-102.6
X96.45Y-100.15
X96.5Y-124.1
X96.603Y-108.665
X96.625Y-105.776
X96.75Y-114.224
X97.Y-132.7
X97.15Y-126.25
X97.7Y-115.75
X98.25Y-128.05
X98.616Y-121.016
X98.958Y-100.95
X99.11Y-108.729
X99.378Y-107.021
X99.4Y-126.9
X99.569Y-103.75
X99.6Y-122.25
X99.769Y-105.25
X99.8Y-129.15
X99.95Y-111.2
X100.Y-132.65
X100.334Y-113.829
X100.35Y-125.25
X100.4Y-123.7
X100.75Y-118.4
X101.35Y-130.7
X101.5Y-105.9
X101.51Y-116.5
X101.8Y-128.55
X101.802Y-107.873
X102.543Y-126.839
X103.Y-132.65
X103.9Y-121.85
X104.122Y-112.2
X104.23Y-109.716
X104.315Y-120.045
X104.35Y-118.3
X104.663Y-108.76
X104.925Y-111.008
X105.05Y-113.298
X106.2Y-126.959
X106.2Y-128.757
X106.99Y-130.731
X108.05Y-132.7
X108.1Y-126.95
X108.15Y-129.2
X109.161Y-115.451
X109.345Y-128.355
X109.35Y-108.4
X109.55Y-111.45
X109.7Y-120.9
X110.205Y-109.95
X110.5Y-116.4
X110.75Y-128.25
X110.85Y-101.2
X110.85Y-112.5
X110.9Y-119.25
X110.95Y-132.75
X110.979Y-108.151
X111.Y-111.4
X111.5Y-124.9
X112.2Y-127.85
X112.432Y-116.524
X112.65Y-122.9
X113.271Y-131.894
X113.35Y-126.65
X113.45Y-124.865
X113.55Y-108.5
X113.7Y-103.75
X113.7Y-105.35
X113.75Y-113.5
X113.85Y-100.25
X114.Y-110.3
X114.Y-132.65
X114.2Y-106.907
X117.Y-102.1
X117.05Y-103.55
X117.5Y-132.4
X118.Y-121.7
X118.25Y-101.35
X118.25Y-103.75
X118.35Y-127.55
X118.883Y-126.093
X118.9Y-124.45
X119.1Y-132.5
X119.7Y-115.7
X119.75Y-100.1
X120.4Y-123.7
X121.09Y-114.45
X121.1Y-106.3
X121.1Y-112.2
X121.15Y-125.8
X121.6Y-103.4
X121.95Y-132.55
X121.993Y-123.
X122.1Y-109.5
X122.6Y-129.
X122.85Y-130.6
X123.35Y-125.75
X123.4Y-104.35
X124.1Y-128.95
X124.193Y-123.634
X124.4Y-127.45
X125.Y-132.6
X125.05Y-130.65
X125.2Y-106.15
X125.229Y-124.747
X125.991Y-123.078
X126.15Y-129.25
X126.2Y-106.9
X127.2Y-127.833
X127.575Y-121.835
X127.609Y-107.884
X128.05Y-130.253
X128.2Y-113.35
X129.111Y-121.204
X129.65Y-131.399
X129.85Y-113.15
X130.3Y-129.945
X130.4Y-111.55
X130.459Y-120.603
X131.25Y-128.125
X131.65Y-110.6
X131.683Y-119.424
X132.378Y-126.678
X133.Y-109.35
X133.3Y-118.45
X134.05Y-114.774
X135.5Y-114.
X137.75Y-105.25
X137.8Y-118.2
X138.65Y-103.55
X139.55Y-115.7
X139.9Y-117.5
X141.3Y-111.25
X141.3Y-113.492
X142.503Y-112.105
X142.6Y-114.6
X142.95Y-129.
X143.4Y-127.65
X143.7Y-125.55
X143.9Y-113.4
X143.9Y-111.2
X144.Y-132.35
X144.663Y-126.898
X144.85Y-109.7
X144.9Y-114.6
X145.2Y-125.6
X145.65Y-123.55
X146.997Y-113.847
X147.1Y-132.4
X147.65Y-109.65
X147.75Y-101.3
X147.75Y-103.75
X147.85Y-106.3
X149.225Y-115.8
X149.95Y-132.5
X150.8Y-100.2
X151.35Y-88.9
X152.6Y-91.5
X156.5Y-87.15
X156.6Y-84.9
X156.75Y-116.
X157.Y-132.6
X158.2Y-109.65
X158.3Y-106.15
X158.35Y-101.7
X158.35Y-103.7
X158.367Y-115.25
X158.9Y-113.
X159.Y-87.15
X159.Y-89.4
X159.022Y-110.976
X159.05Y-84.85
X159.8Y-123.85
X160.Y-132.55
X160.2Y-112.45
X160.35Y-115.05
X160.9Y-110.95
X161.05Y-123.1
X161.068Y-125.044
X161.25Y-87.2
X161.3Y-84.9
X161.4Y-113.3
X161.6Y-121.5
X161.95Y-126.35
X162.019Y-116.539
X162.4Y-92.8
X162.45Y-95.
X162.55Y-97.
X162.6Y-127.65
X163.Y-132.5
X163.305Y-106.167
X163.35Y-121.5
X163.55Y-82.6
X163.55Y-91.6
X163.6Y-84.9
X163.6Y-87.15
X163.65Y-93.95
X163.7Y-96.1
X163.864Y-120.113
X164.7Y-92.7
X164.8Y-128.8
X164.85Y-94.95
X164.95Y-97.
X165.293Y-119.25
X165.75Y-91.6
X165.75Y-93.7
X165.75Y-130.
X165.8Y-87.15
X166.Y-109.8
X166.5Y-97.
X166.55Y-127.75
X166.607Y-118.327
X166.7Y-92.65
X167.4Y-110.65
X167.656Y-129.204
X167.7Y-97.4
X167.9Y-93.55
X167.95Y-91.85
X168.Y-132.85
X168.15Y-111.95
X168.2Y-87.05
X168.418Y-113.393
X168.45Y-106.95
X168.9Y-109.7
X169.2Y-114.85
X169.657Y-127.204
X170.Y-96.85
X170.05Y-93.25
X170.829Y-116.429
X170.9Y-86.75
X171.Y-112.4
X171.05Y-132.45
X171.4Y-93.8
X171.4Y-96.2
X171.85Y-108.15
X172.Y-86.75
X172.Y-113.55
X172.274Y-124.534
X172.3Y-105.7
X172.5Y-111.45
X172.8Y-126.05
X172.95Y-118.15
X173.1Y-100.85
X173.2Y-86.75
X173.38Y-110.245
X173.394Y-113.286
X173.65Y-102.2
X173.75Y-103.85
X173.755Y-105.335
X173.793Y-106.835
X173.8Y-124.6
X174.Y-132.5
X174.65Y-123.25
X175.25Y-115.875
X175.4Y-121.85
X176.45Y-106.75
X176.55Y-102.7
X176.8Y-100.25
X177.65Y-103.7
X177.75Y-105.3
X178.5Y-92.5
X178.95Y-132.4
X181.05Y-101.25
X181.15Y-103.75
X182.05Y-132.4
X182.75Y-115.9
X184.05Y-106.25
X184.1Y-109.85
X184.25Y-100.8
X184.25Y-112.4
X184.35Y-114.25
X184.4Y-132.55
X184.9Y-129.15
X184.91Y-109.182
X184.953Y-104.033
X186.15Y-126.2
X186.25Y-130.2
X186.26Y-127.872
X186.574Y-110.064
X186.75Y-103.3
X186.8Y-107.25
X187.85Y-109.2
X188.05Y-128.75
X188.3Y-104.75
X188.3Y-131.2
X188.95Y-111.75
X189.1Y-101.75
X189.1Y-110.
X189.3Y-105.8
X190.4Y-107.292
X190.55Y-102.3
X191.05Y-108.75
X191.65Y-110.05
X192.2Y-111.5
T2
X124.84Y-68.57
X124.84Y-71.11
X124.84Y-73.65
X124.84Y-76.19
X124.84Y-78.73
X124.84Y-81.27
X124.84Y-83.81
X124.84Y-86.35
X124.84Y-88.89
X124.84Y-91.43
X145.16Y-68.57
X145.16Y-71.11
X145.16Y-73.65
X145.16Y-76.19
X145.16Y-78.73
X145.16Y-81.27
X145.16Y-83.81
X145.16Y-86.35
X145.16Y-88.89
X145.16Y-91.43
T3
X123.25Y-101.45
X125.79Y-101.45
X128.33Y-101.45
T3
X189.25Y-81.35G85X189.25Y-83.85
G05
X191.25Y-77.9G85X193.25Y-77.9
G05
X195.25Y-81.6G85X195.25Y-83.6
G05
T0
M30
