M48
;DRILL file {KiCad 4.0.4-stable} date 01/23/18 21:51:43
;FORMAT={-:-/ absolute / metric / decimal}
FMAT,2
METRIC,TZ
T1C0.400
T2C0.650
%
G90
G05
M71
T1
X41.575Y-140.325
X41.625Y-158.525
X42.211Y-170.575
X42.752Y-168.625
X43.52Y-143.111
X43.523Y-149.537
X44.145Y-169.384
X44.29Y-153.203
X44.394Y-139.588
X44.542Y-167.949
X45.354Y-155.773
X46.046Y-168.197
X46.607Y-165.994
X46.725Y-127.105
X47.325Y-149.53
X47.567Y-143.132
X47.782Y-167.024
X48.108Y-139.568
X48.326Y-163.838
X49.242Y-165.907
X49.55Y-175.5
X49.83Y-164.225
X50.429Y-140.327
X50.5Y-143.116
X50.521Y-149.627
X51.111Y-164.919
X51.392Y-153.203
X51.458Y-139.598
X51.597Y-163.13
X52.393Y-155.773
X52.525Y-175.475
X53.015Y-163.407
X53.062Y-161.681
X54.282Y-149.636
X54.346Y-143.043
X54.526Y-161.698
X54.678Y-169.288
X55.204Y-139.588
X55.513Y-160.444
X55.575Y-175.5
X55.721Y-169.246
X56.25Y-158.5
X56.275Y-140.175
X57.225Y-127.105
X57.38Y-167.396
X57.38Y-168.879
X58.58Y-166.275
X58.765Y-167.811
X59.681Y-169.25
X60.318Y-167.737
X61.179Y-169.006
X62.4Y-170.225
X62.575Y-175.525
X62.615Y-169.42
X64.086Y-170.536
X64.46Y-168.907
X64.534Y-172.041
X65.55Y-175.55
X65.89Y-167.402
X65.942Y-169.407
X66.144Y-172.361
X66.358Y-170.789
X67.55Y-168.498
X67.761Y-170.639
X68.55Y-175.55
X68.75Y-140.125
X68.809Y-161.125
X69.113Y-167.836
X69.275Y-158.856
X69.963Y-171.962
X70.058Y-160.05
X70.226Y-142.956
X70.233Y-170.592
X70.537Y-168.389
X70.736Y-149.619
X71.325Y-127.105
X71.33Y-158.914
X71.367Y-157.66
X71.441Y-173.009
X71.554Y-139.553
X71.944Y-168.576
X72.392Y-172.32
X72.439Y-170.124
X72.639Y-155.608
X73.257Y-158.203
X73.55Y-175.525
X73.607Y-170.974
X73.677Y-156.422
X73.731Y-152.852
X73.867Y-168.008
X73.875Y-169.485
X73.877Y-166.449
X73.952Y-143.005
X74.618Y-149.507
X75.157Y-157.239
X75.311Y-139.525
X76.433Y-156.089
X76.55Y-175.55
X76.751Y-157.136
X77.155Y-143.025
X77.51Y-154.821
X77.709Y-149.461
X77.887Y-156.148
X78.232Y-154.038
X78.537Y-139.484
X79.172Y-154.844
X79.575Y-175.525
X80.239Y-153.953
X80.813Y-152.701
X80.874Y-143.038
X81.577Y-149.476
X82.334Y-139.418
X82.663Y-155.442
X82.818Y-152.144
X82.927Y-153.861
X83.4Y-140.15
X84.575Y-175.6
X84.925Y-151.625
X86.25Y-140.
X86.725Y-161.125
X87.56Y-169.993
X87.6Y-175.55
X88.138Y-143.109
X88.168Y-149.652
X88.75Y-127.105
X88.93Y-171.003
X88.961Y-152.941
X89.009Y-154.402
X89.456Y-168.844
X90.575Y-175.5
X90.819Y-169.77
X91.158Y-138.153
X91.161Y-139.614
X91.351Y-167.669
X91.938Y-143.139
X91.994Y-149.525
X92.658Y-168.674
X93.259Y-166.53
X93.575Y-173.475
X94.517Y-165.384
X94.525Y-167.433
X95.093Y-149.573
X95.141Y-143.119
X95.795Y-164.826
X95.868Y-166.249
X97.356Y-164.961
X97.69Y-163.612
X98.182Y-152.972
X98.185Y-139.564
X98.209Y-138.1
X98.25Y-154.509
X98.936Y-149.588
X98.984Y-143.045
X99.603Y-162.472
X99.835Y-164.059
X100.85Y-140.025
X100.905Y-161.04
X101.106Y-162.628
X103.389Y-161.746
X104.177Y-160.638
X104.4Y-140.05
X105.563Y-161.042
X105.869Y-159.662
X106.225Y-127.105
X106.335Y-143.215
X106.373Y-149.621
X107.325Y-152.78
X107.325Y-155.05
X107.44Y-159.922
X107.775Y-174.35
X108.034Y-158.66
X108.625Y-175.525
X109.367Y-158.291
X109.405Y-138.148
X109.461Y-139.57
X109.575Y-175.425
X110.178Y-143.215
X110.223Y-149.669
X110.525Y-174.35
X110.976Y-158.573
X111.582Y-156.916
X111.675Y-175.525
X112.098Y-155.167
X112.616Y-173.154
X112.987Y-157.342
X113.32Y-143.19
X113.381Y-149.669
X113.6Y-174.375
X113.689Y-155.856
X114.172Y-153.211
X114.2Y-154.775
X114.55Y-175.55
X115.406Y-156.214
X115.525Y-175.15
X116.259Y-173.402
X116.396Y-139.627
X116.421Y-138.095
X117.137Y-174.836
X117.173Y-143.182
X117.203Y-149.728
X117.301Y-155.632
X117.856Y-153.87
X118.505Y-152.421
X118.816Y-155.249
X119.075Y-140.025
X119.125Y-160.942
X120.6Y-175.55
X121.625Y-174.425
X122.5Y-175.475
X123.55Y-175.375
X123.8Y-127.105
X124.762Y-173.932
X125.65Y-175.5
X126.309Y-174.21
X126.825Y-140.4
X127.153Y-160.665
X127.32Y-166.843
X127.619Y-173.337
X128.121Y-166.64
X128.379Y-143.137
X128.675Y-175.35
X128.8Y-149.9
X129.03Y-166.066
X129.625Y-153.325
X129.625Y-154.575
X129.657Y-139.418
X129.7Y-175.125
X130.016Y-165.867
X130.768Y-173.355
X131.182Y-165.867
X131.6Y-175.45
X131.993Y-165.411
X132.077Y-143.104
X132.575Y-149.875
X132.65Y-174.475
X132.792Y-164.815
X133.378Y-139.393
X133.6Y-175.45
X133.776Y-165.125
X134.415Y-164.439
X134.65Y-175.075
X135.222Y-143.152
X135.233Y-163.909
X135.596Y-173.385
X135.75Y-149.875
X136.173Y-163.355
X136.5Y-175.375
X136.705Y-139.39
X137.233Y-163.307
X137.549Y-173.429
X137.8Y-127.105
X138.112Y-162.789
X138.625Y-174.4
X138.7Y-154.575
X138.825Y-153.275
X139.065Y-143.203
X139.183Y-162.488
X139.6Y-149.825
X139.625Y-175.425
X140.144Y-162.573
X140.414Y-139.38
X140.65Y-175.15
X140.855Y-162.26
X141.435Y-160.705
X141.525Y-140.15
X141.558Y-173.17
X142.6Y-175.025
X143.623Y-173.123
X144.625Y-175.325
X145.575Y-174.95
X146.476Y-173.07
X147.625Y-175.425
X148.2Y-139.575
X148.475Y-150.375
X148.532Y-173.14
X149.6Y-174.35
X150.2Y-140.175
X150.309Y-161.375
X150.575Y-175.35
X150.948Y-160.761
X151.596Y-160.215
X151.6Y-174.95
X151.75Y-127.105
X151.941Y-142.752
X152.182Y-149.672
X152.517Y-173.11
X152.83Y-159.615
X153.Y-154.575
X153.091Y-139.703
X153.158Y-152.736
X153.489Y-159.065
X153.675Y-175.15
X154.757Y-158.548
X155.392Y-143.228
X155.399Y-158.002
X156.05Y-149.672
X156.6Y-132.05
X156.657Y-157.489
X156.952Y-139.664
X157.291Y-156.932
X157.933Y-156.339
X158.575Y-155.761
X158.671Y-143.192
X159.187Y-149.728
X159.23Y-155.314
X159.261Y-154.529
X160.007Y-139.624
X160.025Y-154.675
X160.075Y-153.1
X162.265Y-143.231
X162.873Y-154.517
X162.956Y-149.7
X163.59Y-153.954
X163.703Y-139.652
X163.847Y-153.055
X164.313Y-152.429
X164.85Y-140.225
T2
X156.55Y-135.3
X157.82Y-135.3
X162.725Y-135.3
X163.995Y-135.3
T0
M30
