G04 #@! TF.FileFunction,Paste,Top*
%FSLAX46Y46*%
G04 Gerber Fmt 4.6, Leading zero omitted, Abs format (unit mm)*
G04 Created by KiCad (PCBNEW 4.0.4-stable) date 01/25/18 18:30:54*
%MOMM*%
%LPD*%
G01*
G04 APERTURE LIST*
%ADD10C,0.100000*%
%ADD11R,0.900000X0.500000*%
%ADD12R,0.800000X0.750000*%
%ADD13R,0.750000X0.800000*%
%ADD14R,0.400000X1.200000*%
G04 APERTURE END LIST*
D10*
D11*
X44958000Y-130394000D03*
X44958000Y-131894000D03*
X48525400Y-130484270D03*
X48525400Y-131984270D03*
X52025400Y-130484270D03*
X52025400Y-131984270D03*
X55525400Y-130484270D03*
X55525400Y-131984270D03*
X59025400Y-130484270D03*
X59025400Y-131984270D03*
X62525400Y-130484270D03*
X62525400Y-131984270D03*
X66025400Y-130484270D03*
X66025400Y-131984270D03*
X69525400Y-130484270D03*
X69525400Y-131984270D03*
X73025400Y-130484270D03*
X73025400Y-131984270D03*
X76525400Y-130484270D03*
X76525400Y-131984270D03*
X80025400Y-130484270D03*
X80025400Y-131984270D03*
X83525400Y-130484270D03*
X83525400Y-131984270D03*
X87000000Y-130490048D03*
X87000000Y-131990048D03*
X90500000Y-130490048D03*
X90500000Y-131990048D03*
X94000000Y-130490048D03*
X94000000Y-131990048D03*
X97500000Y-130490048D03*
X97500000Y-131990048D03*
X101000000Y-130490048D03*
X101000000Y-131990048D03*
X104500000Y-130490048D03*
X104500000Y-131990048D03*
X108000000Y-130490048D03*
X108000000Y-131990048D03*
X111500000Y-130490048D03*
X111500000Y-131990048D03*
X115000000Y-130490048D03*
X115000000Y-131990048D03*
X118500000Y-130490048D03*
X118500000Y-131990048D03*
X122000000Y-130490048D03*
X122000000Y-131990048D03*
X125500000Y-130490048D03*
X125500000Y-131990048D03*
X129000000Y-130490048D03*
X129000000Y-131990048D03*
X132500000Y-130490048D03*
X132500000Y-131990048D03*
X136000000Y-130490048D03*
X136000000Y-131990048D03*
X139500000Y-130490048D03*
X139500000Y-131990048D03*
X143000000Y-130490048D03*
X143000000Y-131990048D03*
X146500000Y-130490048D03*
X146500000Y-131990048D03*
X150000000Y-130490048D03*
X150000000Y-131990048D03*
X153500000Y-130490048D03*
X153500000Y-131990048D03*
X159500000Y-132000000D03*
X159500000Y-130500000D03*
X163000000Y-132000000D03*
X163000000Y-130500000D03*
D12*
X54108480Y-139580620D03*
X52608480Y-139580620D03*
D13*
X52397660Y-154674700D03*
X52397660Y-153174700D03*
D12*
X46997620Y-139580620D03*
X45497620Y-139580620D03*
D13*
X45366940Y-154674700D03*
X45366940Y-153174700D03*
D12*
X81175860Y-139451080D03*
X79675860Y-139451080D03*
X78245840Y-152951180D03*
X79745840Y-152951180D03*
X74194800Y-139491720D03*
X72694800Y-139491720D03*
D13*
X72651620Y-154401520D03*
X72651620Y-152901520D03*
X97040700Y-138113640D03*
X97040700Y-139613640D03*
X97061020Y-154484200D03*
X97061020Y-152984200D03*
X90083640Y-138126340D03*
X90083640Y-139626340D03*
X90078560Y-154410540D03*
X90078560Y-152910540D03*
D12*
X139324080Y-139397740D03*
X137824080Y-139397740D03*
D13*
X137698480Y-154608660D03*
X137698480Y-153108660D03*
D12*
X132294760Y-139423140D03*
X130794760Y-139423140D03*
D13*
X130731260Y-154557860D03*
X130731260Y-153057860D03*
D12*
X162590480Y-139621260D03*
X161090480Y-139621260D03*
D13*
X161075000Y-154650000D03*
X161075000Y-153150000D03*
D12*
X155741500Y-139641580D03*
X154241500Y-139641580D03*
D13*
X154100000Y-154625000D03*
X154100000Y-153125000D03*
X115255040Y-138111100D03*
X115255040Y-139611100D03*
X115275000Y-154875000D03*
X115275000Y-153375000D03*
X108262420Y-138133960D03*
X108262420Y-139633960D03*
X108300000Y-154875000D03*
X108300000Y-153375000D03*
D11*
X146950000Y-139575000D03*
X146950000Y-138075000D03*
D14*
X141485000Y-141708000D03*
X140850000Y-141708000D03*
X140215000Y-141708000D03*
X139580000Y-141708000D03*
X138945000Y-141708000D03*
X138310000Y-141708000D03*
X137675000Y-141708000D03*
X137040000Y-141708000D03*
X136405000Y-141708000D03*
X135770000Y-141708000D03*
X135135000Y-141708000D03*
X134500000Y-141708000D03*
X133865000Y-141708000D03*
X133230000Y-141708000D03*
X132595000Y-141708000D03*
X131960000Y-141708000D03*
X131325000Y-141708000D03*
X130690000Y-141708000D03*
X130055000Y-141708000D03*
X129420000Y-141708000D03*
X128785000Y-141708000D03*
X128150000Y-141708000D03*
X127515000Y-141708000D03*
X126880000Y-141708000D03*
X126880000Y-151108000D03*
X127515000Y-151108000D03*
X128150000Y-151108000D03*
X128785000Y-151108000D03*
X129420000Y-151108000D03*
X130055000Y-151108000D03*
X130690000Y-151108000D03*
X131325000Y-151108000D03*
X131960000Y-151108000D03*
X132595000Y-151108000D03*
X133230000Y-151108000D03*
X133865000Y-151108000D03*
X134500000Y-151108000D03*
X135135000Y-151108000D03*
X135770000Y-151108000D03*
X136405000Y-151108000D03*
X137040000Y-151108000D03*
X137675000Y-151108000D03*
X138310000Y-151108000D03*
X138945000Y-151108000D03*
X139580000Y-151108000D03*
X140215000Y-151108000D03*
X140850000Y-151108000D03*
X141485000Y-151108000D03*
X56216761Y-141634603D03*
X55581761Y-141634603D03*
X54946761Y-141634603D03*
X54311761Y-141634603D03*
X53676761Y-141634603D03*
X53041761Y-141634603D03*
X52406761Y-141634603D03*
X51771761Y-141634603D03*
X51136761Y-141634603D03*
X50501761Y-141634603D03*
X49866761Y-141634603D03*
X49231761Y-141634603D03*
X48596761Y-141634603D03*
X47961761Y-141634603D03*
X47326761Y-141634603D03*
X46691761Y-141634603D03*
X46056761Y-141634603D03*
X45421761Y-141634603D03*
X44786761Y-141634603D03*
X44151761Y-141634603D03*
X43516761Y-141634603D03*
X42881761Y-141634603D03*
X42246761Y-141634603D03*
X41611761Y-141634603D03*
X41611761Y-151034603D03*
X42246761Y-151034603D03*
X42881761Y-151034603D03*
X43516761Y-151034603D03*
X44151761Y-151034603D03*
X44786761Y-151034603D03*
X45421761Y-151034603D03*
X46056761Y-151034603D03*
X46691761Y-151034603D03*
X47326761Y-151034603D03*
X47961761Y-151034603D03*
X48596761Y-151034603D03*
X49231761Y-151034603D03*
X49866761Y-151034603D03*
X50501761Y-151034603D03*
X51136761Y-151034603D03*
X51771761Y-151034603D03*
X52406761Y-151034603D03*
X53041761Y-151034603D03*
X53676761Y-151034603D03*
X54311761Y-151034603D03*
X54946761Y-151034603D03*
X55581761Y-151034603D03*
X56216761Y-151034603D03*
X100860000Y-141650000D03*
X100225000Y-141650000D03*
X99590000Y-141650000D03*
X98955000Y-141650000D03*
X98320000Y-141650000D03*
X97685000Y-141650000D03*
X97050000Y-141650000D03*
X96415000Y-141650000D03*
X95780000Y-141650000D03*
X95145000Y-141650000D03*
X94510000Y-141650000D03*
X93875000Y-141650000D03*
X93240000Y-141650000D03*
X92605000Y-141650000D03*
X91970000Y-141650000D03*
X91335000Y-141650000D03*
X90700000Y-141650000D03*
X90065000Y-141650000D03*
X89430000Y-141650000D03*
X88795000Y-141650000D03*
X88160000Y-141650000D03*
X87525000Y-141650000D03*
X86890000Y-141650000D03*
X86255000Y-141650000D03*
X86255000Y-151050000D03*
X86890000Y-151050000D03*
X87525000Y-151050000D03*
X88160000Y-151050000D03*
X88795000Y-151050000D03*
X89430000Y-151050000D03*
X90065000Y-151050000D03*
X90700000Y-151050000D03*
X91335000Y-151050000D03*
X91970000Y-151050000D03*
X92605000Y-151050000D03*
X93240000Y-151050000D03*
X93875000Y-151050000D03*
X94510000Y-151050000D03*
X95145000Y-151050000D03*
X95780000Y-151050000D03*
X96415000Y-151050000D03*
X97050000Y-151050000D03*
X97685000Y-151050000D03*
X98320000Y-151050000D03*
X98955000Y-151050000D03*
X99590000Y-151050000D03*
X100225000Y-151050000D03*
X100860000Y-151050000D03*
X164900000Y-141708000D03*
X164265000Y-141708000D03*
X163630000Y-141708000D03*
X162995000Y-141708000D03*
X162360000Y-141708000D03*
X161725000Y-141708000D03*
X161090000Y-141708000D03*
X160455000Y-141708000D03*
X159820000Y-141708000D03*
X159185000Y-141708000D03*
X158550000Y-141708000D03*
X157915000Y-141708000D03*
X157280000Y-141708000D03*
X156645000Y-141708000D03*
X156010000Y-141708000D03*
X155375000Y-141708000D03*
X154740000Y-141708000D03*
X154105000Y-141708000D03*
X153470000Y-141708000D03*
X152835000Y-141708000D03*
X152200000Y-141708000D03*
X151565000Y-141708000D03*
X150930000Y-141708000D03*
X150295000Y-141708000D03*
X150295000Y-151108000D03*
X150930000Y-151108000D03*
X151565000Y-151108000D03*
X152200000Y-151108000D03*
X152835000Y-151108000D03*
X153470000Y-151108000D03*
X154105000Y-151108000D03*
X154740000Y-151108000D03*
X155375000Y-151108000D03*
X156010000Y-151108000D03*
X156645000Y-151108000D03*
X157280000Y-151108000D03*
X157915000Y-151108000D03*
X158550000Y-151108000D03*
X159185000Y-151108000D03*
X159820000Y-151108000D03*
X160455000Y-151108000D03*
X161090000Y-151108000D03*
X161725000Y-151108000D03*
X162360000Y-151108000D03*
X162995000Y-151108000D03*
X163630000Y-151108000D03*
X164265000Y-151108000D03*
X164900000Y-151108000D03*
X83426000Y-141532000D03*
X82791000Y-141532000D03*
X82156000Y-141532000D03*
X81521000Y-141532000D03*
X80886000Y-141532000D03*
X80251000Y-141532000D03*
X79616000Y-141532000D03*
X78981000Y-141532000D03*
X78346000Y-141532000D03*
X77711000Y-141532000D03*
X77076000Y-141532000D03*
X76441000Y-141532000D03*
X75806000Y-141532000D03*
X75171000Y-141532000D03*
X74536000Y-141532000D03*
X73901000Y-141532000D03*
X73266000Y-141532000D03*
X72631000Y-141532000D03*
X71996000Y-141532000D03*
X71361000Y-141532000D03*
X70726000Y-141532000D03*
X70091000Y-141532000D03*
X69456000Y-141532000D03*
X68821000Y-141532000D03*
X68821000Y-150932000D03*
X69456000Y-150932000D03*
X70091000Y-150932000D03*
X70726000Y-150932000D03*
X71361000Y-150932000D03*
X71996000Y-150932000D03*
X72631000Y-150932000D03*
X73266000Y-150932000D03*
X73901000Y-150932000D03*
X74536000Y-150932000D03*
X75171000Y-150932000D03*
X75806000Y-150932000D03*
X76441000Y-150932000D03*
X77076000Y-150932000D03*
X77711000Y-150932000D03*
X78346000Y-150932000D03*
X78981000Y-150932000D03*
X79616000Y-150932000D03*
X80251000Y-150932000D03*
X80886000Y-150932000D03*
X81521000Y-150932000D03*
X82156000Y-150932000D03*
X82791000Y-150932000D03*
X83426000Y-150932000D03*
X119072000Y-141728000D03*
X118437000Y-141728000D03*
X117802000Y-141728000D03*
X117167000Y-141728000D03*
X116532000Y-141728000D03*
X115897000Y-141728000D03*
X115262000Y-141728000D03*
X114627000Y-141728000D03*
X113992000Y-141728000D03*
X113357000Y-141728000D03*
X112722000Y-141728000D03*
X112087000Y-141728000D03*
X111452000Y-141728000D03*
X110817000Y-141728000D03*
X110182000Y-141728000D03*
X109547000Y-141728000D03*
X108912000Y-141728000D03*
X108277000Y-141728000D03*
X107642000Y-141728000D03*
X107007000Y-141728000D03*
X106372000Y-141728000D03*
X105737000Y-141728000D03*
X105102000Y-141728000D03*
X104467000Y-141728000D03*
X104467000Y-151128000D03*
X105102000Y-151128000D03*
X105737000Y-151128000D03*
X106372000Y-151128000D03*
X107007000Y-151128000D03*
X107642000Y-151128000D03*
X108277000Y-151128000D03*
X108912000Y-151128000D03*
X109547000Y-151128000D03*
X110182000Y-151128000D03*
X110817000Y-151128000D03*
X111452000Y-151128000D03*
X112087000Y-151128000D03*
X112722000Y-151128000D03*
X113357000Y-151128000D03*
X113992000Y-151128000D03*
X114627000Y-151128000D03*
X115262000Y-151128000D03*
X115897000Y-151128000D03*
X116532000Y-151128000D03*
X117167000Y-151128000D03*
X117802000Y-151128000D03*
X118437000Y-151128000D03*
X119072000Y-151128000D03*
M02*
