G04 #@! TF.FileFunction,Copper,L4,Bot,Signal*
%FSLAX46Y46*%
G04 Gerber Fmt 4.6, Leading zero omitted, Abs format (unit mm)*
G04 Created by KiCad (PCBNEW 4.0.4-stable) date 01/25/18 18:30:54*
%MOMM*%
%LPD*%
G01*
G04 APERTURE LIST*
%ADD10C,0.100000*%
%ADD11R,0.700000X4.400000*%
%ADD12R,2.000000X4.000000*%
%ADD13R,1.000000X1.000000*%
%ADD14O,1.000000X1.000000*%
%ADD15C,0.600000*%
%ADD16C,0.177800*%
G04 APERTURE END LIST*
D10*
D11*
X47548800Y-178638200D03*
X48548800Y-178638200D03*
X49548800Y-178638200D03*
X50548800Y-178638200D03*
X51548800Y-178638200D03*
X52548800Y-178638200D03*
X53548800Y-178638200D03*
X54548800Y-178638200D03*
X55548800Y-178638200D03*
X56548800Y-178638200D03*
X57548800Y-178638200D03*
X60548800Y-178638200D03*
X61548800Y-178638200D03*
X62548800Y-178638200D03*
X63548800Y-178638200D03*
X64548800Y-178638200D03*
X65548800Y-178638200D03*
X66548800Y-178638200D03*
X67548800Y-178638200D03*
X68548800Y-178638200D03*
X69548800Y-178638200D03*
X70548800Y-178638200D03*
X71548800Y-178638200D03*
X72548800Y-178638200D03*
X73548800Y-178638200D03*
X74548800Y-178638200D03*
X75548800Y-178638200D03*
X76548800Y-178638200D03*
X77548800Y-178638200D03*
X78548800Y-178638200D03*
X79548800Y-178638200D03*
X80548800Y-178638200D03*
X81548800Y-178638200D03*
X82548800Y-178638200D03*
X83548800Y-178638200D03*
X84548800Y-178638200D03*
X85548800Y-178638200D03*
X86548800Y-178638200D03*
X87548800Y-178638200D03*
X88548800Y-178638200D03*
X89548800Y-178638200D03*
X90548800Y-178638200D03*
X91548800Y-178638200D03*
X92548800Y-178638200D03*
X93548800Y-178638200D03*
X94548800Y-178638200D03*
X95548800Y-178638200D03*
X96548800Y-178638200D03*
X97548800Y-178638200D03*
X107548800Y-178638200D03*
X120548800Y-178638200D03*
X108548800Y-178638200D03*
X109548800Y-178638200D03*
X110548800Y-178638200D03*
X111548800Y-178638200D03*
X112548800Y-178638200D03*
X113548800Y-178638200D03*
X114548800Y-178638200D03*
X115548800Y-178638200D03*
X116548800Y-178638200D03*
X117548800Y-178638200D03*
X121548800Y-178638200D03*
X122548800Y-178638200D03*
X123548800Y-178638200D03*
X124548800Y-178638200D03*
X125548800Y-178638200D03*
X126548800Y-178638200D03*
X127548800Y-178638200D03*
X128548800Y-178638200D03*
X129548800Y-178638200D03*
X130548800Y-178638200D03*
X131548800Y-178638200D03*
X132548800Y-178638200D03*
X133548800Y-178638200D03*
X134548800Y-178638200D03*
X135548800Y-178638200D03*
X136548800Y-178638200D03*
X137548800Y-178638200D03*
X138548800Y-178638200D03*
X139548800Y-178638200D03*
X140548800Y-178638200D03*
X141548800Y-178638200D03*
X142548800Y-178638200D03*
X143548800Y-178638200D03*
X144548800Y-178638200D03*
X145548800Y-178638200D03*
X146548800Y-178638200D03*
X147548800Y-178638200D03*
X148548800Y-178638200D03*
X149548800Y-178638200D03*
X150548800Y-178638200D03*
X151548800Y-178638200D03*
X152548800Y-178638200D03*
X153548800Y-178638200D03*
X154548800Y-178638200D03*
X155548800Y-178638200D03*
X156548800Y-178638200D03*
X157548800Y-178638200D03*
D12*
X45000000Y-127105416D03*
X48500000Y-127105416D03*
X52000000Y-127105416D03*
X55500000Y-127105416D03*
X59000000Y-127105416D03*
X62500000Y-127105416D03*
X66000000Y-127105416D03*
X69500000Y-127105416D03*
X73000000Y-127105416D03*
X76500000Y-127105416D03*
X80000000Y-127105416D03*
X83500000Y-127105416D03*
X87000000Y-127105416D03*
X90500000Y-127105416D03*
X94000000Y-127105416D03*
X97500000Y-127105416D03*
X101000000Y-127105416D03*
X104500000Y-127105416D03*
X108000000Y-127105416D03*
X111500000Y-127105416D03*
X115000000Y-127105416D03*
X118500000Y-127105416D03*
X122000000Y-127105416D03*
X125500000Y-127105416D03*
X129000000Y-127105416D03*
X132500000Y-127105416D03*
X136000000Y-127105416D03*
X139500000Y-127105416D03*
X143000000Y-127105416D03*
X146500000Y-127105416D03*
X150000000Y-127105416D03*
X153500000Y-127105416D03*
X159500000Y-127000000D03*
X163000000Y-127000000D03*
D13*
X162725000Y-135300000D03*
D14*
X163995000Y-135300000D03*
D13*
X156550000Y-135300000D03*
D14*
X157820000Y-135300000D03*
D15*
X112616421Y-173153667D03*
X114171875Y-153210978D03*
X107325000Y-152780367D03*
X153157830Y-152735978D03*
X160075000Y-153100000D03*
X148200000Y-139575000D03*
X147625000Y-175425000D03*
X136500000Y-175375000D03*
X125650000Y-175500000D03*
X129625000Y-153325000D03*
X138825000Y-153275000D03*
X98182091Y-152972167D03*
X87600000Y-175550000D03*
X76550000Y-175550000D03*
X65550000Y-175550000D03*
X52525000Y-175475000D03*
X116396355Y-139627195D03*
X98184761Y-139563790D03*
X160007300Y-139623800D03*
X153090880Y-139702540D03*
X136705340Y-139390120D03*
X129656840Y-139418060D03*
X109461300Y-139570460D03*
X91160600Y-139613640D03*
X88960960Y-152941020D03*
X80812517Y-152701404D03*
X73731120Y-152852120D03*
X78536800Y-139484100D03*
X71554340Y-139552680D03*
X44289980Y-153202640D03*
X51391820Y-153202640D03*
X51457860Y-139598400D03*
X44394120Y-139588240D03*
X114200000Y-154775000D03*
X107325000Y-155050000D03*
X153000000Y-154575000D03*
X160025000Y-154675000D03*
X150575000Y-175350000D03*
X144625000Y-175325000D03*
X139625000Y-175425000D03*
X133600000Y-175450000D03*
X128675000Y-175350000D03*
X122500000Y-175475000D03*
X115525000Y-175150000D03*
X109575000Y-175425000D03*
X139600000Y-149825000D03*
X135750000Y-149875000D03*
X132575000Y-149875000D03*
X128800000Y-149900000D03*
X129625000Y-154575000D03*
X138700000Y-154575000D03*
X98250385Y-154508772D03*
X90575000Y-175500000D03*
X84575000Y-175600000D03*
X79575000Y-175525000D03*
X73550000Y-175525000D03*
X68550000Y-175550000D03*
X62575000Y-175525000D03*
X55575000Y-175500000D03*
X49550000Y-175500000D03*
X46725000Y-127105416D03*
X57225000Y-127105416D03*
X71325000Y-127105416D03*
X88750000Y-127105416D03*
X106225000Y-127105416D03*
X123800000Y-127105416D03*
X137800000Y-127105416D03*
X151750000Y-127105416D03*
X54345840Y-143042640D03*
X50500280Y-143116300D03*
X47566580Y-143131540D03*
X50521363Y-149626652D03*
X73952100Y-143004540D03*
X80873600Y-143037560D03*
X162956240Y-149699980D03*
X159186880Y-149727920D03*
X152181560Y-149672040D03*
X156049980Y-149672040D03*
X151940507Y-142752399D03*
X163703000Y-139651740D03*
X156951680Y-139664440D03*
X162265360Y-143230600D03*
X158671260Y-143192500D03*
X155392120Y-143228060D03*
X140413740Y-139379960D03*
X133377940Y-139392660D03*
X139065000Y-143202660D03*
X135221980Y-143151860D03*
X132077460Y-143103600D03*
X128379220Y-143136620D03*
X109405420Y-138148060D03*
X116420900Y-138094720D03*
X117172740Y-143182340D03*
X113319560Y-143189960D03*
X110177580Y-143215360D03*
X106334560Y-143215360D03*
X117203220Y-149727920D03*
X113380520Y-149669500D03*
X110223300Y-149669500D03*
X106372660Y-149621240D03*
X98983800Y-143045180D03*
X98209100Y-138099800D03*
X91158060Y-138153140D03*
X95140780Y-143118840D03*
X91937840Y-143139160D03*
X88138000Y-143108680D03*
X98935540Y-149588220D03*
X95092520Y-149572980D03*
X88168480Y-149651720D03*
X91993720Y-149524720D03*
X89009220Y-154401520D03*
X81577180Y-149476460D03*
X78232000Y-154038300D03*
X77708760Y-149461220D03*
X74617580Y-149506940D03*
X70736460Y-149618700D03*
X72638920Y-155608020D03*
X82334100Y-139418060D03*
X77155040Y-143024860D03*
X75311000Y-139524740D03*
X70225920Y-142956280D03*
X45354240Y-155773120D03*
X52392580Y-155773120D03*
X54282340Y-149636480D03*
X47325280Y-149529800D03*
X43522900Y-149537420D03*
X55204360Y-139588240D03*
X50429160Y-140327380D03*
X43520360Y-143111220D03*
X48107600Y-139567920D03*
X88929626Y-171003266D03*
X127319887Y-166843342D03*
X42211368Y-170575398D03*
X42752053Y-168624750D03*
X128121078Y-166640055D03*
X87560228Y-169993328D03*
X90819006Y-169769921D03*
X129029892Y-166066067D03*
X44145450Y-169384128D03*
X44542011Y-167948588D03*
X130015893Y-165867421D03*
X89455655Y-168843587D03*
X92657665Y-168674021D03*
X131182111Y-165867421D03*
X46045883Y-168196786D03*
X46606886Y-165994228D03*
X131993394Y-165411075D03*
X91351068Y-167669117D03*
X94524896Y-167432997D03*
X47782076Y-167024175D03*
X132792000Y-164815289D03*
X48326260Y-163838152D03*
X133776314Y-165125225D03*
X93258741Y-166529969D03*
X54678212Y-169287984D03*
X55721488Y-169246252D03*
X57379997Y-168879219D03*
X57379997Y-167396259D03*
X58764820Y-167810615D03*
X58580237Y-166275000D03*
X59680765Y-169249959D03*
X60317835Y-167737052D03*
X95868390Y-166248900D03*
X49242196Y-165907365D03*
X134414565Y-164438805D03*
X49829579Y-164224556D03*
X135233454Y-163908934D03*
X94517306Y-165383872D03*
X51110502Y-164918636D03*
X136172767Y-163354981D03*
X95795286Y-164826209D03*
X97356187Y-164961102D03*
X51596577Y-163129516D03*
X137232505Y-163306811D03*
X53015365Y-163407482D03*
X138111606Y-162788984D03*
X97690365Y-163611645D03*
X99835065Y-164058533D03*
X53062280Y-161680908D03*
X139183396Y-162487922D03*
X99603094Y-162471795D03*
X140143582Y-162573389D03*
X54525560Y-161698128D03*
X101105534Y-162627790D03*
X140855273Y-162259561D03*
X55513463Y-160444363D03*
X69274573Y-158855555D03*
X104176776Y-160638150D03*
X150947845Y-160760978D03*
X70057833Y-160049930D03*
X105563012Y-161042469D03*
X151595628Y-160215243D03*
X71329614Y-158914282D03*
X105869139Y-159662009D03*
X152829614Y-159614993D03*
X71366522Y-157660095D03*
X107440206Y-159921928D03*
X153489158Y-159065373D03*
X73256517Y-158203060D03*
X108033517Y-158659913D03*
X154756517Y-158548081D03*
X73676884Y-156421660D03*
X109366830Y-158291434D03*
X155399394Y-158002030D03*
X110976266Y-158573336D03*
X156657344Y-157489498D03*
X75157344Y-157239498D03*
X111582064Y-156916488D03*
X76750696Y-157136227D03*
X157291478Y-156932074D03*
X112987119Y-157342202D03*
X157933282Y-156338853D03*
X76433282Y-156088853D03*
X112097966Y-155167198D03*
X77887027Y-156147986D03*
X158574574Y-155760718D03*
X77510461Y-154821445D03*
X113689154Y-155855630D03*
X159230327Y-155314173D03*
X79171839Y-154843950D03*
X115405815Y-156214062D03*
X159261086Y-154528620D03*
X117300887Y-155631777D03*
X162872501Y-154517155D03*
X80239164Y-153952585D03*
X118815611Y-155249380D03*
X82663370Y-155441760D03*
X163590177Y-153954433D03*
X117855544Y-153870129D03*
X82927239Y-153860840D03*
X163847321Y-153055183D03*
X164313460Y-152428571D03*
X118505290Y-152420908D03*
X82817645Y-152144388D03*
X103389418Y-161746227D03*
X86725000Y-161125000D03*
X119125000Y-160942476D03*
X141435308Y-160705483D03*
X100904880Y-161039628D03*
X127152989Y-160665323D03*
X41625000Y-158525000D03*
X56250000Y-158500000D03*
X150309188Y-161375102D03*
X68809188Y-161125102D03*
X61179476Y-169006143D03*
X62400000Y-170225000D03*
X62615470Y-169420011D03*
X64534057Y-172040975D03*
X64085886Y-170536069D03*
X66144224Y-172361443D03*
X64460104Y-168907020D03*
X66357671Y-170788680D03*
X65942014Y-169406896D03*
X67761432Y-170638568D03*
X65890051Y-167402239D03*
X69963315Y-171961685D03*
X67549817Y-168497610D03*
X70233392Y-170591608D03*
X71441026Y-173008974D03*
X69112776Y-167835553D03*
X72391925Y-172319705D03*
X70536536Y-168389376D03*
X73606584Y-170974479D03*
X71944213Y-168576499D03*
X72438796Y-170123533D03*
X73875000Y-169485457D03*
X73867258Y-168008153D03*
X73876540Y-166448692D03*
X156600000Y-132050000D03*
X84925000Y-151625000D03*
X93575000Y-173475000D03*
X83400000Y-140150000D03*
X68750000Y-140125000D03*
X56275000Y-140175000D03*
X41575000Y-140325000D03*
X107775000Y-174350000D03*
X120600000Y-175550000D03*
X108625000Y-175525000D03*
X110525000Y-174350000D03*
X111675000Y-175525000D03*
X113600000Y-174375000D03*
X114550000Y-175550000D03*
X116259481Y-173402390D03*
X117137327Y-174836205D03*
X121625000Y-174425000D03*
X123550000Y-175375000D03*
X124761690Y-173932468D03*
X126309425Y-174210267D03*
X127619047Y-173337186D03*
X129700000Y-175125000D03*
X130768228Y-173354583D03*
X131600000Y-175450000D03*
X132650000Y-174475000D03*
X134650000Y-175075000D03*
X135596023Y-173385181D03*
X137549325Y-173428619D03*
X138625000Y-174400000D03*
X140650000Y-175150000D03*
X141558320Y-173170025D03*
X142600000Y-175025000D03*
X143623317Y-173122881D03*
X145575000Y-174950000D03*
X146475698Y-173070308D03*
X148532461Y-173139859D03*
X149600000Y-174350000D03*
X151600000Y-174950000D03*
X152516819Y-173110052D03*
X148475000Y-150375000D03*
X153675000Y-175150000D03*
X164850000Y-140225000D03*
X150200000Y-140175000D03*
X141525000Y-140150000D03*
X126825000Y-140400000D03*
X119075000Y-140025000D03*
X104400000Y-140050000D03*
X100850000Y-140025000D03*
X86250000Y-140000000D03*
D16*
X112548800Y-173221288D02*
X112616421Y-173153667D01*
X112548800Y-178638200D02*
X112548800Y-173221288D01*
X147548800Y-178638200D02*
X147548800Y-175501200D01*
X147548800Y-175501200D02*
X147625000Y-175425000D01*
X136500000Y-175375000D02*
X136500000Y-178589400D01*
X136500000Y-178589400D02*
X136548800Y-178638200D01*
X125548800Y-178638200D02*
X125548800Y-175601200D01*
X125548800Y-175601200D02*
X125650000Y-175500000D01*
X87548800Y-178638200D02*
X87548800Y-175601200D01*
X87548800Y-175601200D02*
X87600000Y-175550000D01*
X76550000Y-175550000D02*
X76550000Y-178637000D01*
X76550000Y-178637000D02*
X76548800Y-178638200D01*
X65548800Y-175551200D02*
X65550000Y-175550000D01*
X65548800Y-178638200D02*
X65548800Y-175551200D01*
X52548800Y-178638200D02*
X52548800Y-175498800D01*
X52548800Y-175498800D02*
X52525000Y-175475000D01*
X150575000Y-175350000D02*
X150575000Y-178612000D01*
X150575000Y-178612000D02*
X150548800Y-178638200D01*
X144625000Y-175325000D02*
X144625000Y-178562000D01*
X144625000Y-178562000D02*
X144548800Y-178638200D01*
X139548800Y-178638200D02*
X139548800Y-175501200D01*
X139548800Y-175501200D02*
X139625000Y-175425000D01*
X133548800Y-178638200D02*
X133548800Y-175501200D01*
X133548800Y-175501200D02*
X133600000Y-175450000D01*
X128675000Y-175350000D02*
X128675000Y-178512000D01*
X128675000Y-178512000D02*
X128548800Y-178638200D01*
X122500000Y-175475000D02*
X122500000Y-178589400D01*
X122500000Y-178589400D02*
X122548800Y-178638200D01*
X115525000Y-175150000D02*
X115525000Y-178614400D01*
X115525000Y-178614400D02*
X115548800Y-178638200D01*
X109548800Y-178638200D02*
X109548800Y-175451200D01*
X109548800Y-175451200D02*
X109575000Y-175425000D01*
X90575000Y-175500000D02*
X90575000Y-178612000D01*
X90575000Y-178612000D02*
X90548800Y-178638200D01*
X84575000Y-175600000D02*
X84575000Y-178612000D01*
X84575000Y-178612000D02*
X84548800Y-178638200D01*
X79548800Y-178638200D02*
X79548800Y-175551200D01*
X79548800Y-175551200D02*
X79575000Y-175525000D01*
X73550000Y-175525000D02*
X73550000Y-178637000D01*
X73550000Y-178637000D02*
X73548800Y-178638200D01*
X68548800Y-175551200D02*
X68550000Y-175550000D01*
X68548800Y-178638200D02*
X68548800Y-175551200D01*
X62575000Y-175525000D02*
X62575000Y-178612000D01*
X62575000Y-178612000D02*
X62548800Y-178638200D01*
X55575000Y-175500000D02*
X55575000Y-178612000D01*
X55575000Y-178612000D02*
X55548800Y-178638200D01*
X49548800Y-175501200D02*
X49550000Y-175500000D01*
X49548800Y-178638200D02*
X49548800Y-175501200D01*
X45000000Y-127105416D02*
X46725000Y-127105416D01*
X55500000Y-127105416D02*
X57225000Y-127105416D01*
X59000000Y-127105416D02*
X57225000Y-127105416D01*
X73000000Y-127105416D02*
X71325000Y-127105416D01*
X87000000Y-127105416D02*
X88750000Y-127105416D01*
X90500000Y-127105416D02*
X88750000Y-127105416D01*
X104500000Y-127105416D02*
X106225000Y-127105416D01*
X108000000Y-127105416D02*
X106225000Y-127105416D01*
X122000000Y-127105416D02*
X123800000Y-127105416D01*
X125500000Y-127105416D02*
X123800000Y-127105416D01*
X136000000Y-127105416D02*
X137800000Y-127105416D01*
X139500000Y-127105416D02*
X137800000Y-127105416D01*
X150000000Y-127105416D02*
X151750000Y-127105416D01*
X153500000Y-127105416D02*
X151750000Y-127105416D01*
X146500000Y-127105416D02*
X150000000Y-127105416D01*
X143000000Y-127105416D02*
X146500000Y-127105416D01*
X139500000Y-127105416D02*
X143000000Y-127105416D01*
X132500000Y-127105416D02*
X136000000Y-127105416D01*
X129000000Y-127105416D02*
X132500000Y-127105416D01*
X125500000Y-127105416D02*
X129000000Y-127105416D01*
X118500000Y-127105416D02*
X122000000Y-127105416D01*
X115000000Y-127105416D02*
X118500000Y-127105416D01*
X111500000Y-127105416D02*
X115000000Y-127105416D01*
X108000000Y-127105416D02*
X111500000Y-127105416D01*
X101000000Y-127105416D02*
X104500000Y-127105416D01*
X97500000Y-127105416D02*
X101000000Y-127105416D01*
X94000000Y-127105416D02*
X97500000Y-127105416D01*
X90500000Y-127105416D02*
X94000000Y-127105416D01*
X83500000Y-127105416D02*
X87000000Y-127105416D01*
X80000000Y-127105416D02*
X83500000Y-127105416D01*
X76500000Y-127105416D02*
X80000000Y-127105416D01*
X73000000Y-127105416D02*
X76500000Y-127105416D01*
X69500000Y-127105416D02*
X73000000Y-127105416D01*
X66000000Y-127105416D02*
X69500000Y-127105416D01*
X62500000Y-127105416D02*
X66000000Y-127105416D01*
X59000000Y-127105416D02*
X62500000Y-127105416D01*
X52000000Y-127105416D02*
X55500000Y-127105416D01*
X48500000Y-127105416D02*
X52000000Y-127105416D01*
X45000000Y-127105416D02*
X48500000Y-127105416D01*
X62160538Y-166835538D02*
X66162068Y-166835538D01*
X55700000Y-168225000D02*
X59625000Y-164300000D01*
X42511367Y-170875397D02*
X50874603Y-170875397D01*
X74111428Y-165881990D02*
X75263177Y-167033739D01*
X53525000Y-168225000D02*
X55700000Y-168225000D01*
X83792357Y-167033739D02*
X87761884Y-171003266D01*
X89353890Y-171003266D02*
X88929626Y-171003266D01*
X75263177Y-167033739D02*
X83792357Y-167033739D01*
X123159963Y-171003266D02*
X89353890Y-171003266D01*
X127319887Y-166843342D02*
X123159963Y-171003266D01*
X73604522Y-165881990D02*
X74111428Y-165881990D01*
X42211368Y-170575398D02*
X42511367Y-170875397D01*
X87761884Y-171003266D02*
X88929626Y-171003266D01*
X50874603Y-170875397D02*
X53525000Y-168225000D01*
X66162068Y-166835538D02*
X66360269Y-167033739D01*
X72452773Y-167033739D02*
X73604522Y-165881990D01*
X66360269Y-167033739D02*
X72452773Y-167033739D01*
X59625000Y-164300000D02*
X62160538Y-166835538D01*
X87560228Y-169993328D02*
X87984492Y-169993328D01*
X88335883Y-170344719D02*
X117602201Y-170344719D01*
X127821079Y-166340056D02*
X128121078Y-166640055D01*
X127757664Y-166276641D02*
X127821079Y-166340056D01*
X121670279Y-166276641D02*
X127757664Y-166276641D01*
X87984492Y-169993328D02*
X88335883Y-170344719D01*
X117602201Y-170344719D02*
X121670279Y-166276641D01*
X75447605Y-166678128D02*
X74295856Y-165526379D01*
X55577700Y-167844391D02*
X53402700Y-167844391D01*
X59477702Y-163944389D02*
X55577700Y-167844391D01*
X42752053Y-169049014D02*
X42752053Y-168624750D01*
X53402700Y-167844391D02*
X51003764Y-170243327D01*
X63222299Y-163944389D02*
X59477702Y-163944389D01*
X66507567Y-166678128D02*
X66309366Y-166479927D01*
X84245028Y-166678128D02*
X75447605Y-166678128D01*
X73429377Y-165526379D02*
X72277628Y-166678128D01*
X74295856Y-165526379D02*
X73429377Y-165526379D01*
X65757836Y-166479927D02*
X63222299Y-163944389D01*
X43946366Y-170243327D02*
X42752053Y-169049014D01*
X66309366Y-166479927D02*
X65757836Y-166479927D01*
X72277628Y-166678128D02*
X66507567Y-166678128D01*
X87560228Y-169993328D02*
X84245028Y-166678128D01*
X51003764Y-170243327D02*
X43946366Y-170243327D01*
X90394742Y-169769921D02*
X90819006Y-169769921D01*
X73282079Y-165170768D02*
X74443154Y-165170768D01*
X44145450Y-169384128D02*
X51360054Y-169384128D01*
X85713993Y-166322517D02*
X89161397Y-169769921D01*
X75594903Y-166322517D02*
X85713993Y-166322517D01*
X89161397Y-169769921D02*
X90394742Y-169769921D01*
X72130330Y-166322517D02*
X73282079Y-165170768D01*
X66654865Y-166322517D02*
X72130330Y-166322517D01*
X63319596Y-163538778D02*
X65905133Y-166124316D01*
X121522980Y-165921030D02*
X117674089Y-169769921D01*
X74443154Y-165170768D02*
X75594903Y-166322517D01*
X51360054Y-169384128D02*
X53255402Y-167488780D01*
X128460591Y-165921030D02*
X121522980Y-165921030D01*
X129029892Y-166066067D02*
X128605628Y-166066067D01*
X91243270Y-169769921D02*
X90819006Y-169769921D01*
X65905133Y-166124316D02*
X66456664Y-166124316D01*
X66456664Y-166124316D02*
X66654865Y-166322517D01*
X53255402Y-167488780D02*
X55305403Y-167488780D01*
X59255405Y-163538778D02*
X63319596Y-163538778D01*
X128605628Y-166066067D02*
X128460591Y-165921030D01*
X55305403Y-167488780D02*
X59255405Y-163538778D01*
X117674089Y-169769921D02*
X91243270Y-169769921D01*
X117700379Y-169240723D02*
X121375682Y-165565419D01*
X129647837Y-165499365D02*
X129715894Y-165567422D01*
X90639548Y-168843587D02*
X91036684Y-169240723D01*
X89455655Y-168843587D02*
X90639548Y-168843587D01*
X91036684Y-169240723D02*
X117700379Y-169240723D01*
X121375682Y-165565419D02*
X128691820Y-165565419D01*
X129715894Y-165567422D02*
X130015893Y-165867421D01*
X128757874Y-165499365D02*
X129647837Y-165499365D01*
X128691820Y-165565419D02*
X128757874Y-165499365D01*
X63466894Y-163183167D02*
X59108107Y-163183167D01*
X66603962Y-165768705D02*
X66052431Y-165768705D01*
X45387010Y-168793587D02*
X44842010Y-168248587D01*
X59108107Y-163183167D02*
X55158105Y-167133169D01*
X44842010Y-168248587D02*
X44542011Y-167948588D01*
X53108104Y-167133169D02*
X51447686Y-168793587D01*
X66802163Y-165966906D02*
X66603962Y-165768705D01*
X86578974Y-165966906D02*
X75742201Y-165966906D01*
X89455655Y-168843587D02*
X86578974Y-165966906D01*
X74590452Y-164815157D02*
X73134781Y-164815157D01*
X71983032Y-165966906D02*
X66802163Y-165966906D01*
X75742201Y-165966906D02*
X74590452Y-164815157D01*
X55158105Y-167133169D02*
X53108104Y-167133169D01*
X51447686Y-168793587D02*
X45387010Y-168793587D01*
X66052431Y-165768705D02*
X63466894Y-163183167D01*
X73134781Y-164815157D02*
X71983032Y-165966906D01*
X130458444Y-165143754D02*
X128610576Y-165143754D01*
X92233401Y-168674021D02*
X92657665Y-168674021D01*
X91140392Y-168674021D02*
X92233401Y-168674021D01*
X72987483Y-164459546D02*
X74737750Y-164459546D01*
X66949461Y-165611295D02*
X71835734Y-165611295D01*
X63614192Y-162827556D02*
X66199729Y-165413094D01*
X75889499Y-165611295D02*
X88077666Y-165611295D01*
X66751260Y-165413094D02*
X66949461Y-165611295D01*
X55010807Y-166777558D02*
X58960809Y-162827556D01*
X88077666Y-165611295D02*
X91140392Y-168674021D01*
X66199729Y-165413094D02*
X66751260Y-165413094D01*
X74737750Y-164459546D02*
X75889499Y-165611295D01*
X52960806Y-166777558D02*
X55010807Y-166777558D01*
X131182111Y-165867421D02*
X130458444Y-165143754D01*
X121228384Y-165209808D02*
X117764171Y-168674021D01*
X128544522Y-165209808D02*
X121228384Y-165209808D01*
X128610576Y-165143754D02*
X128544522Y-165209808D01*
X93081929Y-168674021D02*
X92657665Y-168674021D01*
X117764171Y-168674021D02*
X93081929Y-168674021D01*
X58960809Y-162827556D02*
X63614192Y-162827556D01*
X71835734Y-165611295D02*
X72987483Y-164459546D01*
X46045883Y-168196786D02*
X51541578Y-168196786D01*
X51541578Y-168196786D02*
X52960806Y-166777558D01*
X117930434Y-168004849D02*
X121081086Y-164854197D01*
X131693395Y-165111076D02*
X131993394Y-165411075D01*
X121081086Y-164854197D02*
X128397224Y-164854197D01*
X128463278Y-164788143D02*
X131370462Y-164788143D01*
X131370462Y-164788143D02*
X131693395Y-165111076D01*
X128397224Y-164854197D02*
X128463278Y-164788143D01*
X91686800Y-168004849D02*
X117930434Y-168004849D01*
X91351068Y-167669117D02*
X91686800Y-168004849D01*
X66347027Y-165057483D02*
X63761490Y-162471945D01*
X46606886Y-166418492D02*
X46606886Y-165994228D01*
X46606886Y-166659928D02*
X46606886Y-166418492D01*
X47566075Y-167619117D02*
X46606886Y-166659928D01*
X88937635Y-165255684D02*
X76036797Y-165255684D01*
X51616338Y-167619117D02*
X47566075Y-167619117D01*
X58813511Y-162471945D02*
X54863509Y-166421947D01*
X63761490Y-162471945D02*
X58813511Y-162471945D01*
X76036797Y-165255684D02*
X74885048Y-164103935D01*
X71688436Y-165255684D02*
X67096759Y-165255684D01*
X66898558Y-165057483D02*
X66347027Y-165057483D01*
X67096759Y-165255684D02*
X66898558Y-165057483D01*
X91351068Y-167669117D02*
X88937635Y-165255684D01*
X52813508Y-166421947D02*
X51616338Y-167619117D01*
X72840185Y-164103935D02*
X71688436Y-165255684D01*
X54863509Y-166421947D02*
X52813508Y-166421947D01*
X74885048Y-164103935D02*
X72840185Y-164103935D01*
X75032346Y-163748324D02*
X76184094Y-164900073D01*
X117999377Y-167432997D02*
X94949160Y-167432997D01*
X76184094Y-164900073D02*
X90417769Y-164900073D01*
X94100632Y-167432997D02*
X94524896Y-167432997D01*
X132409243Y-164432532D02*
X128315980Y-164432532D01*
X67045856Y-164701872D02*
X67244057Y-164900073D01*
X51708371Y-167024175D02*
X52666210Y-166066336D01*
X63908788Y-162116334D02*
X66494325Y-164701872D01*
X52666210Y-166066336D02*
X54716211Y-166066336D01*
X47782076Y-167024175D02*
X51708371Y-167024175D01*
X120933788Y-164498586D02*
X117999377Y-167432997D01*
X128249926Y-164498586D02*
X120933788Y-164498586D01*
X72692888Y-163748324D02*
X75032346Y-163748324D01*
X71541139Y-164900073D02*
X72692888Y-163748324D01*
X54716211Y-166066336D02*
X58666213Y-162116334D01*
X132792000Y-164815289D02*
X132409243Y-164432532D01*
X94949160Y-167432997D02*
X94524896Y-167432997D01*
X66494325Y-164701872D02*
X67045856Y-164701872D01*
X128315980Y-164432532D02*
X128249926Y-164498586D01*
X92950693Y-167432997D02*
X94100632Y-167432997D01*
X67244057Y-164900073D02*
X71541139Y-164900073D01*
X90417769Y-164900073D02*
X92950693Y-167432997D01*
X58666213Y-162116334D02*
X63908788Y-162116334D01*
X128102628Y-164142975D02*
X128168682Y-164076921D01*
X93258741Y-166529969D02*
X93683005Y-166529969D01*
X133776314Y-164700961D02*
X133776314Y-165125225D01*
X93951017Y-166797981D02*
X94455348Y-166797981D01*
X128168682Y-164076921D02*
X133152274Y-164076921D01*
X118099498Y-166829968D02*
X120786491Y-164142975D01*
X93683005Y-166529969D02*
X93951017Y-166797981D01*
X94455348Y-166797981D02*
X94487335Y-166829968D01*
X94487335Y-166829968D02*
X118099498Y-166829968D01*
X120786491Y-164142975D02*
X128102628Y-164142975D01*
X133152274Y-164076921D02*
X133776314Y-164700961D01*
X48326260Y-164262416D02*
X48326260Y-163838152D01*
X49003544Y-166485725D02*
X48326260Y-165808441D01*
X51743912Y-166485725D02*
X49003544Y-166485725D01*
X54568913Y-165710725D02*
X52518912Y-165710725D01*
X58518915Y-161760723D02*
X54568913Y-165710725D01*
X71393840Y-164544462D02*
X67391355Y-164544462D01*
X72545589Y-163392713D02*
X71393840Y-164544462D01*
X75179644Y-163392713D02*
X72545589Y-163392713D01*
X76331392Y-164544462D02*
X75179644Y-163392713D01*
X91273234Y-164544462D02*
X76331392Y-164544462D01*
X93258741Y-166529969D02*
X91273234Y-164544462D01*
X52518912Y-165710725D02*
X51743912Y-166485725D01*
X67193154Y-164346261D02*
X66641623Y-164346261D01*
X64056086Y-161760723D02*
X58518915Y-161760723D01*
X48326260Y-165808441D02*
X48326260Y-164262416D01*
X66641623Y-164346261D02*
X64056086Y-161760723D01*
X67391355Y-164544462D02*
X67193154Y-164346261D01*
X47548800Y-178638200D02*
X47548800Y-175993132D01*
X54253948Y-169287984D02*
X54678212Y-169287984D01*
X47548800Y-175993132D02*
X54253948Y-169287984D01*
X48548800Y-175662480D02*
X49277982Y-174933298D01*
X49277982Y-174933298D02*
X50034442Y-174933298D01*
X55421489Y-169546251D02*
X55721488Y-169246252D01*
X50034442Y-174933298D02*
X55421489Y-169546251D01*
X48548800Y-178638200D02*
X48548800Y-175662480D01*
X57079998Y-169179218D02*
X57379997Y-168879219D01*
X50548800Y-178638200D02*
X50548800Y-175710416D01*
X50548800Y-175710416D02*
X57079998Y-169179218D01*
X51548800Y-178638200D02*
X51548800Y-175549134D01*
X57946698Y-167962960D02*
X57679996Y-167696258D01*
X57679996Y-167696258D02*
X57379997Y-167396259D01*
X51548800Y-175549134D02*
X57946698Y-169151236D01*
X57946698Y-169151236D02*
X57946698Y-167962960D01*
X58764820Y-168836023D02*
X58764820Y-168234879D01*
X53548800Y-174052043D02*
X58764820Y-168836023D01*
X53548800Y-178638200D02*
X53548800Y-174052043D01*
X58764820Y-168234879D02*
X58764820Y-167810615D01*
X58880236Y-166574999D02*
X58580237Y-166275000D01*
X54548800Y-173554952D02*
X59636837Y-168466915D01*
X54548800Y-178638200D02*
X54548800Y-173554952D01*
X59636837Y-167331600D02*
X58880236Y-166574999D01*
X59636837Y-168466915D02*
X59636837Y-167331600D01*
X59380766Y-169549958D02*
X59680765Y-169249959D01*
X56548800Y-178638200D02*
X56548800Y-172381924D01*
X56548800Y-172381924D02*
X59380766Y-169549958D01*
X57548800Y-172220645D02*
X60317835Y-169451610D01*
X60317835Y-168161316D02*
X60317835Y-167737052D01*
X60317835Y-169451610D02*
X60317835Y-168161316D01*
X57548800Y-178638200D02*
X57548800Y-172220645D01*
X94168945Y-166248900D02*
X95444126Y-166248900D01*
X72398292Y-163037102D02*
X75326942Y-163037102D01*
X96292654Y-166248900D02*
X95868390Y-166248900D01*
X118177656Y-166248900D02*
X96292654Y-166248900D01*
X128021384Y-163721310D02*
X127955330Y-163787364D01*
X52371614Y-165355114D02*
X54421615Y-165355114D01*
X134414565Y-164438805D02*
X133697070Y-163721310D01*
X71246543Y-164188851D02*
X72398292Y-163037102D01*
X75326942Y-163037102D02*
X76478690Y-164188851D01*
X67538653Y-164188851D02*
X71246543Y-164188851D01*
X76478690Y-164188851D02*
X92108896Y-164188851D01*
X67340452Y-163990650D02*
X67538653Y-164188851D01*
X66788921Y-163990650D02*
X67340452Y-163990650D01*
X64203384Y-161405112D02*
X66788921Y-163990650D01*
X120639192Y-163787364D02*
X118177656Y-166248900D01*
X58371616Y-161405112D02*
X64203384Y-161405112D01*
X92108896Y-164188851D02*
X94168945Y-166248900D01*
X51819363Y-165907365D02*
X52371614Y-165355114D01*
X127955330Y-163787364D02*
X120639192Y-163787364D01*
X54421615Y-165355114D02*
X58371616Y-161405112D01*
X95444126Y-166248900D02*
X95868390Y-166248900D01*
X49242196Y-165907365D02*
X51819363Y-165907365D01*
X133697070Y-163721310D02*
X128021384Y-163721310D01*
X134933455Y-163608935D02*
X135233454Y-163908934D01*
X127874086Y-163365699D02*
X134690219Y-163365699D01*
X127808032Y-163431753D02*
X127874086Y-163365699D01*
X94517306Y-165383872D02*
X94941570Y-165383872D01*
X120491895Y-163431753D02*
X127808032Y-163431753D01*
X96936871Y-165883415D02*
X118040233Y-165883415D01*
X95231046Y-165673348D02*
X96726805Y-165673348D01*
X94941570Y-165383872D02*
X95231046Y-165673348D01*
X96726805Y-165673348D02*
X96936871Y-165883415D01*
X118040233Y-165883415D02*
X120491895Y-163431753D01*
X134690219Y-163365699D02*
X134933455Y-163608935D01*
X67685951Y-163833240D02*
X67487750Y-163635039D01*
X76625988Y-163833240D02*
X75474240Y-162681491D01*
X67487750Y-163635039D02*
X66936219Y-163635039D01*
X49829579Y-164648820D02*
X49829579Y-164224556D01*
X71099244Y-163833240D02*
X67685951Y-163833240D01*
X72250993Y-162681491D02*
X71099244Y-163833240D01*
X75474240Y-162681491D02*
X72250993Y-162681491D01*
X94517306Y-165383872D02*
X92966674Y-163833240D01*
X50666097Y-165485338D02*
X49829579Y-164648820D01*
X64350682Y-161049501D02*
X58224318Y-161049501D01*
X51870063Y-164997795D02*
X51382520Y-165485338D01*
X66936219Y-163635039D02*
X64350682Y-161049501D01*
X58224318Y-161049501D02*
X54276024Y-164997795D01*
X54276024Y-164997795D02*
X51870063Y-164997795D01*
X51382520Y-165485338D02*
X50666097Y-165485338D01*
X92966674Y-163833240D02*
X76625988Y-163833240D01*
X96382574Y-164826209D02*
X97084169Y-165527804D01*
X127726788Y-163010088D02*
X135827874Y-163010088D01*
X127660734Y-163076142D02*
X127726788Y-163010088D01*
X97084169Y-165527804D02*
X117892934Y-165527804D01*
X135872768Y-163054982D02*
X136172767Y-163354981D01*
X135827874Y-163010088D02*
X135872768Y-163054982D01*
X120344596Y-163076142D02*
X127660734Y-163076142D01*
X117892934Y-165527804D02*
X120344596Y-163076142D01*
X95795286Y-164826209D02*
X96382574Y-164826209D01*
X75621538Y-162325880D02*
X72103696Y-162325880D01*
X51639521Y-164389617D02*
X51410501Y-164618637D01*
X64497980Y-160693890D02*
X58077020Y-160693890D01*
X67833249Y-163477629D02*
X67635048Y-163279428D01*
X72103696Y-162325880D02*
X70951947Y-163477629D01*
X76773286Y-163477629D02*
X75621538Y-162325880D01*
X94446706Y-163477629D02*
X76773286Y-163477629D01*
X51410501Y-164618637D02*
X51110502Y-164918636D01*
X67083517Y-163279428D02*
X64497980Y-160693890D01*
X58077020Y-160693890D02*
X54381293Y-164389617D01*
X54381293Y-164389617D02*
X51639521Y-164389617D01*
X67635048Y-163279428D02*
X67083517Y-163279428D01*
X95795286Y-164826209D02*
X94446706Y-163477629D01*
X70951947Y-163477629D02*
X67833249Y-163477629D01*
X97780451Y-164961102D02*
X97356187Y-164961102D01*
X97800194Y-164980845D02*
X97780451Y-164961102D01*
X120197299Y-162720531D02*
X117936985Y-164980845D01*
X117936985Y-164980845D02*
X97800194Y-164980845D01*
X127513436Y-162720531D02*
X120197299Y-162720531D01*
X127579490Y-162654477D02*
X127513436Y-162720531D01*
X136580171Y-162654477D02*
X127579490Y-162654477D01*
X137232505Y-163306811D02*
X136580171Y-162654477D01*
X67782346Y-162923817D02*
X67980547Y-163122018D01*
X76920584Y-163122018D02*
X95517103Y-163122018D01*
X57929722Y-160338279D02*
X64645278Y-160338279D01*
X97056188Y-164661103D02*
X97356187Y-164961102D01*
X71956397Y-161970269D02*
X75768836Y-161970269D01*
X54290966Y-163977035D02*
X57929722Y-160338279D01*
X70804648Y-163122018D02*
X71956397Y-161970269D01*
X67980547Y-163122018D02*
X70804648Y-163122018D01*
X64645278Y-160338279D02*
X67230815Y-162923817D01*
X51596577Y-163129516D02*
X52444096Y-163977035D01*
X95517103Y-163122018D02*
X97056188Y-164661103D01*
X52444096Y-163977035D02*
X54290966Y-163977035D01*
X67230815Y-162923817D02*
X67782346Y-162923817D01*
X75768836Y-161970269D02*
X76920584Y-163122018D01*
X137621488Y-162298866D02*
X137811607Y-162488985D01*
X117789686Y-164625234D02*
X120050000Y-162364920D01*
X127366138Y-162364920D02*
X127432192Y-162298866D01*
X120050000Y-162364920D02*
X127366138Y-162364920D01*
X98703954Y-164625234D02*
X117789686Y-164625234D01*
X127432192Y-162298866D02*
X137621488Y-162298866D01*
X137811607Y-162488985D02*
X138111606Y-162788984D01*
X97690365Y-163611645D02*
X98703954Y-164625234D01*
X67378113Y-162568206D02*
X64792576Y-159982668D01*
X75916134Y-161614658D02*
X71809100Y-161614658D01*
X53439629Y-163407482D02*
X53015365Y-163407482D01*
X64792576Y-159982668D02*
X57782424Y-159982668D01*
X70657351Y-162766407D02*
X68127845Y-162766407D01*
X97690365Y-163611645D02*
X96845127Y-162766407D01*
X71809100Y-161614658D02*
X70657351Y-162766407D01*
X54357610Y-163407482D02*
X53439629Y-163407482D01*
X68127845Y-162766407D02*
X67929644Y-162568206D01*
X67929644Y-162568206D02*
X67378113Y-162568206D01*
X57782424Y-159982668D02*
X54357610Y-163407482D01*
X96845127Y-162766407D02*
X77067882Y-162766407D01*
X77067882Y-162766407D02*
X75916134Y-161614658D01*
X99535066Y-163758534D02*
X99835065Y-164058533D01*
X98187328Y-162410796D02*
X99535066Y-163758534D01*
X139183396Y-162487922D02*
X138638729Y-161943255D01*
X71661801Y-161259047D02*
X76063432Y-161259047D01*
X64939874Y-159627057D02*
X67525411Y-162212595D01*
X77215180Y-162410796D02*
X98187328Y-162410796D01*
X76063432Y-161259047D02*
X77215180Y-162410796D01*
X68275143Y-162410796D02*
X70510052Y-162410796D01*
X68076942Y-162212595D02*
X68275143Y-162410796D01*
X70510052Y-162410796D02*
X71661801Y-161259047D01*
X67525411Y-162212595D02*
X68076942Y-162212595D01*
X54996791Y-162265392D02*
X57635126Y-159627057D01*
X100259329Y-164058533D02*
X99835065Y-164058533D01*
X53646764Y-162265392D02*
X54996791Y-162265392D01*
X117853479Y-164058533D02*
X100259329Y-164058533D01*
X57635126Y-159627057D02*
X64939874Y-159627057D01*
X119902703Y-162009309D02*
X117853479Y-164058533D01*
X127284894Y-161943255D02*
X127218840Y-162009309D01*
X127218840Y-162009309D02*
X119902703Y-162009309D01*
X138638729Y-161943255D02*
X127284894Y-161943255D01*
X53062280Y-161680908D02*
X53646764Y-162265392D01*
X127071542Y-161653698D02*
X119755404Y-161653698D01*
X99903093Y-162771794D02*
X99603094Y-162471795D01*
X99303095Y-162171796D02*
X99603094Y-162471795D01*
X139157837Y-161587644D02*
X127137596Y-161587644D01*
X118214610Y-163194492D02*
X100325791Y-163194492D01*
X54525560Y-161698128D02*
X55061134Y-161698128D01*
X99186484Y-162055185D02*
X99303095Y-162171796D01*
X76210730Y-160903436D02*
X77362478Y-162055185D01*
X68422441Y-162055185D02*
X70362755Y-162055185D01*
X127137596Y-161587644D02*
X127071542Y-161653698D01*
X68224240Y-161856984D02*
X68422441Y-162055185D01*
X140143582Y-162573389D02*
X139157837Y-161587644D01*
X65087172Y-159271446D02*
X67672709Y-161856984D01*
X70362755Y-162055185D02*
X71514504Y-160903436D01*
X67672709Y-161856984D02*
X68224240Y-161856984D01*
X100325791Y-163194492D02*
X99903093Y-162771794D01*
X55061134Y-161698128D02*
X57487828Y-159271446D01*
X71514504Y-160903436D02*
X76210730Y-160903436D01*
X57487828Y-159271446D02*
X65087172Y-159271446D01*
X119755404Y-161653698D02*
X118214610Y-163194492D01*
X77362478Y-162055185D02*
X99186484Y-162055185D01*
X68569739Y-161699574D02*
X70215456Y-161699574D01*
X118278404Y-162627790D02*
X101529798Y-162627790D01*
X119608107Y-161298087D02*
X118278404Y-162627790D01*
X140855273Y-162259561D02*
X139827745Y-161232033D01*
X71367205Y-160547825D02*
X76358028Y-160547825D01*
X70215456Y-161699574D02*
X71367205Y-160547825D01*
X67820007Y-161501373D02*
X68371538Y-161501373D01*
X126990298Y-161232033D02*
X126924244Y-161298087D01*
X139827745Y-161232033D02*
X126990298Y-161232033D01*
X77509776Y-161699574D02*
X100177318Y-161699574D01*
X126924244Y-161298087D02*
X119608107Y-161298087D01*
X68371538Y-161501373D02*
X68569739Y-161699574D01*
X100177318Y-161699574D02*
X100805535Y-162327791D01*
X100805535Y-162327791D02*
X101105534Y-162627790D01*
X65234470Y-158915835D02*
X67820007Y-161501373D01*
X57041991Y-158915835D02*
X65234470Y-158915835D01*
X55513463Y-160444363D02*
X57041991Y-158915835D01*
X101529798Y-162627790D02*
X101105534Y-162627790D01*
X76358028Y-160547825D02*
X77509776Y-161699574D01*
X126615784Y-160375766D02*
X114285280Y-160375766D01*
X150285488Y-160098621D02*
X126892929Y-160098621D01*
X104476775Y-160938149D02*
X104176776Y-160638150D01*
X150947845Y-160760978D02*
X150285488Y-160098621D01*
X126892929Y-160098621D02*
X126615784Y-160375766D01*
X114285280Y-160375766D02*
X112988340Y-161672706D01*
X112988340Y-161672706D02*
X105211332Y-161672706D01*
X105211332Y-161672706D02*
X104476775Y-160938149D01*
X70074409Y-160834803D02*
X69993445Y-160834803D01*
X69274573Y-160115931D02*
X69274573Y-159279819D01*
X69274573Y-159279819D02*
X69274573Y-158855555D01*
X100787599Y-160338151D02*
X100603154Y-160522596D01*
X104176776Y-160638150D02*
X103876777Y-160338151D01*
X103876777Y-160338151D02*
X100787599Y-160338151D01*
X100603154Y-160522596D02*
X77338616Y-160522596D01*
X76652624Y-159836603D02*
X71072609Y-159836603D01*
X77338616Y-160522596D02*
X76652624Y-159836603D01*
X69993445Y-160834803D02*
X69274573Y-160115931D01*
X71072609Y-159836603D02*
X70074409Y-160834803D01*
X114137982Y-160020155D02*
X113115668Y-161042469D01*
X151123395Y-159743010D02*
X126733673Y-159743010D01*
X126733673Y-159743010D02*
X126456528Y-160020155D01*
X113115668Y-161042469D02*
X105987276Y-161042469D01*
X105987276Y-161042469D02*
X105563012Y-161042469D01*
X126456528Y-160020155D02*
X114137982Y-160020155D01*
X151595628Y-160215243D02*
X151123395Y-159743010D01*
X70626771Y-159480992D02*
X70357832Y-159749931D01*
X77485914Y-160166985D02*
X76799922Y-159480992D01*
X104395161Y-159874618D02*
X100748223Y-159874618D01*
X105563012Y-161042469D02*
X104395161Y-159874618D01*
X70357832Y-159749931D02*
X70057833Y-160049930D01*
X76799922Y-159480992D02*
X70626771Y-159480992D01*
X100748223Y-159874618D02*
X100455856Y-160166985D01*
X100455856Y-160166985D02*
X77485914Y-160166985D01*
X126586375Y-159387399D02*
X126314074Y-159659700D01*
X126314074Y-159659700D02*
X113995528Y-159659700D01*
X113166598Y-160488630D02*
X106695760Y-160488630D01*
X152405350Y-159614993D02*
X152177756Y-159387399D01*
X113995528Y-159659700D02*
X113166598Y-160488630D01*
X152177756Y-159387399D02*
X126586375Y-159387399D01*
X106695760Y-160488630D02*
X106169138Y-159962008D01*
X152829614Y-159614993D02*
X152405350Y-159614993D01*
X106169138Y-159962008D02*
X105869139Y-159662009D01*
X77619282Y-159797444D02*
X76947220Y-159125381D01*
X71964977Y-159125381D02*
X71753878Y-158914282D01*
X105300828Y-159517962D02*
X100018674Y-159517962D01*
X105869139Y-159662009D02*
X105444875Y-159662009D01*
X100018674Y-159517962D02*
X99739192Y-159797444D01*
X71753878Y-158914282D02*
X71329614Y-158914282D01*
X105444875Y-159662009D02*
X105300828Y-159517962D01*
X99739192Y-159797444D02*
X77619282Y-159797444D01*
X76947220Y-159125381D02*
X71964977Y-159125381D01*
X153489158Y-159065373D02*
X153064894Y-159065373D01*
X153064894Y-159065373D02*
X153031309Y-159031788D01*
X113848230Y-159304089D02*
X113230391Y-159921928D01*
X153031309Y-159031788D02*
X126439077Y-159031788D01*
X126166776Y-159304089D02*
X113848230Y-159304089D01*
X126439077Y-159031788D02*
X126166776Y-159304089D01*
X113230391Y-159921928D02*
X107864470Y-159921928D01*
X107864470Y-159921928D02*
X107440206Y-159921928D01*
X72476197Y-158769770D02*
X71666521Y-157960094D01*
X77094518Y-158769770D02*
X72476197Y-158769770D01*
X99938420Y-159095307D02*
X99591894Y-159441833D01*
X106613585Y-159095307D02*
X99938420Y-159095307D01*
X107440206Y-159921928D02*
X106613585Y-159095307D01*
X77766580Y-159441833D02*
X77094518Y-158769770D01*
X71666521Y-157960094D02*
X71366522Y-157660095D01*
X99591894Y-159441833D02*
X77766580Y-159441833D01*
X108869253Y-159495649D02*
X108333516Y-158959912D01*
X120046113Y-158948478D02*
X113700932Y-158948478D01*
X142659141Y-158676177D02*
X120318414Y-158676177D01*
X154756517Y-158548081D02*
X154456518Y-158248082D01*
X154456518Y-158248082D02*
X143087237Y-158248082D01*
X120318414Y-158676177D02*
X120046113Y-158948478D01*
X113153761Y-159495649D02*
X108869253Y-159495649D01*
X113700932Y-158948478D02*
X113153761Y-159495649D01*
X143087237Y-158248082D02*
X142659141Y-158676177D01*
X108333516Y-158959912D02*
X108033517Y-158659913D01*
X99870905Y-158659913D02*
X99444596Y-159086222D01*
X73891880Y-158414159D02*
X73680781Y-158203060D01*
X99444596Y-159086222D02*
X77913878Y-159086222D01*
X77241816Y-158414159D02*
X73891880Y-158414159D01*
X77913878Y-159086222D02*
X77241816Y-158414159D01*
X108033517Y-158659913D02*
X99870905Y-158659913D01*
X73680781Y-158203060D02*
X73256517Y-158203060D01*
X155399394Y-158002030D02*
X154975130Y-158002030D01*
X109666829Y-158591433D02*
X109366830Y-158291434D01*
X113553634Y-158592867D02*
X113006463Y-159140038D01*
X119898815Y-158592867D02*
X113553634Y-158592867D01*
X154975130Y-158002030D02*
X154823100Y-157850000D01*
X110215434Y-159140038D02*
X109666829Y-158591433D01*
X142511843Y-158320566D02*
X120171116Y-158320566D01*
X120171116Y-158320566D02*
X119898815Y-158592867D01*
X154823100Y-157850000D02*
X142982410Y-157850000D01*
X142982410Y-157850000D02*
X142511843Y-158320566D01*
X113006463Y-159140038D02*
X110215434Y-159140038D01*
X77389114Y-158058548D02*
X74889508Y-158058548D01*
X109366830Y-158291434D02*
X109066831Y-157991435D01*
X100036474Y-157991435D02*
X99297298Y-158730611D01*
X99297298Y-158730611D02*
X78061176Y-158730611D01*
X109066831Y-157991435D02*
X100036474Y-157991435D01*
X73676884Y-156845924D02*
X73676884Y-156421660D01*
X74889508Y-158058548D02*
X73676884Y-156845924D01*
X78061176Y-158730611D02*
X77389114Y-158058548D01*
X119751617Y-158237156D02*
X113406436Y-158237156D01*
X142894172Y-157435329D02*
X142364545Y-157964955D01*
X120023818Y-157964955D02*
X119751617Y-158237156D01*
X156657344Y-157489498D02*
X156233080Y-157489498D01*
X156233080Y-157489498D02*
X156178911Y-157435329D01*
X156178911Y-157435329D02*
X142894172Y-157435329D01*
X111400530Y-158573336D02*
X110976266Y-158573336D01*
X142364545Y-157964955D02*
X120023818Y-157964955D01*
X113070256Y-158573336D02*
X111400530Y-158573336D01*
X113406436Y-158237156D02*
X113070256Y-158573336D01*
X78208474Y-158375000D02*
X99150000Y-158375000D01*
X77536412Y-157702937D02*
X78208474Y-158375000D01*
X75620783Y-157702937D02*
X77536412Y-157702937D01*
X75157344Y-157239498D02*
X75620783Y-157702937D01*
X99894588Y-157630412D02*
X110033342Y-157630412D01*
X110033342Y-157630412D02*
X110676267Y-158273337D01*
X110676267Y-158273337D02*
X110976266Y-158573336D01*
X99150000Y-158375000D02*
X99894588Y-157630412D01*
X142217247Y-157609344D02*
X119876520Y-157609344D01*
X119876520Y-157609344D02*
X119604319Y-157881545D01*
X157291478Y-156932074D02*
X156867214Y-156932074D01*
X111882063Y-157216487D02*
X111582064Y-156916488D01*
X156867214Y-156932074D02*
X156842214Y-156907074D01*
X113286496Y-157881545D02*
X113259137Y-157908904D01*
X119604319Y-157881545D02*
X113286496Y-157881545D01*
X113259137Y-157908904D02*
X112574480Y-157908904D01*
X156842214Y-156907074D02*
X142919518Y-156907074D01*
X112574480Y-157908904D02*
X111882063Y-157216487D01*
X142919518Y-156907074D02*
X142217247Y-157609344D01*
X77472610Y-157136227D02*
X78355772Y-158019389D01*
X100005605Y-156916488D02*
X111157800Y-156916488D01*
X78355772Y-158019389D02*
X98902704Y-158019389D01*
X76750696Y-157136227D02*
X77472610Y-157136227D01*
X98902704Y-158019389D02*
X100005605Y-156916488D01*
X111157800Y-156916488D02*
X111582064Y-156916488D01*
X113411383Y-157342202D02*
X112987119Y-157342202D01*
X119729222Y-157253733D02*
X119459208Y-157523747D01*
X113592928Y-157523747D02*
X113411383Y-157342202D01*
X142984830Y-156338853D02*
X142069949Y-157253733D01*
X142069949Y-157253733D02*
X119729222Y-157253733D01*
X119459208Y-157523747D02*
X113592928Y-157523747D01*
X157933282Y-156338853D02*
X142984830Y-156338853D01*
X78503070Y-157663778D02*
X98755405Y-157663778D01*
X100091261Y-156327923D02*
X111972840Y-156327923D01*
X98755405Y-157663778D02*
X100091261Y-156327923D01*
X111972840Y-156327923D02*
X112687120Y-157042203D01*
X112687120Y-157042203D02*
X112987119Y-157342202D01*
X76433282Y-156088853D02*
X76928145Y-156088853D01*
X76928145Y-156088853D02*
X78503070Y-157663778D01*
X112397965Y-155467197D02*
X112097966Y-155167198D01*
X153658818Y-155760718D02*
X153566613Y-155852923D01*
X114098904Y-157168136D02*
X112397965Y-155467197D01*
X141922651Y-156898122D02*
X119581924Y-156898122D01*
X153566613Y-155852923D02*
X142967851Y-155852923D01*
X142967851Y-155852923D02*
X141922651Y-156898122D01*
X119581924Y-156898122D02*
X119311910Y-157168136D01*
X119311910Y-157168136D02*
X114098904Y-157168136D01*
X158574574Y-155760718D02*
X153658818Y-155760718D01*
X111797967Y-155467197D02*
X112097966Y-155167198D01*
X111292852Y-155972312D02*
X111797967Y-155467197D01*
X99943963Y-155972312D02*
X111292852Y-155972312D01*
X98608107Y-157308167D02*
X99943963Y-155972312D01*
X79047208Y-157308167D02*
X98608107Y-157308167D01*
X77887027Y-156147986D02*
X79047208Y-157308167D01*
X158930328Y-155014174D02*
X153902453Y-155014174D01*
X141775353Y-156542511D02*
X119434626Y-156542511D01*
X119164612Y-156812525D02*
X114646049Y-156812525D01*
X153902453Y-155014174D02*
X153419315Y-155497312D01*
X153419315Y-155497312D02*
X142820552Y-155497312D01*
X159230327Y-155314173D02*
X158930328Y-155014174D01*
X142820552Y-155497312D02*
X141775353Y-156542511D01*
X119434626Y-156542511D02*
X119164612Y-156812525D01*
X114646049Y-156812525D02*
X113989153Y-156155629D01*
X113989153Y-156155629D02*
X113689154Y-155855630D01*
X108613222Y-154600496D02*
X107597017Y-155616701D01*
X79641572Y-156952556D02*
X77810460Y-155121444D01*
X98460809Y-156952556D02*
X79641572Y-156952556D01*
X107597017Y-155616701D02*
X99796665Y-155616701D01*
X99796665Y-155616701D02*
X98460809Y-156952556D01*
X113689154Y-155855630D02*
X112434020Y-154600496D01*
X112434020Y-154600496D02*
X108613222Y-154600496D01*
X77810460Y-155121444D02*
X77510461Y-154821445D01*
X153272017Y-155141701D02*
X142673254Y-155141701D01*
X119287328Y-156186900D02*
X119207882Y-156266346D01*
X141628055Y-156186900D02*
X119287328Y-156186900D01*
X159261086Y-154528620D02*
X153885098Y-154528620D01*
X153885098Y-154528620D02*
X153272017Y-155141701D01*
X115830079Y-156214062D02*
X115405815Y-156214062D01*
X119207882Y-156266346D02*
X115882363Y-156266346D01*
X142673254Y-155141701D02*
X141628055Y-156186900D01*
X115882363Y-156266346D02*
X115830079Y-156214062D01*
X115405815Y-156214062D02*
X114533454Y-155341701D01*
X113927983Y-155341701D02*
X113022677Y-154436395D01*
X80924834Y-156596945D02*
X79471838Y-155143949D01*
X100665571Y-154244885D02*
X98313511Y-156596945D01*
X113022677Y-154436395D02*
X112777189Y-154436395D01*
X112777189Y-154436395D02*
X112585679Y-154244885D01*
X114533454Y-155341701D02*
X113927983Y-155341701D01*
X98313511Y-156596945D02*
X80924834Y-156596945D01*
X112585679Y-154244885D02*
X100665571Y-154244885D01*
X79471838Y-155143949D02*
X79171839Y-154843950D01*
X143653747Y-153658299D02*
X141680269Y-155631777D01*
X119060584Y-155910735D02*
X118004109Y-155910735D01*
X118004109Y-155910735D02*
X117725151Y-155631777D01*
X162377658Y-154022312D02*
X159655685Y-154022312D01*
X159291672Y-153658299D02*
X143653747Y-153658299D01*
X141680269Y-155631777D02*
X119339542Y-155631777D01*
X159655685Y-154022312D02*
X159291672Y-153658299D01*
X162872501Y-154517155D02*
X162377658Y-154022312D01*
X117725151Y-155631777D02*
X117300887Y-155631777D01*
X119339542Y-155631777D02*
X119060584Y-155910735D01*
X82527913Y-156241334D02*
X98166213Y-156241334D01*
X113541672Y-154133299D02*
X115802409Y-154133299D01*
X113047600Y-154080784D02*
X113489157Y-154080784D01*
X98166213Y-156241334D02*
X100518273Y-153889274D01*
X80239164Y-153952585D02*
X82527913Y-156241334D01*
X100518273Y-153889274D02*
X112856090Y-153889274D01*
X112856090Y-153889274D02*
X113047600Y-154080784D01*
X117000888Y-155331778D02*
X117300887Y-155631777D01*
X113489157Y-154080784D02*
X113541672Y-154133299D01*
X115802409Y-154133299D02*
X117000888Y-155331778D01*
X120063611Y-154001380D02*
X119115610Y-154949381D01*
X138912338Y-154001380D02*
X120063611Y-154001380D01*
X113194898Y-153725173D02*
X113928170Y-153725173D01*
X139611030Y-153302688D02*
X138912338Y-154001380D01*
X159438970Y-153302688D02*
X139611030Y-153302688D01*
X159802983Y-153666701D02*
X159438970Y-153302688D01*
X162878181Y-153666701D02*
X159802983Y-153666701D01*
X116757390Y-153777688D02*
X118229082Y-155249380D01*
X118229082Y-155249380D02*
X118391347Y-155249380D01*
X163590177Y-153954433D02*
X163165913Y-153954433D01*
X118391347Y-155249380D02*
X118815611Y-155249380D01*
X113980685Y-153777688D02*
X116757390Y-153777688D01*
X113928170Y-153725173D02*
X113980685Y-153777688D01*
X98462878Y-155441760D02*
X100370975Y-153533663D01*
X113003388Y-153533663D02*
X113194898Y-153725173D01*
X82663370Y-155441760D02*
X98462878Y-155441760D01*
X119115610Y-154949381D02*
X118815611Y-155249380D01*
X163165913Y-153954433D02*
X162878181Y-153666701D01*
X100370975Y-153533663D02*
X113003388Y-153533663D01*
X118279808Y-153870129D02*
X117855544Y-153870129D01*
X117555545Y-153570130D02*
X117855544Y-153870129D01*
X119980661Y-152169277D02*
X118279808Y-153870129D01*
X116199081Y-152213666D02*
X117555545Y-153570130D01*
X99434677Y-152558299D02*
X106708350Y-152558299D01*
X82927239Y-153860840D02*
X83248338Y-153539741D01*
X106708350Y-152558299D02*
X107052983Y-152213666D01*
X83248338Y-153539741D02*
X98453235Y-153539741D01*
X107052983Y-152213666D02*
X116199081Y-152213666D01*
X98453235Y-153539741D02*
X99434677Y-152558299D01*
X162961415Y-152169277D02*
X119980661Y-152169277D01*
X163847321Y-153055183D02*
X162961415Y-152169277D01*
X106905685Y-151858055D02*
X117942437Y-151858055D01*
X117942437Y-151858055D02*
X118205291Y-152120909D01*
X106567832Y-152195908D02*
X106905685Y-151858055D01*
X118205291Y-152120909D02*
X118505290Y-152420908D01*
X84020660Y-152195908D02*
X106567832Y-152195908D01*
X118505290Y-152420908D02*
X119112532Y-151813666D01*
X163698555Y-151813666D02*
X164013461Y-152128572D01*
X119112532Y-151813666D02*
X163698555Y-151813666D01*
X164013461Y-152128572D02*
X164313460Y-152428571D01*
X83212651Y-152188365D02*
X82861622Y-152188365D01*
X82861622Y-152188365D02*
X82817645Y-152144388D01*
X84013117Y-152188365D02*
X83212651Y-152188365D01*
X84020660Y-152195908D02*
X84013117Y-152188365D01*
X83475000Y-152195908D02*
X83467457Y-152188365D01*
X83467457Y-152188365D02*
X83212651Y-152188365D01*
X83475000Y-152195908D02*
X84020660Y-152195908D01*
X77438111Y-161125000D02*
X86300736Y-161125000D01*
X71219908Y-160192214D02*
X76505326Y-160192214D01*
X69298764Y-161190414D02*
X70221708Y-161190414D01*
X86300736Y-161125000D02*
X86725000Y-161125000D01*
X76505326Y-160192214D02*
X77438111Y-161125000D01*
X69233452Y-161125102D02*
X69298764Y-161190414D01*
X70221708Y-161190414D02*
X71219908Y-160192214D01*
X68809188Y-161125102D02*
X69233452Y-161125102D01*
X102682819Y-161039628D02*
X103089419Y-161446228D01*
X100904880Y-161039628D02*
X102682819Y-161039628D01*
X103813682Y-161746227D02*
X103389418Y-161746227D01*
X104095772Y-162028317D02*
X103813682Y-161746227D01*
X103089419Y-161446228D02*
X103389418Y-161746227D01*
X118700000Y-160942476D02*
X117614159Y-162028317D01*
X117614159Y-162028317D02*
X104095772Y-162028317D01*
X100904880Y-161039628D02*
X86810372Y-161039628D01*
X86810372Y-161039628D02*
X86725000Y-161125000D01*
X126634722Y-160942476D02*
X118700000Y-160942476D01*
X119125000Y-160942476D02*
X118700000Y-160942476D01*
X149599409Y-160665323D02*
X141975000Y-160665323D01*
X141975000Y-160665323D02*
X127152989Y-160665323D01*
X141435308Y-160705483D02*
X141859572Y-160705483D01*
X141859572Y-160705483D02*
X141899732Y-160665323D01*
X141899732Y-160665323D02*
X141975000Y-160665323D01*
X126911875Y-160665323D02*
X126634722Y-160942476D01*
X127152989Y-160665323D02*
X126911875Y-160665323D01*
X150309188Y-161375102D02*
X149599409Y-160665323D01*
X56250000Y-158500000D02*
X41650000Y-158500000D01*
X41650000Y-158500000D02*
X41625000Y-158525000D01*
X65759822Y-158500000D02*
X56250000Y-158500000D01*
X68809188Y-161125102D02*
X68384924Y-161125102D01*
X68384924Y-161125102D02*
X65759822Y-158500000D01*
X60548800Y-170061083D02*
X61179476Y-169430407D01*
X60548800Y-178638200D02*
X60548800Y-170061083D01*
X61179476Y-169430407D02*
X61179476Y-169006143D01*
X61375000Y-176086600D02*
X61375000Y-171250000D01*
X61375000Y-171250000D02*
X62400000Y-170225000D01*
X61548800Y-178638200D02*
X61548800Y-176260400D01*
X61548800Y-176260400D02*
X61375000Y-176086600D01*
X62966710Y-171480428D02*
X62966710Y-169771251D01*
X62966710Y-169771251D02*
X62915469Y-169720010D01*
X63548800Y-172062518D02*
X62966710Y-171480428D01*
X63548800Y-178638200D02*
X63548800Y-172062518D01*
X62915469Y-169720010D02*
X62615470Y-169420011D01*
X64548800Y-178638200D02*
X64548800Y-172055718D01*
X64548800Y-172055718D02*
X64534057Y-172040975D01*
X66548800Y-178638200D02*
X66548800Y-174748800D01*
X64385885Y-170836068D02*
X64085886Y-170536069D01*
X66548800Y-174748800D02*
X65167158Y-173367158D01*
X65167158Y-173367158D02*
X65167158Y-171617341D01*
X65167158Y-171617341D02*
X64385885Y-170836068D01*
X66144224Y-173002066D02*
X66144224Y-172785707D01*
X67548800Y-174406642D02*
X66144224Y-173002066D01*
X67548800Y-178638200D02*
X67548800Y-174406642D01*
X66144224Y-172785707D02*
X66144224Y-172361443D01*
X66710926Y-172810926D02*
X66710926Y-172089425D01*
X64460104Y-169331284D02*
X64460104Y-168907020D01*
X64460104Y-169838603D02*
X64460104Y-169331284D01*
X69548800Y-175648800D02*
X66710926Y-172810926D01*
X69548800Y-178638200D02*
X69548800Y-175648800D01*
X66710926Y-172089425D02*
X64460104Y-169838603D01*
X67066537Y-172490659D02*
X67066537Y-171930893D01*
X70548800Y-175972922D02*
X67066537Y-172490659D01*
X66357671Y-171212944D02*
X66357671Y-170788680D01*
X67066537Y-171930893D02*
X66357671Y-171222027D01*
X70548800Y-178638200D02*
X70548800Y-175972922D01*
X66357671Y-171222027D02*
X66357671Y-171212944D01*
X67422148Y-172343361D02*
X67422148Y-171783595D01*
X67027510Y-170492392D02*
X66242013Y-169706895D01*
X67027510Y-171388957D02*
X67027510Y-170492392D01*
X67422148Y-171783595D02*
X67027510Y-171388957D01*
X71548800Y-176470013D02*
X67422148Y-172343361D01*
X71548800Y-178638200D02*
X71548800Y-176470013D01*
X66242013Y-169706895D02*
X65942014Y-169406896D01*
X72548800Y-176260400D02*
X72548800Y-178638200D01*
X67761432Y-171062832D02*
X67777759Y-171079159D01*
X67777759Y-172196063D02*
X70632476Y-175050780D01*
X67761432Y-170638568D02*
X67761432Y-171062832D01*
X70632476Y-175050780D02*
X71339180Y-175050780D01*
X67777759Y-171079159D02*
X67777759Y-172196063D01*
X71339180Y-175050780D02*
X72548800Y-176260400D01*
X74548800Y-175248800D02*
X73995171Y-174695171D01*
X70779776Y-174695171D02*
X68399300Y-172314695D01*
X68399300Y-170362180D02*
X65890051Y-167852931D01*
X65890051Y-167852931D02*
X65890051Y-167826503D01*
X65890051Y-167826503D02*
X65890051Y-167402239D01*
X68399300Y-172314695D02*
X68399300Y-170362180D01*
X73995171Y-174695171D02*
X70779776Y-174695171D01*
X74548800Y-178638200D02*
X74548800Y-175248800D01*
X75548800Y-175223800D02*
X75548800Y-176260400D01*
X75548800Y-176260400D02*
X75548800Y-178638200D01*
X70927075Y-174339561D02*
X74664561Y-174339561D01*
X69963315Y-173375801D02*
X70927075Y-174339561D01*
X69963315Y-171961685D02*
X69963315Y-173375801D01*
X74664561Y-174339561D02*
X75548800Y-175223800D01*
X67849816Y-169046750D02*
X67849816Y-168797609D01*
X77548800Y-174398800D02*
X77133951Y-173983951D01*
X71074374Y-173983951D02*
X70518713Y-173428290D01*
X67849816Y-168797609D02*
X67549817Y-168497610D01*
X77133951Y-173983951D02*
X71074374Y-173983951D01*
X70553066Y-172555305D02*
X70553066Y-171750000D01*
X70518713Y-172589658D02*
X70553066Y-172555305D01*
X77548800Y-178638200D02*
X77548800Y-174398800D01*
X70518713Y-173428290D02*
X70518713Y-172589658D01*
X70553066Y-171750000D02*
X67849816Y-169046750D01*
X71100000Y-172511280D02*
X70874324Y-172736956D01*
X78548800Y-176260400D02*
X78548800Y-178638200D01*
X70874324Y-173280992D02*
X71221673Y-173628341D01*
X70874324Y-172736956D02*
X70874324Y-173280992D01*
X70233392Y-170591608D02*
X71100000Y-171458216D01*
X71100000Y-171458216D02*
X71100000Y-172511280D01*
X71221673Y-173628341D02*
X77728341Y-173628341D01*
X77728341Y-173628341D02*
X78548800Y-174448800D01*
X78548800Y-174448800D02*
X78548800Y-176260400D01*
X80548800Y-178638200D02*
X80548800Y-173898800D01*
X79922730Y-173272730D02*
X71704782Y-173272730D01*
X71704782Y-173272730D02*
X71441026Y-173008974D01*
X80548800Y-173898800D02*
X79922730Y-173272730D01*
X81548800Y-174098800D02*
X80336406Y-172886406D01*
X69412775Y-168135552D02*
X69112776Y-167835553D01*
X71160872Y-169883649D02*
X69412775Y-168135552D01*
X71825224Y-171446583D02*
X71160872Y-170782231D01*
X71825224Y-172591722D02*
X71825224Y-171446583D01*
X72119908Y-172886406D02*
X71825224Y-172591722D01*
X80336406Y-172886406D02*
X72119908Y-172886406D01*
X71160872Y-170782231D02*
X71160872Y-169883649D01*
X81548800Y-178638200D02*
X81548800Y-174098800D01*
X82548800Y-178638200D02*
X82548800Y-173373800D01*
X81558835Y-172383835D02*
X72456055Y-172383835D01*
X82548800Y-173373800D02*
X81558835Y-172383835D01*
X72456055Y-172383835D02*
X72391925Y-172319705D01*
X82953224Y-172028224D02*
X73001858Y-172028224D01*
X71516483Y-170542849D02*
X71516483Y-169369323D01*
X83548800Y-172623800D02*
X82953224Y-172028224D01*
X70836535Y-168689375D02*
X70536536Y-168389376D01*
X73001858Y-172028224D02*
X71516483Y-170542849D01*
X83548800Y-178638200D02*
X83548800Y-172623800D01*
X71516483Y-169369323D02*
X70836535Y-168689375D01*
X82974479Y-170974479D02*
X74030848Y-170974479D01*
X85548800Y-178638200D02*
X85548800Y-173548800D01*
X74030848Y-170974479D02*
X73606584Y-170974479D01*
X85548800Y-173548800D02*
X82974479Y-170974479D01*
X71944213Y-169000763D02*
X71944213Y-168576499D01*
X73273940Y-170407778D02*
X72991483Y-170690235D01*
X72166778Y-170690235D02*
X71872094Y-170395551D01*
X71872094Y-169072882D02*
X71944213Y-169000763D01*
X72991483Y-170690235D02*
X72166778Y-170690235D01*
X86548800Y-173848800D02*
X83107778Y-170407778D01*
X86548800Y-178638200D02*
X86548800Y-173848800D01*
X83107778Y-170407778D02*
X73273940Y-170407778D01*
X71872094Y-170395551D02*
X71872094Y-169072882D01*
X72934426Y-170052167D02*
X72863060Y-170123533D01*
X88548800Y-174635272D02*
X83965695Y-170052167D01*
X88548800Y-178638200D02*
X88548800Y-174635272D01*
X72863060Y-170123533D02*
X72438796Y-170123533D01*
X83965695Y-170052167D02*
X72934426Y-170052167D01*
X74299264Y-169485457D02*
X73875000Y-169485457D01*
X83901893Y-169485457D02*
X74299264Y-169485457D01*
X89548800Y-175132364D02*
X83901893Y-169485457D01*
X89548800Y-178638200D02*
X89548800Y-175132364D01*
X91548800Y-175660557D02*
X87761339Y-171873096D01*
X91548800Y-178638200D02*
X91548800Y-175660557D01*
X83227496Y-168308152D02*
X74167257Y-168308152D01*
X74167257Y-168308152D02*
X73867258Y-168008153D01*
X86792440Y-171873096D02*
X83227496Y-168308152D01*
X87761339Y-171873096D02*
X86792440Y-171873096D01*
X92548800Y-176051591D02*
X88014694Y-171517485D01*
X86939737Y-171517485D02*
X83098117Y-167675865D01*
X75103713Y-167675865D02*
X74176539Y-166748691D01*
X83098117Y-167675865D02*
X75103713Y-167675865D01*
X92548800Y-178638200D02*
X92548800Y-176051591D01*
X88014694Y-171517485D02*
X86939737Y-171517485D01*
X74176539Y-166748691D02*
X73876540Y-166448692D01*
X88974264Y-135000000D02*
X153650000Y-135000000D01*
X153650000Y-135000000D02*
X156600000Y-132050000D01*
X83400000Y-140150000D02*
X83824264Y-140150000D01*
X83824264Y-140150000D02*
X88974264Y-135000000D01*
X84725000Y-151000736D02*
X84725000Y-141475000D01*
X84725000Y-141475000D02*
X83400000Y-140150000D01*
X84925000Y-151625000D02*
X84925000Y-151200736D01*
X84925000Y-151200736D02*
X84725000Y-151000736D01*
X93548800Y-178638200D02*
X93548800Y-173501200D01*
X93548800Y-173501200D02*
X93575000Y-173475000D01*
X70150000Y-141475000D02*
X82075000Y-141475000D01*
X82075000Y-141475000D02*
X83400000Y-140150000D01*
X69099999Y-140424999D02*
X70150000Y-141475000D01*
X68750000Y-140125000D02*
X69049999Y-140424999D01*
X69049999Y-140424999D02*
X69099999Y-140424999D01*
X56275000Y-140175000D02*
X68700000Y-140175000D01*
X68700000Y-140175000D02*
X68750000Y-140125000D01*
X43274264Y-141600000D02*
X54850000Y-141600000D01*
X54850000Y-141600000D02*
X56275000Y-140175000D01*
X41575000Y-140325000D02*
X41999264Y-140325000D01*
X41999264Y-140325000D02*
X43274264Y-141600000D01*
X107775000Y-174350000D02*
X107775000Y-178412000D01*
X107775000Y-178412000D02*
X107548800Y-178638200D01*
X120600000Y-175550000D02*
X120600000Y-178587000D01*
X120600000Y-178587000D02*
X120548800Y-178638200D01*
X108625000Y-175525000D02*
X108625000Y-178562000D01*
X108625000Y-178562000D02*
X108548800Y-178638200D01*
X110525000Y-174350000D02*
X110525000Y-178614400D01*
X110525000Y-178614400D02*
X110548800Y-178638200D01*
X111675000Y-175525000D02*
X111675000Y-178512000D01*
X111675000Y-178512000D02*
X111548800Y-178638200D01*
X113600000Y-174375000D02*
X113600000Y-178587000D01*
X113600000Y-178587000D02*
X113548800Y-178638200D01*
X114550000Y-175550000D02*
X114550000Y-178637000D01*
X114550000Y-178637000D02*
X114548800Y-178638200D01*
X116548800Y-178638200D02*
X116548800Y-176260400D01*
X116259481Y-175971081D02*
X116259481Y-173402390D01*
X116548800Y-176260400D02*
X116259481Y-175971081D01*
X117437326Y-175136204D02*
X117137327Y-174836205D01*
X117548800Y-175247678D02*
X117437326Y-175136204D01*
X117548800Y-178638200D02*
X117548800Y-175247678D01*
X121625000Y-174425000D02*
X121625000Y-178562000D01*
X121625000Y-178562000D02*
X121548800Y-178638200D01*
X123550000Y-175375000D02*
X123550000Y-178637000D01*
X123550000Y-178637000D02*
X123548800Y-178638200D01*
X124548800Y-174145358D02*
X124761690Y-173932468D01*
X124548800Y-178638200D02*
X124548800Y-174145358D01*
X126548800Y-174449642D02*
X126309425Y-174210267D01*
X126548800Y-178638200D02*
X126548800Y-174449642D01*
X127548800Y-173407433D02*
X127619047Y-173337186D01*
X127548800Y-178638200D02*
X127548800Y-173407433D01*
X129700000Y-175125000D02*
X129700000Y-178487000D01*
X129700000Y-178487000D02*
X129548800Y-178638200D01*
X130548800Y-173574011D02*
X130768228Y-173354583D01*
X130548800Y-178638200D02*
X130548800Y-173574011D01*
X131600000Y-175450000D02*
X131600000Y-178587000D01*
X131600000Y-178587000D02*
X131548800Y-178638200D01*
X132650000Y-174475000D02*
X132650000Y-178537000D01*
X132650000Y-178537000D02*
X132548800Y-178638200D01*
X134650000Y-175075000D02*
X134650000Y-178537000D01*
X134650000Y-178537000D02*
X134548800Y-178638200D01*
X135548800Y-178638200D02*
X135548800Y-173432404D01*
X135548800Y-173432404D02*
X135596023Y-173385181D01*
X137548800Y-178638200D02*
X137548800Y-173429144D01*
X137548800Y-173429144D02*
X137549325Y-173428619D01*
X138625000Y-174400000D02*
X138625000Y-178562000D01*
X138625000Y-178562000D02*
X138548800Y-178638200D01*
X140650000Y-175150000D02*
X140650000Y-178537000D01*
X140650000Y-178537000D02*
X140548800Y-178638200D01*
X141548800Y-173179545D02*
X141558320Y-173170025D01*
X141548800Y-178638200D02*
X141548800Y-173179545D01*
X142600000Y-175025000D02*
X142600000Y-178587000D01*
X142600000Y-178587000D02*
X142548800Y-178638200D01*
X143548800Y-178638200D02*
X143548800Y-173197398D01*
X143548800Y-173197398D02*
X143623317Y-173122881D01*
X145575000Y-174950000D02*
X145575000Y-178612000D01*
X145575000Y-178612000D02*
X145548800Y-178638200D01*
X146548800Y-173143410D02*
X146475698Y-173070308D01*
X146548800Y-178638200D02*
X146548800Y-173143410D01*
X148548800Y-173156198D02*
X148532461Y-173139859D01*
X148548800Y-178638200D02*
X148548800Y-173156198D01*
X149600000Y-174350000D02*
X149600000Y-178587000D01*
X149600000Y-178587000D02*
X149548800Y-178638200D01*
X151600000Y-174950000D02*
X151600000Y-178587000D01*
X151600000Y-178587000D02*
X151548800Y-178638200D01*
X152548800Y-173142033D02*
X152516819Y-173110052D01*
X152548800Y-178638200D02*
X152548800Y-173142033D01*
X148475000Y-150375000D02*
X148475000Y-141900000D01*
X148475000Y-141900000D02*
X150200000Y-140175000D01*
X153548800Y-178638200D02*
X153548800Y-175276200D01*
X153548800Y-175276200D02*
X153675000Y-175150000D01*
X151625000Y-141575000D02*
X163500000Y-141575000D01*
X163500000Y-141575000D02*
X164850000Y-140225000D01*
X150524999Y-140474999D02*
X151625000Y-141575000D01*
X150200000Y-140175000D02*
X150499999Y-140474999D01*
X150499999Y-140474999D02*
X150524999Y-140474999D01*
X141525000Y-140150000D02*
X150175000Y-140150000D01*
X150175000Y-140150000D02*
X150200000Y-140175000D01*
X128125000Y-141575000D02*
X140100000Y-141575000D01*
X140100000Y-141575000D02*
X141525000Y-140150000D01*
X127249999Y-140699999D02*
X128125000Y-141575000D01*
X126825000Y-140400000D02*
X127124999Y-140699999D01*
X127124999Y-140699999D02*
X127249999Y-140699999D01*
X157820000Y-135300000D02*
X157820000Y-127502200D01*
X157820000Y-127502200D02*
X158322200Y-127000000D01*
X158322200Y-127000000D02*
X159500000Y-127000000D01*
X159500000Y-127000000D02*
X163000000Y-127000000D01*
X106025000Y-141700000D02*
X117400000Y-141700000D01*
X117400000Y-141700000D02*
X119075000Y-140025000D01*
X104699999Y-140374999D02*
X106025000Y-141700000D01*
X104400000Y-140050000D02*
X104699999Y-140349999D01*
X104699999Y-140349999D02*
X104699999Y-140374999D01*
X100850000Y-140025000D02*
X104375000Y-140025000D01*
X104375000Y-140025000D02*
X104400000Y-140050000D01*
X99250000Y-141625000D02*
X100850000Y-140025000D01*
X87450736Y-141625000D02*
X99250000Y-141625000D01*
X86250000Y-140000000D02*
X86250000Y-140424264D01*
X86250000Y-140424264D02*
X87450736Y-141625000D01*
M02*
