M48
;DRILL file {KiCad 4.0.4-stable} date 01/30/18 18:22:57
;FORMAT={-:-/ absolute / metric / decimal}
FMAT,2
METRIC,TZ
T1C0.400
T2C0.700
T3C1.000
%
G90
G05
M71
T1
X68.66Y-45.87
X69.82Y-52.8
X69.92Y-81.86
X69.92Y-88.71
X79.37Y-45.89
X80.03Y-81.86
X80.03Y-88.71
X80.04Y-52.84
X89.4Y-45.91
X90.14Y-81.84
X90.17Y-88.73
X90.24Y-52.86
X99.41Y-45.93
X100.3Y-88.74
X100.32Y-81.82
X100.35Y-52.76
X130.825Y-82.25
X130.875Y-45.825
X130.875Y-88.775
X130.9Y-53.025
X140.925Y-53.
X140.95Y-45.75
X141.05Y-82.3
X141.05Y-88.9
X151.15Y-82.425
X151.15Y-88.95
X151.175Y-52.975
X151.2Y-45.725
X161.25Y-45.75
X161.275Y-89.
X161.3Y-52.975
X161.325Y-82.45
T2
X61.16Y-66.08
X61.16Y-68.58
X62.16Y-64.08
X62.16Y-70.58
X63.16Y-66.08
X63.16Y-68.58
X64.16Y-64.08
X64.16Y-70.58
X65.16Y-66.08
X65.16Y-68.58
X66.16Y-64.08
X66.16Y-70.58
X67.16Y-66.08
X67.16Y-68.58
X68.16Y-64.08
X68.16Y-70.58
X69.16Y-66.08
X69.16Y-68.58
X70.16Y-64.08
X70.16Y-70.58
X71.16Y-66.08
X71.16Y-68.58
X74.16Y-64.08
X74.16Y-70.58
X75.16Y-66.08
X75.16Y-68.58
X76.16Y-64.08
X76.16Y-70.58
X77.16Y-66.08
X77.16Y-68.58
X78.16Y-64.08
X78.16Y-70.58
X79.16Y-66.08
X79.16Y-68.58
X80.16Y-64.08
X80.16Y-70.58
X81.16Y-66.08
X81.16Y-68.58
X82.16Y-64.08
X82.16Y-70.58
X83.16Y-66.08
X83.16Y-68.58
X84.16Y-64.08
X84.16Y-70.58
X85.16Y-66.08
X85.16Y-68.58
X86.16Y-64.08
X86.16Y-70.58
X87.16Y-66.08
X87.16Y-68.58
X88.16Y-64.08
X88.16Y-70.58
X89.16Y-66.08
X89.16Y-68.58
X90.16Y-64.08
X90.16Y-70.58
X91.16Y-66.08
X91.16Y-68.58
X92.16Y-64.08
X92.16Y-70.58
X93.16Y-66.08
X93.16Y-68.58
X94.16Y-64.08
X94.16Y-70.58
X95.16Y-66.08
X95.16Y-68.58
X96.16Y-64.08
X96.16Y-70.58
X97.16Y-66.08
X97.16Y-68.58
X98.16Y-64.08
X98.16Y-70.58
X99.16Y-66.08
X99.16Y-68.58
X100.16Y-64.08
X100.16Y-70.58
X101.16Y-66.08
X101.16Y-68.58
X102.16Y-64.08
X102.16Y-70.58
X103.16Y-66.08
X103.16Y-68.58
X104.16Y-64.08
X104.16Y-70.58
X105.16Y-66.08
X105.16Y-68.58
X106.16Y-64.08
X106.16Y-70.58
X107.16Y-66.08
X107.16Y-68.58
X108.16Y-64.08
X108.16Y-70.58
X109.16Y-66.08
X109.16Y-68.58
X110.16Y-64.08
X110.16Y-70.58
X111.16Y-66.08
X111.16Y-68.58
X121.16Y-66.08
X121.16Y-68.58
X122.16Y-64.08
X122.16Y-70.58
X123.16Y-66.08
X123.16Y-68.58
X124.16Y-64.08
X124.16Y-70.58
X125.16Y-66.08
X125.16Y-68.58
X126.16Y-64.08
X126.16Y-70.58
X127.16Y-66.08
X127.16Y-68.58
X128.16Y-64.08
X128.16Y-70.58
X129.16Y-66.08
X129.16Y-68.58
X130.16Y-64.08
X130.16Y-70.58
X131.16Y-66.08
X131.16Y-68.58
X134.16Y-64.08
X134.16Y-70.58
X135.16Y-66.08
X135.16Y-68.58
X136.16Y-64.08
X136.16Y-70.58
X137.16Y-66.08
X137.16Y-68.58
X138.16Y-64.08
X138.16Y-70.58
X139.16Y-66.08
X139.16Y-68.58
X140.16Y-64.08
X140.16Y-70.58
X141.16Y-66.08
X141.16Y-68.58
X142.16Y-64.08
X142.16Y-70.58
X143.16Y-66.08
X143.16Y-68.58
X144.16Y-64.08
X144.16Y-70.58
X145.16Y-66.08
X145.16Y-68.58
X146.16Y-64.08
X146.16Y-70.58
X147.16Y-66.08
X147.16Y-68.58
X148.16Y-64.08
X148.16Y-70.58
X149.16Y-66.08
X149.16Y-68.58
X150.16Y-64.08
X150.16Y-70.58
X151.16Y-66.08
X151.16Y-68.58
X152.16Y-64.08
X152.16Y-70.58
X153.16Y-66.08
X153.16Y-68.58
X154.16Y-64.08
X154.16Y-70.58
X155.16Y-66.08
X155.16Y-68.58
X156.16Y-64.08
X156.16Y-70.58
X157.16Y-66.08
X157.16Y-68.58
X158.16Y-64.08
X158.16Y-70.58
X159.16Y-66.08
X159.16Y-68.58
X160.16Y-64.08
X160.16Y-70.58
X161.16Y-66.08
X161.16Y-68.58
X162.16Y-64.08
X162.16Y-70.58
X163.16Y-66.08
X163.16Y-68.58
X164.16Y-64.08
X164.16Y-70.58
X165.16Y-66.08
X165.16Y-68.58
X166.16Y-64.08
X166.16Y-70.58
X167.16Y-66.08
X167.16Y-68.58
X168.16Y-64.08
X168.16Y-70.58
X169.16Y-66.08
X169.16Y-68.58
X170.16Y-64.08
X170.16Y-70.58
X171.16Y-66.08
X171.16Y-68.58
T3
X58.42Y-83.82
X58.42Y-86.36
X66.04Y-48.26
X66.04Y-50.8
X66.04Y-83.82
X66.04Y-86.36
X68.58Y-48.26
X68.58Y-50.8
X68.58Y-83.82
X68.58Y-86.36
X71.12Y-48.26
X71.12Y-50.8
X71.12Y-83.82
X71.12Y-86.36
X73.66Y-48.26
X73.66Y-50.8
X73.66Y-83.82
X73.66Y-86.36
X76.2Y-48.26
X76.2Y-50.8
X76.2Y-83.82
X76.2Y-86.36
X78.74Y-48.26
X78.74Y-50.8
X78.74Y-83.82
X78.74Y-86.36
X81.28Y-48.26
X81.28Y-50.8
X81.28Y-83.82
X81.28Y-86.36
X83.82Y-48.26
X83.82Y-50.8
X83.82Y-83.82
X83.82Y-86.36
X86.36Y-48.26
X86.36Y-50.8
X86.36Y-83.82
X86.36Y-86.36
X88.9Y-48.26
X88.9Y-50.8
X88.9Y-83.82
X88.9Y-86.36
X91.44Y-48.26
X91.44Y-50.8
X91.44Y-83.82
X91.44Y-86.36
X93.98Y-48.26
X93.98Y-50.8
X93.98Y-83.82
X93.98Y-86.36
X96.52Y-48.26
X96.52Y-50.8
X96.52Y-83.82
X96.52Y-86.36
X99.06Y-48.26
X99.06Y-50.8
X99.06Y-83.82
X99.06Y-86.36
X101.6Y-48.26
X101.6Y-50.8
X101.6Y-83.82
X101.6Y-86.36
X104.14Y-48.26
X104.14Y-50.8
X104.14Y-83.82
X104.14Y-86.36
X116.84Y-48.26
X116.84Y-50.8
X116.84Y-53.34
X116.84Y-55.88
X116.84Y-58.42
X116.84Y-76.2
X116.84Y-78.74
X116.84Y-81.28
X116.84Y-83.82
X116.84Y-86.36
X127.Y-48.26
X127.Y-50.8
X127.Y-83.82
X127.Y-86.36
X129.54Y-48.26
X129.54Y-50.8
X129.54Y-83.82
X129.54Y-86.36
X132.08Y-48.26
X132.08Y-50.8
X132.08Y-83.82
X132.08Y-86.36
X134.62Y-48.26
X134.62Y-50.8
X134.62Y-83.82
X134.62Y-86.36
X137.16Y-48.26
X137.16Y-50.8
X137.16Y-83.82
X137.16Y-86.36
X139.7Y-48.26
X139.7Y-50.8
X139.7Y-83.82
X139.7Y-86.36
X142.24Y-48.26
X142.24Y-50.8
X142.24Y-83.82
X142.24Y-86.36
X144.78Y-48.26
X144.78Y-50.8
X144.78Y-83.82
X144.78Y-86.36
X147.32Y-48.26
X147.32Y-50.8
X147.32Y-83.82
X147.32Y-86.36
X149.86Y-48.26
X149.86Y-50.8
X149.86Y-83.82
X149.86Y-86.36
X152.4Y-48.26
X152.4Y-50.8
X152.4Y-83.82
X152.4Y-86.36
X154.94Y-48.26
X154.94Y-50.8
X154.94Y-83.82
X154.94Y-86.36
X157.48Y-48.26
X157.48Y-50.8
X157.48Y-83.82
X157.48Y-86.36
X160.02Y-48.26
X160.02Y-50.8
X160.02Y-83.82
X160.02Y-86.36
X162.56Y-48.26
X162.56Y-50.8
X162.56Y-83.82
X162.56Y-86.36
X165.1Y-48.26
X165.1Y-50.8
X165.1Y-83.82
X165.1Y-86.36
X172.72Y-83.82
X172.72Y-86.36
X180.34Y-48.26
X180.34Y-50.8
X180.34Y-53.34
X180.34Y-55.88
X180.34Y-58.42
X180.34Y-76.2
X180.34Y-78.74
X180.34Y-81.28
X180.34Y-83.82
X180.34Y-86.36
T0
M30
