G04 #@! TF.GenerationSoftware,KiCad,Pcbnew,(5.0.0-rc2-35-gda6600525)*
G04 #@! TF.CreationDate,2018-07-07T16:01:35-07:00*
G04 #@! TF.ProjectId,alu,616C752E6B696361645F706362000000,rev?*
G04 #@! TF.SameCoordinates,Original*
G04 #@! TF.FileFunction,Legend,Bot*
G04 #@! TF.FilePolarity,Positive*
%FSLAX46Y46*%
G04 Gerber Fmt 4.6, Leading zero omitted, Abs format (unit mm)*
G04 Created by KiCad (PCBNEW (5.0.0-rc2-35-gda6600525)) date 07/07/18 16:01:35*
%MOMM*%
%LPD*%
G01*
G04 APERTURE LIST*
%ADD10C,0.350000*%
%ADD11C,0.150000*%
%ADD12C,0.120000*%
G04 APERTURE END LIST*
D10*
X22490000Y-153380000D02*
G75*
G03X22490000Y-153380000I-170000J0D01*
G01*
X22440000Y-140090000D02*
G75*
G03X22440000Y-140090000I-170000J0D01*
G01*
X13790000Y-138440000D02*
G75*
G03X13790000Y-138440000I-170000J0D01*
G01*
X13970000Y-127710000D02*
G75*
G03X13970000Y-127710000I-170000J0D01*
G01*
X22240000Y-92800000D02*
G75*
G03X22240000Y-92800000I-170000J0D01*
G01*
X23620000Y-80570000D02*
G75*
G03X23620000Y-80570000I-170000J0D01*
G01*
X22260000Y-79890000D02*
G75*
G03X22260000Y-79890000I-170000J0D01*
G01*
X13800000Y-77220000D02*
G75*
G03X13800000Y-77220000I-170000J0D01*
G01*
X13990000Y-66360000D02*
G75*
G03X13990000Y-66360000I-170000J0D01*
G01*
X71720000Y-55750000D02*
G75*
G03X71720000Y-55750000I-170000J0D01*
G01*
X59880000Y-55750000D02*
G75*
G03X59880000Y-55750000I-170000J0D01*
G01*
X46440000Y-55780000D02*
G75*
G03X46440000Y-55780000I-170000J0D01*
G01*
X46420000Y-69380000D02*
G75*
G03X46420000Y-69380000I-170000J0D01*
G01*
X59930000Y-69450000D02*
G75*
G03X59930000Y-69450000I-170000J0D01*
G01*
X71790000Y-69470000D02*
G75*
G03X71790000Y-69470000I-170000J0D01*
G01*
X71790000Y-82920000D02*
G75*
G03X71790000Y-82920000I-170000J0D01*
G01*
X59890000Y-82930000D02*
G75*
G03X59890000Y-82930000I-170000J0D01*
G01*
X46380000Y-82950000D02*
G75*
G03X46380000Y-82950000I-170000J0D01*
G01*
X46420000Y-96650000D02*
G75*
G03X46420000Y-96650000I-170000J0D01*
G01*
X59850000Y-96670000D02*
G75*
G03X59850000Y-96670000I-170000J0D01*
G01*
X71720000Y-96740000D02*
G75*
G03X71720000Y-96740000I-170000J0D01*
G01*
X71720000Y-110400000D02*
G75*
G03X71720000Y-110400000I-170000J0D01*
G01*
X59790000Y-110450000D02*
G75*
G03X59790000Y-110450000I-170000J0D01*
G01*
X46440000Y-110460000D02*
G75*
G03X46440000Y-110460000I-170000J0D01*
G01*
X46420000Y-124550000D02*
G75*
G03X46420000Y-124550000I-170000J0D01*
G01*
X59880000Y-124550000D02*
G75*
G03X59880000Y-124550000I-170000J0D01*
G01*
X71630000Y-124560000D02*
G75*
G03X71630000Y-124560000I-170000J0D01*
G01*
X71770000Y-138520000D02*
G75*
G03X71770000Y-138520000I-170000J0D01*
G01*
X59890000Y-138620000D02*
G75*
G03X59890000Y-138620000I-170000J0D01*
G01*
X46410000Y-138560000D02*
G75*
G03X46410000Y-138560000I-170000J0D01*
G01*
X46390000Y-152600000D02*
G75*
G03X46390000Y-152600000I-170000J0D01*
G01*
X59970000Y-152730000D02*
G75*
G03X59970000Y-152730000I-170000J0D01*
G01*
X71810000Y-152650000D02*
G75*
G03X71810000Y-152650000I-170000J0D01*
G01*
X81450000Y-110620000D02*
G75*
G03X81450000Y-110620000I-170000J0D01*
G01*
X93690000Y-110530000D02*
G75*
G03X93690000Y-110530000I-170000J0D01*
G01*
X106420000Y-110620000D02*
G75*
G03X106420000Y-110620000I-170000J0D01*
G01*
D11*
G04 #@! TO.C,U31*
X78525000Y-126825000D02*
X78525000Y-131275000D01*
X71625000Y-125300000D02*
X71625000Y-131275000D01*
G04 #@! TO.C,U37*
X46325000Y-153400000D02*
X46325000Y-159375000D01*
X53225000Y-154925000D02*
X53225000Y-159375000D01*
D12*
G04 #@! TO.C,C2*
X71810000Y-34720000D02*
X72510000Y-34720000D01*
X72510000Y-33520000D02*
X71810000Y-33520000D01*
G04 #@! TO.C,C3*
X102500000Y-35010000D02*
X102500000Y-35710000D01*
X103700000Y-35710000D02*
X103700000Y-35010000D01*
G04 #@! TO.C,C5*
X46750000Y-66320000D02*
X46750000Y-65620000D01*
X45550000Y-65620000D02*
X45550000Y-66320000D01*
G04 #@! TO.C,C6*
X60160000Y-66290000D02*
X60160000Y-65590000D01*
X58960000Y-65590000D02*
X58960000Y-66290000D01*
G04 #@! TO.C,C7*
X72370000Y-66270000D02*
X72370000Y-65570000D01*
X71170000Y-65570000D02*
X71170000Y-66270000D01*
G04 #@! TO.C,C8*
X79560000Y-118520000D02*
X79560000Y-119220000D01*
X80760000Y-119220000D02*
X80760000Y-118520000D01*
G04 #@! TO.C,C9*
X94180000Y-120920000D02*
X94180000Y-120220000D01*
X92980000Y-120220000D02*
X92980000Y-120920000D01*
G04 #@! TO.C,C10*
X106120000Y-120410000D02*
X106120000Y-121110000D01*
X107320000Y-121110000D02*
X107320000Y-120410000D01*
G04 #@! TO.C,C12*
X44810000Y-77550000D02*
X44810000Y-78250000D01*
X46010000Y-78250000D02*
X46010000Y-77550000D01*
G04 #@! TO.C,C13*
X60190000Y-79900000D02*
X60190000Y-79200000D01*
X58990000Y-79200000D02*
X58990000Y-79900000D01*
G04 #@! TO.C,C14*
X71060000Y-79210000D02*
X71060000Y-79910000D01*
X72260000Y-79910000D02*
X72260000Y-79210000D01*
G04 #@! TO.C,C17*
X45990000Y-91840000D02*
X45990000Y-91140000D01*
X44790000Y-91140000D02*
X44790000Y-91840000D01*
G04 #@! TO.C,C18*
X58980000Y-92800000D02*
X58980000Y-93500000D01*
X60180000Y-93500000D02*
X60180000Y-92800000D01*
G04 #@! TO.C,C19*
X72330000Y-93520000D02*
X72330000Y-92820000D01*
X71130000Y-92820000D02*
X71130000Y-93520000D01*
G04 #@! TO.C,C21*
X44830000Y-104740000D02*
X44830000Y-105440000D01*
X46030000Y-105440000D02*
X46030000Y-104740000D01*
G04 #@! TO.C,C22*
X58970000Y-106480000D02*
X58970000Y-107180000D01*
X60170000Y-107180000D02*
X60170000Y-106480000D01*
G04 #@! TO.C,C23*
X72190000Y-107200000D02*
X72190000Y-106500000D01*
X70990000Y-106500000D02*
X70990000Y-107200000D01*
G04 #@! TO.C,C25*
X46030000Y-119190000D02*
X46030000Y-118490000D01*
X44830000Y-118490000D02*
X44830000Y-119190000D01*
G04 #@! TO.C,C26*
X60150000Y-120870000D02*
X60150000Y-120170000D01*
X58950000Y-120170000D02*
X58950000Y-120870000D01*
G04 #@! TO.C,C27*
X72190000Y-120890000D02*
X72190000Y-120190000D01*
X70990000Y-120190000D02*
X70990000Y-120890000D01*
G04 #@! TO.C,C29*
X46050000Y-133320000D02*
X46050000Y-132620000D01*
X44850000Y-132620000D02*
X44850000Y-133320000D01*
G04 #@! TO.C,C30*
X58990000Y-134160000D02*
X58990000Y-134860000D01*
X60190000Y-134860000D02*
X60190000Y-134160000D01*
G04 #@! TO.C,C31*
X71020000Y-134380000D02*
X71020000Y-135080000D01*
X72220000Y-135080000D02*
X72220000Y-134380000D01*
G04 #@! TO.C,C33*
X46040000Y-147570000D02*
X46040000Y-146870000D01*
X44840000Y-146870000D02*
X44840000Y-147570000D01*
G04 #@! TO.C,C34*
X59240000Y-148320000D02*
X59240000Y-149020000D01*
X60440000Y-149020000D02*
X60440000Y-148320000D01*
G04 #@! TO.C,C35*
X72170000Y-148990000D02*
X72170000Y-148290000D01*
X70970000Y-148290000D02*
X70970000Y-148990000D01*
G04 #@! TO.C,C37*
X45960000Y-161390000D02*
X45960000Y-160690000D01*
X44760000Y-160690000D02*
X44760000Y-161390000D01*
G04 #@! TO.C,C38*
X58330000Y-162190000D02*
X58330000Y-162890000D01*
X59530000Y-162890000D02*
X59530000Y-162190000D01*
G04 #@! TO.C,C39*
X72640000Y-163030000D02*
X72640000Y-162330000D01*
X71440000Y-162330000D02*
X71440000Y-163030000D01*
G04 #@! TO.C,C41*
X15350000Y-152780000D02*
X16050000Y-152780000D01*
X16050000Y-151580000D02*
X15350000Y-151580000D01*
G04 #@! TO.C,C42*
X25200000Y-89160000D02*
X24500000Y-89160000D01*
X24500000Y-90360000D02*
X25200000Y-90360000D01*
G04 #@! TO.C,P1*
X13200000Y-110900000D02*
X13200000Y-105100000D01*
X11750000Y-166550000D02*
X9500000Y-166550000D01*
X11750000Y-163650000D02*
G75*
G02X11750000Y-166550000I0J-1450000D01*
G01*
X11750000Y-150550000D02*
G75*
G02X11750000Y-152450000I0J-950000D01*
G01*
X9500000Y-152450000D02*
X11750000Y-152450000D01*
X11750000Y-150550000D02*
X9500000Y-150550000D01*
X9500000Y-163650000D02*
X9500000Y-152450000D01*
X9500000Y-152450000D02*
X3700000Y-152450000D01*
X3700000Y-152450000D02*
X3700000Y-163650000D01*
X3700000Y-163650000D02*
X11750000Y-163650000D01*
X9500000Y-112350000D02*
X9500000Y-150550000D01*
X3700000Y-150550000D02*
X3700000Y-112350000D01*
X9500000Y-150550000D02*
X3700000Y-150550000D01*
X11750000Y-112350000D02*
X3700000Y-112350000D01*
X13200000Y-110900000D02*
G75*
G02X11750000Y-112350000I-1450000J0D01*
G01*
X11750000Y-90550000D02*
X9500000Y-90550000D01*
X9500000Y-90550000D02*
X3700000Y-90550000D01*
X9500000Y-52350000D02*
X9500000Y-90550000D01*
X3700000Y-90550000D02*
X3700000Y-52350000D01*
X11750000Y-52350000D02*
X3700000Y-52350000D01*
X11750000Y-49450000D02*
G75*
G02X11750000Y-52350000I0J-1450000D01*
G01*
X11750000Y-49450000D02*
X9500000Y-49450000D01*
X9500000Y-92450000D02*
X3700000Y-92450000D01*
X11750000Y-90550000D02*
G75*
G02X11750000Y-92450000I0J-950000D01*
G01*
X9500000Y-92450000D02*
X11750000Y-92450000D01*
X3700000Y-92450000D02*
X3700000Y-103650000D01*
X9500000Y-103650000D02*
X9500000Y-92450000D01*
X11750000Y-103650000D02*
G75*
G02X13200000Y-105100000I0J-1450000D01*
G01*
X3700000Y-103650000D02*
X11750000Y-103650000D01*
D11*
G04 #@! TO.C,U5*
X53175000Y-58225000D02*
X53175000Y-62675000D01*
X46275000Y-56700000D02*
X46275000Y-62675000D01*
G04 #@! TO.C,U6*
X59725000Y-56700000D02*
X59725000Y-62675000D01*
X66625000Y-58225000D02*
X66625000Y-62675000D01*
G04 #@! TO.C,U7*
X78425000Y-58225000D02*
X78425000Y-62675000D01*
X71525000Y-56700000D02*
X71525000Y-62675000D01*
G04 #@! TO.C,U8*
X88068320Y-112825000D02*
X88068320Y-117275000D01*
X81168320Y-111300000D02*
X81168320Y-117275000D01*
G04 #@! TO.C,U9*
X93318320Y-111300000D02*
X93318320Y-117275000D01*
X100218320Y-112825000D02*
X100218320Y-117275000D01*
G04 #@! TO.C,U10*
X112975000Y-112825000D02*
X112975000Y-117275000D01*
X106075000Y-111300000D02*
X106075000Y-117275000D01*
G04 #@! TO.C,U12*
X53175000Y-71825000D02*
X53175000Y-76275000D01*
X46275000Y-70300000D02*
X46275000Y-76275000D01*
G04 #@! TO.C,U13*
X59775000Y-70300000D02*
X59775000Y-76275000D01*
X66675000Y-71825000D02*
X66675000Y-76275000D01*
G04 #@! TO.C,U14*
X78475000Y-71825000D02*
X78475000Y-76275000D01*
X71575000Y-70300000D02*
X71575000Y-76275000D01*
G04 #@! TO.C,U17*
X46325000Y-83900000D02*
X46325000Y-89875000D01*
X53225000Y-85425000D02*
X53225000Y-89875000D01*
G04 #@! TO.C,U18*
X66625000Y-85425000D02*
X66625000Y-89875000D01*
X59725000Y-83900000D02*
X59725000Y-89875000D01*
G04 #@! TO.C,U19*
X71625000Y-83900000D02*
X71625000Y-89875000D01*
X78525000Y-85425000D02*
X78525000Y-89875000D01*
G04 #@! TO.C,U21*
X46325000Y-97600000D02*
X46325000Y-103575000D01*
X53225000Y-99125000D02*
X53225000Y-103575000D01*
G04 #@! TO.C,U22*
X66625000Y-99125000D02*
X66625000Y-103575000D01*
X59725000Y-97600000D02*
X59725000Y-103575000D01*
G04 #@! TO.C,U23*
X71625000Y-97600000D02*
X71625000Y-103575000D01*
X78525000Y-99125000D02*
X78525000Y-103575000D01*
G04 #@! TO.C,U25*
X53225000Y-112825000D02*
X53225000Y-117275000D01*
X46325000Y-111300000D02*
X46325000Y-117275000D01*
G04 #@! TO.C,U26*
X59725000Y-111300000D02*
X59725000Y-117275000D01*
X66625000Y-112825000D02*
X66625000Y-117275000D01*
G04 #@! TO.C,U27*
X78525000Y-112825000D02*
X78525000Y-117275000D01*
X71625000Y-111300000D02*
X71625000Y-117275000D01*
G04 #@! TO.C,U29*
X46325000Y-125300000D02*
X46325000Y-131275000D01*
X53225000Y-126825000D02*
X53225000Y-131275000D01*
G04 #@! TO.C,U30*
X66625000Y-126825000D02*
X66625000Y-131275000D01*
X59725000Y-125300000D02*
X59725000Y-131275000D01*
G04 #@! TO.C,U33*
X46325000Y-139400000D02*
X46325000Y-145375000D01*
X53225000Y-140925000D02*
X53225000Y-145375000D01*
G04 #@! TO.C,U34*
X59725000Y-139400000D02*
X59725000Y-145375000D01*
X66625000Y-140925000D02*
X66625000Y-145375000D01*
G04 #@! TO.C,U35*
X78525000Y-140925000D02*
X78525000Y-145375000D01*
X71625000Y-139400000D02*
X71625000Y-145375000D01*
G04 #@! TO.C,U38*
X59725000Y-153400000D02*
X59725000Y-159375000D01*
X66625000Y-154925000D02*
X66625000Y-159375000D01*
G04 #@! TO.C,U39*
X78525000Y-154925000D02*
X78525000Y-159375000D01*
X71625000Y-153400000D02*
X71625000Y-159375000D01*
G04 #@! TO.C,U41*
X21700000Y-153225000D02*
X15725000Y-153225000D01*
X20175000Y-160125000D02*
X15725000Y-160125000D01*
G04 #@! TO.C,U42*
X23600000Y-82625000D02*
X23600000Y-81275000D01*
X28725000Y-82625000D02*
X28725000Y-87275000D01*
X23475000Y-82625000D02*
X23475000Y-87275000D01*
X28725000Y-82625000D02*
X28500000Y-82625000D01*
X28725000Y-87275000D02*
X28500000Y-87275000D01*
X23475000Y-87275000D02*
X23700000Y-87275000D01*
X23475000Y-82625000D02*
X23600000Y-82625000D01*
D12*
G04 #@! TO.C,C45*
X16060000Y-138670000D02*
X15360000Y-138670000D01*
X15360000Y-139870000D02*
X16060000Y-139870000D01*
G04 #@! TO.C,C48*
X22050000Y-138560000D02*
X21350000Y-138560000D01*
X21350000Y-139760000D02*
X22050000Y-139760000D01*
G04 #@! TO.C,C49*
X20610000Y-127480000D02*
X19910000Y-127480000D01*
X19910000Y-128680000D02*
X20610000Y-128680000D01*
G04 #@! TO.C,C50*
X16060000Y-91460000D02*
X15360000Y-91460000D01*
X15360000Y-92660000D02*
X16060000Y-92660000D01*
G04 #@! TO.C,C52*
X16030000Y-78720000D02*
X15330000Y-78720000D01*
X15330000Y-79920000D02*
X16030000Y-79920000D01*
G04 #@! TO.C,C54*
X19700000Y-78240000D02*
X20400000Y-78240000D01*
X20400000Y-77040000D02*
X19700000Y-77040000D01*
G04 #@! TO.C,C55*
X20670000Y-66100000D02*
X19970000Y-66100000D01*
X19970000Y-67300000D02*
X20670000Y-67300000D01*
D11*
G04 #@! TO.C,U45*
X20175000Y-147125000D02*
X15725000Y-147125000D01*
X21700000Y-140225000D02*
X15725000Y-140225000D01*
G04 #@! TO.C,U48*
X14200000Y-138125000D02*
X20175000Y-138125000D01*
X15725000Y-131225000D02*
X20175000Y-131225000D01*
G04 #@! TO.C,U49*
X15725000Y-120225000D02*
X20175000Y-120225000D01*
X14200000Y-127125000D02*
X20175000Y-127125000D01*
G04 #@! TO.C,U50*
X21700000Y-93225000D02*
X15725000Y-93225000D01*
X20175000Y-100125000D02*
X15725000Y-100125000D01*
G04 #@! TO.C,U52*
X21700000Y-80225000D02*
X15725000Y-80225000D01*
X20175000Y-87125000D02*
X15725000Y-87125000D01*
G04 #@! TO.C,U54*
X15725000Y-69875000D02*
X20175000Y-69875000D01*
X14200000Y-76775000D02*
X20175000Y-76775000D01*
G04 #@! TO.C,U55*
X14200000Y-65775000D02*
X20175000Y-65775000D01*
X15725000Y-58875000D02*
X20175000Y-58875000D01*
G04 #@! TO.C,U31*
X70227380Y-127811904D02*
X71036904Y-127811904D01*
X71132142Y-127859523D01*
X71179761Y-127907142D01*
X71227380Y-128002380D01*
X71227380Y-128192857D01*
X71179761Y-128288095D01*
X71132142Y-128335714D01*
X71036904Y-128383333D01*
X70227380Y-128383333D01*
X70227380Y-128764285D02*
X70227380Y-129383333D01*
X70608333Y-129050000D01*
X70608333Y-129192857D01*
X70655952Y-129288095D01*
X70703571Y-129335714D01*
X70798809Y-129383333D01*
X71036904Y-129383333D01*
X71132142Y-129335714D01*
X71179761Y-129288095D01*
X71227380Y-129192857D01*
X71227380Y-128907142D01*
X71179761Y-128811904D01*
X71132142Y-128764285D01*
X71227380Y-130335714D02*
X71227380Y-129764285D01*
X71227380Y-130050000D02*
X70227380Y-130050000D01*
X70370238Y-129954761D01*
X70465476Y-129859523D01*
X70513095Y-129764285D01*
G04 #@! TO.C,U37*
X44927380Y-155911904D02*
X45736904Y-155911904D01*
X45832142Y-155959523D01*
X45879761Y-156007142D01*
X45927380Y-156102380D01*
X45927380Y-156292857D01*
X45879761Y-156388095D01*
X45832142Y-156435714D01*
X45736904Y-156483333D01*
X44927380Y-156483333D01*
X44927380Y-156864285D02*
X44927380Y-157483333D01*
X45308333Y-157150000D01*
X45308333Y-157292857D01*
X45355952Y-157388095D01*
X45403571Y-157435714D01*
X45498809Y-157483333D01*
X45736904Y-157483333D01*
X45832142Y-157435714D01*
X45879761Y-157388095D01*
X45927380Y-157292857D01*
X45927380Y-157007142D01*
X45879761Y-156911904D01*
X45832142Y-156864285D01*
X44927380Y-157816666D02*
X44927380Y-158483333D01*
X45927380Y-158054761D01*
G04 #@! TO.C,C2*
X72376666Y-33127142D02*
X72424285Y-33174761D01*
X72567142Y-33222380D01*
X72662380Y-33222380D01*
X72805238Y-33174761D01*
X72900476Y-33079523D01*
X72948095Y-32984285D01*
X72995714Y-32793809D01*
X72995714Y-32650952D01*
X72948095Y-32460476D01*
X72900476Y-32365238D01*
X72805238Y-32270000D01*
X72662380Y-32222380D01*
X72567142Y-32222380D01*
X72424285Y-32270000D01*
X72376666Y-32317619D01*
X71995714Y-32317619D02*
X71948095Y-32270000D01*
X71852857Y-32222380D01*
X71614761Y-32222380D01*
X71519523Y-32270000D01*
X71471904Y-32317619D01*
X71424285Y-32412857D01*
X71424285Y-32508095D01*
X71471904Y-32650952D01*
X72043333Y-33222380D01*
X71424285Y-33222380D01*
G04 #@! TO.C,C3*
X104957142Y-35193333D02*
X105004761Y-35145714D01*
X105052380Y-35002857D01*
X105052380Y-34907619D01*
X105004761Y-34764761D01*
X104909523Y-34669523D01*
X104814285Y-34621904D01*
X104623809Y-34574285D01*
X104480952Y-34574285D01*
X104290476Y-34621904D01*
X104195238Y-34669523D01*
X104100000Y-34764761D01*
X104052380Y-34907619D01*
X104052380Y-35002857D01*
X104100000Y-35145714D01*
X104147619Y-35193333D01*
X104052380Y-35526666D02*
X104052380Y-36145714D01*
X104433333Y-35812380D01*
X104433333Y-35955238D01*
X104480952Y-36050476D01*
X104528571Y-36098095D01*
X104623809Y-36145714D01*
X104861904Y-36145714D01*
X104957142Y-36098095D01*
X105004761Y-36050476D01*
X105052380Y-35955238D01*
X105052380Y-35669523D01*
X105004761Y-35574285D01*
X104957142Y-35526666D01*
G04 #@! TO.C,C5*
X45007142Y-65803333D02*
X45054761Y-65755714D01*
X45102380Y-65612857D01*
X45102380Y-65517619D01*
X45054761Y-65374761D01*
X44959523Y-65279523D01*
X44864285Y-65231904D01*
X44673809Y-65184285D01*
X44530952Y-65184285D01*
X44340476Y-65231904D01*
X44245238Y-65279523D01*
X44150000Y-65374761D01*
X44102380Y-65517619D01*
X44102380Y-65612857D01*
X44150000Y-65755714D01*
X44197619Y-65803333D01*
X44102380Y-66708095D02*
X44102380Y-66231904D01*
X44578571Y-66184285D01*
X44530952Y-66231904D01*
X44483333Y-66327142D01*
X44483333Y-66565238D01*
X44530952Y-66660476D01*
X44578571Y-66708095D01*
X44673809Y-66755714D01*
X44911904Y-66755714D01*
X45007142Y-66708095D01*
X45054761Y-66660476D01*
X45102380Y-66565238D01*
X45102380Y-66327142D01*
X45054761Y-66231904D01*
X45007142Y-66184285D01*
G04 #@! TO.C,C6*
X58417142Y-65773333D02*
X58464761Y-65725714D01*
X58512380Y-65582857D01*
X58512380Y-65487619D01*
X58464761Y-65344761D01*
X58369523Y-65249523D01*
X58274285Y-65201904D01*
X58083809Y-65154285D01*
X57940952Y-65154285D01*
X57750476Y-65201904D01*
X57655238Y-65249523D01*
X57560000Y-65344761D01*
X57512380Y-65487619D01*
X57512380Y-65582857D01*
X57560000Y-65725714D01*
X57607619Y-65773333D01*
X57512380Y-66630476D02*
X57512380Y-66440000D01*
X57560000Y-66344761D01*
X57607619Y-66297142D01*
X57750476Y-66201904D01*
X57940952Y-66154285D01*
X58321904Y-66154285D01*
X58417142Y-66201904D01*
X58464761Y-66249523D01*
X58512380Y-66344761D01*
X58512380Y-66535238D01*
X58464761Y-66630476D01*
X58417142Y-66678095D01*
X58321904Y-66725714D01*
X58083809Y-66725714D01*
X57988571Y-66678095D01*
X57940952Y-66630476D01*
X57893333Y-66535238D01*
X57893333Y-66344761D01*
X57940952Y-66249523D01*
X57988571Y-66201904D01*
X58083809Y-66154285D01*
G04 #@! TO.C,C7*
X70627142Y-65753333D02*
X70674761Y-65705714D01*
X70722380Y-65562857D01*
X70722380Y-65467619D01*
X70674761Y-65324761D01*
X70579523Y-65229523D01*
X70484285Y-65181904D01*
X70293809Y-65134285D01*
X70150952Y-65134285D01*
X69960476Y-65181904D01*
X69865238Y-65229523D01*
X69770000Y-65324761D01*
X69722380Y-65467619D01*
X69722380Y-65562857D01*
X69770000Y-65705714D01*
X69817619Y-65753333D01*
X69722380Y-66086666D02*
X69722380Y-66753333D01*
X70722380Y-66324761D01*
G04 #@! TO.C,C8*
X79017142Y-118703333D02*
X79064761Y-118655714D01*
X79112380Y-118512857D01*
X79112380Y-118417619D01*
X79064761Y-118274761D01*
X78969523Y-118179523D01*
X78874285Y-118131904D01*
X78683809Y-118084285D01*
X78540952Y-118084285D01*
X78350476Y-118131904D01*
X78255238Y-118179523D01*
X78160000Y-118274761D01*
X78112380Y-118417619D01*
X78112380Y-118512857D01*
X78160000Y-118655714D01*
X78207619Y-118703333D01*
X78540952Y-119274761D02*
X78493333Y-119179523D01*
X78445714Y-119131904D01*
X78350476Y-119084285D01*
X78302857Y-119084285D01*
X78207619Y-119131904D01*
X78160000Y-119179523D01*
X78112380Y-119274761D01*
X78112380Y-119465238D01*
X78160000Y-119560476D01*
X78207619Y-119608095D01*
X78302857Y-119655714D01*
X78350476Y-119655714D01*
X78445714Y-119608095D01*
X78493333Y-119560476D01*
X78540952Y-119465238D01*
X78540952Y-119274761D01*
X78588571Y-119179523D01*
X78636190Y-119131904D01*
X78731428Y-119084285D01*
X78921904Y-119084285D01*
X79017142Y-119131904D01*
X79064761Y-119179523D01*
X79112380Y-119274761D01*
X79112380Y-119465238D01*
X79064761Y-119560476D01*
X79017142Y-119608095D01*
X78921904Y-119655714D01*
X78731428Y-119655714D01*
X78636190Y-119608095D01*
X78588571Y-119560476D01*
X78540952Y-119465238D01*
G04 #@! TO.C,C9*
X92547142Y-121723333D02*
X92594761Y-121675714D01*
X92642380Y-121532857D01*
X92642380Y-121437619D01*
X92594761Y-121294761D01*
X92499523Y-121199523D01*
X92404285Y-121151904D01*
X92213809Y-121104285D01*
X92070952Y-121104285D01*
X91880476Y-121151904D01*
X91785238Y-121199523D01*
X91690000Y-121294761D01*
X91642380Y-121437619D01*
X91642380Y-121532857D01*
X91690000Y-121675714D01*
X91737619Y-121723333D01*
X92642380Y-122199523D02*
X92642380Y-122390000D01*
X92594761Y-122485238D01*
X92547142Y-122532857D01*
X92404285Y-122628095D01*
X92213809Y-122675714D01*
X91832857Y-122675714D01*
X91737619Y-122628095D01*
X91690000Y-122580476D01*
X91642380Y-122485238D01*
X91642380Y-122294761D01*
X91690000Y-122199523D01*
X91737619Y-122151904D01*
X91832857Y-122104285D01*
X92070952Y-122104285D01*
X92166190Y-122151904D01*
X92213809Y-122199523D01*
X92261428Y-122294761D01*
X92261428Y-122485238D01*
X92213809Y-122580476D01*
X92166190Y-122628095D01*
X92070952Y-122675714D01*
G04 #@! TO.C,C10*
X105717142Y-122017142D02*
X105764761Y-121969523D01*
X105812380Y-121826666D01*
X105812380Y-121731428D01*
X105764761Y-121588571D01*
X105669523Y-121493333D01*
X105574285Y-121445714D01*
X105383809Y-121398095D01*
X105240952Y-121398095D01*
X105050476Y-121445714D01*
X104955238Y-121493333D01*
X104860000Y-121588571D01*
X104812380Y-121731428D01*
X104812380Y-121826666D01*
X104860000Y-121969523D01*
X104907619Y-122017142D01*
X105812380Y-122969523D02*
X105812380Y-122398095D01*
X105812380Y-122683809D02*
X104812380Y-122683809D01*
X104955238Y-122588571D01*
X105050476Y-122493333D01*
X105098095Y-122398095D01*
X104812380Y-123588571D02*
X104812380Y-123683809D01*
X104860000Y-123779047D01*
X104907619Y-123826666D01*
X105002857Y-123874285D01*
X105193333Y-123921904D01*
X105431428Y-123921904D01*
X105621904Y-123874285D01*
X105717142Y-123826666D01*
X105764761Y-123779047D01*
X105812380Y-123683809D01*
X105812380Y-123588571D01*
X105764761Y-123493333D01*
X105717142Y-123445714D01*
X105621904Y-123398095D01*
X105431428Y-123350476D01*
X105193333Y-123350476D01*
X105002857Y-123398095D01*
X104907619Y-123445714D01*
X104860000Y-123493333D01*
X104812380Y-123588571D01*
G04 #@! TO.C,C12*
X44267142Y-77257142D02*
X44314761Y-77209523D01*
X44362380Y-77066666D01*
X44362380Y-76971428D01*
X44314761Y-76828571D01*
X44219523Y-76733333D01*
X44124285Y-76685714D01*
X43933809Y-76638095D01*
X43790952Y-76638095D01*
X43600476Y-76685714D01*
X43505238Y-76733333D01*
X43410000Y-76828571D01*
X43362380Y-76971428D01*
X43362380Y-77066666D01*
X43410000Y-77209523D01*
X43457619Y-77257142D01*
X44362380Y-78209523D02*
X44362380Y-77638095D01*
X44362380Y-77923809D02*
X43362380Y-77923809D01*
X43505238Y-77828571D01*
X43600476Y-77733333D01*
X43648095Y-77638095D01*
X43457619Y-78590476D02*
X43410000Y-78638095D01*
X43362380Y-78733333D01*
X43362380Y-78971428D01*
X43410000Y-79066666D01*
X43457619Y-79114285D01*
X43552857Y-79161904D01*
X43648095Y-79161904D01*
X43790952Y-79114285D01*
X44362380Y-78542857D01*
X44362380Y-79161904D01*
G04 #@! TO.C,C13*
X58447142Y-78907142D02*
X58494761Y-78859523D01*
X58542380Y-78716666D01*
X58542380Y-78621428D01*
X58494761Y-78478571D01*
X58399523Y-78383333D01*
X58304285Y-78335714D01*
X58113809Y-78288095D01*
X57970952Y-78288095D01*
X57780476Y-78335714D01*
X57685238Y-78383333D01*
X57590000Y-78478571D01*
X57542380Y-78621428D01*
X57542380Y-78716666D01*
X57590000Y-78859523D01*
X57637619Y-78907142D01*
X58542380Y-79859523D02*
X58542380Y-79288095D01*
X58542380Y-79573809D02*
X57542380Y-79573809D01*
X57685238Y-79478571D01*
X57780476Y-79383333D01*
X57828095Y-79288095D01*
X57542380Y-80192857D02*
X57542380Y-80811904D01*
X57923333Y-80478571D01*
X57923333Y-80621428D01*
X57970952Y-80716666D01*
X58018571Y-80764285D01*
X58113809Y-80811904D01*
X58351904Y-80811904D01*
X58447142Y-80764285D01*
X58494761Y-80716666D01*
X58542380Y-80621428D01*
X58542380Y-80335714D01*
X58494761Y-80240476D01*
X58447142Y-80192857D01*
G04 #@! TO.C,C14*
X70517142Y-78917142D02*
X70564761Y-78869523D01*
X70612380Y-78726666D01*
X70612380Y-78631428D01*
X70564761Y-78488571D01*
X70469523Y-78393333D01*
X70374285Y-78345714D01*
X70183809Y-78298095D01*
X70040952Y-78298095D01*
X69850476Y-78345714D01*
X69755238Y-78393333D01*
X69660000Y-78488571D01*
X69612380Y-78631428D01*
X69612380Y-78726666D01*
X69660000Y-78869523D01*
X69707619Y-78917142D01*
X70612380Y-79869523D02*
X70612380Y-79298095D01*
X70612380Y-79583809D02*
X69612380Y-79583809D01*
X69755238Y-79488571D01*
X69850476Y-79393333D01*
X69898095Y-79298095D01*
X69945714Y-80726666D02*
X70612380Y-80726666D01*
X69564761Y-80488571D02*
X70279047Y-80250476D01*
X70279047Y-80869523D01*
G04 #@! TO.C,C17*
X44247142Y-90847142D02*
X44294761Y-90799523D01*
X44342380Y-90656666D01*
X44342380Y-90561428D01*
X44294761Y-90418571D01*
X44199523Y-90323333D01*
X44104285Y-90275714D01*
X43913809Y-90228095D01*
X43770952Y-90228095D01*
X43580476Y-90275714D01*
X43485238Y-90323333D01*
X43390000Y-90418571D01*
X43342380Y-90561428D01*
X43342380Y-90656666D01*
X43390000Y-90799523D01*
X43437619Y-90847142D01*
X44342380Y-91799523D02*
X44342380Y-91228095D01*
X44342380Y-91513809D02*
X43342380Y-91513809D01*
X43485238Y-91418571D01*
X43580476Y-91323333D01*
X43628095Y-91228095D01*
X43342380Y-92132857D02*
X43342380Y-92799523D01*
X44342380Y-92370952D01*
G04 #@! TO.C,C18*
X58437142Y-92507142D02*
X58484761Y-92459523D01*
X58532380Y-92316666D01*
X58532380Y-92221428D01*
X58484761Y-92078571D01*
X58389523Y-91983333D01*
X58294285Y-91935714D01*
X58103809Y-91888095D01*
X57960952Y-91888095D01*
X57770476Y-91935714D01*
X57675238Y-91983333D01*
X57580000Y-92078571D01*
X57532380Y-92221428D01*
X57532380Y-92316666D01*
X57580000Y-92459523D01*
X57627619Y-92507142D01*
X58532380Y-93459523D02*
X58532380Y-92888095D01*
X58532380Y-93173809D02*
X57532380Y-93173809D01*
X57675238Y-93078571D01*
X57770476Y-92983333D01*
X57818095Y-92888095D01*
X57960952Y-94030952D02*
X57913333Y-93935714D01*
X57865714Y-93888095D01*
X57770476Y-93840476D01*
X57722857Y-93840476D01*
X57627619Y-93888095D01*
X57580000Y-93935714D01*
X57532380Y-94030952D01*
X57532380Y-94221428D01*
X57580000Y-94316666D01*
X57627619Y-94364285D01*
X57722857Y-94411904D01*
X57770476Y-94411904D01*
X57865714Y-94364285D01*
X57913333Y-94316666D01*
X57960952Y-94221428D01*
X57960952Y-94030952D01*
X58008571Y-93935714D01*
X58056190Y-93888095D01*
X58151428Y-93840476D01*
X58341904Y-93840476D01*
X58437142Y-93888095D01*
X58484761Y-93935714D01*
X58532380Y-94030952D01*
X58532380Y-94221428D01*
X58484761Y-94316666D01*
X58437142Y-94364285D01*
X58341904Y-94411904D01*
X58151428Y-94411904D01*
X58056190Y-94364285D01*
X58008571Y-94316666D01*
X57960952Y-94221428D01*
G04 #@! TO.C,C19*
X70587142Y-92527142D02*
X70634761Y-92479523D01*
X70682380Y-92336666D01*
X70682380Y-92241428D01*
X70634761Y-92098571D01*
X70539523Y-92003333D01*
X70444285Y-91955714D01*
X70253809Y-91908095D01*
X70110952Y-91908095D01*
X69920476Y-91955714D01*
X69825238Y-92003333D01*
X69730000Y-92098571D01*
X69682380Y-92241428D01*
X69682380Y-92336666D01*
X69730000Y-92479523D01*
X69777619Y-92527142D01*
X70682380Y-93479523D02*
X70682380Y-92908095D01*
X70682380Y-93193809D02*
X69682380Y-93193809D01*
X69825238Y-93098571D01*
X69920476Y-93003333D01*
X69968095Y-92908095D01*
X70682380Y-93955714D02*
X70682380Y-94146190D01*
X70634761Y-94241428D01*
X70587142Y-94289047D01*
X70444285Y-94384285D01*
X70253809Y-94431904D01*
X69872857Y-94431904D01*
X69777619Y-94384285D01*
X69730000Y-94336666D01*
X69682380Y-94241428D01*
X69682380Y-94050952D01*
X69730000Y-93955714D01*
X69777619Y-93908095D01*
X69872857Y-93860476D01*
X70110952Y-93860476D01*
X70206190Y-93908095D01*
X70253809Y-93955714D01*
X70301428Y-94050952D01*
X70301428Y-94241428D01*
X70253809Y-94336666D01*
X70206190Y-94384285D01*
X70110952Y-94431904D01*
G04 #@! TO.C,C21*
X44287142Y-104447142D02*
X44334761Y-104399523D01*
X44382380Y-104256666D01*
X44382380Y-104161428D01*
X44334761Y-104018571D01*
X44239523Y-103923333D01*
X44144285Y-103875714D01*
X43953809Y-103828095D01*
X43810952Y-103828095D01*
X43620476Y-103875714D01*
X43525238Y-103923333D01*
X43430000Y-104018571D01*
X43382380Y-104161428D01*
X43382380Y-104256666D01*
X43430000Y-104399523D01*
X43477619Y-104447142D01*
X43477619Y-104828095D02*
X43430000Y-104875714D01*
X43382380Y-104970952D01*
X43382380Y-105209047D01*
X43430000Y-105304285D01*
X43477619Y-105351904D01*
X43572857Y-105399523D01*
X43668095Y-105399523D01*
X43810952Y-105351904D01*
X44382380Y-104780476D01*
X44382380Y-105399523D01*
X44382380Y-106351904D02*
X44382380Y-105780476D01*
X44382380Y-106066190D02*
X43382380Y-106066190D01*
X43525238Y-105970952D01*
X43620476Y-105875714D01*
X43668095Y-105780476D01*
G04 #@! TO.C,C22*
X58427142Y-106187142D02*
X58474761Y-106139523D01*
X58522380Y-105996666D01*
X58522380Y-105901428D01*
X58474761Y-105758571D01*
X58379523Y-105663333D01*
X58284285Y-105615714D01*
X58093809Y-105568095D01*
X57950952Y-105568095D01*
X57760476Y-105615714D01*
X57665238Y-105663333D01*
X57570000Y-105758571D01*
X57522380Y-105901428D01*
X57522380Y-105996666D01*
X57570000Y-106139523D01*
X57617619Y-106187142D01*
X57617619Y-106568095D02*
X57570000Y-106615714D01*
X57522380Y-106710952D01*
X57522380Y-106949047D01*
X57570000Y-107044285D01*
X57617619Y-107091904D01*
X57712857Y-107139523D01*
X57808095Y-107139523D01*
X57950952Y-107091904D01*
X58522380Y-106520476D01*
X58522380Y-107139523D01*
X57617619Y-107520476D02*
X57570000Y-107568095D01*
X57522380Y-107663333D01*
X57522380Y-107901428D01*
X57570000Y-107996666D01*
X57617619Y-108044285D01*
X57712857Y-108091904D01*
X57808095Y-108091904D01*
X57950952Y-108044285D01*
X58522380Y-107472857D01*
X58522380Y-108091904D01*
G04 #@! TO.C,C23*
X70447142Y-106207142D02*
X70494761Y-106159523D01*
X70542380Y-106016666D01*
X70542380Y-105921428D01*
X70494761Y-105778571D01*
X70399523Y-105683333D01*
X70304285Y-105635714D01*
X70113809Y-105588095D01*
X69970952Y-105588095D01*
X69780476Y-105635714D01*
X69685238Y-105683333D01*
X69590000Y-105778571D01*
X69542380Y-105921428D01*
X69542380Y-106016666D01*
X69590000Y-106159523D01*
X69637619Y-106207142D01*
X69637619Y-106588095D02*
X69590000Y-106635714D01*
X69542380Y-106730952D01*
X69542380Y-106969047D01*
X69590000Y-107064285D01*
X69637619Y-107111904D01*
X69732857Y-107159523D01*
X69828095Y-107159523D01*
X69970952Y-107111904D01*
X70542380Y-106540476D01*
X70542380Y-107159523D01*
X69542380Y-107492857D02*
X69542380Y-108111904D01*
X69923333Y-107778571D01*
X69923333Y-107921428D01*
X69970952Y-108016666D01*
X70018571Y-108064285D01*
X70113809Y-108111904D01*
X70351904Y-108111904D01*
X70447142Y-108064285D01*
X70494761Y-108016666D01*
X70542380Y-107921428D01*
X70542380Y-107635714D01*
X70494761Y-107540476D01*
X70447142Y-107492857D01*
G04 #@! TO.C,C25*
X44287142Y-118197142D02*
X44334761Y-118149523D01*
X44382380Y-118006666D01*
X44382380Y-117911428D01*
X44334761Y-117768571D01*
X44239523Y-117673333D01*
X44144285Y-117625714D01*
X43953809Y-117578095D01*
X43810952Y-117578095D01*
X43620476Y-117625714D01*
X43525238Y-117673333D01*
X43430000Y-117768571D01*
X43382380Y-117911428D01*
X43382380Y-118006666D01*
X43430000Y-118149523D01*
X43477619Y-118197142D01*
X43477619Y-118578095D02*
X43430000Y-118625714D01*
X43382380Y-118720952D01*
X43382380Y-118959047D01*
X43430000Y-119054285D01*
X43477619Y-119101904D01*
X43572857Y-119149523D01*
X43668095Y-119149523D01*
X43810952Y-119101904D01*
X44382380Y-118530476D01*
X44382380Y-119149523D01*
X43382380Y-120054285D02*
X43382380Y-119578095D01*
X43858571Y-119530476D01*
X43810952Y-119578095D01*
X43763333Y-119673333D01*
X43763333Y-119911428D01*
X43810952Y-120006666D01*
X43858571Y-120054285D01*
X43953809Y-120101904D01*
X44191904Y-120101904D01*
X44287142Y-120054285D01*
X44334761Y-120006666D01*
X44382380Y-119911428D01*
X44382380Y-119673333D01*
X44334761Y-119578095D01*
X44287142Y-119530476D01*
G04 #@! TO.C,C26*
X58407142Y-119877142D02*
X58454761Y-119829523D01*
X58502380Y-119686666D01*
X58502380Y-119591428D01*
X58454761Y-119448571D01*
X58359523Y-119353333D01*
X58264285Y-119305714D01*
X58073809Y-119258095D01*
X57930952Y-119258095D01*
X57740476Y-119305714D01*
X57645238Y-119353333D01*
X57550000Y-119448571D01*
X57502380Y-119591428D01*
X57502380Y-119686666D01*
X57550000Y-119829523D01*
X57597619Y-119877142D01*
X57597619Y-120258095D02*
X57550000Y-120305714D01*
X57502380Y-120400952D01*
X57502380Y-120639047D01*
X57550000Y-120734285D01*
X57597619Y-120781904D01*
X57692857Y-120829523D01*
X57788095Y-120829523D01*
X57930952Y-120781904D01*
X58502380Y-120210476D01*
X58502380Y-120829523D01*
X57502380Y-121686666D02*
X57502380Y-121496190D01*
X57550000Y-121400952D01*
X57597619Y-121353333D01*
X57740476Y-121258095D01*
X57930952Y-121210476D01*
X58311904Y-121210476D01*
X58407142Y-121258095D01*
X58454761Y-121305714D01*
X58502380Y-121400952D01*
X58502380Y-121591428D01*
X58454761Y-121686666D01*
X58407142Y-121734285D01*
X58311904Y-121781904D01*
X58073809Y-121781904D01*
X57978571Y-121734285D01*
X57930952Y-121686666D01*
X57883333Y-121591428D01*
X57883333Y-121400952D01*
X57930952Y-121305714D01*
X57978571Y-121258095D01*
X58073809Y-121210476D01*
G04 #@! TO.C,C27*
X70447142Y-119897142D02*
X70494761Y-119849523D01*
X70542380Y-119706666D01*
X70542380Y-119611428D01*
X70494761Y-119468571D01*
X70399523Y-119373333D01*
X70304285Y-119325714D01*
X70113809Y-119278095D01*
X69970952Y-119278095D01*
X69780476Y-119325714D01*
X69685238Y-119373333D01*
X69590000Y-119468571D01*
X69542380Y-119611428D01*
X69542380Y-119706666D01*
X69590000Y-119849523D01*
X69637619Y-119897142D01*
X69637619Y-120278095D02*
X69590000Y-120325714D01*
X69542380Y-120420952D01*
X69542380Y-120659047D01*
X69590000Y-120754285D01*
X69637619Y-120801904D01*
X69732857Y-120849523D01*
X69828095Y-120849523D01*
X69970952Y-120801904D01*
X70542380Y-120230476D01*
X70542380Y-120849523D01*
X69542380Y-121182857D02*
X69542380Y-121849523D01*
X70542380Y-121420952D01*
G04 #@! TO.C,C29*
X44307142Y-132327142D02*
X44354761Y-132279523D01*
X44402380Y-132136666D01*
X44402380Y-132041428D01*
X44354761Y-131898571D01*
X44259523Y-131803333D01*
X44164285Y-131755714D01*
X43973809Y-131708095D01*
X43830952Y-131708095D01*
X43640476Y-131755714D01*
X43545238Y-131803333D01*
X43450000Y-131898571D01*
X43402380Y-132041428D01*
X43402380Y-132136666D01*
X43450000Y-132279523D01*
X43497619Y-132327142D01*
X43497619Y-132708095D02*
X43450000Y-132755714D01*
X43402380Y-132850952D01*
X43402380Y-133089047D01*
X43450000Y-133184285D01*
X43497619Y-133231904D01*
X43592857Y-133279523D01*
X43688095Y-133279523D01*
X43830952Y-133231904D01*
X44402380Y-132660476D01*
X44402380Y-133279523D01*
X44402380Y-133755714D02*
X44402380Y-133946190D01*
X44354761Y-134041428D01*
X44307142Y-134089047D01*
X44164285Y-134184285D01*
X43973809Y-134231904D01*
X43592857Y-134231904D01*
X43497619Y-134184285D01*
X43450000Y-134136666D01*
X43402380Y-134041428D01*
X43402380Y-133850952D01*
X43450000Y-133755714D01*
X43497619Y-133708095D01*
X43592857Y-133660476D01*
X43830952Y-133660476D01*
X43926190Y-133708095D01*
X43973809Y-133755714D01*
X44021428Y-133850952D01*
X44021428Y-134041428D01*
X43973809Y-134136666D01*
X43926190Y-134184285D01*
X43830952Y-134231904D01*
G04 #@! TO.C,C30*
X58447142Y-133867142D02*
X58494761Y-133819523D01*
X58542380Y-133676666D01*
X58542380Y-133581428D01*
X58494761Y-133438571D01*
X58399523Y-133343333D01*
X58304285Y-133295714D01*
X58113809Y-133248095D01*
X57970952Y-133248095D01*
X57780476Y-133295714D01*
X57685238Y-133343333D01*
X57590000Y-133438571D01*
X57542380Y-133581428D01*
X57542380Y-133676666D01*
X57590000Y-133819523D01*
X57637619Y-133867142D01*
X57542380Y-134200476D02*
X57542380Y-134819523D01*
X57923333Y-134486190D01*
X57923333Y-134629047D01*
X57970952Y-134724285D01*
X58018571Y-134771904D01*
X58113809Y-134819523D01*
X58351904Y-134819523D01*
X58447142Y-134771904D01*
X58494761Y-134724285D01*
X58542380Y-134629047D01*
X58542380Y-134343333D01*
X58494761Y-134248095D01*
X58447142Y-134200476D01*
X57542380Y-135438571D02*
X57542380Y-135533809D01*
X57590000Y-135629047D01*
X57637619Y-135676666D01*
X57732857Y-135724285D01*
X57923333Y-135771904D01*
X58161428Y-135771904D01*
X58351904Y-135724285D01*
X58447142Y-135676666D01*
X58494761Y-135629047D01*
X58542380Y-135533809D01*
X58542380Y-135438571D01*
X58494761Y-135343333D01*
X58447142Y-135295714D01*
X58351904Y-135248095D01*
X58161428Y-135200476D01*
X57923333Y-135200476D01*
X57732857Y-135248095D01*
X57637619Y-135295714D01*
X57590000Y-135343333D01*
X57542380Y-135438571D01*
G04 #@! TO.C,C31*
X70477142Y-134087142D02*
X70524761Y-134039523D01*
X70572380Y-133896666D01*
X70572380Y-133801428D01*
X70524761Y-133658571D01*
X70429523Y-133563333D01*
X70334285Y-133515714D01*
X70143809Y-133468095D01*
X70000952Y-133468095D01*
X69810476Y-133515714D01*
X69715238Y-133563333D01*
X69620000Y-133658571D01*
X69572380Y-133801428D01*
X69572380Y-133896666D01*
X69620000Y-134039523D01*
X69667619Y-134087142D01*
X69572380Y-134420476D02*
X69572380Y-135039523D01*
X69953333Y-134706190D01*
X69953333Y-134849047D01*
X70000952Y-134944285D01*
X70048571Y-134991904D01*
X70143809Y-135039523D01*
X70381904Y-135039523D01*
X70477142Y-134991904D01*
X70524761Y-134944285D01*
X70572380Y-134849047D01*
X70572380Y-134563333D01*
X70524761Y-134468095D01*
X70477142Y-134420476D01*
X70572380Y-135991904D02*
X70572380Y-135420476D01*
X70572380Y-135706190D02*
X69572380Y-135706190D01*
X69715238Y-135610952D01*
X69810476Y-135515714D01*
X69858095Y-135420476D01*
G04 #@! TO.C,C33*
X44297142Y-146577142D02*
X44344761Y-146529523D01*
X44392380Y-146386666D01*
X44392380Y-146291428D01*
X44344761Y-146148571D01*
X44249523Y-146053333D01*
X44154285Y-146005714D01*
X43963809Y-145958095D01*
X43820952Y-145958095D01*
X43630476Y-146005714D01*
X43535238Y-146053333D01*
X43440000Y-146148571D01*
X43392380Y-146291428D01*
X43392380Y-146386666D01*
X43440000Y-146529523D01*
X43487619Y-146577142D01*
X43392380Y-146910476D02*
X43392380Y-147529523D01*
X43773333Y-147196190D01*
X43773333Y-147339047D01*
X43820952Y-147434285D01*
X43868571Y-147481904D01*
X43963809Y-147529523D01*
X44201904Y-147529523D01*
X44297142Y-147481904D01*
X44344761Y-147434285D01*
X44392380Y-147339047D01*
X44392380Y-147053333D01*
X44344761Y-146958095D01*
X44297142Y-146910476D01*
X43392380Y-147862857D02*
X43392380Y-148481904D01*
X43773333Y-148148571D01*
X43773333Y-148291428D01*
X43820952Y-148386666D01*
X43868571Y-148434285D01*
X43963809Y-148481904D01*
X44201904Y-148481904D01*
X44297142Y-148434285D01*
X44344761Y-148386666D01*
X44392380Y-148291428D01*
X44392380Y-148005714D01*
X44344761Y-147910476D01*
X44297142Y-147862857D01*
G04 #@! TO.C,C34*
X58697142Y-148027142D02*
X58744761Y-147979523D01*
X58792380Y-147836666D01*
X58792380Y-147741428D01*
X58744761Y-147598571D01*
X58649523Y-147503333D01*
X58554285Y-147455714D01*
X58363809Y-147408095D01*
X58220952Y-147408095D01*
X58030476Y-147455714D01*
X57935238Y-147503333D01*
X57840000Y-147598571D01*
X57792380Y-147741428D01*
X57792380Y-147836666D01*
X57840000Y-147979523D01*
X57887619Y-148027142D01*
X57792380Y-148360476D02*
X57792380Y-148979523D01*
X58173333Y-148646190D01*
X58173333Y-148789047D01*
X58220952Y-148884285D01*
X58268571Y-148931904D01*
X58363809Y-148979523D01*
X58601904Y-148979523D01*
X58697142Y-148931904D01*
X58744761Y-148884285D01*
X58792380Y-148789047D01*
X58792380Y-148503333D01*
X58744761Y-148408095D01*
X58697142Y-148360476D01*
X58125714Y-149836666D02*
X58792380Y-149836666D01*
X57744761Y-149598571D02*
X58459047Y-149360476D01*
X58459047Y-149979523D01*
G04 #@! TO.C,C35*
X70427142Y-147997142D02*
X70474761Y-147949523D01*
X70522380Y-147806666D01*
X70522380Y-147711428D01*
X70474761Y-147568571D01*
X70379523Y-147473333D01*
X70284285Y-147425714D01*
X70093809Y-147378095D01*
X69950952Y-147378095D01*
X69760476Y-147425714D01*
X69665238Y-147473333D01*
X69570000Y-147568571D01*
X69522380Y-147711428D01*
X69522380Y-147806666D01*
X69570000Y-147949523D01*
X69617619Y-147997142D01*
X69522380Y-148330476D02*
X69522380Y-148949523D01*
X69903333Y-148616190D01*
X69903333Y-148759047D01*
X69950952Y-148854285D01*
X69998571Y-148901904D01*
X70093809Y-148949523D01*
X70331904Y-148949523D01*
X70427142Y-148901904D01*
X70474761Y-148854285D01*
X70522380Y-148759047D01*
X70522380Y-148473333D01*
X70474761Y-148378095D01*
X70427142Y-148330476D01*
X69522380Y-149854285D02*
X69522380Y-149378095D01*
X69998571Y-149330476D01*
X69950952Y-149378095D01*
X69903333Y-149473333D01*
X69903333Y-149711428D01*
X69950952Y-149806666D01*
X69998571Y-149854285D01*
X70093809Y-149901904D01*
X70331904Y-149901904D01*
X70427142Y-149854285D01*
X70474761Y-149806666D01*
X70522380Y-149711428D01*
X70522380Y-149473333D01*
X70474761Y-149378095D01*
X70427142Y-149330476D01*
G04 #@! TO.C,C37*
X44217142Y-160397142D02*
X44264761Y-160349523D01*
X44312380Y-160206666D01*
X44312380Y-160111428D01*
X44264761Y-159968571D01*
X44169523Y-159873333D01*
X44074285Y-159825714D01*
X43883809Y-159778095D01*
X43740952Y-159778095D01*
X43550476Y-159825714D01*
X43455238Y-159873333D01*
X43360000Y-159968571D01*
X43312380Y-160111428D01*
X43312380Y-160206666D01*
X43360000Y-160349523D01*
X43407619Y-160397142D01*
X43312380Y-160730476D02*
X43312380Y-161349523D01*
X43693333Y-161016190D01*
X43693333Y-161159047D01*
X43740952Y-161254285D01*
X43788571Y-161301904D01*
X43883809Y-161349523D01*
X44121904Y-161349523D01*
X44217142Y-161301904D01*
X44264761Y-161254285D01*
X44312380Y-161159047D01*
X44312380Y-160873333D01*
X44264761Y-160778095D01*
X44217142Y-160730476D01*
X43312380Y-161682857D02*
X43312380Y-162349523D01*
X44312380Y-161920952D01*
G04 #@! TO.C,C38*
X57787142Y-161897142D02*
X57834761Y-161849523D01*
X57882380Y-161706666D01*
X57882380Y-161611428D01*
X57834761Y-161468571D01*
X57739523Y-161373333D01*
X57644285Y-161325714D01*
X57453809Y-161278095D01*
X57310952Y-161278095D01*
X57120476Y-161325714D01*
X57025238Y-161373333D01*
X56930000Y-161468571D01*
X56882380Y-161611428D01*
X56882380Y-161706666D01*
X56930000Y-161849523D01*
X56977619Y-161897142D01*
X56882380Y-162230476D02*
X56882380Y-162849523D01*
X57263333Y-162516190D01*
X57263333Y-162659047D01*
X57310952Y-162754285D01*
X57358571Y-162801904D01*
X57453809Y-162849523D01*
X57691904Y-162849523D01*
X57787142Y-162801904D01*
X57834761Y-162754285D01*
X57882380Y-162659047D01*
X57882380Y-162373333D01*
X57834761Y-162278095D01*
X57787142Y-162230476D01*
X57310952Y-163420952D02*
X57263333Y-163325714D01*
X57215714Y-163278095D01*
X57120476Y-163230476D01*
X57072857Y-163230476D01*
X56977619Y-163278095D01*
X56930000Y-163325714D01*
X56882380Y-163420952D01*
X56882380Y-163611428D01*
X56930000Y-163706666D01*
X56977619Y-163754285D01*
X57072857Y-163801904D01*
X57120476Y-163801904D01*
X57215714Y-163754285D01*
X57263333Y-163706666D01*
X57310952Y-163611428D01*
X57310952Y-163420952D01*
X57358571Y-163325714D01*
X57406190Y-163278095D01*
X57501428Y-163230476D01*
X57691904Y-163230476D01*
X57787142Y-163278095D01*
X57834761Y-163325714D01*
X57882380Y-163420952D01*
X57882380Y-163611428D01*
X57834761Y-163706666D01*
X57787142Y-163754285D01*
X57691904Y-163801904D01*
X57501428Y-163801904D01*
X57406190Y-163754285D01*
X57358571Y-163706666D01*
X57310952Y-163611428D01*
G04 #@! TO.C,C39*
X70897142Y-162037142D02*
X70944761Y-161989523D01*
X70992380Y-161846666D01*
X70992380Y-161751428D01*
X70944761Y-161608571D01*
X70849523Y-161513333D01*
X70754285Y-161465714D01*
X70563809Y-161418095D01*
X70420952Y-161418095D01*
X70230476Y-161465714D01*
X70135238Y-161513333D01*
X70040000Y-161608571D01*
X69992380Y-161751428D01*
X69992380Y-161846666D01*
X70040000Y-161989523D01*
X70087619Y-162037142D01*
X69992380Y-162370476D02*
X69992380Y-162989523D01*
X70373333Y-162656190D01*
X70373333Y-162799047D01*
X70420952Y-162894285D01*
X70468571Y-162941904D01*
X70563809Y-162989523D01*
X70801904Y-162989523D01*
X70897142Y-162941904D01*
X70944761Y-162894285D01*
X70992380Y-162799047D01*
X70992380Y-162513333D01*
X70944761Y-162418095D01*
X70897142Y-162370476D01*
X70992380Y-163465714D02*
X70992380Y-163656190D01*
X70944761Y-163751428D01*
X70897142Y-163799047D01*
X70754285Y-163894285D01*
X70563809Y-163941904D01*
X70182857Y-163941904D01*
X70087619Y-163894285D01*
X70040000Y-163846666D01*
X69992380Y-163751428D01*
X69992380Y-163560952D01*
X70040000Y-163465714D01*
X70087619Y-163418095D01*
X70182857Y-163370476D01*
X70420952Y-163370476D01*
X70516190Y-163418095D01*
X70563809Y-163465714D01*
X70611428Y-163560952D01*
X70611428Y-163751428D01*
X70563809Y-163846666D01*
X70516190Y-163894285D01*
X70420952Y-163941904D01*
G04 #@! TO.C,C41*
X18367142Y-150977142D02*
X18414761Y-150929523D01*
X18462380Y-150786666D01*
X18462380Y-150691428D01*
X18414761Y-150548571D01*
X18319523Y-150453333D01*
X18224285Y-150405714D01*
X18033809Y-150358095D01*
X17890952Y-150358095D01*
X17700476Y-150405714D01*
X17605238Y-150453333D01*
X17510000Y-150548571D01*
X17462380Y-150691428D01*
X17462380Y-150786666D01*
X17510000Y-150929523D01*
X17557619Y-150977142D01*
X17795714Y-151834285D02*
X18462380Y-151834285D01*
X17414761Y-151596190D02*
X18129047Y-151358095D01*
X18129047Y-151977142D01*
X18462380Y-152881904D02*
X18462380Y-152310476D01*
X18462380Y-152596190D02*
X17462380Y-152596190D01*
X17605238Y-152500952D01*
X17700476Y-152405714D01*
X17748095Y-152310476D01*
G04 #@! TO.C,C42*
X25492857Y-91617142D02*
X25540476Y-91664761D01*
X25683333Y-91712380D01*
X25778571Y-91712380D01*
X25921428Y-91664761D01*
X26016666Y-91569523D01*
X26064285Y-91474285D01*
X26111904Y-91283809D01*
X26111904Y-91140952D01*
X26064285Y-90950476D01*
X26016666Y-90855238D01*
X25921428Y-90760000D01*
X25778571Y-90712380D01*
X25683333Y-90712380D01*
X25540476Y-90760000D01*
X25492857Y-90807619D01*
X24635714Y-91045714D02*
X24635714Y-91712380D01*
X24873809Y-90664761D02*
X25111904Y-91379047D01*
X24492857Y-91379047D01*
X24159523Y-90807619D02*
X24111904Y-90760000D01*
X24016666Y-90712380D01*
X23778571Y-90712380D01*
X23683333Y-90760000D01*
X23635714Y-90807619D01*
X23588095Y-90902857D01*
X23588095Y-90998095D01*
X23635714Y-91140952D01*
X24207142Y-91712380D01*
X23588095Y-91712380D01*
G04 #@! TO.C,P1*
X11262380Y-157161904D02*
X10262380Y-157161904D01*
X10262380Y-157542857D01*
X10310000Y-157638095D01*
X10357619Y-157685714D01*
X10452857Y-157733333D01*
X10595714Y-157733333D01*
X10690952Y-157685714D01*
X10738571Y-157638095D01*
X10786190Y-157542857D01*
X10786190Y-157161904D01*
X11262380Y-158685714D02*
X11262380Y-158114285D01*
X11262380Y-158400000D02*
X10262380Y-158400000D01*
X10405238Y-158304761D01*
X10500476Y-158209523D01*
X10548095Y-158114285D01*
G04 #@! TO.C,U5*
X44877380Y-59688095D02*
X45686904Y-59688095D01*
X45782142Y-59735714D01*
X45829761Y-59783333D01*
X45877380Y-59878571D01*
X45877380Y-60069047D01*
X45829761Y-60164285D01*
X45782142Y-60211904D01*
X45686904Y-60259523D01*
X44877380Y-60259523D01*
X44877380Y-61211904D02*
X44877380Y-60735714D01*
X45353571Y-60688095D01*
X45305952Y-60735714D01*
X45258333Y-60830952D01*
X45258333Y-61069047D01*
X45305952Y-61164285D01*
X45353571Y-61211904D01*
X45448809Y-61259523D01*
X45686904Y-61259523D01*
X45782142Y-61211904D01*
X45829761Y-61164285D01*
X45877380Y-61069047D01*
X45877380Y-60830952D01*
X45829761Y-60735714D01*
X45782142Y-60688095D01*
G04 #@! TO.C,U6*
X58327380Y-59688095D02*
X59136904Y-59688095D01*
X59232142Y-59735714D01*
X59279761Y-59783333D01*
X59327380Y-59878571D01*
X59327380Y-60069047D01*
X59279761Y-60164285D01*
X59232142Y-60211904D01*
X59136904Y-60259523D01*
X58327380Y-60259523D01*
X58327380Y-61164285D02*
X58327380Y-60973809D01*
X58375000Y-60878571D01*
X58422619Y-60830952D01*
X58565476Y-60735714D01*
X58755952Y-60688095D01*
X59136904Y-60688095D01*
X59232142Y-60735714D01*
X59279761Y-60783333D01*
X59327380Y-60878571D01*
X59327380Y-61069047D01*
X59279761Y-61164285D01*
X59232142Y-61211904D01*
X59136904Y-61259523D01*
X58898809Y-61259523D01*
X58803571Y-61211904D01*
X58755952Y-61164285D01*
X58708333Y-61069047D01*
X58708333Y-60878571D01*
X58755952Y-60783333D01*
X58803571Y-60735714D01*
X58898809Y-60688095D01*
G04 #@! TO.C,U7*
X70127380Y-59688095D02*
X70936904Y-59688095D01*
X71032142Y-59735714D01*
X71079761Y-59783333D01*
X71127380Y-59878571D01*
X71127380Y-60069047D01*
X71079761Y-60164285D01*
X71032142Y-60211904D01*
X70936904Y-60259523D01*
X70127380Y-60259523D01*
X70127380Y-60640476D02*
X70127380Y-61307142D01*
X71127380Y-60878571D01*
G04 #@! TO.C,U8*
X79770700Y-114288095D02*
X80580224Y-114288095D01*
X80675462Y-114335714D01*
X80723081Y-114383333D01*
X80770700Y-114478571D01*
X80770700Y-114669047D01*
X80723081Y-114764285D01*
X80675462Y-114811904D01*
X80580224Y-114859523D01*
X79770700Y-114859523D01*
X80199272Y-115478571D02*
X80151653Y-115383333D01*
X80104034Y-115335714D01*
X80008796Y-115288095D01*
X79961177Y-115288095D01*
X79865939Y-115335714D01*
X79818320Y-115383333D01*
X79770700Y-115478571D01*
X79770700Y-115669047D01*
X79818320Y-115764285D01*
X79865939Y-115811904D01*
X79961177Y-115859523D01*
X80008796Y-115859523D01*
X80104034Y-115811904D01*
X80151653Y-115764285D01*
X80199272Y-115669047D01*
X80199272Y-115478571D01*
X80246891Y-115383333D01*
X80294510Y-115335714D01*
X80389748Y-115288095D01*
X80580224Y-115288095D01*
X80675462Y-115335714D01*
X80723081Y-115383333D01*
X80770700Y-115478571D01*
X80770700Y-115669047D01*
X80723081Y-115764285D01*
X80675462Y-115811904D01*
X80580224Y-115859523D01*
X80389748Y-115859523D01*
X80294510Y-115811904D01*
X80246891Y-115764285D01*
X80199272Y-115669047D01*
G04 #@! TO.C,U9*
X91920700Y-114288095D02*
X92730224Y-114288095D01*
X92825462Y-114335714D01*
X92873081Y-114383333D01*
X92920700Y-114478571D01*
X92920700Y-114669047D01*
X92873081Y-114764285D01*
X92825462Y-114811904D01*
X92730224Y-114859523D01*
X91920700Y-114859523D01*
X92920700Y-115383333D02*
X92920700Y-115573809D01*
X92873081Y-115669047D01*
X92825462Y-115716666D01*
X92682605Y-115811904D01*
X92492129Y-115859523D01*
X92111177Y-115859523D01*
X92015939Y-115811904D01*
X91968320Y-115764285D01*
X91920700Y-115669047D01*
X91920700Y-115478571D01*
X91968320Y-115383333D01*
X92015939Y-115335714D01*
X92111177Y-115288095D01*
X92349272Y-115288095D01*
X92444510Y-115335714D01*
X92492129Y-115383333D01*
X92539748Y-115478571D01*
X92539748Y-115669047D01*
X92492129Y-115764285D01*
X92444510Y-115811904D01*
X92349272Y-115859523D01*
G04 #@! TO.C,U10*
X104677380Y-113811904D02*
X105486904Y-113811904D01*
X105582142Y-113859523D01*
X105629761Y-113907142D01*
X105677380Y-114002380D01*
X105677380Y-114192857D01*
X105629761Y-114288095D01*
X105582142Y-114335714D01*
X105486904Y-114383333D01*
X104677380Y-114383333D01*
X105677380Y-115383333D02*
X105677380Y-114811904D01*
X105677380Y-115097619D02*
X104677380Y-115097619D01*
X104820238Y-115002380D01*
X104915476Y-114907142D01*
X104963095Y-114811904D01*
X104677380Y-116002380D02*
X104677380Y-116097619D01*
X104725000Y-116192857D01*
X104772619Y-116240476D01*
X104867857Y-116288095D01*
X105058333Y-116335714D01*
X105296428Y-116335714D01*
X105486904Y-116288095D01*
X105582142Y-116240476D01*
X105629761Y-116192857D01*
X105677380Y-116097619D01*
X105677380Y-116002380D01*
X105629761Y-115907142D01*
X105582142Y-115859523D01*
X105486904Y-115811904D01*
X105296428Y-115764285D01*
X105058333Y-115764285D01*
X104867857Y-115811904D01*
X104772619Y-115859523D01*
X104725000Y-115907142D01*
X104677380Y-116002380D01*
G04 #@! TO.C,U12*
X44877380Y-72811904D02*
X45686904Y-72811904D01*
X45782142Y-72859523D01*
X45829761Y-72907142D01*
X45877380Y-73002380D01*
X45877380Y-73192857D01*
X45829761Y-73288095D01*
X45782142Y-73335714D01*
X45686904Y-73383333D01*
X44877380Y-73383333D01*
X45877380Y-74383333D02*
X45877380Y-73811904D01*
X45877380Y-74097619D02*
X44877380Y-74097619D01*
X45020238Y-74002380D01*
X45115476Y-73907142D01*
X45163095Y-73811904D01*
X44972619Y-74764285D02*
X44925000Y-74811904D01*
X44877380Y-74907142D01*
X44877380Y-75145238D01*
X44925000Y-75240476D01*
X44972619Y-75288095D01*
X45067857Y-75335714D01*
X45163095Y-75335714D01*
X45305952Y-75288095D01*
X45877380Y-74716666D01*
X45877380Y-75335714D01*
G04 #@! TO.C,U13*
X58377380Y-72811904D02*
X59186904Y-72811904D01*
X59282142Y-72859523D01*
X59329761Y-72907142D01*
X59377380Y-73002380D01*
X59377380Y-73192857D01*
X59329761Y-73288095D01*
X59282142Y-73335714D01*
X59186904Y-73383333D01*
X58377380Y-73383333D01*
X59377380Y-74383333D02*
X59377380Y-73811904D01*
X59377380Y-74097619D02*
X58377380Y-74097619D01*
X58520238Y-74002380D01*
X58615476Y-73907142D01*
X58663095Y-73811904D01*
X58377380Y-74716666D02*
X58377380Y-75335714D01*
X58758333Y-75002380D01*
X58758333Y-75145238D01*
X58805952Y-75240476D01*
X58853571Y-75288095D01*
X58948809Y-75335714D01*
X59186904Y-75335714D01*
X59282142Y-75288095D01*
X59329761Y-75240476D01*
X59377380Y-75145238D01*
X59377380Y-74859523D01*
X59329761Y-74764285D01*
X59282142Y-74716666D01*
G04 #@! TO.C,U14*
X70177380Y-72811904D02*
X70986904Y-72811904D01*
X71082142Y-72859523D01*
X71129761Y-72907142D01*
X71177380Y-73002380D01*
X71177380Y-73192857D01*
X71129761Y-73288095D01*
X71082142Y-73335714D01*
X70986904Y-73383333D01*
X70177380Y-73383333D01*
X71177380Y-74383333D02*
X71177380Y-73811904D01*
X71177380Y-74097619D02*
X70177380Y-74097619D01*
X70320238Y-74002380D01*
X70415476Y-73907142D01*
X70463095Y-73811904D01*
X70510714Y-75240476D02*
X71177380Y-75240476D01*
X70129761Y-75002380D02*
X70844047Y-74764285D01*
X70844047Y-75383333D01*
G04 #@! TO.C,U17*
X44927380Y-86411904D02*
X45736904Y-86411904D01*
X45832142Y-86459523D01*
X45879761Y-86507142D01*
X45927380Y-86602380D01*
X45927380Y-86792857D01*
X45879761Y-86888095D01*
X45832142Y-86935714D01*
X45736904Y-86983333D01*
X44927380Y-86983333D01*
X45927380Y-87983333D02*
X45927380Y-87411904D01*
X45927380Y-87697619D02*
X44927380Y-87697619D01*
X45070238Y-87602380D01*
X45165476Y-87507142D01*
X45213095Y-87411904D01*
X44927380Y-88316666D02*
X44927380Y-88983333D01*
X45927380Y-88554761D01*
G04 #@! TO.C,U18*
X58327380Y-86411904D02*
X59136904Y-86411904D01*
X59232142Y-86459523D01*
X59279761Y-86507142D01*
X59327380Y-86602380D01*
X59327380Y-86792857D01*
X59279761Y-86888095D01*
X59232142Y-86935714D01*
X59136904Y-86983333D01*
X58327380Y-86983333D01*
X59327380Y-87983333D02*
X59327380Y-87411904D01*
X59327380Y-87697619D02*
X58327380Y-87697619D01*
X58470238Y-87602380D01*
X58565476Y-87507142D01*
X58613095Y-87411904D01*
X58755952Y-88554761D02*
X58708333Y-88459523D01*
X58660714Y-88411904D01*
X58565476Y-88364285D01*
X58517857Y-88364285D01*
X58422619Y-88411904D01*
X58375000Y-88459523D01*
X58327380Y-88554761D01*
X58327380Y-88745238D01*
X58375000Y-88840476D01*
X58422619Y-88888095D01*
X58517857Y-88935714D01*
X58565476Y-88935714D01*
X58660714Y-88888095D01*
X58708333Y-88840476D01*
X58755952Y-88745238D01*
X58755952Y-88554761D01*
X58803571Y-88459523D01*
X58851190Y-88411904D01*
X58946428Y-88364285D01*
X59136904Y-88364285D01*
X59232142Y-88411904D01*
X59279761Y-88459523D01*
X59327380Y-88554761D01*
X59327380Y-88745238D01*
X59279761Y-88840476D01*
X59232142Y-88888095D01*
X59136904Y-88935714D01*
X58946428Y-88935714D01*
X58851190Y-88888095D01*
X58803571Y-88840476D01*
X58755952Y-88745238D01*
G04 #@! TO.C,U19*
X70227380Y-86411904D02*
X71036904Y-86411904D01*
X71132142Y-86459523D01*
X71179761Y-86507142D01*
X71227380Y-86602380D01*
X71227380Y-86792857D01*
X71179761Y-86888095D01*
X71132142Y-86935714D01*
X71036904Y-86983333D01*
X70227380Y-86983333D01*
X71227380Y-87983333D02*
X71227380Y-87411904D01*
X71227380Y-87697619D02*
X70227380Y-87697619D01*
X70370238Y-87602380D01*
X70465476Y-87507142D01*
X70513095Y-87411904D01*
X71227380Y-88459523D02*
X71227380Y-88650000D01*
X71179761Y-88745238D01*
X71132142Y-88792857D01*
X70989285Y-88888095D01*
X70798809Y-88935714D01*
X70417857Y-88935714D01*
X70322619Y-88888095D01*
X70275000Y-88840476D01*
X70227380Y-88745238D01*
X70227380Y-88554761D01*
X70275000Y-88459523D01*
X70322619Y-88411904D01*
X70417857Y-88364285D01*
X70655952Y-88364285D01*
X70751190Y-88411904D01*
X70798809Y-88459523D01*
X70846428Y-88554761D01*
X70846428Y-88745238D01*
X70798809Y-88840476D01*
X70751190Y-88888095D01*
X70655952Y-88935714D01*
G04 #@! TO.C,U21*
X44927380Y-100111904D02*
X45736904Y-100111904D01*
X45832142Y-100159523D01*
X45879761Y-100207142D01*
X45927380Y-100302380D01*
X45927380Y-100492857D01*
X45879761Y-100588095D01*
X45832142Y-100635714D01*
X45736904Y-100683333D01*
X44927380Y-100683333D01*
X45022619Y-101111904D02*
X44975000Y-101159523D01*
X44927380Y-101254761D01*
X44927380Y-101492857D01*
X44975000Y-101588095D01*
X45022619Y-101635714D01*
X45117857Y-101683333D01*
X45213095Y-101683333D01*
X45355952Y-101635714D01*
X45927380Y-101064285D01*
X45927380Y-101683333D01*
X45927380Y-102635714D02*
X45927380Y-102064285D01*
X45927380Y-102350000D02*
X44927380Y-102350000D01*
X45070238Y-102254761D01*
X45165476Y-102159523D01*
X45213095Y-102064285D01*
G04 #@! TO.C,U22*
X58327380Y-100111904D02*
X59136904Y-100111904D01*
X59232142Y-100159523D01*
X59279761Y-100207142D01*
X59327380Y-100302380D01*
X59327380Y-100492857D01*
X59279761Y-100588095D01*
X59232142Y-100635714D01*
X59136904Y-100683333D01*
X58327380Y-100683333D01*
X58422619Y-101111904D02*
X58375000Y-101159523D01*
X58327380Y-101254761D01*
X58327380Y-101492857D01*
X58375000Y-101588095D01*
X58422619Y-101635714D01*
X58517857Y-101683333D01*
X58613095Y-101683333D01*
X58755952Y-101635714D01*
X59327380Y-101064285D01*
X59327380Y-101683333D01*
X58422619Y-102064285D02*
X58375000Y-102111904D01*
X58327380Y-102207142D01*
X58327380Y-102445238D01*
X58375000Y-102540476D01*
X58422619Y-102588095D01*
X58517857Y-102635714D01*
X58613095Y-102635714D01*
X58755952Y-102588095D01*
X59327380Y-102016666D01*
X59327380Y-102635714D01*
G04 #@! TO.C,U23*
X70227380Y-100111904D02*
X71036904Y-100111904D01*
X71132142Y-100159523D01*
X71179761Y-100207142D01*
X71227380Y-100302380D01*
X71227380Y-100492857D01*
X71179761Y-100588095D01*
X71132142Y-100635714D01*
X71036904Y-100683333D01*
X70227380Y-100683333D01*
X70322619Y-101111904D02*
X70275000Y-101159523D01*
X70227380Y-101254761D01*
X70227380Y-101492857D01*
X70275000Y-101588095D01*
X70322619Y-101635714D01*
X70417857Y-101683333D01*
X70513095Y-101683333D01*
X70655952Y-101635714D01*
X71227380Y-101064285D01*
X71227380Y-101683333D01*
X70227380Y-102016666D02*
X70227380Y-102635714D01*
X70608333Y-102302380D01*
X70608333Y-102445238D01*
X70655952Y-102540476D01*
X70703571Y-102588095D01*
X70798809Y-102635714D01*
X71036904Y-102635714D01*
X71132142Y-102588095D01*
X71179761Y-102540476D01*
X71227380Y-102445238D01*
X71227380Y-102159523D01*
X71179761Y-102064285D01*
X71132142Y-102016666D01*
G04 #@! TO.C,U25*
X44927380Y-113811904D02*
X45736904Y-113811904D01*
X45832142Y-113859523D01*
X45879761Y-113907142D01*
X45927380Y-114002380D01*
X45927380Y-114192857D01*
X45879761Y-114288095D01*
X45832142Y-114335714D01*
X45736904Y-114383333D01*
X44927380Y-114383333D01*
X45022619Y-114811904D02*
X44975000Y-114859523D01*
X44927380Y-114954761D01*
X44927380Y-115192857D01*
X44975000Y-115288095D01*
X45022619Y-115335714D01*
X45117857Y-115383333D01*
X45213095Y-115383333D01*
X45355952Y-115335714D01*
X45927380Y-114764285D01*
X45927380Y-115383333D01*
X44927380Y-116288095D02*
X44927380Y-115811904D01*
X45403571Y-115764285D01*
X45355952Y-115811904D01*
X45308333Y-115907142D01*
X45308333Y-116145238D01*
X45355952Y-116240476D01*
X45403571Y-116288095D01*
X45498809Y-116335714D01*
X45736904Y-116335714D01*
X45832142Y-116288095D01*
X45879761Y-116240476D01*
X45927380Y-116145238D01*
X45927380Y-115907142D01*
X45879761Y-115811904D01*
X45832142Y-115764285D01*
G04 #@! TO.C,U26*
X58327380Y-113811904D02*
X59136904Y-113811904D01*
X59232142Y-113859523D01*
X59279761Y-113907142D01*
X59327380Y-114002380D01*
X59327380Y-114192857D01*
X59279761Y-114288095D01*
X59232142Y-114335714D01*
X59136904Y-114383333D01*
X58327380Y-114383333D01*
X58422619Y-114811904D02*
X58375000Y-114859523D01*
X58327380Y-114954761D01*
X58327380Y-115192857D01*
X58375000Y-115288095D01*
X58422619Y-115335714D01*
X58517857Y-115383333D01*
X58613095Y-115383333D01*
X58755952Y-115335714D01*
X59327380Y-114764285D01*
X59327380Y-115383333D01*
X58327380Y-116240476D02*
X58327380Y-116050000D01*
X58375000Y-115954761D01*
X58422619Y-115907142D01*
X58565476Y-115811904D01*
X58755952Y-115764285D01*
X59136904Y-115764285D01*
X59232142Y-115811904D01*
X59279761Y-115859523D01*
X59327380Y-115954761D01*
X59327380Y-116145238D01*
X59279761Y-116240476D01*
X59232142Y-116288095D01*
X59136904Y-116335714D01*
X58898809Y-116335714D01*
X58803571Y-116288095D01*
X58755952Y-116240476D01*
X58708333Y-116145238D01*
X58708333Y-115954761D01*
X58755952Y-115859523D01*
X58803571Y-115811904D01*
X58898809Y-115764285D01*
G04 #@! TO.C,U27*
X70227380Y-113811904D02*
X71036904Y-113811904D01*
X71132142Y-113859523D01*
X71179761Y-113907142D01*
X71227380Y-114002380D01*
X71227380Y-114192857D01*
X71179761Y-114288095D01*
X71132142Y-114335714D01*
X71036904Y-114383333D01*
X70227380Y-114383333D01*
X70322619Y-114811904D02*
X70275000Y-114859523D01*
X70227380Y-114954761D01*
X70227380Y-115192857D01*
X70275000Y-115288095D01*
X70322619Y-115335714D01*
X70417857Y-115383333D01*
X70513095Y-115383333D01*
X70655952Y-115335714D01*
X71227380Y-114764285D01*
X71227380Y-115383333D01*
X70227380Y-115716666D02*
X70227380Y-116383333D01*
X71227380Y-115954761D01*
G04 #@! TO.C,U29*
X44927380Y-127811904D02*
X45736904Y-127811904D01*
X45832142Y-127859523D01*
X45879761Y-127907142D01*
X45927380Y-128002380D01*
X45927380Y-128192857D01*
X45879761Y-128288095D01*
X45832142Y-128335714D01*
X45736904Y-128383333D01*
X44927380Y-128383333D01*
X45022619Y-128811904D02*
X44975000Y-128859523D01*
X44927380Y-128954761D01*
X44927380Y-129192857D01*
X44975000Y-129288095D01*
X45022619Y-129335714D01*
X45117857Y-129383333D01*
X45213095Y-129383333D01*
X45355952Y-129335714D01*
X45927380Y-128764285D01*
X45927380Y-129383333D01*
X45927380Y-129859523D02*
X45927380Y-130050000D01*
X45879761Y-130145238D01*
X45832142Y-130192857D01*
X45689285Y-130288095D01*
X45498809Y-130335714D01*
X45117857Y-130335714D01*
X45022619Y-130288095D01*
X44975000Y-130240476D01*
X44927380Y-130145238D01*
X44927380Y-129954761D01*
X44975000Y-129859523D01*
X45022619Y-129811904D01*
X45117857Y-129764285D01*
X45355952Y-129764285D01*
X45451190Y-129811904D01*
X45498809Y-129859523D01*
X45546428Y-129954761D01*
X45546428Y-130145238D01*
X45498809Y-130240476D01*
X45451190Y-130288095D01*
X45355952Y-130335714D01*
G04 #@! TO.C,U30*
X58327380Y-127811904D02*
X59136904Y-127811904D01*
X59232142Y-127859523D01*
X59279761Y-127907142D01*
X59327380Y-128002380D01*
X59327380Y-128192857D01*
X59279761Y-128288095D01*
X59232142Y-128335714D01*
X59136904Y-128383333D01*
X58327380Y-128383333D01*
X58327380Y-128764285D02*
X58327380Y-129383333D01*
X58708333Y-129050000D01*
X58708333Y-129192857D01*
X58755952Y-129288095D01*
X58803571Y-129335714D01*
X58898809Y-129383333D01*
X59136904Y-129383333D01*
X59232142Y-129335714D01*
X59279761Y-129288095D01*
X59327380Y-129192857D01*
X59327380Y-128907142D01*
X59279761Y-128811904D01*
X59232142Y-128764285D01*
X58327380Y-130002380D02*
X58327380Y-130097619D01*
X58375000Y-130192857D01*
X58422619Y-130240476D01*
X58517857Y-130288095D01*
X58708333Y-130335714D01*
X58946428Y-130335714D01*
X59136904Y-130288095D01*
X59232142Y-130240476D01*
X59279761Y-130192857D01*
X59327380Y-130097619D01*
X59327380Y-130002380D01*
X59279761Y-129907142D01*
X59232142Y-129859523D01*
X59136904Y-129811904D01*
X58946428Y-129764285D01*
X58708333Y-129764285D01*
X58517857Y-129811904D01*
X58422619Y-129859523D01*
X58375000Y-129907142D01*
X58327380Y-130002380D01*
G04 #@! TO.C,U33*
X44927380Y-141911904D02*
X45736904Y-141911904D01*
X45832142Y-141959523D01*
X45879761Y-142007142D01*
X45927380Y-142102380D01*
X45927380Y-142292857D01*
X45879761Y-142388095D01*
X45832142Y-142435714D01*
X45736904Y-142483333D01*
X44927380Y-142483333D01*
X44927380Y-142864285D02*
X44927380Y-143483333D01*
X45308333Y-143150000D01*
X45308333Y-143292857D01*
X45355952Y-143388095D01*
X45403571Y-143435714D01*
X45498809Y-143483333D01*
X45736904Y-143483333D01*
X45832142Y-143435714D01*
X45879761Y-143388095D01*
X45927380Y-143292857D01*
X45927380Y-143007142D01*
X45879761Y-142911904D01*
X45832142Y-142864285D01*
X44927380Y-143816666D02*
X44927380Y-144435714D01*
X45308333Y-144102380D01*
X45308333Y-144245238D01*
X45355952Y-144340476D01*
X45403571Y-144388095D01*
X45498809Y-144435714D01*
X45736904Y-144435714D01*
X45832142Y-144388095D01*
X45879761Y-144340476D01*
X45927380Y-144245238D01*
X45927380Y-143959523D01*
X45879761Y-143864285D01*
X45832142Y-143816666D01*
G04 #@! TO.C,U34*
X58327380Y-141911904D02*
X59136904Y-141911904D01*
X59232142Y-141959523D01*
X59279761Y-142007142D01*
X59327380Y-142102380D01*
X59327380Y-142292857D01*
X59279761Y-142388095D01*
X59232142Y-142435714D01*
X59136904Y-142483333D01*
X58327380Y-142483333D01*
X58327380Y-142864285D02*
X58327380Y-143483333D01*
X58708333Y-143150000D01*
X58708333Y-143292857D01*
X58755952Y-143388095D01*
X58803571Y-143435714D01*
X58898809Y-143483333D01*
X59136904Y-143483333D01*
X59232142Y-143435714D01*
X59279761Y-143388095D01*
X59327380Y-143292857D01*
X59327380Y-143007142D01*
X59279761Y-142911904D01*
X59232142Y-142864285D01*
X58660714Y-144340476D02*
X59327380Y-144340476D01*
X58279761Y-144102380D02*
X58994047Y-143864285D01*
X58994047Y-144483333D01*
G04 #@! TO.C,U35*
X70227380Y-141911904D02*
X71036904Y-141911904D01*
X71132142Y-141959523D01*
X71179761Y-142007142D01*
X71227380Y-142102380D01*
X71227380Y-142292857D01*
X71179761Y-142388095D01*
X71132142Y-142435714D01*
X71036904Y-142483333D01*
X70227380Y-142483333D01*
X70227380Y-142864285D02*
X70227380Y-143483333D01*
X70608333Y-143150000D01*
X70608333Y-143292857D01*
X70655952Y-143388095D01*
X70703571Y-143435714D01*
X70798809Y-143483333D01*
X71036904Y-143483333D01*
X71132142Y-143435714D01*
X71179761Y-143388095D01*
X71227380Y-143292857D01*
X71227380Y-143007142D01*
X71179761Y-142911904D01*
X71132142Y-142864285D01*
X70227380Y-144388095D02*
X70227380Y-143911904D01*
X70703571Y-143864285D01*
X70655952Y-143911904D01*
X70608333Y-144007142D01*
X70608333Y-144245238D01*
X70655952Y-144340476D01*
X70703571Y-144388095D01*
X70798809Y-144435714D01*
X71036904Y-144435714D01*
X71132142Y-144388095D01*
X71179761Y-144340476D01*
X71227380Y-144245238D01*
X71227380Y-144007142D01*
X71179761Y-143911904D01*
X71132142Y-143864285D01*
G04 #@! TO.C,U38*
X58327380Y-155911904D02*
X59136904Y-155911904D01*
X59232142Y-155959523D01*
X59279761Y-156007142D01*
X59327380Y-156102380D01*
X59327380Y-156292857D01*
X59279761Y-156388095D01*
X59232142Y-156435714D01*
X59136904Y-156483333D01*
X58327380Y-156483333D01*
X58327380Y-156864285D02*
X58327380Y-157483333D01*
X58708333Y-157150000D01*
X58708333Y-157292857D01*
X58755952Y-157388095D01*
X58803571Y-157435714D01*
X58898809Y-157483333D01*
X59136904Y-157483333D01*
X59232142Y-157435714D01*
X59279761Y-157388095D01*
X59327380Y-157292857D01*
X59327380Y-157007142D01*
X59279761Y-156911904D01*
X59232142Y-156864285D01*
X58755952Y-158054761D02*
X58708333Y-157959523D01*
X58660714Y-157911904D01*
X58565476Y-157864285D01*
X58517857Y-157864285D01*
X58422619Y-157911904D01*
X58375000Y-157959523D01*
X58327380Y-158054761D01*
X58327380Y-158245238D01*
X58375000Y-158340476D01*
X58422619Y-158388095D01*
X58517857Y-158435714D01*
X58565476Y-158435714D01*
X58660714Y-158388095D01*
X58708333Y-158340476D01*
X58755952Y-158245238D01*
X58755952Y-158054761D01*
X58803571Y-157959523D01*
X58851190Y-157911904D01*
X58946428Y-157864285D01*
X59136904Y-157864285D01*
X59232142Y-157911904D01*
X59279761Y-157959523D01*
X59327380Y-158054761D01*
X59327380Y-158245238D01*
X59279761Y-158340476D01*
X59232142Y-158388095D01*
X59136904Y-158435714D01*
X58946428Y-158435714D01*
X58851190Y-158388095D01*
X58803571Y-158340476D01*
X58755952Y-158245238D01*
G04 #@! TO.C,U39*
X70227380Y-155911904D02*
X71036904Y-155911904D01*
X71132142Y-155959523D01*
X71179761Y-156007142D01*
X71227380Y-156102380D01*
X71227380Y-156292857D01*
X71179761Y-156388095D01*
X71132142Y-156435714D01*
X71036904Y-156483333D01*
X70227380Y-156483333D01*
X70227380Y-156864285D02*
X70227380Y-157483333D01*
X70608333Y-157150000D01*
X70608333Y-157292857D01*
X70655952Y-157388095D01*
X70703571Y-157435714D01*
X70798809Y-157483333D01*
X71036904Y-157483333D01*
X71132142Y-157435714D01*
X71179761Y-157388095D01*
X71227380Y-157292857D01*
X71227380Y-157007142D01*
X71179761Y-156911904D01*
X71132142Y-156864285D01*
X71227380Y-157959523D02*
X71227380Y-158150000D01*
X71179761Y-158245238D01*
X71132142Y-158292857D01*
X70989285Y-158388095D01*
X70798809Y-158435714D01*
X70417857Y-158435714D01*
X70322619Y-158388095D01*
X70275000Y-158340476D01*
X70227380Y-158245238D01*
X70227380Y-158054761D01*
X70275000Y-157959523D01*
X70322619Y-157911904D01*
X70417857Y-157864285D01*
X70655952Y-157864285D01*
X70751190Y-157911904D01*
X70798809Y-157959523D01*
X70846428Y-158054761D01*
X70846428Y-158245238D01*
X70798809Y-158340476D01*
X70751190Y-158388095D01*
X70655952Y-158435714D01*
G04 #@! TO.C,U41*
X22242380Y-155391904D02*
X23051904Y-155391904D01*
X23147142Y-155439523D01*
X23194761Y-155487142D01*
X23242380Y-155582380D01*
X23242380Y-155772857D01*
X23194761Y-155868095D01*
X23147142Y-155915714D01*
X23051904Y-155963333D01*
X22242380Y-155963333D01*
X22575714Y-156868095D02*
X23242380Y-156868095D01*
X22194761Y-156630000D02*
X22909047Y-156391904D01*
X22909047Y-157010952D01*
X23242380Y-157915714D02*
X23242380Y-157344285D01*
X23242380Y-157630000D02*
X22242380Y-157630000D01*
X22385238Y-157534761D01*
X22480476Y-157439523D01*
X22528095Y-157344285D01*
G04 #@! TO.C,U42*
X22002380Y-83711904D02*
X22811904Y-83711904D01*
X22907142Y-83759523D01*
X22954761Y-83807142D01*
X23002380Y-83902380D01*
X23002380Y-84092857D01*
X22954761Y-84188095D01*
X22907142Y-84235714D01*
X22811904Y-84283333D01*
X22002380Y-84283333D01*
X22335714Y-85188095D02*
X23002380Y-85188095D01*
X21954761Y-84950000D02*
X22669047Y-84711904D01*
X22669047Y-85330952D01*
X22097619Y-85664285D02*
X22050000Y-85711904D01*
X22002380Y-85807142D01*
X22002380Y-86045238D01*
X22050000Y-86140476D01*
X22097619Y-86188095D01*
X22192857Y-86235714D01*
X22288095Y-86235714D01*
X22430952Y-86188095D01*
X23002380Y-85616666D01*
X23002380Y-86235714D01*
G04 #@! TO.C,C45*
X19432857Y-139667142D02*
X19480476Y-139714761D01*
X19623333Y-139762380D01*
X19718571Y-139762380D01*
X19861428Y-139714761D01*
X19956666Y-139619523D01*
X20004285Y-139524285D01*
X20051904Y-139333809D01*
X20051904Y-139190952D01*
X20004285Y-139000476D01*
X19956666Y-138905238D01*
X19861428Y-138810000D01*
X19718571Y-138762380D01*
X19623333Y-138762380D01*
X19480476Y-138810000D01*
X19432857Y-138857619D01*
X18575714Y-139095714D02*
X18575714Y-139762380D01*
X18813809Y-138714761D02*
X19051904Y-139429047D01*
X18432857Y-139429047D01*
X17575714Y-138762380D02*
X18051904Y-138762380D01*
X18099523Y-139238571D01*
X18051904Y-139190952D01*
X17956666Y-139143333D01*
X17718571Y-139143333D01*
X17623333Y-139190952D01*
X17575714Y-139238571D01*
X17528095Y-139333809D01*
X17528095Y-139571904D01*
X17575714Y-139667142D01*
X17623333Y-139714761D01*
X17718571Y-139762380D01*
X17956666Y-139762380D01*
X18051904Y-139714761D01*
X18099523Y-139667142D01*
G04 #@! TO.C,C48*
X25372857Y-139557142D02*
X25420476Y-139604761D01*
X25563333Y-139652380D01*
X25658571Y-139652380D01*
X25801428Y-139604761D01*
X25896666Y-139509523D01*
X25944285Y-139414285D01*
X25991904Y-139223809D01*
X25991904Y-139080952D01*
X25944285Y-138890476D01*
X25896666Y-138795238D01*
X25801428Y-138700000D01*
X25658571Y-138652380D01*
X25563333Y-138652380D01*
X25420476Y-138700000D01*
X25372857Y-138747619D01*
X24515714Y-138985714D02*
X24515714Y-139652380D01*
X24753809Y-138604761D02*
X24991904Y-139319047D01*
X24372857Y-139319047D01*
X23849047Y-139080952D02*
X23944285Y-139033333D01*
X23991904Y-138985714D01*
X24039523Y-138890476D01*
X24039523Y-138842857D01*
X23991904Y-138747619D01*
X23944285Y-138700000D01*
X23849047Y-138652380D01*
X23658571Y-138652380D01*
X23563333Y-138700000D01*
X23515714Y-138747619D01*
X23468095Y-138842857D01*
X23468095Y-138890476D01*
X23515714Y-138985714D01*
X23563333Y-139033333D01*
X23658571Y-139080952D01*
X23849047Y-139080952D01*
X23944285Y-139128571D01*
X23991904Y-139176190D01*
X24039523Y-139271428D01*
X24039523Y-139461904D01*
X23991904Y-139557142D01*
X23944285Y-139604761D01*
X23849047Y-139652380D01*
X23658571Y-139652380D01*
X23563333Y-139604761D01*
X23515714Y-139557142D01*
X23468095Y-139461904D01*
X23468095Y-139271428D01*
X23515714Y-139176190D01*
X23563333Y-139128571D01*
X23658571Y-139080952D01*
G04 #@! TO.C,C49*
X21032857Y-129927142D02*
X21080476Y-129974761D01*
X21223333Y-130022380D01*
X21318571Y-130022380D01*
X21461428Y-129974761D01*
X21556666Y-129879523D01*
X21604285Y-129784285D01*
X21651904Y-129593809D01*
X21651904Y-129450952D01*
X21604285Y-129260476D01*
X21556666Y-129165238D01*
X21461428Y-129070000D01*
X21318571Y-129022380D01*
X21223333Y-129022380D01*
X21080476Y-129070000D01*
X21032857Y-129117619D01*
X20175714Y-129355714D02*
X20175714Y-130022380D01*
X20413809Y-128974761D02*
X20651904Y-129689047D01*
X20032857Y-129689047D01*
X19604285Y-130022380D02*
X19413809Y-130022380D01*
X19318571Y-129974761D01*
X19270952Y-129927142D01*
X19175714Y-129784285D01*
X19128095Y-129593809D01*
X19128095Y-129212857D01*
X19175714Y-129117619D01*
X19223333Y-129070000D01*
X19318571Y-129022380D01*
X19509047Y-129022380D01*
X19604285Y-129070000D01*
X19651904Y-129117619D01*
X19699523Y-129212857D01*
X19699523Y-129450952D01*
X19651904Y-129546190D01*
X19604285Y-129593809D01*
X19509047Y-129641428D01*
X19318571Y-129641428D01*
X19223333Y-129593809D01*
X19175714Y-129546190D01*
X19128095Y-129450952D01*
G04 #@! TO.C,C50*
X16372857Y-90997142D02*
X16420476Y-91044761D01*
X16563333Y-91092380D01*
X16658571Y-91092380D01*
X16801428Y-91044761D01*
X16896666Y-90949523D01*
X16944285Y-90854285D01*
X16991904Y-90663809D01*
X16991904Y-90520952D01*
X16944285Y-90330476D01*
X16896666Y-90235238D01*
X16801428Y-90140000D01*
X16658571Y-90092380D01*
X16563333Y-90092380D01*
X16420476Y-90140000D01*
X16372857Y-90187619D01*
X15468095Y-90092380D02*
X15944285Y-90092380D01*
X15991904Y-90568571D01*
X15944285Y-90520952D01*
X15849047Y-90473333D01*
X15610952Y-90473333D01*
X15515714Y-90520952D01*
X15468095Y-90568571D01*
X15420476Y-90663809D01*
X15420476Y-90901904D01*
X15468095Y-90997142D01*
X15515714Y-91044761D01*
X15610952Y-91092380D01*
X15849047Y-91092380D01*
X15944285Y-91044761D01*
X15991904Y-90997142D01*
X14801428Y-90092380D02*
X14706190Y-90092380D01*
X14610952Y-90140000D01*
X14563333Y-90187619D01*
X14515714Y-90282857D01*
X14468095Y-90473333D01*
X14468095Y-90711428D01*
X14515714Y-90901904D01*
X14563333Y-90997142D01*
X14610952Y-91044761D01*
X14706190Y-91092380D01*
X14801428Y-91092380D01*
X14896666Y-91044761D01*
X14944285Y-90997142D01*
X14991904Y-90901904D01*
X15039523Y-90711428D01*
X15039523Y-90473333D01*
X14991904Y-90282857D01*
X14944285Y-90187619D01*
X14896666Y-90140000D01*
X14801428Y-90092380D01*
G04 #@! TO.C,C52*
X16342857Y-78327142D02*
X16390476Y-78374761D01*
X16533333Y-78422380D01*
X16628571Y-78422380D01*
X16771428Y-78374761D01*
X16866666Y-78279523D01*
X16914285Y-78184285D01*
X16961904Y-77993809D01*
X16961904Y-77850952D01*
X16914285Y-77660476D01*
X16866666Y-77565238D01*
X16771428Y-77470000D01*
X16628571Y-77422380D01*
X16533333Y-77422380D01*
X16390476Y-77470000D01*
X16342857Y-77517619D01*
X15438095Y-77422380D02*
X15914285Y-77422380D01*
X15961904Y-77898571D01*
X15914285Y-77850952D01*
X15819047Y-77803333D01*
X15580952Y-77803333D01*
X15485714Y-77850952D01*
X15438095Y-77898571D01*
X15390476Y-77993809D01*
X15390476Y-78231904D01*
X15438095Y-78327142D01*
X15485714Y-78374761D01*
X15580952Y-78422380D01*
X15819047Y-78422380D01*
X15914285Y-78374761D01*
X15961904Y-78327142D01*
X15009523Y-77517619D02*
X14961904Y-77470000D01*
X14866666Y-77422380D01*
X14628571Y-77422380D01*
X14533333Y-77470000D01*
X14485714Y-77517619D01*
X14438095Y-77612857D01*
X14438095Y-77708095D01*
X14485714Y-77850952D01*
X15057142Y-78422380D01*
X14438095Y-78422380D01*
G04 #@! TO.C,C54*
X20662857Y-79377142D02*
X20710476Y-79424761D01*
X20853333Y-79472380D01*
X20948571Y-79472380D01*
X21091428Y-79424761D01*
X21186666Y-79329523D01*
X21234285Y-79234285D01*
X21281904Y-79043809D01*
X21281904Y-78900952D01*
X21234285Y-78710476D01*
X21186666Y-78615238D01*
X21091428Y-78520000D01*
X20948571Y-78472380D01*
X20853333Y-78472380D01*
X20710476Y-78520000D01*
X20662857Y-78567619D01*
X19758095Y-78472380D02*
X20234285Y-78472380D01*
X20281904Y-78948571D01*
X20234285Y-78900952D01*
X20139047Y-78853333D01*
X19900952Y-78853333D01*
X19805714Y-78900952D01*
X19758095Y-78948571D01*
X19710476Y-79043809D01*
X19710476Y-79281904D01*
X19758095Y-79377142D01*
X19805714Y-79424761D01*
X19900952Y-79472380D01*
X20139047Y-79472380D01*
X20234285Y-79424761D01*
X20281904Y-79377142D01*
X18853333Y-78805714D02*
X18853333Y-79472380D01*
X19091428Y-78424761D02*
X19329523Y-79139047D01*
X18710476Y-79139047D01*
G04 #@! TO.C,C55*
X21082857Y-68467142D02*
X21130476Y-68514761D01*
X21273333Y-68562380D01*
X21368571Y-68562380D01*
X21511428Y-68514761D01*
X21606666Y-68419523D01*
X21654285Y-68324285D01*
X21701904Y-68133809D01*
X21701904Y-67990952D01*
X21654285Y-67800476D01*
X21606666Y-67705238D01*
X21511428Y-67610000D01*
X21368571Y-67562380D01*
X21273333Y-67562380D01*
X21130476Y-67610000D01*
X21082857Y-67657619D01*
X20178095Y-67562380D02*
X20654285Y-67562380D01*
X20701904Y-68038571D01*
X20654285Y-67990952D01*
X20559047Y-67943333D01*
X20320952Y-67943333D01*
X20225714Y-67990952D01*
X20178095Y-68038571D01*
X20130476Y-68133809D01*
X20130476Y-68371904D01*
X20178095Y-68467142D01*
X20225714Y-68514761D01*
X20320952Y-68562380D01*
X20559047Y-68562380D01*
X20654285Y-68514761D01*
X20701904Y-68467142D01*
X19225714Y-67562380D02*
X19701904Y-67562380D01*
X19749523Y-68038571D01*
X19701904Y-67990952D01*
X19606666Y-67943333D01*
X19368571Y-67943333D01*
X19273333Y-67990952D01*
X19225714Y-68038571D01*
X19178095Y-68133809D01*
X19178095Y-68371904D01*
X19225714Y-68467142D01*
X19273333Y-68514761D01*
X19368571Y-68562380D01*
X19606666Y-68562380D01*
X19701904Y-68514761D01*
X19749523Y-68467142D01*
G04 #@! TO.C,U45*
X24758095Y-140532380D02*
X24758095Y-141341904D01*
X24710476Y-141437142D01*
X24662857Y-141484761D01*
X24567619Y-141532380D01*
X24377142Y-141532380D01*
X24281904Y-141484761D01*
X24234285Y-141437142D01*
X24186666Y-141341904D01*
X24186666Y-140532380D01*
X23281904Y-140865714D02*
X23281904Y-141532380D01*
X23520000Y-140484761D02*
X23758095Y-141199047D01*
X23139047Y-141199047D01*
X22281904Y-140532380D02*
X22758095Y-140532380D01*
X22805714Y-141008571D01*
X22758095Y-140960952D01*
X22662857Y-140913333D01*
X22424761Y-140913333D01*
X22329523Y-140960952D01*
X22281904Y-141008571D01*
X22234285Y-141103809D01*
X22234285Y-141341904D01*
X22281904Y-141437142D01*
X22329523Y-141484761D01*
X22424761Y-141532380D01*
X22662857Y-141532380D01*
X22758095Y-141484761D01*
X22805714Y-141437142D01*
G04 #@! TO.C,U48*
X25048095Y-137042380D02*
X25048095Y-137851904D01*
X25000476Y-137947142D01*
X24952857Y-137994761D01*
X24857619Y-138042380D01*
X24667142Y-138042380D01*
X24571904Y-137994761D01*
X24524285Y-137947142D01*
X24476666Y-137851904D01*
X24476666Y-137042380D01*
X23571904Y-137375714D02*
X23571904Y-138042380D01*
X23810000Y-136994761D02*
X24048095Y-137709047D01*
X23429047Y-137709047D01*
X22905238Y-137470952D02*
X23000476Y-137423333D01*
X23048095Y-137375714D01*
X23095714Y-137280476D01*
X23095714Y-137232857D01*
X23048095Y-137137619D01*
X23000476Y-137090000D01*
X22905238Y-137042380D01*
X22714761Y-137042380D01*
X22619523Y-137090000D01*
X22571904Y-137137619D01*
X22524285Y-137232857D01*
X22524285Y-137280476D01*
X22571904Y-137375714D01*
X22619523Y-137423333D01*
X22714761Y-137470952D01*
X22905238Y-137470952D01*
X23000476Y-137518571D01*
X23048095Y-137566190D01*
X23095714Y-137661428D01*
X23095714Y-137851904D01*
X23048095Y-137947142D01*
X23000476Y-137994761D01*
X22905238Y-138042380D01*
X22714761Y-138042380D01*
X22619523Y-137994761D01*
X22571904Y-137947142D01*
X22524285Y-137851904D01*
X22524285Y-137661428D01*
X22571904Y-137566190D01*
X22619523Y-137518571D01*
X22714761Y-137470952D01*
G04 #@! TO.C,U49*
X18178095Y-127542380D02*
X18178095Y-128351904D01*
X18130476Y-128447142D01*
X18082857Y-128494761D01*
X17987619Y-128542380D01*
X17797142Y-128542380D01*
X17701904Y-128494761D01*
X17654285Y-128447142D01*
X17606666Y-128351904D01*
X17606666Y-127542380D01*
X16701904Y-127875714D02*
X16701904Y-128542380D01*
X16940000Y-127494761D02*
X17178095Y-128209047D01*
X16559047Y-128209047D01*
X16130476Y-128542380D02*
X15940000Y-128542380D01*
X15844761Y-128494761D01*
X15797142Y-128447142D01*
X15701904Y-128304285D01*
X15654285Y-128113809D01*
X15654285Y-127732857D01*
X15701904Y-127637619D01*
X15749523Y-127590000D01*
X15844761Y-127542380D01*
X16035238Y-127542380D01*
X16130476Y-127590000D01*
X16178095Y-127637619D01*
X16225714Y-127732857D01*
X16225714Y-127970952D01*
X16178095Y-128066190D01*
X16130476Y-128113809D01*
X16035238Y-128161428D01*
X15844761Y-128161428D01*
X15749523Y-128113809D01*
X15701904Y-128066190D01*
X15654285Y-127970952D01*
G04 #@! TO.C,U50*
X20298095Y-91762380D02*
X20298095Y-92571904D01*
X20250476Y-92667142D01*
X20202857Y-92714761D01*
X20107619Y-92762380D01*
X19917142Y-92762380D01*
X19821904Y-92714761D01*
X19774285Y-92667142D01*
X19726666Y-92571904D01*
X19726666Y-91762380D01*
X18774285Y-91762380D02*
X19250476Y-91762380D01*
X19298095Y-92238571D01*
X19250476Y-92190952D01*
X19155238Y-92143333D01*
X18917142Y-92143333D01*
X18821904Y-92190952D01*
X18774285Y-92238571D01*
X18726666Y-92333809D01*
X18726666Y-92571904D01*
X18774285Y-92667142D01*
X18821904Y-92714761D01*
X18917142Y-92762380D01*
X19155238Y-92762380D01*
X19250476Y-92714761D01*
X19298095Y-92667142D01*
X18107619Y-91762380D02*
X18012380Y-91762380D01*
X17917142Y-91810000D01*
X17869523Y-91857619D01*
X17821904Y-91952857D01*
X17774285Y-92143333D01*
X17774285Y-92381428D01*
X17821904Y-92571904D01*
X17869523Y-92667142D01*
X17917142Y-92714761D01*
X18012380Y-92762380D01*
X18107619Y-92762380D01*
X18202857Y-92714761D01*
X18250476Y-92667142D01*
X18298095Y-92571904D01*
X18345714Y-92381428D01*
X18345714Y-92143333D01*
X18298095Y-91952857D01*
X18250476Y-91857619D01*
X18202857Y-91810000D01*
X18107619Y-91762380D01*
G04 #@! TO.C,U52*
X19188095Y-78827380D02*
X19188095Y-79636904D01*
X19140476Y-79732142D01*
X19092857Y-79779761D01*
X18997619Y-79827380D01*
X18807142Y-79827380D01*
X18711904Y-79779761D01*
X18664285Y-79732142D01*
X18616666Y-79636904D01*
X18616666Y-78827380D01*
X17664285Y-78827380D02*
X18140476Y-78827380D01*
X18188095Y-79303571D01*
X18140476Y-79255952D01*
X18045238Y-79208333D01*
X17807142Y-79208333D01*
X17711904Y-79255952D01*
X17664285Y-79303571D01*
X17616666Y-79398809D01*
X17616666Y-79636904D01*
X17664285Y-79732142D01*
X17711904Y-79779761D01*
X17807142Y-79827380D01*
X18045238Y-79827380D01*
X18140476Y-79779761D01*
X18188095Y-79732142D01*
X17235714Y-78922619D02*
X17188095Y-78875000D01*
X17092857Y-78827380D01*
X16854761Y-78827380D01*
X16759523Y-78875000D01*
X16711904Y-78922619D01*
X16664285Y-79017857D01*
X16664285Y-79113095D01*
X16711904Y-79255952D01*
X17283333Y-79827380D01*
X16664285Y-79827380D01*
G04 #@! TO.C,U54*
X19188095Y-77077380D02*
X19188095Y-77886904D01*
X19140476Y-77982142D01*
X19092857Y-78029761D01*
X18997619Y-78077380D01*
X18807142Y-78077380D01*
X18711904Y-78029761D01*
X18664285Y-77982142D01*
X18616666Y-77886904D01*
X18616666Y-77077380D01*
X17664285Y-77077380D02*
X18140476Y-77077380D01*
X18188095Y-77553571D01*
X18140476Y-77505952D01*
X18045238Y-77458333D01*
X17807142Y-77458333D01*
X17711904Y-77505952D01*
X17664285Y-77553571D01*
X17616666Y-77648809D01*
X17616666Y-77886904D01*
X17664285Y-77982142D01*
X17711904Y-78029761D01*
X17807142Y-78077380D01*
X18045238Y-78077380D01*
X18140476Y-78029761D01*
X18188095Y-77982142D01*
X16759523Y-77410714D02*
X16759523Y-78077380D01*
X16997619Y-77029761D02*
X17235714Y-77744047D01*
X16616666Y-77744047D01*
G04 #@! TO.C,U55*
X17698095Y-66202380D02*
X17698095Y-67011904D01*
X17650476Y-67107142D01*
X17602857Y-67154761D01*
X17507619Y-67202380D01*
X17317142Y-67202380D01*
X17221904Y-67154761D01*
X17174285Y-67107142D01*
X17126666Y-67011904D01*
X17126666Y-66202380D01*
X16174285Y-66202380D02*
X16650476Y-66202380D01*
X16698095Y-66678571D01*
X16650476Y-66630952D01*
X16555238Y-66583333D01*
X16317142Y-66583333D01*
X16221904Y-66630952D01*
X16174285Y-66678571D01*
X16126666Y-66773809D01*
X16126666Y-67011904D01*
X16174285Y-67107142D01*
X16221904Y-67154761D01*
X16317142Y-67202380D01*
X16555238Y-67202380D01*
X16650476Y-67154761D01*
X16698095Y-67107142D01*
X15221904Y-66202380D02*
X15698095Y-66202380D01*
X15745714Y-66678571D01*
X15698095Y-66630952D01*
X15602857Y-66583333D01*
X15364761Y-66583333D01*
X15269523Y-66630952D01*
X15221904Y-66678571D01*
X15174285Y-66773809D01*
X15174285Y-67011904D01*
X15221904Y-67107142D01*
X15269523Y-67154761D01*
X15364761Y-67202380D01*
X15602857Y-67202380D01*
X15698095Y-67154761D01*
X15745714Y-67107142D01*
G04 #@! TD*
M02*
