G04 #@! TF.GenerationSoftware,KiCad,Pcbnew,(5.0.0-rc2-35-gda6600525)*
G04 #@! TF.CreationDate,2018-07-07T16:01:35-07:00*
G04 #@! TF.ProjectId,alu,616C752E6B696361645F706362000000,rev?*
G04 #@! TF.SameCoordinates,Original*
G04 #@! TF.FileFunction,Soldermask,Bot*
G04 #@! TF.FilePolarity,Negative*
%FSLAX46Y46*%
G04 Gerber Fmt 4.6, Leading zero omitted, Abs format (unit mm)*
G04 Created by KiCad (PCBNEW (5.0.0-rc2-35-gda6600525)) date 07/07/18 16:01:35*
%MOMM*%
%LPD*%
G01*
G04 APERTURE LIST*
%ADD10R,0.450000X1.450000*%
%ADD11C,1.797000*%
%ADD12R,1.397000X1.397000*%
%ADD13R,0.800000X0.750000*%
%ADD14R,0.750000X0.800000*%
%ADD15R,4.400000X0.700000*%
%ADD16R,1.450000X0.450000*%
%ADD17C,2.400000*%
%ADD18R,2.000000X2.000000*%
G04 APERTURE END LIST*
D10*
G04 #@! TO.C,U31*
X72150000Y-126100000D03*
X72800000Y-126100000D03*
X73450000Y-126100000D03*
X74100000Y-126100000D03*
X74750000Y-126100000D03*
X75400000Y-126100000D03*
X76050000Y-126100000D03*
X76700000Y-126100000D03*
X77350000Y-126100000D03*
X78000000Y-126100000D03*
X78000000Y-132000000D03*
X77350000Y-132000000D03*
X76700000Y-132000000D03*
X76050000Y-132000000D03*
X75400000Y-132000000D03*
X74750000Y-132000000D03*
X74100000Y-132000000D03*
X73450000Y-132000000D03*
X72800000Y-132000000D03*
X72150000Y-132000000D03*
G04 #@! TD*
G04 #@! TO.C,U37*
X46850000Y-160100000D03*
X47500000Y-160100000D03*
X48150000Y-160100000D03*
X48800000Y-160100000D03*
X49450000Y-160100000D03*
X50100000Y-160100000D03*
X50750000Y-160100000D03*
X51400000Y-160100000D03*
X52050000Y-160100000D03*
X52700000Y-160100000D03*
X52700000Y-154200000D03*
X52050000Y-154200000D03*
X51400000Y-154200000D03*
X50750000Y-154200000D03*
X50100000Y-154200000D03*
X49450000Y-154200000D03*
X48800000Y-154200000D03*
X48150000Y-154200000D03*
X47500000Y-154200000D03*
X46850000Y-154200000D03*
G04 #@! TD*
D11*
G04 #@! TO.C,U2*
X74000000Y-36000000D03*
X76540000Y-38540000D03*
X71460000Y-36000000D03*
X74000000Y-38540000D03*
X74000000Y-41080000D03*
X76540000Y-41080000D03*
X74000000Y-43620000D03*
X76540000Y-43620000D03*
X74000000Y-46160000D03*
X76540000Y-46160000D03*
X74000000Y-48700000D03*
X76540000Y-48700000D03*
X74000000Y-51240000D03*
X71460000Y-48700000D03*
X71460000Y-51240000D03*
X68920000Y-48700000D03*
X68920000Y-51240000D03*
X66380000Y-48700000D03*
X66380000Y-51240000D03*
X63840000Y-48700000D03*
X66380000Y-46160000D03*
X63840000Y-46160000D03*
X66380000Y-43620000D03*
X63840000Y-43620000D03*
X66380000Y-41080000D03*
X63840000Y-41080000D03*
X66380000Y-38540000D03*
X63840000Y-38540000D03*
X66380000Y-36000000D03*
X68920000Y-38540000D03*
X68920000Y-36000000D03*
D12*
X71460000Y-38540000D03*
G04 #@! TD*
D13*
G04 #@! TO.C,C2*
X71410000Y-34120000D03*
X72910000Y-34120000D03*
G04 #@! TD*
D14*
G04 #@! TO.C,C3*
X103100000Y-34610000D03*
X103100000Y-36110000D03*
G04 #@! TD*
G04 #@! TO.C,C5*
X46150000Y-66720000D03*
X46150000Y-65220000D03*
G04 #@! TD*
G04 #@! TO.C,C6*
X59560000Y-66690000D03*
X59560000Y-65190000D03*
G04 #@! TD*
G04 #@! TO.C,C7*
X71770000Y-66670000D03*
X71770000Y-65170000D03*
G04 #@! TD*
G04 #@! TO.C,C8*
X80160000Y-118120000D03*
X80160000Y-119620000D03*
G04 #@! TD*
G04 #@! TO.C,C9*
X93580000Y-121320000D03*
X93580000Y-119820000D03*
G04 #@! TD*
G04 #@! TO.C,C10*
X106720000Y-120010000D03*
X106720000Y-121510000D03*
G04 #@! TD*
G04 #@! TO.C,C12*
X45410000Y-77150000D03*
X45410000Y-78650000D03*
G04 #@! TD*
G04 #@! TO.C,C13*
X59590000Y-80300000D03*
X59590000Y-78800000D03*
G04 #@! TD*
G04 #@! TO.C,C14*
X71660000Y-78810000D03*
X71660000Y-80310000D03*
G04 #@! TD*
G04 #@! TO.C,C17*
X45390000Y-92240000D03*
X45390000Y-90740000D03*
G04 #@! TD*
G04 #@! TO.C,C18*
X59580000Y-92400000D03*
X59580000Y-93900000D03*
G04 #@! TD*
G04 #@! TO.C,C19*
X71730000Y-93920000D03*
X71730000Y-92420000D03*
G04 #@! TD*
G04 #@! TO.C,C21*
X45430000Y-104340000D03*
X45430000Y-105840000D03*
G04 #@! TD*
G04 #@! TO.C,C22*
X59570000Y-106080000D03*
X59570000Y-107580000D03*
G04 #@! TD*
G04 #@! TO.C,C23*
X71590000Y-107600000D03*
X71590000Y-106100000D03*
G04 #@! TD*
G04 #@! TO.C,C25*
X45430000Y-119590000D03*
X45430000Y-118090000D03*
G04 #@! TD*
G04 #@! TO.C,C26*
X59550000Y-121270000D03*
X59550000Y-119770000D03*
G04 #@! TD*
G04 #@! TO.C,C27*
X71590000Y-121290000D03*
X71590000Y-119790000D03*
G04 #@! TD*
G04 #@! TO.C,C29*
X45450000Y-133720000D03*
X45450000Y-132220000D03*
G04 #@! TD*
G04 #@! TO.C,C30*
X59590000Y-133760000D03*
X59590000Y-135260000D03*
G04 #@! TD*
G04 #@! TO.C,C31*
X71620000Y-133980000D03*
X71620000Y-135480000D03*
G04 #@! TD*
G04 #@! TO.C,C33*
X45440000Y-147970000D03*
X45440000Y-146470000D03*
G04 #@! TD*
G04 #@! TO.C,C34*
X59840000Y-147920000D03*
X59840000Y-149420000D03*
G04 #@! TD*
G04 #@! TO.C,C35*
X71570000Y-149390000D03*
X71570000Y-147890000D03*
G04 #@! TD*
G04 #@! TO.C,C37*
X45360000Y-161790000D03*
X45360000Y-160290000D03*
G04 #@! TD*
G04 #@! TO.C,C38*
X58930000Y-161790000D03*
X58930000Y-163290000D03*
G04 #@! TD*
G04 #@! TO.C,C39*
X72040000Y-163430000D03*
X72040000Y-161930000D03*
G04 #@! TD*
D13*
G04 #@! TO.C,C41*
X14950000Y-152180000D03*
X16450000Y-152180000D03*
G04 #@! TD*
G04 #@! TO.C,C42*
X25600000Y-89760000D03*
X24100000Y-89760000D03*
G04 #@! TD*
D15*
G04 #@! TO.C,P1*
X7100000Y-163000000D03*
X7100000Y-162000000D03*
X7100000Y-161000000D03*
X7100000Y-160000000D03*
X7100000Y-159000000D03*
X7100000Y-158000000D03*
X7100000Y-157000000D03*
X7100000Y-156000000D03*
X7100000Y-155000000D03*
X7100000Y-154000000D03*
X7100000Y-153000000D03*
X7100000Y-150000000D03*
X7100000Y-149000000D03*
X7100000Y-148000000D03*
X7100000Y-147000000D03*
X7100000Y-146000000D03*
X7100000Y-145000000D03*
X7100000Y-144000000D03*
X7100000Y-143000000D03*
X7100000Y-142000000D03*
X7100000Y-141000000D03*
X7100000Y-140000000D03*
X7100000Y-139000000D03*
X7100000Y-138000000D03*
X7100000Y-137000000D03*
X7100000Y-136000000D03*
X7100000Y-135000000D03*
X7100000Y-134000000D03*
X7100000Y-133000000D03*
X7100000Y-132000000D03*
X7100000Y-131000000D03*
X7100000Y-130000000D03*
X7100000Y-129000000D03*
X7100000Y-128000000D03*
X7100000Y-127000000D03*
X7100000Y-126000000D03*
X7100000Y-125000000D03*
X7100000Y-124000000D03*
X7100000Y-123000000D03*
X7100000Y-122000000D03*
X7100000Y-121000000D03*
X7100000Y-120000000D03*
X7100000Y-119000000D03*
X7100000Y-118000000D03*
X7100000Y-117000000D03*
X7100000Y-116000000D03*
X7100000Y-115000000D03*
X7100000Y-114000000D03*
X7100000Y-113000000D03*
X7100000Y-103000000D03*
X7100000Y-90000000D03*
X7100000Y-102000000D03*
X7100000Y-101000000D03*
X7100000Y-100000000D03*
X7100000Y-99000000D03*
X7100000Y-98000000D03*
X7100000Y-97000000D03*
X7100000Y-96000000D03*
X7100000Y-95000000D03*
X7100000Y-94000000D03*
X7100000Y-93000000D03*
X7100000Y-89000000D03*
X7100000Y-88000000D03*
X7100000Y-87000000D03*
X7100000Y-86000000D03*
X7100000Y-85000000D03*
X7100000Y-84000000D03*
X7100000Y-83000000D03*
X7100000Y-82000000D03*
X7100000Y-81000000D03*
X7100000Y-80000000D03*
X7100000Y-79000000D03*
X7100000Y-78000000D03*
X7100000Y-77000000D03*
X7100000Y-76000000D03*
X7100000Y-75000000D03*
X7100000Y-74000000D03*
X7100000Y-73000000D03*
X7100000Y-72000000D03*
X7100000Y-71000000D03*
X7100000Y-70000000D03*
X7100000Y-69000000D03*
X7100000Y-68000000D03*
X7100000Y-67000000D03*
X7100000Y-66000000D03*
X7100000Y-65000000D03*
X7100000Y-64000000D03*
X7100000Y-63000000D03*
X7100000Y-62000000D03*
X7100000Y-61000000D03*
X7100000Y-60000000D03*
X7100000Y-59000000D03*
X7100000Y-58000000D03*
X7100000Y-57000000D03*
X7100000Y-56000000D03*
X7100000Y-55000000D03*
X7100000Y-54000000D03*
X7100000Y-53000000D03*
G04 #@! TD*
D12*
G04 #@! TO.C,U3*
X98020000Y-38640000D03*
D11*
X95480000Y-36100000D03*
X95480000Y-38640000D03*
X92940000Y-36100000D03*
X90400000Y-38640000D03*
X92940000Y-38640000D03*
X90400000Y-41180000D03*
X92940000Y-41180000D03*
X90400000Y-43720000D03*
X92940000Y-43720000D03*
X90400000Y-46260000D03*
X92940000Y-46260000D03*
X90400000Y-48800000D03*
X92940000Y-51340000D03*
X92940000Y-48800000D03*
X95480000Y-51340000D03*
X95480000Y-48800000D03*
X98020000Y-51340000D03*
X98020000Y-48800000D03*
X100560000Y-51340000D03*
X103100000Y-48800000D03*
X100560000Y-48800000D03*
X103100000Y-46260000D03*
X100560000Y-46260000D03*
X103100000Y-43720000D03*
X100560000Y-43720000D03*
X103100000Y-41180000D03*
X100560000Y-41180000D03*
X100560000Y-38640000D03*
X98020000Y-36100000D03*
X103100000Y-38640000D03*
X100560000Y-36100000D03*
G04 #@! TD*
D10*
G04 #@! TO.C,U5*
X46800000Y-57500000D03*
X47450000Y-57500000D03*
X48100000Y-57500000D03*
X48750000Y-57500000D03*
X49400000Y-57500000D03*
X50050000Y-57500000D03*
X50700000Y-57500000D03*
X51350000Y-57500000D03*
X52000000Y-57500000D03*
X52650000Y-57500000D03*
X52650000Y-63400000D03*
X52000000Y-63400000D03*
X51350000Y-63400000D03*
X50700000Y-63400000D03*
X50050000Y-63400000D03*
X49400000Y-63400000D03*
X48750000Y-63400000D03*
X48100000Y-63400000D03*
X47450000Y-63400000D03*
X46800000Y-63400000D03*
G04 #@! TD*
G04 #@! TO.C,U6*
X60250000Y-63400000D03*
X60900000Y-63400000D03*
X61550000Y-63400000D03*
X62200000Y-63400000D03*
X62850000Y-63400000D03*
X63500000Y-63400000D03*
X64150000Y-63400000D03*
X64800000Y-63400000D03*
X65450000Y-63400000D03*
X66100000Y-63400000D03*
X66100000Y-57500000D03*
X65450000Y-57500000D03*
X64800000Y-57500000D03*
X64150000Y-57500000D03*
X63500000Y-57500000D03*
X62850000Y-57500000D03*
X62200000Y-57500000D03*
X61550000Y-57500000D03*
X60900000Y-57500000D03*
X60250000Y-57500000D03*
G04 #@! TD*
G04 #@! TO.C,U7*
X72050000Y-57500000D03*
X72700000Y-57500000D03*
X73350000Y-57500000D03*
X74000000Y-57500000D03*
X74650000Y-57500000D03*
X75300000Y-57500000D03*
X75950000Y-57500000D03*
X76600000Y-57500000D03*
X77250000Y-57500000D03*
X77900000Y-57500000D03*
X77900000Y-63400000D03*
X77250000Y-63400000D03*
X76600000Y-63400000D03*
X75950000Y-63400000D03*
X75300000Y-63400000D03*
X74650000Y-63400000D03*
X74000000Y-63400000D03*
X73350000Y-63400000D03*
X72700000Y-63400000D03*
X72050000Y-63400000D03*
G04 #@! TD*
G04 #@! TO.C,U8*
X81693320Y-112100000D03*
X82343320Y-112100000D03*
X82993320Y-112100000D03*
X83643320Y-112100000D03*
X84293320Y-112100000D03*
X84943320Y-112100000D03*
X85593320Y-112100000D03*
X86243320Y-112100000D03*
X86893320Y-112100000D03*
X87543320Y-112100000D03*
X87543320Y-118000000D03*
X86893320Y-118000000D03*
X86243320Y-118000000D03*
X85593320Y-118000000D03*
X84943320Y-118000000D03*
X84293320Y-118000000D03*
X83643320Y-118000000D03*
X82993320Y-118000000D03*
X82343320Y-118000000D03*
X81693320Y-118000000D03*
G04 #@! TD*
G04 #@! TO.C,U9*
X93843320Y-118000000D03*
X94493320Y-118000000D03*
X95143320Y-118000000D03*
X95793320Y-118000000D03*
X96443320Y-118000000D03*
X97093320Y-118000000D03*
X97743320Y-118000000D03*
X98393320Y-118000000D03*
X99043320Y-118000000D03*
X99693320Y-118000000D03*
X99693320Y-112100000D03*
X99043320Y-112100000D03*
X98393320Y-112100000D03*
X97743320Y-112100000D03*
X97093320Y-112100000D03*
X96443320Y-112100000D03*
X95793320Y-112100000D03*
X95143320Y-112100000D03*
X94493320Y-112100000D03*
X93843320Y-112100000D03*
G04 #@! TD*
G04 #@! TO.C,U10*
X106600000Y-112100000D03*
X107250000Y-112100000D03*
X107900000Y-112100000D03*
X108550000Y-112100000D03*
X109200000Y-112100000D03*
X109850000Y-112100000D03*
X110500000Y-112100000D03*
X111150000Y-112100000D03*
X111800000Y-112100000D03*
X112450000Y-112100000D03*
X112450000Y-118000000D03*
X111800000Y-118000000D03*
X111150000Y-118000000D03*
X110500000Y-118000000D03*
X109850000Y-118000000D03*
X109200000Y-118000000D03*
X108550000Y-118000000D03*
X107900000Y-118000000D03*
X107250000Y-118000000D03*
X106600000Y-118000000D03*
G04 #@! TD*
G04 #@! TO.C,U12*
X46800000Y-71100000D03*
X47450000Y-71100000D03*
X48100000Y-71100000D03*
X48750000Y-71100000D03*
X49400000Y-71100000D03*
X50050000Y-71100000D03*
X50700000Y-71100000D03*
X51350000Y-71100000D03*
X52000000Y-71100000D03*
X52650000Y-71100000D03*
X52650000Y-77000000D03*
X52000000Y-77000000D03*
X51350000Y-77000000D03*
X50700000Y-77000000D03*
X50050000Y-77000000D03*
X49400000Y-77000000D03*
X48750000Y-77000000D03*
X48100000Y-77000000D03*
X47450000Y-77000000D03*
X46800000Y-77000000D03*
G04 #@! TD*
G04 #@! TO.C,U13*
X60300000Y-77000000D03*
X60950000Y-77000000D03*
X61600000Y-77000000D03*
X62250000Y-77000000D03*
X62900000Y-77000000D03*
X63550000Y-77000000D03*
X64200000Y-77000000D03*
X64850000Y-77000000D03*
X65500000Y-77000000D03*
X66150000Y-77000000D03*
X66150000Y-71100000D03*
X65500000Y-71100000D03*
X64850000Y-71100000D03*
X64200000Y-71100000D03*
X63550000Y-71100000D03*
X62900000Y-71100000D03*
X62250000Y-71100000D03*
X61600000Y-71100000D03*
X60950000Y-71100000D03*
X60300000Y-71100000D03*
G04 #@! TD*
G04 #@! TO.C,U14*
X72100000Y-71100000D03*
X72750000Y-71100000D03*
X73400000Y-71100000D03*
X74050000Y-71100000D03*
X74700000Y-71100000D03*
X75350000Y-71100000D03*
X76000000Y-71100000D03*
X76650000Y-71100000D03*
X77300000Y-71100000D03*
X77950000Y-71100000D03*
X77950000Y-77000000D03*
X77300000Y-77000000D03*
X76650000Y-77000000D03*
X76000000Y-77000000D03*
X75350000Y-77000000D03*
X74700000Y-77000000D03*
X74050000Y-77000000D03*
X73400000Y-77000000D03*
X72750000Y-77000000D03*
X72100000Y-77000000D03*
G04 #@! TD*
G04 #@! TO.C,U17*
X46850000Y-90600000D03*
X47500000Y-90600000D03*
X48150000Y-90600000D03*
X48800000Y-90600000D03*
X49450000Y-90600000D03*
X50100000Y-90600000D03*
X50750000Y-90600000D03*
X51400000Y-90600000D03*
X52050000Y-90600000D03*
X52700000Y-90600000D03*
X52700000Y-84700000D03*
X52050000Y-84700000D03*
X51400000Y-84700000D03*
X50750000Y-84700000D03*
X50100000Y-84700000D03*
X49450000Y-84700000D03*
X48800000Y-84700000D03*
X48150000Y-84700000D03*
X47500000Y-84700000D03*
X46850000Y-84700000D03*
G04 #@! TD*
G04 #@! TO.C,U18*
X60250000Y-84700000D03*
X60900000Y-84700000D03*
X61550000Y-84700000D03*
X62200000Y-84700000D03*
X62850000Y-84700000D03*
X63500000Y-84700000D03*
X64150000Y-84700000D03*
X64800000Y-84700000D03*
X65450000Y-84700000D03*
X66100000Y-84700000D03*
X66100000Y-90600000D03*
X65450000Y-90600000D03*
X64800000Y-90600000D03*
X64150000Y-90600000D03*
X63500000Y-90600000D03*
X62850000Y-90600000D03*
X62200000Y-90600000D03*
X61550000Y-90600000D03*
X60900000Y-90600000D03*
X60250000Y-90600000D03*
G04 #@! TD*
G04 #@! TO.C,U19*
X72150000Y-90600000D03*
X72800000Y-90600000D03*
X73450000Y-90600000D03*
X74100000Y-90600000D03*
X74750000Y-90600000D03*
X75400000Y-90600000D03*
X76050000Y-90600000D03*
X76700000Y-90600000D03*
X77350000Y-90600000D03*
X78000000Y-90600000D03*
X78000000Y-84700000D03*
X77350000Y-84700000D03*
X76700000Y-84700000D03*
X76050000Y-84700000D03*
X75400000Y-84700000D03*
X74750000Y-84700000D03*
X74100000Y-84700000D03*
X73450000Y-84700000D03*
X72800000Y-84700000D03*
X72150000Y-84700000D03*
G04 #@! TD*
G04 #@! TO.C,U21*
X46850000Y-104300000D03*
X47500000Y-104300000D03*
X48150000Y-104300000D03*
X48800000Y-104300000D03*
X49450000Y-104300000D03*
X50100000Y-104300000D03*
X50750000Y-104300000D03*
X51400000Y-104300000D03*
X52050000Y-104300000D03*
X52700000Y-104300000D03*
X52700000Y-98400000D03*
X52050000Y-98400000D03*
X51400000Y-98400000D03*
X50750000Y-98400000D03*
X50100000Y-98400000D03*
X49450000Y-98400000D03*
X48800000Y-98400000D03*
X48150000Y-98400000D03*
X47500000Y-98400000D03*
X46850000Y-98400000D03*
G04 #@! TD*
G04 #@! TO.C,U22*
X60250000Y-98400000D03*
X60900000Y-98400000D03*
X61550000Y-98400000D03*
X62200000Y-98400000D03*
X62850000Y-98400000D03*
X63500000Y-98400000D03*
X64150000Y-98400000D03*
X64800000Y-98400000D03*
X65450000Y-98400000D03*
X66100000Y-98400000D03*
X66100000Y-104300000D03*
X65450000Y-104300000D03*
X64800000Y-104300000D03*
X64150000Y-104300000D03*
X63500000Y-104300000D03*
X62850000Y-104300000D03*
X62200000Y-104300000D03*
X61550000Y-104300000D03*
X60900000Y-104300000D03*
X60250000Y-104300000D03*
G04 #@! TD*
G04 #@! TO.C,U23*
X72150000Y-104300000D03*
X72800000Y-104300000D03*
X73450000Y-104300000D03*
X74100000Y-104300000D03*
X74750000Y-104300000D03*
X75400000Y-104300000D03*
X76050000Y-104300000D03*
X76700000Y-104300000D03*
X77350000Y-104300000D03*
X78000000Y-104300000D03*
X78000000Y-98400000D03*
X77350000Y-98400000D03*
X76700000Y-98400000D03*
X76050000Y-98400000D03*
X75400000Y-98400000D03*
X74750000Y-98400000D03*
X74100000Y-98400000D03*
X73450000Y-98400000D03*
X72800000Y-98400000D03*
X72150000Y-98400000D03*
G04 #@! TD*
G04 #@! TO.C,U25*
X46850000Y-112100000D03*
X47500000Y-112100000D03*
X48150000Y-112100000D03*
X48800000Y-112100000D03*
X49450000Y-112100000D03*
X50100000Y-112100000D03*
X50750000Y-112100000D03*
X51400000Y-112100000D03*
X52050000Y-112100000D03*
X52700000Y-112100000D03*
X52700000Y-118000000D03*
X52050000Y-118000000D03*
X51400000Y-118000000D03*
X50750000Y-118000000D03*
X50100000Y-118000000D03*
X49450000Y-118000000D03*
X48800000Y-118000000D03*
X48150000Y-118000000D03*
X47500000Y-118000000D03*
X46850000Y-118000000D03*
G04 #@! TD*
G04 #@! TO.C,U26*
X60250000Y-118000000D03*
X60900000Y-118000000D03*
X61550000Y-118000000D03*
X62200000Y-118000000D03*
X62850000Y-118000000D03*
X63500000Y-118000000D03*
X64150000Y-118000000D03*
X64800000Y-118000000D03*
X65450000Y-118000000D03*
X66100000Y-118000000D03*
X66100000Y-112100000D03*
X65450000Y-112100000D03*
X64800000Y-112100000D03*
X64150000Y-112100000D03*
X63500000Y-112100000D03*
X62850000Y-112100000D03*
X62200000Y-112100000D03*
X61550000Y-112100000D03*
X60900000Y-112100000D03*
X60250000Y-112100000D03*
G04 #@! TD*
G04 #@! TO.C,U27*
X72150000Y-112100000D03*
X72800000Y-112100000D03*
X73450000Y-112100000D03*
X74100000Y-112100000D03*
X74750000Y-112100000D03*
X75400000Y-112100000D03*
X76050000Y-112100000D03*
X76700000Y-112100000D03*
X77350000Y-112100000D03*
X78000000Y-112100000D03*
X78000000Y-118000000D03*
X77350000Y-118000000D03*
X76700000Y-118000000D03*
X76050000Y-118000000D03*
X75400000Y-118000000D03*
X74750000Y-118000000D03*
X74100000Y-118000000D03*
X73450000Y-118000000D03*
X72800000Y-118000000D03*
X72150000Y-118000000D03*
G04 #@! TD*
G04 #@! TO.C,U29*
X46850000Y-132000000D03*
X47500000Y-132000000D03*
X48150000Y-132000000D03*
X48800000Y-132000000D03*
X49450000Y-132000000D03*
X50100000Y-132000000D03*
X50750000Y-132000000D03*
X51400000Y-132000000D03*
X52050000Y-132000000D03*
X52700000Y-132000000D03*
X52700000Y-126100000D03*
X52050000Y-126100000D03*
X51400000Y-126100000D03*
X50750000Y-126100000D03*
X50100000Y-126100000D03*
X49450000Y-126100000D03*
X48800000Y-126100000D03*
X48150000Y-126100000D03*
X47500000Y-126100000D03*
X46850000Y-126100000D03*
G04 #@! TD*
G04 #@! TO.C,U30*
X60250000Y-126100000D03*
X60900000Y-126100000D03*
X61550000Y-126100000D03*
X62200000Y-126100000D03*
X62850000Y-126100000D03*
X63500000Y-126100000D03*
X64150000Y-126100000D03*
X64800000Y-126100000D03*
X65450000Y-126100000D03*
X66100000Y-126100000D03*
X66100000Y-132000000D03*
X65450000Y-132000000D03*
X64800000Y-132000000D03*
X64150000Y-132000000D03*
X63500000Y-132000000D03*
X62850000Y-132000000D03*
X62200000Y-132000000D03*
X61550000Y-132000000D03*
X60900000Y-132000000D03*
X60250000Y-132000000D03*
G04 #@! TD*
G04 #@! TO.C,U33*
X46850000Y-146100000D03*
X47500000Y-146100000D03*
X48150000Y-146100000D03*
X48800000Y-146100000D03*
X49450000Y-146100000D03*
X50100000Y-146100000D03*
X50750000Y-146100000D03*
X51400000Y-146100000D03*
X52050000Y-146100000D03*
X52700000Y-146100000D03*
X52700000Y-140200000D03*
X52050000Y-140200000D03*
X51400000Y-140200000D03*
X50750000Y-140200000D03*
X50100000Y-140200000D03*
X49450000Y-140200000D03*
X48800000Y-140200000D03*
X48150000Y-140200000D03*
X47500000Y-140200000D03*
X46850000Y-140200000D03*
G04 #@! TD*
G04 #@! TO.C,U34*
X60250000Y-146100000D03*
X60900000Y-146100000D03*
X61550000Y-146100000D03*
X62200000Y-146100000D03*
X62850000Y-146100000D03*
X63500000Y-146100000D03*
X64150000Y-146100000D03*
X64800000Y-146100000D03*
X65450000Y-146100000D03*
X66100000Y-146100000D03*
X66100000Y-140200000D03*
X65450000Y-140200000D03*
X64800000Y-140200000D03*
X64150000Y-140200000D03*
X63500000Y-140200000D03*
X62850000Y-140200000D03*
X62200000Y-140200000D03*
X61550000Y-140200000D03*
X60900000Y-140200000D03*
X60250000Y-140200000D03*
G04 #@! TD*
G04 #@! TO.C,U35*
X72150000Y-140200000D03*
X72800000Y-140200000D03*
X73450000Y-140200000D03*
X74100000Y-140200000D03*
X74750000Y-140200000D03*
X75400000Y-140200000D03*
X76050000Y-140200000D03*
X76700000Y-140200000D03*
X77350000Y-140200000D03*
X78000000Y-140200000D03*
X78000000Y-146100000D03*
X77350000Y-146100000D03*
X76700000Y-146100000D03*
X76050000Y-146100000D03*
X75400000Y-146100000D03*
X74750000Y-146100000D03*
X74100000Y-146100000D03*
X73450000Y-146100000D03*
X72800000Y-146100000D03*
X72150000Y-146100000D03*
G04 #@! TD*
G04 #@! TO.C,U38*
X60250000Y-160100000D03*
X60900000Y-160100000D03*
X61550000Y-160100000D03*
X62200000Y-160100000D03*
X62850000Y-160100000D03*
X63500000Y-160100000D03*
X64150000Y-160100000D03*
X64800000Y-160100000D03*
X65450000Y-160100000D03*
X66100000Y-160100000D03*
X66100000Y-154200000D03*
X65450000Y-154200000D03*
X64800000Y-154200000D03*
X64150000Y-154200000D03*
X63500000Y-154200000D03*
X62850000Y-154200000D03*
X62200000Y-154200000D03*
X61550000Y-154200000D03*
X60900000Y-154200000D03*
X60250000Y-154200000D03*
G04 #@! TD*
G04 #@! TO.C,U39*
X72150000Y-154200000D03*
X72800000Y-154200000D03*
X73450000Y-154200000D03*
X74100000Y-154200000D03*
X74750000Y-154200000D03*
X75400000Y-154200000D03*
X76050000Y-154200000D03*
X76700000Y-154200000D03*
X77350000Y-154200000D03*
X78000000Y-154200000D03*
X78000000Y-160100000D03*
X77350000Y-160100000D03*
X76700000Y-160100000D03*
X76050000Y-160100000D03*
X75400000Y-160100000D03*
X74750000Y-160100000D03*
X74100000Y-160100000D03*
X73450000Y-160100000D03*
X72800000Y-160100000D03*
X72150000Y-160100000D03*
G04 #@! TD*
D16*
G04 #@! TO.C,U41*
X15000000Y-153750000D03*
X15000000Y-154400000D03*
X15000000Y-155050000D03*
X15000000Y-155700000D03*
X15000000Y-156350000D03*
X15000000Y-157000000D03*
X15000000Y-157650000D03*
X15000000Y-158300000D03*
X15000000Y-158950000D03*
X15000000Y-159600000D03*
X20900000Y-159600000D03*
X20900000Y-158950000D03*
X20900000Y-158300000D03*
X20900000Y-157650000D03*
X20900000Y-157000000D03*
X20900000Y-156350000D03*
X20900000Y-155700000D03*
X20900000Y-155050000D03*
X20900000Y-154400000D03*
X20900000Y-153750000D03*
G04 #@! TD*
D10*
G04 #@! TO.C,U42*
X24150000Y-87900000D03*
X24800000Y-87900000D03*
X25450000Y-87900000D03*
X26100000Y-87900000D03*
X26750000Y-87900000D03*
X27400000Y-87900000D03*
X28050000Y-87900000D03*
X28050000Y-82000000D03*
X27400000Y-82000000D03*
X26750000Y-82000000D03*
X26100000Y-82000000D03*
X25450000Y-82000000D03*
X24800000Y-82000000D03*
X24150000Y-82000000D03*
G04 #@! TD*
D13*
G04 #@! TO.C,C45*
X16460000Y-139270000D03*
X14960000Y-139270000D03*
G04 #@! TD*
G04 #@! TO.C,C48*
X22450000Y-139160000D03*
X20950000Y-139160000D03*
G04 #@! TD*
G04 #@! TO.C,C49*
X21010000Y-128080000D03*
X19510000Y-128080000D03*
G04 #@! TD*
G04 #@! TO.C,C50*
X16460000Y-92060000D03*
X14960000Y-92060000D03*
G04 #@! TD*
G04 #@! TO.C,C52*
X16430000Y-79320000D03*
X14930000Y-79320000D03*
G04 #@! TD*
G04 #@! TO.C,C54*
X19300000Y-77640000D03*
X20800000Y-77640000D03*
G04 #@! TD*
G04 #@! TO.C,C55*
X21070000Y-66700000D03*
X19570000Y-66700000D03*
G04 #@! TD*
D16*
G04 #@! TO.C,U45*
X20900000Y-140750000D03*
X20900000Y-141400000D03*
X20900000Y-142050000D03*
X20900000Y-142700000D03*
X20900000Y-143350000D03*
X20900000Y-144000000D03*
X20900000Y-144650000D03*
X20900000Y-145300000D03*
X20900000Y-145950000D03*
X20900000Y-146600000D03*
X15000000Y-146600000D03*
X15000000Y-145950000D03*
X15000000Y-145300000D03*
X15000000Y-144650000D03*
X15000000Y-144000000D03*
X15000000Y-143350000D03*
X15000000Y-142700000D03*
X15000000Y-142050000D03*
X15000000Y-141400000D03*
X15000000Y-140750000D03*
G04 #@! TD*
G04 #@! TO.C,U48*
X20900000Y-137600000D03*
X20900000Y-136950000D03*
X20900000Y-136300000D03*
X20900000Y-135650000D03*
X20900000Y-135000000D03*
X20900000Y-134350000D03*
X20900000Y-133700000D03*
X20900000Y-133050000D03*
X20900000Y-132400000D03*
X20900000Y-131750000D03*
X15000000Y-131750000D03*
X15000000Y-132400000D03*
X15000000Y-133050000D03*
X15000000Y-133700000D03*
X15000000Y-134350000D03*
X15000000Y-135000000D03*
X15000000Y-135650000D03*
X15000000Y-136300000D03*
X15000000Y-136950000D03*
X15000000Y-137600000D03*
G04 #@! TD*
G04 #@! TO.C,U49*
X15000000Y-126600000D03*
X15000000Y-125950000D03*
X15000000Y-125300000D03*
X15000000Y-124650000D03*
X15000000Y-124000000D03*
X15000000Y-123350000D03*
X15000000Y-122700000D03*
X15000000Y-122050000D03*
X15000000Y-121400000D03*
X15000000Y-120750000D03*
X20900000Y-120750000D03*
X20900000Y-121400000D03*
X20900000Y-122050000D03*
X20900000Y-122700000D03*
X20900000Y-123350000D03*
X20900000Y-124000000D03*
X20900000Y-124650000D03*
X20900000Y-125300000D03*
X20900000Y-125950000D03*
X20900000Y-126600000D03*
G04 #@! TD*
G04 #@! TO.C,U50*
X15000000Y-93750000D03*
X15000000Y-94400000D03*
X15000000Y-95050000D03*
X15000000Y-95700000D03*
X15000000Y-96350000D03*
X15000000Y-97000000D03*
X15000000Y-97650000D03*
X15000000Y-98300000D03*
X15000000Y-98950000D03*
X15000000Y-99600000D03*
X20900000Y-99600000D03*
X20900000Y-98950000D03*
X20900000Y-98300000D03*
X20900000Y-97650000D03*
X20900000Y-97000000D03*
X20900000Y-96350000D03*
X20900000Y-95700000D03*
X20900000Y-95050000D03*
X20900000Y-94400000D03*
X20900000Y-93750000D03*
G04 #@! TD*
G04 #@! TO.C,U52*
X15000000Y-80750000D03*
X15000000Y-81400000D03*
X15000000Y-82050000D03*
X15000000Y-82700000D03*
X15000000Y-83350000D03*
X15000000Y-84000000D03*
X15000000Y-84650000D03*
X15000000Y-85300000D03*
X15000000Y-85950000D03*
X15000000Y-86600000D03*
X20900000Y-86600000D03*
X20900000Y-85950000D03*
X20900000Y-85300000D03*
X20900000Y-84650000D03*
X20900000Y-84000000D03*
X20900000Y-83350000D03*
X20900000Y-82700000D03*
X20900000Y-82050000D03*
X20900000Y-81400000D03*
X20900000Y-80750000D03*
G04 #@! TD*
G04 #@! TO.C,U54*
X15000000Y-76250000D03*
X15000000Y-75600000D03*
X15000000Y-74950000D03*
X15000000Y-74300000D03*
X15000000Y-73650000D03*
X15000000Y-73000000D03*
X15000000Y-72350000D03*
X15000000Y-71700000D03*
X15000000Y-71050000D03*
X15000000Y-70400000D03*
X20900000Y-70400000D03*
X20900000Y-71050000D03*
X20900000Y-71700000D03*
X20900000Y-72350000D03*
X20900000Y-73000000D03*
X20900000Y-73650000D03*
X20900000Y-74300000D03*
X20900000Y-74950000D03*
X20900000Y-75600000D03*
X20900000Y-76250000D03*
G04 #@! TD*
G04 #@! TO.C,U55*
X20900000Y-65250000D03*
X20900000Y-64600000D03*
X20900000Y-63950000D03*
X20900000Y-63300000D03*
X20900000Y-62650000D03*
X20900000Y-62000000D03*
X20900000Y-61350000D03*
X20900000Y-60700000D03*
X20900000Y-60050000D03*
X20900000Y-59400000D03*
X15000000Y-59400000D03*
X15000000Y-60050000D03*
X15000000Y-60700000D03*
X15000000Y-61350000D03*
X15000000Y-62000000D03*
X15000000Y-62650000D03*
X15000000Y-63300000D03*
X15000000Y-63950000D03*
X15000000Y-64600000D03*
X15000000Y-65250000D03*
G04 #@! TD*
D17*
G04 #@! TO.C,J1*
X36630000Y-62690000D03*
X34090000Y-62690000D03*
X31550000Y-62690000D03*
X36630000Y-65230000D03*
X34090000Y-65230000D03*
D18*
X31550000Y-65230000D03*
G04 #@! TD*
G04 #@! TO.C,J2*
X83100000Y-161800000D03*
G04 #@! TD*
G04 #@! TO.C,J3*
X80500000Y-81500000D03*
G04 #@! TD*
G04 #@! TO.C,J4*
X108000000Y-127400000D03*
G04 #@! TD*
M02*
