M48
;DRILL file {KiCad (5.0.0-rc2-35-gda6600525)} date 07/07/18 16:01:40
;FORMAT={-:-/ absolute / metric / decimal}
FMAT,2
METRIC,TZ
T1C0.400
T2C0.813
T3C0.950
%
G90
G05
M71
T1
X10.6Y-160.98
X10.647Y-120.033
X10.667Y-82.633
X10.692Y-77.648
X10.742Y-60.398
X10.75Y-157.97
X10.82Y-154.97
X10.857Y-94.983
X10.857Y-142.583
X10.86Y-74.7
X10.882Y-71.798
X10.897Y-88.153
X10.9Y-147.93
X10.92Y-144.95
X10.982Y-131.598
X11.03Y-65.94
X11.06Y-123.02
X11.07Y-84.91
X11.15Y-100.95
X11.16Y-137.02
X11.19Y-63.04
X11.25Y-98.
X11.5Y-134.06
X11.53Y-126.
X13.493Y-79.512
X13.76Y-139.26
X13.9Y-68.6
X14.91Y-150.91
X16.41Y-131.78
X16.416Y-81.734
X16.43Y-120.73
X16.44Y-94.42
X16.45Y-93.28
X16.48Y-59.28
X16.49Y-70.41
X16.49Y-90.79
X16.49Y-146.59
X16.52Y-82.707
X16.53Y-150.93
X16.57Y-159.59
X16.58Y-76.09
X16.82Y-141.75
X17.Y-88.1
X17.Y-143.1
X17.2Y-139.53
X17.243Y-81.038
X17.9Y-53.6
X18.433Y-153.885
X18.5Y-143.1
X18.633Y-141.284
X18.923Y-66.43
X19.05Y-88.1
X19.23Y-64.52
X19.295Y-76.415
X19.327Y-125.592
X19.34Y-126.57
X19.351Y-75.415
X19.37Y-138.01
X19.4Y-86.33
X19.43Y-136.52
X19.44Y-146.6
X19.46Y-99.57
X19.46Y-159.56
X19.5Y-110.1
X19.5Y-114.3
X19.56Y-84.52
X19.866Y-152.223
X22.19Y-66.7
X22.33Y-128.12
X22.4Y-77.08
X22.471Y-86.118
X22.481Y-75.816
X22.5Y-137.92
X22.68Y-73.69
X22.927Y-54.233
X23.75Y-152.28
X24.237Y-90.683
X24.61Y-107.59
X24.61Y-109.47
X24.63Y-108.5
X25.52Y-53.37
X25.6Y-68.5
X26.83Y-89.74
X27.1Y-117.
X27.3Y-53.4
X28.06Y-83.38
X28.073Y-51.967
X28.54Y-80.13
X29.Y-142.
X29.Y-146.
X29.4Y-55.1
X29.597Y-81.05
X29.8Y-113.7
X29.93Y-84.54
X30.106Y-83.093
X30.5Y-142.
X30.5Y-144.5
X30.5Y-146.
X30.6Y-140.35
X31.36Y-57.57
X31.5Y-85.5
X31.5Y-87.
X31.5Y-99.
X32.Y-151.5
X32.Y-140.5
X32.016Y-144.515
X32.36Y-107.46
X32.39Y-108.47
X32.39Y-109.41
X32.53Y-47.67
X32.55Y-43.8
X32.63Y-58.75
X32.99Y-100.65
X33.Y-84.
X33.Y-85.5
X33.Y-99.
X33.5Y-150.
X33.5Y-151.5
X33.715Y-112.167
X34.Y-48.5
X34.05Y-162.51
X34.07Y-163.43
X34.08Y-164.38
X34.4Y-52.1
X34.4Y-53.6
X34.5Y-94.
X34.5Y-95.5
X34.5Y-100.5
X35.Y-150.
X35.2Y-117.3
X35.37Y-86.92
X35.5Y-46.5
X35.5Y-48.5
X35.85Y-58.81
X35.97Y-35.7
X35.98Y-36.64
X35.98Y-37.56
X36.Y-92.5
X36.Y-94.
X36.2Y-113.2
X36.322Y-57.493
X36.79Y-43.41
X37.Y-48.927
X37.02Y-69.03
X38.18Y-54.71
X38.37Y-69.66
X38.452Y-68.053
X38.88Y-165.07
X38.98Y-79.26
X39.Y-106.
X39.Y-134.
X39.Y-148.
X39.05Y-161.87
X39.12Y-61.75
X39.16Y-92.49
X39.32Y-46.37
X39.4Y-121.7
X39.78Y-165.08
X39.83Y-68.83
X40.1Y-107.8
X40.29Y-81.04
X40.5Y-94.
X40.5Y-106.
X40.5Y-123.1
X40.5Y-134.
X40.5Y-135.5
X40.5Y-148.
X40.5Y-149.5
X40.62Y-43.1
X40.74Y-78.98
X40.82Y-53.66
X40.94Y-92.33
X41.3Y-121.7
X41.6Y-112.2
X41.7Y-65.4
X41.8Y-94.8
X41.82Y-42.2
X41.833Y-107.424
X41.922Y-58.858
X41.933Y-80.5
X42.Y-135.5
X42.Y-149.5
X42.1Y-123.1
X42.42Y-55.81
X42.56Y-57.28
X42.97Y-72.48
X42.973Y-84.577
X42.98Y-158.957
X43.Y-113.7
X43.Y-52.
X43.Y-126.
X43.Y-140.
X43.019Y-53.5
X43.14Y-48.927
X43.15Y-43.32
X43.167Y-97.924
X43.37Y-62.1
X43.69Y-55.06
X43.695Y-112.161
X43.7Y-117.3
X43.793Y-154.
X43.795Y-102.57
X43.84Y-36.61
X43.85Y-35.66
X43.88Y-37.56
X43.91Y-89.65
X43.96Y-75.81
X44.421Y-66.023
X44.45Y-144.9
X44.5Y-130.5
X44.5Y-53.5
X44.9Y-99.9
X44.93Y-64.46
X45.05Y-56.27
X45.3Y-113.8
X45.329Y-62.774
X45.35Y-155.6
X45.42Y-89.56
X45.43Y-75.98
X45.59Y-112.307
X45.605Y-139.967
X45.716Y-59.257
X45.73Y-97.953
X45.781Y-57.46
X45.8Y-126.09
X46.11Y-67.89
X46.121Y-43.596
X46.209Y-153.86
X46.44Y-50.41
X46.55Y-92.22
X46.56Y-161.75
X46.58Y-78.63
X46.588Y-133.647
X46.59Y-147.97
X46.593Y-119.618
X46.67Y-105.87
X46.997Y-107.56
X47.Y-80.5
X47.Y-94.
X47.Y-121.5
X47.Y-135.5
X47.Y-149.68
X47.Y-163.5
X47.03Y-48.65
X47.22Y-86.15
X47.257Y-72.46
X47.262Y-65.849
X47.4Y-144.893
X47.43Y-75.629
X47.5Y-52.5
X47.526Y-158.957
X47.53Y-116.28
X47.54Y-89.427
X47.55Y-46.43
X47.56Y-102.729
X47.58Y-130.29
X47.61Y-60.273
X47.722Y-58.906
X48.5Y-79.
X48.5Y-80.5
X48.5Y-92.5
X48.5Y-94.
X48.5Y-107.5
X48.5Y-120.
X48.5Y-121.5
X48.5Y-135.5
X48.5Y-148.
X48.5Y-149.5
X48.5Y-162.
X48.5Y-163.5
X48.553Y-133.824
X48.576Y-106.101
X49.Y-52.5
X49.Y-54.
X49.01Y-66.52
X49.015Y-68.277
X49.3Y-60.3
X50.Y-148.
X50.Y-79.
X50.Y-92.5
X50.Y-106.
X50.Y-120.
X50.Y-134.
X50.Y-162.
X50.127Y-73.207
X50.35Y-43.33
X50.5Y-52.5
X50.5Y-67.
X50.5Y-65.5
X50.53Y-75.697
X50.6Y-59.505
X50.8Y-99.8
X50.808Y-113.456
X51.054Y-141.953
X51.181Y-127.978
X51.336Y-72.497
X51.364Y-103.147
X51.374Y-89.097
X51.376Y-156.395
X51.382Y-158.717
X51.39Y-130.38
X51.41Y-86.6
X51.416Y-144.967
X51.44Y-116.34
X51.473Y-61.494
X51.59Y-42.513
X51.913Y-65.465
X51.922Y-141.503
X51.972Y-127.403
X52.2Y-99.703
X52.245Y-86.003
X52.251Y-113.552
X52.43Y-60.
X52.585Y-106.021
X52.67Y-56.047
X52.685Y-155.415
X52.77Y-62.033
X52.89Y-43.43
X52.95Y-78.64
X52.95Y-147.79
X52.98Y-119.53
X53.Y-48.26
X53.04Y-92.23
X53.04Y-161.74
X53.08Y-133.63
X53.395Y-69.202
X53.409Y-74.859
X53.503Y-84.803
X53.516Y-97.816
X53.536Y-154.441
X53.586Y-109.073
X53.76Y-164.445
X53.8Y-111.12
X53.809Y-87.879
X53.823Y-137.029
X53.833Y-81.929
X53.84Y-125.542
X53.85Y-140.02
X53.86Y-59.4
X53.86Y-106.671
X53.873Y-67.156
X53.903Y-151.08
X53.93Y-89.52
X53.943Y-95.002
X53.953Y-159.29
X53.963Y-123.14
X53.97Y-144.95
X54.02Y-116.52
X54.09Y-43.18
X54.109Y-76.075
X54.13Y-114.59
X54.14Y-130.98
X54.24Y-101.77
X54.368Y-143.001
X54.5Y-47.
X54.68Y-158.09
X54.73Y-128.3
X54.94Y-129.73
X54.944Y-60.457
X54.957Y-156.747
X54.981Y-102.697
X55.106Y-88.666
X55.137Y-75.136
X55.202Y-144.203
X55.3Y-161.32
X55.316Y-115.929
X55.34Y-105.41
X55.361Y-64.707
X55.363Y-78.11
X55.373Y-133.14
X55.38Y-147.23
X55.404Y-119.178
X55.44Y-43.
X55.467Y-91.617
X56.Y-114.
X56.1Y-59.32
X56.203Y-72.856
X56.203Y-142.004
X56.224Y-110.408
X56.371Y-100.474
X56.395Y-86.241
X56.454Y-155.772
X56.551Y-127.747
X57.731Y-132.565
X57.753Y-76.452
X57.796Y-91.153
X57.797Y-64.103
X57.832Y-112.391
X57.85Y-104.75
X57.868Y-63.127
X57.878Y-158.585
X57.886Y-78.002
X57.89Y-145.472
X57.89Y-50.31
X57.892Y-90.031
X57.893Y-117.666
X57.893Y-131.473
X57.894Y-103.773
X57.927Y-61.899
X57.94Y-130.37
X57.98Y-116.38
X57.98Y-144.38
X57.99Y-88.94
X58.01Y-102.71
X58.01Y-118.9
X58.05Y-146.67
X58.11Y-160.73
X58.211Y-159.505
X58.3Y-60.3
X58.48Y-55.38
X58.53Y-48.98
X58.549Y-99.165
X58.552Y-141.013
X58.6Y-155.5
X58.701Y-156.998
X58.9Y-61.8
X58.921Y-72.294
X59.26Y-125.929
X59.26Y-160.13
X59.305Y-84.32
X59.305Y-154.258
X59.32Y-57.283
X59.383Y-86.592
X59.397Y-111.787
X59.466Y-70.864
X59.507Y-139.81
X59.53Y-122.53
X59.54Y-95.16
X59.57Y-81.42
X59.58Y-108.8
X59.58Y-136.64
X59.59Y-68.03
X59.634Y-60.6
X59.84Y-150.84
X59.866Y-97.722
X60.Y-99.9
X60.07Y-163.34
X60.3Y-157.1
X60.74Y-72.8
X60.9Y-62.
X61.08Y-155.74
X61.1Y-141.66
X61.11Y-127.91
X61.152Y-59.619
X61.279Y-100.605
X61.343Y-93.83
X61.37Y-86.05
X61.4Y-113.6
X61.405Y-66.794
X61.466Y-91.921
X61.489Y-64.953
X61.5Y-161.5
X61.5Y-133.5
X61.5Y-147.433
X61.5Y-163.
X61.507Y-80.127
X61.51Y-105.953
X61.512Y-119.413
X61.551Y-78.342
X61.586Y-107.703
X61.713Y-149.233
X61.731Y-135.283
X61.786Y-121.191
X61.98Y-51.024
X62.Y-52.5
X63.5Y-52.5
X63.5Y-65.
X63.5Y-66.5
X63.5Y-78.5
X63.5Y-80.
X63.5Y-92.
X63.5Y-93.5
X63.5Y-106.
X63.5Y-107.5
X63.5Y-119.5
X63.5Y-121.
X63.5Y-133.5
X63.5Y-135.
X63.5Y-147.5
X63.5Y-149.
X63.5Y-163.
X63.767Y-161.381
X64.5Y-60.463
X64.97Y-162.33
X66.05Y-72.7
X66.06Y-66.83
X66.07Y-155.37
X66.08Y-56.02
X66.09Y-113.35
X66.12Y-141.49
X66.121Y-99.795
X66.14Y-85.98
X66.14Y-127.4
X66.19Y-55.03
X66.504Y-65.12
X66.63Y-162.3
X67.013Y-62.572
X67.26Y-69.06
X67.75Y-70.42
X67.78Y-159.27
X67.84Y-161.09
X68.06Y-77.53
X68.08Y-104.85
X68.09Y-146.66
X68.11Y-118.56
X68.12Y-157.45
X68.13Y-115.32
X68.13Y-132.53
X68.14Y-74.27
X68.17Y-91.03
X68.17Y-129.26
X68.18Y-101.52
X68.22Y-87.78
X68.22Y-143.4
X68.23Y-60.7
X68.26Y-64.02
X68.32Y-71.88
X69.56Y-59.37
X69.58Y-156.05
X69.59Y-113.92
X69.59Y-141.99
X69.61Y-86.37
X69.62Y-127.9
X69.772Y-100.661
X70.219Y-72.916
X70.25Y-34.2
X70.895Y-160.721
X70.94Y-71.1
X71.Y-99.7
X71.Y-113.1
X71.01Y-153.85
X71.037Y-57.343
X71.06Y-84.68
X71.06Y-140.25
X71.065Y-98.366
X71.07Y-111.766
X71.07Y-132.55
X71.09Y-126.13
X71.1Y-155.8
X71.57Y-150.54
X71.58Y-122.41
X71.59Y-108.74
X71.63Y-136.61
X71.66Y-81.49
X71.71Y-95.07
X71.76Y-67.81
X72.26Y-127.86
X72.31Y-141.7
X72.33Y-155.79
X72.35Y-143.33
X72.36Y-129.61
X72.4Y-100.19
X72.415Y-86.505
X72.42Y-157.44
X72.44Y-88.01
X72.47Y-115.59
X72.57Y-72.78
X72.667Y-101.586
X72.69Y-74.48
X72.73Y-114.205
X72.743Y-59.619
X72.83Y-61.1
X73.171Y-163.43
X74.Y-115.
X74.Y-87.5
X74.Y-129.
X74.Y-143.
X74.Y-157.
X74.07Y-34.16
X74.14Y-100.81
X74.5Y-60.5
X74.5Y-62.
X74.5Y-74.
X74.5Y-75.5
X74.51Y-65.064
X74.533Y-78.66
X75.401Y-115.099
X75.5Y-129.007
X75.5Y-87.667
X75.5Y-89.
X75.5Y-101.5
X75.5Y-103.
X75.5Y-116.5
X75.5Y-130.5
X75.5Y-143.
X75.5Y-144.5
X75.5Y-157.
X75.5Y-158.5
X75.967Y-133.395
X76.Y-65.
X76.Y-66.5
X76.Y-78.5
X76.Y-80.
X76.Y-92.
X76.Y-93.5
X76.Y-106.
X76.Y-107.5
X76.Y-119.5
X76.Y-121.
X76.Y-135.
X76.Y-147.5
X76.Y-149.
X76.Y-161.5
X76.Y-163.
X77.155Y-114.139
X77.5Y-66.5
X77.5Y-68.
X77.5Y-80.
X77.5Y-81.5
X77.5Y-93.5
X77.5Y-95.
X77.5Y-107.5
X77.5Y-109.
X77.5Y-121.
X77.5Y-122.5
X77.5Y-135.
X77.5Y-136.5
X77.5Y-149.
X77.5Y-150.5
X77.5Y-163.
X77.5Y-164.5
X77.96Y-56.02
X77.96Y-72.49
X77.98Y-99.77
X78.Y-85.93
X78.03Y-127.37
X78.03Y-155.44
X78.04Y-141.46
X78.06Y-113.37
X78.38Y-41.747
X80.2Y-115.2
X80.2Y-116.6
X80.21Y-51.12
X80.218Y-49.232
X80.27Y-57.2
X80.38Y-62.2
X80.5Y-60.55
X80.74Y-112.15
X81.31Y-119.64
X81.431Y-34.449
X81.62Y-115.43
X81.791Y-42.265
X81.791Y-47.451
X82.08Y-49.51
X82.18Y-37.51
X82.45Y-35.844
X82.648Y-114.387
X82.95Y-123.97
X82.96Y-120.
X82.99Y-129.17
X84.01Y-35.58
X84.02Y-116.22
X84.175Y-114.492
X84.276Y-53.87
X84.35Y-120.98
X84.61Y-123.08
X85.055Y-33.699
X85.5Y-115.5
X85.809Y-46.199
X85.836Y-119.48
X85.976Y-47.918
X86.235Y-120.81
X86.39Y-50.92
X86.43Y-40.71
X86.76Y-83.53
X86.787Y-85.574
X86.787Y-86.908
X86.8Y-134.4
X87.154Y-49.052
X87.33Y-116.56
X87.48Y-128.53
X87.58Y-119.516
X87.59Y-113.49
X87.96Y-60.54
X88.24Y-74.12
X88.45Y-52.63
X88.589Y-87.965
X88.602Y-40.943
X88.62Y-110.81
X88.67Y-59.59
X88.683Y-117.359
X88.755Y-114.545
X88.86Y-51.03
X89.552Y-61.188
X89.721Y-53.338
X90.217Y-75.073
X90.618Y-54.739
X91.442Y-120.178
X91.56Y-56.183
X91.578Y-118.086
X92.503Y-119.249
X92.652Y-116.003
X92.7Y-124.4
X92.84Y-112.11
X93.491Y-123.412
X93.573Y-122.437
X94.51Y-116.56
X95.Y-119.5
X95.Y-121.
X96.5Y-121.
X98.Y-121.
X98.Y-119.5
X98.138Y-155.192
X98.632Y-113.515
X98.84Y-61.03
X99.11Y-63.163
X99.5Y-119.5
X99.61Y-113.54
X99.66Y-141.85
X100.17Y-72.98
X100.41Y-127.71
X100.53Y-120.89
X100.8Y-62.
X100.94Y-100.46
X101.287Y-119.05
X101.71Y-115.68
X101.89Y-34.65
X101.93Y-117.283
X102.05Y-65.42
X102.85Y-63.88
X103.29Y-112.46
X103.3Y-113.927
X104.647Y-118.5
X104.73Y-114.57
X104.83Y-116.77
X105.53Y-120.83
X105.55Y-112.163
X105.673Y-116.103
X106.72Y-122.68
X107.32Y-113.54
X107.89Y-122.17
X109.Y-119.5
X109.Y-115.
X109.Y-116.5
X109.Y-121.
X109.84Y-123.99
X111.Y-115.
X112.44Y-113.42
X112.5Y-116.5
X112.5Y-115.
T2
X63.84Y-38.54
X63.84Y-41.08
X63.84Y-43.62
X63.84Y-46.16
X63.84Y-48.7
X66.38Y-36.
X66.38Y-38.54
X66.38Y-41.08
X66.38Y-43.62
X66.38Y-46.16
X66.38Y-48.7
X66.38Y-51.24
X68.92Y-36.
X68.92Y-38.54
X68.92Y-48.7
X68.92Y-51.24
X71.46Y-36.
X71.46Y-38.54
X71.46Y-48.7
X71.46Y-51.24
X74.Y-36.
X74.Y-38.54
X74.Y-41.08
X74.Y-43.62
X74.Y-46.16
X74.Y-48.7
X74.Y-51.24
X76.54Y-38.54
X76.54Y-41.08
X76.54Y-43.62
X76.54Y-46.16
X76.54Y-48.7
X90.4Y-38.64
X90.4Y-41.18
X90.4Y-43.72
X90.4Y-46.26
X90.4Y-48.8
X92.94Y-36.1
X92.94Y-38.64
X92.94Y-41.18
X92.94Y-43.72
X92.94Y-46.26
X92.94Y-48.8
X92.94Y-51.34
X95.48Y-36.1
X95.48Y-38.64
X95.48Y-48.8
X95.48Y-51.34
X98.02Y-36.1
X98.02Y-38.64
X98.02Y-48.8
X98.02Y-51.34
X100.56Y-36.1
X100.56Y-38.64
X100.56Y-41.18
X100.56Y-43.72
X100.56Y-46.26
X100.56Y-48.8
X100.56Y-51.34
X103.1Y-38.64
X103.1Y-41.18
X103.1Y-43.72
X103.1Y-46.26
X103.1Y-48.8
T3
X83.1Y-161.8
X80.5Y-81.5
X108.Y-127.4
X31.55Y-62.69
X31.55Y-65.23
X34.09Y-62.69
X34.09Y-65.23
X36.63Y-62.69
X36.63Y-65.23
T0
M30
