M48
;DRILL file {KiCad (2018-02-14 revision 6afdf1cf8)-makepkg} date 04/19/18 21:59:08
;FORMAT={-:-/ absolute / metric / decimal}
FMAT,2
METRIC,TZ
T1C0.400
T2C1.000
%
G90
G05
M71
T1
X26.416Y-99.568
X34.036Y-85.852
X40.64Y-88.9
X137.668Y-96.012
X141.224Y-90.424
X156.464Y-93.472
X266.192Y-96.012
X272.288Y-90.424
X283.464Y-93.472
X396.24Y-93.472
X401.828Y-97.028
X404.368Y-85.852
X405.384Y-96.012
X407.416Y-96.012
T2
X413.004Y-88.9
X273.304Y-84.328
X275.844Y-84.328
X278.384Y-84.328
X280.924Y-84.328
X22.352Y-86.36
X22.352Y-88.9
X146.304Y-84.328
X148.844Y-84.328
X151.384Y-84.328
X153.924Y-84.328
X42.672Y-84.836
X45.212Y-84.836
X398.272Y-84.328
X413.004Y-91.44
X413.004Y-93.98
X413.004Y-96.52
X395.732Y-84.328
T0
M30
