M48
;DRILL file {KiCad (5.0.0-rc2-35-gda6600525)} date 06/30/18 14:58:14
;FORMAT={-:-/ absolute / metric / decimal}
FMAT,2
METRIC,TZ
T1C2.200
T2C2.350
%
G90
G05
M71
T1
X107.Y-45.
X167.Y-45.
X48.Y-45.
X197.Y-167.
X137.Y-167.
X256.Y-45.
X48.Y-167.
X107.Y-167.
X48.Y-106.
X256.Y-167.
X167.Y-167.
X92.Y-106.
X137.Y-45.
X256.Y-106.
X212.Y-106.
X197.Y-45.
X152.Y-106.
T2
X160.25Y-62.65
X160.25Y-102.95
X160.25Y-122.65
X160.25Y-162.95
X175.25Y-62.65
X175.25Y-102.95
X175.25Y-122.65
X175.25Y-162.95
X115.25Y-62.65
X115.25Y-102.95
X115.25Y-122.65
X115.25Y-162.95
X220.25Y-62.65
X220.25Y-102.95
X220.25Y-122.65
X220.25Y-162.95
X85.25Y-62.65
X85.25Y-102.95
X85.25Y-122.65
X85.25Y-162.95
X235.25Y-62.65
X235.25Y-102.95
X235.25Y-122.65
X235.25Y-162.95
X190.25Y-62.65
X190.25Y-102.95
X190.25Y-122.65
X190.25Y-162.95
X100.25Y-62.65
X100.25Y-102.95
X100.25Y-122.65
X100.25Y-162.95
X70.25Y-62.65
X70.25Y-102.95
X70.25Y-122.65
X70.25Y-162.95
X130.25Y-62.65
X130.25Y-102.95
X130.25Y-122.65
X130.25Y-162.95
X205.25Y-62.65
X205.25Y-102.95
X205.25Y-122.65
X205.25Y-162.95
X145.25Y-62.65
X145.25Y-102.95
X145.25Y-122.65
X145.25Y-162.95
T0
M30
