G04 #@! TF.GenerationSoftware,KiCad,Pcbnew,(5.0.0-rc2-35-gda6600525)*
G04 #@! TF.CreationDate,2018-07-07T21:23:26-07:00*
G04 #@! TF.ProjectId,register-motherboard,72656769737465722D6D6F7468657262,rev?*
G04 #@! TF.SameCoordinates,Original*
G04 #@! TF.FileFunction,Legend,Bot*
G04 #@! TF.FilePolarity,Positive*
%FSLAX46Y46*%
G04 Gerber Fmt 4.6, Leading zero omitted, Abs format (unit mm)*
G04 Created by KiCad (PCBNEW (5.0.0-rc2-35-gda6600525)) date 07/07/18 21:23:26*
%MOMM*%
%LPD*%
G01*
G04 APERTURE LIST*
%ADD10C,0.120000*%
%ADD11C,0.150000*%
G04 APERTURE END LIST*
D10*
G04 #@! TO.C,CN20*
X56300000Y-95900000D02*
X54100000Y-95900000D01*
X56300000Y-99300000D02*
X54100000Y-99300000D01*
G04 #@! TO.C,CN21*
X56300000Y-90700000D02*
X54100000Y-90700000D01*
X56300000Y-94100000D02*
X54100000Y-94100000D01*
G04 #@! TO.C,CN22*
X56300000Y-84700000D02*
X54100000Y-84700000D01*
X56300000Y-88100000D02*
X54100000Y-88100000D01*
G04 #@! TO.C,CN23*
X56300000Y-82100000D02*
X54100000Y-82100000D01*
X56300000Y-78700000D02*
X54100000Y-78700000D01*
G04 #@! TO.C,CN24*
X56300000Y-77100000D02*
X54100000Y-77100000D01*
X56300000Y-73700000D02*
X54100000Y-73700000D01*
G04 #@! TO.C,CN25*
X56300000Y-72100000D02*
X54100000Y-72100000D01*
X56300000Y-68700000D02*
X54100000Y-68700000D01*
G04 #@! TO.C,CN26*
X56300000Y-63700000D02*
X54100000Y-63700000D01*
X56300000Y-67100000D02*
X54100000Y-67100000D01*
G04 #@! TO.C,CN27*
X56300000Y-59100000D02*
X54100000Y-59100000D01*
X56300000Y-55700000D02*
X54100000Y-55700000D01*
G04 #@! TO.C,CN28*
X56300000Y-53100000D02*
X54100000Y-53100000D01*
X56300000Y-49700000D02*
X54100000Y-49700000D01*
G04 #@! TO.C,CN29*
X56300000Y-163100000D02*
X54100000Y-163100000D01*
X56300000Y-159700000D02*
X54100000Y-159700000D01*
G04 #@! TO.C,CN30*
X56300000Y-158100000D02*
X54100000Y-158100000D01*
X56300000Y-154700000D02*
X54100000Y-154700000D01*
G04 #@! TO.C,CN31*
X56300000Y-148700000D02*
X54100000Y-148700000D01*
X56300000Y-152100000D02*
X54100000Y-152100000D01*
G04 #@! TO.C,CN32*
X56300000Y-147100000D02*
X54100000Y-147100000D01*
X56300000Y-143700000D02*
X54100000Y-143700000D01*
G04 #@! TO.C,CN33*
X56300000Y-141100000D02*
X54100000Y-141100000D01*
X56300000Y-137700000D02*
X54100000Y-137700000D01*
G04 #@! TO.C,CN34*
X56300000Y-136100000D02*
X54100000Y-136100000D01*
X56300000Y-132700000D02*
X54100000Y-132700000D01*
G04 #@! TO.C,CN35*
X56300000Y-126700000D02*
X54100000Y-126700000D01*
X56300000Y-130100000D02*
X54100000Y-130100000D01*
G04 #@! TO.C,CN36*
X56300000Y-123500000D02*
X54100000Y-123500000D01*
X56300000Y-120100000D02*
X54100000Y-120100000D01*
G04 #@! TO.C,CN37*
X56300000Y-117500000D02*
X54100000Y-117500000D01*
X56300000Y-114100000D02*
X54100000Y-114100000D01*
G04 #@! TO.C,CN38*
X56300000Y-113100000D02*
X54100000Y-113100000D01*
X56300000Y-109700000D02*
X54100000Y-109700000D01*
G04 #@! TO.C,CN58*
X248700000Y-49100000D02*
X250900000Y-49100000D01*
X248700000Y-52500000D02*
X250900000Y-52500000D01*
G04 #@! TO.C,CN59*
X248700000Y-55100000D02*
X250900000Y-55100000D01*
X248700000Y-58500000D02*
X250900000Y-58500000D01*
G04 #@! TO.C,CN60*
X248700000Y-62100000D02*
X250900000Y-62100000D01*
X248700000Y-65500000D02*
X250900000Y-65500000D01*
G04 #@! TO.C,CN61*
X248700000Y-69100000D02*
X250900000Y-69100000D01*
X248700000Y-72500000D02*
X250900000Y-72500000D01*
G04 #@! TO.C,CN62*
X248700000Y-74500000D02*
X250900000Y-74500000D01*
X248700000Y-77900000D02*
X250900000Y-77900000D01*
G04 #@! TO.C,CN63*
X248700000Y-80100000D02*
X250900000Y-80100000D01*
X248700000Y-83500000D02*
X250900000Y-83500000D01*
G04 #@! TO.C,CN64*
X248700000Y-85100000D02*
X250900000Y-85100000D01*
X248700000Y-88500000D02*
X250900000Y-88500000D01*
G04 #@! TO.C,CN65*
X248700000Y-90100000D02*
X250900000Y-90100000D01*
X248700000Y-93500000D02*
X250900000Y-93500000D01*
G04 #@! TO.C,CN66*
X248700000Y-95100000D02*
X250900000Y-95100000D01*
X248700000Y-98500000D02*
X250900000Y-98500000D01*
G04 #@! TO.C,CN67*
X248700000Y-111100000D02*
X250900000Y-111100000D01*
X248700000Y-114500000D02*
X250900000Y-114500000D01*
G04 #@! TO.C,CN68*
X248700000Y-116100000D02*
X250900000Y-116100000D01*
X248700000Y-119500000D02*
X250900000Y-119500000D01*
G04 #@! TO.C,CN69*
X248700000Y-124500000D02*
X250900000Y-124500000D01*
X248700000Y-121100000D02*
X250900000Y-121100000D01*
G04 #@! TO.C,CN70*
X248700000Y-130500000D02*
X250900000Y-130500000D01*
X248700000Y-127100000D02*
X250900000Y-127100000D01*
G04 #@! TO.C,CN71*
X248700000Y-135500000D02*
X250900000Y-135500000D01*
X248700000Y-132100000D02*
X250900000Y-132100000D01*
G04 #@! TO.C,CN72*
X248700000Y-141500000D02*
X250900000Y-141500000D01*
X248700000Y-138100000D02*
X250900000Y-138100000D01*
G04 #@! TO.C,CN73*
X248700000Y-147500000D02*
X250900000Y-147500000D01*
X248700000Y-144100000D02*
X250900000Y-144100000D01*
G04 #@! TO.C,CN74*
X248700000Y-149100000D02*
X250900000Y-149100000D01*
X248700000Y-152500000D02*
X250900000Y-152500000D01*
G04 #@! TO.C,CN75*
X248700000Y-155100000D02*
X250900000Y-155100000D01*
X248700000Y-158500000D02*
X250900000Y-158500000D01*
G04 #@! TO.C,CN76*
X248700000Y-160100000D02*
X250900000Y-160100000D01*
X248700000Y-163500000D02*
X250900000Y-163500000D01*
G04 #@! TO.C,RN20*
X61300000Y-99300000D02*
X59100000Y-99300000D01*
X61300000Y-95900000D02*
X59100000Y-95900000D01*
G04 #@! TO.C,RN21*
X61300000Y-94100000D02*
X59100000Y-94100000D01*
X61300000Y-90700000D02*
X59100000Y-90700000D01*
G04 #@! TO.C,RN22*
X61300000Y-88100000D02*
X59100000Y-88100000D01*
X61300000Y-84700000D02*
X59100000Y-84700000D01*
G04 #@! TO.C,RN23*
X61300000Y-82100000D02*
X59100000Y-82100000D01*
X61300000Y-78700000D02*
X59100000Y-78700000D01*
G04 #@! TO.C,RN24*
X61300000Y-73700000D02*
X59100000Y-73700000D01*
X61300000Y-77100000D02*
X59100000Y-77100000D01*
G04 #@! TO.C,RN25*
X61300000Y-68700000D02*
X59100000Y-68700000D01*
X61300000Y-72100000D02*
X59100000Y-72100000D01*
G04 #@! TO.C,RN26*
X61300000Y-63700000D02*
X59100000Y-63700000D01*
X61300000Y-67100000D02*
X59100000Y-67100000D01*
G04 #@! TO.C,RN27*
X61300000Y-55700000D02*
X59100000Y-55700000D01*
X61300000Y-59100000D02*
X59100000Y-59100000D01*
G04 #@! TO.C,RN28*
X61300000Y-49700000D02*
X59100000Y-49700000D01*
X61300000Y-53100000D02*
X59100000Y-53100000D01*
G04 #@! TO.C,RN29*
X61300000Y-159700000D02*
X59100000Y-159700000D01*
X61300000Y-163100000D02*
X59100000Y-163100000D01*
G04 #@! TO.C,RN30*
X61300000Y-154700000D02*
X59100000Y-154700000D01*
X61300000Y-158100000D02*
X59100000Y-158100000D01*
G04 #@! TO.C,RN31*
X61300000Y-148700000D02*
X59100000Y-148700000D01*
X61300000Y-152100000D02*
X59100000Y-152100000D01*
G04 #@! TO.C,RN32*
X61300000Y-143700000D02*
X59100000Y-143700000D01*
X61300000Y-147100000D02*
X59100000Y-147100000D01*
G04 #@! TO.C,RN33*
X61300000Y-137700000D02*
X59100000Y-137700000D01*
X61300000Y-141100000D02*
X59100000Y-141100000D01*
G04 #@! TO.C,RN34*
X61300000Y-132700000D02*
X59100000Y-132700000D01*
X61300000Y-136100000D02*
X59100000Y-136100000D01*
G04 #@! TO.C,RN35*
X61300000Y-126700000D02*
X59100000Y-126700000D01*
X61300000Y-130100000D02*
X59100000Y-130100000D01*
G04 #@! TO.C,RN36*
X61300000Y-123500000D02*
X59100000Y-123500000D01*
X61300000Y-120100000D02*
X59100000Y-120100000D01*
G04 #@! TO.C,RN37*
X61300000Y-114100000D02*
X59100000Y-114100000D01*
X61300000Y-117500000D02*
X59100000Y-117500000D01*
G04 #@! TO.C,RN38*
X61300000Y-109700000D02*
X59100000Y-109700000D01*
X61300000Y-113100000D02*
X59100000Y-113100000D01*
G04 #@! TO.C,RN58*
X243700000Y-52500000D02*
X245900000Y-52500000D01*
X243700000Y-49100000D02*
X245900000Y-49100000D01*
G04 #@! TO.C,RN59*
X243700000Y-58500000D02*
X245900000Y-58500000D01*
X243700000Y-55100000D02*
X245900000Y-55100000D01*
G04 #@! TO.C,RN60*
X243700000Y-65500000D02*
X245900000Y-65500000D01*
X243700000Y-62100000D02*
X245900000Y-62100000D01*
G04 #@! TO.C,RN61*
X243700000Y-72500000D02*
X245900000Y-72500000D01*
X243700000Y-69100000D02*
X245900000Y-69100000D01*
G04 #@! TO.C,RN62*
X243700000Y-77900000D02*
X245900000Y-77900000D01*
X243700000Y-74500000D02*
X245900000Y-74500000D01*
G04 #@! TO.C,RN63*
X243700000Y-83500000D02*
X245900000Y-83500000D01*
X243700000Y-80100000D02*
X245900000Y-80100000D01*
G04 #@! TO.C,RN64*
X243700000Y-88500000D02*
X245900000Y-88500000D01*
X243700000Y-85100000D02*
X245900000Y-85100000D01*
G04 #@! TO.C,RN65*
X243700000Y-93500000D02*
X245900000Y-93500000D01*
X243700000Y-90100000D02*
X245900000Y-90100000D01*
G04 #@! TO.C,RN66*
X243700000Y-98500000D02*
X245900000Y-98500000D01*
X243700000Y-95100000D02*
X245900000Y-95100000D01*
G04 #@! TO.C,RN67*
X243700000Y-114500000D02*
X245900000Y-114500000D01*
X243700000Y-111100000D02*
X245900000Y-111100000D01*
G04 #@! TO.C,RN68*
X243700000Y-116100000D02*
X245900000Y-116100000D01*
X243700000Y-119500000D02*
X245900000Y-119500000D01*
G04 #@! TO.C,RN69*
X243700000Y-121100000D02*
X245900000Y-121100000D01*
X243700000Y-124500000D02*
X245900000Y-124500000D01*
G04 #@! TO.C,RN70*
X243700000Y-127100000D02*
X245900000Y-127100000D01*
X243700000Y-130500000D02*
X245900000Y-130500000D01*
G04 #@! TO.C,RN71*
X243700000Y-132100000D02*
X245900000Y-132100000D01*
X243700000Y-135500000D02*
X245900000Y-135500000D01*
G04 #@! TO.C,RN72*
X243700000Y-138100000D02*
X245900000Y-138100000D01*
X243700000Y-141500000D02*
X245900000Y-141500000D01*
G04 #@! TO.C,RN73*
X243700000Y-147500000D02*
X245900000Y-147500000D01*
X243700000Y-144100000D02*
X245900000Y-144100000D01*
G04 #@! TO.C,RN74*
X243700000Y-152500000D02*
X245900000Y-152500000D01*
X243700000Y-149100000D02*
X245900000Y-149100000D01*
G04 #@! TO.C,RN75*
X243700000Y-155100000D02*
X245900000Y-155100000D01*
X243700000Y-158500000D02*
X245900000Y-158500000D01*
G04 #@! TO.C,RN76*
X243700000Y-163500000D02*
X245900000Y-163500000D01*
X243700000Y-160100000D02*
X245900000Y-160100000D01*
G04 #@! TO.C,CN20*
D11*
X56366666Y-100557142D02*
X56414285Y-100604761D01*
X56557142Y-100652380D01*
X56652380Y-100652380D01*
X56795238Y-100604761D01*
X56890476Y-100509523D01*
X56938095Y-100414285D01*
X56985714Y-100223809D01*
X56985714Y-100080952D01*
X56938095Y-99890476D01*
X56890476Y-99795238D01*
X56795238Y-99700000D01*
X56652380Y-99652380D01*
X56557142Y-99652380D01*
X56414285Y-99700000D01*
X56366666Y-99747619D01*
X55938095Y-100652380D02*
X55938095Y-99652380D01*
X55366666Y-100652380D01*
X55366666Y-99652380D01*
X54938095Y-99747619D02*
X54890476Y-99700000D01*
X54795238Y-99652380D01*
X54557142Y-99652380D01*
X54461904Y-99700000D01*
X54414285Y-99747619D01*
X54366666Y-99842857D01*
X54366666Y-99938095D01*
X54414285Y-100080952D01*
X54985714Y-100652380D01*
X54366666Y-100652380D01*
X53747619Y-99652380D02*
X53652380Y-99652380D01*
X53557142Y-99700000D01*
X53509523Y-99747619D01*
X53461904Y-99842857D01*
X53414285Y-100033333D01*
X53414285Y-100271428D01*
X53461904Y-100461904D01*
X53509523Y-100557142D01*
X53557142Y-100604761D01*
X53652380Y-100652380D01*
X53747619Y-100652380D01*
X53842857Y-100604761D01*
X53890476Y-100557142D01*
X53938095Y-100461904D01*
X53985714Y-100271428D01*
X53985714Y-100033333D01*
X53938095Y-99842857D01*
X53890476Y-99747619D01*
X53842857Y-99700000D01*
X53747619Y-99652380D01*
G04 #@! TO.C,CN21*
X56366666Y-95357142D02*
X56414285Y-95404761D01*
X56557142Y-95452380D01*
X56652380Y-95452380D01*
X56795238Y-95404761D01*
X56890476Y-95309523D01*
X56938095Y-95214285D01*
X56985714Y-95023809D01*
X56985714Y-94880952D01*
X56938095Y-94690476D01*
X56890476Y-94595238D01*
X56795238Y-94500000D01*
X56652380Y-94452380D01*
X56557142Y-94452380D01*
X56414285Y-94500000D01*
X56366666Y-94547619D01*
X55938095Y-95452380D02*
X55938095Y-94452380D01*
X55366666Y-95452380D01*
X55366666Y-94452380D01*
X54938095Y-94547619D02*
X54890476Y-94500000D01*
X54795238Y-94452380D01*
X54557142Y-94452380D01*
X54461904Y-94500000D01*
X54414285Y-94547619D01*
X54366666Y-94642857D01*
X54366666Y-94738095D01*
X54414285Y-94880952D01*
X54985714Y-95452380D01*
X54366666Y-95452380D01*
X53414285Y-95452380D02*
X53985714Y-95452380D01*
X53700000Y-95452380D02*
X53700000Y-94452380D01*
X53795238Y-94595238D01*
X53890476Y-94690476D01*
X53985714Y-94738095D01*
G04 #@! TO.C,CN22*
X56366666Y-89357142D02*
X56414285Y-89404761D01*
X56557142Y-89452380D01*
X56652380Y-89452380D01*
X56795238Y-89404761D01*
X56890476Y-89309523D01*
X56938095Y-89214285D01*
X56985714Y-89023809D01*
X56985714Y-88880952D01*
X56938095Y-88690476D01*
X56890476Y-88595238D01*
X56795238Y-88500000D01*
X56652380Y-88452380D01*
X56557142Y-88452380D01*
X56414285Y-88500000D01*
X56366666Y-88547619D01*
X55938095Y-89452380D02*
X55938095Y-88452380D01*
X55366666Y-89452380D01*
X55366666Y-88452380D01*
X54938095Y-88547619D02*
X54890476Y-88500000D01*
X54795238Y-88452380D01*
X54557142Y-88452380D01*
X54461904Y-88500000D01*
X54414285Y-88547619D01*
X54366666Y-88642857D01*
X54366666Y-88738095D01*
X54414285Y-88880952D01*
X54985714Y-89452380D01*
X54366666Y-89452380D01*
X53985714Y-88547619D02*
X53938095Y-88500000D01*
X53842857Y-88452380D01*
X53604761Y-88452380D01*
X53509523Y-88500000D01*
X53461904Y-88547619D01*
X53414285Y-88642857D01*
X53414285Y-88738095D01*
X53461904Y-88880952D01*
X54033333Y-89452380D01*
X53414285Y-89452380D01*
G04 #@! TO.C,CN23*
X56366666Y-83357142D02*
X56414285Y-83404761D01*
X56557142Y-83452380D01*
X56652380Y-83452380D01*
X56795238Y-83404761D01*
X56890476Y-83309523D01*
X56938095Y-83214285D01*
X56985714Y-83023809D01*
X56985714Y-82880952D01*
X56938095Y-82690476D01*
X56890476Y-82595238D01*
X56795238Y-82500000D01*
X56652380Y-82452380D01*
X56557142Y-82452380D01*
X56414285Y-82500000D01*
X56366666Y-82547619D01*
X55938095Y-83452380D02*
X55938095Y-82452380D01*
X55366666Y-83452380D01*
X55366666Y-82452380D01*
X54938095Y-82547619D02*
X54890476Y-82500000D01*
X54795238Y-82452380D01*
X54557142Y-82452380D01*
X54461904Y-82500000D01*
X54414285Y-82547619D01*
X54366666Y-82642857D01*
X54366666Y-82738095D01*
X54414285Y-82880952D01*
X54985714Y-83452380D01*
X54366666Y-83452380D01*
X54033333Y-82452380D02*
X53414285Y-82452380D01*
X53747619Y-82833333D01*
X53604761Y-82833333D01*
X53509523Y-82880952D01*
X53461904Y-82928571D01*
X53414285Y-83023809D01*
X53414285Y-83261904D01*
X53461904Y-83357142D01*
X53509523Y-83404761D01*
X53604761Y-83452380D01*
X53890476Y-83452380D01*
X53985714Y-83404761D01*
X54033333Y-83357142D01*
G04 #@! TO.C,CN24*
X56366666Y-78357142D02*
X56414285Y-78404761D01*
X56557142Y-78452380D01*
X56652380Y-78452380D01*
X56795238Y-78404761D01*
X56890476Y-78309523D01*
X56938095Y-78214285D01*
X56985714Y-78023809D01*
X56985714Y-77880952D01*
X56938095Y-77690476D01*
X56890476Y-77595238D01*
X56795238Y-77500000D01*
X56652380Y-77452380D01*
X56557142Y-77452380D01*
X56414285Y-77500000D01*
X56366666Y-77547619D01*
X55938095Y-78452380D02*
X55938095Y-77452380D01*
X55366666Y-78452380D01*
X55366666Y-77452380D01*
X54938095Y-77547619D02*
X54890476Y-77500000D01*
X54795238Y-77452380D01*
X54557142Y-77452380D01*
X54461904Y-77500000D01*
X54414285Y-77547619D01*
X54366666Y-77642857D01*
X54366666Y-77738095D01*
X54414285Y-77880952D01*
X54985714Y-78452380D01*
X54366666Y-78452380D01*
X53509523Y-77785714D02*
X53509523Y-78452380D01*
X53747619Y-77404761D02*
X53985714Y-78119047D01*
X53366666Y-78119047D01*
G04 #@! TO.C,CN25*
X56366666Y-73357142D02*
X56414285Y-73404761D01*
X56557142Y-73452380D01*
X56652380Y-73452380D01*
X56795238Y-73404761D01*
X56890476Y-73309523D01*
X56938095Y-73214285D01*
X56985714Y-73023809D01*
X56985714Y-72880952D01*
X56938095Y-72690476D01*
X56890476Y-72595238D01*
X56795238Y-72500000D01*
X56652380Y-72452380D01*
X56557142Y-72452380D01*
X56414285Y-72500000D01*
X56366666Y-72547619D01*
X55938095Y-73452380D02*
X55938095Y-72452380D01*
X55366666Y-73452380D01*
X55366666Y-72452380D01*
X54938095Y-72547619D02*
X54890476Y-72500000D01*
X54795238Y-72452380D01*
X54557142Y-72452380D01*
X54461904Y-72500000D01*
X54414285Y-72547619D01*
X54366666Y-72642857D01*
X54366666Y-72738095D01*
X54414285Y-72880952D01*
X54985714Y-73452380D01*
X54366666Y-73452380D01*
X53461904Y-72452380D02*
X53938095Y-72452380D01*
X53985714Y-72928571D01*
X53938095Y-72880952D01*
X53842857Y-72833333D01*
X53604761Y-72833333D01*
X53509523Y-72880952D01*
X53461904Y-72928571D01*
X53414285Y-73023809D01*
X53414285Y-73261904D01*
X53461904Y-73357142D01*
X53509523Y-73404761D01*
X53604761Y-73452380D01*
X53842857Y-73452380D01*
X53938095Y-73404761D01*
X53985714Y-73357142D01*
G04 #@! TO.C,CN26*
X56366666Y-68357142D02*
X56414285Y-68404761D01*
X56557142Y-68452380D01*
X56652380Y-68452380D01*
X56795238Y-68404761D01*
X56890476Y-68309523D01*
X56938095Y-68214285D01*
X56985714Y-68023809D01*
X56985714Y-67880952D01*
X56938095Y-67690476D01*
X56890476Y-67595238D01*
X56795238Y-67500000D01*
X56652380Y-67452380D01*
X56557142Y-67452380D01*
X56414285Y-67500000D01*
X56366666Y-67547619D01*
X55938095Y-68452380D02*
X55938095Y-67452380D01*
X55366666Y-68452380D01*
X55366666Y-67452380D01*
X54938095Y-67547619D02*
X54890476Y-67500000D01*
X54795238Y-67452380D01*
X54557142Y-67452380D01*
X54461904Y-67500000D01*
X54414285Y-67547619D01*
X54366666Y-67642857D01*
X54366666Y-67738095D01*
X54414285Y-67880952D01*
X54985714Y-68452380D01*
X54366666Y-68452380D01*
X53509523Y-67452380D02*
X53700000Y-67452380D01*
X53795238Y-67500000D01*
X53842857Y-67547619D01*
X53938095Y-67690476D01*
X53985714Y-67880952D01*
X53985714Y-68261904D01*
X53938095Y-68357142D01*
X53890476Y-68404761D01*
X53795238Y-68452380D01*
X53604761Y-68452380D01*
X53509523Y-68404761D01*
X53461904Y-68357142D01*
X53414285Y-68261904D01*
X53414285Y-68023809D01*
X53461904Y-67928571D01*
X53509523Y-67880952D01*
X53604761Y-67833333D01*
X53795238Y-67833333D01*
X53890476Y-67880952D01*
X53938095Y-67928571D01*
X53985714Y-68023809D01*
G04 #@! TO.C,CN27*
X56366666Y-60357142D02*
X56414285Y-60404761D01*
X56557142Y-60452380D01*
X56652380Y-60452380D01*
X56795238Y-60404761D01*
X56890476Y-60309523D01*
X56938095Y-60214285D01*
X56985714Y-60023809D01*
X56985714Y-59880952D01*
X56938095Y-59690476D01*
X56890476Y-59595238D01*
X56795238Y-59500000D01*
X56652380Y-59452380D01*
X56557142Y-59452380D01*
X56414285Y-59500000D01*
X56366666Y-59547619D01*
X55938095Y-60452380D02*
X55938095Y-59452380D01*
X55366666Y-60452380D01*
X55366666Y-59452380D01*
X54938095Y-59547619D02*
X54890476Y-59500000D01*
X54795238Y-59452380D01*
X54557142Y-59452380D01*
X54461904Y-59500000D01*
X54414285Y-59547619D01*
X54366666Y-59642857D01*
X54366666Y-59738095D01*
X54414285Y-59880952D01*
X54985714Y-60452380D01*
X54366666Y-60452380D01*
X54033333Y-59452380D02*
X53366666Y-59452380D01*
X53795238Y-60452380D01*
G04 #@! TO.C,CN28*
X56366666Y-54357142D02*
X56414285Y-54404761D01*
X56557142Y-54452380D01*
X56652380Y-54452380D01*
X56795238Y-54404761D01*
X56890476Y-54309523D01*
X56938095Y-54214285D01*
X56985714Y-54023809D01*
X56985714Y-53880952D01*
X56938095Y-53690476D01*
X56890476Y-53595238D01*
X56795238Y-53500000D01*
X56652380Y-53452380D01*
X56557142Y-53452380D01*
X56414285Y-53500000D01*
X56366666Y-53547619D01*
X55938095Y-54452380D02*
X55938095Y-53452380D01*
X55366666Y-54452380D01*
X55366666Y-53452380D01*
X54938095Y-53547619D02*
X54890476Y-53500000D01*
X54795238Y-53452380D01*
X54557142Y-53452380D01*
X54461904Y-53500000D01*
X54414285Y-53547619D01*
X54366666Y-53642857D01*
X54366666Y-53738095D01*
X54414285Y-53880952D01*
X54985714Y-54452380D01*
X54366666Y-54452380D01*
X53795238Y-53880952D02*
X53890476Y-53833333D01*
X53938095Y-53785714D01*
X53985714Y-53690476D01*
X53985714Y-53642857D01*
X53938095Y-53547619D01*
X53890476Y-53500000D01*
X53795238Y-53452380D01*
X53604761Y-53452380D01*
X53509523Y-53500000D01*
X53461904Y-53547619D01*
X53414285Y-53642857D01*
X53414285Y-53690476D01*
X53461904Y-53785714D01*
X53509523Y-53833333D01*
X53604761Y-53880952D01*
X53795238Y-53880952D01*
X53890476Y-53928571D01*
X53938095Y-53976190D01*
X53985714Y-54071428D01*
X53985714Y-54261904D01*
X53938095Y-54357142D01*
X53890476Y-54404761D01*
X53795238Y-54452380D01*
X53604761Y-54452380D01*
X53509523Y-54404761D01*
X53461904Y-54357142D01*
X53414285Y-54261904D01*
X53414285Y-54071428D01*
X53461904Y-53976190D01*
X53509523Y-53928571D01*
X53604761Y-53880952D01*
G04 #@! TO.C,CN29*
X56366666Y-164357142D02*
X56414285Y-164404761D01*
X56557142Y-164452380D01*
X56652380Y-164452380D01*
X56795238Y-164404761D01*
X56890476Y-164309523D01*
X56938095Y-164214285D01*
X56985714Y-164023809D01*
X56985714Y-163880952D01*
X56938095Y-163690476D01*
X56890476Y-163595238D01*
X56795238Y-163500000D01*
X56652380Y-163452380D01*
X56557142Y-163452380D01*
X56414285Y-163500000D01*
X56366666Y-163547619D01*
X55938095Y-164452380D02*
X55938095Y-163452380D01*
X55366666Y-164452380D01*
X55366666Y-163452380D01*
X54938095Y-163547619D02*
X54890476Y-163500000D01*
X54795238Y-163452380D01*
X54557142Y-163452380D01*
X54461904Y-163500000D01*
X54414285Y-163547619D01*
X54366666Y-163642857D01*
X54366666Y-163738095D01*
X54414285Y-163880952D01*
X54985714Y-164452380D01*
X54366666Y-164452380D01*
X53890476Y-164452380D02*
X53700000Y-164452380D01*
X53604761Y-164404761D01*
X53557142Y-164357142D01*
X53461904Y-164214285D01*
X53414285Y-164023809D01*
X53414285Y-163642857D01*
X53461904Y-163547619D01*
X53509523Y-163500000D01*
X53604761Y-163452380D01*
X53795238Y-163452380D01*
X53890476Y-163500000D01*
X53938095Y-163547619D01*
X53985714Y-163642857D01*
X53985714Y-163880952D01*
X53938095Y-163976190D01*
X53890476Y-164023809D01*
X53795238Y-164071428D01*
X53604761Y-164071428D01*
X53509523Y-164023809D01*
X53461904Y-163976190D01*
X53414285Y-163880952D01*
G04 #@! TO.C,CN30*
X56366666Y-159357142D02*
X56414285Y-159404761D01*
X56557142Y-159452380D01*
X56652380Y-159452380D01*
X56795238Y-159404761D01*
X56890476Y-159309523D01*
X56938095Y-159214285D01*
X56985714Y-159023809D01*
X56985714Y-158880952D01*
X56938095Y-158690476D01*
X56890476Y-158595238D01*
X56795238Y-158500000D01*
X56652380Y-158452380D01*
X56557142Y-158452380D01*
X56414285Y-158500000D01*
X56366666Y-158547619D01*
X55938095Y-159452380D02*
X55938095Y-158452380D01*
X55366666Y-159452380D01*
X55366666Y-158452380D01*
X54985714Y-158452380D02*
X54366666Y-158452380D01*
X54700000Y-158833333D01*
X54557142Y-158833333D01*
X54461904Y-158880952D01*
X54414285Y-158928571D01*
X54366666Y-159023809D01*
X54366666Y-159261904D01*
X54414285Y-159357142D01*
X54461904Y-159404761D01*
X54557142Y-159452380D01*
X54842857Y-159452380D01*
X54938095Y-159404761D01*
X54985714Y-159357142D01*
X53747619Y-158452380D02*
X53652380Y-158452380D01*
X53557142Y-158500000D01*
X53509523Y-158547619D01*
X53461904Y-158642857D01*
X53414285Y-158833333D01*
X53414285Y-159071428D01*
X53461904Y-159261904D01*
X53509523Y-159357142D01*
X53557142Y-159404761D01*
X53652380Y-159452380D01*
X53747619Y-159452380D01*
X53842857Y-159404761D01*
X53890476Y-159357142D01*
X53938095Y-159261904D01*
X53985714Y-159071428D01*
X53985714Y-158833333D01*
X53938095Y-158642857D01*
X53890476Y-158547619D01*
X53842857Y-158500000D01*
X53747619Y-158452380D01*
G04 #@! TO.C,CN31*
X56366666Y-153357142D02*
X56414285Y-153404761D01*
X56557142Y-153452380D01*
X56652380Y-153452380D01*
X56795238Y-153404761D01*
X56890476Y-153309523D01*
X56938095Y-153214285D01*
X56985714Y-153023809D01*
X56985714Y-152880952D01*
X56938095Y-152690476D01*
X56890476Y-152595238D01*
X56795238Y-152500000D01*
X56652380Y-152452380D01*
X56557142Y-152452380D01*
X56414285Y-152500000D01*
X56366666Y-152547619D01*
X55938095Y-153452380D02*
X55938095Y-152452380D01*
X55366666Y-153452380D01*
X55366666Y-152452380D01*
X54985714Y-152452380D02*
X54366666Y-152452380D01*
X54700000Y-152833333D01*
X54557142Y-152833333D01*
X54461904Y-152880952D01*
X54414285Y-152928571D01*
X54366666Y-153023809D01*
X54366666Y-153261904D01*
X54414285Y-153357142D01*
X54461904Y-153404761D01*
X54557142Y-153452380D01*
X54842857Y-153452380D01*
X54938095Y-153404761D01*
X54985714Y-153357142D01*
X53414285Y-153452380D02*
X53985714Y-153452380D01*
X53700000Y-153452380D02*
X53700000Y-152452380D01*
X53795238Y-152595238D01*
X53890476Y-152690476D01*
X53985714Y-152738095D01*
G04 #@! TO.C,CN32*
X56366666Y-148357142D02*
X56414285Y-148404761D01*
X56557142Y-148452380D01*
X56652380Y-148452380D01*
X56795238Y-148404761D01*
X56890476Y-148309523D01*
X56938095Y-148214285D01*
X56985714Y-148023809D01*
X56985714Y-147880952D01*
X56938095Y-147690476D01*
X56890476Y-147595238D01*
X56795238Y-147500000D01*
X56652380Y-147452380D01*
X56557142Y-147452380D01*
X56414285Y-147500000D01*
X56366666Y-147547619D01*
X55938095Y-148452380D02*
X55938095Y-147452380D01*
X55366666Y-148452380D01*
X55366666Y-147452380D01*
X54985714Y-147452380D02*
X54366666Y-147452380D01*
X54700000Y-147833333D01*
X54557142Y-147833333D01*
X54461904Y-147880952D01*
X54414285Y-147928571D01*
X54366666Y-148023809D01*
X54366666Y-148261904D01*
X54414285Y-148357142D01*
X54461904Y-148404761D01*
X54557142Y-148452380D01*
X54842857Y-148452380D01*
X54938095Y-148404761D01*
X54985714Y-148357142D01*
X53985714Y-147547619D02*
X53938095Y-147500000D01*
X53842857Y-147452380D01*
X53604761Y-147452380D01*
X53509523Y-147500000D01*
X53461904Y-147547619D01*
X53414285Y-147642857D01*
X53414285Y-147738095D01*
X53461904Y-147880952D01*
X54033333Y-148452380D01*
X53414285Y-148452380D01*
G04 #@! TO.C,CN33*
X56366666Y-142357142D02*
X56414285Y-142404761D01*
X56557142Y-142452380D01*
X56652380Y-142452380D01*
X56795238Y-142404761D01*
X56890476Y-142309523D01*
X56938095Y-142214285D01*
X56985714Y-142023809D01*
X56985714Y-141880952D01*
X56938095Y-141690476D01*
X56890476Y-141595238D01*
X56795238Y-141500000D01*
X56652380Y-141452380D01*
X56557142Y-141452380D01*
X56414285Y-141500000D01*
X56366666Y-141547619D01*
X55938095Y-142452380D02*
X55938095Y-141452380D01*
X55366666Y-142452380D01*
X55366666Y-141452380D01*
X54985714Y-141452380D02*
X54366666Y-141452380D01*
X54700000Y-141833333D01*
X54557142Y-141833333D01*
X54461904Y-141880952D01*
X54414285Y-141928571D01*
X54366666Y-142023809D01*
X54366666Y-142261904D01*
X54414285Y-142357142D01*
X54461904Y-142404761D01*
X54557142Y-142452380D01*
X54842857Y-142452380D01*
X54938095Y-142404761D01*
X54985714Y-142357142D01*
X54033333Y-141452380D02*
X53414285Y-141452380D01*
X53747619Y-141833333D01*
X53604761Y-141833333D01*
X53509523Y-141880952D01*
X53461904Y-141928571D01*
X53414285Y-142023809D01*
X53414285Y-142261904D01*
X53461904Y-142357142D01*
X53509523Y-142404761D01*
X53604761Y-142452380D01*
X53890476Y-142452380D01*
X53985714Y-142404761D01*
X54033333Y-142357142D01*
G04 #@! TO.C,CN34*
X56366666Y-137357142D02*
X56414285Y-137404761D01*
X56557142Y-137452380D01*
X56652380Y-137452380D01*
X56795238Y-137404761D01*
X56890476Y-137309523D01*
X56938095Y-137214285D01*
X56985714Y-137023809D01*
X56985714Y-136880952D01*
X56938095Y-136690476D01*
X56890476Y-136595238D01*
X56795238Y-136500000D01*
X56652380Y-136452380D01*
X56557142Y-136452380D01*
X56414285Y-136500000D01*
X56366666Y-136547619D01*
X55938095Y-137452380D02*
X55938095Y-136452380D01*
X55366666Y-137452380D01*
X55366666Y-136452380D01*
X54985714Y-136452380D02*
X54366666Y-136452380D01*
X54700000Y-136833333D01*
X54557142Y-136833333D01*
X54461904Y-136880952D01*
X54414285Y-136928571D01*
X54366666Y-137023809D01*
X54366666Y-137261904D01*
X54414285Y-137357142D01*
X54461904Y-137404761D01*
X54557142Y-137452380D01*
X54842857Y-137452380D01*
X54938095Y-137404761D01*
X54985714Y-137357142D01*
X53509523Y-136785714D02*
X53509523Y-137452380D01*
X53747619Y-136404761D02*
X53985714Y-137119047D01*
X53366666Y-137119047D01*
G04 #@! TO.C,CN35*
X56366666Y-131357142D02*
X56414285Y-131404761D01*
X56557142Y-131452380D01*
X56652380Y-131452380D01*
X56795238Y-131404761D01*
X56890476Y-131309523D01*
X56938095Y-131214285D01*
X56985714Y-131023809D01*
X56985714Y-130880952D01*
X56938095Y-130690476D01*
X56890476Y-130595238D01*
X56795238Y-130500000D01*
X56652380Y-130452380D01*
X56557142Y-130452380D01*
X56414285Y-130500000D01*
X56366666Y-130547619D01*
X55938095Y-131452380D02*
X55938095Y-130452380D01*
X55366666Y-131452380D01*
X55366666Y-130452380D01*
X54985714Y-130452380D02*
X54366666Y-130452380D01*
X54700000Y-130833333D01*
X54557142Y-130833333D01*
X54461904Y-130880952D01*
X54414285Y-130928571D01*
X54366666Y-131023809D01*
X54366666Y-131261904D01*
X54414285Y-131357142D01*
X54461904Y-131404761D01*
X54557142Y-131452380D01*
X54842857Y-131452380D01*
X54938095Y-131404761D01*
X54985714Y-131357142D01*
X53461904Y-130452380D02*
X53938095Y-130452380D01*
X53985714Y-130928571D01*
X53938095Y-130880952D01*
X53842857Y-130833333D01*
X53604761Y-130833333D01*
X53509523Y-130880952D01*
X53461904Y-130928571D01*
X53414285Y-131023809D01*
X53414285Y-131261904D01*
X53461904Y-131357142D01*
X53509523Y-131404761D01*
X53604761Y-131452380D01*
X53842857Y-131452380D01*
X53938095Y-131404761D01*
X53985714Y-131357142D01*
G04 #@! TO.C,CN36*
X56366666Y-124757142D02*
X56414285Y-124804761D01*
X56557142Y-124852380D01*
X56652380Y-124852380D01*
X56795238Y-124804761D01*
X56890476Y-124709523D01*
X56938095Y-124614285D01*
X56985714Y-124423809D01*
X56985714Y-124280952D01*
X56938095Y-124090476D01*
X56890476Y-123995238D01*
X56795238Y-123900000D01*
X56652380Y-123852380D01*
X56557142Y-123852380D01*
X56414285Y-123900000D01*
X56366666Y-123947619D01*
X55938095Y-124852380D02*
X55938095Y-123852380D01*
X55366666Y-124852380D01*
X55366666Y-123852380D01*
X54985714Y-123852380D02*
X54366666Y-123852380D01*
X54700000Y-124233333D01*
X54557142Y-124233333D01*
X54461904Y-124280952D01*
X54414285Y-124328571D01*
X54366666Y-124423809D01*
X54366666Y-124661904D01*
X54414285Y-124757142D01*
X54461904Y-124804761D01*
X54557142Y-124852380D01*
X54842857Y-124852380D01*
X54938095Y-124804761D01*
X54985714Y-124757142D01*
X53509523Y-123852380D02*
X53700000Y-123852380D01*
X53795238Y-123900000D01*
X53842857Y-123947619D01*
X53938095Y-124090476D01*
X53985714Y-124280952D01*
X53985714Y-124661904D01*
X53938095Y-124757142D01*
X53890476Y-124804761D01*
X53795238Y-124852380D01*
X53604761Y-124852380D01*
X53509523Y-124804761D01*
X53461904Y-124757142D01*
X53414285Y-124661904D01*
X53414285Y-124423809D01*
X53461904Y-124328571D01*
X53509523Y-124280952D01*
X53604761Y-124233333D01*
X53795238Y-124233333D01*
X53890476Y-124280952D01*
X53938095Y-124328571D01*
X53985714Y-124423809D01*
G04 #@! TO.C,CN37*
X56366666Y-118757142D02*
X56414285Y-118804761D01*
X56557142Y-118852380D01*
X56652380Y-118852380D01*
X56795238Y-118804761D01*
X56890476Y-118709523D01*
X56938095Y-118614285D01*
X56985714Y-118423809D01*
X56985714Y-118280952D01*
X56938095Y-118090476D01*
X56890476Y-117995238D01*
X56795238Y-117900000D01*
X56652380Y-117852380D01*
X56557142Y-117852380D01*
X56414285Y-117900000D01*
X56366666Y-117947619D01*
X55938095Y-118852380D02*
X55938095Y-117852380D01*
X55366666Y-118852380D01*
X55366666Y-117852380D01*
X54985714Y-117852380D02*
X54366666Y-117852380D01*
X54700000Y-118233333D01*
X54557142Y-118233333D01*
X54461904Y-118280952D01*
X54414285Y-118328571D01*
X54366666Y-118423809D01*
X54366666Y-118661904D01*
X54414285Y-118757142D01*
X54461904Y-118804761D01*
X54557142Y-118852380D01*
X54842857Y-118852380D01*
X54938095Y-118804761D01*
X54985714Y-118757142D01*
X54033333Y-117852380D02*
X53366666Y-117852380D01*
X53795238Y-118852380D01*
G04 #@! TO.C,CN38*
X56366666Y-114357142D02*
X56414285Y-114404761D01*
X56557142Y-114452380D01*
X56652380Y-114452380D01*
X56795238Y-114404761D01*
X56890476Y-114309523D01*
X56938095Y-114214285D01*
X56985714Y-114023809D01*
X56985714Y-113880952D01*
X56938095Y-113690476D01*
X56890476Y-113595238D01*
X56795238Y-113500000D01*
X56652380Y-113452380D01*
X56557142Y-113452380D01*
X56414285Y-113500000D01*
X56366666Y-113547619D01*
X55938095Y-114452380D02*
X55938095Y-113452380D01*
X55366666Y-114452380D01*
X55366666Y-113452380D01*
X54985714Y-113452380D02*
X54366666Y-113452380D01*
X54700000Y-113833333D01*
X54557142Y-113833333D01*
X54461904Y-113880952D01*
X54414285Y-113928571D01*
X54366666Y-114023809D01*
X54366666Y-114261904D01*
X54414285Y-114357142D01*
X54461904Y-114404761D01*
X54557142Y-114452380D01*
X54842857Y-114452380D01*
X54938095Y-114404761D01*
X54985714Y-114357142D01*
X53795238Y-113880952D02*
X53890476Y-113833333D01*
X53938095Y-113785714D01*
X53985714Y-113690476D01*
X53985714Y-113642857D01*
X53938095Y-113547619D01*
X53890476Y-113500000D01*
X53795238Y-113452380D01*
X53604761Y-113452380D01*
X53509523Y-113500000D01*
X53461904Y-113547619D01*
X53414285Y-113642857D01*
X53414285Y-113690476D01*
X53461904Y-113785714D01*
X53509523Y-113833333D01*
X53604761Y-113880952D01*
X53795238Y-113880952D01*
X53890476Y-113928571D01*
X53938095Y-113976190D01*
X53985714Y-114071428D01*
X53985714Y-114261904D01*
X53938095Y-114357142D01*
X53890476Y-114404761D01*
X53795238Y-114452380D01*
X53604761Y-114452380D01*
X53509523Y-114404761D01*
X53461904Y-114357142D01*
X53414285Y-114261904D01*
X53414285Y-114071428D01*
X53461904Y-113976190D01*
X53509523Y-113928571D01*
X53604761Y-113880952D01*
G04 #@! TO.C,CN58*
X250966666Y-48557142D02*
X251014285Y-48604761D01*
X251157142Y-48652380D01*
X251252380Y-48652380D01*
X251395238Y-48604761D01*
X251490476Y-48509523D01*
X251538095Y-48414285D01*
X251585714Y-48223809D01*
X251585714Y-48080952D01*
X251538095Y-47890476D01*
X251490476Y-47795238D01*
X251395238Y-47700000D01*
X251252380Y-47652380D01*
X251157142Y-47652380D01*
X251014285Y-47700000D01*
X250966666Y-47747619D01*
X250538095Y-48652380D02*
X250538095Y-47652380D01*
X249966666Y-48652380D01*
X249966666Y-47652380D01*
X249014285Y-47652380D02*
X249490476Y-47652380D01*
X249538095Y-48128571D01*
X249490476Y-48080952D01*
X249395238Y-48033333D01*
X249157142Y-48033333D01*
X249061904Y-48080952D01*
X249014285Y-48128571D01*
X248966666Y-48223809D01*
X248966666Y-48461904D01*
X249014285Y-48557142D01*
X249061904Y-48604761D01*
X249157142Y-48652380D01*
X249395238Y-48652380D01*
X249490476Y-48604761D01*
X249538095Y-48557142D01*
X248395238Y-48080952D02*
X248490476Y-48033333D01*
X248538095Y-47985714D01*
X248585714Y-47890476D01*
X248585714Y-47842857D01*
X248538095Y-47747619D01*
X248490476Y-47700000D01*
X248395238Y-47652380D01*
X248204761Y-47652380D01*
X248109523Y-47700000D01*
X248061904Y-47747619D01*
X248014285Y-47842857D01*
X248014285Y-47890476D01*
X248061904Y-47985714D01*
X248109523Y-48033333D01*
X248204761Y-48080952D01*
X248395238Y-48080952D01*
X248490476Y-48128571D01*
X248538095Y-48176190D01*
X248585714Y-48271428D01*
X248585714Y-48461904D01*
X248538095Y-48557142D01*
X248490476Y-48604761D01*
X248395238Y-48652380D01*
X248204761Y-48652380D01*
X248109523Y-48604761D01*
X248061904Y-48557142D01*
X248014285Y-48461904D01*
X248014285Y-48271428D01*
X248061904Y-48176190D01*
X248109523Y-48128571D01*
X248204761Y-48080952D01*
G04 #@! TO.C,CN59*
X250966666Y-54557142D02*
X251014285Y-54604761D01*
X251157142Y-54652380D01*
X251252380Y-54652380D01*
X251395238Y-54604761D01*
X251490476Y-54509523D01*
X251538095Y-54414285D01*
X251585714Y-54223809D01*
X251585714Y-54080952D01*
X251538095Y-53890476D01*
X251490476Y-53795238D01*
X251395238Y-53700000D01*
X251252380Y-53652380D01*
X251157142Y-53652380D01*
X251014285Y-53700000D01*
X250966666Y-53747619D01*
X250538095Y-54652380D02*
X250538095Y-53652380D01*
X249966666Y-54652380D01*
X249966666Y-53652380D01*
X249014285Y-53652380D02*
X249490476Y-53652380D01*
X249538095Y-54128571D01*
X249490476Y-54080952D01*
X249395238Y-54033333D01*
X249157142Y-54033333D01*
X249061904Y-54080952D01*
X249014285Y-54128571D01*
X248966666Y-54223809D01*
X248966666Y-54461904D01*
X249014285Y-54557142D01*
X249061904Y-54604761D01*
X249157142Y-54652380D01*
X249395238Y-54652380D01*
X249490476Y-54604761D01*
X249538095Y-54557142D01*
X248490476Y-54652380D02*
X248300000Y-54652380D01*
X248204761Y-54604761D01*
X248157142Y-54557142D01*
X248061904Y-54414285D01*
X248014285Y-54223809D01*
X248014285Y-53842857D01*
X248061904Y-53747619D01*
X248109523Y-53700000D01*
X248204761Y-53652380D01*
X248395238Y-53652380D01*
X248490476Y-53700000D01*
X248538095Y-53747619D01*
X248585714Y-53842857D01*
X248585714Y-54080952D01*
X248538095Y-54176190D01*
X248490476Y-54223809D01*
X248395238Y-54271428D01*
X248204761Y-54271428D01*
X248109523Y-54223809D01*
X248061904Y-54176190D01*
X248014285Y-54080952D01*
G04 #@! TO.C,CN60*
X250966666Y-61557142D02*
X251014285Y-61604761D01*
X251157142Y-61652380D01*
X251252380Y-61652380D01*
X251395238Y-61604761D01*
X251490476Y-61509523D01*
X251538095Y-61414285D01*
X251585714Y-61223809D01*
X251585714Y-61080952D01*
X251538095Y-60890476D01*
X251490476Y-60795238D01*
X251395238Y-60700000D01*
X251252380Y-60652380D01*
X251157142Y-60652380D01*
X251014285Y-60700000D01*
X250966666Y-60747619D01*
X250538095Y-61652380D02*
X250538095Y-60652380D01*
X249966666Y-61652380D01*
X249966666Y-60652380D01*
X249061904Y-60652380D02*
X249252380Y-60652380D01*
X249347619Y-60700000D01*
X249395238Y-60747619D01*
X249490476Y-60890476D01*
X249538095Y-61080952D01*
X249538095Y-61461904D01*
X249490476Y-61557142D01*
X249442857Y-61604761D01*
X249347619Y-61652380D01*
X249157142Y-61652380D01*
X249061904Y-61604761D01*
X249014285Y-61557142D01*
X248966666Y-61461904D01*
X248966666Y-61223809D01*
X249014285Y-61128571D01*
X249061904Y-61080952D01*
X249157142Y-61033333D01*
X249347619Y-61033333D01*
X249442857Y-61080952D01*
X249490476Y-61128571D01*
X249538095Y-61223809D01*
X248347619Y-60652380D02*
X248252380Y-60652380D01*
X248157142Y-60700000D01*
X248109523Y-60747619D01*
X248061904Y-60842857D01*
X248014285Y-61033333D01*
X248014285Y-61271428D01*
X248061904Y-61461904D01*
X248109523Y-61557142D01*
X248157142Y-61604761D01*
X248252380Y-61652380D01*
X248347619Y-61652380D01*
X248442857Y-61604761D01*
X248490476Y-61557142D01*
X248538095Y-61461904D01*
X248585714Y-61271428D01*
X248585714Y-61033333D01*
X248538095Y-60842857D01*
X248490476Y-60747619D01*
X248442857Y-60700000D01*
X248347619Y-60652380D01*
G04 #@! TO.C,CN61*
X250966666Y-68557142D02*
X251014285Y-68604761D01*
X251157142Y-68652380D01*
X251252380Y-68652380D01*
X251395238Y-68604761D01*
X251490476Y-68509523D01*
X251538095Y-68414285D01*
X251585714Y-68223809D01*
X251585714Y-68080952D01*
X251538095Y-67890476D01*
X251490476Y-67795238D01*
X251395238Y-67700000D01*
X251252380Y-67652380D01*
X251157142Y-67652380D01*
X251014285Y-67700000D01*
X250966666Y-67747619D01*
X250538095Y-68652380D02*
X250538095Y-67652380D01*
X249966666Y-68652380D01*
X249966666Y-67652380D01*
X249061904Y-67652380D02*
X249252380Y-67652380D01*
X249347619Y-67700000D01*
X249395238Y-67747619D01*
X249490476Y-67890476D01*
X249538095Y-68080952D01*
X249538095Y-68461904D01*
X249490476Y-68557142D01*
X249442857Y-68604761D01*
X249347619Y-68652380D01*
X249157142Y-68652380D01*
X249061904Y-68604761D01*
X249014285Y-68557142D01*
X248966666Y-68461904D01*
X248966666Y-68223809D01*
X249014285Y-68128571D01*
X249061904Y-68080952D01*
X249157142Y-68033333D01*
X249347619Y-68033333D01*
X249442857Y-68080952D01*
X249490476Y-68128571D01*
X249538095Y-68223809D01*
X248014285Y-68652380D02*
X248585714Y-68652380D01*
X248300000Y-68652380D02*
X248300000Y-67652380D01*
X248395238Y-67795238D01*
X248490476Y-67890476D01*
X248585714Y-67938095D01*
G04 #@! TO.C,CN62*
X250966666Y-73957142D02*
X251014285Y-74004761D01*
X251157142Y-74052380D01*
X251252380Y-74052380D01*
X251395238Y-74004761D01*
X251490476Y-73909523D01*
X251538095Y-73814285D01*
X251585714Y-73623809D01*
X251585714Y-73480952D01*
X251538095Y-73290476D01*
X251490476Y-73195238D01*
X251395238Y-73100000D01*
X251252380Y-73052380D01*
X251157142Y-73052380D01*
X251014285Y-73100000D01*
X250966666Y-73147619D01*
X250538095Y-74052380D02*
X250538095Y-73052380D01*
X249966666Y-74052380D01*
X249966666Y-73052380D01*
X249061904Y-73052380D02*
X249252380Y-73052380D01*
X249347619Y-73100000D01*
X249395238Y-73147619D01*
X249490476Y-73290476D01*
X249538095Y-73480952D01*
X249538095Y-73861904D01*
X249490476Y-73957142D01*
X249442857Y-74004761D01*
X249347619Y-74052380D01*
X249157142Y-74052380D01*
X249061904Y-74004761D01*
X249014285Y-73957142D01*
X248966666Y-73861904D01*
X248966666Y-73623809D01*
X249014285Y-73528571D01*
X249061904Y-73480952D01*
X249157142Y-73433333D01*
X249347619Y-73433333D01*
X249442857Y-73480952D01*
X249490476Y-73528571D01*
X249538095Y-73623809D01*
X248585714Y-73147619D02*
X248538095Y-73100000D01*
X248442857Y-73052380D01*
X248204761Y-73052380D01*
X248109523Y-73100000D01*
X248061904Y-73147619D01*
X248014285Y-73242857D01*
X248014285Y-73338095D01*
X248061904Y-73480952D01*
X248633333Y-74052380D01*
X248014285Y-74052380D01*
G04 #@! TO.C,CN63*
X250966666Y-79557142D02*
X251014285Y-79604761D01*
X251157142Y-79652380D01*
X251252380Y-79652380D01*
X251395238Y-79604761D01*
X251490476Y-79509523D01*
X251538095Y-79414285D01*
X251585714Y-79223809D01*
X251585714Y-79080952D01*
X251538095Y-78890476D01*
X251490476Y-78795238D01*
X251395238Y-78700000D01*
X251252380Y-78652380D01*
X251157142Y-78652380D01*
X251014285Y-78700000D01*
X250966666Y-78747619D01*
X250538095Y-79652380D02*
X250538095Y-78652380D01*
X249966666Y-79652380D01*
X249966666Y-78652380D01*
X249061904Y-78652380D02*
X249252380Y-78652380D01*
X249347619Y-78700000D01*
X249395238Y-78747619D01*
X249490476Y-78890476D01*
X249538095Y-79080952D01*
X249538095Y-79461904D01*
X249490476Y-79557142D01*
X249442857Y-79604761D01*
X249347619Y-79652380D01*
X249157142Y-79652380D01*
X249061904Y-79604761D01*
X249014285Y-79557142D01*
X248966666Y-79461904D01*
X248966666Y-79223809D01*
X249014285Y-79128571D01*
X249061904Y-79080952D01*
X249157142Y-79033333D01*
X249347619Y-79033333D01*
X249442857Y-79080952D01*
X249490476Y-79128571D01*
X249538095Y-79223809D01*
X248633333Y-78652380D02*
X248014285Y-78652380D01*
X248347619Y-79033333D01*
X248204761Y-79033333D01*
X248109523Y-79080952D01*
X248061904Y-79128571D01*
X248014285Y-79223809D01*
X248014285Y-79461904D01*
X248061904Y-79557142D01*
X248109523Y-79604761D01*
X248204761Y-79652380D01*
X248490476Y-79652380D01*
X248585714Y-79604761D01*
X248633333Y-79557142D01*
G04 #@! TO.C,CN64*
X250966666Y-84557142D02*
X251014285Y-84604761D01*
X251157142Y-84652380D01*
X251252380Y-84652380D01*
X251395238Y-84604761D01*
X251490476Y-84509523D01*
X251538095Y-84414285D01*
X251585714Y-84223809D01*
X251585714Y-84080952D01*
X251538095Y-83890476D01*
X251490476Y-83795238D01*
X251395238Y-83700000D01*
X251252380Y-83652380D01*
X251157142Y-83652380D01*
X251014285Y-83700000D01*
X250966666Y-83747619D01*
X250538095Y-84652380D02*
X250538095Y-83652380D01*
X249966666Y-84652380D01*
X249966666Y-83652380D01*
X249061904Y-83652380D02*
X249252380Y-83652380D01*
X249347619Y-83700000D01*
X249395238Y-83747619D01*
X249490476Y-83890476D01*
X249538095Y-84080952D01*
X249538095Y-84461904D01*
X249490476Y-84557142D01*
X249442857Y-84604761D01*
X249347619Y-84652380D01*
X249157142Y-84652380D01*
X249061904Y-84604761D01*
X249014285Y-84557142D01*
X248966666Y-84461904D01*
X248966666Y-84223809D01*
X249014285Y-84128571D01*
X249061904Y-84080952D01*
X249157142Y-84033333D01*
X249347619Y-84033333D01*
X249442857Y-84080952D01*
X249490476Y-84128571D01*
X249538095Y-84223809D01*
X248109523Y-83985714D02*
X248109523Y-84652380D01*
X248347619Y-83604761D02*
X248585714Y-84319047D01*
X247966666Y-84319047D01*
G04 #@! TO.C,CN65*
X250966666Y-89557142D02*
X251014285Y-89604761D01*
X251157142Y-89652380D01*
X251252380Y-89652380D01*
X251395238Y-89604761D01*
X251490476Y-89509523D01*
X251538095Y-89414285D01*
X251585714Y-89223809D01*
X251585714Y-89080952D01*
X251538095Y-88890476D01*
X251490476Y-88795238D01*
X251395238Y-88700000D01*
X251252380Y-88652380D01*
X251157142Y-88652380D01*
X251014285Y-88700000D01*
X250966666Y-88747619D01*
X250538095Y-89652380D02*
X250538095Y-88652380D01*
X249966666Y-89652380D01*
X249966666Y-88652380D01*
X249061904Y-88652380D02*
X249252380Y-88652380D01*
X249347619Y-88700000D01*
X249395238Y-88747619D01*
X249490476Y-88890476D01*
X249538095Y-89080952D01*
X249538095Y-89461904D01*
X249490476Y-89557142D01*
X249442857Y-89604761D01*
X249347619Y-89652380D01*
X249157142Y-89652380D01*
X249061904Y-89604761D01*
X249014285Y-89557142D01*
X248966666Y-89461904D01*
X248966666Y-89223809D01*
X249014285Y-89128571D01*
X249061904Y-89080952D01*
X249157142Y-89033333D01*
X249347619Y-89033333D01*
X249442857Y-89080952D01*
X249490476Y-89128571D01*
X249538095Y-89223809D01*
X248061904Y-88652380D02*
X248538095Y-88652380D01*
X248585714Y-89128571D01*
X248538095Y-89080952D01*
X248442857Y-89033333D01*
X248204761Y-89033333D01*
X248109523Y-89080952D01*
X248061904Y-89128571D01*
X248014285Y-89223809D01*
X248014285Y-89461904D01*
X248061904Y-89557142D01*
X248109523Y-89604761D01*
X248204761Y-89652380D01*
X248442857Y-89652380D01*
X248538095Y-89604761D01*
X248585714Y-89557142D01*
G04 #@! TO.C,CN66*
X250966666Y-94557142D02*
X251014285Y-94604761D01*
X251157142Y-94652380D01*
X251252380Y-94652380D01*
X251395238Y-94604761D01*
X251490476Y-94509523D01*
X251538095Y-94414285D01*
X251585714Y-94223809D01*
X251585714Y-94080952D01*
X251538095Y-93890476D01*
X251490476Y-93795238D01*
X251395238Y-93700000D01*
X251252380Y-93652380D01*
X251157142Y-93652380D01*
X251014285Y-93700000D01*
X250966666Y-93747619D01*
X250538095Y-94652380D02*
X250538095Y-93652380D01*
X249966666Y-94652380D01*
X249966666Y-93652380D01*
X249061904Y-93652380D02*
X249252380Y-93652380D01*
X249347619Y-93700000D01*
X249395238Y-93747619D01*
X249490476Y-93890476D01*
X249538095Y-94080952D01*
X249538095Y-94461904D01*
X249490476Y-94557142D01*
X249442857Y-94604761D01*
X249347619Y-94652380D01*
X249157142Y-94652380D01*
X249061904Y-94604761D01*
X249014285Y-94557142D01*
X248966666Y-94461904D01*
X248966666Y-94223809D01*
X249014285Y-94128571D01*
X249061904Y-94080952D01*
X249157142Y-94033333D01*
X249347619Y-94033333D01*
X249442857Y-94080952D01*
X249490476Y-94128571D01*
X249538095Y-94223809D01*
X248109523Y-93652380D02*
X248300000Y-93652380D01*
X248395238Y-93700000D01*
X248442857Y-93747619D01*
X248538095Y-93890476D01*
X248585714Y-94080952D01*
X248585714Y-94461904D01*
X248538095Y-94557142D01*
X248490476Y-94604761D01*
X248395238Y-94652380D01*
X248204761Y-94652380D01*
X248109523Y-94604761D01*
X248061904Y-94557142D01*
X248014285Y-94461904D01*
X248014285Y-94223809D01*
X248061904Y-94128571D01*
X248109523Y-94080952D01*
X248204761Y-94033333D01*
X248395238Y-94033333D01*
X248490476Y-94080952D01*
X248538095Y-94128571D01*
X248585714Y-94223809D01*
G04 #@! TO.C,CN67*
X250966666Y-110557142D02*
X251014285Y-110604761D01*
X251157142Y-110652380D01*
X251252380Y-110652380D01*
X251395238Y-110604761D01*
X251490476Y-110509523D01*
X251538095Y-110414285D01*
X251585714Y-110223809D01*
X251585714Y-110080952D01*
X251538095Y-109890476D01*
X251490476Y-109795238D01*
X251395238Y-109700000D01*
X251252380Y-109652380D01*
X251157142Y-109652380D01*
X251014285Y-109700000D01*
X250966666Y-109747619D01*
X250538095Y-110652380D02*
X250538095Y-109652380D01*
X249966666Y-110652380D01*
X249966666Y-109652380D01*
X249061904Y-109652380D02*
X249252380Y-109652380D01*
X249347619Y-109700000D01*
X249395238Y-109747619D01*
X249490476Y-109890476D01*
X249538095Y-110080952D01*
X249538095Y-110461904D01*
X249490476Y-110557142D01*
X249442857Y-110604761D01*
X249347619Y-110652380D01*
X249157142Y-110652380D01*
X249061904Y-110604761D01*
X249014285Y-110557142D01*
X248966666Y-110461904D01*
X248966666Y-110223809D01*
X249014285Y-110128571D01*
X249061904Y-110080952D01*
X249157142Y-110033333D01*
X249347619Y-110033333D01*
X249442857Y-110080952D01*
X249490476Y-110128571D01*
X249538095Y-110223809D01*
X248633333Y-109652380D02*
X247966666Y-109652380D01*
X248395238Y-110652380D01*
G04 #@! TO.C,CN68*
X250966666Y-115557142D02*
X251014285Y-115604761D01*
X251157142Y-115652380D01*
X251252380Y-115652380D01*
X251395238Y-115604761D01*
X251490476Y-115509523D01*
X251538095Y-115414285D01*
X251585714Y-115223809D01*
X251585714Y-115080952D01*
X251538095Y-114890476D01*
X251490476Y-114795238D01*
X251395238Y-114700000D01*
X251252380Y-114652380D01*
X251157142Y-114652380D01*
X251014285Y-114700000D01*
X250966666Y-114747619D01*
X250538095Y-115652380D02*
X250538095Y-114652380D01*
X249966666Y-115652380D01*
X249966666Y-114652380D01*
X249061904Y-114652380D02*
X249252380Y-114652380D01*
X249347619Y-114700000D01*
X249395238Y-114747619D01*
X249490476Y-114890476D01*
X249538095Y-115080952D01*
X249538095Y-115461904D01*
X249490476Y-115557142D01*
X249442857Y-115604761D01*
X249347619Y-115652380D01*
X249157142Y-115652380D01*
X249061904Y-115604761D01*
X249014285Y-115557142D01*
X248966666Y-115461904D01*
X248966666Y-115223809D01*
X249014285Y-115128571D01*
X249061904Y-115080952D01*
X249157142Y-115033333D01*
X249347619Y-115033333D01*
X249442857Y-115080952D01*
X249490476Y-115128571D01*
X249538095Y-115223809D01*
X248395238Y-115080952D02*
X248490476Y-115033333D01*
X248538095Y-114985714D01*
X248585714Y-114890476D01*
X248585714Y-114842857D01*
X248538095Y-114747619D01*
X248490476Y-114700000D01*
X248395238Y-114652380D01*
X248204761Y-114652380D01*
X248109523Y-114700000D01*
X248061904Y-114747619D01*
X248014285Y-114842857D01*
X248014285Y-114890476D01*
X248061904Y-114985714D01*
X248109523Y-115033333D01*
X248204761Y-115080952D01*
X248395238Y-115080952D01*
X248490476Y-115128571D01*
X248538095Y-115176190D01*
X248585714Y-115271428D01*
X248585714Y-115461904D01*
X248538095Y-115557142D01*
X248490476Y-115604761D01*
X248395238Y-115652380D01*
X248204761Y-115652380D01*
X248109523Y-115604761D01*
X248061904Y-115557142D01*
X248014285Y-115461904D01*
X248014285Y-115271428D01*
X248061904Y-115176190D01*
X248109523Y-115128571D01*
X248204761Y-115080952D01*
G04 #@! TO.C,CN69*
X250966666Y-120557142D02*
X251014285Y-120604761D01*
X251157142Y-120652380D01*
X251252380Y-120652380D01*
X251395238Y-120604761D01*
X251490476Y-120509523D01*
X251538095Y-120414285D01*
X251585714Y-120223809D01*
X251585714Y-120080952D01*
X251538095Y-119890476D01*
X251490476Y-119795238D01*
X251395238Y-119700000D01*
X251252380Y-119652380D01*
X251157142Y-119652380D01*
X251014285Y-119700000D01*
X250966666Y-119747619D01*
X250538095Y-120652380D02*
X250538095Y-119652380D01*
X249966666Y-120652380D01*
X249966666Y-119652380D01*
X249061904Y-119652380D02*
X249252380Y-119652380D01*
X249347619Y-119700000D01*
X249395238Y-119747619D01*
X249490476Y-119890476D01*
X249538095Y-120080952D01*
X249538095Y-120461904D01*
X249490476Y-120557142D01*
X249442857Y-120604761D01*
X249347619Y-120652380D01*
X249157142Y-120652380D01*
X249061904Y-120604761D01*
X249014285Y-120557142D01*
X248966666Y-120461904D01*
X248966666Y-120223809D01*
X249014285Y-120128571D01*
X249061904Y-120080952D01*
X249157142Y-120033333D01*
X249347619Y-120033333D01*
X249442857Y-120080952D01*
X249490476Y-120128571D01*
X249538095Y-120223809D01*
X248490476Y-120652380D02*
X248300000Y-120652380D01*
X248204761Y-120604761D01*
X248157142Y-120557142D01*
X248061904Y-120414285D01*
X248014285Y-120223809D01*
X248014285Y-119842857D01*
X248061904Y-119747619D01*
X248109523Y-119700000D01*
X248204761Y-119652380D01*
X248395238Y-119652380D01*
X248490476Y-119700000D01*
X248538095Y-119747619D01*
X248585714Y-119842857D01*
X248585714Y-120080952D01*
X248538095Y-120176190D01*
X248490476Y-120223809D01*
X248395238Y-120271428D01*
X248204761Y-120271428D01*
X248109523Y-120223809D01*
X248061904Y-120176190D01*
X248014285Y-120080952D01*
G04 #@! TO.C,CN70*
X250966666Y-126557142D02*
X251014285Y-126604761D01*
X251157142Y-126652380D01*
X251252380Y-126652380D01*
X251395238Y-126604761D01*
X251490476Y-126509523D01*
X251538095Y-126414285D01*
X251585714Y-126223809D01*
X251585714Y-126080952D01*
X251538095Y-125890476D01*
X251490476Y-125795238D01*
X251395238Y-125700000D01*
X251252380Y-125652380D01*
X251157142Y-125652380D01*
X251014285Y-125700000D01*
X250966666Y-125747619D01*
X250538095Y-126652380D02*
X250538095Y-125652380D01*
X249966666Y-126652380D01*
X249966666Y-125652380D01*
X249585714Y-125652380D02*
X248919047Y-125652380D01*
X249347619Y-126652380D01*
X248347619Y-125652380D02*
X248252380Y-125652380D01*
X248157142Y-125700000D01*
X248109523Y-125747619D01*
X248061904Y-125842857D01*
X248014285Y-126033333D01*
X248014285Y-126271428D01*
X248061904Y-126461904D01*
X248109523Y-126557142D01*
X248157142Y-126604761D01*
X248252380Y-126652380D01*
X248347619Y-126652380D01*
X248442857Y-126604761D01*
X248490476Y-126557142D01*
X248538095Y-126461904D01*
X248585714Y-126271428D01*
X248585714Y-126033333D01*
X248538095Y-125842857D01*
X248490476Y-125747619D01*
X248442857Y-125700000D01*
X248347619Y-125652380D01*
G04 #@! TO.C,CN71*
X250966666Y-131557142D02*
X251014285Y-131604761D01*
X251157142Y-131652380D01*
X251252380Y-131652380D01*
X251395238Y-131604761D01*
X251490476Y-131509523D01*
X251538095Y-131414285D01*
X251585714Y-131223809D01*
X251585714Y-131080952D01*
X251538095Y-130890476D01*
X251490476Y-130795238D01*
X251395238Y-130700000D01*
X251252380Y-130652380D01*
X251157142Y-130652380D01*
X251014285Y-130700000D01*
X250966666Y-130747619D01*
X250538095Y-131652380D02*
X250538095Y-130652380D01*
X249966666Y-131652380D01*
X249966666Y-130652380D01*
X249585714Y-130652380D02*
X248919047Y-130652380D01*
X249347619Y-131652380D01*
X248014285Y-131652380D02*
X248585714Y-131652380D01*
X248300000Y-131652380D02*
X248300000Y-130652380D01*
X248395238Y-130795238D01*
X248490476Y-130890476D01*
X248585714Y-130938095D01*
G04 #@! TO.C,CN72*
X250966666Y-137557142D02*
X251014285Y-137604761D01*
X251157142Y-137652380D01*
X251252380Y-137652380D01*
X251395238Y-137604761D01*
X251490476Y-137509523D01*
X251538095Y-137414285D01*
X251585714Y-137223809D01*
X251585714Y-137080952D01*
X251538095Y-136890476D01*
X251490476Y-136795238D01*
X251395238Y-136700000D01*
X251252380Y-136652380D01*
X251157142Y-136652380D01*
X251014285Y-136700000D01*
X250966666Y-136747619D01*
X250538095Y-137652380D02*
X250538095Y-136652380D01*
X249966666Y-137652380D01*
X249966666Y-136652380D01*
X249585714Y-136652380D02*
X248919047Y-136652380D01*
X249347619Y-137652380D01*
X248585714Y-136747619D02*
X248538095Y-136700000D01*
X248442857Y-136652380D01*
X248204761Y-136652380D01*
X248109523Y-136700000D01*
X248061904Y-136747619D01*
X248014285Y-136842857D01*
X248014285Y-136938095D01*
X248061904Y-137080952D01*
X248633333Y-137652380D01*
X248014285Y-137652380D01*
G04 #@! TO.C,CN73*
X250966666Y-143557142D02*
X251014285Y-143604761D01*
X251157142Y-143652380D01*
X251252380Y-143652380D01*
X251395238Y-143604761D01*
X251490476Y-143509523D01*
X251538095Y-143414285D01*
X251585714Y-143223809D01*
X251585714Y-143080952D01*
X251538095Y-142890476D01*
X251490476Y-142795238D01*
X251395238Y-142700000D01*
X251252380Y-142652380D01*
X251157142Y-142652380D01*
X251014285Y-142700000D01*
X250966666Y-142747619D01*
X250538095Y-143652380D02*
X250538095Y-142652380D01*
X249966666Y-143652380D01*
X249966666Y-142652380D01*
X249585714Y-142652380D02*
X248919047Y-142652380D01*
X249347619Y-143652380D01*
X248633333Y-142652380D02*
X248014285Y-142652380D01*
X248347619Y-143033333D01*
X248204761Y-143033333D01*
X248109523Y-143080952D01*
X248061904Y-143128571D01*
X248014285Y-143223809D01*
X248014285Y-143461904D01*
X248061904Y-143557142D01*
X248109523Y-143604761D01*
X248204761Y-143652380D01*
X248490476Y-143652380D01*
X248585714Y-143604761D01*
X248633333Y-143557142D01*
G04 #@! TO.C,CN74*
X250966666Y-148557142D02*
X251014285Y-148604761D01*
X251157142Y-148652380D01*
X251252380Y-148652380D01*
X251395238Y-148604761D01*
X251490476Y-148509523D01*
X251538095Y-148414285D01*
X251585714Y-148223809D01*
X251585714Y-148080952D01*
X251538095Y-147890476D01*
X251490476Y-147795238D01*
X251395238Y-147700000D01*
X251252380Y-147652380D01*
X251157142Y-147652380D01*
X251014285Y-147700000D01*
X250966666Y-147747619D01*
X250538095Y-148652380D02*
X250538095Y-147652380D01*
X249966666Y-148652380D01*
X249966666Y-147652380D01*
X249585714Y-147652380D02*
X248919047Y-147652380D01*
X249347619Y-148652380D01*
X248109523Y-147985714D02*
X248109523Y-148652380D01*
X248347619Y-147604761D02*
X248585714Y-148319047D01*
X247966666Y-148319047D01*
G04 #@! TO.C,CN75*
X250966666Y-154557142D02*
X251014285Y-154604761D01*
X251157142Y-154652380D01*
X251252380Y-154652380D01*
X251395238Y-154604761D01*
X251490476Y-154509523D01*
X251538095Y-154414285D01*
X251585714Y-154223809D01*
X251585714Y-154080952D01*
X251538095Y-153890476D01*
X251490476Y-153795238D01*
X251395238Y-153700000D01*
X251252380Y-153652380D01*
X251157142Y-153652380D01*
X251014285Y-153700000D01*
X250966666Y-153747619D01*
X250538095Y-154652380D02*
X250538095Y-153652380D01*
X249966666Y-154652380D01*
X249966666Y-153652380D01*
X249585714Y-153652380D02*
X248919047Y-153652380D01*
X249347619Y-154652380D01*
X248061904Y-153652380D02*
X248538095Y-153652380D01*
X248585714Y-154128571D01*
X248538095Y-154080952D01*
X248442857Y-154033333D01*
X248204761Y-154033333D01*
X248109523Y-154080952D01*
X248061904Y-154128571D01*
X248014285Y-154223809D01*
X248014285Y-154461904D01*
X248061904Y-154557142D01*
X248109523Y-154604761D01*
X248204761Y-154652380D01*
X248442857Y-154652380D01*
X248538095Y-154604761D01*
X248585714Y-154557142D01*
G04 #@! TO.C,CN76*
X250966666Y-159557142D02*
X251014285Y-159604761D01*
X251157142Y-159652380D01*
X251252380Y-159652380D01*
X251395238Y-159604761D01*
X251490476Y-159509523D01*
X251538095Y-159414285D01*
X251585714Y-159223809D01*
X251585714Y-159080952D01*
X251538095Y-158890476D01*
X251490476Y-158795238D01*
X251395238Y-158700000D01*
X251252380Y-158652380D01*
X251157142Y-158652380D01*
X251014285Y-158700000D01*
X250966666Y-158747619D01*
X250538095Y-159652380D02*
X250538095Y-158652380D01*
X249966666Y-159652380D01*
X249966666Y-158652380D01*
X249585714Y-158652380D02*
X248919047Y-158652380D01*
X249347619Y-159652380D01*
X248109523Y-158652380D02*
X248300000Y-158652380D01*
X248395238Y-158700000D01*
X248442857Y-158747619D01*
X248538095Y-158890476D01*
X248585714Y-159080952D01*
X248585714Y-159461904D01*
X248538095Y-159557142D01*
X248490476Y-159604761D01*
X248395238Y-159652380D01*
X248204761Y-159652380D01*
X248109523Y-159604761D01*
X248061904Y-159557142D01*
X248014285Y-159461904D01*
X248014285Y-159223809D01*
X248061904Y-159128571D01*
X248109523Y-159080952D01*
X248204761Y-159033333D01*
X248395238Y-159033333D01*
X248490476Y-159080952D01*
X248538095Y-159128571D01*
X248585714Y-159223809D01*
G04 #@! TO.C,RN20*
X61366666Y-100652380D02*
X61700000Y-100176190D01*
X61938095Y-100652380D02*
X61938095Y-99652380D01*
X61557142Y-99652380D01*
X61461904Y-99700000D01*
X61414285Y-99747619D01*
X61366666Y-99842857D01*
X61366666Y-99985714D01*
X61414285Y-100080952D01*
X61461904Y-100128571D01*
X61557142Y-100176190D01*
X61938095Y-100176190D01*
X60938095Y-100652380D02*
X60938095Y-99652380D01*
X60366666Y-100652380D01*
X60366666Y-99652380D01*
X59938095Y-99747619D02*
X59890476Y-99700000D01*
X59795238Y-99652380D01*
X59557142Y-99652380D01*
X59461904Y-99700000D01*
X59414285Y-99747619D01*
X59366666Y-99842857D01*
X59366666Y-99938095D01*
X59414285Y-100080952D01*
X59985714Y-100652380D01*
X59366666Y-100652380D01*
X58747619Y-99652380D02*
X58652380Y-99652380D01*
X58557142Y-99700000D01*
X58509523Y-99747619D01*
X58461904Y-99842857D01*
X58414285Y-100033333D01*
X58414285Y-100271428D01*
X58461904Y-100461904D01*
X58509523Y-100557142D01*
X58557142Y-100604761D01*
X58652380Y-100652380D01*
X58747619Y-100652380D01*
X58842857Y-100604761D01*
X58890476Y-100557142D01*
X58938095Y-100461904D01*
X58985714Y-100271428D01*
X58985714Y-100033333D01*
X58938095Y-99842857D01*
X58890476Y-99747619D01*
X58842857Y-99700000D01*
X58747619Y-99652380D01*
G04 #@! TO.C,RN21*
X61366666Y-95452380D02*
X61700000Y-94976190D01*
X61938095Y-95452380D02*
X61938095Y-94452380D01*
X61557142Y-94452380D01*
X61461904Y-94500000D01*
X61414285Y-94547619D01*
X61366666Y-94642857D01*
X61366666Y-94785714D01*
X61414285Y-94880952D01*
X61461904Y-94928571D01*
X61557142Y-94976190D01*
X61938095Y-94976190D01*
X60938095Y-95452380D02*
X60938095Y-94452380D01*
X60366666Y-95452380D01*
X60366666Y-94452380D01*
X59938095Y-94547619D02*
X59890476Y-94500000D01*
X59795238Y-94452380D01*
X59557142Y-94452380D01*
X59461904Y-94500000D01*
X59414285Y-94547619D01*
X59366666Y-94642857D01*
X59366666Y-94738095D01*
X59414285Y-94880952D01*
X59985714Y-95452380D01*
X59366666Y-95452380D01*
X58414285Y-95452380D02*
X58985714Y-95452380D01*
X58700000Y-95452380D02*
X58700000Y-94452380D01*
X58795238Y-94595238D01*
X58890476Y-94690476D01*
X58985714Y-94738095D01*
G04 #@! TO.C,RN22*
X61366666Y-89452380D02*
X61700000Y-88976190D01*
X61938095Y-89452380D02*
X61938095Y-88452380D01*
X61557142Y-88452380D01*
X61461904Y-88500000D01*
X61414285Y-88547619D01*
X61366666Y-88642857D01*
X61366666Y-88785714D01*
X61414285Y-88880952D01*
X61461904Y-88928571D01*
X61557142Y-88976190D01*
X61938095Y-88976190D01*
X60938095Y-89452380D02*
X60938095Y-88452380D01*
X60366666Y-89452380D01*
X60366666Y-88452380D01*
X59938095Y-88547619D02*
X59890476Y-88500000D01*
X59795238Y-88452380D01*
X59557142Y-88452380D01*
X59461904Y-88500000D01*
X59414285Y-88547619D01*
X59366666Y-88642857D01*
X59366666Y-88738095D01*
X59414285Y-88880952D01*
X59985714Y-89452380D01*
X59366666Y-89452380D01*
X58985714Y-88547619D02*
X58938095Y-88500000D01*
X58842857Y-88452380D01*
X58604761Y-88452380D01*
X58509523Y-88500000D01*
X58461904Y-88547619D01*
X58414285Y-88642857D01*
X58414285Y-88738095D01*
X58461904Y-88880952D01*
X59033333Y-89452380D01*
X58414285Y-89452380D01*
G04 #@! TO.C,RN23*
X61366666Y-83452380D02*
X61700000Y-82976190D01*
X61938095Y-83452380D02*
X61938095Y-82452380D01*
X61557142Y-82452380D01*
X61461904Y-82500000D01*
X61414285Y-82547619D01*
X61366666Y-82642857D01*
X61366666Y-82785714D01*
X61414285Y-82880952D01*
X61461904Y-82928571D01*
X61557142Y-82976190D01*
X61938095Y-82976190D01*
X60938095Y-83452380D02*
X60938095Y-82452380D01*
X60366666Y-83452380D01*
X60366666Y-82452380D01*
X59938095Y-82547619D02*
X59890476Y-82500000D01*
X59795238Y-82452380D01*
X59557142Y-82452380D01*
X59461904Y-82500000D01*
X59414285Y-82547619D01*
X59366666Y-82642857D01*
X59366666Y-82738095D01*
X59414285Y-82880952D01*
X59985714Y-83452380D01*
X59366666Y-83452380D01*
X59033333Y-82452380D02*
X58414285Y-82452380D01*
X58747619Y-82833333D01*
X58604761Y-82833333D01*
X58509523Y-82880952D01*
X58461904Y-82928571D01*
X58414285Y-83023809D01*
X58414285Y-83261904D01*
X58461904Y-83357142D01*
X58509523Y-83404761D01*
X58604761Y-83452380D01*
X58890476Y-83452380D01*
X58985714Y-83404761D01*
X59033333Y-83357142D01*
G04 #@! TO.C,RN24*
X61366666Y-78452380D02*
X61700000Y-77976190D01*
X61938095Y-78452380D02*
X61938095Y-77452380D01*
X61557142Y-77452380D01*
X61461904Y-77500000D01*
X61414285Y-77547619D01*
X61366666Y-77642857D01*
X61366666Y-77785714D01*
X61414285Y-77880952D01*
X61461904Y-77928571D01*
X61557142Y-77976190D01*
X61938095Y-77976190D01*
X60938095Y-78452380D02*
X60938095Y-77452380D01*
X60366666Y-78452380D01*
X60366666Y-77452380D01*
X59938095Y-77547619D02*
X59890476Y-77500000D01*
X59795238Y-77452380D01*
X59557142Y-77452380D01*
X59461904Y-77500000D01*
X59414285Y-77547619D01*
X59366666Y-77642857D01*
X59366666Y-77738095D01*
X59414285Y-77880952D01*
X59985714Y-78452380D01*
X59366666Y-78452380D01*
X58509523Y-77785714D02*
X58509523Y-78452380D01*
X58747619Y-77404761D02*
X58985714Y-78119047D01*
X58366666Y-78119047D01*
G04 #@! TO.C,RN25*
X61366666Y-73452380D02*
X61700000Y-72976190D01*
X61938095Y-73452380D02*
X61938095Y-72452380D01*
X61557142Y-72452380D01*
X61461904Y-72500000D01*
X61414285Y-72547619D01*
X61366666Y-72642857D01*
X61366666Y-72785714D01*
X61414285Y-72880952D01*
X61461904Y-72928571D01*
X61557142Y-72976190D01*
X61938095Y-72976190D01*
X60938095Y-73452380D02*
X60938095Y-72452380D01*
X60366666Y-73452380D01*
X60366666Y-72452380D01*
X59938095Y-72547619D02*
X59890476Y-72500000D01*
X59795238Y-72452380D01*
X59557142Y-72452380D01*
X59461904Y-72500000D01*
X59414285Y-72547619D01*
X59366666Y-72642857D01*
X59366666Y-72738095D01*
X59414285Y-72880952D01*
X59985714Y-73452380D01*
X59366666Y-73452380D01*
X58461904Y-72452380D02*
X58938095Y-72452380D01*
X58985714Y-72928571D01*
X58938095Y-72880952D01*
X58842857Y-72833333D01*
X58604761Y-72833333D01*
X58509523Y-72880952D01*
X58461904Y-72928571D01*
X58414285Y-73023809D01*
X58414285Y-73261904D01*
X58461904Y-73357142D01*
X58509523Y-73404761D01*
X58604761Y-73452380D01*
X58842857Y-73452380D01*
X58938095Y-73404761D01*
X58985714Y-73357142D01*
G04 #@! TO.C,RN26*
X61366666Y-68452380D02*
X61700000Y-67976190D01*
X61938095Y-68452380D02*
X61938095Y-67452380D01*
X61557142Y-67452380D01*
X61461904Y-67500000D01*
X61414285Y-67547619D01*
X61366666Y-67642857D01*
X61366666Y-67785714D01*
X61414285Y-67880952D01*
X61461904Y-67928571D01*
X61557142Y-67976190D01*
X61938095Y-67976190D01*
X60938095Y-68452380D02*
X60938095Y-67452380D01*
X60366666Y-68452380D01*
X60366666Y-67452380D01*
X59938095Y-67547619D02*
X59890476Y-67500000D01*
X59795238Y-67452380D01*
X59557142Y-67452380D01*
X59461904Y-67500000D01*
X59414285Y-67547619D01*
X59366666Y-67642857D01*
X59366666Y-67738095D01*
X59414285Y-67880952D01*
X59985714Y-68452380D01*
X59366666Y-68452380D01*
X58509523Y-67452380D02*
X58700000Y-67452380D01*
X58795238Y-67500000D01*
X58842857Y-67547619D01*
X58938095Y-67690476D01*
X58985714Y-67880952D01*
X58985714Y-68261904D01*
X58938095Y-68357142D01*
X58890476Y-68404761D01*
X58795238Y-68452380D01*
X58604761Y-68452380D01*
X58509523Y-68404761D01*
X58461904Y-68357142D01*
X58414285Y-68261904D01*
X58414285Y-68023809D01*
X58461904Y-67928571D01*
X58509523Y-67880952D01*
X58604761Y-67833333D01*
X58795238Y-67833333D01*
X58890476Y-67880952D01*
X58938095Y-67928571D01*
X58985714Y-68023809D01*
G04 #@! TO.C,RN27*
X61366666Y-60452380D02*
X61700000Y-59976190D01*
X61938095Y-60452380D02*
X61938095Y-59452380D01*
X61557142Y-59452380D01*
X61461904Y-59500000D01*
X61414285Y-59547619D01*
X61366666Y-59642857D01*
X61366666Y-59785714D01*
X61414285Y-59880952D01*
X61461904Y-59928571D01*
X61557142Y-59976190D01*
X61938095Y-59976190D01*
X60938095Y-60452380D02*
X60938095Y-59452380D01*
X60366666Y-60452380D01*
X60366666Y-59452380D01*
X59938095Y-59547619D02*
X59890476Y-59500000D01*
X59795238Y-59452380D01*
X59557142Y-59452380D01*
X59461904Y-59500000D01*
X59414285Y-59547619D01*
X59366666Y-59642857D01*
X59366666Y-59738095D01*
X59414285Y-59880952D01*
X59985714Y-60452380D01*
X59366666Y-60452380D01*
X59033333Y-59452380D02*
X58366666Y-59452380D01*
X58795238Y-60452380D01*
G04 #@! TO.C,RN28*
X61366666Y-54452380D02*
X61700000Y-53976190D01*
X61938095Y-54452380D02*
X61938095Y-53452380D01*
X61557142Y-53452380D01*
X61461904Y-53500000D01*
X61414285Y-53547619D01*
X61366666Y-53642857D01*
X61366666Y-53785714D01*
X61414285Y-53880952D01*
X61461904Y-53928571D01*
X61557142Y-53976190D01*
X61938095Y-53976190D01*
X60938095Y-54452380D02*
X60938095Y-53452380D01*
X60366666Y-54452380D01*
X60366666Y-53452380D01*
X59938095Y-53547619D02*
X59890476Y-53500000D01*
X59795238Y-53452380D01*
X59557142Y-53452380D01*
X59461904Y-53500000D01*
X59414285Y-53547619D01*
X59366666Y-53642857D01*
X59366666Y-53738095D01*
X59414285Y-53880952D01*
X59985714Y-54452380D01*
X59366666Y-54452380D01*
X58795238Y-53880952D02*
X58890476Y-53833333D01*
X58938095Y-53785714D01*
X58985714Y-53690476D01*
X58985714Y-53642857D01*
X58938095Y-53547619D01*
X58890476Y-53500000D01*
X58795238Y-53452380D01*
X58604761Y-53452380D01*
X58509523Y-53500000D01*
X58461904Y-53547619D01*
X58414285Y-53642857D01*
X58414285Y-53690476D01*
X58461904Y-53785714D01*
X58509523Y-53833333D01*
X58604761Y-53880952D01*
X58795238Y-53880952D01*
X58890476Y-53928571D01*
X58938095Y-53976190D01*
X58985714Y-54071428D01*
X58985714Y-54261904D01*
X58938095Y-54357142D01*
X58890476Y-54404761D01*
X58795238Y-54452380D01*
X58604761Y-54452380D01*
X58509523Y-54404761D01*
X58461904Y-54357142D01*
X58414285Y-54261904D01*
X58414285Y-54071428D01*
X58461904Y-53976190D01*
X58509523Y-53928571D01*
X58604761Y-53880952D01*
G04 #@! TO.C,RN29*
X61366666Y-164452380D02*
X61700000Y-163976190D01*
X61938095Y-164452380D02*
X61938095Y-163452380D01*
X61557142Y-163452380D01*
X61461904Y-163500000D01*
X61414285Y-163547619D01*
X61366666Y-163642857D01*
X61366666Y-163785714D01*
X61414285Y-163880952D01*
X61461904Y-163928571D01*
X61557142Y-163976190D01*
X61938095Y-163976190D01*
X60938095Y-164452380D02*
X60938095Y-163452380D01*
X60366666Y-164452380D01*
X60366666Y-163452380D01*
X59938095Y-163547619D02*
X59890476Y-163500000D01*
X59795238Y-163452380D01*
X59557142Y-163452380D01*
X59461904Y-163500000D01*
X59414285Y-163547619D01*
X59366666Y-163642857D01*
X59366666Y-163738095D01*
X59414285Y-163880952D01*
X59985714Y-164452380D01*
X59366666Y-164452380D01*
X58890476Y-164452380D02*
X58700000Y-164452380D01*
X58604761Y-164404761D01*
X58557142Y-164357142D01*
X58461904Y-164214285D01*
X58414285Y-164023809D01*
X58414285Y-163642857D01*
X58461904Y-163547619D01*
X58509523Y-163500000D01*
X58604761Y-163452380D01*
X58795238Y-163452380D01*
X58890476Y-163500000D01*
X58938095Y-163547619D01*
X58985714Y-163642857D01*
X58985714Y-163880952D01*
X58938095Y-163976190D01*
X58890476Y-164023809D01*
X58795238Y-164071428D01*
X58604761Y-164071428D01*
X58509523Y-164023809D01*
X58461904Y-163976190D01*
X58414285Y-163880952D01*
G04 #@! TO.C,RN30*
X61366666Y-159452380D02*
X61700000Y-158976190D01*
X61938095Y-159452380D02*
X61938095Y-158452380D01*
X61557142Y-158452380D01*
X61461904Y-158500000D01*
X61414285Y-158547619D01*
X61366666Y-158642857D01*
X61366666Y-158785714D01*
X61414285Y-158880952D01*
X61461904Y-158928571D01*
X61557142Y-158976190D01*
X61938095Y-158976190D01*
X60938095Y-159452380D02*
X60938095Y-158452380D01*
X60366666Y-159452380D01*
X60366666Y-158452380D01*
X59985714Y-158452380D02*
X59366666Y-158452380D01*
X59700000Y-158833333D01*
X59557142Y-158833333D01*
X59461904Y-158880952D01*
X59414285Y-158928571D01*
X59366666Y-159023809D01*
X59366666Y-159261904D01*
X59414285Y-159357142D01*
X59461904Y-159404761D01*
X59557142Y-159452380D01*
X59842857Y-159452380D01*
X59938095Y-159404761D01*
X59985714Y-159357142D01*
X58747619Y-158452380D02*
X58652380Y-158452380D01*
X58557142Y-158500000D01*
X58509523Y-158547619D01*
X58461904Y-158642857D01*
X58414285Y-158833333D01*
X58414285Y-159071428D01*
X58461904Y-159261904D01*
X58509523Y-159357142D01*
X58557142Y-159404761D01*
X58652380Y-159452380D01*
X58747619Y-159452380D01*
X58842857Y-159404761D01*
X58890476Y-159357142D01*
X58938095Y-159261904D01*
X58985714Y-159071428D01*
X58985714Y-158833333D01*
X58938095Y-158642857D01*
X58890476Y-158547619D01*
X58842857Y-158500000D01*
X58747619Y-158452380D01*
G04 #@! TO.C,RN31*
X61366666Y-153452380D02*
X61700000Y-152976190D01*
X61938095Y-153452380D02*
X61938095Y-152452380D01*
X61557142Y-152452380D01*
X61461904Y-152500000D01*
X61414285Y-152547619D01*
X61366666Y-152642857D01*
X61366666Y-152785714D01*
X61414285Y-152880952D01*
X61461904Y-152928571D01*
X61557142Y-152976190D01*
X61938095Y-152976190D01*
X60938095Y-153452380D02*
X60938095Y-152452380D01*
X60366666Y-153452380D01*
X60366666Y-152452380D01*
X59985714Y-152452380D02*
X59366666Y-152452380D01*
X59700000Y-152833333D01*
X59557142Y-152833333D01*
X59461904Y-152880952D01*
X59414285Y-152928571D01*
X59366666Y-153023809D01*
X59366666Y-153261904D01*
X59414285Y-153357142D01*
X59461904Y-153404761D01*
X59557142Y-153452380D01*
X59842857Y-153452380D01*
X59938095Y-153404761D01*
X59985714Y-153357142D01*
X58414285Y-153452380D02*
X58985714Y-153452380D01*
X58700000Y-153452380D02*
X58700000Y-152452380D01*
X58795238Y-152595238D01*
X58890476Y-152690476D01*
X58985714Y-152738095D01*
G04 #@! TO.C,RN32*
X61366666Y-148452380D02*
X61700000Y-147976190D01*
X61938095Y-148452380D02*
X61938095Y-147452380D01*
X61557142Y-147452380D01*
X61461904Y-147500000D01*
X61414285Y-147547619D01*
X61366666Y-147642857D01*
X61366666Y-147785714D01*
X61414285Y-147880952D01*
X61461904Y-147928571D01*
X61557142Y-147976190D01*
X61938095Y-147976190D01*
X60938095Y-148452380D02*
X60938095Y-147452380D01*
X60366666Y-148452380D01*
X60366666Y-147452380D01*
X59985714Y-147452380D02*
X59366666Y-147452380D01*
X59700000Y-147833333D01*
X59557142Y-147833333D01*
X59461904Y-147880952D01*
X59414285Y-147928571D01*
X59366666Y-148023809D01*
X59366666Y-148261904D01*
X59414285Y-148357142D01*
X59461904Y-148404761D01*
X59557142Y-148452380D01*
X59842857Y-148452380D01*
X59938095Y-148404761D01*
X59985714Y-148357142D01*
X58985714Y-147547619D02*
X58938095Y-147500000D01*
X58842857Y-147452380D01*
X58604761Y-147452380D01*
X58509523Y-147500000D01*
X58461904Y-147547619D01*
X58414285Y-147642857D01*
X58414285Y-147738095D01*
X58461904Y-147880952D01*
X59033333Y-148452380D01*
X58414285Y-148452380D01*
G04 #@! TO.C,RN33*
X61366666Y-142452380D02*
X61700000Y-141976190D01*
X61938095Y-142452380D02*
X61938095Y-141452380D01*
X61557142Y-141452380D01*
X61461904Y-141500000D01*
X61414285Y-141547619D01*
X61366666Y-141642857D01*
X61366666Y-141785714D01*
X61414285Y-141880952D01*
X61461904Y-141928571D01*
X61557142Y-141976190D01*
X61938095Y-141976190D01*
X60938095Y-142452380D02*
X60938095Y-141452380D01*
X60366666Y-142452380D01*
X60366666Y-141452380D01*
X59985714Y-141452380D02*
X59366666Y-141452380D01*
X59700000Y-141833333D01*
X59557142Y-141833333D01*
X59461904Y-141880952D01*
X59414285Y-141928571D01*
X59366666Y-142023809D01*
X59366666Y-142261904D01*
X59414285Y-142357142D01*
X59461904Y-142404761D01*
X59557142Y-142452380D01*
X59842857Y-142452380D01*
X59938095Y-142404761D01*
X59985714Y-142357142D01*
X59033333Y-141452380D02*
X58414285Y-141452380D01*
X58747619Y-141833333D01*
X58604761Y-141833333D01*
X58509523Y-141880952D01*
X58461904Y-141928571D01*
X58414285Y-142023809D01*
X58414285Y-142261904D01*
X58461904Y-142357142D01*
X58509523Y-142404761D01*
X58604761Y-142452380D01*
X58890476Y-142452380D01*
X58985714Y-142404761D01*
X59033333Y-142357142D01*
G04 #@! TO.C,RN34*
X61366666Y-137452380D02*
X61700000Y-136976190D01*
X61938095Y-137452380D02*
X61938095Y-136452380D01*
X61557142Y-136452380D01*
X61461904Y-136500000D01*
X61414285Y-136547619D01*
X61366666Y-136642857D01*
X61366666Y-136785714D01*
X61414285Y-136880952D01*
X61461904Y-136928571D01*
X61557142Y-136976190D01*
X61938095Y-136976190D01*
X60938095Y-137452380D02*
X60938095Y-136452380D01*
X60366666Y-137452380D01*
X60366666Y-136452380D01*
X59985714Y-136452380D02*
X59366666Y-136452380D01*
X59700000Y-136833333D01*
X59557142Y-136833333D01*
X59461904Y-136880952D01*
X59414285Y-136928571D01*
X59366666Y-137023809D01*
X59366666Y-137261904D01*
X59414285Y-137357142D01*
X59461904Y-137404761D01*
X59557142Y-137452380D01*
X59842857Y-137452380D01*
X59938095Y-137404761D01*
X59985714Y-137357142D01*
X58509523Y-136785714D02*
X58509523Y-137452380D01*
X58747619Y-136404761D02*
X58985714Y-137119047D01*
X58366666Y-137119047D01*
G04 #@! TO.C,RN35*
X61366666Y-131452380D02*
X61700000Y-130976190D01*
X61938095Y-131452380D02*
X61938095Y-130452380D01*
X61557142Y-130452380D01*
X61461904Y-130500000D01*
X61414285Y-130547619D01*
X61366666Y-130642857D01*
X61366666Y-130785714D01*
X61414285Y-130880952D01*
X61461904Y-130928571D01*
X61557142Y-130976190D01*
X61938095Y-130976190D01*
X60938095Y-131452380D02*
X60938095Y-130452380D01*
X60366666Y-131452380D01*
X60366666Y-130452380D01*
X59985714Y-130452380D02*
X59366666Y-130452380D01*
X59700000Y-130833333D01*
X59557142Y-130833333D01*
X59461904Y-130880952D01*
X59414285Y-130928571D01*
X59366666Y-131023809D01*
X59366666Y-131261904D01*
X59414285Y-131357142D01*
X59461904Y-131404761D01*
X59557142Y-131452380D01*
X59842857Y-131452380D01*
X59938095Y-131404761D01*
X59985714Y-131357142D01*
X58461904Y-130452380D02*
X58938095Y-130452380D01*
X58985714Y-130928571D01*
X58938095Y-130880952D01*
X58842857Y-130833333D01*
X58604761Y-130833333D01*
X58509523Y-130880952D01*
X58461904Y-130928571D01*
X58414285Y-131023809D01*
X58414285Y-131261904D01*
X58461904Y-131357142D01*
X58509523Y-131404761D01*
X58604761Y-131452380D01*
X58842857Y-131452380D01*
X58938095Y-131404761D01*
X58985714Y-131357142D01*
G04 #@! TO.C,RN36*
X61366666Y-124852380D02*
X61700000Y-124376190D01*
X61938095Y-124852380D02*
X61938095Y-123852380D01*
X61557142Y-123852380D01*
X61461904Y-123900000D01*
X61414285Y-123947619D01*
X61366666Y-124042857D01*
X61366666Y-124185714D01*
X61414285Y-124280952D01*
X61461904Y-124328571D01*
X61557142Y-124376190D01*
X61938095Y-124376190D01*
X60938095Y-124852380D02*
X60938095Y-123852380D01*
X60366666Y-124852380D01*
X60366666Y-123852380D01*
X59985714Y-123852380D02*
X59366666Y-123852380D01*
X59700000Y-124233333D01*
X59557142Y-124233333D01*
X59461904Y-124280952D01*
X59414285Y-124328571D01*
X59366666Y-124423809D01*
X59366666Y-124661904D01*
X59414285Y-124757142D01*
X59461904Y-124804761D01*
X59557142Y-124852380D01*
X59842857Y-124852380D01*
X59938095Y-124804761D01*
X59985714Y-124757142D01*
X58509523Y-123852380D02*
X58700000Y-123852380D01*
X58795238Y-123900000D01*
X58842857Y-123947619D01*
X58938095Y-124090476D01*
X58985714Y-124280952D01*
X58985714Y-124661904D01*
X58938095Y-124757142D01*
X58890476Y-124804761D01*
X58795238Y-124852380D01*
X58604761Y-124852380D01*
X58509523Y-124804761D01*
X58461904Y-124757142D01*
X58414285Y-124661904D01*
X58414285Y-124423809D01*
X58461904Y-124328571D01*
X58509523Y-124280952D01*
X58604761Y-124233333D01*
X58795238Y-124233333D01*
X58890476Y-124280952D01*
X58938095Y-124328571D01*
X58985714Y-124423809D01*
G04 #@! TO.C,RN37*
X61366666Y-118852380D02*
X61700000Y-118376190D01*
X61938095Y-118852380D02*
X61938095Y-117852380D01*
X61557142Y-117852380D01*
X61461904Y-117900000D01*
X61414285Y-117947619D01*
X61366666Y-118042857D01*
X61366666Y-118185714D01*
X61414285Y-118280952D01*
X61461904Y-118328571D01*
X61557142Y-118376190D01*
X61938095Y-118376190D01*
X60938095Y-118852380D02*
X60938095Y-117852380D01*
X60366666Y-118852380D01*
X60366666Y-117852380D01*
X59985714Y-117852380D02*
X59366666Y-117852380D01*
X59700000Y-118233333D01*
X59557142Y-118233333D01*
X59461904Y-118280952D01*
X59414285Y-118328571D01*
X59366666Y-118423809D01*
X59366666Y-118661904D01*
X59414285Y-118757142D01*
X59461904Y-118804761D01*
X59557142Y-118852380D01*
X59842857Y-118852380D01*
X59938095Y-118804761D01*
X59985714Y-118757142D01*
X59033333Y-117852380D02*
X58366666Y-117852380D01*
X58795238Y-118852380D01*
G04 #@! TO.C,RN38*
X61366666Y-114452380D02*
X61700000Y-113976190D01*
X61938095Y-114452380D02*
X61938095Y-113452380D01*
X61557142Y-113452380D01*
X61461904Y-113500000D01*
X61414285Y-113547619D01*
X61366666Y-113642857D01*
X61366666Y-113785714D01*
X61414285Y-113880952D01*
X61461904Y-113928571D01*
X61557142Y-113976190D01*
X61938095Y-113976190D01*
X60938095Y-114452380D02*
X60938095Y-113452380D01*
X60366666Y-114452380D01*
X60366666Y-113452380D01*
X59985714Y-113452380D02*
X59366666Y-113452380D01*
X59700000Y-113833333D01*
X59557142Y-113833333D01*
X59461904Y-113880952D01*
X59414285Y-113928571D01*
X59366666Y-114023809D01*
X59366666Y-114261904D01*
X59414285Y-114357142D01*
X59461904Y-114404761D01*
X59557142Y-114452380D01*
X59842857Y-114452380D01*
X59938095Y-114404761D01*
X59985714Y-114357142D01*
X58795238Y-113880952D02*
X58890476Y-113833333D01*
X58938095Y-113785714D01*
X58985714Y-113690476D01*
X58985714Y-113642857D01*
X58938095Y-113547619D01*
X58890476Y-113500000D01*
X58795238Y-113452380D01*
X58604761Y-113452380D01*
X58509523Y-113500000D01*
X58461904Y-113547619D01*
X58414285Y-113642857D01*
X58414285Y-113690476D01*
X58461904Y-113785714D01*
X58509523Y-113833333D01*
X58604761Y-113880952D01*
X58795238Y-113880952D01*
X58890476Y-113928571D01*
X58938095Y-113976190D01*
X58985714Y-114071428D01*
X58985714Y-114261904D01*
X58938095Y-114357142D01*
X58890476Y-114404761D01*
X58795238Y-114452380D01*
X58604761Y-114452380D01*
X58509523Y-114404761D01*
X58461904Y-114357142D01*
X58414285Y-114261904D01*
X58414285Y-114071428D01*
X58461904Y-113976190D01*
X58509523Y-113928571D01*
X58604761Y-113880952D01*
G04 #@! TO.C,RN58*
X245966666Y-48652380D02*
X246300000Y-48176190D01*
X246538095Y-48652380D02*
X246538095Y-47652380D01*
X246157142Y-47652380D01*
X246061904Y-47700000D01*
X246014285Y-47747619D01*
X245966666Y-47842857D01*
X245966666Y-47985714D01*
X246014285Y-48080952D01*
X246061904Y-48128571D01*
X246157142Y-48176190D01*
X246538095Y-48176190D01*
X245538095Y-48652380D02*
X245538095Y-47652380D01*
X244966666Y-48652380D01*
X244966666Y-47652380D01*
X244014285Y-47652380D02*
X244490476Y-47652380D01*
X244538095Y-48128571D01*
X244490476Y-48080952D01*
X244395238Y-48033333D01*
X244157142Y-48033333D01*
X244061904Y-48080952D01*
X244014285Y-48128571D01*
X243966666Y-48223809D01*
X243966666Y-48461904D01*
X244014285Y-48557142D01*
X244061904Y-48604761D01*
X244157142Y-48652380D01*
X244395238Y-48652380D01*
X244490476Y-48604761D01*
X244538095Y-48557142D01*
X243395238Y-48080952D02*
X243490476Y-48033333D01*
X243538095Y-47985714D01*
X243585714Y-47890476D01*
X243585714Y-47842857D01*
X243538095Y-47747619D01*
X243490476Y-47700000D01*
X243395238Y-47652380D01*
X243204761Y-47652380D01*
X243109523Y-47700000D01*
X243061904Y-47747619D01*
X243014285Y-47842857D01*
X243014285Y-47890476D01*
X243061904Y-47985714D01*
X243109523Y-48033333D01*
X243204761Y-48080952D01*
X243395238Y-48080952D01*
X243490476Y-48128571D01*
X243538095Y-48176190D01*
X243585714Y-48271428D01*
X243585714Y-48461904D01*
X243538095Y-48557142D01*
X243490476Y-48604761D01*
X243395238Y-48652380D01*
X243204761Y-48652380D01*
X243109523Y-48604761D01*
X243061904Y-48557142D01*
X243014285Y-48461904D01*
X243014285Y-48271428D01*
X243061904Y-48176190D01*
X243109523Y-48128571D01*
X243204761Y-48080952D01*
G04 #@! TO.C,RN59*
X245966666Y-54652380D02*
X246300000Y-54176190D01*
X246538095Y-54652380D02*
X246538095Y-53652380D01*
X246157142Y-53652380D01*
X246061904Y-53700000D01*
X246014285Y-53747619D01*
X245966666Y-53842857D01*
X245966666Y-53985714D01*
X246014285Y-54080952D01*
X246061904Y-54128571D01*
X246157142Y-54176190D01*
X246538095Y-54176190D01*
X245538095Y-54652380D02*
X245538095Y-53652380D01*
X244966666Y-54652380D01*
X244966666Y-53652380D01*
X244014285Y-53652380D02*
X244490476Y-53652380D01*
X244538095Y-54128571D01*
X244490476Y-54080952D01*
X244395238Y-54033333D01*
X244157142Y-54033333D01*
X244061904Y-54080952D01*
X244014285Y-54128571D01*
X243966666Y-54223809D01*
X243966666Y-54461904D01*
X244014285Y-54557142D01*
X244061904Y-54604761D01*
X244157142Y-54652380D01*
X244395238Y-54652380D01*
X244490476Y-54604761D01*
X244538095Y-54557142D01*
X243490476Y-54652380D02*
X243300000Y-54652380D01*
X243204761Y-54604761D01*
X243157142Y-54557142D01*
X243061904Y-54414285D01*
X243014285Y-54223809D01*
X243014285Y-53842857D01*
X243061904Y-53747619D01*
X243109523Y-53700000D01*
X243204761Y-53652380D01*
X243395238Y-53652380D01*
X243490476Y-53700000D01*
X243538095Y-53747619D01*
X243585714Y-53842857D01*
X243585714Y-54080952D01*
X243538095Y-54176190D01*
X243490476Y-54223809D01*
X243395238Y-54271428D01*
X243204761Y-54271428D01*
X243109523Y-54223809D01*
X243061904Y-54176190D01*
X243014285Y-54080952D01*
G04 #@! TO.C,RN60*
X245966666Y-61652380D02*
X246300000Y-61176190D01*
X246538095Y-61652380D02*
X246538095Y-60652380D01*
X246157142Y-60652380D01*
X246061904Y-60700000D01*
X246014285Y-60747619D01*
X245966666Y-60842857D01*
X245966666Y-60985714D01*
X246014285Y-61080952D01*
X246061904Y-61128571D01*
X246157142Y-61176190D01*
X246538095Y-61176190D01*
X245538095Y-61652380D02*
X245538095Y-60652380D01*
X244966666Y-61652380D01*
X244966666Y-60652380D01*
X244061904Y-60652380D02*
X244252380Y-60652380D01*
X244347619Y-60700000D01*
X244395238Y-60747619D01*
X244490476Y-60890476D01*
X244538095Y-61080952D01*
X244538095Y-61461904D01*
X244490476Y-61557142D01*
X244442857Y-61604761D01*
X244347619Y-61652380D01*
X244157142Y-61652380D01*
X244061904Y-61604761D01*
X244014285Y-61557142D01*
X243966666Y-61461904D01*
X243966666Y-61223809D01*
X244014285Y-61128571D01*
X244061904Y-61080952D01*
X244157142Y-61033333D01*
X244347619Y-61033333D01*
X244442857Y-61080952D01*
X244490476Y-61128571D01*
X244538095Y-61223809D01*
X243347619Y-60652380D02*
X243252380Y-60652380D01*
X243157142Y-60700000D01*
X243109523Y-60747619D01*
X243061904Y-60842857D01*
X243014285Y-61033333D01*
X243014285Y-61271428D01*
X243061904Y-61461904D01*
X243109523Y-61557142D01*
X243157142Y-61604761D01*
X243252380Y-61652380D01*
X243347619Y-61652380D01*
X243442857Y-61604761D01*
X243490476Y-61557142D01*
X243538095Y-61461904D01*
X243585714Y-61271428D01*
X243585714Y-61033333D01*
X243538095Y-60842857D01*
X243490476Y-60747619D01*
X243442857Y-60700000D01*
X243347619Y-60652380D01*
G04 #@! TO.C,RN61*
X245966666Y-68652380D02*
X246300000Y-68176190D01*
X246538095Y-68652380D02*
X246538095Y-67652380D01*
X246157142Y-67652380D01*
X246061904Y-67700000D01*
X246014285Y-67747619D01*
X245966666Y-67842857D01*
X245966666Y-67985714D01*
X246014285Y-68080952D01*
X246061904Y-68128571D01*
X246157142Y-68176190D01*
X246538095Y-68176190D01*
X245538095Y-68652380D02*
X245538095Y-67652380D01*
X244966666Y-68652380D01*
X244966666Y-67652380D01*
X244061904Y-67652380D02*
X244252380Y-67652380D01*
X244347619Y-67700000D01*
X244395238Y-67747619D01*
X244490476Y-67890476D01*
X244538095Y-68080952D01*
X244538095Y-68461904D01*
X244490476Y-68557142D01*
X244442857Y-68604761D01*
X244347619Y-68652380D01*
X244157142Y-68652380D01*
X244061904Y-68604761D01*
X244014285Y-68557142D01*
X243966666Y-68461904D01*
X243966666Y-68223809D01*
X244014285Y-68128571D01*
X244061904Y-68080952D01*
X244157142Y-68033333D01*
X244347619Y-68033333D01*
X244442857Y-68080952D01*
X244490476Y-68128571D01*
X244538095Y-68223809D01*
X243014285Y-68652380D02*
X243585714Y-68652380D01*
X243300000Y-68652380D02*
X243300000Y-67652380D01*
X243395238Y-67795238D01*
X243490476Y-67890476D01*
X243585714Y-67938095D01*
G04 #@! TO.C,RN62*
X245966666Y-74052380D02*
X246300000Y-73576190D01*
X246538095Y-74052380D02*
X246538095Y-73052380D01*
X246157142Y-73052380D01*
X246061904Y-73100000D01*
X246014285Y-73147619D01*
X245966666Y-73242857D01*
X245966666Y-73385714D01*
X246014285Y-73480952D01*
X246061904Y-73528571D01*
X246157142Y-73576190D01*
X246538095Y-73576190D01*
X245538095Y-74052380D02*
X245538095Y-73052380D01*
X244966666Y-74052380D01*
X244966666Y-73052380D01*
X244061904Y-73052380D02*
X244252380Y-73052380D01*
X244347619Y-73100000D01*
X244395238Y-73147619D01*
X244490476Y-73290476D01*
X244538095Y-73480952D01*
X244538095Y-73861904D01*
X244490476Y-73957142D01*
X244442857Y-74004761D01*
X244347619Y-74052380D01*
X244157142Y-74052380D01*
X244061904Y-74004761D01*
X244014285Y-73957142D01*
X243966666Y-73861904D01*
X243966666Y-73623809D01*
X244014285Y-73528571D01*
X244061904Y-73480952D01*
X244157142Y-73433333D01*
X244347619Y-73433333D01*
X244442857Y-73480952D01*
X244490476Y-73528571D01*
X244538095Y-73623809D01*
X243585714Y-73147619D02*
X243538095Y-73100000D01*
X243442857Y-73052380D01*
X243204761Y-73052380D01*
X243109523Y-73100000D01*
X243061904Y-73147619D01*
X243014285Y-73242857D01*
X243014285Y-73338095D01*
X243061904Y-73480952D01*
X243633333Y-74052380D01*
X243014285Y-74052380D01*
G04 #@! TO.C,RN63*
X245966666Y-79652380D02*
X246300000Y-79176190D01*
X246538095Y-79652380D02*
X246538095Y-78652380D01*
X246157142Y-78652380D01*
X246061904Y-78700000D01*
X246014285Y-78747619D01*
X245966666Y-78842857D01*
X245966666Y-78985714D01*
X246014285Y-79080952D01*
X246061904Y-79128571D01*
X246157142Y-79176190D01*
X246538095Y-79176190D01*
X245538095Y-79652380D02*
X245538095Y-78652380D01*
X244966666Y-79652380D01*
X244966666Y-78652380D01*
X244061904Y-78652380D02*
X244252380Y-78652380D01*
X244347619Y-78700000D01*
X244395238Y-78747619D01*
X244490476Y-78890476D01*
X244538095Y-79080952D01*
X244538095Y-79461904D01*
X244490476Y-79557142D01*
X244442857Y-79604761D01*
X244347619Y-79652380D01*
X244157142Y-79652380D01*
X244061904Y-79604761D01*
X244014285Y-79557142D01*
X243966666Y-79461904D01*
X243966666Y-79223809D01*
X244014285Y-79128571D01*
X244061904Y-79080952D01*
X244157142Y-79033333D01*
X244347619Y-79033333D01*
X244442857Y-79080952D01*
X244490476Y-79128571D01*
X244538095Y-79223809D01*
X243633333Y-78652380D02*
X243014285Y-78652380D01*
X243347619Y-79033333D01*
X243204761Y-79033333D01*
X243109523Y-79080952D01*
X243061904Y-79128571D01*
X243014285Y-79223809D01*
X243014285Y-79461904D01*
X243061904Y-79557142D01*
X243109523Y-79604761D01*
X243204761Y-79652380D01*
X243490476Y-79652380D01*
X243585714Y-79604761D01*
X243633333Y-79557142D01*
G04 #@! TO.C,RN64*
X245966666Y-84652380D02*
X246300000Y-84176190D01*
X246538095Y-84652380D02*
X246538095Y-83652380D01*
X246157142Y-83652380D01*
X246061904Y-83700000D01*
X246014285Y-83747619D01*
X245966666Y-83842857D01*
X245966666Y-83985714D01*
X246014285Y-84080952D01*
X246061904Y-84128571D01*
X246157142Y-84176190D01*
X246538095Y-84176190D01*
X245538095Y-84652380D02*
X245538095Y-83652380D01*
X244966666Y-84652380D01*
X244966666Y-83652380D01*
X244061904Y-83652380D02*
X244252380Y-83652380D01*
X244347619Y-83700000D01*
X244395238Y-83747619D01*
X244490476Y-83890476D01*
X244538095Y-84080952D01*
X244538095Y-84461904D01*
X244490476Y-84557142D01*
X244442857Y-84604761D01*
X244347619Y-84652380D01*
X244157142Y-84652380D01*
X244061904Y-84604761D01*
X244014285Y-84557142D01*
X243966666Y-84461904D01*
X243966666Y-84223809D01*
X244014285Y-84128571D01*
X244061904Y-84080952D01*
X244157142Y-84033333D01*
X244347619Y-84033333D01*
X244442857Y-84080952D01*
X244490476Y-84128571D01*
X244538095Y-84223809D01*
X243109523Y-83985714D02*
X243109523Y-84652380D01*
X243347619Y-83604761D02*
X243585714Y-84319047D01*
X242966666Y-84319047D01*
G04 #@! TO.C,RN65*
X245966666Y-89652380D02*
X246300000Y-89176190D01*
X246538095Y-89652380D02*
X246538095Y-88652380D01*
X246157142Y-88652380D01*
X246061904Y-88700000D01*
X246014285Y-88747619D01*
X245966666Y-88842857D01*
X245966666Y-88985714D01*
X246014285Y-89080952D01*
X246061904Y-89128571D01*
X246157142Y-89176190D01*
X246538095Y-89176190D01*
X245538095Y-89652380D02*
X245538095Y-88652380D01*
X244966666Y-89652380D01*
X244966666Y-88652380D01*
X244061904Y-88652380D02*
X244252380Y-88652380D01*
X244347619Y-88700000D01*
X244395238Y-88747619D01*
X244490476Y-88890476D01*
X244538095Y-89080952D01*
X244538095Y-89461904D01*
X244490476Y-89557142D01*
X244442857Y-89604761D01*
X244347619Y-89652380D01*
X244157142Y-89652380D01*
X244061904Y-89604761D01*
X244014285Y-89557142D01*
X243966666Y-89461904D01*
X243966666Y-89223809D01*
X244014285Y-89128571D01*
X244061904Y-89080952D01*
X244157142Y-89033333D01*
X244347619Y-89033333D01*
X244442857Y-89080952D01*
X244490476Y-89128571D01*
X244538095Y-89223809D01*
X243061904Y-88652380D02*
X243538095Y-88652380D01*
X243585714Y-89128571D01*
X243538095Y-89080952D01*
X243442857Y-89033333D01*
X243204761Y-89033333D01*
X243109523Y-89080952D01*
X243061904Y-89128571D01*
X243014285Y-89223809D01*
X243014285Y-89461904D01*
X243061904Y-89557142D01*
X243109523Y-89604761D01*
X243204761Y-89652380D01*
X243442857Y-89652380D01*
X243538095Y-89604761D01*
X243585714Y-89557142D01*
G04 #@! TO.C,RN66*
X245966666Y-94652380D02*
X246300000Y-94176190D01*
X246538095Y-94652380D02*
X246538095Y-93652380D01*
X246157142Y-93652380D01*
X246061904Y-93700000D01*
X246014285Y-93747619D01*
X245966666Y-93842857D01*
X245966666Y-93985714D01*
X246014285Y-94080952D01*
X246061904Y-94128571D01*
X246157142Y-94176190D01*
X246538095Y-94176190D01*
X245538095Y-94652380D02*
X245538095Y-93652380D01*
X244966666Y-94652380D01*
X244966666Y-93652380D01*
X244061904Y-93652380D02*
X244252380Y-93652380D01*
X244347619Y-93700000D01*
X244395238Y-93747619D01*
X244490476Y-93890476D01*
X244538095Y-94080952D01*
X244538095Y-94461904D01*
X244490476Y-94557142D01*
X244442857Y-94604761D01*
X244347619Y-94652380D01*
X244157142Y-94652380D01*
X244061904Y-94604761D01*
X244014285Y-94557142D01*
X243966666Y-94461904D01*
X243966666Y-94223809D01*
X244014285Y-94128571D01*
X244061904Y-94080952D01*
X244157142Y-94033333D01*
X244347619Y-94033333D01*
X244442857Y-94080952D01*
X244490476Y-94128571D01*
X244538095Y-94223809D01*
X243109523Y-93652380D02*
X243300000Y-93652380D01*
X243395238Y-93700000D01*
X243442857Y-93747619D01*
X243538095Y-93890476D01*
X243585714Y-94080952D01*
X243585714Y-94461904D01*
X243538095Y-94557142D01*
X243490476Y-94604761D01*
X243395238Y-94652380D01*
X243204761Y-94652380D01*
X243109523Y-94604761D01*
X243061904Y-94557142D01*
X243014285Y-94461904D01*
X243014285Y-94223809D01*
X243061904Y-94128571D01*
X243109523Y-94080952D01*
X243204761Y-94033333D01*
X243395238Y-94033333D01*
X243490476Y-94080952D01*
X243538095Y-94128571D01*
X243585714Y-94223809D01*
G04 #@! TO.C,RN67*
X245966666Y-110652380D02*
X246300000Y-110176190D01*
X246538095Y-110652380D02*
X246538095Y-109652380D01*
X246157142Y-109652380D01*
X246061904Y-109700000D01*
X246014285Y-109747619D01*
X245966666Y-109842857D01*
X245966666Y-109985714D01*
X246014285Y-110080952D01*
X246061904Y-110128571D01*
X246157142Y-110176190D01*
X246538095Y-110176190D01*
X245538095Y-110652380D02*
X245538095Y-109652380D01*
X244966666Y-110652380D01*
X244966666Y-109652380D01*
X244061904Y-109652380D02*
X244252380Y-109652380D01*
X244347619Y-109700000D01*
X244395238Y-109747619D01*
X244490476Y-109890476D01*
X244538095Y-110080952D01*
X244538095Y-110461904D01*
X244490476Y-110557142D01*
X244442857Y-110604761D01*
X244347619Y-110652380D01*
X244157142Y-110652380D01*
X244061904Y-110604761D01*
X244014285Y-110557142D01*
X243966666Y-110461904D01*
X243966666Y-110223809D01*
X244014285Y-110128571D01*
X244061904Y-110080952D01*
X244157142Y-110033333D01*
X244347619Y-110033333D01*
X244442857Y-110080952D01*
X244490476Y-110128571D01*
X244538095Y-110223809D01*
X243633333Y-109652380D02*
X242966666Y-109652380D01*
X243395238Y-110652380D01*
G04 #@! TO.C,RN68*
X245966666Y-115652380D02*
X246300000Y-115176190D01*
X246538095Y-115652380D02*
X246538095Y-114652380D01*
X246157142Y-114652380D01*
X246061904Y-114700000D01*
X246014285Y-114747619D01*
X245966666Y-114842857D01*
X245966666Y-114985714D01*
X246014285Y-115080952D01*
X246061904Y-115128571D01*
X246157142Y-115176190D01*
X246538095Y-115176190D01*
X245538095Y-115652380D02*
X245538095Y-114652380D01*
X244966666Y-115652380D01*
X244966666Y-114652380D01*
X244061904Y-114652380D02*
X244252380Y-114652380D01*
X244347619Y-114700000D01*
X244395238Y-114747619D01*
X244490476Y-114890476D01*
X244538095Y-115080952D01*
X244538095Y-115461904D01*
X244490476Y-115557142D01*
X244442857Y-115604761D01*
X244347619Y-115652380D01*
X244157142Y-115652380D01*
X244061904Y-115604761D01*
X244014285Y-115557142D01*
X243966666Y-115461904D01*
X243966666Y-115223809D01*
X244014285Y-115128571D01*
X244061904Y-115080952D01*
X244157142Y-115033333D01*
X244347619Y-115033333D01*
X244442857Y-115080952D01*
X244490476Y-115128571D01*
X244538095Y-115223809D01*
X243395238Y-115080952D02*
X243490476Y-115033333D01*
X243538095Y-114985714D01*
X243585714Y-114890476D01*
X243585714Y-114842857D01*
X243538095Y-114747619D01*
X243490476Y-114700000D01*
X243395238Y-114652380D01*
X243204761Y-114652380D01*
X243109523Y-114700000D01*
X243061904Y-114747619D01*
X243014285Y-114842857D01*
X243014285Y-114890476D01*
X243061904Y-114985714D01*
X243109523Y-115033333D01*
X243204761Y-115080952D01*
X243395238Y-115080952D01*
X243490476Y-115128571D01*
X243538095Y-115176190D01*
X243585714Y-115271428D01*
X243585714Y-115461904D01*
X243538095Y-115557142D01*
X243490476Y-115604761D01*
X243395238Y-115652380D01*
X243204761Y-115652380D01*
X243109523Y-115604761D01*
X243061904Y-115557142D01*
X243014285Y-115461904D01*
X243014285Y-115271428D01*
X243061904Y-115176190D01*
X243109523Y-115128571D01*
X243204761Y-115080952D01*
G04 #@! TO.C,RN69*
X245966666Y-120652380D02*
X246300000Y-120176190D01*
X246538095Y-120652380D02*
X246538095Y-119652380D01*
X246157142Y-119652380D01*
X246061904Y-119700000D01*
X246014285Y-119747619D01*
X245966666Y-119842857D01*
X245966666Y-119985714D01*
X246014285Y-120080952D01*
X246061904Y-120128571D01*
X246157142Y-120176190D01*
X246538095Y-120176190D01*
X245538095Y-120652380D02*
X245538095Y-119652380D01*
X244966666Y-120652380D01*
X244966666Y-119652380D01*
X244061904Y-119652380D02*
X244252380Y-119652380D01*
X244347619Y-119700000D01*
X244395238Y-119747619D01*
X244490476Y-119890476D01*
X244538095Y-120080952D01*
X244538095Y-120461904D01*
X244490476Y-120557142D01*
X244442857Y-120604761D01*
X244347619Y-120652380D01*
X244157142Y-120652380D01*
X244061904Y-120604761D01*
X244014285Y-120557142D01*
X243966666Y-120461904D01*
X243966666Y-120223809D01*
X244014285Y-120128571D01*
X244061904Y-120080952D01*
X244157142Y-120033333D01*
X244347619Y-120033333D01*
X244442857Y-120080952D01*
X244490476Y-120128571D01*
X244538095Y-120223809D01*
X243490476Y-120652380D02*
X243300000Y-120652380D01*
X243204761Y-120604761D01*
X243157142Y-120557142D01*
X243061904Y-120414285D01*
X243014285Y-120223809D01*
X243014285Y-119842857D01*
X243061904Y-119747619D01*
X243109523Y-119700000D01*
X243204761Y-119652380D01*
X243395238Y-119652380D01*
X243490476Y-119700000D01*
X243538095Y-119747619D01*
X243585714Y-119842857D01*
X243585714Y-120080952D01*
X243538095Y-120176190D01*
X243490476Y-120223809D01*
X243395238Y-120271428D01*
X243204761Y-120271428D01*
X243109523Y-120223809D01*
X243061904Y-120176190D01*
X243014285Y-120080952D01*
G04 #@! TO.C,RN70*
X245966666Y-126652380D02*
X246300000Y-126176190D01*
X246538095Y-126652380D02*
X246538095Y-125652380D01*
X246157142Y-125652380D01*
X246061904Y-125700000D01*
X246014285Y-125747619D01*
X245966666Y-125842857D01*
X245966666Y-125985714D01*
X246014285Y-126080952D01*
X246061904Y-126128571D01*
X246157142Y-126176190D01*
X246538095Y-126176190D01*
X245538095Y-126652380D02*
X245538095Y-125652380D01*
X244966666Y-126652380D01*
X244966666Y-125652380D01*
X244585714Y-125652380D02*
X243919047Y-125652380D01*
X244347619Y-126652380D01*
X243347619Y-125652380D02*
X243252380Y-125652380D01*
X243157142Y-125700000D01*
X243109523Y-125747619D01*
X243061904Y-125842857D01*
X243014285Y-126033333D01*
X243014285Y-126271428D01*
X243061904Y-126461904D01*
X243109523Y-126557142D01*
X243157142Y-126604761D01*
X243252380Y-126652380D01*
X243347619Y-126652380D01*
X243442857Y-126604761D01*
X243490476Y-126557142D01*
X243538095Y-126461904D01*
X243585714Y-126271428D01*
X243585714Y-126033333D01*
X243538095Y-125842857D01*
X243490476Y-125747619D01*
X243442857Y-125700000D01*
X243347619Y-125652380D01*
G04 #@! TO.C,RN71*
X245966666Y-131652380D02*
X246300000Y-131176190D01*
X246538095Y-131652380D02*
X246538095Y-130652380D01*
X246157142Y-130652380D01*
X246061904Y-130700000D01*
X246014285Y-130747619D01*
X245966666Y-130842857D01*
X245966666Y-130985714D01*
X246014285Y-131080952D01*
X246061904Y-131128571D01*
X246157142Y-131176190D01*
X246538095Y-131176190D01*
X245538095Y-131652380D02*
X245538095Y-130652380D01*
X244966666Y-131652380D01*
X244966666Y-130652380D01*
X244585714Y-130652380D02*
X243919047Y-130652380D01*
X244347619Y-131652380D01*
X243014285Y-131652380D02*
X243585714Y-131652380D01*
X243300000Y-131652380D02*
X243300000Y-130652380D01*
X243395238Y-130795238D01*
X243490476Y-130890476D01*
X243585714Y-130938095D01*
G04 #@! TO.C,RN72*
X245966666Y-137652380D02*
X246300000Y-137176190D01*
X246538095Y-137652380D02*
X246538095Y-136652380D01*
X246157142Y-136652380D01*
X246061904Y-136700000D01*
X246014285Y-136747619D01*
X245966666Y-136842857D01*
X245966666Y-136985714D01*
X246014285Y-137080952D01*
X246061904Y-137128571D01*
X246157142Y-137176190D01*
X246538095Y-137176190D01*
X245538095Y-137652380D02*
X245538095Y-136652380D01*
X244966666Y-137652380D01*
X244966666Y-136652380D01*
X244585714Y-136652380D02*
X243919047Y-136652380D01*
X244347619Y-137652380D01*
X243585714Y-136747619D02*
X243538095Y-136700000D01*
X243442857Y-136652380D01*
X243204761Y-136652380D01*
X243109523Y-136700000D01*
X243061904Y-136747619D01*
X243014285Y-136842857D01*
X243014285Y-136938095D01*
X243061904Y-137080952D01*
X243633333Y-137652380D01*
X243014285Y-137652380D01*
G04 #@! TO.C,RN73*
X245966666Y-143652380D02*
X246300000Y-143176190D01*
X246538095Y-143652380D02*
X246538095Y-142652380D01*
X246157142Y-142652380D01*
X246061904Y-142700000D01*
X246014285Y-142747619D01*
X245966666Y-142842857D01*
X245966666Y-142985714D01*
X246014285Y-143080952D01*
X246061904Y-143128571D01*
X246157142Y-143176190D01*
X246538095Y-143176190D01*
X245538095Y-143652380D02*
X245538095Y-142652380D01*
X244966666Y-143652380D01*
X244966666Y-142652380D01*
X244585714Y-142652380D02*
X243919047Y-142652380D01*
X244347619Y-143652380D01*
X243633333Y-142652380D02*
X243014285Y-142652380D01*
X243347619Y-143033333D01*
X243204761Y-143033333D01*
X243109523Y-143080952D01*
X243061904Y-143128571D01*
X243014285Y-143223809D01*
X243014285Y-143461904D01*
X243061904Y-143557142D01*
X243109523Y-143604761D01*
X243204761Y-143652380D01*
X243490476Y-143652380D01*
X243585714Y-143604761D01*
X243633333Y-143557142D01*
G04 #@! TO.C,RN74*
X245966666Y-148652380D02*
X246300000Y-148176190D01*
X246538095Y-148652380D02*
X246538095Y-147652380D01*
X246157142Y-147652380D01*
X246061904Y-147700000D01*
X246014285Y-147747619D01*
X245966666Y-147842857D01*
X245966666Y-147985714D01*
X246014285Y-148080952D01*
X246061904Y-148128571D01*
X246157142Y-148176190D01*
X246538095Y-148176190D01*
X245538095Y-148652380D02*
X245538095Y-147652380D01*
X244966666Y-148652380D01*
X244966666Y-147652380D01*
X244585714Y-147652380D02*
X243919047Y-147652380D01*
X244347619Y-148652380D01*
X243109523Y-147985714D02*
X243109523Y-148652380D01*
X243347619Y-147604761D02*
X243585714Y-148319047D01*
X242966666Y-148319047D01*
G04 #@! TO.C,RN75*
X245966666Y-154652380D02*
X246300000Y-154176190D01*
X246538095Y-154652380D02*
X246538095Y-153652380D01*
X246157142Y-153652380D01*
X246061904Y-153700000D01*
X246014285Y-153747619D01*
X245966666Y-153842857D01*
X245966666Y-153985714D01*
X246014285Y-154080952D01*
X246061904Y-154128571D01*
X246157142Y-154176190D01*
X246538095Y-154176190D01*
X245538095Y-154652380D02*
X245538095Y-153652380D01*
X244966666Y-154652380D01*
X244966666Y-153652380D01*
X244585714Y-153652380D02*
X243919047Y-153652380D01*
X244347619Y-154652380D01*
X243061904Y-153652380D02*
X243538095Y-153652380D01*
X243585714Y-154128571D01*
X243538095Y-154080952D01*
X243442857Y-154033333D01*
X243204761Y-154033333D01*
X243109523Y-154080952D01*
X243061904Y-154128571D01*
X243014285Y-154223809D01*
X243014285Y-154461904D01*
X243061904Y-154557142D01*
X243109523Y-154604761D01*
X243204761Y-154652380D01*
X243442857Y-154652380D01*
X243538095Y-154604761D01*
X243585714Y-154557142D01*
G04 #@! TO.C,RN76*
X245966666Y-159652380D02*
X246300000Y-159176190D01*
X246538095Y-159652380D02*
X246538095Y-158652380D01*
X246157142Y-158652380D01*
X246061904Y-158700000D01*
X246014285Y-158747619D01*
X245966666Y-158842857D01*
X245966666Y-158985714D01*
X246014285Y-159080952D01*
X246061904Y-159128571D01*
X246157142Y-159176190D01*
X246538095Y-159176190D01*
X245538095Y-159652380D02*
X245538095Y-158652380D01*
X244966666Y-159652380D01*
X244966666Y-158652380D01*
X244585714Y-158652380D02*
X243919047Y-158652380D01*
X244347619Y-159652380D01*
X243109523Y-158652380D02*
X243300000Y-158652380D01*
X243395238Y-158700000D01*
X243442857Y-158747619D01*
X243538095Y-158890476D01*
X243585714Y-159080952D01*
X243585714Y-159461904D01*
X243538095Y-159557142D01*
X243490476Y-159604761D01*
X243395238Y-159652380D01*
X243204761Y-159652380D01*
X243109523Y-159604761D01*
X243061904Y-159557142D01*
X243014285Y-159461904D01*
X243014285Y-159223809D01*
X243061904Y-159128571D01*
X243109523Y-159080952D01*
X243204761Y-159033333D01*
X243395238Y-159033333D01*
X243490476Y-159080952D01*
X243538095Y-159128571D01*
X243585714Y-159223809D01*
G04 #@! TD*
M02*
