M48
;DRILL file {KiCad (5.0.0-rc2-35-gda6600525)} date 07/07/18 21:23:34
;FORMAT={-:-/ absolute / metric / decimal}
FMAT,2
METRIC,TZ
T1C0.550
T2C0.635
%
G90
G05
M71
T1
X67.Y-52.
X67.Y-54.
X67.Y-56.
X67.Y-58.
X67.Y-60.
X67.Y-64.
X67.Y-66.
X67.Y-68.
X67.Y-70.
X67.Y-72.
X67.Y-74.
X67.Y-76.
X67.Y-78.
X67.Y-80.
X67.Y-82.
X67.Y-84.
X67.Y-86.
X67.Y-88.
X67.Y-90.
X67.Y-92.
X67.Y-94.
X67.Y-96.
X67.Y-98.
X67.Y-100.
X67.Y-112.
X67.Y-114.
X67.Y-116.
X67.Y-118.
X67.Y-120.
X67.Y-124.
X67.Y-126.
X67.Y-128.
X67.Y-130.
X67.Y-132.
X67.Y-134.
X67.Y-136.
X67.Y-138.
X67.Y-140.
X67.Y-142.
X67.Y-144.
X67.Y-146.
X67.Y-148.
X67.Y-150.
X67.Y-152.
X67.Y-154.
X67.Y-156.
X67.Y-158.
X67.Y-160.
X69.Y-51.
X69.Y-53.
X69.Y-55.
X69.Y-57.
X69.Y-59.
X69.Y-61.
X69.Y-65.
X69.Y-67.
X69.Y-69.
X69.Y-71.
X69.Y-73.
X69.Y-75.
X69.Y-77.
X69.Y-79.
X69.Y-81.
X69.Y-83.
X69.Y-85.
X69.Y-87.
X69.Y-89.
X69.Y-91.
X69.Y-93.
X69.Y-95.
X69.Y-97.
X69.Y-99.
X69.Y-101.
X69.Y-111.
X69.Y-113.
X69.Y-115.
X69.Y-117.
X69.Y-119.
X69.Y-121.
X69.Y-125.
X69.Y-127.
X69.Y-129.
X69.Y-131.
X69.Y-133.
X69.Y-135.
X69.Y-137.
X69.Y-139.
X69.Y-141.
X69.Y-143.
X69.Y-145.
X69.Y-147.
X69.Y-149.
X69.Y-151.
X69.Y-153.
X69.Y-155.
X69.Y-157.
X69.Y-159.
X69.Y-161.
X71.5Y-51.
X71.5Y-53.
X71.5Y-55.
X71.5Y-57.
X71.5Y-59.
X71.5Y-61.
X71.5Y-65.
X71.5Y-67.
X71.5Y-69.
X71.5Y-71.
X71.5Y-73.
X71.5Y-75.
X71.5Y-77.
X71.5Y-79.
X71.5Y-81.
X71.5Y-83.
X71.5Y-85.
X71.5Y-87.
X71.5Y-89.
X71.5Y-91.
X71.5Y-93.
X71.5Y-95.
X71.5Y-97.
X71.5Y-99.
X71.5Y-101.
X71.5Y-111.
X71.5Y-113.
X71.5Y-115.
X71.5Y-117.
X71.5Y-119.
X71.5Y-121.
X71.5Y-125.
X71.5Y-127.
X71.5Y-129.
X71.5Y-131.
X71.5Y-133.
X71.5Y-135.
X71.5Y-137.
X71.5Y-139.
X71.5Y-141.
X71.5Y-143.
X71.5Y-145.
X71.5Y-147.
X71.5Y-149.
X71.5Y-151.
X71.5Y-153.
X71.5Y-155.
X71.5Y-157.
X71.5Y-159.
X71.5Y-161.
X73.5Y-52.
X73.5Y-54.
X73.5Y-56.
X73.5Y-58.
X73.5Y-60.
X73.5Y-64.
X73.5Y-66.
X73.5Y-68.
X73.5Y-70.
X73.5Y-72.
X73.5Y-74.
X73.5Y-76.
X73.5Y-78.
X73.5Y-80.
X73.5Y-82.
X73.5Y-84.
X73.5Y-86.
X73.5Y-88.
X73.5Y-90.
X73.5Y-92.
X73.5Y-94.
X73.5Y-96.
X73.5Y-98.
X73.5Y-100.
X73.5Y-112.
X73.5Y-114.
X73.5Y-116.
X73.5Y-118.
X73.5Y-120.
X73.5Y-124.
X73.5Y-126.
X73.5Y-128.
X73.5Y-130.
X73.5Y-132.
X73.5Y-134.
X73.5Y-136.
X73.5Y-138.
X73.5Y-140.
X73.5Y-142.
X73.5Y-144.
X73.5Y-146.
X73.5Y-148.
X73.5Y-150.
X73.5Y-152.
X73.5Y-154.
X73.5Y-156.
X73.5Y-158.
X73.5Y-160.
X187.Y-52.
X187.Y-54.
X187.Y-56.
X187.Y-58.
X187.Y-60.
X187.Y-64.
X187.Y-66.
X187.Y-68.
X187.Y-70.
X187.Y-72.
X187.Y-74.
X187.Y-76.
X187.Y-78.
X187.Y-80.
X187.Y-82.
X187.Y-84.
X187.Y-86.
X187.Y-88.
X187.Y-90.
X187.Y-92.
X187.Y-94.
X187.Y-96.
X187.Y-98.
X187.Y-100.
X187.Y-112.
X187.Y-114.
X187.Y-116.
X187.Y-118.
X187.Y-120.
X187.Y-124.
X187.Y-126.
X187.Y-128.
X187.Y-130.
X187.Y-132.
X187.Y-134.
X187.Y-136.
X187.Y-138.
X187.Y-140.
X187.Y-142.
X187.Y-144.
X187.Y-146.
X187.Y-148.
X187.Y-150.
X187.Y-152.
X187.Y-154.
X187.Y-156.
X187.Y-158.
X187.Y-160.
X189.Y-51.
X189.Y-53.
X189.Y-55.
X189.Y-57.
X189.Y-59.
X189.Y-61.
X189.Y-65.
X189.Y-67.
X189.Y-69.
X189.Y-71.
X189.Y-73.
X189.Y-75.
X189.Y-77.
X189.Y-79.
X189.Y-81.
X189.Y-83.
X189.Y-85.
X189.Y-87.
X189.Y-89.
X189.Y-91.
X189.Y-93.
X189.Y-95.
X189.Y-97.
X189.Y-99.
X189.Y-101.
X189.Y-111.
X189.Y-113.
X189.Y-115.
X189.Y-117.
X189.Y-119.
X189.Y-121.
X189.Y-125.
X189.Y-127.
X189.Y-129.
X189.Y-131.
X189.Y-133.
X189.Y-135.
X189.Y-137.
X189.Y-139.
X189.Y-141.
X189.Y-143.
X189.Y-145.
X189.Y-147.
X189.Y-149.
X189.Y-151.
X189.Y-153.
X189.Y-155.
X189.Y-157.
X189.Y-159.
X189.Y-161.
X191.5Y-51.
X191.5Y-53.
X191.5Y-55.
X191.5Y-57.
X191.5Y-59.
X191.5Y-61.
X191.5Y-65.
X191.5Y-67.
X191.5Y-69.
X191.5Y-71.
X191.5Y-73.
X191.5Y-75.
X191.5Y-77.
X191.5Y-79.
X191.5Y-81.
X191.5Y-83.
X191.5Y-85.
X191.5Y-87.
X191.5Y-89.
X191.5Y-91.
X191.5Y-93.
X191.5Y-95.
X191.5Y-97.
X191.5Y-99.
X191.5Y-101.
X191.5Y-111.
X191.5Y-113.
X191.5Y-115.
X191.5Y-117.
X191.5Y-119.
X191.5Y-121.
X191.5Y-125.
X191.5Y-127.
X191.5Y-129.
X191.5Y-131.
X191.5Y-133.
X191.5Y-135.
X191.5Y-137.
X191.5Y-139.
X191.5Y-141.
X191.5Y-143.
X191.5Y-145.
X191.5Y-147.
X191.5Y-149.
X191.5Y-151.
X191.5Y-153.
X191.5Y-155.
X191.5Y-157.
X191.5Y-159.
X191.5Y-161.
X193.5Y-52.
X193.5Y-54.
X193.5Y-56.
X193.5Y-58.
X193.5Y-60.
X193.5Y-64.
X193.5Y-66.
X193.5Y-68.
X193.5Y-70.
X193.5Y-72.
X193.5Y-74.
X193.5Y-76.
X193.5Y-78.
X193.5Y-80.
X193.5Y-82.
X193.5Y-84.
X193.5Y-86.
X193.5Y-88.
X193.5Y-90.
X193.5Y-92.
X193.5Y-94.
X193.5Y-96.
X193.5Y-98.
X193.5Y-100.
X193.5Y-112.
X193.5Y-114.
X193.5Y-116.
X193.5Y-118.
X193.5Y-120.
X193.5Y-124.
X193.5Y-126.
X193.5Y-128.
X193.5Y-130.
X193.5Y-132.
X193.5Y-134.
X193.5Y-136.
X193.5Y-138.
X193.5Y-140.
X193.5Y-142.
X193.5Y-144.
X193.5Y-146.
X193.5Y-148.
X193.5Y-150.
X193.5Y-152.
X193.5Y-154.
X193.5Y-156.
X193.5Y-158.
X193.5Y-160.
X82.Y-52.
X82.Y-54.
X82.Y-56.
X82.Y-58.
X82.Y-60.
X82.Y-64.
X82.Y-66.
X82.Y-68.
X82.Y-70.
X82.Y-72.
X82.Y-74.
X82.Y-76.
X82.Y-78.
X82.Y-80.
X82.Y-82.
X82.Y-84.
X82.Y-86.
X82.Y-88.
X82.Y-90.
X82.Y-92.
X82.Y-94.
X82.Y-96.
X82.Y-98.
X82.Y-100.
X82.Y-112.
X82.Y-114.
X82.Y-116.
X82.Y-118.
X82.Y-120.
X82.Y-124.
X82.Y-126.
X82.Y-128.
X82.Y-130.
X82.Y-132.
X82.Y-134.
X82.Y-136.
X82.Y-138.
X82.Y-140.
X82.Y-142.
X82.Y-144.
X82.Y-146.
X82.Y-148.
X82.Y-150.
X82.Y-152.
X82.Y-154.
X82.Y-156.
X82.Y-158.
X82.Y-160.
X84.Y-51.
X84.Y-53.
X84.Y-55.
X84.Y-57.
X84.Y-59.
X84.Y-61.
X84.Y-65.
X84.Y-67.
X84.Y-69.
X84.Y-71.
X84.Y-73.
X84.Y-75.
X84.Y-77.
X84.Y-79.
X84.Y-81.
X84.Y-83.
X84.Y-85.
X84.Y-87.
X84.Y-89.
X84.Y-91.
X84.Y-93.
X84.Y-95.
X84.Y-97.
X84.Y-99.
X84.Y-101.
X84.Y-111.
X84.Y-113.
X84.Y-115.
X84.Y-117.
X84.Y-119.
X84.Y-121.
X84.Y-125.
X84.Y-127.
X84.Y-129.
X84.Y-131.
X84.Y-133.
X84.Y-135.
X84.Y-137.
X84.Y-139.
X84.Y-141.
X84.Y-143.
X84.Y-145.
X84.Y-147.
X84.Y-149.
X84.Y-151.
X84.Y-153.
X84.Y-155.
X84.Y-157.
X84.Y-159.
X84.Y-161.
X86.5Y-51.
X86.5Y-53.
X86.5Y-55.
X86.5Y-57.
X86.5Y-59.
X86.5Y-61.
X86.5Y-65.
X86.5Y-67.
X86.5Y-69.
X86.5Y-71.
X86.5Y-73.
X86.5Y-75.
X86.5Y-77.
X86.5Y-79.
X86.5Y-81.
X86.5Y-83.
X86.5Y-85.
X86.5Y-87.
X86.5Y-89.
X86.5Y-91.
X86.5Y-93.
X86.5Y-95.
X86.5Y-97.
X86.5Y-99.
X86.5Y-101.
X86.5Y-111.
X86.5Y-113.
X86.5Y-115.
X86.5Y-117.
X86.5Y-119.
X86.5Y-121.
X86.5Y-125.
X86.5Y-127.
X86.5Y-129.
X86.5Y-131.
X86.5Y-133.
X86.5Y-135.
X86.5Y-137.
X86.5Y-139.
X86.5Y-141.
X86.5Y-143.
X86.5Y-145.
X86.5Y-147.
X86.5Y-149.
X86.5Y-151.
X86.5Y-153.
X86.5Y-155.
X86.5Y-157.
X86.5Y-159.
X86.5Y-161.
X88.5Y-52.
X88.5Y-54.
X88.5Y-56.
X88.5Y-58.
X88.5Y-60.
X88.5Y-64.
X88.5Y-66.
X88.5Y-68.
X88.5Y-70.
X88.5Y-72.
X88.5Y-74.
X88.5Y-76.
X88.5Y-78.
X88.5Y-80.
X88.5Y-82.
X88.5Y-84.
X88.5Y-86.
X88.5Y-88.
X88.5Y-90.
X88.5Y-92.
X88.5Y-94.
X88.5Y-96.
X88.5Y-98.
X88.5Y-100.
X88.5Y-112.
X88.5Y-114.
X88.5Y-116.
X88.5Y-118.
X88.5Y-120.
X88.5Y-124.
X88.5Y-126.
X88.5Y-128.
X88.5Y-130.
X88.5Y-132.
X88.5Y-134.
X88.5Y-136.
X88.5Y-138.
X88.5Y-140.
X88.5Y-142.
X88.5Y-144.
X88.5Y-146.
X88.5Y-148.
X88.5Y-150.
X88.5Y-152.
X88.5Y-154.
X88.5Y-156.
X88.5Y-158.
X88.5Y-160.
X142.Y-52.
X142.Y-54.
X142.Y-56.
X142.Y-58.
X142.Y-60.
X142.Y-64.
X142.Y-66.
X142.Y-68.
X142.Y-70.
X142.Y-72.
X142.Y-74.
X142.Y-76.
X142.Y-78.
X142.Y-80.
X142.Y-82.
X142.Y-84.
X142.Y-86.
X142.Y-88.
X142.Y-90.
X142.Y-92.
X142.Y-94.
X142.Y-96.
X142.Y-98.
X142.Y-100.
X142.Y-112.
X142.Y-114.
X142.Y-116.
X142.Y-118.
X142.Y-120.
X142.Y-124.
X142.Y-126.
X142.Y-128.
X142.Y-130.
X142.Y-132.
X142.Y-134.
X142.Y-136.
X142.Y-138.
X142.Y-140.
X142.Y-142.
X142.Y-144.
X142.Y-146.
X142.Y-148.
X142.Y-150.
X142.Y-152.
X142.Y-154.
X142.Y-156.
X142.Y-158.
X142.Y-160.
X144.Y-51.
X144.Y-53.
X144.Y-55.
X144.Y-57.
X144.Y-59.
X144.Y-61.
X144.Y-65.
X144.Y-67.
X144.Y-69.
X144.Y-71.
X144.Y-73.
X144.Y-75.
X144.Y-77.
X144.Y-79.
X144.Y-81.
X144.Y-83.
X144.Y-85.
X144.Y-87.
X144.Y-89.
X144.Y-91.
X144.Y-93.
X144.Y-95.
X144.Y-97.
X144.Y-99.
X144.Y-101.
X144.Y-111.
X144.Y-113.
X144.Y-115.
X144.Y-117.
X144.Y-119.
X144.Y-121.
X144.Y-125.
X144.Y-127.
X144.Y-129.
X144.Y-131.
X144.Y-133.
X144.Y-135.
X144.Y-137.
X144.Y-139.
X144.Y-141.
X144.Y-143.
X144.Y-145.
X144.Y-147.
X144.Y-149.
X144.Y-151.
X144.Y-153.
X144.Y-155.
X144.Y-157.
X144.Y-159.
X144.Y-161.
X146.5Y-51.
X146.5Y-53.
X146.5Y-55.
X146.5Y-57.
X146.5Y-59.
X146.5Y-61.
X146.5Y-65.
X146.5Y-67.
X146.5Y-69.
X146.5Y-71.
X146.5Y-73.
X146.5Y-75.
X146.5Y-77.
X146.5Y-79.
X146.5Y-81.
X146.5Y-83.
X146.5Y-85.
X146.5Y-87.
X146.5Y-89.
X146.5Y-91.
X146.5Y-93.
X146.5Y-95.
X146.5Y-97.
X146.5Y-99.
X146.5Y-101.
X146.5Y-111.
X146.5Y-113.
X146.5Y-115.
X146.5Y-117.
X146.5Y-119.
X146.5Y-121.
X146.5Y-125.
X146.5Y-127.
X146.5Y-129.
X146.5Y-131.
X146.5Y-133.
X146.5Y-135.
X146.5Y-137.
X146.5Y-139.
X146.5Y-141.
X146.5Y-143.
X146.5Y-145.
X146.5Y-147.
X146.5Y-149.
X146.5Y-151.
X146.5Y-153.
X146.5Y-155.
X146.5Y-157.
X146.5Y-159.
X146.5Y-161.
X148.5Y-52.
X148.5Y-54.
X148.5Y-56.
X148.5Y-58.
X148.5Y-60.
X148.5Y-64.
X148.5Y-66.
X148.5Y-68.
X148.5Y-70.
X148.5Y-72.
X148.5Y-74.
X148.5Y-76.
X148.5Y-78.
X148.5Y-80.
X148.5Y-82.
X148.5Y-84.
X148.5Y-86.
X148.5Y-88.
X148.5Y-90.
X148.5Y-92.
X148.5Y-94.
X148.5Y-96.
X148.5Y-98.
X148.5Y-100.
X148.5Y-112.
X148.5Y-114.
X148.5Y-116.
X148.5Y-118.
X148.5Y-120.
X148.5Y-124.
X148.5Y-126.
X148.5Y-128.
X148.5Y-130.
X148.5Y-132.
X148.5Y-134.
X148.5Y-136.
X148.5Y-138.
X148.5Y-140.
X148.5Y-142.
X148.5Y-144.
X148.5Y-146.
X148.5Y-148.
X148.5Y-150.
X148.5Y-152.
X148.5Y-154.
X148.5Y-156.
X148.5Y-158.
X148.5Y-160.
X97.Y-52.
X97.Y-54.
X97.Y-56.
X97.Y-58.
X97.Y-60.
X97.Y-64.
X97.Y-66.
X97.Y-68.
X97.Y-70.
X97.Y-72.
X97.Y-74.
X97.Y-76.
X97.Y-78.
X97.Y-80.
X97.Y-82.
X97.Y-84.
X97.Y-86.
X97.Y-88.
X97.Y-90.
X97.Y-92.
X97.Y-94.
X97.Y-96.
X97.Y-98.
X97.Y-100.
X97.Y-112.
X97.Y-114.
X97.Y-116.
X97.Y-118.
X97.Y-120.
X97.Y-124.
X97.Y-126.
X97.Y-128.
X97.Y-130.
X97.Y-132.
X97.Y-134.
X97.Y-136.
X97.Y-138.
X97.Y-140.
X97.Y-142.
X97.Y-144.
X97.Y-146.
X97.Y-148.
X97.Y-150.
X97.Y-152.
X97.Y-154.
X97.Y-156.
X97.Y-158.
X97.Y-160.
X99.Y-51.
X99.Y-53.
X99.Y-55.
X99.Y-57.
X99.Y-59.
X99.Y-61.
X99.Y-65.
X99.Y-67.
X99.Y-69.
X99.Y-71.
X99.Y-73.
X99.Y-75.
X99.Y-77.
X99.Y-79.
X99.Y-81.
X99.Y-83.
X99.Y-85.
X99.Y-87.
X99.Y-89.
X99.Y-91.
X99.Y-93.
X99.Y-95.
X99.Y-97.
X99.Y-99.
X99.Y-101.
X99.Y-111.
X99.Y-113.
X99.Y-115.
X99.Y-117.
X99.Y-119.
X99.Y-121.
X99.Y-125.
X99.Y-127.
X99.Y-129.
X99.Y-131.
X99.Y-133.
X99.Y-135.
X99.Y-137.
X99.Y-139.
X99.Y-141.
X99.Y-143.
X99.Y-145.
X99.Y-147.
X99.Y-149.
X99.Y-151.
X99.Y-153.
X99.Y-155.
X99.Y-157.
X99.Y-159.
X99.Y-161.
X101.5Y-51.
X101.5Y-53.
X101.5Y-55.
X101.5Y-57.
X101.5Y-59.
X101.5Y-61.
X101.5Y-65.
X101.5Y-67.
X101.5Y-69.
X101.5Y-71.
X101.5Y-73.
X101.5Y-75.
X101.5Y-77.
X101.5Y-79.
X101.5Y-81.
X101.5Y-83.
X101.5Y-85.
X101.5Y-87.
X101.5Y-89.
X101.5Y-91.
X101.5Y-93.
X101.5Y-95.
X101.5Y-97.
X101.5Y-99.
X101.5Y-101.
X101.5Y-111.
X101.5Y-113.
X101.5Y-115.
X101.5Y-117.
X101.5Y-119.
X101.5Y-121.
X101.5Y-125.
X101.5Y-127.
X101.5Y-129.
X101.5Y-131.
X101.5Y-133.
X101.5Y-135.
X101.5Y-137.
X101.5Y-139.
X101.5Y-141.
X101.5Y-143.
X101.5Y-145.
X101.5Y-147.
X101.5Y-149.
X101.5Y-151.
X101.5Y-153.
X101.5Y-155.
X101.5Y-157.
X101.5Y-159.
X101.5Y-161.
X103.5Y-52.
X103.5Y-54.
X103.5Y-56.
X103.5Y-58.
X103.5Y-60.
X103.5Y-64.
X103.5Y-66.
X103.5Y-68.
X103.5Y-70.
X103.5Y-72.
X103.5Y-74.
X103.5Y-76.
X103.5Y-78.
X103.5Y-80.
X103.5Y-82.
X103.5Y-84.
X103.5Y-86.
X103.5Y-88.
X103.5Y-90.
X103.5Y-92.
X103.5Y-94.
X103.5Y-96.
X103.5Y-98.
X103.5Y-100.
X103.5Y-112.
X103.5Y-114.
X103.5Y-116.
X103.5Y-118.
X103.5Y-120.
X103.5Y-124.
X103.5Y-126.
X103.5Y-128.
X103.5Y-130.
X103.5Y-132.
X103.5Y-134.
X103.5Y-136.
X103.5Y-138.
X103.5Y-140.
X103.5Y-142.
X103.5Y-144.
X103.5Y-146.
X103.5Y-148.
X103.5Y-150.
X103.5Y-152.
X103.5Y-154.
X103.5Y-156.
X103.5Y-158.
X103.5Y-160.
X217.Y-52.
X217.Y-54.
X217.Y-56.
X217.Y-58.
X217.Y-60.
X217.Y-64.
X217.Y-66.
X217.Y-68.
X217.Y-70.
X217.Y-72.
X217.Y-74.
X217.Y-76.
X217.Y-78.
X217.Y-80.
X217.Y-82.
X217.Y-84.
X217.Y-86.
X217.Y-88.
X217.Y-90.
X217.Y-92.
X217.Y-94.
X217.Y-96.
X217.Y-98.
X217.Y-100.
X217.Y-112.
X217.Y-114.
X217.Y-116.
X217.Y-118.
X217.Y-120.
X217.Y-124.
X217.Y-126.
X217.Y-128.
X217.Y-130.
X217.Y-132.
X217.Y-134.
X217.Y-136.
X217.Y-138.
X217.Y-140.
X217.Y-142.
X217.Y-144.
X217.Y-146.
X217.Y-148.
X217.Y-150.
X217.Y-152.
X217.Y-154.
X217.Y-156.
X217.Y-158.
X217.Y-160.
X219.Y-51.
X219.Y-53.
X219.Y-55.
X219.Y-57.
X219.Y-59.
X219.Y-61.
X219.Y-65.
X219.Y-67.
X219.Y-69.
X219.Y-71.
X219.Y-73.
X219.Y-75.
X219.Y-77.
X219.Y-79.
X219.Y-81.
X219.Y-83.
X219.Y-85.
X219.Y-87.
X219.Y-89.
X219.Y-91.
X219.Y-93.
X219.Y-95.
X219.Y-97.
X219.Y-99.
X219.Y-101.
X219.Y-111.
X219.Y-113.
X219.Y-115.
X219.Y-117.
X219.Y-119.
X219.Y-121.
X219.Y-125.
X219.Y-127.
X219.Y-129.
X219.Y-131.
X219.Y-133.
X219.Y-135.
X219.Y-137.
X219.Y-139.
X219.Y-141.
X219.Y-143.
X219.Y-145.
X219.Y-147.
X219.Y-149.
X219.Y-151.
X219.Y-153.
X219.Y-155.
X219.Y-157.
X219.Y-159.
X219.Y-161.
X221.5Y-51.
X221.5Y-53.
X221.5Y-55.
X221.5Y-57.
X221.5Y-59.
X221.5Y-61.
X221.5Y-65.
X221.5Y-67.
X221.5Y-69.
X221.5Y-71.
X221.5Y-73.
X221.5Y-75.
X221.5Y-77.
X221.5Y-79.
X221.5Y-81.
X221.5Y-83.
X221.5Y-85.
X221.5Y-87.
X221.5Y-89.
X221.5Y-91.
X221.5Y-93.
X221.5Y-95.
X221.5Y-97.
X221.5Y-99.
X221.5Y-101.
X221.5Y-111.
X221.5Y-113.
X221.5Y-115.
X221.5Y-117.
X221.5Y-119.
X221.5Y-121.
X221.5Y-125.
X221.5Y-127.
X221.5Y-129.
X221.5Y-131.
X221.5Y-133.
X221.5Y-135.
X221.5Y-137.
X221.5Y-139.
X221.5Y-141.
X221.5Y-143.
X221.5Y-145.
X221.5Y-147.
X221.5Y-149.
X221.5Y-151.
X221.5Y-153.
X221.5Y-155.
X221.5Y-157.
X221.5Y-159.
X221.5Y-161.
X223.5Y-52.
X223.5Y-54.
X223.5Y-56.
X223.5Y-58.
X223.5Y-60.
X223.5Y-64.
X223.5Y-66.
X223.5Y-68.
X223.5Y-70.
X223.5Y-72.
X223.5Y-74.
X223.5Y-76.
X223.5Y-78.
X223.5Y-80.
X223.5Y-82.
X223.5Y-84.
X223.5Y-86.
X223.5Y-88.
X223.5Y-90.
X223.5Y-92.
X223.5Y-94.
X223.5Y-96.
X223.5Y-98.
X223.5Y-100.
X223.5Y-112.
X223.5Y-114.
X223.5Y-116.
X223.5Y-118.
X223.5Y-120.
X223.5Y-124.
X223.5Y-126.
X223.5Y-128.
X223.5Y-130.
X223.5Y-132.
X223.5Y-134.
X223.5Y-136.
X223.5Y-138.
X223.5Y-140.
X223.5Y-142.
X223.5Y-144.
X223.5Y-146.
X223.5Y-148.
X223.5Y-150.
X223.5Y-152.
X223.5Y-154.
X223.5Y-156.
X223.5Y-158.
X223.5Y-160.
X157.Y-52.
X157.Y-54.
X157.Y-56.
X157.Y-58.
X157.Y-60.
X157.Y-64.
X157.Y-66.
X157.Y-68.
X157.Y-70.
X157.Y-72.
X157.Y-74.
X157.Y-76.
X157.Y-78.
X157.Y-80.
X157.Y-82.
X157.Y-84.
X157.Y-86.
X157.Y-88.
X157.Y-90.
X157.Y-92.
X157.Y-94.
X157.Y-96.
X157.Y-98.
X157.Y-100.
X157.Y-112.
X157.Y-114.
X157.Y-116.
X157.Y-118.
X157.Y-120.
X157.Y-124.
X157.Y-126.
X157.Y-128.
X157.Y-130.
X157.Y-132.
X157.Y-134.
X157.Y-136.
X157.Y-138.
X157.Y-140.
X157.Y-142.
X157.Y-144.
X157.Y-146.
X157.Y-148.
X157.Y-150.
X157.Y-152.
X157.Y-154.
X157.Y-156.
X157.Y-158.
X157.Y-160.
X159.Y-51.
X159.Y-53.
X159.Y-55.
X159.Y-57.
X159.Y-59.
X159.Y-61.
X159.Y-65.
X159.Y-67.
X159.Y-69.
X159.Y-71.
X159.Y-73.
X159.Y-75.
X159.Y-77.
X159.Y-79.
X159.Y-81.
X159.Y-83.
X159.Y-85.
X159.Y-87.
X159.Y-89.
X159.Y-91.
X159.Y-93.
X159.Y-95.
X159.Y-97.
X159.Y-99.
X159.Y-101.
X159.Y-111.
X159.Y-113.
X159.Y-115.
X159.Y-117.
X159.Y-119.
X159.Y-121.
X159.Y-125.
X159.Y-127.
X159.Y-129.
X159.Y-131.
X159.Y-133.
X159.Y-135.
X159.Y-137.
X159.Y-139.
X159.Y-141.
X159.Y-143.
X159.Y-145.
X159.Y-147.
X159.Y-149.
X159.Y-151.
X159.Y-153.
X159.Y-155.
X159.Y-157.
X159.Y-159.
X159.Y-161.
X161.5Y-51.
X161.5Y-53.
X161.5Y-55.
X161.5Y-57.
X161.5Y-59.
X161.5Y-61.
X161.5Y-65.
X161.5Y-67.
X161.5Y-69.
X161.5Y-71.
X161.5Y-73.
X161.5Y-75.
X161.5Y-77.
X161.5Y-79.
X161.5Y-81.
X161.5Y-83.
X161.5Y-85.
X161.5Y-87.
X161.5Y-89.
X161.5Y-91.
X161.5Y-93.
X161.5Y-95.
X161.5Y-97.
X161.5Y-99.
X161.5Y-101.
X161.5Y-111.
X161.5Y-113.
X161.5Y-115.
X161.5Y-117.
X161.5Y-119.
X161.5Y-121.
X161.5Y-125.
X161.5Y-127.
X161.5Y-129.
X161.5Y-131.
X161.5Y-133.
X161.5Y-135.
X161.5Y-137.
X161.5Y-139.
X161.5Y-141.
X161.5Y-143.
X161.5Y-145.
X161.5Y-147.
X161.5Y-149.
X161.5Y-151.
X161.5Y-153.
X161.5Y-155.
X161.5Y-157.
X161.5Y-159.
X161.5Y-161.
X163.5Y-52.
X163.5Y-54.
X163.5Y-56.
X163.5Y-58.
X163.5Y-60.
X163.5Y-64.
X163.5Y-66.
X163.5Y-68.
X163.5Y-70.
X163.5Y-72.
X163.5Y-74.
X163.5Y-76.
X163.5Y-78.
X163.5Y-80.
X163.5Y-82.
X163.5Y-84.
X163.5Y-86.
X163.5Y-88.
X163.5Y-90.
X163.5Y-92.
X163.5Y-94.
X163.5Y-96.
X163.5Y-98.
X163.5Y-100.
X163.5Y-112.
X163.5Y-114.
X163.5Y-116.
X163.5Y-118.
X163.5Y-120.
X163.5Y-124.
X163.5Y-126.
X163.5Y-128.
X163.5Y-130.
X163.5Y-132.
X163.5Y-134.
X163.5Y-136.
X163.5Y-138.
X163.5Y-140.
X163.5Y-142.
X163.5Y-144.
X163.5Y-146.
X163.5Y-148.
X163.5Y-150.
X163.5Y-152.
X163.5Y-154.
X163.5Y-156.
X163.5Y-158.
X163.5Y-160.
X172.Y-52.
X172.Y-54.
X172.Y-56.
X172.Y-58.
X172.Y-60.
X172.Y-64.
X172.Y-66.
X172.Y-68.
X172.Y-70.
X172.Y-72.
X172.Y-74.
X172.Y-76.
X172.Y-78.
X172.Y-80.
X172.Y-82.
X172.Y-84.
X172.Y-86.
X172.Y-88.
X172.Y-90.
X172.Y-92.
X172.Y-94.
X172.Y-96.
X172.Y-98.
X172.Y-100.
X172.Y-112.
X172.Y-114.
X172.Y-116.
X172.Y-118.
X172.Y-120.
X172.Y-124.
X172.Y-126.
X172.Y-128.
X172.Y-130.
X172.Y-132.
X172.Y-134.
X172.Y-136.
X172.Y-138.
X172.Y-140.
X172.Y-142.
X172.Y-144.
X172.Y-146.
X172.Y-148.
X172.Y-150.
X172.Y-152.
X172.Y-154.
X172.Y-156.
X172.Y-158.
X172.Y-160.
X174.Y-51.
X174.Y-53.
X174.Y-55.
X174.Y-57.
X174.Y-59.
X174.Y-61.
X174.Y-65.
X174.Y-67.
X174.Y-69.
X174.Y-71.
X174.Y-73.
X174.Y-75.
X174.Y-77.
X174.Y-79.
X174.Y-81.
X174.Y-83.
X174.Y-85.
X174.Y-87.
X174.Y-89.
X174.Y-91.
X174.Y-93.
X174.Y-95.
X174.Y-97.
X174.Y-99.
X174.Y-101.
X174.Y-111.
X174.Y-113.
X174.Y-115.
X174.Y-117.
X174.Y-119.
X174.Y-121.
X174.Y-125.
X174.Y-127.
X174.Y-129.
X174.Y-131.
X174.Y-133.
X174.Y-135.
X174.Y-137.
X174.Y-139.
X174.Y-141.
X174.Y-143.
X174.Y-145.
X174.Y-147.
X174.Y-149.
X174.Y-151.
X174.Y-153.
X174.Y-155.
X174.Y-157.
X174.Y-159.
X174.Y-161.
X176.5Y-51.
X176.5Y-53.
X176.5Y-55.
X176.5Y-57.
X176.5Y-59.
X176.5Y-61.
X176.5Y-65.
X176.5Y-67.
X176.5Y-69.
X176.5Y-71.
X176.5Y-73.
X176.5Y-75.
X176.5Y-77.
X176.5Y-79.
X176.5Y-81.
X176.5Y-83.
X176.5Y-85.
X176.5Y-87.
X176.5Y-89.
X176.5Y-91.
X176.5Y-93.
X176.5Y-95.
X176.5Y-97.
X176.5Y-99.
X176.5Y-101.
X176.5Y-111.
X176.5Y-113.
X176.5Y-115.
X176.5Y-117.
X176.5Y-119.
X176.5Y-121.
X176.5Y-125.
X176.5Y-127.
X176.5Y-129.
X176.5Y-131.
X176.5Y-133.
X176.5Y-135.
X176.5Y-137.
X176.5Y-139.
X176.5Y-141.
X176.5Y-143.
X176.5Y-145.
X176.5Y-147.
X176.5Y-149.
X176.5Y-151.
X176.5Y-153.
X176.5Y-155.
X176.5Y-157.
X176.5Y-159.
X176.5Y-161.
X178.5Y-52.
X178.5Y-54.
X178.5Y-56.
X178.5Y-58.
X178.5Y-60.
X178.5Y-64.
X178.5Y-66.
X178.5Y-68.
X178.5Y-70.
X178.5Y-72.
X178.5Y-74.
X178.5Y-76.
X178.5Y-78.
X178.5Y-80.
X178.5Y-82.
X178.5Y-84.
X178.5Y-86.
X178.5Y-88.
X178.5Y-90.
X178.5Y-92.
X178.5Y-94.
X178.5Y-96.
X178.5Y-98.
X178.5Y-100.
X178.5Y-112.
X178.5Y-114.
X178.5Y-116.
X178.5Y-118.
X178.5Y-120.
X178.5Y-124.
X178.5Y-126.
X178.5Y-128.
X178.5Y-130.
X178.5Y-132.
X178.5Y-134.
X178.5Y-136.
X178.5Y-138.
X178.5Y-140.
X178.5Y-142.
X178.5Y-144.
X178.5Y-146.
X178.5Y-148.
X178.5Y-150.
X178.5Y-152.
X178.5Y-154.
X178.5Y-156.
X178.5Y-158.
X178.5Y-160.
X232.Y-52.
X232.Y-54.
X232.Y-56.
X232.Y-58.
X232.Y-60.
X232.Y-64.
X232.Y-66.
X232.Y-68.
X232.Y-70.
X232.Y-72.
X232.Y-74.
X232.Y-76.
X232.Y-78.
X232.Y-80.
X232.Y-82.
X232.Y-84.
X232.Y-86.
X232.Y-88.
X232.Y-90.
X232.Y-92.
X232.Y-94.
X232.Y-96.
X232.Y-98.
X232.Y-100.
X232.Y-112.
X232.Y-114.
X232.Y-116.
X232.Y-118.
X232.Y-120.
X232.Y-124.
X232.Y-126.
X232.Y-128.
X232.Y-130.
X232.Y-132.
X232.Y-134.
X232.Y-136.
X232.Y-138.
X232.Y-140.
X232.Y-142.
X232.Y-144.
X232.Y-146.
X232.Y-148.
X232.Y-150.
X232.Y-152.
X232.Y-154.
X232.Y-156.
X232.Y-158.
X232.Y-160.
X234.Y-51.
X234.Y-53.
X234.Y-55.
X234.Y-57.
X234.Y-59.
X234.Y-61.
X234.Y-65.
X234.Y-67.
X234.Y-69.
X234.Y-71.
X234.Y-73.
X234.Y-75.
X234.Y-77.
X234.Y-79.
X234.Y-81.
X234.Y-83.
X234.Y-85.
X234.Y-87.
X234.Y-89.
X234.Y-91.
X234.Y-93.
X234.Y-95.
X234.Y-97.
X234.Y-99.
X234.Y-101.
X234.Y-111.
X234.Y-113.
X234.Y-115.
X234.Y-117.
X234.Y-119.
X234.Y-121.
X234.Y-125.
X234.Y-127.
X234.Y-129.
X234.Y-131.
X234.Y-133.
X234.Y-135.
X234.Y-137.
X234.Y-139.
X234.Y-141.
X234.Y-143.
X234.Y-145.
X234.Y-147.
X234.Y-149.
X234.Y-151.
X234.Y-153.
X234.Y-155.
X234.Y-157.
X234.Y-159.
X234.Y-161.
X236.5Y-51.
X236.5Y-53.
X236.5Y-55.
X236.5Y-57.
X236.5Y-59.
X236.5Y-61.
X236.5Y-65.
X236.5Y-67.
X236.5Y-69.
X236.5Y-71.
X236.5Y-73.
X236.5Y-75.
X236.5Y-77.
X236.5Y-79.
X236.5Y-81.
X236.5Y-83.
X236.5Y-85.
X236.5Y-87.
X236.5Y-89.
X236.5Y-91.
X236.5Y-93.
X236.5Y-95.
X236.5Y-97.
X236.5Y-99.
X236.5Y-101.
X236.5Y-111.
X236.5Y-113.
X236.5Y-115.
X236.5Y-117.
X236.5Y-119.
X236.5Y-121.
X236.5Y-125.
X236.5Y-127.
X236.5Y-129.
X236.5Y-131.
X236.5Y-133.
X236.5Y-135.
X236.5Y-137.
X236.5Y-139.
X236.5Y-141.
X236.5Y-143.
X236.5Y-145.
X236.5Y-147.
X236.5Y-149.
X236.5Y-151.
X236.5Y-153.
X236.5Y-155.
X236.5Y-157.
X236.5Y-159.
X236.5Y-161.
X238.5Y-52.
X238.5Y-54.
X238.5Y-56.
X238.5Y-58.
X238.5Y-60.
X238.5Y-64.
X238.5Y-66.
X238.5Y-68.
X238.5Y-70.
X238.5Y-72.
X238.5Y-74.
X238.5Y-76.
X238.5Y-78.
X238.5Y-80.
X238.5Y-82.
X238.5Y-84.
X238.5Y-86.
X238.5Y-88.
X238.5Y-90.
X238.5Y-92.
X238.5Y-94.
X238.5Y-96.
X238.5Y-98.
X238.5Y-100.
X238.5Y-112.
X238.5Y-114.
X238.5Y-116.
X238.5Y-118.
X238.5Y-120.
X238.5Y-124.
X238.5Y-126.
X238.5Y-128.
X238.5Y-130.
X238.5Y-132.
X238.5Y-134.
X238.5Y-136.
X238.5Y-138.
X238.5Y-140.
X238.5Y-142.
X238.5Y-144.
X238.5Y-146.
X238.5Y-148.
X238.5Y-150.
X238.5Y-152.
X238.5Y-154.
X238.5Y-156.
X238.5Y-158.
X238.5Y-160.
X202.Y-52.
X202.Y-54.
X202.Y-56.
X202.Y-58.
X202.Y-60.
X202.Y-64.
X202.Y-66.
X202.Y-68.
X202.Y-70.
X202.Y-72.
X202.Y-74.
X202.Y-76.
X202.Y-78.
X202.Y-80.
X202.Y-82.
X202.Y-84.
X202.Y-86.
X202.Y-88.
X202.Y-90.
X202.Y-92.
X202.Y-94.
X202.Y-96.
X202.Y-98.
X202.Y-100.
X202.Y-112.
X202.Y-114.
X202.Y-116.
X202.Y-118.
X202.Y-120.
X202.Y-124.
X202.Y-126.
X202.Y-128.
X202.Y-130.
X202.Y-132.
X202.Y-134.
X202.Y-136.
X202.Y-138.
X202.Y-140.
X202.Y-142.
X202.Y-144.
X202.Y-146.
X202.Y-148.
X202.Y-150.
X202.Y-152.
X202.Y-154.
X202.Y-156.
X202.Y-158.
X202.Y-160.
X204.Y-51.
X204.Y-53.
X204.Y-55.
X204.Y-57.
X204.Y-59.
X204.Y-61.
X204.Y-65.
X204.Y-67.
X204.Y-69.
X204.Y-71.
X204.Y-73.
X204.Y-75.
X204.Y-77.
X204.Y-79.
X204.Y-81.
X204.Y-83.
X204.Y-85.
X204.Y-87.
X204.Y-89.
X204.Y-91.
X204.Y-93.
X204.Y-95.
X204.Y-97.
X204.Y-99.
X204.Y-101.
X204.Y-111.
X204.Y-113.
X204.Y-115.
X204.Y-117.
X204.Y-119.
X204.Y-121.
X204.Y-125.
X204.Y-127.
X204.Y-129.
X204.Y-131.
X204.Y-133.
X204.Y-135.
X204.Y-137.
X204.Y-139.
X204.Y-141.
X204.Y-143.
X204.Y-145.
X204.Y-147.
X204.Y-149.
X204.Y-151.
X204.Y-153.
X204.Y-155.
X204.Y-157.
X204.Y-159.
X204.Y-161.
X206.5Y-51.
X206.5Y-53.
X206.5Y-55.
X206.5Y-57.
X206.5Y-59.
X206.5Y-61.
X206.5Y-65.
X206.5Y-67.
X206.5Y-69.
X206.5Y-71.
X206.5Y-73.
X206.5Y-75.
X206.5Y-77.
X206.5Y-79.
X206.5Y-81.
X206.5Y-83.
X206.5Y-85.
X206.5Y-87.
X206.5Y-89.
X206.5Y-91.
X206.5Y-93.
X206.5Y-95.
X206.5Y-97.
X206.5Y-99.
X206.5Y-101.
X206.5Y-111.
X206.5Y-113.
X206.5Y-115.
X206.5Y-117.
X206.5Y-119.
X206.5Y-121.
X206.5Y-125.
X206.5Y-127.
X206.5Y-129.
X206.5Y-131.
X206.5Y-133.
X206.5Y-135.
X206.5Y-137.
X206.5Y-139.
X206.5Y-141.
X206.5Y-143.
X206.5Y-145.
X206.5Y-147.
X206.5Y-149.
X206.5Y-151.
X206.5Y-153.
X206.5Y-155.
X206.5Y-157.
X206.5Y-159.
X206.5Y-161.
X208.5Y-52.
X208.5Y-54.
X208.5Y-56.
X208.5Y-58.
X208.5Y-60.
X208.5Y-64.
X208.5Y-66.
X208.5Y-68.
X208.5Y-70.
X208.5Y-72.
X208.5Y-74.
X208.5Y-76.
X208.5Y-78.
X208.5Y-80.
X208.5Y-82.
X208.5Y-84.
X208.5Y-86.
X208.5Y-88.
X208.5Y-90.
X208.5Y-92.
X208.5Y-94.
X208.5Y-96.
X208.5Y-98.
X208.5Y-100.
X208.5Y-112.
X208.5Y-114.
X208.5Y-116.
X208.5Y-118.
X208.5Y-120.
X208.5Y-124.
X208.5Y-126.
X208.5Y-128.
X208.5Y-130.
X208.5Y-132.
X208.5Y-134.
X208.5Y-136.
X208.5Y-138.
X208.5Y-140.
X208.5Y-142.
X208.5Y-144.
X208.5Y-146.
X208.5Y-148.
X208.5Y-150.
X208.5Y-152.
X208.5Y-154.
X208.5Y-156.
X208.5Y-158.
X208.5Y-160.
X127.Y-52.
X127.Y-54.
X127.Y-56.
X127.Y-58.
X127.Y-60.
X127.Y-64.
X127.Y-66.
X127.Y-68.
X127.Y-70.
X127.Y-72.
X127.Y-74.
X127.Y-76.
X127.Y-78.
X127.Y-80.
X127.Y-82.
X127.Y-84.
X127.Y-86.
X127.Y-88.
X127.Y-90.
X127.Y-92.
X127.Y-94.
X127.Y-96.
X127.Y-98.
X127.Y-100.
X127.Y-112.
X127.Y-114.
X127.Y-116.
X127.Y-118.
X127.Y-120.
X127.Y-124.
X127.Y-126.
X127.Y-128.
X127.Y-130.
X127.Y-132.
X127.Y-134.
X127.Y-136.
X127.Y-138.
X127.Y-140.
X127.Y-142.
X127.Y-144.
X127.Y-146.
X127.Y-148.
X127.Y-150.
X127.Y-152.
X127.Y-154.
X127.Y-156.
X127.Y-158.
X127.Y-160.
X129.Y-51.
X129.Y-53.
X129.Y-55.
X129.Y-57.
X129.Y-59.
X129.Y-61.
X129.Y-65.
X129.Y-67.
X129.Y-69.
X129.Y-71.
X129.Y-73.
X129.Y-75.
X129.Y-77.
X129.Y-79.
X129.Y-81.
X129.Y-83.
X129.Y-85.
X129.Y-87.
X129.Y-89.
X129.Y-91.
X129.Y-93.
X129.Y-95.
X129.Y-97.
X129.Y-99.
X129.Y-101.
X129.Y-111.
X129.Y-113.
X129.Y-115.
X129.Y-117.
X129.Y-119.
X129.Y-121.
X129.Y-125.
X129.Y-127.
X129.Y-129.
X129.Y-131.
X129.Y-133.
X129.Y-135.
X129.Y-137.
X129.Y-139.
X129.Y-141.
X129.Y-143.
X129.Y-145.
X129.Y-147.
X129.Y-149.
X129.Y-151.
X129.Y-153.
X129.Y-155.
X129.Y-157.
X129.Y-159.
X129.Y-161.
X131.5Y-51.
X131.5Y-53.
X131.5Y-55.
X131.5Y-57.
X131.5Y-59.
X131.5Y-61.
X131.5Y-65.
X131.5Y-67.
X131.5Y-69.
X131.5Y-71.
X131.5Y-73.
X131.5Y-75.
X131.5Y-77.
X131.5Y-79.
X131.5Y-81.
X131.5Y-83.
X131.5Y-85.
X131.5Y-87.
X131.5Y-89.
X131.5Y-91.
X131.5Y-93.
X131.5Y-95.
X131.5Y-97.
X131.5Y-99.
X131.5Y-101.
X131.5Y-111.
X131.5Y-113.
X131.5Y-115.
X131.5Y-117.
X131.5Y-119.
X131.5Y-121.
X131.5Y-125.
X131.5Y-127.
X131.5Y-129.
X131.5Y-131.
X131.5Y-133.
X131.5Y-135.
X131.5Y-137.
X131.5Y-139.
X131.5Y-141.
X131.5Y-143.
X131.5Y-145.
X131.5Y-147.
X131.5Y-149.
X131.5Y-151.
X131.5Y-153.
X131.5Y-155.
X131.5Y-157.
X131.5Y-159.
X131.5Y-161.
X133.5Y-52.
X133.5Y-54.
X133.5Y-56.
X133.5Y-58.
X133.5Y-60.
X133.5Y-64.
X133.5Y-66.
X133.5Y-68.
X133.5Y-70.
X133.5Y-72.
X133.5Y-74.
X133.5Y-76.
X133.5Y-78.
X133.5Y-80.
X133.5Y-82.
X133.5Y-84.
X133.5Y-86.
X133.5Y-88.
X133.5Y-90.
X133.5Y-92.
X133.5Y-94.
X133.5Y-96.
X133.5Y-98.
X133.5Y-100.
X133.5Y-112.
X133.5Y-114.
X133.5Y-116.
X133.5Y-118.
X133.5Y-120.
X133.5Y-124.
X133.5Y-126.
X133.5Y-128.
X133.5Y-130.
X133.5Y-132.
X133.5Y-134.
X133.5Y-136.
X133.5Y-138.
X133.5Y-140.
X133.5Y-142.
X133.5Y-144.
X133.5Y-146.
X133.5Y-148.
X133.5Y-150.
X133.5Y-152.
X133.5Y-154.
X133.5Y-156.
X133.5Y-158.
X133.5Y-160.
X112.Y-52.
X112.Y-54.
X112.Y-56.
X112.Y-58.
X112.Y-60.
X112.Y-64.
X112.Y-66.
X112.Y-68.
X112.Y-70.
X112.Y-72.
X112.Y-74.
X112.Y-76.
X112.Y-78.
X112.Y-80.
X112.Y-82.
X112.Y-84.
X112.Y-86.
X112.Y-88.
X112.Y-90.
X112.Y-92.
X112.Y-94.
X112.Y-96.
X112.Y-98.
X112.Y-100.
X112.Y-112.
X112.Y-114.
X112.Y-116.
X112.Y-118.
X112.Y-120.
X112.Y-124.
X112.Y-126.
X112.Y-128.
X112.Y-130.
X112.Y-132.
X112.Y-134.
X112.Y-136.
X112.Y-138.
X112.Y-140.
X112.Y-142.
X112.Y-144.
X112.Y-146.
X112.Y-148.
X112.Y-150.
X112.Y-152.
X112.Y-154.
X112.Y-156.
X112.Y-158.
X112.Y-160.
X114.Y-51.
X114.Y-53.
X114.Y-55.
X114.Y-57.
X114.Y-59.
X114.Y-61.
X114.Y-65.
X114.Y-67.
X114.Y-69.
X114.Y-71.
X114.Y-73.
X114.Y-75.
X114.Y-77.
X114.Y-79.
X114.Y-81.
X114.Y-83.
X114.Y-85.
X114.Y-87.
X114.Y-89.
X114.Y-91.
X114.Y-93.
X114.Y-95.
X114.Y-97.
X114.Y-99.
X114.Y-101.
X114.Y-111.
X114.Y-113.
X114.Y-115.
X114.Y-117.
X114.Y-119.
X114.Y-121.
X114.Y-125.
X114.Y-127.
X114.Y-129.
X114.Y-131.
X114.Y-133.
X114.Y-135.
X114.Y-137.
X114.Y-139.
X114.Y-141.
X114.Y-143.
X114.Y-145.
X114.Y-147.
X114.Y-149.
X114.Y-151.
X114.Y-153.
X114.Y-155.
X114.Y-157.
X114.Y-159.
X114.Y-161.
X116.5Y-51.
X116.5Y-53.
X116.5Y-55.
X116.5Y-57.
X116.5Y-59.
X116.5Y-61.
X116.5Y-65.
X116.5Y-67.
X116.5Y-69.
X116.5Y-71.
X116.5Y-73.
X116.5Y-75.
X116.5Y-77.
X116.5Y-79.
X116.5Y-81.
X116.5Y-83.
X116.5Y-85.
X116.5Y-87.
X116.5Y-89.
X116.5Y-91.
X116.5Y-93.
X116.5Y-95.
X116.5Y-97.
X116.5Y-99.
X116.5Y-101.
X116.5Y-111.
X116.5Y-113.
X116.5Y-115.
X116.5Y-117.
X116.5Y-119.
X116.5Y-121.
X116.5Y-125.
X116.5Y-127.
X116.5Y-129.
X116.5Y-131.
X116.5Y-133.
X116.5Y-135.
X116.5Y-137.
X116.5Y-139.
X116.5Y-141.
X116.5Y-143.
X116.5Y-145.
X116.5Y-147.
X116.5Y-149.
X116.5Y-151.
X116.5Y-153.
X116.5Y-155.
X116.5Y-157.
X116.5Y-159.
X116.5Y-161.
X118.5Y-52.
X118.5Y-54.
X118.5Y-56.
X118.5Y-58.
X118.5Y-60.
X118.5Y-64.
X118.5Y-66.
X118.5Y-68.
X118.5Y-70.
X118.5Y-72.
X118.5Y-74.
X118.5Y-76.
X118.5Y-78.
X118.5Y-80.
X118.5Y-82.
X118.5Y-84.
X118.5Y-86.
X118.5Y-88.
X118.5Y-90.
X118.5Y-92.
X118.5Y-94.
X118.5Y-96.
X118.5Y-98.
X118.5Y-100.
X118.5Y-112.
X118.5Y-114.
X118.5Y-116.
X118.5Y-118.
X118.5Y-120.
X118.5Y-124.
X118.5Y-126.
X118.5Y-128.
X118.5Y-130.
X118.5Y-132.
X118.5Y-134.
X118.5Y-136.
X118.5Y-138.
X118.5Y-140.
X118.5Y-142.
X118.5Y-144.
X118.5Y-146.
X118.5Y-148.
X118.5Y-150.
X118.5Y-152.
X118.5Y-154.
X118.5Y-156.
X118.5Y-158.
X118.5Y-160.
T2
X51.62Y-161.
X51.62Y-162.6
X51.66Y-86.2
X51.66Y-87.8
X51.66Y-92.
X51.66Y-93.6
X51.66Y-97.2
X51.66Y-98.8
X51.66Y-111.
X51.66Y-112.6
X51.66Y-115.4
X51.66Y-117.
X51.66Y-121.4
X51.66Y-123.
X51.66Y-134.
X51.66Y-135.6
X51.66Y-139.
X51.66Y-140.6
X51.66Y-145.
X51.66Y-146.6
X51.66Y-150.
X51.66Y-151.6
X51.66Y-156.
X51.66Y-157.6
X51.7Y-51.
X51.7Y-52.6
X51.7Y-57.
X51.7Y-58.6
X51.7Y-65.
X51.7Y-66.6
X51.7Y-70.
X51.7Y-71.6
X51.7Y-75.
X51.7Y-76.6
X51.7Y-80.
X51.7Y-81.6
X51.7Y-128.
X51.7Y-129.6
X52.92Y-160.2
X52.92Y-161.8
X52.96Y-85.4
X52.96Y-87.
X52.96Y-91.2
X52.96Y-92.8
X52.96Y-96.4
X52.96Y-98.
X52.96Y-110.2
X52.96Y-111.8
X52.96Y-114.6
X52.96Y-116.2
X52.96Y-120.6
X52.96Y-122.2
X52.96Y-133.2
X52.96Y-134.8
X52.96Y-138.2
X52.96Y-139.8
X52.96Y-144.2
X52.96Y-145.8
X52.96Y-149.2
X52.96Y-150.8
X52.96Y-155.2
X52.96Y-156.8
X53.Y-50.2
X53.Y-51.8
X53.Y-56.2
X53.Y-57.8
X53.Y-64.2
X53.Y-65.8
X53.Y-69.2
X53.Y-70.8
X53.Y-74.2
X53.Y-75.8
X53.Y-79.2
X53.Y-80.8
X53.Y-127.2
X53.Y-128.8
X53.5Y-103.98
X53.9Y-105.18
X54.Y-102.78
X61.6Y-105.08
X61.7Y-102.88
X62.2Y-103.98
X75.78Y-109.6
X75.88Y-101.9
X76.98Y-101.4
X76.98Y-110.1
X78.08Y-102.
X78.18Y-109.7
X86.9Y-43.98
X87.3Y-45.18
X87.4Y-42.78
X88.6Y-169.
X89.Y-170.2
X89.1Y-167.8
X95.Y-45.08
X95.1Y-42.88
X95.6Y-43.98
X96.7Y-170.1
X96.8Y-167.9
X97.3Y-169.
X105.78Y-109.6
X105.88Y-101.9
X106.98Y-101.4
X106.98Y-110.1
X108.08Y-102.
X108.18Y-109.7
X135.78Y-109.5
X135.88Y-101.8
X136.98Y-101.3
X136.98Y-110.
X138.08Y-101.9
X138.18Y-109.6
X147.9Y-43.98
X148.3Y-45.18
X148.4Y-42.78
X148.6Y-169.
X149.Y-170.2
X149.1Y-167.8
X156.Y-45.08
X156.1Y-42.88
X156.6Y-43.98
X156.7Y-170.1
X156.8Y-167.9
X157.3Y-169.
X165.78Y-109.6
X165.88Y-101.9
X166.98Y-101.4
X166.98Y-110.1
X168.08Y-102.
X168.18Y-109.7
X195.88Y-109.6
X195.98Y-101.9
X197.08Y-101.4
X197.08Y-110.1
X198.18Y-102.
X198.28Y-109.7
X207.9Y-43.98
X207.9Y-168.9
X208.3Y-45.18
X208.3Y-170.1
X208.4Y-42.78
X208.4Y-167.7
X216.Y-45.08
X216.Y-170.
X216.1Y-42.88
X216.1Y-167.8
X216.6Y-43.98
X216.6Y-168.9
X225.78Y-109.6
X225.88Y-101.9
X226.98Y-101.4
X226.98Y-110.1
X228.08Y-102.
X228.18Y-109.7
X241.9Y-106.
X242.3Y-107.2
X242.4Y-104.8
X250.Y-107.1
X250.1Y-104.9
X250.6Y-106.
X251.9Y-49.6
X251.9Y-51.2
X251.9Y-55.6
X251.9Y-57.2
X251.9Y-62.6
X251.9Y-64.2
X251.9Y-69.6
X251.9Y-71.2
X251.9Y-75.
X251.9Y-76.6
X251.9Y-80.6
X251.9Y-82.2
X251.9Y-85.6
X251.9Y-87.2
X251.9Y-90.6
X251.9Y-92.2
X251.9Y-95.6
X251.9Y-97.2
X251.9Y-111.6
X251.9Y-113.2
X251.9Y-116.6
X251.9Y-118.2
X251.9Y-121.6
X251.9Y-123.2
X251.9Y-127.6
X251.9Y-129.2
X251.9Y-132.6
X251.9Y-134.2
X251.9Y-138.6
X251.9Y-140.2
X251.9Y-144.6
X251.9Y-146.2
X251.9Y-149.6
X251.9Y-151.2
X251.9Y-155.6
X251.9Y-157.2
X251.9Y-160.6
X251.9Y-162.2
X253.1Y-50.4
X253.1Y-52.
X253.1Y-56.4
X253.1Y-58.
X253.1Y-63.4
X253.1Y-65.
X253.1Y-70.4
X253.1Y-72.
X253.1Y-75.8
X253.1Y-77.4
X253.1Y-81.4
X253.1Y-83.
X253.1Y-86.4
X253.1Y-88.
X253.1Y-91.4
X253.1Y-93.
X253.1Y-96.4
X253.1Y-98.
X253.1Y-112.4
X253.1Y-114.
X253.1Y-117.4
X253.1Y-119.
X253.1Y-122.4
X253.1Y-124.
X253.1Y-128.4
X253.1Y-130.
X253.1Y-133.4
X253.1Y-135.
X253.1Y-139.4
X253.1Y-141.
X253.1Y-145.4
X253.1Y-147.
X253.1Y-150.4
X253.1Y-152.
X253.1Y-156.4
X253.1Y-158.
X253.1Y-161.4
X253.1Y-163.
T0
M30
