G04 #@! TF.GenerationSoftware,KiCad,Pcbnew,(5.0.0-rc2-35-gda6600525)*
G04 #@! TF.CreationDate,2018-07-07T21:23:26-07:00*
G04 #@! TF.ProjectId,register-motherboard,72656769737465722D6D6F7468657262,rev?*
G04 #@! TF.SameCoordinates,Original*
G04 #@! TF.FileFunction,Soldermask,Top*
G04 #@! TF.FilePolarity,Negative*
%FSLAX46Y46*%
G04 Gerber Fmt 4.6, Leading zero omitted, Abs format (unit mm)*
G04 Created by KiCad (PCBNEW (5.0.0-rc2-35-gda6600525)) date 07/07/18 21:23:26*
%MOMM*%
%LPD*%
G01*
G04 APERTURE LIST*
%ADD10C,2.600000*%
%ADD11R,2.600000X1.600000*%
%ADD12R,1.600000X2.600000*%
%ADD13C,2.750000*%
%ADD14C,1.550000*%
%ADD15R,1.150000X1.150000*%
%ADD16R,0.760000X0.430000*%
G04 APERTURE END LIST*
D10*
G04 #@! TO.C,REF\002A\002A*
X197000000Y-167000000D03*
G04 #@! TD*
G04 #@! TO.C,REF\002A\002A*
X256000000Y-167000000D03*
G04 #@! TD*
G04 #@! TO.C,REF\002A\002A*
X137000000Y-167000000D03*
G04 #@! TD*
G04 #@! TO.C,REF\002A\002A*
X107000000Y-167000000D03*
G04 #@! TD*
G04 #@! TO.C,REF\002A\002A*
X48000000Y-167000000D03*
G04 #@! TD*
G04 #@! TO.C,REF\002A\002A*
X167000000Y-167000000D03*
G04 #@! TD*
G04 #@! TO.C,REF\002A\002A*
X167000000Y-45000000D03*
G04 #@! TD*
G04 #@! TO.C,REF\002A\002A*
X137000000Y-45000000D03*
G04 #@! TD*
G04 #@! TO.C,REF\002A\002A*
X107000000Y-45000000D03*
G04 #@! TD*
G04 #@! TO.C,REF\002A\002A*
X48000000Y-45000000D03*
G04 #@! TD*
G04 #@! TO.C,REF\002A\002A*
X197000000Y-45000000D03*
G04 #@! TD*
G04 #@! TO.C,REF\002A\002A*
X256000000Y-45000000D03*
G04 #@! TD*
G04 #@! TO.C,REF\002A\002A*
X48000000Y-106000000D03*
G04 #@! TD*
G04 #@! TO.C,REF\002A\002A*
X152000000Y-106000000D03*
G04 #@! TD*
G04 #@! TO.C,REF\002A\002A*
X92000000Y-106000000D03*
G04 #@! TD*
G04 #@! TO.C,REF\002A\002A*
X256000000Y-106000000D03*
G04 #@! TD*
D11*
G04 #@! TO.C,C2*
X59600000Y-103980000D03*
X56000000Y-103980000D03*
G04 #@! TD*
G04 #@! TO.C,C1*
X244400000Y-106000000D03*
X248000000Y-106000000D03*
G04 #@! TD*
D12*
G04 #@! TO.C,C3*
X77000000Y-107600000D03*
X77000000Y-104000000D03*
G04 #@! TD*
D11*
G04 #@! TO.C,C4*
X93000000Y-44000000D03*
X89400000Y-44000000D03*
G04 #@! TD*
D12*
G04 #@! TO.C,C5*
X107000000Y-107600000D03*
X107000000Y-104000000D03*
G04 #@! TD*
D11*
G04 #@! TO.C,C6*
X94600000Y-169000000D03*
X91000000Y-169000000D03*
G04 #@! TD*
D12*
G04 #@! TO.C,C7*
X137000000Y-107600000D03*
X137000000Y-104000000D03*
G04 #@! TD*
D11*
G04 #@! TO.C,C8*
X154000000Y-44000000D03*
X150400000Y-44000000D03*
G04 #@! TD*
D12*
G04 #@! TO.C,C9*
X167000000Y-107600000D03*
X167000000Y-104000000D03*
G04 #@! TD*
D11*
G04 #@! TO.C,C10*
X154600000Y-169000000D03*
X151000000Y-169000000D03*
G04 #@! TD*
D12*
G04 #@! TO.C,C11*
X197000000Y-107600000D03*
X197000000Y-104000000D03*
G04 #@! TD*
D11*
G04 #@! TO.C,C12*
X214000000Y-44000000D03*
X210400000Y-44000000D03*
G04 #@! TD*
D12*
G04 #@! TO.C,C13*
X227000000Y-104000000D03*
X227000000Y-107600000D03*
G04 #@! TD*
D11*
G04 #@! TO.C,C14*
X214000000Y-169000000D03*
X210400000Y-169000000D03*
G04 #@! TD*
D10*
G04 #@! TO.C,REF\002A\002A*
X212000000Y-106000000D03*
G04 #@! TD*
D13*
G04 #@! TO.C,P1*
X235250000Y-162950000D03*
X235250000Y-122650000D03*
X235250000Y-102950000D03*
X235250000Y-62650000D03*
D14*
X236500000Y-111000000D03*
X236500000Y-113000000D03*
X236500000Y-115000000D03*
X238500000Y-112000000D03*
X238500000Y-114000000D03*
X238500000Y-116000000D03*
X234000000Y-111000000D03*
X232000000Y-114000000D03*
X234000000Y-113000000D03*
X234000000Y-115000000D03*
X232000000Y-112000000D03*
X236500000Y-117000000D03*
X236500000Y-121000000D03*
X236500000Y-119000000D03*
X238500000Y-118000000D03*
X238500000Y-120000000D03*
X232000000Y-116000000D03*
X232000000Y-118000000D03*
X234000000Y-117000000D03*
X234000000Y-119000000D03*
X232000000Y-120000000D03*
X234000000Y-121000000D03*
X232000000Y-124000000D03*
X232000000Y-128000000D03*
X234000000Y-125000000D03*
X234000000Y-127000000D03*
X232000000Y-126000000D03*
X236500000Y-127000000D03*
X238500000Y-128000000D03*
X238500000Y-126000000D03*
X238500000Y-124000000D03*
X236500000Y-125000000D03*
X232000000Y-152000000D03*
X232000000Y-156000000D03*
X232000000Y-154000000D03*
X234000000Y-151000000D03*
X234000000Y-157000000D03*
X234000000Y-155000000D03*
X234000000Y-153000000D03*
X232000000Y-150000000D03*
X234000000Y-143000000D03*
X232000000Y-148000000D03*
X232000000Y-146000000D03*
X232000000Y-144000000D03*
X234000000Y-149000000D03*
X234000000Y-145000000D03*
X234000000Y-147000000D03*
X232000000Y-160000000D03*
X234000000Y-159000000D03*
X232000000Y-158000000D03*
X234000000Y-161000000D03*
X236500000Y-161000000D03*
X236500000Y-159000000D03*
X238500000Y-160000000D03*
X238500000Y-158000000D03*
X236500000Y-149000000D03*
X236500000Y-151000000D03*
X238500000Y-152000000D03*
X238500000Y-150000000D03*
X236500000Y-157000000D03*
X236500000Y-153000000D03*
X238500000Y-156000000D03*
X238500000Y-154000000D03*
X236500000Y-155000000D03*
X236500000Y-147000000D03*
X236500000Y-145000000D03*
X238500000Y-144000000D03*
X236500000Y-143000000D03*
X238500000Y-146000000D03*
X238500000Y-148000000D03*
X236500000Y-139000000D03*
X238500000Y-142000000D03*
X236500000Y-141000000D03*
X238500000Y-140000000D03*
X238500000Y-138000000D03*
X238500000Y-136000000D03*
X232000000Y-142000000D03*
X232000000Y-138000000D03*
X232000000Y-136000000D03*
X234000000Y-141000000D03*
X234000000Y-139000000D03*
X232000000Y-140000000D03*
X234000000Y-135000000D03*
X234000000Y-137000000D03*
X236500000Y-137000000D03*
X236500000Y-135000000D03*
X238500000Y-134000000D03*
X234000000Y-133000000D03*
X232000000Y-134000000D03*
X232000000Y-132000000D03*
X232000000Y-130000000D03*
X234000000Y-131000000D03*
X234000000Y-129000000D03*
X236500000Y-133000000D03*
X236500000Y-131000000D03*
X238500000Y-132000000D03*
X238500000Y-130000000D03*
X236500000Y-129000000D03*
D15*
X234000000Y-51000000D03*
D14*
X236500000Y-51000000D03*
X232000000Y-52000000D03*
X232000000Y-54000000D03*
X232000000Y-56000000D03*
X232000000Y-58000000D03*
X234000000Y-53000000D03*
X234000000Y-55000000D03*
X234000000Y-57000000D03*
X234000000Y-59000000D03*
X236500000Y-53000000D03*
X236500000Y-55000000D03*
X236500000Y-57000000D03*
X236500000Y-59000000D03*
X238500000Y-52000000D03*
X238500000Y-54000000D03*
X238500000Y-56000000D03*
X238500000Y-58000000D03*
X232000000Y-60000000D03*
X238500000Y-60000000D03*
X234000000Y-61000000D03*
X236500000Y-61000000D03*
X232000000Y-100000000D03*
X232000000Y-92000000D03*
X232000000Y-90000000D03*
X232000000Y-94000000D03*
X232000000Y-96000000D03*
X232000000Y-98000000D03*
X232000000Y-88000000D03*
X232000000Y-86000000D03*
X232000000Y-64000000D03*
X232000000Y-66000000D03*
X232000000Y-68000000D03*
X232000000Y-82000000D03*
X232000000Y-80000000D03*
X232000000Y-84000000D03*
X232000000Y-74000000D03*
X232000000Y-72000000D03*
X232000000Y-70000000D03*
X232000000Y-78000000D03*
X232000000Y-76000000D03*
X234000000Y-91000000D03*
X234000000Y-89000000D03*
X234000000Y-93000000D03*
X234000000Y-81000000D03*
X234000000Y-79000000D03*
X234000000Y-83000000D03*
X234000000Y-71000000D03*
X234000000Y-69000000D03*
X234000000Y-73000000D03*
X234000000Y-99000000D03*
X234000000Y-97000000D03*
X234000000Y-95000000D03*
X234000000Y-101000000D03*
X234000000Y-85000000D03*
X234000000Y-87000000D03*
X234000000Y-75000000D03*
X234000000Y-77000000D03*
X234000000Y-65000000D03*
X234000000Y-67000000D03*
X236500000Y-101000000D03*
X236500000Y-97000000D03*
X236500000Y-95000000D03*
X236500000Y-99000000D03*
X236500000Y-93000000D03*
X236500000Y-89000000D03*
X236500000Y-87000000D03*
X236500000Y-85000000D03*
X236500000Y-91000000D03*
X236500000Y-83000000D03*
X236500000Y-79000000D03*
X236500000Y-77000000D03*
X236500000Y-75000000D03*
X236500000Y-81000000D03*
X236500000Y-73000000D03*
X236500000Y-69000000D03*
X236500000Y-67000000D03*
X236500000Y-65000000D03*
X236500000Y-71000000D03*
X238500000Y-100000000D03*
X238500000Y-98000000D03*
X238500000Y-96000000D03*
X238500000Y-94000000D03*
X238500000Y-92000000D03*
X238500000Y-90000000D03*
X238500000Y-88000000D03*
X238500000Y-86000000D03*
X238500000Y-84000000D03*
X238500000Y-82000000D03*
X238500000Y-80000000D03*
X238500000Y-78000000D03*
X238500000Y-76000000D03*
X238500000Y-74000000D03*
X238500000Y-72000000D03*
X238500000Y-70000000D03*
X238500000Y-68000000D03*
X238500000Y-66000000D03*
X238500000Y-64000000D03*
G04 #@! TD*
G04 #@! TO.C,P2*
X223500000Y-64000000D03*
X223500000Y-66000000D03*
X223500000Y-68000000D03*
X223500000Y-70000000D03*
X223500000Y-72000000D03*
X223500000Y-74000000D03*
X223500000Y-76000000D03*
X223500000Y-78000000D03*
X223500000Y-80000000D03*
X223500000Y-82000000D03*
X223500000Y-84000000D03*
X223500000Y-86000000D03*
X223500000Y-88000000D03*
X223500000Y-90000000D03*
X223500000Y-92000000D03*
X223500000Y-94000000D03*
X223500000Y-96000000D03*
X223500000Y-98000000D03*
X223500000Y-100000000D03*
X221500000Y-71000000D03*
X221500000Y-65000000D03*
X221500000Y-67000000D03*
X221500000Y-69000000D03*
X221500000Y-73000000D03*
X221500000Y-81000000D03*
X221500000Y-75000000D03*
X221500000Y-77000000D03*
X221500000Y-79000000D03*
X221500000Y-83000000D03*
X221500000Y-91000000D03*
X221500000Y-85000000D03*
X221500000Y-87000000D03*
X221500000Y-89000000D03*
X221500000Y-93000000D03*
X221500000Y-99000000D03*
X221500000Y-95000000D03*
X221500000Y-97000000D03*
X221500000Y-101000000D03*
X219000000Y-67000000D03*
X219000000Y-65000000D03*
X219000000Y-77000000D03*
X219000000Y-75000000D03*
X219000000Y-87000000D03*
X219000000Y-85000000D03*
X219000000Y-101000000D03*
X219000000Y-95000000D03*
X219000000Y-97000000D03*
X219000000Y-99000000D03*
X219000000Y-73000000D03*
X219000000Y-69000000D03*
X219000000Y-71000000D03*
X219000000Y-83000000D03*
X219000000Y-79000000D03*
X219000000Y-81000000D03*
X219000000Y-93000000D03*
X219000000Y-89000000D03*
X219000000Y-91000000D03*
X217000000Y-76000000D03*
X217000000Y-78000000D03*
X217000000Y-70000000D03*
X217000000Y-72000000D03*
X217000000Y-74000000D03*
X217000000Y-84000000D03*
X217000000Y-80000000D03*
X217000000Y-82000000D03*
X217000000Y-68000000D03*
X217000000Y-66000000D03*
X217000000Y-64000000D03*
X217000000Y-86000000D03*
X217000000Y-88000000D03*
X217000000Y-98000000D03*
X217000000Y-96000000D03*
X217000000Y-94000000D03*
X217000000Y-90000000D03*
X217000000Y-92000000D03*
X217000000Y-100000000D03*
X221500000Y-61000000D03*
X219000000Y-61000000D03*
X223500000Y-60000000D03*
X217000000Y-60000000D03*
X223500000Y-58000000D03*
X223500000Y-56000000D03*
X223500000Y-54000000D03*
X223500000Y-52000000D03*
X221500000Y-59000000D03*
X221500000Y-57000000D03*
X221500000Y-55000000D03*
X221500000Y-53000000D03*
X219000000Y-59000000D03*
X219000000Y-57000000D03*
X219000000Y-55000000D03*
X219000000Y-53000000D03*
X217000000Y-58000000D03*
X217000000Y-56000000D03*
X217000000Y-54000000D03*
X217000000Y-52000000D03*
X221500000Y-51000000D03*
D15*
X219000000Y-51000000D03*
D14*
X221500000Y-129000000D03*
X223500000Y-130000000D03*
X223500000Y-132000000D03*
X221500000Y-131000000D03*
X221500000Y-133000000D03*
X219000000Y-129000000D03*
X219000000Y-131000000D03*
X217000000Y-130000000D03*
X217000000Y-132000000D03*
X217000000Y-134000000D03*
X219000000Y-133000000D03*
X223500000Y-134000000D03*
X221500000Y-135000000D03*
X221500000Y-137000000D03*
X219000000Y-137000000D03*
X219000000Y-135000000D03*
X217000000Y-140000000D03*
X219000000Y-139000000D03*
X219000000Y-141000000D03*
X217000000Y-136000000D03*
X217000000Y-138000000D03*
X217000000Y-142000000D03*
X223500000Y-136000000D03*
X223500000Y-138000000D03*
X223500000Y-140000000D03*
X221500000Y-141000000D03*
X223500000Y-142000000D03*
X221500000Y-139000000D03*
X223500000Y-148000000D03*
X223500000Y-146000000D03*
X221500000Y-143000000D03*
X223500000Y-144000000D03*
X221500000Y-145000000D03*
X221500000Y-147000000D03*
X221500000Y-155000000D03*
X223500000Y-154000000D03*
X223500000Y-156000000D03*
X221500000Y-153000000D03*
X221500000Y-157000000D03*
X223500000Y-150000000D03*
X223500000Y-152000000D03*
X221500000Y-151000000D03*
X221500000Y-149000000D03*
X223500000Y-158000000D03*
X223500000Y-160000000D03*
X221500000Y-159000000D03*
X221500000Y-161000000D03*
X219000000Y-161000000D03*
X217000000Y-158000000D03*
X219000000Y-159000000D03*
X217000000Y-160000000D03*
X219000000Y-147000000D03*
X219000000Y-145000000D03*
X219000000Y-149000000D03*
X217000000Y-144000000D03*
X217000000Y-146000000D03*
X217000000Y-148000000D03*
X219000000Y-143000000D03*
X217000000Y-150000000D03*
X219000000Y-153000000D03*
X219000000Y-155000000D03*
X219000000Y-157000000D03*
X219000000Y-151000000D03*
X217000000Y-154000000D03*
X217000000Y-156000000D03*
X217000000Y-152000000D03*
X221500000Y-125000000D03*
X223500000Y-124000000D03*
X223500000Y-126000000D03*
X223500000Y-128000000D03*
X221500000Y-127000000D03*
X217000000Y-126000000D03*
X219000000Y-127000000D03*
X219000000Y-125000000D03*
X217000000Y-128000000D03*
X217000000Y-124000000D03*
X219000000Y-121000000D03*
X217000000Y-120000000D03*
X219000000Y-119000000D03*
X219000000Y-117000000D03*
X217000000Y-118000000D03*
X217000000Y-116000000D03*
X223500000Y-120000000D03*
X223500000Y-118000000D03*
X221500000Y-119000000D03*
X221500000Y-121000000D03*
X221500000Y-117000000D03*
X217000000Y-112000000D03*
X219000000Y-115000000D03*
X219000000Y-113000000D03*
X217000000Y-114000000D03*
X219000000Y-111000000D03*
X223500000Y-116000000D03*
X223500000Y-114000000D03*
X223500000Y-112000000D03*
X221500000Y-115000000D03*
X221500000Y-113000000D03*
X221500000Y-111000000D03*
D13*
X220250000Y-62650000D03*
X220250000Y-102950000D03*
X220250000Y-122650000D03*
X220250000Y-162950000D03*
G04 #@! TD*
G04 #@! TO.C,P3*
X205250000Y-162950000D03*
X205250000Y-122650000D03*
X205250000Y-102950000D03*
X205250000Y-62650000D03*
D14*
X206500000Y-111000000D03*
X206500000Y-113000000D03*
X206500000Y-115000000D03*
X208500000Y-112000000D03*
X208500000Y-114000000D03*
X208500000Y-116000000D03*
X204000000Y-111000000D03*
X202000000Y-114000000D03*
X204000000Y-113000000D03*
X204000000Y-115000000D03*
X202000000Y-112000000D03*
X206500000Y-117000000D03*
X206500000Y-121000000D03*
X206500000Y-119000000D03*
X208500000Y-118000000D03*
X208500000Y-120000000D03*
X202000000Y-116000000D03*
X202000000Y-118000000D03*
X204000000Y-117000000D03*
X204000000Y-119000000D03*
X202000000Y-120000000D03*
X204000000Y-121000000D03*
X202000000Y-124000000D03*
X202000000Y-128000000D03*
X204000000Y-125000000D03*
X204000000Y-127000000D03*
X202000000Y-126000000D03*
X206500000Y-127000000D03*
X208500000Y-128000000D03*
X208500000Y-126000000D03*
X208500000Y-124000000D03*
X206500000Y-125000000D03*
X202000000Y-152000000D03*
X202000000Y-156000000D03*
X202000000Y-154000000D03*
X204000000Y-151000000D03*
X204000000Y-157000000D03*
X204000000Y-155000000D03*
X204000000Y-153000000D03*
X202000000Y-150000000D03*
X204000000Y-143000000D03*
X202000000Y-148000000D03*
X202000000Y-146000000D03*
X202000000Y-144000000D03*
X204000000Y-149000000D03*
X204000000Y-145000000D03*
X204000000Y-147000000D03*
X202000000Y-160000000D03*
X204000000Y-159000000D03*
X202000000Y-158000000D03*
X204000000Y-161000000D03*
X206500000Y-161000000D03*
X206500000Y-159000000D03*
X208500000Y-160000000D03*
X208500000Y-158000000D03*
X206500000Y-149000000D03*
X206500000Y-151000000D03*
X208500000Y-152000000D03*
X208500000Y-150000000D03*
X206500000Y-157000000D03*
X206500000Y-153000000D03*
X208500000Y-156000000D03*
X208500000Y-154000000D03*
X206500000Y-155000000D03*
X206500000Y-147000000D03*
X206500000Y-145000000D03*
X208500000Y-144000000D03*
X206500000Y-143000000D03*
X208500000Y-146000000D03*
X208500000Y-148000000D03*
X206500000Y-139000000D03*
X208500000Y-142000000D03*
X206500000Y-141000000D03*
X208500000Y-140000000D03*
X208500000Y-138000000D03*
X208500000Y-136000000D03*
X202000000Y-142000000D03*
X202000000Y-138000000D03*
X202000000Y-136000000D03*
X204000000Y-141000000D03*
X204000000Y-139000000D03*
X202000000Y-140000000D03*
X204000000Y-135000000D03*
X204000000Y-137000000D03*
X206500000Y-137000000D03*
X206500000Y-135000000D03*
X208500000Y-134000000D03*
X204000000Y-133000000D03*
X202000000Y-134000000D03*
X202000000Y-132000000D03*
X202000000Y-130000000D03*
X204000000Y-131000000D03*
X204000000Y-129000000D03*
X206500000Y-133000000D03*
X206500000Y-131000000D03*
X208500000Y-132000000D03*
X208500000Y-130000000D03*
X206500000Y-129000000D03*
D15*
X204000000Y-51000000D03*
D14*
X206500000Y-51000000D03*
X202000000Y-52000000D03*
X202000000Y-54000000D03*
X202000000Y-56000000D03*
X202000000Y-58000000D03*
X204000000Y-53000000D03*
X204000000Y-55000000D03*
X204000000Y-57000000D03*
X204000000Y-59000000D03*
X206500000Y-53000000D03*
X206500000Y-55000000D03*
X206500000Y-57000000D03*
X206500000Y-59000000D03*
X208500000Y-52000000D03*
X208500000Y-54000000D03*
X208500000Y-56000000D03*
X208500000Y-58000000D03*
X202000000Y-60000000D03*
X208500000Y-60000000D03*
X204000000Y-61000000D03*
X206500000Y-61000000D03*
X202000000Y-100000000D03*
X202000000Y-92000000D03*
X202000000Y-90000000D03*
X202000000Y-94000000D03*
X202000000Y-96000000D03*
X202000000Y-98000000D03*
X202000000Y-88000000D03*
X202000000Y-86000000D03*
X202000000Y-64000000D03*
X202000000Y-66000000D03*
X202000000Y-68000000D03*
X202000000Y-82000000D03*
X202000000Y-80000000D03*
X202000000Y-84000000D03*
X202000000Y-74000000D03*
X202000000Y-72000000D03*
X202000000Y-70000000D03*
X202000000Y-78000000D03*
X202000000Y-76000000D03*
X204000000Y-91000000D03*
X204000000Y-89000000D03*
X204000000Y-93000000D03*
X204000000Y-81000000D03*
X204000000Y-79000000D03*
X204000000Y-83000000D03*
X204000000Y-71000000D03*
X204000000Y-69000000D03*
X204000000Y-73000000D03*
X204000000Y-99000000D03*
X204000000Y-97000000D03*
X204000000Y-95000000D03*
X204000000Y-101000000D03*
X204000000Y-85000000D03*
X204000000Y-87000000D03*
X204000000Y-75000000D03*
X204000000Y-77000000D03*
X204000000Y-65000000D03*
X204000000Y-67000000D03*
X206500000Y-101000000D03*
X206500000Y-97000000D03*
X206500000Y-95000000D03*
X206500000Y-99000000D03*
X206500000Y-93000000D03*
X206500000Y-89000000D03*
X206500000Y-87000000D03*
X206500000Y-85000000D03*
X206500000Y-91000000D03*
X206500000Y-83000000D03*
X206500000Y-79000000D03*
X206500000Y-77000000D03*
X206500000Y-75000000D03*
X206500000Y-81000000D03*
X206500000Y-73000000D03*
X206500000Y-69000000D03*
X206500000Y-67000000D03*
X206500000Y-65000000D03*
X206500000Y-71000000D03*
X208500000Y-100000000D03*
X208500000Y-98000000D03*
X208500000Y-96000000D03*
X208500000Y-94000000D03*
X208500000Y-92000000D03*
X208500000Y-90000000D03*
X208500000Y-88000000D03*
X208500000Y-86000000D03*
X208500000Y-84000000D03*
X208500000Y-82000000D03*
X208500000Y-80000000D03*
X208500000Y-78000000D03*
X208500000Y-76000000D03*
X208500000Y-74000000D03*
X208500000Y-72000000D03*
X208500000Y-70000000D03*
X208500000Y-68000000D03*
X208500000Y-66000000D03*
X208500000Y-64000000D03*
G04 #@! TD*
G04 #@! TO.C,P4*
X193500000Y-64000000D03*
X193500000Y-66000000D03*
X193500000Y-68000000D03*
X193500000Y-70000000D03*
X193500000Y-72000000D03*
X193500000Y-74000000D03*
X193500000Y-76000000D03*
X193500000Y-78000000D03*
X193500000Y-80000000D03*
X193500000Y-82000000D03*
X193500000Y-84000000D03*
X193500000Y-86000000D03*
X193500000Y-88000000D03*
X193500000Y-90000000D03*
X193500000Y-92000000D03*
X193500000Y-94000000D03*
X193500000Y-96000000D03*
X193500000Y-98000000D03*
X193500000Y-100000000D03*
X191500000Y-71000000D03*
X191500000Y-65000000D03*
X191500000Y-67000000D03*
X191500000Y-69000000D03*
X191500000Y-73000000D03*
X191500000Y-81000000D03*
X191500000Y-75000000D03*
X191500000Y-77000000D03*
X191500000Y-79000000D03*
X191500000Y-83000000D03*
X191500000Y-91000000D03*
X191500000Y-85000000D03*
X191500000Y-87000000D03*
X191500000Y-89000000D03*
X191500000Y-93000000D03*
X191500000Y-99000000D03*
X191500000Y-95000000D03*
X191500000Y-97000000D03*
X191500000Y-101000000D03*
X189000000Y-67000000D03*
X189000000Y-65000000D03*
X189000000Y-77000000D03*
X189000000Y-75000000D03*
X189000000Y-87000000D03*
X189000000Y-85000000D03*
X189000000Y-101000000D03*
X189000000Y-95000000D03*
X189000000Y-97000000D03*
X189000000Y-99000000D03*
X189000000Y-73000000D03*
X189000000Y-69000000D03*
X189000000Y-71000000D03*
X189000000Y-83000000D03*
X189000000Y-79000000D03*
X189000000Y-81000000D03*
X189000000Y-93000000D03*
X189000000Y-89000000D03*
X189000000Y-91000000D03*
X187000000Y-76000000D03*
X187000000Y-78000000D03*
X187000000Y-70000000D03*
X187000000Y-72000000D03*
X187000000Y-74000000D03*
X187000000Y-84000000D03*
X187000000Y-80000000D03*
X187000000Y-82000000D03*
X187000000Y-68000000D03*
X187000000Y-66000000D03*
X187000000Y-64000000D03*
X187000000Y-86000000D03*
X187000000Y-88000000D03*
X187000000Y-98000000D03*
X187000000Y-96000000D03*
X187000000Y-94000000D03*
X187000000Y-90000000D03*
X187000000Y-92000000D03*
X187000000Y-100000000D03*
X191500000Y-61000000D03*
X189000000Y-61000000D03*
X193500000Y-60000000D03*
X187000000Y-60000000D03*
X193500000Y-58000000D03*
X193500000Y-56000000D03*
X193500000Y-54000000D03*
X193500000Y-52000000D03*
X191500000Y-59000000D03*
X191500000Y-57000000D03*
X191500000Y-55000000D03*
X191500000Y-53000000D03*
X189000000Y-59000000D03*
X189000000Y-57000000D03*
X189000000Y-55000000D03*
X189000000Y-53000000D03*
X187000000Y-58000000D03*
X187000000Y-56000000D03*
X187000000Y-54000000D03*
X187000000Y-52000000D03*
X191500000Y-51000000D03*
D15*
X189000000Y-51000000D03*
D14*
X191500000Y-129000000D03*
X193500000Y-130000000D03*
X193500000Y-132000000D03*
X191500000Y-131000000D03*
X191500000Y-133000000D03*
X189000000Y-129000000D03*
X189000000Y-131000000D03*
X187000000Y-130000000D03*
X187000000Y-132000000D03*
X187000000Y-134000000D03*
X189000000Y-133000000D03*
X193500000Y-134000000D03*
X191500000Y-135000000D03*
X191500000Y-137000000D03*
X189000000Y-137000000D03*
X189000000Y-135000000D03*
X187000000Y-140000000D03*
X189000000Y-139000000D03*
X189000000Y-141000000D03*
X187000000Y-136000000D03*
X187000000Y-138000000D03*
X187000000Y-142000000D03*
X193500000Y-136000000D03*
X193500000Y-138000000D03*
X193500000Y-140000000D03*
X191500000Y-141000000D03*
X193500000Y-142000000D03*
X191500000Y-139000000D03*
X193500000Y-148000000D03*
X193500000Y-146000000D03*
X191500000Y-143000000D03*
X193500000Y-144000000D03*
X191500000Y-145000000D03*
X191500000Y-147000000D03*
X191500000Y-155000000D03*
X193500000Y-154000000D03*
X193500000Y-156000000D03*
X191500000Y-153000000D03*
X191500000Y-157000000D03*
X193500000Y-150000000D03*
X193500000Y-152000000D03*
X191500000Y-151000000D03*
X191500000Y-149000000D03*
X193500000Y-158000000D03*
X193500000Y-160000000D03*
X191500000Y-159000000D03*
X191500000Y-161000000D03*
X189000000Y-161000000D03*
X187000000Y-158000000D03*
X189000000Y-159000000D03*
X187000000Y-160000000D03*
X189000000Y-147000000D03*
X189000000Y-145000000D03*
X189000000Y-149000000D03*
X187000000Y-144000000D03*
X187000000Y-146000000D03*
X187000000Y-148000000D03*
X189000000Y-143000000D03*
X187000000Y-150000000D03*
X189000000Y-153000000D03*
X189000000Y-155000000D03*
X189000000Y-157000000D03*
X189000000Y-151000000D03*
X187000000Y-154000000D03*
X187000000Y-156000000D03*
X187000000Y-152000000D03*
X191500000Y-125000000D03*
X193500000Y-124000000D03*
X193500000Y-126000000D03*
X193500000Y-128000000D03*
X191500000Y-127000000D03*
X187000000Y-126000000D03*
X189000000Y-127000000D03*
X189000000Y-125000000D03*
X187000000Y-128000000D03*
X187000000Y-124000000D03*
X189000000Y-121000000D03*
X187000000Y-120000000D03*
X189000000Y-119000000D03*
X189000000Y-117000000D03*
X187000000Y-118000000D03*
X187000000Y-116000000D03*
X193500000Y-120000000D03*
X193500000Y-118000000D03*
X191500000Y-119000000D03*
X191500000Y-121000000D03*
X191500000Y-117000000D03*
X187000000Y-112000000D03*
X189000000Y-115000000D03*
X189000000Y-113000000D03*
X187000000Y-114000000D03*
X189000000Y-111000000D03*
X193500000Y-116000000D03*
X193500000Y-114000000D03*
X193500000Y-112000000D03*
X191500000Y-115000000D03*
X191500000Y-113000000D03*
X191500000Y-111000000D03*
D13*
X190250000Y-62650000D03*
X190250000Y-102950000D03*
X190250000Y-122650000D03*
X190250000Y-162950000D03*
G04 #@! TD*
G04 #@! TO.C,P5*
X175250000Y-162950000D03*
X175250000Y-122650000D03*
X175250000Y-102950000D03*
X175250000Y-62650000D03*
D14*
X176500000Y-111000000D03*
X176500000Y-113000000D03*
X176500000Y-115000000D03*
X178500000Y-112000000D03*
X178500000Y-114000000D03*
X178500000Y-116000000D03*
X174000000Y-111000000D03*
X172000000Y-114000000D03*
X174000000Y-113000000D03*
X174000000Y-115000000D03*
X172000000Y-112000000D03*
X176500000Y-117000000D03*
X176500000Y-121000000D03*
X176500000Y-119000000D03*
X178500000Y-118000000D03*
X178500000Y-120000000D03*
X172000000Y-116000000D03*
X172000000Y-118000000D03*
X174000000Y-117000000D03*
X174000000Y-119000000D03*
X172000000Y-120000000D03*
X174000000Y-121000000D03*
X172000000Y-124000000D03*
X172000000Y-128000000D03*
X174000000Y-125000000D03*
X174000000Y-127000000D03*
X172000000Y-126000000D03*
X176500000Y-127000000D03*
X178500000Y-128000000D03*
X178500000Y-126000000D03*
X178500000Y-124000000D03*
X176500000Y-125000000D03*
X172000000Y-152000000D03*
X172000000Y-156000000D03*
X172000000Y-154000000D03*
X174000000Y-151000000D03*
X174000000Y-157000000D03*
X174000000Y-155000000D03*
X174000000Y-153000000D03*
X172000000Y-150000000D03*
X174000000Y-143000000D03*
X172000000Y-148000000D03*
X172000000Y-146000000D03*
X172000000Y-144000000D03*
X174000000Y-149000000D03*
X174000000Y-145000000D03*
X174000000Y-147000000D03*
X172000000Y-160000000D03*
X174000000Y-159000000D03*
X172000000Y-158000000D03*
X174000000Y-161000000D03*
X176500000Y-161000000D03*
X176500000Y-159000000D03*
X178500000Y-160000000D03*
X178500000Y-158000000D03*
X176500000Y-149000000D03*
X176500000Y-151000000D03*
X178500000Y-152000000D03*
X178500000Y-150000000D03*
X176500000Y-157000000D03*
X176500000Y-153000000D03*
X178500000Y-156000000D03*
X178500000Y-154000000D03*
X176500000Y-155000000D03*
X176500000Y-147000000D03*
X176500000Y-145000000D03*
X178500000Y-144000000D03*
X176500000Y-143000000D03*
X178500000Y-146000000D03*
X178500000Y-148000000D03*
X176500000Y-139000000D03*
X178500000Y-142000000D03*
X176500000Y-141000000D03*
X178500000Y-140000000D03*
X178500000Y-138000000D03*
X178500000Y-136000000D03*
X172000000Y-142000000D03*
X172000000Y-138000000D03*
X172000000Y-136000000D03*
X174000000Y-141000000D03*
X174000000Y-139000000D03*
X172000000Y-140000000D03*
X174000000Y-135000000D03*
X174000000Y-137000000D03*
X176500000Y-137000000D03*
X176500000Y-135000000D03*
X178500000Y-134000000D03*
X174000000Y-133000000D03*
X172000000Y-134000000D03*
X172000000Y-132000000D03*
X172000000Y-130000000D03*
X174000000Y-131000000D03*
X174000000Y-129000000D03*
X176500000Y-133000000D03*
X176500000Y-131000000D03*
X178500000Y-132000000D03*
X178500000Y-130000000D03*
X176500000Y-129000000D03*
D15*
X174000000Y-51000000D03*
D14*
X176500000Y-51000000D03*
X172000000Y-52000000D03*
X172000000Y-54000000D03*
X172000000Y-56000000D03*
X172000000Y-58000000D03*
X174000000Y-53000000D03*
X174000000Y-55000000D03*
X174000000Y-57000000D03*
X174000000Y-59000000D03*
X176500000Y-53000000D03*
X176500000Y-55000000D03*
X176500000Y-57000000D03*
X176500000Y-59000000D03*
X178500000Y-52000000D03*
X178500000Y-54000000D03*
X178500000Y-56000000D03*
X178500000Y-58000000D03*
X172000000Y-60000000D03*
X178500000Y-60000000D03*
X174000000Y-61000000D03*
X176500000Y-61000000D03*
X172000000Y-100000000D03*
X172000000Y-92000000D03*
X172000000Y-90000000D03*
X172000000Y-94000000D03*
X172000000Y-96000000D03*
X172000000Y-98000000D03*
X172000000Y-88000000D03*
X172000000Y-86000000D03*
X172000000Y-64000000D03*
X172000000Y-66000000D03*
X172000000Y-68000000D03*
X172000000Y-82000000D03*
X172000000Y-80000000D03*
X172000000Y-84000000D03*
X172000000Y-74000000D03*
X172000000Y-72000000D03*
X172000000Y-70000000D03*
X172000000Y-78000000D03*
X172000000Y-76000000D03*
X174000000Y-91000000D03*
X174000000Y-89000000D03*
X174000000Y-93000000D03*
X174000000Y-81000000D03*
X174000000Y-79000000D03*
X174000000Y-83000000D03*
X174000000Y-71000000D03*
X174000000Y-69000000D03*
X174000000Y-73000000D03*
X174000000Y-99000000D03*
X174000000Y-97000000D03*
X174000000Y-95000000D03*
X174000000Y-101000000D03*
X174000000Y-85000000D03*
X174000000Y-87000000D03*
X174000000Y-75000000D03*
X174000000Y-77000000D03*
X174000000Y-65000000D03*
X174000000Y-67000000D03*
X176500000Y-101000000D03*
X176500000Y-97000000D03*
X176500000Y-95000000D03*
X176500000Y-99000000D03*
X176500000Y-93000000D03*
X176500000Y-89000000D03*
X176500000Y-87000000D03*
X176500000Y-85000000D03*
X176500000Y-91000000D03*
X176500000Y-83000000D03*
X176500000Y-79000000D03*
X176500000Y-77000000D03*
X176500000Y-75000000D03*
X176500000Y-81000000D03*
X176500000Y-73000000D03*
X176500000Y-69000000D03*
X176500000Y-67000000D03*
X176500000Y-65000000D03*
X176500000Y-71000000D03*
X178500000Y-100000000D03*
X178500000Y-98000000D03*
X178500000Y-96000000D03*
X178500000Y-94000000D03*
X178500000Y-92000000D03*
X178500000Y-90000000D03*
X178500000Y-88000000D03*
X178500000Y-86000000D03*
X178500000Y-84000000D03*
X178500000Y-82000000D03*
X178500000Y-80000000D03*
X178500000Y-78000000D03*
X178500000Y-76000000D03*
X178500000Y-74000000D03*
X178500000Y-72000000D03*
X178500000Y-70000000D03*
X178500000Y-68000000D03*
X178500000Y-66000000D03*
X178500000Y-64000000D03*
G04 #@! TD*
G04 #@! TO.C,P6*
X163500000Y-64000000D03*
X163500000Y-66000000D03*
X163500000Y-68000000D03*
X163500000Y-70000000D03*
X163500000Y-72000000D03*
X163500000Y-74000000D03*
X163500000Y-76000000D03*
X163500000Y-78000000D03*
X163500000Y-80000000D03*
X163500000Y-82000000D03*
X163500000Y-84000000D03*
X163500000Y-86000000D03*
X163500000Y-88000000D03*
X163500000Y-90000000D03*
X163500000Y-92000000D03*
X163500000Y-94000000D03*
X163500000Y-96000000D03*
X163500000Y-98000000D03*
X163500000Y-100000000D03*
X161500000Y-71000000D03*
X161500000Y-65000000D03*
X161500000Y-67000000D03*
X161500000Y-69000000D03*
X161500000Y-73000000D03*
X161500000Y-81000000D03*
X161500000Y-75000000D03*
X161500000Y-77000000D03*
X161500000Y-79000000D03*
X161500000Y-83000000D03*
X161500000Y-91000000D03*
X161500000Y-85000000D03*
X161500000Y-87000000D03*
X161500000Y-89000000D03*
X161500000Y-93000000D03*
X161500000Y-99000000D03*
X161500000Y-95000000D03*
X161500000Y-97000000D03*
X161500000Y-101000000D03*
X159000000Y-67000000D03*
X159000000Y-65000000D03*
X159000000Y-77000000D03*
X159000000Y-75000000D03*
X159000000Y-87000000D03*
X159000000Y-85000000D03*
X159000000Y-101000000D03*
X159000000Y-95000000D03*
X159000000Y-97000000D03*
X159000000Y-99000000D03*
X159000000Y-73000000D03*
X159000000Y-69000000D03*
X159000000Y-71000000D03*
X159000000Y-83000000D03*
X159000000Y-79000000D03*
X159000000Y-81000000D03*
X159000000Y-93000000D03*
X159000000Y-89000000D03*
X159000000Y-91000000D03*
X157000000Y-76000000D03*
X157000000Y-78000000D03*
X157000000Y-70000000D03*
X157000000Y-72000000D03*
X157000000Y-74000000D03*
X157000000Y-84000000D03*
X157000000Y-80000000D03*
X157000000Y-82000000D03*
X157000000Y-68000000D03*
X157000000Y-66000000D03*
X157000000Y-64000000D03*
X157000000Y-86000000D03*
X157000000Y-88000000D03*
X157000000Y-98000000D03*
X157000000Y-96000000D03*
X157000000Y-94000000D03*
X157000000Y-90000000D03*
X157000000Y-92000000D03*
X157000000Y-100000000D03*
X161500000Y-61000000D03*
X159000000Y-61000000D03*
X163500000Y-60000000D03*
X157000000Y-60000000D03*
X163500000Y-58000000D03*
X163500000Y-56000000D03*
X163500000Y-54000000D03*
X163500000Y-52000000D03*
X161500000Y-59000000D03*
X161500000Y-57000000D03*
X161500000Y-55000000D03*
X161500000Y-53000000D03*
X159000000Y-59000000D03*
X159000000Y-57000000D03*
X159000000Y-55000000D03*
X159000000Y-53000000D03*
X157000000Y-58000000D03*
X157000000Y-56000000D03*
X157000000Y-54000000D03*
X157000000Y-52000000D03*
X161500000Y-51000000D03*
D15*
X159000000Y-51000000D03*
D14*
X161500000Y-129000000D03*
X163500000Y-130000000D03*
X163500000Y-132000000D03*
X161500000Y-131000000D03*
X161500000Y-133000000D03*
X159000000Y-129000000D03*
X159000000Y-131000000D03*
X157000000Y-130000000D03*
X157000000Y-132000000D03*
X157000000Y-134000000D03*
X159000000Y-133000000D03*
X163500000Y-134000000D03*
X161500000Y-135000000D03*
X161500000Y-137000000D03*
X159000000Y-137000000D03*
X159000000Y-135000000D03*
X157000000Y-140000000D03*
X159000000Y-139000000D03*
X159000000Y-141000000D03*
X157000000Y-136000000D03*
X157000000Y-138000000D03*
X157000000Y-142000000D03*
X163500000Y-136000000D03*
X163500000Y-138000000D03*
X163500000Y-140000000D03*
X161500000Y-141000000D03*
X163500000Y-142000000D03*
X161500000Y-139000000D03*
X163500000Y-148000000D03*
X163500000Y-146000000D03*
X161500000Y-143000000D03*
X163500000Y-144000000D03*
X161500000Y-145000000D03*
X161500000Y-147000000D03*
X161500000Y-155000000D03*
X163500000Y-154000000D03*
X163500000Y-156000000D03*
X161500000Y-153000000D03*
X161500000Y-157000000D03*
X163500000Y-150000000D03*
X163500000Y-152000000D03*
X161500000Y-151000000D03*
X161500000Y-149000000D03*
X163500000Y-158000000D03*
X163500000Y-160000000D03*
X161500000Y-159000000D03*
X161500000Y-161000000D03*
X159000000Y-161000000D03*
X157000000Y-158000000D03*
X159000000Y-159000000D03*
X157000000Y-160000000D03*
X159000000Y-147000000D03*
X159000000Y-145000000D03*
X159000000Y-149000000D03*
X157000000Y-144000000D03*
X157000000Y-146000000D03*
X157000000Y-148000000D03*
X159000000Y-143000000D03*
X157000000Y-150000000D03*
X159000000Y-153000000D03*
X159000000Y-155000000D03*
X159000000Y-157000000D03*
X159000000Y-151000000D03*
X157000000Y-154000000D03*
X157000000Y-156000000D03*
X157000000Y-152000000D03*
X161500000Y-125000000D03*
X163500000Y-124000000D03*
X163500000Y-126000000D03*
X163500000Y-128000000D03*
X161500000Y-127000000D03*
X157000000Y-126000000D03*
X159000000Y-127000000D03*
X159000000Y-125000000D03*
X157000000Y-128000000D03*
X157000000Y-124000000D03*
X159000000Y-121000000D03*
X157000000Y-120000000D03*
X159000000Y-119000000D03*
X159000000Y-117000000D03*
X157000000Y-118000000D03*
X157000000Y-116000000D03*
X163500000Y-120000000D03*
X163500000Y-118000000D03*
X161500000Y-119000000D03*
X161500000Y-121000000D03*
X161500000Y-117000000D03*
X157000000Y-112000000D03*
X159000000Y-115000000D03*
X159000000Y-113000000D03*
X157000000Y-114000000D03*
X159000000Y-111000000D03*
X163500000Y-116000000D03*
X163500000Y-114000000D03*
X163500000Y-112000000D03*
X161500000Y-115000000D03*
X161500000Y-113000000D03*
X161500000Y-111000000D03*
D13*
X160250000Y-62650000D03*
X160250000Y-102950000D03*
X160250000Y-122650000D03*
X160250000Y-162950000D03*
G04 #@! TD*
G04 #@! TO.C,P7*
X145250000Y-162950000D03*
X145250000Y-122650000D03*
X145250000Y-102950000D03*
X145250000Y-62650000D03*
D14*
X146500000Y-111000000D03*
X146500000Y-113000000D03*
X146500000Y-115000000D03*
X148500000Y-112000000D03*
X148500000Y-114000000D03*
X148500000Y-116000000D03*
X144000000Y-111000000D03*
X142000000Y-114000000D03*
X144000000Y-113000000D03*
X144000000Y-115000000D03*
X142000000Y-112000000D03*
X146500000Y-117000000D03*
X146500000Y-121000000D03*
X146500000Y-119000000D03*
X148500000Y-118000000D03*
X148500000Y-120000000D03*
X142000000Y-116000000D03*
X142000000Y-118000000D03*
X144000000Y-117000000D03*
X144000000Y-119000000D03*
X142000000Y-120000000D03*
X144000000Y-121000000D03*
X142000000Y-124000000D03*
X142000000Y-128000000D03*
X144000000Y-125000000D03*
X144000000Y-127000000D03*
X142000000Y-126000000D03*
X146500000Y-127000000D03*
X148500000Y-128000000D03*
X148500000Y-126000000D03*
X148500000Y-124000000D03*
X146500000Y-125000000D03*
X142000000Y-152000000D03*
X142000000Y-156000000D03*
X142000000Y-154000000D03*
X144000000Y-151000000D03*
X144000000Y-157000000D03*
X144000000Y-155000000D03*
X144000000Y-153000000D03*
X142000000Y-150000000D03*
X144000000Y-143000000D03*
X142000000Y-148000000D03*
X142000000Y-146000000D03*
X142000000Y-144000000D03*
X144000000Y-149000000D03*
X144000000Y-145000000D03*
X144000000Y-147000000D03*
X142000000Y-160000000D03*
X144000000Y-159000000D03*
X142000000Y-158000000D03*
X144000000Y-161000000D03*
X146500000Y-161000000D03*
X146500000Y-159000000D03*
X148500000Y-160000000D03*
X148500000Y-158000000D03*
X146500000Y-149000000D03*
X146500000Y-151000000D03*
X148500000Y-152000000D03*
X148500000Y-150000000D03*
X146500000Y-157000000D03*
X146500000Y-153000000D03*
X148500000Y-156000000D03*
X148500000Y-154000000D03*
X146500000Y-155000000D03*
X146500000Y-147000000D03*
X146500000Y-145000000D03*
X148500000Y-144000000D03*
X146500000Y-143000000D03*
X148500000Y-146000000D03*
X148500000Y-148000000D03*
X146500000Y-139000000D03*
X148500000Y-142000000D03*
X146500000Y-141000000D03*
X148500000Y-140000000D03*
X148500000Y-138000000D03*
X148500000Y-136000000D03*
X142000000Y-142000000D03*
X142000000Y-138000000D03*
X142000000Y-136000000D03*
X144000000Y-141000000D03*
X144000000Y-139000000D03*
X142000000Y-140000000D03*
X144000000Y-135000000D03*
X144000000Y-137000000D03*
X146500000Y-137000000D03*
X146500000Y-135000000D03*
X148500000Y-134000000D03*
X144000000Y-133000000D03*
X142000000Y-134000000D03*
X142000000Y-132000000D03*
X142000000Y-130000000D03*
X144000000Y-131000000D03*
X144000000Y-129000000D03*
X146500000Y-133000000D03*
X146500000Y-131000000D03*
X148500000Y-132000000D03*
X148500000Y-130000000D03*
X146500000Y-129000000D03*
D15*
X144000000Y-51000000D03*
D14*
X146500000Y-51000000D03*
X142000000Y-52000000D03*
X142000000Y-54000000D03*
X142000000Y-56000000D03*
X142000000Y-58000000D03*
X144000000Y-53000000D03*
X144000000Y-55000000D03*
X144000000Y-57000000D03*
X144000000Y-59000000D03*
X146500000Y-53000000D03*
X146500000Y-55000000D03*
X146500000Y-57000000D03*
X146500000Y-59000000D03*
X148500000Y-52000000D03*
X148500000Y-54000000D03*
X148500000Y-56000000D03*
X148500000Y-58000000D03*
X142000000Y-60000000D03*
X148500000Y-60000000D03*
X144000000Y-61000000D03*
X146500000Y-61000000D03*
X142000000Y-100000000D03*
X142000000Y-92000000D03*
X142000000Y-90000000D03*
X142000000Y-94000000D03*
X142000000Y-96000000D03*
X142000000Y-98000000D03*
X142000000Y-88000000D03*
X142000000Y-86000000D03*
X142000000Y-64000000D03*
X142000000Y-66000000D03*
X142000000Y-68000000D03*
X142000000Y-82000000D03*
X142000000Y-80000000D03*
X142000000Y-84000000D03*
X142000000Y-74000000D03*
X142000000Y-72000000D03*
X142000000Y-70000000D03*
X142000000Y-78000000D03*
X142000000Y-76000000D03*
X144000000Y-91000000D03*
X144000000Y-89000000D03*
X144000000Y-93000000D03*
X144000000Y-81000000D03*
X144000000Y-79000000D03*
X144000000Y-83000000D03*
X144000000Y-71000000D03*
X144000000Y-69000000D03*
X144000000Y-73000000D03*
X144000000Y-99000000D03*
X144000000Y-97000000D03*
X144000000Y-95000000D03*
X144000000Y-101000000D03*
X144000000Y-85000000D03*
X144000000Y-87000000D03*
X144000000Y-75000000D03*
X144000000Y-77000000D03*
X144000000Y-65000000D03*
X144000000Y-67000000D03*
X146500000Y-101000000D03*
X146500000Y-97000000D03*
X146500000Y-95000000D03*
X146500000Y-99000000D03*
X146500000Y-93000000D03*
X146500000Y-89000000D03*
X146500000Y-87000000D03*
X146500000Y-85000000D03*
X146500000Y-91000000D03*
X146500000Y-83000000D03*
X146500000Y-79000000D03*
X146500000Y-77000000D03*
X146500000Y-75000000D03*
X146500000Y-81000000D03*
X146500000Y-73000000D03*
X146500000Y-69000000D03*
X146500000Y-67000000D03*
X146500000Y-65000000D03*
X146500000Y-71000000D03*
X148500000Y-100000000D03*
X148500000Y-98000000D03*
X148500000Y-96000000D03*
X148500000Y-94000000D03*
X148500000Y-92000000D03*
X148500000Y-90000000D03*
X148500000Y-88000000D03*
X148500000Y-86000000D03*
X148500000Y-84000000D03*
X148500000Y-82000000D03*
X148500000Y-80000000D03*
X148500000Y-78000000D03*
X148500000Y-76000000D03*
X148500000Y-74000000D03*
X148500000Y-72000000D03*
X148500000Y-70000000D03*
X148500000Y-68000000D03*
X148500000Y-66000000D03*
X148500000Y-64000000D03*
G04 #@! TD*
G04 #@! TO.C,P8*
X133500000Y-64000000D03*
X133500000Y-66000000D03*
X133500000Y-68000000D03*
X133500000Y-70000000D03*
X133500000Y-72000000D03*
X133500000Y-74000000D03*
X133500000Y-76000000D03*
X133500000Y-78000000D03*
X133500000Y-80000000D03*
X133500000Y-82000000D03*
X133500000Y-84000000D03*
X133500000Y-86000000D03*
X133500000Y-88000000D03*
X133500000Y-90000000D03*
X133500000Y-92000000D03*
X133500000Y-94000000D03*
X133500000Y-96000000D03*
X133500000Y-98000000D03*
X133500000Y-100000000D03*
X131500000Y-71000000D03*
X131500000Y-65000000D03*
X131500000Y-67000000D03*
X131500000Y-69000000D03*
X131500000Y-73000000D03*
X131500000Y-81000000D03*
X131500000Y-75000000D03*
X131500000Y-77000000D03*
X131500000Y-79000000D03*
X131500000Y-83000000D03*
X131500000Y-91000000D03*
X131500000Y-85000000D03*
X131500000Y-87000000D03*
X131500000Y-89000000D03*
X131500000Y-93000000D03*
X131500000Y-99000000D03*
X131500000Y-95000000D03*
X131500000Y-97000000D03*
X131500000Y-101000000D03*
X129000000Y-67000000D03*
X129000000Y-65000000D03*
X129000000Y-77000000D03*
X129000000Y-75000000D03*
X129000000Y-87000000D03*
X129000000Y-85000000D03*
X129000000Y-101000000D03*
X129000000Y-95000000D03*
X129000000Y-97000000D03*
X129000000Y-99000000D03*
X129000000Y-73000000D03*
X129000000Y-69000000D03*
X129000000Y-71000000D03*
X129000000Y-83000000D03*
X129000000Y-79000000D03*
X129000000Y-81000000D03*
X129000000Y-93000000D03*
X129000000Y-89000000D03*
X129000000Y-91000000D03*
X127000000Y-76000000D03*
X127000000Y-78000000D03*
X127000000Y-70000000D03*
X127000000Y-72000000D03*
X127000000Y-74000000D03*
X127000000Y-84000000D03*
X127000000Y-80000000D03*
X127000000Y-82000000D03*
X127000000Y-68000000D03*
X127000000Y-66000000D03*
X127000000Y-64000000D03*
X127000000Y-86000000D03*
X127000000Y-88000000D03*
X127000000Y-98000000D03*
X127000000Y-96000000D03*
X127000000Y-94000000D03*
X127000000Y-90000000D03*
X127000000Y-92000000D03*
X127000000Y-100000000D03*
X131500000Y-61000000D03*
X129000000Y-61000000D03*
X133500000Y-60000000D03*
X127000000Y-60000000D03*
X133500000Y-58000000D03*
X133500000Y-56000000D03*
X133500000Y-54000000D03*
X133500000Y-52000000D03*
X131500000Y-59000000D03*
X131500000Y-57000000D03*
X131500000Y-55000000D03*
X131500000Y-53000000D03*
X129000000Y-59000000D03*
X129000000Y-57000000D03*
X129000000Y-55000000D03*
X129000000Y-53000000D03*
X127000000Y-58000000D03*
X127000000Y-56000000D03*
X127000000Y-54000000D03*
X127000000Y-52000000D03*
X131500000Y-51000000D03*
D15*
X129000000Y-51000000D03*
D14*
X131500000Y-129000000D03*
X133500000Y-130000000D03*
X133500000Y-132000000D03*
X131500000Y-131000000D03*
X131500000Y-133000000D03*
X129000000Y-129000000D03*
X129000000Y-131000000D03*
X127000000Y-130000000D03*
X127000000Y-132000000D03*
X127000000Y-134000000D03*
X129000000Y-133000000D03*
X133500000Y-134000000D03*
X131500000Y-135000000D03*
X131500000Y-137000000D03*
X129000000Y-137000000D03*
X129000000Y-135000000D03*
X127000000Y-140000000D03*
X129000000Y-139000000D03*
X129000000Y-141000000D03*
X127000000Y-136000000D03*
X127000000Y-138000000D03*
X127000000Y-142000000D03*
X133500000Y-136000000D03*
X133500000Y-138000000D03*
X133500000Y-140000000D03*
X131500000Y-141000000D03*
X133500000Y-142000000D03*
X131500000Y-139000000D03*
X133500000Y-148000000D03*
X133500000Y-146000000D03*
X131500000Y-143000000D03*
X133500000Y-144000000D03*
X131500000Y-145000000D03*
X131500000Y-147000000D03*
X131500000Y-155000000D03*
X133500000Y-154000000D03*
X133500000Y-156000000D03*
X131500000Y-153000000D03*
X131500000Y-157000000D03*
X133500000Y-150000000D03*
X133500000Y-152000000D03*
X131500000Y-151000000D03*
X131500000Y-149000000D03*
X133500000Y-158000000D03*
X133500000Y-160000000D03*
X131500000Y-159000000D03*
X131500000Y-161000000D03*
X129000000Y-161000000D03*
X127000000Y-158000000D03*
X129000000Y-159000000D03*
X127000000Y-160000000D03*
X129000000Y-147000000D03*
X129000000Y-145000000D03*
X129000000Y-149000000D03*
X127000000Y-144000000D03*
X127000000Y-146000000D03*
X127000000Y-148000000D03*
X129000000Y-143000000D03*
X127000000Y-150000000D03*
X129000000Y-153000000D03*
X129000000Y-155000000D03*
X129000000Y-157000000D03*
X129000000Y-151000000D03*
X127000000Y-154000000D03*
X127000000Y-156000000D03*
X127000000Y-152000000D03*
X131500000Y-125000000D03*
X133500000Y-124000000D03*
X133500000Y-126000000D03*
X133500000Y-128000000D03*
X131500000Y-127000000D03*
X127000000Y-126000000D03*
X129000000Y-127000000D03*
X129000000Y-125000000D03*
X127000000Y-128000000D03*
X127000000Y-124000000D03*
X129000000Y-121000000D03*
X127000000Y-120000000D03*
X129000000Y-119000000D03*
X129000000Y-117000000D03*
X127000000Y-118000000D03*
X127000000Y-116000000D03*
X133500000Y-120000000D03*
X133500000Y-118000000D03*
X131500000Y-119000000D03*
X131500000Y-121000000D03*
X131500000Y-117000000D03*
X127000000Y-112000000D03*
X129000000Y-115000000D03*
X129000000Y-113000000D03*
X127000000Y-114000000D03*
X129000000Y-111000000D03*
X133500000Y-116000000D03*
X133500000Y-114000000D03*
X133500000Y-112000000D03*
X131500000Y-115000000D03*
X131500000Y-113000000D03*
X131500000Y-111000000D03*
D13*
X130250000Y-62650000D03*
X130250000Y-102950000D03*
X130250000Y-122650000D03*
X130250000Y-162950000D03*
G04 #@! TD*
G04 #@! TO.C,P9*
X115250000Y-162950000D03*
X115250000Y-122650000D03*
X115250000Y-102950000D03*
X115250000Y-62650000D03*
D14*
X116500000Y-111000000D03*
X116500000Y-113000000D03*
X116500000Y-115000000D03*
X118500000Y-112000000D03*
X118500000Y-114000000D03*
X118500000Y-116000000D03*
X114000000Y-111000000D03*
X112000000Y-114000000D03*
X114000000Y-113000000D03*
X114000000Y-115000000D03*
X112000000Y-112000000D03*
X116500000Y-117000000D03*
X116500000Y-121000000D03*
X116500000Y-119000000D03*
X118500000Y-118000000D03*
X118500000Y-120000000D03*
X112000000Y-116000000D03*
X112000000Y-118000000D03*
X114000000Y-117000000D03*
X114000000Y-119000000D03*
X112000000Y-120000000D03*
X114000000Y-121000000D03*
X112000000Y-124000000D03*
X112000000Y-128000000D03*
X114000000Y-125000000D03*
X114000000Y-127000000D03*
X112000000Y-126000000D03*
X116500000Y-127000000D03*
X118500000Y-128000000D03*
X118500000Y-126000000D03*
X118500000Y-124000000D03*
X116500000Y-125000000D03*
X112000000Y-152000000D03*
X112000000Y-156000000D03*
X112000000Y-154000000D03*
X114000000Y-151000000D03*
X114000000Y-157000000D03*
X114000000Y-155000000D03*
X114000000Y-153000000D03*
X112000000Y-150000000D03*
X114000000Y-143000000D03*
X112000000Y-148000000D03*
X112000000Y-146000000D03*
X112000000Y-144000000D03*
X114000000Y-149000000D03*
X114000000Y-145000000D03*
X114000000Y-147000000D03*
X112000000Y-160000000D03*
X114000000Y-159000000D03*
X112000000Y-158000000D03*
X114000000Y-161000000D03*
X116500000Y-161000000D03*
X116500000Y-159000000D03*
X118500000Y-160000000D03*
X118500000Y-158000000D03*
X116500000Y-149000000D03*
X116500000Y-151000000D03*
X118500000Y-152000000D03*
X118500000Y-150000000D03*
X116500000Y-157000000D03*
X116500000Y-153000000D03*
X118500000Y-156000000D03*
X118500000Y-154000000D03*
X116500000Y-155000000D03*
X116500000Y-147000000D03*
X116500000Y-145000000D03*
X118500000Y-144000000D03*
X116500000Y-143000000D03*
X118500000Y-146000000D03*
X118500000Y-148000000D03*
X116500000Y-139000000D03*
X118500000Y-142000000D03*
X116500000Y-141000000D03*
X118500000Y-140000000D03*
X118500000Y-138000000D03*
X118500000Y-136000000D03*
X112000000Y-142000000D03*
X112000000Y-138000000D03*
X112000000Y-136000000D03*
X114000000Y-141000000D03*
X114000000Y-139000000D03*
X112000000Y-140000000D03*
X114000000Y-135000000D03*
X114000000Y-137000000D03*
X116500000Y-137000000D03*
X116500000Y-135000000D03*
X118500000Y-134000000D03*
X114000000Y-133000000D03*
X112000000Y-134000000D03*
X112000000Y-132000000D03*
X112000000Y-130000000D03*
X114000000Y-131000000D03*
X114000000Y-129000000D03*
X116500000Y-133000000D03*
X116500000Y-131000000D03*
X118500000Y-132000000D03*
X118500000Y-130000000D03*
X116500000Y-129000000D03*
D15*
X114000000Y-51000000D03*
D14*
X116500000Y-51000000D03*
X112000000Y-52000000D03*
X112000000Y-54000000D03*
X112000000Y-56000000D03*
X112000000Y-58000000D03*
X114000000Y-53000000D03*
X114000000Y-55000000D03*
X114000000Y-57000000D03*
X114000000Y-59000000D03*
X116500000Y-53000000D03*
X116500000Y-55000000D03*
X116500000Y-57000000D03*
X116500000Y-59000000D03*
X118500000Y-52000000D03*
X118500000Y-54000000D03*
X118500000Y-56000000D03*
X118500000Y-58000000D03*
X112000000Y-60000000D03*
X118500000Y-60000000D03*
X114000000Y-61000000D03*
X116500000Y-61000000D03*
X112000000Y-100000000D03*
X112000000Y-92000000D03*
X112000000Y-90000000D03*
X112000000Y-94000000D03*
X112000000Y-96000000D03*
X112000000Y-98000000D03*
X112000000Y-88000000D03*
X112000000Y-86000000D03*
X112000000Y-64000000D03*
X112000000Y-66000000D03*
X112000000Y-68000000D03*
X112000000Y-82000000D03*
X112000000Y-80000000D03*
X112000000Y-84000000D03*
X112000000Y-74000000D03*
X112000000Y-72000000D03*
X112000000Y-70000000D03*
X112000000Y-78000000D03*
X112000000Y-76000000D03*
X114000000Y-91000000D03*
X114000000Y-89000000D03*
X114000000Y-93000000D03*
X114000000Y-81000000D03*
X114000000Y-79000000D03*
X114000000Y-83000000D03*
X114000000Y-71000000D03*
X114000000Y-69000000D03*
X114000000Y-73000000D03*
X114000000Y-99000000D03*
X114000000Y-97000000D03*
X114000000Y-95000000D03*
X114000000Y-101000000D03*
X114000000Y-85000000D03*
X114000000Y-87000000D03*
X114000000Y-75000000D03*
X114000000Y-77000000D03*
X114000000Y-65000000D03*
X114000000Y-67000000D03*
X116500000Y-101000000D03*
X116500000Y-97000000D03*
X116500000Y-95000000D03*
X116500000Y-99000000D03*
X116500000Y-93000000D03*
X116500000Y-89000000D03*
X116500000Y-87000000D03*
X116500000Y-85000000D03*
X116500000Y-91000000D03*
X116500000Y-83000000D03*
X116500000Y-79000000D03*
X116500000Y-77000000D03*
X116500000Y-75000000D03*
X116500000Y-81000000D03*
X116500000Y-73000000D03*
X116500000Y-69000000D03*
X116500000Y-67000000D03*
X116500000Y-65000000D03*
X116500000Y-71000000D03*
X118500000Y-100000000D03*
X118500000Y-98000000D03*
X118500000Y-96000000D03*
X118500000Y-94000000D03*
X118500000Y-92000000D03*
X118500000Y-90000000D03*
X118500000Y-88000000D03*
X118500000Y-86000000D03*
X118500000Y-84000000D03*
X118500000Y-82000000D03*
X118500000Y-80000000D03*
X118500000Y-78000000D03*
X118500000Y-76000000D03*
X118500000Y-74000000D03*
X118500000Y-72000000D03*
X118500000Y-70000000D03*
X118500000Y-68000000D03*
X118500000Y-66000000D03*
X118500000Y-64000000D03*
G04 #@! TD*
G04 #@! TO.C,P10*
X103500000Y-64000000D03*
X103500000Y-66000000D03*
X103500000Y-68000000D03*
X103500000Y-70000000D03*
X103500000Y-72000000D03*
X103500000Y-74000000D03*
X103500000Y-76000000D03*
X103500000Y-78000000D03*
X103500000Y-80000000D03*
X103500000Y-82000000D03*
X103500000Y-84000000D03*
X103500000Y-86000000D03*
X103500000Y-88000000D03*
X103500000Y-90000000D03*
X103500000Y-92000000D03*
X103500000Y-94000000D03*
X103500000Y-96000000D03*
X103500000Y-98000000D03*
X103500000Y-100000000D03*
X101500000Y-71000000D03*
X101500000Y-65000000D03*
X101500000Y-67000000D03*
X101500000Y-69000000D03*
X101500000Y-73000000D03*
X101500000Y-81000000D03*
X101500000Y-75000000D03*
X101500000Y-77000000D03*
X101500000Y-79000000D03*
X101500000Y-83000000D03*
X101500000Y-91000000D03*
X101500000Y-85000000D03*
X101500000Y-87000000D03*
X101500000Y-89000000D03*
X101500000Y-93000000D03*
X101500000Y-99000000D03*
X101500000Y-95000000D03*
X101500000Y-97000000D03*
X101500000Y-101000000D03*
X99000000Y-67000000D03*
X99000000Y-65000000D03*
X99000000Y-77000000D03*
X99000000Y-75000000D03*
X99000000Y-87000000D03*
X99000000Y-85000000D03*
X99000000Y-101000000D03*
X99000000Y-95000000D03*
X99000000Y-97000000D03*
X99000000Y-99000000D03*
X99000000Y-73000000D03*
X99000000Y-69000000D03*
X99000000Y-71000000D03*
X99000000Y-83000000D03*
X99000000Y-79000000D03*
X99000000Y-81000000D03*
X99000000Y-93000000D03*
X99000000Y-89000000D03*
X99000000Y-91000000D03*
X97000000Y-76000000D03*
X97000000Y-78000000D03*
X97000000Y-70000000D03*
X97000000Y-72000000D03*
X97000000Y-74000000D03*
X97000000Y-84000000D03*
X97000000Y-80000000D03*
X97000000Y-82000000D03*
X97000000Y-68000000D03*
X97000000Y-66000000D03*
X97000000Y-64000000D03*
X97000000Y-86000000D03*
X97000000Y-88000000D03*
X97000000Y-98000000D03*
X97000000Y-96000000D03*
X97000000Y-94000000D03*
X97000000Y-90000000D03*
X97000000Y-92000000D03*
X97000000Y-100000000D03*
X101500000Y-61000000D03*
X99000000Y-61000000D03*
X103500000Y-60000000D03*
X97000000Y-60000000D03*
X103500000Y-58000000D03*
X103500000Y-56000000D03*
X103500000Y-54000000D03*
X103500000Y-52000000D03*
X101500000Y-59000000D03*
X101500000Y-57000000D03*
X101500000Y-55000000D03*
X101500000Y-53000000D03*
X99000000Y-59000000D03*
X99000000Y-57000000D03*
X99000000Y-55000000D03*
X99000000Y-53000000D03*
X97000000Y-58000000D03*
X97000000Y-56000000D03*
X97000000Y-54000000D03*
X97000000Y-52000000D03*
X101500000Y-51000000D03*
D15*
X99000000Y-51000000D03*
D14*
X101500000Y-129000000D03*
X103500000Y-130000000D03*
X103500000Y-132000000D03*
X101500000Y-131000000D03*
X101500000Y-133000000D03*
X99000000Y-129000000D03*
X99000000Y-131000000D03*
X97000000Y-130000000D03*
X97000000Y-132000000D03*
X97000000Y-134000000D03*
X99000000Y-133000000D03*
X103500000Y-134000000D03*
X101500000Y-135000000D03*
X101500000Y-137000000D03*
X99000000Y-137000000D03*
X99000000Y-135000000D03*
X97000000Y-140000000D03*
X99000000Y-139000000D03*
X99000000Y-141000000D03*
X97000000Y-136000000D03*
X97000000Y-138000000D03*
X97000000Y-142000000D03*
X103500000Y-136000000D03*
X103500000Y-138000000D03*
X103500000Y-140000000D03*
X101500000Y-141000000D03*
X103500000Y-142000000D03*
X101500000Y-139000000D03*
X103500000Y-148000000D03*
X103500000Y-146000000D03*
X101500000Y-143000000D03*
X103500000Y-144000000D03*
X101500000Y-145000000D03*
X101500000Y-147000000D03*
X101500000Y-155000000D03*
X103500000Y-154000000D03*
X103500000Y-156000000D03*
X101500000Y-153000000D03*
X101500000Y-157000000D03*
X103500000Y-150000000D03*
X103500000Y-152000000D03*
X101500000Y-151000000D03*
X101500000Y-149000000D03*
X103500000Y-158000000D03*
X103500000Y-160000000D03*
X101500000Y-159000000D03*
X101500000Y-161000000D03*
X99000000Y-161000000D03*
X97000000Y-158000000D03*
X99000000Y-159000000D03*
X97000000Y-160000000D03*
X99000000Y-147000000D03*
X99000000Y-145000000D03*
X99000000Y-149000000D03*
X97000000Y-144000000D03*
X97000000Y-146000000D03*
X97000000Y-148000000D03*
X99000000Y-143000000D03*
X97000000Y-150000000D03*
X99000000Y-153000000D03*
X99000000Y-155000000D03*
X99000000Y-157000000D03*
X99000000Y-151000000D03*
X97000000Y-154000000D03*
X97000000Y-156000000D03*
X97000000Y-152000000D03*
X101500000Y-125000000D03*
X103500000Y-124000000D03*
X103500000Y-126000000D03*
X103500000Y-128000000D03*
X101500000Y-127000000D03*
X97000000Y-126000000D03*
X99000000Y-127000000D03*
X99000000Y-125000000D03*
X97000000Y-128000000D03*
X97000000Y-124000000D03*
X99000000Y-121000000D03*
X97000000Y-120000000D03*
X99000000Y-119000000D03*
X99000000Y-117000000D03*
X97000000Y-118000000D03*
X97000000Y-116000000D03*
X103500000Y-120000000D03*
X103500000Y-118000000D03*
X101500000Y-119000000D03*
X101500000Y-121000000D03*
X101500000Y-117000000D03*
X97000000Y-112000000D03*
X99000000Y-115000000D03*
X99000000Y-113000000D03*
X97000000Y-114000000D03*
X99000000Y-111000000D03*
X103500000Y-116000000D03*
X103500000Y-114000000D03*
X103500000Y-112000000D03*
X101500000Y-115000000D03*
X101500000Y-113000000D03*
X101500000Y-111000000D03*
D13*
X100250000Y-62650000D03*
X100250000Y-102950000D03*
X100250000Y-122650000D03*
X100250000Y-162950000D03*
G04 #@! TD*
G04 #@! TO.C,P11*
X85250000Y-162950000D03*
X85250000Y-122650000D03*
X85250000Y-102950000D03*
X85250000Y-62650000D03*
D14*
X86500000Y-111000000D03*
X86500000Y-113000000D03*
X86500000Y-115000000D03*
X88500000Y-112000000D03*
X88500000Y-114000000D03*
X88500000Y-116000000D03*
X84000000Y-111000000D03*
X82000000Y-114000000D03*
X84000000Y-113000000D03*
X84000000Y-115000000D03*
X82000000Y-112000000D03*
X86500000Y-117000000D03*
X86500000Y-121000000D03*
X86500000Y-119000000D03*
X88500000Y-118000000D03*
X88500000Y-120000000D03*
X82000000Y-116000000D03*
X82000000Y-118000000D03*
X84000000Y-117000000D03*
X84000000Y-119000000D03*
X82000000Y-120000000D03*
X84000000Y-121000000D03*
X82000000Y-124000000D03*
X82000000Y-128000000D03*
X84000000Y-125000000D03*
X84000000Y-127000000D03*
X82000000Y-126000000D03*
X86500000Y-127000000D03*
X88500000Y-128000000D03*
X88500000Y-126000000D03*
X88500000Y-124000000D03*
X86500000Y-125000000D03*
X82000000Y-152000000D03*
X82000000Y-156000000D03*
X82000000Y-154000000D03*
X84000000Y-151000000D03*
X84000000Y-157000000D03*
X84000000Y-155000000D03*
X84000000Y-153000000D03*
X82000000Y-150000000D03*
X84000000Y-143000000D03*
X82000000Y-148000000D03*
X82000000Y-146000000D03*
X82000000Y-144000000D03*
X84000000Y-149000000D03*
X84000000Y-145000000D03*
X84000000Y-147000000D03*
X82000000Y-160000000D03*
X84000000Y-159000000D03*
X82000000Y-158000000D03*
X84000000Y-161000000D03*
X86500000Y-161000000D03*
X86500000Y-159000000D03*
X88500000Y-160000000D03*
X88500000Y-158000000D03*
X86500000Y-149000000D03*
X86500000Y-151000000D03*
X88500000Y-152000000D03*
X88500000Y-150000000D03*
X86500000Y-157000000D03*
X86500000Y-153000000D03*
X88500000Y-156000000D03*
X88500000Y-154000000D03*
X86500000Y-155000000D03*
X86500000Y-147000000D03*
X86500000Y-145000000D03*
X88500000Y-144000000D03*
X86500000Y-143000000D03*
X88500000Y-146000000D03*
X88500000Y-148000000D03*
X86500000Y-139000000D03*
X88500000Y-142000000D03*
X86500000Y-141000000D03*
X88500000Y-140000000D03*
X88500000Y-138000000D03*
X88500000Y-136000000D03*
X82000000Y-142000000D03*
X82000000Y-138000000D03*
X82000000Y-136000000D03*
X84000000Y-141000000D03*
X84000000Y-139000000D03*
X82000000Y-140000000D03*
X84000000Y-135000000D03*
X84000000Y-137000000D03*
X86500000Y-137000000D03*
X86500000Y-135000000D03*
X88500000Y-134000000D03*
X84000000Y-133000000D03*
X82000000Y-134000000D03*
X82000000Y-132000000D03*
X82000000Y-130000000D03*
X84000000Y-131000000D03*
X84000000Y-129000000D03*
X86500000Y-133000000D03*
X86500000Y-131000000D03*
X88500000Y-132000000D03*
X88500000Y-130000000D03*
X86500000Y-129000000D03*
D15*
X84000000Y-51000000D03*
D14*
X86500000Y-51000000D03*
X82000000Y-52000000D03*
X82000000Y-54000000D03*
X82000000Y-56000000D03*
X82000000Y-58000000D03*
X84000000Y-53000000D03*
X84000000Y-55000000D03*
X84000000Y-57000000D03*
X84000000Y-59000000D03*
X86500000Y-53000000D03*
X86500000Y-55000000D03*
X86500000Y-57000000D03*
X86500000Y-59000000D03*
X88500000Y-52000000D03*
X88500000Y-54000000D03*
X88500000Y-56000000D03*
X88500000Y-58000000D03*
X82000000Y-60000000D03*
X88500000Y-60000000D03*
X84000000Y-61000000D03*
X86500000Y-61000000D03*
X82000000Y-100000000D03*
X82000000Y-92000000D03*
X82000000Y-90000000D03*
X82000000Y-94000000D03*
X82000000Y-96000000D03*
X82000000Y-98000000D03*
X82000000Y-88000000D03*
X82000000Y-86000000D03*
X82000000Y-64000000D03*
X82000000Y-66000000D03*
X82000000Y-68000000D03*
X82000000Y-82000000D03*
X82000000Y-80000000D03*
X82000000Y-84000000D03*
X82000000Y-74000000D03*
X82000000Y-72000000D03*
X82000000Y-70000000D03*
X82000000Y-78000000D03*
X82000000Y-76000000D03*
X84000000Y-91000000D03*
X84000000Y-89000000D03*
X84000000Y-93000000D03*
X84000000Y-81000000D03*
X84000000Y-79000000D03*
X84000000Y-83000000D03*
X84000000Y-71000000D03*
X84000000Y-69000000D03*
X84000000Y-73000000D03*
X84000000Y-99000000D03*
X84000000Y-97000000D03*
X84000000Y-95000000D03*
X84000000Y-101000000D03*
X84000000Y-85000000D03*
X84000000Y-87000000D03*
X84000000Y-75000000D03*
X84000000Y-77000000D03*
X84000000Y-65000000D03*
X84000000Y-67000000D03*
X86500000Y-101000000D03*
X86500000Y-97000000D03*
X86500000Y-95000000D03*
X86500000Y-99000000D03*
X86500000Y-93000000D03*
X86500000Y-89000000D03*
X86500000Y-87000000D03*
X86500000Y-85000000D03*
X86500000Y-91000000D03*
X86500000Y-83000000D03*
X86500000Y-79000000D03*
X86500000Y-77000000D03*
X86500000Y-75000000D03*
X86500000Y-81000000D03*
X86500000Y-73000000D03*
X86500000Y-69000000D03*
X86500000Y-67000000D03*
X86500000Y-65000000D03*
X86500000Y-71000000D03*
X88500000Y-100000000D03*
X88500000Y-98000000D03*
X88500000Y-96000000D03*
X88500000Y-94000000D03*
X88500000Y-92000000D03*
X88500000Y-90000000D03*
X88500000Y-88000000D03*
X88500000Y-86000000D03*
X88500000Y-84000000D03*
X88500000Y-82000000D03*
X88500000Y-80000000D03*
X88500000Y-78000000D03*
X88500000Y-76000000D03*
X88500000Y-74000000D03*
X88500000Y-72000000D03*
X88500000Y-70000000D03*
X88500000Y-68000000D03*
X88500000Y-66000000D03*
X88500000Y-64000000D03*
G04 #@! TD*
G04 #@! TO.C,P12*
X73500000Y-64000000D03*
X73500000Y-66000000D03*
X73500000Y-68000000D03*
X73500000Y-70000000D03*
X73500000Y-72000000D03*
X73500000Y-74000000D03*
X73500000Y-76000000D03*
X73500000Y-78000000D03*
X73500000Y-80000000D03*
X73500000Y-82000000D03*
X73500000Y-84000000D03*
X73500000Y-86000000D03*
X73500000Y-88000000D03*
X73500000Y-90000000D03*
X73500000Y-92000000D03*
X73500000Y-94000000D03*
X73500000Y-96000000D03*
X73500000Y-98000000D03*
X73500000Y-100000000D03*
X71500000Y-71000000D03*
X71500000Y-65000000D03*
X71500000Y-67000000D03*
X71500000Y-69000000D03*
X71500000Y-73000000D03*
X71500000Y-81000000D03*
X71500000Y-75000000D03*
X71500000Y-77000000D03*
X71500000Y-79000000D03*
X71500000Y-83000000D03*
X71500000Y-91000000D03*
X71500000Y-85000000D03*
X71500000Y-87000000D03*
X71500000Y-89000000D03*
X71500000Y-93000000D03*
X71500000Y-99000000D03*
X71500000Y-95000000D03*
X71500000Y-97000000D03*
X71500000Y-101000000D03*
X69000000Y-67000000D03*
X69000000Y-65000000D03*
X69000000Y-77000000D03*
X69000000Y-75000000D03*
X69000000Y-87000000D03*
X69000000Y-85000000D03*
X69000000Y-101000000D03*
X69000000Y-95000000D03*
X69000000Y-97000000D03*
X69000000Y-99000000D03*
X69000000Y-73000000D03*
X69000000Y-69000000D03*
X69000000Y-71000000D03*
X69000000Y-83000000D03*
X69000000Y-79000000D03*
X69000000Y-81000000D03*
X69000000Y-93000000D03*
X69000000Y-89000000D03*
X69000000Y-91000000D03*
X67000000Y-76000000D03*
X67000000Y-78000000D03*
X67000000Y-70000000D03*
X67000000Y-72000000D03*
X67000000Y-74000000D03*
X67000000Y-84000000D03*
X67000000Y-80000000D03*
X67000000Y-82000000D03*
X67000000Y-68000000D03*
X67000000Y-66000000D03*
X67000000Y-64000000D03*
X67000000Y-86000000D03*
X67000000Y-88000000D03*
X67000000Y-98000000D03*
X67000000Y-96000000D03*
X67000000Y-94000000D03*
X67000000Y-90000000D03*
X67000000Y-92000000D03*
X67000000Y-100000000D03*
X71500000Y-61000000D03*
X69000000Y-61000000D03*
X73500000Y-60000000D03*
X67000000Y-60000000D03*
X73500000Y-58000000D03*
X73500000Y-56000000D03*
X73500000Y-54000000D03*
X73500000Y-52000000D03*
X71500000Y-59000000D03*
X71500000Y-57000000D03*
X71500000Y-55000000D03*
X71500000Y-53000000D03*
X69000000Y-59000000D03*
X69000000Y-57000000D03*
X69000000Y-55000000D03*
X69000000Y-53000000D03*
X67000000Y-58000000D03*
X67000000Y-56000000D03*
X67000000Y-54000000D03*
X67000000Y-52000000D03*
X71500000Y-51000000D03*
D15*
X69000000Y-51000000D03*
D14*
X71500000Y-129000000D03*
X73500000Y-130000000D03*
X73500000Y-132000000D03*
X71500000Y-131000000D03*
X71500000Y-133000000D03*
X69000000Y-129000000D03*
X69000000Y-131000000D03*
X67000000Y-130000000D03*
X67000000Y-132000000D03*
X67000000Y-134000000D03*
X69000000Y-133000000D03*
X73500000Y-134000000D03*
X71500000Y-135000000D03*
X71500000Y-137000000D03*
X69000000Y-137000000D03*
X69000000Y-135000000D03*
X67000000Y-140000000D03*
X69000000Y-139000000D03*
X69000000Y-141000000D03*
X67000000Y-136000000D03*
X67000000Y-138000000D03*
X67000000Y-142000000D03*
X73500000Y-136000000D03*
X73500000Y-138000000D03*
X73500000Y-140000000D03*
X71500000Y-141000000D03*
X73500000Y-142000000D03*
X71500000Y-139000000D03*
X73500000Y-148000000D03*
X73500000Y-146000000D03*
X71500000Y-143000000D03*
X73500000Y-144000000D03*
X71500000Y-145000000D03*
X71500000Y-147000000D03*
X71500000Y-155000000D03*
X73500000Y-154000000D03*
X73500000Y-156000000D03*
X71500000Y-153000000D03*
X71500000Y-157000000D03*
X73500000Y-150000000D03*
X73500000Y-152000000D03*
X71500000Y-151000000D03*
X71500000Y-149000000D03*
X73500000Y-158000000D03*
X73500000Y-160000000D03*
X71500000Y-159000000D03*
X71500000Y-161000000D03*
X69000000Y-161000000D03*
X67000000Y-158000000D03*
X69000000Y-159000000D03*
X67000000Y-160000000D03*
X69000000Y-147000000D03*
X69000000Y-145000000D03*
X69000000Y-149000000D03*
X67000000Y-144000000D03*
X67000000Y-146000000D03*
X67000000Y-148000000D03*
X69000000Y-143000000D03*
X67000000Y-150000000D03*
X69000000Y-153000000D03*
X69000000Y-155000000D03*
X69000000Y-157000000D03*
X69000000Y-151000000D03*
X67000000Y-154000000D03*
X67000000Y-156000000D03*
X67000000Y-152000000D03*
X71500000Y-125000000D03*
X73500000Y-124000000D03*
X73500000Y-126000000D03*
X73500000Y-128000000D03*
X71500000Y-127000000D03*
X67000000Y-126000000D03*
X69000000Y-127000000D03*
X69000000Y-125000000D03*
X67000000Y-128000000D03*
X67000000Y-124000000D03*
X69000000Y-121000000D03*
X67000000Y-120000000D03*
X69000000Y-119000000D03*
X69000000Y-117000000D03*
X67000000Y-118000000D03*
X67000000Y-116000000D03*
X73500000Y-120000000D03*
X73500000Y-118000000D03*
X71500000Y-119000000D03*
X71500000Y-121000000D03*
X71500000Y-117000000D03*
X67000000Y-112000000D03*
X69000000Y-115000000D03*
X69000000Y-113000000D03*
X67000000Y-114000000D03*
X69000000Y-111000000D03*
X73500000Y-116000000D03*
X73500000Y-114000000D03*
X73500000Y-112000000D03*
X71500000Y-115000000D03*
X71500000Y-113000000D03*
X71500000Y-111000000D03*
D13*
X70250000Y-62650000D03*
X70250000Y-102950000D03*
X70250000Y-122650000D03*
X70250000Y-162950000D03*
G04 #@! TD*
D16*
G04 #@! TO.C,CN1*
X55960000Y-96400000D03*
X55960000Y-98800000D03*
X54440000Y-98800000D03*
X54440000Y-96400000D03*
X55960000Y-98000000D03*
X54440000Y-98000000D03*
X55960000Y-97200000D03*
X54440000Y-97200000D03*
G04 #@! TD*
G04 #@! TO.C,CN2*
X54440000Y-92000000D03*
X55960000Y-92000000D03*
X54440000Y-92800000D03*
X55960000Y-92800000D03*
X54440000Y-91200000D03*
X54440000Y-93600000D03*
X55960000Y-93600000D03*
X55960000Y-91200000D03*
G04 #@! TD*
G04 #@! TO.C,CN3*
X54440000Y-86200000D03*
X55960000Y-86200000D03*
X54440000Y-87000000D03*
X55960000Y-87000000D03*
X54440000Y-85400000D03*
X54440000Y-87800000D03*
X55960000Y-87800000D03*
X55960000Y-85400000D03*
G04 #@! TD*
G04 #@! TO.C,CN4*
X54440000Y-80000000D03*
X55960000Y-80000000D03*
X54440000Y-80800000D03*
X55960000Y-80800000D03*
X54440000Y-79200000D03*
X54440000Y-81600000D03*
X55960000Y-81600000D03*
X55960000Y-79200000D03*
G04 #@! TD*
G04 #@! TO.C,CN5*
X55960000Y-74200000D03*
X55960000Y-76600000D03*
X54440000Y-76600000D03*
X54440000Y-74200000D03*
X55960000Y-75800000D03*
X54440000Y-75800000D03*
X55960000Y-75000000D03*
X54440000Y-75000000D03*
G04 #@! TD*
G04 #@! TO.C,CN6*
X54440000Y-70000000D03*
X55960000Y-70000000D03*
X54440000Y-70800000D03*
X55960000Y-70800000D03*
X54440000Y-69200000D03*
X54440000Y-71600000D03*
X55960000Y-71600000D03*
X55960000Y-69200000D03*
G04 #@! TD*
G04 #@! TO.C,CN7*
X54440000Y-65000000D03*
X55960000Y-65000000D03*
X54440000Y-65800000D03*
X55960000Y-65800000D03*
X54440000Y-64200000D03*
X54440000Y-66600000D03*
X55960000Y-66600000D03*
X55960000Y-64200000D03*
G04 #@! TD*
G04 #@! TO.C,CN8*
X54440000Y-57000000D03*
X55960000Y-57000000D03*
X54440000Y-57800000D03*
X55960000Y-57800000D03*
X54440000Y-56200000D03*
X54440000Y-58600000D03*
X55960000Y-58600000D03*
X55960000Y-56200000D03*
G04 #@! TD*
G04 #@! TO.C,CN9*
X54440000Y-51000000D03*
X55960000Y-51000000D03*
X54440000Y-51800000D03*
X55960000Y-51800000D03*
X54440000Y-50200000D03*
X54440000Y-52600000D03*
X55960000Y-52600000D03*
X55960000Y-50200000D03*
G04 #@! TD*
G04 #@! TO.C,CN10*
X55960000Y-160200000D03*
X55960000Y-162600000D03*
X54440000Y-162600000D03*
X54440000Y-160200000D03*
X55960000Y-161800000D03*
X54440000Y-161800000D03*
X55960000Y-161000000D03*
X54440000Y-161000000D03*
G04 #@! TD*
G04 #@! TO.C,CN11*
X55960000Y-155200000D03*
X55960000Y-157600000D03*
X54440000Y-157600000D03*
X54440000Y-155200000D03*
X55960000Y-156800000D03*
X54440000Y-156800000D03*
X55960000Y-156000000D03*
X54440000Y-156000000D03*
G04 #@! TD*
G04 #@! TO.C,CN12*
X55960000Y-149200000D03*
X55960000Y-151600000D03*
X54440000Y-151600000D03*
X54440000Y-149200000D03*
X55960000Y-150800000D03*
X54440000Y-150800000D03*
X55960000Y-150000000D03*
X54440000Y-150000000D03*
G04 #@! TD*
G04 #@! TO.C,CN13*
X55960000Y-144200000D03*
X55960000Y-146600000D03*
X54440000Y-146600000D03*
X54440000Y-144200000D03*
X55960000Y-145800000D03*
X54440000Y-145800000D03*
X55960000Y-145000000D03*
X54440000Y-145000000D03*
G04 #@! TD*
G04 #@! TO.C,CN14*
X55960000Y-138200000D03*
X55960000Y-140600000D03*
X54440000Y-140600000D03*
X54440000Y-138200000D03*
X55960000Y-139800000D03*
X54440000Y-139800000D03*
X55960000Y-139000000D03*
X54440000Y-139000000D03*
G04 #@! TD*
G04 #@! TO.C,CN15*
X55960000Y-133200000D03*
X55960000Y-135600000D03*
X54440000Y-135600000D03*
X54440000Y-133200000D03*
X55960000Y-134800000D03*
X54440000Y-134800000D03*
X55960000Y-134000000D03*
X54440000Y-134000000D03*
G04 #@! TD*
G04 #@! TO.C,CN16*
X55960000Y-127200000D03*
X55960000Y-129600000D03*
X54440000Y-129600000D03*
X54440000Y-127200000D03*
X55960000Y-128800000D03*
X54440000Y-128800000D03*
X55960000Y-128000000D03*
X54440000Y-128000000D03*
G04 #@! TD*
G04 #@! TO.C,CN17*
X55960000Y-120600000D03*
X55960000Y-123000000D03*
X54440000Y-123000000D03*
X54440000Y-120600000D03*
X55960000Y-122200000D03*
X54440000Y-122200000D03*
X55960000Y-121400000D03*
X54440000Y-121400000D03*
G04 #@! TD*
G04 #@! TO.C,CN18*
X55960000Y-114600000D03*
X55960000Y-117000000D03*
X54440000Y-117000000D03*
X54440000Y-114600000D03*
X55960000Y-116200000D03*
X54440000Y-116200000D03*
X55960000Y-115400000D03*
X54440000Y-115400000D03*
G04 #@! TD*
G04 #@! TO.C,CN19*
X54440000Y-111000000D03*
X55960000Y-111000000D03*
X54440000Y-111800000D03*
X55960000Y-111800000D03*
X54440000Y-110200000D03*
X54440000Y-112600000D03*
X55960000Y-112600000D03*
X55960000Y-110200000D03*
G04 #@! TD*
G04 #@! TO.C,CN39*
X249040000Y-52000000D03*
X249040000Y-49600000D03*
X250560000Y-49600000D03*
X250560000Y-52000000D03*
X249040000Y-50400000D03*
X250560000Y-50400000D03*
X249040000Y-51200000D03*
X250560000Y-51200000D03*
G04 #@! TD*
G04 #@! TO.C,CN40*
X249040000Y-58000000D03*
X249040000Y-55600000D03*
X250560000Y-55600000D03*
X250560000Y-58000000D03*
X249040000Y-56400000D03*
X250560000Y-56400000D03*
X249040000Y-57200000D03*
X250560000Y-57200000D03*
G04 #@! TD*
G04 #@! TO.C,CN41*
X249040000Y-65000000D03*
X249040000Y-62600000D03*
X250560000Y-62600000D03*
X250560000Y-65000000D03*
X249040000Y-63400000D03*
X250560000Y-63400000D03*
X249040000Y-64200000D03*
X250560000Y-64200000D03*
G04 #@! TD*
G04 #@! TO.C,CN42*
X249040000Y-72000000D03*
X249040000Y-69600000D03*
X250560000Y-69600000D03*
X250560000Y-72000000D03*
X249040000Y-70400000D03*
X250560000Y-70400000D03*
X249040000Y-71200000D03*
X250560000Y-71200000D03*
G04 #@! TD*
G04 #@! TO.C,CN43*
X249040000Y-77400000D03*
X249040000Y-75000000D03*
X250560000Y-75000000D03*
X250560000Y-77400000D03*
X249040000Y-75800000D03*
X250560000Y-75800000D03*
X249040000Y-76600000D03*
X250560000Y-76600000D03*
G04 #@! TD*
G04 #@! TO.C,CN44*
X249040000Y-83000000D03*
X249040000Y-80600000D03*
X250560000Y-80600000D03*
X250560000Y-83000000D03*
X249040000Y-81400000D03*
X250560000Y-81400000D03*
X249040000Y-82200000D03*
X250560000Y-82200000D03*
G04 #@! TD*
G04 #@! TO.C,CN45*
X249040000Y-88000000D03*
X249040000Y-85600000D03*
X250560000Y-85600000D03*
X250560000Y-88000000D03*
X249040000Y-86400000D03*
X250560000Y-86400000D03*
X249040000Y-87200000D03*
X250560000Y-87200000D03*
G04 #@! TD*
G04 #@! TO.C,CN46*
X250560000Y-92200000D03*
X249040000Y-92200000D03*
X250560000Y-91400000D03*
X249040000Y-91400000D03*
X250560000Y-93000000D03*
X250560000Y-90600000D03*
X249040000Y-90600000D03*
X249040000Y-93000000D03*
G04 #@! TD*
G04 #@! TO.C,CN47*
X249040000Y-98000000D03*
X249040000Y-95600000D03*
X250560000Y-95600000D03*
X250560000Y-98000000D03*
X249040000Y-96400000D03*
X250560000Y-96400000D03*
X249040000Y-97200000D03*
X250560000Y-97200000D03*
G04 #@! TD*
G04 #@! TO.C,CN48*
X250560000Y-113200000D03*
X249040000Y-113200000D03*
X250560000Y-112400000D03*
X249040000Y-112400000D03*
X250560000Y-114000000D03*
X250560000Y-111600000D03*
X249040000Y-111600000D03*
X249040000Y-114000000D03*
G04 #@! TD*
G04 #@! TO.C,CN49*
X250560000Y-118200000D03*
X249040000Y-118200000D03*
X250560000Y-117400000D03*
X249040000Y-117400000D03*
X250560000Y-119000000D03*
X250560000Y-116600000D03*
X249040000Y-116600000D03*
X249040000Y-119000000D03*
G04 #@! TD*
G04 #@! TO.C,CN50*
X250560000Y-123200000D03*
X249040000Y-123200000D03*
X250560000Y-122400000D03*
X249040000Y-122400000D03*
X250560000Y-124000000D03*
X250560000Y-121600000D03*
X249040000Y-121600000D03*
X249040000Y-124000000D03*
G04 #@! TD*
G04 #@! TO.C,CN51*
X250560000Y-129200000D03*
X249040000Y-129200000D03*
X250560000Y-128400000D03*
X249040000Y-128400000D03*
X250560000Y-130000000D03*
X250560000Y-127600000D03*
X249040000Y-127600000D03*
X249040000Y-130000000D03*
G04 #@! TD*
G04 #@! TO.C,CN52*
X250560000Y-134200000D03*
X249040000Y-134200000D03*
X250560000Y-133400000D03*
X249040000Y-133400000D03*
X250560000Y-135000000D03*
X250560000Y-132600000D03*
X249040000Y-132600000D03*
X249040000Y-135000000D03*
G04 #@! TD*
G04 #@! TO.C,CN53*
X250560000Y-140200000D03*
X249040000Y-140200000D03*
X250560000Y-139400000D03*
X249040000Y-139400000D03*
X250560000Y-141000000D03*
X250560000Y-138600000D03*
X249040000Y-138600000D03*
X249040000Y-141000000D03*
G04 #@! TD*
G04 #@! TO.C,CN54*
X250560000Y-146200000D03*
X249040000Y-146200000D03*
X250560000Y-145400000D03*
X249040000Y-145400000D03*
X250560000Y-147000000D03*
X250560000Y-144600000D03*
X249040000Y-144600000D03*
X249040000Y-147000000D03*
G04 #@! TD*
G04 #@! TO.C,CN55*
X250560000Y-151200000D03*
X249040000Y-151200000D03*
X250560000Y-150400000D03*
X249040000Y-150400000D03*
X250560000Y-152000000D03*
X250560000Y-149600000D03*
X249040000Y-149600000D03*
X249040000Y-152000000D03*
G04 #@! TD*
G04 #@! TO.C,CN56*
X250560000Y-157200000D03*
X249040000Y-157200000D03*
X250560000Y-156400000D03*
X249040000Y-156400000D03*
X250560000Y-158000000D03*
X250560000Y-155600000D03*
X249040000Y-155600000D03*
X249040000Y-158000000D03*
G04 #@! TD*
G04 #@! TO.C,CN57*
X250560000Y-162200000D03*
X249040000Y-162200000D03*
X250560000Y-161400000D03*
X249040000Y-161400000D03*
X250560000Y-163000000D03*
X250560000Y-160600000D03*
X249040000Y-160600000D03*
X249040000Y-163000000D03*
G04 #@! TD*
G04 #@! TO.C,RN1*
X59440000Y-97200000D03*
X60960000Y-97200000D03*
X59440000Y-98000000D03*
X60960000Y-98000000D03*
X59440000Y-96400000D03*
X59440000Y-98800000D03*
X60960000Y-98800000D03*
X60960000Y-96400000D03*
G04 #@! TD*
G04 #@! TO.C,RN2*
X60960000Y-91200000D03*
X60960000Y-93600000D03*
X59440000Y-93600000D03*
X59440000Y-91200000D03*
X60960000Y-92800000D03*
X59440000Y-92800000D03*
X60960000Y-92000000D03*
X59440000Y-92000000D03*
G04 #@! TD*
G04 #@! TO.C,RN3*
X60960000Y-85400000D03*
X60960000Y-87800000D03*
X59440000Y-87800000D03*
X59440000Y-85400000D03*
X60960000Y-87000000D03*
X59440000Y-87000000D03*
X60960000Y-86200000D03*
X59440000Y-86200000D03*
G04 #@! TD*
G04 #@! TO.C,RN4*
X60960000Y-79200000D03*
X60960000Y-81600000D03*
X59440000Y-81600000D03*
X59440000Y-79200000D03*
X60960000Y-80800000D03*
X59440000Y-80800000D03*
X60960000Y-80000000D03*
X59440000Y-80000000D03*
G04 #@! TD*
G04 #@! TO.C,RN5*
X60960000Y-74200000D03*
X60960000Y-76600000D03*
X59440000Y-76600000D03*
X59440000Y-74200000D03*
X60960000Y-75800000D03*
X59440000Y-75800000D03*
X60960000Y-75000000D03*
X59440000Y-75000000D03*
G04 #@! TD*
G04 #@! TO.C,RN6*
X60960000Y-69200000D03*
X60960000Y-71600000D03*
X59440000Y-71600000D03*
X59440000Y-69200000D03*
X60960000Y-70800000D03*
X59440000Y-70800000D03*
X60960000Y-70000000D03*
X59440000Y-70000000D03*
G04 #@! TD*
G04 #@! TO.C,RN7*
X60960000Y-64200000D03*
X60960000Y-66600000D03*
X59440000Y-66600000D03*
X59440000Y-64200000D03*
X60960000Y-65800000D03*
X59440000Y-65800000D03*
X60960000Y-65000000D03*
X59440000Y-65000000D03*
G04 #@! TD*
G04 #@! TO.C,RN8*
X60960000Y-56200000D03*
X60960000Y-58600000D03*
X59440000Y-58600000D03*
X59440000Y-56200000D03*
X60960000Y-57800000D03*
X59440000Y-57800000D03*
X60960000Y-57000000D03*
X59440000Y-57000000D03*
G04 #@! TD*
G04 #@! TO.C,RN9*
X60960000Y-50200000D03*
X60960000Y-52600000D03*
X59440000Y-52600000D03*
X59440000Y-50200000D03*
X60960000Y-51800000D03*
X59440000Y-51800000D03*
X60960000Y-51000000D03*
X59440000Y-51000000D03*
G04 #@! TD*
G04 #@! TO.C,RN10*
X59440000Y-161000000D03*
X60960000Y-161000000D03*
X59440000Y-161800000D03*
X60960000Y-161800000D03*
X59440000Y-160200000D03*
X59440000Y-162600000D03*
X60960000Y-162600000D03*
X60960000Y-160200000D03*
G04 #@! TD*
G04 #@! TO.C,RN11*
X59440000Y-156000000D03*
X60960000Y-156000000D03*
X59440000Y-156800000D03*
X60960000Y-156800000D03*
X59440000Y-155200000D03*
X59440000Y-157600000D03*
X60960000Y-157600000D03*
X60960000Y-155200000D03*
G04 #@! TD*
G04 #@! TO.C,RN12*
X59440000Y-150000000D03*
X60960000Y-150000000D03*
X59440000Y-150800000D03*
X60960000Y-150800000D03*
X59440000Y-149200000D03*
X59440000Y-151600000D03*
X60960000Y-151600000D03*
X60960000Y-149200000D03*
G04 #@! TD*
G04 #@! TO.C,RN13*
X59440000Y-145000000D03*
X60960000Y-145000000D03*
X59440000Y-145800000D03*
X60960000Y-145800000D03*
X59440000Y-144200000D03*
X59440000Y-146600000D03*
X60960000Y-146600000D03*
X60960000Y-144200000D03*
G04 #@! TD*
G04 #@! TO.C,RN14*
X60960000Y-138200000D03*
X60960000Y-140600000D03*
X59440000Y-140600000D03*
X59440000Y-138200000D03*
X60960000Y-139800000D03*
X59440000Y-139800000D03*
X60960000Y-139000000D03*
X59440000Y-139000000D03*
G04 #@! TD*
G04 #@! TO.C,RN15*
X59440000Y-134000000D03*
X60960000Y-134000000D03*
X59440000Y-134800000D03*
X60960000Y-134800000D03*
X59440000Y-133200000D03*
X59440000Y-135600000D03*
X60960000Y-135600000D03*
X60960000Y-133200000D03*
G04 #@! TD*
G04 #@! TO.C,RN16*
X59440000Y-128000000D03*
X60960000Y-128000000D03*
X59440000Y-128800000D03*
X60960000Y-128800000D03*
X59440000Y-127200000D03*
X59440000Y-129600000D03*
X60960000Y-129600000D03*
X60960000Y-127200000D03*
G04 #@! TD*
G04 #@! TO.C,RN17*
X59440000Y-121400000D03*
X60960000Y-121400000D03*
X59440000Y-122200000D03*
X60960000Y-122200000D03*
X59440000Y-120600000D03*
X59440000Y-123000000D03*
X60960000Y-123000000D03*
X60960000Y-120600000D03*
G04 #@! TD*
G04 #@! TO.C,RN18*
X59440000Y-115400000D03*
X60960000Y-115400000D03*
X59440000Y-116200000D03*
X60960000Y-116200000D03*
X59440000Y-114600000D03*
X59440000Y-117000000D03*
X60960000Y-117000000D03*
X60960000Y-114600000D03*
G04 #@! TD*
G04 #@! TO.C,RN19*
X60960000Y-110200000D03*
X60960000Y-112600000D03*
X59440000Y-112600000D03*
X59440000Y-110200000D03*
X60960000Y-111800000D03*
X59440000Y-111800000D03*
X60960000Y-111000000D03*
X59440000Y-111000000D03*
G04 #@! TD*
G04 #@! TO.C,RN39*
X245560000Y-51200000D03*
X244040000Y-51200000D03*
X245560000Y-50400000D03*
X244040000Y-50400000D03*
X245560000Y-52000000D03*
X245560000Y-49600000D03*
X244040000Y-49600000D03*
X244040000Y-52000000D03*
G04 #@! TD*
G04 #@! TO.C,RN40*
X245560000Y-57200000D03*
X244040000Y-57200000D03*
X245560000Y-56400000D03*
X244040000Y-56400000D03*
X245560000Y-58000000D03*
X245560000Y-55600000D03*
X244040000Y-55600000D03*
X244040000Y-58000000D03*
G04 #@! TD*
G04 #@! TO.C,RN41*
X245560000Y-64200000D03*
X244040000Y-64200000D03*
X245560000Y-63400000D03*
X244040000Y-63400000D03*
X245560000Y-65000000D03*
X245560000Y-62600000D03*
X244040000Y-62600000D03*
X244040000Y-65000000D03*
G04 #@! TD*
G04 #@! TO.C,RN42*
X245560000Y-71200000D03*
X244040000Y-71200000D03*
X245560000Y-70400000D03*
X244040000Y-70400000D03*
X245560000Y-72000000D03*
X245560000Y-69600000D03*
X244040000Y-69600000D03*
X244040000Y-72000000D03*
G04 #@! TD*
G04 #@! TO.C,RN43*
X245560000Y-76600000D03*
X244040000Y-76600000D03*
X245560000Y-75800000D03*
X244040000Y-75800000D03*
X245560000Y-77400000D03*
X245560000Y-75000000D03*
X244040000Y-75000000D03*
X244040000Y-77400000D03*
G04 #@! TD*
G04 #@! TO.C,RN44*
X245560000Y-82200000D03*
X244040000Y-82200000D03*
X245560000Y-81400000D03*
X244040000Y-81400000D03*
X245560000Y-83000000D03*
X245560000Y-80600000D03*
X244040000Y-80600000D03*
X244040000Y-83000000D03*
G04 #@! TD*
G04 #@! TO.C,RN45*
X245560000Y-87200000D03*
X244040000Y-87200000D03*
X245560000Y-86400000D03*
X244040000Y-86400000D03*
X245560000Y-88000000D03*
X245560000Y-85600000D03*
X244040000Y-85600000D03*
X244040000Y-88000000D03*
G04 #@! TD*
G04 #@! TO.C,RN46*
X245560000Y-92200000D03*
X244040000Y-92200000D03*
X245560000Y-91400000D03*
X244040000Y-91400000D03*
X245560000Y-93000000D03*
X245560000Y-90600000D03*
X244040000Y-90600000D03*
X244040000Y-93000000D03*
G04 #@! TD*
G04 #@! TO.C,RN47*
X245560000Y-97200000D03*
X244040000Y-97200000D03*
X245560000Y-96400000D03*
X244040000Y-96400000D03*
X245560000Y-98000000D03*
X245560000Y-95600000D03*
X244040000Y-95600000D03*
X244040000Y-98000000D03*
G04 #@! TD*
G04 #@! TO.C,RN48*
X244040000Y-114000000D03*
X244040000Y-111600000D03*
X245560000Y-111600000D03*
X245560000Y-114000000D03*
X244040000Y-112400000D03*
X245560000Y-112400000D03*
X244040000Y-113200000D03*
X245560000Y-113200000D03*
G04 #@! TD*
G04 #@! TO.C,RN49*
X244040000Y-119000000D03*
X244040000Y-116600000D03*
X245560000Y-116600000D03*
X245560000Y-119000000D03*
X244040000Y-117400000D03*
X245560000Y-117400000D03*
X244040000Y-118200000D03*
X245560000Y-118200000D03*
G04 #@! TD*
G04 #@! TO.C,RN50*
X244040000Y-124000000D03*
X244040000Y-121600000D03*
X245560000Y-121600000D03*
X245560000Y-124000000D03*
X244040000Y-122400000D03*
X245560000Y-122400000D03*
X244040000Y-123200000D03*
X245560000Y-123200000D03*
G04 #@! TD*
G04 #@! TO.C,RN51*
X244040000Y-130000000D03*
X244040000Y-127600000D03*
X245560000Y-127600000D03*
X245560000Y-130000000D03*
X244040000Y-128400000D03*
X245560000Y-128400000D03*
X244040000Y-129200000D03*
X245560000Y-129200000D03*
G04 #@! TD*
G04 #@! TO.C,RN52*
X245560000Y-134200000D03*
X244040000Y-134200000D03*
X245560000Y-133400000D03*
X244040000Y-133400000D03*
X245560000Y-135000000D03*
X245560000Y-132600000D03*
X244040000Y-132600000D03*
X244040000Y-135000000D03*
G04 #@! TD*
G04 #@! TO.C,RN53*
X244040000Y-141000000D03*
X244040000Y-138600000D03*
X245560000Y-138600000D03*
X245560000Y-141000000D03*
X244040000Y-139400000D03*
X245560000Y-139400000D03*
X244040000Y-140200000D03*
X245560000Y-140200000D03*
G04 #@! TD*
G04 #@! TO.C,RN54*
X244040000Y-147000000D03*
X244040000Y-144600000D03*
X245560000Y-144600000D03*
X245560000Y-147000000D03*
X244040000Y-145400000D03*
X245560000Y-145400000D03*
X244040000Y-146200000D03*
X245560000Y-146200000D03*
G04 #@! TD*
G04 #@! TO.C,RN55*
X244040000Y-152000000D03*
X244040000Y-149600000D03*
X245560000Y-149600000D03*
X245560000Y-152000000D03*
X244040000Y-150400000D03*
X245560000Y-150400000D03*
X244040000Y-151200000D03*
X245560000Y-151200000D03*
G04 #@! TD*
G04 #@! TO.C,RN56*
X244040000Y-158000000D03*
X244040000Y-155600000D03*
X245560000Y-155600000D03*
X245560000Y-158000000D03*
X244040000Y-156400000D03*
X245560000Y-156400000D03*
X244040000Y-157200000D03*
X245560000Y-157200000D03*
G04 #@! TD*
G04 #@! TO.C,RN57*
X244040000Y-163000000D03*
X244040000Y-160600000D03*
X245560000Y-160600000D03*
X245560000Y-163000000D03*
X244040000Y-161400000D03*
X245560000Y-161400000D03*
X244040000Y-162200000D03*
X245560000Y-162200000D03*
G04 #@! TD*
M02*
