M48
;DRILL file {KiCad (5.0.0-rc2-35-gda6600525)} date 06/30/18 14:58:14
;FORMAT={-:-/ absolute / metric / decimal}
FMAT,2
METRIC,TZ
T1C0.381
T2C0.635
T3C0.700
%
G90
G05
M71
T1
X52.5Y-127.76
X52.57Y-127.02
X52.64Y-128.84
X52.64Y-129.65
X52.73Y-110.2
X52.73Y-111.02
X52.75Y-50.19
X52.75Y-112.62
X52.75Y-114.6
X52.75Y-134.04
X52.76Y-51.01
X52.76Y-52.64
X52.76Y-115.44
X52.76Y-133.21
X52.76Y-134.83
X52.76Y-135.63
X52.77Y-51.81
X52.77Y-86.24
X52.77Y-111.82
X52.77Y-117.05
X52.78Y-85.18
X52.78Y-116.22
X52.78Y-139.03
X52.79Y-138.18
X52.81Y-97.11
X52.82Y-96.21
X52.82Y-120.62
X52.82Y-139.79
X52.82Y-140.61
X52.83Y-86.85
X52.84Y-64.2
X52.84Y-65.02
X52.85Y-57.03
X52.85Y-58.61
X52.85Y-65.79
X52.85Y-70.
X52.85Y-121.39
X52.86Y-66.59
X52.86Y-69.21
X52.86Y-98.81
X52.86Y-122.23
X52.87Y-56.2
X52.87Y-87.84
X52.88Y-57.81
X52.88Y-123.03
X52.89Y-70.8
X52.89Y-75.01
X52.9Y-74.21
X52.9Y-97.82
X52.91Y-71.63
X52.91Y-91.97
X52.92Y-75.8
X52.92Y-92.8
X52.93Y-93.61
X52.94Y-76.61
X52.94Y-79.21
X52.95Y-91.18
X52.96Y-80.03
X52.96Y-80.77
X52.96Y-160.98
X52.97Y-160.21
X52.98Y-81.61
X52.99Y-162.59
X53.Y-155.2
X53.Y-156.01
X53.Y-161.79
X53.01Y-144.2
X53.02Y-144.99
X53.03Y-157.63
X53.06Y-156.81
X53.07Y-145.82
X53.07Y-146.62
X53.07Y-149.21
X53.07Y-150.01
X53.07Y-151.59
X53.1Y-150.82
X61.08Y-109.03
X62.04Y-158.74
X62.082Y-159.528
X62.23Y-97.25
X62.34Y-148.32
X62.38Y-63.
X62.4Y-152.75
X62.45Y-154.27
X62.453Y-52.563
X62.54Y-119.38
X62.62Y-126.14
X62.63Y-50.865
X62.653Y-51.907
X62.71Y-116.69
X62.72Y-55.16
X62.73Y-157.893
X62.78Y-69.65
X62.82Y-81.75
X62.83Y-115.293
X62.86Y-56.97
X62.89Y-113.22
X62.942Y-140.321
X62.954Y-156.478
X62.96Y-149.05
X62.97Y-74.19
X62.98Y-136.21
X63.Y-142.95
X63.03Y-147.12
X63.057Y-152.005
X63.08Y-126.98
X63.106Y-151.321
X63.188Y-138.479
X63.192Y-75.148
X63.193Y-77.131
X63.2Y-78.55
X63.21Y-88.46
X63.247Y-59.329
X63.3Y-160.99
X63.34Y-155.07
X63.343Y-58.521
X63.4Y-128.07
X63.45Y-121.18
X63.487Y-146.321
X63.6Y-135.26
X63.717Y-134.219
X63.74Y-51.41
X63.759Y-86.98
X63.76Y-80.86
X63.776Y-138.127
X63.82Y-87.93
X63.835Y-76.887
X63.9Y-157.
X63.91Y-84.22
X64.03Y-163.12
X64.07Y-75.81
X64.08Y-117.68
X64.11Y-86.06
X64.133Y-115.604
X64.15Y-91.07
X64.18Y-116.36
X64.21Y-140.49
X64.42Y-139.64
X64.43Y-89.02
X64.46Y-97.81
X64.49Y-96.001
X68.95Y-105.29
X74.62Y-161.02
X74.926Y-98.141
X74.97Y-54.
X75.2Y-114.
X75.26Y-120.12
X75.29Y-59.99
X79.65Y-97.62
X80.62Y-98.08
X80.62Y-100.24
X80.69Y-159.89
X80.71Y-157.91
X80.78Y-160.99
X89.97Y-54.
X90.2Y-114.
X90.26Y-120.12
X90.4Y-60.04
X94.365Y-100.446
X94.9Y-98.02
X95.1Y-99.65
X95.59Y-159.98
X95.61Y-158.
X95.85Y-161.021
X104.97Y-54.
X105.2Y-114.
X105.26Y-120.12
X105.29Y-59.99
X109.404Y-100.501
X109.9Y-98.02
X110.144Y-99.608
X110.59Y-160.
X110.71Y-157.94
X110.84Y-161.041
X119.97Y-54.
X120.Y-114.04
X120.26Y-120.12
X120.37Y-60.04
X124.365Y-100.446
X124.9Y-98.02
X125.1Y-99.65
X125.63Y-159.92
X125.66Y-157.95
X125.87Y-161.01
X134.97Y-54.
X135.2Y-114.
X135.26Y-120.12
X135.29Y-59.99
X139.9Y-98.02
X140.02Y-100.99
X140.1Y-99.65
X140.61Y-159.93
X140.71Y-158.
X140.86Y-160.98
X149.97Y-54.
X150.2Y-114.
X150.26Y-120.12
X150.3Y-59.96
X154.365Y-100.446
X154.9Y-98.02
X155.1Y-99.65
X155.72Y-157.96
X155.76Y-159.96
X155.89Y-161.02
X164.97Y-54.
X165.2Y-114.
X165.26Y-120.12
X165.29Y-59.99
X169.359Y-100.466
X169.9Y-98.02
X170.1Y-99.65
X170.65Y-159.92
X170.69Y-157.99
X170.91Y-161.02
X179.97Y-54.
X180.1Y-60.1
X180.23Y-114.
X180.26Y-120.12
X184.365Y-100.446
X184.9Y-98.02
X185.1Y-99.65
X185.5Y-159.98
X185.57Y-158.01
X185.86Y-161.02
X194.97Y-54.
X195.07Y-114.
X195.22Y-60.02
X195.26Y-120.12
X199.303Y-100.589
X199.9Y-98.02
X200.1Y-99.65
X200.64Y-159.93
X200.65Y-158.
X200.81Y-161.01
X209.89Y-114.01
X209.97Y-54.
X210.26Y-120.12
X210.29Y-59.99
X214.365Y-100.446
X214.9Y-98.02
X215.1Y-99.65
X215.61Y-159.91
X215.64Y-157.96
X215.81Y-161.03
X224.97Y-54.
X225.2Y-114.
X225.25Y-59.96
X225.26Y-120.12
X229.365Y-100.446
X229.76Y-160.03
X229.9Y-98.02
X230.1Y-99.65
X230.34Y-158.
X230.82Y-161.01
X240.91Y-122.94
X241.07Y-58.05
X241.09Y-62.469
X241.18Y-161.05
X241.21Y-88.1
X241.24Y-97.46
X241.27Y-134.24
X241.44Y-82.3
X241.46Y-93.58
X241.612Y-76.563
X241.62Y-61.85
X241.63Y-90.57
X241.693Y-69.083
X241.849Y-139.703
X241.89Y-150.42
X241.95Y-63.36
X241.95Y-141.1
X242.04Y-155.48
X242.1Y-145.53
X242.159Y-128.563
X242.18Y-81.48
X242.185Y-75.637
X242.19Y-65.421
X242.19Y-74.06
X242.19Y-85.86
X242.201Y-122.419
X242.25Y-119.05
X242.27Y-127.521
X242.28Y-157.72
X242.35Y-130.06
X242.411Y-149.455
X242.63Y-136.08
X243.2Y-110.3
T2
X53.23Y-103.97
X53.25Y-102.73
X53.27Y-105.22
X61.95Y-104.
X61.95Y-105.49
X61.97Y-102.6
X75.6Y-101.53
X75.69Y-109.95
X76.93Y-109.97
X77.Y-101.55
X78.18Y-109.93
X78.49Y-101.55
X86.93Y-43.99
X86.95Y-42.75
X86.97Y-45.24
X88.23Y-168.97
X88.25Y-167.73
X88.27Y-170.22
X95.45Y-44.
X95.45Y-45.49
X95.47Y-42.6
X96.95Y-169.
X96.95Y-170.49
X96.97Y-167.6
X105.6Y-101.53
X105.69Y-109.85
X106.93Y-109.87
X107.Y-101.55
X108.18Y-109.83
X108.49Y-101.55
X135.6Y-101.53
X135.71Y-109.85
X136.95Y-109.87
X137.Y-101.55
X138.2Y-109.83
X138.49Y-101.55
X147.83Y-43.99
X147.85Y-42.75
X147.87Y-45.24
X148.23Y-168.99
X148.25Y-167.75
X148.27Y-170.24
X156.45Y-44.
X156.45Y-45.49
X156.47Y-42.6
X156.95Y-169.
X156.95Y-170.49
X156.97Y-167.6
X165.6Y-101.53
X165.71Y-109.75
X166.95Y-109.77
X167.Y-101.55
X168.2Y-109.73
X168.49Y-101.55
X195.6Y-101.53
X195.71Y-109.75
X196.95Y-109.77
X197.Y-101.55
X198.2Y-109.73
X198.49Y-101.55
X207.73Y-43.99
X207.73Y-168.99
X207.75Y-42.75
X207.75Y-167.75
X207.77Y-45.24
X207.77Y-170.24
X216.45Y-44.
X216.45Y-45.49
X216.45Y-169.
X216.45Y-170.49
X216.47Y-42.6
X216.47Y-167.6
X225.6Y-101.53
X225.71Y-109.75
X226.95Y-109.77
X227.Y-101.55
X228.2Y-109.73
X228.49Y-101.55
X241.73Y-105.95
X241.75Y-104.71
X241.77Y-107.2
X250.45Y-106.
X250.45Y-107.49
X250.47Y-104.6
X252.39Y-49.58
X252.39Y-85.58
X252.39Y-90.58
X252.39Y-95.58
X252.39Y-111.58
X252.39Y-116.58
X252.39Y-121.58
X252.39Y-127.58
X252.39Y-132.58
X252.39Y-138.58
X252.39Y-144.58
X252.39Y-149.58
X252.39Y-155.58
X252.39Y-160.58
X252.41Y-51.18
X252.41Y-87.18
X252.41Y-92.18
X252.41Y-97.18
X252.41Y-113.18
X252.41Y-118.18
X252.41Y-123.18
X252.41Y-129.18
X252.41Y-134.18
X252.41Y-140.18
X252.41Y-146.18
X252.41Y-151.18
X252.41Y-157.18
X252.41Y-162.18
X252.49Y-55.58
X252.49Y-62.58
X252.49Y-69.58
X252.49Y-80.58
X252.51Y-57.18
X252.51Y-64.18
X252.51Y-71.18
X252.51Y-82.18
X252.59Y-74.98
X252.61Y-76.58
X253.55Y-50.43
X253.55Y-86.43
X253.55Y-91.43
X253.55Y-96.43
X253.55Y-112.43
X253.55Y-117.43
X253.55Y-122.43
X253.55Y-128.43
X253.55Y-133.43
X253.55Y-139.43
X253.55Y-145.43
X253.55Y-150.43
X253.55Y-156.43
X253.55Y-161.43
X253.6Y-52.
X253.6Y-88.
X253.6Y-93.
X253.6Y-98.
X253.6Y-114.
X253.6Y-119.
X253.6Y-124.
X253.6Y-130.
X253.6Y-135.
X253.6Y-141.
X253.6Y-147.
X253.6Y-152.
X253.6Y-158.
X253.6Y-163.
X253.65Y-56.43
X253.65Y-63.43
X253.65Y-70.43
X253.65Y-81.43
X253.7Y-58.
X253.7Y-65.
X253.7Y-72.
X253.7Y-83.
X253.75Y-75.83
X253.8Y-77.4
T3
X202.Y-52.
X202.Y-54.
X202.Y-56.
X202.Y-58.
X202.Y-60.
X202.Y-64.
X202.Y-66.
X202.Y-68.
X202.Y-70.
X202.Y-72.
X202.Y-74.
X202.Y-76.
X202.Y-78.
X202.Y-80.
X202.Y-82.
X202.Y-84.
X202.Y-86.
X202.Y-88.
X202.Y-90.
X202.Y-92.
X202.Y-94.
X202.Y-96.
X202.Y-98.
X202.Y-100.
X202.Y-112.
X202.Y-114.
X202.Y-116.
X202.Y-118.
X202.Y-120.
X202.Y-124.
X202.Y-126.
X202.Y-128.
X202.Y-130.
X202.Y-132.
X202.Y-134.
X202.Y-136.
X202.Y-138.
X202.Y-140.
X202.Y-142.
X202.Y-144.
X202.Y-146.
X202.Y-148.
X202.Y-150.
X202.Y-152.
X202.Y-154.
X202.Y-156.
X202.Y-158.
X202.Y-160.
X204.Y-51.
X204.Y-53.
X204.Y-55.
X204.Y-57.
X204.Y-59.
X204.Y-61.
X204.Y-65.
X204.Y-67.
X204.Y-69.
X204.Y-71.
X204.Y-73.
X204.Y-75.
X204.Y-77.
X204.Y-79.
X204.Y-81.
X204.Y-83.
X204.Y-85.
X204.Y-87.
X204.Y-89.
X204.Y-91.
X204.Y-93.
X204.Y-95.
X204.Y-97.
X204.Y-99.
X204.Y-101.
X204.Y-111.
X204.Y-113.
X204.Y-115.
X204.Y-117.
X204.Y-119.
X204.Y-121.
X204.Y-125.
X204.Y-127.
X204.Y-129.
X204.Y-131.
X204.Y-133.
X204.Y-135.
X204.Y-137.
X204.Y-139.
X204.Y-141.
X204.Y-143.
X204.Y-145.
X204.Y-147.
X204.Y-149.
X204.Y-151.
X204.Y-153.
X204.Y-155.
X204.Y-157.
X204.Y-159.
X204.Y-161.
X206.5Y-51.
X206.5Y-53.
X206.5Y-55.
X206.5Y-57.
X206.5Y-59.
X206.5Y-61.
X206.5Y-65.
X206.5Y-67.
X206.5Y-69.
X206.5Y-71.
X206.5Y-73.
X206.5Y-75.
X206.5Y-77.
X206.5Y-79.
X206.5Y-81.
X206.5Y-83.
X206.5Y-85.
X206.5Y-87.
X206.5Y-89.
X206.5Y-91.
X206.5Y-93.
X206.5Y-95.
X206.5Y-97.
X206.5Y-99.
X206.5Y-101.
X206.5Y-111.
X206.5Y-113.
X206.5Y-115.
X206.5Y-117.
X206.5Y-119.
X206.5Y-121.
X206.5Y-125.
X206.5Y-127.
X206.5Y-129.
X206.5Y-131.
X206.5Y-133.
X206.5Y-135.
X206.5Y-137.
X206.5Y-139.
X206.5Y-141.
X206.5Y-143.
X206.5Y-145.
X206.5Y-147.
X206.5Y-149.
X206.5Y-151.
X206.5Y-153.
X206.5Y-155.
X206.5Y-157.
X206.5Y-159.
X206.5Y-161.
X208.5Y-52.
X208.5Y-54.
X208.5Y-56.
X208.5Y-58.
X208.5Y-60.
X208.5Y-64.
X208.5Y-66.
X208.5Y-68.
X208.5Y-70.
X208.5Y-72.
X208.5Y-74.
X208.5Y-76.
X208.5Y-78.
X208.5Y-80.
X208.5Y-82.
X208.5Y-84.
X208.5Y-86.
X208.5Y-88.
X208.5Y-90.
X208.5Y-92.
X208.5Y-94.
X208.5Y-96.
X208.5Y-98.
X208.5Y-100.
X208.5Y-112.
X208.5Y-114.
X208.5Y-116.
X208.5Y-118.
X208.5Y-120.
X208.5Y-124.
X208.5Y-126.
X208.5Y-128.
X208.5Y-130.
X208.5Y-132.
X208.5Y-134.
X208.5Y-136.
X208.5Y-138.
X208.5Y-140.
X208.5Y-142.
X208.5Y-144.
X208.5Y-146.
X208.5Y-148.
X208.5Y-150.
X208.5Y-152.
X208.5Y-154.
X208.5Y-156.
X208.5Y-158.
X208.5Y-160.
X142.Y-52.
X142.Y-54.
X142.Y-56.
X142.Y-58.
X142.Y-60.
X142.Y-64.
X142.Y-66.
X142.Y-68.
X142.Y-70.
X142.Y-72.
X142.Y-74.
X142.Y-76.
X142.Y-78.
X142.Y-80.
X142.Y-82.
X142.Y-84.
X142.Y-86.
X142.Y-88.
X142.Y-90.
X142.Y-92.
X142.Y-94.
X142.Y-96.
X142.Y-98.
X142.Y-100.
X142.Y-112.
X142.Y-114.
X142.Y-116.
X142.Y-118.
X142.Y-120.
X142.Y-124.
X142.Y-126.
X142.Y-128.
X142.Y-130.
X142.Y-132.
X142.Y-134.
X142.Y-136.
X142.Y-138.
X142.Y-140.
X142.Y-142.
X142.Y-144.
X142.Y-146.
X142.Y-148.
X142.Y-150.
X142.Y-152.
X142.Y-154.
X142.Y-156.
X142.Y-158.
X142.Y-160.
X144.Y-51.
X144.Y-53.
X144.Y-55.
X144.Y-57.
X144.Y-59.
X144.Y-61.
X144.Y-65.
X144.Y-67.
X144.Y-69.
X144.Y-71.
X144.Y-73.
X144.Y-75.
X144.Y-77.
X144.Y-79.
X144.Y-81.
X144.Y-83.
X144.Y-85.
X144.Y-87.
X144.Y-89.
X144.Y-91.
X144.Y-93.
X144.Y-95.
X144.Y-97.
X144.Y-99.
X144.Y-101.
X144.Y-111.
X144.Y-113.
X144.Y-115.
X144.Y-117.
X144.Y-119.
X144.Y-121.
X144.Y-125.
X144.Y-127.
X144.Y-129.
X144.Y-131.
X144.Y-133.
X144.Y-135.
X144.Y-137.
X144.Y-139.
X144.Y-141.
X144.Y-143.
X144.Y-145.
X144.Y-147.
X144.Y-149.
X144.Y-151.
X144.Y-153.
X144.Y-155.
X144.Y-157.
X144.Y-159.
X144.Y-161.
X146.5Y-51.
X146.5Y-53.
X146.5Y-55.
X146.5Y-57.
X146.5Y-59.
X146.5Y-61.
X146.5Y-65.
X146.5Y-67.
X146.5Y-69.
X146.5Y-71.
X146.5Y-73.
X146.5Y-75.
X146.5Y-77.
X146.5Y-79.
X146.5Y-81.
X146.5Y-83.
X146.5Y-85.
X146.5Y-87.
X146.5Y-89.
X146.5Y-91.
X146.5Y-93.
X146.5Y-95.
X146.5Y-97.
X146.5Y-99.
X146.5Y-101.
X146.5Y-111.
X146.5Y-113.
X146.5Y-115.
X146.5Y-117.
X146.5Y-119.
X146.5Y-121.
X146.5Y-125.
X146.5Y-127.
X146.5Y-129.
X146.5Y-131.
X146.5Y-133.
X146.5Y-135.
X146.5Y-137.
X146.5Y-139.
X146.5Y-141.
X146.5Y-143.
X146.5Y-145.
X146.5Y-147.
X146.5Y-149.
X146.5Y-151.
X146.5Y-153.
X146.5Y-155.
X146.5Y-157.
X146.5Y-159.
X146.5Y-161.
X148.5Y-52.
X148.5Y-54.
X148.5Y-56.
X148.5Y-58.
X148.5Y-60.
X148.5Y-64.
X148.5Y-66.
X148.5Y-68.
X148.5Y-70.
X148.5Y-72.
X148.5Y-74.
X148.5Y-76.
X148.5Y-78.
X148.5Y-80.
X148.5Y-82.
X148.5Y-84.
X148.5Y-86.
X148.5Y-88.
X148.5Y-90.
X148.5Y-92.
X148.5Y-94.
X148.5Y-96.
X148.5Y-98.
X148.5Y-100.
X148.5Y-112.
X148.5Y-114.
X148.5Y-116.
X148.5Y-118.
X148.5Y-120.
X148.5Y-124.
X148.5Y-126.
X148.5Y-128.
X148.5Y-130.
X148.5Y-132.
X148.5Y-134.
X148.5Y-136.
X148.5Y-138.
X148.5Y-140.
X148.5Y-142.
X148.5Y-144.
X148.5Y-146.
X148.5Y-148.
X148.5Y-150.
X148.5Y-152.
X148.5Y-154.
X148.5Y-156.
X148.5Y-158.
X148.5Y-160.
X157.Y-52.
X157.Y-54.
X157.Y-56.
X157.Y-58.
X157.Y-60.
X157.Y-64.
X157.Y-66.
X157.Y-68.
X157.Y-70.
X157.Y-72.
X157.Y-74.
X157.Y-76.
X157.Y-78.
X157.Y-80.
X157.Y-82.
X157.Y-84.
X157.Y-86.
X157.Y-88.
X157.Y-90.
X157.Y-92.
X157.Y-94.
X157.Y-96.
X157.Y-98.
X157.Y-100.
X157.Y-112.
X157.Y-114.
X157.Y-116.
X157.Y-118.
X157.Y-120.
X157.Y-124.
X157.Y-126.
X157.Y-128.
X157.Y-130.
X157.Y-132.
X157.Y-134.
X157.Y-136.
X157.Y-138.
X157.Y-140.
X157.Y-142.
X157.Y-144.
X157.Y-146.
X157.Y-148.
X157.Y-150.
X157.Y-152.
X157.Y-154.
X157.Y-156.
X157.Y-158.
X157.Y-160.
X159.Y-51.
X159.Y-53.
X159.Y-55.
X159.Y-57.
X159.Y-59.
X159.Y-61.
X159.Y-65.
X159.Y-67.
X159.Y-69.
X159.Y-71.
X159.Y-73.
X159.Y-75.
X159.Y-77.
X159.Y-79.
X159.Y-81.
X159.Y-83.
X159.Y-85.
X159.Y-87.
X159.Y-89.
X159.Y-91.
X159.Y-93.
X159.Y-95.
X159.Y-97.
X159.Y-99.
X159.Y-101.
X159.Y-111.
X159.Y-113.
X159.Y-115.
X159.Y-117.
X159.Y-119.
X159.Y-121.
X159.Y-125.
X159.Y-127.
X159.Y-129.
X159.Y-131.
X159.Y-133.
X159.Y-135.
X159.Y-137.
X159.Y-139.
X159.Y-141.
X159.Y-143.
X159.Y-145.
X159.Y-147.
X159.Y-149.
X159.Y-151.
X159.Y-153.
X159.Y-155.
X159.Y-157.
X159.Y-159.
X159.Y-161.
X161.5Y-51.
X161.5Y-53.
X161.5Y-55.
X161.5Y-57.
X161.5Y-59.
X161.5Y-61.
X161.5Y-65.
X161.5Y-67.
X161.5Y-69.
X161.5Y-71.
X161.5Y-73.
X161.5Y-75.
X161.5Y-77.
X161.5Y-79.
X161.5Y-81.
X161.5Y-83.
X161.5Y-85.
X161.5Y-87.
X161.5Y-89.
X161.5Y-91.
X161.5Y-93.
X161.5Y-95.
X161.5Y-97.
X161.5Y-99.
X161.5Y-101.
X161.5Y-111.
X161.5Y-113.
X161.5Y-115.
X161.5Y-117.
X161.5Y-119.
X161.5Y-121.
X161.5Y-125.
X161.5Y-127.
X161.5Y-129.
X161.5Y-131.
X161.5Y-133.
X161.5Y-135.
X161.5Y-137.
X161.5Y-139.
X161.5Y-141.
X161.5Y-143.
X161.5Y-145.
X161.5Y-147.
X161.5Y-149.
X161.5Y-151.
X161.5Y-153.
X161.5Y-155.
X161.5Y-157.
X161.5Y-159.
X161.5Y-161.
X163.5Y-52.
X163.5Y-54.
X163.5Y-56.
X163.5Y-58.
X163.5Y-60.
X163.5Y-64.
X163.5Y-66.
X163.5Y-68.
X163.5Y-70.
X163.5Y-72.
X163.5Y-74.
X163.5Y-76.
X163.5Y-78.
X163.5Y-80.
X163.5Y-82.
X163.5Y-84.
X163.5Y-86.
X163.5Y-88.
X163.5Y-90.
X163.5Y-92.
X163.5Y-94.
X163.5Y-96.
X163.5Y-98.
X163.5Y-100.
X163.5Y-112.
X163.5Y-114.
X163.5Y-116.
X163.5Y-118.
X163.5Y-120.
X163.5Y-124.
X163.5Y-126.
X163.5Y-128.
X163.5Y-130.
X163.5Y-132.
X163.5Y-134.
X163.5Y-136.
X163.5Y-138.
X163.5Y-140.
X163.5Y-142.
X163.5Y-144.
X163.5Y-146.
X163.5Y-148.
X163.5Y-150.
X163.5Y-152.
X163.5Y-154.
X163.5Y-156.
X163.5Y-158.
X163.5Y-160.
X172.Y-52.
X172.Y-54.
X172.Y-56.
X172.Y-58.
X172.Y-60.
X172.Y-64.
X172.Y-66.
X172.Y-68.
X172.Y-70.
X172.Y-72.
X172.Y-74.
X172.Y-76.
X172.Y-78.
X172.Y-80.
X172.Y-82.
X172.Y-84.
X172.Y-86.
X172.Y-88.
X172.Y-90.
X172.Y-92.
X172.Y-94.
X172.Y-96.
X172.Y-98.
X172.Y-100.
X172.Y-112.
X172.Y-114.
X172.Y-116.
X172.Y-118.
X172.Y-120.
X172.Y-124.
X172.Y-126.
X172.Y-128.
X172.Y-130.
X172.Y-132.
X172.Y-134.
X172.Y-136.
X172.Y-138.
X172.Y-140.
X172.Y-142.
X172.Y-144.
X172.Y-146.
X172.Y-148.
X172.Y-150.
X172.Y-152.
X172.Y-154.
X172.Y-156.
X172.Y-158.
X172.Y-160.
X174.Y-51.
X174.Y-53.
X174.Y-55.
X174.Y-57.
X174.Y-59.
X174.Y-61.
X174.Y-65.
X174.Y-67.
X174.Y-69.
X174.Y-71.
X174.Y-73.
X174.Y-75.
X174.Y-77.
X174.Y-79.
X174.Y-81.
X174.Y-83.
X174.Y-85.
X174.Y-87.
X174.Y-89.
X174.Y-91.
X174.Y-93.
X174.Y-95.
X174.Y-97.
X174.Y-99.
X174.Y-101.
X174.Y-111.
X174.Y-113.
X174.Y-115.
X174.Y-117.
X174.Y-119.
X174.Y-121.
X174.Y-125.
X174.Y-127.
X174.Y-129.
X174.Y-131.
X174.Y-133.
X174.Y-135.
X174.Y-137.
X174.Y-139.
X174.Y-141.
X174.Y-143.
X174.Y-145.
X174.Y-147.
X174.Y-149.
X174.Y-151.
X174.Y-153.
X174.Y-155.
X174.Y-157.
X174.Y-159.
X174.Y-161.
X176.5Y-51.
X176.5Y-53.
X176.5Y-55.
X176.5Y-57.
X176.5Y-59.
X176.5Y-61.
X176.5Y-65.
X176.5Y-67.
X176.5Y-69.
X176.5Y-71.
X176.5Y-73.
X176.5Y-75.
X176.5Y-77.
X176.5Y-79.
X176.5Y-81.
X176.5Y-83.
X176.5Y-85.
X176.5Y-87.
X176.5Y-89.
X176.5Y-91.
X176.5Y-93.
X176.5Y-95.
X176.5Y-97.
X176.5Y-99.
X176.5Y-101.
X176.5Y-111.
X176.5Y-113.
X176.5Y-115.
X176.5Y-117.
X176.5Y-119.
X176.5Y-121.
X176.5Y-125.
X176.5Y-127.
X176.5Y-129.
X176.5Y-131.
X176.5Y-133.
X176.5Y-135.
X176.5Y-137.
X176.5Y-139.
X176.5Y-141.
X176.5Y-143.
X176.5Y-145.
X176.5Y-147.
X176.5Y-149.
X176.5Y-151.
X176.5Y-153.
X176.5Y-155.
X176.5Y-157.
X176.5Y-159.
X176.5Y-161.
X178.5Y-52.
X178.5Y-54.
X178.5Y-56.
X178.5Y-58.
X178.5Y-60.
X178.5Y-64.
X178.5Y-66.
X178.5Y-68.
X178.5Y-70.
X178.5Y-72.
X178.5Y-74.
X178.5Y-76.
X178.5Y-78.
X178.5Y-80.
X178.5Y-82.
X178.5Y-84.
X178.5Y-86.
X178.5Y-88.
X178.5Y-90.
X178.5Y-92.
X178.5Y-94.
X178.5Y-96.
X178.5Y-98.
X178.5Y-100.
X178.5Y-112.
X178.5Y-114.
X178.5Y-116.
X178.5Y-118.
X178.5Y-120.
X178.5Y-124.
X178.5Y-126.
X178.5Y-128.
X178.5Y-130.
X178.5Y-132.
X178.5Y-134.
X178.5Y-136.
X178.5Y-138.
X178.5Y-140.
X178.5Y-142.
X178.5Y-144.
X178.5Y-146.
X178.5Y-148.
X178.5Y-150.
X178.5Y-152.
X178.5Y-154.
X178.5Y-156.
X178.5Y-158.
X178.5Y-160.
X112.Y-52.
X112.Y-54.
X112.Y-56.
X112.Y-58.
X112.Y-60.
X112.Y-64.
X112.Y-66.
X112.Y-68.
X112.Y-70.
X112.Y-72.
X112.Y-74.
X112.Y-76.
X112.Y-78.
X112.Y-80.
X112.Y-82.
X112.Y-84.
X112.Y-86.
X112.Y-88.
X112.Y-90.
X112.Y-92.
X112.Y-94.
X112.Y-96.
X112.Y-98.
X112.Y-100.
X112.Y-112.
X112.Y-114.
X112.Y-116.
X112.Y-118.
X112.Y-120.
X112.Y-124.
X112.Y-126.
X112.Y-128.
X112.Y-130.
X112.Y-132.
X112.Y-134.
X112.Y-136.
X112.Y-138.
X112.Y-140.
X112.Y-142.
X112.Y-144.
X112.Y-146.
X112.Y-148.
X112.Y-150.
X112.Y-152.
X112.Y-154.
X112.Y-156.
X112.Y-158.
X112.Y-160.
X114.Y-51.
X114.Y-53.
X114.Y-55.
X114.Y-57.
X114.Y-59.
X114.Y-61.
X114.Y-65.
X114.Y-67.
X114.Y-69.
X114.Y-71.
X114.Y-73.
X114.Y-75.
X114.Y-77.
X114.Y-79.
X114.Y-81.
X114.Y-83.
X114.Y-85.
X114.Y-87.
X114.Y-89.
X114.Y-91.
X114.Y-93.
X114.Y-95.
X114.Y-97.
X114.Y-99.
X114.Y-101.
X114.Y-111.
X114.Y-113.
X114.Y-115.
X114.Y-117.
X114.Y-119.
X114.Y-121.
X114.Y-125.
X114.Y-127.
X114.Y-129.
X114.Y-131.
X114.Y-133.
X114.Y-135.
X114.Y-137.
X114.Y-139.
X114.Y-141.
X114.Y-143.
X114.Y-145.
X114.Y-147.
X114.Y-149.
X114.Y-151.
X114.Y-153.
X114.Y-155.
X114.Y-157.
X114.Y-159.
X114.Y-161.
X116.5Y-51.
X116.5Y-53.
X116.5Y-55.
X116.5Y-57.
X116.5Y-59.
X116.5Y-61.
X116.5Y-65.
X116.5Y-67.
X116.5Y-69.
X116.5Y-71.
X116.5Y-73.
X116.5Y-75.
X116.5Y-77.
X116.5Y-79.
X116.5Y-81.
X116.5Y-83.
X116.5Y-85.
X116.5Y-87.
X116.5Y-89.
X116.5Y-91.
X116.5Y-93.
X116.5Y-95.
X116.5Y-97.
X116.5Y-99.
X116.5Y-101.
X116.5Y-111.
X116.5Y-113.
X116.5Y-115.
X116.5Y-117.
X116.5Y-119.
X116.5Y-121.
X116.5Y-125.
X116.5Y-127.
X116.5Y-129.
X116.5Y-131.
X116.5Y-133.
X116.5Y-135.
X116.5Y-137.
X116.5Y-139.
X116.5Y-141.
X116.5Y-143.
X116.5Y-145.
X116.5Y-147.
X116.5Y-149.
X116.5Y-151.
X116.5Y-153.
X116.5Y-155.
X116.5Y-157.
X116.5Y-159.
X116.5Y-161.
X118.5Y-52.
X118.5Y-54.
X118.5Y-56.
X118.5Y-58.
X118.5Y-60.
X118.5Y-64.
X118.5Y-66.
X118.5Y-68.
X118.5Y-70.
X118.5Y-72.
X118.5Y-74.
X118.5Y-76.
X118.5Y-78.
X118.5Y-80.
X118.5Y-82.
X118.5Y-84.
X118.5Y-86.
X118.5Y-88.
X118.5Y-90.
X118.5Y-92.
X118.5Y-94.
X118.5Y-96.
X118.5Y-98.
X118.5Y-100.
X118.5Y-112.
X118.5Y-114.
X118.5Y-116.
X118.5Y-118.
X118.5Y-120.
X118.5Y-124.
X118.5Y-126.
X118.5Y-128.
X118.5Y-130.
X118.5Y-132.
X118.5Y-134.
X118.5Y-136.
X118.5Y-138.
X118.5Y-140.
X118.5Y-142.
X118.5Y-144.
X118.5Y-146.
X118.5Y-148.
X118.5Y-150.
X118.5Y-152.
X118.5Y-154.
X118.5Y-156.
X118.5Y-158.
X118.5Y-160.
X217.Y-52.
X217.Y-54.
X217.Y-56.
X217.Y-58.
X217.Y-60.
X217.Y-64.
X217.Y-66.
X217.Y-68.
X217.Y-70.
X217.Y-72.
X217.Y-74.
X217.Y-76.
X217.Y-78.
X217.Y-80.
X217.Y-82.
X217.Y-84.
X217.Y-86.
X217.Y-88.
X217.Y-90.
X217.Y-92.
X217.Y-94.
X217.Y-96.
X217.Y-98.
X217.Y-100.
X217.Y-112.
X217.Y-114.
X217.Y-116.
X217.Y-118.
X217.Y-120.
X217.Y-124.
X217.Y-126.
X217.Y-128.
X217.Y-130.
X217.Y-132.
X217.Y-134.
X217.Y-136.
X217.Y-138.
X217.Y-140.
X217.Y-142.
X217.Y-144.
X217.Y-146.
X217.Y-148.
X217.Y-150.
X217.Y-152.
X217.Y-154.
X217.Y-156.
X217.Y-158.
X217.Y-160.
X219.Y-51.
X219.Y-53.
X219.Y-55.
X219.Y-57.
X219.Y-59.
X219.Y-61.
X219.Y-65.
X219.Y-67.
X219.Y-69.
X219.Y-71.
X219.Y-73.
X219.Y-75.
X219.Y-77.
X219.Y-79.
X219.Y-81.
X219.Y-83.
X219.Y-85.
X219.Y-87.
X219.Y-89.
X219.Y-91.
X219.Y-93.
X219.Y-95.
X219.Y-97.
X219.Y-99.
X219.Y-101.
X219.Y-111.
X219.Y-113.
X219.Y-115.
X219.Y-117.
X219.Y-119.
X219.Y-121.
X219.Y-125.
X219.Y-127.
X219.Y-129.
X219.Y-131.
X219.Y-133.
X219.Y-135.
X219.Y-137.
X219.Y-139.
X219.Y-141.
X219.Y-143.
X219.Y-145.
X219.Y-147.
X219.Y-149.
X219.Y-151.
X219.Y-153.
X219.Y-155.
X219.Y-157.
X219.Y-159.
X219.Y-161.
X221.5Y-51.
X221.5Y-53.
X221.5Y-55.
X221.5Y-57.
X221.5Y-59.
X221.5Y-61.
X221.5Y-65.
X221.5Y-67.
X221.5Y-69.
X221.5Y-71.
X221.5Y-73.
X221.5Y-75.
X221.5Y-77.
X221.5Y-79.
X221.5Y-81.
X221.5Y-83.
X221.5Y-85.
X221.5Y-87.
X221.5Y-89.
X221.5Y-91.
X221.5Y-93.
X221.5Y-95.
X221.5Y-97.
X221.5Y-99.
X221.5Y-101.
X221.5Y-111.
X221.5Y-113.
X221.5Y-115.
X221.5Y-117.
X221.5Y-119.
X221.5Y-121.
X221.5Y-125.
X221.5Y-127.
X221.5Y-129.
X221.5Y-131.
X221.5Y-133.
X221.5Y-135.
X221.5Y-137.
X221.5Y-139.
X221.5Y-141.
X221.5Y-143.
X221.5Y-145.
X221.5Y-147.
X221.5Y-149.
X221.5Y-151.
X221.5Y-153.
X221.5Y-155.
X221.5Y-157.
X221.5Y-159.
X221.5Y-161.
X223.5Y-52.
X223.5Y-54.
X223.5Y-56.
X223.5Y-58.
X223.5Y-60.
X223.5Y-64.
X223.5Y-66.
X223.5Y-68.
X223.5Y-70.
X223.5Y-72.
X223.5Y-74.
X223.5Y-76.
X223.5Y-78.
X223.5Y-80.
X223.5Y-82.
X223.5Y-84.
X223.5Y-86.
X223.5Y-88.
X223.5Y-90.
X223.5Y-92.
X223.5Y-94.
X223.5Y-96.
X223.5Y-98.
X223.5Y-100.
X223.5Y-112.
X223.5Y-114.
X223.5Y-116.
X223.5Y-118.
X223.5Y-120.
X223.5Y-124.
X223.5Y-126.
X223.5Y-128.
X223.5Y-130.
X223.5Y-132.
X223.5Y-134.
X223.5Y-136.
X223.5Y-138.
X223.5Y-140.
X223.5Y-142.
X223.5Y-144.
X223.5Y-146.
X223.5Y-148.
X223.5Y-150.
X223.5Y-152.
X223.5Y-154.
X223.5Y-156.
X223.5Y-158.
X223.5Y-160.
X82.Y-52.
X82.Y-54.
X82.Y-56.
X82.Y-58.
X82.Y-60.
X82.Y-64.
X82.Y-66.
X82.Y-68.
X82.Y-70.
X82.Y-72.
X82.Y-74.
X82.Y-76.
X82.Y-78.
X82.Y-80.
X82.Y-82.
X82.Y-84.
X82.Y-86.
X82.Y-88.
X82.Y-90.
X82.Y-92.
X82.Y-94.
X82.Y-96.
X82.Y-98.
X82.Y-100.
X82.Y-112.
X82.Y-114.
X82.Y-116.
X82.Y-118.
X82.Y-120.
X82.Y-124.
X82.Y-126.
X82.Y-128.
X82.Y-130.
X82.Y-132.
X82.Y-134.
X82.Y-136.
X82.Y-138.
X82.Y-140.
X82.Y-142.
X82.Y-144.
X82.Y-146.
X82.Y-148.
X82.Y-150.
X82.Y-152.
X82.Y-154.
X82.Y-156.
X82.Y-158.
X82.Y-160.
X84.Y-51.
X84.Y-53.
X84.Y-55.
X84.Y-57.
X84.Y-59.
X84.Y-61.
X84.Y-65.
X84.Y-67.
X84.Y-69.
X84.Y-71.
X84.Y-73.
X84.Y-75.
X84.Y-77.
X84.Y-79.
X84.Y-81.
X84.Y-83.
X84.Y-85.
X84.Y-87.
X84.Y-89.
X84.Y-91.
X84.Y-93.
X84.Y-95.
X84.Y-97.
X84.Y-99.
X84.Y-101.
X84.Y-111.
X84.Y-113.
X84.Y-115.
X84.Y-117.
X84.Y-119.
X84.Y-121.
X84.Y-125.
X84.Y-127.
X84.Y-129.
X84.Y-131.
X84.Y-133.
X84.Y-135.
X84.Y-137.
X84.Y-139.
X84.Y-141.
X84.Y-143.
X84.Y-145.
X84.Y-147.
X84.Y-149.
X84.Y-151.
X84.Y-153.
X84.Y-155.
X84.Y-157.
X84.Y-159.
X84.Y-161.
X86.5Y-51.
X86.5Y-53.
X86.5Y-55.
X86.5Y-57.
X86.5Y-59.
X86.5Y-61.
X86.5Y-65.
X86.5Y-67.
X86.5Y-69.
X86.5Y-71.
X86.5Y-73.
X86.5Y-75.
X86.5Y-77.
X86.5Y-79.
X86.5Y-81.
X86.5Y-83.
X86.5Y-85.
X86.5Y-87.
X86.5Y-89.
X86.5Y-91.
X86.5Y-93.
X86.5Y-95.
X86.5Y-97.
X86.5Y-99.
X86.5Y-101.
X86.5Y-111.
X86.5Y-113.
X86.5Y-115.
X86.5Y-117.
X86.5Y-119.
X86.5Y-121.
X86.5Y-125.
X86.5Y-127.
X86.5Y-129.
X86.5Y-131.
X86.5Y-133.
X86.5Y-135.
X86.5Y-137.
X86.5Y-139.
X86.5Y-141.
X86.5Y-143.
X86.5Y-145.
X86.5Y-147.
X86.5Y-149.
X86.5Y-151.
X86.5Y-153.
X86.5Y-155.
X86.5Y-157.
X86.5Y-159.
X86.5Y-161.
X88.5Y-52.
X88.5Y-54.
X88.5Y-56.
X88.5Y-58.
X88.5Y-60.
X88.5Y-64.
X88.5Y-66.
X88.5Y-68.
X88.5Y-70.
X88.5Y-72.
X88.5Y-74.
X88.5Y-76.
X88.5Y-78.
X88.5Y-80.
X88.5Y-82.
X88.5Y-84.
X88.5Y-86.
X88.5Y-88.
X88.5Y-90.
X88.5Y-92.
X88.5Y-94.
X88.5Y-96.
X88.5Y-98.
X88.5Y-100.
X88.5Y-112.
X88.5Y-114.
X88.5Y-116.
X88.5Y-118.
X88.5Y-120.
X88.5Y-124.
X88.5Y-126.
X88.5Y-128.
X88.5Y-130.
X88.5Y-132.
X88.5Y-134.
X88.5Y-136.
X88.5Y-138.
X88.5Y-140.
X88.5Y-142.
X88.5Y-144.
X88.5Y-146.
X88.5Y-148.
X88.5Y-150.
X88.5Y-152.
X88.5Y-154.
X88.5Y-156.
X88.5Y-158.
X88.5Y-160.
X232.Y-52.
X232.Y-54.
X232.Y-56.
X232.Y-58.
X232.Y-60.
X232.Y-64.
X232.Y-66.
X232.Y-68.
X232.Y-70.
X232.Y-72.
X232.Y-74.
X232.Y-76.
X232.Y-78.
X232.Y-80.
X232.Y-82.
X232.Y-84.
X232.Y-86.
X232.Y-88.
X232.Y-90.
X232.Y-92.
X232.Y-94.
X232.Y-96.
X232.Y-98.
X232.Y-100.
X232.Y-112.
X232.Y-114.
X232.Y-116.
X232.Y-118.
X232.Y-120.
X232.Y-124.
X232.Y-126.
X232.Y-128.
X232.Y-130.
X232.Y-132.
X232.Y-134.
X232.Y-136.
X232.Y-138.
X232.Y-140.
X232.Y-142.
X232.Y-144.
X232.Y-146.
X232.Y-148.
X232.Y-150.
X232.Y-152.
X232.Y-154.
X232.Y-156.
X232.Y-158.
X232.Y-160.
X234.Y-51.
X234.Y-53.
X234.Y-55.
X234.Y-57.
X234.Y-59.
X234.Y-61.
X234.Y-65.
X234.Y-67.
X234.Y-69.
X234.Y-71.
X234.Y-73.
X234.Y-75.
X234.Y-77.
X234.Y-79.
X234.Y-81.
X234.Y-83.
X234.Y-85.
X234.Y-87.
X234.Y-89.
X234.Y-91.
X234.Y-93.
X234.Y-95.
X234.Y-97.
X234.Y-99.
X234.Y-101.
X234.Y-111.
X234.Y-113.
X234.Y-115.
X234.Y-117.
X234.Y-119.
X234.Y-121.
X234.Y-125.
X234.Y-127.
X234.Y-129.
X234.Y-131.
X234.Y-133.
X234.Y-135.
X234.Y-137.
X234.Y-139.
X234.Y-141.
X234.Y-143.
X234.Y-145.
X234.Y-147.
X234.Y-149.
X234.Y-151.
X234.Y-153.
X234.Y-155.
X234.Y-157.
X234.Y-159.
X234.Y-161.
X236.5Y-51.
X236.5Y-53.
X236.5Y-55.
X236.5Y-57.
X236.5Y-59.
X236.5Y-61.
X236.5Y-65.
X236.5Y-67.
X236.5Y-69.
X236.5Y-71.
X236.5Y-73.
X236.5Y-75.
X236.5Y-77.
X236.5Y-79.
X236.5Y-81.
X236.5Y-83.
X236.5Y-85.
X236.5Y-87.
X236.5Y-89.
X236.5Y-91.
X236.5Y-93.
X236.5Y-95.
X236.5Y-97.
X236.5Y-99.
X236.5Y-101.
X236.5Y-111.
X236.5Y-113.
X236.5Y-115.
X236.5Y-117.
X236.5Y-119.
X236.5Y-121.
X236.5Y-125.
X236.5Y-127.
X236.5Y-129.
X236.5Y-131.
X236.5Y-133.
X236.5Y-135.
X236.5Y-137.
X236.5Y-139.
X236.5Y-141.
X236.5Y-143.
X236.5Y-145.
X236.5Y-147.
X236.5Y-149.
X236.5Y-151.
X236.5Y-153.
X236.5Y-155.
X236.5Y-157.
X236.5Y-159.
X236.5Y-161.
X238.5Y-52.
X238.5Y-54.
X238.5Y-56.
X238.5Y-58.
X238.5Y-60.
X238.5Y-64.
X238.5Y-66.
X238.5Y-68.
X238.5Y-70.
X238.5Y-72.
X238.5Y-74.
X238.5Y-76.
X238.5Y-78.
X238.5Y-80.
X238.5Y-82.
X238.5Y-84.
X238.5Y-86.
X238.5Y-88.
X238.5Y-90.
X238.5Y-92.
X238.5Y-94.
X238.5Y-96.
X238.5Y-98.
X238.5Y-100.
X238.5Y-112.
X238.5Y-114.
X238.5Y-116.
X238.5Y-118.
X238.5Y-120.
X238.5Y-124.
X238.5Y-126.
X238.5Y-128.
X238.5Y-130.
X238.5Y-132.
X238.5Y-134.
X238.5Y-136.
X238.5Y-138.
X238.5Y-140.
X238.5Y-142.
X238.5Y-144.
X238.5Y-146.
X238.5Y-148.
X238.5Y-150.
X238.5Y-152.
X238.5Y-154.
X238.5Y-156.
X238.5Y-158.
X238.5Y-160.
X187.Y-52.
X187.Y-54.
X187.Y-56.
X187.Y-58.
X187.Y-60.
X187.Y-64.
X187.Y-66.
X187.Y-68.
X187.Y-70.
X187.Y-72.
X187.Y-74.
X187.Y-76.
X187.Y-78.
X187.Y-80.
X187.Y-82.
X187.Y-84.
X187.Y-86.
X187.Y-88.
X187.Y-90.
X187.Y-92.
X187.Y-94.
X187.Y-96.
X187.Y-98.
X187.Y-100.
X187.Y-112.
X187.Y-114.
X187.Y-116.
X187.Y-118.
X187.Y-120.
X187.Y-124.
X187.Y-126.
X187.Y-128.
X187.Y-130.
X187.Y-132.
X187.Y-134.
X187.Y-136.
X187.Y-138.
X187.Y-140.
X187.Y-142.
X187.Y-144.
X187.Y-146.
X187.Y-148.
X187.Y-150.
X187.Y-152.
X187.Y-154.
X187.Y-156.
X187.Y-158.
X187.Y-160.
X189.Y-51.
X189.Y-53.
X189.Y-55.
X189.Y-57.
X189.Y-59.
X189.Y-61.
X189.Y-65.
X189.Y-67.
X189.Y-69.
X189.Y-71.
X189.Y-73.
X189.Y-75.
X189.Y-77.
X189.Y-79.
X189.Y-81.
X189.Y-83.
X189.Y-85.
X189.Y-87.
X189.Y-89.
X189.Y-91.
X189.Y-93.
X189.Y-95.
X189.Y-97.
X189.Y-99.
X189.Y-101.
X189.Y-111.
X189.Y-113.
X189.Y-115.
X189.Y-117.
X189.Y-119.
X189.Y-121.
X189.Y-125.
X189.Y-127.
X189.Y-129.
X189.Y-131.
X189.Y-133.
X189.Y-135.
X189.Y-137.
X189.Y-139.
X189.Y-141.
X189.Y-143.
X189.Y-145.
X189.Y-147.
X189.Y-149.
X189.Y-151.
X189.Y-153.
X189.Y-155.
X189.Y-157.
X189.Y-159.
X189.Y-161.
X191.5Y-51.
X191.5Y-53.
X191.5Y-55.
X191.5Y-57.
X191.5Y-59.
X191.5Y-61.
X191.5Y-65.
X191.5Y-67.
X191.5Y-69.
X191.5Y-71.
X191.5Y-73.
X191.5Y-75.
X191.5Y-77.
X191.5Y-79.
X191.5Y-81.
X191.5Y-83.
X191.5Y-85.
X191.5Y-87.
X191.5Y-89.
X191.5Y-91.
X191.5Y-93.
X191.5Y-95.
X191.5Y-97.
X191.5Y-99.
X191.5Y-101.
X191.5Y-111.
X191.5Y-113.
X191.5Y-115.
X191.5Y-117.
X191.5Y-119.
X191.5Y-121.
X191.5Y-125.
X191.5Y-127.
X191.5Y-129.
X191.5Y-131.
X191.5Y-133.
X191.5Y-135.
X191.5Y-137.
X191.5Y-139.
X191.5Y-141.
X191.5Y-143.
X191.5Y-145.
X191.5Y-147.
X191.5Y-149.
X191.5Y-151.
X191.5Y-153.
X191.5Y-155.
X191.5Y-157.
X191.5Y-159.
X191.5Y-161.
X193.5Y-52.
X193.5Y-54.
X193.5Y-56.
X193.5Y-58.
X193.5Y-60.
X193.5Y-64.
X193.5Y-66.
X193.5Y-68.
X193.5Y-70.
X193.5Y-72.
X193.5Y-74.
X193.5Y-76.
X193.5Y-78.
X193.5Y-80.
X193.5Y-82.
X193.5Y-84.
X193.5Y-86.
X193.5Y-88.
X193.5Y-90.
X193.5Y-92.
X193.5Y-94.
X193.5Y-96.
X193.5Y-98.
X193.5Y-100.
X193.5Y-112.
X193.5Y-114.
X193.5Y-116.
X193.5Y-118.
X193.5Y-120.
X193.5Y-124.
X193.5Y-126.
X193.5Y-128.
X193.5Y-130.
X193.5Y-132.
X193.5Y-134.
X193.5Y-136.
X193.5Y-138.
X193.5Y-140.
X193.5Y-142.
X193.5Y-144.
X193.5Y-146.
X193.5Y-148.
X193.5Y-150.
X193.5Y-152.
X193.5Y-154.
X193.5Y-156.
X193.5Y-158.
X193.5Y-160.
X97.Y-52.
X97.Y-54.
X97.Y-56.
X97.Y-58.
X97.Y-60.
X97.Y-64.
X97.Y-66.
X97.Y-68.
X97.Y-70.
X97.Y-72.
X97.Y-74.
X97.Y-76.
X97.Y-78.
X97.Y-80.
X97.Y-82.
X97.Y-84.
X97.Y-86.
X97.Y-88.
X97.Y-90.
X97.Y-92.
X97.Y-94.
X97.Y-96.
X97.Y-98.
X97.Y-100.
X97.Y-112.
X97.Y-114.
X97.Y-116.
X97.Y-118.
X97.Y-120.
X97.Y-124.
X97.Y-126.
X97.Y-128.
X97.Y-130.
X97.Y-132.
X97.Y-134.
X97.Y-136.
X97.Y-138.
X97.Y-140.
X97.Y-142.
X97.Y-144.
X97.Y-146.
X97.Y-148.
X97.Y-150.
X97.Y-152.
X97.Y-154.
X97.Y-156.
X97.Y-158.
X97.Y-160.
X99.Y-51.
X99.Y-53.
X99.Y-55.
X99.Y-57.
X99.Y-59.
X99.Y-61.
X99.Y-65.
X99.Y-67.
X99.Y-69.
X99.Y-71.
X99.Y-73.
X99.Y-75.
X99.Y-77.
X99.Y-79.
X99.Y-81.
X99.Y-83.
X99.Y-85.
X99.Y-87.
X99.Y-89.
X99.Y-91.
X99.Y-93.
X99.Y-95.
X99.Y-97.
X99.Y-99.
X99.Y-101.
X99.Y-111.
X99.Y-113.
X99.Y-115.
X99.Y-117.
X99.Y-119.
X99.Y-121.
X99.Y-125.
X99.Y-127.
X99.Y-129.
X99.Y-131.
X99.Y-133.
X99.Y-135.
X99.Y-137.
X99.Y-139.
X99.Y-141.
X99.Y-143.
X99.Y-145.
X99.Y-147.
X99.Y-149.
X99.Y-151.
X99.Y-153.
X99.Y-155.
X99.Y-157.
X99.Y-159.
X99.Y-161.
X101.5Y-51.
X101.5Y-53.
X101.5Y-55.
X101.5Y-57.
X101.5Y-59.
X101.5Y-61.
X101.5Y-65.
X101.5Y-67.
X101.5Y-69.
X101.5Y-71.
X101.5Y-73.
X101.5Y-75.
X101.5Y-77.
X101.5Y-79.
X101.5Y-81.
X101.5Y-83.
X101.5Y-85.
X101.5Y-87.
X101.5Y-89.
X101.5Y-91.
X101.5Y-93.
X101.5Y-95.
X101.5Y-97.
X101.5Y-99.
X101.5Y-101.
X101.5Y-111.
X101.5Y-113.
X101.5Y-115.
X101.5Y-117.
X101.5Y-119.
X101.5Y-121.
X101.5Y-125.
X101.5Y-127.
X101.5Y-129.
X101.5Y-131.
X101.5Y-133.
X101.5Y-135.
X101.5Y-137.
X101.5Y-139.
X101.5Y-141.
X101.5Y-143.
X101.5Y-145.
X101.5Y-147.
X101.5Y-149.
X101.5Y-151.
X101.5Y-153.
X101.5Y-155.
X101.5Y-157.
X101.5Y-159.
X101.5Y-161.
X103.5Y-52.
X103.5Y-54.
X103.5Y-56.
X103.5Y-58.
X103.5Y-60.
X103.5Y-64.
X103.5Y-66.
X103.5Y-68.
X103.5Y-70.
X103.5Y-72.
X103.5Y-74.
X103.5Y-76.
X103.5Y-78.
X103.5Y-80.
X103.5Y-82.
X103.5Y-84.
X103.5Y-86.
X103.5Y-88.
X103.5Y-90.
X103.5Y-92.
X103.5Y-94.
X103.5Y-96.
X103.5Y-98.
X103.5Y-100.
X103.5Y-112.
X103.5Y-114.
X103.5Y-116.
X103.5Y-118.
X103.5Y-120.
X103.5Y-124.
X103.5Y-126.
X103.5Y-128.
X103.5Y-130.
X103.5Y-132.
X103.5Y-134.
X103.5Y-136.
X103.5Y-138.
X103.5Y-140.
X103.5Y-142.
X103.5Y-144.
X103.5Y-146.
X103.5Y-148.
X103.5Y-150.
X103.5Y-152.
X103.5Y-154.
X103.5Y-156.
X103.5Y-158.
X103.5Y-160.
X67.Y-52.
X67.Y-54.
X67.Y-56.
X67.Y-58.
X67.Y-60.
X67.Y-64.
X67.Y-66.
X67.Y-68.
X67.Y-70.
X67.Y-72.
X67.Y-74.
X67.Y-76.
X67.Y-78.
X67.Y-80.
X67.Y-82.
X67.Y-84.
X67.Y-86.
X67.Y-88.
X67.Y-90.
X67.Y-92.
X67.Y-94.
X67.Y-96.
X67.Y-98.
X67.Y-100.
X67.Y-112.
X67.Y-114.
X67.Y-116.
X67.Y-118.
X67.Y-120.
X67.Y-124.
X67.Y-126.
X67.Y-128.
X67.Y-130.
X67.Y-132.
X67.Y-134.
X67.Y-136.
X67.Y-138.
X67.Y-140.
X67.Y-142.
X67.Y-144.
X67.Y-146.
X67.Y-148.
X67.Y-150.
X67.Y-152.
X67.Y-154.
X67.Y-156.
X67.Y-158.
X67.Y-160.
X69.Y-51.
X69.Y-53.
X69.Y-55.
X69.Y-57.
X69.Y-59.
X69.Y-61.
X69.Y-65.
X69.Y-67.
X69.Y-69.
X69.Y-71.
X69.Y-73.
X69.Y-75.
X69.Y-77.
X69.Y-79.
X69.Y-81.
X69.Y-83.
X69.Y-85.
X69.Y-87.
X69.Y-89.
X69.Y-91.
X69.Y-93.
X69.Y-95.
X69.Y-97.
X69.Y-99.
X69.Y-101.
X69.Y-111.
X69.Y-113.
X69.Y-115.
X69.Y-117.
X69.Y-119.
X69.Y-121.
X69.Y-125.
X69.Y-127.
X69.Y-129.
X69.Y-131.
X69.Y-133.
X69.Y-135.
X69.Y-137.
X69.Y-139.
X69.Y-141.
X69.Y-143.
X69.Y-145.
X69.Y-147.
X69.Y-149.
X69.Y-151.
X69.Y-153.
X69.Y-155.
X69.Y-157.
X69.Y-159.
X69.Y-161.
X71.5Y-51.
X71.5Y-53.
X71.5Y-55.
X71.5Y-57.
X71.5Y-59.
X71.5Y-61.
X71.5Y-65.
X71.5Y-67.
X71.5Y-69.
X71.5Y-71.
X71.5Y-73.
X71.5Y-75.
X71.5Y-77.
X71.5Y-79.
X71.5Y-81.
X71.5Y-83.
X71.5Y-85.
X71.5Y-87.
X71.5Y-89.
X71.5Y-91.
X71.5Y-93.
X71.5Y-95.
X71.5Y-97.
X71.5Y-99.
X71.5Y-101.
X71.5Y-111.
X71.5Y-113.
X71.5Y-115.
X71.5Y-117.
X71.5Y-119.
X71.5Y-121.
X71.5Y-125.
X71.5Y-127.
X71.5Y-129.
X71.5Y-131.
X71.5Y-133.
X71.5Y-135.
X71.5Y-137.
X71.5Y-139.
X71.5Y-141.
X71.5Y-143.
X71.5Y-145.
X71.5Y-147.
X71.5Y-149.
X71.5Y-151.
X71.5Y-153.
X71.5Y-155.
X71.5Y-157.
X71.5Y-159.
X71.5Y-161.
X73.5Y-52.
X73.5Y-54.
X73.5Y-56.
X73.5Y-58.
X73.5Y-60.
X73.5Y-64.
X73.5Y-66.
X73.5Y-68.
X73.5Y-70.
X73.5Y-72.
X73.5Y-74.
X73.5Y-76.
X73.5Y-78.
X73.5Y-80.
X73.5Y-82.
X73.5Y-84.
X73.5Y-86.
X73.5Y-88.
X73.5Y-90.
X73.5Y-92.
X73.5Y-94.
X73.5Y-96.
X73.5Y-98.
X73.5Y-100.
X73.5Y-112.
X73.5Y-114.
X73.5Y-116.
X73.5Y-118.
X73.5Y-120.
X73.5Y-124.
X73.5Y-126.
X73.5Y-128.
X73.5Y-130.
X73.5Y-132.
X73.5Y-134.
X73.5Y-136.
X73.5Y-138.
X73.5Y-140.
X73.5Y-142.
X73.5Y-144.
X73.5Y-146.
X73.5Y-148.
X73.5Y-150.
X73.5Y-152.
X73.5Y-154.
X73.5Y-156.
X73.5Y-158.
X73.5Y-160.
X127.Y-52.
X127.Y-54.
X127.Y-56.
X127.Y-58.
X127.Y-60.
X127.Y-64.
X127.Y-66.
X127.Y-68.
X127.Y-70.
X127.Y-72.
X127.Y-74.
X127.Y-76.
X127.Y-78.
X127.Y-80.
X127.Y-82.
X127.Y-84.
X127.Y-86.
X127.Y-88.
X127.Y-90.
X127.Y-92.
X127.Y-94.
X127.Y-96.
X127.Y-98.
X127.Y-100.
X127.Y-112.
X127.Y-114.
X127.Y-116.
X127.Y-118.
X127.Y-120.
X127.Y-124.
X127.Y-126.
X127.Y-128.
X127.Y-130.
X127.Y-132.
X127.Y-134.
X127.Y-136.
X127.Y-138.
X127.Y-140.
X127.Y-142.
X127.Y-144.
X127.Y-146.
X127.Y-148.
X127.Y-150.
X127.Y-152.
X127.Y-154.
X127.Y-156.
X127.Y-158.
X127.Y-160.
X129.Y-51.
X129.Y-53.
X129.Y-55.
X129.Y-57.
X129.Y-59.
X129.Y-61.
X129.Y-65.
X129.Y-67.
X129.Y-69.
X129.Y-71.
X129.Y-73.
X129.Y-75.
X129.Y-77.
X129.Y-79.
X129.Y-81.
X129.Y-83.
X129.Y-85.
X129.Y-87.
X129.Y-89.
X129.Y-91.
X129.Y-93.
X129.Y-95.
X129.Y-97.
X129.Y-99.
X129.Y-101.
X129.Y-111.
X129.Y-113.
X129.Y-115.
X129.Y-117.
X129.Y-119.
X129.Y-121.
X129.Y-125.
X129.Y-127.
X129.Y-129.
X129.Y-131.
X129.Y-133.
X129.Y-135.
X129.Y-137.
X129.Y-139.
X129.Y-141.
X129.Y-143.
X129.Y-145.
X129.Y-147.
X129.Y-149.
X129.Y-151.
X129.Y-153.
X129.Y-155.
X129.Y-157.
X129.Y-159.
X129.Y-161.
X131.5Y-51.
X131.5Y-53.
X131.5Y-55.
X131.5Y-57.
X131.5Y-59.
X131.5Y-61.
X131.5Y-65.
X131.5Y-67.
X131.5Y-69.
X131.5Y-71.
X131.5Y-73.
X131.5Y-75.
X131.5Y-77.
X131.5Y-79.
X131.5Y-81.
X131.5Y-83.
X131.5Y-85.
X131.5Y-87.
X131.5Y-89.
X131.5Y-91.
X131.5Y-93.
X131.5Y-95.
X131.5Y-97.
X131.5Y-99.
X131.5Y-101.
X131.5Y-111.
X131.5Y-113.
X131.5Y-115.
X131.5Y-117.
X131.5Y-119.
X131.5Y-121.
X131.5Y-125.
X131.5Y-127.
X131.5Y-129.
X131.5Y-131.
X131.5Y-133.
X131.5Y-135.
X131.5Y-137.
X131.5Y-139.
X131.5Y-141.
X131.5Y-143.
X131.5Y-145.
X131.5Y-147.
X131.5Y-149.
X131.5Y-151.
X131.5Y-153.
X131.5Y-155.
X131.5Y-157.
X131.5Y-159.
X131.5Y-161.
X133.5Y-52.
X133.5Y-54.
X133.5Y-56.
X133.5Y-58.
X133.5Y-60.
X133.5Y-64.
X133.5Y-66.
X133.5Y-68.
X133.5Y-70.
X133.5Y-72.
X133.5Y-74.
X133.5Y-76.
X133.5Y-78.
X133.5Y-80.
X133.5Y-82.
X133.5Y-84.
X133.5Y-86.
X133.5Y-88.
X133.5Y-90.
X133.5Y-92.
X133.5Y-94.
X133.5Y-96.
X133.5Y-98.
X133.5Y-100.
X133.5Y-112.
X133.5Y-114.
X133.5Y-116.
X133.5Y-118.
X133.5Y-120.
X133.5Y-124.
X133.5Y-126.
X133.5Y-128.
X133.5Y-130.
X133.5Y-132.
X133.5Y-134.
X133.5Y-136.
X133.5Y-138.
X133.5Y-140.
X133.5Y-142.
X133.5Y-144.
X133.5Y-146.
X133.5Y-148.
X133.5Y-150.
X133.5Y-152.
X133.5Y-154.
X133.5Y-156.
X133.5Y-158.
X133.5Y-160.
T0
M30
