G04 #@! TF.GenerationSoftware,KiCad,Pcbnew,(5.0.0-rc2-35-gda6600525)*
G04 #@! TF.CreationDate,2018-07-07T21:23:26-07:00*
G04 #@! TF.ProjectId,register-motherboard,72656769737465722D6D6F7468657262,rev?*
G04 #@! TF.SameCoordinates,Original*
G04 #@! TF.FileFunction,Soldermask,Bot*
G04 #@! TF.FilePolarity,Negative*
%FSLAX46Y46*%
G04 Gerber Fmt 4.6, Leading zero omitted, Abs format (unit mm)*
G04 Created by KiCad (PCBNEW (5.0.0-rc2-35-gda6600525)) date 07/07/18 21:23:26*
%MOMM*%
%LPD*%
G01*
G04 APERTURE LIST*
%ADD10C,2.600000*%
%ADD11C,2.750000*%
%ADD12C,1.550000*%
%ADD13R,1.150000X1.150000*%
%ADD14R,0.760000X0.430000*%
G04 APERTURE END LIST*
D10*
G04 #@! TO.C,REF\002A\002A*
X197000000Y-167000000D03*
G04 #@! TD*
G04 #@! TO.C,REF\002A\002A*
X256000000Y-167000000D03*
G04 #@! TD*
G04 #@! TO.C,REF\002A\002A*
X137000000Y-167000000D03*
G04 #@! TD*
G04 #@! TO.C,REF\002A\002A*
X107000000Y-167000000D03*
G04 #@! TD*
G04 #@! TO.C,REF\002A\002A*
X48000000Y-167000000D03*
G04 #@! TD*
G04 #@! TO.C,REF\002A\002A*
X167000000Y-167000000D03*
G04 #@! TD*
G04 #@! TO.C,REF\002A\002A*
X167000000Y-45000000D03*
G04 #@! TD*
G04 #@! TO.C,REF\002A\002A*
X137000000Y-45000000D03*
G04 #@! TD*
G04 #@! TO.C,REF\002A\002A*
X107000000Y-45000000D03*
G04 #@! TD*
G04 #@! TO.C,REF\002A\002A*
X48000000Y-45000000D03*
G04 #@! TD*
G04 #@! TO.C,REF\002A\002A*
X197000000Y-45000000D03*
G04 #@! TD*
G04 #@! TO.C,REF\002A\002A*
X256000000Y-45000000D03*
G04 #@! TD*
G04 #@! TO.C,REF\002A\002A*
X48000000Y-106000000D03*
G04 #@! TD*
G04 #@! TO.C,REF\002A\002A*
X152000000Y-106000000D03*
G04 #@! TD*
G04 #@! TO.C,REF\002A\002A*
X92000000Y-106000000D03*
G04 #@! TD*
G04 #@! TO.C,REF\002A\002A*
X256000000Y-106000000D03*
G04 #@! TD*
G04 #@! TO.C,REF\002A\002A*
X212000000Y-106000000D03*
G04 #@! TD*
D11*
G04 #@! TO.C,P1*
X235250000Y-162950000D03*
X235250000Y-122650000D03*
X235250000Y-102950000D03*
X235250000Y-62650000D03*
D12*
X236500000Y-111000000D03*
X236500000Y-113000000D03*
X236500000Y-115000000D03*
X238500000Y-112000000D03*
X238500000Y-114000000D03*
X238500000Y-116000000D03*
X234000000Y-111000000D03*
X232000000Y-114000000D03*
X234000000Y-113000000D03*
X234000000Y-115000000D03*
X232000000Y-112000000D03*
X236500000Y-117000000D03*
X236500000Y-121000000D03*
X236500000Y-119000000D03*
X238500000Y-118000000D03*
X238500000Y-120000000D03*
X232000000Y-116000000D03*
X232000000Y-118000000D03*
X234000000Y-117000000D03*
X234000000Y-119000000D03*
X232000000Y-120000000D03*
X234000000Y-121000000D03*
X232000000Y-124000000D03*
X232000000Y-128000000D03*
X234000000Y-125000000D03*
X234000000Y-127000000D03*
X232000000Y-126000000D03*
X236500000Y-127000000D03*
X238500000Y-128000000D03*
X238500000Y-126000000D03*
X238500000Y-124000000D03*
X236500000Y-125000000D03*
X232000000Y-152000000D03*
X232000000Y-156000000D03*
X232000000Y-154000000D03*
X234000000Y-151000000D03*
X234000000Y-157000000D03*
X234000000Y-155000000D03*
X234000000Y-153000000D03*
X232000000Y-150000000D03*
X234000000Y-143000000D03*
X232000000Y-148000000D03*
X232000000Y-146000000D03*
X232000000Y-144000000D03*
X234000000Y-149000000D03*
X234000000Y-145000000D03*
X234000000Y-147000000D03*
X232000000Y-160000000D03*
X234000000Y-159000000D03*
X232000000Y-158000000D03*
X234000000Y-161000000D03*
X236500000Y-161000000D03*
X236500000Y-159000000D03*
X238500000Y-160000000D03*
X238500000Y-158000000D03*
X236500000Y-149000000D03*
X236500000Y-151000000D03*
X238500000Y-152000000D03*
X238500000Y-150000000D03*
X236500000Y-157000000D03*
X236500000Y-153000000D03*
X238500000Y-156000000D03*
X238500000Y-154000000D03*
X236500000Y-155000000D03*
X236500000Y-147000000D03*
X236500000Y-145000000D03*
X238500000Y-144000000D03*
X236500000Y-143000000D03*
X238500000Y-146000000D03*
X238500000Y-148000000D03*
X236500000Y-139000000D03*
X238500000Y-142000000D03*
X236500000Y-141000000D03*
X238500000Y-140000000D03*
X238500000Y-138000000D03*
X238500000Y-136000000D03*
X232000000Y-142000000D03*
X232000000Y-138000000D03*
X232000000Y-136000000D03*
X234000000Y-141000000D03*
X234000000Y-139000000D03*
X232000000Y-140000000D03*
X234000000Y-135000000D03*
X234000000Y-137000000D03*
X236500000Y-137000000D03*
X236500000Y-135000000D03*
X238500000Y-134000000D03*
X234000000Y-133000000D03*
X232000000Y-134000000D03*
X232000000Y-132000000D03*
X232000000Y-130000000D03*
X234000000Y-131000000D03*
X234000000Y-129000000D03*
X236500000Y-133000000D03*
X236500000Y-131000000D03*
X238500000Y-132000000D03*
X238500000Y-130000000D03*
X236500000Y-129000000D03*
D13*
X234000000Y-51000000D03*
D12*
X236500000Y-51000000D03*
X232000000Y-52000000D03*
X232000000Y-54000000D03*
X232000000Y-56000000D03*
X232000000Y-58000000D03*
X234000000Y-53000000D03*
X234000000Y-55000000D03*
X234000000Y-57000000D03*
X234000000Y-59000000D03*
X236500000Y-53000000D03*
X236500000Y-55000000D03*
X236500000Y-57000000D03*
X236500000Y-59000000D03*
X238500000Y-52000000D03*
X238500000Y-54000000D03*
X238500000Y-56000000D03*
X238500000Y-58000000D03*
X232000000Y-60000000D03*
X238500000Y-60000000D03*
X234000000Y-61000000D03*
X236500000Y-61000000D03*
X232000000Y-100000000D03*
X232000000Y-92000000D03*
X232000000Y-90000000D03*
X232000000Y-94000000D03*
X232000000Y-96000000D03*
X232000000Y-98000000D03*
X232000000Y-88000000D03*
X232000000Y-86000000D03*
X232000000Y-64000000D03*
X232000000Y-66000000D03*
X232000000Y-68000000D03*
X232000000Y-82000000D03*
X232000000Y-80000000D03*
X232000000Y-84000000D03*
X232000000Y-74000000D03*
X232000000Y-72000000D03*
X232000000Y-70000000D03*
X232000000Y-78000000D03*
X232000000Y-76000000D03*
X234000000Y-91000000D03*
X234000000Y-89000000D03*
X234000000Y-93000000D03*
X234000000Y-81000000D03*
X234000000Y-79000000D03*
X234000000Y-83000000D03*
X234000000Y-71000000D03*
X234000000Y-69000000D03*
X234000000Y-73000000D03*
X234000000Y-99000000D03*
X234000000Y-97000000D03*
X234000000Y-95000000D03*
X234000000Y-101000000D03*
X234000000Y-85000000D03*
X234000000Y-87000000D03*
X234000000Y-75000000D03*
X234000000Y-77000000D03*
X234000000Y-65000000D03*
X234000000Y-67000000D03*
X236500000Y-101000000D03*
X236500000Y-97000000D03*
X236500000Y-95000000D03*
X236500000Y-99000000D03*
X236500000Y-93000000D03*
X236500000Y-89000000D03*
X236500000Y-87000000D03*
X236500000Y-85000000D03*
X236500000Y-91000000D03*
X236500000Y-83000000D03*
X236500000Y-79000000D03*
X236500000Y-77000000D03*
X236500000Y-75000000D03*
X236500000Y-81000000D03*
X236500000Y-73000000D03*
X236500000Y-69000000D03*
X236500000Y-67000000D03*
X236500000Y-65000000D03*
X236500000Y-71000000D03*
X238500000Y-100000000D03*
X238500000Y-98000000D03*
X238500000Y-96000000D03*
X238500000Y-94000000D03*
X238500000Y-92000000D03*
X238500000Y-90000000D03*
X238500000Y-88000000D03*
X238500000Y-86000000D03*
X238500000Y-84000000D03*
X238500000Y-82000000D03*
X238500000Y-80000000D03*
X238500000Y-78000000D03*
X238500000Y-76000000D03*
X238500000Y-74000000D03*
X238500000Y-72000000D03*
X238500000Y-70000000D03*
X238500000Y-68000000D03*
X238500000Y-66000000D03*
X238500000Y-64000000D03*
G04 #@! TD*
G04 #@! TO.C,P2*
X223500000Y-64000000D03*
X223500000Y-66000000D03*
X223500000Y-68000000D03*
X223500000Y-70000000D03*
X223500000Y-72000000D03*
X223500000Y-74000000D03*
X223500000Y-76000000D03*
X223500000Y-78000000D03*
X223500000Y-80000000D03*
X223500000Y-82000000D03*
X223500000Y-84000000D03*
X223500000Y-86000000D03*
X223500000Y-88000000D03*
X223500000Y-90000000D03*
X223500000Y-92000000D03*
X223500000Y-94000000D03*
X223500000Y-96000000D03*
X223500000Y-98000000D03*
X223500000Y-100000000D03*
X221500000Y-71000000D03*
X221500000Y-65000000D03*
X221500000Y-67000000D03*
X221500000Y-69000000D03*
X221500000Y-73000000D03*
X221500000Y-81000000D03*
X221500000Y-75000000D03*
X221500000Y-77000000D03*
X221500000Y-79000000D03*
X221500000Y-83000000D03*
X221500000Y-91000000D03*
X221500000Y-85000000D03*
X221500000Y-87000000D03*
X221500000Y-89000000D03*
X221500000Y-93000000D03*
X221500000Y-99000000D03*
X221500000Y-95000000D03*
X221500000Y-97000000D03*
X221500000Y-101000000D03*
X219000000Y-67000000D03*
X219000000Y-65000000D03*
X219000000Y-77000000D03*
X219000000Y-75000000D03*
X219000000Y-87000000D03*
X219000000Y-85000000D03*
X219000000Y-101000000D03*
X219000000Y-95000000D03*
X219000000Y-97000000D03*
X219000000Y-99000000D03*
X219000000Y-73000000D03*
X219000000Y-69000000D03*
X219000000Y-71000000D03*
X219000000Y-83000000D03*
X219000000Y-79000000D03*
X219000000Y-81000000D03*
X219000000Y-93000000D03*
X219000000Y-89000000D03*
X219000000Y-91000000D03*
X217000000Y-76000000D03*
X217000000Y-78000000D03*
X217000000Y-70000000D03*
X217000000Y-72000000D03*
X217000000Y-74000000D03*
X217000000Y-84000000D03*
X217000000Y-80000000D03*
X217000000Y-82000000D03*
X217000000Y-68000000D03*
X217000000Y-66000000D03*
X217000000Y-64000000D03*
X217000000Y-86000000D03*
X217000000Y-88000000D03*
X217000000Y-98000000D03*
X217000000Y-96000000D03*
X217000000Y-94000000D03*
X217000000Y-90000000D03*
X217000000Y-92000000D03*
X217000000Y-100000000D03*
X221500000Y-61000000D03*
X219000000Y-61000000D03*
X223500000Y-60000000D03*
X217000000Y-60000000D03*
X223500000Y-58000000D03*
X223500000Y-56000000D03*
X223500000Y-54000000D03*
X223500000Y-52000000D03*
X221500000Y-59000000D03*
X221500000Y-57000000D03*
X221500000Y-55000000D03*
X221500000Y-53000000D03*
X219000000Y-59000000D03*
X219000000Y-57000000D03*
X219000000Y-55000000D03*
X219000000Y-53000000D03*
X217000000Y-58000000D03*
X217000000Y-56000000D03*
X217000000Y-54000000D03*
X217000000Y-52000000D03*
X221500000Y-51000000D03*
D13*
X219000000Y-51000000D03*
D12*
X221500000Y-129000000D03*
X223500000Y-130000000D03*
X223500000Y-132000000D03*
X221500000Y-131000000D03*
X221500000Y-133000000D03*
X219000000Y-129000000D03*
X219000000Y-131000000D03*
X217000000Y-130000000D03*
X217000000Y-132000000D03*
X217000000Y-134000000D03*
X219000000Y-133000000D03*
X223500000Y-134000000D03*
X221500000Y-135000000D03*
X221500000Y-137000000D03*
X219000000Y-137000000D03*
X219000000Y-135000000D03*
X217000000Y-140000000D03*
X219000000Y-139000000D03*
X219000000Y-141000000D03*
X217000000Y-136000000D03*
X217000000Y-138000000D03*
X217000000Y-142000000D03*
X223500000Y-136000000D03*
X223500000Y-138000000D03*
X223500000Y-140000000D03*
X221500000Y-141000000D03*
X223500000Y-142000000D03*
X221500000Y-139000000D03*
X223500000Y-148000000D03*
X223500000Y-146000000D03*
X221500000Y-143000000D03*
X223500000Y-144000000D03*
X221500000Y-145000000D03*
X221500000Y-147000000D03*
X221500000Y-155000000D03*
X223500000Y-154000000D03*
X223500000Y-156000000D03*
X221500000Y-153000000D03*
X221500000Y-157000000D03*
X223500000Y-150000000D03*
X223500000Y-152000000D03*
X221500000Y-151000000D03*
X221500000Y-149000000D03*
X223500000Y-158000000D03*
X223500000Y-160000000D03*
X221500000Y-159000000D03*
X221500000Y-161000000D03*
X219000000Y-161000000D03*
X217000000Y-158000000D03*
X219000000Y-159000000D03*
X217000000Y-160000000D03*
X219000000Y-147000000D03*
X219000000Y-145000000D03*
X219000000Y-149000000D03*
X217000000Y-144000000D03*
X217000000Y-146000000D03*
X217000000Y-148000000D03*
X219000000Y-143000000D03*
X217000000Y-150000000D03*
X219000000Y-153000000D03*
X219000000Y-155000000D03*
X219000000Y-157000000D03*
X219000000Y-151000000D03*
X217000000Y-154000000D03*
X217000000Y-156000000D03*
X217000000Y-152000000D03*
X221500000Y-125000000D03*
X223500000Y-124000000D03*
X223500000Y-126000000D03*
X223500000Y-128000000D03*
X221500000Y-127000000D03*
X217000000Y-126000000D03*
X219000000Y-127000000D03*
X219000000Y-125000000D03*
X217000000Y-128000000D03*
X217000000Y-124000000D03*
X219000000Y-121000000D03*
X217000000Y-120000000D03*
X219000000Y-119000000D03*
X219000000Y-117000000D03*
X217000000Y-118000000D03*
X217000000Y-116000000D03*
X223500000Y-120000000D03*
X223500000Y-118000000D03*
X221500000Y-119000000D03*
X221500000Y-121000000D03*
X221500000Y-117000000D03*
X217000000Y-112000000D03*
X219000000Y-115000000D03*
X219000000Y-113000000D03*
X217000000Y-114000000D03*
X219000000Y-111000000D03*
X223500000Y-116000000D03*
X223500000Y-114000000D03*
X223500000Y-112000000D03*
X221500000Y-115000000D03*
X221500000Y-113000000D03*
X221500000Y-111000000D03*
D11*
X220250000Y-62650000D03*
X220250000Y-102950000D03*
X220250000Y-122650000D03*
X220250000Y-162950000D03*
G04 #@! TD*
G04 #@! TO.C,P3*
X205250000Y-162950000D03*
X205250000Y-122650000D03*
X205250000Y-102950000D03*
X205250000Y-62650000D03*
D12*
X206500000Y-111000000D03*
X206500000Y-113000000D03*
X206500000Y-115000000D03*
X208500000Y-112000000D03*
X208500000Y-114000000D03*
X208500000Y-116000000D03*
X204000000Y-111000000D03*
X202000000Y-114000000D03*
X204000000Y-113000000D03*
X204000000Y-115000000D03*
X202000000Y-112000000D03*
X206500000Y-117000000D03*
X206500000Y-121000000D03*
X206500000Y-119000000D03*
X208500000Y-118000000D03*
X208500000Y-120000000D03*
X202000000Y-116000000D03*
X202000000Y-118000000D03*
X204000000Y-117000000D03*
X204000000Y-119000000D03*
X202000000Y-120000000D03*
X204000000Y-121000000D03*
X202000000Y-124000000D03*
X202000000Y-128000000D03*
X204000000Y-125000000D03*
X204000000Y-127000000D03*
X202000000Y-126000000D03*
X206500000Y-127000000D03*
X208500000Y-128000000D03*
X208500000Y-126000000D03*
X208500000Y-124000000D03*
X206500000Y-125000000D03*
X202000000Y-152000000D03*
X202000000Y-156000000D03*
X202000000Y-154000000D03*
X204000000Y-151000000D03*
X204000000Y-157000000D03*
X204000000Y-155000000D03*
X204000000Y-153000000D03*
X202000000Y-150000000D03*
X204000000Y-143000000D03*
X202000000Y-148000000D03*
X202000000Y-146000000D03*
X202000000Y-144000000D03*
X204000000Y-149000000D03*
X204000000Y-145000000D03*
X204000000Y-147000000D03*
X202000000Y-160000000D03*
X204000000Y-159000000D03*
X202000000Y-158000000D03*
X204000000Y-161000000D03*
X206500000Y-161000000D03*
X206500000Y-159000000D03*
X208500000Y-160000000D03*
X208500000Y-158000000D03*
X206500000Y-149000000D03*
X206500000Y-151000000D03*
X208500000Y-152000000D03*
X208500000Y-150000000D03*
X206500000Y-157000000D03*
X206500000Y-153000000D03*
X208500000Y-156000000D03*
X208500000Y-154000000D03*
X206500000Y-155000000D03*
X206500000Y-147000000D03*
X206500000Y-145000000D03*
X208500000Y-144000000D03*
X206500000Y-143000000D03*
X208500000Y-146000000D03*
X208500000Y-148000000D03*
X206500000Y-139000000D03*
X208500000Y-142000000D03*
X206500000Y-141000000D03*
X208500000Y-140000000D03*
X208500000Y-138000000D03*
X208500000Y-136000000D03*
X202000000Y-142000000D03*
X202000000Y-138000000D03*
X202000000Y-136000000D03*
X204000000Y-141000000D03*
X204000000Y-139000000D03*
X202000000Y-140000000D03*
X204000000Y-135000000D03*
X204000000Y-137000000D03*
X206500000Y-137000000D03*
X206500000Y-135000000D03*
X208500000Y-134000000D03*
X204000000Y-133000000D03*
X202000000Y-134000000D03*
X202000000Y-132000000D03*
X202000000Y-130000000D03*
X204000000Y-131000000D03*
X204000000Y-129000000D03*
X206500000Y-133000000D03*
X206500000Y-131000000D03*
X208500000Y-132000000D03*
X208500000Y-130000000D03*
X206500000Y-129000000D03*
D13*
X204000000Y-51000000D03*
D12*
X206500000Y-51000000D03*
X202000000Y-52000000D03*
X202000000Y-54000000D03*
X202000000Y-56000000D03*
X202000000Y-58000000D03*
X204000000Y-53000000D03*
X204000000Y-55000000D03*
X204000000Y-57000000D03*
X204000000Y-59000000D03*
X206500000Y-53000000D03*
X206500000Y-55000000D03*
X206500000Y-57000000D03*
X206500000Y-59000000D03*
X208500000Y-52000000D03*
X208500000Y-54000000D03*
X208500000Y-56000000D03*
X208500000Y-58000000D03*
X202000000Y-60000000D03*
X208500000Y-60000000D03*
X204000000Y-61000000D03*
X206500000Y-61000000D03*
X202000000Y-100000000D03*
X202000000Y-92000000D03*
X202000000Y-90000000D03*
X202000000Y-94000000D03*
X202000000Y-96000000D03*
X202000000Y-98000000D03*
X202000000Y-88000000D03*
X202000000Y-86000000D03*
X202000000Y-64000000D03*
X202000000Y-66000000D03*
X202000000Y-68000000D03*
X202000000Y-82000000D03*
X202000000Y-80000000D03*
X202000000Y-84000000D03*
X202000000Y-74000000D03*
X202000000Y-72000000D03*
X202000000Y-70000000D03*
X202000000Y-78000000D03*
X202000000Y-76000000D03*
X204000000Y-91000000D03*
X204000000Y-89000000D03*
X204000000Y-93000000D03*
X204000000Y-81000000D03*
X204000000Y-79000000D03*
X204000000Y-83000000D03*
X204000000Y-71000000D03*
X204000000Y-69000000D03*
X204000000Y-73000000D03*
X204000000Y-99000000D03*
X204000000Y-97000000D03*
X204000000Y-95000000D03*
X204000000Y-101000000D03*
X204000000Y-85000000D03*
X204000000Y-87000000D03*
X204000000Y-75000000D03*
X204000000Y-77000000D03*
X204000000Y-65000000D03*
X204000000Y-67000000D03*
X206500000Y-101000000D03*
X206500000Y-97000000D03*
X206500000Y-95000000D03*
X206500000Y-99000000D03*
X206500000Y-93000000D03*
X206500000Y-89000000D03*
X206500000Y-87000000D03*
X206500000Y-85000000D03*
X206500000Y-91000000D03*
X206500000Y-83000000D03*
X206500000Y-79000000D03*
X206500000Y-77000000D03*
X206500000Y-75000000D03*
X206500000Y-81000000D03*
X206500000Y-73000000D03*
X206500000Y-69000000D03*
X206500000Y-67000000D03*
X206500000Y-65000000D03*
X206500000Y-71000000D03*
X208500000Y-100000000D03*
X208500000Y-98000000D03*
X208500000Y-96000000D03*
X208500000Y-94000000D03*
X208500000Y-92000000D03*
X208500000Y-90000000D03*
X208500000Y-88000000D03*
X208500000Y-86000000D03*
X208500000Y-84000000D03*
X208500000Y-82000000D03*
X208500000Y-80000000D03*
X208500000Y-78000000D03*
X208500000Y-76000000D03*
X208500000Y-74000000D03*
X208500000Y-72000000D03*
X208500000Y-70000000D03*
X208500000Y-68000000D03*
X208500000Y-66000000D03*
X208500000Y-64000000D03*
G04 #@! TD*
G04 #@! TO.C,P4*
X193500000Y-64000000D03*
X193500000Y-66000000D03*
X193500000Y-68000000D03*
X193500000Y-70000000D03*
X193500000Y-72000000D03*
X193500000Y-74000000D03*
X193500000Y-76000000D03*
X193500000Y-78000000D03*
X193500000Y-80000000D03*
X193500000Y-82000000D03*
X193500000Y-84000000D03*
X193500000Y-86000000D03*
X193500000Y-88000000D03*
X193500000Y-90000000D03*
X193500000Y-92000000D03*
X193500000Y-94000000D03*
X193500000Y-96000000D03*
X193500000Y-98000000D03*
X193500000Y-100000000D03*
X191500000Y-71000000D03*
X191500000Y-65000000D03*
X191500000Y-67000000D03*
X191500000Y-69000000D03*
X191500000Y-73000000D03*
X191500000Y-81000000D03*
X191500000Y-75000000D03*
X191500000Y-77000000D03*
X191500000Y-79000000D03*
X191500000Y-83000000D03*
X191500000Y-91000000D03*
X191500000Y-85000000D03*
X191500000Y-87000000D03*
X191500000Y-89000000D03*
X191500000Y-93000000D03*
X191500000Y-99000000D03*
X191500000Y-95000000D03*
X191500000Y-97000000D03*
X191500000Y-101000000D03*
X189000000Y-67000000D03*
X189000000Y-65000000D03*
X189000000Y-77000000D03*
X189000000Y-75000000D03*
X189000000Y-87000000D03*
X189000000Y-85000000D03*
X189000000Y-101000000D03*
X189000000Y-95000000D03*
X189000000Y-97000000D03*
X189000000Y-99000000D03*
X189000000Y-73000000D03*
X189000000Y-69000000D03*
X189000000Y-71000000D03*
X189000000Y-83000000D03*
X189000000Y-79000000D03*
X189000000Y-81000000D03*
X189000000Y-93000000D03*
X189000000Y-89000000D03*
X189000000Y-91000000D03*
X187000000Y-76000000D03*
X187000000Y-78000000D03*
X187000000Y-70000000D03*
X187000000Y-72000000D03*
X187000000Y-74000000D03*
X187000000Y-84000000D03*
X187000000Y-80000000D03*
X187000000Y-82000000D03*
X187000000Y-68000000D03*
X187000000Y-66000000D03*
X187000000Y-64000000D03*
X187000000Y-86000000D03*
X187000000Y-88000000D03*
X187000000Y-98000000D03*
X187000000Y-96000000D03*
X187000000Y-94000000D03*
X187000000Y-90000000D03*
X187000000Y-92000000D03*
X187000000Y-100000000D03*
X191500000Y-61000000D03*
X189000000Y-61000000D03*
X193500000Y-60000000D03*
X187000000Y-60000000D03*
X193500000Y-58000000D03*
X193500000Y-56000000D03*
X193500000Y-54000000D03*
X193500000Y-52000000D03*
X191500000Y-59000000D03*
X191500000Y-57000000D03*
X191500000Y-55000000D03*
X191500000Y-53000000D03*
X189000000Y-59000000D03*
X189000000Y-57000000D03*
X189000000Y-55000000D03*
X189000000Y-53000000D03*
X187000000Y-58000000D03*
X187000000Y-56000000D03*
X187000000Y-54000000D03*
X187000000Y-52000000D03*
X191500000Y-51000000D03*
D13*
X189000000Y-51000000D03*
D12*
X191500000Y-129000000D03*
X193500000Y-130000000D03*
X193500000Y-132000000D03*
X191500000Y-131000000D03*
X191500000Y-133000000D03*
X189000000Y-129000000D03*
X189000000Y-131000000D03*
X187000000Y-130000000D03*
X187000000Y-132000000D03*
X187000000Y-134000000D03*
X189000000Y-133000000D03*
X193500000Y-134000000D03*
X191500000Y-135000000D03*
X191500000Y-137000000D03*
X189000000Y-137000000D03*
X189000000Y-135000000D03*
X187000000Y-140000000D03*
X189000000Y-139000000D03*
X189000000Y-141000000D03*
X187000000Y-136000000D03*
X187000000Y-138000000D03*
X187000000Y-142000000D03*
X193500000Y-136000000D03*
X193500000Y-138000000D03*
X193500000Y-140000000D03*
X191500000Y-141000000D03*
X193500000Y-142000000D03*
X191500000Y-139000000D03*
X193500000Y-148000000D03*
X193500000Y-146000000D03*
X191500000Y-143000000D03*
X193500000Y-144000000D03*
X191500000Y-145000000D03*
X191500000Y-147000000D03*
X191500000Y-155000000D03*
X193500000Y-154000000D03*
X193500000Y-156000000D03*
X191500000Y-153000000D03*
X191500000Y-157000000D03*
X193500000Y-150000000D03*
X193500000Y-152000000D03*
X191500000Y-151000000D03*
X191500000Y-149000000D03*
X193500000Y-158000000D03*
X193500000Y-160000000D03*
X191500000Y-159000000D03*
X191500000Y-161000000D03*
X189000000Y-161000000D03*
X187000000Y-158000000D03*
X189000000Y-159000000D03*
X187000000Y-160000000D03*
X189000000Y-147000000D03*
X189000000Y-145000000D03*
X189000000Y-149000000D03*
X187000000Y-144000000D03*
X187000000Y-146000000D03*
X187000000Y-148000000D03*
X189000000Y-143000000D03*
X187000000Y-150000000D03*
X189000000Y-153000000D03*
X189000000Y-155000000D03*
X189000000Y-157000000D03*
X189000000Y-151000000D03*
X187000000Y-154000000D03*
X187000000Y-156000000D03*
X187000000Y-152000000D03*
X191500000Y-125000000D03*
X193500000Y-124000000D03*
X193500000Y-126000000D03*
X193500000Y-128000000D03*
X191500000Y-127000000D03*
X187000000Y-126000000D03*
X189000000Y-127000000D03*
X189000000Y-125000000D03*
X187000000Y-128000000D03*
X187000000Y-124000000D03*
X189000000Y-121000000D03*
X187000000Y-120000000D03*
X189000000Y-119000000D03*
X189000000Y-117000000D03*
X187000000Y-118000000D03*
X187000000Y-116000000D03*
X193500000Y-120000000D03*
X193500000Y-118000000D03*
X191500000Y-119000000D03*
X191500000Y-121000000D03*
X191500000Y-117000000D03*
X187000000Y-112000000D03*
X189000000Y-115000000D03*
X189000000Y-113000000D03*
X187000000Y-114000000D03*
X189000000Y-111000000D03*
X193500000Y-116000000D03*
X193500000Y-114000000D03*
X193500000Y-112000000D03*
X191500000Y-115000000D03*
X191500000Y-113000000D03*
X191500000Y-111000000D03*
D11*
X190250000Y-62650000D03*
X190250000Y-102950000D03*
X190250000Y-122650000D03*
X190250000Y-162950000D03*
G04 #@! TD*
G04 #@! TO.C,P5*
X175250000Y-162950000D03*
X175250000Y-122650000D03*
X175250000Y-102950000D03*
X175250000Y-62650000D03*
D12*
X176500000Y-111000000D03*
X176500000Y-113000000D03*
X176500000Y-115000000D03*
X178500000Y-112000000D03*
X178500000Y-114000000D03*
X178500000Y-116000000D03*
X174000000Y-111000000D03*
X172000000Y-114000000D03*
X174000000Y-113000000D03*
X174000000Y-115000000D03*
X172000000Y-112000000D03*
X176500000Y-117000000D03*
X176500000Y-121000000D03*
X176500000Y-119000000D03*
X178500000Y-118000000D03*
X178500000Y-120000000D03*
X172000000Y-116000000D03*
X172000000Y-118000000D03*
X174000000Y-117000000D03*
X174000000Y-119000000D03*
X172000000Y-120000000D03*
X174000000Y-121000000D03*
X172000000Y-124000000D03*
X172000000Y-128000000D03*
X174000000Y-125000000D03*
X174000000Y-127000000D03*
X172000000Y-126000000D03*
X176500000Y-127000000D03*
X178500000Y-128000000D03*
X178500000Y-126000000D03*
X178500000Y-124000000D03*
X176500000Y-125000000D03*
X172000000Y-152000000D03*
X172000000Y-156000000D03*
X172000000Y-154000000D03*
X174000000Y-151000000D03*
X174000000Y-157000000D03*
X174000000Y-155000000D03*
X174000000Y-153000000D03*
X172000000Y-150000000D03*
X174000000Y-143000000D03*
X172000000Y-148000000D03*
X172000000Y-146000000D03*
X172000000Y-144000000D03*
X174000000Y-149000000D03*
X174000000Y-145000000D03*
X174000000Y-147000000D03*
X172000000Y-160000000D03*
X174000000Y-159000000D03*
X172000000Y-158000000D03*
X174000000Y-161000000D03*
X176500000Y-161000000D03*
X176500000Y-159000000D03*
X178500000Y-160000000D03*
X178500000Y-158000000D03*
X176500000Y-149000000D03*
X176500000Y-151000000D03*
X178500000Y-152000000D03*
X178500000Y-150000000D03*
X176500000Y-157000000D03*
X176500000Y-153000000D03*
X178500000Y-156000000D03*
X178500000Y-154000000D03*
X176500000Y-155000000D03*
X176500000Y-147000000D03*
X176500000Y-145000000D03*
X178500000Y-144000000D03*
X176500000Y-143000000D03*
X178500000Y-146000000D03*
X178500000Y-148000000D03*
X176500000Y-139000000D03*
X178500000Y-142000000D03*
X176500000Y-141000000D03*
X178500000Y-140000000D03*
X178500000Y-138000000D03*
X178500000Y-136000000D03*
X172000000Y-142000000D03*
X172000000Y-138000000D03*
X172000000Y-136000000D03*
X174000000Y-141000000D03*
X174000000Y-139000000D03*
X172000000Y-140000000D03*
X174000000Y-135000000D03*
X174000000Y-137000000D03*
X176500000Y-137000000D03*
X176500000Y-135000000D03*
X178500000Y-134000000D03*
X174000000Y-133000000D03*
X172000000Y-134000000D03*
X172000000Y-132000000D03*
X172000000Y-130000000D03*
X174000000Y-131000000D03*
X174000000Y-129000000D03*
X176500000Y-133000000D03*
X176500000Y-131000000D03*
X178500000Y-132000000D03*
X178500000Y-130000000D03*
X176500000Y-129000000D03*
D13*
X174000000Y-51000000D03*
D12*
X176500000Y-51000000D03*
X172000000Y-52000000D03*
X172000000Y-54000000D03*
X172000000Y-56000000D03*
X172000000Y-58000000D03*
X174000000Y-53000000D03*
X174000000Y-55000000D03*
X174000000Y-57000000D03*
X174000000Y-59000000D03*
X176500000Y-53000000D03*
X176500000Y-55000000D03*
X176500000Y-57000000D03*
X176500000Y-59000000D03*
X178500000Y-52000000D03*
X178500000Y-54000000D03*
X178500000Y-56000000D03*
X178500000Y-58000000D03*
X172000000Y-60000000D03*
X178500000Y-60000000D03*
X174000000Y-61000000D03*
X176500000Y-61000000D03*
X172000000Y-100000000D03*
X172000000Y-92000000D03*
X172000000Y-90000000D03*
X172000000Y-94000000D03*
X172000000Y-96000000D03*
X172000000Y-98000000D03*
X172000000Y-88000000D03*
X172000000Y-86000000D03*
X172000000Y-64000000D03*
X172000000Y-66000000D03*
X172000000Y-68000000D03*
X172000000Y-82000000D03*
X172000000Y-80000000D03*
X172000000Y-84000000D03*
X172000000Y-74000000D03*
X172000000Y-72000000D03*
X172000000Y-70000000D03*
X172000000Y-78000000D03*
X172000000Y-76000000D03*
X174000000Y-91000000D03*
X174000000Y-89000000D03*
X174000000Y-93000000D03*
X174000000Y-81000000D03*
X174000000Y-79000000D03*
X174000000Y-83000000D03*
X174000000Y-71000000D03*
X174000000Y-69000000D03*
X174000000Y-73000000D03*
X174000000Y-99000000D03*
X174000000Y-97000000D03*
X174000000Y-95000000D03*
X174000000Y-101000000D03*
X174000000Y-85000000D03*
X174000000Y-87000000D03*
X174000000Y-75000000D03*
X174000000Y-77000000D03*
X174000000Y-65000000D03*
X174000000Y-67000000D03*
X176500000Y-101000000D03*
X176500000Y-97000000D03*
X176500000Y-95000000D03*
X176500000Y-99000000D03*
X176500000Y-93000000D03*
X176500000Y-89000000D03*
X176500000Y-87000000D03*
X176500000Y-85000000D03*
X176500000Y-91000000D03*
X176500000Y-83000000D03*
X176500000Y-79000000D03*
X176500000Y-77000000D03*
X176500000Y-75000000D03*
X176500000Y-81000000D03*
X176500000Y-73000000D03*
X176500000Y-69000000D03*
X176500000Y-67000000D03*
X176500000Y-65000000D03*
X176500000Y-71000000D03*
X178500000Y-100000000D03*
X178500000Y-98000000D03*
X178500000Y-96000000D03*
X178500000Y-94000000D03*
X178500000Y-92000000D03*
X178500000Y-90000000D03*
X178500000Y-88000000D03*
X178500000Y-86000000D03*
X178500000Y-84000000D03*
X178500000Y-82000000D03*
X178500000Y-80000000D03*
X178500000Y-78000000D03*
X178500000Y-76000000D03*
X178500000Y-74000000D03*
X178500000Y-72000000D03*
X178500000Y-70000000D03*
X178500000Y-68000000D03*
X178500000Y-66000000D03*
X178500000Y-64000000D03*
G04 #@! TD*
G04 #@! TO.C,P6*
X163500000Y-64000000D03*
X163500000Y-66000000D03*
X163500000Y-68000000D03*
X163500000Y-70000000D03*
X163500000Y-72000000D03*
X163500000Y-74000000D03*
X163500000Y-76000000D03*
X163500000Y-78000000D03*
X163500000Y-80000000D03*
X163500000Y-82000000D03*
X163500000Y-84000000D03*
X163500000Y-86000000D03*
X163500000Y-88000000D03*
X163500000Y-90000000D03*
X163500000Y-92000000D03*
X163500000Y-94000000D03*
X163500000Y-96000000D03*
X163500000Y-98000000D03*
X163500000Y-100000000D03*
X161500000Y-71000000D03*
X161500000Y-65000000D03*
X161500000Y-67000000D03*
X161500000Y-69000000D03*
X161500000Y-73000000D03*
X161500000Y-81000000D03*
X161500000Y-75000000D03*
X161500000Y-77000000D03*
X161500000Y-79000000D03*
X161500000Y-83000000D03*
X161500000Y-91000000D03*
X161500000Y-85000000D03*
X161500000Y-87000000D03*
X161500000Y-89000000D03*
X161500000Y-93000000D03*
X161500000Y-99000000D03*
X161500000Y-95000000D03*
X161500000Y-97000000D03*
X161500000Y-101000000D03*
X159000000Y-67000000D03*
X159000000Y-65000000D03*
X159000000Y-77000000D03*
X159000000Y-75000000D03*
X159000000Y-87000000D03*
X159000000Y-85000000D03*
X159000000Y-101000000D03*
X159000000Y-95000000D03*
X159000000Y-97000000D03*
X159000000Y-99000000D03*
X159000000Y-73000000D03*
X159000000Y-69000000D03*
X159000000Y-71000000D03*
X159000000Y-83000000D03*
X159000000Y-79000000D03*
X159000000Y-81000000D03*
X159000000Y-93000000D03*
X159000000Y-89000000D03*
X159000000Y-91000000D03*
X157000000Y-76000000D03*
X157000000Y-78000000D03*
X157000000Y-70000000D03*
X157000000Y-72000000D03*
X157000000Y-74000000D03*
X157000000Y-84000000D03*
X157000000Y-80000000D03*
X157000000Y-82000000D03*
X157000000Y-68000000D03*
X157000000Y-66000000D03*
X157000000Y-64000000D03*
X157000000Y-86000000D03*
X157000000Y-88000000D03*
X157000000Y-98000000D03*
X157000000Y-96000000D03*
X157000000Y-94000000D03*
X157000000Y-90000000D03*
X157000000Y-92000000D03*
X157000000Y-100000000D03*
X161500000Y-61000000D03*
X159000000Y-61000000D03*
X163500000Y-60000000D03*
X157000000Y-60000000D03*
X163500000Y-58000000D03*
X163500000Y-56000000D03*
X163500000Y-54000000D03*
X163500000Y-52000000D03*
X161500000Y-59000000D03*
X161500000Y-57000000D03*
X161500000Y-55000000D03*
X161500000Y-53000000D03*
X159000000Y-59000000D03*
X159000000Y-57000000D03*
X159000000Y-55000000D03*
X159000000Y-53000000D03*
X157000000Y-58000000D03*
X157000000Y-56000000D03*
X157000000Y-54000000D03*
X157000000Y-52000000D03*
X161500000Y-51000000D03*
D13*
X159000000Y-51000000D03*
D12*
X161500000Y-129000000D03*
X163500000Y-130000000D03*
X163500000Y-132000000D03*
X161500000Y-131000000D03*
X161500000Y-133000000D03*
X159000000Y-129000000D03*
X159000000Y-131000000D03*
X157000000Y-130000000D03*
X157000000Y-132000000D03*
X157000000Y-134000000D03*
X159000000Y-133000000D03*
X163500000Y-134000000D03*
X161500000Y-135000000D03*
X161500000Y-137000000D03*
X159000000Y-137000000D03*
X159000000Y-135000000D03*
X157000000Y-140000000D03*
X159000000Y-139000000D03*
X159000000Y-141000000D03*
X157000000Y-136000000D03*
X157000000Y-138000000D03*
X157000000Y-142000000D03*
X163500000Y-136000000D03*
X163500000Y-138000000D03*
X163500000Y-140000000D03*
X161500000Y-141000000D03*
X163500000Y-142000000D03*
X161500000Y-139000000D03*
X163500000Y-148000000D03*
X163500000Y-146000000D03*
X161500000Y-143000000D03*
X163500000Y-144000000D03*
X161500000Y-145000000D03*
X161500000Y-147000000D03*
X161500000Y-155000000D03*
X163500000Y-154000000D03*
X163500000Y-156000000D03*
X161500000Y-153000000D03*
X161500000Y-157000000D03*
X163500000Y-150000000D03*
X163500000Y-152000000D03*
X161500000Y-151000000D03*
X161500000Y-149000000D03*
X163500000Y-158000000D03*
X163500000Y-160000000D03*
X161500000Y-159000000D03*
X161500000Y-161000000D03*
X159000000Y-161000000D03*
X157000000Y-158000000D03*
X159000000Y-159000000D03*
X157000000Y-160000000D03*
X159000000Y-147000000D03*
X159000000Y-145000000D03*
X159000000Y-149000000D03*
X157000000Y-144000000D03*
X157000000Y-146000000D03*
X157000000Y-148000000D03*
X159000000Y-143000000D03*
X157000000Y-150000000D03*
X159000000Y-153000000D03*
X159000000Y-155000000D03*
X159000000Y-157000000D03*
X159000000Y-151000000D03*
X157000000Y-154000000D03*
X157000000Y-156000000D03*
X157000000Y-152000000D03*
X161500000Y-125000000D03*
X163500000Y-124000000D03*
X163500000Y-126000000D03*
X163500000Y-128000000D03*
X161500000Y-127000000D03*
X157000000Y-126000000D03*
X159000000Y-127000000D03*
X159000000Y-125000000D03*
X157000000Y-128000000D03*
X157000000Y-124000000D03*
X159000000Y-121000000D03*
X157000000Y-120000000D03*
X159000000Y-119000000D03*
X159000000Y-117000000D03*
X157000000Y-118000000D03*
X157000000Y-116000000D03*
X163500000Y-120000000D03*
X163500000Y-118000000D03*
X161500000Y-119000000D03*
X161500000Y-121000000D03*
X161500000Y-117000000D03*
X157000000Y-112000000D03*
X159000000Y-115000000D03*
X159000000Y-113000000D03*
X157000000Y-114000000D03*
X159000000Y-111000000D03*
X163500000Y-116000000D03*
X163500000Y-114000000D03*
X163500000Y-112000000D03*
X161500000Y-115000000D03*
X161500000Y-113000000D03*
X161500000Y-111000000D03*
D11*
X160250000Y-62650000D03*
X160250000Y-102950000D03*
X160250000Y-122650000D03*
X160250000Y-162950000D03*
G04 #@! TD*
G04 #@! TO.C,P7*
X145250000Y-162950000D03*
X145250000Y-122650000D03*
X145250000Y-102950000D03*
X145250000Y-62650000D03*
D12*
X146500000Y-111000000D03*
X146500000Y-113000000D03*
X146500000Y-115000000D03*
X148500000Y-112000000D03*
X148500000Y-114000000D03*
X148500000Y-116000000D03*
X144000000Y-111000000D03*
X142000000Y-114000000D03*
X144000000Y-113000000D03*
X144000000Y-115000000D03*
X142000000Y-112000000D03*
X146500000Y-117000000D03*
X146500000Y-121000000D03*
X146500000Y-119000000D03*
X148500000Y-118000000D03*
X148500000Y-120000000D03*
X142000000Y-116000000D03*
X142000000Y-118000000D03*
X144000000Y-117000000D03*
X144000000Y-119000000D03*
X142000000Y-120000000D03*
X144000000Y-121000000D03*
X142000000Y-124000000D03*
X142000000Y-128000000D03*
X144000000Y-125000000D03*
X144000000Y-127000000D03*
X142000000Y-126000000D03*
X146500000Y-127000000D03*
X148500000Y-128000000D03*
X148500000Y-126000000D03*
X148500000Y-124000000D03*
X146500000Y-125000000D03*
X142000000Y-152000000D03*
X142000000Y-156000000D03*
X142000000Y-154000000D03*
X144000000Y-151000000D03*
X144000000Y-157000000D03*
X144000000Y-155000000D03*
X144000000Y-153000000D03*
X142000000Y-150000000D03*
X144000000Y-143000000D03*
X142000000Y-148000000D03*
X142000000Y-146000000D03*
X142000000Y-144000000D03*
X144000000Y-149000000D03*
X144000000Y-145000000D03*
X144000000Y-147000000D03*
X142000000Y-160000000D03*
X144000000Y-159000000D03*
X142000000Y-158000000D03*
X144000000Y-161000000D03*
X146500000Y-161000000D03*
X146500000Y-159000000D03*
X148500000Y-160000000D03*
X148500000Y-158000000D03*
X146500000Y-149000000D03*
X146500000Y-151000000D03*
X148500000Y-152000000D03*
X148500000Y-150000000D03*
X146500000Y-157000000D03*
X146500000Y-153000000D03*
X148500000Y-156000000D03*
X148500000Y-154000000D03*
X146500000Y-155000000D03*
X146500000Y-147000000D03*
X146500000Y-145000000D03*
X148500000Y-144000000D03*
X146500000Y-143000000D03*
X148500000Y-146000000D03*
X148500000Y-148000000D03*
X146500000Y-139000000D03*
X148500000Y-142000000D03*
X146500000Y-141000000D03*
X148500000Y-140000000D03*
X148500000Y-138000000D03*
X148500000Y-136000000D03*
X142000000Y-142000000D03*
X142000000Y-138000000D03*
X142000000Y-136000000D03*
X144000000Y-141000000D03*
X144000000Y-139000000D03*
X142000000Y-140000000D03*
X144000000Y-135000000D03*
X144000000Y-137000000D03*
X146500000Y-137000000D03*
X146500000Y-135000000D03*
X148500000Y-134000000D03*
X144000000Y-133000000D03*
X142000000Y-134000000D03*
X142000000Y-132000000D03*
X142000000Y-130000000D03*
X144000000Y-131000000D03*
X144000000Y-129000000D03*
X146500000Y-133000000D03*
X146500000Y-131000000D03*
X148500000Y-132000000D03*
X148500000Y-130000000D03*
X146500000Y-129000000D03*
D13*
X144000000Y-51000000D03*
D12*
X146500000Y-51000000D03*
X142000000Y-52000000D03*
X142000000Y-54000000D03*
X142000000Y-56000000D03*
X142000000Y-58000000D03*
X144000000Y-53000000D03*
X144000000Y-55000000D03*
X144000000Y-57000000D03*
X144000000Y-59000000D03*
X146500000Y-53000000D03*
X146500000Y-55000000D03*
X146500000Y-57000000D03*
X146500000Y-59000000D03*
X148500000Y-52000000D03*
X148500000Y-54000000D03*
X148500000Y-56000000D03*
X148500000Y-58000000D03*
X142000000Y-60000000D03*
X148500000Y-60000000D03*
X144000000Y-61000000D03*
X146500000Y-61000000D03*
X142000000Y-100000000D03*
X142000000Y-92000000D03*
X142000000Y-90000000D03*
X142000000Y-94000000D03*
X142000000Y-96000000D03*
X142000000Y-98000000D03*
X142000000Y-88000000D03*
X142000000Y-86000000D03*
X142000000Y-64000000D03*
X142000000Y-66000000D03*
X142000000Y-68000000D03*
X142000000Y-82000000D03*
X142000000Y-80000000D03*
X142000000Y-84000000D03*
X142000000Y-74000000D03*
X142000000Y-72000000D03*
X142000000Y-70000000D03*
X142000000Y-78000000D03*
X142000000Y-76000000D03*
X144000000Y-91000000D03*
X144000000Y-89000000D03*
X144000000Y-93000000D03*
X144000000Y-81000000D03*
X144000000Y-79000000D03*
X144000000Y-83000000D03*
X144000000Y-71000000D03*
X144000000Y-69000000D03*
X144000000Y-73000000D03*
X144000000Y-99000000D03*
X144000000Y-97000000D03*
X144000000Y-95000000D03*
X144000000Y-101000000D03*
X144000000Y-85000000D03*
X144000000Y-87000000D03*
X144000000Y-75000000D03*
X144000000Y-77000000D03*
X144000000Y-65000000D03*
X144000000Y-67000000D03*
X146500000Y-101000000D03*
X146500000Y-97000000D03*
X146500000Y-95000000D03*
X146500000Y-99000000D03*
X146500000Y-93000000D03*
X146500000Y-89000000D03*
X146500000Y-87000000D03*
X146500000Y-85000000D03*
X146500000Y-91000000D03*
X146500000Y-83000000D03*
X146500000Y-79000000D03*
X146500000Y-77000000D03*
X146500000Y-75000000D03*
X146500000Y-81000000D03*
X146500000Y-73000000D03*
X146500000Y-69000000D03*
X146500000Y-67000000D03*
X146500000Y-65000000D03*
X146500000Y-71000000D03*
X148500000Y-100000000D03*
X148500000Y-98000000D03*
X148500000Y-96000000D03*
X148500000Y-94000000D03*
X148500000Y-92000000D03*
X148500000Y-90000000D03*
X148500000Y-88000000D03*
X148500000Y-86000000D03*
X148500000Y-84000000D03*
X148500000Y-82000000D03*
X148500000Y-80000000D03*
X148500000Y-78000000D03*
X148500000Y-76000000D03*
X148500000Y-74000000D03*
X148500000Y-72000000D03*
X148500000Y-70000000D03*
X148500000Y-68000000D03*
X148500000Y-66000000D03*
X148500000Y-64000000D03*
G04 #@! TD*
G04 #@! TO.C,P8*
X133500000Y-64000000D03*
X133500000Y-66000000D03*
X133500000Y-68000000D03*
X133500000Y-70000000D03*
X133500000Y-72000000D03*
X133500000Y-74000000D03*
X133500000Y-76000000D03*
X133500000Y-78000000D03*
X133500000Y-80000000D03*
X133500000Y-82000000D03*
X133500000Y-84000000D03*
X133500000Y-86000000D03*
X133500000Y-88000000D03*
X133500000Y-90000000D03*
X133500000Y-92000000D03*
X133500000Y-94000000D03*
X133500000Y-96000000D03*
X133500000Y-98000000D03*
X133500000Y-100000000D03*
X131500000Y-71000000D03*
X131500000Y-65000000D03*
X131500000Y-67000000D03*
X131500000Y-69000000D03*
X131500000Y-73000000D03*
X131500000Y-81000000D03*
X131500000Y-75000000D03*
X131500000Y-77000000D03*
X131500000Y-79000000D03*
X131500000Y-83000000D03*
X131500000Y-91000000D03*
X131500000Y-85000000D03*
X131500000Y-87000000D03*
X131500000Y-89000000D03*
X131500000Y-93000000D03*
X131500000Y-99000000D03*
X131500000Y-95000000D03*
X131500000Y-97000000D03*
X131500000Y-101000000D03*
X129000000Y-67000000D03*
X129000000Y-65000000D03*
X129000000Y-77000000D03*
X129000000Y-75000000D03*
X129000000Y-87000000D03*
X129000000Y-85000000D03*
X129000000Y-101000000D03*
X129000000Y-95000000D03*
X129000000Y-97000000D03*
X129000000Y-99000000D03*
X129000000Y-73000000D03*
X129000000Y-69000000D03*
X129000000Y-71000000D03*
X129000000Y-83000000D03*
X129000000Y-79000000D03*
X129000000Y-81000000D03*
X129000000Y-93000000D03*
X129000000Y-89000000D03*
X129000000Y-91000000D03*
X127000000Y-76000000D03*
X127000000Y-78000000D03*
X127000000Y-70000000D03*
X127000000Y-72000000D03*
X127000000Y-74000000D03*
X127000000Y-84000000D03*
X127000000Y-80000000D03*
X127000000Y-82000000D03*
X127000000Y-68000000D03*
X127000000Y-66000000D03*
X127000000Y-64000000D03*
X127000000Y-86000000D03*
X127000000Y-88000000D03*
X127000000Y-98000000D03*
X127000000Y-96000000D03*
X127000000Y-94000000D03*
X127000000Y-90000000D03*
X127000000Y-92000000D03*
X127000000Y-100000000D03*
X131500000Y-61000000D03*
X129000000Y-61000000D03*
X133500000Y-60000000D03*
X127000000Y-60000000D03*
X133500000Y-58000000D03*
X133500000Y-56000000D03*
X133500000Y-54000000D03*
X133500000Y-52000000D03*
X131500000Y-59000000D03*
X131500000Y-57000000D03*
X131500000Y-55000000D03*
X131500000Y-53000000D03*
X129000000Y-59000000D03*
X129000000Y-57000000D03*
X129000000Y-55000000D03*
X129000000Y-53000000D03*
X127000000Y-58000000D03*
X127000000Y-56000000D03*
X127000000Y-54000000D03*
X127000000Y-52000000D03*
X131500000Y-51000000D03*
D13*
X129000000Y-51000000D03*
D12*
X131500000Y-129000000D03*
X133500000Y-130000000D03*
X133500000Y-132000000D03*
X131500000Y-131000000D03*
X131500000Y-133000000D03*
X129000000Y-129000000D03*
X129000000Y-131000000D03*
X127000000Y-130000000D03*
X127000000Y-132000000D03*
X127000000Y-134000000D03*
X129000000Y-133000000D03*
X133500000Y-134000000D03*
X131500000Y-135000000D03*
X131500000Y-137000000D03*
X129000000Y-137000000D03*
X129000000Y-135000000D03*
X127000000Y-140000000D03*
X129000000Y-139000000D03*
X129000000Y-141000000D03*
X127000000Y-136000000D03*
X127000000Y-138000000D03*
X127000000Y-142000000D03*
X133500000Y-136000000D03*
X133500000Y-138000000D03*
X133500000Y-140000000D03*
X131500000Y-141000000D03*
X133500000Y-142000000D03*
X131500000Y-139000000D03*
X133500000Y-148000000D03*
X133500000Y-146000000D03*
X131500000Y-143000000D03*
X133500000Y-144000000D03*
X131500000Y-145000000D03*
X131500000Y-147000000D03*
X131500000Y-155000000D03*
X133500000Y-154000000D03*
X133500000Y-156000000D03*
X131500000Y-153000000D03*
X131500000Y-157000000D03*
X133500000Y-150000000D03*
X133500000Y-152000000D03*
X131500000Y-151000000D03*
X131500000Y-149000000D03*
X133500000Y-158000000D03*
X133500000Y-160000000D03*
X131500000Y-159000000D03*
X131500000Y-161000000D03*
X129000000Y-161000000D03*
X127000000Y-158000000D03*
X129000000Y-159000000D03*
X127000000Y-160000000D03*
X129000000Y-147000000D03*
X129000000Y-145000000D03*
X129000000Y-149000000D03*
X127000000Y-144000000D03*
X127000000Y-146000000D03*
X127000000Y-148000000D03*
X129000000Y-143000000D03*
X127000000Y-150000000D03*
X129000000Y-153000000D03*
X129000000Y-155000000D03*
X129000000Y-157000000D03*
X129000000Y-151000000D03*
X127000000Y-154000000D03*
X127000000Y-156000000D03*
X127000000Y-152000000D03*
X131500000Y-125000000D03*
X133500000Y-124000000D03*
X133500000Y-126000000D03*
X133500000Y-128000000D03*
X131500000Y-127000000D03*
X127000000Y-126000000D03*
X129000000Y-127000000D03*
X129000000Y-125000000D03*
X127000000Y-128000000D03*
X127000000Y-124000000D03*
X129000000Y-121000000D03*
X127000000Y-120000000D03*
X129000000Y-119000000D03*
X129000000Y-117000000D03*
X127000000Y-118000000D03*
X127000000Y-116000000D03*
X133500000Y-120000000D03*
X133500000Y-118000000D03*
X131500000Y-119000000D03*
X131500000Y-121000000D03*
X131500000Y-117000000D03*
X127000000Y-112000000D03*
X129000000Y-115000000D03*
X129000000Y-113000000D03*
X127000000Y-114000000D03*
X129000000Y-111000000D03*
X133500000Y-116000000D03*
X133500000Y-114000000D03*
X133500000Y-112000000D03*
X131500000Y-115000000D03*
X131500000Y-113000000D03*
X131500000Y-111000000D03*
D11*
X130250000Y-62650000D03*
X130250000Y-102950000D03*
X130250000Y-122650000D03*
X130250000Y-162950000D03*
G04 #@! TD*
G04 #@! TO.C,P9*
X115250000Y-162950000D03*
X115250000Y-122650000D03*
X115250000Y-102950000D03*
X115250000Y-62650000D03*
D12*
X116500000Y-111000000D03*
X116500000Y-113000000D03*
X116500000Y-115000000D03*
X118500000Y-112000000D03*
X118500000Y-114000000D03*
X118500000Y-116000000D03*
X114000000Y-111000000D03*
X112000000Y-114000000D03*
X114000000Y-113000000D03*
X114000000Y-115000000D03*
X112000000Y-112000000D03*
X116500000Y-117000000D03*
X116500000Y-121000000D03*
X116500000Y-119000000D03*
X118500000Y-118000000D03*
X118500000Y-120000000D03*
X112000000Y-116000000D03*
X112000000Y-118000000D03*
X114000000Y-117000000D03*
X114000000Y-119000000D03*
X112000000Y-120000000D03*
X114000000Y-121000000D03*
X112000000Y-124000000D03*
X112000000Y-128000000D03*
X114000000Y-125000000D03*
X114000000Y-127000000D03*
X112000000Y-126000000D03*
X116500000Y-127000000D03*
X118500000Y-128000000D03*
X118500000Y-126000000D03*
X118500000Y-124000000D03*
X116500000Y-125000000D03*
X112000000Y-152000000D03*
X112000000Y-156000000D03*
X112000000Y-154000000D03*
X114000000Y-151000000D03*
X114000000Y-157000000D03*
X114000000Y-155000000D03*
X114000000Y-153000000D03*
X112000000Y-150000000D03*
X114000000Y-143000000D03*
X112000000Y-148000000D03*
X112000000Y-146000000D03*
X112000000Y-144000000D03*
X114000000Y-149000000D03*
X114000000Y-145000000D03*
X114000000Y-147000000D03*
X112000000Y-160000000D03*
X114000000Y-159000000D03*
X112000000Y-158000000D03*
X114000000Y-161000000D03*
X116500000Y-161000000D03*
X116500000Y-159000000D03*
X118500000Y-160000000D03*
X118500000Y-158000000D03*
X116500000Y-149000000D03*
X116500000Y-151000000D03*
X118500000Y-152000000D03*
X118500000Y-150000000D03*
X116500000Y-157000000D03*
X116500000Y-153000000D03*
X118500000Y-156000000D03*
X118500000Y-154000000D03*
X116500000Y-155000000D03*
X116500000Y-147000000D03*
X116500000Y-145000000D03*
X118500000Y-144000000D03*
X116500000Y-143000000D03*
X118500000Y-146000000D03*
X118500000Y-148000000D03*
X116500000Y-139000000D03*
X118500000Y-142000000D03*
X116500000Y-141000000D03*
X118500000Y-140000000D03*
X118500000Y-138000000D03*
X118500000Y-136000000D03*
X112000000Y-142000000D03*
X112000000Y-138000000D03*
X112000000Y-136000000D03*
X114000000Y-141000000D03*
X114000000Y-139000000D03*
X112000000Y-140000000D03*
X114000000Y-135000000D03*
X114000000Y-137000000D03*
X116500000Y-137000000D03*
X116500000Y-135000000D03*
X118500000Y-134000000D03*
X114000000Y-133000000D03*
X112000000Y-134000000D03*
X112000000Y-132000000D03*
X112000000Y-130000000D03*
X114000000Y-131000000D03*
X114000000Y-129000000D03*
X116500000Y-133000000D03*
X116500000Y-131000000D03*
X118500000Y-132000000D03*
X118500000Y-130000000D03*
X116500000Y-129000000D03*
D13*
X114000000Y-51000000D03*
D12*
X116500000Y-51000000D03*
X112000000Y-52000000D03*
X112000000Y-54000000D03*
X112000000Y-56000000D03*
X112000000Y-58000000D03*
X114000000Y-53000000D03*
X114000000Y-55000000D03*
X114000000Y-57000000D03*
X114000000Y-59000000D03*
X116500000Y-53000000D03*
X116500000Y-55000000D03*
X116500000Y-57000000D03*
X116500000Y-59000000D03*
X118500000Y-52000000D03*
X118500000Y-54000000D03*
X118500000Y-56000000D03*
X118500000Y-58000000D03*
X112000000Y-60000000D03*
X118500000Y-60000000D03*
X114000000Y-61000000D03*
X116500000Y-61000000D03*
X112000000Y-100000000D03*
X112000000Y-92000000D03*
X112000000Y-90000000D03*
X112000000Y-94000000D03*
X112000000Y-96000000D03*
X112000000Y-98000000D03*
X112000000Y-88000000D03*
X112000000Y-86000000D03*
X112000000Y-64000000D03*
X112000000Y-66000000D03*
X112000000Y-68000000D03*
X112000000Y-82000000D03*
X112000000Y-80000000D03*
X112000000Y-84000000D03*
X112000000Y-74000000D03*
X112000000Y-72000000D03*
X112000000Y-70000000D03*
X112000000Y-78000000D03*
X112000000Y-76000000D03*
X114000000Y-91000000D03*
X114000000Y-89000000D03*
X114000000Y-93000000D03*
X114000000Y-81000000D03*
X114000000Y-79000000D03*
X114000000Y-83000000D03*
X114000000Y-71000000D03*
X114000000Y-69000000D03*
X114000000Y-73000000D03*
X114000000Y-99000000D03*
X114000000Y-97000000D03*
X114000000Y-95000000D03*
X114000000Y-101000000D03*
X114000000Y-85000000D03*
X114000000Y-87000000D03*
X114000000Y-75000000D03*
X114000000Y-77000000D03*
X114000000Y-65000000D03*
X114000000Y-67000000D03*
X116500000Y-101000000D03*
X116500000Y-97000000D03*
X116500000Y-95000000D03*
X116500000Y-99000000D03*
X116500000Y-93000000D03*
X116500000Y-89000000D03*
X116500000Y-87000000D03*
X116500000Y-85000000D03*
X116500000Y-91000000D03*
X116500000Y-83000000D03*
X116500000Y-79000000D03*
X116500000Y-77000000D03*
X116500000Y-75000000D03*
X116500000Y-81000000D03*
X116500000Y-73000000D03*
X116500000Y-69000000D03*
X116500000Y-67000000D03*
X116500000Y-65000000D03*
X116500000Y-71000000D03*
X118500000Y-100000000D03*
X118500000Y-98000000D03*
X118500000Y-96000000D03*
X118500000Y-94000000D03*
X118500000Y-92000000D03*
X118500000Y-90000000D03*
X118500000Y-88000000D03*
X118500000Y-86000000D03*
X118500000Y-84000000D03*
X118500000Y-82000000D03*
X118500000Y-80000000D03*
X118500000Y-78000000D03*
X118500000Y-76000000D03*
X118500000Y-74000000D03*
X118500000Y-72000000D03*
X118500000Y-70000000D03*
X118500000Y-68000000D03*
X118500000Y-66000000D03*
X118500000Y-64000000D03*
G04 #@! TD*
G04 #@! TO.C,P10*
X103500000Y-64000000D03*
X103500000Y-66000000D03*
X103500000Y-68000000D03*
X103500000Y-70000000D03*
X103500000Y-72000000D03*
X103500000Y-74000000D03*
X103500000Y-76000000D03*
X103500000Y-78000000D03*
X103500000Y-80000000D03*
X103500000Y-82000000D03*
X103500000Y-84000000D03*
X103500000Y-86000000D03*
X103500000Y-88000000D03*
X103500000Y-90000000D03*
X103500000Y-92000000D03*
X103500000Y-94000000D03*
X103500000Y-96000000D03*
X103500000Y-98000000D03*
X103500000Y-100000000D03*
X101500000Y-71000000D03*
X101500000Y-65000000D03*
X101500000Y-67000000D03*
X101500000Y-69000000D03*
X101500000Y-73000000D03*
X101500000Y-81000000D03*
X101500000Y-75000000D03*
X101500000Y-77000000D03*
X101500000Y-79000000D03*
X101500000Y-83000000D03*
X101500000Y-91000000D03*
X101500000Y-85000000D03*
X101500000Y-87000000D03*
X101500000Y-89000000D03*
X101500000Y-93000000D03*
X101500000Y-99000000D03*
X101500000Y-95000000D03*
X101500000Y-97000000D03*
X101500000Y-101000000D03*
X99000000Y-67000000D03*
X99000000Y-65000000D03*
X99000000Y-77000000D03*
X99000000Y-75000000D03*
X99000000Y-87000000D03*
X99000000Y-85000000D03*
X99000000Y-101000000D03*
X99000000Y-95000000D03*
X99000000Y-97000000D03*
X99000000Y-99000000D03*
X99000000Y-73000000D03*
X99000000Y-69000000D03*
X99000000Y-71000000D03*
X99000000Y-83000000D03*
X99000000Y-79000000D03*
X99000000Y-81000000D03*
X99000000Y-93000000D03*
X99000000Y-89000000D03*
X99000000Y-91000000D03*
X97000000Y-76000000D03*
X97000000Y-78000000D03*
X97000000Y-70000000D03*
X97000000Y-72000000D03*
X97000000Y-74000000D03*
X97000000Y-84000000D03*
X97000000Y-80000000D03*
X97000000Y-82000000D03*
X97000000Y-68000000D03*
X97000000Y-66000000D03*
X97000000Y-64000000D03*
X97000000Y-86000000D03*
X97000000Y-88000000D03*
X97000000Y-98000000D03*
X97000000Y-96000000D03*
X97000000Y-94000000D03*
X97000000Y-90000000D03*
X97000000Y-92000000D03*
X97000000Y-100000000D03*
X101500000Y-61000000D03*
X99000000Y-61000000D03*
X103500000Y-60000000D03*
X97000000Y-60000000D03*
X103500000Y-58000000D03*
X103500000Y-56000000D03*
X103500000Y-54000000D03*
X103500000Y-52000000D03*
X101500000Y-59000000D03*
X101500000Y-57000000D03*
X101500000Y-55000000D03*
X101500000Y-53000000D03*
X99000000Y-59000000D03*
X99000000Y-57000000D03*
X99000000Y-55000000D03*
X99000000Y-53000000D03*
X97000000Y-58000000D03*
X97000000Y-56000000D03*
X97000000Y-54000000D03*
X97000000Y-52000000D03*
X101500000Y-51000000D03*
D13*
X99000000Y-51000000D03*
D12*
X101500000Y-129000000D03*
X103500000Y-130000000D03*
X103500000Y-132000000D03*
X101500000Y-131000000D03*
X101500000Y-133000000D03*
X99000000Y-129000000D03*
X99000000Y-131000000D03*
X97000000Y-130000000D03*
X97000000Y-132000000D03*
X97000000Y-134000000D03*
X99000000Y-133000000D03*
X103500000Y-134000000D03*
X101500000Y-135000000D03*
X101500000Y-137000000D03*
X99000000Y-137000000D03*
X99000000Y-135000000D03*
X97000000Y-140000000D03*
X99000000Y-139000000D03*
X99000000Y-141000000D03*
X97000000Y-136000000D03*
X97000000Y-138000000D03*
X97000000Y-142000000D03*
X103500000Y-136000000D03*
X103500000Y-138000000D03*
X103500000Y-140000000D03*
X101500000Y-141000000D03*
X103500000Y-142000000D03*
X101500000Y-139000000D03*
X103500000Y-148000000D03*
X103500000Y-146000000D03*
X101500000Y-143000000D03*
X103500000Y-144000000D03*
X101500000Y-145000000D03*
X101500000Y-147000000D03*
X101500000Y-155000000D03*
X103500000Y-154000000D03*
X103500000Y-156000000D03*
X101500000Y-153000000D03*
X101500000Y-157000000D03*
X103500000Y-150000000D03*
X103500000Y-152000000D03*
X101500000Y-151000000D03*
X101500000Y-149000000D03*
X103500000Y-158000000D03*
X103500000Y-160000000D03*
X101500000Y-159000000D03*
X101500000Y-161000000D03*
X99000000Y-161000000D03*
X97000000Y-158000000D03*
X99000000Y-159000000D03*
X97000000Y-160000000D03*
X99000000Y-147000000D03*
X99000000Y-145000000D03*
X99000000Y-149000000D03*
X97000000Y-144000000D03*
X97000000Y-146000000D03*
X97000000Y-148000000D03*
X99000000Y-143000000D03*
X97000000Y-150000000D03*
X99000000Y-153000000D03*
X99000000Y-155000000D03*
X99000000Y-157000000D03*
X99000000Y-151000000D03*
X97000000Y-154000000D03*
X97000000Y-156000000D03*
X97000000Y-152000000D03*
X101500000Y-125000000D03*
X103500000Y-124000000D03*
X103500000Y-126000000D03*
X103500000Y-128000000D03*
X101500000Y-127000000D03*
X97000000Y-126000000D03*
X99000000Y-127000000D03*
X99000000Y-125000000D03*
X97000000Y-128000000D03*
X97000000Y-124000000D03*
X99000000Y-121000000D03*
X97000000Y-120000000D03*
X99000000Y-119000000D03*
X99000000Y-117000000D03*
X97000000Y-118000000D03*
X97000000Y-116000000D03*
X103500000Y-120000000D03*
X103500000Y-118000000D03*
X101500000Y-119000000D03*
X101500000Y-121000000D03*
X101500000Y-117000000D03*
X97000000Y-112000000D03*
X99000000Y-115000000D03*
X99000000Y-113000000D03*
X97000000Y-114000000D03*
X99000000Y-111000000D03*
X103500000Y-116000000D03*
X103500000Y-114000000D03*
X103500000Y-112000000D03*
X101500000Y-115000000D03*
X101500000Y-113000000D03*
X101500000Y-111000000D03*
D11*
X100250000Y-62650000D03*
X100250000Y-102950000D03*
X100250000Y-122650000D03*
X100250000Y-162950000D03*
G04 #@! TD*
G04 #@! TO.C,P11*
X85250000Y-162950000D03*
X85250000Y-122650000D03*
X85250000Y-102950000D03*
X85250000Y-62650000D03*
D12*
X86500000Y-111000000D03*
X86500000Y-113000000D03*
X86500000Y-115000000D03*
X88500000Y-112000000D03*
X88500000Y-114000000D03*
X88500000Y-116000000D03*
X84000000Y-111000000D03*
X82000000Y-114000000D03*
X84000000Y-113000000D03*
X84000000Y-115000000D03*
X82000000Y-112000000D03*
X86500000Y-117000000D03*
X86500000Y-121000000D03*
X86500000Y-119000000D03*
X88500000Y-118000000D03*
X88500000Y-120000000D03*
X82000000Y-116000000D03*
X82000000Y-118000000D03*
X84000000Y-117000000D03*
X84000000Y-119000000D03*
X82000000Y-120000000D03*
X84000000Y-121000000D03*
X82000000Y-124000000D03*
X82000000Y-128000000D03*
X84000000Y-125000000D03*
X84000000Y-127000000D03*
X82000000Y-126000000D03*
X86500000Y-127000000D03*
X88500000Y-128000000D03*
X88500000Y-126000000D03*
X88500000Y-124000000D03*
X86500000Y-125000000D03*
X82000000Y-152000000D03*
X82000000Y-156000000D03*
X82000000Y-154000000D03*
X84000000Y-151000000D03*
X84000000Y-157000000D03*
X84000000Y-155000000D03*
X84000000Y-153000000D03*
X82000000Y-150000000D03*
X84000000Y-143000000D03*
X82000000Y-148000000D03*
X82000000Y-146000000D03*
X82000000Y-144000000D03*
X84000000Y-149000000D03*
X84000000Y-145000000D03*
X84000000Y-147000000D03*
X82000000Y-160000000D03*
X84000000Y-159000000D03*
X82000000Y-158000000D03*
X84000000Y-161000000D03*
X86500000Y-161000000D03*
X86500000Y-159000000D03*
X88500000Y-160000000D03*
X88500000Y-158000000D03*
X86500000Y-149000000D03*
X86500000Y-151000000D03*
X88500000Y-152000000D03*
X88500000Y-150000000D03*
X86500000Y-157000000D03*
X86500000Y-153000000D03*
X88500000Y-156000000D03*
X88500000Y-154000000D03*
X86500000Y-155000000D03*
X86500000Y-147000000D03*
X86500000Y-145000000D03*
X88500000Y-144000000D03*
X86500000Y-143000000D03*
X88500000Y-146000000D03*
X88500000Y-148000000D03*
X86500000Y-139000000D03*
X88500000Y-142000000D03*
X86500000Y-141000000D03*
X88500000Y-140000000D03*
X88500000Y-138000000D03*
X88500000Y-136000000D03*
X82000000Y-142000000D03*
X82000000Y-138000000D03*
X82000000Y-136000000D03*
X84000000Y-141000000D03*
X84000000Y-139000000D03*
X82000000Y-140000000D03*
X84000000Y-135000000D03*
X84000000Y-137000000D03*
X86500000Y-137000000D03*
X86500000Y-135000000D03*
X88500000Y-134000000D03*
X84000000Y-133000000D03*
X82000000Y-134000000D03*
X82000000Y-132000000D03*
X82000000Y-130000000D03*
X84000000Y-131000000D03*
X84000000Y-129000000D03*
X86500000Y-133000000D03*
X86500000Y-131000000D03*
X88500000Y-132000000D03*
X88500000Y-130000000D03*
X86500000Y-129000000D03*
D13*
X84000000Y-51000000D03*
D12*
X86500000Y-51000000D03*
X82000000Y-52000000D03*
X82000000Y-54000000D03*
X82000000Y-56000000D03*
X82000000Y-58000000D03*
X84000000Y-53000000D03*
X84000000Y-55000000D03*
X84000000Y-57000000D03*
X84000000Y-59000000D03*
X86500000Y-53000000D03*
X86500000Y-55000000D03*
X86500000Y-57000000D03*
X86500000Y-59000000D03*
X88500000Y-52000000D03*
X88500000Y-54000000D03*
X88500000Y-56000000D03*
X88500000Y-58000000D03*
X82000000Y-60000000D03*
X88500000Y-60000000D03*
X84000000Y-61000000D03*
X86500000Y-61000000D03*
X82000000Y-100000000D03*
X82000000Y-92000000D03*
X82000000Y-90000000D03*
X82000000Y-94000000D03*
X82000000Y-96000000D03*
X82000000Y-98000000D03*
X82000000Y-88000000D03*
X82000000Y-86000000D03*
X82000000Y-64000000D03*
X82000000Y-66000000D03*
X82000000Y-68000000D03*
X82000000Y-82000000D03*
X82000000Y-80000000D03*
X82000000Y-84000000D03*
X82000000Y-74000000D03*
X82000000Y-72000000D03*
X82000000Y-70000000D03*
X82000000Y-78000000D03*
X82000000Y-76000000D03*
X84000000Y-91000000D03*
X84000000Y-89000000D03*
X84000000Y-93000000D03*
X84000000Y-81000000D03*
X84000000Y-79000000D03*
X84000000Y-83000000D03*
X84000000Y-71000000D03*
X84000000Y-69000000D03*
X84000000Y-73000000D03*
X84000000Y-99000000D03*
X84000000Y-97000000D03*
X84000000Y-95000000D03*
X84000000Y-101000000D03*
X84000000Y-85000000D03*
X84000000Y-87000000D03*
X84000000Y-75000000D03*
X84000000Y-77000000D03*
X84000000Y-65000000D03*
X84000000Y-67000000D03*
X86500000Y-101000000D03*
X86500000Y-97000000D03*
X86500000Y-95000000D03*
X86500000Y-99000000D03*
X86500000Y-93000000D03*
X86500000Y-89000000D03*
X86500000Y-87000000D03*
X86500000Y-85000000D03*
X86500000Y-91000000D03*
X86500000Y-83000000D03*
X86500000Y-79000000D03*
X86500000Y-77000000D03*
X86500000Y-75000000D03*
X86500000Y-81000000D03*
X86500000Y-73000000D03*
X86500000Y-69000000D03*
X86500000Y-67000000D03*
X86500000Y-65000000D03*
X86500000Y-71000000D03*
X88500000Y-100000000D03*
X88500000Y-98000000D03*
X88500000Y-96000000D03*
X88500000Y-94000000D03*
X88500000Y-92000000D03*
X88500000Y-90000000D03*
X88500000Y-88000000D03*
X88500000Y-86000000D03*
X88500000Y-84000000D03*
X88500000Y-82000000D03*
X88500000Y-80000000D03*
X88500000Y-78000000D03*
X88500000Y-76000000D03*
X88500000Y-74000000D03*
X88500000Y-72000000D03*
X88500000Y-70000000D03*
X88500000Y-68000000D03*
X88500000Y-66000000D03*
X88500000Y-64000000D03*
G04 #@! TD*
G04 #@! TO.C,P12*
X73500000Y-64000000D03*
X73500000Y-66000000D03*
X73500000Y-68000000D03*
X73500000Y-70000000D03*
X73500000Y-72000000D03*
X73500000Y-74000000D03*
X73500000Y-76000000D03*
X73500000Y-78000000D03*
X73500000Y-80000000D03*
X73500000Y-82000000D03*
X73500000Y-84000000D03*
X73500000Y-86000000D03*
X73500000Y-88000000D03*
X73500000Y-90000000D03*
X73500000Y-92000000D03*
X73500000Y-94000000D03*
X73500000Y-96000000D03*
X73500000Y-98000000D03*
X73500000Y-100000000D03*
X71500000Y-71000000D03*
X71500000Y-65000000D03*
X71500000Y-67000000D03*
X71500000Y-69000000D03*
X71500000Y-73000000D03*
X71500000Y-81000000D03*
X71500000Y-75000000D03*
X71500000Y-77000000D03*
X71500000Y-79000000D03*
X71500000Y-83000000D03*
X71500000Y-91000000D03*
X71500000Y-85000000D03*
X71500000Y-87000000D03*
X71500000Y-89000000D03*
X71500000Y-93000000D03*
X71500000Y-99000000D03*
X71500000Y-95000000D03*
X71500000Y-97000000D03*
X71500000Y-101000000D03*
X69000000Y-67000000D03*
X69000000Y-65000000D03*
X69000000Y-77000000D03*
X69000000Y-75000000D03*
X69000000Y-87000000D03*
X69000000Y-85000000D03*
X69000000Y-101000000D03*
X69000000Y-95000000D03*
X69000000Y-97000000D03*
X69000000Y-99000000D03*
X69000000Y-73000000D03*
X69000000Y-69000000D03*
X69000000Y-71000000D03*
X69000000Y-83000000D03*
X69000000Y-79000000D03*
X69000000Y-81000000D03*
X69000000Y-93000000D03*
X69000000Y-89000000D03*
X69000000Y-91000000D03*
X67000000Y-76000000D03*
X67000000Y-78000000D03*
X67000000Y-70000000D03*
X67000000Y-72000000D03*
X67000000Y-74000000D03*
X67000000Y-84000000D03*
X67000000Y-80000000D03*
X67000000Y-82000000D03*
X67000000Y-68000000D03*
X67000000Y-66000000D03*
X67000000Y-64000000D03*
X67000000Y-86000000D03*
X67000000Y-88000000D03*
X67000000Y-98000000D03*
X67000000Y-96000000D03*
X67000000Y-94000000D03*
X67000000Y-90000000D03*
X67000000Y-92000000D03*
X67000000Y-100000000D03*
X71500000Y-61000000D03*
X69000000Y-61000000D03*
X73500000Y-60000000D03*
X67000000Y-60000000D03*
X73500000Y-58000000D03*
X73500000Y-56000000D03*
X73500000Y-54000000D03*
X73500000Y-52000000D03*
X71500000Y-59000000D03*
X71500000Y-57000000D03*
X71500000Y-55000000D03*
X71500000Y-53000000D03*
X69000000Y-59000000D03*
X69000000Y-57000000D03*
X69000000Y-55000000D03*
X69000000Y-53000000D03*
X67000000Y-58000000D03*
X67000000Y-56000000D03*
X67000000Y-54000000D03*
X67000000Y-52000000D03*
X71500000Y-51000000D03*
D13*
X69000000Y-51000000D03*
D12*
X71500000Y-129000000D03*
X73500000Y-130000000D03*
X73500000Y-132000000D03*
X71500000Y-131000000D03*
X71500000Y-133000000D03*
X69000000Y-129000000D03*
X69000000Y-131000000D03*
X67000000Y-130000000D03*
X67000000Y-132000000D03*
X67000000Y-134000000D03*
X69000000Y-133000000D03*
X73500000Y-134000000D03*
X71500000Y-135000000D03*
X71500000Y-137000000D03*
X69000000Y-137000000D03*
X69000000Y-135000000D03*
X67000000Y-140000000D03*
X69000000Y-139000000D03*
X69000000Y-141000000D03*
X67000000Y-136000000D03*
X67000000Y-138000000D03*
X67000000Y-142000000D03*
X73500000Y-136000000D03*
X73500000Y-138000000D03*
X73500000Y-140000000D03*
X71500000Y-141000000D03*
X73500000Y-142000000D03*
X71500000Y-139000000D03*
X73500000Y-148000000D03*
X73500000Y-146000000D03*
X71500000Y-143000000D03*
X73500000Y-144000000D03*
X71500000Y-145000000D03*
X71500000Y-147000000D03*
X71500000Y-155000000D03*
X73500000Y-154000000D03*
X73500000Y-156000000D03*
X71500000Y-153000000D03*
X71500000Y-157000000D03*
X73500000Y-150000000D03*
X73500000Y-152000000D03*
X71500000Y-151000000D03*
X71500000Y-149000000D03*
X73500000Y-158000000D03*
X73500000Y-160000000D03*
X71500000Y-159000000D03*
X71500000Y-161000000D03*
X69000000Y-161000000D03*
X67000000Y-158000000D03*
X69000000Y-159000000D03*
X67000000Y-160000000D03*
X69000000Y-147000000D03*
X69000000Y-145000000D03*
X69000000Y-149000000D03*
X67000000Y-144000000D03*
X67000000Y-146000000D03*
X67000000Y-148000000D03*
X69000000Y-143000000D03*
X67000000Y-150000000D03*
X69000000Y-153000000D03*
X69000000Y-155000000D03*
X69000000Y-157000000D03*
X69000000Y-151000000D03*
X67000000Y-154000000D03*
X67000000Y-156000000D03*
X67000000Y-152000000D03*
X71500000Y-125000000D03*
X73500000Y-124000000D03*
X73500000Y-126000000D03*
X73500000Y-128000000D03*
X71500000Y-127000000D03*
X67000000Y-126000000D03*
X69000000Y-127000000D03*
X69000000Y-125000000D03*
X67000000Y-128000000D03*
X67000000Y-124000000D03*
X69000000Y-121000000D03*
X67000000Y-120000000D03*
X69000000Y-119000000D03*
X69000000Y-117000000D03*
X67000000Y-118000000D03*
X67000000Y-116000000D03*
X73500000Y-120000000D03*
X73500000Y-118000000D03*
X71500000Y-119000000D03*
X71500000Y-121000000D03*
X71500000Y-117000000D03*
X67000000Y-112000000D03*
X69000000Y-115000000D03*
X69000000Y-113000000D03*
X67000000Y-114000000D03*
X69000000Y-111000000D03*
X73500000Y-116000000D03*
X73500000Y-114000000D03*
X73500000Y-112000000D03*
X71500000Y-115000000D03*
X71500000Y-113000000D03*
X71500000Y-111000000D03*
D11*
X70250000Y-62650000D03*
X70250000Y-102950000D03*
X70250000Y-122650000D03*
X70250000Y-162950000D03*
G04 #@! TD*
D14*
G04 #@! TO.C,CN20*
X54440000Y-98000000D03*
X55960000Y-98000000D03*
X54440000Y-97200000D03*
X55960000Y-97200000D03*
X54440000Y-98800000D03*
X54440000Y-96400000D03*
X55960000Y-96400000D03*
X55960000Y-98800000D03*
G04 #@! TD*
G04 #@! TO.C,CN21*
X54440000Y-92800000D03*
X55960000Y-92800000D03*
X54440000Y-92000000D03*
X55960000Y-92000000D03*
X54440000Y-93600000D03*
X54440000Y-91200000D03*
X55960000Y-91200000D03*
X55960000Y-93600000D03*
G04 #@! TD*
G04 #@! TO.C,CN22*
X54440000Y-86800000D03*
X55960000Y-86800000D03*
X54440000Y-86000000D03*
X55960000Y-86000000D03*
X54440000Y-87600000D03*
X54440000Y-85200000D03*
X55960000Y-85200000D03*
X55960000Y-87600000D03*
G04 #@! TD*
G04 #@! TO.C,CN23*
X55960000Y-81600000D03*
X55960000Y-79200000D03*
X54440000Y-79200000D03*
X54440000Y-81600000D03*
X55960000Y-80000000D03*
X54440000Y-80000000D03*
X55960000Y-80800000D03*
X54440000Y-80800000D03*
G04 #@! TD*
G04 #@! TO.C,CN24*
X55960000Y-76600000D03*
X55960000Y-74200000D03*
X54440000Y-74200000D03*
X54440000Y-76600000D03*
X55960000Y-75000000D03*
X54440000Y-75000000D03*
X55960000Y-75800000D03*
X54440000Y-75800000D03*
G04 #@! TD*
G04 #@! TO.C,CN25*
X55960000Y-71600000D03*
X55960000Y-69200000D03*
X54440000Y-69200000D03*
X54440000Y-71600000D03*
X55960000Y-70000000D03*
X54440000Y-70000000D03*
X55960000Y-70800000D03*
X54440000Y-70800000D03*
G04 #@! TD*
G04 #@! TO.C,CN26*
X54440000Y-65800000D03*
X55960000Y-65800000D03*
X54440000Y-65000000D03*
X55960000Y-65000000D03*
X54440000Y-66600000D03*
X54440000Y-64200000D03*
X55960000Y-64200000D03*
X55960000Y-66600000D03*
G04 #@! TD*
G04 #@! TO.C,CN27*
X55960000Y-58600000D03*
X55960000Y-56200000D03*
X54440000Y-56200000D03*
X54440000Y-58600000D03*
X55960000Y-57000000D03*
X54440000Y-57000000D03*
X55960000Y-57800000D03*
X54440000Y-57800000D03*
G04 #@! TD*
G04 #@! TO.C,CN28*
X55960000Y-52600000D03*
X55960000Y-50200000D03*
X54440000Y-50200000D03*
X54440000Y-52600000D03*
X55960000Y-51000000D03*
X54440000Y-51000000D03*
X55960000Y-51800000D03*
X54440000Y-51800000D03*
G04 #@! TD*
G04 #@! TO.C,CN29*
X55960000Y-162600000D03*
X55960000Y-160200000D03*
X54440000Y-160200000D03*
X54440000Y-162600000D03*
X55960000Y-161000000D03*
X54440000Y-161000000D03*
X55960000Y-161800000D03*
X54440000Y-161800000D03*
G04 #@! TD*
G04 #@! TO.C,CN30*
X55960000Y-157600000D03*
X55960000Y-155200000D03*
X54440000Y-155200000D03*
X54440000Y-157600000D03*
X55960000Y-156000000D03*
X54440000Y-156000000D03*
X55960000Y-156800000D03*
X54440000Y-156800000D03*
G04 #@! TD*
G04 #@! TO.C,CN31*
X54440000Y-150800000D03*
X55960000Y-150800000D03*
X54440000Y-150000000D03*
X55960000Y-150000000D03*
X54440000Y-151600000D03*
X54440000Y-149200000D03*
X55960000Y-149200000D03*
X55960000Y-151600000D03*
G04 #@! TD*
G04 #@! TO.C,CN32*
X55960000Y-146600000D03*
X55960000Y-144200000D03*
X54440000Y-144200000D03*
X54440000Y-146600000D03*
X55960000Y-145000000D03*
X54440000Y-145000000D03*
X55960000Y-145800000D03*
X54440000Y-145800000D03*
G04 #@! TD*
G04 #@! TO.C,CN33*
X55960000Y-140600000D03*
X55960000Y-138200000D03*
X54440000Y-138200000D03*
X54440000Y-140600000D03*
X55960000Y-139000000D03*
X54440000Y-139000000D03*
X55960000Y-139800000D03*
X54440000Y-139800000D03*
G04 #@! TD*
G04 #@! TO.C,CN34*
X55960000Y-135600000D03*
X55960000Y-133200000D03*
X54440000Y-133200000D03*
X54440000Y-135600000D03*
X55960000Y-134000000D03*
X54440000Y-134000000D03*
X55960000Y-134800000D03*
X54440000Y-134800000D03*
G04 #@! TD*
G04 #@! TO.C,CN35*
X54440000Y-128800000D03*
X55960000Y-128800000D03*
X54440000Y-128000000D03*
X55960000Y-128000000D03*
X54440000Y-129600000D03*
X54440000Y-127200000D03*
X55960000Y-127200000D03*
X55960000Y-129600000D03*
G04 #@! TD*
G04 #@! TO.C,CN36*
X55960000Y-123000000D03*
X55960000Y-120600000D03*
X54440000Y-120600000D03*
X54440000Y-123000000D03*
X55960000Y-121400000D03*
X54440000Y-121400000D03*
X55960000Y-122200000D03*
X54440000Y-122200000D03*
G04 #@! TD*
G04 #@! TO.C,CN37*
X55960000Y-117000000D03*
X55960000Y-114600000D03*
X54440000Y-114600000D03*
X54440000Y-117000000D03*
X55960000Y-115400000D03*
X54440000Y-115400000D03*
X55960000Y-116200000D03*
X54440000Y-116200000D03*
G04 #@! TD*
G04 #@! TO.C,CN38*
X55960000Y-112600000D03*
X55960000Y-110200000D03*
X54440000Y-110200000D03*
X54440000Y-112600000D03*
X55960000Y-111000000D03*
X54440000Y-111000000D03*
X55960000Y-111800000D03*
X54440000Y-111800000D03*
G04 #@! TD*
G04 #@! TO.C,CN58*
X249040000Y-49600000D03*
X249040000Y-52000000D03*
X250560000Y-52000000D03*
X250560000Y-49600000D03*
X249040000Y-51200000D03*
X250560000Y-51200000D03*
X249040000Y-50400000D03*
X250560000Y-50400000D03*
G04 #@! TD*
G04 #@! TO.C,CN59*
X249040000Y-55600000D03*
X249040000Y-58000000D03*
X250560000Y-58000000D03*
X250560000Y-55600000D03*
X249040000Y-57200000D03*
X250560000Y-57200000D03*
X249040000Y-56400000D03*
X250560000Y-56400000D03*
G04 #@! TD*
G04 #@! TO.C,CN60*
X249040000Y-62600000D03*
X249040000Y-65000000D03*
X250560000Y-65000000D03*
X250560000Y-62600000D03*
X249040000Y-64200000D03*
X250560000Y-64200000D03*
X249040000Y-63400000D03*
X250560000Y-63400000D03*
G04 #@! TD*
G04 #@! TO.C,CN61*
X249040000Y-69600000D03*
X249040000Y-72000000D03*
X250560000Y-72000000D03*
X250560000Y-69600000D03*
X249040000Y-71200000D03*
X250560000Y-71200000D03*
X249040000Y-70400000D03*
X250560000Y-70400000D03*
G04 #@! TD*
G04 #@! TO.C,CN62*
X249040000Y-75000000D03*
X249040000Y-77400000D03*
X250560000Y-77400000D03*
X250560000Y-75000000D03*
X249040000Y-76600000D03*
X250560000Y-76600000D03*
X249040000Y-75800000D03*
X250560000Y-75800000D03*
G04 #@! TD*
G04 #@! TO.C,CN63*
X249040000Y-80600000D03*
X249040000Y-83000000D03*
X250560000Y-83000000D03*
X250560000Y-80600000D03*
X249040000Y-82200000D03*
X250560000Y-82200000D03*
X249040000Y-81400000D03*
X250560000Y-81400000D03*
G04 #@! TD*
G04 #@! TO.C,CN64*
X249040000Y-85600000D03*
X249040000Y-88000000D03*
X250560000Y-88000000D03*
X250560000Y-85600000D03*
X249040000Y-87200000D03*
X250560000Y-87200000D03*
X249040000Y-86400000D03*
X250560000Y-86400000D03*
G04 #@! TD*
G04 #@! TO.C,CN65*
X249040000Y-90600000D03*
X249040000Y-93000000D03*
X250560000Y-93000000D03*
X250560000Y-90600000D03*
X249040000Y-92200000D03*
X250560000Y-92200000D03*
X249040000Y-91400000D03*
X250560000Y-91400000D03*
G04 #@! TD*
G04 #@! TO.C,CN66*
X249040000Y-95600000D03*
X249040000Y-98000000D03*
X250560000Y-98000000D03*
X250560000Y-95600000D03*
X249040000Y-97200000D03*
X250560000Y-97200000D03*
X249040000Y-96400000D03*
X250560000Y-96400000D03*
G04 #@! TD*
G04 #@! TO.C,CN67*
X249040000Y-111600000D03*
X249040000Y-114000000D03*
X250560000Y-114000000D03*
X250560000Y-111600000D03*
X249040000Y-113200000D03*
X250560000Y-113200000D03*
X249040000Y-112400000D03*
X250560000Y-112400000D03*
G04 #@! TD*
G04 #@! TO.C,CN68*
X249040000Y-116600000D03*
X249040000Y-119000000D03*
X250560000Y-119000000D03*
X250560000Y-116600000D03*
X249040000Y-118200000D03*
X250560000Y-118200000D03*
X249040000Y-117400000D03*
X250560000Y-117400000D03*
G04 #@! TD*
G04 #@! TO.C,CN69*
X250560000Y-122400000D03*
X249040000Y-122400000D03*
X250560000Y-123200000D03*
X249040000Y-123200000D03*
X250560000Y-121600000D03*
X250560000Y-124000000D03*
X249040000Y-124000000D03*
X249040000Y-121600000D03*
G04 #@! TD*
G04 #@! TO.C,CN70*
X250560000Y-128400000D03*
X249040000Y-128400000D03*
X250560000Y-129200000D03*
X249040000Y-129200000D03*
X250560000Y-127600000D03*
X250560000Y-130000000D03*
X249040000Y-130000000D03*
X249040000Y-127600000D03*
G04 #@! TD*
G04 #@! TO.C,CN71*
X250560000Y-133400000D03*
X249040000Y-133400000D03*
X250560000Y-134200000D03*
X249040000Y-134200000D03*
X250560000Y-132600000D03*
X250560000Y-135000000D03*
X249040000Y-135000000D03*
X249040000Y-132600000D03*
G04 #@! TD*
G04 #@! TO.C,CN72*
X250560000Y-139400000D03*
X249040000Y-139400000D03*
X250560000Y-140200000D03*
X249040000Y-140200000D03*
X250560000Y-138600000D03*
X250560000Y-141000000D03*
X249040000Y-141000000D03*
X249040000Y-138600000D03*
G04 #@! TD*
G04 #@! TO.C,CN73*
X250560000Y-145400000D03*
X249040000Y-145400000D03*
X250560000Y-146200000D03*
X249040000Y-146200000D03*
X250560000Y-144600000D03*
X250560000Y-147000000D03*
X249040000Y-147000000D03*
X249040000Y-144600000D03*
G04 #@! TD*
G04 #@! TO.C,CN74*
X249040000Y-149600000D03*
X249040000Y-152000000D03*
X250560000Y-152000000D03*
X250560000Y-149600000D03*
X249040000Y-151200000D03*
X250560000Y-151200000D03*
X249040000Y-150400000D03*
X250560000Y-150400000D03*
G04 #@! TD*
G04 #@! TO.C,CN75*
X249040000Y-155600000D03*
X249040000Y-158000000D03*
X250560000Y-158000000D03*
X250560000Y-155600000D03*
X249040000Y-157200000D03*
X250560000Y-157200000D03*
X249040000Y-156400000D03*
X250560000Y-156400000D03*
G04 #@! TD*
G04 #@! TO.C,CN76*
X249040000Y-160600000D03*
X249040000Y-163000000D03*
X250560000Y-163000000D03*
X250560000Y-160600000D03*
X249040000Y-162200000D03*
X250560000Y-162200000D03*
X249040000Y-161400000D03*
X250560000Y-161400000D03*
G04 #@! TD*
G04 #@! TO.C,RN20*
X60960000Y-98800000D03*
X60960000Y-96400000D03*
X59440000Y-96400000D03*
X59440000Y-98800000D03*
X60960000Y-97200000D03*
X59440000Y-97200000D03*
X60960000Y-98000000D03*
X59440000Y-98000000D03*
G04 #@! TD*
G04 #@! TO.C,RN21*
X60960000Y-93600000D03*
X60960000Y-91200000D03*
X59440000Y-91200000D03*
X59440000Y-93600000D03*
X60960000Y-92000000D03*
X59440000Y-92000000D03*
X60960000Y-92800000D03*
X59440000Y-92800000D03*
G04 #@! TD*
G04 #@! TO.C,RN22*
X60960000Y-87600000D03*
X60960000Y-85200000D03*
X59440000Y-85200000D03*
X59440000Y-87600000D03*
X60960000Y-86000000D03*
X59440000Y-86000000D03*
X60960000Y-86800000D03*
X59440000Y-86800000D03*
G04 #@! TD*
G04 #@! TO.C,RN23*
X60960000Y-81600000D03*
X60960000Y-79200000D03*
X59440000Y-79200000D03*
X59440000Y-81600000D03*
X60960000Y-80000000D03*
X59440000Y-80000000D03*
X60960000Y-80800000D03*
X59440000Y-80800000D03*
G04 #@! TD*
G04 #@! TO.C,RN24*
X59440000Y-75800000D03*
X60960000Y-75800000D03*
X59440000Y-75000000D03*
X60960000Y-75000000D03*
X59440000Y-76600000D03*
X59440000Y-74200000D03*
X60960000Y-74200000D03*
X60960000Y-76600000D03*
G04 #@! TD*
G04 #@! TO.C,RN25*
X59440000Y-70800000D03*
X60960000Y-70800000D03*
X59440000Y-70000000D03*
X60960000Y-70000000D03*
X59440000Y-71600000D03*
X59440000Y-69200000D03*
X60960000Y-69200000D03*
X60960000Y-71600000D03*
G04 #@! TD*
G04 #@! TO.C,RN26*
X59440000Y-65800000D03*
X60960000Y-65800000D03*
X59440000Y-65000000D03*
X60960000Y-65000000D03*
X59440000Y-66600000D03*
X59440000Y-64200000D03*
X60960000Y-64200000D03*
X60960000Y-66600000D03*
G04 #@! TD*
G04 #@! TO.C,RN27*
X59440000Y-57800000D03*
X60960000Y-57800000D03*
X59440000Y-57000000D03*
X60960000Y-57000000D03*
X59440000Y-58600000D03*
X59440000Y-56200000D03*
X60960000Y-56200000D03*
X60960000Y-58600000D03*
G04 #@! TD*
G04 #@! TO.C,RN28*
X59440000Y-51800000D03*
X60960000Y-51800000D03*
X59440000Y-51000000D03*
X60960000Y-51000000D03*
X59440000Y-52600000D03*
X59440000Y-50200000D03*
X60960000Y-50200000D03*
X60960000Y-52600000D03*
G04 #@! TD*
G04 #@! TO.C,RN29*
X59440000Y-161800000D03*
X60960000Y-161800000D03*
X59440000Y-161000000D03*
X60960000Y-161000000D03*
X59440000Y-162600000D03*
X59440000Y-160200000D03*
X60960000Y-160200000D03*
X60960000Y-162600000D03*
G04 #@! TD*
G04 #@! TO.C,RN30*
X59440000Y-156800000D03*
X60960000Y-156800000D03*
X59440000Y-156000000D03*
X60960000Y-156000000D03*
X59440000Y-157600000D03*
X59440000Y-155200000D03*
X60960000Y-155200000D03*
X60960000Y-157600000D03*
G04 #@! TD*
G04 #@! TO.C,RN31*
X59440000Y-150800000D03*
X60960000Y-150800000D03*
X59440000Y-150000000D03*
X60960000Y-150000000D03*
X59440000Y-151600000D03*
X59440000Y-149200000D03*
X60960000Y-149200000D03*
X60960000Y-151600000D03*
G04 #@! TD*
G04 #@! TO.C,RN32*
X59440000Y-145800000D03*
X60960000Y-145800000D03*
X59440000Y-145000000D03*
X60960000Y-145000000D03*
X59440000Y-146600000D03*
X59440000Y-144200000D03*
X60960000Y-144200000D03*
X60960000Y-146600000D03*
G04 #@! TD*
G04 #@! TO.C,RN33*
X59440000Y-139800000D03*
X60960000Y-139800000D03*
X59440000Y-139000000D03*
X60960000Y-139000000D03*
X59440000Y-140600000D03*
X59440000Y-138200000D03*
X60960000Y-138200000D03*
X60960000Y-140600000D03*
G04 #@! TD*
G04 #@! TO.C,RN34*
X59440000Y-134800000D03*
X60960000Y-134800000D03*
X59440000Y-134000000D03*
X60960000Y-134000000D03*
X59440000Y-135600000D03*
X59440000Y-133200000D03*
X60960000Y-133200000D03*
X60960000Y-135600000D03*
G04 #@! TD*
G04 #@! TO.C,RN35*
X59440000Y-128800000D03*
X60960000Y-128800000D03*
X59440000Y-128000000D03*
X60960000Y-128000000D03*
X59440000Y-129600000D03*
X59440000Y-127200000D03*
X60960000Y-127200000D03*
X60960000Y-129600000D03*
G04 #@! TD*
G04 #@! TO.C,RN36*
X60960000Y-123000000D03*
X60960000Y-120600000D03*
X59440000Y-120600000D03*
X59440000Y-123000000D03*
X60960000Y-121400000D03*
X59440000Y-121400000D03*
X60960000Y-122200000D03*
X59440000Y-122200000D03*
G04 #@! TD*
G04 #@! TO.C,RN37*
X59440000Y-116200000D03*
X60960000Y-116200000D03*
X59440000Y-115400000D03*
X60960000Y-115400000D03*
X59440000Y-117000000D03*
X59440000Y-114600000D03*
X60960000Y-114600000D03*
X60960000Y-117000000D03*
G04 #@! TD*
G04 #@! TO.C,RN38*
X59440000Y-111800000D03*
X60960000Y-111800000D03*
X59440000Y-111000000D03*
X60960000Y-111000000D03*
X59440000Y-112600000D03*
X59440000Y-110200000D03*
X60960000Y-110200000D03*
X60960000Y-112600000D03*
G04 #@! TD*
G04 #@! TO.C,RN58*
X245560000Y-50400000D03*
X244040000Y-50400000D03*
X245560000Y-51200000D03*
X244040000Y-51200000D03*
X245560000Y-49600000D03*
X245560000Y-52000000D03*
X244040000Y-52000000D03*
X244040000Y-49600000D03*
G04 #@! TD*
G04 #@! TO.C,RN59*
X245560000Y-56400000D03*
X244040000Y-56400000D03*
X245560000Y-57200000D03*
X244040000Y-57200000D03*
X245560000Y-55600000D03*
X245560000Y-58000000D03*
X244040000Y-58000000D03*
X244040000Y-55600000D03*
G04 #@! TD*
G04 #@! TO.C,RN60*
X245560000Y-63400000D03*
X244040000Y-63400000D03*
X245560000Y-64200000D03*
X244040000Y-64200000D03*
X245560000Y-62600000D03*
X245560000Y-65000000D03*
X244040000Y-65000000D03*
X244040000Y-62600000D03*
G04 #@! TD*
G04 #@! TO.C,RN61*
X245560000Y-70400000D03*
X244040000Y-70400000D03*
X245560000Y-71200000D03*
X244040000Y-71200000D03*
X245560000Y-69600000D03*
X245560000Y-72000000D03*
X244040000Y-72000000D03*
X244040000Y-69600000D03*
G04 #@! TD*
G04 #@! TO.C,RN62*
X245560000Y-75800000D03*
X244040000Y-75800000D03*
X245560000Y-76600000D03*
X244040000Y-76600000D03*
X245560000Y-75000000D03*
X245560000Y-77400000D03*
X244040000Y-77400000D03*
X244040000Y-75000000D03*
G04 #@! TD*
G04 #@! TO.C,RN63*
X245560000Y-81400000D03*
X244040000Y-81400000D03*
X245560000Y-82200000D03*
X244040000Y-82200000D03*
X245560000Y-80600000D03*
X245560000Y-83000000D03*
X244040000Y-83000000D03*
X244040000Y-80600000D03*
G04 #@! TD*
G04 #@! TO.C,RN64*
X245560000Y-86400000D03*
X244040000Y-86400000D03*
X245560000Y-87200000D03*
X244040000Y-87200000D03*
X245560000Y-85600000D03*
X245560000Y-88000000D03*
X244040000Y-88000000D03*
X244040000Y-85600000D03*
G04 #@! TD*
G04 #@! TO.C,RN65*
X245560000Y-91400000D03*
X244040000Y-91400000D03*
X245560000Y-92200000D03*
X244040000Y-92200000D03*
X245560000Y-90600000D03*
X245560000Y-93000000D03*
X244040000Y-93000000D03*
X244040000Y-90600000D03*
G04 #@! TD*
G04 #@! TO.C,RN66*
X245560000Y-96400000D03*
X244040000Y-96400000D03*
X245560000Y-97200000D03*
X244040000Y-97200000D03*
X245560000Y-95600000D03*
X245560000Y-98000000D03*
X244040000Y-98000000D03*
X244040000Y-95600000D03*
G04 #@! TD*
G04 #@! TO.C,RN67*
X245560000Y-112400000D03*
X244040000Y-112400000D03*
X245560000Y-113200000D03*
X244040000Y-113200000D03*
X245560000Y-111600000D03*
X245560000Y-114000000D03*
X244040000Y-114000000D03*
X244040000Y-111600000D03*
G04 #@! TD*
G04 #@! TO.C,RN68*
X244040000Y-116600000D03*
X244040000Y-119000000D03*
X245560000Y-119000000D03*
X245560000Y-116600000D03*
X244040000Y-118200000D03*
X245560000Y-118200000D03*
X244040000Y-117400000D03*
X245560000Y-117400000D03*
G04 #@! TD*
G04 #@! TO.C,RN69*
X244040000Y-121600000D03*
X244040000Y-124000000D03*
X245560000Y-124000000D03*
X245560000Y-121600000D03*
X244040000Y-123200000D03*
X245560000Y-123200000D03*
X244040000Y-122400000D03*
X245560000Y-122400000D03*
G04 #@! TD*
G04 #@! TO.C,RN70*
X244040000Y-127600000D03*
X244040000Y-130000000D03*
X245560000Y-130000000D03*
X245560000Y-127600000D03*
X244040000Y-129200000D03*
X245560000Y-129200000D03*
X244040000Y-128400000D03*
X245560000Y-128400000D03*
G04 #@! TD*
G04 #@! TO.C,RN71*
X244040000Y-132600000D03*
X244040000Y-135000000D03*
X245560000Y-135000000D03*
X245560000Y-132600000D03*
X244040000Y-134200000D03*
X245560000Y-134200000D03*
X244040000Y-133400000D03*
X245560000Y-133400000D03*
G04 #@! TD*
G04 #@! TO.C,RN72*
X244040000Y-138600000D03*
X244040000Y-141000000D03*
X245560000Y-141000000D03*
X245560000Y-138600000D03*
X244040000Y-140200000D03*
X245560000Y-140200000D03*
X244040000Y-139400000D03*
X245560000Y-139400000D03*
G04 #@! TD*
G04 #@! TO.C,RN73*
X245560000Y-145400000D03*
X244040000Y-145400000D03*
X245560000Y-146200000D03*
X244040000Y-146200000D03*
X245560000Y-144600000D03*
X245560000Y-147000000D03*
X244040000Y-147000000D03*
X244040000Y-144600000D03*
G04 #@! TD*
G04 #@! TO.C,RN74*
X245560000Y-150400000D03*
X244040000Y-150400000D03*
X245560000Y-151200000D03*
X244040000Y-151200000D03*
X245560000Y-149600000D03*
X245560000Y-152000000D03*
X244040000Y-152000000D03*
X244040000Y-149600000D03*
G04 #@! TD*
G04 #@! TO.C,RN75*
X244040000Y-155600000D03*
X244040000Y-158000000D03*
X245560000Y-158000000D03*
X245560000Y-155600000D03*
X244040000Y-157200000D03*
X245560000Y-157200000D03*
X244040000Y-156400000D03*
X245560000Y-156400000D03*
G04 #@! TD*
G04 #@! TO.C,RN76*
X245560000Y-161400000D03*
X244040000Y-161400000D03*
X245560000Y-162200000D03*
X244040000Y-162200000D03*
X245560000Y-160600000D03*
X245560000Y-163000000D03*
X244040000Y-163000000D03*
X244040000Y-160600000D03*
G04 #@! TD*
M02*
