G04 #@! TF.GenerationSoftware,KiCad,Pcbnew,(5.0.1)-4*
G04 #@! TF.CreationDate,2018-12-06T15:24:57-08:00*
G04 #@! TF.ProjectId,lights_n_jumpers,6C69676874735F6E5F6A756D70657273,rev?*
G04 #@! TF.SameCoordinates,Original*
G04 #@! TF.FileFunction,Profile,NP*
%FSLAX46Y46*%
G04 Gerber Fmt 4.6, Leading zero omitted, Abs format (unit mm)*
G04 Created by KiCad (PCBNEW (5.0.1)-4) date 12/6/2018 3:24:57 PM*
%MOMM*%
%LPD*%
G01*
G04 APERTURE LIST*
%ADD10C,0.150000*%
G04 #@! TA.AperFunction,NonConductor*
%ADD11C,0.120000*%
G04 #@! TD*
G04 APERTURE END LIST*
D10*
X222000000Y-145200000D02*
X222000000Y-145000000D01*
X207050000Y-145200000D02*
X222000000Y-145200000D01*
X64000000Y-145200000D02*
X64000000Y-145000000D01*
X87400000Y-145200000D02*
X64000000Y-145200000D01*
X221996000Y-20320000D02*
X222000000Y-145000000D01*
X64008000Y-20320000D02*
X221996000Y-20320000D01*
X64000000Y-145000000D02*
X64008000Y-20320000D01*
X89925000Y-145200000D02*
X87400000Y-145200000D01*
D11*
G04 #@! TO.C,P1*
X105937247Y-150998230D02*
X144137247Y-150998230D01*
X89937247Y-142948230D02*
X89937247Y-145198230D01*
X105937247Y-142948230D02*
G75*
G03X104037247Y-142948230I-950000J0D01*
G01*
X204137247Y-142948230D02*
X204137247Y-150998230D01*
X207037247Y-142948230D02*
G75*
G03X204137247Y-142948230I-1450000J0D01*
G01*
X92837247Y-142948230D02*
G75*
G03X89937247Y-142948230I-1450000J0D01*
G01*
X104037247Y-150998230D02*
X92837247Y-150998230D01*
X144137247Y-142948230D02*
X144137247Y-150998230D01*
X165937247Y-142948230D02*
G75*
G03X164037247Y-142948230I-950000J0D01*
G01*
X145587247Y-141498230D02*
G75*
G03X144137247Y-142948230I0J-1450000D01*
G01*
X165937247Y-142948230D02*
X165937247Y-145198230D01*
X145587247Y-141498230D02*
X151387247Y-141498230D01*
X92837247Y-150998230D02*
X92837247Y-142948230D01*
X165937247Y-145198230D02*
X165937247Y-150998230D01*
X164037247Y-145198230D02*
X164037247Y-142948230D01*
X105937247Y-142948230D02*
X105937247Y-145198230D01*
X164037247Y-150998230D02*
X152837247Y-150998230D01*
X104037247Y-145198230D02*
X104037247Y-142948230D01*
X105937247Y-145198230D02*
X105937247Y-150998230D01*
X104037247Y-145198230D02*
X104037247Y-150998230D01*
X165937247Y-150998230D02*
X204137247Y-150998230D01*
X207037247Y-142948230D02*
X207037247Y-145198230D01*
X164037247Y-145198230D02*
X164037247Y-150998230D01*
X152837247Y-142948230D02*
G75*
G03X151387247Y-141498230I-1450000J0D01*
G01*
X152837247Y-150998230D02*
X152837247Y-142948230D01*
G04 #@! TD*
M02*
