G04 #@! TF.GenerationSoftware,KiCad,Pcbnew,(5.0.1)-4*
G04 #@! TF.CreationDate,2018-12-06T15:24:57-08:00*
G04 #@! TF.ProjectId,lights_n_jumpers,6C69676874735F6E5F6A756D70657273,rev?*
G04 #@! TF.SameCoordinates,Original*
G04 #@! TF.FileFunction,Legend,Bot*
G04 #@! TF.FilePolarity,Positive*
%FSLAX46Y46*%
G04 Gerber Fmt 4.6, Leading zero omitted, Abs format (unit mm)*
G04 Created by KiCad (PCBNEW (5.0.1)-4) date 12/6/2018 3:24:57 PM*
%MOMM*%
%LPD*%
G01*
G04 APERTURE LIST*
%ADD10C,0.150000*%
%ADD11C,0.050000*%
G04 APERTURE END LIST*
D10*
X131214666Y-32710380D02*
X131786095Y-32710380D01*
X131500380Y-32710380D02*
X131500380Y-31710380D01*
X131595619Y-31853238D01*
X131690857Y-31948476D01*
X131786095Y-31996095D01*
X130595619Y-31710380D02*
X130500380Y-31710380D01*
X130405142Y-31758000D01*
X130357523Y-31805619D01*
X130309904Y-31900857D01*
X130262285Y-32091333D01*
X130262285Y-32329428D01*
X130309904Y-32519904D01*
X130357523Y-32615142D01*
X130405142Y-32662761D01*
X130500380Y-32710380D01*
X130595619Y-32710380D01*
X130690857Y-32662761D01*
X130738476Y-32615142D01*
X130786095Y-32519904D01*
X130833714Y-32329428D01*
X130833714Y-32091333D01*
X130786095Y-31900857D01*
X130738476Y-31805619D01*
X130690857Y-31758000D01*
X130595619Y-31710380D01*
X129643238Y-31710380D02*
X129548000Y-31710380D01*
X129452761Y-31758000D01*
X129405142Y-31805619D01*
X129357523Y-31900857D01*
X129309904Y-32091333D01*
X129309904Y-32329428D01*
X129357523Y-32519904D01*
X129405142Y-32615142D01*
X129452761Y-32662761D01*
X129548000Y-32710380D01*
X129643238Y-32710380D01*
X129738476Y-32662761D01*
X129786095Y-32615142D01*
X129833714Y-32519904D01*
X129881333Y-32329428D01*
X129881333Y-32091333D01*
X129833714Y-31900857D01*
X129786095Y-31805619D01*
X129738476Y-31758000D01*
X129643238Y-31710380D01*
X128881333Y-32710380D02*
X128881333Y-31710380D01*
X128309904Y-32710380D02*
X128738476Y-32138952D01*
X128309904Y-31710380D02*
X128881333Y-32281809D01*
X212526476Y-72588380D02*
X213097904Y-72588380D01*
X212812190Y-72588380D02*
X212812190Y-71588380D01*
X212907428Y-71731238D01*
X213002666Y-71826476D01*
X213097904Y-71874095D01*
X211907428Y-71588380D02*
X211812190Y-71588380D01*
X211716952Y-71636000D01*
X211669333Y-71683619D01*
X211621714Y-71778857D01*
X211574095Y-71969333D01*
X211574095Y-72207428D01*
X211621714Y-72397904D01*
X211669333Y-72493142D01*
X211716952Y-72540761D01*
X211812190Y-72588380D01*
X211907428Y-72588380D01*
X212002666Y-72540761D01*
X212050285Y-72493142D01*
X212097904Y-72397904D01*
X212145523Y-72207428D01*
X212145523Y-71969333D01*
X212097904Y-71778857D01*
X212050285Y-71683619D01*
X212002666Y-71636000D01*
X211907428Y-71588380D01*
X211145523Y-72588380D02*
X211145523Y-71588380D01*
X210574095Y-72588380D02*
X211002666Y-72016952D01*
X210574095Y-71588380D02*
X211145523Y-72159809D01*
X211764476Y-80208380D02*
X212335904Y-80208380D01*
X212050190Y-80208380D02*
X212050190Y-79208380D01*
X212145428Y-79351238D01*
X212240666Y-79446476D01*
X212335904Y-79494095D01*
X211145428Y-79208380D02*
X211050190Y-79208380D01*
X210954952Y-79256000D01*
X210907333Y-79303619D01*
X210859714Y-79398857D01*
X210812095Y-79589333D01*
X210812095Y-79827428D01*
X210859714Y-80017904D01*
X210907333Y-80113142D01*
X210954952Y-80160761D01*
X211050190Y-80208380D01*
X211145428Y-80208380D01*
X211240666Y-80160761D01*
X211288285Y-80113142D01*
X211335904Y-80017904D01*
X211383523Y-79827428D01*
X211383523Y-79589333D01*
X211335904Y-79398857D01*
X211288285Y-79303619D01*
X211240666Y-79256000D01*
X211145428Y-79208380D01*
X210383523Y-80208380D02*
X210383523Y-79208380D01*
X209812095Y-80208380D02*
X210240666Y-79636952D01*
X209812095Y-79208380D02*
X210383523Y-79779809D01*
X211764476Y-103068380D02*
X212335904Y-103068380D01*
X212050190Y-103068380D02*
X212050190Y-102068380D01*
X212145428Y-102211238D01*
X212240666Y-102306476D01*
X212335904Y-102354095D01*
X211145428Y-102068380D02*
X211050190Y-102068380D01*
X210954952Y-102116000D01*
X210907333Y-102163619D01*
X210859714Y-102258857D01*
X210812095Y-102449333D01*
X210812095Y-102687428D01*
X210859714Y-102877904D01*
X210907333Y-102973142D01*
X210954952Y-103020761D01*
X211050190Y-103068380D01*
X211145428Y-103068380D01*
X211240666Y-103020761D01*
X211288285Y-102973142D01*
X211335904Y-102877904D01*
X211383523Y-102687428D01*
X211383523Y-102449333D01*
X211335904Y-102258857D01*
X211288285Y-102163619D01*
X211240666Y-102116000D01*
X211145428Y-102068380D01*
X210383523Y-103068380D02*
X210383523Y-102068380D01*
X209812095Y-103068380D02*
X210240666Y-102496952D01*
X209812095Y-102068380D02*
X210383523Y-102639809D01*
X211764476Y-125928380D02*
X212335904Y-125928380D01*
X212050190Y-125928380D02*
X212050190Y-124928380D01*
X212145428Y-125071238D01*
X212240666Y-125166476D01*
X212335904Y-125214095D01*
X211145428Y-124928380D02*
X211050190Y-124928380D01*
X210954952Y-124976000D01*
X210907333Y-125023619D01*
X210859714Y-125118857D01*
X210812095Y-125309333D01*
X210812095Y-125547428D01*
X210859714Y-125737904D01*
X210907333Y-125833142D01*
X210954952Y-125880761D01*
X211050190Y-125928380D01*
X211145428Y-125928380D01*
X211240666Y-125880761D01*
X211288285Y-125833142D01*
X211335904Y-125737904D01*
X211383523Y-125547428D01*
X211383523Y-125309333D01*
X211335904Y-125118857D01*
X211288285Y-125023619D01*
X211240666Y-124976000D01*
X211145428Y-124928380D01*
X210383523Y-125928380D02*
X210383523Y-124928380D01*
X209812095Y-125928380D02*
X210240666Y-125356952D01*
X209812095Y-124928380D02*
X210383523Y-125499809D01*
X201826666Y-48966380D02*
X202398095Y-48966380D01*
X202112380Y-48966380D02*
X202112380Y-47966380D01*
X202207619Y-48109238D01*
X202302857Y-48204476D01*
X202398095Y-48252095D01*
X201207619Y-47966380D02*
X201112380Y-47966380D01*
X201017142Y-48014000D01*
X200969523Y-48061619D01*
X200921904Y-48156857D01*
X200874285Y-48347333D01*
X200874285Y-48585428D01*
X200921904Y-48775904D01*
X200969523Y-48871142D01*
X201017142Y-48918761D01*
X201112380Y-48966380D01*
X201207619Y-48966380D01*
X201302857Y-48918761D01*
X201350476Y-48871142D01*
X201398095Y-48775904D01*
X201445714Y-48585428D01*
X201445714Y-48347333D01*
X201398095Y-48156857D01*
X201350476Y-48061619D01*
X201302857Y-48014000D01*
X201207619Y-47966380D01*
X200255238Y-47966380D02*
X200160000Y-47966380D01*
X200064761Y-48014000D01*
X200017142Y-48061619D01*
X199969523Y-48156857D01*
X199921904Y-48347333D01*
X199921904Y-48585428D01*
X199969523Y-48775904D01*
X200017142Y-48871142D01*
X200064761Y-48918761D01*
X200160000Y-48966380D01*
X200255238Y-48966380D01*
X200350476Y-48918761D01*
X200398095Y-48871142D01*
X200445714Y-48775904D01*
X200493333Y-48585428D01*
X200493333Y-48347333D01*
X200445714Y-48156857D01*
X200398095Y-48061619D01*
X200350476Y-48014000D01*
X200255238Y-47966380D01*
X199493333Y-48966380D02*
X199493333Y-47966380D01*
X198921904Y-48966380D02*
X199350476Y-48394952D01*
X198921904Y-47966380D02*
X199493333Y-48537809D01*
X201826666Y-76398380D02*
X202398095Y-76398380D01*
X202112380Y-76398380D02*
X202112380Y-75398380D01*
X202207619Y-75541238D01*
X202302857Y-75636476D01*
X202398095Y-75684095D01*
X201207619Y-75398380D02*
X201112380Y-75398380D01*
X201017142Y-75446000D01*
X200969523Y-75493619D01*
X200921904Y-75588857D01*
X200874285Y-75779333D01*
X200874285Y-76017428D01*
X200921904Y-76207904D01*
X200969523Y-76303142D01*
X201017142Y-76350761D01*
X201112380Y-76398380D01*
X201207619Y-76398380D01*
X201302857Y-76350761D01*
X201350476Y-76303142D01*
X201398095Y-76207904D01*
X201445714Y-76017428D01*
X201445714Y-75779333D01*
X201398095Y-75588857D01*
X201350476Y-75493619D01*
X201302857Y-75446000D01*
X201207619Y-75398380D01*
X200255238Y-75398380D02*
X200160000Y-75398380D01*
X200064761Y-75446000D01*
X200017142Y-75493619D01*
X199969523Y-75588857D01*
X199921904Y-75779333D01*
X199921904Y-76017428D01*
X199969523Y-76207904D01*
X200017142Y-76303142D01*
X200064761Y-76350761D01*
X200160000Y-76398380D01*
X200255238Y-76398380D01*
X200350476Y-76350761D01*
X200398095Y-76303142D01*
X200445714Y-76207904D01*
X200493333Y-76017428D01*
X200493333Y-75779333D01*
X200445714Y-75588857D01*
X200398095Y-75493619D01*
X200350476Y-75446000D01*
X200255238Y-75398380D01*
X199493333Y-76398380D02*
X199493333Y-75398380D01*
X198921904Y-76398380D02*
X199350476Y-75826952D01*
X198921904Y-75398380D02*
X199493333Y-75969809D01*
X201826666Y-99258380D02*
X202398095Y-99258380D01*
X202112380Y-99258380D02*
X202112380Y-98258380D01*
X202207619Y-98401238D01*
X202302857Y-98496476D01*
X202398095Y-98544095D01*
X201207619Y-98258380D02*
X201112380Y-98258380D01*
X201017142Y-98306000D01*
X200969523Y-98353619D01*
X200921904Y-98448857D01*
X200874285Y-98639333D01*
X200874285Y-98877428D01*
X200921904Y-99067904D01*
X200969523Y-99163142D01*
X201017142Y-99210761D01*
X201112380Y-99258380D01*
X201207619Y-99258380D01*
X201302857Y-99210761D01*
X201350476Y-99163142D01*
X201398095Y-99067904D01*
X201445714Y-98877428D01*
X201445714Y-98639333D01*
X201398095Y-98448857D01*
X201350476Y-98353619D01*
X201302857Y-98306000D01*
X201207619Y-98258380D01*
X200255238Y-98258380D02*
X200160000Y-98258380D01*
X200064761Y-98306000D01*
X200017142Y-98353619D01*
X199969523Y-98448857D01*
X199921904Y-98639333D01*
X199921904Y-98877428D01*
X199969523Y-99067904D01*
X200017142Y-99163142D01*
X200064761Y-99210761D01*
X200160000Y-99258380D01*
X200255238Y-99258380D01*
X200350476Y-99210761D01*
X200398095Y-99163142D01*
X200445714Y-99067904D01*
X200493333Y-98877428D01*
X200493333Y-98639333D01*
X200445714Y-98448857D01*
X200398095Y-98353619D01*
X200350476Y-98306000D01*
X200255238Y-98258380D01*
X199493333Y-99258380D02*
X199493333Y-98258380D01*
X198921904Y-99258380D02*
X199350476Y-98686952D01*
X198921904Y-98258380D02*
X199493333Y-98829809D01*
X201826666Y-122118380D02*
X202398095Y-122118380D01*
X202112380Y-122118380D02*
X202112380Y-121118380D01*
X202207619Y-121261238D01*
X202302857Y-121356476D01*
X202398095Y-121404095D01*
X201207619Y-121118380D02*
X201112380Y-121118380D01*
X201017142Y-121166000D01*
X200969523Y-121213619D01*
X200921904Y-121308857D01*
X200874285Y-121499333D01*
X200874285Y-121737428D01*
X200921904Y-121927904D01*
X200969523Y-122023142D01*
X201017142Y-122070761D01*
X201112380Y-122118380D01*
X201207619Y-122118380D01*
X201302857Y-122070761D01*
X201350476Y-122023142D01*
X201398095Y-121927904D01*
X201445714Y-121737428D01*
X201445714Y-121499333D01*
X201398095Y-121308857D01*
X201350476Y-121213619D01*
X201302857Y-121166000D01*
X201207619Y-121118380D01*
X200255238Y-121118380D02*
X200160000Y-121118380D01*
X200064761Y-121166000D01*
X200017142Y-121213619D01*
X199969523Y-121308857D01*
X199921904Y-121499333D01*
X199921904Y-121737428D01*
X199969523Y-121927904D01*
X200017142Y-122023142D01*
X200064761Y-122070761D01*
X200160000Y-122118380D01*
X200255238Y-122118380D01*
X200350476Y-122070761D01*
X200398095Y-122023142D01*
X200445714Y-121927904D01*
X200493333Y-121737428D01*
X200493333Y-121499333D01*
X200445714Y-121308857D01*
X200398095Y-121213619D01*
X200350476Y-121166000D01*
X200255238Y-121118380D01*
X199493333Y-122118380D02*
X199493333Y-121118380D01*
X198921904Y-122118380D02*
X199350476Y-121546952D01*
X198921904Y-121118380D02*
X199493333Y-121689809D01*
X211542285Y-112466380D02*
X212113714Y-112466380D01*
X211828000Y-112466380D02*
X211828000Y-111466380D01*
X211923238Y-111609238D01*
X212018476Y-111704476D01*
X212113714Y-111752095D01*
X211113714Y-112466380D02*
X211113714Y-111466380D01*
X210542285Y-112466380D02*
X210970857Y-111894952D01*
X210542285Y-111466380D02*
X211113714Y-112037809D01*
X211542285Y-89606380D02*
X212113714Y-89606380D01*
X211828000Y-89606380D02*
X211828000Y-88606380D01*
X211923238Y-88749238D01*
X212018476Y-88844476D01*
X212113714Y-88892095D01*
X211113714Y-89606380D02*
X211113714Y-88606380D01*
X210542285Y-89606380D02*
X210970857Y-89034952D01*
X210542285Y-88606380D02*
X211113714Y-89177809D01*
X211542285Y-66492380D02*
X212113714Y-66492380D01*
X211828000Y-66492380D02*
X211828000Y-65492380D01*
X211923238Y-65635238D01*
X212018476Y-65730476D01*
X212113714Y-65778095D01*
X211113714Y-66492380D02*
X211113714Y-65492380D01*
X210542285Y-66492380D02*
X210970857Y-65920952D01*
X210542285Y-65492380D02*
X211113714Y-66063809D01*
X211542285Y-39314380D02*
X212113714Y-39314380D01*
X211828000Y-39314380D02*
X211828000Y-38314380D01*
X211923238Y-38457238D01*
X212018476Y-38552476D01*
X212113714Y-38600095D01*
X211113714Y-39314380D02*
X211113714Y-38314380D01*
X210542285Y-39314380D02*
X210970857Y-38742952D01*
X210542285Y-38314380D02*
X211113714Y-38885809D01*
X113990380Y-35345714D02*
X113990380Y-34774285D01*
X113990380Y-35060000D02*
X112990380Y-35060000D01*
X113133238Y-34964761D01*
X113228476Y-34869523D01*
X113276095Y-34774285D01*
X113990380Y-35774285D02*
X112990380Y-35774285D01*
X113990380Y-36345714D02*
X113418952Y-35917142D01*
X112990380Y-36345714D02*
X113561809Y-35774285D01*
X140406380Y-35345714D02*
X140406380Y-34774285D01*
X140406380Y-35060000D02*
X139406380Y-35060000D01*
X139549238Y-34964761D01*
X139644476Y-34869523D01*
X139692095Y-34774285D01*
X140406380Y-35774285D02*
X139406380Y-35774285D01*
X140406380Y-36345714D02*
X139834952Y-35917142D01*
X139406380Y-36345714D02*
X139977809Y-35774285D01*
X166822380Y-35345714D02*
X166822380Y-34774285D01*
X166822380Y-35060000D02*
X165822380Y-35060000D01*
X165965238Y-34964761D01*
X166060476Y-34869523D01*
X166108095Y-34774285D01*
X166822380Y-35774285D02*
X165822380Y-35774285D01*
X166822380Y-36345714D02*
X166250952Y-35917142D01*
X165822380Y-36345714D02*
X166393809Y-35774285D01*
X162758380Y-56681714D02*
X162758380Y-56110285D01*
X162758380Y-56396000D02*
X161758380Y-56396000D01*
X161901238Y-56300761D01*
X161996476Y-56205523D01*
X162044095Y-56110285D01*
X162758380Y-57110285D02*
X161758380Y-57110285D01*
X162758380Y-57681714D02*
X162186952Y-57253142D01*
X161758380Y-57681714D02*
X162329809Y-57110285D01*
X140152380Y-56681714D02*
X140152380Y-56110285D01*
X140152380Y-56396000D02*
X139152380Y-56396000D01*
X139295238Y-56300761D01*
X139390476Y-56205523D01*
X139438095Y-56110285D01*
X140152380Y-57110285D02*
X139152380Y-57110285D01*
X140152380Y-57681714D02*
X139580952Y-57253142D01*
X139152380Y-57681714D02*
X139723809Y-57110285D01*
X117546380Y-56935714D02*
X117546380Y-56364285D01*
X117546380Y-56650000D02*
X116546380Y-56650000D01*
X116689238Y-56554761D01*
X116784476Y-56459523D01*
X116832095Y-56364285D01*
X117546380Y-57364285D02*
X116546380Y-57364285D01*
X117546380Y-57935714D02*
X116974952Y-57507142D01*
X116546380Y-57935714D02*
X117117809Y-57364285D01*
X87828380Y-56681714D02*
X87828380Y-56110285D01*
X87828380Y-56396000D02*
X86828380Y-56396000D01*
X86971238Y-56300761D01*
X87066476Y-56205523D01*
X87114095Y-56110285D01*
X87828380Y-57110285D02*
X86828380Y-57110285D01*
X87828380Y-57681714D02*
X87256952Y-57253142D01*
X86828380Y-57681714D02*
X87399809Y-57110285D01*
X110180380Y-57221523D02*
X110180380Y-56650095D01*
X110180380Y-56935809D02*
X109180380Y-56935809D01*
X109323238Y-56840571D01*
X109418476Y-56745333D01*
X109466095Y-56650095D01*
X109180380Y-57840571D02*
X109180380Y-57935809D01*
X109228000Y-58031047D01*
X109275619Y-58078666D01*
X109370857Y-58126285D01*
X109561333Y-58173904D01*
X109799428Y-58173904D01*
X109989904Y-58126285D01*
X110085142Y-58078666D01*
X110132761Y-58031047D01*
X110180380Y-57935809D01*
X110180380Y-57840571D01*
X110132761Y-57745333D01*
X110085142Y-57697714D01*
X109989904Y-57650095D01*
X109799428Y-57602476D01*
X109561333Y-57602476D01*
X109370857Y-57650095D01*
X109275619Y-57697714D01*
X109228000Y-57745333D01*
X109180380Y-57840571D01*
X110180380Y-58602476D02*
X109180380Y-58602476D01*
X110180380Y-59173904D02*
X109608952Y-58745333D01*
X109180380Y-59173904D02*
X109751809Y-58602476D01*
X176220380Y-56205523D02*
X176220380Y-55634095D01*
X176220380Y-55919809D02*
X175220380Y-55919809D01*
X175363238Y-55824571D01*
X175458476Y-55729333D01*
X175506095Y-55634095D01*
X175220380Y-56824571D02*
X175220380Y-56919809D01*
X175268000Y-57015047D01*
X175315619Y-57062666D01*
X175410857Y-57110285D01*
X175601333Y-57157904D01*
X175839428Y-57157904D01*
X176029904Y-57110285D01*
X176125142Y-57062666D01*
X176172761Y-57015047D01*
X176220380Y-56919809D01*
X176220380Y-56824571D01*
X176172761Y-56729333D01*
X176125142Y-56681714D01*
X176029904Y-56634095D01*
X175839428Y-56586476D01*
X175601333Y-56586476D01*
X175410857Y-56634095D01*
X175315619Y-56681714D01*
X175268000Y-56729333D01*
X175220380Y-56824571D01*
X176220380Y-57586476D02*
X175220380Y-57586476D01*
X176220380Y-58157904D02*
X175648952Y-57729333D01*
X175220380Y-58157904D02*
X175791809Y-57586476D01*
X112466380Y-68937333D02*
X112466380Y-68365904D01*
X112466380Y-68651619D02*
X111466380Y-68651619D01*
X111609238Y-68556380D01*
X111704476Y-68461142D01*
X111752095Y-68365904D01*
X111466380Y-69556380D02*
X111466380Y-69651619D01*
X111514000Y-69746857D01*
X111561619Y-69794476D01*
X111656857Y-69842095D01*
X111847333Y-69889714D01*
X112085428Y-69889714D01*
X112275904Y-69842095D01*
X112371142Y-69794476D01*
X112418761Y-69746857D01*
X112466380Y-69651619D01*
X112466380Y-69556380D01*
X112418761Y-69461142D01*
X112371142Y-69413523D01*
X112275904Y-69365904D01*
X112085428Y-69318285D01*
X111847333Y-69318285D01*
X111656857Y-69365904D01*
X111561619Y-69413523D01*
X111514000Y-69461142D01*
X111466380Y-69556380D01*
X111466380Y-70508761D02*
X111466380Y-70604000D01*
X111514000Y-70699238D01*
X111561619Y-70746857D01*
X111656857Y-70794476D01*
X111847333Y-70842095D01*
X112085428Y-70842095D01*
X112275904Y-70794476D01*
X112371142Y-70746857D01*
X112418761Y-70699238D01*
X112466380Y-70604000D01*
X112466380Y-70508761D01*
X112418761Y-70413523D01*
X112371142Y-70365904D01*
X112275904Y-70318285D01*
X112085428Y-70270666D01*
X111847333Y-70270666D01*
X111656857Y-70318285D01*
X111561619Y-70365904D01*
X111514000Y-70413523D01*
X111466380Y-70508761D01*
X112466380Y-71270666D02*
X111466380Y-71270666D01*
X112466380Y-71842095D02*
X111894952Y-71413523D01*
X111466380Y-71842095D02*
X112037809Y-71270666D01*
X172410380Y-67921333D02*
X172410380Y-67349904D01*
X172410380Y-67635619D02*
X171410380Y-67635619D01*
X171553238Y-67540380D01*
X171648476Y-67445142D01*
X171696095Y-67349904D01*
X171410380Y-68540380D02*
X171410380Y-68635619D01*
X171458000Y-68730857D01*
X171505619Y-68778476D01*
X171600857Y-68826095D01*
X171791333Y-68873714D01*
X172029428Y-68873714D01*
X172219904Y-68826095D01*
X172315142Y-68778476D01*
X172362761Y-68730857D01*
X172410380Y-68635619D01*
X172410380Y-68540380D01*
X172362761Y-68445142D01*
X172315142Y-68397523D01*
X172219904Y-68349904D01*
X172029428Y-68302285D01*
X171791333Y-68302285D01*
X171600857Y-68349904D01*
X171505619Y-68397523D01*
X171458000Y-68445142D01*
X171410380Y-68540380D01*
X171410380Y-69492761D02*
X171410380Y-69588000D01*
X171458000Y-69683238D01*
X171505619Y-69730857D01*
X171600857Y-69778476D01*
X171791333Y-69826095D01*
X172029428Y-69826095D01*
X172219904Y-69778476D01*
X172315142Y-69730857D01*
X172362761Y-69683238D01*
X172410380Y-69588000D01*
X172410380Y-69492761D01*
X172362761Y-69397523D01*
X172315142Y-69349904D01*
X172219904Y-69302285D01*
X172029428Y-69254666D01*
X171791333Y-69254666D01*
X171600857Y-69302285D01*
X171505619Y-69349904D01*
X171458000Y-69397523D01*
X171410380Y-69492761D01*
X172410380Y-70254666D02*
X171410380Y-70254666D01*
X172410380Y-70826095D02*
X171838952Y-70397523D01*
X171410380Y-70826095D02*
X171981809Y-70254666D01*
X176220380Y-79319523D02*
X176220380Y-78748095D01*
X176220380Y-79033809D02*
X175220380Y-79033809D01*
X175363238Y-78938571D01*
X175458476Y-78843333D01*
X175506095Y-78748095D01*
X175220380Y-79938571D02*
X175220380Y-80033809D01*
X175268000Y-80129047D01*
X175315619Y-80176666D01*
X175410857Y-80224285D01*
X175601333Y-80271904D01*
X175839428Y-80271904D01*
X176029904Y-80224285D01*
X176125142Y-80176666D01*
X176172761Y-80129047D01*
X176220380Y-80033809D01*
X176220380Y-79938571D01*
X176172761Y-79843333D01*
X176125142Y-79795714D01*
X176029904Y-79748095D01*
X175839428Y-79700476D01*
X175601333Y-79700476D01*
X175410857Y-79748095D01*
X175315619Y-79795714D01*
X175268000Y-79843333D01*
X175220380Y-79938571D01*
X176220380Y-80700476D02*
X175220380Y-80700476D01*
X176220380Y-81271904D02*
X175648952Y-80843333D01*
X175220380Y-81271904D02*
X175791809Y-80700476D01*
X149804380Y-79065523D02*
X149804380Y-78494095D01*
X149804380Y-78779809D02*
X148804380Y-78779809D01*
X148947238Y-78684571D01*
X149042476Y-78589333D01*
X149090095Y-78494095D01*
X148804380Y-79684571D02*
X148804380Y-79779809D01*
X148852000Y-79875047D01*
X148899619Y-79922666D01*
X148994857Y-79970285D01*
X149185333Y-80017904D01*
X149423428Y-80017904D01*
X149613904Y-79970285D01*
X149709142Y-79922666D01*
X149756761Y-79875047D01*
X149804380Y-79779809D01*
X149804380Y-79684571D01*
X149756761Y-79589333D01*
X149709142Y-79541714D01*
X149613904Y-79494095D01*
X149423428Y-79446476D01*
X149185333Y-79446476D01*
X148994857Y-79494095D01*
X148899619Y-79541714D01*
X148852000Y-79589333D01*
X148804380Y-79684571D01*
X149804380Y-80446476D02*
X148804380Y-80446476D01*
X149804380Y-81017904D02*
X149232952Y-80589333D01*
X148804380Y-81017904D02*
X149375809Y-80446476D01*
X123388380Y-79065523D02*
X123388380Y-78494095D01*
X123388380Y-78779809D02*
X122388380Y-78779809D01*
X122531238Y-78684571D01*
X122626476Y-78589333D01*
X122674095Y-78494095D01*
X122388380Y-79684571D02*
X122388380Y-79779809D01*
X122436000Y-79875047D01*
X122483619Y-79922666D01*
X122578857Y-79970285D01*
X122769333Y-80017904D01*
X123007428Y-80017904D01*
X123197904Y-79970285D01*
X123293142Y-79922666D01*
X123340761Y-79875047D01*
X123388380Y-79779809D01*
X123388380Y-79684571D01*
X123340761Y-79589333D01*
X123293142Y-79541714D01*
X123197904Y-79494095D01*
X123007428Y-79446476D01*
X122769333Y-79446476D01*
X122578857Y-79494095D01*
X122483619Y-79541714D01*
X122436000Y-79589333D01*
X122388380Y-79684571D01*
X123388380Y-80446476D02*
X122388380Y-80446476D01*
X123388380Y-81017904D02*
X122816952Y-80589333D01*
X122388380Y-81017904D02*
X122959809Y-80446476D01*
X97480380Y-79065523D02*
X97480380Y-78494095D01*
X97480380Y-78779809D02*
X96480380Y-78779809D01*
X96623238Y-78684571D01*
X96718476Y-78589333D01*
X96766095Y-78494095D01*
X96480380Y-79684571D02*
X96480380Y-79779809D01*
X96528000Y-79875047D01*
X96575619Y-79922666D01*
X96670857Y-79970285D01*
X96861333Y-80017904D01*
X97099428Y-80017904D01*
X97289904Y-79970285D01*
X97385142Y-79922666D01*
X97432761Y-79875047D01*
X97480380Y-79779809D01*
X97480380Y-79684571D01*
X97432761Y-79589333D01*
X97385142Y-79541714D01*
X97289904Y-79494095D01*
X97099428Y-79446476D01*
X96861333Y-79446476D01*
X96670857Y-79494095D01*
X96575619Y-79541714D01*
X96528000Y-79589333D01*
X96480380Y-79684571D01*
X97480380Y-80446476D02*
X96480380Y-80446476D01*
X97480380Y-81017904D02*
X96908952Y-80589333D01*
X96480380Y-81017904D02*
X97051809Y-80446476D01*
X83002380Y-79287714D02*
X83002380Y-78716285D01*
X83002380Y-79002000D02*
X82002380Y-79002000D01*
X82145238Y-78906761D01*
X82240476Y-78811523D01*
X82288095Y-78716285D01*
X83002380Y-79716285D02*
X82002380Y-79716285D01*
X83002380Y-80287714D02*
X82430952Y-79859142D01*
X82002380Y-80287714D02*
X82573809Y-79716285D01*
X110180380Y-79541714D02*
X110180380Y-78970285D01*
X110180380Y-79256000D02*
X109180380Y-79256000D01*
X109323238Y-79160761D01*
X109418476Y-79065523D01*
X109466095Y-78970285D01*
X110180380Y-79970285D02*
X109180380Y-79970285D01*
X110180380Y-80541714D02*
X109608952Y-80113142D01*
X109180380Y-80541714D02*
X109751809Y-79970285D01*
X136342380Y-79795714D02*
X136342380Y-79224285D01*
X136342380Y-79510000D02*
X135342380Y-79510000D01*
X135485238Y-79414761D01*
X135580476Y-79319523D01*
X135628095Y-79224285D01*
X136342380Y-80224285D02*
X135342380Y-80224285D01*
X136342380Y-80795714D02*
X135770952Y-80367142D01*
X135342380Y-80795714D02*
X135913809Y-80224285D01*
X163012380Y-79541714D02*
X163012380Y-78970285D01*
X163012380Y-79256000D02*
X162012380Y-79256000D01*
X162155238Y-79160761D01*
X162250476Y-79065523D01*
X162298095Y-78970285D01*
X163012380Y-79970285D02*
X162012380Y-79970285D01*
X163012380Y-80541714D02*
X162440952Y-80113142D01*
X162012380Y-80541714D02*
X162583809Y-79970285D01*
X89606380Y-95607333D02*
X89606380Y-95035904D01*
X89606380Y-95321619D02*
X88606380Y-95321619D01*
X88749238Y-95226380D01*
X88844476Y-95131142D01*
X88892095Y-95035904D01*
X88606380Y-96226380D02*
X88606380Y-96321619D01*
X88654000Y-96416857D01*
X88701619Y-96464476D01*
X88796857Y-96512095D01*
X88987333Y-96559714D01*
X89225428Y-96559714D01*
X89415904Y-96512095D01*
X89511142Y-96464476D01*
X89558761Y-96416857D01*
X89606380Y-96321619D01*
X89606380Y-96226380D01*
X89558761Y-96131142D01*
X89511142Y-96083523D01*
X89415904Y-96035904D01*
X89225428Y-95988285D01*
X88987333Y-95988285D01*
X88796857Y-96035904D01*
X88701619Y-96083523D01*
X88654000Y-96131142D01*
X88606380Y-96226380D01*
X88606380Y-97178761D02*
X88606380Y-97274000D01*
X88654000Y-97369238D01*
X88701619Y-97416857D01*
X88796857Y-97464476D01*
X88987333Y-97512095D01*
X89225428Y-97512095D01*
X89415904Y-97464476D01*
X89511142Y-97416857D01*
X89558761Y-97369238D01*
X89606380Y-97274000D01*
X89606380Y-97178761D01*
X89558761Y-97083523D01*
X89511142Y-97035904D01*
X89415904Y-96988285D01*
X89225428Y-96940666D01*
X88987333Y-96940666D01*
X88796857Y-96988285D01*
X88701619Y-97035904D01*
X88654000Y-97083523D01*
X88606380Y-97178761D01*
X89606380Y-97940666D02*
X88606380Y-97940666D01*
X89606380Y-98512095D02*
X89034952Y-98083523D01*
X88606380Y-98512095D02*
X89177809Y-97940666D01*
X115514380Y-95607333D02*
X115514380Y-95035904D01*
X115514380Y-95321619D02*
X114514380Y-95321619D01*
X114657238Y-95226380D01*
X114752476Y-95131142D01*
X114800095Y-95035904D01*
X114514380Y-96226380D02*
X114514380Y-96321619D01*
X114562000Y-96416857D01*
X114609619Y-96464476D01*
X114704857Y-96512095D01*
X114895333Y-96559714D01*
X115133428Y-96559714D01*
X115323904Y-96512095D01*
X115419142Y-96464476D01*
X115466761Y-96416857D01*
X115514380Y-96321619D01*
X115514380Y-96226380D01*
X115466761Y-96131142D01*
X115419142Y-96083523D01*
X115323904Y-96035904D01*
X115133428Y-95988285D01*
X114895333Y-95988285D01*
X114704857Y-96035904D01*
X114609619Y-96083523D01*
X114562000Y-96131142D01*
X114514380Y-96226380D01*
X114514380Y-97178761D02*
X114514380Y-97274000D01*
X114562000Y-97369238D01*
X114609619Y-97416857D01*
X114704857Y-97464476D01*
X114895333Y-97512095D01*
X115133428Y-97512095D01*
X115323904Y-97464476D01*
X115419142Y-97416857D01*
X115466761Y-97369238D01*
X115514380Y-97274000D01*
X115514380Y-97178761D01*
X115466761Y-97083523D01*
X115419142Y-97035904D01*
X115323904Y-96988285D01*
X115133428Y-96940666D01*
X114895333Y-96940666D01*
X114704857Y-96988285D01*
X114609619Y-97035904D01*
X114562000Y-97083523D01*
X114514380Y-97178761D01*
X115514380Y-97940666D02*
X114514380Y-97940666D01*
X115514380Y-98512095D02*
X114942952Y-98083523D01*
X114514380Y-98512095D02*
X115085809Y-97940666D01*
X142438380Y-95607333D02*
X142438380Y-95035904D01*
X142438380Y-95321619D02*
X141438380Y-95321619D01*
X141581238Y-95226380D01*
X141676476Y-95131142D01*
X141724095Y-95035904D01*
X141438380Y-96226380D02*
X141438380Y-96321619D01*
X141486000Y-96416857D01*
X141533619Y-96464476D01*
X141628857Y-96512095D01*
X141819333Y-96559714D01*
X142057428Y-96559714D01*
X142247904Y-96512095D01*
X142343142Y-96464476D01*
X142390761Y-96416857D01*
X142438380Y-96321619D01*
X142438380Y-96226380D01*
X142390761Y-96131142D01*
X142343142Y-96083523D01*
X142247904Y-96035904D01*
X142057428Y-95988285D01*
X141819333Y-95988285D01*
X141628857Y-96035904D01*
X141533619Y-96083523D01*
X141486000Y-96131142D01*
X141438380Y-96226380D01*
X141438380Y-97178761D02*
X141438380Y-97274000D01*
X141486000Y-97369238D01*
X141533619Y-97416857D01*
X141628857Y-97464476D01*
X141819333Y-97512095D01*
X142057428Y-97512095D01*
X142247904Y-97464476D01*
X142343142Y-97416857D01*
X142390761Y-97369238D01*
X142438380Y-97274000D01*
X142438380Y-97178761D01*
X142390761Y-97083523D01*
X142343142Y-97035904D01*
X142247904Y-96988285D01*
X142057428Y-96940666D01*
X141819333Y-96940666D01*
X141628857Y-96988285D01*
X141533619Y-97035904D01*
X141486000Y-97083523D01*
X141438380Y-97178761D01*
X142438380Y-97940666D02*
X141438380Y-97940666D01*
X142438380Y-98512095D02*
X141866952Y-98083523D01*
X141438380Y-98512095D02*
X142009809Y-97940666D01*
X168346380Y-95607333D02*
X168346380Y-95035904D01*
X168346380Y-95321619D02*
X167346380Y-95321619D01*
X167489238Y-95226380D01*
X167584476Y-95131142D01*
X167632095Y-95035904D01*
X167346380Y-96226380D02*
X167346380Y-96321619D01*
X167394000Y-96416857D01*
X167441619Y-96464476D01*
X167536857Y-96512095D01*
X167727333Y-96559714D01*
X167965428Y-96559714D01*
X168155904Y-96512095D01*
X168251142Y-96464476D01*
X168298761Y-96416857D01*
X168346380Y-96321619D01*
X168346380Y-96226380D01*
X168298761Y-96131142D01*
X168251142Y-96083523D01*
X168155904Y-96035904D01*
X167965428Y-95988285D01*
X167727333Y-95988285D01*
X167536857Y-96035904D01*
X167441619Y-96083523D01*
X167394000Y-96131142D01*
X167346380Y-96226380D01*
X167346380Y-97178761D02*
X167346380Y-97274000D01*
X167394000Y-97369238D01*
X167441619Y-97416857D01*
X167536857Y-97464476D01*
X167727333Y-97512095D01*
X167965428Y-97512095D01*
X168155904Y-97464476D01*
X168251142Y-97416857D01*
X168298761Y-97369238D01*
X168346380Y-97274000D01*
X168346380Y-97178761D01*
X168298761Y-97083523D01*
X168251142Y-97035904D01*
X168155904Y-96988285D01*
X167965428Y-96940666D01*
X167727333Y-96940666D01*
X167536857Y-96988285D01*
X167441619Y-97035904D01*
X167394000Y-97083523D01*
X167346380Y-97178761D01*
X168346380Y-97940666D02*
X167346380Y-97940666D01*
X168346380Y-98512095D02*
X167774952Y-98083523D01*
X167346380Y-98512095D02*
X167917809Y-97940666D01*
X166568380Y-106465714D02*
X166568380Y-105894285D01*
X166568380Y-106180000D02*
X165568380Y-106180000D01*
X165711238Y-106084761D01*
X165806476Y-105989523D01*
X165854095Y-105894285D01*
X166568380Y-106894285D02*
X165568380Y-106894285D01*
X166568380Y-107465714D02*
X165996952Y-107037142D01*
X165568380Y-107465714D02*
X166139809Y-106894285D01*
X140406380Y-106465714D02*
X140406380Y-105894285D01*
X140406380Y-106180000D02*
X139406380Y-106180000D01*
X139549238Y-106084761D01*
X139644476Y-105989523D01*
X139692095Y-105894285D01*
X140406380Y-106894285D02*
X139406380Y-106894285D01*
X140406380Y-107465714D02*
X139834952Y-107037142D01*
X139406380Y-107465714D02*
X139977809Y-106894285D01*
X113228380Y-106465714D02*
X113228380Y-105894285D01*
X113228380Y-106180000D02*
X112228380Y-106180000D01*
X112371238Y-106084761D01*
X112466476Y-105989523D01*
X112514095Y-105894285D01*
X113228380Y-106894285D02*
X112228380Y-106894285D01*
X113228380Y-107465714D02*
X112656952Y-107037142D01*
X112228380Y-107465714D02*
X112799809Y-106894285D01*
X88082380Y-106465714D02*
X88082380Y-105894285D01*
X88082380Y-106180000D02*
X87082380Y-106180000D01*
X87225238Y-106084761D01*
X87320476Y-105989523D01*
X87368095Y-105894285D01*
X88082380Y-106894285D02*
X87082380Y-106894285D01*
X88082380Y-107465714D02*
X87510952Y-107037142D01*
X87082380Y-107465714D02*
X87653809Y-106894285D01*
D11*
G04 #@! TO.C,RN3*
X90316000Y-105180000D02*
X89516000Y-105180000D01*
X90316000Y-108180000D02*
X90316000Y-105180000D01*
X89516000Y-108180000D02*
X90316000Y-108180000D01*
X89516000Y-105180000D02*
X89516000Y-108180000D01*
G04 #@! TO.C,RN6*
X115716000Y-105180000D02*
X114916000Y-105180000D01*
X115716000Y-108180000D02*
X115716000Y-105180000D01*
X114916000Y-108180000D02*
X115716000Y-108180000D01*
X114916000Y-105180000D02*
X114916000Y-108180000D01*
G04 #@! TO.C,RN7*
X93872000Y-78256000D02*
X93072000Y-78256000D01*
X93872000Y-81256000D02*
X93872000Y-78256000D01*
X93072000Y-81256000D02*
X93872000Y-81256000D01*
X93072000Y-78256000D02*
X93072000Y-81256000D01*
G04 #@! TO.C,RN8*
X89808000Y-91464000D02*
X89008000Y-91464000D01*
X89808000Y-94464000D02*
X89808000Y-91464000D01*
X89008000Y-94464000D02*
X89808000Y-94464000D01*
X89008000Y-91464000D02*
X89008000Y-94464000D01*
G04 #@! TO.C,RN9*
X85236000Y-78256000D02*
X84436000Y-78256000D01*
X85236000Y-81256000D02*
X85236000Y-78256000D01*
X84436000Y-81256000D02*
X85236000Y-81256000D01*
X84436000Y-78256000D02*
X84436000Y-81256000D01*
G04 #@! TO.C,RN10*
X119780000Y-78256000D02*
X118980000Y-78256000D01*
X119780000Y-81256000D02*
X119780000Y-78256000D01*
X118980000Y-81256000D02*
X119780000Y-81256000D01*
X118980000Y-78256000D02*
X118980000Y-81256000D01*
G04 #@! TO.C,RN11*
X115716000Y-91464000D02*
X114916000Y-91464000D01*
X115716000Y-94464000D02*
X115716000Y-91464000D01*
X114916000Y-94464000D02*
X115716000Y-94464000D01*
X114916000Y-91464000D02*
X114916000Y-94464000D01*
G04 #@! TO.C,RN12*
X112160000Y-78256000D02*
X111360000Y-78256000D01*
X112160000Y-81256000D02*
X112160000Y-78256000D01*
X111360000Y-81256000D02*
X112160000Y-81256000D01*
X111360000Y-78256000D02*
X111360000Y-81256000D01*
G04 #@! TO.C,RN13*
X146196000Y-78256000D02*
X145396000Y-78256000D01*
X146196000Y-81256000D02*
X146196000Y-78256000D01*
X145396000Y-81256000D02*
X146196000Y-81256000D01*
X145396000Y-78256000D02*
X145396000Y-81256000D01*
G04 #@! TO.C,RN14*
X142640000Y-91464000D02*
X141840000Y-91464000D01*
X142640000Y-94464000D02*
X142640000Y-91464000D01*
X141840000Y-94464000D02*
X142640000Y-94464000D01*
X141840000Y-91464000D02*
X141840000Y-94464000D01*
G04 #@! TO.C,RN15*
X138576000Y-78256000D02*
X137776000Y-78256000D01*
X138576000Y-81256000D02*
X138576000Y-78256000D01*
X137776000Y-81256000D02*
X138576000Y-81256000D01*
X137776000Y-78256000D02*
X137776000Y-81256000D01*
G04 #@! TO.C,RN16*
X172612000Y-78256000D02*
X171812000Y-78256000D01*
X172612000Y-81256000D02*
X172612000Y-78256000D01*
X171812000Y-81256000D02*
X172612000Y-81256000D01*
X171812000Y-78256000D02*
X171812000Y-81256000D01*
G04 #@! TO.C,RN17*
X168548000Y-91464000D02*
X167748000Y-91464000D01*
X168548000Y-94464000D02*
X168548000Y-91464000D01*
X167748000Y-94464000D02*
X168548000Y-94464000D01*
X167748000Y-91464000D02*
X167748000Y-94464000D01*
G04 #@! TO.C,RN18*
X164992000Y-78256000D02*
X164192000Y-78256000D01*
X164992000Y-81256000D02*
X164992000Y-78256000D01*
X164192000Y-81256000D02*
X164992000Y-81256000D01*
X164192000Y-78256000D02*
X164192000Y-81256000D01*
G04 #@! TO.C,RN19*
X112160000Y-55396000D02*
X111360000Y-55396000D01*
X112160000Y-58396000D02*
X112160000Y-55396000D01*
X111360000Y-58396000D02*
X112160000Y-58396000D01*
X111360000Y-55396000D02*
X111360000Y-58396000D01*
G04 #@! TO.C,RN20*
X114700000Y-67588000D02*
X113900000Y-67588000D01*
X114700000Y-70588000D02*
X114700000Y-67588000D01*
X113900000Y-70588000D02*
X114700000Y-70588000D01*
X113900000Y-67588000D02*
X113900000Y-70588000D01*
G04 #@! TO.C,RN21*
X119780000Y-55396000D02*
X118980000Y-55396000D01*
X119780000Y-58396000D02*
X119780000Y-55396000D01*
X118980000Y-58396000D02*
X119780000Y-58396000D01*
X118980000Y-55396000D02*
X118980000Y-58396000D01*
G04 #@! TO.C,RN24*
X90100000Y-55396000D02*
X89300000Y-55396000D01*
X90100000Y-58396000D02*
X90100000Y-55396000D01*
X89300000Y-58396000D02*
X90100000Y-58396000D01*
X89300000Y-55396000D02*
X89300000Y-58396000D01*
G04 #@! TO.C,RN27*
X168548000Y-105180000D02*
X167748000Y-105180000D01*
X168548000Y-108180000D02*
X168548000Y-105180000D01*
X167748000Y-108180000D02*
X168548000Y-108180000D01*
X167748000Y-105180000D02*
X167748000Y-108180000D01*
G04 #@! TO.C,RN30*
X142640000Y-105180000D02*
X141840000Y-105180000D01*
X142640000Y-108180000D02*
X142640000Y-105180000D01*
X141840000Y-108180000D02*
X142640000Y-108180000D01*
X141840000Y-105180000D02*
X141840000Y-108180000D01*
G04 #@! TO.C,RN31*
X172612000Y-55396000D02*
X171812000Y-55396000D01*
X172612000Y-58396000D02*
X172612000Y-55396000D01*
X171812000Y-58396000D02*
X172612000Y-58396000D01*
X171812000Y-55396000D02*
X171812000Y-58396000D01*
G04 #@! TO.C,RN32*
X168548000Y-67588000D02*
X167748000Y-67588000D01*
X168548000Y-70588000D02*
X168548000Y-67588000D01*
X167748000Y-70588000D02*
X168548000Y-70588000D01*
X167748000Y-67588000D02*
X167748000Y-70588000D01*
G04 #@! TO.C,RN33*
X164992000Y-55396000D02*
X164192000Y-55396000D01*
X164992000Y-58396000D02*
X164992000Y-55396000D01*
X164192000Y-58396000D02*
X164992000Y-58396000D01*
X164192000Y-55396000D02*
X164192000Y-58396000D01*
G04 #@! TO.C,RN36*
X142640000Y-55396000D02*
X141840000Y-55396000D01*
X142640000Y-58396000D02*
X142640000Y-55396000D01*
X141840000Y-58396000D02*
X142640000Y-58396000D01*
X141840000Y-55396000D02*
X141840000Y-58396000D01*
G04 #@! TO.C,RN37*
X212828000Y-76600000D02*
X212828000Y-75800000D01*
X209828000Y-76600000D02*
X212828000Y-76600000D01*
X209828000Y-75800000D02*
X209828000Y-76600000D01*
X212828000Y-75800000D02*
X209828000Y-75800000D01*
G04 #@! TO.C,RN38*
X202160000Y-72536000D02*
X202160000Y-71736000D01*
X199160000Y-72536000D02*
X202160000Y-72536000D01*
X199160000Y-71736000D02*
X199160000Y-72536000D01*
X202160000Y-71736000D02*
X199160000Y-71736000D01*
G04 #@! TO.C,RN39*
X212828000Y-68980000D02*
X212828000Y-68180000D01*
X209828000Y-68980000D02*
X212828000Y-68980000D01*
X209828000Y-68180000D02*
X209828000Y-68980000D01*
X212828000Y-68180000D02*
X209828000Y-68180000D01*
G04 #@! TO.C,RN40*
X212828000Y-99460000D02*
X212828000Y-98660000D01*
X209828000Y-99460000D02*
X212828000Y-99460000D01*
X209828000Y-98660000D02*
X209828000Y-99460000D01*
X212828000Y-98660000D02*
X209828000Y-98660000D01*
G04 #@! TO.C,RN41*
X202160000Y-95396000D02*
X202160000Y-94596000D01*
X199160000Y-95396000D02*
X202160000Y-95396000D01*
X199160000Y-94596000D02*
X199160000Y-95396000D01*
X202160000Y-94596000D02*
X199160000Y-94596000D01*
G04 #@! TO.C,RN42*
X212828000Y-91840000D02*
X212828000Y-91040000D01*
X209828000Y-91840000D02*
X212828000Y-91840000D01*
X209828000Y-91040000D02*
X209828000Y-91840000D01*
X212828000Y-91040000D02*
X209828000Y-91040000D01*
G04 #@! TO.C,RN43*
X212828000Y-122320000D02*
X212828000Y-121520000D01*
X209828000Y-122320000D02*
X212828000Y-122320000D01*
X209828000Y-121520000D02*
X209828000Y-122320000D01*
X212828000Y-121520000D02*
X209828000Y-121520000D01*
G04 #@! TO.C,RN44*
X202160000Y-118256000D02*
X202160000Y-117456000D01*
X199160000Y-118256000D02*
X202160000Y-118256000D01*
X199160000Y-117456000D02*
X199160000Y-118256000D01*
X202160000Y-117456000D02*
X199160000Y-117456000D01*
G04 #@! TO.C,RN45*
X212828000Y-114700000D02*
X212828000Y-113900000D01*
X209828000Y-114700000D02*
X212828000Y-114700000D01*
X209828000Y-113900000D02*
X209828000Y-114700000D01*
X212828000Y-113900000D02*
X209828000Y-113900000D01*
G04 #@! TO.C,RN48*
X116224000Y-34060000D02*
X115424000Y-34060000D01*
X116224000Y-37060000D02*
X116224000Y-34060000D01*
X115424000Y-37060000D02*
X116224000Y-37060000D01*
X115424000Y-34060000D02*
X115424000Y-37060000D01*
G04 #@! TO.C,RN50*
X128675000Y-35515600D02*
X128675000Y-36315600D01*
X131675000Y-35515600D02*
X128675000Y-35515600D01*
X131675000Y-36315600D02*
X131675000Y-35515600D01*
X128675000Y-36315600D02*
X131675000Y-36315600D01*
G04 #@! TO.C,RN51*
X142640000Y-34060000D02*
X141840000Y-34060000D01*
X142640000Y-37060000D02*
X142640000Y-34060000D01*
X141840000Y-37060000D02*
X142640000Y-37060000D01*
X141840000Y-34060000D02*
X141840000Y-37060000D01*
G04 #@! TO.C,RN54*
X169056000Y-34060000D02*
X168256000Y-34060000D01*
X169056000Y-37060000D02*
X169056000Y-34060000D01*
X168256000Y-37060000D02*
X169056000Y-37060000D01*
X168256000Y-34060000D02*
X168256000Y-37060000D01*
G04 #@! TO.C,RN55*
X212828000Y-49168000D02*
X212828000Y-48368000D01*
X209828000Y-49168000D02*
X212828000Y-49168000D01*
X209828000Y-48368000D02*
X209828000Y-49168000D01*
X212828000Y-48368000D02*
X209828000Y-48368000D01*
G04 #@! TO.C,RN56*
X202160000Y-45104000D02*
X202160000Y-44304000D01*
X199160000Y-45104000D02*
X202160000Y-45104000D01*
X199160000Y-44304000D02*
X199160000Y-45104000D01*
X202160000Y-44304000D02*
X199160000Y-44304000D01*
G04 #@! TO.C,RN57*
X212828000Y-41548000D02*
X212828000Y-40748000D01*
X209828000Y-41548000D02*
X212828000Y-41548000D01*
X209828000Y-40748000D02*
X209828000Y-41548000D01*
X212828000Y-40748000D02*
X209828000Y-40748000D01*
G04 #@! TO.C,RN3*
D10*
X92468380Y-105989523D02*
X91992190Y-105656190D01*
X92468380Y-105418095D02*
X91468380Y-105418095D01*
X91468380Y-105799047D01*
X91516000Y-105894285D01*
X91563619Y-105941904D01*
X91658857Y-105989523D01*
X91801714Y-105989523D01*
X91896952Y-105941904D01*
X91944571Y-105894285D01*
X91992190Y-105799047D01*
X91992190Y-105418095D01*
X92468380Y-106418095D02*
X91468380Y-106418095D01*
X92468380Y-106989523D01*
X91468380Y-106989523D01*
X91468380Y-107370476D02*
X91468380Y-107989523D01*
X91849333Y-107656190D01*
X91849333Y-107799047D01*
X91896952Y-107894285D01*
X91944571Y-107941904D01*
X92039809Y-107989523D01*
X92277904Y-107989523D01*
X92373142Y-107941904D01*
X92420761Y-107894285D01*
X92468380Y-107799047D01*
X92468380Y-107513333D01*
X92420761Y-107418095D01*
X92373142Y-107370476D01*
G04 #@! TO.C,RN6*
X117868380Y-105989523D02*
X117392190Y-105656190D01*
X117868380Y-105418095D02*
X116868380Y-105418095D01*
X116868380Y-105799047D01*
X116916000Y-105894285D01*
X116963619Y-105941904D01*
X117058857Y-105989523D01*
X117201714Y-105989523D01*
X117296952Y-105941904D01*
X117344571Y-105894285D01*
X117392190Y-105799047D01*
X117392190Y-105418095D01*
X117868380Y-106418095D02*
X116868380Y-106418095D01*
X117868380Y-106989523D01*
X116868380Y-106989523D01*
X116868380Y-107894285D02*
X116868380Y-107703809D01*
X116916000Y-107608571D01*
X116963619Y-107560952D01*
X117106476Y-107465714D01*
X117296952Y-107418095D01*
X117677904Y-107418095D01*
X117773142Y-107465714D01*
X117820761Y-107513333D01*
X117868380Y-107608571D01*
X117868380Y-107799047D01*
X117820761Y-107894285D01*
X117773142Y-107941904D01*
X117677904Y-107989523D01*
X117439809Y-107989523D01*
X117344571Y-107941904D01*
X117296952Y-107894285D01*
X117249333Y-107799047D01*
X117249333Y-107608571D01*
X117296952Y-107513333D01*
X117344571Y-107465714D01*
X117439809Y-107418095D01*
G04 #@! TO.C,RN7*
X96024380Y-79065523D02*
X95548190Y-78732190D01*
X96024380Y-78494095D02*
X95024380Y-78494095D01*
X95024380Y-78875047D01*
X95072000Y-78970285D01*
X95119619Y-79017904D01*
X95214857Y-79065523D01*
X95357714Y-79065523D01*
X95452952Y-79017904D01*
X95500571Y-78970285D01*
X95548190Y-78875047D01*
X95548190Y-78494095D01*
X96024380Y-79494095D02*
X95024380Y-79494095D01*
X96024380Y-80065523D01*
X95024380Y-80065523D01*
X95024380Y-80446476D02*
X95024380Y-81113142D01*
X96024380Y-80684571D01*
G04 #@! TO.C,RN8*
X91960380Y-92273523D02*
X91484190Y-91940190D01*
X91960380Y-91702095D02*
X90960380Y-91702095D01*
X90960380Y-92083047D01*
X91008000Y-92178285D01*
X91055619Y-92225904D01*
X91150857Y-92273523D01*
X91293714Y-92273523D01*
X91388952Y-92225904D01*
X91436571Y-92178285D01*
X91484190Y-92083047D01*
X91484190Y-91702095D01*
X91960380Y-92702095D02*
X90960380Y-92702095D01*
X91960380Y-93273523D01*
X90960380Y-93273523D01*
X91388952Y-93892571D02*
X91341333Y-93797333D01*
X91293714Y-93749714D01*
X91198476Y-93702095D01*
X91150857Y-93702095D01*
X91055619Y-93749714D01*
X91008000Y-93797333D01*
X90960380Y-93892571D01*
X90960380Y-94083047D01*
X91008000Y-94178285D01*
X91055619Y-94225904D01*
X91150857Y-94273523D01*
X91198476Y-94273523D01*
X91293714Y-94225904D01*
X91341333Y-94178285D01*
X91388952Y-94083047D01*
X91388952Y-93892571D01*
X91436571Y-93797333D01*
X91484190Y-93749714D01*
X91579428Y-93702095D01*
X91769904Y-93702095D01*
X91865142Y-93749714D01*
X91912761Y-93797333D01*
X91960380Y-93892571D01*
X91960380Y-94083047D01*
X91912761Y-94178285D01*
X91865142Y-94225904D01*
X91769904Y-94273523D01*
X91579428Y-94273523D01*
X91484190Y-94225904D01*
X91436571Y-94178285D01*
X91388952Y-94083047D01*
G04 #@! TO.C,RN9*
X87388380Y-79065523D02*
X86912190Y-78732190D01*
X87388380Y-78494095D02*
X86388380Y-78494095D01*
X86388380Y-78875047D01*
X86436000Y-78970285D01*
X86483619Y-79017904D01*
X86578857Y-79065523D01*
X86721714Y-79065523D01*
X86816952Y-79017904D01*
X86864571Y-78970285D01*
X86912190Y-78875047D01*
X86912190Y-78494095D01*
X87388380Y-79494095D02*
X86388380Y-79494095D01*
X87388380Y-80065523D01*
X86388380Y-80065523D01*
X87388380Y-80589333D02*
X87388380Y-80779809D01*
X87340761Y-80875047D01*
X87293142Y-80922666D01*
X87150285Y-81017904D01*
X86959809Y-81065523D01*
X86578857Y-81065523D01*
X86483619Y-81017904D01*
X86436000Y-80970285D01*
X86388380Y-80875047D01*
X86388380Y-80684571D01*
X86436000Y-80589333D01*
X86483619Y-80541714D01*
X86578857Y-80494095D01*
X86816952Y-80494095D01*
X86912190Y-80541714D01*
X86959809Y-80589333D01*
X87007428Y-80684571D01*
X87007428Y-80875047D01*
X86959809Y-80970285D01*
X86912190Y-81017904D01*
X86816952Y-81065523D01*
G04 #@! TO.C,RN10*
X121932380Y-78589333D02*
X121456190Y-78256000D01*
X121932380Y-78017904D02*
X120932380Y-78017904D01*
X120932380Y-78398857D01*
X120980000Y-78494095D01*
X121027619Y-78541714D01*
X121122857Y-78589333D01*
X121265714Y-78589333D01*
X121360952Y-78541714D01*
X121408571Y-78494095D01*
X121456190Y-78398857D01*
X121456190Y-78017904D01*
X121932380Y-79017904D02*
X120932380Y-79017904D01*
X121932380Y-79589333D01*
X120932380Y-79589333D01*
X121932380Y-80589333D02*
X121932380Y-80017904D01*
X121932380Y-80303619D02*
X120932380Y-80303619D01*
X121075238Y-80208380D01*
X121170476Y-80113142D01*
X121218095Y-80017904D01*
X120932380Y-81208380D02*
X120932380Y-81303619D01*
X120980000Y-81398857D01*
X121027619Y-81446476D01*
X121122857Y-81494095D01*
X121313333Y-81541714D01*
X121551428Y-81541714D01*
X121741904Y-81494095D01*
X121837142Y-81446476D01*
X121884761Y-81398857D01*
X121932380Y-81303619D01*
X121932380Y-81208380D01*
X121884761Y-81113142D01*
X121837142Y-81065523D01*
X121741904Y-81017904D01*
X121551428Y-80970285D01*
X121313333Y-80970285D01*
X121122857Y-81017904D01*
X121027619Y-81065523D01*
X120980000Y-81113142D01*
X120932380Y-81208380D01*
G04 #@! TO.C,RN11*
X117868380Y-91797333D02*
X117392190Y-91464000D01*
X117868380Y-91225904D02*
X116868380Y-91225904D01*
X116868380Y-91606857D01*
X116916000Y-91702095D01*
X116963619Y-91749714D01*
X117058857Y-91797333D01*
X117201714Y-91797333D01*
X117296952Y-91749714D01*
X117344571Y-91702095D01*
X117392190Y-91606857D01*
X117392190Y-91225904D01*
X117868380Y-92225904D02*
X116868380Y-92225904D01*
X117868380Y-92797333D01*
X116868380Y-92797333D01*
X117868380Y-93797333D02*
X117868380Y-93225904D01*
X117868380Y-93511619D02*
X116868380Y-93511619D01*
X117011238Y-93416380D01*
X117106476Y-93321142D01*
X117154095Y-93225904D01*
X117868380Y-94749714D02*
X117868380Y-94178285D01*
X117868380Y-94464000D02*
X116868380Y-94464000D01*
X117011238Y-94368761D01*
X117106476Y-94273523D01*
X117154095Y-94178285D01*
G04 #@! TO.C,RN12*
X114312380Y-78589333D02*
X113836190Y-78256000D01*
X114312380Y-78017904D02*
X113312380Y-78017904D01*
X113312380Y-78398857D01*
X113360000Y-78494095D01*
X113407619Y-78541714D01*
X113502857Y-78589333D01*
X113645714Y-78589333D01*
X113740952Y-78541714D01*
X113788571Y-78494095D01*
X113836190Y-78398857D01*
X113836190Y-78017904D01*
X114312380Y-79017904D02*
X113312380Y-79017904D01*
X114312380Y-79589333D01*
X113312380Y-79589333D01*
X114312380Y-80589333D02*
X114312380Y-80017904D01*
X114312380Y-80303619D02*
X113312380Y-80303619D01*
X113455238Y-80208380D01*
X113550476Y-80113142D01*
X113598095Y-80017904D01*
X113407619Y-80970285D02*
X113360000Y-81017904D01*
X113312380Y-81113142D01*
X113312380Y-81351238D01*
X113360000Y-81446476D01*
X113407619Y-81494095D01*
X113502857Y-81541714D01*
X113598095Y-81541714D01*
X113740952Y-81494095D01*
X114312380Y-80922666D01*
X114312380Y-81541714D01*
G04 #@! TO.C,RN13*
X148348380Y-78589333D02*
X147872190Y-78256000D01*
X148348380Y-78017904D02*
X147348380Y-78017904D01*
X147348380Y-78398857D01*
X147396000Y-78494095D01*
X147443619Y-78541714D01*
X147538857Y-78589333D01*
X147681714Y-78589333D01*
X147776952Y-78541714D01*
X147824571Y-78494095D01*
X147872190Y-78398857D01*
X147872190Y-78017904D01*
X148348380Y-79017904D02*
X147348380Y-79017904D01*
X148348380Y-79589333D01*
X147348380Y-79589333D01*
X148348380Y-80589333D02*
X148348380Y-80017904D01*
X148348380Y-80303619D02*
X147348380Y-80303619D01*
X147491238Y-80208380D01*
X147586476Y-80113142D01*
X147634095Y-80017904D01*
X147348380Y-80922666D02*
X147348380Y-81541714D01*
X147729333Y-81208380D01*
X147729333Y-81351238D01*
X147776952Y-81446476D01*
X147824571Y-81494095D01*
X147919809Y-81541714D01*
X148157904Y-81541714D01*
X148253142Y-81494095D01*
X148300761Y-81446476D01*
X148348380Y-81351238D01*
X148348380Y-81065523D01*
X148300761Y-80970285D01*
X148253142Y-80922666D01*
G04 #@! TO.C,RN14*
X144792380Y-91797333D02*
X144316190Y-91464000D01*
X144792380Y-91225904D02*
X143792380Y-91225904D01*
X143792380Y-91606857D01*
X143840000Y-91702095D01*
X143887619Y-91749714D01*
X143982857Y-91797333D01*
X144125714Y-91797333D01*
X144220952Y-91749714D01*
X144268571Y-91702095D01*
X144316190Y-91606857D01*
X144316190Y-91225904D01*
X144792380Y-92225904D02*
X143792380Y-92225904D01*
X144792380Y-92797333D01*
X143792380Y-92797333D01*
X144792380Y-93797333D02*
X144792380Y-93225904D01*
X144792380Y-93511619D02*
X143792380Y-93511619D01*
X143935238Y-93416380D01*
X144030476Y-93321142D01*
X144078095Y-93225904D01*
X144125714Y-94654476D02*
X144792380Y-94654476D01*
X143744761Y-94416380D02*
X144459047Y-94178285D01*
X144459047Y-94797333D01*
G04 #@! TO.C,RN15*
X140728380Y-78589333D02*
X140252190Y-78256000D01*
X140728380Y-78017904D02*
X139728380Y-78017904D01*
X139728380Y-78398857D01*
X139776000Y-78494095D01*
X139823619Y-78541714D01*
X139918857Y-78589333D01*
X140061714Y-78589333D01*
X140156952Y-78541714D01*
X140204571Y-78494095D01*
X140252190Y-78398857D01*
X140252190Y-78017904D01*
X140728380Y-79017904D02*
X139728380Y-79017904D01*
X140728380Y-79589333D01*
X139728380Y-79589333D01*
X140728380Y-80589333D02*
X140728380Y-80017904D01*
X140728380Y-80303619D02*
X139728380Y-80303619D01*
X139871238Y-80208380D01*
X139966476Y-80113142D01*
X140014095Y-80017904D01*
X139728380Y-81494095D02*
X139728380Y-81017904D01*
X140204571Y-80970285D01*
X140156952Y-81017904D01*
X140109333Y-81113142D01*
X140109333Y-81351238D01*
X140156952Y-81446476D01*
X140204571Y-81494095D01*
X140299809Y-81541714D01*
X140537904Y-81541714D01*
X140633142Y-81494095D01*
X140680761Y-81446476D01*
X140728380Y-81351238D01*
X140728380Y-81113142D01*
X140680761Y-81017904D01*
X140633142Y-80970285D01*
G04 #@! TO.C,RN16*
X174764380Y-78589333D02*
X174288190Y-78256000D01*
X174764380Y-78017904D02*
X173764380Y-78017904D01*
X173764380Y-78398857D01*
X173812000Y-78494095D01*
X173859619Y-78541714D01*
X173954857Y-78589333D01*
X174097714Y-78589333D01*
X174192952Y-78541714D01*
X174240571Y-78494095D01*
X174288190Y-78398857D01*
X174288190Y-78017904D01*
X174764380Y-79017904D02*
X173764380Y-79017904D01*
X174764380Y-79589333D01*
X173764380Y-79589333D01*
X174764380Y-80589333D02*
X174764380Y-80017904D01*
X174764380Y-80303619D02*
X173764380Y-80303619D01*
X173907238Y-80208380D01*
X174002476Y-80113142D01*
X174050095Y-80017904D01*
X173764380Y-81446476D02*
X173764380Y-81256000D01*
X173812000Y-81160761D01*
X173859619Y-81113142D01*
X174002476Y-81017904D01*
X174192952Y-80970285D01*
X174573904Y-80970285D01*
X174669142Y-81017904D01*
X174716761Y-81065523D01*
X174764380Y-81160761D01*
X174764380Y-81351238D01*
X174716761Y-81446476D01*
X174669142Y-81494095D01*
X174573904Y-81541714D01*
X174335809Y-81541714D01*
X174240571Y-81494095D01*
X174192952Y-81446476D01*
X174145333Y-81351238D01*
X174145333Y-81160761D01*
X174192952Y-81065523D01*
X174240571Y-81017904D01*
X174335809Y-80970285D01*
G04 #@! TO.C,RN17*
X170700380Y-91797333D02*
X170224190Y-91464000D01*
X170700380Y-91225904D02*
X169700380Y-91225904D01*
X169700380Y-91606857D01*
X169748000Y-91702095D01*
X169795619Y-91749714D01*
X169890857Y-91797333D01*
X170033714Y-91797333D01*
X170128952Y-91749714D01*
X170176571Y-91702095D01*
X170224190Y-91606857D01*
X170224190Y-91225904D01*
X170700380Y-92225904D02*
X169700380Y-92225904D01*
X170700380Y-92797333D01*
X169700380Y-92797333D01*
X170700380Y-93797333D02*
X170700380Y-93225904D01*
X170700380Y-93511619D02*
X169700380Y-93511619D01*
X169843238Y-93416380D01*
X169938476Y-93321142D01*
X169986095Y-93225904D01*
X169700380Y-94130666D02*
X169700380Y-94797333D01*
X170700380Y-94368761D01*
G04 #@! TO.C,RN18*
X167144380Y-78589333D02*
X166668190Y-78256000D01*
X167144380Y-78017904D02*
X166144380Y-78017904D01*
X166144380Y-78398857D01*
X166192000Y-78494095D01*
X166239619Y-78541714D01*
X166334857Y-78589333D01*
X166477714Y-78589333D01*
X166572952Y-78541714D01*
X166620571Y-78494095D01*
X166668190Y-78398857D01*
X166668190Y-78017904D01*
X167144380Y-79017904D02*
X166144380Y-79017904D01*
X167144380Y-79589333D01*
X166144380Y-79589333D01*
X167144380Y-80589333D02*
X167144380Y-80017904D01*
X167144380Y-80303619D02*
X166144380Y-80303619D01*
X166287238Y-80208380D01*
X166382476Y-80113142D01*
X166430095Y-80017904D01*
X166572952Y-81160761D02*
X166525333Y-81065523D01*
X166477714Y-81017904D01*
X166382476Y-80970285D01*
X166334857Y-80970285D01*
X166239619Y-81017904D01*
X166192000Y-81065523D01*
X166144380Y-81160761D01*
X166144380Y-81351238D01*
X166192000Y-81446476D01*
X166239619Y-81494095D01*
X166334857Y-81541714D01*
X166382476Y-81541714D01*
X166477714Y-81494095D01*
X166525333Y-81446476D01*
X166572952Y-81351238D01*
X166572952Y-81160761D01*
X166620571Y-81065523D01*
X166668190Y-81017904D01*
X166763428Y-80970285D01*
X166953904Y-80970285D01*
X167049142Y-81017904D01*
X167096761Y-81065523D01*
X167144380Y-81160761D01*
X167144380Y-81351238D01*
X167096761Y-81446476D01*
X167049142Y-81494095D01*
X166953904Y-81541714D01*
X166763428Y-81541714D01*
X166668190Y-81494095D01*
X166620571Y-81446476D01*
X166572952Y-81351238D01*
G04 #@! TO.C,RN19*
X114312380Y-55729333D02*
X113836190Y-55396000D01*
X114312380Y-55157904D02*
X113312380Y-55157904D01*
X113312380Y-55538857D01*
X113360000Y-55634095D01*
X113407619Y-55681714D01*
X113502857Y-55729333D01*
X113645714Y-55729333D01*
X113740952Y-55681714D01*
X113788571Y-55634095D01*
X113836190Y-55538857D01*
X113836190Y-55157904D01*
X114312380Y-56157904D02*
X113312380Y-56157904D01*
X114312380Y-56729333D01*
X113312380Y-56729333D01*
X114312380Y-57729333D02*
X114312380Y-57157904D01*
X114312380Y-57443619D02*
X113312380Y-57443619D01*
X113455238Y-57348380D01*
X113550476Y-57253142D01*
X113598095Y-57157904D01*
X114312380Y-58205523D02*
X114312380Y-58396000D01*
X114264761Y-58491238D01*
X114217142Y-58538857D01*
X114074285Y-58634095D01*
X113883809Y-58681714D01*
X113502857Y-58681714D01*
X113407619Y-58634095D01*
X113360000Y-58586476D01*
X113312380Y-58491238D01*
X113312380Y-58300761D01*
X113360000Y-58205523D01*
X113407619Y-58157904D01*
X113502857Y-58110285D01*
X113740952Y-58110285D01*
X113836190Y-58157904D01*
X113883809Y-58205523D01*
X113931428Y-58300761D01*
X113931428Y-58491238D01*
X113883809Y-58586476D01*
X113836190Y-58634095D01*
X113740952Y-58681714D01*
G04 #@! TO.C,RN20*
X116852380Y-67921333D02*
X116376190Y-67588000D01*
X116852380Y-67349904D02*
X115852380Y-67349904D01*
X115852380Y-67730857D01*
X115900000Y-67826095D01*
X115947619Y-67873714D01*
X116042857Y-67921333D01*
X116185714Y-67921333D01*
X116280952Y-67873714D01*
X116328571Y-67826095D01*
X116376190Y-67730857D01*
X116376190Y-67349904D01*
X116852380Y-68349904D02*
X115852380Y-68349904D01*
X116852380Y-68921333D01*
X115852380Y-68921333D01*
X115947619Y-69349904D02*
X115900000Y-69397523D01*
X115852380Y-69492761D01*
X115852380Y-69730857D01*
X115900000Y-69826095D01*
X115947619Y-69873714D01*
X116042857Y-69921333D01*
X116138095Y-69921333D01*
X116280952Y-69873714D01*
X116852380Y-69302285D01*
X116852380Y-69921333D01*
X115852380Y-70540380D02*
X115852380Y-70635619D01*
X115900000Y-70730857D01*
X115947619Y-70778476D01*
X116042857Y-70826095D01*
X116233333Y-70873714D01*
X116471428Y-70873714D01*
X116661904Y-70826095D01*
X116757142Y-70778476D01*
X116804761Y-70730857D01*
X116852380Y-70635619D01*
X116852380Y-70540380D01*
X116804761Y-70445142D01*
X116757142Y-70397523D01*
X116661904Y-70349904D01*
X116471428Y-70302285D01*
X116233333Y-70302285D01*
X116042857Y-70349904D01*
X115947619Y-70397523D01*
X115900000Y-70445142D01*
X115852380Y-70540380D01*
G04 #@! TO.C,RN21*
X121932380Y-55729333D02*
X121456190Y-55396000D01*
X121932380Y-55157904D02*
X120932380Y-55157904D01*
X120932380Y-55538857D01*
X120980000Y-55634095D01*
X121027619Y-55681714D01*
X121122857Y-55729333D01*
X121265714Y-55729333D01*
X121360952Y-55681714D01*
X121408571Y-55634095D01*
X121456190Y-55538857D01*
X121456190Y-55157904D01*
X121932380Y-56157904D02*
X120932380Y-56157904D01*
X121932380Y-56729333D01*
X120932380Y-56729333D01*
X121027619Y-57157904D02*
X120980000Y-57205523D01*
X120932380Y-57300761D01*
X120932380Y-57538857D01*
X120980000Y-57634095D01*
X121027619Y-57681714D01*
X121122857Y-57729333D01*
X121218095Y-57729333D01*
X121360952Y-57681714D01*
X121932380Y-57110285D01*
X121932380Y-57729333D01*
X121932380Y-58681714D02*
X121932380Y-58110285D01*
X121932380Y-58396000D02*
X120932380Y-58396000D01*
X121075238Y-58300761D01*
X121170476Y-58205523D01*
X121218095Y-58110285D01*
G04 #@! TO.C,RN24*
X92252380Y-55729333D02*
X91776190Y-55396000D01*
X92252380Y-55157904D02*
X91252380Y-55157904D01*
X91252380Y-55538857D01*
X91300000Y-55634095D01*
X91347619Y-55681714D01*
X91442857Y-55729333D01*
X91585714Y-55729333D01*
X91680952Y-55681714D01*
X91728571Y-55634095D01*
X91776190Y-55538857D01*
X91776190Y-55157904D01*
X92252380Y-56157904D02*
X91252380Y-56157904D01*
X92252380Y-56729333D01*
X91252380Y-56729333D01*
X91347619Y-57157904D02*
X91300000Y-57205523D01*
X91252380Y-57300761D01*
X91252380Y-57538857D01*
X91300000Y-57634095D01*
X91347619Y-57681714D01*
X91442857Y-57729333D01*
X91538095Y-57729333D01*
X91680952Y-57681714D01*
X92252380Y-57110285D01*
X92252380Y-57729333D01*
X91585714Y-58586476D02*
X92252380Y-58586476D01*
X91204761Y-58348380D02*
X91919047Y-58110285D01*
X91919047Y-58729333D01*
G04 #@! TO.C,RN27*
X170700380Y-105513333D02*
X170224190Y-105180000D01*
X170700380Y-104941904D02*
X169700380Y-104941904D01*
X169700380Y-105322857D01*
X169748000Y-105418095D01*
X169795619Y-105465714D01*
X169890857Y-105513333D01*
X170033714Y-105513333D01*
X170128952Y-105465714D01*
X170176571Y-105418095D01*
X170224190Y-105322857D01*
X170224190Y-104941904D01*
X170700380Y-105941904D02*
X169700380Y-105941904D01*
X170700380Y-106513333D01*
X169700380Y-106513333D01*
X169795619Y-106941904D02*
X169748000Y-106989523D01*
X169700380Y-107084761D01*
X169700380Y-107322857D01*
X169748000Y-107418095D01*
X169795619Y-107465714D01*
X169890857Y-107513333D01*
X169986095Y-107513333D01*
X170128952Y-107465714D01*
X170700380Y-106894285D01*
X170700380Y-107513333D01*
X169700380Y-107846666D02*
X169700380Y-108513333D01*
X170700380Y-108084761D01*
G04 #@! TO.C,RN30*
X144792380Y-105513333D02*
X144316190Y-105180000D01*
X144792380Y-104941904D02*
X143792380Y-104941904D01*
X143792380Y-105322857D01*
X143840000Y-105418095D01*
X143887619Y-105465714D01*
X143982857Y-105513333D01*
X144125714Y-105513333D01*
X144220952Y-105465714D01*
X144268571Y-105418095D01*
X144316190Y-105322857D01*
X144316190Y-104941904D01*
X144792380Y-105941904D02*
X143792380Y-105941904D01*
X144792380Y-106513333D01*
X143792380Y-106513333D01*
X143792380Y-106894285D02*
X143792380Y-107513333D01*
X144173333Y-107180000D01*
X144173333Y-107322857D01*
X144220952Y-107418095D01*
X144268571Y-107465714D01*
X144363809Y-107513333D01*
X144601904Y-107513333D01*
X144697142Y-107465714D01*
X144744761Y-107418095D01*
X144792380Y-107322857D01*
X144792380Y-107037142D01*
X144744761Y-106941904D01*
X144697142Y-106894285D01*
X143792380Y-108132380D02*
X143792380Y-108227619D01*
X143840000Y-108322857D01*
X143887619Y-108370476D01*
X143982857Y-108418095D01*
X144173333Y-108465714D01*
X144411428Y-108465714D01*
X144601904Y-108418095D01*
X144697142Y-108370476D01*
X144744761Y-108322857D01*
X144792380Y-108227619D01*
X144792380Y-108132380D01*
X144744761Y-108037142D01*
X144697142Y-107989523D01*
X144601904Y-107941904D01*
X144411428Y-107894285D01*
X144173333Y-107894285D01*
X143982857Y-107941904D01*
X143887619Y-107989523D01*
X143840000Y-108037142D01*
X143792380Y-108132380D01*
G04 #@! TO.C,RN31*
X174764380Y-55729333D02*
X174288190Y-55396000D01*
X174764380Y-55157904D02*
X173764380Y-55157904D01*
X173764380Y-55538857D01*
X173812000Y-55634095D01*
X173859619Y-55681714D01*
X173954857Y-55729333D01*
X174097714Y-55729333D01*
X174192952Y-55681714D01*
X174240571Y-55634095D01*
X174288190Y-55538857D01*
X174288190Y-55157904D01*
X174764380Y-56157904D02*
X173764380Y-56157904D01*
X174764380Y-56729333D01*
X173764380Y-56729333D01*
X173764380Y-57110285D02*
X173764380Y-57729333D01*
X174145333Y-57396000D01*
X174145333Y-57538857D01*
X174192952Y-57634095D01*
X174240571Y-57681714D01*
X174335809Y-57729333D01*
X174573904Y-57729333D01*
X174669142Y-57681714D01*
X174716761Y-57634095D01*
X174764380Y-57538857D01*
X174764380Y-57253142D01*
X174716761Y-57157904D01*
X174669142Y-57110285D01*
X174764380Y-58681714D02*
X174764380Y-58110285D01*
X174764380Y-58396000D02*
X173764380Y-58396000D01*
X173907238Y-58300761D01*
X174002476Y-58205523D01*
X174050095Y-58110285D01*
G04 #@! TO.C,RN32*
X170700380Y-67921333D02*
X170224190Y-67588000D01*
X170700380Y-67349904D02*
X169700380Y-67349904D01*
X169700380Y-67730857D01*
X169748000Y-67826095D01*
X169795619Y-67873714D01*
X169890857Y-67921333D01*
X170033714Y-67921333D01*
X170128952Y-67873714D01*
X170176571Y-67826095D01*
X170224190Y-67730857D01*
X170224190Y-67349904D01*
X170700380Y-68349904D02*
X169700380Y-68349904D01*
X170700380Y-68921333D01*
X169700380Y-68921333D01*
X169700380Y-69302285D02*
X169700380Y-69921333D01*
X170081333Y-69588000D01*
X170081333Y-69730857D01*
X170128952Y-69826095D01*
X170176571Y-69873714D01*
X170271809Y-69921333D01*
X170509904Y-69921333D01*
X170605142Y-69873714D01*
X170652761Y-69826095D01*
X170700380Y-69730857D01*
X170700380Y-69445142D01*
X170652761Y-69349904D01*
X170605142Y-69302285D01*
X169795619Y-70302285D02*
X169748000Y-70349904D01*
X169700380Y-70445142D01*
X169700380Y-70683238D01*
X169748000Y-70778476D01*
X169795619Y-70826095D01*
X169890857Y-70873714D01*
X169986095Y-70873714D01*
X170128952Y-70826095D01*
X170700380Y-70254666D01*
X170700380Y-70873714D01*
G04 #@! TO.C,RN33*
X167144380Y-55729333D02*
X166668190Y-55396000D01*
X167144380Y-55157904D02*
X166144380Y-55157904D01*
X166144380Y-55538857D01*
X166192000Y-55634095D01*
X166239619Y-55681714D01*
X166334857Y-55729333D01*
X166477714Y-55729333D01*
X166572952Y-55681714D01*
X166620571Y-55634095D01*
X166668190Y-55538857D01*
X166668190Y-55157904D01*
X167144380Y-56157904D02*
X166144380Y-56157904D01*
X167144380Y-56729333D01*
X166144380Y-56729333D01*
X166144380Y-57110285D02*
X166144380Y-57729333D01*
X166525333Y-57396000D01*
X166525333Y-57538857D01*
X166572952Y-57634095D01*
X166620571Y-57681714D01*
X166715809Y-57729333D01*
X166953904Y-57729333D01*
X167049142Y-57681714D01*
X167096761Y-57634095D01*
X167144380Y-57538857D01*
X167144380Y-57253142D01*
X167096761Y-57157904D01*
X167049142Y-57110285D01*
X166144380Y-58062666D02*
X166144380Y-58681714D01*
X166525333Y-58348380D01*
X166525333Y-58491238D01*
X166572952Y-58586476D01*
X166620571Y-58634095D01*
X166715809Y-58681714D01*
X166953904Y-58681714D01*
X167049142Y-58634095D01*
X167096761Y-58586476D01*
X167144380Y-58491238D01*
X167144380Y-58205523D01*
X167096761Y-58110285D01*
X167049142Y-58062666D01*
G04 #@! TO.C,RN36*
X144792380Y-55729333D02*
X144316190Y-55396000D01*
X144792380Y-55157904D02*
X143792380Y-55157904D01*
X143792380Y-55538857D01*
X143840000Y-55634095D01*
X143887619Y-55681714D01*
X143982857Y-55729333D01*
X144125714Y-55729333D01*
X144220952Y-55681714D01*
X144268571Y-55634095D01*
X144316190Y-55538857D01*
X144316190Y-55157904D01*
X144792380Y-56157904D02*
X143792380Y-56157904D01*
X144792380Y-56729333D01*
X143792380Y-56729333D01*
X143792380Y-57110285D02*
X143792380Y-57729333D01*
X144173333Y-57396000D01*
X144173333Y-57538857D01*
X144220952Y-57634095D01*
X144268571Y-57681714D01*
X144363809Y-57729333D01*
X144601904Y-57729333D01*
X144697142Y-57681714D01*
X144744761Y-57634095D01*
X144792380Y-57538857D01*
X144792380Y-57253142D01*
X144744761Y-57157904D01*
X144697142Y-57110285D01*
X143792380Y-58586476D02*
X143792380Y-58396000D01*
X143840000Y-58300761D01*
X143887619Y-58253142D01*
X144030476Y-58157904D01*
X144220952Y-58110285D01*
X144601904Y-58110285D01*
X144697142Y-58157904D01*
X144744761Y-58205523D01*
X144792380Y-58300761D01*
X144792380Y-58491238D01*
X144744761Y-58586476D01*
X144697142Y-58634095D01*
X144601904Y-58681714D01*
X144363809Y-58681714D01*
X144268571Y-58634095D01*
X144220952Y-58586476D01*
X144173333Y-58491238D01*
X144173333Y-58300761D01*
X144220952Y-58205523D01*
X144268571Y-58157904D01*
X144363809Y-58110285D01*
G04 #@! TO.C,RN37*
X212494666Y-78752380D02*
X212828000Y-78276190D01*
X213066095Y-78752380D02*
X213066095Y-77752380D01*
X212685142Y-77752380D01*
X212589904Y-77800000D01*
X212542285Y-77847619D01*
X212494666Y-77942857D01*
X212494666Y-78085714D01*
X212542285Y-78180952D01*
X212589904Y-78228571D01*
X212685142Y-78276190D01*
X213066095Y-78276190D01*
X212066095Y-78752380D02*
X212066095Y-77752380D01*
X211494666Y-78752380D01*
X211494666Y-77752380D01*
X211113714Y-77752380D02*
X210494666Y-77752380D01*
X210828000Y-78133333D01*
X210685142Y-78133333D01*
X210589904Y-78180952D01*
X210542285Y-78228571D01*
X210494666Y-78323809D01*
X210494666Y-78561904D01*
X210542285Y-78657142D01*
X210589904Y-78704761D01*
X210685142Y-78752380D01*
X210970857Y-78752380D01*
X211066095Y-78704761D01*
X211113714Y-78657142D01*
X210161333Y-77752380D02*
X209494666Y-77752380D01*
X209923238Y-78752380D01*
G04 #@! TO.C,RN38*
X201826666Y-74688380D02*
X202160000Y-74212190D01*
X202398095Y-74688380D02*
X202398095Y-73688380D01*
X202017142Y-73688380D01*
X201921904Y-73736000D01*
X201874285Y-73783619D01*
X201826666Y-73878857D01*
X201826666Y-74021714D01*
X201874285Y-74116952D01*
X201921904Y-74164571D01*
X202017142Y-74212190D01*
X202398095Y-74212190D01*
X201398095Y-74688380D02*
X201398095Y-73688380D01*
X200826666Y-74688380D01*
X200826666Y-73688380D01*
X200445714Y-73688380D02*
X199826666Y-73688380D01*
X200160000Y-74069333D01*
X200017142Y-74069333D01*
X199921904Y-74116952D01*
X199874285Y-74164571D01*
X199826666Y-74259809D01*
X199826666Y-74497904D01*
X199874285Y-74593142D01*
X199921904Y-74640761D01*
X200017142Y-74688380D01*
X200302857Y-74688380D01*
X200398095Y-74640761D01*
X200445714Y-74593142D01*
X199255238Y-74116952D02*
X199350476Y-74069333D01*
X199398095Y-74021714D01*
X199445714Y-73926476D01*
X199445714Y-73878857D01*
X199398095Y-73783619D01*
X199350476Y-73736000D01*
X199255238Y-73688380D01*
X199064761Y-73688380D01*
X198969523Y-73736000D01*
X198921904Y-73783619D01*
X198874285Y-73878857D01*
X198874285Y-73926476D01*
X198921904Y-74021714D01*
X198969523Y-74069333D01*
X199064761Y-74116952D01*
X199255238Y-74116952D01*
X199350476Y-74164571D01*
X199398095Y-74212190D01*
X199445714Y-74307428D01*
X199445714Y-74497904D01*
X199398095Y-74593142D01*
X199350476Y-74640761D01*
X199255238Y-74688380D01*
X199064761Y-74688380D01*
X198969523Y-74640761D01*
X198921904Y-74593142D01*
X198874285Y-74497904D01*
X198874285Y-74307428D01*
X198921904Y-74212190D01*
X198969523Y-74164571D01*
X199064761Y-74116952D01*
G04 #@! TO.C,RN39*
X212494666Y-71132380D02*
X212828000Y-70656190D01*
X213066095Y-71132380D02*
X213066095Y-70132380D01*
X212685142Y-70132380D01*
X212589904Y-70180000D01*
X212542285Y-70227619D01*
X212494666Y-70322857D01*
X212494666Y-70465714D01*
X212542285Y-70560952D01*
X212589904Y-70608571D01*
X212685142Y-70656190D01*
X213066095Y-70656190D01*
X212066095Y-71132380D02*
X212066095Y-70132380D01*
X211494666Y-71132380D01*
X211494666Y-70132380D01*
X211113714Y-70132380D02*
X210494666Y-70132380D01*
X210828000Y-70513333D01*
X210685142Y-70513333D01*
X210589904Y-70560952D01*
X210542285Y-70608571D01*
X210494666Y-70703809D01*
X210494666Y-70941904D01*
X210542285Y-71037142D01*
X210589904Y-71084761D01*
X210685142Y-71132380D01*
X210970857Y-71132380D01*
X211066095Y-71084761D01*
X211113714Y-71037142D01*
X210018476Y-71132380D02*
X209828000Y-71132380D01*
X209732761Y-71084761D01*
X209685142Y-71037142D01*
X209589904Y-70894285D01*
X209542285Y-70703809D01*
X209542285Y-70322857D01*
X209589904Y-70227619D01*
X209637523Y-70180000D01*
X209732761Y-70132380D01*
X209923238Y-70132380D01*
X210018476Y-70180000D01*
X210066095Y-70227619D01*
X210113714Y-70322857D01*
X210113714Y-70560952D01*
X210066095Y-70656190D01*
X210018476Y-70703809D01*
X209923238Y-70751428D01*
X209732761Y-70751428D01*
X209637523Y-70703809D01*
X209589904Y-70656190D01*
X209542285Y-70560952D01*
G04 #@! TO.C,RN40*
X212494666Y-101612380D02*
X212828000Y-101136190D01*
X213066095Y-101612380D02*
X213066095Y-100612380D01*
X212685142Y-100612380D01*
X212589904Y-100660000D01*
X212542285Y-100707619D01*
X212494666Y-100802857D01*
X212494666Y-100945714D01*
X212542285Y-101040952D01*
X212589904Y-101088571D01*
X212685142Y-101136190D01*
X213066095Y-101136190D01*
X212066095Y-101612380D02*
X212066095Y-100612380D01*
X211494666Y-101612380D01*
X211494666Y-100612380D01*
X210589904Y-100945714D02*
X210589904Y-101612380D01*
X210828000Y-100564761D02*
X211066095Y-101279047D01*
X210447047Y-101279047D01*
X209875619Y-100612380D02*
X209780380Y-100612380D01*
X209685142Y-100660000D01*
X209637523Y-100707619D01*
X209589904Y-100802857D01*
X209542285Y-100993333D01*
X209542285Y-101231428D01*
X209589904Y-101421904D01*
X209637523Y-101517142D01*
X209685142Y-101564761D01*
X209780380Y-101612380D01*
X209875619Y-101612380D01*
X209970857Y-101564761D01*
X210018476Y-101517142D01*
X210066095Y-101421904D01*
X210113714Y-101231428D01*
X210113714Y-100993333D01*
X210066095Y-100802857D01*
X210018476Y-100707619D01*
X209970857Y-100660000D01*
X209875619Y-100612380D01*
G04 #@! TO.C,RN41*
X201826666Y-97548380D02*
X202160000Y-97072190D01*
X202398095Y-97548380D02*
X202398095Y-96548380D01*
X202017142Y-96548380D01*
X201921904Y-96596000D01*
X201874285Y-96643619D01*
X201826666Y-96738857D01*
X201826666Y-96881714D01*
X201874285Y-96976952D01*
X201921904Y-97024571D01*
X202017142Y-97072190D01*
X202398095Y-97072190D01*
X201398095Y-97548380D02*
X201398095Y-96548380D01*
X200826666Y-97548380D01*
X200826666Y-96548380D01*
X199921904Y-96881714D02*
X199921904Y-97548380D01*
X200160000Y-96500761D02*
X200398095Y-97215047D01*
X199779047Y-97215047D01*
X198874285Y-97548380D02*
X199445714Y-97548380D01*
X199160000Y-97548380D02*
X199160000Y-96548380D01*
X199255238Y-96691238D01*
X199350476Y-96786476D01*
X199445714Y-96834095D01*
G04 #@! TO.C,RN42*
X212494666Y-93992380D02*
X212828000Y-93516190D01*
X213066095Y-93992380D02*
X213066095Y-92992380D01*
X212685142Y-92992380D01*
X212589904Y-93040000D01*
X212542285Y-93087619D01*
X212494666Y-93182857D01*
X212494666Y-93325714D01*
X212542285Y-93420952D01*
X212589904Y-93468571D01*
X212685142Y-93516190D01*
X213066095Y-93516190D01*
X212066095Y-93992380D02*
X212066095Y-92992380D01*
X211494666Y-93992380D01*
X211494666Y-92992380D01*
X210589904Y-93325714D02*
X210589904Y-93992380D01*
X210828000Y-92944761D02*
X211066095Y-93659047D01*
X210447047Y-93659047D01*
X210113714Y-93087619D02*
X210066095Y-93040000D01*
X209970857Y-92992380D01*
X209732761Y-92992380D01*
X209637523Y-93040000D01*
X209589904Y-93087619D01*
X209542285Y-93182857D01*
X209542285Y-93278095D01*
X209589904Y-93420952D01*
X210161333Y-93992380D01*
X209542285Y-93992380D01*
G04 #@! TO.C,RN43*
X212494666Y-124472380D02*
X212828000Y-123996190D01*
X213066095Y-124472380D02*
X213066095Y-123472380D01*
X212685142Y-123472380D01*
X212589904Y-123520000D01*
X212542285Y-123567619D01*
X212494666Y-123662857D01*
X212494666Y-123805714D01*
X212542285Y-123900952D01*
X212589904Y-123948571D01*
X212685142Y-123996190D01*
X213066095Y-123996190D01*
X212066095Y-124472380D02*
X212066095Y-123472380D01*
X211494666Y-124472380D01*
X211494666Y-123472380D01*
X210589904Y-123805714D02*
X210589904Y-124472380D01*
X210828000Y-123424761D02*
X211066095Y-124139047D01*
X210447047Y-124139047D01*
X210161333Y-123472380D02*
X209542285Y-123472380D01*
X209875619Y-123853333D01*
X209732761Y-123853333D01*
X209637523Y-123900952D01*
X209589904Y-123948571D01*
X209542285Y-124043809D01*
X209542285Y-124281904D01*
X209589904Y-124377142D01*
X209637523Y-124424761D01*
X209732761Y-124472380D01*
X210018476Y-124472380D01*
X210113714Y-124424761D01*
X210161333Y-124377142D01*
G04 #@! TO.C,RN44*
X201826666Y-120408380D02*
X202160000Y-119932190D01*
X202398095Y-120408380D02*
X202398095Y-119408380D01*
X202017142Y-119408380D01*
X201921904Y-119456000D01*
X201874285Y-119503619D01*
X201826666Y-119598857D01*
X201826666Y-119741714D01*
X201874285Y-119836952D01*
X201921904Y-119884571D01*
X202017142Y-119932190D01*
X202398095Y-119932190D01*
X201398095Y-120408380D02*
X201398095Y-119408380D01*
X200826666Y-120408380D01*
X200826666Y-119408380D01*
X199921904Y-119741714D02*
X199921904Y-120408380D01*
X200160000Y-119360761D02*
X200398095Y-120075047D01*
X199779047Y-120075047D01*
X198969523Y-119741714D02*
X198969523Y-120408380D01*
X199207619Y-119360761D02*
X199445714Y-120075047D01*
X198826666Y-120075047D01*
G04 #@! TO.C,RN45*
X212494666Y-116852380D02*
X212828000Y-116376190D01*
X213066095Y-116852380D02*
X213066095Y-115852380D01*
X212685142Y-115852380D01*
X212589904Y-115900000D01*
X212542285Y-115947619D01*
X212494666Y-116042857D01*
X212494666Y-116185714D01*
X212542285Y-116280952D01*
X212589904Y-116328571D01*
X212685142Y-116376190D01*
X213066095Y-116376190D01*
X212066095Y-116852380D02*
X212066095Y-115852380D01*
X211494666Y-116852380D01*
X211494666Y-115852380D01*
X210589904Y-116185714D02*
X210589904Y-116852380D01*
X210828000Y-115804761D02*
X211066095Y-116519047D01*
X210447047Y-116519047D01*
X209589904Y-115852380D02*
X210066095Y-115852380D01*
X210113714Y-116328571D01*
X210066095Y-116280952D01*
X209970857Y-116233333D01*
X209732761Y-116233333D01*
X209637523Y-116280952D01*
X209589904Y-116328571D01*
X209542285Y-116423809D01*
X209542285Y-116661904D01*
X209589904Y-116757142D01*
X209637523Y-116804761D01*
X209732761Y-116852380D01*
X209970857Y-116852380D01*
X210066095Y-116804761D01*
X210113714Y-116757142D01*
G04 #@! TO.C,RN48*
X118376380Y-34393333D02*
X117900190Y-34060000D01*
X118376380Y-33821904D02*
X117376380Y-33821904D01*
X117376380Y-34202857D01*
X117424000Y-34298095D01*
X117471619Y-34345714D01*
X117566857Y-34393333D01*
X117709714Y-34393333D01*
X117804952Y-34345714D01*
X117852571Y-34298095D01*
X117900190Y-34202857D01*
X117900190Y-33821904D01*
X118376380Y-34821904D02*
X117376380Y-34821904D01*
X118376380Y-35393333D01*
X117376380Y-35393333D01*
X117709714Y-36298095D02*
X118376380Y-36298095D01*
X117328761Y-36060000D02*
X118043047Y-35821904D01*
X118043047Y-36440952D01*
X117804952Y-36964761D02*
X117757333Y-36869523D01*
X117709714Y-36821904D01*
X117614476Y-36774285D01*
X117566857Y-36774285D01*
X117471619Y-36821904D01*
X117424000Y-36869523D01*
X117376380Y-36964761D01*
X117376380Y-37155238D01*
X117424000Y-37250476D01*
X117471619Y-37298095D01*
X117566857Y-37345714D01*
X117614476Y-37345714D01*
X117709714Y-37298095D01*
X117757333Y-37250476D01*
X117804952Y-37155238D01*
X117804952Y-36964761D01*
X117852571Y-36869523D01*
X117900190Y-36821904D01*
X117995428Y-36774285D01*
X118185904Y-36774285D01*
X118281142Y-36821904D01*
X118328761Y-36869523D01*
X118376380Y-36964761D01*
X118376380Y-37155238D01*
X118328761Y-37250476D01*
X118281142Y-37298095D01*
X118185904Y-37345714D01*
X117995428Y-37345714D01*
X117900190Y-37298095D01*
X117852571Y-37250476D01*
X117804952Y-37155238D01*
G04 #@! TO.C,RN50*
X131341666Y-34267980D02*
X131675000Y-33791790D01*
X131913095Y-34267980D02*
X131913095Y-33267980D01*
X131532142Y-33267980D01*
X131436904Y-33315600D01*
X131389285Y-33363219D01*
X131341666Y-33458457D01*
X131341666Y-33601314D01*
X131389285Y-33696552D01*
X131436904Y-33744171D01*
X131532142Y-33791790D01*
X131913095Y-33791790D01*
X130913095Y-34267980D02*
X130913095Y-33267980D01*
X130341666Y-34267980D01*
X130341666Y-33267980D01*
X129389285Y-33267980D02*
X129865476Y-33267980D01*
X129913095Y-33744171D01*
X129865476Y-33696552D01*
X129770238Y-33648933D01*
X129532142Y-33648933D01*
X129436904Y-33696552D01*
X129389285Y-33744171D01*
X129341666Y-33839409D01*
X129341666Y-34077504D01*
X129389285Y-34172742D01*
X129436904Y-34220361D01*
X129532142Y-34267980D01*
X129770238Y-34267980D01*
X129865476Y-34220361D01*
X129913095Y-34172742D01*
X128722619Y-33267980D02*
X128627380Y-33267980D01*
X128532142Y-33315600D01*
X128484523Y-33363219D01*
X128436904Y-33458457D01*
X128389285Y-33648933D01*
X128389285Y-33887028D01*
X128436904Y-34077504D01*
X128484523Y-34172742D01*
X128532142Y-34220361D01*
X128627380Y-34267980D01*
X128722619Y-34267980D01*
X128817857Y-34220361D01*
X128865476Y-34172742D01*
X128913095Y-34077504D01*
X128960714Y-33887028D01*
X128960714Y-33648933D01*
X128913095Y-33458457D01*
X128865476Y-33363219D01*
X128817857Y-33315600D01*
X128722619Y-33267980D01*
G04 #@! TO.C,RN51*
X144792380Y-34393333D02*
X144316190Y-34060000D01*
X144792380Y-33821904D02*
X143792380Y-33821904D01*
X143792380Y-34202857D01*
X143840000Y-34298095D01*
X143887619Y-34345714D01*
X143982857Y-34393333D01*
X144125714Y-34393333D01*
X144220952Y-34345714D01*
X144268571Y-34298095D01*
X144316190Y-34202857D01*
X144316190Y-33821904D01*
X144792380Y-34821904D02*
X143792380Y-34821904D01*
X144792380Y-35393333D01*
X143792380Y-35393333D01*
X143792380Y-36345714D02*
X143792380Y-35869523D01*
X144268571Y-35821904D01*
X144220952Y-35869523D01*
X144173333Y-35964761D01*
X144173333Y-36202857D01*
X144220952Y-36298095D01*
X144268571Y-36345714D01*
X144363809Y-36393333D01*
X144601904Y-36393333D01*
X144697142Y-36345714D01*
X144744761Y-36298095D01*
X144792380Y-36202857D01*
X144792380Y-35964761D01*
X144744761Y-35869523D01*
X144697142Y-35821904D01*
X144792380Y-37345714D02*
X144792380Y-36774285D01*
X144792380Y-37060000D02*
X143792380Y-37060000D01*
X143935238Y-36964761D01*
X144030476Y-36869523D01*
X144078095Y-36774285D01*
G04 #@! TO.C,RN54*
X171208380Y-34393333D02*
X170732190Y-34060000D01*
X171208380Y-33821904D02*
X170208380Y-33821904D01*
X170208380Y-34202857D01*
X170256000Y-34298095D01*
X170303619Y-34345714D01*
X170398857Y-34393333D01*
X170541714Y-34393333D01*
X170636952Y-34345714D01*
X170684571Y-34298095D01*
X170732190Y-34202857D01*
X170732190Y-33821904D01*
X171208380Y-34821904D02*
X170208380Y-34821904D01*
X171208380Y-35393333D01*
X170208380Y-35393333D01*
X170208380Y-36345714D02*
X170208380Y-35869523D01*
X170684571Y-35821904D01*
X170636952Y-35869523D01*
X170589333Y-35964761D01*
X170589333Y-36202857D01*
X170636952Y-36298095D01*
X170684571Y-36345714D01*
X170779809Y-36393333D01*
X171017904Y-36393333D01*
X171113142Y-36345714D01*
X171160761Y-36298095D01*
X171208380Y-36202857D01*
X171208380Y-35964761D01*
X171160761Y-35869523D01*
X171113142Y-35821904D01*
X170541714Y-37250476D02*
X171208380Y-37250476D01*
X170160761Y-37012380D02*
X170875047Y-36774285D01*
X170875047Y-37393333D01*
G04 #@! TO.C,RN55*
X212494666Y-51320380D02*
X212828000Y-50844190D01*
X213066095Y-51320380D02*
X213066095Y-50320380D01*
X212685142Y-50320380D01*
X212589904Y-50368000D01*
X212542285Y-50415619D01*
X212494666Y-50510857D01*
X212494666Y-50653714D01*
X212542285Y-50748952D01*
X212589904Y-50796571D01*
X212685142Y-50844190D01*
X213066095Y-50844190D01*
X212066095Y-51320380D02*
X212066095Y-50320380D01*
X211494666Y-51320380D01*
X211494666Y-50320380D01*
X210542285Y-50320380D02*
X211018476Y-50320380D01*
X211066095Y-50796571D01*
X211018476Y-50748952D01*
X210923238Y-50701333D01*
X210685142Y-50701333D01*
X210589904Y-50748952D01*
X210542285Y-50796571D01*
X210494666Y-50891809D01*
X210494666Y-51129904D01*
X210542285Y-51225142D01*
X210589904Y-51272761D01*
X210685142Y-51320380D01*
X210923238Y-51320380D01*
X211018476Y-51272761D01*
X211066095Y-51225142D01*
X209589904Y-50320380D02*
X210066095Y-50320380D01*
X210113714Y-50796571D01*
X210066095Y-50748952D01*
X209970857Y-50701333D01*
X209732761Y-50701333D01*
X209637523Y-50748952D01*
X209589904Y-50796571D01*
X209542285Y-50891809D01*
X209542285Y-51129904D01*
X209589904Y-51225142D01*
X209637523Y-51272761D01*
X209732761Y-51320380D01*
X209970857Y-51320380D01*
X210066095Y-51272761D01*
X210113714Y-51225142D01*
G04 #@! TO.C,RN56*
X201826666Y-47256380D02*
X202160000Y-46780190D01*
X202398095Y-47256380D02*
X202398095Y-46256380D01*
X202017142Y-46256380D01*
X201921904Y-46304000D01*
X201874285Y-46351619D01*
X201826666Y-46446857D01*
X201826666Y-46589714D01*
X201874285Y-46684952D01*
X201921904Y-46732571D01*
X202017142Y-46780190D01*
X202398095Y-46780190D01*
X201398095Y-47256380D02*
X201398095Y-46256380D01*
X200826666Y-47256380D01*
X200826666Y-46256380D01*
X199874285Y-46256380D02*
X200350476Y-46256380D01*
X200398095Y-46732571D01*
X200350476Y-46684952D01*
X200255238Y-46637333D01*
X200017142Y-46637333D01*
X199921904Y-46684952D01*
X199874285Y-46732571D01*
X199826666Y-46827809D01*
X199826666Y-47065904D01*
X199874285Y-47161142D01*
X199921904Y-47208761D01*
X200017142Y-47256380D01*
X200255238Y-47256380D01*
X200350476Y-47208761D01*
X200398095Y-47161142D01*
X198969523Y-46256380D02*
X199160000Y-46256380D01*
X199255238Y-46304000D01*
X199302857Y-46351619D01*
X199398095Y-46494476D01*
X199445714Y-46684952D01*
X199445714Y-47065904D01*
X199398095Y-47161142D01*
X199350476Y-47208761D01*
X199255238Y-47256380D01*
X199064761Y-47256380D01*
X198969523Y-47208761D01*
X198921904Y-47161142D01*
X198874285Y-47065904D01*
X198874285Y-46827809D01*
X198921904Y-46732571D01*
X198969523Y-46684952D01*
X199064761Y-46637333D01*
X199255238Y-46637333D01*
X199350476Y-46684952D01*
X199398095Y-46732571D01*
X199445714Y-46827809D01*
G04 #@! TO.C,RN57*
X212494666Y-43700380D02*
X212828000Y-43224190D01*
X213066095Y-43700380D02*
X213066095Y-42700380D01*
X212685142Y-42700380D01*
X212589904Y-42748000D01*
X212542285Y-42795619D01*
X212494666Y-42890857D01*
X212494666Y-43033714D01*
X212542285Y-43128952D01*
X212589904Y-43176571D01*
X212685142Y-43224190D01*
X213066095Y-43224190D01*
X212066095Y-43700380D02*
X212066095Y-42700380D01*
X211494666Y-43700380D01*
X211494666Y-42700380D01*
X210542285Y-42700380D02*
X211018476Y-42700380D01*
X211066095Y-43176571D01*
X211018476Y-43128952D01*
X210923238Y-43081333D01*
X210685142Y-43081333D01*
X210589904Y-43128952D01*
X210542285Y-43176571D01*
X210494666Y-43271809D01*
X210494666Y-43509904D01*
X210542285Y-43605142D01*
X210589904Y-43652761D01*
X210685142Y-43700380D01*
X210923238Y-43700380D01*
X211018476Y-43652761D01*
X211066095Y-43605142D01*
X210161333Y-42700380D02*
X209494666Y-42700380D01*
X209923238Y-43700380D01*
G04 #@! TD*
M02*
