G04 #@! TF.GenerationSoftware,KiCad,Pcbnew,(5.0.0-rc2-35-gda6600525)*
G04 #@! TF.CreationDate,2018-05-30T11:44:02-07:00*
G04 #@! TF.ProjectId,ram-based-register-card,72616D2D62617365642D726567697374,rev?*
G04 #@! TF.SameCoordinates,Original*
G04 #@! TF.FileFunction,Soldermask,Top*
G04 #@! TF.FilePolarity,Negative*
%FSLAX46Y46*%
G04 Gerber Fmt 4.6, Leading zero omitted, Abs format (unit mm)*
G04 Created by KiCad (PCBNEW (5.0.0-rc2-35-gda6600525)) date 05/30/18 11:44:02*
%MOMM*%
%LPD*%
G01*
G04 APERTURE LIST*
%ADD10R,0.700000X4.400000*%
%ADD11R,1.500000X0.300000*%
%ADD12R,0.300000X1.500000*%
%ADD13R,0.750000X0.800000*%
%ADD14R,0.800000X0.750000*%
G04 APERTURE END LIST*
D10*
G04 #@! TO.C,P1*
X61950601Y-79689801D03*
X62950601Y-79689801D03*
X63950601Y-79689801D03*
X64950601Y-79689801D03*
X65950601Y-79689801D03*
X66950601Y-79689801D03*
X67950601Y-79689801D03*
X68950601Y-79689801D03*
X69950601Y-79689801D03*
X70950601Y-79689801D03*
X71950601Y-79689801D03*
X74950601Y-79689801D03*
X75950601Y-79689801D03*
X76950601Y-79689801D03*
X77950601Y-79689801D03*
X78950601Y-79689801D03*
X79950601Y-79689801D03*
X80950601Y-79689801D03*
X81950601Y-79689801D03*
X82950601Y-79689801D03*
X83950601Y-79689801D03*
X84950601Y-79689801D03*
X85950601Y-79689801D03*
X86950601Y-79689801D03*
X87950601Y-79689801D03*
X88950601Y-79689801D03*
X89950601Y-79689801D03*
X90950601Y-79689801D03*
X91950601Y-79689801D03*
X92950601Y-79689801D03*
X93950601Y-79689801D03*
X94950601Y-79689801D03*
X95950601Y-79689801D03*
X96950601Y-79689801D03*
X97950601Y-79689801D03*
X98950601Y-79689801D03*
X99950601Y-79689801D03*
X100950601Y-79689801D03*
X101950601Y-79689801D03*
X102950601Y-79689801D03*
X103950601Y-79689801D03*
X104950601Y-79689801D03*
X105950601Y-79689801D03*
X106950601Y-79689801D03*
X107950601Y-79689801D03*
X108950601Y-79689801D03*
X109950601Y-79689801D03*
X110950601Y-79689801D03*
X111950601Y-79689801D03*
X121950601Y-79689801D03*
X134950601Y-79689801D03*
X122950601Y-79689801D03*
X123950601Y-79689801D03*
X124950601Y-79689801D03*
X125950601Y-79689801D03*
X126950601Y-79689801D03*
X127950601Y-79689801D03*
X128950601Y-79689801D03*
X129950601Y-79689801D03*
X130950601Y-79689801D03*
X131950601Y-79689801D03*
X135950601Y-79689801D03*
X136950601Y-79689801D03*
X137950601Y-79689801D03*
X138950601Y-79689801D03*
X139950601Y-79689801D03*
X140950601Y-79689801D03*
X141950601Y-79689801D03*
X142950601Y-79689801D03*
X143950601Y-79689801D03*
X144950601Y-79689801D03*
X145950601Y-79689801D03*
X146950601Y-79689801D03*
X147950601Y-79689801D03*
X148950601Y-79689801D03*
X149950601Y-79689801D03*
X150950601Y-79689801D03*
X151950601Y-79689801D03*
X152950601Y-79689801D03*
X153950601Y-79689801D03*
X154950601Y-79689801D03*
X155950601Y-79689801D03*
X156950601Y-79689801D03*
X157950601Y-79689801D03*
X158950601Y-79689801D03*
X159950601Y-79689801D03*
X160950601Y-79689801D03*
X161950601Y-79689801D03*
X162950601Y-79689801D03*
X163950601Y-79689801D03*
X164950601Y-79689801D03*
X165950601Y-79689801D03*
X166950601Y-79689801D03*
X167950601Y-79689801D03*
X168950601Y-79689801D03*
X169950601Y-79689801D03*
X170950601Y-79689801D03*
X171950601Y-79689801D03*
G04 #@! TD*
D11*
G04 #@! TO.C,U1*
X73406000Y-61292000D03*
X73406000Y-60792000D03*
X73406000Y-60292000D03*
X73406000Y-59792000D03*
X73406000Y-59292000D03*
X73406000Y-58792000D03*
X73406000Y-58292000D03*
X73406000Y-57792000D03*
X73406000Y-57292000D03*
X73406000Y-56792000D03*
X73406000Y-56292000D03*
X73406000Y-55792000D03*
X73406000Y-55292000D03*
X73406000Y-54792000D03*
X73406000Y-54292000D03*
X73406000Y-53792000D03*
X73406000Y-53292000D03*
X73406000Y-52792000D03*
X73406000Y-52292000D03*
X73406000Y-51792000D03*
X73406000Y-51292000D03*
X73406000Y-50792000D03*
X73406000Y-50292000D03*
X73406000Y-49792000D03*
X73406000Y-49292000D03*
D12*
X75106000Y-47592000D03*
X75606000Y-47592000D03*
X76106000Y-47592000D03*
X76606000Y-47592000D03*
X77106000Y-47592000D03*
X77606000Y-47592000D03*
X78106000Y-47592000D03*
X78606000Y-47592000D03*
X79106000Y-47592000D03*
X79606000Y-47592000D03*
X80106000Y-47592000D03*
X80606000Y-47592000D03*
X81106000Y-47592000D03*
X81606000Y-47592000D03*
X82106000Y-47592000D03*
X82606000Y-47592000D03*
X83106000Y-47592000D03*
X83606000Y-47592000D03*
X84106000Y-47592000D03*
X84606000Y-47592000D03*
X85106000Y-47592000D03*
X85606000Y-47592000D03*
X86106000Y-47592000D03*
X86606000Y-47592000D03*
X87106000Y-47592000D03*
D11*
X88806000Y-49292000D03*
X88806000Y-49792000D03*
X88806000Y-50292000D03*
X88806000Y-50792000D03*
X88806000Y-51292000D03*
X88806000Y-51792000D03*
X88806000Y-52292000D03*
X88806000Y-52792000D03*
X88806000Y-53292000D03*
X88806000Y-53792000D03*
X88806000Y-54292000D03*
X88806000Y-54792000D03*
X88806000Y-55292000D03*
X88806000Y-55792000D03*
X88806000Y-56292000D03*
X88806000Y-56792000D03*
X88806000Y-57292000D03*
X88806000Y-57792000D03*
X88806000Y-58292000D03*
X88806000Y-58792000D03*
X88806000Y-59292000D03*
X88806000Y-59792000D03*
X88806000Y-60292000D03*
X88806000Y-60792000D03*
X88806000Y-61292000D03*
D12*
X87106000Y-62992000D03*
X86606000Y-62992000D03*
X86106000Y-62992000D03*
X85606000Y-62992000D03*
X85106000Y-62992000D03*
X84606000Y-62992000D03*
X84106000Y-62992000D03*
X83606000Y-62992000D03*
X83106000Y-62992000D03*
X82606000Y-62992000D03*
X82106000Y-62992000D03*
X81606000Y-62992000D03*
X81106000Y-62992000D03*
X80606000Y-62992000D03*
X80106000Y-62992000D03*
X79606000Y-62992000D03*
X79106000Y-62992000D03*
X78606000Y-62992000D03*
X78106000Y-62992000D03*
X77606000Y-62992000D03*
X77106000Y-62992000D03*
X76606000Y-62992000D03*
X76106000Y-62992000D03*
X75606000Y-62992000D03*
X75106000Y-62992000D03*
G04 #@! TD*
G04 #@! TO.C,U2*
X134350000Y-63150000D03*
X134850000Y-63150000D03*
X135350000Y-63150000D03*
X135850000Y-63150000D03*
X136350000Y-63150000D03*
X136850000Y-63150000D03*
X137350000Y-63150000D03*
X137850000Y-63150000D03*
X138350000Y-63150000D03*
X138850000Y-63150000D03*
X139350000Y-63150000D03*
X139850000Y-63150000D03*
X140350000Y-63150000D03*
X140850000Y-63150000D03*
X141350000Y-63150000D03*
X141850000Y-63150000D03*
X142350000Y-63150000D03*
X142850000Y-63150000D03*
X143350000Y-63150000D03*
X143850000Y-63150000D03*
X144350000Y-63150000D03*
X144850000Y-63150000D03*
X145350000Y-63150000D03*
X145850000Y-63150000D03*
X146350000Y-63150000D03*
D11*
X148050000Y-61450000D03*
X148050000Y-60950000D03*
X148050000Y-60450000D03*
X148050000Y-59950000D03*
X148050000Y-59450000D03*
X148050000Y-58950000D03*
X148050000Y-58450000D03*
X148050000Y-57950000D03*
X148050000Y-57450000D03*
X148050000Y-56950000D03*
X148050000Y-56450000D03*
X148050000Y-55950000D03*
X148050000Y-55450000D03*
X148050000Y-54950000D03*
X148050000Y-54450000D03*
X148050000Y-53950000D03*
X148050000Y-53450000D03*
X148050000Y-52950000D03*
X148050000Y-52450000D03*
X148050000Y-51950000D03*
X148050000Y-51450000D03*
X148050000Y-50950000D03*
X148050000Y-50450000D03*
X148050000Y-49950000D03*
X148050000Y-49450000D03*
D12*
X146350000Y-47750000D03*
X145850000Y-47750000D03*
X145350000Y-47750000D03*
X144850000Y-47750000D03*
X144350000Y-47750000D03*
X143850000Y-47750000D03*
X143350000Y-47750000D03*
X142850000Y-47750000D03*
X142350000Y-47750000D03*
X141850000Y-47750000D03*
X141350000Y-47750000D03*
X140850000Y-47750000D03*
X140350000Y-47750000D03*
X139850000Y-47750000D03*
X139350000Y-47750000D03*
X138850000Y-47750000D03*
X138350000Y-47750000D03*
X137850000Y-47750000D03*
X137350000Y-47750000D03*
X136850000Y-47750000D03*
X136350000Y-47750000D03*
X135850000Y-47750000D03*
X135350000Y-47750000D03*
X134850000Y-47750000D03*
X134350000Y-47750000D03*
D11*
X132650000Y-49450000D03*
X132650000Y-49950000D03*
X132650000Y-50450000D03*
X132650000Y-50950000D03*
X132650000Y-51450000D03*
X132650000Y-51950000D03*
X132650000Y-52450000D03*
X132650000Y-52950000D03*
X132650000Y-53450000D03*
X132650000Y-53950000D03*
X132650000Y-54450000D03*
X132650000Y-54950000D03*
X132650000Y-55450000D03*
X132650000Y-55950000D03*
X132650000Y-56450000D03*
X132650000Y-56950000D03*
X132650000Y-57450000D03*
X132650000Y-57950000D03*
X132650000Y-58450000D03*
X132650000Y-58950000D03*
X132650000Y-59450000D03*
X132650000Y-59950000D03*
X132650000Y-60450000D03*
X132650000Y-60950000D03*
X132650000Y-61450000D03*
G04 #@! TD*
D13*
G04 #@! TO.C,C1*
X80619600Y-66600200D03*
X80619600Y-65100200D03*
G04 #@! TD*
G04 #@! TO.C,C2*
X83108800Y-65100200D03*
X83108800Y-66600200D03*
G04 #@! TD*
D14*
G04 #@! TO.C,C3*
X69543800Y-55295800D03*
X71043800Y-55295800D03*
G04 #@! TD*
D13*
G04 #@! TO.C,C4*
X140200000Y-65740000D03*
X140200000Y-67240000D03*
G04 #@! TD*
G04 #@! TO.C,C5*
X142680000Y-67260000D03*
X142680000Y-65760000D03*
G04 #@! TD*
D14*
G04 #@! TO.C,C6*
X130210000Y-55030000D03*
X128710000Y-55030000D03*
G04 #@! TD*
M02*
