G04 #@! TF.GenerationSoftware,KiCad,Pcbnew,(5.0.0-rc2-35-gda6600525)*
G04 #@! TF.CreationDate,2018-05-30T11:44:02-07:00*
G04 #@! TF.ProjectId,ram-based-register-card,72616D2D62617365642D726567697374,rev?*
G04 #@! TF.SameCoordinates,Original*
G04 #@! TF.FileFunction,Legend,Top*
G04 #@! TF.FilePolarity,Positive*
%FSLAX46Y46*%
G04 Gerber Fmt 4.6, Leading zero omitted, Abs format (unit mm)*
G04 Created by KiCad (PCBNEW (5.0.0-rc2-35-gda6600525)) date 05/30/18 11:44:02*
%MOMM*%
%LPD*%
G01*
G04 APERTURE LIST*
%ADD10C,0.200000*%
%ADD11C,0.175000*%
%ADD12C,0.300000*%
%ADD13C,0.150000*%
%ADD14C,0.120000*%
%ADD15C,0.010000*%
G04 APERTURE END LIST*
D10*
X178782380Y-64731428D02*
X178306190Y-65064761D01*
X178782380Y-65302857D02*
X177782380Y-65302857D01*
X177782380Y-64921904D01*
X177830000Y-64826666D01*
X177877619Y-64779047D01*
X177972857Y-64731428D01*
X178115714Y-64731428D01*
X178210952Y-64779047D01*
X178258571Y-64826666D01*
X178306190Y-64921904D01*
X178306190Y-65302857D01*
X178258571Y-64302857D02*
X178258571Y-63969523D01*
X178782380Y-63826666D02*
X178782380Y-64302857D01*
X177782380Y-64302857D01*
X177782380Y-63826666D01*
X177782380Y-63540952D02*
X178782380Y-63207619D01*
X177782380Y-62874285D01*
X178496666Y-61826666D02*
X178496666Y-61350476D01*
X178782380Y-61921904D02*
X177782380Y-61588571D01*
X178782380Y-61255238D01*
X177877619Y-58683809D02*
X177830000Y-58636190D01*
X177782380Y-58540952D01*
X177782380Y-58302857D01*
X177830000Y-58207619D01*
X177877619Y-58160000D01*
X177972857Y-58112380D01*
X178068095Y-58112380D01*
X178210952Y-58160000D01*
X178782380Y-58731428D01*
X178782380Y-58112380D01*
X177782380Y-57493333D02*
X177782380Y-57398095D01*
X177830000Y-57302857D01*
X177877619Y-57255238D01*
X177972857Y-57207619D01*
X178163333Y-57160000D01*
X178401428Y-57160000D01*
X178591904Y-57207619D01*
X178687142Y-57255238D01*
X178734761Y-57302857D01*
X178782380Y-57398095D01*
X178782380Y-57493333D01*
X178734761Y-57588571D01*
X178687142Y-57636190D01*
X178591904Y-57683809D01*
X178401428Y-57731428D01*
X178163333Y-57731428D01*
X177972857Y-57683809D01*
X177877619Y-57636190D01*
X177830000Y-57588571D01*
X177782380Y-57493333D01*
X178782380Y-56207619D02*
X178782380Y-56779047D01*
X178782380Y-56493333D02*
X177782380Y-56493333D01*
X177925238Y-56588571D01*
X178020476Y-56683809D01*
X178068095Y-56779047D01*
X178210952Y-55636190D02*
X178163333Y-55731428D01*
X178115714Y-55779047D01*
X178020476Y-55826666D01*
X177972857Y-55826666D01*
X177877619Y-55779047D01*
X177830000Y-55731428D01*
X177782380Y-55636190D01*
X177782380Y-55445714D01*
X177830000Y-55350476D01*
X177877619Y-55302857D01*
X177972857Y-55255238D01*
X178020476Y-55255238D01*
X178115714Y-55302857D01*
X178163333Y-55350476D01*
X178210952Y-55445714D01*
X178210952Y-55636190D01*
X178258571Y-55731428D01*
X178306190Y-55779047D01*
X178401428Y-55826666D01*
X178591904Y-55826666D01*
X178687142Y-55779047D01*
X178734761Y-55731428D01*
X178782380Y-55636190D01*
X178782380Y-55445714D01*
X178734761Y-55350476D01*
X178687142Y-55302857D01*
X178591904Y-55255238D01*
X178401428Y-55255238D01*
X178306190Y-55302857D01*
X178258571Y-55350476D01*
X178210952Y-55445714D01*
X178782380Y-54064761D02*
X177782380Y-54064761D01*
X178496666Y-53731428D01*
X177782380Y-53398095D01*
X178782380Y-53398095D01*
X178496666Y-52969523D02*
X178496666Y-52493333D01*
X178782380Y-53064761D02*
X177782380Y-52731428D01*
X178782380Y-52398095D01*
X178306190Y-51874285D02*
X178782380Y-51874285D01*
X177782380Y-52207619D02*
X178306190Y-51874285D01*
X177782380Y-51540952D01*
X177782380Y-50540952D02*
X177782380Y-49921904D01*
X178163333Y-50255238D01*
X178163333Y-50112380D01*
X178210952Y-50017142D01*
X178258571Y-49969523D01*
X178353809Y-49921904D01*
X178591904Y-49921904D01*
X178687142Y-49969523D01*
X178734761Y-50017142D01*
X178782380Y-50112380D01*
X178782380Y-50398095D01*
X178734761Y-50493333D01*
X178687142Y-50540952D01*
X177782380Y-49302857D02*
X177782380Y-49207619D01*
X177830000Y-49112380D01*
X177877619Y-49064761D01*
X177972857Y-49017142D01*
X178163333Y-48969523D01*
X178401428Y-48969523D01*
X178591904Y-49017142D01*
X178687142Y-49064761D01*
X178734761Y-49112380D01*
X178782380Y-49207619D01*
X178782380Y-49302857D01*
X178734761Y-49398095D01*
X178687142Y-49445714D01*
X178591904Y-49493333D01*
X178401428Y-49540952D01*
X178163333Y-49540952D01*
X177972857Y-49493333D01*
X177877619Y-49445714D01*
X177830000Y-49398095D01*
X177782380Y-49302857D01*
D11*
X169197500Y-67033333D02*
X169764166Y-67033333D01*
X169830833Y-67066666D01*
X169864166Y-67100000D01*
X169897500Y-67166666D01*
X169897500Y-67266666D01*
X169864166Y-67333333D01*
X169630833Y-67033333D02*
X169664166Y-67100000D01*
X169664166Y-67233333D01*
X169630833Y-67300000D01*
X169597500Y-67333333D01*
X169530833Y-67366666D01*
X169330833Y-67366666D01*
X169264166Y-67333333D01*
X169230833Y-67300000D01*
X169197500Y-67233333D01*
X169197500Y-67100000D01*
X169230833Y-67033333D01*
X169664166Y-66700000D02*
X169197500Y-66700000D01*
X168964166Y-66700000D02*
X168997500Y-66733333D01*
X169030833Y-66700000D01*
X168997500Y-66666666D01*
X168964166Y-66700000D01*
X169030833Y-66700000D01*
X169197500Y-66466666D02*
X169197500Y-66200000D01*
X168964166Y-66366666D02*
X169564166Y-66366666D01*
X169630833Y-66333333D01*
X169664166Y-66266666D01*
X169664166Y-66200000D01*
X169664166Y-65966666D02*
X168964166Y-65966666D01*
X169664166Y-65666666D02*
X169297500Y-65666666D01*
X169230833Y-65700000D01*
X169197500Y-65766666D01*
X169197500Y-65866666D01*
X169230833Y-65933333D01*
X169264166Y-65966666D01*
X169197500Y-65033333D02*
X169664166Y-65033333D01*
X169197500Y-65333333D02*
X169564166Y-65333333D01*
X169630833Y-65300000D01*
X169664166Y-65233333D01*
X169664166Y-65133333D01*
X169630833Y-65066666D01*
X169597500Y-65033333D01*
X169664166Y-64700000D02*
X168964166Y-64700000D01*
X169230833Y-64700000D02*
X169197500Y-64633333D01*
X169197500Y-64500000D01*
X169230833Y-64433333D01*
X169264166Y-64400000D01*
X169330833Y-64366666D01*
X169530833Y-64366666D01*
X169597500Y-64400000D01*
X169630833Y-64433333D01*
X169664166Y-64500000D01*
X169664166Y-64633333D01*
X169630833Y-64700000D01*
X169597500Y-64066666D02*
X169630833Y-64033333D01*
X169664166Y-64066666D01*
X169630833Y-64100000D01*
X169597500Y-64066666D01*
X169664166Y-64066666D01*
X169630833Y-63433333D02*
X169664166Y-63500000D01*
X169664166Y-63633333D01*
X169630833Y-63700000D01*
X169597500Y-63733333D01*
X169530833Y-63766666D01*
X169330833Y-63766666D01*
X169264166Y-63733333D01*
X169230833Y-63700000D01*
X169197500Y-63633333D01*
X169197500Y-63500000D01*
X169230833Y-63433333D01*
X169664166Y-63033333D02*
X169630833Y-63100000D01*
X169597500Y-63133333D01*
X169530833Y-63166666D01*
X169330833Y-63166666D01*
X169264166Y-63133333D01*
X169230833Y-63100000D01*
X169197500Y-63033333D01*
X169197500Y-62933333D01*
X169230833Y-62866666D01*
X169264166Y-62833333D01*
X169330833Y-62800000D01*
X169530833Y-62800000D01*
X169597500Y-62833333D01*
X169630833Y-62866666D01*
X169664166Y-62933333D01*
X169664166Y-63033333D01*
X169664166Y-62500000D02*
X169197500Y-62500000D01*
X169264166Y-62500000D02*
X169230833Y-62466666D01*
X169197500Y-62400000D01*
X169197500Y-62300000D01*
X169230833Y-62233333D01*
X169297500Y-62200000D01*
X169664166Y-62200000D01*
X169297500Y-62200000D02*
X169230833Y-62166666D01*
X169197500Y-62100000D01*
X169197500Y-62000000D01*
X169230833Y-61933333D01*
X169297500Y-61900000D01*
X169664166Y-61900000D01*
X168930833Y-61066666D02*
X169830833Y-61666666D01*
X169664166Y-60433333D02*
X169330833Y-60666666D01*
X169664166Y-60833333D02*
X168964166Y-60833333D01*
X168964166Y-60566666D01*
X168997500Y-60500000D01*
X169030833Y-60466666D01*
X169097500Y-60433333D01*
X169197500Y-60433333D01*
X169264166Y-60466666D01*
X169297500Y-60500000D01*
X169330833Y-60566666D01*
X169330833Y-60833333D01*
X169664166Y-60033333D02*
X169630833Y-60100000D01*
X169597500Y-60133333D01*
X169530833Y-60166666D01*
X169330833Y-60166666D01*
X169264166Y-60133333D01*
X169230833Y-60100000D01*
X169197500Y-60033333D01*
X169197500Y-59933333D01*
X169230833Y-59866666D01*
X169264166Y-59833333D01*
X169330833Y-59800000D01*
X169530833Y-59800000D01*
X169597500Y-59833333D01*
X169630833Y-59866666D01*
X169664166Y-59933333D01*
X169664166Y-60033333D01*
X169664166Y-59500000D02*
X168964166Y-59500000D01*
X169230833Y-59500000D02*
X169197500Y-59433333D01*
X169197500Y-59300000D01*
X169230833Y-59233333D01*
X169264166Y-59200000D01*
X169330833Y-59166666D01*
X169530833Y-59166666D01*
X169597500Y-59200000D01*
X169630833Y-59233333D01*
X169664166Y-59300000D01*
X169664166Y-59433333D01*
X169630833Y-59500000D01*
X169630833Y-58600000D02*
X169664166Y-58666666D01*
X169664166Y-58800000D01*
X169630833Y-58866666D01*
X169564166Y-58900000D01*
X169297500Y-58900000D01*
X169230833Y-58866666D01*
X169197500Y-58800000D01*
X169197500Y-58666666D01*
X169230833Y-58600000D01*
X169297500Y-58566666D01*
X169364166Y-58566666D01*
X169430833Y-58900000D01*
X169664166Y-58266666D02*
X169197500Y-58266666D01*
X169330833Y-58266666D02*
X169264166Y-58233333D01*
X169230833Y-58200000D01*
X169197500Y-58133333D01*
X169197500Y-58066666D01*
X169197500Y-57933333D02*
X169197500Y-57666666D01*
X168964166Y-57833333D02*
X169564166Y-57833333D01*
X169630833Y-57800000D01*
X169664166Y-57733333D01*
X169664166Y-57666666D01*
X169297500Y-57200000D02*
X169330833Y-57100000D01*
X169364166Y-57066666D01*
X169430833Y-57033333D01*
X169530833Y-57033333D01*
X169597500Y-57066666D01*
X169630833Y-57100000D01*
X169664166Y-57166666D01*
X169664166Y-57433333D01*
X168964166Y-57433333D01*
X168964166Y-57200000D01*
X168997500Y-57133333D01*
X169030833Y-57100000D01*
X169097500Y-57066666D01*
X169164166Y-57066666D01*
X169230833Y-57100000D01*
X169264166Y-57133333D01*
X169297500Y-57200000D01*
X169297500Y-57433333D01*
X169664166Y-56433333D02*
X169297500Y-56433333D01*
X169230833Y-56466666D01*
X169197500Y-56533333D01*
X169197500Y-56666666D01*
X169230833Y-56733333D01*
X169630833Y-56433333D02*
X169664166Y-56500000D01*
X169664166Y-56666666D01*
X169630833Y-56733333D01*
X169564166Y-56766666D01*
X169497500Y-56766666D01*
X169430833Y-56733333D01*
X169397500Y-56666666D01*
X169397500Y-56500000D01*
X169364166Y-56433333D01*
X169664166Y-56100000D02*
X169197500Y-56100000D01*
X169330833Y-56100000D02*
X169264166Y-56066666D01*
X169230833Y-56033333D01*
X169197500Y-55966666D01*
X169197500Y-55900000D01*
X169197500Y-55366666D02*
X169664166Y-55366666D01*
X169197500Y-55666666D02*
X169564166Y-55666666D01*
X169630833Y-55633333D01*
X169664166Y-55566666D01*
X169664166Y-55466666D01*
X169630833Y-55400000D01*
X169597500Y-55366666D01*
X169630833Y-54733333D02*
X169664166Y-54800000D01*
X169664166Y-54933333D01*
X169630833Y-55000000D01*
X169597500Y-55033333D01*
X169530833Y-55066666D01*
X169330833Y-55066666D01*
X169264166Y-55033333D01*
X169230833Y-55000000D01*
X169197500Y-54933333D01*
X169197500Y-54800000D01*
X169230833Y-54733333D01*
X169664166Y-54433333D02*
X168964166Y-54433333D01*
X169664166Y-54133333D02*
X169297500Y-54133333D01*
X169230833Y-54166666D01*
X169197500Y-54233333D01*
X169197500Y-54333333D01*
X169230833Y-54400000D01*
X169264166Y-54433333D01*
X168930833Y-53300000D02*
X169830833Y-53900000D01*
X169664166Y-52966666D02*
X169630833Y-53033333D01*
X169564166Y-53066666D01*
X168964166Y-53066666D01*
X169664166Y-52700000D02*
X169197500Y-52700000D01*
X169264166Y-52700000D02*
X169230833Y-52666666D01*
X169197500Y-52600000D01*
X169197500Y-52500000D01*
X169230833Y-52433333D01*
X169297500Y-52400000D01*
X169664166Y-52400000D01*
X169297500Y-52400000D02*
X169230833Y-52366666D01*
X169197500Y-52300000D01*
X169197500Y-52200000D01*
X169230833Y-52133333D01*
X169297500Y-52100000D01*
X169664166Y-52100000D01*
X169664166Y-51466666D02*
X169297500Y-51466666D01*
X169230833Y-51500000D01*
X169197500Y-51566666D01*
X169197500Y-51700000D01*
X169230833Y-51766666D01*
X169630833Y-51466666D02*
X169664166Y-51533333D01*
X169664166Y-51700000D01*
X169630833Y-51766666D01*
X169564166Y-51800000D01*
X169497500Y-51800000D01*
X169430833Y-51766666D01*
X169397500Y-51700000D01*
X169397500Y-51533333D01*
X169364166Y-51466666D01*
X169664166Y-51133333D02*
X169197500Y-51133333D01*
X169330833Y-51133333D02*
X169264166Y-51100000D01*
X169230833Y-51066666D01*
X169197500Y-51000000D01*
X169197500Y-50933333D01*
X169197500Y-50766666D02*
X169664166Y-50600000D01*
X169197500Y-50433333D01*
X168930833Y-49666666D02*
X169830833Y-50266666D01*
X170889166Y-67850000D02*
X170855833Y-67916666D01*
X170789166Y-67950000D01*
X170189166Y-67950000D01*
X170889166Y-67583333D02*
X170422500Y-67583333D01*
X170489166Y-67583333D02*
X170455833Y-67550000D01*
X170422500Y-67483333D01*
X170422500Y-67383333D01*
X170455833Y-67316666D01*
X170522500Y-67283333D01*
X170889166Y-67283333D01*
X170522500Y-67283333D02*
X170455833Y-67250000D01*
X170422500Y-67183333D01*
X170422500Y-67083333D01*
X170455833Y-67016666D01*
X170522500Y-66983333D01*
X170889166Y-66983333D01*
X170889166Y-66350000D02*
X170522500Y-66350000D01*
X170455833Y-66383333D01*
X170422500Y-66450000D01*
X170422500Y-66583333D01*
X170455833Y-66650000D01*
X170855833Y-66350000D02*
X170889166Y-66416666D01*
X170889166Y-66583333D01*
X170855833Y-66650000D01*
X170789166Y-66683333D01*
X170722500Y-66683333D01*
X170655833Y-66650000D01*
X170622500Y-66583333D01*
X170622500Y-66416666D01*
X170589166Y-66350000D01*
X170889166Y-66016666D02*
X170422500Y-66016666D01*
X170555833Y-66016666D02*
X170489166Y-65983333D01*
X170455833Y-65950000D01*
X170422500Y-65883333D01*
X170422500Y-65816666D01*
X170422500Y-65650000D02*
X170889166Y-65483333D01*
X170422500Y-65316666D01*
X170622500Y-65050000D02*
X170622500Y-64516666D01*
X170889166Y-63816666D02*
X170889166Y-64216666D01*
X170889166Y-64016666D02*
X170189166Y-64016666D01*
X170289166Y-64083333D01*
X170355833Y-64150000D01*
X170389166Y-64216666D01*
X170155833Y-63016666D02*
X171055833Y-63616666D01*
X170889166Y-62783333D02*
X170422500Y-62783333D01*
X170555833Y-62783333D02*
X170489166Y-62750000D01*
X170455833Y-62716666D01*
X170422500Y-62650000D01*
X170422500Y-62583333D01*
X170889166Y-62050000D02*
X170522500Y-62050000D01*
X170455833Y-62083333D01*
X170422500Y-62150000D01*
X170422500Y-62283333D01*
X170455833Y-62350000D01*
X170855833Y-62050000D02*
X170889166Y-62116666D01*
X170889166Y-62283333D01*
X170855833Y-62350000D01*
X170789166Y-62383333D01*
X170722500Y-62383333D01*
X170655833Y-62350000D01*
X170622500Y-62283333D01*
X170622500Y-62116666D01*
X170589166Y-62050000D01*
X170889166Y-61716666D02*
X170422500Y-61716666D01*
X170489166Y-61716666D02*
X170455833Y-61683333D01*
X170422500Y-61616666D01*
X170422500Y-61516666D01*
X170455833Y-61450000D01*
X170522500Y-61416666D01*
X170889166Y-61416666D01*
X170522500Y-61416666D02*
X170455833Y-61383333D01*
X170422500Y-61316666D01*
X170422500Y-61216666D01*
X170455833Y-61150000D01*
X170522500Y-61116666D01*
X170889166Y-61116666D01*
X170622500Y-60783333D02*
X170622500Y-60250000D01*
X170889166Y-59916666D02*
X170189166Y-59916666D01*
X170455833Y-59916666D02*
X170422500Y-59850000D01*
X170422500Y-59716666D01*
X170455833Y-59650000D01*
X170489166Y-59616666D01*
X170555833Y-59583333D01*
X170755833Y-59583333D01*
X170822500Y-59616666D01*
X170855833Y-59650000D01*
X170889166Y-59716666D01*
X170889166Y-59850000D01*
X170855833Y-59916666D01*
X170889166Y-58983333D02*
X170522500Y-58983333D01*
X170455833Y-59016666D01*
X170422500Y-59083333D01*
X170422500Y-59216666D01*
X170455833Y-59283333D01*
X170855833Y-58983333D02*
X170889166Y-59050000D01*
X170889166Y-59216666D01*
X170855833Y-59283333D01*
X170789166Y-59316666D01*
X170722500Y-59316666D01*
X170655833Y-59283333D01*
X170622500Y-59216666D01*
X170622500Y-59050000D01*
X170589166Y-58983333D01*
X170855833Y-58683333D02*
X170889166Y-58616666D01*
X170889166Y-58483333D01*
X170855833Y-58416666D01*
X170789166Y-58383333D01*
X170755833Y-58383333D01*
X170689166Y-58416666D01*
X170655833Y-58483333D01*
X170655833Y-58583333D01*
X170622500Y-58650000D01*
X170555833Y-58683333D01*
X170522500Y-58683333D01*
X170455833Y-58650000D01*
X170422500Y-58583333D01*
X170422500Y-58483333D01*
X170455833Y-58416666D01*
X170855833Y-57816666D02*
X170889166Y-57883333D01*
X170889166Y-58016666D01*
X170855833Y-58083333D01*
X170789166Y-58116666D01*
X170522500Y-58116666D01*
X170455833Y-58083333D01*
X170422500Y-58016666D01*
X170422500Y-57883333D01*
X170455833Y-57816666D01*
X170522500Y-57783333D01*
X170589166Y-57783333D01*
X170655833Y-58116666D01*
X170889166Y-57183333D02*
X170189166Y-57183333D01*
X170855833Y-57183333D02*
X170889166Y-57250000D01*
X170889166Y-57383333D01*
X170855833Y-57450000D01*
X170822500Y-57483333D01*
X170755833Y-57516666D01*
X170555833Y-57516666D01*
X170489166Y-57483333D01*
X170455833Y-57450000D01*
X170422500Y-57383333D01*
X170422500Y-57250000D01*
X170455833Y-57183333D01*
X170622500Y-56850000D02*
X170622500Y-56316666D01*
X170889166Y-55983333D02*
X170422500Y-55983333D01*
X170555833Y-55983333D02*
X170489166Y-55950000D01*
X170455833Y-55916666D01*
X170422500Y-55850000D01*
X170422500Y-55783333D01*
X170855833Y-55283333D02*
X170889166Y-55350000D01*
X170889166Y-55483333D01*
X170855833Y-55550000D01*
X170789166Y-55583333D01*
X170522500Y-55583333D01*
X170455833Y-55550000D01*
X170422500Y-55483333D01*
X170422500Y-55350000D01*
X170455833Y-55283333D01*
X170522500Y-55250000D01*
X170589166Y-55250000D01*
X170655833Y-55583333D01*
X170422500Y-54650000D02*
X170989166Y-54650000D01*
X171055833Y-54683333D01*
X171089166Y-54716666D01*
X171122500Y-54783333D01*
X171122500Y-54883333D01*
X171089166Y-54950000D01*
X170855833Y-54650000D02*
X170889166Y-54716666D01*
X170889166Y-54850000D01*
X170855833Y-54916666D01*
X170822500Y-54950000D01*
X170755833Y-54983333D01*
X170555833Y-54983333D01*
X170489166Y-54950000D01*
X170455833Y-54916666D01*
X170422500Y-54850000D01*
X170422500Y-54716666D01*
X170455833Y-54650000D01*
X170889166Y-54316666D02*
X170422500Y-54316666D01*
X170189166Y-54316666D02*
X170222500Y-54350000D01*
X170255833Y-54316666D01*
X170222500Y-54283333D01*
X170189166Y-54316666D01*
X170255833Y-54316666D01*
X170855833Y-54016666D02*
X170889166Y-53950000D01*
X170889166Y-53816666D01*
X170855833Y-53750000D01*
X170789166Y-53716666D01*
X170755833Y-53716666D01*
X170689166Y-53750000D01*
X170655833Y-53816666D01*
X170655833Y-53916666D01*
X170622500Y-53983333D01*
X170555833Y-54016666D01*
X170522500Y-54016666D01*
X170455833Y-53983333D01*
X170422500Y-53916666D01*
X170422500Y-53816666D01*
X170455833Y-53750000D01*
X170422500Y-53516666D02*
X170422500Y-53250000D01*
X170189166Y-53416666D02*
X170789166Y-53416666D01*
X170855833Y-53383333D01*
X170889166Y-53316666D01*
X170889166Y-53250000D01*
X170855833Y-52750000D02*
X170889166Y-52816666D01*
X170889166Y-52950000D01*
X170855833Y-53016666D01*
X170789166Y-53050000D01*
X170522500Y-53050000D01*
X170455833Y-53016666D01*
X170422500Y-52950000D01*
X170422500Y-52816666D01*
X170455833Y-52750000D01*
X170522500Y-52716666D01*
X170589166Y-52716666D01*
X170655833Y-53050000D01*
X170889166Y-52416666D02*
X170422500Y-52416666D01*
X170555833Y-52416666D02*
X170489166Y-52383333D01*
X170455833Y-52350000D01*
X170422500Y-52283333D01*
X170422500Y-52216666D01*
X170622500Y-51983333D02*
X170622500Y-51450000D01*
X170855833Y-50816666D02*
X170889166Y-50883333D01*
X170889166Y-51016666D01*
X170855833Y-51083333D01*
X170822500Y-51116666D01*
X170755833Y-51150000D01*
X170555833Y-51150000D01*
X170489166Y-51116666D01*
X170455833Y-51083333D01*
X170422500Y-51016666D01*
X170422500Y-50883333D01*
X170455833Y-50816666D01*
X170889166Y-50216666D02*
X170522500Y-50216666D01*
X170455833Y-50250000D01*
X170422500Y-50316666D01*
X170422500Y-50450000D01*
X170455833Y-50516666D01*
X170855833Y-50216666D02*
X170889166Y-50283333D01*
X170889166Y-50450000D01*
X170855833Y-50516666D01*
X170789166Y-50550000D01*
X170722500Y-50550000D01*
X170655833Y-50516666D01*
X170622500Y-50450000D01*
X170622500Y-50283333D01*
X170589166Y-50216666D01*
X170889166Y-49883333D02*
X170422500Y-49883333D01*
X170555833Y-49883333D02*
X170489166Y-49850000D01*
X170455833Y-49816666D01*
X170422500Y-49750000D01*
X170422500Y-49683333D01*
X170889166Y-49150000D02*
X170189166Y-49150000D01*
X170855833Y-49150000D02*
X170889166Y-49216666D01*
X170889166Y-49350000D01*
X170855833Y-49416666D01*
X170822500Y-49450000D01*
X170755833Y-49483333D01*
X170555833Y-49483333D01*
X170489166Y-49450000D01*
X170455833Y-49416666D01*
X170422500Y-49350000D01*
X170422500Y-49216666D01*
X170455833Y-49150000D01*
D12*
X176778571Y-70467142D02*
X176778571Y-71181428D01*
X175278571Y-71181428D01*
X176778571Y-69967142D02*
X175278571Y-69967142D01*
X176350000Y-69467142D01*
X175278571Y-68967142D01*
X176778571Y-68967142D01*
X176350000Y-68324285D02*
X176350000Y-67610000D01*
X176778571Y-68467142D02*
X175278571Y-67967142D01*
X176778571Y-67467142D01*
X176778571Y-66110000D02*
X176064285Y-66610000D01*
X176778571Y-66967142D02*
X175278571Y-66967142D01*
X175278571Y-66395714D01*
X175350000Y-66252857D01*
X175421428Y-66181428D01*
X175564285Y-66110000D01*
X175778571Y-66110000D01*
X175921428Y-66181428D01*
X175992857Y-66252857D01*
X176064285Y-66395714D01*
X176064285Y-66967142D01*
X175278571Y-65681428D02*
X176778571Y-65181428D01*
X175278571Y-64681428D01*
X176207142Y-64181428D02*
X176207142Y-63038571D01*
X176778571Y-61538571D02*
X176778571Y-62395714D01*
X176778571Y-61967142D02*
X175278571Y-61967142D01*
X175492857Y-62110000D01*
X175635714Y-62252857D01*
X175707142Y-62395714D01*
X176778571Y-58895714D02*
X176064285Y-59395714D01*
X176778571Y-59752857D02*
X175278571Y-59752857D01*
X175278571Y-59181428D01*
X175350000Y-59038571D01*
X175421428Y-58967142D01*
X175564285Y-58895714D01*
X175778571Y-58895714D01*
X175921428Y-58967142D01*
X175992857Y-59038571D01*
X176064285Y-59181428D01*
X176064285Y-59752857D01*
X175992857Y-58252857D02*
X175992857Y-57752857D01*
X176778571Y-57538571D02*
X176778571Y-58252857D01*
X175278571Y-58252857D01*
X175278571Y-57538571D01*
X175350000Y-56110000D02*
X175278571Y-56252857D01*
X175278571Y-56467142D01*
X175350000Y-56681428D01*
X175492857Y-56824285D01*
X175635714Y-56895714D01*
X175921428Y-56967142D01*
X176135714Y-56967142D01*
X176421428Y-56895714D01*
X176564285Y-56824285D01*
X176707142Y-56681428D01*
X176778571Y-56467142D01*
X176778571Y-56324285D01*
X176707142Y-56110000D01*
X176635714Y-56038571D01*
X176135714Y-56038571D01*
X176135714Y-56324285D01*
X176778571Y-55395714D02*
X175278571Y-55395714D01*
X176707142Y-54752857D02*
X176778571Y-54538571D01*
X176778571Y-54181428D01*
X176707142Y-54038571D01*
X176635714Y-53967142D01*
X176492857Y-53895714D01*
X176350000Y-53895714D01*
X176207142Y-53967142D01*
X176135714Y-54038571D01*
X176064285Y-54181428D01*
X175992857Y-54467142D01*
X175921428Y-54610000D01*
X175850000Y-54681428D01*
X175707142Y-54752857D01*
X175564285Y-54752857D01*
X175421428Y-54681428D01*
X175350000Y-54610000D01*
X175278571Y-54467142D01*
X175278571Y-54110000D01*
X175350000Y-53895714D01*
X175278571Y-53467142D02*
X175278571Y-52610000D01*
X176778571Y-53038571D02*
X175278571Y-53038571D01*
X175992857Y-52110000D02*
X175992857Y-51610000D01*
X176778571Y-51395714D02*
X176778571Y-52110000D01*
X175278571Y-52110000D01*
X175278571Y-51395714D01*
X176778571Y-49895714D02*
X176064285Y-50395714D01*
X176778571Y-50752857D02*
X175278571Y-50752857D01*
X175278571Y-50181428D01*
X175350000Y-50038571D01*
X175421428Y-49967142D01*
X175564285Y-49895714D01*
X175778571Y-49895714D01*
X175921428Y-49967142D01*
X175992857Y-50038571D01*
X176064285Y-50181428D01*
X176064285Y-50752857D01*
X176635714Y-47252857D02*
X176707142Y-47324285D01*
X176778571Y-47538571D01*
X176778571Y-47681428D01*
X176707142Y-47895714D01*
X176564285Y-48038571D01*
X176421428Y-48110000D01*
X176135714Y-48181428D01*
X175921428Y-48181428D01*
X175635714Y-48110000D01*
X175492857Y-48038571D01*
X175350000Y-47895714D01*
X175278571Y-47681428D01*
X175278571Y-47538571D01*
X175350000Y-47324285D01*
X175421428Y-47252857D01*
X176350000Y-46681428D02*
X176350000Y-45967142D01*
X176778571Y-46824285D02*
X175278571Y-46324285D01*
X176778571Y-45824285D01*
X176778571Y-44467142D02*
X176064285Y-44967142D01*
X176778571Y-45324285D02*
X175278571Y-45324285D01*
X175278571Y-44752857D01*
X175350000Y-44610000D01*
X175421428Y-44538571D01*
X175564285Y-44467142D01*
X175778571Y-44467142D01*
X175921428Y-44538571D01*
X175992857Y-44610000D01*
X176064285Y-44752857D01*
X176064285Y-45324285D01*
X176778571Y-43824285D02*
X175278571Y-43824285D01*
X175278571Y-43467142D01*
X175350000Y-43252857D01*
X175492857Y-43110000D01*
X175635714Y-43038571D01*
X175921428Y-42967142D01*
X176135714Y-42967142D01*
X176421428Y-43038571D01*
X176564285Y-43110000D01*
X176707142Y-43252857D01*
X176778571Y-43467142D01*
X176778571Y-43824285D01*
X94440000Y-49547142D02*
X94654285Y-49618571D01*
X95011428Y-49618571D01*
X95154285Y-49547142D01*
X95225714Y-49475714D01*
X95297142Y-49332857D01*
X95297142Y-49190000D01*
X95225714Y-49047142D01*
X95154285Y-48975714D01*
X95011428Y-48904285D01*
X94725714Y-48832857D01*
X94582857Y-48761428D01*
X94511428Y-48690000D01*
X94440000Y-48547142D01*
X94440000Y-48404285D01*
X94511428Y-48261428D01*
X94582857Y-48190000D01*
X94725714Y-48118571D01*
X95082857Y-48118571D01*
X95297142Y-48190000D01*
X96225714Y-48118571D02*
X96511428Y-48118571D01*
X96654285Y-48190000D01*
X96797142Y-48332857D01*
X96868571Y-48618571D01*
X96868571Y-49118571D01*
X96797142Y-49404285D01*
X96654285Y-49547142D01*
X96511428Y-49618571D01*
X96225714Y-49618571D01*
X96082857Y-49547142D01*
X95940000Y-49404285D01*
X95868571Y-49118571D01*
X95868571Y-48618571D01*
X95940000Y-48332857D01*
X96082857Y-48190000D01*
X96225714Y-48118571D01*
X97511428Y-48118571D02*
X97511428Y-49332857D01*
X97582857Y-49475714D01*
X97654285Y-49547142D01*
X97797142Y-49618571D01*
X98082857Y-49618571D01*
X98225714Y-49547142D01*
X98297142Y-49475714D01*
X98368571Y-49332857D01*
X98368571Y-48118571D01*
X99940000Y-49618571D02*
X99440000Y-48904285D01*
X99082857Y-49618571D02*
X99082857Y-48118571D01*
X99654285Y-48118571D01*
X99797142Y-48190000D01*
X99868571Y-48261428D01*
X99940000Y-48404285D01*
X99940000Y-48618571D01*
X99868571Y-48761428D01*
X99797142Y-48832857D01*
X99654285Y-48904285D01*
X99082857Y-48904285D01*
X101440000Y-49475714D02*
X101368571Y-49547142D01*
X101154285Y-49618571D01*
X101011428Y-49618571D01*
X100797142Y-49547142D01*
X100654285Y-49404285D01*
X100582857Y-49261428D01*
X100511428Y-48975714D01*
X100511428Y-48761428D01*
X100582857Y-48475714D01*
X100654285Y-48332857D01*
X100797142Y-48190000D01*
X101011428Y-48118571D01*
X101154285Y-48118571D01*
X101368571Y-48190000D01*
X101440000Y-48261428D01*
X102082857Y-48832857D02*
X102582857Y-48832857D01*
X102797142Y-49618571D02*
X102082857Y-49618571D01*
X102082857Y-48118571D01*
X102797142Y-48118571D01*
X105440000Y-49618571D02*
X104940000Y-48904285D01*
X104582857Y-49618571D02*
X104582857Y-48118571D01*
X105154285Y-48118571D01*
X105297142Y-48190000D01*
X105368571Y-48261428D01*
X105440000Y-48404285D01*
X105440000Y-48618571D01*
X105368571Y-48761428D01*
X105297142Y-48832857D01*
X105154285Y-48904285D01*
X104582857Y-48904285D01*
X106082857Y-48832857D02*
X106582857Y-48832857D01*
X106797142Y-49618571D02*
X106082857Y-49618571D01*
X106082857Y-48118571D01*
X106797142Y-48118571D01*
X108225714Y-48190000D02*
X108082857Y-48118571D01*
X107868571Y-48118571D01*
X107654285Y-48190000D01*
X107511428Y-48332857D01*
X107440000Y-48475714D01*
X107368571Y-48761428D01*
X107368571Y-48975714D01*
X107440000Y-49261428D01*
X107511428Y-49404285D01*
X107654285Y-49547142D01*
X107868571Y-49618571D01*
X108011428Y-49618571D01*
X108225714Y-49547142D01*
X108297142Y-49475714D01*
X108297142Y-48975714D01*
X108011428Y-48975714D01*
X108940000Y-49618571D02*
X108940000Y-48118571D01*
X109582857Y-49547142D02*
X109797142Y-49618571D01*
X110154285Y-49618571D01*
X110297142Y-49547142D01*
X110368571Y-49475714D01*
X110440000Y-49332857D01*
X110440000Y-49190000D01*
X110368571Y-49047142D01*
X110297142Y-48975714D01*
X110154285Y-48904285D01*
X109868571Y-48832857D01*
X109725714Y-48761428D01*
X109654285Y-48690000D01*
X109582857Y-48547142D01*
X109582857Y-48404285D01*
X109654285Y-48261428D01*
X109725714Y-48190000D01*
X109868571Y-48118571D01*
X110225714Y-48118571D01*
X110440000Y-48190000D01*
X110868571Y-48118571D02*
X111725714Y-48118571D01*
X111297142Y-49618571D02*
X111297142Y-48118571D01*
X112225714Y-48832857D02*
X112725714Y-48832857D01*
X112940000Y-49618571D02*
X112225714Y-49618571D01*
X112225714Y-48118571D01*
X112940000Y-48118571D01*
X114440000Y-49618571D02*
X113940000Y-48904285D01*
X113582857Y-49618571D02*
X113582857Y-48118571D01*
X114154285Y-48118571D01*
X114297142Y-48190000D01*
X114368571Y-48261428D01*
X114440000Y-48404285D01*
X114440000Y-48618571D01*
X114368571Y-48761428D01*
X114297142Y-48832857D01*
X114154285Y-48904285D01*
X113582857Y-48904285D01*
X116154285Y-48261428D02*
X116225714Y-48190000D01*
X116368571Y-48118571D01*
X116725714Y-48118571D01*
X116868571Y-48190000D01*
X116940000Y-48261428D01*
X117011428Y-48404285D01*
X117011428Y-48547142D01*
X116940000Y-48761428D01*
X116082857Y-49618571D01*
X117011428Y-49618571D01*
X118725714Y-49547142D02*
X118940000Y-49618571D01*
X119297142Y-49618571D01*
X119440000Y-49547142D01*
X119511428Y-49475714D01*
X119582857Y-49332857D01*
X119582857Y-49190000D01*
X119511428Y-49047142D01*
X119440000Y-48975714D01*
X119297142Y-48904285D01*
X119011428Y-48832857D01*
X118868571Y-48761428D01*
X118797142Y-48690000D01*
X118725714Y-48547142D01*
X118725714Y-48404285D01*
X118797142Y-48261428D01*
X118868571Y-48190000D01*
X119011428Y-48118571D01*
X119368571Y-48118571D01*
X119582857Y-48190000D01*
X120011428Y-48118571D02*
X120868571Y-48118571D01*
X120440000Y-49618571D02*
X120440000Y-48118571D01*
X121654285Y-48118571D02*
X121940000Y-48118571D01*
X122082857Y-48190000D01*
X122225714Y-48332857D01*
X122297142Y-48618571D01*
X122297142Y-49118571D01*
X122225714Y-49404285D01*
X122082857Y-49547142D01*
X121940000Y-49618571D01*
X121654285Y-49618571D01*
X121511428Y-49547142D01*
X121368571Y-49404285D01*
X121297142Y-49118571D01*
X121297142Y-48618571D01*
X121368571Y-48332857D01*
X121511428Y-48190000D01*
X121654285Y-48118571D01*
X123797142Y-49618571D02*
X123297142Y-48904285D01*
X122940000Y-49618571D02*
X122940000Y-48118571D01*
X123511428Y-48118571D01*
X123654285Y-48190000D01*
X123725714Y-48261428D01*
X123797142Y-48404285D01*
X123797142Y-48618571D01*
X123725714Y-48761428D01*
X123654285Y-48832857D01*
X123511428Y-48904285D01*
X122940000Y-48904285D01*
X124368571Y-49190000D02*
X125082857Y-49190000D01*
X124225714Y-49618571D02*
X124725714Y-48118571D01*
X125225714Y-49618571D01*
X126511428Y-48190000D02*
X126368571Y-48118571D01*
X126154285Y-48118571D01*
X125940000Y-48190000D01*
X125797142Y-48332857D01*
X125725714Y-48475714D01*
X125654285Y-48761428D01*
X125654285Y-48975714D01*
X125725714Y-49261428D01*
X125797142Y-49404285D01*
X125940000Y-49547142D01*
X126154285Y-49618571D01*
X126297142Y-49618571D01*
X126511428Y-49547142D01*
X126582857Y-49475714D01*
X126582857Y-48975714D01*
X126297142Y-48975714D01*
X127225714Y-48832857D02*
X127725714Y-48832857D01*
X127940000Y-49618571D02*
X127225714Y-49618571D01*
X127225714Y-48118571D01*
X127940000Y-48118571D01*
D13*
X148832857Y-72772857D02*
X148918571Y-72801428D01*
X149061428Y-72801428D01*
X149118571Y-72772857D01*
X149147142Y-72744285D01*
X149175714Y-72687142D01*
X149175714Y-72630000D01*
X149147142Y-72572857D01*
X149118571Y-72544285D01*
X149061428Y-72515714D01*
X148947142Y-72487142D01*
X148890000Y-72458571D01*
X148861428Y-72430000D01*
X148832857Y-72372857D01*
X148832857Y-72315714D01*
X148861428Y-72258571D01*
X148890000Y-72230000D01*
X148947142Y-72201428D01*
X149090000Y-72201428D01*
X149175714Y-72230000D01*
X149547142Y-72201428D02*
X149661428Y-72201428D01*
X149718571Y-72230000D01*
X149775714Y-72287142D01*
X149804285Y-72401428D01*
X149804285Y-72601428D01*
X149775714Y-72715714D01*
X149718571Y-72772857D01*
X149661428Y-72801428D01*
X149547142Y-72801428D01*
X149490000Y-72772857D01*
X149432857Y-72715714D01*
X149404285Y-72601428D01*
X149404285Y-72401428D01*
X149432857Y-72287142D01*
X149490000Y-72230000D01*
X149547142Y-72201428D01*
X150061428Y-72201428D02*
X150061428Y-72687142D01*
X150090000Y-72744285D01*
X150118571Y-72772857D01*
X150175714Y-72801428D01*
X150290000Y-72801428D01*
X150347142Y-72772857D01*
X150375714Y-72744285D01*
X150404285Y-72687142D01*
X150404285Y-72201428D01*
X151032857Y-72801428D02*
X150832857Y-72515714D01*
X150690000Y-72801428D02*
X150690000Y-72201428D01*
X150918571Y-72201428D01*
X150975714Y-72230000D01*
X151004285Y-72258571D01*
X151032857Y-72315714D01*
X151032857Y-72401428D01*
X151004285Y-72458571D01*
X150975714Y-72487142D01*
X150918571Y-72515714D01*
X150690000Y-72515714D01*
X151632857Y-72744285D02*
X151604285Y-72772857D01*
X151518571Y-72801428D01*
X151461428Y-72801428D01*
X151375714Y-72772857D01*
X151318571Y-72715714D01*
X151290000Y-72658571D01*
X151261428Y-72544285D01*
X151261428Y-72458571D01*
X151290000Y-72344285D01*
X151318571Y-72287142D01*
X151375714Y-72230000D01*
X151461428Y-72201428D01*
X151518571Y-72201428D01*
X151604285Y-72230000D01*
X151632857Y-72258571D01*
X151890000Y-72487142D02*
X152090000Y-72487142D01*
X152175714Y-72801428D02*
X151890000Y-72801428D01*
X151890000Y-72201428D01*
X152175714Y-72201428D01*
X153232857Y-72801428D02*
X153032857Y-72515714D01*
X152890000Y-72801428D02*
X152890000Y-72201428D01*
X153118571Y-72201428D01*
X153175714Y-72230000D01*
X153204285Y-72258571D01*
X153232857Y-72315714D01*
X153232857Y-72401428D01*
X153204285Y-72458571D01*
X153175714Y-72487142D01*
X153118571Y-72515714D01*
X152890000Y-72515714D01*
X153490000Y-72487142D02*
X153690000Y-72487142D01*
X153775714Y-72801428D02*
X153490000Y-72801428D01*
X153490000Y-72201428D01*
X153775714Y-72201428D01*
X154347142Y-72230000D02*
X154290000Y-72201428D01*
X154204285Y-72201428D01*
X154118571Y-72230000D01*
X154061428Y-72287142D01*
X154032857Y-72344285D01*
X154004285Y-72458571D01*
X154004285Y-72544285D01*
X154032857Y-72658571D01*
X154061428Y-72715714D01*
X154118571Y-72772857D01*
X154204285Y-72801428D01*
X154261428Y-72801428D01*
X154347142Y-72772857D01*
X154375714Y-72744285D01*
X154375714Y-72544285D01*
X154261428Y-72544285D01*
X154632857Y-72801428D02*
X154632857Y-72201428D01*
X154890000Y-72772857D02*
X154975714Y-72801428D01*
X155118571Y-72801428D01*
X155175714Y-72772857D01*
X155204285Y-72744285D01*
X155232857Y-72687142D01*
X155232857Y-72630000D01*
X155204285Y-72572857D01*
X155175714Y-72544285D01*
X155118571Y-72515714D01*
X155004285Y-72487142D01*
X154947142Y-72458571D01*
X154918571Y-72430000D01*
X154890000Y-72372857D01*
X154890000Y-72315714D01*
X154918571Y-72258571D01*
X154947142Y-72230000D01*
X155004285Y-72201428D01*
X155147142Y-72201428D01*
X155232857Y-72230000D01*
X155404285Y-72201428D02*
X155747142Y-72201428D01*
X155575714Y-72801428D02*
X155575714Y-72201428D01*
X155947142Y-72487142D02*
X156147142Y-72487142D01*
X156232857Y-72801428D02*
X155947142Y-72801428D01*
X155947142Y-72201428D01*
X156232857Y-72201428D01*
X156832857Y-72801428D02*
X156632857Y-72515714D01*
X156490000Y-72801428D02*
X156490000Y-72201428D01*
X156718571Y-72201428D01*
X156775714Y-72230000D01*
X156804285Y-72258571D01*
X156832857Y-72315714D01*
X156832857Y-72401428D01*
X156804285Y-72458571D01*
X156775714Y-72487142D01*
X156718571Y-72515714D01*
X156490000Y-72515714D01*
X157518571Y-72258571D02*
X157547142Y-72230000D01*
X157604285Y-72201428D01*
X157747142Y-72201428D01*
X157804285Y-72230000D01*
X157832857Y-72258571D01*
X157861428Y-72315714D01*
X157861428Y-72372857D01*
X157832857Y-72458571D01*
X157490000Y-72801428D01*
X157861428Y-72801428D01*
X158575714Y-72801428D02*
X158575714Y-72201428D01*
X158718571Y-72201428D01*
X158804285Y-72230000D01*
X158861428Y-72287142D01*
X158890000Y-72344285D01*
X158918571Y-72458571D01*
X158918571Y-72544285D01*
X158890000Y-72658571D01*
X158861428Y-72715714D01*
X158804285Y-72772857D01*
X158718571Y-72801428D01*
X158575714Y-72801428D01*
X159147142Y-72630000D02*
X159432857Y-72630000D01*
X159090000Y-72801428D02*
X159290000Y-72201428D01*
X159490000Y-72801428D01*
X159604285Y-72201428D02*
X159947142Y-72201428D01*
X159775714Y-72801428D02*
X159775714Y-72201428D01*
X160118571Y-72630000D02*
X160404285Y-72630000D01*
X160061428Y-72801428D02*
X160261428Y-72201428D01*
X160461428Y-72801428D01*
X161432857Y-72801428D02*
X161090000Y-72801428D01*
X161261428Y-72801428D02*
X161261428Y-72201428D01*
X161204285Y-72287142D01*
X161147142Y-72344285D01*
X161090000Y-72372857D01*
X161975714Y-72201428D02*
X161690000Y-72201428D01*
X161661428Y-72487142D01*
X161690000Y-72458571D01*
X161747142Y-72430000D01*
X161890000Y-72430000D01*
X161947142Y-72458571D01*
X161975714Y-72487142D01*
X162004285Y-72544285D01*
X162004285Y-72687142D01*
X161975714Y-72744285D01*
X161947142Y-72772857D01*
X161890000Y-72801428D01*
X161747142Y-72801428D01*
X161690000Y-72772857D01*
X161661428Y-72744285D01*
X162261428Y-72744285D02*
X162290000Y-72772857D01*
X162261428Y-72801428D01*
X162232857Y-72772857D01*
X162261428Y-72744285D01*
X162261428Y-72801428D01*
X162547142Y-72744285D02*
X162575714Y-72772857D01*
X162547142Y-72801428D01*
X162518571Y-72772857D01*
X162547142Y-72744285D01*
X162547142Y-72801428D01*
X162947142Y-72201428D02*
X163004285Y-72201428D01*
X163061428Y-72230000D01*
X163090000Y-72258571D01*
X163118571Y-72315714D01*
X163147142Y-72430000D01*
X163147142Y-72572857D01*
X163118571Y-72687142D01*
X163090000Y-72744285D01*
X163061428Y-72772857D01*
X163004285Y-72801428D01*
X162947142Y-72801428D01*
X162890000Y-72772857D01*
X162861428Y-72744285D01*
X162832857Y-72687142D01*
X162804285Y-72572857D01*
X162804285Y-72430000D01*
X162832857Y-72315714D01*
X162861428Y-72258571D01*
X162890000Y-72230000D01*
X162947142Y-72201428D01*
D10*
X145900000Y-72520000D02*
X148130000Y-72520000D01*
X163950000Y-72480000D02*
X166951666Y-72480000D01*
X166930000Y-76940000D02*
X166930000Y-72590000D01*
X145900000Y-76870000D02*
X145900000Y-72520000D01*
D13*
X124861428Y-72811428D02*
X124861428Y-72211428D01*
X125004285Y-72211428D01*
X125090000Y-72240000D01*
X125147142Y-72297142D01*
X125175714Y-72354285D01*
X125204285Y-72468571D01*
X125204285Y-72554285D01*
X125175714Y-72668571D01*
X125147142Y-72725714D01*
X125090000Y-72782857D01*
X125004285Y-72811428D01*
X124861428Y-72811428D01*
X125461428Y-72497142D02*
X125661428Y-72497142D01*
X125747142Y-72811428D02*
X125461428Y-72811428D01*
X125461428Y-72211428D01*
X125747142Y-72211428D01*
X125975714Y-72782857D02*
X126061428Y-72811428D01*
X126204285Y-72811428D01*
X126261428Y-72782857D01*
X126290000Y-72754285D01*
X126318571Y-72697142D01*
X126318571Y-72640000D01*
X126290000Y-72582857D01*
X126261428Y-72554285D01*
X126204285Y-72525714D01*
X126090000Y-72497142D01*
X126032857Y-72468571D01*
X126004285Y-72440000D01*
X125975714Y-72382857D01*
X125975714Y-72325714D01*
X126004285Y-72268571D01*
X126032857Y-72240000D01*
X126090000Y-72211428D01*
X126232857Y-72211428D01*
X126318571Y-72240000D01*
X126490000Y-72211428D02*
X126832857Y-72211428D01*
X126661428Y-72811428D02*
X126661428Y-72211428D01*
X127032857Y-72811428D02*
X127032857Y-72211428D01*
X127318571Y-72811428D02*
X127318571Y-72211428D01*
X127661428Y-72811428D01*
X127661428Y-72211428D01*
X127918571Y-72640000D02*
X128204285Y-72640000D01*
X127861428Y-72811428D02*
X128061428Y-72211428D01*
X128261428Y-72811428D01*
X128375714Y-72211428D02*
X128718571Y-72211428D01*
X128547142Y-72811428D02*
X128547142Y-72211428D01*
X128918571Y-72811428D02*
X128918571Y-72211428D01*
X129318571Y-72211428D02*
X129432857Y-72211428D01*
X129490000Y-72240000D01*
X129547142Y-72297142D01*
X129575714Y-72411428D01*
X129575714Y-72611428D01*
X129547142Y-72725714D01*
X129490000Y-72782857D01*
X129432857Y-72811428D01*
X129318571Y-72811428D01*
X129261428Y-72782857D01*
X129204285Y-72725714D01*
X129175714Y-72611428D01*
X129175714Y-72411428D01*
X129204285Y-72297142D01*
X129261428Y-72240000D01*
X129318571Y-72211428D01*
X129832857Y-72811428D02*
X129832857Y-72211428D01*
X130175714Y-72811428D01*
X130175714Y-72211428D01*
X131261428Y-72811428D02*
X131061428Y-72525714D01*
X130918571Y-72811428D02*
X130918571Y-72211428D01*
X131147142Y-72211428D01*
X131204285Y-72240000D01*
X131232857Y-72268571D01*
X131261428Y-72325714D01*
X131261428Y-72411428D01*
X131232857Y-72468571D01*
X131204285Y-72497142D01*
X131147142Y-72525714D01*
X130918571Y-72525714D01*
X131518571Y-72497142D02*
X131718571Y-72497142D01*
X131804285Y-72811428D02*
X131518571Y-72811428D01*
X131518571Y-72211428D01*
X131804285Y-72211428D01*
X132375714Y-72240000D02*
X132318571Y-72211428D01*
X132232857Y-72211428D01*
X132147142Y-72240000D01*
X132090000Y-72297142D01*
X132061428Y-72354285D01*
X132032857Y-72468571D01*
X132032857Y-72554285D01*
X132061428Y-72668571D01*
X132090000Y-72725714D01*
X132147142Y-72782857D01*
X132232857Y-72811428D01*
X132290000Y-72811428D01*
X132375714Y-72782857D01*
X132404285Y-72754285D01*
X132404285Y-72554285D01*
X132290000Y-72554285D01*
X132661428Y-72811428D02*
X132661428Y-72211428D01*
X132918571Y-72782857D02*
X133004285Y-72811428D01*
X133147142Y-72811428D01*
X133204285Y-72782857D01*
X133232857Y-72754285D01*
X133261428Y-72697142D01*
X133261428Y-72640000D01*
X133232857Y-72582857D01*
X133204285Y-72554285D01*
X133147142Y-72525714D01*
X133032857Y-72497142D01*
X132975714Y-72468571D01*
X132947142Y-72440000D01*
X132918571Y-72382857D01*
X132918571Y-72325714D01*
X132947142Y-72268571D01*
X132975714Y-72240000D01*
X133032857Y-72211428D01*
X133175714Y-72211428D01*
X133261428Y-72240000D01*
X133432857Y-72211428D02*
X133775714Y-72211428D01*
X133604285Y-72811428D02*
X133604285Y-72211428D01*
X133975714Y-72497142D02*
X134175714Y-72497142D01*
X134261428Y-72811428D02*
X133975714Y-72811428D01*
X133975714Y-72211428D01*
X134261428Y-72211428D01*
X134861428Y-72811428D02*
X134661428Y-72525714D01*
X134518571Y-72811428D02*
X134518571Y-72211428D01*
X134747142Y-72211428D01*
X134804285Y-72240000D01*
X134832857Y-72268571D01*
X134861428Y-72325714D01*
X134861428Y-72411428D01*
X134832857Y-72468571D01*
X134804285Y-72497142D01*
X134747142Y-72525714D01*
X134518571Y-72525714D01*
X135575714Y-72811428D02*
X135575714Y-72211428D01*
X135718571Y-72211428D01*
X135804285Y-72240000D01*
X135861428Y-72297142D01*
X135890000Y-72354285D01*
X135918571Y-72468571D01*
X135918571Y-72554285D01*
X135890000Y-72668571D01*
X135861428Y-72725714D01*
X135804285Y-72782857D01*
X135718571Y-72811428D01*
X135575714Y-72811428D01*
X136147142Y-72640000D02*
X136432857Y-72640000D01*
X136090000Y-72811428D02*
X136290000Y-72211428D01*
X136490000Y-72811428D01*
X136604285Y-72211428D02*
X136947142Y-72211428D01*
X136775714Y-72811428D02*
X136775714Y-72211428D01*
X137118571Y-72640000D02*
X137404285Y-72640000D01*
X137061428Y-72811428D02*
X137261428Y-72211428D01*
X137461428Y-72811428D01*
X138432857Y-72811428D02*
X138090000Y-72811428D01*
X138261428Y-72811428D02*
X138261428Y-72211428D01*
X138204285Y-72297142D01*
X138147142Y-72354285D01*
X138090000Y-72382857D01*
X138975714Y-72211428D02*
X138690000Y-72211428D01*
X138661428Y-72497142D01*
X138690000Y-72468571D01*
X138747142Y-72440000D01*
X138890000Y-72440000D01*
X138947142Y-72468571D01*
X138975714Y-72497142D01*
X139004285Y-72554285D01*
X139004285Y-72697142D01*
X138975714Y-72754285D01*
X138947142Y-72782857D01*
X138890000Y-72811428D01*
X138747142Y-72811428D01*
X138690000Y-72782857D01*
X138661428Y-72754285D01*
X139261428Y-72754285D02*
X139290000Y-72782857D01*
X139261428Y-72811428D01*
X139232857Y-72782857D01*
X139261428Y-72754285D01*
X139261428Y-72811428D01*
X139547142Y-72754285D02*
X139575714Y-72782857D01*
X139547142Y-72811428D01*
X139518571Y-72782857D01*
X139547142Y-72754285D01*
X139547142Y-72811428D01*
X139947142Y-72211428D02*
X140004285Y-72211428D01*
X140061428Y-72240000D01*
X140090000Y-72268571D01*
X140118571Y-72325714D01*
X140147142Y-72440000D01*
X140147142Y-72582857D01*
X140118571Y-72697142D01*
X140090000Y-72754285D01*
X140061428Y-72782857D01*
X140004285Y-72811428D01*
X139947142Y-72811428D01*
X139890000Y-72782857D01*
X139861428Y-72754285D01*
X139832857Y-72697142D01*
X139804285Y-72582857D01*
X139804285Y-72440000D01*
X139832857Y-72325714D01*
X139861428Y-72268571D01*
X139890000Y-72240000D01*
X139947142Y-72211428D01*
D10*
X121900000Y-72510000D02*
X124130000Y-72510000D01*
X121900000Y-76860000D02*
X121900000Y-72510000D01*
X144990000Y-72480000D02*
X144990000Y-76860000D01*
X140780000Y-72480000D02*
X144990000Y-72480000D01*
D13*
X108957142Y-71741428D02*
X108957142Y-71141428D01*
X109100000Y-71141428D01*
X109185714Y-71170000D01*
X109242857Y-71227142D01*
X109271428Y-71284285D01*
X109300000Y-71398571D01*
X109300000Y-71484285D01*
X109271428Y-71598571D01*
X109242857Y-71655714D01*
X109185714Y-71712857D01*
X109100000Y-71741428D01*
X108957142Y-71741428D01*
X109557142Y-71427142D02*
X109757142Y-71427142D01*
X109842857Y-71741428D02*
X109557142Y-71741428D01*
X109557142Y-71141428D01*
X109842857Y-71141428D01*
X110071428Y-71712857D02*
X110157142Y-71741428D01*
X110300000Y-71741428D01*
X110357142Y-71712857D01*
X110385714Y-71684285D01*
X110414285Y-71627142D01*
X110414285Y-71570000D01*
X110385714Y-71512857D01*
X110357142Y-71484285D01*
X110300000Y-71455714D01*
X110185714Y-71427142D01*
X110128571Y-71398571D01*
X110100000Y-71370000D01*
X110071428Y-71312857D01*
X110071428Y-71255714D01*
X110100000Y-71198571D01*
X110128571Y-71170000D01*
X110185714Y-71141428D01*
X110328571Y-71141428D01*
X110414285Y-71170000D01*
X110585714Y-71141428D02*
X110928571Y-71141428D01*
X110757142Y-71741428D02*
X110757142Y-71141428D01*
X109514285Y-72791428D02*
X109314285Y-72505714D01*
X109171428Y-72791428D02*
X109171428Y-72191428D01*
X109400000Y-72191428D01*
X109457142Y-72220000D01*
X109485714Y-72248571D01*
X109514285Y-72305714D01*
X109514285Y-72391428D01*
X109485714Y-72448571D01*
X109457142Y-72477142D01*
X109400000Y-72505714D01*
X109171428Y-72505714D01*
X109771428Y-72477142D02*
X109971428Y-72477142D01*
X110057142Y-72791428D02*
X109771428Y-72791428D01*
X109771428Y-72191428D01*
X110057142Y-72191428D01*
X110628571Y-72220000D02*
X110571428Y-72191428D01*
X110485714Y-72191428D01*
X110400000Y-72220000D01*
X110342857Y-72277142D01*
X110314285Y-72334285D01*
X110285714Y-72448571D01*
X110285714Y-72534285D01*
X110314285Y-72648571D01*
X110342857Y-72705714D01*
X110400000Y-72762857D01*
X110485714Y-72791428D01*
X110542857Y-72791428D01*
X110628571Y-72762857D01*
X110657142Y-72734285D01*
X110657142Y-72534285D01*
X110542857Y-72534285D01*
X108857142Y-73670000D02*
X109142857Y-73670000D01*
X108800000Y-73841428D02*
X109000000Y-73241428D01*
X109200000Y-73841428D01*
X109400000Y-73841428D02*
X109400000Y-73241428D01*
X109542857Y-73241428D01*
X109628571Y-73270000D01*
X109685714Y-73327142D01*
X109714285Y-73384285D01*
X109742857Y-73498571D01*
X109742857Y-73584285D01*
X109714285Y-73698571D01*
X109685714Y-73755714D01*
X109628571Y-73812857D01*
X109542857Y-73841428D01*
X109400000Y-73841428D01*
X110000000Y-73841428D02*
X110000000Y-73241428D01*
X110142857Y-73241428D01*
X110228571Y-73270000D01*
X110285714Y-73327142D01*
X110314285Y-73384285D01*
X110342857Y-73498571D01*
X110342857Y-73584285D01*
X110314285Y-73698571D01*
X110285714Y-73755714D01*
X110228571Y-73812857D01*
X110142857Y-73841428D01*
X110000000Y-73841428D01*
X110942857Y-73841428D02*
X110742857Y-73555714D01*
X110600000Y-73841428D02*
X110600000Y-73241428D01*
X110828571Y-73241428D01*
X110885714Y-73270000D01*
X110914285Y-73298571D01*
X110942857Y-73355714D01*
X110942857Y-73441428D01*
X110914285Y-73498571D01*
X110885714Y-73527142D01*
X110828571Y-73555714D01*
X110600000Y-73555714D01*
D10*
X103950000Y-72520000D02*
X106951666Y-72520000D01*
X106930000Y-76980000D02*
X106930000Y-72630000D01*
X85900000Y-72560000D02*
X88130000Y-72560000D01*
X85900000Y-76910000D02*
X85900000Y-72560000D01*
D13*
X88547142Y-72812857D02*
X88632857Y-72841428D01*
X88775714Y-72841428D01*
X88832857Y-72812857D01*
X88861428Y-72784285D01*
X88889999Y-72727142D01*
X88889999Y-72670000D01*
X88861428Y-72612857D01*
X88832857Y-72584285D01*
X88775714Y-72555714D01*
X88661428Y-72527142D01*
X88604285Y-72498571D01*
X88575714Y-72470000D01*
X88547142Y-72412857D01*
X88547142Y-72355714D01*
X88575714Y-72298571D01*
X88604285Y-72270000D01*
X88661428Y-72241428D01*
X88804285Y-72241428D01*
X88889999Y-72270000D01*
X89261428Y-72241428D02*
X89375714Y-72241428D01*
X89432857Y-72270000D01*
X89489999Y-72327142D01*
X89518571Y-72441428D01*
X89518571Y-72641428D01*
X89489999Y-72755714D01*
X89432857Y-72812857D01*
X89375714Y-72841428D01*
X89261428Y-72841428D01*
X89204285Y-72812857D01*
X89147142Y-72755714D01*
X89118571Y-72641428D01*
X89118571Y-72441428D01*
X89147142Y-72327142D01*
X89204285Y-72270000D01*
X89261428Y-72241428D01*
X89775714Y-72241428D02*
X89775714Y-72727142D01*
X89804285Y-72784285D01*
X89832857Y-72812857D01*
X89889999Y-72841428D01*
X90004285Y-72841428D01*
X90061428Y-72812857D01*
X90089999Y-72784285D01*
X90118571Y-72727142D01*
X90118571Y-72241428D01*
X90747142Y-72841428D02*
X90547142Y-72555714D01*
X90404285Y-72841428D02*
X90404285Y-72241428D01*
X90632857Y-72241428D01*
X90689999Y-72270000D01*
X90718571Y-72298571D01*
X90747142Y-72355714D01*
X90747142Y-72441428D01*
X90718571Y-72498571D01*
X90689999Y-72527142D01*
X90632857Y-72555714D01*
X90404285Y-72555714D01*
X91347142Y-72784285D02*
X91318571Y-72812857D01*
X91232857Y-72841428D01*
X91175714Y-72841428D01*
X91089999Y-72812857D01*
X91032857Y-72755714D01*
X91004285Y-72698571D01*
X90975714Y-72584285D01*
X90975714Y-72498571D01*
X91004285Y-72384285D01*
X91032857Y-72327142D01*
X91089999Y-72270000D01*
X91175714Y-72241428D01*
X91232857Y-72241428D01*
X91318571Y-72270000D01*
X91347142Y-72298571D01*
X91604285Y-72527142D02*
X91804285Y-72527142D01*
X91889999Y-72841428D02*
X91604285Y-72841428D01*
X91604285Y-72241428D01*
X91889999Y-72241428D01*
X92947142Y-72841428D02*
X92747142Y-72555714D01*
X92604285Y-72841428D02*
X92604285Y-72241428D01*
X92832857Y-72241428D01*
X92889999Y-72270000D01*
X92918571Y-72298571D01*
X92947142Y-72355714D01*
X92947142Y-72441428D01*
X92918571Y-72498571D01*
X92889999Y-72527142D01*
X92832857Y-72555714D01*
X92604285Y-72555714D01*
X93204285Y-72527142D02*
X93404285Y-72527142D01*
X93489999Y-72841428D02*
X93204285Y-72841428D01*
X93204285Y-72241428D01*
X93489999Y-72241428D01*
X94061428Y-72270000D02*
X94004285Y-72241428D01*
X93918571Y-72241428D01*
X93832857Y-72270000D01*
X93775714Y-72327142D01*
X93747142Y-72384285D01*
X93718571Y-72498571D01*
X93718571Y-72584285D01*
X93747142Y-72698571D01*
X93775714Y-72755714D01*
X93832857Y-72812857D01*
X93918571Y-72841428D01*
X93975714Y-72841428D01*
X94061428Y-72812857D01*
X94089999Y-72784285D01*
X94089999Y-72584285D01*
X93975714Y-72584285D01*
X94347142Y-72841428D02*
X94347142Y-72241428D01*
X94604285Y-72812857D02*
X94689999Y-72841428D01*
X94832857Y-72841428D01*
X94889999Y-72812857D01*
X94918571Y-72784285D01*
X94947142Y-72727142D01*
X94947142Y-72670000D01*
X94918571Y-72612857D01*
X94889999Y-72584285D01*
X94832857Y-72555714D01*
X94718571Y-72527142D01*
X94661428Y-72498571D01*
X94632857Y-72470000D01*
X94604285Y-72412857D01*
X94604285Y-72355714D01*
X94632857Y-72298571D01*
X94661428Y-72270000D01*
X94718571Y-72241428D01*
X94861428Y-72241428D01*
X94947142Y-72270000D01*
X95118571Y-72241428D02*
X95461428Y-72241428D01*
X95289999Y-72841428D02*
X95289999Y-72241428D01*
X95661428Y-72527142D02*
X95861428Y-72527142D01*
X95947142Y-72841428D02*
X95661428Y-72841428D01*
X95661428Y-72241428D01*
X95947142Y-72241428D01*
X96547142Y-72841428D02*
X96347142Y-72555714D01*
X96204285Y-72841428D02*
X96204285Y-72241428D01*
X96432857Y-72241428D01*
X96489999Y-72270000D01*
X96518571Y-72298571D01*
X96547142Y-72355714D01*
X96547142Y-72441428D01*
X96518571Y-72498571D01*
X96489999Y-72527142D01*
X96432857Y-72555714D01*
X96204285Y-72555714D01*
X97232857Y-72298571D02*
X97261428Y-72270000D01*
X97318571Y-72241428D01*
X97461428Y-72241428D01*
X97518571Y-72270000D01*
X97547142Y-72298571D01*
X97575714Y-72355714D01*
X97575714Y-72412857D01*
X97547142Y-72498571D01*
X97204285Y-72841428D01*
X97575714Y-72841428D01*
X98289999Y-72841428D02*
X98289999Y-72241428D01*
X98432857Y-72241428D01*
X98518571Y-72270000D01*
X98575714Y-72327142D01*
X98604285Y-72384285D01*
X98632857Y-72498571D01*
X98632857Y-72584285D01*
X98604285Y-72698571D01*
X98575714Y-72755714D01*
X98518571Y-72812857D01*
X98432857Y-72841428D01*
X98289999Y-72841428D01*
X98861428Y-72670000D02*
X99147142Y-72670000D01*
X98804285Y-72841428D02*
X99004285Y-72241428D01*
X99204285Y-72841428D01*
X99318571Y-72241428D02*
X99661428Y-72241428D01*
X99489999Y-72841428D02*
X99489999Y-72241428D01*
X99832857Y-72670000D02*
X100118571Y-72670000D01*
X99775714Y-72841428D02*
X99975714Y-72241428D01*
X100175714Y-72841428D01*
X100775714Y-72241428D02*
X101147142Y-72241428D01*
X100947142Y-72470000D01*
X101032857Y-72470000D01*
X101089999Y-72498571D01*
X101118571Y-72527142D01*
X101147142Y-72584285D01*
X101147142Y-72727142D01*
X101118571Y-72784285D01*
X101089999Y-72812857D01*
X101032857Y-72841428D01*
X100861428Y-72841428D01*
X100804285Y-72812857D01*
X100775714Y-72784285D01*
X101718571Y-72841428D02*
X101375714Y-72841428D01*
X101547142Y-72841428D02*
X101547142Y-72241428D01*
X101489999Y-72327142D01*
X101432857Y-72384285D01*
X101375714Y-72412857D01*
X101975714Y-72784285D02*
X102004285Y-72812857D01*
X101975714Y-72841428D01*
X101947142Y-72812857D01*
X101975714Y-72784285D01*
X101975714Y-72841428D01*
X102261428Y-72784285D02*
X102289999Y-72812857D01*
X102261428Y-72841428D01*
X102232857Y-72812857D01*
X102261428Y-72784285D01*
X102261428Y-72841428D01*
X102861428Y-72841428D02*
X102518571Y-72841428D01*
X102689999Y-72841428D02*
X102689999Y-72241428D01*
X102632857Y-72327142D01*
X102575714Y-72384285D01*
X102518571Y-72412857D01*
X103375714Y-72241428D02*
X103261428Y-72241428D01*
X103204285Y-72270000D01*
X103175714Y-72298571D01*
X103118571Y-72384285D01*
X103089999Y-72498571D01*
X103089999Y-72727142D01*
X103118571Y-72784285D01*
X103147142Y-72812857D01*
X103204285Y-72841428D01*
X103318571Y-72841428D01*
X103375714Y-72812857D01*
X103404285Y-72784285D01*
X103432857Y-72727142D01*
X103432857Y-72584285D01*
X103404285Y-72527142D01*
X103375714Y-72498571D01*
X103318571Y-72470000D01*
X103204285Y-72470000D01*
X103147142Y-72498571D01*
X103118571Y-72527142D01*
X103089999Y-72584285D01*
D10*
X61950000Y-72590000D02*
X64180000Y-72590000D01*
X61950000Y-76940000D02*
X61950000Y-72590000D01*
X85040000Y-72560000D02*
X85040000Y-76940000D01*
X80830000Y-72560000D02*
X85040000Y-72560000D01*
D13*
X64625714Y-72891428D02*
X64625714Y-72291428D01*
X64768571Y-72291428D01*
X64854285Y-72320000D01*
X64911428Y-72377142D01*
X64940000Y-72434285D01*
X64968571Y-72548571D01*
X64968571Y-72634285D01*
X64940000Y-72748571D01*
X64911428Y-72805714D01*
X64854285Y-72862857D01*
X64768571Y-72891428D01*
X64625714Y-72891428D01*
X65225714Y-72577142D02*
X65425714Y-72577142D01*
X65511428Y-72891428D02*
X65225714Y-72891428D01*
X65225714Y-72291428D01*
X65511428Y-72291428D01*
X65740000Y-72862857D02*
X65825714Y-72891428D01*
X65968571Y-72891428D01*
X66025714Y-72862857D01*
X66054285Y-72834285D01*
X66082857Y-72777142D01*
X66082857Y-72720000D01*
X66054285Y-72662857D01*
X66025714Y-72634285D01*
X65968571Y-72605714D01*
X65854285Y-72577142D01*
X65797142Y-72548571D01*
X65768571Y-72520000D01*
X65740000Y-72462857D01*
X65740000Y-72405714D01*
X65768571Y-72348571D01*
X65797142Y-72320000D01*
X65854285Y-72291428D01*
X65997142Y-72291428D01*
X66082857Y-72320000D01*
X66254285Y-72291428D02*
X66597142Y-72291428D01*
X66425714Y-72891428D02*
X66425714Y-72291428D01*
X66797142Y-72891428D02*
X66797142Y-72291428D01*
X67082857Y-72891428D02*
X67082857Y-72291428D01*
X67425714Y-72891428D01*
X67425714Y-72291428D01*
X67682857Y-72720000D02*
X67968571Y-72720000D01*
X67625714Y-72891428D02*
X67825714Y-72291428D01*
X68025714Y-72891428D01*
X68140000Y-72291428D02*
X68482857Y-72291428D01*
X68311428Y-72891428D02*
X68311428Y-72291428D01*
X68682857Y-72891428D02*
X68682857Y-72291428D01*
X69082857Y-72291428D02*
X69197142Y-72291428D01*
X69254285Y-72320000D01*
X69311428Y-72377142D01*
X69340000Y-72491428D01*
X69340000Y-72691428D01*
X69311428Y-72805714D01*
X69254285Y-72862857D01*
X69197142Y-72891428D01*
X69082857Y-72891428D01*
X69025714Y-72862857D01*
X68968571Y-72805714D01*
X68940000Y-72691428D01*
X68940000Y-72491428D01*
X68968571Y-72377142D01*
X69025714Y-72320000D01*
X69082857Y-72291428D01*
X69597142Y-72891428D02*
X69597142Y-72291428D01*
X69940000Y-72891428D01*
X69940000Y-72291428D01*
X71025714Y-72891428D02*
X70825714Y-72605714D01*
X70682857Y-72891428D02*
X70682857Y-72291428D01*
X70911428Y-72291428D01*
X70968571Y-72320000D01*
X70997142Y-72348571D01*
X71025714Y-72405714D01*
X71025714Y-72491428D01*
X70997142Y-72548571D01*
X70968571Y-72577142D01*
X70911428Y-72605714D01*
X70682857Y-72605714D01*
X71282857Y-72577142D02*
X71482857Y-72577142D01*
X71568571Y-72891428D02*
X71282857Y-72891428D01*
X71282857Y-72291428D01*
X71568571Y-72291428D01*
X72140000Y-72320000D02*
X72082857Y-72291428D01*
X71997142Y-72291428D01*
X71911428Y-72320000D01*
X71854285Y-72377142D01*
X71825714Y-72434285D01*
X71797142Y-72548571D01*
X71797142Y-72634285D01*
X71825714Y-72748571D01*
X71854285Y-72805714D01*
X71911428Y-72862857D01*
X71997142Y-72891428D01*
X72054285Y-72891428D01*
X72140000Y-72862857D01*
X72168571Y-72834285D01*
X72168571Y-72634285D01*
X72054285Y-72634285D01*
X72425714Y-72891428D02*
X72425714Y-72291428D01*
X72682857Y-72862857D02*
X72768571Y-72891428D01*
X72911428Y-72891428D01*
X72968571Y-72862857D01*
X72997142Y-72834285D01*
X73025714Y-72777142D01*
X73025714Y-72720000D01*
X72997142Y-72662857D01*
X72968571Y-72634285D01*
X72911428Y-72605714D01*
X72797142Y-72577142D01*
X72740000Y-72548571D01*
X72711428Y-72520000D01*
X72682857Y-72462857D01*
X72682857Y-72405714D01*
X72711428Y-72348571D01*
X72740000Y-72320000D01*
X72797142Y-72291428D01*
X72940000Y-72291428D01*
X73025714Y-72320000D01*
X73197142Y-72291428D02*
X73540000Y-72291428D01*
X73368571Y-72891428D02*
X73368571Y-72291428D01*
X73740000Y-72577142D02*
X73940000Y-72577142D01*
X74025714Y-72891428D02*
X73740000Y-72891428D01*
X73740000Y-72291428D01*
X74025714Y-72291428D01*
X74625714Y-72891428D02*
X74425714Y-72605714D01*
X74282857Y-72891428D02*
X74282857Y-72291428D01*
X74511428Y-72291428D01*
X74568571Y-72320000D01*
X74597142Y-72348571D01*
X74625714Y-72405714D01*
X74625714Y-72491428D01*
X74597142Y-72548571D01*
X74568571Y-72577142D01*
X74511428Y-72605714D01*
X74282857Y-72605714D01*
X75340000Y-72891428D02*
X75340000Y-72291428D01*
X75482857Y-72291428D01*
X75568571Y-72320000D01*
X75625714Y-72377142D01*
X75654285Y-72434285D01*
X75682857Y-72548571D01*
X75682857Y-72634285D01*
X75654285Y-72748571D01*
X75625714Y-72805714D01*
X75568571Y-72862857D01*
X75482857Y-72891428D01*
X75340000Y-72891428D01*
X75911428Y-72720000D02*
X76197142Y-72720000D01*
X75854285Y-72891428D02*
X76054285Y-72291428D01*
X76254285Y-72891428D01*
X76368571Y-72291428D02*
X76711428Y-72291428D01*
X76540000Y-72891428D02*
X76540000Y-72291428D01*
X76882857Y-72720000D02*
X77168571Y-72720000D01*
X76825714Y-72891428D02*
X77025714Y-72291428D01*
X77225714Y-72891428D01*
X77825714Y-72291428D02*
X78197142Y-72291428D01*
X77997142Y-72520000D01*
X78082857Y-72520000D01*
X78140000Y-72548571D01*
X78168571Y-72577142D01*
X78197142Y-72634285D01*
X78197142Y-72777142D01*
X78168571Y-72834285D01*
X78140000Y-72862857D01*
X78082857Y-72891428D01*
X77911428Y-72891428D01*
X77854285Y-72862857D01*
X77825714Y-72834285D01*
X78768571Y-72891428D02*
X78425714Y-72891428D01*
X78597142Y-72891428D02*
X78597142Y-72291428D01*
X78540000Y-72377142D01*
X78482857Y-72434285D01*
X78425714Y-72462857D01*
X79025714Y-72834285D02*
X79054285Y-72862857D01*
X79025714Y-72891428D01*
X78997142Y-72862857D01*
X79025714Y-72834285D01*
X79025714Y-72891428D01*
X79311428Y-72834285D02*
X79340000Y-72862857D01*
X79311428Y-72891428D01*
X79282857Y-72862857D01*
X79311428Y-72834285D01*
X79311428Y-72891428D01*
X79911428Y-72891428D02*
X79568571Y-72891428D01*
X79740000Y-72891428D02*
X79740000Y-72291428D01*
X79682857Y-72377142D01*
X79625714Y-72434285D01*
X79568571Y-72462857D01*
X80425714Y-72291428D02*
X80311428Y-72291428D01*
X80254285Y-72320000D01*
X80225714Y-72348571D01*
X80168571Y-72434285D01*
X80140000Y-72548571D01*
X80140000Y-72777142D01*
X80168571Y-72834285D01*
X80197142Y-72862857D01*
X80254285Y-72891428D01*
X80368571Y-72891428D01*
X80425714Y-72862857D01*
X80454285Y-72834285D01*
X80482857Y-72777142D01*
X80482857Y-72634285D01*
X80454285Y-72577142D01*
X80425714Y-72548571D01*
X80368571Y-72520000D01*
X80254285Y-72520000D01*
X80197142Y-72548571D01*
X80168571Y-72577142D01*
X80140000Y-72634285D01*
D14*
G04 #@! TO.C,P1*
X114050601Y-73589801D02*
X119850601Y-73589801D01*
X58400601Y-75039801D02*
X58400601Y-77289801D01*
X61300601Y-75039801D02*
G75*
G03X58400601Y-75039801I-1450000J0D01*
G01*
X74400601Y-75039801D02*
G75*
G03X72500601Y-75039801I-950000J0D01*
G01*
X72500601Y-77289801D02*
X72500601Y-75039801D01*
X74400601Y-75039801D02*
X74400601Y-77289801D01*
X61300601Y-77289801D02*
X72500601Y-77289801D01*
X72500601Y-77289801D02*
X72500601Y-83089801D01*
X72500601Y-83089801D02*
X61300601Y-83089801D01*
X61300601Y-83089801D02*
X61300601Y-75039801D01*
X112600601Y-77289801D02*
X74400601Y-77289801D01*
X74400601Y-83089801D02*
X112600601Y-83089801D01*
X74400601Y-77289801D02*
X74400601Y-83089801D01*
X112600601Y-75039801D02*
X112600601Y-83089801D01*
X114050601Y-73589801D02*
G75*
G03X112600601Y-75039801I0J-1450000D01*
G01*
X134400601Y-75039801D02*
X134400601Y-77289801D01*
X134400601Y-77289801D02*
X134400601Y-83089801D01*
X172600601Y-77289801D02*
X134400601Y-77289801D01*
X134400601Y-83089801D02*
X172600601Y-83089801D01*
X172600601Y-75039801D02*
X172600601Y-83089801D01*
X175500601Y-75039801D02*
G75*
G03X172600601Y-75039801I-1450000J0D01*
G01*
X175500601Y-75039801D02*
X175500601Y-77289801D01*
X132500601Y-77289801D02*
X132500601Y-83089801D01*
X134400601Y-75039801D02*
G75*
G03X132500601Y-75039801I-950000J0D01*
G01*
X132500601Y-77289801D02*
X132500601Y-75039801D01*
X132500601Y-83089801D02*
X121300601Y-83089801D01*
X121300601Y-77289801D02*
X132500601Y-77289801D01*
X121300601Y-75039801D02*
G75*
G03X119850601Y-73589801I-1450000J0D01*
G01*
X121300601Y-83089801D02*
X121300601Y-75039801D01*
D13*
G04 #@! TO.C,U1*
X74656000Y-62467000D02*
X74656000Y-63742000D01*
X73931000Y-48117000D02*
X73931000Y-48917000D01*
X88281000Y-48117000D02*
X88281000Y-48917000D01*
X88281000Y-62467000D02*
X88281000Y-61667000D01*
X73931000Y-62467000D02*
X73931000Y-61667000D01*
X88281000Y-62467000D02*
X87481000Y-62467000D01*
X88281000Y-48117000D02*
X87481000Y-48117000D01*
X73931000Y-48117000D02*
X74731000Y-48117000D01*
X73931000Y-62467000D02*
X74656000Y-62467000D01*
G04 #@! TO.C,U2*
X133175000Y-62625000D02*
X133900000Y-62625000D01*
X133175000Y-48275000D02*
X133975000Y-48275000D01*
X147525000Y-48275000D02*
X146725000Y-48275000D01*
X147525000Y-62625000D02*
X146725000Y-62625000D01*
X133175000Y-62625000D02*
X133175000Y-61825000D01*
X147525000Y-62625000D02*
X147525000Y-61825000D01*
X147525000Y-48275000D02*
X147525000Y-49075000D01*
X133175000Y-48275000D02*
X133175000Y-49075000D01*
X133900000Y-62625000D02*
X133900000Y-63900000D01*
D14*
G04 #@! TO.C,C1*
X80019600Y-66200200D02*
X80019600Y-65500200D01*
X81219600Y-65500200D02*
X81219600Y-66200200D01*
G04 #@! TO.C,C2*
X83708800Y-65500200D02*
X83708800Y-66200200D01*
X82508800Y-66200200D02*
X82508800Y-65500200D01*
G04 #@! TO.C,C3*
X69943800Y-54695800D02*
X70643800Y-54695800D01*
X70643800Y-55895800D02*
X69943800Y-55895800D01*
G04 #@! TO.C,C4*
X140800000Y-66140000D02*
X140800000Y-66840000D01*
X139600000Y-66840000D02*
X139600000Y-66140000D01*
G04 #@! TO.C,C5*
X142080000Y-66860000D02*
X142080000Y-66160000D01*
X143280000Y-66160000D02*
X143280000Y-66860000D01*
G04 #@! TO.C,C6*
X129810000Y-55630000D02*
X129110000Y-55630000D01*
X129110000Y-54430000D02*
X129810000Y-54430000D01*
D15*
G04 #@! TO.C,REF\002A\002A\002A*
G36*
X165899184Y-60368759D02*
X165912282Y-60342247D01*
X165935106Y-60309553D01*
X165959996Y-60285725D01*
X165991249Y-60269406D01*
X166033166Y-60259240D01*
X166090044Y-60253872D01*
X166166184Y-60251944D01*
X166198917Y-60251831D01*
X166270656Y-60252161D01*
X166321927Y-60253527D01*
X166357404Y-60256500D01*
X166381763Y-60261649D01*
X166399680Y-60269543D01*
X166411902Y-60277757D01*
X166463905Y-60330187D01*
X166495184Y-60391930D01*
X166504592Y-60458536D01*
X166490980Y-60525558D01*
X166481354Y-60546792D01*
X166454859Y-60597624D01*
X166870052Y-60597624D01*
X166850868Y-60560525D01*
X166836025Y-60511643D01*
X166832222Y-60451561D01*
X166839243Y-60391564D01*
X166855013Y-60346256D01*
X166885047Y-60308675D01*
X166928024Y-60276564D01*
X166932436Y-60274150D01*
X166953221Y-60263967D01*
X166974170Y-60256530D01*
X166999548Y-60251411D01*
X167033618Y-60248181D01*
X167080641Y-60246413D01*
X167144882Y-60245677D01*
X167217176Y-60245544D01*
X167447822Y-60245544D01*
X167447822Y-60383861D01*
X167022533Y-60383861D01*
X166989979Y-60422549D01*
X166963940Y-60462738D01*
X166959205Y-60500797D01*
X166971389Y-60539066D01*
X166983320Y-60559462D01*
X167000313Y-60574642D01*
X167025995Y-60585438D01*
X167063991Y-60592683D01*
X167117926Y-60597208D01*
X167191425Y-60599844D01*
X167240347Y-60600772D01*
X167441535Y-60603911D01*
X167445336Y-60669926D01*
X167449136Y-60735940D01*
X166200650Y-60735940D01*
X166200650Y-60597624D01*
X166270254Y-60594097D01*
X166318569Y-60582215D01*
X166348631Y-60560020D01*
X166363471Y-60525559D01*
X166366436Y-60490742D01*
X166363028Y-60451329D01*
X166349617Y-60425171D01*
X166331896Y-60408814D01*
X166312835Y-60395937D01*
X166291601Y-60388272D01*
X166261849Y-60384861D01*
X166217236Y-60384749D01*
X166179880Y-60385897D01*
X166123604Y-60388532D01*
X166086658Y-60392456D01*
X166063223Y-60399063D01*
X166047480Y-60409749D01*
X166038380Y-60419833D01*
X166018537Y-60461970D01*
X166015332Y-60511840D01*
X166022168Y-60540476D01*
X166046464Y-60568828D01*
X166093728Y-60587609D01*
X166163624Y-60596712D01*
X166200650Y-60597624D01*
X166200650Y-60735940D01*
X165888614Y-60735940D01*
X165888614Y-60666782D01*
X165890256Y-60625260D01*
X165896087Y-60603838D01*
X165907461Y-60597626D01*
X165907798Y-60597624D01*
X165918938Y-60594742D01*
X165917673Y-60582030D01*
X165905433Y-60556757D01*
X165886707Y-60497869D01*
X165884739Y-60431615D01*
X165899184Y-60368759D01*
X165899184Y-60368759D01*
G37*
X165899184Y-60368759D02*
X165912282Y-60342247D01*
X165935106Y-60309553D01*
X165959996Y-60285725D01*
X165991249Y-60269406D01*
X166033166Y-60259240D01*
X166090044Y-60253872D01*
X166166184Y-60251944D01*
X166198917Y-60251831D01*
X166270656Y-60252161D01*
X166321927Y-60253527D01*
X166357404Y-60256500D01*
X166381763Y-60261649D01*
X166399680Y-60269543D01*
X166411902Y-60277757D01*
X166463905Y-60330187D01*
X166495184Y-60391930D01*
X166504592Y-60458536D01*
X166490980Y-60525558D01*
X166481354Y-60546792D01*
X166454859Y-60597624D01*
X166870052Y-60597624D01*
X166850868Y-60560525D01*
X166836025Y-60511643D01*
X166832222Y-60451561D01*
X166839243Y-60391564D01*
X166855013Y-60346256D01*
X166885047Y-60308675D01*
X166928024Y-60276564D01*
X166932436Y-60274150D01*
X166953221Y-60263967D01*
X166974170Y-60256530D01*
X166999548Y-60251411D01*
X167033618Y-60248181D01*
X167080641Y-60246413D01*
X167144882Y-60245677D01*
X167217176Y-60245544D01*
X167447822Y-60245544D01*
X167447822Y-60383861D01*
X167022533Y-60383861D01*
X166989979Y-60422549D01*
X166963940Y-60462738D01*
X166959205Y-60500797D01*
X166971389Y-60539066D01*
X166983320Y-60559462D01*
X167000313Y-60574642D01*
X167025995Y-60585438D01*
X167063991Y-60592683D01*
X167117926Y-60597208D01*
X167191425Y-60599844D01*
X167240347Y-60600772D01*
X167441535Y-60603911D01*
X167445336Y-60669926D01*
X167449136Y-60735940D01*
X166200650Y-60735940D01*
X166200650Y-60597624D01*
X166270254Y-60594097D01*
X166318569Y-60582215D01*
X166348631Y-60560020D01*
X166363471Y-60525559D01*
X166366436Y-60490742D01*
X166363028Y-60451329D01*
X166349617Y-60425171D01*
X166331896Y-60408814D01*
X166312835Y-60395937D01*
X166291601Y-60388272D01*
X166261849Y-60384861D01*
X166217236Y-60384749D01*
X166179880Y-60385897D01*
X166123604Y-60388532D01*
X166086658Y-60392456D01*
X166063223Y-60399063D01*
X166047480Y-60409749D01*
X166038380Y-60419833D01*
X166018537Y-60461970D01*
X166015332Y-60511840D01*
X166022168Y-60540476D01*
X166046464Y-60568828D01*
X166093728Y-60587609D01*
X166163624Y-60596712D01*
X166200650Y-60597624D01*
X166200650Y-60735940D01*
X165888614Y-60735940D01*
X165888614Y-60666782D01*
X165890256Y-60625260D01*
X165896087Y-60603838D01*
X165907461Y-60597626D01*
X165907798Y-60597624D01*
X165918938Y-60594742D01*
X165917673Y-60582030D01*
X165905433Y-60556757D01*
X165886707Y-60497869D01*
X165884739Y-60431615D01*
X165899184Y-60368759D01*
G36*
X166836555Y-59844210D02*
X166852339Y-59785055D01*
X166880948Y-59740023D01*
X166918419Y-59708246D01*
X166934411Y-59698366D01*
X166951163Y-59691073D01*
X166972592Y-59685974D01*
X167002616Y-59682679D01*
X167045154Y-59680797D01*
X167104122Y-59679937D01*
X167183440Y-59679707D01*
X167204484Y-59679703D01*
X167447822Y-59679703D01*
X167447822Y-59740059D01*
X167445126Y-59778557D01*
X167438295Y-59807023D01*
X167434083Y-59814155D01*
X167426813Y-59833652D01*
X167434083Y-59853566D01*
X167443160Y-59886353D01*
X167446813Y-59933978D01*
X167445228Y-59986764D01*
X167438589Y-60035036D01*
X167430072Y-60063218D01*
X167395063Y-60117753D01*
X167346479Y-60151835D01*
X167281882Y-60167157D01*
X167280223Y-60167299D01*
X167251566Y-60165955D01*
X167251566Y-60044356D01*
X167284161Y-60033726D01*
X167302505Y-60016410D01*
X167316379Y-59981652D01*
X167321917Y-59935773D01*
X167319191Y-59888988D01*
X167308274Y-59851514D01*
X167301269Y-59841015D01*
X167268904Y-59822668D01*
X167232111Y-59818020D01*
X167183763Y-59818020D01*
X167183763Y-59887582D01*
X167188850Y-59953667D01*
X167203263Y-60003764D01*
X167225729Y-60034929D01*
X167251566Y-60044356D01*
X167251566Y-60165955D01*
X167209647Y-60163987D01*
X167153845Y-60140710D01*
X167111647Y-60096948D01*
X167107808Y-60090899D01*
X167095309Y-60064907D01*
X167087740Y-60032735D01*
X167084061Y-59987760D01*
X167083216Y-59934331D01*
X167083169Y-59818020D01*
X167034411Y-59818020D01*
X166996581Y-59822953D01*
X166971236Y-59835543D01*
X166969887Y-59837017D01*
X166958800Y-59865034D01*
X166954503Y-59907326D01*
X166956615Y-59954064D01*
X166964756Y-59995418D01*
X166976965Y-60019957D01*
X166986746Y-60033253D01*
X166988613Y-60047294D01*
X166980600Y-60066671D01*
X166960739Y-60095976D01*
X166927063Y-60139803D01*
X166923909Y-60143825D01*
X166912236Y-60141764D01*
X166892822Y-60124568D01*
X166871248Y-60098433D01*
X166853096Y-60069552D01*
X166848809Y-60060478D01*
X166840256Y-60027380D01*
X166834155Y-59978880D01*
X166831708Y-59924695D01*
X166831703Y-59922161D01*
X166836555Y-59844210D01*
X166836555Y-59844210D01*
G37*
X166836555Y-59844210D02*
X166852339Y-59785055D01*
X166880948Y-59740023D01*
X166918419Y-59708246D01*
X166934411Y-59698366D01*
X166951163Y-59691073D01*
X166972592Y-59685974D01*
X167002616Y-59682679D01*
X167045154Y-59680797D01*
X167104122Y-59679937D01*
X167183440Y-59679707D01*
X167204484Y-59679703D01*
X167447822Y-59679703D01*
X167447822Y-59740059D01*
X167445126Y-59778557D01*
X167438295Y-59807023D01*
X167434083Y-59814155D01*
X167426813Y-59833652D01*
X167434083Y-59853566D01*
X167443160Y-59886353D01*
X167446813Y-59933978D01*
X167445228Y-59986764D01*
X167438589Y-60035036D01*
X167430072Y-60063218D01*
X167395063Y-60117753D01*
X167346479Y-60151835D01*
X167281882Y-60167157D01*
X167280223Y-60167299D01*
X167251566Y-60165955D01*
X167251566Y-60044356D01*
X167284161Y-60033726D01*
X167302505Y-60016410D01*
X167316379Y-59981652D01*
X167321917Y-59935773D01*
X167319191Y-59888988D01*
X167308274Y-59851514D01*
X167301269Y-59841015D01*
X167268904Y-59822668D01*
X167232111Y-59818020D01*
X167183763Y-59818020D01*
X167183763Y-59887582D01*
X167188850Y-59953667D01*
X167203263Y-60003764D01*
X167225729Y-60034929D01*
X167251566Y-60044356D01*
X167251566Y-60165955D01*
X167209647Y-60163987D01*
X167153845Y-60140710D01*
X167111647Y-60096948D01*
X167107808Y-60090899D01*
X167095309Y-60064907D01*
X167087740Y-60032735D01*
X167084061Y-59987760D01*
X167083216Y-59934331D01*
X167083169Y-59818020D01*
X167034411Y-59818020D01*
X166996581Y-59822953D01*
X166971236Y-59835543D01*
X166969887Y-59837017D01*
X166958800Y-59865034D01*
X166954503Y-59907326D01*
X166956615Y-59954064D01*
X166964756Y-59995418D01*
X166976965Y-60019957D01*
X166986746Y-60033253D01*
X166988613Y-60047294D01*
X166980600Y-60066671D01*
X166960739Y-60095976D01*
X166927063Y-60139803D01*
X166923909Y-60143825D01*
X166912236Y-60141764D01*
X166892822Y-60124568D01*
X166871248Y-60098433D01*
X166853096Y-60069552D01*
X166848809Y-60060478D01*
X166840256Y-60027380D01*
X166834155Y-59978880D01*
X166831708Y-59924695D01*
X166831703Y-59922161D01*
X166836555Y-59844210D01*
G36*
X166833020Y-59453356D02*
X166838660Y-59434539D01*
X166851053Y-59428473D01*
X166856647Y-59428218D01*
X166872230Y-59427129D01*
X166874676Y-59419632D01*
X166863993Y-59399381D01*
X166856694Y-59387351D01*
X166841063Y-59349400D01*
X166833334Y-59304072D01*
X166832740Y-59256544D01*
X166838513Y-59211995D01*
X166849884Y-59175602D01*
X166866088Y-59152543D01*
X166886355Y-59147996D01*
X166891843Y-59150291D01*
X166914626Y-59167020D01*
X166942647Y-59192963D01*
X166947177Y-59197655D01*
X166968005Y-59222383D01*
X166974735Y-59243718D01*
X166970038Y-59273555D01*
X166966917Y-59285508D01*
X166959421Y-59322705D01*
X166962792Y-59348859D01*
X166974681Y-59370946D01*
X166990635Y-59391178D01*
X167010700Y-59406079D01*
X167038702Y-59416434D01*
X167078467Y-59423029D01*
X167133823Y-59426649D01*
X167208594Y-59428078D01*
X167253740Y-59428218D01*
X167447822Y-59428218D01*
X167447822Y-59553960D01*
X166831683Y-59553960D01*
X166831683Y-59491089D01*
X166833020Y-59453356D01*
X166833020Y-59453356D01*
G37*
X166833020Y-59453356D02*
X166838660Y-59434539D01*
X166851053Y-59428473D01*
X166856647Y-59428218D01*
X166872230Y-59427129D01*
X166874676Y-59419632D01*
X166863993Y-59399381D01*
X166856694Y-59387351D01*
X166841063Y-59349400D01*
X166833334Y-59304072D01*
X166832740Y-59256544D01*
X166838513Y-59211995D01*
X166849884Y-59175602D01*
X166866088Y-59152543D01*
X166886355Y-59147996D01*
X166891843Y-59150291D01*
X166914626Y-59167020D01*
X166942647Y-59192963D01*
X166947177Y-59197655D01*
X166968005Y-59222383D01*
X166974735Y-59243718D01*
X166970038Y-59273555D01*
X166966917Y-59285508D01*
X166959421Y-59322705D01*
X166962792Y-59348859D01*
X166974681Y-59370946D01*
X166990635Y-59391178D01*
X167010700Y-59406079D01*
X167038702Y-59416434D01*
X167078467Y-59423029D01*
X167133823Y-59426649D01*
X167208594Y-59428078D01*
X167253740Y-59428218D01*
X167447822Y-59428218D01*
X167447822Y-59553960D01*
X166831683Y-59553960D01*
X166831683Y-59491089D01*
X166833020Y-59453356D01*
G36*
X167447822Y-58661188D02*
X167447822Y-58730346D01*
X167446645Y-58770488D01*
X167441772Y-58791394D01*
X167431186Y-58798922D01*
X167424029Y-58799505D01*
X167409676Y-58800774D01*
X167406923Y-58808779D01*
X167415771Y-58829815D01*
X167424029Y-58846173D01*
X167443597Y-58908977D01*
X167444729Y-58977248D01*
X167430135Y-59032752D01*
X167394877Y-59084438D01*
X167342835Y-59123838D01*
X167281450Y-59145413D01*
X167278018Y-59145962D01*
X167240571Y-59149167D01*
X167186813Y-59150761D01*
X167146155Y-59150633D01*
X167146155Y-59013279D01*
X167200194Y-59010097D01*
X167244735Y-59002859D01*
X167269888Y-58993060D01*
X167304260Y-58955989D01*
X167316582Y-58911974D01*
X167306618Y-58866584D01*
X167276895Y-58827797D01*
X167256905Y-58813108D01*
X167233050Y-58804519D01*
X167198230Y-58800496D01*
X167145930Y-58799505D01*
X167094139Y-58801278D01*
X167048634Y-58805963D01*
X167018181Y-58812603D01*
X167015452Y-58813710D01*
X166983000Y-58840491D01*
X166965183Y-58879579D01*
X166962306Y-58923315D01*
X166974674Y-58964038D01*
X167002593Y-58994087D01*
X167008148Y-58997204D01*
X167042022Y-59006961D01*
X167090728Y-59012277D01*
X167146155Y-59013279D01*
X167146155Y-59150633D01*
X167125540Y-59150568D01*
X167092563Y-59149664D01*
X167010981Y-59143514D01*
X166949730Y-59130733D01*
X166904449Y-59109471D01*
X166870779Y-59077878D01*
X166851014Y-59047207D01*
X166837120Y-59004354D01*
X166832354Y-58951056D01*
X166836236Y-58896480D01*
X166848282Y-58849792D01*
X166862693Y-58825124D01*
X166885878Y-58799505D01*
X166592773Y-58799505D01*
X166592773Y-58661188D01*
X167447822Y-58661188D01*
X167447822Y-58661188D01*
G37*
X167447822Y-58661188D02*
X167447822Y-58730346D01*
X167446645Y-58770488D01*
X167441772Y-58791394D01*
X167431186Y-58798922D01*
X167424029Y-58799505D01*
X167409676Y-58800774D01*
X167406923Y-58808779D01*
X167415771Y-58829815D01*
X167424029Y-58846173D01*
X167443597Y-58908977D01*
X167444729Y-58977248D01*
X167430135Y-59032752D01*
X167394877Y-59084438D01*
X167342835Y-59123838D01*
X167281450Y-59145413D01*
X167278018Y-59145962D01*
X167240571Y-59149167D01*
X167186813Y-59150761D01*
X167146155Y-59150633D01*
X167146155Y-59013279D01*
X167200194Y-59010097D01*
X167244735Y-59002859D01*
X167269888Y-58993060D01*
X167304260Y-58955989D01*
X167316582Y-58911974D01*
X167306618Y-58866584D01*
X167276895Y-58827797D01*
X167256905Y-58813108D01*
X167233050Y-58804519D01*
X167198230Y-58800496D01*
X167145930Y-58799505D01*
X167094139Y-58801278D01*
X167048634Y-58805963D01*
X167018181Y-58812603D01*
X167015452Y-58813710D01*
X166983000Y-58840491D01*
X166965183Y-58879579D01*
X166962306Y-58923315D01*
X166974674Y-58964038D01*
X167002593Y-58994087D01*
X167008148Y-58997204D01*
X167042022Y-59006961D01*
X167090728Y-59012277D01*
X167146155Y-59013279D01*
X167146155Y-59150633D01*
X167125540Y-59150568D01*
X167092563Y-59149664D01*
X167010981Y-59143514D01*
X166949730Y-59130733D01*
X166904449Y-59109471D01*
X166870779Y-59077878D01*
X166851014Y-59047207D01*
X166837120Y-59004354D01*
X166832354Y-58951056D01*
X166836236Y-58896480D01*
X166848282Y-58849792D01*
X166862693Y-58825124D01*
X166885878Y-58799505D01*
X166592773Y-58799505D01*
X166592773Y-58661188D01*
X167447822Y-58661188D01*
G36*
X166834237Y-58178476D02*
X166837971Y-58128745D01*
X167227773Y-57998709D01*
X167158614Y-57978322D01*
X167115874Y-57966054D01*
X167058115Y-57949915D01*
X166994625Y-57932488D01*
X166960570Y-57923274D01*
X166831683Y-57888612D01*
X166831683Y-57745609D01*
X166966857Y-57788354D01*
X167033342Y-57809404D01*
X167113539Y-57834833D01*
X167197193Y-57861390D01*
X167271782Y-57885098D01*
X167441535Y-57939098D01*
X167445328Y-57997402D01*
X167449122Y-58055705D01*
X167344734Y-58087321D01*
X167279889Y-58106818D01*
X167208400Y-58128096D01*
X167145263Y-58146692D01*
X167142750Y-58147426D01*
X167099969Y-58161316D01*
X167070779Y-58173571D01*
X167059741Y-58182154D01*
X167061018Y-58183918D01*
X167078130Y-58190109D01*
X167114787Y-58201872D01*
X167166378Y-58217775D01*
X167228294Y-58236386D01*
X167262352Y-58246457D01*
X167447822Y-58300993D01*
X167447822Y-58416736D01*
X167155471Y-58509263D01*
X167073462Y-58535256D01*
X166998987Y-58558934D01*
X166935544Y-58579180D01*
X166886632Y-58594874D01*
X166855749Y-58604898D01*
X166846726Y-58607945D01*
X166837487Y-58605533D01*
X166833441Y-58586592D01*
X166833846Y-58547177D01*
X166834152Y-58541007D01*
X166837971Y-58467914D01*
X167014010Y-58420043D01*
X167078211Y-58402447D01*
X167134649Y-58386723D01*
X167178422Y-58374254D01*
X167204630Y-58366426D01*
X167208903Y-58364980D01*
X167203990Y-58358986D01*
X167178532Y-58346899D01*
X167135997Y-58330107D01*
X167079850Y-58309997D01*
X167029130Y-58292997D01*
X166830504Y-58228206D01*
X166834237Y-58178476D01*
X166834237Y-58178476D01*
G37*
X166834237Y-58178476D02*
X166837971Y-58128745D01*
X167227773Y-57998709D01*
X167158614Y-57978322D01*
X167115874Y-57966054D01*
X167058115Y-57949915D01*
X166994625Y-57932488D01*
X166960570Y-57923274D01*
X166831683Y-57888612D01*
X166831683Y-57745609D01*
X166966857Y-57788354D01*
X167033342Y-57809404D01*
X167113539Y-57834833D01*
X167197193Y-57861390D01*
X167271782Y-57885098D01*
X167441535Y-57939098D01*
X167445328Y-57997402D01*
X167449122Y-58055705D01*
X167344734Y-58087321D01*
X167279889Y-58106818D01*
X167208400Y-58128096D01*
X167145263Y-58146692D01*
X167142750Y-58147426D01*
X167099969Y-58161316D01*
X167070779Y-58173571D01*
X167059741Y-58182154D01*
X167061018Y-58183918D01*
X167078130Y-58190109D01*
X167114787Y-58201872D01*
X167166378Y-58217775D01*
X167228294Y-58236386D01*
X167262352Y-58246457D01*
X167447822Y-58300993D01*
X167447822Y-58416736D01*
X167155471Y-58509263D01*
X167073462Y-58535256D01*
X166998987Y-58558934D01*
X166935544Y-58579180D01*
X166886632Y-58594874D01*
X166855749Y-58604898D01*
X166846726Y-58607945D01*
X166837487Y-58605533D01*
X166833441Y-58586592D01*
X166833846Y-58547177D01*
X166834152Y-58541007D01*
X166837971Y-58467914D01*
X167014010Y-58420043D01*
X167078211Y-58402447D01*
X167134649Y-58386723D01*
X167178422Y-58374254D01*
X167204630Y-58366426D01*
X167208903Y-58364980D01*
X167203990Y-58358986D01*
X167178532Y-58346899D01*
X167135997Y-58330107D01*
X167079850Y-58309997D01*
X167029130Y-58292997D01*
X166830504Y-58228206D01*
X166834237Y-58178476D01*
G36*
X166835417Y-57421589D02*
X166848290Y-57368589D01*
X166855110Y-57353269D01*
X166872974Y-57323572D01*
X166893093Y-57300780D01*
X166918962Y-57283917D01*
X166954073Y-57272002D01*
X167001920Y-57264058D01*
X167065996Y-57259106D01*
X167149794Y-57256169D01*
X167205768Y-57255053D01*
X167447822Y-57250948D01*
X167447822Y-57321068D01*
X167446038Y-57363607D01*
X167439942Y-57385524D01*
X167429706Y-57391188D01*
X167418637Y-57394179D01*
X167420754Y-57407549D01*
X167429629Y-57425767D01*
X167443233Y-57471376D01*
X167446899Y-57529993D01*
X167440903Y-57591646D01*
X167425521Y-57646362D01*
X167423386Y-57651270D01*
X167388255Y-57701277D01*
X167339419Y-57734244D01*
X167282333Y-57749413D01*
X167261824Y-57748254D01*
X167261824Y-57624492D01*
X167289425Y-57613587D01*
X167309204Y-57581255D01*
X167319819Y-57529090D01*
X167321228Y-57501213D01*
X167317620Y-57454753D01*
X167303597Y-57423871D01*
X167296931Y-57416336D01*
X167260666Y-57395924D01*
X167227773Y-57391188D01*
X167183763Y-57391188D01*
X167183763Y-57452487D01*
X167187395Y-57523744D01*
X167198818Y-57573724D01*
X167218824Y-57605304D01*
X167227743Y-57612374D01*
X167261824Y-57624492D01*
X167261824Y-57748254D01*
X167222456Y-57746029D01*
X167165244Y-57723337D01*
X167126580Y-57692376D01*
X167109864Y-57673624D01*
X167098878Y-57655267D01*
X167092180Y-57631381D01*
X167088326Y-57596043D01*
X167085873Y-57543331D01*
X167085168Y-57522423D01*
X167080879Y-57391188D01*
X167041158Y-57391380D01*
X166999405Y-57396463D01*
X166974158Y-57414838D01*
X166958030Y-57451961D01*
X166957742Y-57452957D01*
X166951400Y-57505590D01*
X166959684Y-57557094D01*
X166979827Y-57595370D01*
X166989773Y-57610728D01*
X166988397Y-57627270D01*
X166973987Y-57652725D01*
X166963817Y-57667672D01*
X166942088Y-57696909D01*
X166925800Y-57715020D01*
X166921137Y-57717926D01*
X166897005Y-57705960D01*
X166868185Y-57670604D01*
X166858461Y-57655247D01*
X166841714Y-57611099D01*
X166832227Y-57551602D01*
X166830095Y-57485513D01*
X166835417Y-57421589D01*
X166835417Y-57421589D01*
G37*
X166835417Y-57421589D02*
X166848290Y-57368589D01*
X166855110Y-57353269D01*
X166872974Y-57323572D01*
X166893093Y-57300780D01*
X166918962Y-57283917D01*
X166954073Y-57272002D01*
X167001920Y-57264058D01*
X167065996Y-57259106D01*
X167149794Y-57256169D01*
X167205768Y-57255053D01*
X167447822Y-57250948D01*
X167447822Y-57321068D01*
X167446038Y-57363607D01*
X167439942Y-57385524D01*
X167429706Y-57391188D01*
X167418637Y-57394179D01*
X167420754Y-57407549D01*
X167429629Y-57425767D01*
X167443233Y-57471376D01*
X167446899Y-57529993D01*
X167440903Y-57591646D01*
X167425521Y-57646362D01*
X167423386Y-57651270D01*
X167388255Y-57701277D01*
X167339419Y-57734244D01*
X167282333Y-57749413D01*
X167261824Y-57748254D01*
X167261824Y-57624492D01*
X167289425Y-57613587D01*
X167309204Y-57581255D01*
X167319819Y-57529090D01*
X167321228Y-57501213D01*
X167317620Y-57454753D01*
X167303597Y-57423871D01*
X167296931Y-57416336D01*
X167260666Y-57395924D01*
X167227773Y-57391188D01*
X167183763Y-57391188D01*
X167183763Y-57452487D01*
X167187395Y-57523744D01*
X167198818Y-57573724D01*
X167218824Y-57605304D01*
X167227743Y-57612374D01*
X167261824Y-57624492D01*
X167261824Y-57748254D01*
X167222456Y-57746029D01*
X167165244Y-57723337D01*
X167126580Y-57692376D01*
X167109864Y-57673624D01*
X167098878Y-57655267D01*
X167092180Y-57631381D01*
X167088326Y-57596043D01*
X167085873Y-57543331D01*
X167085168Y-57522423D01*
X167080879Y-57391188D01*
X167041158Y-57391380D01*
X166999405Y-57396463D01*
X166974158Y-57414838D01*
X166958030Y-57451961D01*
X166957742Y-57452957D01*
X166951400Y-57505590D01*
X166959684Y-57557094D01*
X166979827Y-57595370D01*
X166989773Y-57610728D01*
X166988397Y-57627270D01*
X166973987Y-57652725D01*
X166963817Y-57667672D01*
X166942088Y-57696909D01*
X166925800Y-57715020D01*
X166921137Y-57717926D01*
X166897005Y-57705960D01*
X166868185Y-57670604D01*
X166858461Y-57655247D01*
X166841714Y-57611099D01*
X166832227Y-57551602D01*
X166830095Y-57485513D01*
X166835417Y-57421589D01*
G36*
X166831486Y-56824745D02*
X166841015Y-56776405D01*
X166855125Y-56748886D01*
X166878568Y-56719936D01*
X166930571Y-56761124D01*
X166962064Y-56786518D01*
X166977428Y-56803762D01*
X166979776Y-56820898D01*
X166972217Y-56845973D01*
X166967941Y-56857743D01*
X166961631Y-56905730D01*
X166975156Y-56949676D01*
X167005710Y-56981940D01*
X167015452Y-56987181D01*
X167041258Y-56992888D01*
X167088817Y-56997294D01*
X167154758Y-57000189D01*
X167235710Y-57001369D01*
X167247226Y-57001386D01*
X167447822Y-57001386D01*
X167447822Y-57139703D01*
X166831683Y-57139703D01*
X166831683Y-57070544D01*
X166832725Y-57030667D01*
X166837358Y-57009893D01*
X166847849Y-57002211D01*
X166857745Y-57001386D01*
X166883806Y-57001386D01*
X166857745Y-56968255D01*
X166839965Y-56930265D01*
X166831174Y-56879230D01*
X166831486Y-56824745D01*
X166831486Y-56824745D01*
G37*
X166831486Y-56824745D02*
X166841015Y-56776405D01*
X166855125Y-56748886D01*
X166878568Y-56719936D01*
X166930571Y-56761124D01*
X166962064Y-56786518D01*
X166977428Y-56803762D01*
X166979776Y-56820898D01*
X166972217Y-56845973D01*
X166967941Y-56857743D01*
X166961631Y-56905730D01*
X166975156Y-56949676D01*
X167005710Y-56981940D01*
X167015452Y-56987181D01*
X167041258Y-56992888D01*
X167088817Y-56997294D01*
X167154758Y-57000189D01*
X167235710Y-57001369D01*
X167247226Y-57001386D01*
X167447822Y-57001386D01*
X167447822Y-57139703D01*
X166831683Y-57139703D01*
X166831683Y-57070544D01*
X166832725Y-57030667D01*
X166837358Y-57009893D01*
X166847849Y-57002211D01*
X166857745Y-57001386D01*
X166883806Y-57001386D01*
X166857745Y-56968255D01*
X166839965Y-56930265D01*
X166831174Y-56879230D01*
X166831486Y-56824745D01*
G36*
X166834970Y-56427419D02*
X166850597Y-56367315D01*
X166882848Y-56316979D01*
X166906940Y-56292607D01*
X166963895Y-56252655D01*
X167029965Y-56229758D01*
X167111182Y-56221892D01*
X167117748Y-56221852D01*
X167183763Y-56221782D01*
X167183763Y-56601736D01*
X167218342Y-56593637D01*
X167249659Y-56579013D01*
X167282291Y-56553419D01*
X167287500Y-56548065D01*
X167315694Y-56502057D01*
X167320475Y-56449590D01*
X167301926Y-56389197D01*
X167296931Y-56378960D01*
X167281745Y-56347561D01*
X167273094Y-56326530D01*
X167272293Y-56322861D01*
X167280063Y-56310052D01*
X167299072Y-56285622D01*
X167309460Y-56273221D01*
X167333321Y-56247524D01*
X167349077Y-56239085D01*
X167363571Y-56244942D01*
X167367534Y-56248072D01*
X167384879Y-56269275D01*
X167405959Y-56304262D01*
X167418265Y-56328663D01*
X167439946Y-56397928D01*
X167446971Y-56474612D01*
X167438647Y-56547235D01*
X167432686Y-56567574D01*
X167398952Y-56630524D01*
X167347045Y-56677185D01*
X167276459Y-56707827D01*
X167186692Y-56722718D01*
X167139753Y-56724353D01*
X167071413Y-56719579D01*
X167071413Y-56599010D01*
X167076465Y-56587348D01*
X167080429Y-56556002D01*
X167082768Y-56510429D01*
X167083169Y-56479554D01*
X167082783Y-56424019D01*
X167080975Y-56388967D01*
X167076773Y-56369738D01*
X167069203Y-56361670D01*
X167058218Y-56360099D01*
X167024381Y-56370879D01*
X166990940Y-56398020D01*
X166965272Y-56433723D01*
X166954772Y-56469440D01*
X166964086Y-56517952D01*
X166991013Y-56559947D01*
X167029827Y-56589064D01*
X167071413Y-56599010D01*
X167071413Y-56719579D01*
X167040236Y-56717401D01*
X166960949Y-56695945D01*
X166901263Y-56659530D01*
X166860549Y-56607703D01*
X166838179Y-56540010D01*
X166833871Y-56503338D01*
X166834970Y-56427419D01*
X166834970Y-56427419D01*
G37*
X166834970Y-56427419D02*
X166850597Y-56367315D01*
X166882848Y-56316979D01*
X166906940Y-56292607D01*
X166963895Y-56252655D01*
X167029965Y-56229758D01*
X167111182Y-56221892D01*
X167117748Y-56221852D01*
X167183763Y-56221782D01*
X167183763Y-56601736D01*
X167218342Y-56593637D01*
X167249659Y-56579013D01*
X167282291Y-56553419D01*
X167287500Y-56548065D01*
X167315694Y-56502057D01*
X167320475Y-56449590D01*
X167301926Y-56389197D01*
X167296931Y-56378960D01*
X167281745Y-56347561D01*
X167273094Y-56326530D01*
X167272293Y-56322861D01*
X167280063Y-56310052D01*
X167299072Y-56285622D01*
X167309460Y-56273221D01*
X167333321Y-56247524D01*
X167349077Y-56239085D01*
X167363571Y-56244942D01*
X167367534Y-56248072D01*
X167384879Y-56269275D01*
X167405959Y-56304262D01*
X167418265Y-56328663D01*
X167439946Y-56397928D01*
X167446971Y-56474612D01*
X167438647Y-56547235D01*
X167432686Y-56567574D01*
X167398952Y-56630524D01*
X167347045Y-56677185D01*
X167276459Y-56707827D01*
X167186692Y-56722718D01*
X167139753Y-56724353D01*
X167071413Y-56719579D01*
X167071413Y-56599010D01*
X167076465Y-56587348D01*
X167080429Y-56556002D01*
X167082768Y-56510429D01*
X167083169Y-56479554D01*
X167082783Y-56424019D01*
X167080975Y-56388967D01*
X167076773Y-56369738D01*
X167069203Y-56361670D01*
X167058218Y-56360099D01*
X167024381Y-56370879D01*
X166990940Y-56398020D01*
X166965272Y-56433723D01*
X166954772Y-56469440D01*
X166964086Y-56517952D01*
X166991013Y-56559947D01*
X167029827Y-56589064D01*
X167071413Y-56599010D01*
X167071413Y-56719579D01*
X167040236Y-56717401D01*
X166960949Y-56695945D01*
X166901263Y-56659530D01*
X166860549Y-56607703D01*
X166838179Y-56540010D01*
X166833871Y-56503338D01*
X166834970Y-56427419D01*
G36*
X165895148Y-60998261D02*
X165924231Y-60932479D01*
X165972793Y-60882540D01*
X166040908Y-60848374D01*
X166128651Y-60829907D01*
X166142351Y-60828583D01*
X166238939Y-60827546D01*
X166323602Y-60840993D01*
X166392221Y-60868108D01*
X166414294Y-60882627D01*
X166461011Y-60933201D01*
X166491268Y-60997609D01*
X166503824Y-61069666D01*
X166497439Y-61143185D01*
X166477772Y-61199072D01*
X166444629Y-61247132D01*
X166401175Y-61286412D01*
X166400158Y-61287092D01*
X166373338Y-61303044D01*
X166346368Y-61313410D01*
X166312332Y-61319688D01*
X166264310Y-61323373D01*
X166224931Y-61324997D01*
X166189219Y-61325672D01*
X166189219Y-61199955D01*
X166224770Y-61198726D01*
X166272094Y-61194266D01*
X166302465Y-61186397D01*
X166324072Y-61172207D01*
X166336694Y-61158917D01*
X166363122Y-61111802D01*
X166366653Y-61062505D01*
X166347639Y-61016593D01*
X166326331Y-60993638D01*
X166304859Y-60977096D01*
X166284313Y-60967421D01*
X166257574Y-60963174D01*
X166217523Y-60962920D01*
X166180638Y-60964228D01*
X166127947Y-60967043D01*
X166093772Y-60971505D01*
X166071480Y-60979548D01*
X166054442Y-60993103D01*
X166044703Y-61003845D01*
X166019123Y-61048777D01*
X166017847Y-61097249D01*
X166032999Y-61137894D01*
X166064642Y-61172567D01*
X166116620Y-61193224D01*
X166189219Y-61199955D01*
X166189219Y-61325672D01*
X166146621Y-61326479D01*
X166088056Y-61323948D01*
X166044007Y-61316362D01*
X166009248Y-61302681D01*
X165978551Y-61281865D01*
X165969436Y-61274147D01*
X165924021Y-61225889D01*
X165897493Y-61174128D01*
X165886379Y-61110828D01*
X165885471Y-61079961D01*
X165895148Y-60998261D01*
X165895148Y-60998261D01*
G37*
X165895148Y-60998261D02*
X165924231Y-60932479D01*
X165972793Y-60882540D01*
X166040908Y-60848374D01*
X166128651Y-60829907D01*
X166142351Y-60828583D01*
X166238939Y-60827546D01*
X166323602Y-60840993D01*
X166392221Y-60868108D01*
X166414294Y-60882627D01*
X166461011Y-60933201D01*
X166491268Y-60997609D01*
X166503824Y-61069666D01*
X166497439Y-61143185D01*
X166477772Y-61199072D01*
X166444629Y-61247132D01*
X166401175Y-61286412D01*
X166400158Y-61287092D01*
X166373338Y-61303044D01*
X166346368Y-61313410D01*
X166312332Y-61319688D01*
X166264310Y-61323373D01*
X166224931Y-61324997D01*
X166189219Y-61325672D01*
X166189219Y-61199955D01*
X166224770Y-61198726D01*
X166272094Y-61194266D01*
X166302465Y-61186397D01*
X166324072Y-61172207D01*
X166336694Y-61158917D01*
X166363122Y-61111802D01*
X166366653Y-61062505D01*
X166347639Y-61016593D01*
X166326331Y-60993638D01*
X166304859Y-60977096D01*
X166284313Y-60967421D01*
X166257574Y-60963174D01*
X166217523Y-60962920D01*
X166180638Y-60964228D01*
X166127947Y-60967043D01*
X166093772Y-60971505D01*
X166071480Y-60979548D01*
X166054442Y-60993103D01*
X166044703Y-61003845D01*
X166019123Y-61048777D01*
X166017847Y-61097249D01*
X166032999Y-61137894D01*
X166064642Y-61172567D01*
X166116620Y-61193224D01*
X166189219Y-61199955D01*
X166189219Y-61325672D01*
X166146621Y-61326479D01*
X166088056Y-61323948D01*
X166044007Y-61316362D01*
X166009248Y-61302681D01*
X165978551Y-61281865D01*
X165969436Y-61274147D01*
X165924021Y-61225889D01*
X165897493Y-61174128D01*
X165886379Y-61110828D01*
X165885471Y-61079961D01*
X165895148Y-60998261D01*
G36*
X165902614Y-59816699D02*
X165908514Y-59804168D01*
X165940283Y-59760799D01*
X165986646Y-59719790D01*
X166037696Y-59689168D01*
X166061166Y-59680459D01*
X166103091Y-59672512D01*
X166153757Y-59667774D01*
X166174679Y-59667199D01*
X166240693Y-59667129D01*
X166240693Y-60047083D01*
X166275273Y-60038983D01*
X166316170Y-60019104D01*
X166351514Y-59984347D01*
X166374282Y-59942998D01*
X166379010Y-59916649D01*
X166373273Y-59880916D01*
X166358882Y-59838282D01*
X166352262Y-59823799D01*
X166325513Y-59770240D01*
X166360376Y-59724533D01*
X166383955Y-59698158D01*
X166403417Y-59684124D01*
X166409129Y-59683414D01*
X166422973Y-59695951D01*
X166444012Y-59723428D01*
X166460425Y-59748366D01*
X166489930Y-59815664D01*
X166503284Y-59891110D01*
X166499812Y-59965888D01*
X166481663Y-60025495D01*
X166442784Y-60086941D01*
X166391595Y-60130608D01*
X166325367Y-60157926D01*
X166241371Y-60170322D01*
X166202936Y-60171421D01*
X166114861Y-60167022D01*
X166112299Y-60166482D01*
X166112299Y-60040582D01*
X166120558Y-60037115D01*
X166125113Y-60022863D01*
X166127065Y-59993470D01*
X166127517Y-59944575D01*
X166127525Y-59925748D01*
X166126843Y-59868467D01*
X166124364Y-59832141D01*
X166119443Y-59812604D01*
X166111434Y-59805690D01*
X166108862Y-59805445D01*
X166088423Y-59813336D01*
X166059789Y-59833085D01*
X166049763Y-59841575D01*
X166021408Y-59873094D01*
X166010259Y-59905949D01*
X166009327Y-59923651D01*
X166020981Y-59971539D01*
X166052285Y-60011699D01*
X166097752Y-60037173D01*
X166099233Y-60037625D01*
X166112299Y-60040582D01*
X166112299Y-60166482D01*
X166045510Y-60152392D01*
X165990025Y-60126038D01*
X165950639Y-60093807D01*
X165907931Y-60034217D01*
X165885109Y-59964168D01*
X165883046Y-59889661D01*
X165902614Y-59816699D01*
X165902614Y-59816699D01*
G37*
X165902614Y-59816699D02*
X165908514Y-59804168D01*
X165940283Y-59760799D01*
X165986646Y-59719790D01*
X166037696Y-59689168D01*
X166061166Y-59680459D01*
X166103091Y-59672512D01*
X166153757Y-59667774D01*
X166174679Y-59667199D01*
X166240693Y-59667129D01*
X166240693Y-60047083D01*
X166275273Y-60038983D01*
X166316170Y-60019104D01*
X166351514Y-59984347D01*
X166374282Y-59942998D01*
X166379010Y-59916649D01*
X166373273Y-59880916D01*
X166358882Y-59838282D01*
X166352262Y-59823799D01*
X166325513Y-59770240D01*
X166360376Y-59724533D01*
X166383955Y-59698158D01*
X166403417Y-59684124D01*
X166409129Y-59683414D01*
X166422973Y-59695951D01*
X166444012Y-59723428D01*
X166460425Y-59748366D01*
X166489930Y-59815664D01*
X166503284Y-59891110D01*
X166499812Y-59965888D01*
X166481663Y-60025495D01*
X166442784Y-60086941D01*
X166391595Y-60130608D01*
X166325367Y-60157926D01*
X166241371Y-60170322D01*
X166202936Y-60171421D01*
X166114861Y-60167022D01*
X166112299Y-60166482D01*
X166112299Y-60040582D01*
X166120558Y-60037115D01*
X166125113Y-60022863D01*
X166127065Y-59993470D01*
X166127517Y-59944575D01*
X166127525Y-59925748D01*
X166126843Y-59868467D01*
X166124364Y-59832141D01*
X166119443Y-59812604D01*
X166111434Y-59805690D01*
X166108862Y-59805445D01*
X166088423Y-59813336D01*
X166059789Y-59833085D01*
X166049763Y-59841575D01*
X166021408Y-59873094D01*
X166010259Y-59905949D01*
X166009327Y-59923651D01*
X166020981Y-59971539D01*
X166052285Y-60011699D01*
X166097752Y-60037173D01*
X166099233Y-60037625D01*
X166112299Y-60040582D01*
X166112299Y-60166482D01*
X166045510Y-60152392D01*
X165990025Y-60126038D01*
X165950639Y-60093807D01*
X165907931Y-60034217D01*
X165885109Y-59964168D01*
X165883046Y-59889661D01*
X165902614Y-59816699D01*
G36*
X165886452Y-58445983D02*
X165895482Y-58398366D01*
X165914370Y-58348966D01*
X165916777Y-58343688D01*
X165936476Y-58306226D01*
X165954781Y-58280283D01*
X165966508Y-58271897D01*
X165985632Y-58279883D01*
X166013850Y-58299280D01*
X166024384Y-58307890D01*
X166065847Y-58343372D01*
X166038858Y-58389115D01*
X166020878Y-58432650D01*
X166011267Y-58482950D01*
X166010660Y-58531188D01*
X166019691Y-58568533D01*
X166025327Y-58577495D01*
X166051171Y-58594563D01*
X166080941Y-58596637D01*
X166104197Y-58583866D01*
X166108708Y-58576312D01*
X166114309Y-58553675D01*
X166120892Y-58513885D01*
X166127183Y-58464834D01*
X166128170Y-58455785D01*
X166141798Y-58377004D01*
X166164946Y-58319864D01*
X166199752Y-58281970D01*
X166248354Y-58260921D01*
X166307718Y-58254365D01*
X166375198Y-58263423D01*
X166428188Y-58292836D01*
X166466783Y-58342722D01*
X166491081Y-58413200D01*
X166500667Y-58491435D01*
X166500552Y-58555234D01*
X166491845Y-58606984D01*
X166479825Y-58642327D01*
X166458880Y-58686983D01*
X166434574Y-58728253D01*
X166423876Y-58742921D01*
X166393084Y-58780643D01*
X166347049Y-58735148D01*
X166301013Y-58689653D01*
X166335243Y-58637928D01*
X166360952Y-58586048D01*
X166374399Y-58530649D01*
X166375818Y-58477395D01*
X166365443Y-58431951D01*
X166343507Y-58399984D01*
X166324998Y-58389662D01*
X166295314Y-58391211D01*
X166272615Y-58416860D01*
X166256940Y-58466540D01*
X166249695Y-58520969D01*
X166235873Y-58604736D01*
X166209796Y-58666967D01*
X166170699Y-58708493D01*
X166117820Y-58730147D01*
X166055126Y-58733147D01*
X165989642Y-58718329D01*
X165940144Y-58684546D01*
X165906408Y-58631495D01*
X165888207Y-58558874D01*
X165884639Y-58505072D01*
X165886452Y-58445983D01*
X165886452Y-58445983D01*
G37*
X165886452Y-58445983D02*
X165895482Y-58398366D01*
X165914370Y-58348966D01*
X165916777Y-58343688D01*
X165936476Y-58306226D01*
X165954781Y-58280283D01*
X165966508Y-58271897D01*
X165985632Y-58279883D01*
X166013850Y-58299280D01*
X166024384Y-58307890D01*
X166065847Y-58343372D01*
X166038858Y-58389115D01*
X166020878Y-58432650D01*
X166011267Y-58482950D01*
X166010660Y-58531188D01*
X166019691Y-58568533D01*
X166025327Y-58577495D01*
X166051171Y-58594563D01*
X166080941Y-58596637D01*
X166104197Y-58583866D01*
X166108708Y-58576312D01*
X166114309Y-58553675D01*
X166120892Y-58513885D01*
X166127183Y-58464834D01*
X166128170Y-58455785D01*
X166141798Y-58377004D01*
X166164946Y-58319864D01*
X166199752Y-58281970D01*
X166248354Y-58260921D01*
X166307718Y-58254365D01*
X166375198Y-58263423D01*
X166428188Y-58292836D01*
X166466783Y-58342722D01*
X166491081Y-58413200D01*
X166500667Y-58491435D01*
X166500552Y-58555234D01*
X166491845Y-58606984D01*
X166479825Y-58642327D01*
X166458880Y-58686983D01*
X166434574Y-58728253D01*
X166423876Y-58742921D01*
X166393084Y-58780643D01*
X166347049Y-58735148D01*
X166301013Y-58689653D01*
X166335243Y-58637928D01*
X166360952Y-58586048D01*
X166374399Y-58530649D01*
X166375818Y-58477395D01*
X166365443Y-58431951D01*
X166343507Y-58399984D01*
X166324998Y-58389662D01*
X166295314Y-58391211D01*
X166272615Y-58416860D01*
X166256940Y-58466540D01*
X166249695Y-58520969D01*
X166235873Y-58604736D01*
X166209796Y-58666967D01*
X166170699Y-58708493D01*
X166117820Y-58730147D01*
X166055126Y-58733147D01*
X165989642Y-58718329D01*
X165940144Y-58684546D01*
X165906408Y-58631495D01*
X165888207Y-58558874D01*
X165884639Y-58505072D01*
X165886452Y-58445983D01*
G36*
X165896055Y-57849238D02*
X165930692Y-57785637D01*
X165985372Y-57735877D01*
X166029842Y-57712432D01*
X166069121Y-57702366D01*
X166125116Y-57695844D01*
X166189621Y-57693049D01*
X166254429Y-57694164D01*
X166311334Y-57699374D01*
X166341727Y-57705459D01*
X166383306Y-57725986D01*
X166427468Y-57761537D01*
X166466087Y-57804381D01*
X166491034Y-57846789D01*
X166491430Y-57847823D01*
X166502331Y-57900447D01*
X166502601Y-57962812D01*
X166492676Y-58022076D01*
X166484722Y-58044960D01*
X166451300Y-58103898D01*
X166407511Y-58146110D01*
X166349538Y-58173844D01*
X166273565Y-58189349D01*
X166233771Y-58192857D01*
X166183766Y-58192410D01*
X166183766Y-58057624D01*
X166256732Y-58053083D01*
X166312334Y-58040014D01*
X166347861Y-58019244D01*
X166358020Y-58004448D01*
X166365104Y-57966536D01*
X166363007Y-57921473D01*
X166352812Y-57882513D01*
X166347204Y-57872296D01*
X166314538Y-57845341D01*
X166264545Y-57827549D01*
X166203705Y-57819976D01*
X166138497Y-57823675D01*
X166099253Y-57831943D01*
X166053805Y-57855680D01*
X166025396Y-57893151D01*
X166015573Y-57938280D01*
X166025887Y-57984989D01*
X166051112Y-58020868D01*
X166071925Y-58039723D01*
X166092439Y-58050728D01*
X166120203Y-58055974D01*
X166162762Y-58057551D01*
X166183766Y-58057624D01*
X166183766Y-58192410D01*
X166127580Y-58191906D01*
X166040501Y-58174612D01*
X165972530Y-58140971D01*
X165923664Y-58090982D01*
X165893899Y-58024644D01*
X165890448Y-58010399D01*
X165882345Y-57924790D01*
X165896055Y-57849238D01*
X165896055Y-57849238D01*
G37*
X165896055Y-57849238D02*
X165930692Y-57785637D01*
X165985372Y-57735877D01*
X166029842Y-57712432D01*
X166069121Y-57702366D01*
X166125116Y-57695844D01*
X166189621Y-57693049D01*
X166254429Y-57694164D01*
X166311334Y-57699374D01*
X166341727Y-57705459D01*
X166383306Y-57725986D01*
X166427468Y-57761537D01*
X166466087Y-57804381D01*
X166491034Y-57846789D01*
X166491430Y-57847823D01*
X166502331Y-57900447D01*
X166502601Y-57962812D01*
X166492676Y-58022076D01*
X166484722Y-58044960D01*
X166451300Y-58103898D01*
X166407511Y-58146110D01*
X166349538Y-58173844D01*
X166273565Y-58189349D01*
X166233771Y-58192857D01*
X166183766Y-58192410D01*
X166183766Y-58057624D01*
X166256732Y-58053083D01*
X166312334Y-58040014D01*
X166347861Y-58019244D01*
X166358020Y-58004448D01*
X166365104Y-57966536D01*
X166363007Y-57921473D01*
X166352812Y-57882513D01*
X166347204Y-57872296D01*
X166314538Y-57845341D01*
X166264545Y-57827549D01*
X166203705Y-57819976D01*
X166138497Y-57823675D01*
X166099253Y-57831943D01*
X166053805Y-57855680D01*
X166025396Y-57893151D01*
X166015573Y-57938280D01*
X166025887Y-57984989D01*
X166051112Y-58020868D01*
X166071925Y-58039723D01*
X166092439Y-58050728D01*
X166120203Y-58055974D01*
X166162762Y-58057551D01*
X166183766Y-58057624D01*
X166183766Y-58192410D01*
X166127580Y-58191906D01*
X166040501Y-58174612D01*
X165972530Y-58140971D01*
X165923664Y-58090982D01*
X165893899Y-58024644D01*
X165890448Y-58010399D01*
X165882345Y-57924790D01*
X165896055Y-57849238D01*
G36*
X166084342Y-57466633D02*
X166176563Y-57465445D01*
X166246610Y-57461103D01*
X166297381Y-57452442D01*
X166331772Y-57438296D01*
X166352679Y-57417500D01*
X166363000Y-57388890D01*
X166365636Y-57353465D01*
X166362682Y-57316364D01*
X166351889Y-57288182D01*
X166330360Y-57267757D01*
X166295199Y-57253921D01*
X166243510Y-57245509D01*
X166172394Y-57241357D01*
X166084342Y-57240297D01*
X165888614Y-57240297D01*
X165888614Y-57101980D01*
X166492179Y-57101980D01*
X166492179Y-57171138D01*
X166490489Y-57212830D01*
X166484556Y-57234299D01*
X166473293Y-57240297D01*
X166463261Y-57243909D01*
X166465383Y-57258286D01*
X166479580Y-57287264D01*
X166501480Y-57353681D01*
X166499928Y-57424125D01*
X166476147Y-57491623D01*
X166457362Y-57523767D01*
X166437022Y-57548285D01*
X166411573Y-57566196D01*
X166377458Y-57578521D01*
X166331121Y-57586277D01*
X166269007Y-57590484D01*
X166187561Y-57592160D01*
X166124578Y-57592376D01*
X165888614Y-57592376D01*
X165888614Y-57466633D01*
X166084342Y-57466633D01*
X166084342Y-57466633D01*
G37*
X166084342Y-57466633D02*
X166176563Y-57465445D01*
X166246610Y-57461103D01*
X166297381Y-57452442D01*
X166331772Y-57438296D01*
X166352679Y-57417500D01*
X166363000Y-57388890D01*
X166365636Y-57353465D01*
X166362682Y-57316364D01*
X166351889Y-57288182D01*
X166330360Y-57267757D01*
X166295199Y-57253921D01*
X166243510Y-57245509D01*
X166172394Y-57241357D01*
X166084342Y-57240297D01*
X165888614Y-57240297D01*
X165888614Y-57101980D01*
X166492179Y-57101980D01*
X166492179Y-57171138D01*
X166490489Y-57212830D01*
X166484556Y-57234299D01*
X166473293Y-57240297D01*
X166463261Y-57243909D01*
X166465383Y-57258286D01*
X166479580Y-57287264D01*
X166501480Y-57353681D01*
X166499928Y-57424125D01*
X166476147Y-57491623D01*
X166457362Y-57523767D01*
X166437022Y-57548285D01*
X166411573Y-57566196D01*
X166377458Y-57578521D01*
X166331121Y-57586277D01*
X166269007Y-57590484D01*
X166187561Y-57592160D01*
X166124578Y-57592376D01*
X165888614Y-57592376D01*
X165888614Y-57466633D01*
X166084342Y-57466633D01*
G36*
X165893880Y-56242774D02*
X165924830Y-56169920D01*
X165939895Y-56146973D01*
X165963048Y-56117646D01*
X165981253Y-56099236D01*
X165987183Y-56096039D01*
X166000340Y-56105065D01*
X166022667Y-56128163D01*
X166038250Y-56146656D01*
X166078926Y-56197272D01*
X166045295Y-56237240D01*
X166023584Y-56268126D01*
X166016090Y-56298241D01*
X166017920Y-56332708D01*
X166031528Y-56387439D01*
X166059772Y-56425114D01*
X166105433Y-56448009D01*
X166171289Y-56458403D01*
X166171331Y-56458405D01*
X166244939Y-56457506D01*
X166298946Y-56443537D01*
X166335716Y-56415672D01*
X166348168Y-56396675D01*
X166363673Y-56346224D01*
X166363683Y-56292337D01*
X166348638Y-56245454D01*
X166341287Y-56234356D01*
X166322511Y-56206524D01*
X166319434Y-56184764D01*
X166333409Y-56161296D01*
X166358510Y-56135351D01*
X166400880Y-56094284D01*
X166438464Y-56139879D01*
X166480882Y-56210326D01*
X166501785Y-56289767D01*
X166500272Y-56372785D01*
X166486411Y-56427306D01*
X166452135Y-56491030D01*
X166398212Y-56541995D01*
X166360149Y-56565149D01*
X166305536Y-56583901D01*
X166236369Y-56593285D01*
X166161407Y-56593357D01*
X166089409Y-56584176D01*
X166029137Y-56565801D01*
X166022958Y-56562907D01*
X165962351Y-56520048D01*
X165918224Y-56462021D01*
X165891493Y-56393409D01*
X165883073Y-56318799D01*
X165893880Y-56242774D01*
X165893880Y-56242774D01*
G37*
X165893880Y-56242774D02*
X165924830Y-56169920D01*
X165939895Y-56146973D01*
X165963048Y-56117646D01*
X165981253Y-56099236D01*
X165987183Y-56096039D01*
X166000340Y-56105065D01*
X166022667Y-56128163D01*
X166038250Y-56146656D01*
X166078926Y-56197272D01*
X166045295Y-56237240D01*
X166023584Y-56268126D01*
X166016090Y-56298241D01*
X166017920Y-56332708D01*
X166031528Y-56387439D01*
X166059772Y-56425114D01*
X166105433Y-56448009D01*
X166171289Y-56458403D01*
X166171331Y-56458405D01*
X166244939Y-56457506D01*
X166298946Y-56443537D01*
X166335716Y-56415672D01*
X166348168Y-56396675D01*
X166363673Y-56346224D01*
X166363683Y-56292337D01*
X166348638Y-56245454D01*
X166341287Y-56234356D01*
X166322511Y-56206524D01*
X166319434Y-56184764D01*
X166333409Y-56161296D01*
X166358510Y-56135351D01*
X166400880Y-56094284D01*
X166438464Y-56139879D01*
X166480882Y-56210326D01*
X166501785Y-56289767D01*
X166500272Y-56372785D01*
X166486411Y-56427306D01*
X166452135Y-56491030D01*
X166398212Y-56541995D01*
X166360149Y-56565149D01*
X166305536Y-56583901D01*
X166236369Y-56593285D01*
X166161407Y-56593357D01*
X166089409Y-56584176D01*
X166029137Y-56565801D01*
X166022958Y-56562907D01*
X165962351Y-56520048D01*
X165918224Y-56462021D01*
X165891493Y-56393409D01*
X165883073Y-56318799D01*
X165893880Y-56242774D01*
G36*
X165886457Y-55782102D02*
X165894279Y-55749904D01*
X165922921Y-55688175D01*
X165966667Y-55635390D01*
X166019117Y-55598859D01*
X166030893Y-55593840D01*
X166061740Y-55586955D01*
X166107371Y-55582136D01*
X166153492Y-55580495D01*
X166240693Y-55580495D01*
X166240693Y-55762822D01*
X166240978Y-55838021D01*
X166242704Y-55890997D01*
X166247181Y-55924675D01*
X166255720Y-55941980D01*
X166269630Y-55945837D01*
X166290222Y-55939171D01*
X166314315Y-55927230D01*
X166354525Y-55893920D01*
X166374558Y-55847632D01*
X166373905Y-55791056D01*
X166352101Y-55726969D01*
X166325193Y-55671583D01*
X166361532Y-55625625D01*
X166397872Y-55579667D01*
X166437819Y-55622904D01*
X166475563Y-55680626D01*
X166498320Y-55751614D01*
X166504688Y-55827971D01*
X166493268Y-55901801D01*
X166489393Y-55913713D01*
X166455506Y-55978601D01*
X166404986Y-56026870D01*
X166336325Y-56059535D01*
X166248014Y-56077615D01*
X166246121Y-56077825D01*
X166149878Y-56079444D01*
X166115542Y-56072900D01*
X166115542Y-55945148D01*
X166120822Y-55933416D01*
X166124867Y-55901562D01*
X166127176Y-55854603D01*
X166127525Y-55824846D01*
X166127306Y-55769352D01*
X166125916Y-55734654D01*
X166122251Y-55716399D01*
X166115210Y-55710234D01*
X166103690Y-55711805D01*
X166099233Y-55713122D01*
X166057355Y-55735618D01*
X166023604Y-55770997D01*
X166008773Y-55802220D01*
X166009668Y-55843699D01*
X166028164Y-55885731D01*
X166058786Y-55920988D01*
X166096062Y-55942146D01*
X166115542Y-55945148D01*
X166115542Y-56072900D01*
X166065229Y-56063310D01*
X165994191Y-56031302D01*
X165938779Y-55985299D01*
X165901009Y-55927179D01*
X165882896Y-55858820D01*
X165886457Y-55782102D01*
X165886457Y-55782102D01*
G37*
X165886457Y-55782102D02*
X165894279Y-55749904D01*
X165922921Y-55688175D01*
X165966667Y-55635390D01*
X166019117Y-55598859D01*
X166030893Y-55593840D01*
X166061740Y-55586955D01*
X166107371Y-55582136D01*
X166153492Y-55580495D01*
X166240693Y-55580495D01*
X166240693Y-55762822D01*
X166240978Y-55838021D01*
X166242704Y-55890997D01*
X166247181Y-55924675D01*
X166255720Y-55941980D01*
X166269630Y-55945837D01*
X166290222Y-55939171D01*
X166314315Y-55927230D01*
X166354525Y-55893920D01*
X166374558Y-55847632D01*
X166373905Y-55791056D01*
X166352101Y-55726969D01*
X166325193Y-55671583D01*
X166361532Y-55625625D01*
X166397872Y-55579667D01*
X166437819Y-55622904D01*
X166475563Y-55680626D01*
X166498320Y-55751614D01*
X166504688Y-55827971D01*
X166493268Y-55901801D01*
X166489393Y-55913713D01*
X166455506Y-55978601D01*
X166404986Y-56026870D01*
X166336325Y-56059535D01*
X166248014Y-56077615D01*
X166246121Y-56077825D01*
X166149878Y-56079444D01*
X166115542Y-56072900D01*
X166115542Y-55945148D01*
X166120822Y-55933416D01*
X166124867Y-55901562D01*
X166127176Y-55854603D01*
X166127525Y-55824846D01*
X166127306Y-55769352D01*
X166125916Y-55734654D01*
X166122251Y-55716399D01*
X166115210Y-55710234D01*
X166103690Y-55711805D01*
X166099233Y-55713122D01*
X166057355Y-55735618D01*
X166023604Y-55770997D01*
X166008773Y-55802220D01*
X166009668Y-55843699D01*
X166028164Y-55885731D01*
X166058786Y-55920988D01*
X166096062Y-55942146D01*
X166115542Y-55945148D01*
X166115542Y-56072900D01*
X166065229Y-56063310D01*
X165994191Y-56031302D01*
X165938779Y-55985299D01*
X165901009Y-55927179D01*
X165882896Y-55858820D01*
X165886457Y-55782102D01*
G36*
X165899002Y-59214012D02*
X165913950Y-59182717D01*
X165935541Y-59152409D01*
X165960391Y-59129318D01*
X165992087Y-59112500D01*
X166034214Y-59101006D01*
X166090358Y-59093891D01*
X166164106Y-59090207D01*
X166259044Y-59089008D01*
X166268985Y-59088989D01*
X166492179Y-59088713D01*
X166492179Y-59227030D01*
X166286418Y-59227030D01*
X166210189Y-59227128D01*
X166154939Y-59227809D01*
X166116501Y-59229651D01*
X166090706Y-59233233D01*
X166073384Y-59239132D01*
X166060368Y-59247927D01*
X166047507Y-59260180D01*
X166019873Y-59303047D01*
X166014745Y-59349843D01*
X166032217Y-59394424D01*
X166045221Y-59409928D01*
X166057447Y-59421310D01*
X166070540Y-59429481D01*
X166088615Y-59434974D01*
X166115787Y-59438320D01*
X166156170Y-59440051D01*
X166213879Y-59440697D01*
X166284132Y-59440792D01*
X166492179Y-59440792D01*
X166492179Y-59579109D01*
X165888614Y-59579109D01*
X165888614Y-59509950D01*
X165890256Y-59468428D01*
X165896087Y-59447006D01*
X165907461Y-59440795D01*
X165907798Y-59440792D01*
X165918938Y-59437910D01*
X165917674Y-59425199D01*
X165905434Y-59399926D01*
X165887424Y-59342605D01*
X165885421Y-59277037D01*
X165899002Y-59214012D01*
X165899002Y-59214012D01*
G37*
X165899002Y-59214012D02*
X165913950Y-59182717D01*
X165935541Y-59152409D01*
X165960391Y-59129318D01*
X165992087Y-59112500D01*
X166034214Y-59101006D01*
X166090358Y-59093891D01*
X166164106Y-59090207D01*
X166259044Y-59089008D01*
X166268985Y-59088989D01*
X166492179Y-59088713D01*
X166492179Y-59227030D01*
X166286418Y-59227030D01*
X166210189Y-59227128D01*
X166154939Y-59227809D01*
X166116501Y-59229651D01*
X166090706Y-59233233D01*
X166073384Y-59239132D01*
X166060368Y-59247927D01*
X166047507Y-59260180D01*
X166019873Y-59303047D01*
X166014745Y-59349843D01*
X166032217Y-59394424D01*
X166045221Y-59409928D01*
X166057447Y-59421310D01*
X166070540Y-59429481D01*
X166088615Y-59434974D01*
X166115787Y-59438320D01*
X166156170Y-59440051D01*
X166213879Y-59440697D01*
X166284132Y-59440792D01*
X166492179Y-59440792D01*
X166492179Y-59579109D01*
X165888614Y-59579109D01*
X165888614Y-59509950D01*
X165890256Y-59468428D01*
X165896087Y-59447006D01*
X165907461Y-59440795D01*
X165907798Y-59440792D01*
X165918938Y-59437910D01*
X165917674Y-59425199D01*
X165905434Y-59399926D01*
X165887424Y-59342605D01*
X165885421Y-59277037D01*
X165899002Y-59214012D01*
G36*
X165888030Y-56660540D02*
X165901245Y-56617289D01*
X165917941Y-56589442D01*
X165931145Y-56580371D01*
X165946797Y-56582868D01*
X165971385Y-56599069D01*
X165988800Y-56612768D01*
X166020283Y-56641008D01*
X166033529Y-56662225D01*
X166032664Y-56680312D01*
X166019010Y-56733965D01*
X166019630Y-56773370D01*
X166035104Y-56805368D01*
X166044161Y-56816110D01*
X166076027Y-56850495D01*
X166492179Y-56850495D01*
X166492179Y-56988812D01*
X165888614Y-56988812D01*
X165888614Y-56919653D01*
X165890256Y-56878131D01*
X165896087Y-56856709D01*
X165907461Y-56850498D01*
X165907798Y-56850495D01*
X165919713Y-56847561D01*
X165918159Y-56834296D01*
X165909563Y-56815916D01*
X165893568Y-56777954D01*
X165883945Y-56747128D01*
X165881478Y-56707464D01*
X165888030Y-56660540D01*
X165888030Y-56660540D01*
G37*
X165888030Y-56660540D02*
X165901245Y-56617289D01*
X165917941Y-56589442D01*
X165931145Y-56580371D01*
X165946797Y-56582868D01*
X165971385Y-56599069D01*
X165988800Y-56612768D01*
X166020283Y-56641008D01*
X166033529Y-56662225D01*
X166032664Y-56680312D01*
X166019010Y-56733965D01*
X166019630Y-56773370D01*
X166035104Y-56805368D01*
X166044161Y-56816110D01*
X166076027Y-56850495D01*
X166492179Y-56850495D01*
X166492179Y-56988812D01*
X165888614Y-56988812D01*
X165888614Y-56919653D01*
X165890256Y-56878131D01*
X165896087Y-56856709D01*
X165907461Y-56850498D01*
X165907798Y-56850495D01*
X165919713Y-56847561D01*
X165918159Y-56834296D01*
X165909563Y-56815916D01*
X165893568Y-56777954D01*
X165883945Y-56747128D01*
X165881478Y-56707464D01*
X165888030Y-56660540D01*
G36*
X161720018Y-58083036D02*
X162021570Y-58026188D01*
X162194512Y-57606662D01*
X162023395Y-57355016D01*
X161975750Y-57284542D01*
X161933210Y-57220837D01*
X161897715Y-57166874D01*
X161871210Y-57125627D01*
X161855636Y-57100066D01*
X161852278Y-57093105D01*
X161860914Y-57080565D01*
X161884792Y-57053769D01*
X161920859Y-57015720D01*
X161966067Y-56969421D01*
X162017364Y-56917877D01*
X162071701Y-56864091D01*
X162126028Y-56811065D01*
X162177295Y-56761805D01*
X162222451Y-56719313D01*
X162258446Y-56686593D01*
X162282230Y-56666649D01*
X162290190Y-56661881D01*
X162304865Y-56668743D01*
X162337014Y-56687980D01*
X162383492Y-56717570D01*
X162441156Y-56755490D01*
X162506860Y-56799718D01*
X162544336Y-56825346D01*
X162612768Y-56872059D01*
X162674520Y-56913568D01*
X162726519Y-56947860D01*
X162765692Y-56972920D01*
X162788965Y-56986736D01*
X162793855Y-56988812D01*
X162807755Y-56984105D01*
X162840150Y-56971277D01*
X162886485Y-56952262D01*
X162942206Y-56928997D01*
X163002758Y-56903416D01*
X163063586Y-56877455D01*
X163120136Y-56853050D01*
X163167852Y-56832137D01*
X163202181Y-56816651D01*
X163218568Y-56808528D01*
X163219212Y-56808048D01*
X163222341Y-56795293D01*
X163229321Y-56761323D01*
X163239467Y-56709660D01*
X163252092Y-56643824D01*
X163266509Y-56567336D01*
X163274823Y-56522710D01*
X163290384Y-56440979D01*
X163305192Y-56367157D01*
X163318436Y-56304979D01*
X163329305Y-56258178D01*
X163336989Y-56230491D01*
X163339427Y-56224926D01*
X163355930Y-56219474D01*
X163393200Y-56215076D01*
X163446880Y-56211728D01*
X163512612Y-56209426D01*
X163586037Y-56208168D01*
X163662796Y-56207952D01*
X163738532Y-56208773D01*
X163808886Y-56210629D01*
X163869500Y-56213518D01*
X163916016Y-56217435D01*
X163944075Y-56222378D01*
X163949916Y-56225343D01*
X163956917Y-56243066D01*
X163966927Y-56280619D01*
X163978769Y-56333036D01*
X163991267Y-56395348D01*
X163995310Y-56417100D01*
X164014520Y-56521976D01*
X164029991Y-56604820D01*
X164042337Y-56668370D01*
X164052173Y-56715363D01*
X164060114Y-56748537D01*
X164066776Y-56770629D01*
X164072773Y-56784376D01*
X164078719Y-56792516D01*
X164079894Y-56793655D01*
X164098826Y-56805023D01*
X164135669Y-56822365D01*
X164185913Y-56843950D01*
X164245046Y-56868046D01*
X164308556Y-56892921D01*
X164371932Y-56916843D01*
X164430662Y-56938081D01*
X164480235Y-56954903D01*
X164516139Y-56965578D01*
X164533862Y-56968373D01*
X164534483Y-56968140D01*
X164548970Y-56958669D01*
X164580844Y-56937182D01*
X164626789Y-56905937D01*
X164683485Y-56867193D01*
X164747617Y-56823207D01*
X164765842Y-56810681D01*
X164831914Y-56766016D01*
X164892200Y-56726712D01*
X164943235Y-56694912D01*
X164981560Y-56672755D01*
X165003711Y-56662383D01*
X165006432Y-56661881D01*
X165020736Y-56670595D01*
X165049072Y-56694675D01*
X165088396Y-56731024D01*
X165135661Y-56776547D01*
X165187823Y-56828148D01*
X165241835Y-56882733D01*
X165294653Y-56937206D01*
X165343231Y-56988471D01*
X165384523Y-57033433D01*
X165415485Y-57068996D01*
X165433070Y-57092065D01*
X165435941Y-57098446D01*
X165429178Y-57113301D01*
X165410939Y-57143714D01*
X165384297Y-57184732D01*
X165362852Y-57216291D01*
X165323503Y-57273475D01*
X165277171Y-57341194D01*
X165230913Y-57409120D01*
X165206155Y-57445639D01*
X165122547Y-57569248D01*
X165178650Y-57673009D01*
X165203228Y-57720280D01*
X165222331Y-57760477D01*
X165233227Y-57787674D01*
X165234743Y-57794598D01*
X165223549Y-57802923D01*
X165191917Y-57819346D01*
X165142765Y-57842643D01*
X165079010Y-57871586D01*
X165003571Y-57904950D01*
X164919364Y-57941509D01*
X164829308Y-57980036D01*
X164736321Y-58019306D01*
X164643320Y-58058092D01*
X164553223Y-58095170D01*
X164468948Y-58129311D01*
X164393413Y-58159292D01*
X164329534Y-58183884D01*
X164280231Y-58201864D01*
X164248421Y-58212003D01*
X164237496Y-58213634D01*
X164223561Y-58200709D01*
X164200940Y-58172411D01*
X164174333Y-58134654D01*
X164172228Y-58131485D01*
X164094114Y-58033900D01*
X164002982Y-57955214D01*
X163901745Y-57896109D01*
X163793318Y-57857268D01*
X163680614Y-57839372D01*
X163566548Y-57843103D01*
X163454034Y-57869143D01*
X163345985Y-57918175D01*
X163322345Y-57932600D01*
X163226887Y-58007631D01*
X163150232Y-58096270D01*
X163092780Y-58195451D01*
X163054929Y-58302105D01*
X163037078Y-58413164D01*
X163039625Y-58525561D01*
X163062970Y-58636227D01*
X163107510Y-58742094D01*
X163173645Y-58840095D01*
X163200487Y-58870410D01*
X163284512Y-58947562D01*
X163372966Y-59003782D01*
X163472115Y-59042347D01*
X163570303Y-59063826D01*
X163680697Y-59069128D01*
X163791640Y-59051448D01*
X163899381Y-59012581D01*
X164000169Y-58954323D01*
X164090256Y-58878469D01*
X164165892Y-58786817D01*
X164173864Y-58774772D01*
X164199974Y-58736611D01*
X164222595Y-58707601D01*
X164237039Y-58693732D01*
X164237496Y-58693531D01*
X164253121Y-58696508D01*
X164288582Y-58708311D01*
X164340962Y-58727714D01*
X164407345Y-58753488D01*
X164484814Y-58784409D01*
X164570450Y-58819249D01*
X164661337Y-58856783D01*
X164754559Y-58895783D01*
X164847197Y-58935023D01*
X164936335Y-58973276D01*
X165019055Y-59009317D01*
X165092441Y-59041917D01*
X165153575Y-59069852D01*
X165199541Y-59091895D01*
X165227421Y-59106818D01*
X165234743Y-59112828D01*
X165229041Y-59131191D01*
X165213749Y-59165552D01*
X165191599Y-59209984D01*
X165178650Y-59234417D01*
X165122547Y-59338178D01*
X165206155Y-59461787D01*
X165248987Y-59524886D01*
X165296122Y-59593970D01*
X165340503Y-59658707D01*
X165362852Y-59691134D01*
X165393477Y-59736741D01*
X165417747Y-59775360D01*
X165432587Y-59801952D01*
X165435724Y-59810590D01*
X165427261Y-59823161D01*
X165403636Y-59850984D01*
X165367302Y-59891361D01*
X165320711Y-59941595D01*
X165266317Y-59998988D01*
X165231392Y-60035286D01*
X165168996Y-60098790D01*
X165113188Y-60153673D01*
X165066354Y-60197714D01*
X165030882Y-60228695D01*
X165009161Y-60244398D01*
X165004752Y-60245905D01*
X164987985Y-60238914D01*
X164954082Y-60219594D01*
X164906476Y-60190091D01*
X164848599Y-60152545D01*
X164783884Y-60109100D01*
X164765842Y-60096745D01*
X164700267Y-60051727D01*
X164641228Y-60011340D01*
X164592042Y-59977840D01*
X164556028Y-59953486D01*
X164536502Y-59940536D01*
X164534483Y-59939285D01*
X164518922Y-59941156D01*
X164484709Y-59951087D01*
X164436355Y-59967347D01*
X164378371Y-59988205D01*
X164315270Y-60011927D01*
X164251563Y-60036784D01*
X164191761Y-60061042D01*
X164140376Y-60082971D01*
X164101919Y-60100838D01*
X164080902Y-60112913D01*
X164079894Y-60113771D01*
X164073888Y-60121154D01*
X164067948Y-60133625D01*
X164061460Y-60153920D01*
X164053809Y-60184778D01*
X164044380Y-60228934D01*
X164032559Y-60289126D01*
X164017729Y-60368093D01*
X163999277Y-60468570D01*
X163995310Y-60490325D01*
X163982853Y-60554802D01*
X163970666Y-60611011D01*
X163959926Y-60653987D01*
X163951809Y-60678760D01*
X163949916Y-60682082D01*
X163933138Y-60687556D01*
X163895645Y-60692006D01*
X163841794Y-60695428D01*
X163775944Y-60697819D01*
X163702453Y-60699177D01*
X163625680Y-60699499D01*
X163549983Y-60698781D01*
X163479720Y-60697021D01*
X163419250Y-60694216D01*
X163372930Y-60690362D01*
X163345119Y-60685457D01*
X163339427Y-60682500D01*
X163333686Y-60666037D01*
X163324345Y-60628551D01*
X163312215Y-60573775D01*
X163298107Y-60505445D01*
X163282830Y-60427294D01*
X163274823Y-60384716D01*
X163259721Y-60303929D01*
X163246040Y-60231887D01*
X163234467Y-60172111D01*
X163225687Y-60128121D01*
X163220387Y-60103439D01*
X163219212Y-60099377D01*
X163205965Y-60092511D01*
X163174057Y-60077998D01*
X163128047Y-60057771D01*
X163072492Y-60033766D01*
X163011953Y-60007918D01*
X162950986Y-59982160D01*
X162894151Y-59958427D01*
X162846006Y-59938654D01*
X162811110Y-59924776D01*
X162794021Y-59918726D01*
X162793274Y-59918614D01*
X162779793Y-59925472D01*
X162748770Y-59944698D01*
X162703289Y-59974272D01*
X162646432Y-60012173D01*
X162581283Y-60056380D01*
X162543862Y-60082079D01*
X162475247Y-60128907D01*
X162412952Y-60170499D01*
X162360129Y-60204825D01*
X162319927Y-60229857D01*
X162295500Y-60243565D01*
X162290024Y-60245544D01*
X162277278Y-60237034D01*
X162250063Y-60213507D01*
X162211428Y-60177968D01*
X162164423Y-60133423D01*
X162112095Y-60082877D01*
X162057495Y-60029336D01*
X162003670Y-59975805D01*
X161953670Y-59925289D01*
X161910543Y-59880794D01*
X161877339Y-59845325D01*
X161857106Y-59821887D01*
X161852278Y-59814046D01*
X161859067Y-59801280D01*
X161878142Y-59770744D01*
X161907561Y-59725410D01*
X161945381Y-59668244D01*
X161989661Y-59602216D01*
X162023395Y-59552410D01*
X162194512Y-59300764D01*
X162108041Y-59091001D01*
X162021570Y-58881237D01*
X161720018Y-58824389D01*
X161418466Y-58767540D01*
X161418466Y-58139885D01*
X161720018Y-58083036D01*
X161720018Y-58083036D01*
G37*
X161720018Y-58083036D02*
X162021570Y-58026188D01*
X162194512Y-57606662D01*
X162023395Y-57355016D01*
X161975750Y-57284542D01*
X161933210Y-57220837D01*
X161897715Y-57166874D01*
X161871210Y-57125627D01*
X161855636Y-57100066D01*
X161852278Y-57093105D01*
X161860914Y-57080565D01*
X161884792Y-57053769D01*
X161920859Y-57015720D01*
X161966067Y-56969421D01*
X162017364Y-56917877D01*
X162071701Y-56864091D01*
X162126028Y-56811065D01*
X162177295Y-56761805D01*
X162222451Y-56719313D01*
X162258446Y-56686593D01*
X162282230Y-56666649D01*
X162290190Y-56661881D01*
X162304865Y-56668743D01*
X162337014Y-56687980D01*
X162383492Y-56717570D01*
X162441156Y-56755490D01*
X162506860Y-56799718D01*
X162544336Y-56825346D01*
X162612768Y-56872059D01*
X162674520Y-56913568D01*
X162726519Y-56947860D01*
X162765692Y-56972920D01*
X162788965Y-56986736D01*
X162793855Y-56988812D01*
X162807755Y-56984105D01*
X162840150Y-56971277D01*
X162886485Y-56952262D01*
X162942206Y-56928997D01*
X163002758Y-56903416D01*
X163063586Y-56877455D01*
X163120136Y-56853050D01*
X163167852Y-56832137D01*
X163202181Y-56816651D01*
X163218568Y-56808528D01*
X163219212Y-56808048D01*
X163222341Y-56795293D01*
X163229321Y-56761323D01*
X163239467Y-56709660D01*
X163252092Y-56643824D01*
X163266509Y-56567336D01*
X163274823Y-56522710D01*
X163290384Y-56440979D01*
X163305192Y-56367157D01*
X163318436Y-56304979D01*
X163329305Y-56258178D01*
X163336989Y-56230491D01*
X163339427Y-56224926D01*
X163355930Y-56219474D01*
X163393200Y-56215076D01*
X163446880Y-56211728D01*
X163512612Y-56209426D01*
X163586037Y-56208168D01*
X163662796Y-56207952D01*
X163738532Y-56208773D01*
X163808886Y-56210629D01*
X163869500Y-56213518D01*
X163916016Y-56217435D01*
X163944075Y-56222378D01*
X163949916Y-56225343D01*
X163956917Y-56243066D01*
X163966927Y-56280619D01*
X163978769Y-56333036D01*
X163991267Y-56395348D01*
X163995310Y-56417100D01*
X164014520Y-56521976D01*
X164029991Y-56604820D01*
X164042337Y-56668370D01*
X164052173Y-56715363D01*
X164060114Y-56748537D01*
X164066776Y-56770629D01*
X164072773Y-56784376D01*
X164078719Y-56792516D01*
X164079894Y-56793655D01*
X164098826Y-56805023D01*
X164135669Y-56822365D01*
X164185913Y-56843950D01*
X164245046Y-56868046D01*
X164308556Y-56892921D01*
X164371932Y-56916843D01*
X164430662Y-56938081D01*
X164480235Y-56954903D01*
X164516139Y-56965578D01*
X164533862Y-56968373D01*
X164534483Y-56968140D01*
X164548970Y-56958669D01*
X164580844Y-56937182D01*
X164626789Y-56905937D01*
X164683485Y-56867193D01*
X164747617Y-56823207D01*
X164765842Y-56810681D01*
X164831914Y-56766016D01*
X164892200Y-56726712D01*
X164943235Y-56694912D01*
X164981560Y-56672755D01*
X165003711Y-56662383D01*
X165006432Y-56661881D01*
X165020736Y-56670595D01*
X165049072Y-56694675D01*
X165088396Y-56731024D01*
X165135661Y-56776547D01*
X165187823Y-56828148D01*
X165241835Y-56882733D01*
X165294653Y-56937206D01*
X165343231Y-56988471D01*
X165384523Y-57033433D01*
X165415485Y-57068996D01*
X165433070Y-57092065D01*
X165435941Y-57098446D01*
X165429178Y-57113301D01*
X165410939Y-57143714D01*
X165384297Y-57184732D01*
X165362852Y-57216291D01*
X165323503Y-57273475D01*
X165277171Y-57341194D01*
X165230913Y-57409120D01*
X165206155Y-57445639D01*
X165122547Y-57569248D01*
X165178650Y-57673009D01*
X165203228Y-57720280D01*
X165222331Y-57760477D01*
X165233227Y-57787674D01*
X165234743Y-57794598D01*
X165223549Y-57802923D01*
X165191917Y-57819346D01*
X165142765Y-57842643D01*
X165079010Y-57871586D01*
X165003571Y-57904950D01*
X164919364Y-57941509D01*
X164829308Y-57980036D01*
X164736321Y-58019306D01*
X164643320Y-58058092D01*
X164553223Y-58095170D01*
X164468948Y-58129311D01*
X164393413Y-58159292D01*
X164329534Y-58183884D01*
X164280231Y-58201864D01*
X164248421Y-58212003D01*
X164237496Y-58213634D01*
X164223561Y-58200709D01*
X164200940Y-58172411D01*
X164174333Y-58134654D01*
X164172228Y-58131485D01*
X164094114Y-58033900D01*
X164002982Y-57955214D01*
X163901745Y-57896109D01*
X163793318Y-57857268D01*
X163680614Y-57839372D01*
X163566548Y-57843103D01*
X163454034Y-57869143D01*
X163345985Y-57918175D01*
X163322345Y-57932600D01*
X163226887Y-58007631D01*
X163150232Y-58096270D01*
X163092780Y-58195451D01*
X163054929Y-58302105D01*
X163037078Y-58413164D01*
X163039625Y-58525561D01*
X163062970Y-58636227D01*
X163107510Y-58742094D01*
X163173645Y-58840095D01*
X163200487Y-58870410D01*
X163284512Y-58947562D01*
X163372966Y-59003782D01*
X163472115Y-59042347D01*
X163570303Y-59063826D01*
X163680697Y-59069128D01*
X163791640Y-59051448D01*
X163899381Y-59012581D01*
X164000169Y-58954323D01*
X164090256Y-58878469D01*
X164165892Y-58786817D01*
X164173864Y-58774772D01*
X164199974Y-58736611D01*
X164222595Y-58707601D01*
X164237039Y-58693732D01*
X164237496Y-58693531D01*
X164253121Y-58696508D01*
X164288582Y-58708311D01*
X164340962Y-58727714D01*
X164407345Y-58753488D01*
X164484814Y-58784409D01*
X164570450Y-58819249D01*
X164661337Y-58856783D01*
X164754559Y-58895783D01*
X164847197Y-58935023D01*
X164936335Y-58973276D01*
X165019055Y-59009317D01*
X165092441Y-59041917D01*
X165153575Y-59069852D01*
X165199541Y-59091895D01*
X165227421Y-59106818D01*
X165234743Y-59112828D01*
X165229041Y-59131191D01*
X165213749Y-59165552D01*
X165191599Y-59209984D01*
X165178650Y-59234417D01*
X165122547Y-59338178D01*
X165206155Y-59461787D01*
X165248987Y-59524886D01*
X165296122Y-59593970D01*
X165340503Y-59658707D01*
X165362852Y-59691134D01*
X165393477Y-59736741D01*
X165417747Y-59775360D01*
X165432587Y-59801952D01*
X165435724Y-59810590D01*
X165427261Y-59823161D01*
X165403636Y-59850984D01*
X165367302Y-59891361D01*
X165320711Y-59941595D01*
X165266317Y-59998988D01*
X165231392Y-60035286D01*
X165168996Y-60098790D01*
X165113188Y-60153673D01*
X165066354Y-60197714D01*
X165030882Y-60228695D01*
X165009161Y-60244398D01*
X165004752Y-60245905D01*
X164987985Y-60238914D01*
X164954082Y-60219594D01*
X164906476Y-60190091D01*
X164848599Y-60152545D01*
X164783884Y-60109100D01*
X164765842Y-60096745D01*
X164700267Y-60051727D01*
X164641228Y-60011340D01*
X164592042Y-59977840D01*
X164556028Y-59953486D01*
X164536502Y-59940536D01*
X164534483Y-59939285D01*
X164518922Y-59941156D01*
X164484709Y-59951087D01*
X164436355Y-59967347D01*
X164378371Y-59988205D01*
X164315270Y-60011927D01*
X164251563Y-60036784D01*
X164191761Y-60061042D01*
X164140376Y-60082971D01*
X164101919Y-60100838D01*
X164080902Y-60112913D01*
X164079894Y-60113771D01*
X164073888Y-60121154D01*
X164067948Y-60133625D01*
X164061460Y-60153920D01*
X164053809Y-60184778D01*
X164044380Y-60228934D01*
X164032559Y-60289126D01*
X164017729Y-60368093D01*
X163999277Y-60468570D01*
X163995310Y-60490325D01*
X163982853Y-60554802D01*
X163970666Y-60611011D01*
X163959926Y-60653987D01*
X163951809Y-60678760D01*
X163949916Y-60682082D01*
X163933138Y-60687556D01*
X163895645Y-60692006D01*
X163841794Y-60695428D01*
X163775944Y-60697819D01*
X163702453Y-60699177D01*
X163625680Y-60699499D01*
X163549983Y-60698781D01*
X163479720Y-60697021D01*
X163419250Y-60694216D01*
X163372930Y-60690362D01*
X163345119Y-60685457D01*
X163339427Y-60682500D01*
X163333686Y-60666037D01*
X163324345Y-60628551D01*
X163312215Y-60573775D01*
X163298107Y-60505445D01*
X163282830Y-60427294D01*
X163274823Y-60384716D01*
X163259721Y-60303929D01*
X163246040Y-60231887D01*
X163234467Y-60172111D01*
X163225687Y-60128121D01*
X163220387Y-60103439D01*
X163219212Y-60099377D01*
X163205965Y-60092511D01*
X163174057Y-60077998D01*
X163128047Y-60057771D01*
X163072492Y-60033766D01*
X163011953Y-60007918D01*
X162950986Y-59982160D01*
X162894151Y-59958427D01*
X162846006Y-59938654D01*
X162811110Y-59924776D01*
X162794021Y-59918726D01*
X162793274Y-59918614D01*
X162779793Y-59925472D01*
X162748770Y-59944698D01*
X162703289Y-59974272D01*
X162646432Y-60012173D01*
X162581283Y-60056380D01*
X162543862Y-60082079D01*
X162475247Y-60128907D01*
X162412952Y-60170499D01*
X162360129Y-60204825D01*
X162319927Y-60229857D01*
X162295500Y-60243565D01*
X162290024Y-60245544D01*
X162277278Y-60237034D01*
X162250063Y-60213507D01*
X162211428Y-60177968D01*
X162164423Y-60133423D01*
X162112095Y-60082877D01*
X162057495Y-60029336D01*
X162003670Y-59975805D01*
X161953670Y-59925289D01*
X161910543Y-59880794D01*
X161877339Y-59845325D01*
X161857106Y-59821887D01*
X161852278Y-59814046D01*
X161859067Y-59801280D01*
X161878142Y-59770744D01*
X161907561Y-59725410D01*
X161945381Y-59668244D01*
X161989661Y-59602216D01*
X162023395Y-59552410D01*
X162194512Y-59300764D01*
X162108041Y-59091001D01*
X162021570Y-58881237D01*
X161720018Y-58824389D01*
X161418466Y-58767540D01*
X161418466Y-58139885D01*
X161720018Y-58083036D01*
G04 #@! TO.C,P1*
D13*
X66312505Y-76432181D02*
X66312505Y-75432181D01*
X66693458Y-75432181D01*
X66788696Y-75479801D01*
X66836315Y-75527420D01*
X66883934Y-75622658D01*
X66883934Y-75765515D01*
X66836315Y-75860753D01*
X66788696Y-75908372D01*
X66693458Y-75955991D01*
X66312505Y-75955991D01*
X67836315Y-76432181D02*
X67264886Y-76432181D01*
X67550601Y-76432181D02*
X67550601Y-75432181D01*
X67455362Y-75575039D01*
X67360124Y-75670277D01*
X67264886Y-75717896D01*
G04 #@! TO.C,U1*
X72518095Y-64362380D02*
X72518095Y-65171904D01*
X72565714Y-65267142D01*
X72613333Y-65314761D01*
X72708571Y-65362380D01*
X72899047Y-65362380D01*
X72994285Y-65314761D01*
X73041904Y-65267142D01*
X73089523Y-65171904D01*
X73089523Y-64362380D01*
X74089523Y-65362380D02*
X73518095Y-65362380D01*
X73803809Y-65362380D02*
X73803809Y-64362380D01*
X73708571Y-64505238D01*
X73613333Y-64600476D01*
X73518095Y-64648095D01*
G04 #@! TO.C,U2*
X131738095Y-64492380D02*
X131738095Y-65301904D01*
X131785714Y-65397142D01*
X131833333Y-65444761D01*
X131928571Y-65492380D01*
X132119047Y-65492380D01*
X132214285Y-65444761D01*
X132261904Y-65397142D01*
X132309523Y-65301904D01*
X132309523Y-64492380D01*
X132738095Y-64587619D02*
X132785714Y-64540000D01*
X132880952Y-64492380D01*
X133119047Y-64492380D01*
X133214285Y-64540000D01*
X133261904Y-64587619D01*
X133309523Y-64682857D01*
X133309523Y-64778095D01*
X133261904Y-64920952D01*
X132690476Y-65492380D01*
X133309523Y-65492380D01*
G04 #@! TO.C,C1*
X82476742Y-66016866D02*
X82524361Y-66064485D01*
X82571980Y-66207342D01*
X82571980Y-66302580D01*
X82524361Y-66445438D01*
X82429123Y-66540676D01*
X82333885Y-66588295D01*
X82143409Y-66635914D01*
X82000552Y-66635914D01*
X81810076Y-66588295D01*
X81714838Y-66540676D01*
X81619600Y-66445438D01*
X81571980Y-66302580D01*
X81571980Y-66207342D01*
X81619600Y-66064485D01*
X81667219Y-66016866D01*
X82571980Y-65064485D02*
X82571980Y-65635914D01*
X82571980Y-65350200D02*
X81571980Y-65350200D01*
X81714838Y-65445438D01*
X81810076Y-65540676D01*
X81857695Y-65635914D01*
G04 #@! TO.C,C2*
X84965942Y-66016866D02*
X85013561Y-66064485D01*
X85061180Y-66207342D01*
X85061180Y-66302580D01*
X85013561Y-66445438D01*
X84918323Y-66540676D01*
X84823085Y-66588295D01*
X84632609Y-66635914D01*
X84489752Y-66635914D01*
X84299276Y-66588295D01*
X84204038Y-66540676D01*
X84108800Y-66445438D01*
X84061180Y-66302580D01*
X84061180Y-66207342D01*
X84108800Y-66064485D01*
X84156419Y-66016866D01*
X84156419Y-65635914D02*
X84108800Y-65588295D01*
X84061180Y-65493057D01*
X84061180Y-65254961D01*
X84108800Y-65159723D01*
X84156419Y-65112104D01*
X84251657Y-65064485D01*
X84346895Y-65064485D01*
X84489752Y-65112104D01*
X85061180Y-65683533D01*
X85061180Y-65064485D01*
G04 #@! TO.C,C3*
X70127133Y-57152942D02*
X70079514Y-57200561D01*
X69936657Y-57248180D01*
X69841419Y-57248180D01*
X69698561Y-57200561D01*
X69603323Y-57105323D01*
X69555704Y-57010085D01*
X69508085Y-56819609D01*
X69508085Y-56676752D01*
X69555704Y-56486276D01*
X69603323Y-56391038D01*
X69698561Y-56295800D01*
X69841419Y-56248180D01*
X69936657Y-56248180D01*
X70079514Y-56295800D01*
X70127133Y-56343419D01*
X70460466Y-56248180D02*
X71079514Y-56248180D01*
X70746180Y-56629133D01*
X70889038Y-56629133D01*
X70984276Y-56676752D01*
X71031895Y-56724371D01*
X71079514Y-56819609D01*
X71079514Y-57057704D01*
X71031895Y-57152942D01*
X70984276Y-57200561D01*
X70889038Y-57248180D01*
X70603323Y-57248180D01*
X70508085Y-57200561D01*
X70460466Y-57152942D01*
G04 #@! TO.C,C4*
X142057142Y-66656666D02*
X142104761Y-66704285D01*
X142152380Y-66847142D01*
X142152380Y-66942380D01*
X142104761Y-67085238D01*
X142009523Y-67180476D01*
X141914285Y-67228095D01*
X141723809Y-67275714D01*
X141580952Y-67275714D01*
X141390476Y-67228095D01*
X141295238Y-67180476D01*
X141200000Y-67085238D01*
X141152380Y-66942380D01*
X141152380Y-66847142D01*
X141200000Y-66704285D01*
X141247619Y-66656666D01*
X141485714Y-65799523D02*
X142152380Y-65799523D01*
X141104761Y-66037619D02*
X141819047Y-66275714D01*
X141819047Y-65656666D01*
G04 #@! TO.C,C5*
X144537142Y-66676666D02*
X144584761Y-66724285D01*
X144632380Y-66867142D01*
X144632380Y-66962380D01*
X144584761Y-67105238D01*
X144489523Y-67200476D01*
X144394285Y-67248095D01*
X144203809Y-67295714D01*
X144060952Y-67295714D01*
X143870476Y-67248095D01*
X143775238Y-67200476D01*
X143680000Y-67105238D01*
X143632380Y-66962380D01*
X143632380Y-66867142D01*
X143680000Y-66724285D01*
X143727619Y-66676666D01*
X143632380Y-65771904D02*
X143632380Y-66248095D01*
X144108571Y-66295714D01*
X144060952Y-66248095D01*
X144013333Y-66152857D01*
X144013333Y-65914761D01*
X144060952Y-65819523D01*
X144108571Y-65771904D01*
X144203809Y-65724285D01*
X144441904Y-65724285D01*
X144537142Y-65771904D01*
X144584761Y-65819523D01*
X144632380Y-65914761D01*
X144632380Y-66152857D01*
X144584761Y-66248095D01*
X144537142Y-66295714D01*
G04 #@! TO.C,C6*
X129293333Y-56887142D02*
X129245714Y-56934761D01*
X129102857Y-56982380D01*
X129007619Y-56982380D01*
X128864761Y-56934761D01*
X128769523Y-56839523D01*
X128721904Y-56744285D01*
X128674285Y-56553809D01*
X128674285Y-56410952D01*
X128721904Y-56220476D01*
X128769523Y-56125238D01*
X128864761Y-56030000D01*
X129007619Y-55982380D01*
X129102857Y-55982380D01*
X129245714Y-56030000D01*
X129293333Y-56077619D01*
X130150476Y-55982380D02*
X129960000Y-55982380D01*
X129864761Y-56030000D01*
X129817142Y-56077619D01*
X129721904Y-56220476D01*
X129674285Y-56410952D01*
X129674285Y-56791904D01*
X129721904Y-56887142D01*
X129769523Y-56934761D01*
X129864761Y-56982380D01*
X130055238Y-56982380D01*
X130150476Y-56934761D01*
X130198095Y-56887142D01*
X130245714Y-56791904D01*
X130245714Y-56553809D01*
X130198095Y-56458571D01*
X130150476Y-56410952D01*
X130055238Y-56363333D01*
X129864761Y-56363333D01*
X129769523Y-56410952D01*
X129721904Y-56458571D01*
X129674285Y-56553809D01*
G04 #@! TD*
M02*
