G04 #@! TF.GenerationSoftware,KiCad,Pcbnew,(5.0.1)-4*
G04 #@! TF.CreationDate,2018-12-21T16:55:27-08:00*
G04 #@! TF.ProjectId,ram-based-register-card,72616D2D62617365642D726567697374,rev?*
G04 #@! TF.SameCoordinates,Original*
G04 #@! TF.FileFunction,Soldermask,Top*
G04 #@! TF.FilePolarity,Negative*
%FSLAX46Y46*%
G04 Gerber Fmt 4.6, Leading zero omitted, Abs format (unit mm)*
G04 Created by KiCad (PCBNEW (5.0.1)-4) date 12/21/2018 4:55:27 PM*
%MOMM*%
%LPD*%
G01*
G04 APERTURE LIST*
%ADD10C,0.100000*%
G04 APERTURE END LIST*
D10*
G36*
X104050000Y-150000000D02*
X92950000Y-150000000D01*
X92950000Y-145200000D01*
X104050000Y-145200000D01*
X104050000Y-150000000D01*
X104050000Y-150000000D01*
G37*
G36*
X144050000Y-150000000D02*
X105950000Y-150000000D01*
X105950000Y-145200000D01*
X144050000Y-145200000D01*
X144050000Y-150000000D01*
X144050000Y-150000000D01*
G37*
G36*
X204050000Y-150000000D02*
X165950000Y-150000000D01*
X165950000Y-145200000D01*
X204050000Y-145200000D01*
X204050000Y-150000000D01*
X204050000Y-150000000D01*
G37*
G36*
X164050000Y-150000000D02*
X152950000Y-150000000D01*
X152950000Y-145200000D01*
X164050000Y-145200000D01*
X164050000Y-150000000D01*
X164050000Y-150000000D01*
G37*
G36*
X162215000Y-139355000D02*
X155515000Y-139355000D01*
X155515000Y-137505000D01*
X162215000Y-137505000D01*
X162215000Y-139355000D01*
X162215000Y-139355000D01*
G37*
G36*
X174915000Y-139355000D02*
X168215000Y-139355000D01*
X168215000Y-137505000D01*
X174915000Y-137505000D01*
X174915000Y-139355000D01*
X174915000Y-139355000D01*
G37*
G36*
X186615000Y-139355000D02*
X179915000Y-139355000D01*
X179915000Y-137505000D01*
X186615000Y-137505000D01*
X186615000Y-139355000D01*
X186615000Y-139355000D01*
G37*
G36*
X137085000Y-139355000D02*
X130385000Y-139355000D01*
X130385000Y-137505000D01*
X137085000Y-137505000D01*
X137085000Y-139355000D01*
X137085000Y-139355000D01*
G37*
G36*
X196775000Y-139355000D02*
X190075000Y-139355000D01*
X190075000Y-137505000D01*
X196775000Y-137505000D01*
X196775000Y-139355000D01*
X196775000Y-139355000D01*
G37*
G36*
X102025000Y-139355000D02*
X95325000Y-139355000D01*
X95325000Y-137505000D01*
X102025000Y-137505000D01*
X102025000Y-139355000D01*
X102025000Y-139355000D01*
G37*
G36*
X114725000Y-139355000D02*
X108025000Y-139355000D01*
X108025000Y-137505000D01*
X114725000Y-137505000D01*
X114725000Y-139355000D01*
X114725000Y-139355000D01*
G37*
G36*
X126925000Y-139355000D02*
X120225000Y-139355000D01*
X120225000Y-137505000D01*
X126925000Y-137505000D01*
X126925000Y-139355000D01*
X126925000Y-139355000D01*
G37*
G36*
X93725422Y-137760517D02*
X93773385Y-137775066D01*
X93817575Y-137798686D01*
X93856318Y-137830482D01*
X93888114Y-137869225D01*
X93911734Y-137913415D01*
X93926283Y-137961378D01*
X93931800Y-138017391D01*
X93931800Y-138842609D01*
X93926283Y-138898622D01*
X93911734Y-138946585D01*
X93888114Y-138990775D01*
X93856318Y-139029518D01*
X93817575Y-139061314D01*
X93773385Y-139084934D01*
X93725422Y-139099483D01*
X93669409Y-139105000D01*
X92919191Y-139105000D01*
X92863178Y-139099483D01*
X92815215Y-139084934D01*
X92771025Y-139061314D01*
X92732282Y-139029518D01*
X92700486Y-138990775D01*
X92676866Y-138946585D01*
X92662317Y-138898622D01*
X92656800Y-138842609D01*
X92656800Y-138017391D01*
X92662317Y-137961378D01*
X92676866Y-137913415D01*
X92700486Y-137869225D01*
X92732282Y-137830482D01*
X92771025Y-137798686D01*
X92815215Y-137775066D01*
X92863178Y-137760517D01*
X92919191Y-137755000D01*
X93669409Y-137755000D01*
X93725422Y-137760517D01*
X93725422Y-137760517D01*
G37*
G36*
X92150422Y-137760517D02*
X92198385Y-137775066D01*
X92242575Y-137798686D01*
X92281318Y-137830482D01*
X92313114Y-137869225D01*
X92336734Y-137913415D01*
X92351283Y-137961378D01*
X92356800Y-138017391D01*
X92356800Y-138842609D01*
X92351283Y-138898622D01*
X92336734Y-138946585D01*
X92313114Y-138990775D01*
X92281318Y-139029518D01*
X92242575Y-139061314D01*
X92198385Y-139084934D01*
X92150422Y-139099483D01*
X92094409Y-139105000D01*
X91344191Y-139105000D01*
X91288178Y-139099483D01*
X91240215Y-139084934D01*
X91196025Y-139061314D01*
X91157282Y-139029518D01*
X91125486Y-138990775D01*
X91101866Y-138946585D01*
X91087317Y-138898622D01*
X91081800Y-138842609D01*
X91081800Y-138017391D01*
X91087317Y-137961378D01*
X91101866Y-137913415D01*
X91125486Y-137869225D01*
X91157282Y-137830482D01*
X91196025Y-137798686D01*
X91240215Y-137775066D01*
X91288178Y-137760517D01*
X91344191Y-137755000D01*
X92094409Y-137755000D01*
X92150422Y-137760517D01*
X92150422Y-137760517D01*
G37*
G36*
X104901222Y-137735117D02*
X104949185Y-137749666D01*
X104993375Y-137773286D01*
X105032118Y-137805082D01*
X105063914Y-137843825D01*
X105087534Y-137888015D01*
X105102083Y-137935978D01*
X105107600Y-137991991D01*
X105107600Y-138817209D01*
X105102083Y-138873222D01*
X105087534Y-138921185D01*
X105063914Y-138965375D01*
X105032118Y-139004118D01*
X104993375Y-139035914D01*
X104949185Y-139059534D01*
X104901222Y-139074083D01*
X104845209Y-139079600D01*
X104094991Y-139079600D01*
X104038978Y-139074083D01*
X103991015Y-139059534D01*
X103946825Y-139035914D01*
X103908082Y-139004118D01*
X103876286Y-138965375D01*
X103852666Y-138921185D01*
X103838117Y-138873222D01*
X103832600Y-138817209D01*
X103832600Y-137991991D01*
X103838117Y-137935978D01*
X103852666Y-137888015D01*
X103876286Y-137843825D01*
X103908082Y-137805082D01*
X103946825Y-137773286D01*
X103991015Y-137749666D01*
X104038978Y-137735117D01*
X104094991Y-137729600D01*
X104845209Y-137729600D01*
X104901222Y-137735117D01*
X104901222Y-137735117D01*
G37*
G36*
X106476222Y-137735117D02*
X106524185Y-137749666D01*
X106568375Y-137773286D01*
X106607118Y-137805082D01*
X106638914Y-137843825D01*
X106662534Y-137888015D01*
X106677083Y-137935978D01*
X106682600Y-137991991D01*
X106682600Y-138817209D01*
X106677083Y-138873222D01*
X106662534Y-138921185D01*
X106638914Y-138965375D01*
X106607118Y-139004118D01*
X106568375Y-139035914D01*
X106524185Y-139059534D01*
X106476222Y-139074083D01*
X106420209Y-139079600D01*
X105669991Y-139079600D01*
X105613978Y-139074083D01*
X105566015Y-139059534D01*
X105521825Y-139035914D01*
X105483082Y-139004118D01*
X105451286Y-138965375D01*
X105427666Y-138921185D01*
X105413117Y-138873222D01*
X105407600Y-138817209D01*
X105407600Y-137991991D01*
X105413117Y-137935978D01*
X105427666Y-137888015D01*
X105451286Y-137843825D01*
X105483082Y-137805082D01*
X105521825Y-137773286D01*
X105566015Y-137749666D01*
X105613978Y-137735117D01*
X105669991Y-137729600D01*
X106420209Y-137729600D01*
X106476222Y-137735117D01*
X106476222Y-137735117D01*
G37*
G36*
X128941822Y-137798117D02*
X128989785Y-137812666D01*
X129033975Y-137836286D01*
X129072718Y-137868082D01*
X129104514Y-137906825D01*
X129128134Y-137951015D01*
X129142683Y-137998978D01*
X129148200Y-138054991D01*
X129148200Y-138805209D01*
X129142683Y-138861222D01*
X129128134Y-138909185D01*
X129104514Y-138953375D01*
X129072718Y-138992118D01*
X129033975Y-139023914D01*
X128989785Y-139047534D01*
X128941822Y-139062083D01*
X128885809Y-139067600D01*
X128060591Y-139067600D01*
X128004578Y-139062083D01*
X127956615Y-139047534D01*
X127912425Y-139023914D01*
X127873682Y-138992118D01*
X127841886Y-138953375D01*
X127818266Y-138909185D01*
X127803717Y-138861222D01*
X127798200Y-138805209D01*
X127798200Y-138054991D01*
X127803717Y-137998978D01*
X127818266Y-137951015D01*
X127841886Y-137906825D01*
X127873682Y-137868082D01*
X127912425Y-137836286D01*
X127956615Y-137812666D01*
X128004578Y-137798117D01*
X128060591Y-137792600D01*
X128885809Y-137792600D01*
X128941822Y-137798117D01*
X128941822Y-137798117D01*
G37*
G36*
X128941822Y-136223117D02*
X128989785Y-136237666D01*
X129033975Y-136261286D01*
X129072718Y-136293082D01*
X129104514Y-136331825D01*
X129128134Y-136376015D01*
X129142683Y-136423978D01*
X129148200Y-136479991D01*
X129148200Y-137230209D01*
X129142683Y-137286222D01*
X129128134Y-137334185D01*
X129104514Y-137378375D01*
X129072718Y-137417118D01*
X129033975Y-137448914D01*
X128989785Y-137472534D01*
X128941822Y-137487083D01*
X128885809Y-137492600D01*
X128060591Y-137492600D01*
X128004578Y-137487083D01*
X127956615Y-137472534D01*
X127912425Y-137448914D01*
X127873682Y-137417118D01*
X127841886Y-137378375D01*
X127818266Y-137334185D01*
X127803717Y-137286222D01*
X127798200Y-137230209D01*
X127798200Y-136479991D01*
X127803717Y-136423978D01*
X127818266Y-136376015D01*
X127841886Y-136331825D01*
X127873682Y-136293082D01*
X127912425Y-136261286D01*
X127956615Y-136237666D01*
X128004578Y-136223117D01*
X128060591Y-136217600D01*
X128885809Y-136217600D01*
X128941822Y-136223117D01*
X128941822Y-136223117D01*
G37*
G36*
X146475000Y-136815000D02*
X139775000Y-136815000D01*
X139775000Y-134965000D01*
X146475000Y-134965000D01*
X146475000Y-136815000D01*
X146475000Y-136815000D01*
G37*
G36*
X178180422Y-135423717D02*
X178228385Y-135438266D01*
X178272575Y-135461886D01*
X178311318Y-135493682D01*
X178343114Y-135532425D01*
X178366734Y-135576615D01*
X178381283Y-135624578D01*
X178386800Y-135680591D01*
X178386800Y-136505809D01*
X178381283Y-136561822D01*
X178366734Y-136609785D01*
X178343114Y-136653975D01*
X178311318Y-136692718D01*
X178272575Y-136724514D01*
X178228385Y-136748134D01*
X178180422Y-136762683D01*
X178124409Y-136768200D01*
X177374191Y-136768200D01*
X177318178Y-136762683D01*
X177270215Y-136748134D01*
X177226025Y-136724514D01*
X177187282Y-136692718D01*
X177155486Y-136653975D01*
X177131866Y-136609785D01*
X177117317Y-136561822D01*
X177111800Y-136505809D01*
X177111800Y-135680591D01*
X177117317Y-135624578D01*
X177131866Y-135576615D01*
X177155486Y-135532425D01*
X177187282Y-135493682D01*
X177226025Y-135461886D01*
X177270215Y-135438266D01*
X177318178Y-135423717D01*
X177374191Y-135418200D01*
X178124409Y-135418200D01*
X178180422Y-135423717D01*
X178180422Y-135423717D01*
G37*
G36*
X176605422Y-135423717D02*
X176653385Y-135438266D01*
X176697575Y-135461886D01*
X176736318Y-135493682D01*
X176768114Y-135532425D01*
X176791734Y-135576615D01*
X176806283Y-135624578D01*
X176811800Y-135680591D01*
X176811800Y-136505809D01*
X176806283Y-136561822D01*
X176791734Y-136609785D01*
X176768114Y-136653975D01*
X176736318Y-136692718D01*
X176697575Y-136724514D01*
X176653385Y-136748134D01*
X176605422Y-136762683D01*
X176549409Y-136768200D01*
X175799191Y-136768200D01*
X175743178Y-136762683D01*
X175695215Y-136748134D01*
X175651025Y-136724514D01*
X175612282Y-136692718D01*
X175580486Y-136653975D01*
X175556866Y-136609785D01*
X175542317Y-136561822D01*
X175536800Y-136505809D01*
X175536800Y-135680591D01*
X175542317Y-135624578D01*
X175556866Y-135576615D01*
X175580486Y-135532425D01*
X175612282Y-135493682D01*
X175651025Y-135461886D01*
X175695215Y-135438266D01*
X175743178Y-135423717D01*
X175799191Y-135418200D01*
X176549409Y-135418200D01*
X176605422Y-135423717D01*
X176605422Y-135423717D01*
G37*
G36*
X164324022Y-135385017D02*
X164371985Y-135399566D01*
X164416175Y-135423186D01*
X164454918Y-135454982D01*
X164486714Y-135493725D01*
X164510334Y-135537915D01*
X164524883Y-135585878D01*
X164530400Y-135641891D01*
X164530400Y-136392109D01*
X164524883Y-136448122D01*
X164510334Y-136496085D01*
X164486714Y-136540275D01*
X164454918Y-136579018D01*
X164416175Y-136610814D01*
X164371985Y-136634434D01*
X164324022Y-136648983D01*
X164268009Y-136654500D01*
X163442791Y-136654500D01*
X163386778Y-136648983D01*
X163338815Y-136634434D01*
X163294625Y-136610814D01*
X163255882Y-136579018D01*
X163224086Y-136540275D01*
X163200466Y-136496085D01*
X163185917Y-136448122D01*
X163180400Y-136392109D01*
X163180400Y-135641891D01*
X163185917Y-135585878D01*
X163200466Y-135537915D01*
X163224086Y-135493725D01*
X163255882Y-135454982D01*
X163294625Y-135423186D01*
X163338815Y-135399566D01*
X163386778Y-135385017D01*
X163442791Y-135379500D01*
X164268009Y-135379500D01*
X164324022Y-135385017D01*
X164324022Y-135385017D01*
G37*
G36*
X164324022Y-133810017D02*
X164371985Y-133824566D01*
X164416175Y-133848186D01*
X164454918Y-133879982D01*
X164486714Y-133918725D01*
X164510334Y-133962915D01*
X164524883Y-134010878D01*
X164530400Y-134066891D01*
X164530400Y-134817109D01*
X164524883Y-134873122D01*
X164510334Y-134921085D01*
X164486714Y-134965275D01*
X164454918Y-135004018D01*
X164416175Y-135035814D01*
X164371985Y-135059434D01*
X164324022Y-135073983D01*
X164268009Y-135079500D01*
X163442791Y-135079500D01*
X163386778Y-135073983D01*
X163338815Y-135059434D01*
X163294625Y-135035814D01*
X163255882Y-135004018D01*
X163224086Y-134965275D01*
X163200466Y-134921085D01*
X163185917Y-134873122D01*
X163180400Y-134817109D01*
X163180400Y-134066891D01*
X163185917Y-134010878D01*
X163200466Y-133962915D01*
X163224086Y-133918725D01*
X163255882Y-133879982D01*
X163294625Y-133848186D01*
X163338815Y-133824566D01*
X163386778Y-133810017D01*
X163442791Y-133804500D01*
X164268009Y-133804500D01*
X164324022Y-133810017D01*
X164324022Y-133810017D01*
G37*
G36*
X126925000Y-133455000D02*
X120225000Y-133455000D01*
X120225000Y-131605000D01*
X126925000Y-131605000D01*
X126925000Y-133455000D01*
X126925000Y-133455000D01*
G37*
G36*
X102025000Y-133455000D02*
X95325000Y-133455000D01*
X95325000Y-131605000D01*
X102025000Y-131605000D01*
X102025000Y-133455000D01*
X102025000Y-133455000D01*
G37*
G36*
X162215000Y-133455000D02*
X155515000Y-133455000D01*
X155515000Y-131605000D01*
X162215000Y-131605000D01*
X162215000Y-133455000D01*
X162215000Y-133455000D01*
G37*
G36*
X174915000Y-133455000D02*
X168215000Y-133455000D01*
X168215000Y-131605000D01*
X174915000Y-131605000D01*
X174915000Y-133455000D01*
X174915000Y-133455000D01*
G37*
G36*
X186615000Y-133455000D02*
X179915000Y-133455000D01*
X179915000Y-131605000D01*
X186615000Y-131605000D01*
X186615000Y-133455000D01*
X186615000Y-133455000D01*
G37*
G36*
X114725000Y-133455000D02*
X108025000Y-133455000D01*
X108025000Y-131605000D01*
X114725000Y-131605000D01*
X114725000Y-133455000D01*
X114725000Y-133455000D01*
G37*
G36*
X137085000Y-133455000D02*
X130385000Y-133455000D01*
X130385000Y-131605000D01*
X137085000Y-131605000D01*
X137085000Y-133455000D01*
X137085000Y-133455000D01*
G37*
G36*
X196775000Y-133455000D02*
X190075000Y-133455000D01*
X190075000Y-131605000D01*
X196775000Y-131605000D01*
X196775000Y-133455000D01*
X196775000Y-133455000D01*
G37*
G36*
X106933422Y-131181917D02*
X106981385Y-131196466D01*
X107025575Y-131220086D01*
X107064318Y-131251882D01*
X107096114Y-131290625D01*
X107119734Y-131334815D01*
X107134283Y-131382778D01*
X107139800Y-131438791D01*
X107139800Y-132264009D01*
X107134283Y-132320022D01*
X107119734Y-132367985D01*
X107096114Y-132412175D01*
X107064318Y-132450918D01*
X107025575Y-132482714D01*
X106981385Y-132506334D01*
X106933422Y-132520883D01*
X106877409Y-132526400D01*
X106127191Y-132526400D01*
X106071178Y-132520883D01*
X106023215Y-132506334D01*
X105979025Y-132482714D01*
X105940282Y-132450918D01*
X105908486Y-132412175D01*
X105884866Y-132367985D01*
X105870317Y-132320022D01*
X105864800Y-132264009D01*
X105864800Y-131438791D01*
X105870317Y-131382778D01*
X105884866Y-131334815D01*
X105908486Y-131290625D01*
X105940282Y-131251882D01*
X105979025Y-131220086D01*
X106023215Y-131196466D01*
X106071178Y-131181917D01*
X106127191Y-131176400D01*
X106877409Y-131176400D01*
X106933422Y-131181917D01*
X106933422Y-131181917D01*
G37*
G36*
X105358422Y-131181917D02*
X105406385Y-131196466D01*
X105450575Y-131220086D01*
X105489318Y-131251882D01*
X105521114Y-131290625D01*
X105544734Y-131334815D01*
X105559283Y-131382778D01*
X105564800Y-131438791D01*
X105564800Y-132264009D01*
X105559283Y-132320022D01*
X105544734Y-132367985D01*
X105521114Y-132412175D01*
X105489318Y-132450918D01*
X105450575Y-132482714D01*
X105406385Y-132506334D01*
X105358422Y-132520883D01*
X105302409Y-132526400D01*
X104552191Y-132526400D01*
X104496178Y-132520883D01*
X104448215Y-132506334D01*
X104404025Y-132482714D01*
X104365282Y-132450918D01*
X104333486Y-132412175D01*
X104309866Y-132367985D01*
X104295317Y-132320022D01*
X104289800Y-132264009D01*
X104289800Y-131438791D01*
X104295317Y-131382778D01*
X104309866Y-131334815D01*
X104333486Y-131290625D01*
X104365282Y-131251882D01*
X104404025Y-131220086D01*
X104448215Y-131196466D01*
X104496178Y-131181917D01*
X104552191Y-131176400D01*
X105302409Y-131176400D01*
X105358422Y-131181917D01*
X105358422Y-131181917D01*
G37*
G36*
X94233422Y-130445317D02*
X94281385Y-130459866D01*
X94325575Y-130483486D01*
X94364318Y-130515282D01*
X94396114Y-130554025D01*
X94419734Y-130598215D01*
X94434283Y-130646178D01*
X94439800Y-130702191D01*
X94439800Y-131527409D01*
X94434283Y-131583422D01*
X94419734Y-131631385D01*
X94396114Y-131675575D01*
X94364318Y-131714318D01*
X94325575Y-131746114D01*
X94281385Y-131769734D01*
X94233422Y-131784283D01*
X94177409Y-131789800D01*
X93427191Y-131789800D01*
X93371178Y-131784283D01*
X93323215Y-131769734D01*
X93279025Y-131746114D01*
X93240282Y-131714318D01*
X93208486Y-131675575D01*
X93184866Y-131631385D01*
X93170317Y-131583422D01*
X93164800Y-131527409D01*
X93164800Y-130702191D01*
X93170317Y-130646178D01*
X93184866Y-130598215D01*
X93208486Y-130554025D01*
X93240282Y-130515282D01*
X93279025Y-130483486D01*
X93323215Y-130459866D01*
X93371178Y-130445317D01*
X93427191Y-130439800D01*
X94177409Y-130439800D01*
X94233422Y-130445317D01*
X94233422Y-130445317D01*
G37*
G36*
X92658422Y-130445317D02*
X92706385Y-130459866D01*
X92750575Y-130483486D01*
X92789318Y-130515282D01*
X92821114Y-130554025D01*
X92844734Y-130598215D01*
X92859283Y-130646178D01*
X92864800Y-130702191D01*
X92864800Y-131527409D01*
X92859283Y-131583422D01*
X92844734Y-131631385D01*
X92821114Y-131675575D01*
X92789318Y-131714318D01*
X92750575Y-131746114D01*
X92706385Y-131769734D01*
X92658422Y-131784283D01*
X92602409Y-131789800D01*
X91852191Y-131789800D01*
X91796178Y-131784283D01*
X91748215Y-131769734D01*
X91704025Y-131746114D01*
X91665282Y-131714318D01*
X91633486Y-131675575D01*
X91609866Y-131631385D01*
X91595317Y-131583422D01*
X91589800Y-131527409D01*
X91589800Y-130702191D01*
X91595317Y-130646178D01*
X91609866Y-130598215D01*
X91633486Y-130554025D01*
X91665282Y-130515282D01*
X91704025Y-130483486D01*
X91748215Y-130459866D01*
X91796178Y-130445317D01*
X91852191Y-130439800D01*
X92602409Y-130439800D01*
X92658422Y-130445317D01*
X92658422Y-130445317D01*
G37*
G36*
X146475000Y-130915000D02*
X139775000Y-130915000D01*
X139775000Y-129065000D01*
X146475000Y-129065000D01*
X146475000Y-130915000D01*
X146475000Y-130915000D01*
G37*
G36*
X127329522Y-128641917D02*
X127377485Y-128656466D01*
X127421675Y-128680086D01*
X127460418Y-128711882D01*
X127492214Y-128750625D01*
X127515834Y-128794815D01*
X127530383Y-128842778D01*
X127535900Y-128898791D01*
X127535900Y-129724009D01*
X127530383Y-129780022D01*
X127515834Y-129827985D01*
X127492214Y-129872175D01*
X127460418Y-129910918D01*
X127421675Y-129942714D01*
X127377485Y-129966334D01*
X127329522Y-129980883D01*
X127273509Y-129986400D01*
X126523291Y-129986400D01*
X126467278Y-129980883D01*
X126419315Y-129966334D01*
X126375125Y-129942714D01*
X126336382Y-129910918D01*
X126304586Y-129872175D01*
X126280966Y-129827985D01*
X126266417Y-129780022D01*
X126260900Y-129724009D01*
X126260900Y-128898791D01*
X126266417Y-128842778D01*
X126280966Y-128794815D01*
X126304586Y-128750625D01*
X126336382Y-128711882D01*
X126375125Y-128680086D01*
X126419315Y-128656466D01*
X126467278Y-128641917D01*
X126523291Y-128636400D01*
X127273509Y-128636400D01*
X127329522Y-128641917D01*
X127329522Y-128641917D01*
G37*
G36*
X128904522Y-128641917D02*
X128952485Y-128656466D01*
X128996675Y-128680086D01*
X129035418Y-128711882D01*
X129067214Y-128750625D01*
X129090834Y-128794815D01*
X129105383Y-128842778D01*
X129110900Y-128898791D01*
X129110900Y-129724009D01*
X129105383Y-129780022D01*
X129090834Y-129827985D01*
X129067214Y-129872175D01*
X129035418Y-129910918D01*
X128996675Y-129942714D01*
X128952485Y-129966334D01*
X128904522Y-129980883D01*
X128848509Y-129986400D01*
X128098291Y-129986400D01*
X128042278Y-129980883D01*
X127994315Y-129966334D01*
X127950125Y-129942714D01*
X127911382Y-129910918D01*
X127879586Y-129872175D01*
X127855966Y-129827985D01*
X127841417Y-129780022D01*
X127835900Y-129724009D01*
X127835900Y-128898791D01*
X127841417Y-128842778D01*
X127855966Y-128794815D01*
X127879586Y-128750625D01*
X127911382Y-128711882D01*
X127950125Y-128680086D01*
X127994315Y-128656466D01*
X128042278Y-128641917D01*
X128098291Y-128636400D01*
X128848509Y-128636400D01*
X128904522Y-128641917D01*
X128904522Y-128641917D01*
G37*
G36*
X139267622Y-127270317D02*
X139315585Y-127284866D01*
X139359775Y-127308486D01*
X139398518Y-127340282D01*
X139430314Y-127379025D01*
X139453934Y-127423215D01*
X139468483Y-127471178D01*
X139474000Y-127527191D01*
X139474000Y-128352409D01*
X139468483Y-128408422D01*
X139453934Y-128456385D01*
X139430314Y-128500575D01*
X139398518Y-128539318D01*
X139359775Y-128571114D01*
X139315585Y-128594734D01*
X139267622Y-128609283D01*
X139211609Y-128614800D01*
X138461391Y-128614800D01*
X138405378Y-128609283D01*
X138357415Y-128594734D01*
X138313225Y-128571114D01*
X138274482Y-128539318D01*
X138242686Y-128500575D01*
X138219066Y-128456385D01*
X138204517Y-128408422D01*
X138199000Y-128352409D01*
X138199000Y-127527191D01*
X138204517Y-127471178D01*
X138219066Y-127423215D01*
X138242686Y-127379025D01*
X138274482Y-127340282D01*
X138313225Y-127308486D01*
X138357415Y-127284866D01*
X138405378Y-127270317D01*
X138461391Y-127264800D01*
X139211609Y-127264800D01*
X139267622Y-127270317D01*
X139267622Y-127270317D01*
G37*
G36*
X137692622Y-127270317D02*
X137740585Y-127284866D01*
X137784775Y-127308486D01*
X137823518Y-127340282D01*
X137855314Y-127379025D01*
X137878934Y-127423215D01*
X137893483Y-127471178D01*
X137899000Y-127527191D01*
X137899000Y-128352409D01*
X137893483Y-128408422D01*
X137878934Y-128456385D01*
X137855314Y-128500575D01*
X137823518Y-128539318D01*
X137784775Y-128571114D01*
X137740585Y-128594734D01*
X137692622Y-128609283D01*
X137636609Y-128614800D01*
X136886391Y-128614800D01*
X136830378Y-128609283D01*
X136782415Y-128594734D01*
X136738225Y-128571114D01*
X136699482Y-128539318D01*
X136667686Y-128500575D01*
X136644066Y-128456385D01*
X136629517Y-128408422D01*
X136624000Y-128352409D01*
X136624000Y-127527191D01*
X136629517Y-127471178D01*
X136644066Y-127423215D01*
X136667686Y-127379025D01*
X136699482Y-127340282D01*
X136738225Y-127308486D01*
X136782415Y-127284866D01*
X136830378Y-127270317D01*
X136886391Y-127264800D01*
X137636609Y-127264800D01*
X137692622Y-127270317D01*
X137692622Y-127270317D01*
G37*
G36*
X102025000Y-127925000D02*
X95325000Y-127925000D01*
X95325000Y-126075000D01*
X102025000Y-126075000D01*
X102025000Y-127925000D01*
X102025000Y-127925000D01*
G37*
G36*
X181535000Y-127925000D02*
X174835000Y-127925000D01*
X174835000Y-126075000D01*
X181535000Y-126075000D01*
X181535000Y-127925000D01*
X181535000Y-127925000D01*
G37*
G36*
X168685000Y-127925000D02*
X161985000Y-127925000D01*
X161985000Y-126075000D01*
X168685000Y-126075000D01*
X168685000Y-127925000D01*
X168685000Y-127925000D01*
G37*
G36*
X114725000Y-127925000D02*
X108025000Y-127925000D01*
X108025000Y-126075000D01*
X114725000Y-126075000D01*
X114725000Y-127925000D01*
X114725000Y-127925000D01*
G37*
G36*
X127558022Y-125593917D02*
X127605985Y-125608466D01*
X127650175Y-125632086D01*
X127688918Y-125663882D01*
X127720714Y-125702625D01*
X127744334Y-125746815D01*
X127758883Y-125794778D01*
X127764400Y-125850791D01*
X127764400Y-126676009D01*
X127758883Y-126732022D01*
X127744334Y-126779985D01*
X127720714Y-126824175D01*
X127688918Y-126862918D01*
X127650175Y-126894714D01*
X127605985Y-126918334D01*
X127558022Y-126932883D01*
X127502009Y-126938400D01*
X126751791Y-126938400D01*
X126695778Y-126932883D01*
X126647815Y-126918334D01*
X126603625Y-126894714D01*
X126564882Y-126862918D01*
X126533086Y-126824175D01*
X126509466Y-126779985D01*
X126494917Y-126732022D01*
X126489400Y-126676009D01*
X126489400Y-125850791D01*
X126494917Y-125794778D01*
X126509466Y-125746815D01*
X126533086Y-125702625D01*
X126564882Y-125663882D01*
X126603625Y-125632086D01*
X126647815Y-125608466D01*
X126695778Y-125593917D01*
X126751791Y-125588400D01*
X127502009Y-125588400D01*
X127558022Y-125593917D01*
X127558022Y-125593917D01*
G37*
G36*
X129133022Y-125593917D02*
X129180985Y-125608466D01*
X129225175Y-125632086D01*
X129263918Y-125663882D01*
X129295714Y-125702625D01*
X129319334Y-125746815D01*
X129333883Y-125794778D01*
X129339400Y-125850791D01*
X129339400Y-126676009D01*
X129333883Y-126732022D01*
X129319334Y-126779985D01*
X129295714Y-126824175D01*
X129263918Y-126862918D01*
X129225175Y-126894714D01*
X129180985Y-126918334D01*
X129133022Y-126932883D01*
X129077009Y-126938400D01*
X128326791Y-126938400D01*
X128270778Y-126932883D01*
X128222815Y-126918334D01*
X128178625Y-126894714D01*
X128139882Y-126862918D01*
X128108086Y-126824175D01*
X128084466Y-126779985D01*
X128069917Y-126732022D01*
X128064400Y-126676009D01*
X128064400Y-125850791D01*
X128069917Y-125794778D01*
X128084466Y-125746815D01*
X128108086Y-125702625D01*
X128139882Y-125663882D01*
X128178625Y-125632086D01*
X128222815Y-125608466D01*
X128270778Y-125593917D01*
X128326791Y-125588400D01*
X129077009Y-125588400D01*
X129133022Y-125593917D01*
X129133022Y-125593917D01*
G37*
G36*
X188568822Y-123739717D02*
X188616785Y-123754266D01*
X188660975Y-123777886D01*
X188699718Y-123809682D01*
X188731514Y-123848425D01*
X188755134Y-123892615D01*
X188769683Y-123940578D01*
X188775200Y-123996591D01*
X188775200Y-124821809D01*
X188769683Y-124877822D01*
X188755134Y-124925785D01*
X188731514Y-124969975D01*
X188699718Y-125008718D01*
X188660975Y-125040514D01*
X188616785Y-125064134D01*
X188568822Y-125078683D01*
X188512809Y-125084200D01*
X187762591Y-125084200D01*
X187706578Y-125078683D01*
X187658615Y-125064134D01*
X187614425Y-125040514D01*
X187575682Y-125008718D01*
X187543886Y-124969975D01*
X187520266Y-124925785D01*
X187505717Y-124877822D01*
X187500200Y-124821809D01*
X187500200Y-123996591D01*
X187505717Y-123940578D01*
X187520266Y-123892615D01*
X187543886Y-123848425D01*
X187575682Y-123809682D01*
X187614425Y-123777886D01*
X187658615Y-123754266D01*
X187706578Y-123739717D01*
X187762591Y-123734200D01*
X188512809Y-123734200D01*
X188568822Y-123739717D01*
X188568822Y-123739717D01*
G37*
G36*
X190143822Y-123739717D02*
X190191785Y-123754266D01*
X190235975Y-123777886D01*
X190274718Y-123809682D01*
X190306514Y-123848425D01*
X190330134Y-123892615D01*
X190344683Y-123940578D01*
X190350200Y-123996591D01*
X190350200Y-124821809D01*
X190344683Y-124877822D01*
X190330134Y-124925785D01*
X190306514Y-124969975D01*
X190274718Y-125008718D01*
X190235975Y-125040514D01*
X190191785Y-125064134D01*
X190143822Y-125078683D01*
X190087809Y-125084200D01*
X189337591Y-125084200D01*
X189281578Y-125078683D01*
X189233615Y-125064134D01*
X189189425Y-125040514D01*
X189150682Y-125008718D01*
X189118886Y-124969975D01*
X189095266Y-124925785D01*
X189080717Y-124877822D01*
X189075200Y-124821809D01*
X189075200Y-123996591D01*
X189080717Y-123940578D01*
X189095266Y-123892615D01*
X189118886Y-123848425D01*
X189150682Y-123809682D01*
X189189425Y-123777886D01*
X189233615Y-123754266D01*
X189281578Y-123739717D01*
X189337591Y-123734200D01*
X190087809Y-123734200D01*
X190143822Y-123739717D01*
X190143822Y-123739717D01*
G37*
G36*
X102025000Y-122025000D02*
X95325000Y-122025000D01*
X95325000Y-120175000D01*
X102025000Y-120175000D01*
X102025000Y-122025000D01*
X102025000Y-122025000D01*
G37*
G36*
X114725000Y-122025000D02*
X108025000Y-122025000D01*
X108025000Y-120175000D01*
X114725000Y-120175000D01*
X114725000Y-122025000D01*
X114725000Y-122025000D01*
G37*
G36*
X168685000Y-122025000D02*
X161985000Y-122025000D01*
X161985000Y-120175000D01*
X168685000Y-120175000D01*
X168685000Y-122025000D01*
X168685000Y-122025000D01*
G37*
G36*
X181535000Y-122025000D02*
X174835000Y-122025000D01*
X174835000Y-120175000D01*
X181535000Y-120175000D01*
X181535000Y-122025000D01*
X181535000Y-122025000D01*
G37*
G36*
X148640222Y-120463117D02*
X148688185Y-120477666D01*
X148732375Y-120501286D01*
X148771118Y-120533082D01*
X148802914Y-120571825D01*
X148826534Y-120616015D01*
X148841083Y-120663978D01*
X148846600Y-120719991D01*
X148846600Y-121545209D01*
X148841083Y-121601222D01*
X148826534Y-121649185D01*
X148802914Y-121693375D01*
X148771118Y-121732118D01*
X148732375Y-121763914D01*
X148688185Y-121787534D01*
X148640222Y-121802083D01*
X148584209Y-121807600D01*
X147833991Y-121807600D01*
X147777978Y-121802083D01*
X147730015Y-121787534D01*
X147685825Y-121763914D01*
X147647082Y-121732118D01*
X147615286Y-121693375D01*
X147591666Y-121649185D01*
X147577117Y-121601222D01*
X147571600Y-121545209D01*
X147571600Y-120719991D01*
X147577117Y-120663978D01*
X147591666Y-120616015D01*
X147615286Y-120571825D01*
X147647082Y-120533082D01*
X147685825Y-120501286D01*
X147730015Y-120477666D01*
X147777978Y-120463117D01*
X147833991Y-120457600D01*
X148584209Y-120457600D01*
X148640222Y-120463117D01*
X148640222Y-120463117D01*
G37*
G36*
X147065222Y-120463117D02*
X147113185Y-120477666D01*
X147157375Y-120501286D01*
X147196118Y-120533082D01*
X147227914Y-120571825D01*
X147251534Y-120616015D01*
X147266083Y-120663978D01*
X147271600Y-120719991D01*
X147271600Y-121545209D01*
X147266083Y-121601222D01*
X147251534Y-121649185D01*
X147227914Y-121693375D01*
X147196118Y-121732118D01*
X147157375Y-121763914D01*
X147113185Y-121787534D01*
X147065222Y-121802083D01*
X147009209Y-121807600D01*
X146258991Y-121807600D01*
X146202978Y-121802083D01*
X146155015Y-121787534D01*
X146110825Y-121763914D01*
X146072082Y-121732118D01*
X146040286Y-121693375D01*
X146016666Y-121649185D01*
X146002117Y-121601222D01*
X145996600Y-121545209D01*
X145996600Y-120719991D01*
X146002117Y-120663978D01*
X146016666Y-120616015D01*
X146040286Y-120571825D01*
X146072082Y-120533082D01*
X146110825Y-120501286D01*
X146155015Y-120477666D01*
X146202978Y-120463117D01*
X146258991Y-120457600D01*
X147009209Y-120457600D01*
X147065222Y-120463117D01*
X147065222Y-120463117D01*
G37*
G36*
X159079622Y-117821517D02*
X159127585Y-117836066D01*
X159171775Y-117859686D01*
X159210518Y-117891482D01*
X159242314Y-117930225D01*
X159265934Y-117974415D01*
X159280483Y-118022378D01*
X159286000Y-118078391D01*
X159286000Y-118903609D01*
X159280483Y-118959622D01*
X159265934Y-119007585D01*
X159242314Y-119051775D01*
X159210518Y-119090518D01*
X159171775Y-119122314D01*
X159127585Y-119145934D01*
X159079622Y-119160483D01*
X159023609Y-119166000D01*
X158273391Y-119166000D01*
X158217378Y-119160483D01*
X158169415Y-119145934D01*
X158125225Y-119122314D01*
X158086482Y-119090518D01*
X158054686Y-119051775D01*
X158031066Y-119007585D01*
X158016517Y-118959622D01*
X158011000Y-118903609D01*
X158011000Y-118078391D01*
X158016517Y-118022378D01*
X158031066Y-117974415D01*
X158054686Y-117930225D01*
X158086482Y-117891482D01*
X158125225Y-117859686D01*
X158169415Y-117836066D01*
X158217378Y-117821517D01*
X158273391Y-117816000D01*
X159023609Y-117816000D01*
X159079622Y-117821517D01*
X159079622Y-117821517D01*
G37*
G36*
X157504622Y-117821517D02*
X157552585Y-117836066D01*
X157596775Y-117859686D01*
X157635518Y-117891482D01*
X157667314Y-117930225D01*
X157690934Y-117974415D01*
X157705483Y-118022378D01*
X157711000Y-118078391D01*
X157711000Y-118903609D01*
X157705483Y-118959622D01*
X157690934Y-119007585D01*
X157667314Y-119051775D01*
X157635518Y-119090518D01*
X157596775Y-119122314D01*
X157552585Y-119145934D01*
X157504622Y-119160483D01*
X157448609Y-119166000D01*
X156698391Y-119166000D01*
X156642378Y-119160483D01*
X156594415Y-119145934D01*
X156550225Y-119122314D01*
X156511482Y-119090518D01*
X156479686Y-119051775D01*
X156456066Y-119007585D01*
X156441517Y-118959622D01*
X156436000Y-118903609D01*
X156436000Y-118078391D01*
X156441517Y-118022378D01*
X156456066Y-117974415D01*
X156479686Y-117930225D01*
X156511482Y-117891482D01*
X156550225Y-117859686D01*
X156594415Y-117836066D01*
X156642378Y-117821517D01*
X156698391Y-117816000D01*
X157448609Y-117816000D01*
X157504622Y-117821517D01*
X157504622Y-117821517D01*
G37*
G36*
X96353622Y-113185617D02*
X96401585Y-113200166D01*
X96445775Y-113223786D01*
X96484518Y-113255582D01*
X96516314Y-113294325D01*
X96539934Y-113338515D01*
X96554483Y-113386478D01*
X96560000Y-113442491D01*
X96560000Y-114192709D01*
X96554483Y-114248722D01*
X96539934Y-114296685D01*
X96516314Y-114340875D01*
X96484518Y-114379618D01*
X96445775Y-114411414D01*
X96401585Y-114435034D01*
X96353622Y-114449583D01*
X96297609Y-114455100D01*
X95472391Y-114455100D01*
X95416378Y-114449583D01*
X95368415Y-114435034D01*
X95324225Y-114411414D01*
X95285482Y-114379618D01*
X95253686Y-114340875D01*
X95230066Y-114296685D01*
X95215517Y-114248722D01*
X95210000Y-114192709D01*
X95210000Y-113442491D01*
X95215517Y-113386478D01*
X95230066Y-113338515D01*
X95253686Y-113294325D01*
X95285482Y-113255582D01*
X95324225Y-113223786D01*
X95368415Y-113200166D01*
X95416378Y-113185617D01*
X95472391Y-113180100D01*
X96297609Y-113180100D01*
X96353622Y-113185617D01*
X96353622Y-113185617D01*
G37*
G36*
X163676722Y-113046317D02*
X163724685Y-113060866D01*
X163768875Y-113084486D01*
X163807618Y-113116282D01*
X163839414Y-113155025D01*
X163863034Y-113199215D01*
X163877583Y-113247178D01*
X163883100Y-113303191D01*
X163883100Y-114128409D01*
X163877583Y-114184422D01*
X163863034Y-114232385D01*
X163839414Y-114276575D01*
X163807618Y-114315318D01*
X163768875Y-114347114D01*
X163724685Y-114370734D01*
X163676722Y-114385283D01*
X163620709Y-114390800D01*
X162870491Y-114390800D01*
X162814478Y-114385283D01*
X162766515Y-114370734D01*
X162722325Y-114347114D01*
X162683582Y-114315318D01*
X162651786Y-114276575D01*
X162628166Y-114232385D01*
X162613617Y-114184422D01*
X162608100Y-114128409D01*
X162608100Y-113303191D01*
X162613617Y-113247178D01*
X162628166Y-113199215D01*
X162651786Y-113155025D01*
X162683582Y-113116282D01*
X162722325Y-113084486D01*
X162766515Y-113060866D01*
X162814478Y-113046317D01*
X162870491Y-113040800D01*
X163620709Y-113040800D01*
X163676722Y-113046317D01*
X163676722Y-113046317D01*
G37*
G36*
X165251722Y-113046317D02*
X165299685Y-113060866D01*
X165343875Y-113084486D01*
X165382618Y-113116282D01*
X165414414Y-113155025D01*
X165438034Y-113199215D01*
X165452583Y-113247178D01*
X165458100Y-113303191D01*
X165458100Y-114128409D01*
X165452583Y-114184422D01*
X165438034Y-114232385D01*
X165414414Y-114276575D01*
X165382618Y-114315318D01*
X165343875Y-114347114D01*
X165299685Y-114370734D01*
X165251722Y-114385283D01*
X165195709Y-114390800D01*
X164445491Y-114390800D01*
X164389478Y-114385283D01*
X164341515Y-114370734D01*
X164297325Y-114347114D01*
X164258582Y-114315318D01*
X164226786Y-114276575D01*
X164203166Y-114232385D01*
X164188617Y-114184422D01*
X164183100Y-114128409D01*
X164183100Y-113303191D01*
X164188617Y-113247178D01*
X164203166Y-113199215D01*
X164226786Y-113155025D01*
X164258582Y-113116282D01*
X164297325Y-113084486D01*
X164341515Y-113060866D01*
X164389478Y-113046317D01*
X164445491Y-113040800D01*
X165195709Y-113040800D01*
X165251722Y-113046317D01*
X165251722Y-113046317D01*
G37*
G36*
X197227248Y-103184518D02*
X197248241Y-103190887D01*
X197267585Y-103201226D01*
X197289320Y-103219063D01*
X198447348Y-104377091D01*
X198465185Y-104398826D01*
X198475524Y-104418170D01*
X198481893Y-104439163D01*
X198484043Y-104460990D01*
X198481893Y-104482817D01*
X198475524Y-104503810D01*
X198465185Y-104523154D01*
X198447348Y-104544889D01*
X198120164Y-104872073D01*
X198115201Y-104876146D01*
X198097874Y-104893473D01*
X198093801Y-104898436D01*
X197766614Y-105225623D01*
X197761652Y-105229695D01*
X197744321Y-105247026D01*
X197740244Y-105251994D01*
X197413062Y-105579176D01*
X197408094Y-105583253D01*
X197390763Y-105600584D01*
X197386691Y-105605546D01*
X197059507Y-105932730D01*
X197054545Y-105936802D01*
X197037214Y-105954133D01*
X197033137Y-105959101D01*
X196705955Y-106286283D01*
X196700987Y-106290360D01*
X196683656Y-106307691D01*
X196679584Y-106312653D01*
X196352397Y-106639840D01*
X196347434Y-106643913D01*
X196330107Y-106661240D01*
X196326034Y-106666203D01*
X195998847Y-106993390D01*
X195993885Y-106997462D01*
X195976554Y-107014793D01*
X195972477Y-107019761D01*
X195645295Y-107346943D01*
X195640327Y-107351020D01*
X195622996Y-107368351D01*
X195618924Y-107373313D01*
X195291740Y-107700497D01*
X195286778Y-107704569D01*
X195269447Y-107721900D01*
X195265370Y-107726868D01*
X194938188Y-108054050D01*
X194933220Y-108058127D01*
X194915889Y-108075458D01*
X194911817Y-108080420D01*
X194584630Y-108407607D01*
X194579667Y-108411680D01*
X194562340Y-108429007D01*
X194558267Y-108433970D01*
X194231080Y-108761157D01*
X194226118Y-108765229D01*
X194208787Y-108782560D01*
X194204710Y-108787528D01*
X193877528Y-109114710D01*
X193872560Y-109118787D01*
X193855229Y-109136118D01*
X193851157Y-109141080D01*
X193523970Y-109468267D01*
X193519007Y-109472340D01*
X193501680Y-109489667D01*
X193497607Y-109494630D01*
X193170420Y-109821817D01*
X193165458Y-109825889D01*
X193148127Y-109843220D01*
X193144050Y-109848188D01*
X192816868Y-110175370D01*
X192811900Y-110179447D01*
X192794569Y-110196778D01*
X192790497Y-110201740D01*
X192463313Y-110528924D01*
X192458351Y-110532996D01*
X192441020Y-110550327D01*
X192436943Y-110555295D01*
X192109761Y-110882477D01*
X192104793Y-110886554D01*
X192087462Y-110903885D01*
X192083390Y-110908847D01*
X191756203Y-111236034D01*
X191751240Y-111240107D01*
X191733913Y-111257434D01*
X191729840Y-111262397D01*
X191402653Y-111589584D01*
X191397691Y-111593656D01*
X191380360Y-111610987D01*
X191376283Y-111615955D01*
X191049101Y-111943137D01*
X191044133Y-111947214D01*
X191026802Y-111964545D01*
X191022730Y-111969507D01*
X190695546Y-112296691D01*
X190690584Y-112300763D01*
X190673253Y-112318094D01*
X190669176Y-112323062D01*
X190341994Y-112650244D01*
X190337026Y-112654321D01*
X190319695Y-112671652D01*
X190315623Y-112676614D01*
X189988436Y-113003801D01*
X189983473Y-113007874D01*
X189966146Y-113025201D01*
X189962073Y-113030164D01*
X189634889Y-113357348D01*
X189613154Y-113375185D01*
X189593810Y-113385524D01*
X189572817Y-113391893D01*
X189550990Y-113394043D01*
X189529163Y-113391893D01*
X189508170Y-113385524D01*
X189488826Y-113375185D01*
X189467091Y-113357348D01*
X188309063Y-112199320D01*
X188291226Y-112177585D01*
X188280887Y-112158241D01*
X188274518Y-112137248D01*
X188272368Y-112115421D01*
X188274518Y-112093594D01*
X188280887Y-112072601D01*
X188291226Y-112053257D01*
X188309063Y-112031522D01*
X188636247Y-111704338D01*
X188641210Y-111700265D01*
X188658537Y-111682938D01*
X188662610Y-111677975D01*
X188989796Y-111350789D01*
X188994764Y-111346712D01*
X189012095Y-111329381D01*
X189016167Y-111324419D01*
X189343351Y-110997235D01*
X189348313Y-110993163D01*
X189365644Y-110975832D01*
X189369721Y-110970864D01*
X189696903Y-110643682D01*
X189701871Y-110639605D01*
X189719202Y-110622274D01*
X189723274Y-110617312D01*
X190050458Y-110290128D01*
X190055420Y-110286056D01*
X190072751Y-110268725D01*
X190076828Y-110263757D01*
X190404014Y-109936571D01*
X190408977Y-109932498D01*
X190426304Y-109915171D01*
X190430377Y-109910208D01*
X190757563Y-109583022D01*
X190762531Y-109578945D01*
X190779862Y-109561614D01*
X190783934Y-109556652D01*
X191111118Y-109229468D01*
X191116080Y-109225396D01*
X191133411Y-109208065D01*
X191137488Y-109203097D01*
X191464670Y-108875915D01*
X191469638Y-108871838D01*
X191486969Y-108854507D01*
X191491041Y-108849545D01*
X191818225Y-108522361D01*
X191823187Y-108518289D01*
X191840518Y-108500958D01*
X191844595Y-108495990D01*
X192171781Y-108168804D01*
X192176744Y-108164731D01*
X192194071Y-108147404D01*
X192198144Y-108142441D01*
X192525330Y-107815255D01*
X192530298Y-107811178D01*
X192547629Y-107793847D01*
X192551701Y-107788885D01*
X192878885Y-107461701D01*
X192883847Y-107457629D01*
X192901178Y-107440298D01*
X192905255Y-107435330D01*
X193232441Y-107108144D01*
X193237404Y-107104071D01*
X193254731Y-107086744D01*
X193258804Y-107081781D01*
X193585990Y-106754595D01*
X193590958Y-106750518D01*
X193608289Y-106733187D01*
X193612361Y-106728225D01*
X193939545Y-106401041D01*
X193944507Y-106396969D01*
X193961838Y-106379638D01*
X193965915Y-106374670D01*
X194293097Y-106047488D01*
X194298065Y-106043411D01*
X194315396Y-106026080D01*
X194319468Y-106021118D01*
X194646652Y-105693934D01*
X194651614Y-105689862D01*
X194668945Y-105672531D01*
X194673022Y-105667563D01*
X195000208Y-105340377D01*
X195005171Y-105336304D01*
X195022498Y-105318977D01*
X195026571Y-105314014D01*
X195353757Y-104986828D01*
X195358725Y-104982751D01*
X195376056Y-104965420D01*
X195380128Y-104960458D01*
X195707312Y-104633274D01*
X195712274Y-104629202D01*
X195729605Y-104611871D01*
X195733682Y-104606903D01*
X196060864Y-104279721D01*
X196065832Y-104275644D01*
X196083163Y-104258313D01*
X196087235Y-104253351D01*
X196414419Y-103926167D01*
X196419381Y-103922095D01*
X196436712Y-103904764D01*
X196440789Y-103899796D01*
X196767975Y-103572610D01*
X196772938Y-103568537D01*
X196790265Y-103551210D01*
X196794338Y-103546247D01*
X197121522Y-103219063D01*
X197143257Y-103201226D01*
X197162601Y-103190887D01*
X197183594Y-103184518D01*
X197205421Y-103182368D01*
X197227248Y-103184518D01*
X197227248Y-103184518D01*
G37*
G36*
X178736406Y-103184518D02*
X178757399Y-103190887D01*
X178776743Y-103201226D01*
X178798478Y-103219063D01*
X179125662Y-103546247D01*
X179129735Y-103551210D01*
X179147062Y-103568537D01*
X179152025Y-103572610D01*
X179479211Y-103899796D01*
X179483288Y-103904764D01*
X179500619Y-103922095D01*
X179505581Y-103926167D01*
X179832765Y-104253351D01*
X179836837Y-104258313D01*
X179854168Y-104275644D01*
X179859136Y-104279721D01*
X180186318Y-104606903D01*
X180190395Y-104611871D01*
X180207726Y-104629202D01*
X180212688Y-104633274D01*
X180539872Y-104960458D01*
X180543944Y-104965420D01*
X180561275Y-104982751D01*
X180566243Y-104986828D01*
X180893429Y-105314014D01*
X180897502Y-105318977D01*
X180914829Y-105336304D01*
X180919792Y-105340377D01*
X181246978Y-105667563D01*
X181251055Y-105672531D01*
X181268386Y-105689862D01*
X181273348Y-105693934D01*
X181600532Y-106021118D01*
X181604604Y-106026080D01*
X181621935Y-106043411D01*
X181626903Y-106047488D01*
X181954085Y-106374670D01*
X181958162Y-106379638D01*
X181975493Y-106396969D01*
X181980455Y-106401041D01*
X182307639Y-106728225D01*
X182311711Y-106733187D01*
X182329042Y-106750518D01*
X182334010Y-106754595D01*
X182661196Y-107081781D01*
X182665269Y-107086744D01*
X182682596Y-107104071D01*
X182687559Y-107108144D01*
X183014745Y-107435330D01*
X183018822Y-107440298D01*
X183036153Y-107457629D01*
X183041115Y-107461701D01*
X183368299Y-107788885D01*
X183372371Y-107793847D01*
X183389702Y-107811178D01*
X183394670Y-107815255D01*
X183721856Y-108142441D01*
X183725929Y-108147404D01*
X183743256Y-108164731D01*
X183748219Y-108168804D01*
X184075405Y-108495990D01*
X184079482Y-108500958D01*
X184096813Y-108518289D01*
X184101775Y-108522361D01*
X184428959Y-108849545D01*
X184433031Y-108854507D01*
X184450362Y-108871838D01*
X184455330Y-108875915D01*
X184782512Y-109203097D01*
X184786589Y-109208065D01*
X184803920Y-109225396D01*
X184808882Y-109229468D01*
X185136066Y-109556652D01*
X185140138Y-109561614D01*
X185157469Y-109578945D01*
X185162437Y-109583022D01*
X185489623Y-109910208D01*
X185493696Y-109915171D01*
X185511023Y-109932498D01*
X185515986Y-109936571D01*
X185843172Y-110263757D01*
X185847249Y-110268725D01*
X185864580Y-110286056D01*
X185869542Y-110290128D01*
X186196726Y-110617312D01*
X186200798Y-110622274D01*
X186218129Y-110639605D01*
X186223097Y-110643682D01*
X186550279Y-110970864D01*
X186554356Y-110975832D01*
X186571687Y-110993163D01*
X186576649Y-110997235D01*
X186903833Y-111324419D01*
X186907905Y-111329381D01*
X186925236Y-111346712D01*
X186930204Y-111350789D01*
X187257390Y-111677975D01*
X187261463Y-111682938D01*
X187278790Y-111700265D01*
X187283753Y-111704338D01*
X187610937Y-112031522D01*
X187628774Y-112053257D01*
X187639113Y-112072601D01*
X187645482Y-112093594D01*
X187647632Y-112115421D01*
X187645482Y-112137248D01*
X187639113Y-112158241D01*
X187628774Y-112177585D01*
X187610937Y-112199320D01*
X186452909Y-113357348D01*
X186431174Y-113375185D01*
X186411830Y-113385524D01*
X186390837Y-113391893D01*
X186369010Y-113394043D01*
X186347183Y-113391893D01*
X186326190Y-113385524D01*
X186306846Y-113375185D01*
X186285111Y-113357348D01*
X185957927Y-113030164D01*
X185953854Y-113025201D01*
X185936527Y-113007874D01*
X185931564Y-113003801D01*
X185604377Y-112676614D01*
X185600305Y-112671652D01*
X185582974Y-112654321D01*
X185578006Y-112650244D01*
X185250824Y-112323062D01*
X185246747Y-112318094D01*
X185229416Y-112300763D01*
X185224454Y-112296691D01*
X184897270Y-111969507D01*
X184893198Y-111964545D01*
X184875867Y-111947214D01*
X184870899Y-111943137D01*
X184543717Y-111615955D01*
X184539640Y-111610987D01*
X184522309Y-111593656D01*
X184517347Y-111589584D01*
X184190160Y-111262397D01*
X184186087Y-111257434D01*
X184168760Y-111240107D01*
X184163797Y-111236034D01*
X183836610Y-110908847D01*
X183832538Y-110903885D01*
X183815207Y-110886554D01*
X183810239Y-110882477D01*
X183483057Y-110555295D01*
X183478980Y-110550327D01*
X183461649Y-110532996D01*
X183456687Y-110528924D01*
X183129503Y-110201740D01*
X183125431Y-110196778D01*
X183108100Y-110179447D01*
X183103132Y-110175370D01*
X182775950Y-109848188D01*
X182771873Y-109843220D01*
X182754542Y-109825889D01*
X182749580Y-109821817D01*
X182422393Y-109494630D01*
X182418320Y-109489667D01*
X182400993Y-109472340D01*
X182396030Y-109468267D01*
X182068843Y-109141080D01*
X182064771Y-109136118D01*
X182047440Y-109118787D01*
X182042472Y-109114710D01*
X181715290Y-108787528D01*
X181711213Y-108782560D01*
X181693882Y-108765229D01*
X181688920Y-108761157D01*
X181361733Y-108433970D01*
X181357660Y-108429007D01*
X181340333Y-108411680D01*
X181335370Y-108407607D01*
X181008183Y-108080420D01*
X181004111Y-108075458D01*
X180986780Y-108058127D01*
X180981812Y-108054050D01*
X180654630Y-107726868D01*
X180650553Y-107721900D01*
X180633222Y-107704569D01*
X180628260Y-107700497D01*
X180301076Y-107373313D01*
X180297004Y-107368351D01*
X180279673Y-107351020D01*
X180274705Y-107346943D01*
X179947523Y-107019761D01*
X179943446Y-107014793D01*
X179926115Y-106997462D01*
X179921153Y-106993390D01*
X179593966Y-106666203D01*
X179589893Y-106661240D01*
X179572566Y-106643913D01*
X179567603Y-106639840D01*
X179240416Y-106312653D01*
X179236344Y-106307691D01*
X179219013Y-106290360D01*
X179214045Y-106286283D01*
X178886863Y-105959101D01*
X178882786Y-105954133D01*
X178865455Y-105936802D01*
X178860493Y-105932730D01*
X178533309Y-105605546D01*
X178529237Y-105600584D01*
X178511906Y-105583253D01*
X178506938Y-105579176D01*
X178179756Y-105251994D01*
X178175679Y-105247026D01*
X178158348Y-105229695D01*
X178153386Y-105225623D01*
X177826199Y-104898436D01*
X177822126Y-104893473D01*
X177804799Y-104876146D01*
X177799836Y-104872073D01*
X177472652Y-104544889D01*
X177454815Y-104523154D01*
X177444476Y-104503810D01*
X177438107Y-104482817D01*
X177435957Y-104460990D01*
X177438107Y-104439163D01*
X177444476Y-104418170D01*
X177454815Y-104398826D01*
X177472652Y-104377091D01*
X178630680Y-103219063D01*
X178652415Y-103201226D01*
X178671759Y-103190887D01*
X178692752Y-103184518D01*
X178714579Y-103182368D01*
X178736406Y-103184518D01*
X178736406Y-103184518D01*
G37*
G36*
X91456406Y-103142018D02*
X91477399Y-103148387D01*
X91496743Y-103158726D01*
X91518478Y-103176563D01*
X91845662Y-103503747D01*
X91849735Y-103508710D01*
X91867062Y-103526037D01*
X91872025Y-103530110D01*
X92199211Y-103857296D01*
X92203288Y-103862264D01*
X92220619Y-103879595D01*
X92225581Y-103883667D01*
X92552765Y-104210851D01*
X92556837Y-104215813D01*
X92574168Y-104233144D01*
X92579136Y-104237221D01*
X92906318Y-104564403D01*
X92910395Y-104569371D01*
X92927726Y-104586702D01*
X92932688Y-104590774D01*
X93259872Y-104917958D01*
X93263944Y-104922920D01*
X93281275Y-104940251D01*
X93286243Y-104944328D01*
X93613429Y-105271514D01*
X93617502Y-105276477D01*
X93634829Y-105293804D01*
X93639792Y-105297877D01*
X93966978Y-105625063D01*
X93971055Y-105630031D01*
X93988386Y-105647362D01*
X93993348Y-105651434D01*
X94320532Y-105978618D01*
X94324604Y-105983580D01*
X94341935Y-106000911D01*
X94346903Y-106004988D01*
X94674085Y-106332170D01*
X94678162Y-106337138D01*
X94695493Y-106354469D01*
X94700455Y-106358541D01*
X95027639Y-106685725D01*
X95031711Y-106690687D01*
X95049042Y-106708018D01*
X95054010Y-106712095D01*
X95381196Y-107039281D01*
X95385269Y-107044244D01*
X95402596Y-107061571D01*
X95407559Y-107065644D01*
X95734745Y-107392830D01*
X95738822Y-107397798D01*
X95756153Y-107415129D01*
X95761115Y-107419201D01*
X96088299Y-107746385D01*
X96092371Y-107751347D01*
X96109702Y-107768678D01*
X96114670Y-107772755D01*
X96441856Y-108099941D01*
X96445929Y-108104904D01*
X96463256Y-108122231D01*
X96468219Y-108126304D01*
X96795405Y-108453490D01*
X96799482Y-108458458D01*
X96816813Y-108475789D01*
X96821775Y-108479861D01*
X97148959Y-108807045D01*
X97153031Y-108812007D01*
X97170362Y-108829338D01*
X97175330Y-108833415D01*
X97502512Y-109160597D01*
X97506589Y-109165565D01*
X97523920Y-109182896D01*
X97528882Y-109186968D01*
X97856066Y-109514152D01*
X97860138Y-109519114D01*
X97877469Y-109536445D01*
X97882437Y-109540522D01*
X98209623Y-109867708D01*
X98213696Y-109872671D01*
X98231023Y-109889998D01*
X98235986Y-109894071D01*
X98563172Y-110221257D01*
X98567249Y-110226225D01*
X98584580Y-110243556D01*
X98589542Y-110247628D01*
X98916726Y-110574812D01*
X98920798Y-110579774D01*
X98938129Y-110597105D01*
X98943097Y-110601182D01*
X99270279Y-110928364D01*
X99274356Y-110933332D01*
X99291687Y-110950663D01*
X99296649Y-110954735D01*
X99623833Y-111281919D01*
X99627905Y-111286881D01*
X99645236Y-111304212D01*
X99650204Y-111308289D01*
X99977390Y-111635475D01*
X99981463Y-111640438D01*
X99998790Y-111657765D01*
X100003753Y-111661838D01*
X100330937Y-111989022D01*
X100348774Y-112010757D01*
X100359113Y-112030101D01*
X100365482Y-112051094D01*
X100367632Y-112072921D01*
X100365482Y-112094748D01*
X100359113Y-112115741D01*
X100348774Y-112135085D01*
X100330937Y-112156820D01*
X99172909Y-113314848D01*
X99151174Y-113332685D01*
X99131830Y-113343024D01*
X99110837Y-113349393D01*
X99089010Y-113351543D01*
X99067183Y-113349393D01*
X99046190Y-113343024D01*
X99026846Y-113332685D01*
X99005111Y-113314848D01*
X98677927Y-112987664D01*
X98673854Y-112982701D01*
X98656527Y-112965374D01*
X98651564Y-112961301D01*
X98324377Y-112634114D01*
X98320305Y-112629152D01*
X98302974Y-112611821D01*
X98298006Y-112607744D01*
X97970824Y-112280562D01*
X97966747Y-112275594D01*
X97949416Y-112258263D01*
X97944454Y-112254191D01*
X97617270Y-111927007D01*
X97613198Y-111922045D01*
X97595867Y-111904714D01*
X97590899Y-111900637D01*
X97263717Y-111573455D01*
X97259640Y-111568487D01*
X97242309Y-111551156D01*
X97237347Y-111547084D01*
X96910160Y-111219897D01*
X96906087Y-111214934D01*
X96888760Y-111197607D01*
X96883797Y-111193534D01*
X96556610Y-110866347D01*
X96552538Y-110861385D01*
X96535207Y-110844054D01*
X96530239Y-110839977D01*
X96203057Y-110512795D01*
X96198980Y-110507827D01*
X96181649Y-110490496D01*
X96176687Y-110486424D01*
X95849503Y-110159240D01*
X95845431Y-110154278D01*
X95828100Y-110136947D01*
X95823132Y-110132870D01*
X95495950Y-109805688D01*
X95491873Y-109800720D01*
X95474542Y-109783389D01*
X95469580Y-109779317D01*
X95142393Y-109452130D01*
X95138320Y-109447167D01*
X95120993Y-109429840D01*
X95116030Y-109425767D01*
X94788843Y-109098580D01*
X94784771Y-109093618D01*
X94767440Y-109076287D01*
X94762472Y-109072210D01*
X94435290Y-108745028D01*
X94431213Y-108740060D01*
X94413882Y-108722729D01*
X94408920Y-108718657D01*
X94081733Y-108391470D01*
X94077660Y-108386507D01*
X94060333Y-108369180D01*
X94055370Y-108365107D01*
X93728183Y-108037920D01*
X93724111Y-108032958D01*
X93706780Y-108015627D01*
X93701812Y-108011550D01*
X93374630Y-107684368D01*
X93370553Y-107679400D01*
X93353222Y-107662069D01*
X93348260Y-107657997D01*
X93021076Y-107330813D01*
X93017004Y-107325851D01*
X92999673Y-107308520D01*
X92994705Y-107304443D01*
X92667523Y-106977261D01*
X92663446Y-106972293D01*
X92646115Y-106954962D01*
X92641153Y-106950890D01*
X92313966Y-106623703D01*
X92309893Y-106618740D01*
X92292566Y-106601413D01*
X92287603Y-106597340D01*
X91960416Y-106270153D01*
X91956344Y-106265191D01*
X91939013Y-106247860D01*
X91934045Y-106243783D01*
X91606863Y-105916601D01*
X91602786Y-105911633D01*
X91585455Y-105894302D01*
X91580493Y-105890230D01*
X91253309Y-105563046D01*
X91249237Y-105558084D01*
X91231906Y-105540753D01*
X91226938Y-105536676D01*
X90899756Y-105209494D01*
X90895679Y-105204526D01*
X90878348Y-105187195D01*
X90873386Y-105183123D01*
X90546199Y-104855936D01*
X90542126Y-104850973D01*
X90524799Y-104833646D01*
X90519836Y-104829573D01*
X90192652Y-104502389D01*
X90174815Y-104480654D01*
X90164476Y-104461310D01*
X90158107Y-104440317D01*
X90155957Y-104418490D01*
X90158107Y-104396663D01*
X90164476Y-104375670D01*
X90174815Y-104356326D01*
X90192652Y-104334591D01*
X91350680Y-103176563D01*
X91372415Y-103158726D01*
X91391759Y-103148387D01*
X91412752Y-103142018D01*
X91434579Y-103139868D01*
X91456406Y-103142018D01*
X91456406Y-103142018D01*
G37*
G36*
X109947248Y-103142018D02*
X109968241Y-103148387D01*
X109987585Y-103158726D01*
X110009320Y-103176563D01*
X111167348Y-104334591D01*
X111185185Y-104356326D01*
X111195524Y-104375670D01*
X111201893Y-104396663D01*
X111204043Y-104418490D01*
X111201893Y-104440317D01*
X111195524Y-104461310D01*
X111185185Y-104480654D01*
X111167348Y-104502389D01*
X110840164Y-104829573D01*
X110835201Y-104833646D01*
X110817874Y-104850973D01*
X110813801Y-104855936D01*
X110486614Y-105183123D01*
X110481652Y-105187195D01*
X110464321Y-105204526D01*
X110460244Y-105209494D01*
X110133062Y-105536676D01*
X110128094Y-105540753D01*
X110110763Y-105558084D01*
X110106691Y-105563046D01*
X109779507Y-105890230D01*
X109774545Y-105894302D01*
X109757214Y-105911633D01*
X109753137Y-105916601D01*
X109425955Y-106243783D01*
X109420987Y-106247860D01*
X109403656Y-106265191D01*
X109399584Y-106270153D01*
X109072397Y-106597340D01*
X109067434Y-106601413D01*
X109050107Y-106618740D01*
X109046034Y-106623703D01*
X108718847Y-106950890D01*
X108713885Y-106954962D01*
X108696554Y-106972293D01*
X108692477Y-106977261D01*
X108365295Y-107304443D01*
X108360327Y-107308520D01*
X108342996Y-107325851D01*
X108338924Y-107330813D01*
X108011740Y-107657997D01*
X108006778Y-107662069D01*
X107989447Y-107679400D01*
X107985370Y-107684368D01*
X107658188Y-108011550D01*
X107653220Y-108015627D01*
X107635889Y-108032958D01*
X107631817Y-108037920D01*
X107304630Y-108365107D01*
X107299667Y-108369180D01*
X107282340Y-108386507D01*
X107278267Y-108391470D01*
X106951080Y-108718657D01*
X106946118Y-108722729D01*
X106928787Y-108740060D01*
X106924710Y-108745028D01*
X106597528Y-109072210D01*
X106592560Y-109076287D01*
X106575229Y-109093618D01*
X106571157Y-109098580D01*
X106243970Y-109425767D01*
X106239007Y-109429840D01*
X106221680Y-109447167D01*
X106217607Y-109452130D01*
X105890420Y-109779317D01*
X105885458Y-109783389D01*
X105868127Y-109800720D01*
X105864050Y-109805688D01*
X105536868Y-110132870D01*
X105531900Y-110136947D01*
X105514569Y-110154278D01*
X105510497Y-110159240D01*
X105183313Y-110486424D01*
X105178351Y-110490496D01*
X105161020Y-110507827D01*
X105156943Y-110512795D01*
X104829761Y-110839977D01*
X104824793Y-110844054D01*
X104807462Y-110861385D01*
X104803390Y-110866347D01*
X104476203Y-111193534D01*
X104471240Y-111197607D01*
X104453913Y-111214934D01*
X104449840Y-111219897D01*
X104122653Y-111547084D01*
X104117691Y-111551156D01*
X104100360Y-111568487D01*
X104096283Y-111573455D01*
X103769101Y-111900637D01*
X103764133Y-111904714D01*
X103746802Y-111922045D01*
X103742730Y-111927007D01*
X103415546Y-112254191D01*
X103410584Y-112258263D01*
X103393253Y-112275594D01*
X103389176Y-112280562D01*
X103061994Y-112607744D01*
X103057026Y-112611821D01*
X103039695Y-112629152D01*
X103035623Y-112634114D01*
X102708436Y-112961301D01*
X102703473Y-112965374D01*
X102686146Y-112982701D01*
X102682073Y-112987664D01*
X102354889Y-113314848D01*
X102333154Y-113332685D01*
X102313810Y-113343024D01*
X102292817Y-113349393D01*
X102270990Y-113351543D01*
X102249163Y-113349393D01*
X102228170Y-113343024D01*
X102208826Y-113332685D01*
X102187091Y-113314848D01*
X101029063Y-112156820D01*
X101011226Y-112135085D01*
X101000887Y-112115741D01*
X100994518Y-112094748D01*
X100992368Y-112072921D01*
X100994518Y-112051094D01*
X101000887Y-112030101D01*
X101011226Y-112010757D01*
X101029063Y-111989022D01*
X101356247Y-111661838D01*
X101361210Y-111657765D01*
X101378537Y-111640438D01*
X101382610Y-111635475D01*
X101709796Y-111308289D01*
X101714764Y-111304212D01*
X101732095Y-111286881D01*
X101736167Y-111281919D01*
X102063351Y-110954735D01*
X102068313Y-110950663D01*
X102085644Y-110933332D01*
X102089721Y-110928364D01*
X102416903Y-110601182D01*
X102421871Y-110597105D01*
X102439202Y-110579774D01*
X102443274Y-110574812D01*
X102770458Y-110247628D01*
X102775420Y-110243556D01*
X102792751Y-110226225D01*
X102796828Y-110221257D01*
X103124014Y-109894071D01*
X103128977Y-109889998D01*
X103146304Y-109872671D01*
X103150377Y-109867708D01*
X103477563Y-109540522D01*
X103482531Y-109536445D01*
X103499862Y-109519114D01*
X103503934Y-109514152D01*
X103831118Y-109186968D01*
X103836080Y-109182896D01*
X103853411Y-109165565D01*
X103857488Y-109160597D01*
X104184670Y-108833415D01*
X104189638Y-108829338D01*
X104206969Y-108812007D01*
X104211041Y-108807045D01*
X104538225Y-108479861D01*
X104543187Y-108475789D01*
X104560518Y-108458458D01*
X104564595Y-108453490D01*
X104891781Y-108126304D01*
X104896744Y-108122231D01*
X104914071Y-108104904D01*
X104918144Y-108099941D01*
X105245330Y-107772755D01*
X105250298Y-107768678D01*
X105267629Y-107751347D01*
X105271701Y-107746385D01*
X105598885Y-107419201D01*
X105603847Y-107415129D01*
X105621178Y-107397798D01*
X105625255Y-107392830D01*
X105952441Y-107065644D01*
X105957404Y-107061571D01*
X105974731Y-107044244D01*
X105978804Y-107039281D01*
X106305990Y-106712095D01*
X106310958Y-106708018D01*
X106328289Y-106690687D01*
X106332361Y-106685725D01*
X106659545Y-106358541D01*
X106664507Y-106354469D01*
X106681838Y-106337138D01*
X106685915Y-106332170D01*
X107013097Y-106004988D01*
X107018065Y-106000911D01*
X107035396Y-105983580D01*
X107039468Y-105978618D01*
X107366652Y-105651434D01*
X107371614Y-105647362D01*
X107388945Y-105630031D01*
X107393022Y-105625063D01*
X107720208Y-105297877D01*
X107725171Y-105293804D01*
X107742498Y-105276477D01*
X107746571Y-105271514D01*
X108073757Y-104944328D01*
X108078725Y-104940251D01*
X108096056Y-104922920D01*
X108100128Y-104917958D01*
X108427312Y-104590774D01*
X108432274Y-104586702D01*
X108449605Y-104569371D01*
X108453682Y-104564403D01*
X108780864Y-104237221D01*
X108785832Y-104233144D01*
X108803163Y-104215813D01*
X108807235Y-104210851D01*
X109134419Y-103883667D01*
X109139381Y-103879595D01*
X109156712Y-103862264D01*
X109160789Y-103857296D01*
X109487975Y-103530110D01*
X109492938Y-103526037D01*
X109510265Y-103508710D01*
X109514338Y-103503747D01*
X109841522Y-103176563D01*
X109863257Y-103158726D01*
X109882601Y-103148387D01*
X109903594Y-103142018D01*
X109925421Y-103139868D01*
X109947248Y-103142018D01*
X109947248Y-103142018D01*
G37*
G36*
X96353622Y-111610617D02*
X96401585Y-111625166D01*
X96445775Y-111648786D01*
X96484518Y-111680582D01*
X96516314Y-111719325D01*
X96539934Y-111763515D01*
X96554483Y-111811478D01*
X96560000Y-111867491D01*
X96560000Y-112617709D01*
X96554483Y-112673722D01*
X96539934Y-112721685D01*
X96516314Y-112765875D01*
X96484518Y-112804618D01*
X96445775Y-112836414D01*
X96401585Y-112860034D01*
X96353622Y-112874583D01*
X96297609Y-112880100D01*
X95472391Y-112880100D01*
X95416378Y-112874583D01*
X95368415Y-112860034D01*
X95324225Y-112836414D01*
X95285482Y-112804618D01*
X95253686Y-112765875D01*
X95230066Y-112721685D01*
X95215517Y-112673722D01*
X95210000Y-112617709D01*
X95210000Y-111867491D01*
X95215517Y-111811478D01*
X95230066Y-111763515D01*
X95253686Y-111719325D01*
X95285482Y-111680582D01*
X95324225Y-111648786D01*
X95368415Y-111625166D01*
X95416378Y-111610617D01*
X95472391Y-111605100D01*
X96297609Y-111605100D01*
X96353622Y-111610617D01*
X96353622Y-111610617D01*
G37*
G36*
X158987749Y-109553129D02*
X159012251Y-109553129D01*
X159018638Y-109552500D01*
X159481362Y-109552500D01*
X159487749Y-109553129D01*
X159512251Y-109553129D01*
X159518638Y-109552500D01*
X159981362Y-109552500D01*
X159987749Y-109553129D01*
X160012251Y-109553129D01*
X160018638Y-109552500D01*
X160481362Y-109552500D01*
X160487749Y-109553129D01*
X160512251Y-109553129D01*
X160518638Y-109552500D01*
X160981362Y-109552500D01*
X160987749Y-109553129D01*
X161012251Y-109553129D01*
X161018638Y-109552500D01*
X161481362Y-109552500D01*
X161487749Y-109553129D01*
X161512251Y-109553129D01*
X161518638Y-109552500D01*
X161981362Y-109552500D01*
X161987749Y-109553129D01*
X162012251Y-109553129D01*
X162018638Y-109552500D01*
X162481362Y-109552500D01*
X162487749Y-109553129D01*
X162512251Y-109553129D01*
X162518638Y-109552500D01*
X162981362Y-109552500D01*
X162987749Y-109553129D01*
X163012251Y-109553129D01*
X163018638Y-109552500D01*
X163481362Y-109552500D01*
X163487749Y-109553129D01*
X163512251Y-109553129D01*
X163518638Y-109552500D01*
X163981362Y-109552500D01*
X163987749Y-109553129D01*
X164012251Y-109553129D01*
X164018638Y-109552500D01*
X164481362Y-109552500D01*
X164487749Y-109553129D01*
X164512251Y-109553129D01*
X164518638Y-109552500D01*
X164981362Y-109552500D01*
X164987749Y-109553129D01*
X165012251Y-109553129D01*
X165018638Y-109552500D01*
X165481362Y-109552500D01*
X165487749Y-109553129D01*
X165512251Y-109553129D01*
X165518638Y-109552500D01*
X165981362Y-109552500D01*
X165987749Y-109553129D01*
X166012251Y-109553129D01*
X166018638Y-109552500D01*
X166481362Y-109552500D01*
X166487749Y-109553129D01*
X166512251Y-109553129D01*
X166518638Y-109552500D01*
X166981362Y-109552500D01*
X166987749Y-109553129D01*
X167012251Y-109553129D01*
X167018638Y-109552500D01*
X167481362Y-109552500D01*
X167487749Y-109553129D01*
X167512251Y-109553129D01*
X167518638Y-109552500D01*
X167981362Y-109552500D01*
X167987749Y-109553129D01*
X168012251Y-109553129D01*
X168018638Y-109552500D01*
X168481362Y-109552500D01*
X168487749Y-109553129D01*
X168512251Y-109553129D01*
X168518638Y-109552500D01*
X168981362Y-109552500D01*
X168987749Y-109553129D01*
X169012251Y-109553129D01*
X169018638Y-109552500D01*
X169481362Y-109552500D01*
X169487749Y-109553129D01*
X169512251Y-109553129D01*
X169518638Y-109552500D01*
X169981362Y-109552500D01*
X169987749Y-109553129D01*
X170012251Y-109553129D01*
X170018638Y-109552500D01*
X170481362Y-109552500D01*
X170487749Y-109553129D01*
X170512251Y-109553129D01*
X170518638Y-109552500D01*
X170981362Y-109552500D01*
X171009327Y-109555254D01*
X171030320Y-109561623D01*
X171049664Y-109571962D01*
X171066622Y-109585878D01*
X171080538Y-109602836D01*
X171090877Y-109622180D01*
X171097246Y-109643173D01*
X171100000Y-109671138D01*
X171100000Y-111308862D01*
X171097246Y-111336827D01*
X171090877Y-111357820D01*
X171080538Y-111377164D01*
X171066622Y-111394122D01*
X171049664Y-111408038D01*
X171030320Y-111418377D01*
X171009327Y-111424746D01*
X170981362Y-111427500D01*
X170518638Y-111427500D01*
X170512251Y-111426871D01*
X170487749Y-111426871D01*
X170481362Y-111427500D01*
X170018638Y-111427500D01*
X170012251Y-111426871D01*
X169987749Y-111426871D01*
X169981362Y-111427500D01*
X169518638Y-111427500D01*
X169512251Y-111426871D01*
X169487749Y-111426871D01*
X169481362Y-111427500D01*
X169018638Y-111427500D01*
X169012251Y-111426871D01*
X168987749Y-111426871D01*
X168981362Y-111427500D01*
X168518638Y-111427500D01*
X168512251Y-111426871D01*
X168487749Y-111426871D01*
X168481362Y-111427500D01*
X168018638Y-111427500D01*
X168012251Y-111426871D01*
X167987749Y-111426871D01*
X167981362Y-111427500D01*
X167518638Y-111427500D01*
X167512251Y-111426871D01*
X167487749Y-111426871D01*
X167481362Y-111427500D01*
X167018638Y-111427500D01*
X167012251Y-111426871D01*
X166987749Y-111426871D01*
X166981362Y-111427500D01*
X166518638Y-111427500D01*
X166512251Y-111426871D01*
X166487749Y-111426871D01*
X166481362Y-111427500D01*
X166018638Y-111427500D01*
X166012251Y-111426871D01*
X165987749Y-111426871D01*
X165981362Y-111427500D01*
X165518638Y-111427500D01*
X165512251Y-111426871D01*
X165487749Y-111426871D01*
X165481362Y-111427500D01*
X165018638Y-111427500D01*
X165012251Y-111426871D01*
X164987749Y-111426871D01*
X164981362Y-111427500D01*
X164518638Y-111427500D01*
X164512251Y-111426871D01*
X164487749Y-111426871D01*
X164481362Y-111427500D01*
X164018638Y-111427500D01*
X164012251Y-111426871D01*
X163987749Y-111426871D01*
X163981362Y-111427500D01*
X163518638Y-111427500D01*
X163512251Y-111426871D01*
X163487749Y-111426871D01*
X163481362Y-111427500D01*
X163018638Y-111427500D01*
X163012251Y-111426871D01*
X162987749Y-111426871D01*
X162981362Y-111427500D01*
X162518638Y-111427500D01*
X162512251Y-111426871D01*
X162487749Y-111426871D01*
X162481362Y-111427500D01*
X162018638Y-111427500D01*
X162012251Y-111426871D01*
X161987749Y-111426871D01*
X161981362Y-111427500D01*
X161518638Y-111427500D01*
X161512251Y-111426871D01*
X161487749Y-111426871D01*
X161481362Y-111427500D01*
X161018638Y-111427500D01*
X161012251Y-111426871D01*
X160987749Y-111426871D01*
X160981362Y-111427500D01*
X160518638Y-111427500D01*
X160512251Y-111426871D01*
X160487749Y-111426871D01*
X160481362Y-111427500D01*
X160018638Y-111427500D01*
X160012251Y-111426871D01*
X159987749Y-111426871D01*
X159981362Y-111427500D01*
X159518638Y-111427500D01*
X159512251Y-111426871D01*
X159487749Y-111426871D01*
X159481362Y-111427500D01*
X159018638Y-111427500D01*
X159012251Y-111426871D01*
X158987749Y-111426871D01*
X158981362Y-111427500D01*
X158518638Y-111427500D01*
X158490673Y-111424746D01*
X158469680Y-111418377D01*
X158450336Y-111408038D01*
X158433378Y-111394122D01*
X158419462Y-111377164D01*
X158409123Y-111357820D01*
X158402754Y-111336827D01*
X158400000Y-111308862D01*
X158400000Y-109671138D01*
X158402754Y-109643173D01*
X158409123Y-109622180D01*
X158419462Y-109602836D01*
X158433378Y-109585878D01*
X158450336Y-109571962D01*
X158469680Y-109561623D01*
X158490673Y-109555254D01*
X158518638Y-109552500D01*
X158981362Y-109552500D01*
X158987749Y-109553129D01*
X158987749Y-109553129D01*
G37*
G36*
X117777749Y-109553129D02*
X117802251Y-109553129D01*
X117808638Y-109552500D01*
X118271362Y-109552500D01*
X118277749Y-109553129D01*
X118302251Y-109553129D01*
X118308638Y-109552500D01*
X118771362Y-109552500D01*
X118777749Y-109553129D01*
X118802251Y-109553129D01*
X118808638Y-109552500D01*
X119271362Y-109552500D01*
X119277749Y-109553129D01*
X119302251Y-109553129D01*
X119308638Y-109552500D01*
X119771362Y-109552500D01*
X119777749Y-109553129D01*
X119802251Y-109553129D01*
X119808638Y-109552500D01*
X120271362Y-109552500D01*
X120277749Y-109553129D01*
X120302251Y-109553129D01*
X120308638Y-109552500D01*
X120771362Y-109552500D01*
X120777749Y-109553129D01*
X120802251Y-109553129D01*
X120808638Y-109552500D01*
X121271362Y-109552500D01*
X121277749Y-109553129D01*
X121302251Y-109553129D01*
X121308638Y-109552500D01*
X121771362Y-109552500D01*
X121777749Y-109553129D01*
X121802251Y-109553129D01*
X121808638Y-109552500D01*
X122271362Y-109552500D01*
X122277749Y-109553129D01*
X122302251Y-109553129D01*
X122308638Y-109552500D01*
X122771362Y-109552500D01*
X122777749Y-109553129D01*
X122802251Y-109553129D01*
X122808638Y-109552500D01*
X123271362Y-109552500D01*
X123277749Y-109553129D01*
X123302251Y-109553129D01*
X123308638Y-109552500D01*
X123771362Y-109552500D01*
X123777749Y-109553129D01*
X123802251Y-109553129D01*
X123808638Y-109552500D01*
X124271362Y-109552500D01*
X124277749Y-109553129D01*
X124302251Y-109553129D01*
X124308638Y-109552500D01*
X124771362Y-109552500D01*
X124777749Y-109553129D01*
X124802251Y-109553129D01*
X124808638Y-109552500D01*
X125271362Y-109552500D01*
X125277749Y-109553129D01*
X125302251Y-109553129D01*
X125308638Y-109552500D01*
X125771362Y-109552500D01*
X125777749Y-109553129D01*
X125802251Y-109553129D01*
X125808638Y-109552500D01*
X126271362Y-109552500D01*
X126277749Y-109553129D01*
X126302251Y-109553129D01*
X126308638Y-109552500D01*
X126771362Y-109552500D01*
X126777749Y-109553129D01*
X126802251Y-109553129D01*
X126808638Y-109552500D01*
X127271362Y-109552500D01*
X127277749Y-109553129D01*
X127302251Y-109553129D01*
X127308638Y-109552500D01*
X127771362Y-109552500D01*
X127777749Y-109553129D01*
X127802251Y-109553129D01*
X127808638Y-109552500D01*
X128271362Y-109552500D01*
X128277749Y-109553129D01*
X128302251Y-109553129D01*
X128308638Y-109552500D01*
X128771362Y-109552500D01*
X128777749Y-109553129D01*
X128802251Y-109553129D01*
X128808638Y-109552500D01*
X129271362Y-109552500D01*
X129277749Y-109553129D01*
X129302251Y-109553129D01*
X129308638Y-109552500D01*
X129771362Y-109552500D01*
X129799327Y-109555254D01*
X129820320Y-109561623D01*
X129839664Y-109571962D01*
X129856622Y-109585878D01*
X129870538Y-109602836D01*
X129880877Y-109622180D01*
X129887246Y-109643173D01*
X129890000Y-109671138D01*
X129890000Y-111308862D01*
X129887246Y-111336827D01*
X129880877Y-111357820D01*
X129870538Y-111377164D01*
X129856622Y-111394122D01*
X129839664Y-111408038D01*
X129820320Y-111418377D01*
X129799327Y-111424746D01*
X129771362Y-111427500D01*
X129308638Y-111427500D01*
X129302251Y-111426871D01*
X129277749Y-111426871D01*
X129271362Y-111427500D01*
X128808638Y-111427500D01*
X128802251Y-111426871D01*
X128777749Y-111426871D01*
X128771362Y-111427500D01*
X128308638Y-111427500D01*
X128302251Y-111426871D01*
X128277749Y-111426871D01*
X128271362Y-111427500D01*
X127808638Y-111427500D01*
X127802251Y-111426871D01*
X127777749Y-111426871D01*
X127771362Y-111427500D01*
X127308638Y-111427500D01*
X127302251Y-111426871D01*
X127277749Y-111426871D01*
X127271362Y-111427500D01*
X126808638Y-111427500D01*
X126802251Y-111426871D01*
X126777749Y-111426871D01*
X126771362Y-111427500D01*
X126308638Y-111427500D01*
X126302251Y-111426871D01*
X126277749Y-111426871D01*
X126271362Y-111427500D01*
X125808638Y-111427500D01*
X125802251Y-111426871D01*
X125777749Y-111426871D01*
X125771362Y-111427500D01*
X125308638Y-111427500D01*
X125302251Y-111426871D01*
X125277749Y-111426871D01*
X125271362Y-111427500D01*
X124808638Y-111427500D01*
X124802251Y-111426871D01*
X124777749Y-111426871D01*
X124771362Y-111427500D01*
X124308638Y-111427500D01*
X124302251Y-111426871D01*
X124277749Y-111426871D01*
X124271362Y-111427500D01*
X123808638Y-111427500D01*
X123802251Y-111426871D01*
X123777749Y-111426871D01*
X123771362Y-111427500D01*
X123308638Y-111427500D01*
X123302251Y-111426871D01*
X123277749Y-111426871D01*
X123271362Y-111427500D01*
X122808638Y-111427500D01*
X122802251Y-111426871D01*
X122777749Y-111426871D01*
X122771362Y-111427500D01*
X122308638Y-111427500D01*
X122302251Y-111426871D01*
X122277749Y-111426871D01*
X122271362Y-111427500D01*
X121808638Y-111427500D01*
X121802251Y-111426871D01*
X121777749Y-111426871D01*
X121771362Y-111427500D01*
X121308638Y-111427500D01*
X121302251Y-111426871D01*
X121277749Y-111426871D01*
X121271362Y-111427500D01*
X120808638Y-111427500D01*
X120802251Y-111426871D01*
X120777749Y-111426871D01*
X120771362Y-111427500D01*
X120308638Y-111427500D01*
X120302251Y-111426871D01*
X120277749Y-111426871D01*
X120271362Y-111427500D01*
X119808638Y-111427500D01*
X119802251Y-111426871D01*
X119777749Y-111426871D01*
X119771362Y-111427500D01*
X119308638Y-111427500D01*
X119302251Y-111426871D01*
X119277749Y-111426871D01*
X119271362Y-111427500D01*
X118808638Y-111427500D01*
X118802251Y-111426871D01*
X118777749Y-111426871D01*
X118771362Y-111427500D01*
X118308638Y-111427500D01*
X118302251Y-111426871D01*
X118277749Y-111426871D01*
X118271362Y-111427500D01*
X117808638Y-111427500D01*
X117802251Y-111426871D01*
X117777749Y-111426871D01*
X117771362Y-111427500D01*
X117308638Y-111427500D01*
X117280673Y-111424746D01*
X117259680Y-111418377D01*
X117240336Y-111408038D01*
X117223378Y-111394122D01*
X117209462Y-111377164D01*
X117199123Y-111357820D01*
X117192754Y-111336827D01*
X117190000Y-111308862D01*
X117190000Y-109671138D01*
X117192754Y-109643173D01*
X117199123Y-109622180D01*
X117209462Y-109602836D01*
X117223378Y-109585878D01*
X117240336Y-109571962D01*
X117259680Y-109561623D01*
X117280673Y-109555254D01*
X117308638Y-109552500D01*
X117771362Y-109552500D01*
X117777749Y-109553129D01*
X117777749Y-109553129D01*
G37*
G36*
X139584422Y-108156217D02*
X139632385Y-108170766D01*
X139676575Y-108194386D01*
X139715318Y-108226182D01*
X139747114Y-108264925D01*
X139770734Y-108309115D01*
X139785283Y-108357078D01*
X139790800Y-108413091D01*
X139790800Y-109163309D01*
X139785283Y-109219322D01*
X139770734Y-109267285D01*
X139747114Y-109311475D01*
X139715318Y-109350218D01*
X139676575Y-109382014D01*
X139632385Y-109405634D01*
X139584422Y-109420183D01*
X139528409Y-109425700D01*
X138703191Y-109425700D01*
X138647178Y-109420183D01*
X138599215Y-109405634D01*
X138555025Y-109382014D01*
X138516282Y-109350218D01*
X138484486Y-109311475D01*
X138460866Y-109267285D01*
X138446317Y-109219322D01*
X138440800Y-109163309D01*
X138440800Y-108413091D01*
X138446317Y-108357078D01*
X138460866Y-108309115D01*
X138484486Y-108264925D01*
X138516282Y-108226182D01*
X138555025Y-108194386D01*
X138599215Y-108170766D01*
X138647178Y-108156217D01*
X138703191Y-108150700D01*
X139528409Y-108150700D01*
X139584422Y-108156217D01*
X139584422Y-108156217D01*
G37*
G36*
X173259327Y-96480254D02*
X173280320Y-96486623D01*
X173299664Y-96496962D01*
X173316622Y-96510878D01*
X173330538Y-96527836D01*
X173340877Y-96547180D01*
X173347246Y-96568173D01*
X173350000Y-96596138D01*
X173350000Y-97058862D01*
X173349371Y-97065249D01*
X173349371Y-97089751D01*
X173350000Y-97096138D01*
X173350000Y-97558862D01*
X173349371Y-97565249D01*
X173349371Y-97589751D01*
X173350000Y-97596138D01*
X173350000Y-98058862D01*
X173349371Y-98065249D01*
X173349371Y-98089751D01*
X173350000Y-98096138D01*
X173350000Y-98558862D01*
X173349371Y-98565249D01*
X173349371Y-98589751D01*
X173350000Y-98596138D01*
X173350000Y-99058862D01*
X173349371Y-99065249D01*
X173349371Y-99089751D01*
X173350000Y-99096138D01*
X173350000Y-99558862D01*
X173349371Y-99565249D01*
X173349371Y-99589751D01*
X173350000Y-99596138D01*
X173350000Y-100058862D01*
X173349371Y-100065249D01*
X173349371Y-100089751D01*
X173350000Y-100096138D01*
X173350000Y-100558862D01*
X173349371Y-100565249D01*
X173349371Y-100589751D01*
X173350000Y-100596138D01*
X173350000Y-101058862D01*
X173349371Y-101065249D01*
X173349371Y-101089751D01*
X173350000Y-101096138D01*
X173350000Y-101558862D01*
X173349371Y-101565249D01*
X173349371Y-101589751D01*
X173350000Y-101596138D01*
X173350000Y-102058862D01*
X173349371Y-102065249D01*
X173349371Y-102089751D01*
X173350000Y-102096138D01*
X173350000Y-102558862D01*
X173349371Y-102565249D01*
X173349371Y-102589751D01*
X173350000Y-102596138D01*
X173350000Y-103058862D01*
X173349371Y-103065249D01*
X173349371Y-103089751D01*
X173350000Y-103096138D01*
X173350000Y-103558862D01*
X173349371Y-103565249D01*
X173349371Y-103589751D01*
X173350000Y-103596138D01*
X173350000Y-104058862D01*
X173349371Y-104065249D01*
X173349371Y-104089751D01*
X173350000Y-104096138D01*
X173350000Y-104558862D01*
X173349371Y-104565249D01*
X173349371Y-104589751D01*
X173350000Y-104596138D01*
X173350000Y-105058862D01*
X173349371Y-105065249D01*
X173349371Y-105089751D01*
X173350000Y-105096138D01*
X173350000Y-105558862D01*
X173349371Y-105565249D01*
X173349371Y-105589751D01*
X173350000Y-105596138D01*
X173350000Y-106058862D01*
X173349371Y-106065249D01*
X173349371Y-106089751D01*
X173350000Y-106096138D01*
X173350000Y-106558862D01*
X173349371Y-106565249D01*
X173349371Y-106589751D01*
X173350000Y-106596138D01*
X173350000Y-107058862D01*
X173349371Y-107065249D01*
X173349371Y-107089751D01*
X173350000Y-107096138D01*
X173350000Y-107558862D01*
X173349371Y-107565249D01*
X173349371Y-107589751D01*
X173350000Y-107596138D01*
X173350000Y-108058862D01*
X173349371Y-108065249D01*
X173349371Y-108089751D01*
X173350000Y-108096138D01*
X173350000Y-108558862D01*
X173349371Y-108565249D01*
X173349371Y-108589751D01*
X173350000Y-108596138D01*
X173350000Y-109058862D01*
X173347246Y-109086827D01*
X173340877Y-109107820D01*
X173330538Y-109127164D01*
X173316622Y-109144122D01*
X173299664Y-109158038D01*
X173280320Y-109168377D01*
X173259327Y-109174746D01*
X173231362Y-109177500D01*
X171593638Y-109177500D01*
X171565673Y-109174746D01*
X171544680Y-109168377D01*
X171525336Y-109158038D01*
X171508378Y-109144122D01*
X171494462Y-109127164D01*
X171484123Y-109107820D01*
X171477754Y-109086827D01*
X171475000Y-109058862D01*
X171475000Y-108596138D01*
X171475629Y-108589751D01*
X171475629Y-108565249D01*
X171475000Y-108558862D01*
X171475000Y-108096138D01*
X171475629Y-108089751D01*
X171475629Y-108065249D01*
X171475000Y-108058862D01*
X171475000Y-107596138D01*
X171475629Y-107589751D01*
X171475629Y-107565249D01*
X171475000Y-107558862D01*
X171475000Y-107096138D01*
X171475629Y-107089751D01*
X171475629Y-107065249D01*
X171475000Y-107058862D01*
X171475000Y-106596138D01*
X171475629Y-106589751D01*
X171475629Y-106565249D01*
X171475000Y-106558862D01*
X171475000Y-106096138D01*
X171475629Y-106089751D01*
X171475629Y-106065249D01*
X171475000Y-106058862D01*
X171475000Y-105596138D01*
X171475629Y-105589751D01*
X171475629Y-105565249D01*
X171475000Y-105558862D01*
X171475000Y-105096138D01*
X171475629Y-105089751D01*
X171475629Y-105065249D01*
X171475000Y-105058862D01*
X171475000Y-104596138D01*
X171475629Y-104589751D01*
X171475629Y-104565249D01*
X171475000Y-104558862D01*
X171475000Y-104096138D01*
X171475629Y-104089751D01*
X171475629Y-104065249D01*
X171475000Y-104058862D01*
X171475000Y-103596138D01*
X171475629Y-103589751D01*
X171475629Y-103565249D01*
X171475000Y-103558862D01*
X171475000Y-103096138D01*
X171475629Y-103089751D01*
X171475629Y-103065249D01*
X171475000Y-103058862D01*
X171475000Y-102596138D01*
X171475629Y-102589751D01*
X171475629Y-102565249D01*
X171475000Y-102558862D01*
X171475000Y-102096138D01*
X171475629Y-102089751D01*
X171475629Y-102065249D01*
X171475000Y-102058862D01*
X171475000Y-101596138D01*
X171475629Y-101589751D01*
X171475629Y-101565249D01*
X171475000Y-101558862D01*
X171475000Y-101096138D01*
X171475629Y-101089751D01*
X171475629Y-101065249D01*
X171475000Y-101058862D01*
X171475000Y-100596138D01*
X171475629Y-100589751D01*
X171475629Y-100565249D01*
X171475000Y-100558862D01*
X171475000Y-100096138D01*
X171475629Y-100089751D01*
X171475629Y-100065249D01*
X171475000Y-100058862D01*
X171475000Y-99596138D01*
X171475629Y-99589751D01*
X171475629Y-99565249D01*
X171475000Y-99558862D01*
X171475000Y-99096138D01*
X171475629Y-99089751D01*
X171475629Y-99065249D01*
X171475000Y-99058862D01*
X171475000Y-98596138D01*
X171475629Y-98589751D01*
X171475629Y-98565249D01*
X171475000Y-98558862D01*
X171475000Y-98096138D01*
X171475629Y-98089751D01*
X171475629Y-98065249D01*
X171475000Y-98058862D01*
X171475000Y-97596138D01*
X171475629Y-97589751D01*
X171475629Y-97565249D01*
X171475000Y-97558862D01*
X171475000Y-97096138D01*
X171475629Y-97089751D01*
X171475629Y-97065249D01*
X171475000Y-97058862D01*
X171475000Y-96596138D01*
X171477754Y-96568173D01*
X171484123Y-96547180D01*
X171494462Y-96527836D01*
X171508378Y-96510878D01*
X171525336Y-96496962D01*
X171544680Y-96486623D01*
X171565673Y-96480254D01*
X171593638Y-96477500D01*
X173231362Y-96477500D01*
X173259327Y-96480254D01*
X173259327Y-96480254D01*
G37*
G36*
X116724327Y-96480254D02*
X116745320Y-96486623D01*
X116764664Y-96496962D01*
X116781622Y-96510878D01*
X116795538Y-96527836D01*
X116805877Y-96547180D01*
X116812246Y-96568173D01*
X116815000Y-96596138D01*
X116815000Y-97058862D01*
X116814371Y-97065249D01*
X116814371Y-97089751D01*
X116815000Y-97096138D01*
X116815000Y-97558862D01*
X116814371Y-97565249D01*
X116814371Y-97589751D01*
X116815000Y-97596138D01*
X116815000Y-98058862D01*
X116814371Y-98065249D01*
X116814371Y-98089751D01*
X116815000Y-98096138D01*
X116815000Y-98558862D01*
X116814371Y-98565249D01*
X116814371Y-98589751D01*
X116815000Y-98596138D01*
X116815000Y-99058862D01*
X116814371Y-99065249D01*
X116814371Y-99089751D01*
X116815000Y-99096138D01*
X116815000Y-99558862D01*
X116814371Y-99565249D01*
X116814371Y-99589751D01*
X116815000Y-99596138D01*
X116815000Y-100058862D01*
X116814371Y-100065249D01*
X116814371Y-100089751D01*
X116815000Y-100096138D01*
X116815000Y-100558862D01*
X116814371Y-100565249D01*
X116814371Y-100589751D01*
X116815000Y-100596138D01*
X116815000Y-101058862D01*
X116814371Y-101065249D01*
X116814371Y-101089751D01*
X116815000Y-101096138D01*
X116815000Y-101558862D01*
X116814371Y-101565249D01*
X116814371Y-101589751D01*
X116815000Y-101596138D01*
X116815000Y-102058862D01*
X116814371Y-102065249D01*
X116814371Y-102089751D01*
X116815000Y-102096138D01*
X116815000Y-102558862D01*
X116814371Y-102565249D01*
X116814371Y-102589751D01*
X116815000Y-102596138D01*
X116815000Y-103058862D01*
X116814371Y-103065249D01*
X116814371Y-103089751D01*
X116815000Y-103096138D01*
X116815000Y-103558862D01*
X116814371Y-103565249D01*
X116814371Y-103589751D01*
X116815000Y-103596138D01*
X116815000Y-104058862D01*
X116814371Y-104065249D01*
X116814371Y-104089751D01*
X116815000Y-104096138D01*
X116815000Y-104558862D01*
X116814371Y-104565249D01*
X116814371Y-104589751D01*
X116815000Y-104596138D01*
X116815000Y-105058862D01*
X116814371Y-105065249D01*
X116814371Y-105089751D01*
X116815000Y-105096138D01*
X116815000Y-105558862D01*
X116814371Y-105565249D01*
X116814371Y-105589751D01*
X116815000Y-105596138D01*
X116815000Y-106058862D01*
X116814371Y-106065249D01*
X116814371Y-106089751D01*
X116815000Y-106096138D01*
X116815000Y-106558862D01*
X116814371Y-106565249D01*
X116814371Y-106589751D01*
X116815000Y-106596138D01*
X116815000Y-107058862D01*
X116814371Y-107065249D01*
X116814371Y-107089751D01*
X116815000Y-107096138D01*
X116815000Y-107558862D01*
X116814371Y-107565249D01*
X116814371Y-107589751D01*
X116815000Y-107596138D01*
X116815000Y-108058862D01*
X116814371Y-108065249D01*
X116814371Y-108089751D01*
X116815000Y-108096138D01*
X116815000Y-108558862D01*
X116814371Y-108565249D01*
X116814371Y-108589751D01*
X116815000Y-108596138D01*
X116815000Y-109058862D01*
X116812246Y-109086827D01*
X116805877Y-109107820D01*
X116795538Y-109127164D01*
X116781622Y-109144122D01*
X116764664Y-109158038D01*
X116745320Y-109168377D01*
X116724327Y-109174746D01*
X116696362Y-109177500D01*
X115058638Y-109177500D01*
X115030673Y-109174746D01*
X115009680Y-109168377D01*
X114990336Y-109158038D01*
X114973378Y-109144122D01*
X114959462Y-109127164D01*
X114949123Y-109107820D01*
X114942754Y-109086827D01*
X114940000Y-109058862D01*
X114940000Y-108596138D01*
X114940629Y-108589751D01*
X114940629Y-108565249D01*
X114940000Y-108558862D01*
X114940000Y-108096138D01*
X114940629Y-108089751D01*
X114940629Y-108065249D01*
X114940000Y-108058862D01*
X114940000Y-107596138D01*
X114940629Y-107589751D01*
X114940629Y-107565249D01*
X114940000Y-107558862D01*
X114940000Y-107096138D01*
X114940629Y-107089751D01*
X114940629Y-107065249D01*
X114940000Y-107058862D01*
X114940000Y-106596138D01*
X114940629Y-106589751D01*
X114940629Y-106565249D01*
X114940000Y-106558862D01*
X114940000Y-106096138D01*
X114940629Y-106089751D01*
X114940629Y-106065249D01*
X114940000Y-106058862D01*
X114940000Y-105596138D01*
X114940629Y-105589751D01*
X114940629Y-105565249D01*
X114940000Y-105558862D01*
X114940000Y-105096138D01*
X114940629Y-105089751D01*
X114940629Y-105065249D01*
X114940000Y-105058862D01*
X114940000Y-104596138D01*
X114940629Y-104589751D01*
X114940629Y-104565249D01*
X114940000Y-104558862D01*
X114940000Y-104096138D01*
X114940629Y-104089751D01*
X114940629Y-104065249D01*
X114940000Y-104058862D01*
X114940000Y-103596138D01*
X114940629Y-103589751D01*
X114940629Y-103565249D01*
X114940000Y-103558862D01*
X114940000Y-103096138D01*
X114940629Y-103089751D01*
X114940629Y-103065249D01*
X114940000Y-103058862D01*
X114940000Y-102596138D01*
X114940629Y-102589751D01*
X114940629Y-102565249D01*
X114940000Y-102558862D01*
X114940000Y-102096138D01*
X114940629Y-102089751D01*
X114940629Y-102065249D01*
X114940000Y-102058862D01*
X114940000Y-101596138D01*
X114940629Y-101589751D01*
X114940629Y-101565249D01*
X114940000Y-101558862D01*
X114940000Y-101096138D01*
X114940629Y-101089751D01*
X114940629Y-101065249D01*
X114940000Y-101058862D01*
X114940000Y-100596138D01*
X114940629Y-100589751D01*
X114940629Y-100565249D01*
X114940000Y-100558862D01*
X114940000Y-100096138D01*
X114940629Y-100089751D01*
X114940629Y-100065249D01*
X114940000Y-100058862D01*
X114940000Y-99596138D01*
X114940629Y-99589751D01*
X114940629Y-99565249D01*
X114940000Y-99558862D01*
X114940000Y-99096138D01*
X114940629Y-99089751D01*
X114940629Y-99065249D01*
X114940000Y-99058862D01*
X114940000Y-98596138D01*
X114940629Y-98589751D01*
X114940629Y-98565249D01*
X114940000Y-98558862D01*
X114940000Y-98096138D01*
X114940629Y-98089751D01*
X114940629Y-98065249D01*
X114940000Y-98058862D01*
X114940000Y-97596138D01*
X114940629Y-97589751D01*
X114940629Y-97565249D01*
X114940000Y-97558862D01*
X114940000Y-97096138D01*
X114940629Y-97089751D01*
X114940629Y-97065249D01*
X114940000Y-97058862D01*
X114940000Y-96596138D01*
X114942754Y-96568173D01*
X114949123Y-96547180D01*
X114959462Y-96527836D01*
X114973378Y-96510878D01*
X114990336Y-96496962D01*
X115009680Y-96486623D01*
X115030673Y-96480254D01*
X115058638Y-96477500D01*
X116696362Y-96477500D01*
X116724327Y-96480254D01*
X116724327Y-96480254D01*
G37*
G36*
X132049327Y-96480254D02*
X132070320Y-96486623D01*
X132089664Y-96496962D01*
X132106622Y-96510878D01*
X132120538Y-96527836D01*
X132130877Y-96547180D01*
X132137246Y-96568173D01*
X132140000Y-96596138D01*
X132140000Y-97058862D01*
X132139371Y-97065249D01*
X132139371Y-97089751D01*
X132140000Y-97096138D01*
X132140000Y-97558862D01*
X132139371Y-97565249D01*
X132139371Y-97589751D01*
X132140000Y-97596138D01*
X132140000Y-98058862D01*
X132139371Y-98065249D01*
X132139371Y-98089751D01*
X132140000Y-98096138D01*
X132140000Y-98558862D01*
X132139371Y-98565249D01*
X132139371Y-98589751D01*
X132140000Y-98596138D01*
X132140000Y-99058862D01*
X132139371Y-99065249D01*
X132139371Y-99089751D01*
X132140000Y-99096138D01*
X132140000Y-99558862D01*
X132139371Y-99565249D01*
X132139371Y-99589751D01*
X132140000Y-99596138D01*
X132140000Y-100058862D01*
X132139371Y-100065249D01*
X132139371Y-100089751D01*
X132140000Y-100096138D01*
X132140000Y-100558862D01*
X132139371Y-100565249D01*
X132139371Y-100589751D01*
X132140000Y-100596138D01*
X132140000Y-101058862D01*
X132139371Y-101065249D01*
X132139371Y-101089751D01*
X132140000Y-101096138D01*
X132140000Y-101558862D01*
X132139371Y-101565249D01*
X132139371Y-101589751D01*
X132140000Y-101596138D01*
X132140000Y-102058862D01*
X132139371Y-102065249D01*
X132139371Y-102089751D01*
X132140000Y-102096138D01*
X132140000Y-102558862D01*
X132139371Y-102565249D01*
X132139371Y-102589751D01*
X132140000Y-102596138D01*
X132140000Y-103058862D01*
X132139371Y-103065249D01*
X132139371Y-103089751D01*
X132140000Y-103096138D01*
X132140000Y-103558862D01*
X132139371Y-103565249D01*
X132139371Y-103589751D01*
X132140000Y-103596138D01*
X132140000Y-104058862D01*
X132139371Y-104065249D01*
X132139371Y-104089751D01*
X132140000Y-104096138D01*
X132140000Y-104558862D01*
X132139371Y-104565249D01*
X132139371Y-104589751D01*
X132140000Y-104596138D01*
X132140000Y-105058862D01*
X132139371Y-105065249D01*
X132139371Y-105089751D01*
X132140000Y-105096138D01*
X132140000Y-105558862D01*
X132139371Y-105565249D01*
X132139371Y-105589751D01*
X132140000Y-105596138D01*
X132140000Y-106058862D01*
X132139371Y-106065249D01*
X132139371Y-106089751D01*
X132140000Y-106096138D01*
X132140000Y-106558862D01*
X132139371Y-106565249D01*
X132139371Y-106589751D01*
X132140000Y-106596138D01*
X132140000Y-107058862D01*
X132139371Y-107065249D01*
X132139371Y-107089751D01*
X132140000Y-107096138D01*
X132140000Y-107558862D01*
X132139371Y-107565249D01*
X132139371Y-107589751D01*
X132140000Y-107596138D01*
X132140000Y-108058862D01*
X132139371Y-108065249D01*
X132139371Y-108089751D01*
X132140000Y-108096138D01*
X132140000Y-108558862D01*
X132139371Y-108565249D01*
X132139371Y-108589751D01*
X132140000Y-108596138D01*
X132140000Y-109058862D01*
X132137246Y-109086827D01*
X132130877Y-109107820D01*
X132120538Y-109127164D01*
X132106622Y-109144122D01*
X132089664Y-109158038D01*
X132070320Y-109168377D01*
X132049327Y-109174746D01*
X132021362Y-109177500D01*
X130383638Y-109177500D01*
X130355673Y-109174746D01*
X130334680Y-109168377D01*
X130315336Y-109158038D01*
X130298378Y-109144122D01*
X130284462Y-109127164D01*
X130274123Y-109107820D01*
X130267754Y-109086827D01*
X130265000Y-109058862D01*
X130265000Y-108596138D01*
X130265629Y-108589751D01*
X130265629Y-108565249D01*
X130265000Y-108558862D01*
X130265000Y-108096138D01*
X130265629Y-108089751D01*
X130265629Y-108065249D01*
X130265000Y-108058862D01*
X130265000Y-107596138D01*
X130265629Y-107589751D01*
X130265629Y-107565249D01*
X130265000Y-107558862D01*
X130265000Y-107096138D01*
X130265629Y-107089751D01*
X130265629Y-107065249D01*
X130265000Y-107058862D01*
X130265000Y-106596138D01*
X130265629Y-106589751D01*
X130265629Y-106565249D01*
X130265000Y-106558862D01*
X130265000Y-106096138D01*
X130265629Y-106089751D01*
X130265629Y-106065249D01*
X130265000Y-106058862D01*
X130265000Y-105596138D01*
X130265629Y-105589751D01*
X130265629Y-105565249D01*
X130265000Y-105558862D01*
X130265000Y-105096138D01*
X130265629Y-105089751D01*
X130265629Y-105065249D01*
X130265000Y-105058862D01*
X130265000Y-104596138D01*
X130265629Y-104589751D01*
X130265629Y-104565249D01*
X130265000Y-104558862D01*
X130265000Y-104096138D01*
X130265629Y-104089751D01*
X130265629Y-104065249D01*
X130265000Y-104058862D01*
X130265000Y-103596138D01*
X130265629Y-103589751D01*
X130265629Y-103565249D01*
X130265000Y-103558862D01*
X130265000Y-103096138D01*
X130265629Y-103089751D01*
X130265629Y-103065249D01*
X130265000Y-103058862D01*
X130265000Y-102596138D01*
X130265629Y-102589751D01*
X130265629Y-102565249D01*
X130265000Y-102558862D01*
X130265000Y-102096138D01*
X130265629Y-102089751D01*
X130265629Y-102065249D01*
X130265000Y-102058862D01*
X130265000Y-101596138D01*
X130265629Y-101589751D01*
X130265629Y-101565249D01*
X130265000Y-101558862D01*
X130265000Y-101096138D01*
X130265629Y-101089751D01*
X130265629Y-101065249D01*
X130265000Y-101058862D01*
X130265000Y-100596138D01*
X130265629Y-100589751D01*
X130265629Y-100565249D01*
X130265000Y-100558862D01*
X130265000Y-100096138D01*
X130265629Y-100089751D01*
X130265629Y-100065249D01*
X130265000Y-100058862D01*
X130265000Y-99596138D01*
X130265629Y-99589751D01*
X130265629Y-99565249D01*
X130265000Y-99558862D01*
X130265000Y-99096138D01*
X130265629Y-99089751D01*
X130265629Y-99065249D01*
X130265000Y-99058862D01*
X130265000Y-98596138D01*
X130265629Y-98589751D01*
X130265629Y-98565249D01*
X130265000Y-98558862D01*
X130265000Y-98096138D01*
X130265629Y-98089751D01*
X130265629Y-98065249D01*
X130265000Y-98058862D01*
X130265000Y-97596138D01*
X130265629Y-97589751D01*
X130265629Y-97565249D01*
X130265000Y-97558862D01*
X130265000Y-97096138D01*
X130265629Y-97089751D01*
X130265629Y-97065249D01*
X130265000Y-97058862D01*
X130265000Y-96596138D01*
X130267754Y-96568173D01*
X130274123Y-96547180D01*
X130284462Y-96527836D01*
X130298378Y-96510878D01*
X130315336Y-96496962D01*
X130334680Y-96486623D01*
X130355673Y-96480254D01*
X130383638Y-96477500D01*
X132021362Y-96477500D01*
X132049327Y-96480254D01*
X132049327Y-96480254D01*
G37*
G36*
X157934327Y-96480254D02*
X157955320Y-96486623D01*
X157974664Y-96496962D01*
X157991622Y-96510878D01*
X158005538Y-96527836D01*
X158015877Y-96547180D01*
X158022246Y-96568173D01*
X158025000Y-96596138D01*
X158025000Y-97058862D01*
X158024371Y-97065249D01*
X158024371Y-97089751D01*
X158025000Y-97096138D01*
X158025000Y-97558862D01*
X158024371Y-97565249D01*
X158024371Y-97589751D01*
X158025000Y-97596138D01*
X158025000Y-98058862D01*
X158024371Y-98065249D01*
X158024371Y-98089751D01*
X158025000Y-98096138D01*
X158025000Y-98558862D01*
X158024371Y-98565249D01*
X158024371Y-98589751D01*
X158025000Y-98596138D01*
X158025000Y-99058862D01*
X158024371Y-99065249D01*
X158024371Y-99089751D01*
X158025000Y-99096138D01*
X158025000Y-99558862D01*
X158024371Y-99565249D01*
X158024371Y-99589751D01*
X158025000Y-99596138D01*
X158025000Y-100058862D01*
X158024371Y-100065249D01*
X158024371Y-100089751D01*
X158025000Y-100096138D01*
X158025000Y-100558862D01*
X158024371Y-100565249D01*
X158024371Y-100589751D01*
X158025000Y-100596138D01*
X158025000Y-101058862D01*
X158024371Y-101065249D01*
X158024371Y-101089751D01*
X158025000Y-101096138D01*
X158025000Y-101558862D01*
X158024371Y-101565249D01*
X158024371Y-101589751D01*
X158025000Y-101596138D01*
X158025000Y-102058862D01*
X158024371Y-102065249D01*
X158024371Y-102089751D01*
X158025000Y-102096138D01*
X158025000Y-102558862D01*
X158024371Y-102565249D01*
X158024371Y-102589751D01*
X158025000Y-102596138D01*
X158025000Y-103058862D01*
X158024371Y-103065249D01*
X158024371Y-103089751D01*
X158025000Y-103096138D01*
X158025000Y-103558862D01*
X158024371Y-103565249D01*
X158024371Y-103589751D01*
X158025000Y-103596138D01*
X158025000Y-104058862D01*
X158024371Y-104065249D01*
X158024371Y-104089751D01*
X158025000Y-104096138D01*
X158025000Y-104558862D01*
X158024371Y-104565249D01*
X158024371Y-104589751D01*
X158025000Y-104596138D01*
X158025000Y-105058862D01*
X158024371Y-105065249D01*
X158024371Y-105089751D01*
X158025000Y-105096138D01*
X158025000Y-105558862D01*
X158024371Y-105565249D01*
X158024371Y-105589751D01*
X158025000Y-105596138D01*
X158025000Y-106058862D01*
X158024371Y-106065249D01*
X158024371Y-106089751D01*
X158025000Y-106096138D01*
X158025000Y-106558862D01*
X158024371Y-106565249D01*
X158024371Y-106589751D01*
X158025000Y-106596138D01*
X158025000Y-107058862D01*
X158024371Y-107065249D01*
X158024371Y-107089751D01*
X158025000Y-107096138D01*
X158025000Y-107558862D01*
X158024371Y-107565249D01*
X158024371Y-107589751D01*
X158025000Y-107596138D01*
X158025000Y-108058862D01*
X158024371Y-108065249D01*
X158024371Y-108089751D01*
X158025000Y-108096138D01*
X158025000Y-108558862D01*
X158024371Y-108565249D01*
X158024371Y-108589751D01*
X158025000Y-108596138D01*
X158025000Y-109058862D01*
X158022246Y-109086827D01*
X158015877Y-109107820D01*
X158005538Y-109127164D01*
X157991622Y-109144122D01*
X157974664Y-109158038D01*
X157955320Y-109168377D01*
X157934327Y-109174746D01*
X157906362Y-109177500D01*
X156268638Y-109177500D01*
X156240673Y-109174746D01*
X156219680Y-109168377D01*
X156200336Y-109158038D01*
X156183378Y-109144122D01*
X156169462Y-109127164D01*
X156159123Y-109107820D01*
X156152754Y-109086827D01*
X156150000Y-109058862D01*
X156150000Y-108596138D01*
X156150629Y-108589751D01*
X156150629Y-108565249D01*
X156150000Y-108558862D01*
X156150000Y-108096138D01*
X156150629Y-108089751D01*
X156150629Y-108065249D01*
X156150000Y-108058862D01*
X156150000Y-107596138D01*
X156150629Y-107589751D01*
X156150629Y-107565249D01*
X156150000Y-107558862D01*
X156150000Y-107096138D01*
X156150629Y-107089751D01*
X156150629Y-107065249D01*
X156150000Y-107058862D01*
X156150000Y-106596138D01*
X156150629Y-106589751D01*
X156150629Y-106565249D01*
X156150000Y-106558862D01*
X156150000Y-106096138D01*
X156150629Y-106089751D01*
X156150629Y-106065249D01*
X156150000Y-106058862D01*
X156150000Y-105596138D01*
X156150629Y-105589751D01*
X156150629Y-105565249D01*
X156150000Y-105558862D01*
X156150000Y-105096138D01*
X156150629Y-105089751D01*
X156150629Y-105065249D01*
X156150000Y-105058862D01*
X156150000Y-104596138D01*
X156150629Y-104589751D01*
X156150629Y-104565249D01*
X156150000Y-104558862D01*
X156150000Y-104096138D01*
X156150629Y-104089751D01*
X156150629Y-104065249D01*
X156150000Y-104058862D01*
X156150000Y-103596138D01*
X156150629Y-103589751D01*
X156150629Y-103565249D01*
X156150000Y-103558862D01*
X156150000Y-103096138D01*
X156150629Y-103089751D01*
X156150629Y-103065249D01*
X156150000Y-103058862D01*
X156150000Y-102596138D01*
X156150629Y-102589751D01*
X156150629Y-102565249D01*
X156150000Y-102558862D01*
X156150000Y-102096138D01*
X156150629Y-102089751D01*
X156150629Y-102065249D01*
X156150000Y-102058862D01*
X156150000Y-101596138D01*
X156150629Y-101589751D01*
X156150629Y-101565249D01*
X156150000Y-101558862D01*
X156150000Y-101096138D01*
X156150629Y-101089751D01*
X156150629Y-101065249D01*
X156150000Y-101058862D01*
X156150000Y-100596138D01*
X156150629Y-100589751D01*
X156150629Y-100565249D01*
X156150000Y-100558862D01*
X156150000Y-100096138D01*
X156150629Y-100089751D01*
X156150629Y-100065249D01*
X156150000Y-100058862D01*
X156150000Y-99596138D01*
X156150629Y-99589751D01*
X156150629Y-99565249D01*
X156150000Y-99558862D01*
X156150000Y-99096138D01*
X156150629Y-99089751D01*
X156150629Y-99065249D01*
X156150000Y-99058862D01*
X156150000Y-98596138D01*
X156150629Y-98589751D01*
X156150629Y-98565249D01*
X156150000Y-98558862D01*
X156150000Y-98096138D01*
X156150629Y-98089751D01*
X156150629Y-98065249D01*
X156150000Y-98058862D01*
X156150000Y-97596138D01*
X156150629Y-97589751D01*
X156150629Y-97565249D01*
X156150000Y-97558862D01*
X156150000Y-97096138D01*
X156150629Y-97089751D01*
X156150629Y-97065249D01*
X156150000Y-97058862D01*
X156150000Y-96596138D01*
X156152754Y-96568173D01*
X156159123Y-96547180D01*
X156169462Y-96527836D01*
X156183378Y-96510878D01*
X156200336Y-96496962D01*
X156219680Y-96486623D01*
X156240673Y-96480254D01*
X156268638Y-96477500D01*
X157906362Y-96477500D01*
X157934327Y-96480254D01*
X157934327Y-96480254D01*
G37*
G36*
X139584422Y-106581217D02*
X139632385Y-106595766D01*
X139676575Y-106619386D01*
X139715318Y-106651182D01*
X139747114Y-106689925D01*
X139770734Y-106734115D01*
X139785283Y-106782078D01*
X139790800Y-106838091D01*
X139790800Y-107588309D01*
X139785283Y-107644322D01*
X139770734Y-107692285D01*
X139747114Y-107736475D01*
X139715318Y-107775218D01*
X139676575Y-107807014D01*
X139632385Y-107830634D01*
X139584422Y-107845183D01*
X139528409Y-107850700D01*
X138703191Y-107850700D01*
X138647178Y-107845183D01*
X138599215Y-107830634D01*
X138555025Y-107807014D01*
X138516282Y-107775218D01*
X138484486Y-107736475D01*
X138460866Y-107692285D01*
X138446317Y-107644322D01*
X138440800Y-107588309D01*
X138440800Y-106838091D01*
X138446317Y-106782078D01*
X138460866Y-106734115D01*
X138484486Y-106689925D01*
X138516282Y-106651182D01*
X138555025Y-106619386D01*
X138599215Y-106595766D01*
X138647178Y-106581217D01*
X138703191Y-106575700D01*
X139528409Y-106575700D01*
X139584422Y-106581217D01*
X139584422Y-106581217D01*
G37*
G36*
X189572817Y-92348107D02*
X189593810Y-92354476D01*
X189613154Y-92364815D01*
X189634889Y-92382652D01*
X189962073Y-92709836D01*
X189966146Y-92714799D01*
X189983473Y-92732126D01*
X189988436Y-92736199D01*
X190315623Y-93063386D01*
X190319695Y-93068348D01*
X190337026Y-93085679D01*
X190341994Y-93089756D01*
X190669176Y-93416938D01*
X190673253Y-93421906D01*
X190690584Y-93439237D01*
X190695546Y-93443309D01*
X191022730Y-93770493D01*
X191026802Y-93775455D01*
X191044133Y-93792786D01*
X191049101Y-93796863D01*
X191376283Y-94124045D01*
X191380360Y-94129013D01*
X191397691Y-94146344D01*
X191402653Y-94150416D01*
X191729840Y-94477603D01*
X191733913Y-94482566D01*
X191751240Y-94499893D01*
X191756203Y-94503966D01*
X192083390Y-94831153D01*
X192087462Y-94836115D01*
X192104793Y-94853446D01*
X192109761Y-94857523D01*
X192436943Y-95184705D01*
X192441020Y-95189673D01*
X192458351Y-95207004D01*
X192463313Y-95211076D01*
X192790497Y-95538260D01*
X192794569Y-95543222D01*
X192811900Y-95560553D01*
X192816868Y-95564630D01*
X193144050Y-95891812D01*
X193148127Y-95896780D01*
X193165458Y-95914111D01*
X193170420Y-95918183D01*
X193497607Y-96245370D01*
X193501680Y-96250333D01*
X193519007Y-96267660D01*
X193523970Y-96271733D01*
X193851157Y-96598920D01*
X193855229Y-96603882D01*
X193872560Y-96621213D01*
X193877528Y-96625290D01*
X194204710Y-96952472D01*
X194208787Y-96957440D01*
X194226118Y-96974771D01*
X194231080Y-96978843D01*
X194558267Y-97306030D01*
X194562340Y-97310993D01*
X194579667Y-97328320D01*
X194584630Y-97332393D01*
X194911817Y-97659580D01*
X194915889Y-97664542D01*
X194933220Y-97681873D01*
X194938188Y-97685950D01*
X195265370Y-98013132D01*
X195269447Y-98018100D01*
X195286778Y-98035431D01*
X195291740Y-98039503D01*
X195618924Y-98366687D01*
X195622996Y-98371649D01*
X195640327Y-98388980D01*
X195645295Y-98393057D01*
X195972477Y-98720239D01*
X195976554Y-98725207D01*
X195993885Y-98742538D01*
X195998847Y-98746610D01*
X196326034Y-99073797D01*
X196330107Y-99078760D01*
X196347434Y-99096087D01*
X196352397Y-99100160D01*
X196679584Y-99427347D01*
X196683656Y-99432309D01*
X196700987Y-99449640D01*
X196705955Y-99453717D01*
X197033137Y-99780899D01*
X197037214Y-99785867D01*
X197054545Y-99803198D01*
X197059507Y-99807270D01*
X197386691Y-100134454D01*
X197390763Y-100139416D01*
X197408094Y-100156747D01*
X197413062Y-100160824D01*
X197740244Y-100488006D01*
X197744321Y-100492974D01*
X197761652Y-100510305D01*
X197766614Y-100514377D01*
X198093801Y-100841564D01*
X198097874Y-100846527D01*
X198115201Y-100863854D01*
X198120164Y-100867927D01*
X198447348Y-101195111D01*
X198465185Y-101216846D01*
X198475524Y-101236190D01*
X198481893Y-101257183D01*
X198484043Y-101279010D01*
X198481893Y-101300837D01*
X198475524Y-101321830D01*
X198465185Y-101341174D01*
X198447348Y-101362909D01*
X197289320Y-102520937D01*
X197267585Y-102538774D01*
X197248241Y-102549113D01*
X197227248Y-102555482D01*
X197205421Y-102557632D01*
X197183594Y-102555482D01*
X197162601Y-102549113D01*
X197143257Y-102538774D01*
X197121522Y-102520937D01*
X196794338Y-102193753D01*
X196790265Y-102188790D01*
X196772938Y-102171463D01*
X196767975Y-102167390D01*
X196440789Y-101840204D01*
X196436712Y-101835236D01*
X196419381Y-101817905D01*
X196414419Y-101813833D01*
X196087235Y-101486649D01*
X196083163Y-101481687D01*
X196065832Y-101464356D01*
X196060864Y-101460279D01*
X195733682Y-101133097D01*
X195729605Y-101128129D01*
X195712274Y-101110798D01*
X195707312Y-101106726D01*
X195380128Y-100779542D01*
X195376056Y-100774580D01*
X195358725Y-100757249D01*
X195353757Y-100753172D01*
X195026571Y-100425986D01*
X195022498Y-100421023D01*
X195005171Y-100403696D01*
X195000208Y-100399623D01*
X194673022Y-100072437D01*
X194668945Y-100067469D01*
X194651614Y-100050138D01*
X194646652Y-100046066D01*
X194319468Y-99718882D01*
X194315396Y-99713920D01*
X194298065Y-99696589D01*
X194293097Y-99692512D01*
X193965915Y-99365330D01*
X193961838Y-99360362D01*
X193944507Y-99343031D01*
X193939545Y-99338959D01*
X193612361Y-99011775D01*
X193608289Y-99006813D01*
X193590958Y-98989482D01*
X193585990Y-98985405D01*
X193258804Y-98658219D01*
X193254731Y-98653256D01*
X193237404Y-98635929D01*
X193232441Y-98631856D01*
X192905255Y-98304670D01*
X192901178Y-98299702D01*
X192883847Y-98282371D01*
X192878885Y-98278299D01*
X192551701Y-97951115D01*
X192547629Y-97946153D01*
X192530298Y-97928822D01*
X192525330Y-97924745D01*
X192198144Y-97597559D01*
X192194071Y-97592596D01*
X192176744Y-97575269D01*
X192171781Y-97571196D01*
X191844595Y-97244010D01*
X191840518Y-97239042D01*
X191823187Y-97221711D01*
X191818225Y-97217639D01*
X191491041Y-96890455D01*
X191486969Y-96885493D01*
X191469638Y-96868162D01*
X191464670Y-96864085D01*
X191137488Y-96536903D01*
X191133411Y-96531935D01*
X191116080Y-96514604D01*
X191111118Y-96510532D01*
X190783934Y-96183348D01*
X190779862Y-96178386D01*
X190762531Y-96161055D01*
X190757563Y-96156978D01*
X190430377Y-95829792D01*
X190426304Y-95824829D01*
X190408977Y-95807502D01*
X190404014Y-95803429D01*
X190076828Y-95476243D01*
X190072751Y-95471275D01*
X190055420Y-95453944D01*
X190050458Y-95449872D01*
X189723274Y-95122688D01*
X189719202Y-95117726D01*
X189701871Y-95100395D01*
X189696903Y-95096318D01*
X189369721Y-94769136D01*
X189365644Y-94764168D01*
X189348313Y-94746837D01*
X189343351Y-94742765D01*
X189016167Y-94415581D01*
X189012095Y-94410619D01*
X188994764Y-94393288D01*
X188989796Y-94389211D01*
X188662610Y-94062025D01*
X188658537Y-94057062D01*
X188641210Y-94039735D01*
X188636247Y-94035662D01*
X188309063Y-93708478D01*
X188291226Y-93686743D01*
X188280887Y-93667399D01*
X188274518Y-93646406D01*
X188272368Y-93624579D01*
X188274518Y-93602752D01*
X188280887Y-93581759D01*
X188291226Y-93562415D01*
X188309063Y-93540680D01*
X189467091Y-92382652D01*
X189488826Y-92364815D01*
X189508170Y-92354476D01*
X189529163Y-92348107D01*
X189550990Y-92345957D01*
X189572817Y-92348107D01*
X189572817Y-92348107D01*
G37*
G36*
X186390837Y-92348107D02*
X186411830Y-92354476D01*
X186431174Y-92364815D01*
X186452909Y-92382652D01*
X187610937Y-93540680D01*
X187628774Y-93562415D01*
X187639113Y-93581759D01*
X187645482Y-93602752D01*
X187647632Y-93624579D01*
X187645482Y-93646406D01*
X187639113Y-93667399D01*
X187628774Y-93686743D01*
X187610937Y-93708478D01*
X187283753Y-94035662D01*
X187278790Y-94039735D01*
X187261463Y-94057062D01*
X187257390Y-94062025D01*
X186930204Y-94389211D01*
X186925236Y-94393288D01*
X186907905Y-94410619D01*
X186903833Y-94415581D01*
X186576649Y-94742765D01*
X186571687Y-94746837D01*
X186554356Y-94764168D01*
X186550279Y-94769136D01*
X186223097Y-95096318D01*
X186218129Y-95100395D01*
X186200798Y-95117726D01*
X186196726Y-95122688D01*
X185869542Y-95449872D01*
X185864580Y-95453944D01*
X185847249Y-95471275D01*
X185843172Y-95476243D01*
X185515986Y-95803429D01*
X185511023Y-95807502D01*
X185493696Y-95824829D01*
X185489623Y-95829792D01*
X185162437Y-96156978D01*
X185157469Y-96161055D01*
X185140138Y-96178386D01*
X185136066Y-96183348D01*
X184808882Y-96510532D01*
X184803920Y-96514604D01*
X184786589Y-96531935D01*
X184782512Y-96536903D01*
X184455330Y-96864085D01*
X184450362Y-96868162D01*
X184433031Y-96885493D01*
X184428959Y-96890455D01*
X184101775Y-97217639D01*
X184096813Y-97221711D01*
X184079482Y-97239042D01*
X184075405Y-97244010D01*
X183748219Y-97571196D01*
X183743256Y-97575269D01*
X183725929Y-97592596D01*
X183721856Y-97597559D01*
X183394670Y-97924745D01*
X183389702Y-97928822D01*
X183372371Y-97946153D01*
X183368299Y-97951115D01*
X183041115Y-98278299D01*
X183036153Y-98282371D01*
X183018822Y-98299702D01*
X183014745Y-98304670D01*
X182687559Y-98631856D01*
X182682596Y-98635929D01*
X182665269Y-98653256D01*
X182661196Y-98658219D01*
X182334010Y-98985405D01*
X182329042Y-98989482D01*
X182311711Y-99006813D01*
X182307639Y-99011775D01*
X181980455Y-99338959D01*
X181975493Y-99343031D01*
X181958162Y-99360362D01*
X181954085Y-99365330D01*
X181626903Y-99692512D01*
X181621935Y-99696589D01*
X181604604Y-99713920D01*
X181600532Y-99718882D01*
X181273348Y-100046066D01*
X181268386Y-100050138D01*
X181251055Y-100067469D01*
X181246978Y-100072437D01*
X180919792Y-100399623D01*
X180914829Y-100403696D01*
X180897502Y-100421023D01*
X180893429Y-100425986D01*
X180566243Y-100753172D01*
X180561275Y-100757249D01*
X180543944Y-100774580D01*
X180539872Y-100779542D01*
X180212688Y-101106726D01*
X180207726Y-101110798D01*
X180190395Y-101128129D01*
X180186318Y-101133097D01*
X179859136Y-101460279D01*
X179854168Y-101464356D01*
X179836837Y-101481687D01*
X179832765Y-101486649D01*
X179505581Y-101813833D01*
X179500619Y-101817905D01*
X179483288Y-101835236D01*
X179479211Y-101840204D01*
X179152025Y-102167390D01*
X179147062Y-102171463D01*
X179129735Y-102188790D01*
X179125662Y-102193753D01*
X178798478Y-102520937D01*
X178776743Y-102538774D01*
X178757399Y-102549113D01*
X178736406Y-102555482D01*
X178714579Y-102557632D01*
X178692752Y-102555482D01*
X178671759Y-102549113D01*
X178652415Y-102538774D01*
X178630680Y-102520937D01*
X177472652Y-101362909D01*
X177454815Y-101341174D01*
X177444476Y-101321830D01*
X177438107Y-101300837D01*
X177435957Y-101279010D01*
X177438107Y-101257183D01*
X177444476Y-101236190D01*
X177454815Y-101216846D01*
X177472652Y-101195111D01*
X177799836Y-100867927D01*
X177804799Y-100863854D01*
X177822126Y-100846527D01*
X177826199Y-100841564D01*
X178153386Y-100514377D01*
X178158348Y-100510305D01*
X178175679Y-100492974D01*
X178179756Y-100488006D01*
X178506938Y-100160824D01*
X178511906Y-100156747D01*
X178529237Y-100139416D01*
X178533309Y-100134454D01*
X178860493Y-99807270D01*
X178865455Y-99803198D01*
X178882786Y-99785867D01*
X178886863Y-99780899D01*
X179214045Y-99453717D01*
X179219013Y-99449640D01*
X179236344Y-99432309D01*
X179240416Y-99427347D01*
X179567603Y-99100160D01*
X179572566Y-99096087D01*
X179589893Y-99078760D01*
X179593966Y-99073797D01*
X179921153Y-98746610D01*
X179926115Y-98742538D01*
X179943446Y-98725207D01*
X179947523Y-98720239D01*
X180274705Y-98393057D01*
X180279673Y-98388980D01*
X180297004Y-98371649D01*
X180301076Y-98366687D01*
X180628260Y-98039503D01*
X180633222Y-98035431D01*
X180650553Y-98018100D01*
X180654630Y-98013132D01*
X180981812Y-97685950D01*
X180986780Y-97681873D01*
X181004111Y-97664542D01*
X181008183Y-97659580D01*
X181335370Y-97332393D01*
X181340333Y-97328320D01*
X181357660Y-97310993D01*
X181361733Y-97306030D01*
X181688920Y-96978843D01*
X181693882Y-96974771D01*
X181711213Y-96957440D01*
X181715290Y-96952472D01*
X182042472Y-96625290D01*
X182047440Y-96621213D01*
X182064771Y-96603882D01*
X182068843Y-96598920D01*
X182396030Y-96271733D01*
X182400993Y-96267660D01*
X182418320Y-96250333D01*
X182422393Y-96245370D01*
X182749580Y-95918183D01*
X182754542Y-95914111D01*
X182771873Y-95896780D01*
X182775950Y-95891812D01*
X183103132Y-95564630D01*
X183108100Y-95560553D01*
X183125431Y-95543222D01*
X183129503Y-95538260D01*
X183456687Y-95211076D01*
X183461649Y-95207004D01*
X183478980Y-95189673D01*
X183483057Y-95184705D01*
X183810239Y-94857523D01*
X183815207Y-94853446D01*
X183832538Y-94836115D01*
X183836610Y-94831153D01*
X184163797Y-94503966D01*
X184168760Y-94499893D01*
X184186087Y-94482566D01*
X184190160Y-94477603D01*
X184517347Y-94150416D01*
X184522309Y-94146344D01*
X184539640Y-94129013D01*
X184543717Y-94124045D01*
X184870899Y-93796863D01*
X184875867Y-93792786D01*
X184893198Y-93775455D01*
X184897270Y-93770493D01*
X185224454Y-93443309D01*
X185229416Y-93439237D01*
X185246747Y-93421906D01*
X185250824Y-93416938D01*
X185578006Y-93089756D01*
X185582974Y-93085679D01*
X185600305Y-93068348D01*
X185604377Y-93063386D01*
X185931564Y-92736199D01*
X185936527Y-92732126D01*
X185953854Y-92714799D01*
X185957927Y-92709836D01*
X186285111Y-92382652D01*
X186306846Y-92364815D01*
X186326190Y-92354476D01*
X186347183Y-92348107D01*
X186369010Y-92345957D01*
X186390837Y-92348107D01*
X186390837Y-92348107D01*
G37*
G36*
X99110837Y-92305607D02*
X99131830Y-92311976D01*
X99151174Y-92322315D01*
X99172909Y-92340152D01*
X100330937Y-93498180D01*
X100348774Y-93519915D01*
X100359113Y-93539259D01*
X100365482Y-93560252D01*
X100367632Y-93582079D01*
X100365482Y-93603906D01*
X100359113Y-93624899D01*
X100348774Y-93644243D01*
X100330937Y-93665978D01*
X100003753Y-93993162D01*
X99998790Y-93997235D01*
X99981463Y-94014562D01*
X99977390Y-94019525D01*
X99650204Y-94346711D01*
X99645236Y-94350788D01*
X99627905Y-94368119D01*
X99623833Y-94373081D01*
X99296649Y-94700265D01*
X99291687Y-94704337D01*
X99274356Y-94721668D01*
X99270279Y-94726636D01*
X98943097Y-95053818D01*
X98938129Y-95057895D01*
X98920798Y-95075226D01*
X98916726Y-95080188D01*
X98589542Y-95407372D01*
X98584580Y-95411444D01*
X98567249Y-95428775D01*
X98563172Y-95433743D01*
X98235986Y-95760929D01*
X98231023Y-95765002D01*
X98213696Y-95782329D01*
X98209623Y-95787292D01*
X97882437Y-96114478D01*
X97877469Y-96118555D01*
X97860138Y-96135886D01*
X97856066Y-96140848D01*
X97528882Y-96468032D01*
X97523920Y-96472104D01*
X97506589Y-96489435D01*
X97502512Y-96494403D01*
X97175330Y-96821585D01*
X97170362Y-96825662D01*
X97153031Y-96842993D01*
X97148959Y-96847955D01*
X96821775Y-97175139D01*
X96816813Y-97179211D01*
X96799482Y-97196542D01*
X96795405Y-97201510D01*
X96468219Y-97528696D01*
X96463256Y-97532769D01*
X96445929Y-97550096D01*
X96441856Y-97555059D01*
X96114670Y-97882245D01*
X96109702Y-97886322D01*
X96092371Y-97903653D01*
X96088299Y-97908615D01*
X95761115Y-98235799D01*
X95756153Y-98239871D01*
X95738822Y-98257202D01*
X95734745Y-98262170D01*
X95407559Y-98589356D01*
X95402596Y-98593429D01*
X95385269Y-98610756D01*
X95381196Y-98615719D01*
X95054010Y-98942905D01*
X95049042Y-98946982D01*
X95031711Y-98964313D01*
X95027639Y-98969275D01*
X94700455Y-99296459D01*
X94695493Y-99300531D01*
X94678162Y-99317862D01*
X94674085Y-99322830D01*
X94346903Y-99650012D01*
X94341935Y-99654089D01*
X94324604Y-99671420D01*
X94320532Y-99676382D01*
X93993348Y-100003566D01*
X93988386Y-100007638D01*
X93971055Y-100024969D01*
X93966978Y-100029937D01*
X93639792Y-100357123D01*
X93634829Y-100361196D01*
X93617502Y-100378523D01*
X93613429Y-100383486D01*
X93286243Y-100710672D01*
X93281275Y-100714749D01*
X93263944Y-100732080D01*
X93259872Y-100737042D01*
X92932688Y-101064226D01*
X92927726Y-101068298D01*
X92910395Y-101085629D01*
X92906318Y-101090597D01*
X92579136Y-101417779D01*
X92574168Y-101421856D01*
X92556837Y-101439187D01*
X92552765Y-101444149D01*
X92225581Y-101771333D01*
X92220619Y-101775405D01*
X92203288Y-101792736D01*
X92199211Y-101797704D01*
X91872025Y-102124890D01*
X91867062Y-102128963D01*
X91849735Y-102146290D01*
X91845662Y-102151253D01*
X91518478Y-102478437D01*
X91496743Y-102496274D01*
X91477399Y-102506613D01*
X91456406Y-102512982D01*
X91434579Y-102515132D01*
X91412752Y-102512982D01*
X91391759Y-102506613D01*
X91372415Y-102496274D01*
X91350680Y-102478437D01*
X90192652Y-101320409D01*
X90174815Y-101298674D01*
X90164476Y-101279330D01*
X90158107Y-101258337D01*
X90155957Y-101236510D01*
X90158107Y-101214683D01*
X90164476Y-101193690D01*
X90174815Y-101174346D01*
X90192652Y-101152611D01*
X90519836Y-100825427D01*
X90524799Y-100821354D01*
X90542126Y-100804027D01*
X90546199Y-100799064D01*
X90873386Y-100471877D01*
X90878348Y-100467805D01*
X90895679Y-100450474D01*
X90899756Y-100445506D01*
X91226938Y-100118324D01*
X91231906Y-100114247D01*
X91249237Y-100096916D01*
X91253309Y-100091954D01*
X91580493Y-99764770D01*
X91585455Y-99760698D01*
X91602786Y-99743367D01*
X91606863Y-99738399D01*
X91934045Y-99411217D01*
X91939013Y-99407140D01*
X91956344Y-99389809D01*
X91960416Y-99384847D01*
X92287603Y-99057660D01*
X92292566Y-99053587D01*
X92309893Y-99036260D01*
X92313966Y-99031297D01*
X92641153Y-98704110D01*
X92646115Y-98700038D01*
X92663446Y-98682707D01*
X92667523Y-98677739D01*
X92994705Y-98350557D01*
X92999673Y-98346480D01*
X93017004Y-98329149D01*
X93021076Y-98324187D01*
X93348260Y-97997003D01*
X93353222Y-97992931D01*
X93370553Y-97975600D01*
X93374630Y-97970632D01*
X93701812Y-97643450D01*
X93706780Y-97639373D01*
X93724111Y-97622042D01*
X93728183Y-97617080D01*
X94055370Y-97289893D01*
X94060333Y-97285820D01*
X94077660Y-97268493D01*
X94081733Y-97263530D01*
X94408920Y-96936343D01*
X94413882Y-96932271D01*
X94431213Y-96914940D01*
X94435290Y-96909972D01*
X94762472Y-96582790D01*
X94767440Y-96578713D01*
X94784771Y-96561382D01*
X94788843Y-96556420D01*
X95116030Y-96229233D01*
X95120993Y-96225160D01*
X95138320Y-96207833D01*
X95142393Y-96202870D01*
X95469580Y-95875683D01*
X95474542Y-95871611D01*
X95491873Y-95854280D01*
X95495950Y-95849312D01*
X95823132Y-95522130D01*
X95828100Y-95518053D01*
X95845431Y-95500722D01*
X95849503Y-95495760D01*
X96176687Y-95168576D01*
X96181649Y-95164504D01*
X96198980Y-95147173D01*
X96203057Y-95142205D01*
X96530239Y-94815023D01*
X96535207Y-94810946D01*
X96552538Y-94793615D01*
X96556610Y-94788653D01*
X96883797Y-94461466D01*
X96888760Y-94457393D01*
X96906087Y-94440066D01*
X96910160Y-94435103D01*
X97237347Y-94107916D01*
X97242309Y-94103844D01*
X97259640Y-94086513D01*
X97263717Y-94081545D01*
X97590899Y-93754363D01*
X97595867Y-93750286D01*
X97613198Y-93732955D01*
X97617270Y-93727993D01*
X97944454Y-93400809D01*
X97949416Y-93396737D01*
X97966747Y-93379406D01*
X97970824Y-93374438D01*
X98298006Y-93047256D01*
X98302974Y-93043179D01*
X98320305Y-93025848D01*
X98324377Y-93020886D01*
X98651564Y-92693699D01*
X98656527Y-92689626D01*
X98673854Y-92672299D01*
X98677927Y-92667336D01*
X99005111Y-92340152D01*
X99026846Y-92322315D01*
X99046190Y-92311976D01*
X99067183Y-92305607D01*
X99089010Y-92303457D01*
X99110837Y-92305607D01*
X99110837Y-92305607D01*
G37*
G36*
X102292817Y-92305607D02*
X102313810Y-92311976D01*
X102333154Y-92322315D01*
X102354889Y-92340152D01*
X102682073Y-92667336D01*
X102686146Y-92672299D01*
X102703473Y-92689626D01*
X102708436Y-92693699D01*
X103035623Y-93020886D01*
X103039695Y-93025848D01*
X103057026Y-93043179D01*
X103061994Y-93047256D01*
X103389176Y-93374438D01*
X103393253Y-93379406D01*
X103410584Y-93396737D01*
X103415546Y-93400809D01*
X103742730Y-93727993D01*
X103746802Y-93732955D01*
X103764133Y-93750286D01*
X103769101Y-93754363D01*
X104096283Y-94081545D01*
X104100360Y-94086513D01*
X104117691Y-94103844D01*
X104122653Y-94107916D01*
X104449840Y-94435103D01*
X104453913Y-94440066D01*
X104471240Y-94457393D01*
X104476203Y-94461466D01*
X104803390Y-94788653D01*
X104807462Y-94793615D01*
X104824793Y-94810946D01*
X104829761Y-94815023D01*
X105156943Y-95142205D01*
X105161020Y-95147173D01*
X105178351Y-95164504D01*
X105183313Y-95168576D01*
X105510497Y-95495760D01*
X105514569Y-95500722D01*
X105531900Y-95518053D01*
X105536868Y-95522130D01*
X105864050Y-95849312D01*
X105868127Y-95854280D01*
X105885458Y-95871611D01*
X105890420Y-95875683D01*
X106217607Y-96202870D01*
X106221680Y-96207833D01*
X106239007Y-96225160D01*
X106243970Y-96229233D01*
X106571157Y-96556420D01*
X106575229Y-96561382D01*
X106592560Y-96578713D01*
X106597528Y-96582790D01*
X106924710Y-96909972D01*
X106928787Y-96914940D01*
X106946118Y-96932271D01*
X106951080Y-96936343D01*
X107278267Y-97263530D01*
X107282340Y-97268493D01*
X107299667Y-97285820D01*
X107304630Y-97289893D01*
X107631817Y-97617080D01*
X107635889Y-97622042D01*
X107653220Y-97639373D01*
X107658188Y-97643450D01*
X107985370Y-97970632D01*
X107989447Y-97975600D01*
X108006778Y-97992931D01*
X108011740Y-97997003D01*
X108338924Y-98324187D01*
X108342996Y-98329149D01*
X108360327Y-98346480D01*
X108365295Y-98350557D01*
X108692477Y-98677739D01*
X108696554Y-98682707D01*
X108713885Y-98700038D01*
X108718847Y-98704110D01*
X109046034Y-99031297D01*
X109050107Y-99036260D01*
X109067434Y-99053587D01*
X109072397Y-99057660D01*
X109399584Y-99384847D01*
X109403656Y-99389809D01*
X109420987Y-99407140D01*
X109425955Y-99411217D01*
X109753137Y-99738399D01*
X109757214Y-99743367D01*
X109774545Y-99760698D01*
X109779507Y-99764770D01*
X110106691Y-100091954D01*
X110110763Y-100096916D01*
X110128094Y-100114247D01*
X110133062Y-100118324D01*
X110460244Y-100445506D01*
X110464321Y-100450474D01*
X110481652Y-100467805D01*
X110486614Y-100471877D01*
X110813801Y-100799064D01*
X110817874Y-100804027D01*
X110835201Y-100821354D01*
X110840164Y-100825427D01*
X111167348Y-101152611D01*
X111185185Y-101174346D01*
X111195524Y-101193690D01*
X111201893Y-101214683D01*
X111204043Y-101236510D01*
X111201893Y-101258337D01*
X111195524Y-101279330D01*
X111185185Y-101298674D01*
X111167348Y-101320409D01*
X110009320Y-102478437D01*
X109987585Y-102496274D01*
X109968241Y-102506613D01*
X109947248Y-102512982D01*
X109925421Y-102515132D01*
X109903594Y-102512982D01*
X109882601Y-102506613D01*
X109863257Y-102496274D01*
X109841522Y-102478437D01*
X109514338Y-102151253D01*
X109510265Y-102146290D01*
X109492938Y-102128963D01*
X109487975Y-102124890D01*
X109160789Y-101797704D01*
X109156712Y-101792736D01*
X109139381Y-101775405D01*
X109134419Y-101771333D01*
X108807235Y-101444149D01*
X108803163Y-101439187D01*
X108785832Y-101421856D01*
X108780864Y-101417779D01*
X108453682Y-101090597D01*
X108449605Y-101085629D01*
X108432274Y-101068298D01*
X108427312Y-101064226D01*
X108100128Y-100737042D01*
X108096056Y-100732080D01*
X108078725Y-100714749D01*
X108073757Y-100710672D01*
X107746571Y-100383486D01*
X107742498Y-100378523D01*
X107725171Y-100361196D01*
X107720208Y-100357123D01*
X107393022Y-100029937D01*
X107388945Y-100024969D01*
X107371614Y-100007638D01*
X107366652Y-100003566D01*
X107039468Y-99676382D01*
X107035396Y-99671420D01*
X107018065Y-99654089D01*
X107013097Y-99650012D01*
X106685915Y-99322830D01*
X106681838Y-99317862D01*
X106664507Y-99300531D01*
X106659545Y-99296459D01*
X106332361Y-98969275D01*
X106328289Y-98964313D01*
X106310958Y-98946982D01*
X106305990Y-98942905D01*
X105978804Y-98615719D01*
X105974731Y-98610756D01*
X105957404Y-98593429D01*
X105952441Y-98589356D01*
X105625255Y-98262170D01*
X105621178Y-98257202D01*
X105603847Y-98239871D01*
X105598885Y-98235799D01*
X105271701Y-97908615D01*
X105267629Y-97903653D01*
X105250298Y-97886322D01*
X105245330Y-97882245D01*
X104918144Y-97555059D01*
X104914071Y-97550096D01*
X104896744Y-97532769D01*
X104891781Y-97528696D01*
X104564595Y-97201510D01*
X104560518Y-97196542D01*
X104543187Y-97179211D01*
X104538225Y-97175139D01*
X104211041Y-96847955D01*
X104206969Y-96842993D01*
X104189638Y-96825662D01*
X104184670Y-96821585D01*
X103857488Y-96494403D01*
X103853411Y-96489435D01*
X103836080Y-96472104D01*
X103831118Y-96468032D01*
X103503934Y-96140848D01*
X103499862Y-96135886D01*
X103482531Y-96118555D01*
X103477563Y-96114478D01*
X103150377Y-95787292D01*
X103146304Y-95782329D01*
X103128977Y-95765002D01*
X103124014Y-95760929D01*
X102796828Y-95433743D01*
X102792751Y-95428775D01*
X102775420Y-95411444D01*
X102770458Y-95407372D01*
X102443274Y-95080188D01*
X102439202Y-95075226D01*
X102421871Y-95057895D01*
X102416903Y-95053818D01*
X102089721Y-94726636D01*
X102085644Y-94721668D01*
X102068313Y-94704337D01*
X102063351Y-94700265D01*
X101736167Y-94373081D01*
X101732095Y-94368119D01*
X101714764Y-94350788D01*
X101709796Y-94346711D01*
X101382610Y-94019525D01*
X101378537Y-94014562D01*
X101361210Y-93997235D01*
X101356247Y-93993162D01*
X101029063Y-93665978D01*
X101011226Y-93644243D01*
X101000887Y-93624899D01*
X100994518Y-93603906D01*
X100992368Y-93582079D01*
X100994518Y-93560252D01*
X101000887Y-93539259D01*
X101011226Y-93519915D01*
X101029063Y-93498180D01*
X102187091Y-92340152D01*
X102208826Y-92322315D01*
X102228170Y-92311976D01*
X102249163Y-92305607D01*
X102270990Y-92303457D01*
X102292817Y-92305607D01*
X102292817Y-92305607D01*
G37*
G36*
X158987749Y-94228129D02*
X159012251Y-94228129D01*
X159018638Y-94227500D01*
X159481362Y-94227500D01*
X159487749Y-94228129D01*
X159512251Y-94228129D01*
X159518638Y-94227500D01*
X159981362Y-94227500D01*
X159987749Y-94228129D01*
X160012251Y-94228129D01*
X160018638Y-94227500D01*
X160481362Y-94227500D01*
X160487749Y-94228129D01*
X160512251Y-94228129D01*
X160518638Y-94227500D01*
X160981362Y-94227500D01*
X160987749Y-94228129D01*
X161012251Y-94228129D01*
X161018638Y-94227500D01*
X161481362Y-94227500D01*
X161487749Y-94228129D01*
X161512251Y-94228129D01*
X161518638Y-94227500D01*
X161981362Y-94227500D01*
X161987749Y-94228129D01*
X162012251Y-94228129D01*
X162018638Y-94227500D01*
X162481362Y-94227500D01*
X162487749Y-94228129D01*
X162512251Y-94228129D01*
X162518638Y-94227500D01*
X162981362Y-94227500D01*
X162987749Y-94228129D01*
X163012251Y-94228129D01*
X163018638Y-94227500D01*
X163481362Y-94227500D01*
X163487749Y-94228129D01*
X163512251Y-94228129D01*
X163518638Y-94227500D01*
X163981362Y-94227500D01*
X163987749Y-94228129D01*
X164012251Y-94228129D01*
X164018638Y-94227500D01*
X164481362Y-94227500D01*
X164487749Y-94228129D01*
X164512251Y-94228129D01*
X164518638Y-94227500D01*
X164981362Y-94227500D01*
X164987749Y-94228129D01*
X165012251Y-94228129D01*
X165018638Y-94227500D01*
X165481362Y-94227500D01*
X165487749Y-94228129D01*
X165512251Y-94228129D01*
X165518638Y-94227500D01*
X165981362Y-94227500D01*
X165987749Y-94228129D01*
X166012251Y-94228129D01*
X166018638Y-94227500D01*
X166481362Y-94227500D01*
X166487749Y-94228129D01*
X166512251Y-94228129D01*
X166518638Y-94227500D01*
X166981362Y-94227500D01*
X166987749Y-94228129D01*
X167012251Y-94228129D01*
X167018638Y-94227500D01*
X167481362Y-94227500D01*
X167487749Y-94228129D01*
X167512251Y-94228129D01*
X167518638Y-94227500D01*
X167981362Y-94227500D01*
X167987749Y-94228129D01*
X168012251Y-94228129D01*
X168018638Y-94227500D01*
X168481362Y-94227500D01*
X168487749Y-94228129D01*
X168512251Y-94228129D01*
X168518638Y-94227500D01*
X168981362Y-94227500D01*
X168987749Y-94228129D01*
X169012251Y-94228129D01*
X169018638Y-94227500D01*
X169481362Y-94227500D01*
X169487749Y-94228129D01*
X169512251Y-94228129D01*
X169518638Y-94227500D01*
X169981362Y-94227500D01*
X169987749Y-94228129D01*
X170012251Y-94228129D01*
X170018638Y-94227500D01*
X170481362Y-94227500D01*
X170487749Y-94228129D01*
X170512251Y-94228129D01*
X170518638Y-94227500D01*
X170981362Y-94227500D01*
X171009327Y-94230254D01*
X171030320Y-94236623D01*
X171049664Y-94246962D01*
X171066622Y-94260878D01*
X171080538Y-94277836D01*
X171090877Y-94297180D01*
X171097246Y-94318173D01*
X171100000Y-94346138D01*
X171100000Y-95983862D01*
X171097246Y-96011827D01*
X171090877Y-96032820D01*
X171080538Y-96052164D01*
X171066622Y-96069122D01*
X171049664Y-96083038D01*
X171030320Y-96093377D01*
X171009327Y-96099746D01*
X170981362Y-96102500D01*
X170518638Y-96102500D01*
X170512251Y-96101871D01*
X170487749Y-96101871D01*
X170481362Y-96102500D01*
X170018638Y-96102500D01*
X170012251Y-96101871D01*
X169987749Y-96101871D01*
X169981362Y-96102500D01*
X169518638Y-96102500D01*
X169512251Y-96101871D01*
X169487749Y-96101871D01*
X169481362Y-96102500D01*
X169018638Y-96102500D01*
X169012251Y-96101871D01*
X168987749Y-96101871D01*
X168981362Y-96102500D01*
X168518638Y-96102500D01*
X168512251Y-96101871D01*
X168487749Y-96101871D01*
X168481362Y-96102500D01*
X168018638Y-96102500D01*
X168012251Y-96101871D01*
X167987749Y-96101871D01*
X167981362Y-96102500D01*
X167518638Y-96102500D01*
X167512251Y-96101871D01*
X167487749Y-96101871D01*
X167481362Y-96102500D01*
X167018638Y-96102500D01*
X167012251Y-96101871D01*
X166987749Y-96101871D01*
X166981362Y-96102500D01*
X166518638Y-96102500D01*
X166512251Y-96101871D01*
X166487749Y-96101871D01*
X166481362Y-96102500D01*
X166018638Y-96102500D01*
X166012251Y-96101871D01*
X165987749Y-96101871D01*
X165981362Y-96102500D01*
X165518638Y-96102500D01*
X165512251Y-96101871D01*
X165487749Y-96101871D01*
X165481362Y-96102500D01*
X165018638Y-96102500D01*
X165012251Y-96101871D01*
X164987749Y-96101871D01*
X164981362Y-96102500D01*
X164518638Y-96102500D01*
X164512251Y-96101871D01*
X164487749Y-96101871D01*
X164481362Y-96102500D01*
X164018638Y-96102500D01*
X164012251Y-96101871D01*
X163987749Y-96101871D01*
X163981362Y-96102500D01*
X163518638Y-96102500D01*
X163512251Y-96101871D01*
X163487749Y-96101871D01*
X163481362Y-96102500D01*
X163018638Y-96102500D01*
X163012251Y-96101871D01*
X162987749Y-96101871D01*
X162981362Y-96102500D01*
X162518638Y-96102500D01*
X162512251Y-96101871D01*
X162487749Y-96101871D01*
X162481362Y-96102500D01*
X162018638Y-96102500D01*
X162012251Y-96101871D01*
X161987749Y-96101871D01*
X161981362Y-96102500D01*
X161518638Y-96102500D01*
X161512251Y-96101871D01*
X161487749Y-96101871D01*
X161481362Y-96102500D01*
X161018638Y-96102500D01*
X161012251Y-96101871D01*
X160987749Y-96101871D01*
X160981362Y-96102500D01*
X160518638Y-96102500D01*
X160512251Y-96101871D01*
X160487749Y-96101871D01*
X160481362Y-96102500D01*
X160018638Y-96102500D01*
X160012251Y-96101871D01*
X159987749Y-96101871D01*
X159981362Y-96102500D01*
X159518638Y-96102500D01*
X159512251Y-96101871D01*
X159487749Y-96101871D01*
X159481362Y-96102500D01*
X159018638Y-96102500D01*
X159012251Y-96101871D01*
X158987749Y-96101871D01*
X158981362Y-96102500D01*
X158518638Y-96102500D01*
X158490673Y-96099746D01*
X158469680Y-96093377D01*
X158450336Y-96083038D01*
X158433378Y-96069122D01*
X158419462Y-96052164D01*
X158409123Y-96032820D01*
X158402754Y-96011827D01*
X158400000Y-95983862D01*
X158400000Y-94346138D01*
X158402754Y-94318173D01*
X158409123Y-94297180D01*
X158419462Y-94277836D01*
X158433378Y-94260878D01*
X158450336Y-94246962D01*
X158469680Y-94236623D01*
X158490673Y-94230254D01*
X158518638Y-94227500D01*
X158981362Y-94227500D01*
X158987749Y-94228129D01*
X158987749Y-94228129D01*
G37*
G36*
X117777749Y-94228129D02*
X117802251Y-94228129D01*
X117808638Y-94227500D01*
X118271362Y-94227500D01*
X118277749Y-94228129D01*
X118302251Y-94228129D01*
X118308638Y-94227500D01*
X118771362Y-94227500D01*
X118777749Y-94228129D01*
X118802251Y-94228129D01*
X118808638Y-94227500D01*
X119271362Y-94227500D01*
X119277749Y-94228129D01*
X119302251Y-94228129D01*
X119308638Y-94227500D01*
X119771362Y-94227500D01*
X119777749Y-94228129D01*
X119802251Y-94228129D01*
X119808638Y-94227500D01*
X120271362Y-94227500D01*
X120277749Y-94228129D01*
X120302251Y-94228129D01*
X120308638Y-94227500D01*
X120771362Y-94227500D01*
X120777749Y-94228129D01*
X120802251Y-94228129D01*
X120808638Y-94227500D01*
X121271362Y-94227500D01*
X121277749Y-94228129D01*
X121302251Y-94228129D01*
X121308638Y-94227500D01*
X121771362Y-94227500D01*
X121777749Y-94228129D01*
X121802251Y-94228129D01*
X121808638Y-94227500D01*
X122271362Y-94227500D01*
X122277749Y-94228129D01*
X122302251Y-94228129D01*
X122308638Y-94227500D01*
X122771362Y-94227500D01*
X122777749Y-94228129D01*
X122802251Y-94228129D01*
X122808638Y-94227500D01*
X123271362Y-94227500D01*
X123277749Y-94228129D01*
X123302251Y-94228129D01*
X123308638Y-94227500D01*
X123771362Y-94227500D01*
X123777749Y-94228129D01*
X123802251Y-94228129D01*
X123808638Y-94227500D01*
X124271362Y-94227500D01*
X124277749Y-94228129D01*
X124302251Y-94228129D01*
X124308638Y-94227500D01*
X124771362Y-94227500D01*
X124777749Y-94228129D01*
X124802251Y-94228129D01*
X124808638Y-94227500D01*
X125271362Y-94227500D01*
X125277749Y-94228129D01*
X125302251Y-94228129D01*
X125308638Y-94227500D01*
X125771362Y-94227500D01*
X125777749Y-94228129D01*
X125802251Y-94228129D01*
X125808638Y-94227500D01*
X126271362Y-94227500D01*
X126277749Y-94228129D01*
X126302251Y-94228129D01*
X126308638Y-94227500D01*
X126771362Y-94227500D01*
X126777749Y-94228129D01*
X126802251Y-94228129D01*
X126808638Y-94227500D01*
X127271362Y-94227500D01*
X127277749Y-94228129D01*
X127302251Y-94228129D01*
X127308638Y-94227500D01*
X127771362Y-94227500D01*
X127777749Y-94228129D01*
X127802251Y-94228129D01*
X127808638Y-94227500D01*
X128271362Y-94227500D01*
X128277749Y-94228129D01*
X128302251Y-94228129D01*
X128308638Y-94227500D01*
X128771362Y-94227500D01*
X128777749Y-94228129D01*
X128802251Y-94228129D01*
X128808638Y-94227500D01*
X129271362Y-94227500D01*
X129277749Y-94228129D01*
X129302251Y-94228129D01*
X129308638Y-94227500D01*
X129771362Y-94227500D01*
X129799327Y-94230254D01*
X129820320Y-94236623D01*
X129839664Y-94246962D01*
X129856622Y-94260878D01*
X129870538Y-94277836D01*
X129880877Y-94297180D01*
X129887246Y-94318173D01*
X129890000Y-94346138D01*
X129890000Y-95983862D01*
X129887246Y-96011827D01*
X129880877Y-96032820D01*
X129870538Y-96052164D01*
X129856622Y-96069122D01*
X129839664Y-96083038D01*
X129820320Y-96093377D01*
X129799327Y-96099746D01*
X129771362Y-96102500D01*
X129308638Y-96102500D01*
X129302251Y-96101871D01*
X129277749Y-96101871D01*
X129271362Y-96102500D01*
X128808638Y-96102500D01*
X128802251Y-96101871D01*
X128777749Y-96101871D01*
X128771362Y-96102500D01*
X128308638Y-96102500D01*
X128302251Y-96101871D01*
X128277749Y-96101871D01*
X128271362Y-96102500D01*
X127808638Y-96102500D01*
X127802251Y-96101871D01*
X127777749Y-96101871D01*
X127771362Y-96102500D01*
X127308638Y-96102500D01*
X127302251Y-96101871D01*
X127277749Y-96101871D01*
X127271362Y-96102500D01*
X126808638Y-96102500D01*
X126802251Y-96101871D01*
X126777749Y-96101871D01*
X126771362Y-96102500D01*
X126308638Y-96102500D01*
X126302251Y-96101871D01*
X126277749Y-96101871D01*
X126271362Y-96102500D01*
X125808638Y-96102500D01*
X125802251Y-96101871D01*
X125777749Y-96101871D01*
X125771362Y-96102500D01*
X125308638Y-96102500D01*
X125302251Y-96101871D01*
X125277749Y-96101871D01*
X125271362Y-96102500D01*
X124808638Y-96102500D01*
X124802251Y-96101871D01*
X124777749Y-96101871D01*
X124771362Y-96102500D01*
X124308638Y-96102500D01*
X124302251Y-96101871D01*
X124277749Y-96101871D01*
X124271362Y-96102500D01*
X123808638Y-96102500D01*
X123802251Y-96101871D01*
X123777749Y-96101871D01*
X123771362Y-96102500D01*
X123308638Y-96102500D01*
X123302251Y-96101871D01*
X123277749Y-96101871D01*
X123271362Y-96102500D01*
X122808638Y-96102500D01*
X122802251Y-96101871D01*
X122777749Y-96101871D01*
X122771362Y-96102500D01*
X122308638Y-96102500D01*
X122302251Y-96101871D01*
X122277749Y-96101871D01*
X122271362Y-96102500D01*
X121808638Y-96102500D01*
X121802251Y-96101871D01*
X121777749Y-96101871D01*
X121771362Y-96102500D01*
X121308638Y-96102500D01*
X121302251Y-96101871D01*
X121277749Y-96101871D01*
X121271362Y-96102500D01*
X120808638Y-96102500D01*
X120802251Y-96101871D01*
X120777749Y-96101871D01*
X120771362Y-96102500D01*
X120308638Y-96102500D01*
X120302251Y-96101871D01*
X120277749Y-96101871D01*
X120271362Y-96102500D01*
X119808638Y-96102500D01*
X119802251Y-96101871D01*
X119777749Y-96101871D01*
X119771362Y-96102500D01*
X119308638Y-96102500D01*
X119302251Y-96101871D01*
X119277749Y-96101871D01*
X119271362Y-96102500D01*
X118808638Y-96102500D01*
X118802251Y-96101871D01*
X118777749Y-96101871D01*
X118771362Y-96102500D01*
X118308638Y-96102500D01*
X118302251Y-96101871D01*
X118277749Y-96101871D01*
X118271362Y-96102500D01*
X117808638Y-96102500D01*
X117802251Y-96101871D01*
X117777749Y-96101871D01*
X117771362Y-96102500D01*
X117308638Y-96102500D01*
X117280673Y-96099746D01*
X117259680Y-96093377D01*
X117240336Y-96083038D01*
X117223378Y-96069122D01*
X117209462Y-96052164D01*
X117199123Y-96032820D01*
X117192754Y-96011827D01*
X117190000Y-95983862D01*
X117190000Y-94346138D01*
X117192754Y-94318173D01*
X117199123Y-94297180D01*
X117209462Y-94277836D01*
X117223378Y-94260878D01*
X117240336Y-94246962D01*
X117259680Y-94236623D01*
X117280673Y-94230254D01*
X117308638Y-94227500D01*
X117771362Y-94227500D01*
X117777749Y-94228129D01*
X117777749Y-94228129D01*
G37*
G36*
X93864422Y-94135417D02*
X93912385Y-94149966D01*
X93956575Y-94173586D01*
X93995318Y-94205382D01*
X94027114Y-94244125D01*
X94050734Y-94288315D01*
X94065283Y-94336278D01*
X94070800Y-94392291D01*
X94070800Y-95142509D01*
X94065283Y-95198522D01*
X94050734Y-95246485D01*
X94027114Y-95290675D01*
X93995318Y-95329418D01*
X93956575Y-95361214D01*
X93912385Y-95384834D01*
X93864422Y-95399383D01*
X93808409Y-95404900D01*
X92983191Y-95404900D01*
X92927178Y-95399383D01*
X92879215Y-95384834D01*
X92835025Y-95361214D01*
X92796282Y-95329418D01*
X92764486Y-95290675D01*
X92740866Y-95246485D01*
X92726317Y-95198522D01*
X92720800Y-95142509D01*
X92720800Y-94392291D01*
X92726317Y-94336278D01*
X92740866Y-94288315D01*
X92764486Y-94244125D01*
X92796282Y-94205382D01*
X92835025Y-94173586D01*
X92879215Y-94149966D01*
X92927178Y-94135417D01*
X92983191Y-94129900D01*
X93808409Y-94129900D01*
X93864422Y-94135417D01*
X93864422Y-94135417D01*
G37*
G36*
X93864422Y-92560417D02*
X93912385Y-92574966D01*
X93956575Y-92598586D01*
X93995318Y-92630382D01*
X94027114Y-92669125D01*
X94050734Y-92713315D01*
X94065283Y-92761278D01*
X94070800Y-92817291D01*
X94070800Y-93567509D01*
X94065283Y-93623522D01*
X94050734Y-93671485D01*
X94027114Y-93715675D01*
X93995318Y-93754418D01*
X93956575Y-93786214D01*
X93912385Y-93809834D01*
X93864422Y-93824383D01*
X93808409Y-93829900D01*
X92983191Y-93829900D01*
X92927178Y-93824383D01*
X92879215Y-93809834D01*
X92835025Y-93786214D01*
X92796282Y-93754418D01*
X92764486Y-93715675D01*
X92740866Y-93671485D01*
X92726317Y-93623522D01*
X92720800Y-93567509D01*
X92720800Y-92817291D01*
X92726317Y-92761278D01*
X92740866Y-92713315D01*
X92764486Y-92669125D01*
X92796282Y-92630382D01*
X92835025Y-92598586D01*
X92879215Y-92574966D01*
X92927178Y-92560417D01*
X92983191Y-92554900D01*
X93808409Y-92554900D01*
X93864422Y-92560417D01*
X93864422Y-92560417D01*
G37*
M02*
