M48
;DRILL file {KiCad (5.0.1)-4} date 12/21/2018 4:55:34 PM
;FORMAT={-:-/ absolute / metric / decimal}
FMAT,2
METRIC,TZ
T1C0.400
%
G90
G05
M71
T1
X89.205Y-103.962
X89.865Y-105.512
X90.5Y-98.311
X90.678Y-99.974
X90.957Y-108.153
X91.275Y-106.451
X91.694Y-137.033
X91.707Y-109.639
X91.935Y-97.091
X92.1Y-98.425
X92.177Y-129.794
X92.354Y-111.1
X93.028Y-112.458
X93.094Y-97.253
X93.599Y-113.843
X94.09Y-100.678
X94.107Y-109.423
X94.234Y-95.758
X94.247Y-102.578
X94.539Y-138.43
X94.92Y-94.31
X95.034Y-105.702
X95.326Y-111.023
X95.428Y-130.683
X95.525Y-144.45
X95.606Y-101.117
X95.707Y-106.68
X95.72Y-123.546
X95.758Y-136.639
X95.835Y-99.282
X96.368Y-128.549
X97.053Y-125.451
X97.206Y-113.106
X97.307Y-99.441
X97.333Y-134.112
X97.411Y-107.542
X97.765Y-129.794
X98.133Y-103.188
X98.311Y-118.707
X98.374Y-123.584
X98.5Y-144.45
X99.07Y-128.572
X99.187Y-104.318
X99.663Y-125.451
X99.949Y-95.758
X99.962Y-102.667
X100.457Y-105.486
X100.8Y-111.17
X100.965Y-128.562
X101.041Y-109.576
X101.422Y-103.772
X101.5Y-144.475
X101.524Y-136.804
X101.702Y-125.578
X101.93Y-98.45
X102.005Y-106.285
X102.476Y-115.24
X102.657Y-120.637
X102.815Y-97.302
X102.819Y-121.92
X102.868Y-107.704
X102.933Y-133.845
X102.955Y-109.597
X103.01Y-104.864
X103.022Y-127.152
X103.326Y-113.2
X103.784Y-99.251
X104.254Y-107.544
X104.445Y-112.068
X104.496Y-137.16
X104.877Y-114.664
X105.08Y-130.581
X105.232Y-98.958
X105.391Y-116.434
X105.41Y-118.478
X105.943Y-110.693
X105.956Y-105.956
X106.197Y-112.412
X106.477Y-94.945
X106.858Y-117.323
X106.985Y-130.277
X107.239Y-138.379
X107.34Y-132.588
X107.493Y-119.837
X107.709Y-96.088
X107.721Y-111.239
X107.861Y-104.089
X107.963Y-93.84
X108.331Y-128.524
X108.356Y-123.419
X108.42Y-125.235
X108.445Y-136.83
X108.5Y-144.475
X108.876Y-97.46
X109.042Y-134.036
X109.791Y-129.921
X110.312Y-96.954
X110.407Y-125.449
X110.985Y-118.999
X111.042Y-128.499
X111.475Y-144.55
X111.709Y-123.914
X111.862Y-96.335
X112.547Y-125.336
X113.182Y-128.664
X113.411Y-95.716
X113.5Y-101.041
X114.122Y-104.838
X114.249Y-125.044
X114.287Y-123.012
X114.287Y-134.087
X114.287Y-136.804
X114.55Y-144.475
X115.227Y-95.225
X116.154Y-122.225
X117.313Y-121.066
X117.589Y-98.311
X117.767Y-103.403
X118.021Y-107.505
X118.488Y-119.891
X118.516Y-129.718
X118.567Y-122.098
X118.701Y-126.968
X118.745Y-131.521
X119.012Y-102.302
X119.164Y-108.344
X119.475Y-144.5
X119.583Y-118.745
X120.091Y-117.081
X120.193Y-125.197
X120.269Y-129.286
X120.688Y-134.188
X121.082Y-115.951
X121.145Y-122.961
X121.996Y-125.12
X122.475Y-144.425
X122.54Y-112.446
X122.911Y-122.898
X123.126Y-108.75
X123.139Y-118.948
X123.152Y-136.741
X123.533Y-112.192
X123.596Y-105.816
X123.806Y-125.295
X123.825Y-96.787
X123.85Y-134.417
X123.901Y-98.209
X124.524Y-122.936
X124.803Y-99.504
X124.816Y-101.498
X125.5Y-144.45
X125.54Y-96.952
X125.59Y-125.387
X125.832Y-123.749
X126.416Y-108.826
X126.441Y-98.477
X126.492Y-100.584
X127.178Y-124.892
X127.305Y-136.144
X127.356Y-140.005
X127.749Y-123.469
X128.067Y-118.059
X128.88Y-134.036
X129.007Y-102.857
X129.388Y-117.373
X129.515Y-101.067
X129.586Y-104.144
X129.769Y-129.311
X129.921Y-125.425
X129.921Y-132.563
X129.946Y-123.469
X130.5Y-144.525
X131.255Y-124.536
X131.553Y-122.593
X132.661Y-125.501
X132.918Y-133.883
X133.223Y-122.618
X133.286Y-119.126
X133.299Y-99.314
X133.475Y-144.5
X133.553Y-104.109
X133.731Y-136.449
X134.201Y-124.054
X134.798Y-122.669
X135.75Y-125.108
X136.093Y-116.815
X136.334Y-122.695
X136.5Y-144.6
X136.83Y-118.669
X136.881Y-137.287
X137.287Y-126.67
X138.786Y-137.922
X138.996Y-111.837
X139.116Y-105.943
X139.141Y-110.236
X139.421Y-124.409
X139.802Y-132.563
X140.056Y-128.397
X140.335Y-122.657
X140.868Y-127.698
X141.199Y-124.409
X141.224Y-132.969
X141.986Y-122.733
X142.646Y-124.409
X142.672Y-133.433
X143.18Y-126.086
X143.713Y-111.608
X144.399Y-122.745
X144.882Y-131.508
X145.021Y-112.103
X145.186Y-101.143
X145.567Y-128.676
X145.948Y-126.39
X146.634Y-119.964
X147.066Y-100.514
X147.066Y-127.762
X147.193Y-116.04
X147.472Y-136.804
X147.962Y-130.461
X147.98Y-112.751
X148.158Y-132.874
X148.311Y-119.964
X148.399Y-128.867
X148.643Y-111.199
X149.098Y-99.905
X149.471Y-131.633
X149.911Y-128.168
X150.012Y-110.185
X150.038Y-126.34
X150.66Y-130.175
X150.698Y-106.909
X150.851Y-99.092
X151.562Y-105.461
X151.863Y-127.031
X151.867Y-122.479
X152.171Y-108.077
X152.565Y-128.867
X152.984Y-126.035
X153.035Y-116.637
X153.505Y-104.203
X153.606Y-136.83
X153.619Y-105.702
X153.645Y-122.936
X154.216Y-100.736
X154.28Y-121.615
X155.207Y-102.718
X155.243Y-106.366
X155.245Y-116.078
X155.257Y-130.988
X155.448Y-99.022
X155.475Y-144.25
X155.651Y-104.585
X155.677Y-109.855
X155.815Y-118.578
X156.235Y-114.173
X156.286Y-123.596
X156.654Y-134.163
X156.756Y-130.81
X156.79Y-127.286
X157.226Y-140.538
X157.344Y-129.241
X157.429Y-116.942
X158.45Y-144.175
X158.547Y-130.2
X158.61Y-128.257
X158.826Y-98.349
X158.844Y-100.977
X158.94Y-102.552
X159.042Y-106.642
X159.055Y-105.054
X159.118Y-136.614
X159.766Y-134.137
X159.842Y-123.279
X159.891Y-129.611
X159.893Y-127.267
X160.122Y-99.682
X160.128Y-121.437
X160.604Y-119.685
X160.655Y-104.47
X160.706Y-131.013
X161.163Y-140.538
X161.239Y-128.321
X161.5Y-144.325
X161.747Y-92.989
X161.76Y-117.881
X161.925Y-114.173
X161.963Y-129.934
X162.065Y-116.256
X162.382Y-112.484
X162.814Y-134.087
X163.06Y-128.372
X163.589Y-130.581
X163.855Y-136.906
X164.274Y-96.952
X164.3Y-112.09
X164.414Y-129.287
X165.011Y-118.631
X165.024Y-131.267
X165.163Y-99.466
X165.713Y-97.327
X165.735Y-128.588
X165.81Y-93.471
X166.376Y-130.112
X166.7Y-112.37
X166.764Y-98.628
X167.31Y-93.408
X167.364Y-96.722
X167.843Y-108.966
X167.932Y-129.781
X168.11Y-99.238
X168.212Y-106.705
X168.446Y-130.613
X168.55Y-144.45
X168.661Y-128.668
X168.783Y-134.188
X168.821Y-97.612
X169.012Y-105.194
X169.139Y-108.026
X169.393Y-126.035
X169.723Y-115.367
X169.723Y-116.967
X169.748Y-113.817
X169.75Y-112.166
X169.823Y-103.736
X169.85Y-98.641
X169.875Y-130.708
X170.205Y-106.223
X170.332Y-136.931
X170.51Y-96.85
X170.561Y-108.839
X170.639Y-100.014
X170.688Y-102.857
X170.917Y-118.085
X170.942Y-104.927
X171.031Y-107.493
X171.361Y-116.205
X171.399Y-114.592
X171.437Y-113.043
X171.45Y-144.475
X171.705Y-119.356
X171.755Y-121.387
X173.203Y-136.893
X173.324Y-111.274
X173.724Y-103.385
X173.749Y-128.816
X174.053Y-100.527
X174.333Y-115.494
X174.371Y-109.918
X174.45Y-144.25
X174.549Y-136.576
X174.587Y-113.83
X174.917Y-107.95
X175.374Y-107.061
X175.387Y-128.473
X175.565Y-130.746
X175.971Y-123.139
X175.975Y-111.511
X176.098Y-106.274
X176.382Y-109.982
X176.428Y-104.394
X176.517Y-97.003
X176.733Y-129.553
X177.394Y-108.487
X177.47Y-106.87
X177.565Y-103.486
X177.749Y-130.785
X178.206Y-128.486
X178.511Y-118.948
X179.045Y-136.068
X179.222Y-129.984
X179.45Y-144.375
X179.451Y-125.095
X179.476Y-123.876
X179.641Y-108.318
X179.87Y-97.65
X179.895Y-128.46
X180.378Y-134.226
X180.416Y-130.95
X180.873Y-109.995
X181.102Y-125.146
X181.517Y-128.608
X181.686Y-136.347
X182.311Y-130.81
X182.5Y-144.425
X182.702Y-106.007
X182.778Y-118.885
X182.899Y-129.261
X183.82Y-98.527
X184.163Y-128.537
X184.366Y-130.086
X184.696Y-107.937
X185.5Y-144.5
X185.579Y-130.982
X185.649Y-97.066
X185.864Y-128.562
X186.207Y-136.728
X186.868Y-124.409
X187.071Y-105.969
X187.544Y-129.535
X188.074Y-94.856
X188.659Y-97.282
X188.684Y-99.251
X188.862Y-95.745
X188.862Y-107.836
X189.655Y-125.517
X190.221Y-130.785
X190.288Y-97.188
X190.475Y-134.01
X190.525Y-144.4
X190.614Y-98.92
X190.767Y-108.471
X190.932Y-103.353
X191.224Y-128.854
X191.275Y-100.99
X191.986Y-130.708
X192.113Y-106.896
X192.151Y-136.246
X192.176Y-102.489
X192.187Y-99.594
X192.189Y-98.615
X192.976Y-118.948
X192.996Y-128.809
X193.5Y-144.4
X193.523Y-101.676
X193.7Y-130.734
X193.954Y-100.228
X194.78Y-128.791
X194.996Y-96.228
X195.542Y-130.746
X196.418Y-136.804
X196.52Y-128.803
X196.525Y-144.425
X196.825Y-107.531
T0
M30
