G04 #@! TF.GenerationSoftware,KiCad,Pcbnew,(5.0.0-rc2-35-gda6600525)*
G04 #@! TF.CreationDate,2018-05-30T11:51:47-07:00*
G04 #@! TF.ProjectId,ram-based-register-card,72616D2D62617365642D726567697374,rev?*
G04 #@! TF.SameCoordinates,Original*
G04 #@! TF.FileFunction,Profile,NP*
%FSLAX46Y46*%
G04 Gerber Fmt 4.6, Leading zero omitted, Abs format (unit mm)*
G04 Created by KiCad (PCBNEW (5.0.0-rc2-35-gda6600525)) date 05/30/18 11:51:47*
%MOMM*%
%LPD*%
G01*
G04 APERTURE LIST*
%ADD10C,0.150000*%
G04 APERTURE END LIST*
D10*
X175500000Y-77250000D02*
X175500000Y-75050000D01*
X179800000Y-77250000D02*
X175500000Y-77250000D01*
X179800000Y-41800000D02*
X179800000Y-77250000D01*
X54400000Y-41800000D02*
X179800000Y-41800000D01*
X54400000Y-77300000D02*
X54400000Y-41800000D01*
X58400000Y-77300000D02*
X54400000Y-77300000D01*
X58400000Y-75050000D02*
X58400000Y-77300000D01*
X172600000Y-83100000D02*
X172600000Y-75050000D01*
X134400000Y-83100000D02*
X172600000Y-83100000D01*
X134400000Y-75050000D02*
X134400000Y-83100000D01*
X132500000Y-83100000D02*
X132500000Y-75050000D01*
X121300000Y-83100000D02*
X132500000Y-83100000D01*
X121300000Y-75050000D02*
X121300000Y-83100000D01*
X114050000Y-73600000D02*
X119850000Y-73600000D01*
X112600000Y-83100000D02*
X112600000Y-75050000D01*
X74400000Y-83100000D02*
X112600000Y-83100000D01*
X74400000Y-75050000D02*
X74400000Y-83100000D01*
X72500000Y-83100000D02*
X72500000Y-75050000D01*
X61300000Y-83100000D02*
X72500000Y-83100000D01*
X61300000Y-75050000D02*
X61300000Y-83100000D01*
X174050000Y-73600000D02*
G75*
G02X175500000Y-75050000I0J-1450000D01*
G01*
X172600000Y-75050000D02*
G75*
G02X174050000Y-73600000I1450000J0D01*
G01*
X59850000Y-73600000D02*
G75*
G02X61300000Y-75050000I0J-1450000D01*
G01*
X58400000Y-75050000D02*
G75*
G02X59850000Y-73600000I1450000J0D01*
G01*
X112600000Y-75050000D02*
G75*
G02X114050000Y-73600000I1450000J0D01*
G01*
X119850000Y-73600000D02*
G75*
G02X121300000Y-75050000I0J-1450000D01*
G01*
X132500000Y-75050000D02*
G75*
G02X134400000Y-75050000I950000J0D01*
G01*
X72500000Y-75050000D02*
G75*
G02X74400000Y-75050000I950000J0D01*
G01*
M02*
