G04 #@! TF.GenerationSoftware,KiCad,Pcbnew,(5.0.0-rc2-35-gda6600525)*
G04 #@! TF.CreationDate,2018-05-30T11:44:01-07:00*
G04 #@! TF.ProjectId,ram-based-register-card,72616D2D62617365642D726567697374,rev?*
G04 #@! TF.SameCoordinates,Original*
G04 #@! TF.FileFunction,Copper,L3,Inr,Signal*
G04 #@! TF.FilePolarity,Positive*
%FSLAX46Y46*%
G04 Gerber Fmt 4.6, Leading zero omitted, Abs format (unit mm)*
G04 Created by KiCad (PCBNEW (5.0.0-rc2-35-gda6600525)) date 05/30/18 11:44:01*
%MOMM*%
%LPD*%
G01*
G04 APERTURE LIST*
G04 #@! TA.AperFunction,ViaPad*
%ADD10C,0.600000*%
G04 #@! TD*
G04 #@! TA.AperFunction,Conductor*
%ADD11C,0.254000*%
G04 #@! TD*
G04 APERTURE END LIST*
D10*
G04 #@! TO.N,/rd[31]*
X68280000Y-56830010D03*
G04 #@! TO.N,/rd[30]*
X69919925Y-57242549D03*
G04 #@! TO.N,/rd[29]*
X71260733Y-57887277D03*
G04 #@! TO.N,/rd[28]*
X68402447Y-58430033D03*
G04 #@! TO.N,/rd[27]*
X69880041Y-58842572D03*
G04 #@! TO.N,/rd[26]*
X71272193Y-59521901D03*
G04 #@! TO.N,/rd[25]*
X68563382Y-60030056D03*
G04 #@! TO.N,/rd[24]*
X69867801Y-60521922D03*
G04 #@! TO.N,/rd[23]*
X71372662Y-61121924D03*
G04 #@! TO.N,/rd[22]*
X69850000Y-61898000D03*
G04 #@! TO.N,/rd[21]*
X73990000Y-64480000D03*
G04 #@! TO.N,/rd[20]*
X74130000Y-65920000D03*
G04 #@! TO.N,/rd[19]*
X74780000Y-67300000D03*
G04 #@! TO.N,/rd[18]*
X75720000Y-66090000D03*
G04 #@! TO.N,/rd[17]*
X77188909Y-68069990D03*
G04 #@! TO.N,/rd[16]*
X79420000Y-67719975D03*
G04 #@! TO.N,/rd[15]*
X130650000Y-56550010D03*
G04 #@! TO.N,/rd[14]*
X129370000Y-57050000D03*
G04 #@! TO.N,/rd[13]*
X128252117Y-58152127D03*
G04 #@! TO.N,/rd[12]*
X130670000Y-58349990D03*
G04 #@! TO.N,/rd[11]*
X129370000Y-58900010D03*
G04 #@! TO.N,/rd[10]*
X128210672Y-59890672D03*
G04 #@! TO.N,/rd[9]*
X130720000Y-59999990D03*
G04 #@! TO.N,/rd[8]*
X129390000Y-60600000D03*
G04 #@! TO.N,/rd[7]*
X129850000Y-63200000D03*
G04 #@! TO.N,/rd[6]*
X130770000Y-62040000D03*
G04 #@! TO.N,/rd[5]*
X133470000Y-64490000D03*
G04 #@! TO.N,/rd[4]*
X135040000Y-64850000D03*
G04 #@! TO.N,/rd[3]*
X134410000Y-66220000D03*
G04 #@! TO.N,/rd[2]*
X136380000Y-68610000D03*
G04 #@! TO.N,/rd[1]*
X138595022Y-64872195D03*
G04 #@! TO.N,/rd[0]*
X138650000Y-68290000D03*
G04 #@! TO.N,/rda[4]*
X132908514Y-47689979D03*
X113410000Y-64810000D03*
X79910000Y-43780000D03*
G04 #@! TO.N,/rda[3]*
X78250010Y-45557917D03*
X131206309Y-47968484D03*
X112177953Y-63944997D03*
G04 #@! TO.N,/rda[2]*
X130020000Y-48800000D03*
X111089924Y-62550000D03*
X82950000Y-44550000D03*
G04 #@! TO.N,/rda[1]*
X131460000Y-46360000D03*
X110363628Y-61406372D03*
X81310000Y-45260000D03*
G04 #@! TO.N,/rda[0]*
X130066273Y-46806273D03*
X109195778Y-60804222D03*
X79930945Y-46025164D03*
G04 #@! TO.N,/rs2a[4]*
X108020000Y-69020000D03*
X111414426Y-55860010D03*
G04 #@! TO.N,/rs2a[3]*
X108569990Y-70420000D03*
X112480000Y-56830000D03*
G04 #@! TO.N,/rs2a[2]*
X109430000Y-71980000D03*
X113940000Y-57520000D03*
G04 #@! TO.N,/rs2a[1]*
X115350000Y-58180000D03*
X110090010Y-68726582D03*
G04 #@! TO.N,/rs2a[0]*
X110509968Y-70105728D03*
X116620000Y-58770000D03*
G04 #@! TO.N,/rs1a[4]*
X114500000Y-66070000D03*
X106860000Y-54710000D03*
G04 #@! TO.N,/rs1a[3]*
X116000000Y-66700000D03*
X107350000Y-53060000D03*
X96800000Y-46020032D03*
G04 #@! TO.N,/rs1a[2]*
X117560000Y-67330000D03*
X108430000Y-54370000D03*
X98310000Y-45630000D03*
G04 #@! TO.N,/rs1a[1]*
X119050000Y-68150000D03*
X108990000Y-52570000D03*
X100190002Y-45020000D03*
G04 #@! TO.N,/rs1a[0]*
X120560000Y-68650000D03*
X110060000Y-53859968D03*
X102100000Y-44610000D03*
G04 #@! TO.N,GND*
X63940000Y-76130000D03*
X69970000Y-76070000D03*
X76920000Y-76030000D03*
X82970000Y-76060000D03*
X87940000Y-76100000D03*
X94010000Y-76150000D03*
X98920000Y-76170000D03*
X104940000Y-76240000D03*
X87144341Y-53710572D03*
X86999983Y-55303999D03*
X87320000Y-50280000D03*
X85110000Y-49080000D03*
X74870000Y-50750000D03*
X69530000Y-54170000D03*
X83160000Y-61480000D03*
X81140000Y-61520000D03*
X79070000Y-61500000D03*
X76854622Y-66690012D03*
X90460223Y-57560033D03*
X123960000Y-76220000D03*
X129940000Y-76170000D03*
X136940000Y-76180000D03*
X142960000Y-76150000D03*
X147970000Y-76170000D03*
X153970000Y-76130000D03*
X158970000Y-76130000D03*
X164950000Y-76090000D03*
X139295024Y-67240000D03*
X144360000Y-49140000D03*
X136300000Y-49140000D03*
X133990000Y-50940000D03*
X128720000Y-53930000D03*
X142280000Y-61650000D03*
X140280607Y-68309078D03*
X140249990Y-61690000D03*
X143595023Y-67155033D03*
X146580000Y-50430000D03*
X81330000Y-49040000D03*
X140376644Y-49208709D03*
X77120000Y-48980000D03*
X74890000Y-55300000D03*
X74914302Y-53700845D03*
X74840000Y-57310000D03*
X134072625Y-57800272D03*
X134243114Y-55843336D03*
X134253568Y-54243378D03*
X135779886Y-67285770D03*
X80495703Y-67645753D03*
X79409048Y-66440160D03*
X84451575Y-66894249D03*
X146490000Y-57519872D03*
X146320000Y-53850000D03*
X146240846Y-55480005D03*
X138820000Y-61720000D03*
X92370341Y-54269282D03*
X152290000Y-54640011D03*
G04 #@! TO.N,VCC*
X66940000Y-76180000D03*
X90960000Y-76130000D03*
X101900000Y-76170000D03*
X79950000Y-76221465D03*
X87079652Y-54507964D03*
X87080000Y-56100000D03*
X84330000Y-65700000D03*
X79600000Y-65110000D03*
X77140000Y-65450000D03*
X71054222Y-54437258D03*
X126960000Y-76170000D03*
X139990000Y-76150000D03*
X150950000Y-76170000D03*
X161930000Y-76080000D03*
X139309998Y-66440000D03*
X130230000Y-53910000D03*
X140350000Y-64650000D03*
X143578399Y-65904042D03*
X150800000Y-54550010D03*
X80360000Y-49030000D03*
X82239998Y-49060000D03*
X141210000Y-49200000D03*
X139582754Y-49109928D03*
X74878742Y-54500067D03*
X74870000Y-56290000D03*
X134243411Y-55043325D03*
X134249998Y-56660000D03*
X135938263Y-66085759D03*
X82590053Y-67900674D03*
X146377043Y-56319861D03*
X146235639Y-54680010D03*
X137850000Y-61750000D03*
X90877326Y-54269279D03*
G04 #@! TO.N,/~rd_bhh*
X71731549Y-53189990D03*
X79010000Y-69410000D03*
X85230000Y-75910000D03*
G04 #@! TO.N,/~rd_bhl*
X67770000Y-53440000D03*
X70400000Y-52190000D03*
X80400000Y-69100000D03*
X86393015Y-74891126D03*
G04 #@! TO.N,/~rd_wr*
X87737822Y-73677822D03*
X99300000Y-58850000D03*
X121310000Y-55670000D03*
X125510000Y-56550000D03*
X131260000Y-54480000D03*
X81833976Y-69083976D03*
X93310001Y-58780000D03*
X72040000Y-54695790D03*
G04 #@! TO.N,/~rs2_bhh*
X91640000Y-52770000D03*
G04 #@! TO.N,/~rs2_bhl*
X94170728Y-53669272D03*
G04 #@! TO.N,/~rs2_rd*
X98030000Y-57620000D03*
X123848899Y-52784057D03*
X94986095Y-57447292D03*
G04 #@! TO.N,/~rs1_rd*
X92300000Y-56460000D03*
X143510000Y-55849990D03*
X125048299Y-51618054D03*
X96686647Y-56925365D03*
G04 #@! TO.N,/~rs2_bll*
X153959272Y-53900728D03*
G04 #@! TO.N,/~rs2_blh*
X151510000Y-53340000D03*
G04 #@! TO.N,/~rd_blh*
X146830000Y-65320000D03*
X139560544Y-58040011D03*
X152280000Y-70360000D03*
G04 #@! TO.N,/~rd_bll*
X148269891Y-64540000D03*
X138350000Y-56263767D03*
X154840000Y-70410004D03*
G04 #@! TD*
D11*
G04 #@! TO.N,VCC*
G36*
X79622263Y-43112285D02*
X79498187Y-43163679D01*
X79293679Y-43368187D01*
X79183000Y-43635391D01*
X79183000Y-43924609D01*
X79293679Y-44191813D01*
X79498187Y-44396321D01*
X79765391Y-44507000D01*
X80054609Y-44507000D01*
X80299915Y-44405391D01*
X82223000Y-44405391D01*
X82223000Y-44694609D01*
X82333679Y-44961813D01*
X82538187Y-45166321D01*
X82805391Y-45277000D01*
X83094609Y-45277000D01*
X83361813Y-45166321D01*
X83566321Y-44961813D01*
X83602117Y-44875391D01*
X99463002Y-44875391D01*
X99463002Y-45164609D01*
X99573681Y-45431813D01*
X99778189Y-45636321D01*
X100045393Y-45747000D01*
X100334611Y-45747000D01*
X100601815Y-45636321D01*
X100806323Y-45431813D01*
X100917002Y-45164609D01*
X100917002Y-44875391D01*
X100806323Y-44608187D01*
X100663527Y-44465391D01*
X101373000Y-44465391D01*
X101373000Y-44754609D01*
X101483679Y-45021813D01*
X101688187Y-45226321D01*
X101955391Y-45337000D01*
X102244609Y-45337000D01*
X102511813Y-45226321D01*
X102716321Y-45021813D01*
X102827000Y-44754609D01*
X102827000Y-44465391D01*
X102716321Y-44198187D01*
X102511813Y-43993679D01*
X102244609Y-43883000D01*
X101955391Y-43883000D01*
X101688187Y-43993679D01*
X101483679Y-44198187D01*
X101373000Y-44465391D01*
X100663527Y-44465391D01*
X100601815Y-44403679D01*
X100334611Y-44293000D01*
X100045393Y-44293000D01*
X99778189Y-44403679D01*
X99573681Y-44608187D01*
X99463002Y-44875391D01*
X83602117Y-44875391D01*
X83677000Y-44694609D01*
X83677000Y-44405391D01*
X83566321Y-44138187D01*
X83361813Y-43933679D01*
X83094609Y-43823000D01*
X82805391Y-43823000D01*
X82538187Y-43933679D01*
X82333679Y-44138187D01*
X82223000Y-44405391D01*
X80299915Y-44405391D01*
X80321813Y-44396321D01*
X80526321Y-44191813D01*
X80637000Y-43924609D01*
X80637000Y-43635391D01*
X80526321Y-43368187D01*
X80321813Y-43163679D01*
X80203708Y-43114758D01*
X179298000Y-43536273D01*
X179298001Y-76748000D01*
X176002000Y-76748000D01*
X176002000Y-75000561D01*
X175995819Y-74969489D01*
X175952488Y-74626483D01*
X175943972Y-74598007D01*
X175941640Y-74568380D01*
X175913579Y-74486419D01*
X175721054Y-74050937D01*
X175699348Y-74017893D01*
X175683647Y-73981610D01*
X175630557Y-73913167D01*
X175630551Y-73913159D01*
X175630547Y-73913156D01*
X175307345Y-73563517D01*
X175276106Y-73539286D01*
X175249500Y-73510046D01*
X175177093Y-73462483D01*
X174758058Y-73236384D01*
X174720652Y-73223577D01*
X174686011Y-73204533D01*
X174602110Y-73182991D01*
X174602101Y-73182988D01*
X174602096Y-73182988D01*
X174132422Y-73104812D01*
X174102701Y-73104812D01*
X174073648Y-73098557D01*
X173987083Y-73101958D01*
X173626483Y-73147512D01*
X173598007Y-73156028D01*
X173568380Y-73158360D01*
X173486419Y-73186421D01*
X173050937Y-73378946D01*
X173017893Y-73400652D01*
X172981610Y-73416353D01*
X172913167Y-73469443D01*
X172913159Y-73469449D01*
X172913156Y-73469453D01*
X172563517Y-73792655D01*
X172539286Y-73823894D01*
X172510046Y-73850500D01*
X172462483Y-73922907D01*
X172236384Y-74341942D01*
X172223577Y-74379348D01*
X172204533Y-74413989D01*
X172182991Y-74497890D01*
X172182988Y-74497899D01*
X172182988Y-74497904D01*
X172106095Y-74959870D01*
X172098001Y-75000561D01*
X172098000Y-82598000D01*
X134902000Y-82598000D01*
X134902000Y-76035391D01*
X136213000Y-76035391D01*
X136213000Y-76324609D01*
X136323679Y-76591813D01*
X136528187Y-76796321D01*
X136795391Y-76907000D01*
X137084609Y-76907000D01*
X137351813Y-76796321D01*
X137556321Y-76591813D01*
X137667000Y-76324609D01*
X137667000Y-76035391D01*
X137654574Y-76005391D01*
X142233000Y-76005391D01*
X142233000Y-76294609D01*
X142343679Y-76561813D01*
X142548187Y-76766321D01*
X142815391Y-76877000D01*
X143104609Y-76877000D01*
X143371813Y-76766321D01*
X143576321Y-76561813D01*
X143687000Y-76294609D01*
X143687000Y-76025391D01*
X147243000Y-76025391D01*
X147243000Y-76314609D01*
X147353679Y-76581813D01*
X147558187Y-76786321D01*
X147825391Y-76897000D01*
X148114609Y-76897000D01*
X148381813Y-76786321D01*
X148586321Y-76581813D01*
X148697000Y-76314609D01*
X148697000Y-76025391D01*
X148680432Y-75985391D01*
X153243000Y-75985391D01*
X153243000Y-76274609D01*
X153353679Y-76541813D01*
X153558187Y-76746321D01*
X153825391Y-76857000D01*
X154114609Y-76857000D01*
X154381813Y-76746321D01*
X154586321Y-76541813D01*
X154697000Y-76274609D01*
X154697000Y-75985391D01*
X158243000Y-75985391D01*
X158243000Y-76274609D01*
X158353679Y-76541813D01*
X158558187Y-76746321D01*
X158825391Y-76857000D01*
X159114609Y-76857000D01*
X159381813Y-76746321D01*
X159586321Y-76541813D01*
X159697000Y-76274609D01*
X159697000Y-75985391D01*
X159680432Y-75945391D01*
X164223000Y-75945391D01*
X164223000Y-76234609D01*
X164333679Y-76501813D01*
X164538187Y-76706321D01*
X164805391Y-76817000D01*
X165094609Y-76817000D01*
X165361813Y-76706321D01*
X165566321Y-76501813D01*
X165677000Y-76234609D01*
X165677000Y-75945391D01*
X165566321Y-75678187D01*
X165361813Y-75473679D01*
X165094609Y-75363000D01*
X164805391Y-75363000D01*
X164538187Y-75473679D01*
X164333679Y-75678187D01*
X164223000Y-75945391D01*
X159680432Y-75945391D01*
X159586321Y-75718187D01*
X159381813Y-75513679D01*
X159114609Y-75403000D01*
X158825391Y-75403000D01*
X158558187Y-75513679D01*
X158353679Y-75718187D01*
X158243000Y-75985391D01*
X154697000Y-75985391D01*
X154586321Y-75718187D01*
X154381813Y-75513679D01*
X154114609Y-75403000D01*
X153825391Y-75403000D01*
X153558187Y-75513679D01*
X153353679Y-75718187D01*
X153243000Y-75985391D01*
X148680432Y-75985391D01*
X148586321Y-75758187D01*
X148381813Y-75553679D01*
X148114609Y-75443000D01*
X147825391Y-75443000D01*
X147558187Y-75553679D01*
X147353679Y-75758187D01*
X147243000Y-76025391D01*
X143687000Y-76025391D01*
X143687000Y-76005391D01*
X143576321Y-75738187D01*
X143371813Y-75533679D01*
X143104609Y-75423000D01*
X142815391Y-75423000D01*
X142548187Y-75533679D01*
X142343679Y-75738187D01*
X142233000Y-76005391D01*
X137654574Y-76005391D01*
X137556321Y-75768187D01*
X137351813Y-75563679D01*
X137084609Y-75453000D01*
X136795391Y-75453000D01*
X136528187Y-75563679D01*
X136323679Y-75768187D01*
X136213000Y-76035391D01*
X134902000Y-76035391D01*
X134902000Y-75000561D01*
X134880482Y-74892381D01*
X134820040Y-74588516D01*
X134820040Y-74588514D01*
X134782506Y-74497899D01*
X134745085Y-74407555D01*
X134745081Y-74407551D01*
X134539152Y-74099358D01*
X134539150Y-74099353D01*
X134469898Y-74030102D01*
X134400647Y-73960850D01*
X134400642Y-73960848D01*
X134092449Y-73754919D01*
X134092445Y-73754915D01*
X133973581Y-73705681D01*
X133911486Y-73679960D01*
X133911484Y-73679960D01*
X133547940Y-73607647D01*
X133547935Y-73607645D01*
X133450000Y-73607646D01*
X133352064Y-73607645D01*
X133352058Y-73607647D01*
X132988516Y-73679960D01*
X132988514Y-73679960D01*
X132926419Y-73705681D01*
X132807555Y-73754915D01*
X132807551Y-73754919D01*
X132499358Y-73960848D01*
X132499353Y-73960850D01*
X132430102Y-74030102D01*
X132360850Y-74099353D01*
X132360848Y-74099358D01*
X132154919Y-74407551D01*
X132154915Y-74407555D01*
X132117494Y-74497899D01*
X132079960Y-74588514D01*
X132079960Y-74588516D01*
X132007646Y-74952065D01*
X132007646Y-74952072D01*
X131998001Y-75000561D01*
X131998000Y-82598000D01*
X121802000Y-82598000D01*
X121802000Y-76075391D01*
X123233000Y-76075391D01*
X123233000Y-76364609D01*
X123343679Y-76631813D01*
X123548187Y-76836321D01*
X123815391Y-76947000D01*
X124104609Y-76947000D01*
X124371813Y-76836321D01*
X124576321Y-76631813D01*
X124687000Y-76364609D01*
X124687000Y-76075391D01*
X124666290Y-76025391D01*
X129213000Y-76025391D01*
X129213000Y-76314609D01*
X129323679Y-76581813D01*
X129528187Y-76786321D01*
X129795391Y-76897000D01*
X130084609Y-76897000D01*
X130351813Y-76786321D01*
X130556321Y-76581813D01*
X130667000Y-76314609D01*
X130667000Y-76025391D01*
X130556321Y-75758187D01*
X130351813Y-75553679D01*
X130084609Y-75443000D01*
X129795391Y-75443000D01*
X129528187Y-75553679D01*
X129323679Y-75758187D01*
X129213000Y-76025391D01*
X124666290Y-76025391D01*
X124576321Y-75808187D01*
X124371813Y-75603679D01*
X124104609Y-75493000D01*
X123815391Y-75493000D01*
X123548187Y-75603679D01*
X123343679Y-75808187D01*
X123233000Y-76075391D01*
X121802000Y-76075391D01*
X121802000Y-75000561D01*
X121795819Y-74969489D01*
X121752488Y-74626483D01*
X121743972Y-74598007D01*
X121741640Y-74568380D01*
X121713579Y-74486419D01*
X121521054Y-74050937D01*
X121499348Y-74017893D01*
X121483647Y-73981610D01*
X121430557Y-73913167D01*
X121430551Y-73913159D01*
X121430547Y-73913156D01*
X121107345Y-73563517D01*
X121076106Y-73539286D01*
X121049500Y-73510046D01*
X120977093Y-73462483D01*
X120558058Y-73236384D01*
X120520652Y-73223577D01*
X120486011Y-73204533D01*
X120402110Y-73182991D01*
X120402101Y-73182988D01*
X120402096Y-73182988D01*
X119940161Y-73106100D01*
X119899439Y-73098000D01*
X114000561Y-73098000D01*
X113969489Y-73104181D01*
X113626483Y-73147512D01*
X113598007Y-73156028D01*
X113568380Y-73158360D01*
X113486419Y-73186421D01*
X113050937Y-73378946D01*
X113017893Y-73400652D01*
X112981610Y-73416353D01*
X112913167Y-73469443D01*
X112913159Y-73469449D01*
X112913156Y-73469453D01*
X112563517Y-73792655D01*
X112539286Y-73823894D01*
X112510046Y-73850500D01*
X112462483Y-73922907D01*
X112236384Y-74341942D01*
X112223577Y-74379348D01*
X112204533Y-74413989D01*
X112182991Y-74497890D01*
X112182988Y-74497899D01*
X112182988Y-74497904D01*
X112106095Y-74959870D01*
X112098001Y-75000561D01*
X112098000Y-82598000D01*
X74902000Y-82598000D01*
X74902000Y-75885391D01*
X76193000Y-75885391D01*
X76193000Y-76174609D01*
X76303679Y-76441813D01*
X76508187Y-76646321D01*
X76775391Y-76757000D01*
X77064609Y-76757000D01*
X77331813Y-76646321D01*
X77536321Y-76441813D01*
X77647000Y-76174609D01*
X77647000Y-75915391D01*
X82243000Y-75915391D01*
X82243000Y-76204609D01*
X82353679Y-76471813D01*
X82558187Y-76676321D01*
X82825391Y-76787000D01*
X83114609Y-76787000D01*
X83381813Y-76676321D01*
X83586321Y-76471813D01*
X83697000Y-76204609D01*
X83697000Y-75915391D01*
X83634869Y-75765391D01*
X84503000Y-75765391D01*
X84503000Y-76054609D01*
X84613679Y-76321813D01*
X84818187Y-76526321D01*
X85085391Y-76637000D01*
X85374609Y-76637000D01*
X85641813Y-76526321D01*
X85846321Y-76321813D01*
X85957000Y-76054609D01*
X85957000Y-75955391D01*
X87213000Y-75955391D01*
X87213000Y-76244609D01*
X87323679Y-76511813D01*
X87528187Y-76716321D01*
X87795391Y-76827000D01*
X88084609Y-76827000D01*
X88351813Y-76716321D01*
X88556321Y-76511813D01*
X88667000Y-76244609D01*
X88667000Y-76005391D01*
X93283000Y-76005391D01*
X93283000Y-76294609D01*
X93393679Y-76561813D01*
X93598187Y-76766321D01*
X93865391Y-76877000D01*
X94154609Y-76877000D01*
X94421813Y-76766321D01*
X94626321Y-76561813D01*
X94737000Y-76294609D01*
X94737000Y-76025391D01*
X98193000Y-76025391D01*
X98193000Y-76314609D01*
X98303679Y-76581813D01*
X98508187Y-76786321D01*
X98775391Y-76897000D01*
X99064609Y-76897000D01*
X99331813Y-76786321D01*
X99536321Y-76581813D01*
X99647000Y-76314609D01*
X99647000Y-76095391D01*
X104213000Y-76095391D01*
X104213000Y-76384609D01*
X104323679Y-76651813D01*
X104528187Y-76856321D01*
X104795391Y-76967000D01*
X105084609Y-76967000D01*
X105351813Y-76856321D01*
X105556321Y-76651813D01*
X105667000Y-76384609D01*
X105667000Y-76095391D01*
X105556321Y-75828187D01*
X105351813Y-75623679D01*
X105084609Y-75513000D01*
X104795391Y-75513000D01*
X104528187Y-75623679D01*
X104323679Y-75828187D01*
X104213000Y-76095391D01*
X99647000Y-76095391D01*
X99647000Y-76025391D01*
X99536321Y-75758187D01*
X99331813Y-75553679D01*
X99064609Y-75443000D01*
X98775391Y-75443000D01*
X98508187Y-75553679D01*
X98303679Y-75758187D01*
X98193000Y-76025391D01*
X94737000Y-76025391D01*
X94737000Y-76005391D01*
X94626321Y-75738187D01*
X94421813Y-75533679D01*
X94154609Y-75423000D01*
X93865391Y-75423000D01*
X93598187Y-75533679D01*
X93393679Y-75738187D01*
X93283000Y-76005391D01*
X88667000Y-76005391D01*
X88667000Y-75955391D01*
X88556321Y-75688187D01*
X88351813Y-75483679D01*
X88084609Y-75373000D01*
X87795391Y-75373000D01*
X87528187Y-75483679D01*
X87323679Y-75688187D01*
X87213000Y-75955391D01*
X85957000Y-75955391D01*
X85957000Y-75765391D01*
X85846321Y-75498187D01*
X85641813Y-75293679D01*
X85374609Y-75183000D01*
X85085391Y-75183000D01*
X84818187Y-75293679D01*
X84613679Y-75498187D01*
X84503000Y-75765391D01*
X83634869Y-75765391D01*
X83586321Y-75648187D01*
X83381813Y-75443679D01*
X83114609Y-75333000D01*
X82825391Y-75333000D01*
X82558187Y-75443679D01*
X82353679Y-75648187D01*
X82243000Y-75915391D01*
X77647000Y-75915391D01*
X77647000Y-75885391D01*
X77536321Y-75618187D01*
X77331813Y-75413679D01*
X77064609Y-75303000D01*
X76775391Y-75303000D01*
X76508187Y-75413679D01*
X76303679Y-75618187D01*
X76193000Y-75885391D01*
X74902000Y-75885391D01*
X74902000Y-75000561D01*
X74880482Y-74892381D01*
X74851469Y-74746517D01*
X85666015Y-74746517D01*
X85666015Y-75035735D01*
X85776694Y-75302939D01*
X85981202Y-75507447D01*
X86248406Y-75618126D01*
X86537624Y-75618126D01*
X86804828Y-75507447D01*
X87009336Y-75302939D01*
X87120015Y-75035735D01*
X87120015Y-74746517D01*
X87009336Y-74479313D01*
X86804828Y-74274805D01*
X86537624Y-74164126D01*
X86248406Y-74164126D01*
X85981202Y-74274805D01*
X85776694Y-74479313D01*
X85666015Y-74746517D01*
X74851469Y-74746517D01*
X74820040Y-74588516D01*
X74820040Y-74588514D01*
X74782506Y-74497899D01*
X74745085Y-74407555D01*
X74745081Y-74407551D01*
X74539152Y-74099358D01*
X74539150Y-74099353D01*
X74469898Y-74030102D01*
X74400647Y-73960850D01*
X74400642Y-73960848D01*
X74092449Y-73754919D01*
X74092445Y-73754915D01*
X73973581Y-73705681D01*
X73911486Y-73679960D01*
X73911484Y-73679960D01*
X73547940Y-73607647D01*
X73547935Y-73607645D01*
X73450000Y-73607646D01*
X73352064Y-73607645D01*
X73352058Y-73607647D01*
X72988516Y-73679960D01*
X72988514Y-73679960D01*
X72926419Y-73705681D01*
X72807555Y-73754915D01*
X72807551Y-73754919D01*
X72499358Y-73960848D01*
X72499353Y-73960850D01*
X72430102Y-74030102D01*
X72360850Y-74099353D01*
X72360848Y-74099358D01*
X72154919Y-74407551D01*
X72154915Y-74407555D01*
X72117494Y-74497899D01*
X72079960Y-74588514D01*
X72079960Y-74588516D01*
X72007646Y-74952065D01*
X72007646Y-74952072D01*
X71998001Y-75000561D01*
X71998000Y-82598000D01*
X61802000Y-82598000D01*
X61802000Y-75985391D01*
X63213000Y-75985391D01*
X63213000Y-76274609D01*
X63323679Y-76541813D01*
X63528187Y-76746321D01*
X63795391Y-76857000D01*
X64084609Y-76857000D01*
X64351813Y-76746321D01*
X64556321Y-76541813D01*
X64667000Y-76274609D01*
X64667000Y-75985391D01*
X64642148Y-75925391D01*
X69243000Y-75925391D01*
X69243000Y-76214609D01*
X69353679Y-76481813D01*
X69558187Y-76686321D01*
X69825391Y-76797000D01*
X70114609Y-76797000D01*
X70381813Y-76686321D01*
X70586321Y-76481813D01*
X70697000Y-76214609D01*
X70697000Y-75925391D01*
X70586321Y-75658187D01*
X70381813Y-75453679D01*
X70114609Y-75343000D01*
X69825391Y-75343000D01*
X69558187Y-75453679D01*
X69353679Y-75658187D01*
X69243000Y-75925391D01*
X64642148Y-75925391D01*
X64556321Y-75718187D01*
X64351813Y-75513679D01*
X64084609Y-75403000D01*
X63795391Y-75403000D01*
X63528187Y-75513679D01*
X63323679Y-75718187D01*
X63213000Y-75985391D01*
X61802000Y-75985391D01*
X61802000Y-75000561D01*
X61795819Y-74969489D01*
X61752488Y-74626483D01*
X61743972Y-74598007D01*
X61741640Y-74568380D01*
X61713579Y-74486419D01*
X61521054Y-74050937D01*
X61499348Y-74017893D01*
X61483647Y-73981610D01*
X61430557Y-73913167D01*
X61430551Y-73913159D01*
X61430547Y-73913156D01*
X61107345Y-73563517D01*
X61076106Y-73539286D01*
X61070581Y-73533213D01*
X87010822Y-73533213D01*
X87010822Y-73822431D01*
X87121501Y-74089635D01*
X87326009Y-74294143D01*
X87593213Y-74404822D01*
X87882431Y-74404822D01*
X88149635Y-74294143D01*
X88354143Y-74089635D01*
X88464822Y-73822431D01*
X88464822Y-73533213D01*
X88354143Y-73266009D01*
X88149635Y-73061501D01*
X87882431Y-72950822D01*
X87593213Y-72950822D01*
X87326009Y-73061501D01*
X87121501Y-73266009D01*
X87010822Y-73533213D01*
X61070581Y-73533213D01*
X61049500Y-73510046D01*
X60977093Y-73462483D01*
X60558058Y-73236384D01*
X60520652Y-73223577D01*
X60486011Y-73204533D01*
X60402110Y-73182991D01*
X60402101Y-73182988D01*
X60402096Y-73182988D01*
X59932422Y-73104812D01*
X59902701Y-73104812D01*
X59873648Y-73098557D01*
X59787083Y-73101958D01*
X59426483Y-73147512D01*
X59398007Y-73156028D01*
X59368380Y-73158360D01*
X59286419Y-73186421D01*
X58850937Y-73378946D01*
X58817893Y-73400652D01*
X58781610Y-73416353D01*
X58713167Y-73469443D01*
X58713159Y-73469449D01*
X58713156Y-73469453D01*
X58363517Y-73792655D01*
X58339286Y-73823894D01*
X58310046Y-73850500D01*
X58262483Y-73922907D01*
X58036384Y-74341942D01*
X58023577Y-74379348D01*
X58004533Y-74413989D01*
X57982991Y-74497890D01*
X57982988Y-74497899D01*
X57982988Y-74497904D01*
X57906099Y-74959845D01*
X57898000Y-75000562D01*
X57898001Y-76798000D01*
X54902000Y-76798000D01*
X54902000Y-71835391D01*
X108703000Y-71835391D01*
X108703000Y-72124609D01*
X108813679Y-72391813D01*
X109018187Y-72596321D01*
X109285391Y-72707000D01*
X109574609Y-72707000D01*
X109841813Y-72596321D01*
X110046321Y-72391813D01*
X110157000Y-72124609D01*
X110157000Y-71835391D01*
X110046321Y-71568187D01*
X109841813Y-71363679D01*
X109574609Y-71253000D01*
X109285391Y-71253000D01*
X109018187Y-71363679D01*
X108813679Y-71568187D01*
X108703000Y-71835391D01*
X54902000Y-71835391D01*
X54902000Y-70275391D01*
X107842990Y-70275391D01*
X107842990Y-70564609D01*
X107953669Y-70831813D01*
X108158177Y-71036321D01*
X108425381Y-71147000D01*
X108714599Y-71147000D01*
X108981803Y-71036321D01*
X109186311Y-70831813D01*
X109296990Y-70564609D01*
X109296990Y-70275391D01*
X109186311Y-70008187D01*
X108981803Y-69803679D01*
X108714599Y-69693000D01*
X108425381Y-69693000D01*
X108158177Y-69803679D01*
X107953669Y-70008187D01*
X107842990Y-70275391D01*
X54902000Y-70275391D01*
X54902000Y-69265391D01*
X78283000Y-69265391D01*
X78283000Y-69554609D01*
X78393679Y-69821813D01*
X78598187Y-70026321D01*
X78865391Y-70137000D01*
X79154609Y-70137000D01*
X79421813Y-70026321D01*
X79626321Y-69821813D01*
X79737000Y-69554609D01*
X79737000Y-69399119D01*
X79783679Y-69511813D01*
X79988187Y-69716321D01*
X80255391Y-69827000D01*
X80544609Y-69827000D01*
X80811813Y-69716321D01*
X81016321Y-69511813D01*
X81120307Y-69260768D01*
X81217655Y-69495789D01*
X81422163Y-69700297D01*
X81689367Y-69810976D01*
X81978585Y-69810976D01*
X82245789Y-69700297D01*
X82450297Y-69495789D01*
X82560976Y-69228585D01*
X82560976Y-68939367D01*
X82534477Y-68875391D01*
X107293000Y-68875391D01*
X107293000Y-69164609D01*
X107403679Y-69431813D01*
X107608187Y-69636321D01*
X107875391Y-69747000D01*
X108164609Y-69747000D01*
X108431813Y-69636321D01*
X108636321Y-69431813D01*
X108747000Y-69164609D01*
X108747000Y-68875391D01*
X108636321Y-68608187D01*
X108610107Y-68581973D01*
X109363010Y-68581973D01*
X109363010Y-68871191D01*
X109473689Y-69138395D01*
X109678197Y-69342903D01*
X109945401Y-69453582D01*
X110184645Y-69453582D01*
X110098155Y-69489407D01*
X109893647Y-69693915D01*
X109782968Y-69961119D01*
X109782968Y-70250337D01*
X109893647Y-70517541D01*
X110098155Y-70722049D01*
X110365359Y-70832728D01*
X110654577Y-70832728D01*
X110921781Y-70722049D01*
X111126289Y-70517541D01*
X111236968Y-70250337D01*
X111236968Y-70215391D01*
X151553000Y-70215391D01*
X151553000Y-70504609D01*
X151663679Y-70771813D01*
X151868187Y-70976321D01*
X152135391Y-71087000D01*
X152424609Y-71087000D01*
X152691813Y-70976321D01*
X152896321Y-70771813D01*
X153007000Y-70504609D01*
X153007000Y-70265395D01*
X154113000Y-70265395D01*
X154113000Y-70554613D01*
X154223679Y-70821817D01*
X154428187Y-71026325D01*
X154695391Y-71137004D01*
X154984609Y-71137004D01*
X155251813Y-71026325D01*
X155456321Y-70821817D01*
X155567000Y-70554613D01*
X155567000Y-70265395D01*
X155456321Y-69998191D01*
X155251813Y-69793683D01*
X154984609Y-69683004D01*
X154695391Y-69683004D01*
X154428187Y-69793683D01*
X154223679Y-69998191D01*
X154113000Y-70265395D01*
X153007000Y-70265395D01*
X153007000Y-70215391D01*
X152896321Y-69948187D01*
X152691813Y-69743679D01*
X152424609Y-69633000D01*
X152135391Y-69633000D01*
X151868187Y-69743679D01*
X151663679Y-69948187D01*
X151553000Y-70215391D01*
X111236968Y-70215391D01*
X111236968Y-69961119D01*
X111126289Y-69693915D01*
X110921781Y-69489407D01*
X110654577Y-69378728D01*
X110415333Y-69378728D01*
X110501823Y-69342903D01*
X110706331Y-69138395D01*
X110817010Y-68871191D01*
X110817010Y-68581973D01*
X110706331Y-68314769D01*
X110501823Y-68110261D01*
X110234619Y-67999582D01*
X109945401Y-67999582D01*
X109678197Y-68110261D01*
X109473689Y-68314769D01*
X109363010Y-68581973D01*
X108610107Y-68581973D01*
X108431813Y-68403679D01*
X108164609Y-68293000D01*
X107875391Y-68293000D01*
X107608187Y-68403679D01*
X107403679Y-68608187D01*
X107293000Y-68875391D01*
X82534477Y-68875391D01*
X82450297Y-68672163D01*
X82245789Y-68467655D01*
X81978585Y-68356976D01*
X81689367Y-68356976D01*
X81422163Y-68467655D01*
X81217655Y-68672163D01*
X81113669Y-68923208D01*
X81016321Y-68688187D01*
X80811813Y-68483679D01*
X80544609Y-68373000D01*
X80255391Y-68373000D01*
X79988187Y-68483679D01*
X79783679Y-68688187D01*
X79673000Y-68955391D01*
X79673000Y-69110881D01*
X79626321Y-68998187D01*
X79421813Y-68793679D01*
X79154609Y-68683000D01*
X78865391Y-68683000D01*
X78598187Y-68793679D01*
X78393679Y-68998187D01*
X78283000Y-69265391D01*
X54902000Y-69265391D01*
X54902000Y-67155391D01*
X74053000Y-67155391D01*
X74053000Y-67444609D01*
X74163679Y-67711813D01*
X74368187Y-67916321D01*
X74635391Y-68027000D01*
X74924609Y-68027000D01*
X75191813Y-67916321D01*
X75396321Y-67711813D01*
X75507000Y-67444609D01*
X75507000Y-67155391D01*
X75396321Y-66888187D01*
X75191813Y-66683679D01*
X74924609Y-66573000D01*
X74635391Y-66573000D01*
X74368187Y-66683679D01*
X74163679Y-66888187D01*
X74053000Y-67155391D01*
X54902000Y-67155391D01*
X54902000Y-64335391D01*
X73263000Y-64335391D01*
X73263000Y-64624609D01*
X73373679Y-64891813D01*
X73578187Y-65096321D01*
X73845391Y-65207000D01*
X73951592Y-65207000D01*
X73718187Y-65303679D01*
X73513679Y-65508187D01*
X73403000Y-65775391D01*
X73403000Y-66064609D01*
X73513679Y-66331813D01*
X73718187Y-66536321D01*
X73985391Y-66647000D01*
X74274609Y-66647000D01*
X74541813Y-66536321D01*
X74746321Y-66331813D01*
X74857000Y-66064609D01*
X74857000Y-65945391D01*
X74993000Y-65945391D01*
X74993000Y-66234609D01*
X75103679Y-66501813D01*
X75308187Y-66706321D01*
X75575391Y-66817000D01*
X75864609Y-66817000D01*
X76127622Y-66708057D01*
X76127622Y-66834621D01*
X76238301Y-67101825D01*
X76442809Y-67306333D01*
X76710013Y-67417012D01*
X76865594Y-67417012D01*
X76777096Y-67453669D01*
X76572588Y-67658177D01*
X76461909Y-67925381D01*
X76461909Y-68214599D01*
X76572588Y-68481803D01*
X76777096Y-68686311D01*
X77044300Y-68796990D01*
X77333518Y-68796990D01*
X77600722Y-68686311D01*
X77805230Y-68481803D01*
X77915909Y-68214599D01*
X77915909Y-67925381D01*
X77805230Y-67658177D01*
X77600722Y-67453669D01*
X77333518Y-67342990D01*
X77177937Y-67342990D01*
X77266435Y-67306333D01*
X77470943Y-67101825D01*
X77581622Y-66834621D01*
X77581622Y-66545403D01*
X77478131Y-66295551D01*
X78682048Y-66295551D01*
X78682048Y-66584769D01*
X78792727Y-66851973D01*
X78997235Y-67056481D01*
X79059654Y-67082336D01*
X79008187Y-67103654D01*
X78803679Y-67308162D01*
X78693000Y-67575366D01*
X78693000Y-67864584D01*
X78803679Y-68131788D01*
X79008187Y-68336296D01*
X79275391Y-68446975D01*
X79564609Y-68446975D01*
X79831813Y-68336296D01*
X79994963Y-68173147D01*
X80083890Y-68262074D01*
X80351094Y-68372753D01*
X80640312Y-68372753D01*
X80907516Y-68262074D01*
X81112024Y-68057566D01*
X81222703Y-67790362D01*
X81222703Y-67501144D01*
X81112024Y-67233940D01*
X80907516Y-67029432D01*
X80640312Y-66918753D01*
X80351094Y-66918753D01*
X80083890Y-67029432D01*
X79920741Y-67192582D01*
X79831813Y-67103654D01*
X79769394Y-67077799D01*
X79820861Y-67056481D01*
X80025369Y-66851973D01*
X80067756Y-66749640D01*
X83724575Y-66749640D01*
X83724575Y-67038858D01*
X83835254Y-67306062D01*
X84039762Y-67510570D01*
X84306966Y-67621249D01*
X84596184Y-67621249D01*
X84863388Y-67510570D01*
X85067896Y-67306062D01*
X85178575Y-67038858D01*
X85178575Y-66749640D01*
X85067896Y-66482436D01*
X84863388Y-66277928D01*
X84596184Y-66167249D01*
X84306966Y-66167249D01*
X84039762Y-66277928D01*
X83835254Y-66482436D01*
X83724575Y-66749640D01*
X80067756Y-66749640D01*
X80136048Y-66584769D01*
X80136048Y-66295551D01*
X80025369Y-66028347D01*
X79922413Y-65925391D01*
X113773000Y-65925391D01*
X113773000Y-66214609D01*
X113883679Y-66481813D01*
X114088187Y-66686321D01*
X114355391Y-66797000D01*
X114644609Y-66797000D01*
X114911813Y-66686321D01*
X115042743Y-66555391D01*
X115273000Y-66555391D01*
X115273000Y-66844609D01*
X115383679Y-67111813D01*
X115588187Y-67316321D01*
X115855391Y-67427000D01*
X116144609Y-67427000D01*
X116411813Y-67316321D01*
X116542743Y-67185391D01*
X116833000Y-67185391D01*
X116833000Y-67474609D01*
X116943679Y-67741813D01*
X117148187Y-67946321D01*
X117415391Y-68057000D01*
X117704609Y-68057000D01*
X117829204Y-68005391D01*
X118323000Y-68005391D01*
X118323000Y-68294609D01*
X118433679Y-68561813D01*
X118638187Y-68766321D01*
X118905391Y-68877000D01*
X119194609Y-68877000D01*
X119461813Y-68766321D01*
X119666321Y-68561813D01*
X119689691Y-68505391D01*
X119833000Y-68505391D01*
X119833000Y-68794609D01*
X119943679Y-69061813D01*
X120148187Y-69266321D01*
X120415391Y-69377000D01*
X120704609Y-69377000D01*
X120971813Y-69266321D01*
X121176321Y-69061813D01*
X121287000Y-68794609D01*
X121287000Y-68505391D01*
X121176321Y-68238187D01*
X120971813Y-68033679D01*
X120704609Y-67923000D01*
X120415391Y-67923000D01*
X120148187Y-68033679D01*
X119943679Y-68238187D01*
X119833000Y-68505391D01*
X119689691Y-68505391D01*
X119777000Y-68294609D01*
X119777000Y-68005391D01*
X119666321Y-67738187D01*
X119461813Y-67533679D01*
X119194609Y-67423000D01*
X118905391Y-67423000D01*
X118638187Y-67533679D01*
X118433679Y-67738187D01*
X118323000Y-68005391D01*
X117829204Y-68005391D01*
X117971813Y-67946321D01*
X118176321Y-67741813D01*
X118287000Y-67474609D01*
X118287000Y-67185391D01*
X118268680Y-67141161D01*
X135052886Y-67141161D01*
X135052886Y-67430379D01*
X135163565Y-67697583D01*
X135368073Y-67902091D01*
X135635277Y-68012770D01*
X135924495Y-68012770D01*
X135966491Y-67995375D01*
X135763679Y-68198187D01*
X135653000Y-68465391D01*
X135653000Y-68754609D01*
X135763679Y-69021813D01*
X135968187Y-69226321D01*
X136235391Y-69337000D01*
X136524609Y-69337000D01*
X136791813Y-69226321D01*
X136996321Y-69021813D01*
X137107000Y-68754609D01*
X137107000Y-68465391D01*
X136996321Y-68198187D01*
X136943525Y-68145391D01*
X137923000Y-68145391D01*
X137923000Y-68434609D01*
X138033679Y-68701813D01*
X138238187Y-68906321D01*
X138505391Y-69017000D01*
X138794609Y-69017000D01*
X139061813Y-68906321D01*
X139266321Y-68701813D01*
X139377000Y-68434609D01*
X139377000Y-68145391D01*
X139303108Y-67967000D01*
X139439633Y-67967000D01*
X139704094Y-67857457D01*
X139664286Y-67897265D01*
X139553607Y-68164469D01*
X139553607Y-68453687D01*
X139664286Y-68720891D01*
X139868794Y-68925399D01*
X140135998Y-69036078D01*
X140425216Y-69036078D01*
X140692420Y-68925399D01*
X140896928Y-68720891D01*
X141007607Y-68453687D01*
X141007607Y-68164469D01*
X140896928Y-67897265D01*
X140692420Y-67692757D01*
X140425216Y-67582078D01*
X140135998Y-67582078D01*
X139871537Y-67691621D01*
X139911345Y-67651813D01*
X140022024Y-67384609D01*
X140022024Y-67095391D01*
X139986830Y-67010424D01*
X142868023Y-67010424D01*
X142868023Y-67299642D01*
X142978702Y-67566846D01*
X143183210Y-67771354D01*
X143450414Y-67882033D01*
X143739632Y-67882033D01*
X144006836Y-67771354D01*
X144211344Y-67566846D01*
X144322023Y-67299642D01*
X144322023Y-67010424D01*
X144211344Y-66743220D01*
X144006836Y-66538712D01*
X143739632Y-66428033D01*
X143450414Y-66428033D01*
X143183210Y-66538712D01*
X142978702Y-66743220D01*
X142868023Y-67010424D01*
X139986830Y-67010424D01*
X139911345Y-66828187D01*
X139706837Y-66623679D01*
X139439633Y-66513000D01*
X139150415Y-66513000D01*
X138883211Y-66623679D01*
X138678703Y-66828187D01*
X138568024Y-67095391D01*
X138568024Y-67384609D01*
X138641916Y-67563000D01*
X138505391Y-67563000D01*
X138238187Y-67673679D01*
X138033679Y-67878187D01*
X137923000Y-68145391D01*
X136943525Y-68145391D01*
X136791813Y-67993679D01*
X136524609Y-67883000D01*
X136235391Y-67883000D01*
X136193395Y-67900395D01*
X136396207Y-67697583D01*
X136506886Y-67430379D01*
X136506886Y-67141161D01*
X136396207Y-66873957D01*
X136191699Y-66669449D01*
X135924495Y-66558770D01*
X135635277Y-66558770D01*
X135368073Y-66669449D01*
X135163565Y-66873957D01*
X135052886Y-67141161D01*
X118268680Y-67141161D01*
X118176321Y-66918187D01*
X117971813Y-66713679D01*
X117704609Y-66603000D01*
X117415391Y-66603000D01*
X117148187Y-66713679D01*
X116943679Y-66918187D01*
X116833000Y-67185391D01*
X116542743Y-67185391D01*
X116616321Y-67111813D01*
X116727000Y-66844609D01*
X116727000Y-66555391D01*
X116616321Y-66288187D01*
X116411813Y-66083679D01*
X116391804Y-66075391D01*
X133683000Y-66075391D01*
X133683000Y-66364609D01*
X133793679Y-66631813D01*
X133998187Y-66836321D01*
X134265391Y-66947000D01*
X134554609Y-66947000D01*
X134821813Y-66836321D01*
X135026321Y-66631813D01*
X135137000Y-66364609D01*
X135137000Y-66075391D01*
X135026321Y-65808187D01*
X134821813Y-65603679D01*
X134554609Y-65493000D01*
X134265391Y-65493000D01*
X133998187Y-65603679D01*
X133793679Y-65808187D01*
X133683000Y-66075391D01*
X116391804Y-66075391D01*
X116144609Y-65973000D01*
X115855391Y-65973000D01*
X115588187Y-66083679D01*
X115383679Y-66288187D01*
X115273000Y-66555391D01*
X115042743Y-66555391D01*
X115116321Y-66481813D01*
X115227000Y-66214609D01*
X115227000Y-65925391D01*
X115116321Y-65658187D01*
X114911813Y-65453679D01*
X114644609Y-65343000D01*
X114355391Y-65343000D01*
X114088187Y-65453679D01*
X113883679Y-65658187D01*
X113773000Y-65925391D01*
X79922413Y-65925391D01*
X79820861Y-65823839D01*
X79553657Y-65713160D01*
X79264439Y-65713160D01*
X78997235Y-65823839D01*
X78792727Y-66028347D01*
X78682048Y-66295551D01*
X77478131Y-66295551D01*
X77470943Y-66278199D01*
X77266435Y-66073691D01*
X76999231Y-65963012D01*
X76710013Y-65963012D01*
X76447000Y-66071955D01*
X76447000Y-65945391D01*
X76336321Y-65678187D01*
X76131813Y-65473679D01*
X75864609Y-65363000D01*
X75575391Y-65363000D01*
X75308187Y-65473679D01*
X75103679Y-65678187D01*
X74993000Y-65945391D01*
X74857000Y-65945391D01*
X74857000Y-65775391D01*
X74746321Y-65508187D01*
X74541813Y-65303679D01*
X74274609Y-65193000D01*
X74168408Y-65193000D01*
X74401813Y-65096321D01*
X74606321Y-64891813D01*
X74717000Y-64624609D01*
X74717000Y-64335391D01*
X74606321Y-64068187D01*
X74401813Y-63863679D01*
X74249015Y-63800388D01*
X111450953Y-63800388D01*
X111450953Y-64089606D01*
X111561632Y-64356810D01*
X111766140Y-64561318D01*
X112033344Y-64671997D01*
X112322562Y-64671997D01*
X112338510Y-64665391D01*
X112683000Y-64665391D01*
X112683000Y-64954609D01*
X112793679Y-65221813D01*
X112998187Y-65426321D01*
X113265391Y-65537000D01*
X113554609Y-65537000D01*
X113821813Y-65426321D01*
X114026321Y-65221813D01*
X114137000Y-64954609D01*
X114137000Y-64665391D01*
X114026321Y-64398187D01*
X113973525Y-64345391D01*
X132743000Y-64345391D01*
X132743000Y-64634609D01*
X132853679Y-64901813D01*
X133058187Y-65106321D01*
X133325391Y-65217000D01*
X133614609Y-65217000D01*
X133881813Y-65106321D01*
X134086321Y-64901813D01*
X134167681Y-64705391D01*
X134313000Y-64705391D01*
X134313000Y-64994609D01*
X134423679Y-65261813D01*
X134628187Y-65466321D01*
X134895391Y-65577000D01*
X135184609Y-65577000D01*
X135451813Y-65466321D01*
X135656321Y-65261813D01*
X135767000Y-64994609D01*
X135767000Y-64727586D01*
X137868022Y-64727586D01*
X137868022Y-65016804D01*
X137978701Y-65284008D01*
X138183209Y-65488516D01*
X138450413Y-65599195D01*
X138739631Y-65599195D01*
X139006835Y-65488516D01*
X139211343Y-65284008D01*
X139256333Y-65175391D01*
X146103000Y-65175391D01*
X146103000Y-65464609D01*
X146213679Y-65731813D01*
X146418187Y-65936321D01*
X146685391Y-66047000D01*
X146974609Y-66047000D01*
X147241813Y-65936321D01*
X147446321Y-65731813D01*
X147557000Y-65464609D01*
X147557000Y-65175391D01*
X147446321Y-64908187D01*
X147241813Y-64703679D01*
X146974609Y-64593000D01*
X146685391Y-64593000D01*
X146418187Y-64703679D01*
X146213679Y-64908187D01*
X146103000Y-65175391D01*
X139256333Y-65175391D01*
X139322022Y-65016804D01*
X139322022Y-64727586D01*
X139211343Y-64460382D01*
X139146352Y-64395391D01*
X147542891Y-64395391D01*
X147542891Y-64684609D01*
X147653570Y-64951813D01*
X147858078Y-65156321D01*
X148125282Y-65267000D01*
X148414500Y-65267000D01*
X148681704Y-65156321D01*
X148886212Y-64951813D01*
X148996891Y-64684609D01*
X148996891Y-64395391D01*
X148886212Y-64128187D01*
X148681704Y-63923679D01*
X148414500Y-63813000D01*
X148125282Y-63813000D01*
X147858078Y-63923679D01*
X147653570Y-64128187D01*
X147542891Y-64395391D01*
X139146352Y-64395391D01*
X139006835Y-64255874D01*
X138739631Y-64145195D01*
X138450413Y-64145195D01*
X138183209Y-64255874D01*
X137978701Y-64460382D01*
X137868022Y-64727586D01*
X135767000Y-64727586D01*
X135767000Y-64705391D01*
X135656321Y-64438187D01*
X135451813Y-64233679D01*
X135184609Y-64123000D01*
X134895391Y-64123000D01*
X134628187Y-64233679D01*
X134423679Y-64438187D01*
X134313000Y-64705391D01*
X134167681Y-64705391D01*
X134197000Y-64634609D01*
X134197000Y-64345391D01*
X134086321Y-64078187D01*
X133881813Y-63873679D01*
X133614609Y-63763000D01*
X133325391Y-63763000D01*
X133058187Y-63873679D01*
X132853679Y-64078187D01*
X132743000Y-64345391D01*
X113973525Y-64345391D01*
X113821813Y-64193679D01*
X113554609Y-64083000D01*
X113265391Y-64083000D01*
X112998187Y-64193679D01*
X112793679Y-64398187D01*
X112683000Y-64665391D01*
X112338510Y-64665391D01*
X112589766Y-64561318D01*
X112794274Y-64356810D01*
X112904953Y-64089606D01*
X112904953Y-63800388D01*
X112794274Y-63533184D01*
X112589766Y-63328676D01*
X112322562Y-63217997D01*
X112033344Y-63217997D01*
X111766140Y-63328676D01*
X111561632Y-63533184D01*
X111450953Y-63800388D01*
X74249015Y-63800388D01*
X74134609Y-63753000D01*
X73845391Y-63753000D01*
X73578187Y-63863679D01*
X73373679Y-64068187D01*
X73263000Y-64335391D01*
X54902000Y-64335391D01*
X54902000Y-59885447D01*
X67836382Y-59885447D01*
X67836382Y-60174665D01*
X67947061Y-60441869D01*
X68151569Y-60646377D01*
X68418773Y-60757056D01*
X68707991Y-60757056D01*
X68975195Y-60646377D01*
X69140801Y-60480771D01*
X69140801Y-60666531D01*
X69251480Y-60933735D01*
X69455988Y-61138243D01*
X69620231Y-61206274D01*
X69438187Y-61281679D01*
X69233679Y-61486187D01*
X69123000Y-61753391D01*
X69123000Y-62042609D01*
X69233679Y-62309813D01*
X69438187Y-62514321D01*
X69705391Y-62625000D01*
X69994609Y-62625000D01*
X70261813Y-62514321D01*
X70466321Y-62309813D01*
X70577000Y-62042609D01*
X70577000Y-61753391D01*
X70466321Y-61486187D01*
X70261813Y-61281679D01*
X70097570Y-61213648D01*
X70279614Y-61138243D01*
X70440542Y-60977315D01*
X70645662Y-60977315D01*
X70645662Y-61266533D01*
X70756341Y-61533737D01*
X70960849Y-61738245D01*
X71228053Y-61848924D01*
X71517271Y-61848924D01*
X71784475Y-61738245D01*
X71988983Y-61533737D01*
X72062855Y-61355391D01*
X78343000Y-61355391D01*
X78343000Y-61644609D01*
X78453679Y-61911813D01*
X78658187Y-62116321D01*
X78925391Y-62227000D01*
X79214609Y-62227000D01*
X79481813Y-62116321D01*
X79686321Y-61911813D01*
X79797000Y-61644609D01*
X79797000Y-61375391D01*
X80413000Y-61375391D01*
X80413000Y-61664609D01*
X80523679Y-61931813D01*
X80728187Y-62136321D01*
X80995391Y-62247000D01*
X81284609Y-62247000D01*
X81551813Y-62136321D01*
X81756321Y-61931813D01*
X81867000Y-61664609D01*
X81867000Y-61375391D01*
X81850432Y-61335391D01*
X82433000Y-61335391D01*
X82433000Y-61624609D01*
X82543679Y-61891813D01*
X82748187Y-62096321D01*
X83015391Y-62207000D01*
X83304609Y-62207000D01*
X83571813Y-62096321D01*
X83776321Y-61891813D01*
X83887000Y-61624609D01*
X83887000Y-61335391D01*
X83776321Y-61068187D01*
X83571813Y-60863679D01*
X83304609Y-60753000D01*
X83015391Y-60753000D01*
X82748187Y-60863679D01*
X82543679Y-61068187D01*
X82433000Y-61335391D01*
X81850432Y-61335391D01*
X81756321Y-61108187D01*
X81551813Y-60903679D01*
X81284609Y-60793000D01*
X80995391Y-60793000D01*
X80728187Y-60903679D01*
X80523679Y-61108187D01*
X80413000Y-61375391D01*
X79797000Y-61375391D01*
X79797000Y-61355391D01*
X79686321Y-61088187D01*
X79481813Y-60883679D01*
X79214609Y-60773000D01*
X78925391Y-60773000D01*
X78658187Y-60883679D01*
X78453679Y-61088187D01*
X78343000Y-61355391D01*
X72062855Y-61355391D01*
X72099662Y-61266533D01*
X72099662Y-60977315D01*
X71988983Y-60710111D01*
X71938485Y-60659613D01*
X108468778Y-60659613D01*
X108468778Y-60948831D01*
X108579457Y-61216035D01*
X108783965Y-61420543D01*
X109051169Y-61531222D01*
X109340387Y-61531222D01*
X109607591Y-61420543D01*
X109636628Y-61391506D01*
X109636628Y-61550981D01*
X109747307Y-61818185D01*
X109951815Y-62022693D01*
X110219019Y-62133372D01*
X110478418Y-62133372D01*
X110473603Y-62138187D01*
X110362924Y-62405391D01*
X110362924Y-62694609D01*
X110473603Y-62961813D01*
X110678111Y-63166321D01*
X110945315Y-63277000D01*
X111234533Y-63277000D01*
X111501737Y-63166321D01*
X111612667Y-63055391D01*
X129123000Y-63055391D01*
X129123000Y-63344609D01*
X129233679Y-63611813D01*
X129438187Y-63816321D01*
X129705391Y-63927000D01*
X129994609Y-63927000D01*
X130261813Y-63816321D01*
X130466321Y-63611813D01*
X130577000Y-63344609D01*
X130577000Y-63055391D01*
X130466321Y-62788187D01*
X130261813Y-62583679D01*
X129994609Y-62473000D01*
X129705391Y-62473000D01*
X129438187Y-62583679D01*
X129233679Y-62788187D01*
X129123000Y-63055391D01*
X111612667Y-63055391D01*
X111706245Y-62961813D01*
X111816924Y-62694609D01*
X111816924Y-62405391D01*
X111706245Y-62138187D01*
X111501737Y-61933679D01*
X111409302Y-61895391D01*
X130043000Y-61895391D01*
X130043000Y-62184609D01*
X130153679Y-62451813D01*
X130358187Y-62656321D01*
X130625391Y-62767000D01*
X130914609Y-62767000D01*
X131181813Y-62656321D01*
X131386321Y-62451813D01*
X131497000Y-62184609D01*
X131497000Y-61895391D01*
X131386321Y-61628187D01*
X131333525Y-61575391D01*
X138093000Y-61575391D01*
X138093000Y-61864609D01*
X138203679Y-62131813D01*
X138408187Y-62336321D01*
X138675391Y-62447000D01*
X138964609Y-62447000D01*
X139231813Y-62336321D01*
X139436321Y-62131813D01*
X139541208Y-61878592D01*
X139633669Y-62101813D01*
X139838177Y-62306321D01*
X140105381Y-62417000D01*
X140394599Y-62417000D01*
X140661803Y-62306321D01*
X140866311Y-62101813D01*
X140976990Y-61834609D01*
X140976990Y-61545391D01*
X140960422Y-61505391D01*
X141553000Y-61505391D01*
X141553000Y-61794609D01*
X141663679Y-62061813D01*
X141868187Y-62266321D01*
X142135391Y-62377000D01*
X142424609Y-62377000D01*
X142691813Y-62266321D01*
X142896321Y-62061813D01*
X143007000Y-61794609D01*
X143007000Y-61505391D01*
X142896321Y-61238187D01*
X142691813Y-61033679D01*
X142424609Y-60923000D01*
X142135391Y-60923000D01*
X141868187Y-61033679D01*
X141663679Y-61238187D01*
X141553000Y-61505391D01*
X140960422Y-61505391D01*
X140866311Y-61278187D01*
X140661803Y-61073679D01*
X140394599Y-60963000D01*
X140105381Y-60963000D01*
X139838177Y-61073679D01*
X139633669Y-61278187D01*
X139528782Y-61531408D01*
X139436321Y-61308187D01*
X139231813Y-61103679D01*
X138964609Y-60993000D01*
X138675391Y-60993000D01*
X138408187Y-61103679D01*
X138203679Y-61308187D01*
X138093000Y-61575391D01*
X131333525Y-61575391D01*
X131181813Y-61423679D01*
X130914609Y-61313000D01*
X130625391Y-61313000D01*
X130358187Y-61423679D01*
X130153679Y-61628187D01*
X130043000Y-61895391D01*
X111409302Y-61895391D01*
X111234533Y-61823000D01*
X110975134Y-61823000D01*
X110979949Y-61818185D01*
X111090628Y-61550981D01*
X111090628Y-61261763D01*
X110979949Y-60994559D01*
X110775441Y-60790051D01*
X110508237Y-60679372D01*
X110219019Y-60679372D01*
X109951815Y-60790051D01*
X109922778Y-60819088D01*
X109922778Y-60659613D01*
X109812099Y-60392409D01*
X109607591Y-60187901D01*
X109340387Y-60077222D01*
X109051169Y-60077222D01*
X108783965Y-60187901D01*
X108579457Y-60392409D01*
X108468778Y-60659613D01*
X71938485Y-60659613D01*
X71784475Y-60505603D01*
X71517271Y-60394924D01*
X71228053Y-60394924D01*
X70960849Y-60505603D01*
X70756341Y-60710111D01*
X70645662Y-60977315D01*
X70440542Y-60977315D01*
X70484122Y-60933735D01*
X70594801Y-60666531D01*
X70594801Y-60377313D01*
X70484122Y-60110109D01*
X70279614Y-59905601D01*
X70012410Y-59794922D01*
X69723192Y-59794922D01*
X69455988Y-59905601D01*
X69290382Y-60071207D01*
X69290382Y-59885447D01*
X69179703Y-59618243D01*
X68975195Y-59413735D01*
X68707991Y-59303056D01*
X68418773Y-59303056D01*
X68151569Y-59413735D01*
X67947061Y-59618243D01*
X67836382Y-59885447D01*
X54902000Y-59885447D01*
X54902000Y-58285424D01*
X67675447Y-58285424D01*
X67675447Y-58574642D01*
X67786126Y-58841846D01*
X67990634Y-59046354D01*
X68257838Y-59157033D01*
X68547056Y-59157033D01*
X68814260Y-59046354D01*
X69018768Y-58841846D01*
X69078366Y-58697963D01*
X69153041Y-58697963D01*
X69153041Y-58987181D01*
X69263720Y-59254385D01*
X69468228Y-59458893D01*
X69735432Y-59569572D01*
X70024650Y-59569572D01*
X70291854Y-59458893D01*
X70373455Y-59377292D01*
X70545193Y-59377292D01*
X70545193Y-59666510D01*
X70655872Y-59933714D01*
X70860380Y-60138222D01*
X71127584Y-60248901D01*
X71416802Y-60248901D01*
X71684006Y-60138222D01*
X71888514Y-59933714D01*
X71966241Y-59746063D01*
X127483672Y-59746063D01*
X127483672Y-60035281D01*
X127594351Y-60302485D01*
X127798859Y-60506993D01*
X128066063Y-60617672D01*
X128355281Y-60617672D01*
X128622485Y-60506993D01*
X128663000Y-60466478D01*
X128663000Y-60744609D01*
X128773679Y-61011813D01*
X128978187Y-61216321D01*
X129245391Y-61327000D01*
X129534609Y-61327000D01*
X129801813Y-61216321D01*
X130006321Y-61011813D01*
X130117000Y-60744609D01*
X130117000Y-60455391D01*
X130006321Y-60188187D01*
X129801813Y-59983679D01*
X129534609Y-59873000D01*
X129245391Y-59873000D01*
X128978187Y-59983679D01*
X128937672Y-60024194D01*
X128937672Y-59855381D01*
X129993000Y-59855381D01*
X129993000Y-60144599D01*
X130103679Y-60411803D01*
X130308187Y-60616311D01*
X130575391Y-60726990D01*
X130864609Y-60726990D01*
X131131813Y-60616311D01*
X131336321Y-60411803D01*
X131447000Y-60144599D01*
X131447000Y-59855381D01*
X131336321Y-59588177D01*
X131131813Y-59383669D01*
X130864609Y-59272990D01*
X130575391Y-59272990D01*
X130308187Y-59383669D01*
X130103679Y-59588177D01*
X129993000Y-59855381D01*
X128937672Y-59855381D01*
X128937672Y-59746063D01*
X128826993Y-59478859D01*
X128622485Y-59274351D01*
X128355281Y-59163672D01*
X128066063Y-59163672D01*
X127798859Y-59274351D01*
X127594351Y-59478859D01*
X127483672Y-59746063D01*
X71966241Y-59746063D01*
X71999193Y-59666510D01*
X71999193Y-59377292D01*
X71888514Y-59110088D01*
X71684006Y-58905580D01*
X71416802Y-58794901D01*
X71127584Y-58794901D01*
X70860380Y-58905580D01*
X70655872Y-59110088D01*
X70545193Y-59377292D01*
X70373455Y-59377292D01*
X70496362Y-59254385D01*
X70607041Y-58987181D01*
X70607041Y-58697963D01*
X70581123Y-58635391D01*
X92583001Y-58635391D01*
X92583001Y-58924609D01*
X92693680Y-59191813D01*
X92898188Y-59396321D01*
X93165392Y-59507000D01*
X93454610Y-59507000D01*
X93721814Y-59396321D01*
X93926322Y-59191813D01*
X94037001Y-58924609D01*
X94037001Y-58705391D01*
X98573000Y-58705391D01*
X98573000Y-58994609D01*
X98683679Y-59261813D01*
X98888187Y-59466321D01*
X99155391Y-59577000D01*
X99444609Y-59577000D01*
X99711813Y-59466321D01*
X99916321Y-59261813D01*
X100027000Y-58994609D01*
X100027000Y-58705391D01*
X99916321Y-58438187D01*
X99711813Y-58233679D01*
X99444609Y-58123000D01*
X99155391Y-58123000D01*
X98888187Y-58233679D01*
X98683679Y-58438187D01*
X98573000Y-58705391D01*
X94037001Y-58705391D01*
X94037001Y-58635391D01*
X93926322Y-58368187D01*
X93721814Y-58163679D01*
X93454610Y-58053000D01*
X93165392Y-58053000D01*
X92898188Y-58163679D01*
X92693680Y-58368187D01*
X92583001Y-58635391D01*
X70581123Y-58635391D01*
X70496362Y-58430759D01*
X70291854Y-58226251D01*
X70024650Y-58115572D01*
X69735432Y-58115572D01*
X69468228Y-58226251D01*
X69263720Y-58430759D01*
X69153041Y-58697963D01*
X69078366Y-58697963D01*
X69129447Y-58574642D01*
X69129447Y-58285424D01*
X69018768Y-58018220D01*
X68814260Y-57813712D01*
X68547056Y-57703033D01*
X68257838Y-57703033D01*
X67990634Y-57813712D01*
X67786126Y-58018220D01*
X67675447Y-58285424D01*
X54902000Y-58285424D01*
X54902000Y-56685401D01*
X67553000Y-56685401D01*
X67553000Y-56974619D01*
X67663679Y-57241823D01*
X67868187Y-57446331D01*
X68135391Y-57557010D01*
X68424609Y-57557010D01*
X68691813Y-57446331D01*
X68896321Y-57241823D01*
X68955919Y-57097940D01*
X69192925Y-57097940D01*
X69192925Y-57387158D01*
X69303604Y-57654362D01*
X69508112Y-57858870D01*
X69775316Y-57969549D01*
X70064534Y-57969549D01*
X70331738Y-57858870D01*
X70447940Y-57742668D01*
X70533733Y-57742668D01*
X70533733Y-58031886D01*
X70644412Y-58299090D01*
X70848920Y-58503598D01*
X71116124Y-58614277D01*
X71405342Y-58614277D01*
X71672546Y-58503598D01*
X71877054Y-58299090D01*
X71987733Y-58031886D01*
X71987733Y-57742668D01*
X71877054Y-57475464D01*
X71672546Y-57270956D01*
X71417689Y-57165391D01*
X74113000Y-57165391D01*
X74113000Y-57454609D01*
X74223679Y-57721813D01*
X74428187Y-57926321D01*
X74695391Y-58037000D01*
X74984609Y-58037000D01*
X75251813Y-57926321D01*
X75456321Y-57721813D01*
X75567000Y-57454609D01*
X75567000Y-57415424D01*
X89733223Y-57415424D01*
X89733223Y-57704642D01*
X89843902Y-57971846D01*
X90048410Y-58176354D01*
X90315614Y-58287033D01*
X90604832Y-58287033D01*
X90872036Y-58176354D01*
X91076544Y-57971846D01*
X91187223Y-57704642D01*
X91187223Y-57415424D01*
X91140525Y-57302683D01*
X94259095Y-57302683D01*
X94259095Y-57591901D01*
X94369774Y-57859105D01*
X94574282Y-58063613D01*
X94841486Y-58174292D01*
X95130704Y-58174292D01*
X95397908Y-58063613D01*
X95602416Y-57859105D01*
X95713095Y-57591901D01*
X95713095Y-57302683D01*
X95602416Y-57035479D01*
X95397908Y-56830971D01*
X95276678Y-56780756D01*
X95959647Y-56780756D01*
X95959647Y-57069974D01*
X96070326Y-57337178D01*
X96274834Y-57541686D01*
X96542038Y-57652365D01*
X96831256Y-57652365D01*
X97098460Y-57541686D01*
X97164755Y-57475391D01*
X97303000Y-57475391D01*
X97303000Y-57764609D01*
X97413679Y-58031813D01*
X97618187Y-58236321D01*
X97885391Y-58347000D01*
X98174609Y-58347000D01*
X98441813Y-58236321D01*
X98646321Y-58031813D01*
X98757000Y-57764609D01*
X98757000Y-57475391D01*
X98646321Y-57208187D01*
X98441813Y-57003679D01*
X98174609Y-56893000D01*
X97885391Y-56893000D01*
X97618187Y-57003679D01*
X97413679Y-57208187D01*
X97303000Y-57475391D01*
X97164755Y-57475391D01*
X97302968Y-57337178D01*
X97413647Y-57069974D01*
X97413647Y-56780756D01*
X97302968Y-56513552D01*
X97098460Y-56309044D01*
X96831256Y-56198365D01*
X96542038Y-56198365D01*
X96274834Y-56309044D01*
X96070326Y-56513552D01*
X95959647Y-56780756D01*
X95276678Y-56780756D01*
X95130704Y-56720292D01*
X94841486Y-56720292D01*
X94574282Y-56830971D01*
X94369774Y-57035479D01*
X94259095Y-57302683D01*
X91140525Y-57302683D01*
X91076544Y-57148220D01*
X90872036Y-56943712D01*
X90604832Y-56833033D01*
X90315614Y-56833033D01*
X90048410Y-56943712D01*
X89843902Y-57148220D01*
X89733223Y-57415424D01*
X75567000Y-57415424D01*
X75567000Y-57165391D01*
X75456321Y-56898187D01*
X75251813Y-56693679D01*
X74984609Y-56583000D01*
X74695391Y-56583000D01*
X74428187Y-56693679D01*
X74223679Y-56898187D01*
X74113000Y-57165391D01*
X71417689Y-57165391D01*
X71405342Y-57160277D01*
X71116124Y-57160277D01*
X70848920Y-57270956D01*
X70644412Y-57475464D01*
X70533733Y-57742668D01*
X70447940Y-57742668D01*
X70536246Y-57654362D01*
X70646925Y-57387158D01*
X70646925Y-57097940D01*
X70536246Y-56830736D01*
X70331738Y-56626228D01*
X70064534Y-56515549D01*
X69775316Y-56515549D01*
X69508112Y-56626228D01*
X69303604Y-56830736D01*
X69192925Y-57097940D01*
X68955919Y-57097940D01*
X69007000Y-56974619D01*
X69007000Y-56685401D01*
X68896321Y-56418197D01*
X68793515Y-56315391D01*
X91573000Y-56315391D01*
X91573000Y-56604609D01*
X91683679Y-56871813D01*
X91888187Y-57076321D01*
X92155391Y-57187000D01*
X92444609Y-57187000D01*
X92711813Y-57076321D01*
X92916321Y-56871813D01*
X93027000Y-56604609D01*
X93027000Y-56315391D01*
X92916321Y-56048187D01*
X92711813Y-55843679D01*
X92444609Y-55733000D01*
X92155391Y-55733000D01*
X91888187Y-55843679D01*
X91683679Y-56048187D01*
X91573000Y-56315391D01*
X68793515Y-56315391D01*
X68691813Y-56213689D01*
X68424609Y-56103010D01*
X68135391Y-56103010D01*
X67868187Y-56213689D01*
X67663679Y-56418197D01*
X67553000Y-56685401D01*
X54902000Y-56685401D01*
X54902000Y-53295391D01*
X67043000Y-53295391D01*
X67043000Y-53584609D01*
X67153679Y-53851813D01*
X67358187Y-54056321D01*
X67625391Y-54167000D01*
X67914609Y-54167000D01*
X68181813Y-54056321D01*
X68212743Y-54025391D01*
X68803000Y-54025391D01*
X68803000Y-54314609D01*
X68913679Y-54581813D01*
X69118187Y-54786321D01*
X69385391Y-54897000D01*
X69674609Y-54897000D01*
X69941813Y-54786321D01*
X70146321Y-54581813D01*
X70159009Y-54551181D01*
X71313000Y-54551181D01*
X71313000Y-54840399D01*
X71423679Y-55107603D01*
X71628187Y-55312111D01*
X71895391Y-55422790D01*
X72184609Y-55422790D01*
X72451813Y-55312111D01*
X72608533Y-55155391D01*
X74163000Y-55155391D01*
X74163000Y-55444609D01*
X74273679Y-55711813D01*
X74478187Y-55916321D01*
X74745391Y-56027000D01*
X75034609Y-56027000D01*
X75301813Y-55916321D01*
X75506321Y-55711813D01*
X75617000Y-55444609D01*
X75617000Y-55159390D01*
X86272983Y-55159390D01*
X86272983Y-55448608D01*
X86383662Y-55715812D01*
X86588170Y-55920320D01*
X86855374Y-56030999D01*
X87144592Y-56030999D01*
X87411796Y-55920320D01*
X87616304Y-55715812D01*
X87616474Y-55715401D01*
X110687426Y-55715401D01*
X110687426Y-56004619D01*
X110798105Y-56271823D01*
X111002613Y-56476331D01*
X111269817Y-56587010D01*
X111559035Y-56587010D01*
X111826239Y-56476331D01*
X111849039Y-56453531D01*
X111753000Y-56685391D01*
X111753000Y-56974609D01*
X111863679Y-57241813D01*
X112068187Y-57446321D01*
X112335391Y-57557000D01*
X112624609Y-57557000D01*
X112891813Y-57446321D01*
X112962743Y-57375391D01*
X113213000Y-57375391D01*
X113213000Y-57664609D01*
X113323679Y-57931813D01*
X113528187Y-58136321D01*
X113795391Y-58247000D01*
X114084609Y-58247000D01*
X114351813Y-58136321D01*
X114452743Y-58035391D01*
X114623000Y-58035391D01*
X114623000Y-58324609D01*
X114733679Y-58591813D01*
X114938187Y-58796321D01*
X115205391Y-58907000D01*
X115494609Y-58907000D01*
X115761813Y-58796321D01*
X115893000Y-58665134D01*
X115893000Y-58914609D01*
X116003679Y-59181813D01*
X116208187Y-59386321D01*
X116475391Y-59497000D01*
X116764609Y-59497000D01*
X117031813Y-59386321D01*
X117236321Y-59181813D01*
X117347000Y-58914609D01*
X117347000Y-58625391D01*
X117236321Y-58358187D01*
X117031813Y-58153679D01*
X116764609Y-58043000D01*
X116475391Y-58043000D01*
X116208187Y-58153679D01*
X116077000Y-58284866D01*
X116077000Y-58035391D01*
X116065455Y-58007518D01*
X127525117Y-58007518D01*
X127525117Y-58296736D01*
X127635796Y-58563940D01*
X127840304Y-58768448D01*
X128107508Y-58879127D01*
X128396726Y-58879127D01*
X128643000Y-58777117D01*
X128643000Y-59044619D01*
X128753679Y-59311823D01*
X128958187Y-59516331D01*
X129225391Y-59627010D01*
X129514609Y-59627010D01*
X129781813Y-59516331D01*
X129986321Y-59311823D01*
X130097000Y-59044619D01*
X130097000Y-58805124D01*
X130258187Y-58966311D01*
X130525391Y-59076990D01*
X130814609Y-59076990D01*
X131081813Y-58966311D01*
X131286321Y-58761803D01*
X131397000Y-58494599D01*
X131397000Y-58205381D01*
X131286321Y-57938177D01*
X131081813Y-57733669D01*
X130893489Y-57655663D01*
X133345625Y-57655663D01*
X133345625Y-57944881D01*
X133456304Y-58212085D01*
X133660812Y-58416593D01*
X133928016Y-58527272D01*
X134217234Y-58527272D01*
X134484438Y-58416593D01*
X134688946Y-58212085D01*
X134799625Y-57944881D01*
X134799625Y-57895402D01*
X138833544Y-57895402D01*
X138833544Y-58184620D01*
X138944223Y-58451824D01*
X139148731Y-58656332D01*
X139415935Y-58767011D01*
X139705153Y-58767011D01*
X139972357Y-58656332D01*
X140176865Y-58451824D01*
X140287544Y-58184620D01*
X140287544Y-57895402D01*
X140176865Y-57628198D01*
X139972357Y-57423690D01*
X139855444Y-57375263D01*
X145763000Y-57375263D01*
X145763000Y-57664481D01*
X145873679Y-57931685D01*
X146078187Y-58136193D01*
X146345391Y-58246872D01*
X146634609Y-58246872D01*
X146901813Y-58136193D01*
X147106321Y-57931685D01*
X147217000Y-57664481D01*
X147217000Y-57375263D01*
X147106321Y-57108059D01*
X146901813Y-56903551D01*
X146634609Y-56792872D01*
X146345391Y-56792872D01*
X146078187Y-56903551D01*
X145873679Y-57108059D01*
X145763000Y-57375263D01*
X139855444Y-57375263D01*
X139705153Y-57313011D01*
X139415935Y-57313011D01*
X139148731Y-57423690D01*
X138944223Y-57628198D01*
X138833544Y-57895402D01*
X134799625Y-57895402D01*
X134799625Y-57655663D01*
X134688946Y-57388459D01*
X134484438Y-57183951D01*
X134217234Y-57073272D01*
X133928016Y-57073272D01*
X133660812Y-57183951D01*
X133456304Y-57388459D01*
X133345625Y-57655663D01*
X130893489Y-57655663D01*
X130814609Y-57622990D01*
X130525391Y-57622990D01*
X130258187Y-57733669D01*
X130053679Y-57938177D01*
X129943000Y-58205381D01*
X129943000Y-58444876D01*
X129781813Y-58283689D01*
X129514609Y-58173010D01*
X129225391Y-58173010D01*
X128979117Y-58275020D01*
X128979117Y-58007518D01*
X128868438Y-57740314D01*
X128663930Y-57535806D01*
X128396726Y-57425127D01*
X128107508Y-57425127D01*
X127840304Y-57535806D01*
X127635796Y-57740314D01*
X127525117Y-58007518D01*
X116065455Y-58007518D01*
X115966321Y-57768187D01*
X115761813Y-57563679D01*
X115494609Y-57453000D01*
X115205391Y-57453000D01*
X114938187Y-57563679D01*
X114733679Y-57768187D01*
X114623000Y-58035391D01*
X114452743Y-58035391D01*
X114556321Y-57931813D01*
X114667000Y-57664609D01*
X114667000Y-57375391D01*
X114556321Y-57108187D01*
X114351813Y-56903679D01*
X114084609Y-56793000D01*
X113795391Y-56793000D01*
X113528187Y-56903679D01*
X113323679Y-57108187D01*
X113213000Y-57375391D01*
X112962743Y-57375391D01*
X113096321Y-57241813D01*
X113207000Y-56974609D01*
X113207000Y-56685391D01*
X113096321Y-56418187D01*
X113083525Y-56405391D01*
X124783000Y-56405391D01*
X124783000Y-56694609D01*
X124893679Y-56961813D01*
X125098187Y-57166321D01*
X125365391Y-57277000D01*
X125654609Y-57277000D01*
X125921813Y-57166321D01*
X126126321Y-56961813D01*
X126149691Y-56905391D01*
X128643000Y-56905391D01*
X128643000Y-57194609D01*
X128753679Y-57461813D01*
X128958187Y-57666321D01*
X129225391Y-57777000D01*
X129514609Y-57777000D01*
X129781813Y-57666321D01*
X129986321Y-57461813D01*
X130097000Y-57194609D01*
X130097000Y-57025144D01*
X130238187Y-57166331D01*
X130505391Y-57277010D01*
X130794609Y-57277010D01*
X131061813Y-57166331D01*
X131266321Y-56961823D01*
X131377000Y-56694619D01*
X131377000Y-56405401D01*
X131266321Y-56138197D01*
X131061813Y-55933689D01*
X130794609Y-55823010D01*
X130505391Y-55823010D01*
X130238187Y-55933689D01*
X130033679Y-56138197D01*
X129923000Y-56405401D01*
X129923000Y-56574866D01*
X129781813Y-56433679D01*
X129514609Y-56323000D01*
X129225391Y-56323000D01*
X128958187Y-56433679D01*
X128753679Y-56638187D01*
X128643000Y-56905391D01*
X126149691Y-56905391D01*
X126237000Y-56694609D01*
X126237000Y-56405391D01*
X126126321Y-56138187D01*
X125921813Y-55933679D01*
X125654609Y-55823000D01*
X125365391Y-55823000D01*
X125098187Y-55933679D01*
X124893679Y-56138187D01*
X124783000Y-56405391D01*
X113083525Y-56405391D01*
X112891813Y-56213679D01*
X112624609Y-56103000D01*
X112335391Y-56103000D01*
X112068187Y-56213679D01*
X112045387Y-56236479D01*
X112141426Y-56004619D01*
X112141426Y-55715401D01*
X112062722Y-55525391D01*
X120583000Y-55525391D01*
X120583000Y-55814609D01*
X120693679Y-56081813D01*
X120898187Y-56286321D01*
X121165391Y-56397000D01*
X121454609Y-56397000D01*
X121721813Y-56286321D01*
X121926321Y-56081813D01*
X122037000Y-55814609D01*
X122037000Y-55698727D01*
X133516114Y-55698727D01*
X133516114Y-55987945D01*
X133626793Y-56255149D01*
X133831301Y-56459657D01*
X134098505Y-56570336D01*
X134387723Y-56570336D01*
X134654927Y-56459657D01*
X134859435Y-56255149D01*
X134915764Y-56119158D01*
X137623000Y-56119158D01*
X137623000Y-56408376D01*
X137733679Y-56675580D01*
X137938187Y-56880088D01*
X138205391Y-56990767D01*
X138494609Y-56990767D01*
X138761813Y-56880088D01*
X138966321Y-56675580D01*
X139077000Y-56408376D01*
X139077000Y-56119158D01*
X138966321Y-55851954D01*
X138819748Y-55705381D01*
X142783000Y-55705381D01*
X142783000Y-55994599D01*
X142893679Y-56261803D01*
X143098187Y-56466311D01*
X143365391Y-56576990D01*
X143654609Y-56576990D01*
X143921813Y-56466311D01*
X144126321Y-56261803D01*
X144237000Y-55994599D01*
X144237000Y-55705381D01*
X144126321Y-55438177D01*
X144023540Y-55335396D01*
X145513846Y-55335396D01*
X145513846Y-55624614D01*
X145624525Y-55891818D01*
X145829033Y-56096326D01*
X146096237Y-56207005D01*
X146385455Y-56207005D01*
X146652659Y-56096326D01*
X146857167Y-55891818D01*
X146967846Y-55624614D01*
X146967846Y-55335396D01*
X146857167Y-55068192D01*
X146652659Y-54863684D01*
X146385455Y-54753005D01*
X146096237Y-54753005D01*
X145829033Y-54863684D01*
X145624525Y-55068192D01*
X145513846Y-55335396D01*
X144023540Y-55335396D01*
X143921813Y-55233669D01*
X143654609Y-55122990D01*
X143365391Y-55122990D01*
X143098187Y-55233669D01*
X142893679Y-55438177D01*
X142783000Y-55705381D01*
X138819748Y-55705381D01*
X138761813Y-55647446D01*
X138494609Y-55536767D01*
X138205391Y-55536767D01*
X137938187Y-55647446D01*
X137733679Y-55851954D01*
X137623000Y-56119158D01*
X134915764Y-56119158D01*
X134970114Y-55987945D01*
X134970114Y-55698727D01*
X134859435Y-55431523D01*
X134654927Y-55227015D01*
X134387723Y-55116336D01*
X134098505Y-55116336D01*
X133831301Y-55227015D01*
X133626793Y-55431523D01*
X133516114Y-55698727D01*
X122037000Y-55698727D01*
X122037000Y-55525391D01*
X121926321Y-55258187D01*
X121721813Y-55053679D01*
X121454609Y-54943000D01*
X121165391Y-54943000D01*
X120898187Y-55053679D01*
X120693679Y-55258187D01*
X120583000Y-55525391D01*
X112062722Y-55525391D01*
X112030747Y-55448197D01*
X111826239Y-55243689D01*
X111559035Y-55133010D01*
X111269817Y-55133010D01*
X111002613Y-55243689D01*
X110798105Y-55448197D01*
X110687426Y-55715401D01*
X87616474Y-55715401D01*
X87726983Y-55448608D01*
X87726983Y-55159390D01*
X87616304Y-54892186D01*
X87411796Y-54687678D01*
X87144592Y-54576999D01*
X86855374Y-54576999D01*
X86588170Y-54687678D01*
X86383662Y-54892186D01*
X86272983Y-55159390D01*
X75617000Y-55159390D01*
X75617000Y-55155391D01*
X75506321Y-54888187D01*
X75301813Y-54683679D01*
X75034609Y-54573000D01*
X74745391Y-54573000D01*
X74478187Y-54683679D01*
X74273679Y-54888187D01*
X74163000Y-55155391D01*
X72608533Y-55155391D01*
X72656321Y-55107603D01*
X72767000Y-54840399D01*
X72767000Y-54551181D01*
X72656321Y-54283977D01*
X72451813Y-54079469D01*
X72184609Y-53968790D01*
X71895391Y-53968790D01*
X71628187Y-54079469D01*
X71423679Y-54283977D01*
X71313000Y-54551181D01*
X70159009Y-54551181D01*
X70257000Y-54314609D01*
X70257000Y-54025391D01*
X70146321Y-53758187D01*
X69941813Y-53553679D01*
X69674609Y-53443000D01*
X69385391Y-53443000D01*
X69118187Y-53553679D01*
X68913679Y-53758187D01*
X68803000Y-54025391D01*
X68212743Y-54025391D01*
X68386321Y-53851813D01*
X68497000Y-53584609D01*
X68497000Y-53295391D01*
X68393443Y-53045381D01*
X71004549Y-53045381D01*
X71004549Y-53334599D01*
X71115228Y-53601803D01*
X71319736Y-53806311D01*
X71586940Y-53916990D01*
X71876158Y-53916990D01*
X72143362Y-53806311D01*
X72347870Y-53601803D01*
X72366744Y-53556236D01*
X74187302Y-53556236D01*
X74187302Y-53845454D01*
X74297981Y-54112658D01*
X74502489Y-54317166D01*
X74769693Y-54427845D01*
X75058911Y-54427845D01*
X75326115Y-54317166D01*
X75530623Y-54112658D01*
X75641302Y-53845454D01*
X75641302Y-53565963D01*
X86417341Y-53565963D01*
X86417341Y-53855181D01*
X86528020Y-54122385D01*
X86732528Y-54326893D01*
X86999732Y-54437572D01*
X87288950Y-54437572D01*
X87556154Y-54326893D01*
X87758374Y-54124673D01*
X91643341Y-54124673D01*
X91643341Y-54413891D01*
X91754020Y-54681095D01*
X91958528Y-54885603D01*
X92225732Y-54996282D01*
X92514950Y-54996282D01*
X92782154Y-54885603D01*
X92986662Y-54681095D01*
X93034587Y-54565391D01*
X106133000Y-54565391D01*
X106133000Y-54854609D01*
X106243679Y-55121813D01*
X106448187Y-55326321D01*
X106715391Y-55437000D01*
X107004609Y-55437000D01*
X107271813Y-55326321D01*
X107476321Y-55121813D01*
X107587000Y-54854609D01*
X107587000Y-54565391D01*
X107476321Y-54298187D01*
X107403525Y-54225391D01*
X107703000Y-54225391D01*
X107703000Y-54514609D01*
X107813679Y-54781813D01*
X108018187Y-54986321D01*
X108285391Y-55097000D01*
X108574609Y-55097000D01*
X108841813Y-54986321D01*
X109046321Y-54781813D01*
X109157000Y-54514609D01*
X109157000Y-54225391D01*
X109046321Y-53958187D01*
X108841813Y-53753679D01*
X108749300Y-53715359D01*
X109333000Y-53715359D01*
X109333000Y-54004577D01*
X109443679Y-54271781D01*
X109648187Y-54476289D01*
X109915391Y-54586968D01*
X110204609Y-54586968D01*
X110471813Y-54476289D01*
X110676321Y-54271781D01*
X110787000Y-54004577D01*
X110787000Y-53785391D01*
X127993000Y-53785391D01*
X127993000Y-54074609D01*
X128103679Y-54341813D01*
X128308187Y-54546321D01*
X128575391Y-54657000D01*
X128864609Y-54657000D01*
X129131813Y-54546321D01*
X129336321Y-54341813D01*
X129338981Y-54335391D01*
X130533000Y-54335391D01*
X130533000Y-54624609D01*
X130643679Y-54891813D01*
X130848187Y-55096321D01*
X131115391Y-55207000D01*
X131404609Y-55207000D01*
X131671813Y-55096321D01*
X131876321Y-54891813D01*
X131987000Y-54624609D01*
X131987000Y-54335391D01*
X131888989Y-54098769D01*
X133526568Y-54098769D01*
X133526568Y-54387987D01*
X133637247Y-54655191D01*
X133841755Y-54859699D01*
X134108959Y-54970378D01*
X134398177Y-54970378D01*
X134665381Y-54859699D01*
X134869889Y-54655191D01*
X134980568Y-54387987D01*
X134980568Y-54098769D01*
X134869889Y-53831565D01*
X134743715Y-53705391D01*
X145593000Y-53705391D01*
X145593000Y-53994609D01*
X145703679Y-54261813D01*
X145908187Y-54466321D01*
X146175391Y-54577000D01*
X146464609Y-54577000D01*
X146661604Y-54495402D01*
X151563000Y-54495402D01*
X151563000Y-54784620D01*
X151673679Y-55051824D01*
X151878187Y-55256332D01*
X152145391Y-55367011D01*
X152434609Y-55367011D01*
X152701813Y-55256332D01*
X152906321Y-55051824D01*
X153017000Y-54784620D01*
X153017000Y-54495402D01*
X152906321Y-54228198D01*
X152701813Y-54023690D01*
X152434609Y-53913011D01*
X152145391Y-53913011D01*
X151878187Y-54023690D01*
X151673679Y-54228198D01*
X151563000Y-54495402D01*
X146661604Y-54495402D01*
X146731813Y-54466321D01*
X146936321Y-54261813D01*
X147047000Y-53994609D01*
X147047000Y-53705391D01*
X146936321Y-53438187D01*
X146731813Y-53233679D01*
X146639378Y-53195391D01*
X150783000Y-53195391D01*
X150783000Y-53484609D01*
X150893679Y-53751813D01*
X151098187Y-53956321D01*
X151365391Y-54067000D01*
X151654609Y-54067000D01*
X151921813Y-53956321D01*
X152122015Y-53756119D01*
X153232272Y-53756119D01*
X153232272Y-54045337D01*
X153342951Y-54312541D01*
X153547459Y-54517049D01*
X153814663Y-54627728D01*
X154103881Y-54627728D01*
X154371085Y-54517049D01*
X154575593Y-54312541D01*
X154686272Y-54045337D01*
X154686272Y-53756119D01*
X154575593Y-53488915D01*
X154371085Y-53284407D01*
X154103881Y-53173728D01*
X153814663Y-53173728D01*
X153547459Y-53284407D01*
X153342951Y-53488915D01*
X153232272Y-53756119D01*
X152122015Y-53756119D01*
X152126321Y-53751813D01*
X152237000Y-53484609D01*
X152237000Y-53195391D01*
X152126321Y-52928187D01*
X151921813Y-52723679D01*
X151654609Y-52613000D01*
X151365391Y-52613000D01*
X151098187Y-52723679D01*
X150893679Y-52928187D01*
X150783000Y-53195391D01*
X146639378Y-53195391D01*
X146464609Y-53123000D01*
X146175391Y-53123000D01*
X145908187Y-53233679D01*
X145703679Y-53438187D01*
X145593000Y-53705391D01*
X134743715Y-53705391D01*
X134665381Y-53627057D01*
X134398177Y-53516378D01*
X134108959Y-53516378D01*
X133841755Y-53627057D01*
X133637247Y-53831565D01*
X133526568Y-54098769D01*
X131888989Y-54098769D01*
X131876321Y-54068187D01*
X131671813Y-53863679D01*
X131404609Y-53753000D01*
X131115391Y-53753000D01*
X130848187Y-53863679D01*
X130643679Y-54068187D01*
X130533000Y-54335391D01*
X129338981Y-54335391D01*
X129447000Y-54074609D01*
X129447000Y-53785391D01*
X129336321Y-53518187D01*
X129131813Y-53313679D01*
X128864609Y-53203000D01*
X128575391Y-53203000D01*
X128308187Y-53313679D01*
X128103679Y-53518187D01*
X127993000Y-53785391D01*
X110787000Y-53785391D01*
X110787000Y-53715359D01*
X110676321Y-53448155D01*
X110471813Y-53243647D01*
X110204609Y-53132968D01*
X109915391Y-53132968D01*
X109648187Y-53243647D01*
X109443679Y-53448155D01*
X109333000Y-53715359D01*
X108749300Y-53715359D01*
X108574609Y-53643000D01*
X108285391Y-53643000D01*
X108018187Y-53753679D01*
X107813679Y-53958187D01*
X107703000Y-54225391D01*
X107403525Y-54225391D01*
X107271813Y-54093679D01*
X107004609Y-53983000D01*
X106715391Y-53983000D01*
X106448187Y-54093679D01*
X106243679Y-54298187D01*
X106133000Y-54565391D01*
X93034587Y-54565391D01*
X93097341Y-54413891D01*
X93097341Y-54124673D01*
X92986662Y-53857469D01*
X92782154Y-53652961D01*
X92514950Y-53542282D01*
X92225732Y-53542282D01*
X91958528Y-53652961D01*
X91754020Y-53857469D01*
X91643341Y-54124673D01*
X87758374Y-54124673D01*
X87760662Y-54122385D01*
X87871341Y-53855181D01*
X87871341Y-53565963D01*
X87854235Y-53524663D01*
X93443728Y-53524663D01*
X93443728Y-53813881D01*
X93554407Y-54081085D01*
X93758915Y-54285593D01*
X94026119Y-54396272D01*
X94315337Y-54396272D01*
X94582541Y-54285593D01*
X94787049Y-54081085D01*
X94897728Y-53813881D01*
X94897728Y-53524663D01*
X94787049Y-53257459D01*
X94582541Y-53052951D01*
X94315337Y-52942272D01*
X94026119Y-52942272D01*
X93758915Y-53052951D01*
X93554407Y-53257459D01*
X93443728Y-53524663D01*
X87854235Y-53524663D01*
X87760662Y-53298759D01*
X87556154Y-53094251D01*
X87288950Y-52983572D01*
X86999732Y-52983572D01*
X86732528Y-53094251D01*
X86528020Y-53298759D01*
X86417341Y-53565963D01*
X75641302Y-53565963D01*
X75641302Y-53556236D01*
X75530623Y-53289032D01*
X75326115Y-53084524D01*
X75058911Y-52973845D01*
X74769693Y-52973845D01*
X74502489Y-53084524D01*
X74297981Y-53289032D01*
X74187302Y-53556236D01*
X72366744Y-53556236D01*
X72458549Y-53334599D01*
X72458549Y-53045381D01*
X72347870Y-52778177D01*
X72195084Y-52625391D01*
X90913000Y-52625391D01*
X90913000Y-52914609D01*
X91023679Y-53181813D01*
X91228187Y-53386321D01*
X91495391Y-53497000D01*
X91784609Y-53497000D01*
X92051813Y-53386321D01*
X92256321Y-53181813D01*
X92366676Y-52915391D01*
X106623000Y-52915391D01*
X106623000Y-53204609D01*
X106733679Y-53471813D01*
X106938187Y-53676321D01*
X107205391Y-53787000D01*
X107494609Y-53787000D01*
X107761813Y-53676321D01*
X107966321Y-53471813D01*
X108077000Y-53204609D01*
X108077000Y-52915391D01*
X107966321Y-52648187D01*
X107761813Y-52443679D01*
X107717662Y-52425391D01*
X108263000Y-52425391D01*
X108263000Y-52714609D01*
X108373679Y-52981813D01*
X108578187Y-53186321D01*
X108845391Y-53297000D01*
X109134609Y-53297000D01*
X109401813Y-53186321D01*
X109606321Y-52981813D01*
X109717000Y-52714609D01*
X109717000Y-52639448D01*
X123121899Y-52639448D01*
X123121899Y-52928666D01*
X123232578Y-53195870D01*
X123437086Y-53400378D01*
X123704290Y-53511057D01*
X123993508Y-53511057D01*
X124260712Y-53400378D01*
X124465220Y-53195870D01*
X124575899Y-52928666D01*
X124575899Y-52639448D01*
X124465220Y-52372244D01*
X124260712Y-52167736D01*
X123993508Y-52057057D01*
X123704290Y-52057057D01*
X123437086Y-52167736D01*
X123232578Y-52372244D01*
X123121899Y-52639448D01*
X109717000Y-52639448D01*
X109717000Y-52425391D01*
X109606321Y-52158187D01*
X109401813Y-51953679D01*
X109134609Y-51843000D01*
X108845391Y-51843000D01*
X108578187Y-51953679D01*
X108373679Y-52158187D01*
X108263000Y-52425391D01*
X107717662Y-52425391D01*
X107494609Y-52333000D01*
X107205391Y-52333000D01*
X106938187Y-52443679D01*
X106733679Y-52648187D01*
X106623000Y-52915391D01*
X92366676Y-52915391D01*
X92367000Y-52914609D01*
X92367000Y-52625391D01*
X92256321Y-52358187D01*
X92051813Y-52153679D01*
X91784609Y-52043000D01*
X91495391Y-52043000D01*
X91228187Y-52153679D01*
X91023679Y-52358187D01*
X90913000Y-52625391D01*
X72195084Y-52625391D01*
X72143362Y-52573669D01*
X71876158Y-52462990D01*
X71586940Y-52462990D01*
X71319736Y-52573669D01*
X71115228Y-52778177D01*
X71004549Y-53045381D01*
X68393443Y-53045381D01*
X68386321Y-53028187D01*
X68181813Y-52823679D01*
X67914609Y-52713000D01*
X67625391Y-52713000D01*
X67358187Y-52823679D01*
X67153679Y-53028187D01*
X67043000Y-53295391D01*
X54902000Y-53295391D01*
X54902000Y-52045391D01*
X69673000Y-52045391D01*
X69673000Y-52334609D01*
X69783679Y-52601813D01*
X69988187Y-52806321D01*
X70255391Y-52917000D01*
X70544609Y-52917000D01*
X70811813Y-52806321D01*
X71016321Y-52601813D01*
X71127000Y-52334609D01*
X71127000Y-52045391D01*
X71016321Y-51778187D01*
X70811813Y-51573679D01*
X70544609Y-51463000D01*
X70255391Y-51463000D01*
X69988187Y-51573679D01*
X69783679Y-51778187D01*
X69673000Y-52045391D01*
X54902000Y-52045391D01*
X54902000Y-50605391D01*
X74143000Y-50605391D01*
X74143000Y-50894609D01*
X74253679Y-51161813D01*
X74458187Y-51366321D01*
X74725391Y-51477000D01*
X75014609Y-51477000D01*
X75023191Y-51473445D01*
X124321299Y-51473445D01*
X124321299Y-51762663D01*
X124431978Y-52029867D01*
X124636486Y-52234375D01*
X124903690Y-52345054D01*
X125192908Y-52345054D01*
X125460112Y-52234375D01*
X125664620Y-52029867D01*
X125775299Y-51762663D01*
X125775299Y-51473445D01*
X125664620Y-51206241D01*
X125460112Y-51001733D01*
X125192908Y-50891054D01*
X124903690Y-50891054D01*
X124636486Y-51001733D01*
X124431978Y-51206241D01*
X124321299Y-51473445D01*
X75023191Y-51473445D01*
X75281813Y-51366321D01*
X75486321Y-51161813D01*
X75597000Y-50894609D01*
X75597000Y-50605391D01*
X75486321Y-50338187D01*
X75283525Y-50135391D01*
X86593000Y-50135391D01*
X86593000Y-50424609D01*
X86703679Y-50691813D01*
X86908187Y-50896321D01*
X87175391Y-51007000D01*
X87464609Y-51007000D01*
X87731813Y-50896321D01*
X87832743Y-50795391D01*
X133263000Y-50795391D01*
X133263000Y-51084609D01*
X133373679Y-51351813D01*
X133578187Y-51556321D01*
X133845391Y-51667000D01*
X134134609Y-51667000D01*
X134401813Y-51556321D01*
X134606321Y-51351813D01*
X134717000Y-51084609D01*
X134717000Y-50795391D01*
X134606321Y-50528187D01*
X134401813Y-50323679D01*
X134309378Y-50285391D01*
X145853000Y-50285391D01*
X145853000Y-50574609D01*
X145963679Y-50841813D01*
X146168187Y-51046321D01*
X146435391Y-51157000D01*
X146724609Y-51157000D01*
X146991813Y-51046321D01*
X147196321Y-50841813D01*
X147307000Y-50574609D01*
X147307000Y-50285391D01*
X147196321Y-50018187D01*
X146991813Y-49813679D01*
X146724609Y-49703000D01*
X146435391Y-49703000D01*
X146168187Y-49813679D01*
X145963679Y-50018187D01*
X145853000Y-50285391D01*
X134309378Y-50285391D01*
X134134609Y-50213000D01*
X133845391Y-50213000D01*
X133578187Y-50323679D01*
X133373679Y-50528187D01*
X133263000Y-50795391D01*
X87832743Y-50795391D01*
X87936321Y-50691813D01*
X88047000Y-50424609D01*
X88047000Y-50135391D01*
X87936321Y-49868187D01*
X87731813Y-49663679D01*
X87464609Y-49553000D01*
X87175391Y-49553000D01*
X86908187Y-49663679D01*
X86703679Y-49868187D01*
X86593000Y-50135391D01*
X75283525Y-50135391D01*
X75281813Y-50133679D01*
X75014609Y-50023000D01*
X74725391Y-50023000D01*
X74458187Y-50133679D01*
X74253679Y-50338187D01*
X74143000Y-50605391D01*
X54902000Y-50605391D01*
X54902000Y-48835391D01*
X76393000Y-48835391D01*
X76393000Y-49124609D01*
X76503679Y-49391813D01*
X76708187Y-49596321D01*
X76975391Y-49707000D01*
X77264609Y-49707000D01*
X77531813Y-49596321D01*
X77736321Y-49391813D01*
X77847000Y-49124609D01*
X77847000Y-48895391D01*
X80603000Y-48895391D01*
X80603000Y-49184609D01*
X80713679Y-49451813D01*
X80918187Y-49656321D01*
X81185391Y-49767000D01*
X81474609Y-49767000D01*
X81741813Y-49656321D01*
X81946321Y-49451813D01*
X82057000Y-49184609D01*
X82057000Y-48935391D01*
X84383000Y-48935391D01*
X84383000Y-49224609D01*
X84493679Y-49491813D01*
X84698187Y-49696321D01*
X84965391Y-49807000D01*
X85254609Y-49807000D01*
X85521813Y-49696321D01*
X85726321Y-49491813D01*
X85837000Y-49224609D01*
X85837000Y-48935391D01*
X85726321Y-48668187D01*
X85713525Y-48655391D01*
X129293000Y-48655391D01*
X129293000Y-48944609D01*
X129403679Y-49211813D01*
X129608187Y-49416321D01*
X129875391Y-49527000D01*
X130164609Y-49527000D01*
X130431813Y-49416321D01*
X130636321Y-49211813D01*
X130725965Y-48995391D01*
X135573000Y-48995391D01*
X135573000Y-49284609D01*
X135683679Y-49551813D01*
X135888187Y-49756321D01*
X136155391Y-49867000D01*
X136444609Y-49867000D01*
X136711813Y-49756321D01*
X136916321Y-49551813D01*
X137027000Y-49284609D01*
X137027000Y-49064100D01*
X139649644Y-49064100D01*
X139649644Y-49353318D01*
X139760323Y-49620522D01*
X139964831Y-49825030D01*
X140232035Y-49935709D01*
X140521253Y-49935709D01*
X140788457Y-49825030D01*
X140992965Y-49620522D01*
X141103644Y-49353318D01*
X141103644Y-49064100D01*
X141075184Y-48995391D01*
X143633000Y-48995391D01*
X143633000Y-49284609D01*
X143743679Y-49551813D01*
X143948187Y-49756321D01*
X144215391Y-49867000D01*
X144504609Y-49867000D01*
X144771813Y-49756321D01*
X144976321Y-49551813D01*
X145087000Y-49284609D01*
X145087000Y-48995391D01*
X144976321Y-48728187D01*
X144771813Y-48523679D01*
X144504609Y-48413000D01*
X144215391Y-48413000D01*
X143948187Y-48523679D01*
X143743679Y-48728187D01*
X143633000Y-48995391D01*
X141075184Y-48995391D01*
X140992965Y-48796896D01*
X140788457Y-48592388D01*
X140521253Y-48481709D01*
X140232035Y-48481709D01*
X139964831Y-48592388D01*
X139760323Y-48796896D01*
X139649644Y-49064100D01*
X137027000Y-49064100D01*
X137027000Y-48995391D01*
X136916321Y-48728187D01*
X136711813Y-48523679D01*
X136444609Y-48413000D01*
X136155391Y-48413000D01*
X135888187Y-48523679D01*
X135683679Y-48728187D01*
X135573000Y-48995391D01*
X130725965Y-48995391D01*
X130747000Y-48944609D01*
X130747000Y-48655391D01*
X130663504Y-48453813D01*
X130794496Y-48584805D01*
X131061700Y-48695484D01*
X131350918Y-48695484D01*
X131618122Y-48584805D01*
X131822630Y-48380297D01*
X131933309Y-48113093D01*
X131933309Y-47823875D01*
X131822630Y-47556671D01*
X131811329Y-47545370D01*
X132181514Y-47545370D01*
X132181514Y-47834588D01*
X132292193Y-48101792D01*
X132496701Y-48306300D01*
X132763905Y-48416979D01*
X133053123Y-48416979D01*
X133320327Y-48306300D01*
X133524835Y-48101792D01*
X133635514Y-47834588D01*
X133635514Y-47545370D01*
X133524835Y-47278166D01*
X133320327Y-47073658D01*
X133053123Y-46962979D01*
X132763905Y-46962979D01*
X132496701Y-47073658D01*
X132292193Y-47278166D01*
X132181514Y-47545370D01*
X131811329Y-47545370D01*
X131618122Y-47352163D01*
X131350918Y-47241484D01*
X131061700Y-47241484D01*
X130794496Y-47352163D01*
X130589988Y-47556671D01*
X130479309Y-47823875D01*
X130479309Y-48113093D01*
X130562805Y-48314671D01*
X130431813Y-48183679D01*
X130164609Y-48073000D01*
X129875391Y-48073000D01*
X129608187Y-48183679D01*
X129403679Y-48388187D01*
X129293000Y-48655391D01*
X85713525Y-48655391D01*
X85521813Y-48463679D01*
X85254609Y-48353000D01*
X84965391Y-48353000D01*
X84698187Y-48463679D01*
X84493679Y-48668187D01*
X84383000Y-48935391D01*
X82057000Y-48935391D01*
X82057000Y-48895391D01*
X81946321Y-48628187D01*
X81741813Y-48423679D01*
X81474609Y-48313000D01*
X81185391Y-48313000D01*
X80918187Y-48423679D01*
X80713679Y-48628187D01*
X80603000Y-48895391D01*
X77847000Y-48895391D01*
X77847000Y-48835391D01*
X77736321Y-48568187D01*
X77531813Y-48363679D01*
X77264609Y-48253000D01*
X76975391Y-48253000D01*
X76708187Y-48363679D01*
X76503679Y-48568187D01*
X76393000Y-48835391D01*
X54902000Y-48835391D01*
X54902000Y-45413308D01*
X77523010Y-45413308D01*
X77523010Y-45702526D01*
X77633689Y-45969730D01*
X77838197Y-46174238D01*
X78105401Y-46284917D01*
X78394619Y-46284917D01*
X78661823Y-46174238D01*
X78866331Y-45969730D01*
X78903268Y-45880555D01*
X79203945Y-45880555D01*
X79203945Y-46169773D01*
X79314624Y-46436977D01*
X79519132Y-46641485D01*
X79786336Y-46752164D01*
X80075554Y-46752164D01*
X80342758Y-46641485D01*
X80547266Y-46436977D01*
X80657945Y-46169773D01*
X80657945Y-45880555D01*
X80547266Y-45613351D01*
X80342758Y-45408843D01*
X80075554Y-45298164D01*
X79786336Y-45298164D01*
X79519132Y-45408843D01*
X79314624Y-45613351D01*
X79203945Y-45880555D01*
X78903268Y-45880555D01*
X78977010Y-45702526D01*
X78977010Y-45413308D01*
X78866331Y-45146104D01*
X78835618Y-45115391D01*
X80583000Y-45115391D01*
X80583000Y-45404609D01*
X80693679Y-45671813D01*
X80898187Y-45876321D01*
X81165391Y-45987000D01*
X81454609Y-45987000D01*
X81721813Y-45876321D01*
X81722711Y-45875423D01*
X96073000Y-45875423D01*
X96073000Y-46164641D01*
X96183679Y-46431845D01*
X96388187Y-46636353D01*
X96655391Y-46747032D01*
X96944609Y-46747032D01*
X97150706Y-46661664D01*
X129339273Y-46661664D01*
X129339273Y-46950882D01*
X129449952Y-47218086D01*
X129654460Y-47422594D01*
X129921664Y-47533273D01*
X130210882Y-47533273D01*
X130478086Y-47422594D01*
X130682594Y-47218086D01*
X130793273Y-46950882D01*
X130793273Y-46661664D01*
X130682594Y-46394460D01*
X130503525Y-46215391D01*
X130733000Y-46215391D01*
X130733000Y-46504609D01*
X130843679Y-46771813D01*
X131048187Y-46976321D01*
X131315391Y-47087000D01*
X131604609Y-47087000D01*
X131871813Y-46976321D01*
X132076321Y-46771813D01*
X132187000Y-46504609D01*
X132187000Y-46215391D01*
X132076321Y-45948187D01*
X131871813Y-45743679D01*
X131604609Y-45633000D01*
X131315391Y-45633000D01*
X131048187Y-45743679D01*
X130843679Y-45948187D01*
X130733000Y-46215391D01*
X130503525Y-46215391D01*
X130478086Y-46189952D01*
X130210882Y-46079273D01*
X129921664Y-46079273D01*
X129654460Y-46189952D01*
X129449952Y-46394460D01*
X129339273Y-46661664D01*
X97150706Y-46661664D01*
X97211813Y-46636353D01*
X97416321Y-46431845D01*
X97527000Y-46164641D01*
X97527000Y-45875423D01*
X97416321Y-45608219D01*
X97293493Y-45485391D01*
X97583000Y-45485391D01*
X97583000Y-45774609D01*
X97693679Y-46041813D01*
X97898187Y-46246321D01*
X98165391Y-46357000D01*
X98454609Y-46357000D01*
X98721813Y-46246321D01*
X98926321Y-46041813D01*
X99037000Y-45774609D01*
X99037000Y-45485391D01*
X98926321Y-45218187D01*
X98721813Y-45013679D01*
X98454609Y-44903000D01*
X98165391Y-44903000D01*
X97898187Y-45013679D01*
X97693679Y-45218187D01*
X97583000Y-45485391D01*
X97293493Y-45485391D01*
X97211813Y-45403711D01*
X96944609Y-45293032D01*
X96655391Y-45293032D01*
X96388187Y-45403711D01*
X96183679Y-45608219D01*
X96073000Y-45875423D01*
X81722711Y-45875423D01*
X81926321Y-45671813D01*
X82037000Y-45404609D01*
X82037000Y-45115391D01*
X81926321Y-44848187D01*
X81721813Y-44643679D01*
X81454609Y-44533000D01*
X81165391Y-44533000D01*
X80898187Y-44643679D01*
X80693679Y-44848187D01*
X80583000Y-45115391D01*
X78835618Y-45115391D01*
X78661823Y-44941596D01*
X78394619Y-44830917D01*
X78105401Y-44830917D01*
X77838197Y-44941596D01*
X77633689Y-45146104D01*
X77523010Y-45413308D01*
X54902000Y-45413308D01*
X54902000Y-43007133D01*
X79622263Y-43112285D01*
X79622263Y-43112285D01*
G37*
X79622263Y-43112285D02*
X79498187Y-43163679D01*
X79293679Y-43368187D01*
X79183000Y-43635391D01*
X79183000Y-43924609D01*
X79293679Y-44191813D01*
X79498187Y-44396321D01*
X79765391Y-44507000D01*
X80054609Y-44507000D01*
X80299915Y-44405391D01*
X82223000Y-44405391D01*
X82223000Y-44694609D01*
X82333679Y-44961813D01*
X82538187Y-45166321D01*
X82805391Y-45277000D01*
X83094609Y-45277000D01*
X83361813Y-45166321D01*
X83566321Y-44961813D01*
X83602117Y-44875391D01*
X99463002Y-44875391D01*
X99463002Y-45164609D01*
X99573681Y-45431813D01*
X99778189Y-45636321D01*
X100045393Y-45747000D01*
X100334611Y-45747000D01*
X100601815Y-45636321D01*
X100806323Y-45431813D01*
X100917002Y-45164609D01*
X100917002Y-44875391D01*
X100806323Y-44608187D01*
X100663527Y-44465391D01*
X101373000Y-44465391D01*
X101373000Y-44754609D01*
X101483679Y-45021813D01*
X101688187Y-45226321D01*
X101955391Y-45337000D01*
X102244609Y-45337000D01*
X102511813Y-45226321D01*
X102716321Y-45021813D01*
X102827000Y-44754609D01*
X102827000Y-44465391D01*
X102716321Y-44198187D01*
X102511813Y-43993679D01*
X102244609Y-43883000D01*
X101955391Y-43883000D01*
X101688187Y-43993679D01*
X101483679Y-44198187D01*
X101373000Y-44465391D01*
X100663527Y-44465391D01*
X100601815Y-44403679D01*
X100334611Y-44293000D01*
X100045393Y-44293000D01*
X99778189Y-44403679D01*
X99573681Y-44608187D01*
X99463002Y-44875391D01*
X83602117Y-44875391D01*
X83677000Y-44694609D01*
X83677000Y-44405391D01*
X83566321Y-44138187D01*
X83361813Y-43933679D01*
X83094609Y-43823000D01*
X82805391Y-43823000D01*
X82538187Y-43933679D01*
X82333679Y-44138187D01*
X82223000Y-44405391D01*
X80299915Y-44405391D01*
X80321813Y-44396321D01*
X80526321Y-44191813D01*
X80637000Y-43924609D01*
X80637000Y-43635391D01*
X80526321Y-43368187D01*
X80321813Y-43163679D01*
X80203708Y-43114758D01*
X179298000Y-43536273D01*
X179298001Y-76748000D01*
X176002000Y-76748000D01*
X176002000Y-75000561D01*
X175995819Y-74969489D01*
X175952488Y-74626483D01*
X175943972Y-74598007D01*
X175941640Y-74568380D01*
X175913579Y-74486419D01*
X175721054Y-74050937D01*
X175699348Y-74017893D01*
X175683647Y-73981610D01*
X175630557Y-73913167D01*
X175630551Y-73913159D01*
X175630547Y-73913156D01*
X175307345Y-73563517D01*
X175276106Y-73539286D01*
X175249500Y-73510046D01*
X175177093Y-73462483D01*
X174758058Y-73236384D01*
X174720652Y-73223577D01*
X174686011Y-73204533D01*
X174602110Y-73182991D01*
X174602101Y-73182988D01*
X174602096Y-73182988D01*
X174132422Y-73104812D01*
X174102701Y-73104812D01*
X174073648Y-73098557D01*
X173987083Y-73101958D01*
X173626483Y-73147512D01*
X173598007Y-73156028D01*
X173568380Y-73158360D01*
X173486419Y-73186421D01*
X173050937Y-73378946D01*
X173017893Y-73400652D01*
X172981610Y-73416353D01*
X172913167Y-73469443D01*
X172913159Y-73469449D01*
X172913156Y-73469453D01*
X172563517Y-73792655D01*
X172539286Y-73823894D01*
X172510046Y-73850500D01*
X172462483Y-73922907D01*
X172236384Y-74341942D01*
X172223577Y-74379348D01*
X172204533Y-74413989D01*
X172182991Y-74497890D01*
X172182988Y-74497899D01*
X172182988Y-74497904D01*
X172106095Y-74959870D01*
X172098001Y-75000561D01*
X172098000Y-82598000D01*
X134902000Y-82598000D01*
X134902000Y-76035391D01*
X136213000Y-76035391D01*
X136213000Y-76324609D01*
X136323679Y-76591813D01*
X136528187Y-76796321D01*
X136795391Y-76907000D01*
X137084609Y-76907000D01*
X137351813Y-76796321D01*
X137556321Y-76591813D01*
X137667000Y-76324609D01*
X137667000Y-76035391D01*
X137654574Y-76005391D01*
X142233000Y-76005391D01*
X142233000Y-76294609D01*
X142343679Y-76561813D01*
X142548187Y-76766321D01*
X142815391Y-76877000D01*
X143104609Y-76877000D01*
X143371813Y-76766321D01*
X143576321Y-76561813D01*
X143687000Y-76294609D01*
X143687000Y-76025391D01*
X147243000Y-76025391D01*
X147243000Y-76314609D01*
X147353679Y-76581813D01*
X147558187Y-76786321D01*
X147825391Y-76897000D01*
X148114609Y-76897000D01*
X148381813Y-76786321D01*
X148586321Y-76581813D01*
X148697000Y-76314609D01*
X148697000Y-76025391D01*
X148680432Y-75985391D01*
X153243000Y-75985391D01*
X153243000Y-76274609D01*
X153353679Y-76541813D01*
X153558187Y-76746321D01*
X153825391Y-76857000D01*
X154114609Y-76857000D01*
X154381813Y-76746321D01*
X154586321Y-76541813D01*
X154697000Y-76274609D01*
X154697000Y-75985391D01*
X158243000Y-75985391D01*
X158243000Y-76274609D01*
X158353679Y-76541813D01*
X158558187Y-76746321D01*
X158825391Y-76857000D01*
X159114609Y-76857000D01*
X159381813Y-76746321D01*
X159586321Y-76541813D01*
X159697000Y-76274609D01*
X159697000Y-75985391D01*
X159680432Y-75945391D01*
X164223000Y-75945391D01*
X164223000Y-76234609D01*
X164333679Y-76501813D01*
X164538187Y-76706321D01*
X164805391Y-76817000D01*
X165094609Y-76817000D01*
X165361813Y-76706321D01*
X165566321Y-76501813D01*
X165677000Y-76234609D01*
X165677000Y-75945391D01*
X165566321Y-75678187D01*
X165361813Y-75473679D01*
X165094609Y-75363000D01*
X164805391Y-75363000D01*
X164538187Y-75473679D01*
X164333679Y-75678187D01*
X164223000Y-75945391D01*
X159680432Y-75945391D01*
X159586321Y-75718187D01*
X159381813Y-75513679D01*
X159114609Y-75403000D01*
X158825391Y-75403000D01*
X158558187Y-75513679D01*
X158353679Y-75718187D01*
X158243000Y-75985391D01*
X154697000Y-75985391D01*
X154586321Y-75718187D01*
X154381813Y-75513679D01*
X154114609Y-75403000D01*
X153825391Y-75403000D01*
X153558187Y-75513679D01*
X153353679Y-75718187D01*
X153243000Y-75985391D01*
X148680432Y-75985391D01*
X148586321Y-75758187D01*
X148381813Y-75553679D01*
X148114609Y-75443000D01*
X147825391Y-75443000D01*
X147558187Y-75553679D01*
X147353679Y-75758187D01*
X147243000Y-76025391D01*
X143687000Y-76025391D01*
X143687000Y-76005391D01*
X143576321Y-75738187D01*
X143371813Y-75533679D01*
X143104609Y-75423000D01*
X142815391Y-75423000D01*
X142548187Y-75533679D01*
X142343679Y-75738187D01*
X142233000Y-76005391D01*
X137654574Y-76005391D01*
X137556321Y-75768187D01*
X137351813Y-75563679D01*
X137084609Y-75453000D01*
X136795391Y-75453000D01*
X136528187Y-75563679D01*
X136323679Y-75768187D01*
X136213000Y-76035391D01*
X134902000Y-76035391D01*
X134902000Y-75000561D01*
X134880482Y-74892381D01*
X134820040Y-74588516D01*
X134820040Y-74588514D01*
X134782506Y-74497899D01*
X134745085Y-74407555D01*
X134745081Y-74407551D01*
X134539152Y-74099358D01*
X134539150Y-74099353D01*
X134469898Y-74030102D01*
X134400647Y-73960850D01*
X134400642Y-73960848D01*
X134092449Y-73754919D01*
X134092445Y-73754915D01*
X133973581Y-73705681D01*
X133911486Y-73679960D01*
X133911484Y-73679960D01*
X133547940Y-73607647D01*
X133547935Y-73607645D01*
X133450000Y-73607646D01*
X133352064Y-73607645D01*
X133352058Y-73607647D01*
X132988516Y-73679960D01*
X132988514Y-73679960D01*
X132926419Y-73705681D01*
X132807555Y-73754915D01*
X132807551Y-73754919D01*
X132499358Y-73960848D01*
X132499353Y-73960850D01*
X132430102Y-74030102D01*
X132360850Y-74099353D01*
X132360848Y-74099358D01*
X132154919Y-74407551D01*
X132154915Y-74407555D01*
X132117494Y-74497899D01*
X132079960Y-74588514D01*
X132079960Y-74588516D01*
X132007646Y-74952065D01*
X132007646Y-74952072D01*
X131998001Y-75000561D01*
X131998000Y-82598000D01*
X121802000Y-82598000D01*
X121802000Y-76075391D01*
X123233000Y-76075391D01*
X123233000Y-76364609D01*
X123343679Y-76631813D01*
X123548187Y-76836321D01*
X123815391Y-76947000D01*
X124104609Y-76947000D01*
X124371813Y-76836321D01*
X124576321Y-76631813D01*
X124687000Y-76364609D01*
X124687000Y-76075391D01*
X124666290Y-76025391D01*
X129213000Y-76025391D01*
X129213000Y-76314609D01*
X129323679Y-76581813D01*
X129528187Y-76786321D01*
X129795391Y-76897000D01*
X130084609Y-76897000D01*
X130351813Y-76786321D01*
X130556321Y-76581813D01*
X130667000Y-76314609D01*
X130667000Y-76025391D01*
X130556321Y-75758187D01*
X130351813Y-75553679D01*
X130084609Y-75443000D01*
X129795391Y-75443000D01*
X129528187Y-75553679D01*
X129323679Y-75758187D01*
X129213000Y-76025391D01*
X124666290Y-76025391D01*
X124576321Y-75808187D01*
X124371813Y-75603679D01*
X124104609Y-75493000D01*
X123815391Y-75493000D01*
X123548187Y-75603679D01*
X123343679Y-75808187D01*
X123233000Y-76075391D01*
X121802000Y-76075391D01*
X121802000Y-75000561D01*
X121795819Y-74969489D01*
X121752488Y-74626483D01*
X121743972Y-74598007D01*
X121741640Y-74568380D01*
X121713579Y-74486419D01*
X121521054Y-74050937D01*
X121499348Y-74017893D01*
X121483647Y-73981610D01*
X121430557Y-73913167D01*
X121430551Y-73913159D01*
X121430547Y-73913156D01*
X121107345Y-73563517D01*
X121076106Y-73539286D01*
X121049500Y-73510046D01*
X120977093Y-73462483D01*
X120558058Y-73236384D01*
X120520652Y-73223577D01*
X120486011Y-73204533D01*
X120402110Y-73182991D01*
X120402101Y-73182988D01*
X120402096Y-73182988D01*
X119940161Y-73106100D01*
X119899439Y-73098000D01*
X114000561Y-73098000D01*
X113969489Y-73104181D01*
X113626483Y-73147512D01*
X113598007Y-73156028D01*
X113568380Y-73158360D01*
X113486419Y-73186421D01*
X113050937Y-73378946D01*
X113017893Y-73400652D01*
X112981610Y-73416353D01*
X112913167Y-73469443D01*
X112913159Y-73469449D01*
X112913156Y-73469453D01*
X112563517Y-73792655D01*
X112539286Y-73823894D01*
X112510046Y-73850500D01*
X112462483Y-73922907D01*
X112236384Y-74341942D01*
X112223577Y-74379348D01*
X112204533Y-74413989D01*
X112182991Y-74497890D01*
X112182988Y-74497899D01*
X112182988Y-74497904D01*
X112106095Y-74959870D01*
X112098001Y-75000561D01*
X112098000Y-82598000D01*
X74902000Y-82598000D01*
X74902000Y-75885391D01*
X76193000Y-75885391D01*
X76193000Y-76174609D01*
X76303679Y-76441813D01*
X76508187Y-76646321D01*
X76775391Y-76757000D01*
X77064609Y-76757000D01*
X77331813Y-76646321D01*
X77536321Y-76441813D01*
X77647000Y-76174609D01*
X77647000Y-75915391D01*
X82243000Y-75915391D01*
X82243000Y-76204609D01*
X82353679Y-76471813D01*
X82558187Y-76676321D01*
X82825391Y-76787000D01*
X83114609Y-76787000D01*
X83381813Y-76676321D01*
X83586321Y-76471813D01*
X83697000Y-76204609D01*
X83697000Y-75915391D01*
X83634869Y-75765391D01*
X84503000Y-75765391D01*
X84503000Y-76054609D01*
X84613679Y-76321813D01*
X84818187Y-76526321D01*
X85085391Y-76637000D01*
X85374609Y-76637000D01*
X85641813Y-76526321D01*
X85846321Y-76321813D01*
X85957000Y-76054609D01*
X85957000Y-75955391D01*
X87213000Y-75955391D01*
X87213000Y-76244609D01*
X87323679Y-76511813D01*
X87528187Y-76716321D01*
X87795391Y-76827000D01*
X88084609Y-76827000D01*
X88351813Y-76716321D01*
X88556321Y-76511813D01*
X88667000Y-76244609D01*
X88667000Y-76005391D01*
X93283000Y-76005391D01*
X93283000Y-76294609D01*
X93393679Y-76561813D01*
X93598187Y-76766321D01*
X93865391Y-76877000D01*
X94154609Y-76877000D01*
X94421813Y-76766321D01*
X94626321Y-76561813D01*
X94737000Y-76294609D01*
X94737000Y-76025391D01*
X98193000Y-76025391D01*
X98193000Y-76314609D01*
X98303679Y-76581813D01*
X98508187Y-76786321D01*
X98775391Y-76897000D01*
X99064609Y-76897000D01*
X99331813Y-76786321D01*
X99536321Y-76581813D01*
X99647000Y-76314609D01*
X99647000Y-76095391D01*
X104213000Y-76095391D01*
X104213000Y-76384609D01*
X104323679Y-76651813D01*
X104528187Y-76856321D01*
X104795391Y-76967000D01*
X105084609Y-76967000D01*
X105351813Y-76856321D01*
X105556321Y-76651813D01*
X105667000Y-76384609D01*
X105667000Y-76095391D01*
X105556321Y-75828187D01*
X105351813Y-75623679D01*
X105084609Y-75513000D01*
X104795391Y-75513000D01*
X104528187Y-75623679D01*
X104323679Y-75828187D01*
X104213000Y-76095391D01*
X99647000Y-76095391D01*
X99647000Y-76025391D01*
X99536321Y-75758187D01*
X99331813Y-75553679D01*
X99064609Y-75443000D01*
X98775391Y-75443000D01*
X98508187Y-75553679D01*
X98303679Y-75758187D01*
X98193000Y-76025391D01*
X94737000Y-76025391D01*
X94737000Y-76005391D01*
X94626321Y-75738187D01*
X94421813Y-75533679D01*
X94154609Y-75423000D01*
X93865391Y-75423000D01*
X93598187Y-75533679D01*
X93393679Y-75738187D01*
X93283000Y-76005391D01*
X88667000Y-76005391D01*
X88667000Y-75955391D01*
X88556321Y-75688187D01*
X88351813Y-75483679D01*
X88084609Y-75373000D01*
X87795391Y-75373000D01*
X87528187Y-75483679D01*
X87323679Y-75688187D01*
X87213000Y-75955391D01*
X85957000Y-75955391D01*
X85957000Y-75765391D01*
X85846321Y-75498187D01*
X85641813Y-75293679D01*
X85374609Y-75183000D01*
X85085391Y-75183000D01*
X84818187Y-75293679D01*
X84613679Y-75498187D01*
X84503000Y-75765391D01*
X83634869Y-75765391D01*
X83586321Y-75648187D01*
X83381813Y-75443679D01*
X83114609Y-75333000D01*
X82825391Y-75333000D01*
X82558187Y-75443679D01*
X82353679Y-75648187D01*
X82243000Y-75915391D01*
X77647000Y-75915391D01*
X77647000Y-75885391D01*
X77536321Y-75618187D01*
X77331813Y-75413679D01*
X77064609Y-75303000D01*
X76775391Y-75303000D01*
X76508187Y-75413679D01*
X76303679Y-75618187D01*
X76193000Y-75885391D01*
X74902000Y-75885391D01*
X74902000Y-75000561D01*
X74880482Y-74892381D01*
X74851469Y-74746517D01*
X85666015Y-74746517D01*
X85666015Y-75035735D01*
X85776694Y-75302939D01*
X85981202Y-75507447D01*
X86248406Y-75618126D01*
X86537624Y-75618126D01*
X86804828Y-75507447D01*
X87009336Y-75302939D01*
X87120015Y-75035735D01*
X87120015Y-74746517D01*
X87009336Y-74479313D01*
X86804828Y-74274805D01*
X86537624Y-74164126D01*
X86248406Y-74164126D01*
X85981202Y-74274805D01*
X85776694Y-74479313D01*
X85666015Y-74746517D01*
X74851469Y-74746517D01*
X74820040Y-74588516D01*
X74820040Y-74588514D01*
X74782506Y-74497899D01*
X74745085Y-74407555D01*
X74745081Y-74407551D01*
X74539152Y-74099358D01*
X74539150Y-74099353D01*
X74469898Y-74030102D01*
X74400647Y-73960850D01*
X74400642Y-73960848D01*
X74092449Y-73754919D01*
X74092445Y-73754915D01*
X73973581Y-73705681D01*
X73911486Y-73679960D01*
X73911484Y-73679960D01*
X73547940Y-73607647D01*
X73547935Y-73607645D01*
X73450000Y-73607646D01*
X73352064Y-73607645D01*
X73352058Y-73607647D01*
X72988516Y-73679960D01*
X72988514Y-73679960D01*
X72926419Y-73705681D01*
X72807555Y-73754915D01*
X72807551Y-73754919D01*
X72499358Y-73960848D01*
X72499353Y-73960850D01*
X72430102Y-74030102D01*
X72360850Y-74099353D01*
X72360848Y-74099358D01*
X72154919Y-74407551D01*
X72154915Y-74407555D01*
X72117494Y-74497899D01*
X72079960Y-74588514D01*
X72079960Y-74588516D01*
X72007646Y-74952065D01*
X72007646Y-74952072D01*
X71998001Y-75000561D01*
X71998000Y-82598000D01*
X61802000Y-82598000D01*
X61802000Y-75985391D01*
X63213000Y-75985391D01*
X63213000Y-76274609D01*
X63323679Y-76541813D01*
X63528187Y-76746321D01*
X63795391Y-76857000D01*
X64084609Y-76857000D01*
X64351813Y-76746321D01*
X64556321Y-76541813D01*
X64667000Y-76274609D01*
X64667000Y-75985391D01*
X64642148Y-75925391D01*
X69243000Y-75925391D01*
X69243000Y-76214609D01*
X69353679Y-76481813D01*
X69558187Y-76686321D01*
X69825391Y-76797000D01*
X70114609Y-76797000D01*
X70381813Y-76686321D01*
X70586321Y-76481813D01*
X70697000Y-76214609D01*
X70697000Y-75925391D01*
X70586321Y-75658187D01*
X70381813Y-75453679D01*
X70114609Y-75343000D01*
X69825391Y-75343000D01*
X69558187Y-75453679D01*
X69353679Y-75658187D01*
X69243000Y-75925391D01*
X64642148Y-75925391D01*
X64556321Y-75718187D01*
X64351813Y-75513679D01*
X64084609Y-75403000D01*
X63795391Y-75403000D01*
X63528187Y-75513679D01*
X63323679Y-75718187D01*
X63213000Y-75985391D01*
X61802000Y-75985391D01*
X61802000Y-75000561D01*
X61795819Y-74969489D01*
X61752488Y-74626483D01*
X61743972Y-74598007D01*
X61741640Y-74568380D01*
X61713579Y-74486419D01*
X61521054Y-74050937D01*
X61499348Y-74017893D01*
X61483647Y-73981610D01*
X61430557Y-73913167D01*
X61430551Y-73913159D01*
X61430547Y-73913156D01*
X61107345Y-73563517D01*
X61076106Y-73539286D01*
X61070581Y-73533213D01*
X87010822Y-73533213D01*
X87010822Y-73822431D01*
X87121501Y-74089635D01*
X87326009Y-74294143D01*
X87593213Y-74404822D01*
X87882431Y-74404822D01*
X88149635Y-74294143D01*
X88354143Y-74089635D01*
X88464822Y-73822431D01*
X88464822Y-73533213D01*
X88354143Y-73266009D01*
X88149635Y-73061501D01*
X87882431Y-72950822D01*
X87593213Y-72950822D01*
X87326009Y-73061501D01*
X87121501Y-73266009D01*
X87010822Y-73533213D01*
X61070581Y-73533213D01*
X61049500Y-73510046D01*
X60977093Y-73462483D01*
X60558058Y-73236384D01*
X60520652Y-73223577D01*
X60486011Y-73204533D01*
X60402110Y-73182991D01*
X60402101Y-73182988D01*
X60402096Y-73182988D01*
X59932422Y-73104812D01*
X59902701Y-73104812D01*
X59873648Y-73098557D01*
X59787083Y-73101958D01*
X59426483Y-73147512D01*
X59398007Y-73156028D01*
X59368380Y-73158360D01*
X59286419Y-73186421D01*
X58850937Y-73378946D01*
X58817893Y-73400652D01*
X58781610Y-73416353D01*
X58713167Y-73469443D01*
X58713159Y-73469449D01*
X58713156Y-73469453D01*
X58363517Y-73792655D01*
X58339286Y-73823894D01*
X58310046Y-73850500D01*
X58262483Y-73922907D01*
X58036384Y-74341942D01*
X58023577Y-74379348D01*
X58004533Y-74413989D01*
X57982991Y-74497890D01*
X57982988Y-74497899D01*
X57982988Y-74497904D01*
X57906099Y-74959845D01*
X57898000Y-75000562D01*
X57898001Y-76798000D01*
X54902000Y-76798000D01*
X54902000Y-71835391D01*
X108703000Y-71835391D01*
X108703000Y-72124609D01*
X108813679Y-72391813D01*
X109018187Y-72596321D01*
X109285391Y-72707000D01*
X109574609Y-72707000D01*
X109841813Y-72596321D01*
X110046321Y-72391813D01*
X110157000Y-72124609D01*
X110157000Y-71835391D01*
X110046321Y-71568187D01*
X109841813Y-71363679D01*
X109574609Y-71253000D01*
X109285391Y-71253000D01*
X109018187Y-71363679D01*
X108813679Y-71568187D01*
X108703000Y-71835391D01*
X54902000Y-71835391D01*
X54902000Y-70275391D01*
X107842990Y-70275391D01*
X107842990Y-70564609D01*
X107953669Y-70831813D01*
X108158177Y-71036321D01*
X108425381Y-71147000D01*
X108714599Y-71147000D01*
X108981803Y-71036321D01*
X109186311Y-70831813D01*
X109296990Y-70564609D01*
X109296990Y-70275391D01*
X109186311Y-70008187D01*
X108981803Y-69803679D01*
X108714599Y-69693000D01*
X108425381Y-69693000D01*
X108158177Y-69803679D01*
X107953669Y-70008187D01*
X107842990Y-70275391D01*
X54902000Y-70275391D01*
X54902000Y-69265391D01*
X78283000Y-69265391D01*
X78283000Y-69554609D01*
X78393679Y-69821813D01*
X78598187Y-70026321D01*
X78865391Y-70137000D01*
X79154609Y-70137000D01*
X79421813Y-70026321D01*
X79626321Y-69821813D01*
X79737000Y-69554609D01*
X79737000Y-69399119D01*
X79783679Y-69511813D01*
X79988187Y-69716321D01*
X80255391Y-69827000D01*
X80544609Y-69827000D01*
X80811813Y-69716321D01*
X81016321Y-69511813D01*
X81120307Y-69260768D01*
X81217655Y-69495789D01*
X81422163Y-69700297D01*
X81689367Y-69810976D01*
X81978585Y-69810976D01*
X82245789Y-69700297D01*
X82450297Y-69495789D01*
X82560976Y-69228585D01*
X82560976Y-68939367D01*
X82534477Y-68875391D01*
X107293000Y-68875391D01*
X107293000Y-69164609D01*
X107403679Y-69431813D01*
X107608187Y-69636321D01*
X107875391Y-69747000D01*
X108164609Y-69747000D01*
X108431813Y-69636321D01*
X108636321Y-69431813D01*
X108747000Y-69164609D01*
X108747000Y-68875391D01*
X108636321Y-68608187D01*
X108610107Y-68581973D01*
X109363010Y-68581973D01*
X109363010Y-68871191D01*
X109473689Y-69138395D01*
X109678197Y-69342903D01*
X109945401Y-69453582D01*
X110184645Y-69453582D01*
X110098155Y-69489407D01*
X109893647Y-69693915D01*
X109782968Y-69961119D01*
X109782968Y-70250337D01*
X109893647Y-70517541D01*
X110098155Y-70722049D01*
X110365359Y-70832728D01*
X110654577Y-70832728D01*
X110921781Y-70722049D01*
X111126289Y-70517541D01*
X111236968Y-70250337D01*
X111236968Y-70215391D01*
X151553000Y-70215391D01*
X151553000Y-70504609D01*
X151663679Y-70771813D01*
X151868187Y-70976321D01*
X152135391Y-71087000D01*
X152424609Y-71087000D01*
X152691813Y-70976321D01*
X152896321Y-70771813D01*
X153007000Y-70504609D01*
X153007000Y-70265395D01*
X154113000Y-70265395D01*
X154113000Y-70554613D01*
X154223679Y-70821817D01*
X154428187Y-71026325D01*
X154695391Y-71137004D01*
X154984609Y-71137004D01*
X155251813Y-71026325D01*
X155456321Y-70821817D01*
X155567000Y-70554613D01*
X155567000Y-70265395D01*
X155456321Y-69998191D01*
X155251813Y-69793683D01*
X154984609Y-69683004D01*
X154695391Y-69683004D01*
X154428187Y-69793683D01*
X154223679Y-69998191D01*
X154113000Y-70265395D01*
X153007000Y-70265395D01*
X153007000Y-70215391D01*
X152896321Y-69948187D01*
X152691813Y-69743679D01*
X152424609Y-69633000D01*
X152135391Y-69633000D01*
X151868187Y-69743679D01*
X151663679Y-69948187D01*
X151553000Y-70215391D01*
X111236968Y-70215391D01*
X111236968Y-69961119D01*
X111126289Y-69693915D01*
X110921781Y-69489407D01*
X110654577Y-69378728D01*
X110415333Y-69378728D01*
X110501823Y-69342903D01*
X110706331Y-69138395D01*
X110817010Y-68871191D01*
X110817010Y-68581973D01*
X110706331Y-68314769D01*
X110501823Y-68110261D01*
X110234619Y-67999582D01*
X109945401Y-67999582D01*
X109678197Y-68110261D01*
X109473689Y-68314769D01*
X109363010Y-68581973D01*
X108610107Y-68581973D01*
X108431813Y-68403679D01*
X108164609Y-68293000D01*
X107875391Y-68293000D01*
X107608187Y-68403679D01*
X107403679Y-68608187D01*
X107293000Y-68875391D01*
X82534477Y-68875391D01*
X82450297Y-68672163D01*
X82245789Y-68467655D01*
X81978585Y-68356976D01*
X81689367Y-68356976D01*
X81422163Y-68467655D01*
X81217655Y-68672163D01*
X81113669Y-68923208D01*
X81016321Y-68688187D01*
X80811813Y-68483679D01*
X80544609Y-68373000D01*
X80255391Y-68373000D01*
X79988187Y-68483679D01*
X79783679Y-68688187D01*
X79673000Y-68955391D01*
X79673000Y-69110881D01*
X79626321Y-68998187D01*
X79421813Y-68793679D01*
X79154609Y-68683000D01*
X78865391Y-68683000D01*
X78598187Y-68793679D01*
X78393679Y-68998187D01*
X78283000Y-69265391D01*
X54902000Y-69265391D01*
X54902000Y-67155391D01*
X74053000Y-67155391D01*
X74053000Y-67444609D01*
X74163679Y-67711813D01*
X74368187Y-67916321D01*
X74635391Y-68027000D01*
X74924609Y-68027000D01*
X75191813Y-67916321D01*
X75396321Y-67711813D01*
X75507000Y-67444609D01*
X75507000Y-67155391D01*
X75396321Y-66888187D01*
X75191813Y-66683679D01*
X74924609Y-66573000D01*
X74635391Y-66573000D01*
X74368187Y-66683679D01*
X74163679Y-66888187D01*
X74053000Y-67155391D01*
X54902000Y-67155391D01*
X54902000Y-64335391D01*
X73263000Y-64335391D01*
X73263000Y-64624609D01*
X73373679Y-64891813D01*
X73578187Y-65096321D01*
X73845391Y-65207000D01*
X73951592Y-65207000D01*
X73718187Y-65303679D01*
X73513679Y-65508187D01*
X73403000Y-65775391D01*
X73403000Y-66064609D01*
X73513679Y-66331813D01*
X73718187Y-66536321D01*
X73985391Y-66647000D01*
X74274609Y-66647000D01*
X74541813Y-66536321D01*
X74746321Y-66331813D01*
X74857000Y-66064609D01*
X74857000Y-65945391D01*
X74993000Y-65945391D01*
X74993000Y-66234609D01*
X75103679Y-66501813D01*
X75308187Y-66706321D01*
X75575391Y-66817000D01*
X75864609Y-66817000D01*
X76127622Y-66708057D01*
X76127622Y-66834621D01*
X76238301Y-67101825D01*
X76442809Y-67306333D01*
X76710013Y-67417012D01*
X76865594Y-67417012D01*
X76777096Y-67453669D01*
X76572588Y-67658177D01*
X76461909Y-67925381D01*
X76461909Y-68214599D01*
X76572588Y-68481803D01*
X76777096Y-68686311D01*
X77044300Y-68796990D01*
X77333518Y-68796990D01*
X77600722Y-68686311D01*
X77805230Y-68481803D01*
X77915909Y-68214599D01*
X77915909Y-67925381D01*
X77805230Y-67658177D01*
X77600722Y-67453669D01*
X77333518Y-67342990D01*
X77177937Y-67342990D01*
X77266435Y-67306333D01*
X77470943Y-67101825D01*
X77581622Y-66834621D01*
X77581622Y-66545403D01*
X77478131Y-66295551D01*
X78682048Y-66295551D01*
X78682048Y-66584769D01*
X78792727Y-66851973D01*
X78997235Y-67056481D01*
X79059654Y-67082336D01*
X79008187Y-67103654D01*
X78803679Y-67308162D01*
X78693000Y-67575366D01*
X78693000Y-67864584D01*
X78803679Y-68131788D01*
X79008187Y-68336296D01*
X79275391Y-68446975D01*
X79564609Y-68446975D01*
X79831813Y-68336296D01*
X79994963Y-68173147D01*
X80083890Y-68262074D01*
X80351094Y-68372753D01*
X80640312Y-68372753D01*
X80907516Y-68262074D01*
X81112024Y-68057566D01*
X81222703Y-67790362D01*
X81222703Y-67501144D01*
X81112024Y-67233940D01*
X80907516Y-67029432D01*
X80640312Y-66918753D01*
X80351094Y-66918753D01*
X80083890Y-67029432D01*
X79920741Y-67192582D01*
X79831813Y-67103654D01*
X79769394Y-67077799D01*
X79820861Y-67056481D01*
X80025369Y-66851973D01*
X80067756Y-66749640D01*
X83724575Y-66749640D01*
X83724575Y-67038858D01*
X83835254Y-67306062D01*
X84039762Y-67510570D01*
X84306966Y-67621249D01*
X84596184Y-67621249D01*
X84863388Y-67510570D01*
X85067896Y-67306062D01*
X85178575Y-67038858D01*
X85178575Y-66749640D01*
X85067896Y-66482436D01*
X84863388Y-66277928D01*
X84596184Y-66167249D01*
X84306966Y-66167249D01*
X84039762Y-66277928D01*
X83835254Y-66482436D01*
X83724575Y-66749640D01*
X80067756Y-66749640D01*
X80136048Y-66584769D01*
X80136048Y-66295551D01*
X80025369Y-66028347D01*
X79922413Y-65925391D01*
X113773000Y-65925391D01*
X113773000Y-66214609D01*
X113883679Y-66481813D01*
X114088187Y-66686321D01*
X114355391Y-66797000D01*
X114644609Y-66797000D01*
X114911813Y-66686321D01*
X115042743Y-66555391D01*
X115273000Y-66555391D01*
X115273000Y-66844609D01*
X115383679Y-67111813D01*
X115588187Y-67316321D01*
X115855391Y-67427000D01*
X116144609Y-67427000D01*
X116411813Y-67316321D01*
X116542743Y-67185391D01*
X116833000Y-67185391D01*
X116833000Y-67474609D01*
X116943679Y-67741813D01*
X117148187Y-67946321D01*
X117415391Y-68057000D01*
X117704609Y-68057000D01*
X117829204Y-68005391D01*
X118323000Y-68005391D01*
X118323000Y-68294609D01*
X118433679Y-68561813D01*
X118638187Y-68766321D01*
X118905391Y-68877000D01*
X119194609Y-68877000D01*
X119461813Y-68766321D01*
X119666321Y-68561813D01*
X119689691Y-68505391D01*
X119833000Y-68505391D01*
X119833000Y-68794609D01*
X119943679Y-69061813D01*
X120148187Y-69266321D01*
X120415391Y-69377000D01*
X120704609Y-69377000D01*
X120971813Y-69266321D01*
X121176321Y-69061813D01*
X121287000Y-68794609D01*
X121287000Y-68505391D01*
X121176321Y-68238187D01*
X120971813Y-68033679D01*
X120704609Y-67923000D01*
X120415391Y-67923000D01*
X120148187Y-68033679D01*
X119943679Y-68238187D01*
X119833000Y-68505391D01*
X119689691Y-68505391D01*
X119777000Y-68294609D01*
X119777000Y-68005391D01*
X119666321Y-67738187D01*
X119461813Y-67533679D01*
X119194609Y-67423000D01*
X118905391Y-67423000D01*
X118638187Y-67533679D01*
X118433679Y-67738187D01*
X118323000Y-68005391D01*
X117829204Y-68005391D01*
X117971813Y-67946321D01*
X118176321Y-67741813D01*
X118287000Y-67474609D01*
X118287000Y-67185391D01*
X118268680Y-67141161D01*
X135052886Y-67141161D01*
X135052886Y-67430379D01*
X135163565Y-67697583D01*
X135368073Y-67902091D01*
X135635277Y-68012770D01*
X135924495Y-68012770D01*
X135966491Y-67995375D01*
X135763679Y-68198187D01*
X135653000Y-68465391D01*
X135653000Y-68754609D01*
X135763679Y-69021813D01*
X135968187Y-69226321D01*
X136235391Y-69337000D01*
X136524609Y-69337000D01*
X136791813Y-69226321D01*
X136996321Y-69021813D01*
X137107000Y-68754609D01*
X137107000Y-68465391D01*
X136996321Y-68198187D01*
X136943525Y-68145391D01*
X137923000Y-68145391D01*
X137923000Y-68434609D01*
X138033679Y-68701813D01*
X138238187Y-68906321D01*
X138505391Y-69017000D01*
X138794609Y-69017000D01*
X139061813Y-68906321D01*
X139266321Y-68701813D01*
X139377000Y-68434609D01*
X139377000Y-68145391D01*
X139303108Y-67967000D01*
X139439633Y-67967000D01*
X139704094Y-67857457D01*
X139664286Y-67897265D01*
X139553607Y-68164469D01*
X139553607Y-68453687D01*
X139664286Y-68720891D01*
X139868794Y-68925399D01*
X140135998Y-69036078D01*
X140425216Y-69036078D01*
X140692420Y-68925399D01*
X140896928Y-68720891D01*
X141007607Y-68453687D01*
X141007607Y-68164469D01*
X140896928Y-67897265D01*
X140692420Y-67692757D01*
X140425216Y-67582078D01*
X140135998Y-67582078D01*
X139871537Y-67691621D01*
X139911345Y-67651813D01*
X140022024Y-67384609D01*
X140022024Y-67095391D01*
X139986830Y-67010424D01*
X142868023Y-67010424D01*
X142868023Y-67299642D01*
X142978702Y-67566846D01*
X143183210Y-67771354D01*
X143450414Y-67882033D01*
X143739632Y-67882033D01*
X144006836Y-67771354D01*
X144211344Y-67566846D01*
X144322023Y-67299642D01*
X144322023Y-67010424D01*
X144211344Y-66743220D01*
X144006836Y-66538712D01*
X143739632Y-66428033D01*
X143450414Y-66428033D01*
X143183210Y-66538712D01*
X142978702Y-66743220D01*
X142868023Y-67010424D01*
X139986830Y-67010424D01*
X139911345Y-66828187D01*
X139706837Y-66623679D01*
X139439633Y-66513000D01*
X139150415Y-66513000D01*
X138883211Y-66623679D01*
X138678703Y-66828187D01*
X138568024Y-67095391D01*
X138568024Y-67384609D01*
X138641916Y-67563000D01*
X138505391Y-67563000D01*
X138238187Y-67673679D01*
X138033679Y-67878187D01*
X137923000Y-68145391D01*
X136943525Y-68145391D01*
X136791813Y-67993679D01*
X136524609Y-67883000D01*
X136235391Y-67883000D01*
X136193395Y-67900395D01*
X136396207Y-67697583D01*
X136506886Y-67430379D01*
X136506886Y-67141161D01*
X136396207Y-66873957D01*
X136191699Y-66669449D01*
X135924495Y-66558770D01*
X135635277Y-66558770D01*
X135368073Y-66669449D01*
X135163565Y-66873957D01*
X135052886Y-67141161D01*
X118268680Y-67141161D01*
X118176321Y-66918187D01*
X117971813Y-66713679D01*
X117704609Y-66603000D01*
X117415391Y-66603000D01*
X117148187Y-66713679D01*
X116943679Y-66918187D01*
X116833000Y-67185391D01*
X116542743Y-67185391D01*
X116616321Y-67111813D01*
X116727000Y-66844609D01*
X116727000Y-66555391D01*
X116616321Y-66288187D01*
X116411813Y-66083679D01*
X116391804Y-66075391D01*
X133683000Y-66075391D01*
X133683000Y-66364609D01*
X133793679Y-66631813D01*
X133998187Y-66836321D01*
X134265391Y-66947000D01*
X134554609Y-66947000D01*
X134821813Y-66836321D01*
X135026321Y-66631813D01*
X135137000Y-66364609D01*
X135137000Y-66075391D01*
X135026321Y-65808187D01*
X134821813Y-65603679D01*
X134554609Y-65493000D01*
X134265391Y-65493000D01*
X133998187Y-65603679D01*
X133793679Y-65808187D01*
X133683000Y-66075391D01*
X116391804Y-66075391D01*
X116144609Y-65973000D01*
X115855391Y-65973000D01*
X115588187Y-66083679D01*
X115383679Y-66288187D01*
X115273000Y-66555391D01*
X115042743Y-66555391D01*
X115116321Y-66481813D01*
X115227000Y-66214609D01*
X115227000Y-65925391D01*
X115116321Y-65658187D01*
X114911813Y-65453679D01*
X114644609Y-65343000D01*
X114355391Y-65343000D01*
X114088187Y-65453679D01*
X113883679Y-65658187D01*
X113773000Y-65925391D01*
X79922413Y-65925391D01*
X79820861Y-65823839D01*
X79553657Y-65713160D01*
X79264439Y-65713160D01*
X78997235Y-65823839D01*
X78792727Y-66028347D01*
X78682048Y-66295551D01*
X77478131Y-66295551D01*
X77470943Y-66278199D01*
X77266435Y-66073691D01*
X76999231Y-65963012D01*
X76710013Y-65963012D01*
X76447000Y-66071955D01*
X76447000Y-65945391D01*
X76336321Y-65678187D01*
X76131813Y-65473679D01*
X75864609Y-65363000D01*
X75575391Y-65363000D01*
X75308187Y-65473679D01*
X75103679Y-65678187D01*
X74993000Y-65945391D01*
X74857000Y-65945391D01*
X74857000Y-65775391D01*
X74746321Y-65508187D01*
X74541813Y-65303679D01*
X74274609Y-65193000D01*
X74168408Y-65193000D01*
X74401813Y-65096321D01*
X74606321Y-64891813D01*
X74717000Y-64624609D01*
X74717000Y-64335391D01*
X74606321Y-64068187D01*
X74401813Y-63863679D01*
X74249015Y-63800388D01*
X111450953Y-63800388D01*
X111450953Y-64089606D01*
X111561632Y-64356810D01*
X111766140Y-64561318D01*
X112033344Y-64671997D01*
X112322562Y-64671997D01*
X112338510Y-64665391D01*
X112683000Y-64665391D01*
X112683000Y-64954609D01*
X112793679Y-65221813D01*
X112998187Y-65426321D01*
X113265391Y-65537000D01*
X113554609Y-65537000D01*
X113821813Y-65426321D01*
X114026321Y-65221813D01*
X114137000Y-64954609D01*
X114137000Y-64665391D01*
X114026321Y-64398187D01*
X113973525Y-64345391D01*
X132743000Y-64345391D01*
X132743000Y-64634609D01*
X132853679Y-64901813D01*
X133058187Y-65106321D01*
X133325391Y-65217000D01*
X133614609Y-65217000D01*
X133881813Y-65106321D01*
X134086321Y-64901813D01*
X134167681Y-64705391D01*
X134313000Y-64705391D01*
X134313000Y-64994609D01*
X134423679Y-65261813D01*
X134628187Y-65466321D01*
X134895391Y-65577000D01*
X135184609Y-65577000D01*
X135451813Y-65466321D01*
X135656321Y-65261813D01*
X135767000Y-64994609D01*
X135767000Y-64727586D01*
X137868022Y-64727586D01*
X137868022Y-65016804D01*
X137978701Y-65284008D01*
X138183209Y-65488516D01*
X138450413Y-65599195D01*
X138739631Y-65599195D01*
X139006835Y-65488516D01*
X139211343Y-65284008D01*
X139256333Y-65175391D01*
X146103000Y-65175391D01*
X146103000Y-65464609D01*
X146213679Y-65731813D01*
X146418187Y-65936321D01*
X146685391Y-66047000D01*
X146974609Y-66047000D01*
X147241813Y-65936321D01*
X147446321Y-65731813D01*
X147557000Y-65464609D01*
X147557000Y-65175391D01*
X147446321Y-64908187D01*
X147241813Y-64703679D01*
X146974609Y-64593000D01*
X146685391Y-64593000D01*
X146418187Y-64703679D01*
X146213679Y-64908187D01*
X146103000Y-65175391D01*
X139256333Y-65175391D01*
X139322022Y-65016804D01*
X139322022Y-64727586D01*
X139211343Y-64460382D01*
X139146352Y-64395391D01*
X147542891Y-64395391D01*
X147542891Y-64684609D01*
X147653570Y-64951813D01*
X147858078Y-65156321D01*
X148125282Y-65267000D01*
X148414500Y-65267000D01*
X148681704Y-65156321D01*
X148886212Y-64951813D01*
X148996891Y-64684609D01*
X148996891Y-64395391D01*
X148886212Y-64128187D01*
X148681704Y-63923679D01*
X148414500Y-63813000D01*
X148125282Y-63813000D01*
X147858078Y-63923679D01*
X147653570Y-64128187D01*
X147542891Y-64395391D01*
X139146352Y-64395391D01*
X139006835Y-64255874D01*
X138739631Y-64145195D01*
X138450413Y-64145195D01*
X138183209Y-64255874D01*
X137978701Y-64460382D01*
X137868022Y-64727586D01*
X135767000Y-64727586D01*
X135767000Y-64705391D01*
X135656321Y-64438187D01*
X135451813Y-64233679D01*
X135184609Y-64123000D01*
X134895391Y-64123000D01*
X134628187Y-64233679D01*
X134423679Y-64438187D01*
X134313000Y-64705391D01*
X134167681Y-64705391D01*
X134197000Y-64634609D01*
X134197000Y-64345391D01*
X134086321Y-64078187D01*
X133881813Y-63873679D01*
X133614609Y-63763000D01*
X133325391Y-63763000D01*
X133058187Y-63873679D01*
X132853679Y-64078187D01*
X132743000Y-64345391D01*
X113973525Y-64345391D01*
X113821813Y-64193679D01*
X113554609Y-64083000D01*
X113265391Y-64083000D01*
X112998187Y-64193679D01*
X112793679Y-64398187D01*
X112683000Y-64665391D01*
X112338510Y-64665391D01*
X112589766Y-64561318D01*
X112794274Y-64356810D01*
X112904953Y-64089606D01*
X112904953Y-63800388D01*
X112794274Y-63533184D01*
X112589766Y-63328676D01*
X112322562Y-63217997D01*
X112033344Y-63217997D01*
X111766140Y-63328676D01*
X111561632Y-63533184D01*
X111450953Y-63800388D01*
X74249015Y-63800388D01*
X74134609Y-63753000D01*
X73845391Y-63753000D01*
X73578187Y-63863679D01*
X73373679Y-64068187D01*
X73263000Y-64335391D01*
X54902000Y-64335391D01*
X54902000Y-59885447D01*
X67836382Y-59885447D01*
X67836382Y-60174665D01*
X67947061Y-60441869D01*
X68151569Y-60646377D01*
X68418773Y-60757056D01*
X68707991Y-60757056D01*
X68975195Y-60646377D01*
X69140801Y-60480771D01*
X69140801Y-60666531D01*
X69251480Y-60933735D01*
X69455988Y-61138243D01*
X69620231Y-61206274D01*
X69438187Y-61281679D01*
X69233679Y-61486187D01*
X69123000Y-61753391D01*
X69123000Y-62042609D01*
X69233679Y-62309813D01*
X69438187Y-62514321D01*
X69705391Y-62625000D01*
X69994609Y-62625000D01*
X70261813Y-62514321D01*
X70466321Y-62309813D01*
X70577000Y-62042609D01*
X70577000Y-61753391D01*
X70466321Y-61486187D01*
X70261813Y-61281679D01*
X70097570Y-61213648D01*
X70279614Y-61138243D01*
X70440542Y-60977315D01*
X70645662Y-60977315D01*
X70645662Y-61266533D01*
X70756341Y-61533737D01*
X70960849Y-61738245D01*
X71228053Y-61848924D01*
X71517271Y-61848924D01*
X71784475Y-61738245D01*
X71988983Y-61533737D01*
X72062855Y-61355391D01*
X78343000Y-61355391D01*
X78343000Y-61644609D01*
X78453679Y-61911813D01*
X78658187Y-62116321D01*
X78925391Y-62227000D01*
X79214609Y-62227000D01*
X79481813Y-62116321D01*
X79686321Y-61911813D01*
X79797000Y-61644609D01*
X79797000Y-61375391D01*
X80413000Y-61375391D01*
X80413000Y-61664609D01*
X80523679Y-61931813D01*
X80728187Y-62136321D01*
X80995391Y-62247000D01*
X81284609Y-62247000D01*
X81551813Y-62136321D01*
X81756321Y-61931813D01*
X81867000Y-61664609D01*
X81867000Y-61375391D01*
X81850432Y-61335391D01*
X82433000Y-61335391D01*
X82433000Y-61624609D01*
X82543679Y-61891813D01*
X82748187Y-62096321D01*
X83015391Y-62207000D01*
X83304609Y-62207000D01*
X83571813Y-62096321D01*
X83776321Y-61891813D01*
X83887000Y-61624609D01*
X83887000Y-61335391D01*
X83776321Y-61068187D01*
X83571813Y-60863679D01*
X83304609Y-60753000D01*
X83015391Y-60753000D01*
X82748187Y-60863679D01*
X82543679Y-61068187D01*
X82433000Y-61335391D01*
X81850432Y-61335391D01*
X81756321Y-61108187D01*
X81551813Y-60903679D01*
X81284609Y-60793000D01*
X80995391Y-60793000D01*
X80728187Y-60903679D01*
X80523679Y-61108187D01*
X80413000Y-61375391D01*
X79797000Y-61375391D01*
X79797000Y-61355391D01*
X79686321Y-61088187D01*
X79481813Y-60883679D01*
X79214609Y-60773000D01*
X78925391Y-60773000D01*
X78658187Y-60883679D01*
X78453679Y-61088187D01*
X78343000Y-61355391D01*
X72062855Y-61355391D01*
X72099662Y-61266533D01*
X72099662Y-60977315D01*
X71988983Y-60710111D01*
X71938485Y-60659613D01*
X108468778Y-60659613D01*
X108468778Y-60948831D01*
X108579457Y-61216035D01*
X108783965Y-61420543D01*
X109051169Y-61531222D01*
X109340387Y-61531222D01*
X109607591Y-61420543D01*
X109636628Y-61391506D01*
X109636628Y-61550981D01*
X109747307Y-61818185D01*
X109951815Y-62022693D01*
X110219019Y-62133372D01*
X110478418Y-62133372D01*
X110473603Y-62138187D01*
X110362924Y-62405391D01*
X110362924Y-62694609D01*
X110473603Y-62961813D01*
X110678111Y-63166321D01*
X110945315Y-63277000D01*
X111234533Y-63277000D01*
X111501737Y-63166321D01*
X111612667Y-63055391D01*
X129123000Y-63055391D01*
X129123000Y-63344609D01*
X129233679Y-63611813D01*
X129438187Y-63816321D01*
X129705391Y-63927000D01*
X129994609Y-63927000D01*
X130261813Y-63816321D01*
X130466321Y-63611813D01*
X130577000Y-63344609D01*
X130577000Y-63055391D01*
X130466321Y-62788187D01*
X130261813Y-62583679D01*
X129994609Y-62473000D01*
X129705391Y-62473000D01*
X129438187Y-62583679D01*
X129233679Y-62788187D01*
X129123000Y-63055391D01*
X111612667Y-63055391D01*
X111706245Y-62961813D01*
X111816924Y-62694609D01*
X111816924Y-62405391D01*
X111706245Y-62138187D01*
X111501737Y-61933679D01*
X111409302Y-61895391D01*
X130043000Y-61895391D01*
X130043000Y-62184609D01*
X130153679Y-62451813D01*
X130358187Y-62656321D01*
X130625391Y-62767000D01*
X130914609Y-62767000D01*
X131181813Y-62656321D01*
X131386321Y-62451813D01*
X131497000Y-62184609D01*
X131497000Y-61895391D01*
X131386321Y-61628187D01*
X131333525Y-61575391D01*
X138093000Y-61575391D01*
X138093000Y-61864609D01*
X138203679Y-62131813D01*
X138408187Y-62336321D01*
X138675391Y-62447000D01*
X138964609Y-62447000D01*
X139231813Y-62336321D01*
X139436321Y-62131813D01*
X139541208Y-61878592D01*
X139633669Y-62101813D01*
X139838177Y-62306321D01*
X140105381Y-62417000D01*
X140394599Y-62417000D01*
X140661803Y-62306321D01*
X140866311Y-62101813D01*
X140976990Y-61834609D01*
X140976990Y-61545391D01*
X140960422Y-61505391D01*
X141553000Y-61505391D01*
X141553000Y-61794609D01*
X141663679Y-62061813D01*
X141868187Y-62266321D01*
X142135391Y-62377000D01*
X142424609Y-62377000D01*
X142691813Y-62266321D01*
X142896321Y-62061813D01*
X143007000Y-61794609D01*
X143007000Y-61505391D01*
X142896321Y-61238187D01*
X142691813Y-61033679D01*
X142424609Y-60923000D01*
X142135391Y-60923000D01*
X141868187Y-61033679D01*
X141663679Y-61238187D01*
X141553000Y-61505391D01*
X140960422Y-61505391D01*
X140866311Y-61278187D01*
X140661803Y-61073679D01*
X140394599Y-60963000D01*
X140105381Y-60963000D01*
X139838177Y-61073679D01*
X139633669Y-61278187D01*
X139528782Y-61531408D01*
X139436321Y-61308187D01*
X139231813Y-61103679D01*
X138964609Y-60993000D01*
X138675391Y-60993000D01*
X138408187Y-61103679D01*
X138203679Y-61308187D01*
X138093000Y-61575391D01*
X131333525Y-61575391D01*
X131181813Y-61423679D01*
X130914609Y-61313000D01*
X130625391Y-61313000D01*
X130358187Y-61423679D01*
X130153679Y-61628187D01*
X130043000Y-61895391D01*
X111409302Y-61895391D01*
X111234533Y-61823000D01*
X110975134Y-61823000D01*
X110979949Y-61818185D01*
X111090628Y-61550981D01*
X111090628Y-61261763D01*
X110979949Y-60994559D01*
X110775441Y-60790051D01*
X110508237Y-60679372D01*
X110219019Y-60679372D01*
X109951815Y-60790051D01*
X109922778Y-60819088D01*
X109922778Y-60659613D01*
X109812099Y-60392409D01*
X109607591Y-60187901D01*
X109340387Y-60077222D01*
X109051169Y-60077222D01*
X108783965Y-60187901D01*
X108579457Y-60392409D01*
X108468778Y-60659613D01*
X71938485Y-60659613D01*
X71784475Y-60505603D01*
X71517271Y-60394924D01*
X71228053Y-60394924D01*
X70960849Y-60505603D01*
X70756341Y-60710111D01*
X70645662Y-60977315D01*
X70440542Y-60977315D01*
X70484122Y-60933735D01*
X70594801Y-60666531D01*
X70594801Y-60377313D01*
X70484122Y-60110109D01*
X70279614Y-59905601D01*
X70012410Y-59794922D01*
X69723192Y-59794922D01*
X69455988Y-59905601D01*
X69290382Y-60071207D01*
X69290382Y-59885447D01*
X69179703Y-59618243D01*
X68975195Y-59413735D01*
X68707991Y-59303056D01*
X68418773Y-59303056D01*
X68151569Y-59413735D01*
X67947061Y-59618243D01*
X67836382Y-59885447D01*
X54902000Y-59885447D01*
X54902000Y-58285424D01*
X67675447Y-58285424D01*
X67675447Y-58574642D01*
X67786126Y-58841846D01*
X67990634Y-59046354D01*
X68257838Y-59157033D01*
X68547056Y-59157033D01*
X68814260Y-59046354D01*
X69018768Y-58841846D01*
X69078366Y-58697963D01*
X69153041Y-58697963D01*
X69153041Y-58987181D01*
X69263720Y-59254385D01*
X69468228Y-59458893D01*
X69735432Y-59569572D01*
X70024650Y-59569572D01*
X70291854Y-59458893D01*
X70373455Y-59377292D01*
X70545193Y-59377292D01*
X70545193Y-59666510D01*
X70655872Y-59933714D01*
X70860380Y-60138222D01*
X71127584Y-60248901D01*
X71416802Y-60248901D01*
X71684006Y-60138222D01*
X71888514Y-59933714D01*
X71966241Y-59746063D01*
X127483672Y-59746063D01*
X127483672Y-60035281D01*
X127594351Y-60302485D01*
X127798859Y-60506993D01*
X128066063Y-60617672D01*
X128355281Y-60617672D01*
X128622485Y-60506993D01*
X128663000Y-60466478D01*
X128663000Y-60744609D01*
X128773679Y-61011813D01*
X128978187Y-61216321D01*
X129245391Y-61327000D01*
X129534609Y-61327000D01*
X129801813Y-61216321D01*
X130006321Y-61011813D01*
X130117000Y-60744609D01*
X130117000Y-60455391D01*
X130006321Y-60188187D01*
X129801813Y-59983679D01*
X129534609Y-59873000D01*
X129245391Y-59873000D01*
X128978187Y-59983679D01*
X128937672Y-60024194D01*
X128937672Y-59855381D01*
X129993000Y-59855381D01*
X129993000Y-60144599D01*
X130103679Y-60411803D01*
X130308187Y-60616311D01*
X130575391Y-60726990D01*
X130864609Y-60726990D01*
X131131813Y-60616311D01*
X131336321Y-60411803D01*
X131447000Y-60144599D01*
X131447000Y-59855381D01*
X131336321Y-59588177D01*
X131131813Y-59383669D01*
X130864609Y-59272990D01*
X130575391Y-59272990D01*
X130308187Y-59383669D01*
X130103679Y-59588177D01*
X129993000Y-59855381D01*
X128937672Y-59855381D01*
X128937672Y-59746063D01*
X128826993Y-59478859D01*
X128622485Y-59274351D01*
X128355281Y-59163672D01*
X128066063Y-59163672D01*
X127798859Y-59274351D01*
X127594351Y-59478859D01*
X127483672Y-59746063D01*
X71966241Y-59746063D01*
X71999193Y-59666510D01*
X71999193Y-59377292D01*
X71888514Y-59110088D01*
X71684006Y-58905580D01*
X71416802Y-58794901D01*
X71127584Y-58794901D01*
X70860380Y-58905580D01*
X70655872Y-59110088D01*
X70545193Y-59377292D01*
X70373455Y-59377292D01*
X70496362Y-59254385D01*
X70607041Y-58987181D01*
X70607041Y-58697963D01*
X70581123Y-58635391D01*
X92583001Y-58635391D01*
X92583001Y-58924609D01*
X92693680Y-59191813D01*
X92898188Y-59396321D01*
X93165392Y-59507000D01*
X93454610Y-59507000D01*
X93721814Y-59396321D01*
X93926322Y-59191813D01*
X94037001Y-58924609D01*
X94037001Y-58705391D01*
X98573000Y-58705391D01*
X98573000Y-58994609D01*
X98683679Y-59261813D01*
X98888187Y-59466321D01*
X99155391Y-59577000D01*
X99444609Y-59577000D01*
X99711813Y-59466321D01*
X99916321Y-59261813D01*
X100027000Y-58994609D01*
X100027000Y-58705391D01*
X99916321Y-58438187D01*
X99711813Y-58233679D01*
X99444609Y-58123000D01*
X99155391Y-58123000D01*
X98888187Y-58233679D01*
X98683679Y-58438187D01*
X98573000Y-58705391D01*
X94037001Y-58705391D01*
X94037001Y-58635391D01*
X93926322Y-58368187D01*
X93721814Y-58163679D01*
X93454610Y-58053000D01*
X93165392Y-58053000D01*
X92898188Y-58163679D01*
X92693680Y-58368187D01*
X92583001Y-58635391D01*
X70581123Y-58635391D01*
X70496362Y-58430759D01*
X70291854Y-58226251D01*
X70024650Y-58115572D01*
X69735432Y-58115572D01*
X69468228Y-58226251D01*
X69263720Y-58430759D01*
X69153041Y-58697963D01*
X69078366Y-58697963D01*
X69129447Y-58574642D01*
X69129447Y-58285424D01*
X69018768Y-58018220D01*
X68814260Y-57813712D01*
X68547056Y-57703033D01*
X68257838Y-57703033D01*
X67990634Y-57813712D01*
X67786126Y-58018220D01*
X67675447Y-58285424D01*
X54902000Y-58285424D01*
X54902000Y-56685401D01*
X67553000Y-56685401D01*
X67553000Y-56974619D01*
X67663679Y-57241823D01*
X67868187Y-57446331D01*
X68135391Y-57557010D01*
X68424609Y-57557010D01*
X68691813Y-57446331D01*
X68896321Y-57241823D01*
X68955919Y-57097940D01*
X69192925Y-57097940D01*
X69192925Y-57387158D01*
X69303604Y-57654362D01*
X69508112Y-57858870D01*
X69775316Y-57969549D01*
X70064534Y-57969549D01*
X70331738Y-57858870D01*
X70447940Y-57742668D01*
X70533733Y-57742668D01*
X70533733Y-58031886D01*
X70644412Y-58299090D01*
X70848920Y-58503598D01*
X71116124Y-58614277D01*
X71405342Y-58614277D01*
X71672546Y-58503598D01*
X71877054Y-58299090D01*
X71987733Y-58031886D01*
X71987733Y-57742668D01*
X71877054Y-57475464D01*
X71672546Y-57270956D01*
X71417689Y-57165391D01*
X74113000Y-57165391D01*
X74113000Y-57454609D01*
X74223679Y-57721813D01*
X74428187Y-57926321D01*
X74695391Y-58037000D01*
X74984609Y-58037000D01*
X75251813Y-57926321D01*
X75456321Y-57721813D01*
X75567000Y-57454609D01*
X75567000Y-57415424D01*
X89733223Y-57415424D01*
X89733223Y-57704642D01*
X89843902Y-57971846D01*
X90048410Y-58176354D01*
X90315614Y-58287033D01*
X90604832Y-58287033D01*
X90872036Y-58176354D01*
X91076544Y-57971846D01*
X91187223Y-57704642D01*
X91187223Y-57415424D01*
X91140525Y-57302683D01*
X94259095Y-57302683D01*
X94259095Y-57591901D01*
X94369774Y-57859105D01*
X94574282Y-58063613D01*
X94841486Y-58174292D01*
X95130704Y-58174292D01*
X95397908Y-58063613D01*
X95602416Y-57859105D01*
X95713095Y-57591901D01*
X95713095Y-57302683D01*
X95602416Y-57035479D01*
X95397908Y-56830971D01*
X95276678Y-56780756D01*
X95959647Y-56780756D01*
X95959647Y-57069974D01*
X96070326Y-57337178D01*
X96274834Y-57541686D01*
X96542038Y-57652365D01*
X96831256Y-57652365D01*
X97098460Y-57541686D01*
X97164755Y-57475391D01*
X97303000Y-57475391D01*
X97303000Y-57764609D01*
X97413679Y-58031813D01*
X97618187Y-58236321D01*
X97885391Y-58347000D01*
X98174609Y-58347000D01*
X98441813Y-58236321D01*
X98646321Y-58031813D01*
X98757000Y-57764609D01*
X98757000Y-57475391D01*
X98646321Y-57208187D01*
X98441813Y-57003679D01*
X98174609Y-56893000D01*
X97885391Y-56893000D01*
X97618187Y-57003679D01*
X97413679Y-57208187D01*
X97303000Y-57475391D01*
X97164755Y-57475391D01*
X97302968Y-57337178D01*
X97413647Y-57069974D01*
X97413647Y-56780756D01*
X97302968Y-56513552D01*
X97098460Y-56309044D01*
X96831256Y-56198365D01*
X96542038Y-56198365D01*
X96274834Y-56309044D01*
X96070326Y-56513552D01*
X95959647Y-56780756D01*
X95276678Y-56780756D01*
X95130704Y-56720292D01*
X94841486Y-56720292D01*
X94574282Y-56830971D01*
X94369774Y-57035479D01*
X94259095Y-57302683D01*
X91140525Y-57302683D01*
X91076544Y-57148220D01*
X90872036Y-56943712D01*
X90604832Y-56833033D01*
X90315614Y-56833033D01*
X90048410Y-56943712D01*
X89843902Y-57148220D01*
X89733223Y-57415424D01*
X75567000Y-57415424D01*
X75567000Y-57165391D01*
X75456321Y-56898187D01*
X75251813Y-56693679D01*
X74984609Y-56583000D01*
X74695391Y-56583000D01*
X74428187Y-56693679D01*
X74223679Y-56898187D01*
X74113000Y-57165391D01*
X71417689Y-57165391D01*
X71405342Y-57160277D01*
X71116124Y-57160277D01*
X70848920Y-57270956D01*
X70644412Y-57475464D01*
X70533733Y-57742668D01*
X70447940Y-57742668D01*
X70536246Y-57654362D01*
X70646925Y-57387158D01*
X70646925Y-57097940D01*
X70536246Y-56830736D01*
X70331738Y-56626228D01*
X70064534Y-56515549D01*
X69775316Y-56515549D01*
X69508112Y-56626228D01*
X69303604Y-56830736D01*
X69192925Y-57097940D01*
X68955919Y-57097940D01*
X69007000Y-56974619D01*
X69007000Y-56685401D01*
X68896321Y-56418197D01*
X68793515Y-56315391D01*
X91573000Y-56315391D01*
X91573000Y-56604609D01*
X91683679Y-56871813D01*
X91888187Y-57076321D01*
X92155391Y-57187000D01*
X92444609Y-57187000D01*
X92711813Y-57076321D01*
X92916321Y-56871813D01*
X93027000Y-56604609D01*
X93027000Y-56315391D01*
X92916321Y-56048187D01*
X92711813Y-55843679D01*
X92444609Y-55733000D01*
X92155391Y-55733000D01*
X91888187Y-55843679D01*
X91683679Y-56048187D01*
X91573000Y-56315391D01*
X68793515Y-56315391D01*
X68691813Y-56213689D01*
X68424609Y-56103010D01*
X68135391Y-56103010D01*
X67868187Y-56213689D01*
X67663679Y-56418197D01*
X67553000Y-56685401D01*
X54902000Y-56685401D01*
X54902000Y-53295391D01*
X67043000Y-53295391D01*
X67043000Y-53584609D01*
X67153679Y-53851813D01*
X67358187Y-54056321D01*
X67625391Y-54167000D01*
X67914609Y-54167000D01*
X68181813Y-54056321D01*
X68212743Y-54025391D01*
X68803000Y-54025391D01*
X68803000Y-54314609D01*
X68913679Y-54581813D01*
X69118187Y-54786321D01*
X69385391Y-54897000D01*
X69674609Y-54897000D01*
X69941813Y-54786321D01*
X70146321Y-54581813D01*
X70159009Y-54551181D01*
X71313000Y-54551181D01*
X71313000Y-54840399D01*
X71423679Y-55107603D01*
X71628187Y-55312111D01*
X71895391Y-55422790D01*
X72184609Y-55422790D01*
X72451813Y-55312111D01*
X72608533Y-55155391D01*
X74163000Y-55155391D01*
X74163000Y-55444609D01*
X74273679Y-55711813D01*
X74478187Y-55916321D01*
X74745391Y-56027000D01*
X75034609Y-56027000D01*
X75301813Y-55916321D01*
X75506321Y-55711813D01*
X75617000Y-55444609D01*
X75617000Y-55159390D01*
X86272983Y-55159390D01*
X86272983Y-55448608D01*
X86383662Y-55715812D01*
X86588170Y-55920320D01*
X86855374Y-56030999D01*
X87144592Y-56030999D01*
X87411796Y-55920320D01*
X87616304Y-55715812D01*
X87616474Y-55715401D01*
X110687426Y-55715401D01*
X110687426Y-56004619D01*
X110798105Y-56271823D01*
X111002613Y-56476331D01*
X111269817Y-56587010D01*
X111559035Y-56587010D01*
X111826239Y-56476331D01*
X111849039Y-56453531D01*
X111753000Y-56685391D01*
X111753000Y-56974609D01*
X111863679Y-57241813D01*
X112068187Y-57446321D01*
X112335391Y-57557000D01*
X112624609Y-57557000D01*
X112891813Y-57446321D01*
X112962743Y-57375391D01*
X113213000Y-57375391D01*
X113213000Y-57664609D01*
X113323679Y-57931813D01*
X113528187Y-58136321D01*
X113795391Y-58247000D01*
X114084609Y-58247000D01*
X114351813Y-58136321D01*
X114452743Y-58035391D01*
X114623000Y-58035391D01*
X114623000Y-58324609D01*
X114733679Y-58591813D01*
X114938187Y-58796321D01*
X115205391Y-58907000D01*
X115494609Y-58907000D01*
X115761813Y-58796321D01*
X115893000Y-58665134D01*
X115893000Y-58914609D01*
X116003679Y-59181813D01*
X116208187Y-59386321D01*
X116475391Y-59497000D01*
X116764609Y-59497000D01*
X117031813Y-59386321D01*
X117236321Y-59181813D01*
X117347000Y-58914609D01*
X117347000Y-58625391D01*
X117236321Y-58358187D01*
X117031813Y-58153679D01*
X116764609Y-58043000D01*
X116475391Y-58043000D01*
X116208187Y-58153679D01*
X116077000Y-58284866D01*
X116077000Y-58035391D01*
X116065455Y-58007518D01*
X127525117Y-58007518D01*
X127525117Y-58296736D01*
X127635796Y-58563940D01*
X127840304Y-58768448D01*
X128107508Y-58879127D01*
X128396726Y-58879127D01*
X128643000Y-58777117D01*
X128643000Y-59044619D01*
X128753679Y-59311823D01*
X128958187Y-59516331D01*
X129225391Y-59627010D01*
X129514609Y-59627010D01*
X129781813Y-59516331D01*
X129986321Y-59311823D01*
X130097000Y-59044619D01*
X130097000Y-58805124D01*
X130258187Y-58966311D01*
X130525391Y-59076990D01*
X130814609Y-59076990D01*
X131081813Y-58966311D01*
X131286321Y-58761803D01*
X131397000Y-58494599D01*
X131397000Y-58205381D01*
X131286321Y-57938177D01*
X131081813Y-57733669D01*
X130893489Y-57655663D01*
X133345625Y-57655663D01*
X133345625Y-57944881D01*
X133456304Y-58212085D01*
X133660812Y-58416593D01*
X133928016Y-58527272D01*
X134217234Y-58527272D01*
X134484438Y-58416593D01*
X134688946Y-58212085D01*
X134799625Y-57944881D01*
X134799625Y-57895402D01*
X138833544Y-57895402D01*
X138833544Y-58184620D01*
X138944223Y-58451824D01*
X139148731Y-58656332D01*
X139415935Y-58767011D01*
X139705153Y-58767011D01*
X139972357Y-58656332D01*
X140176865Y-58451824D01*
X140287544Y-58184620D01*
X140287544Y-57895402D01*
X140176865Y-57628198D01*
X139972357Y-57423690D01*
X139855444Y-57375263D01*
X145763000Y-57375263D01*
X145763000Y-57664481D01*
X145873679Y-57931685D01*
X146078187Y-58136193D01*
X146345391Y-58246872D01*
X146634609Y-58246872D01*
X146901813Y-58136193D01*
X147106321Y-57931685D01*
X147217000Y-57664481D01*
X147217000Y-57375263D01*
X147106321Y-57108059D01*
X146901813Y-56903551D01*
X146634609Y-56792872D01*
X146345391Y-56792872D01*
X146078187Y-56903551D01*
X145873679Y-57108059D01*
X145763000Y-57375263D01*
X139855444Y-57375263D01*
X139705153Y-57313011D01*
X139415935Y-57313011D01*
X139148731Y-57423690D01*
X138944223Y-57628198D01*
X138833544Y-57895402D01*
X134799625Y-57895402D01*
X134799625Y-57655663D01*
X134688946Y-57388459D01*
X134484438Y-57183951D01*
X134217234Y-57073272D01*
X133928016Y-57073272D01*
X133660812Y-57183951D01*
X133456304Y-57388459D01*
X133345625Y-57655663D01*
X130893489Y-57655663D01*
X130814609Y-57622990D01*
X130525391Y-57622990D01*
X130258187Y-57733669D01*
X130053679Y-57938177D01*
X129943000Y-58205381D01*
X129943000Y-58444876D01*
X129781813Y-58283689D01*
X129514609Y-58173010D01*
X129225391Y-58173010D01*
X128979117Y-58275020D01*
X128979117Y-58007518D01*
X128868438Y-57740314D01*
X128663930Y-57535806D01*
X128396726Y-57425127D01*
X128107508Y-57425127D01*
X127840304Y-57535806D01*
X127635796Y-57740314D01*
X127525117Y-58007518D01*
X116065455Y-58007518D01*
X115966321Y-57768187D01*
X115761813Y-57563679D01*
X115494609Y-57453000D01*
X115205391Y-57453000D01*
X114938187Y-57563679D01*
X114733679Y-57768187D01*
X114623000Y-58035391D01*
X114452743Y-58035391D01*
X114556321Y-57931813D01*
X114667000Y-57664609D01*
X114667000Y-57375391D01*
X114556321Y-57108187D01*
X114351813Y-56903679D01*
X114084609Y-56793000D01*
X113795391Y-56793000D01*
X113528187Y-56903679D01*
X113323679Y-57108187D01*
X113213000Y-57375391D01*
X112962743Y-57375391D01*
X113096321Y-57241813D01*
X113207000Y-56974609D01*
X113207000Y-56685391D01*
X113096321Y-56418187D01*
X113083525Y-56405391D01*
X124783000Y-56405391D01*
X124783000Y-56694609D01*
X124893679Y-56961813D01*
X125098187Y-57166321D01*
X125365391Y-57277000D01*
X125654609Y-57277000D01*
X125921813Y-57166321D01*
X126126321Y-56961813D01*
X126149691Y-56905391D01*
X128643000Y-56905391D01*
X128643000Y-57194609D01*
X128753679Y-57461813D01*
X128958187Y-57666321D01*
X129225391Y-57777000D01*
X129514609Y-57777000D01*
X129781813Y-57666321D01*
X129986321Y-57461813D01*
X130097000Y-57194609D01*
X130097000Y-57025144D01*
X130238187Y-57166331D01*
X130505391Y-57277010D01*
X130794609Y-57277010D01*
X131061813Y-57166331D01*
X131266321Y-56961823D01*
X131377000Y-56694619D01*
X131377000Y-56405401D01*
X131266321Y-56138197D01*
X131061813Y-55933689D01*
X130794609Y-55823010D01*
X130505391Y-55823010D01*
X130238187Y-55933689D01*
X130033679Y-56138197D01*
X129923000Y-56405401D01*
X129923000Y-56574866D01*
X129781813Y-56433679D01*
X129514609Y-56323000D01*
X129225391Y-56323000D01*
X128958187Y-56433679D01*
X128753679Y-56638187D01*
X128643000Y-56905391D01*
X126149691Y-56905391D01*
X126237000Y-56694609D01*
X126237000Y-56405391D01*
X126126321Y-56138187D01*
X125921813Y-55933679D01*
X125654609Y-55823000D01*
X125365391Y-55823000D01*
X125098187Y-55933679D01*
X124893679Y-56138187D01*
X124783000Y-56405391D01*
X113083525Y-56405391D01*
X112891813Y-56213679D01*
X112624609Y-56103000D01*
X112335391Y-56103000D01*
X112068187Y-56213679D01*
X112045387Y-56236479D01*
X112141426Y-56004619D01*
X112141426Y-55715401D01*
X112062722Y-55525391D01*
X120583000Y-55525391D01*
X120583000Y-55814609D01*
X120693679Y-56081813D01*
X120898187Y-56286321D01*
X121165391Y-56397000D01*
X121454609Y-56397000D01*
X121721813Y-56286321D01*
X121926321Y-56081813D01*
X122037000Y-55814609D01*
X122037000Y-55698727D01*
X133516114Y-55698727D01*
X133516114Y-55987945D01*
X133626793Y-56255149D01*
X133831301Y-56459657D01*
X134098505Y-56570336D01*
X134387723Y-56570336D01*
X134654927Y-56459657D01*
X134859435Y-56255149D01*
X134915764Y-56119158D01*
X137623000Y-56119158D01*
X137623000Y-56408376D01*
X137733679Y-56675580D01*
X137938187Y-56880088D01*
X138205391Y-56990767D01*
X138494609Y-56990767D01*
X138761813Y-56880088D01*
X138966321Y-56675580D01*
X139077000Y-56408376D01*
X139077000Y-56119158D01*
X138966321Y-55851954D01*
X138819748Y-55705381D01*
X142783000Y-55705381D01*
X142783000Y-55994599D01*
X142893679Y-56261803D01*
X143098187Y-56466311D01*
X143365391Y-56576990D01*
X143654609Y-56576990D01*
X143921813Y-56466311D01*
X144126321Y-56261803D01*
X144237000Y-55994599D01*
X144237000Y-55705381D01*
X144126321Y-55438177D01*
X144023540Y-55335396D01*
X145513846Y-55335396D01*
X145513846Y-55624614D01*
X145624525Y-55891818D01*
X145829033Y-56096326D01*
X146096237Y-56207005D01*
X146385455Y-56207005D01*
X146652659Y-56096326D01*
X146857167Y-55891818D01*
X146967846Y-55624614D01*
X146967846Y-55335396D01*
X146857167Y-55068192D01*
X146652659Y-54863684D01*
X146385455Y-54753005D01*
X146096237Y-54753005D01*
X145829033Y-54863684D01*
X145624525Y-55068192D01*
X145513846Y-55335396D01*
X144023540Y-55335396D01*
X143921813Y-55233669D01*
X143654609Y-55122990D01*
X143365391Y-55122990D01*
X143098187Y-55233669D01*
X142893679Y-55438177D01*
X142783000Y-55705381D01*
X138819748Y-55705381D01*
X138761813Y-55647446D01*
X138494609Y-55536767D01*
X138205391Y-55536767D01*
X137938187Y-55647446D01*
X137733679Y-55851954D01*
X137623000Y-56119158D01*
X134915764Y-56119158D01*
X134970114Y-55987945D01*
X134970114Y-55698727D01*
X134859435Y-55431523D01*
X134654927Y-55227015D01*
X134387723Y-55116336D01*
X134098505Y-55116336D01*
X133831301Y-55227015D01*
X133626793Y-55431523D01*
X133516114Y-55698727D01*
X122037000Y-55698727D01*
X122037000Y-55525391D01*
X121926321Y-55258187D01*
X121721813Y-55053679D01*
X121454609Y-54943000D01*
X121165391Y-54943000D01*
X120898187Y-55053679D01*
X120693679Y-55258187D01*
X120583000Y-55525391D01*
X112062722Y-55525391D01*
X112030747Y-55448197D01*
X111826239Y-55243689D01*
X111559035Y-55133010D01*
X111269817Y-55133010D01*
X111002613Y-55243689D01*
X110798105Y-55448197D01*
X110687426Y-55715401D01*
X87616474Y-55715401D01*
X87726983Y-55448608D01*
X87726983Y-55159390D01*
X87616304Y-54892186D01*
X87411796Y-54687678D01*
X87144592Y-54576999D01*
X86855374Y-54576999D01*
X86588170Y-54687678D01*
X86383662Y-54892186D01*
X86272983Y-55159390D01*
X75617000Y-55159390D01*
X75617000Y-55155391D01*
X75506321Y-54888187D01*
X75301813Y-54683679D01*
X75034609Y-54573000D01*
X74745391Y-54573000D01*
X74478187Y-54683679D01*
X74273679Y-54888187D01*
X74163000Y-55155391D01*
X72608533Y-55155391D01*
X72656321Y-55107603D01*
X72767000Y-54840399D01*
X72767000Y-54551181D01*
X72656321Y-54283977D01*
X72451813Y-54079469D01*
X72184609Y-53968790D01*
X71895391Y-53968790D01*
X71628187Y-54079469D01*
X71423679Y-54283977D01*
X71313000Y-54551181D01*
X70159009Y-54551181D01*
X70257000Y-54314609D01*
X70257000Y-54025391D01*
X70146321Y-53758187D01*
X69941813Y-53553679D01*
X69674609Y-53443000D01*
X69385391Y-53443000D01*
X69118187Y-53553679D01*
X68913679Y-53758187D01*
X68803000Y-54025391D01*
X68212743Y-54025391D01*
X68386321Y-53851813D01*
X68497000Y-53584609D01*
X68497000Y-53295391D01*
X68393443Y-53045381D01*
X71004549Y-53045381D01*
X71004549Y-53334599D01*
X71115228Y-53601803D01*
X71319736Y-53806311D01*
X71586940Y-53916990D01*
X71876158Y-53916990D01*
X72143362Y-53806311D01*
X72347870Y-53601803D01*
X72366744Y-53556236D01*
X74187302Y-53556236D01*
X74187302Y-53845454D01*
X74297981Y-54112658D01*
X74502489Y-54317166D01*
X74769693Y-54427845D01*
X75058911Y-54427845D01*
X75326115Y-54317166D01*
X75530623Y-54112658D01*
X75641302Y-53845454D01*
X75641302Y-53565963D01*
X86417341Y-53565963D01*
X86417341Y-53855181D01*
X86528020Y-54122385D01*
X86732528Y-54326893D01*
X86999732Y-54437572D01*
X87288950Y-54437572D01*
X87556154Y-54326893D01*
X87758374Y-54124673D01*
X91643341Y-54124673D01*
X91643341Y-54413891D01*
X91754020Y-54681095D01*
X91958528Y-54885603D01*
X92225732Y-54996282D01*
X92514950Y-54996282D01*
X92782154Y-54885603D01*
X92986662Y-54681095D01*
X93034587Y-54565391D01*
X106133000Y-54565391D01*
X106133000Y-54854609D01*
X106243679Y-55121813D01*
X106448187Y-55326321D01*
X106715391Y-55437000D01*
X107004609Y-55437000D01*
X107271813Y-55326321D01*
X107476321Y-55121813D01*
X107587000Y-54854609D01*
X107587000Y-54565391D01*
X107476321Y-54298187D01*
X107403525Y-54225391D01*
X107703000Y-54225391D01*
X107703000Y-54514609D01*
X107813679Y-54781813D01*
X108018187Y-54986321D01*
X108285391Y-55097000D01*
X108574609Y-55097000D01*
X108841813Y-54986321D01*
X109046321Y-54781813D01*
X109157000Y-54514609D01*
X109157000Y-54225391D01*
X109046321Y-53958187D01*
X108841813Y-53753679D01*
X108749300Y-53715359D01*
X109333000Y-53715359D01*
X109333000Y-54004577D01*
X109443679Y-54271781D01*
X109648187Y-54476289D01*
X109915391Y-54586968D01*
X110204609Y-54586968D01*
X110471813Y-54476289D01*
X110676321Y-54271781D01*
X110787000Y-54004577D01*
X110787000Y-53785391D01*
X127993000Y-53785391D01*
X127993000Y-54074609D01*
X128103679Y-54341813D01*
X128308187Y-54546321D01*
X128575391Y-54657000D01*
X128864609Y-54657000D01*
X129131813Y-54546321D01*
X129336321Y-54341813D01*
X129338981Y-54335391D01*
X130533000Y-54335391D01*
X130533000Y-54624609D01*
X130643679Y-54891813D01*
X130848187Y-55096321D01*
X131115391Y-55207000D01*
X131404609Y-55207000D01*
X131671813Y-55096321D01*
X131876321Y-54891813D01*
X131987000Y-54624609D01*
X131987000Y-54335391D01*
X131888989Y-54098769D01*
X133526568Y-54098769D01*
X133526568Y-54387987D01*
X133637247Y-54655191D01*
X133841755Y-54859699D01*
X134108959Y-54970378D01*
X134398177Y-54970378D01*
X134665381Y-54859699D01*
X134869889Y-54655191D01*
X134980568Y-54387987D01*
X134980568Y-54098769D01*
X134869889Y-53831565D01*
X134743715Y-53705391D01*
X145593000Y-53705391D01*
X145593000Y-53994609D01*
X145703679Y-54261813D01*
X145908187Y-54466321D01*
X146175391Y-54577000D01*
X146464609Y-54577000D01*
X146661604Y-54495402D01*
X151563000Y-54495402D01*
X151563000Y-54784620D01*
X151673679Y-55051824D01*
X151878187Y-55256332D01*
X152145391Y-55367011D01*
X152434609Y-55367011D01*
X152701813Y-55256332D01*
X152906321Y-55051824D01*
X153017000Y-54784620D01*
X153017000Y-54495402D01*
X152906321Y-54228198D01*
X152701813Y-54023690D01*
X152434609Y-53913011D01*
X152145391Y-53913011D01*
X151878187Y-54023690D01*
X151673679Y-54228198D01*
X151563000Y-54495402D01*
X146661604Y-54495402D01*
X146731813Y-54466321D01*
X146936321Y-54261813D01*
X147047000Y-53994609D01*
X147047000Y-53705391D01*
X146936321Y-53438187D01*
X146731813Y-53233679D01*
X146639378Y-53195391D01*
X150783000Y-53195391D01*
X150783000Y-53484609D01*
X150893679Y-53751813D01*
X151098187Y-53956321D01*
X151365391Y-54067000D01*
X151654609Y-54067000D01*
X151921813Y-53956321D01*
X152122015Y-53756119D01*
X153232272Y-53756119D01*
X153232272Y-54045337D01*
X153342951Y-54312541D01*
X153547459Y-54517049D01*
X153814663Y-54627728D01*
X154103881Y-54627728D01*
X154371085Y-54517049D01*
X154575593Y-54312541D01*
X154686272Y-54045337D01*
X154686272Y-53756119D01*
X154575593Y-53488915D01*
X154371085Y-53284407D01*
X154103881Y-53173728D01*
X153814663Y-53173728D01*
X153547459Y-53284407D01*
X153342951Y-53488915D01*
X153232272Y-53756119D01*
X152122015Y-53756119D01*
X152126321Y-53751813D01*
X152237000Y-53484609D01*
X152237000Y-53195391D01*
X152126321Y-52928187D01*
X151921813Y-52723679D01*
X151654609Y-52613000D01*
X151365391Y-52613000D01*
X151098187Y-52723679D01*
X150893679Y-52928187D01*
X150783000Y-53195391D01*
X146639378Y-53195391D01*
X146464609Y-53123000D01*
X146175391Y-53123000D01*
X145908187Y-53233679D01*
X145703679Y-53438187D01*
X145593000Y-53705391D01*
X134743715Y-53705391D01*
X134665381Y-53627057D01*
X134398177Y-53516378D01*
X134108959Y-53516378D01*
X133841755Y-53627057D01*
X133637247Y-53831565D01*
X133526568Y-54098769D01*
X131888989Y-54098769D01*
X131876321Y-54068187D01*
X131671813Y-53863679D01*
X131404609Y-53753000D01*
X131115391Y-53753000D01*
X130848187Y-53863679D01*
X130643679Y-54068187D01*
X130533000Y-54335391D01*
X129338981Y-54335391D01*
X129447000Y-54074609D01*
X129447000Y-53785391D01*
X129336321Y-53518187D01*
X129131813Y-53313679D01*
X128864609Y-53203000D01*
X128575391Y-53203000D01*
X128308187Y-53313679D01*
X128103679Y-53518187D01*
X127993000Y-53785391D01*
X110787000Y-53785391D01*
X110787000Y-53715359D01*
X110676321Y-53448155D01*
X110471813Y-53243647D01*
X110204609Y-53132968D01*
X109915391Y-53132968D01*
X109648187Y-53243647D01*
X109443679Y-53448155D01*
X109333000Y-53715359D01*
X108749300Y-53715359D01*
X108574609Y-53643000D01*
X108285391Y-53643000D01*
X108018187Y-53753679D01*
X107813679Y-53958187D01*
X107703000Y-54225391D01*
X107403525Y-54225391D01*
X107271813Y-54093679D01*
X107004609Y-53983000D01*
X106715391Y-53983000D01*
X106448187Y-54093679D01*
X106243679Y-54298187D01*
X106133000Y-54565391D01*
X93034587Y-54565391D01*
X93097341Y-54413891D01*
X93097341Y-54124673D01*
X92986662Y-53857469D01*
X92782154Y-53652961D01*
X92514950Y-53542282D01*
X92225732Y-53542282D01*
X91958528Y-53652961D01*
X91754020Y-53857469D01*
X91643341Y-54124673D01*
X87758374Y-54124673D01*
X87760662Y-54122385D01*
X87871341Y-53855181D01*
X87871341Y-53565963D01*
X87854235Y-53524663D01*
X93443728Y-53524663D01*
X93443728Y-53813881D01*
X93554407Y-54081085D01*
X93758915Y-54285593D01*
X94026119Y-54396272D01*
X94315337Y-54396272D01*
X94582541Y-54285593D01*
X94787049Y-54081085D01*
X94897728Y-53813881D01*
X94897728Y-53524663D01*
X94787049Y-53257459D01*
X94582541Y-53052951D01*
X94315337Y-52942272D01*
X94026119Y-52942272D01*
X93758915Y-53052951D01*
X93554407Y-53257459D01*
X93443728Y-53524663D01*
X87854235Y-53524663D01*
X87760662Y-53298759D01*
X87556154Y-53094251D01*
X87288950Y-52983572D01*
X86999732Y-52983572D01*
X86732528Y-53094251D01*
X86528020Y-53298759D01*
X86417341Y-53565963D01*
X75641302Y-53565963D01*
X75641302Y-53556236D01*
X75530623Y-53289032D01*
X75326115Y-53084524D01*
X75058911Y-52973845D01*
X74769693Y-52973845D01*
X74502489Y-53084524D01*
X74297981Y-53289032D01*
X74187302Y-53556236D01*
X72366744Y-53556236D01*
X72458549Y-53334599D01*
X72458549Y-53045381D01*
X72347870Y-52778177D01*
X72195084Y-52625391D01*
X90913000Y-52625391D01*
X90913000Y-52914609D01*
X91023679Y-53181813D01*
X91228187Y-53386321D01*
X91495391Y-53497000D01*
X91784609Y-53497000D01*
X92051813Y-53386321D01*
X92256321Y-53181813D01*
X92366676Y-52915391D01*
X106623000Y-52915391D01*
X106623000Y-53204609D01*
X106733679Y-53471813D01*
X106938187Y-53676321D01*
X107205391Y-53787000D01*
X107494609Y-53787000D01*
X107761813Y-53676321D01*
X107966321Y-53471813D01*
X108077000Y-53204609D01*
X108077000Y-52915391D01*
X107966321Y-52648187D01*
X107761813Y-52443679D01*
X107717662Y-52425391D01*
X108263000Y-52425391D01*
X108263000Y-52714609D01*
X108373679Y-52981813D01*
X108578187Y-53186321D01*
X108845391Y-53297000D01*
X109134609Y-53297000D01*
X109401813Y-53186321D01*
X109606321Y-52981813D01*
X109717000Y-52714609D01*
X109717000Y-52639448D01*
X123121899Y-52639448D01*
X123121899Y-52928666D01*
X123232578Y-53195870D01*
X123437086Y-53400378D01*
X123704290Y-53511057D01*
X123993508Y-53511057D01*
X124260712Y-53400378D01*
X124465220Y-53195870D01*
X124575899Y-52928666D01*
X124575899Y-52639448D01*
X124465220Y-52372244D01*
X124260712Y-52167736D01*
X123993508Y-52057057D01*
X123704290Y-52057057D01*
X123437086Y-52167736D01*
X123232578Y-52372244D01*
X123121899Y-52639448D01*
X109717000Y-52639448D01*
X109717000Y-52425391D01*
X109606321Y-52158187D01*
X109401813Y-51953679D01*
X109134609Y-51843000D01*
X108845391Y-51843000D01*
X108578187Y-51953679D01*
X108373679Y-52158187D01*
X108263000Y-52425391D01*
X107717662Y-52425391D01*
X107494609Y-52333000D01*
X107205391Y-52333000D01*
X106938187Y-52443679D01*
X106733679Y-52648187D01*
X106623000Y-52915391D01*
X92366676Y-52915391D01*
X92367000Y-52914609D01*
X92367000Y-52625391D01*
X92256321Y-52358187D01*
X92051813Y-52153679D01*
X91784609Y-52043000D01*
X91495391Y-52043000D01*
X91228187Y-52153679D01*
X91023679Y-52358187D01*
X90913000Y-52625391D01*
X72195084Y-52625391D01*
X72143362Y-52573669D01*
X71876158Y-52462990D01*
X71586940Y-52462990D01*
X71319736Y-52573669D01*
X71115228Y-52778177D01*
X71004549Y-53045381D01*
X68393443Y-53045381D01*
X68386321Y-53028187D01*
X68181813Y-52823679D01*
X67914609Y-52713000D01*
X67625391Y-52713000D01*
X67358187Y-52823679D01*
X67153679Y-53028187D01*
X67043000Y-53295391D01*
X54902000Y-53295391D01*
X54902000Y-52045391D01*
X69673000Y-52045391D01*
X69673000Y-52334609D01*
X69783679Y-52601813D01*
X69988187Y-52806321D01*
X70255391Y-52917000D01*
X70544609Y-52917000D01*
X70811813Y-52806321D01*
X71016321Y-52601813D01*
X71127000Y-52334609D01*
X71127000Y-52045391D01*
X71016321Y-51778187D01*
X70811813Y-51573679D01*
X70544609Y-51463000D01*
X70255391Y-51463000D01*
X69988187Y-51573679D01*
X69783679Y-51778187D01*
X69673000Y-52045391D01*
X54902000Y-52045391D01*
X54902000Y-50605391D01*
X74143000Y-50605391D01*
X74143000Y-50894609D01*
X74253679Y-51161813D01*
X74458187Y-51366321D01*
X74725391Y-51477000D01*
X75014609Y-51477000D01*
X75023191Y-51473445D01*
X124321299Y-51473445D01*
X124321299Y-51762663D01*
X124431978Y-52029867D01*
X124636486Y-52234375D01*
X124903690Y-52345054D01*
X125192908Y-52345054D01*
X125460112Y-52234375D01*
X125664620Y-52029867D01*
X125775299Y-51762663D01*
X125775299Y-51473445D01*
X125664620Y-51206241D01*
X125460112Y-51001733D01*
X125192908Y-50891054D01*
X124903690Y-50891054D01*
X124636486Y-51001733D01*
X124431978Y-51206241D01*
X124321299Y-51473445D01*
X75023191Y-51473445D01*
X75281813Y-51366321D01*
X75486321Y-51161813D01*
X75597000Y-50894609D01*
X75597000Y-50605391D01*
X75486321Y-50338187D01*
X75283525Y-50135391D01*
X86593000Y-50135391D01*
X86593000Y-50424609D01*
X86703679Y-50691813D01*
X86908187Y-50896321D01*
X87175391Y-51007000D01*
X87464609Y-51007000D01*
X87731813Y-50896321D01*
X87832743Y-50795391D01*
X133263000Y-50795391D01*
X133263000Y-51084609D01*
X133373679Y-51351813D01*
X133578187Y-51556321D01*
X133845391Y-51667000D01*
X134134609Y-51667000D01*
X134401813Y-51556321D01*
X134606321Y-51351813D01*
X134717000Y-51084609D01*
X134717000Y-50795391D01*
X134606321Y-50528187D01*
X134401813Y-50323679D01*
X134309378Y-50285391D01*
X145853000Y-50285391D01*
X145853000Y-50574609D01*
X145963679Y-50841813D01*
X146168187Y-51046321D01*
X146435391Y-51157000D01*
X146724609Y-51157000D01*
X146991813Y-51046321D01*
X147196321Y-50841813D01*
X147307000Y-50574609D01*
X147307000Y-50285391D01*
X147196321Y-50018187D01*
X146991813Y-49813679D01*
X146724609Y-49703000D01*
X146435391Y-49703000D01*
X146168187Y-49813679D01*
X145963679Y-50018187D01*
X145853000Y-50285391D01*
X134309378Y-50285391D01*
X134134609Y-50213000D01*
X133845391Y-50213000D01*
X133578187Y-50323679D01*
X133373679Y-50528187D01*
X133263000Y-50795391D01*
X87832743Y-50795391D01*
X87936321Y-50691813D01*
X88047000Y-50424609D01*
X88047000Y-50135391D01*
X87936321Y-49868187D01*
X87731813Y-49663679D01*
X87464609Y-49553000D01*
X87175391Y-49553000D01*
X86908187Y-49663679D01*
X86703679Y-49868187D01*
X86593000Y-50135391D01*
X75283525Y-50135391D01*
X75281813Y-50133679D01*
X75014609Y-50023000D01*
X74725391Y-50023000D01*
X74458187Y-50133679D01*
X74253679Y-50338187D01*
X74143000Y-50605391D01*
X54902000Y-50605391D01*
X54902000Y-48835391D01*
X76393000Y-48835391D01*
X76393000Y-49124609D01*
X76503679Y-49391813D01*
X76708187Y-49596321D01*
X76975391Y-49707000D01*
X77264609Y-49707000D01*
X77531813Y-49596321D01*
X77736321Y-49391813D01*
X77847000Y-49124609D01*
X77847000Y-48895391D01*
X80603000Y-48895391D01*
X80603000Y-49184609D01*
X80713679Y-49451813D01*
X80918187Y-49656321D01*
X81185391Y-49767000D01*
X81474609Y-49767000D01*
X81741813Y-49656321D01*
X81946321Y-49451813D01*
X82057000Y-49184609D01*
X82057000Y-48935391D01*
X84383000Y-48935391D01*
X84383000Y-49224609D01*
X84493679Y-49491813D01*
X84698187Y-49696321D01*
X84965391Y-49807000D01*
X85254609Y-49807000D01*
X85521813Y-49696321D01*
X85726321Y-49491813D01*
X85837000Y-49224609D01*
X85837000Y-48935391D01*
X85726321Y-48668187D01*
X85713525Y-48655391D01*
X129293000Y-48655391D01*
X129293000Y-48944609D01*
X129403679Y-49211813D01*
X129608187Y-49416321D01*
X129875391Y-49527000D01*
X130164609Y-49527000D01*
X130431813Y-49416321D01*
X130636321Y-49211813D01*
X130725965Y-48995391D01*
X135573000Y-48995391D01*
X135573000Y-49284609D01*
X135683679Y-49551813D01*
X135888187Y-49756321D01*
X136155391Y-49867000D01*
X136444609Y-49867000D01*
X136711813Y-49756321D01*
X136916321Y-49551813D01*
X137027000Y-49284609D01*
X137027000Y-49064100D01*
X139649644Y-49064100D01*
X139649644Y-49353318D01*
X139760323Y-49620522D01*
X139964831Y-49825030D01*
X140232035Y-49935709D01*
X140521253Y-49935709D01*
X140788457Y-49825030D01*
X140992965Y-49620522D01*
X141103644Y-49353318D01*
X141103644Y-49064100D01*
X141075184Y-48995391D01*
X143633000Y-48995391D01*
X143633000Y-49284609D01*
X143743679Y-49551813D01*
X143948187Y-49756321D01*
X144215391Y-49867000D01*
X144504609Y-49867000D01*
X144771813Y-49756321D01*
X144976321Y-49551813D01*
X145087000Y-49284609D01*
X145087000Y-48995391D01*
X144976321Y-48728187D01*
X144771813Y-48523679D01*
X144504609Y-48413000D01*
X144215391Y-48413000D01*
X143948187Y-48523679D01*
X143743679Y-48728187D01*
X143633000Y-48995391D01*
X141075184Y-48995391D01*
X140992965Y-48796896D01*
X140788457Y-48592388D01*
X140521253Y-48481709D01*
X140232035Y-48481709D01*
X139964831Y-48592388D01*
X139760323Y-48796896D01*
X139649644Y-49064100D01*
X137027000Y-49064100D01*
X137027000Y-48995391D01*
X136916321Y-48728187D01*
X136711813Y-48523679D01*
X136444609Y-48413000D01*
X136155391Y-48413000D01*
X135888187Y-48523679D01*
X135683679Y-48728187D01*
X135573000Y-48995391D01*
X130725965Y-48995391D01*
X130747000Y-48944609D01*
X130747000Y-48655391D01*
X130663504Y-48453813D01*
X130794496Y-48584805D01*
X131061700Y-48695484D01*
X131350918Y-48695484D01*
X131618122Y-48584805D01*
X131822630Y-48380297D01*
X131933309Y-48113093D01*
X131933309Y-47823875D01*
X131822630Y-47556671D01*
X131811329Y-47545370D01*
X132181514Y-47545370D01*
X132181514Y-47834588D01*
X132292193Y-48101792D01*
X132496701Y-48306300D01*
X132763905Y-48416979D01*
X133053123Y-48416979D01*
X133320327Y-48306300D01*
X133524835Y-48101792D01*
X133635514Y-47834588D01*
X133635514Y-47545370D01*
X133524835Y-47278166D01*
X133320327Y-47073658D01*
X133053123Y-46962979D01*
X132763905Y-46962979D01*
X132496701Y-47073658D01*
X132292193Y-47278166D01*
X132181514Y-47545370D01*
X131811329Y-47545370D01*
X131618122Y-47352163D01*
X131350918Y-47241484D01*
X131061700Y-47241484D01*
X130794496Y-47352163D01*
X130589988Y-47556671D01*
X130479309Y-47823875D01*
X130479309Y-48113093D01*
X130562805Y-48314671D01*
X130431813Y-48183679D01*
X130164609Y-48073000D01*
X129875391Y-48073000D01*
X129608187Y-48183679D01*
X129403679Y-48388187D01*
X129293000Y-48655391D01*
X85713525Y-48655391D01*
X85521813Y-48463679D01*
X85254609Y-48353000D01*
X84965391Y-48353000D01*
X84698187Y-48463679D01*
X84493679Y-48668187D01*
X84383000Y-48935391D01*
X82057000Y-48935391D01*
X82057000Y-48895391D01*
X81946321Y-48628187D01*
X81741813Y-48423679D01*
X81474609Y-48313000D01*
X81185391Y-48313000D01*
X80918187Y-48423679D01*
X80713679Y-48628187D01*
X80603000Y-48895391D01*
X77847000Y-48895391D01*
X77847000Y-48835391D01*
X77736321Y-48568187D01*
X77531813Y-48363679D01*
X77264609Y-48253000D01*
X76975391Y-48253000D01*
X76708187Y-48363679D01*
X76503679Y-48568187D01*
X76393000Y-48835391D01*
X54902000Y-48835391D01*
X54902000Y-45413308D01*
X77523010Y-45413308D01*
X77523010Y-45702526D01*
X77633689Y-45969730D01*
X77838197Y-46174238D01*
X78105401Y-46284917D01*
X78394619Y-46284917D01*
X78661823Y-46174238D01*
X78866331Y-45969730D01*
X78903268Y-45880555D01*
X79203945Y-45880555D01*
X79203945Y-46169773D01*
X79314624Y-46436977D01*
X79519132Y-46641485D01*
X79786336Y-46752164D01*
X80075554Y-46752164D01*
X80342758Y-46641485D01*
X80547266Y-46436977D01*
X80657945Y-46169773D01*
X80657945Y-45880555D01*
X80547266Y-45613351D01*
X80342758Y-45408843D01*
X80075554Y-45298164D01*
X79786336Y-45298164D01*
X79519132Y-45408843D01*
X79314624Y-45613351D01*
X79203945Y-45880555D01*
X78903268Y-45880555D01*
X78977010Y-45702526D01*
X78977010Y-45413308D01*
X78866331Y-45146104D01*
X78835618Y-45115391D01*
X80583000Y-45115391D01*
X80583000Y-45404609D01*
X80693679Y-45671813D01*
X80898187Y-45876321D01*
X81165391Y-45987000D01*
X81454609Y-45987000D01*
X81721813Y-45876321D01*
X81722711Y-45875423D01*
X96073000Y-45875423D01*
X96073000Y-46164641D01*
X96183679Y-46431845D01*
X96388187Y-46636353D01*
X96655391Y-46747032D01*
X96944609Y-46747032D01*
X97150706Y-46661664D01*
X129339273Y-46661664D01*
X129339273Y-46950882D01*
X129449952Y-47218086D01*
X129654460Y-47422594D01*
X129921664Y-47533273D01*
X130210882Y-47533273D01*
X130478086Y-47422594D01*
X130682594Y-47218086D01*
X130793273Y-46950882D01*
X130793273Y-46661664D01*
X130682594Y-46394460D01*
X130503525Y-46215391D01*
X130733000Y-46215391D01*
X130733000Y-46504609D01*
X130843679Y-46771813D01*
X131048187Y-46976321D01*
X131315391Y-47087000D01*
X131604609Y-47087000D01*
X131871813Y-46976321D01*
X132076321Y-46771813D01*
X132187000Y-46504609D01*
X132187000Y-46215391D01*
X132076321Y-45948187D01*
X131871813Y-45743679D01*
X131604609Y-45633000D01*
X131315391Y-45633000D01*
X131048187Y-45743679D01*
X130843679Y-45948187D01*
X130733000Y-46215391D01*
X130503525Y-46215391D01*
X130478086Y-46189952D01*
X130210882Y-46079273D01*
X129921664Y-46079273D01*
X129654460Y-46189952D01*
X129449952Y-46394460D01*
X129339273Y-46661664D01*
X97150706Y-46661664D01*
X97211813Y-46636353D01*
X97416321Y-46431845D01*
X97527000Y-46164641D01*
X97527000Y-45875423D01*
X97416321Y-45608219D01*
X97293493Y-45485391D01*
X97583000Y-45485391D01*
X97583000Y-45774609D01*
X97693679Y-46041813D01*
X97898187Y-46246321D01*
X98165391Y-46357000D01*
X98454609Y-46357000D01*
X98721813Y-46246321D01*
X98926321Y-46041813D01*
X99037000Y-45774609D01*
X99037000Y-45485391D01*
X98926321Y-45218187D01*
X98721813Y-45013679D01*
X98454609Y-44903000D01*
X98165391Y-44903000D01*
X97898187Y-45013679D01*
X97693679Y-45218187D01*
X97583000Y-45485391D01*
X97293493Y-45485391D01*
X97211813Y-45403711D01*
X96944609Y-45293032D01*
X96655391Y-45293032D01*
X96388187Y-45403711D01*
X96183679Y-45608219D01*
X96073000Y-45875423D01*
X81722711Y-45875423D01*
X81926321Y-45671813D01*
X82037000Y-45404609D01*
X82037000Y-45115391D01*
X81926321Y-44848187D01*
X81721813Y-44643679D01*
X81454609Y-44533000D01*
X81165391Y-44533000D01*
X80898187Y-44643679D01*
X80693679Y-44848187D01*
X80583000Y-45115391D01*
X78835618Y-45115391D01*
X78661823Y-44941596D01*
X78394619Y-44830917D01*
X78105401Y-44830917D01*
X77838197Y-44941596D01*
X77633689Y-45146104D01*
X77523010Y-45413308D01*
X54902000Y-45413308D01*
X54902000Y-43007133D01*
X79622263Y-43112285D01*
G04 #@! TD*
M02*
