M48
;DRILL file {KiCad (5.0.0-rc2-35-gda6600525)} date 05/30/18 11:12:47
;FORMAT={-:-/ absolute / metric / decimal}
FMAT,2
METRIC,TZ
T1C0.300
%
G90
G05
M71
T1
X63.94Y-76.13
X66.94Y-76.18
X67.77Y-53.44
X68.28Y-56.83
X68.402Y-58.43
X68.563Y-60.03
X69.53Y-54.17
X69.85Y-61.898
X69.868Y-60.522
X69.88Y-58.843
X69.92Y-57.243
X69.97Y-76.07
X70.4Y-52.19
X71.054Y-54.437
X71.261Y-57.887
X71.272Y-59.522
X71.373Y-61.122
X71.732Y-53.19
X72.04Y-54.696
X73.99Y-64.48
X74.13Y-65.92
X74.78Y-67.3
X74.84Y-57.31
X74.87Y-50.75
X74.87Y-56.29
X74.879Y-54.5
X74.89Y-55.3
X74.914Y-53.701
X75.72Y-66.09
X76.855Y-66.69
X76.92Y-76.03
X77.12Y-48.98
X77.14Y-65.45
X77.189Y-68.07
X78.25Y-45.558
X79.01Y-69.41
X79.07Y-61.5
X79.409Y-66.44
X79.42Y-67.72
X79.6Y-65.11
X79.91Y-43.78
X79.931Y-46.025
X79.95Y-76.221
X80.36Y-49.03
X80.4Y-69.1
X80.496Y-67.646
X81.14Y-61.52
X81.31Y-45.26
X81.33Y-49.04
X81.834Y-69.084
X82.24Y-49.06
X82.59Y-67.901
X82.95Y-44.55
X82.97Y-76.06
X83.16Y-61.48
X84.33Y-65.7
X84.452Y-66.894
X85.11Y-49.08
X85.23Y-75.91
X86.393Y-74.891
X87.Y-55.304
X87.08Y-54.508
X87.08Y-56.1
X87.144Y-53.711
X87.32Y-50.28
X87.738Y-73.678
X87.94Y-76.1
X90.46Y-57.56
X90.877Y-54.269
X90.96Y-76.13
X91.64Y-52.77
X92.3Y-56.46
X92.37Y-54.269
X93.31Y-58.78
X94.01Y-76.15
X94.171Y-53.669
X94.986Y-57.447
X96.687Y-56.925
X96.8Y-46.02
X98.03Y-57.62
X98.31Y-45.63
X98.92Y-76.17
X99.3Y-58.85
X100.19Y-45.02
X101.9Y-76.17
X102.1Y-44.61
X104.94Y-76.24
X106.86Y-54.71
X107.35Y-53.06
X108.02Y-69.02
X108.43Y-54.37
X108.57Y-70.42
X108.99Y-52.57
X109.196Y-60.804
X109.43Y-71.98
X110.06Y-53.86
X110.09Y-68.727
X110.364Y-61.406
X110.51Y-70.106
X111.09Y-62.55
X111.414Y-55.86
X112.178Y-63.945
X112.48Y-56.83
X113.41Y-64.81
X113.94Y-57.52
X114.5Y-66.07
X115.35Y-58.18
X116.Y-66.7
X116.62Y-58.77
X117.56Y-67.33
X119.05Y-68.15
X120.56Y-68.65
X121.31Y-55.67
X123.849Y-52.784
X123.96Y-76.22
X125.048Y-51.618
X125.51Y-56.55
X126.96Y-76.17
X128.211Y-59.891
X128.252Y-58.152
X128.72Y-53.93
X129.37Y-57.05
X129.37Y-58.9
X129.39Y-60.6
X129.85Y-63.2
X129.94Y-76.17
X130.02Y-48.8
X130.066Y-46.806
X130.23Y-53.91
X130.65Y-56.55
X130.67Y-58.35
X130.72Y-60.
X130.77Y-62.04
X131.206Y-47.968
X131.26Y-54.48
X131.46Y-46.36
X132.909Y-47.69
X133.47Y-64.49
X133.99Y-50.94
X134.073Y-57.8
X134.243Y-55.843
X134.243Y-55.043
X134.25Y-56.66
X134.254Y-54.243
X134.41Y-66.22
X135.04Y-64.85
X135.78Y-67.286
X135.938Y-66.086
X136.3Y-49.14
X136.38Y-68.61
X136.94Y-76.18
X137.85Y-61.75
X138.35Y-56.264
X138.595Y-64.872
X138.65Y-68.29
X138.82Y-61.72
X139.295Y-67.24
X139.31Y-66.44
X139.561Y-58.04
X139.583Y-49.11
X139.99Y-76.15
X140.25Y-61.69
X140.281Y-68.309
X140.35Y-64.65
X140.377Y-49.209
X141.21Y-49.2
X142.28Y-61.65
X142.96Y-76.15
X143.51Y-55.85
X143.578Y-65.904
X143.595Y-67.155
X144.36Y-49.14
X146.236Y-54.68
X146.241Y-55.48
X146.32Y-53.85
X146.377Y-56.32
X146.49Y-57.52
X146.58Y-50.43
X146.83Y-65.32
X147.97Y-76.17
X148.27Y-64.54
X150.8Y-54.55
X150.95Y-76.17
X151.51Y-53.34
X152.29Y-54.64
X152.79Y-71.61
X153.959Y-53.901
X153.97Y-76.13
X154.91Y-71.14
X158.97Y-76.13
X161.93Y-76.08
X164.95Y-76.09
T0
M30
