G04 #@! TF.GenerationSoftware,KiCad,Pcbnew,(5.0.0-rc2-35-gda6600525)*
G04 #@! TF.CreationDate,2018-05-30T11:44:01-07:00*
G04 #@! TF.ProjectId,ram-based-register-card,72616D2D62617365642D726567697374,rev?*
G04 #@! TF.SameCoordinates,Original*
G04 #@! TF.FileFunction,Copper,L2,Inr,Signal*
G04 #@! TF.FilePolarity,Positive*
%FSLAX46Y46*%
G04 Gerber Fmt 4.6, Leading zero omitted, Abs format (unit mm)*
G04 Created by KiCad (PCBNEW (5.0.0-rc2-35-gda6600525)) date 05/30/18 11:44:01*
%MOMM*%
%LPD*%
G01*
G04 APERTURE LIST*
G04 #@! TA.AperFunction,ViaPad*
%ADD10C,0.600000*%
G04 #@! TD*
G04 #@! TA.AperFunction,Conductor*
%ADD11C,0.250000*%
G04 #@! TD*
G04 APERTURE END LIST*
D10*
G04 #@! TO.N,/rd[31]*
X68280000Y-56830010D03*
G04 #@! TO.N,/rd[30]*
X69919925Y-57242549D03*
G04 #@! TO.N,/rd[29]*
X71260733Y-57887277D03*
G04 #@! TO.N,/rd[28]*
X68402447Y-58430033D03*
G04 #@! TO.N,/rd[27]*
X69880041Y-58842572D03*
G04 #@! TO.N,/rd[26]*
X71272193Y-59521901D03*
G04 #@! TO.N,/rd[25]*
X68563382Y-60030056D03*
G04 #@! TO.N,/rd[24]*
X69867801Y-60521922D03*
G04 #@! TO.N,/rd[23]*
X71372662Y-61121924D03*
G04 #@! TO.N,/rd[22]*
X69850000Y-61898000D03*
G04 #@! TO.N,/rd[21]*
X73990000Y-64480000D03*
G04 #@! TO.N,/rd[20]*
X74130000Y-65920000D03*
G04 #@! TO.N,/rd[19]*
X74780000Y-67300000D03*
G04 #@! TO.N,/rd[18]*
X75720000Y-66090000D03*
G04 #@! TO.N,/rd[17]*
X77188909Y-68069990D03*
G04 #@! TO.N,/rd[16]*
X79420000Y-67719975D03*
G04 #@! TO.N,/rd[15]*
X130650000Y-56550010D03*
G04 #@! TO.N,/rd[14]*
X129370000Y-57050000D03*
G04 #@! TO.N,/rd[13]*
X128252117Y-58152127D03*
G04 #@! TO.N,/rd[12]*
X130670000Y-58349990D03*
G04 #@! TO.N,/rd[11]*
X129370000Y-58900010D03*
G04 #@! TO.N,/rd[10]*
X128210672Y-59890672D03*
G04 #@! TO.N,/rd[9]*
X130720000Y-59999990D03*
G04 #@! TO.N,/rd[8]*
X129390000Y-60600000D03*
G04 #@! TO.N,/rd[7]*
X129850000Y-63200000D03*
G04 #@! TO.N,/rd[6]*
X130770000Y-62040000D03*
G04 #@! TO.N,/rd[5]*
X133470000Y-64490000D03*
G04 #@! TO.N,/rd[4]*
X135040000Y-64850000D03*
G04 #@! TO.N,/rd[3]*
X134410000Y-66220000D03*
G04 #@! TO.N,/rd[2]*
X136380000Y-68610000D03*
G04 #@! TO.N,/rd[1]*
X138595022Y-64872195D03*
G04 #@! TO.N,/rd[0]*
X138650000Y-68290000D03*
G04 #@! TO.N,/rda[4]*
X132908514Y-47689979D03*
X113410000Y-64810000D03*
X79910000Y-43780000D03*
G04 #@! TO.N,/rda[3]*
X78250010Y-45557917D03*
X131206309Y-47968484D03*
X112177953Y-63944997D03*
G04 #@! TO.N,/rda[2]*
X130020000Y-48800000D03*
X111089924Y-62550000D03*
X82950000Y-44550000D03*
G04 #@! TO.N,/rda[1]*
X131460000Y-46360000D03*
X110363628Y-61406372D03*
X81310000Y-45260000D03*
G04 #@! TO.N,/rda[0]*
X130066273Y-46806273D03*
X109195778Y-60804222D03*
X79930945Y-46025164D03*
G04 #@! TO.N,/rs2a[4]*
X108020000Y-69020000D03*
X111414426Y-55860010D03*
G04 #@! TO.N,/rs2a[3]*
X108569990Y-70420000D03*
X112480000Y-56830000D03*
G04 #@! TO.N,/rs2a[2]*
X109430000Y-71980000D03*
X113940000Y-57520000D03*
G04 #@! TO.N,/rs2a[1]*
X115350000Y-58180000D03*
X110090010Y-68726582D03*
G04 #@! TO.N,/rs2a[0]*
X110509968Y-70105728D03*
X116620000Y-58770000D03*
G04 #@! TO.N,/rs1a[4]*
X114500000Y-66070000D03*
X106860000Y-54710000D03*
G04 #@! TO.N,/rs1a[3]*
X116000000Y-66700000D03*
X107350000Y-53060000D03*
X96800000Y-46020032D03*
G04 #@! TO.N,/rs1a[2]*
X117560000Y-67330000D03*
X108430000Y-54370000D03*
X98310000Y-45630000D03*
G04 #@! TO.N,/rs1a[1]*
X119050000Y-68150000D03*
X108990000Y-52570000D03*
X100190002Y-45020000D03*
G04 #@! TO.N,/rs1a[0]*
X120560000Y-68650000D03*
X110060000Y-53859968D03*
X102100000Y-44610000D03*
G04 #@! TO.N,GND*
X63940000Y-76130000D03*
X69970000Y-76070000D03*
X76920000Y-76030000D03*
X82970000Y-76060000D03*
X87940000Y-76100000D03*
X94010000Y-76150000D03*
X98920000Y-76170000D03*
X104940000Y-76240000D03*
X87144341Y-53710572D03*
X86999983Y-55303999D03*
X87320000Y-50280000D03*
X85110000Y-49080000D03*
X74870000Y-50750000D03*
X69530000Y-54170000D03*
X83160000Y-61480000D03*
X81140000Y-61520000D03*
X79070000Y-61500000D03*
X76854622Y-66690012D03*
X90460223Y-57560033D03*
X123960000Y-76220000D03*
X129940000Y-76170000D03*
X136940000Y-76180000D03*
X142960000Y-76150000D03*
X147970000Y-76170000D03*
X153970000Y-76130000D03*
X158970000Y-76130000D03*
X164950000Y-76090000D03*
X139295024Y-67240000D03*
X144360000Y-49140000D03*
X136300000Y-49140000D03*
X133990000Y-50940000D03*
X128720000Y-53930000D03*
X142280000Y-61650000D03*
X140280607Y-68309078D03*
X140249990Y-61690000D03*
X143595023Y-67155033D03*
X146580000Y-50430000D03*
X81330000Y-49040000D03*
X140376644Y-49208709D03*
X77120000Y-48980000D03*
X74890000Y-55300000D03*
X74914302Y-53700845D03*
X74840000Y-57310000D03*
X134072625Y-57800272D03*
X134243114Y-55843336D03*
X134253568Y-54243378D03*
X135779886Y-67285770D03*
X80495703Y-67645753D03*
X79409048Y-66440160D03*
X84451575Y-66894249D03*
X146490000Y-57519872D03*
X146320000Y-53850000D03*
X146240846Y-55480005D03*
X138820000Y-61720000D03*
X92370341Y-54269282D03*
X152290000Y-54640011D03*
G04 #@! TO.N,VCC*
X66940000Y-76180000D03*
X90960000Y-76130000D03*
X101900000Y-76170000D03*
X79950000Y-76221465D03*
X87079652Y-54507964D03*
X87080000Y-56100000D03*
X84330000Y-65700000D03*
X79600000Y-65110000D03*
X77140000Y-65450000D03*
X71054222Y-54437258D03*
X126960000Y-76170000D03*
X139990000Y-76150000D03*
X150950000Y-76170000D03*
X161930000Y-76080000D03*
X139309998Y-66440000D03*
X130230000Y-53910000D03*
X140350000Y-64650000D03*
X143578399Y-65904042D03*
X150800000Y-54550010D03*
X80360000Y-49030000D03*
X82239998Y-49060000D03*
X141210000Y-49200000D03*
X139582754Y-49109928D03*
X74878742Y-54500067D03*
X74870000Y-56290000D03*
X134243411Y-55043325D03*
X134249998Y-56660000D03*
X135938263Y-66085759D03*
X82590053Y-67900674D03*
X146377043Y-56319861D03*
X146235639Y-54680010D03*
X137850000Y-61750000D03*
X90877326Y-54269279D03*
G04 #@! TO.N,/~rd_bhh*
X71731549Y-53189990D03*
X79010000Y-69410000D03*
X85230000Y-75910000D03*
G04 #@! TO.N,/~rd_bhl*
X67770000Y-53440000D03*
X70400000Y-52190000D03*
X80400000Y-69100000D03*
X86393015Y-74891126D03*
G04 #@! TO.N,/~rd_wr*
X87737822Y-73677822D03*
X99300000Y-58850000D03*
X121310000Y-55670000D03*
X125510000Y-56550000D03*
X131260000Y-54480000D03*
X81833976Y-69083976D03*
X93310001Y-58780000D03*
X72040000Y-54695790D03*
G04 #@! TO.N,/~rs2_bhh*
X91640000Y-52770000D03*
G04 #@! TO.N,/~rs2_bhl*
X94170728Y-53669272D03*
G04 #@! TO.N,/~rs2_rd*
X98030000Y-57620000D03*
X123848899Y-52784057D03*
X94986095Y-57447292D03*
G04 #@! TO.N,/~rs1_rd*
X92300000Y-56460000D03*
X143510000Y-55849990D03*
X125048299Y-51618054D03*
X96686647Y-56925365D03*
G04 #@! TO.N,/~rs2_bll*
X153959272Y-53900728D03*
G04 #@! TO.N,/~rs2_blh*
X151510000Y-53340000D03*
G04 #@! TO.N,/~rd_blh*
X146830000Y-65320000D03*
X139560544Y-58040011D03*
X152280000Y-70360000D03*
G04 #@! TO.N,/~rd_bll*
X148269891Y-64540000D03*
X138350000Y-56263767D03*
X154840000Y-70410004D03*
G04 #@! TD*
D11*
G04 #@! TO.N,GND*
G36*
X179350001Y-76800000D02*
X175950000Y-76800000D01*
X175950000Y-75005679D01*
X175944458Y-74977818D01*
X175900898Y-74633001D01*
X175893264Y-74607476D01*
X175891174Y-74580916D01*
X175866019Y-74507445D01*
X175673494Y-74071962D01*
X175654035Y-74042339D01*
X175639962Y-74009818D01*
X175592366Y-73948456D01*
X175269160Y-73598815D01*
X175241158Y-73577094D01*
X175217307Y-73550883D01*
X175152400Y-73508247D01*
X174733365Y-73282148D01*
X174699838Y-73270669D01*
X174668782Y-73253596D01*
X174593564Y-73234283D01*
X174123884Y-73156107D01*
X174097241Y-73156107D01*
X174071198Y-73150500D01*
X173993601Y-73153548D01*
X173633001Y-73199102D01*
X173607476Y-73206736D01*
X173580916Y-73208826D01*
X173507445Y-73233981D01*
X173071962Y-73426506D01*
X173042339Y-73445965D01*
X173009818Y-73460038D01*
X172948456Y-73507634D01*
X172598815Y-73830840D01*
X172577094Y-73858842D01*
X172550883Y-73882693D01*
X172508247Y-73947600D01*
X172282148Y-74366635D01*
X172270669Y-74400162D01*
X172253596Y-74431218D01*
X172234283Y-74506436D01*
X172157264Y-74969167D01*
X172150001Y-75005679D01*
X172150000Y-82650000D01*
X134850000Y-82650000D01*
X134850000Y-76015734D01*
X139315000Y-76015734D01*
X139315000Y-76284266D01*
X139417763Y-76532357D01*
X139607643Y-76722237D01*
X139855734Y-76825000D01*
X140124266Y-76825000D01*
X140372357Y-76722237D01*
X140562237Y-76532357D01*
X140665000Y-76284266D01*
X140665000Y-76035734D01*
X150275000Y-76035734D01*
X150275000Y-76304266D01*
X150377763Y-76552357D01*
X150567643Y-76742237D01*
X150815734Y-76845000D01*
X151084266Y-76845000D01*
X151332357Y-76742237D01*
X151522237Y-76552357D01*
X151625000Y-76304266D01*
X151625000Y-76035734D01*
X151587721Y-75945734D01*
X161255000Y-75945734D01*
X161255000Y-76214266D01*
X161357763Y-76462357D01*
X161547643Y-76652237D01*
X161795734Y-76755000D01*
X162064266Y-76755000D01*
X162312357Y-76652237D01*
X162502237Y-76462357D01*
X162605000Y-76214266D01*
X162605000Y-75945734D01*
X162502237Y-75697643D01*
X162312357Y-75507763D01*
X162064266Y-75405000D01*
X161795734Y-75405000D01*
X161547643Y-75507763D01*
X161357763Y-75697643D01*
X161255000Y-75945734D01*
X151587721Y-75945734D01*
X151522237Y-75787643D01*
X151332357Y-75597763D01*
X151084266Y-75495000D01*
X150815734Y-75495000D01*
X150567643Y-75597763D01*
X150377763Y-75787643D01*
X150275000Y-76035734D01*
X140665000Y-76035734D01*
X140665000Y-76015734D01*
X140562237Y-75767643D01*
X140372357Y-75577763D01*
X140124266Y-75475000D01*
X139855734Y-75475000D01*
X139607643Y-75577763D01*
X139417763Y-75767643D01*
X139315000Y-76015734D01*
X134850000Y-76015734D01*
X134850000Y-75005679D01*
X134823891Y-74874419D01*
X134823890Y-74874418D01*
X134769040Y-74598666D01*
X134769040Y-74598660D01*
X134724748Y-74491730D01*
X134701848Y-74436444D01*
X134701845Y-74436441D01*
X134495912Y-74128242D01*
X134371756Y-74004086D01*
X134063556Y-73798153D01*
X134063555Y-73798152D01*
X133946608Y-73749711D01*
X133901340Y-73730960D01*
X133901339Y-73730960D01*
X133537797Y-73658648D01*
X133537791Y-73658646D01*
X133450000Y-73658647D01*
X133362208Y-73658646D01*
X133362202Y-73658649D01*
X132998666Y-73730960D01*
X132998660Y-73730960D01*
X132918425Y-73764195D01*
X132836444Y-73798152D01*
X132836441Y-73798155D01*
X132528244Y-74004086D01*
X132404088Y-74128242D01*
X132198153Y-74436444D01*
X132198152Y-74436445D01*
X132161992Y-74523744D01*
X132130961Y-74598659D01*
X132130960Y-74598661D01*
X132058647Y-74962210D01*
X132050001Y-75005679D01*
X132050000Y-82650000D01*
X121750000Y-82650000D01*
X121750000Y-76035734D01*
X126285000Y-76035734D01*
X126285000Y-76304266D01*
X126387763Y-76552357D01*
X126577643Y-76742237D01*
X126825734Y-76845000D01*
X127094266Y-76845000D01*
X127342357Y-76742237D01*
X127532237Y-76552357D01*
X127635000Y-76304266D01*
X127635000Y-76035734D01*
X127532237Y-75787643D01*
X127342357Y-75597763D01*
X127094266Y-75495000D01*
X126825734Y-75495000D01*
X126577643Y-75597763D01*
X126387763Y-75787643D01*
X126285000Y-76035734D01*
X121750000Y-76035734D01*
X121750000Y-75005679D01*
X121744458Y-74977818D01*
X121700898Y-74633001D01*
X121693264Y-74607476D01*
X121691174Y-74580916D01*
X121666019Y-74507445D01*
X121473494Y-74071962D01*
X121454035Y-74042339D01*
X121439962Y-74009818D01*
X121392366Y-73948456D01*
X121069160Y-73598815D01*
X121041158Y-73577094D01*
X121017307Y-73550883D01*
X120952400Y-73508247D01*
X120533365Y-73282148D01*
X120499838Y-73270669D01*
X120468782Y-73253596D01*
X120393564Y-73234283D01*
X119930864Y-73157269D01*
X119894321Y-73150000D01*
X114005679Y-73150000D01*
X113977818Y-73155542D01*
X113633001Y-73199102D01*
X113607476Y-73206736D01*
X113580916Y-73208826D01*
X113507445Y-73233981D01*
X113071962Y-73426506D01*
X113042339Y-73445965D01*
X113009818Y-73460038D01*
X112948456Y-73507634D01*
X112598815Y-73830840D01*
X112577094Y-73858842D01*
X112550883Y-73882693D01*
X112508247Y-73947600D01*
X112282148Y-74366635D01*
X112270669Y-74400162D01*
X112253596Y-74431218D01*
X112234283Y-74506436D01*
X112157264Y-74969167D01*
X112150001Y-75005679D01*
X112150000Y-82650000D01*
X74850000Y-82650000D01*
X74850000Y-76087199D01*
X79275000Y-76087199D01*
X79275000Y-76355731D01*
X79377763Y-76603822D01*
X79567643Y-76793702D01*
X79815734Y-76896465D01*
X80084266Y-76896465D01*
X80332357Y-76793702D01*
X80522237Y-76603822D01*
X80625000Y-76355731D01*
X80625000Y-76087199D01*
X80522237Y-75839108D01*
X80458863Y-75775734D01*
X84555000Y-75775734D01*
X84555000Y-76044266D01*
X84657763Y-76292357D01*
X84847643Y-76482237D01*
X85095734Y-76585000D01*
X85364266Y-76585000D01*
X85612357Y-76482237D01*
X85802237Y-76292357D01*
X85905000Y-76044266D01*
X85905000Y-75995734D01*
X90285000Y-75995734D01*
X90285000Y-76264266D01*
X90387763Y-76512357D01*
X90577643Y-76702237D01*
X90825734Y-76805000D01*
X91094266Y-76805000D01*
X91342357Y-76702237D01*
X91532237Y-76512357D01*
X91635000Y-76264266D01*
X91635000Y-76035734D01*
X101225000Y-76035734D01*
X101225000Y-76304266D01*
X101327763Y-76552357D01*
X101517643Y-76742237D01*
X101765734Y-76845000D01*
X102034266Y-76845000D01*
X102282357Y-76742237D01*
X102472237Y-76552357D01*
X102575000Y-76304266D01*
X102575000Y-76035734D01*
X102472237Y-75787643D01*
X102282357Y-75597763D01*
X102034266Y-75495000D01*
X101765734Y-75495000D01*
X101517643Y-75597763D01*
X101327763Y-75787643D01*
X101225000Y-76035734D01*
X91635000Y-76035734D01*
X91635000Y-75995734D01*
X91532237Y-75747643D01*
X91342357Y-75557763D01*
X91094266Y-75455000D01*
X90825734Y-75455000D01*
X90577643Y-75557763D01*
X90387763Y-75747643D01*
X90285000Y-75995734D01*
X85905000Y-75995734D01*
X85905000Y-75775734D01*
X85802237Y-75527643D01*
X85612357Y-75337763D01*
X85364266Y-75235000D01*
X85095734Y-75235000D01*
X84847643Y-75337763D01*
X84657763Y-75527643D01*
X84555000Y-75775734D01*
X80458863Y-75775734D01*
X80332357Y-75649228D01*
X80084266Y-75546465D01*
X79815734Y-75546465D01*
X79567643Y-75649228D01*
X79377763Y-75839108D01*
X79275000Y-76087199D01*
X74850000Y-76087199D01*
X74850000Y-75005679D01*
X74823891Y-74874419D01*
X74823890Y-74874418D01*
X74800507Y-74756860D01*
X85718015Y-74756860D01*
X85718015Y-75025392D01*
X85820778Y-75273483D01*
X86010658Y-75463363D01*
X86258749Y-75566126D01*
X86527281Y-75566126D01*
X86775372Y-75463363D01*
X86965252Y-75273483D01*
X87068015Y-75025392D01*
X87068015Y-74756860D01*
X86965252Y-74508769D01*
X86775372Y-74318889D01*
X86527281Y-74216126D01*
X86258749Y-74216126D01*
X86010658Y-74318889D01*
X85820778Y-74508769D01*
X85718015Y-74756860D01*
X74800507Y-74756860D01*
X74769040Y-74598666D01*
X74769040Y-74598660D01*
X74724748Y-74491730D01*
X74701848Y-74436444D01*
X74701845Y-74436441D01*
X74495912Y-74128242D01*
X74371756Y-74004086D01*
X74063556Y-73798153D01*
X74063555Y-73798152D01*
X73946608Y-73749711D01*
X73901340Y-73730960D01*
X73901339Y-73730960D01*
X73537797Y-73658648D01*
X73537791Y-73658646D01*
X73450000Y-73658647D01*
X73362208Y-73658646D01*
X73362202Y-73658649D01*
X72998666Y-73730960D01*
X72998660Y-73730960D01*
X72918425Y-73764195D01*
X72836444Y-73798152D01*
X72836441Y-73798155D01*
X72528244Y-74004086D01*
X72404088Y-74128242D01*
X72198153Y-74436444D01*
X72198152Y-74436445D01*
X72161992Y-74523744D01*
X72130961Y-74598659D01*
X72130960Y-74598661D01*
X72058647Y-74962210D01*
X72050001Y-75005679D01*
X72050000Y-82650000D01*
X61750000Y-82650000D01*
X61750000Y-76045734D01*
X66265000Y-76045734D01*
X66265000Y-76314266D01*
X66367763Y-76562357D01*
X66557643Y-76752237D01*
X66805734Y-76855000D01*
X67074266Y-76855000D01*
X67322357Y-76752237D01*
X67512237Y-76562357D01*
X67615000Y-76314266D01*
X67615000Y-76045734D01*
X67512237Y-75797643D01*
X67322357Y-75607763D01*
X67074266Y-75505000D01*
X66805734Y-75505000D01*
X66557643Y-75607763D01*
X66367763Y-75797643D01*
X66265000Y-76045734D01*
X61750000Y-76045734D01*
X61750000Y-75005679D01*
X61744458Y-74977818D01*
X61700898Y-74633001D01*
X61693264Y-74607476D01*
X61691174Y-74580916D01*
X61666019Y-74507445D01*
X61473494Y-74071962D01*
X61454035Y-74042339D01*
X61439962Y-74009818D01*
X61392366Y-73948456D01*
X61069160Y-73598815D01*
X61041158Y-73577094D01*
X61017307Y-73550883D01*
X61006153Y-73543556D01*
X87062822Y-73543556D01*
X87062822Y-73812088D01*
X87165585Y-74060179D01*
X87355465Y-74250059D01*
X87603556Y-74352822D01*
X87872088Y-74352822D01*
X88120179Y-74250059D01*
X88310059Y-74060179D01*
X88412822Y-73812088D01*
X88412822Y-73543556D01*
X88310059Y-73295465D01*
X88120179Y-73105585D01*
X87872088Y-73002822D01*
X87603556Y-73002822D01*
X87355465Y-73105585D01*
X87165585Y-73295465D01*
X87062822Y-73543556D01*
X61006153Y-73543556D01*
X60952400Y-73508247D01*
X60533365Y-73282148D01*
X60499838Y-73270669D01*
X60468782Y-73253596D01*
X60393564Y-73234283D01*
X59923884Y-73156107D01*
X59897241Y-73156107D01*
X59871198Y-73150500D01*
X59793601Y-73153548D01*
X59433001Y-73199102D01*
X59407476Y-73206736D01*
X59380916Y-73208826D01*
X59307445Y-73233981D01*
X58871962Y-73426506D01*
X58842339Y-73445965D01*
X58809818Y-73460038D01*
X58748456Y-73507634D01*
X58398815Y-73830840D01*
X58377094Y-73858842D01*
X58350883Y-73882693D01*
X58308247Y-73947600D01*
X58082148Y-74366635D01*
X58070669Y-74400162D01*
X58053596Y-74431218D01*
X58034283Y-74506436D01*
X57957268Y-74969142D01*
X57950000Y-75005680D01*
X57950001Y-76850000D01*
X54850000Y-76850000D01*
X54850000Y-71845734D01*
X108755000Y-71845734D01*
X108755000Y-72114266D01*
X108857763Y-72362357D01*
X109047643Y-72552237D01*
X109295734Y-72655000D01*
X109564266Y-72655000D01*
X109812357Y-72552237D01*
X110002237Y-72362357D01*
X110105000Y-72114266D01*
X110105000Y-71845734D01*
X110002237Y-71597643D01*
X109812357Y-71407763D01*
X109564266Y-71305000D01*
X109295734Y-71305000D01*
X109047643Y-71407763D01*
X108857763Y-71597643D01*
X108755000Y-71845734D01*
X54850000Y-71845734D01*
X54850000Y-70285734D01*
X107894990Y-70285734D01*
X107894990Y-70554266D01*
X107997753Y-70802357D01*
X108187633Y-70992237D01*
X108435724Y-71095000D01*
X108704256Y-71095000D01*
X108952347Y-70992237D01*
X109142227Y-70802357D01*
X109244990Y-70554266D01*
X109244990Y-70285734D01*
X109142227Y-70037643D01*
X109076046Y-69971462D01*
X109834968Y-69971462D01*
X109834968Y-70239994D01*
X109937731Y-70488085D01*
X110127611Y-70677965D01*
X110375702Y-70780728D01*
X110644234Y-70780728D01*
X110892325Y-70677965D01*
X111082205Y-70488085D01*
X111184968Y-70239994D01*
X111184968Y-70225734D01*
X151605000Y-70225734D01*
X151605000Y-70494266D01*
X151707763Y-70742357D01*
X151897643Y-70932237D01*
X152145734Y-71035000D01*
X152414266Y-71035000D01*
X152662357Y-70932237D01*
X152852237Y-70742357D01*
X152955000Y-70494266D01*
X152955000Y-70275738D01*
X154165000Y-70275738D01*
X154165000Y-70544270D01*
X154267763Y-70792361D01*
X154457643Y-70982241D01*
X154705734Y-71085004D01*
X154974266Y-71085004D01*
X155222357Y-70982241D01*
X155412237Y-70792361D01*
X155515000Y-70544270D01*
X155515000Y-70275738D01*
X155412237Y-70027647D01*
X155222357Y-69837767D01*
X154974266Y-69735004D01*
X154705734Y-69735004D01*
X154457643Y-69837767D01*
X154267763Y-70027647D01*
X154165000Y-70275738D01*
X152955000Y-70275738D01*
X152955000Y-70225734D01*
X152852237Y-69977643D01*
X152662357Y-69787763D01*
X152414266Y-69685000D01*
X152145734Y-69685000D01*
X151897643Y-69787763D01*
X151707763Y-69977643D01*
X151605000Y-70225734D01*
X111184968Y-70225734D01*
X111184968Y-69971462D01*
X111082205Y-69723371D01*
X110892325Y-69533491D01*
X110644234Y-69430728D01*
X110375702Y-69430728D01*
X110127611Y-69533491D01*
X109937731Y-69723371D01*
X109834968Y-69971462D01*
X109076046Y-69971462D01*
X108952347Y-69847763D01*
X108704256Y-69745000D01*
X108435724Y-69745000D01*
X108187633Y-69847763D01*
X107997753Y-70037643D01*
X107894990Y-70285734D01*
X54850000Y-70285734D01*
X54850000Y-69275734D01*
X78335000Y-69275734D01*
X78335000Y-69544266D01*
X78437763Y-69792357D01*
X78627643Y-69982237D01*
X78875734Y-70085000D01*
X79144266Y-70085000D01*
X79392357Y-69982237D01*
X79582237Y-69792357D01*
X79685000Y-69544266D01*
X79685000Y-69275734D01*
X79582237Y-69027643D01*
X79520328Y-68965734D01*
X79725000Y-68965734D01*
X79725000Y-69234266D01*
X79827763Y-69482357D01*
X80017643Y-69672237D01*
X80265734Y-69775000D01*
X80534266Y-69775000D01*
X80782357Y-69672237D01*
X80972237Y-69482357D01*
X81075000Y-69234266D01*
X81075000Y-68965734D01*
X81068363Y-68949710D01*
X81158976Y-68949710D01*
X81158976Y-69218242D01*
X81261739Y-69466333D01*
X81451619Y-69656213D01*
X81699710Y-69758976D01*
X81968242Y-69758976D01*
X82216333Y-69656213D01*
X82406213Y-69466333D01*
X82508976Y-69218242D01*
X82508976Y-68949710D01*
X82482477Y-68885734D01*
X107345000Y-68885734D01*
X107345000Y-69154266D01*
X107447763Y-69402357D01*
X107637643Y-69592237D01*
X107885734Y-69695000D01*
X108154266Y-69695000D01*
X108402357Y-69592237D01*
X108592237Y-69402357D01*
X108695000Y-69154266D01*
X108695000Y-68885734D01*
X108592237Y-68637643D01*
X108546910Y-68592316D01*
X109415010Y-68592316D01*
X109415010Y-68860848D01*
X109517773Y-69108939D01*
X109707653Y-69298819D01*
X109955744Y-69401582D01*
X110224276Y-69401582D01*
X110472367Y-69298819D01*
X110662247Y-69108939D01*
X110765010Y-68860848D01*
X110765010Y-68592316D01*
X110662247Y-68344225D01*
X110472367Y-68154345D01*
X110224276Y-68051582D01*
X109955744Y-68051582D01*
X109707653Y-68154345D01*
X109517773Y-68344225D01*
X109415010Y-68592316D01*
X108546910Y-68592316D01*
X108402357Y-68447763D01*
X108154266Y-68345000D01*
X107885734Y-68345000D01*
X107637643Y-68447763D01*
X107447763Y-68637643D01*
X107345000Y-68885734D01*
X82482477Y-68885734D01*
X82406213Y-68701619D01*
X82216333Y-68511739D01*
X81968242Y-68408976D01*
X81699710Y-68408976D01*
X81451619Y-68511739D01*
X81261739Y-68701619D01*
X81158976Y-68949710D01*
X81068363Y-68949710D01*
X80972237Y-68717643D01*
X80782357Y-68527763D01*
X80534266Y-68425000D01*
X80265734Y-68425000D01*
X80017643Y-68527763D01*
X79827763Y-68717643D01*
X79725000Y-68965734D01*
X79520328Y-68965734D01*
X79392357Y-68837763D01*
X79144266Y-68735000D01*
X78875734Y-68735000D01*
X78627643Y-68837763D01*
X78437763Y-69027643D01*
X78335000Y-69275734D01*
X54850000Y-69275734D01*
X54850000Y-67165734D01*
X74105000Y-67165734D01*
X74105000Y-67434266D01*
X74207763Y-67682357D01*
X74397643Y-67872237D01*
X74645734Y-67975000D01*
X74914266Y-67975000D01*
X75009086Y-67935724D01*
X76513909Y-67935724D01*
X76513909Y-68204256D01*
X76616672Y-68452347D01*
X76806552Y-68642227D01*
X77054643Y-68744990D01*
X77323175Y-68744990D01*
X77571266Y-68642227D01*
X77761146Y-68452347D01*
X77863909Y-68204256D01*
X77863909Y-67935724D01*
X77761146Y-67687633D01*
X77659222Y-67585709D01*
X78745000Y-67585709D01*
X78745000Y-67854241D01*
X78847763Y-68102332D01*
X79037643Y-68292212D01*
X79285734Y-68394975D01*
X79554266Y-68394975D01*
X79802357Y-68292212D01*
X79992237Y-68102332D01*
X80095000Y-67854241D01*
X80095000Y-67766408D01*
X81915053Y-67766408D01*
X81915053Y-68034940D01*
X82017816Y-68283031D01*
X82207696Y-68472911D01*
X82455787Y-68575674D01*
X82724319Y-68575674D01*
X82972410Y-68472911D01*
X83162290Y-68283031D01*
X83265053Y-68034940D01*
X83265053Y-68015734D01*
X118375000Y-68015734D01*
X118375000Y-68284266D01*
X118477763Y-68532357D01*
X118667643Y-68722237D01*
X118915734Y-68825000D01*
X119184266Y-68825000D01*
X119432357Y-68722237D01*
X119622237Y-68532357D01*
X119629122Y-68515734D01*
X119885000Y-68515734D01*
X119885000Y-68784266D01*
X119987763Y-69032357D01*
X120177643Y-69222237D01*
X120425734Y-69325000D01*
X120694266Y-69325000D01*
X120942357Y-69222237D01*
X121132237Y-69032357D01*
X121235000Y-68784266D01*
X121235000Y-68515734D01*
X121218432Y-68475734D01*
X135705000Y-68475734D01*
X135705000Y-68744266D01*
X135807763Y-68992357D01*
X135997643Y-69182237D01*
X136245734Y-69285000D01*
X136514266Y-69285000D01*
X136762357Y-69182237D01*
X136952237Y-68992357D01*
X137055000Y-68744266D01*
X137055000Y-68475734D01*
X136952237Y-68227643D01*
X136880328Y-68155734D01*
X137975000Y-68155734D01*
X137975000Y-68424266D01*
X138077763Y-68672357D01*
X138267643Y-68862237D01*
X138515734Y-68965000D01*
X138784266Y-68965000D01*
X139032357Y-68862237D01*
X139222237Y-68672357D01*
X139325000Y-68424266D01*
X139325000Y-68155734D01*
X139222237Y-67907643D01*
X139032357Y-67717763D01*
X138784266Y-67615000D01*
X138515734Y-67615000D01*
X138267643Y-67717763D01*
X138077763Y-67907643D01*
X137975000Y-68155734D01*
X136880328Y-68155734D01*
X136762357Y-68037763D01*
X136514266Y-67935000D01*
X136245734Y-67935000D01*
X135997643Y-68037763D01*
X135807763Y-68227643D01*
X135705000Y-68475734D01*
X121218432Y-68475734D01*
X121132237Y-68267643D01*
X120942357Y-68077763D01*
X120694266Y-67975000D01*
X120425734Y-67975000D01*
X120177643Y-68077763D01*
X119987763Y-68267643D01*
X119885000Y-68515734D01*
X119629122Y-68515734D01*
X119725000Y-68284266D01*
X119725000Y-68015734D01*
X119622237Y-67767643D01*
X119432357Y-67577763D01*
X119184266Y-67475000D01*
X118915734Y-67475000D01*
X118667643Y-67577763D01*
X118477763Y-67767643D01*
X118375000Y-68015734D01*
X83265053Y-68015734D01*
X83265053Y-67766408D01*
X83162290Y-67518317D01*
X82972410Y-67328437D01*
X82724319Y-67225674D01*
X82455787Y-67225674D01*
X82207696Y-67328437D01*
X82017816Y-67518317D01*
X81915053Y-67766408D01*
X80095000Y-67766408D01*
X80095000Y-67585709D01*
X79992237Y-67337618D01*
X79802357Y-67147738D01*
X79554266Y-67044975D01*
X79285734Y-67044975D01*
X79037643Y-67147738D01*
X78847763Y-67337618D01*
X78745000Y-67585709D01*
X77659222Y-67585709D01*
X77571266Y-67497753D01*
X77323175Y-67394990D01*
X77054643Y-67394990D01*
X76806552Y-67497753D01*
X76616672Y-67687633D01*
X76513909Y-67935724D01*
X75009086Y-67935724D01*
X75162357Y-67872237D01*
X75352237Y-67682357D01*
X75455000Y-67434266D01*
X75455000Y-67165734D01*
X75352237Y-66917643D01*
X75162357Y-66727763D01*
X74914266Y-66625000D01*
X74645734Y-66625000D01*
X74397643Y-66727763D01*
X74207763Y-66917643D01*
X74105000Y-67165734D01*
X54850000Y-67165734D01*
X54850000Y-65785734D01*
X73455000Y-65785734D01*
X73455000Y-66054266D01*
X73557763Y-66302357D01*
X73747643Y-66492237D01*
X73995734Y-66595000D01*
X74264266Y-66595000D01*
X74512357Y-66492237D01*
X74702237Y-66302357D01*
X74805000Y-66054266D01*
X74805000Y-65955734D01*
X75045000Y-65955734D01*
X75045000Y-66224266D01*
X75147763Y-66472357D01*
X75337643Y-66662237D01*
X75585734Y-66765000D01*
X75854266Y-66765000D01*
X76102357Y-66662237D01*
X76292237Y-66472357D01*
X76395000Y-66224266D01*
X76395000Y-65955734D01*
X76292237Y-65707643D01*
X76102357Y-65517763D01*
X75854266Y-65415000D01*
X75585734Y-65415000D01*
X75337643Y-65517763D01*
X75147763Y-65707643D01*
X75045000Y-65955734D01*
X74805000Y-65955734D01*
X74805000Y-65785734D01*
X74702237Y-65537643D01*
X74512357Y-65347763D01*
X74435033Y-65315734D01*
X76465000Y-65315734D01*
X76465000Y-65584266D01*
X76567763Y-65832357D01*
X76757643Y-66022237D01*
X77005734Y-66125000D01*
X77274266Y-66125000D01*
X77522357Y-66022237D01*
X77712237Y-65832357D01*
X77815000Y-65584266D01*
X77815000Y-65315734D01*
X77712237Y-65067643D01*
X77620328Y-64975734D01*
X78925000Y-64975734D01*
X78925000Y-65244266D01*
X79027763Y-65492357D01*
X79217643Y-65682237D01*
X79465734Y-65785000D01*
X79734266Y-65785000D01*
X79982357Y-65682237D01*
X80098860Y-65565734D01*
X83655000Y-65565734D01*
X83655000Y-65834266D01*
X83757763Y-66082357D01*
X83947643Y-66272237D01*
X84195734Y-66375000D01*
X84464266Y-66375000D01*
X84712357Y-66272237D01*
X84902237Y-66082357D01*
X84962970Y-65935734D01*
X113825000Y-65935734D01*
X113825000Y-66204266D01*
X113927763Y-66452357D01*
X114117643Y-66642237D01*
X114365734Y-66745000D01*
X114634266Y-66745000D01*
X114882357Y-66642237D01*
X114958860Y-66565734D01*
X115325000Y-66565734D01*
X115325000Y-66834266D01*
X115427763Y-67082357D01*
X115617643Y-67272237D01*
X115865734Y-67375000D01*
X116134266Y-67375000D01*
X116382357Y-67272237D01*
X116458860Y-67195734D01*
X116885000Y-67195734D01*
X116885000Y-67464266D01*
X116987763Y-67712357D01*
X117177643Y-67902237D01*
X117425734Y-68005000D01*
X117694266Y-68005000D01*
X117942357Y-67902237D01*
X118132237Y-67712357D01*
X118235000Y-67464266D01*
X118235000Y-67195734D01*
X118132237Y-66947643D01*
X117942357Y-66757763D01*
X117694266Y-66655000D01*
X117425734Y-66655000D01*
X117177643Y-66757763D01*
X116987763Y-66947643D01*
X116885000Y-67195734D01*
X116458860Y-67195734D01*
X116572237Y-67082357D01*
X116675000Y-66834266D01*
X116675000Y-66565734D01*
X116572237Y-66317643D01*
X116382357Y-66127763D01*
X116280891Y-66085734D01*
X133735000Y-66085734D01*
X133735000Y-66354266D01*
X133837763Y-66602357D01*
X134027643Y-66792237D01*
X134275734Y-66895000D01*
X134544266Y-66895000D01*
X134792357Y-66792237D01*
X134982237Y-66602357D01*
X135085000Y-66354266D01*
X135085000Y-66085734D01*
X135029396Y-65951493D01*
X135263263Y-65951493D01*
X135263263Y-66220025D01*
X135366026Y-66468116D01*
X135555906Y-66657996D01*
X135803997Y-66760759D01*
X136072529Y-66760759D01*
X136320620Y-66657996D01*
X136510500Y-66468116D01*
X136577761Y-66305734D01*
X138634998Y-66305734D01*
X138634998Y-66574266D01*
X138737761Y-66822357D01*
X138927641Y-67012237D01*
X139175732Y-67115000D01*
X139444264Y-67115000D01*
X139692355Y-67012237D01*
X139882235Y-66822357D01*
X139984998Y-66574266D01*
X139984998Y-66305734D01*
X139882235Y-66057643D01*
X139692355Y-65867763D01*
X139455795Y-65769776D01*
X142903399Y-65769776D01*
X142903399Y-66038308D01*
X143006162Y-66286399D01*
X143196042Y-66476279D01*
X143444133Y-66579042D01*
X143712665Y-66579042D01*
X143960756Y-66476279D01*
X144150636Y-66286399D01*
X144253399Y-66038308D01*
X144253399Y-65769776D01*
X144150636Y-65521685D01*
X143960756Y-65331805D01*
X143712665Y-65229042D01*
X143444133Y-65229042D01*
X143196042Y-65331805D01*
X143006162Y-65521685D01*
X142903399Y-65769776D01*
X139455795Y-65769776D01*
X139444264Y-65765000D01*
X139175732Y-65765000D01*
X138927641Y-65867763D01*
X138737761Y-66057643D01*
X138634998Y-66305734D01*
X136577761Y-66305734D01*
X136613263Y-66220025D01*
X136613263Y-65951493D01*
X136510500Y-65703402D01*
X136320620Y-65513522D01*
X136072529Y-65410759D01*
X135803997Y-65410759D01*
X135555906Y-65513522D01*
X135366026Y-65703402D01*
X135263263Y-65951493D01*
X135029396Y-65951493D01*
X134982237Y-65837643D01*
X134792357Y-65647763D01*
X134544266Y-65545000D01*
X134275734Y-65545000D01*
X134027643Y-65647763D01*
X133837763Y-65837643D01*
X133735000Y-66085734D01*
X116280891Y-66085734D01*
X116134266Y-66025000D01*
X115865734Y-66025000D01*
X115617643Y-66127763D01*
X115427763Y-66317643D01*
X115325000Y-66565734D01*
X114958860Y-66565734D01*
X115072237Y-66452357D01*
X115175000Y-66204266D01*
X115175000Y-65935734D01*
X115072237Y-65687643D01*
X114882357Y-65497763D01*
X114634266Y-65395000D01*
X114365734Y-65395000D01*
X114117643Y-65497763D01*
X113927763Y-65687643D01*
X113825000Y-65935734D01*
X84962970Y-65935734D01*
X85005000Y-65834266D01*
X85005000Y-65565734D01*
X84902237Y-65317643D01*
X84712357Y-65127763D01*
X84464266Y-65025000D01*
X84195734Y-65025000D01*
X83947643Y-65127763D01*
X83757763Y-65317643D01*
X83655000Y-65565734D01*
X80098860Y-65565734D01*
X80172237Y-65492357D01*
X80275000Y-65244266D01*
X80275000Y-64975734D01*
X80172237Y-64727643D01*
X80120328Y-64675734D01*
X112735000Y-64675734D01*
X112735000Y-64944266D01*
X112837763Y-65192357D01*
X113027643Y-65382237D01*
X113275734Y-65485000D01*
X113544266Y-65485000D01*
X113792357Y-65382237D01*
X113982237Y-65192357D01*
X114085000Y-64944266D01*
X114085000Y-64675734D01*
X113982237Y-64427643D01*
X113910328Y-64355734D01*
X132795000Y-64355734D01*
X132795000Y-64624266D01*
X132897763Y-64872357D01*
X133087643Y-65062237D01*
X133335734Y-65165000D01*
X133604266Y-65165000D01*
X133852357Y-65062237D01*
X134042237Y-64872357D01*
X134107112Y-64715734D01*
X134365000Y-64715734D01*
X134365000Y-64984266D01*
X134467763Y-65232357D01*
X134657643Y-65422237D01*
X134905734Y-65525000D01*
X135174266Y-65525000D01*
X135422357Y-65422237D01*
X135612237Y-65232357D01*
X135715000Y-64984266D01*
X135715000Y-64737929D01*
X137920022Y-64737929D01*
X137920022Y-65006461D01*
X138022785Y-65254552D01*
X138212665Y-65444432D01*
X138460756Y-65547195D01*
X138729288Y-65547195D01*
X138977379Y-65444432D01*
X139167259Y-65254552D01*
X139270022Y-65006461D01*
X139270022Y-64737929D01*
X139177986Y-64515734D01*
X139675000Y-64515734D01*
X139675000Y-64784266D01*
X139777763Y-65032357D01*
X139967643Y-65222237D01*
X140215734Y-65325000D01*
X140484266Y-65325000D01*
X140732357Y-65222237D01*
X140768860Y-65185734D01*
X146155000Y-65185734D01*
X146155000Y-65454266D01*
X146257763Y-65702357D01*
X146447643Y-65892237D01*
X146695734Y-65995000D01*
X146964266Y-65995000D01*
X147212357Y-65892237D01*
X147402237Y-65702357D01*
X147505000Y-65454266D01*
X147505000Y-65185734D01*
X147402237Y-64937643D01*
X147212357Y-64747763D01*
X146964266Y-64645000D01*
X146695734Y-64645000D01*
X146447643Y-64747763D01*
X146257763Y-64937643D01*
X146155000Y-65185734D01*
X140768860Y-65185734D01*
X140922237Y-65032357D01*
X141025000Y-64784266D01*
X141025000Y-64515734D01*
X140979437Y-64405734D01*
X147594891Y-64405734D01*
X147594891Y-64674266D01*
X147697654Y-64922357D01*
X147887534Y-65112237D01*
X148135625Y-65215000D01*
X148404157Y-65215000D01*
X148652248Y-65112237D01*
X148842128Y-64922357D01*
X148944891Y-64674266D01*
X148944891Y-64405734D01*
X148842128Y-64157643D01*
X148652248Y-63967763D01*
X148404157Y-63865000D01*
X148135625Y-63865000D01*
X147887534Y-63967763D01*
X147697654Y-64157643D01*
X147594891Y-64405734D01*
X140979437Y-64405734D01*
X140922237Y-64267643D01*
X140732357Y-64077763D01*
X140484266Y-63975000D01*
X140215734Y-63975000D01*
X139967643Y-64077763D01*
X139777763Y-64267643D01*
X139675000Y-64515734D01*
X139177986Y-64515734D01*
X139167259Y-64489838D01*
X138977379Y-64299958D01*
X138729288Y-64197195D01*
X138460756Y-64197195D01*
X138212665Y-64299958D01*
X138022785Y-64489838D01*
X137920022Y-64737929D01*
X135715000Y-64737929D01*
X135715000Y-64715734D01*
X135612237Y-64467643D01*
X135422357Y-64277763D01*
X135174266Y-64175000D01*
X134905734Y-64175000D01*
X134657643Y-64277763D01*
X134467763Y-64467643D01*
X134365000Y-64715734D01*
X134107112Y-64715734D01*
X134145000Y-64624266D01*
X134145000Y-64355734D01*
X134042237Y-64107643D01*
X133852357Y-63917763D01*
X133604266Y-63815000D01*
X133335734Y-63815000D01*
X133087643Y-63917763D01*
X132897763Y-64107643D01*
X132795000Y-64355734D01*
X113910328Y-64355734D01*
X113792357Y-64237763D01*
X113544266Y-64135000D01*
X113275734Y-64135000D01*
X113027643Y-64237763D01*
X112837763Y-64427643D01*
X112735000Y-64675734D01*
X80120328Y-64675734D01*
X79982357Y-64537763D01*
X79734266Y-64435000D01*
X79465734Y-64435000D01*
X79217643Y-64537763D01*
X79027763Y-64727643D01*
X78925000Y-64975734D01*
X77620328Y-64975734D01*
X77522357Y-64877763D01*
X77274266Y-64775000D01*
X77005734Y-64775000D01*
X76757643Y-64877763D01*
X76567763Y-65067643D01*
X76465000Y-65315734D01*
X74435033Y-65315734D01*
X74264266Y-65245000D01*
X73995734Y-65245000D01*
X73747643Y-65347763D01*
X73557763Y-65537643D01*
X73455000Y-65785734D01*
X54850000Y-65785734D01*
X54850000Y-64345734D01*
X73315000Y-64345734D01*
X73315000Y-64614266D01*
X73417763Y-64862357D01*
X73607643Y-65052237D01*
X73855734Y-65155000D01*
X74124266Y-65155000D01*
X74372357Y-65052237D01*
X74562237Y-64862357D01*
X74665000Y-64614266D01*
X74665000Y-64345734D01*
X74562237Y-64097643D01*
X74372357Y-63907763D01*
X74138102Y-63810731D01*
X111502953Y-63810731D01*
X111502953Y-64079263D01*
X111605716Y-64327354D01*
X111795596Y-64517234D01*
X112043687Y-64619997D01*
X112312219Y-64619997D01*
X112560310Y-64517234D01*
X112750190Y-64327354D01*
X112852953Y-64079263D01*
X112852953Y-63810731D01*
X112750190Y-63562640D01*
X112560310Y-63372760D01*
X112312219Y-63269997D01*
X112043687Y-63269997D01*
X111795596Y-63372760D01*
X111605716Y-63562640D01*
X111502953Y-63810731D01*
X74138102Y-63810731D01*
X74124266Y-63805000D01*
X73855734Y-63805000D01*
X73607643Y-63907763D01*
X73417763Y-64097643D01*
X73315000Y-64345734D01*
X54850000Y-64345734D01*
X54850000Y-61763734D01*
X69175000Y-61763734D01*
X69175000Y-62032266D01*
X69277763Y-62280357D01*
X69467643Y-62470237D01*
X69715734Y-62573000D01*
X69984266Y-62573000D01*
X70232357Y-62470237D01*
X70422237Y-62280357D01*
X70525000Y-62032266D01*
X70525000Y-61763734D01*
X70422237Y-61515643D01*
X70232357Y-61325763D01*
X69984266Y-61223000D01*
X69715734Y-61223000D01*
X69467643Y-61325763D01*
X69277763Y-61515643D01*
X69175000Y-61763734D01*
X54850000Y-61763734D01*
X54850000Y-59895790D01*
X67888382Y-59895790D01*
X67888382Y-60164322D01*
X67991145Y-60412413D01*
X68181025Y-60602293D01*
X68429116Y-60705056D01*
X68697648Y-60705056D01*
X68945739Y-60602293D01*
X69135619Y-60412413D01*
X69145873Y-60387656D01*
X69192801Y-60387656D01*
X69192801Y-60656188D01*
X69295564Y-60904279D01*
X69485444Y-61094159D01*
X69733535Y-61196922D01*
X70002067Y-61196922D01*
X70250158Y-61094159D01*
X70356659Y-60987658D01*
X70697662Y-60987658D01*
X70697662Y-61256190D01*
X70800425Y-61504281D01*
X70990305Y-61694161D01*
X71238396Y-61796924D01*
X71506928Y-61796924D01*
X71755019Y-61694161D01*
X71944899Y-61504281D01*
X72047662Y-61256190D01*
X72047662Y-60987658D01*
X71944899Y-60739567D01*
X71875288Y-60669956D01*
X108520778Y-60669956D01*
X108520778Y-60938488D01*
X108623541Y-61186579D01*
X108813421Y-61376459D01*
X109061512Y-61479222D01*
X109330044Y-61479222D01*
X109578135Y-61376459D01*
X109692970Y-61261624D01*
X109688628Y-61272106D01*
X109688628Y-61540638D01*
X109791391Y-61788729D01*
X109981271Y-61978609D01*
X110229362Y-62081372D01*
X110497894Y-62081372D01*
X110678957Y-62006373D01*
X110517687Y-62167643D01*
X110414924Y-62415734D01*
X110414924Y-62684266D01*
X110517687Y-62932357D01*
X110707567Y-63122237D01*
X110955658Y-63225000D01*
X111224190Y-63225000D01*
X111472281Y-63122237D01*
X111528784Y-63065734D01*
X129175000Y-63065734D01*
X129175000Y-63334266D01*
X129277763Y-63582357D01*
X129467643Y-63772237D01*
X129715734Y-63875000D01*
X129984266Y-63875000D01*
X130232357Y-63772237D01*
X130422237Y-63582357D01*
X130525000Y-63334266D01*
X130525000Y-63065734D01*
X130422237Y-62817643D01*
X130232357Y-62627763D01*
X129984266Y-62525000D01*
X129715734Y-62525000D01*
X129467643Y-62627763D01*
X129277763Y-62817643D01*
X129175000Y-63065734D01*
X111528784Y-63065734D01*
X111662161Y-62932357D01*
X111764924Y-62684266D01*
X111764924Y-62415734D01*
X111662161Y-62167643D01*
X111472281Y-61977763D01*
X111298389Y-61905734D01*
X130095000Y-61905734D01*
X130095000Y-62174266D01*
X130197763Y-62422357D01*
X130387643Y-62612237D01*
X130635734Y-62715000D01*
X130904266Y-62715000D01*
X131152357Y-62612237D01*
X131342237Y-62422357D01*
X131445000Y-62174266D01*
X131445000Y-61905734D01*
X131342237Y-61657643D01*
X131300328Y-61615734D01*
X137175000Y-61615734D01*
X137175000Y-61884266D01*
X137277763Y-62132357D01*
X137467643Y-62322237D01*
X137715734Y-62425000D01*
X137984266Y-62425000D01*
X138232357Y-62322237D01*
X138422237Y-62132357D01*
X138525000Y-61884266D01*
X138525000Y-61615734D01*
X138422237Y-61367643D01*
X138232357Y-61177763D01*
X137984266Y-61075000D01*
X137715734Y-61075000D01*
X137467643Y-61177763D01*
X137277763Y-61367643D01*
X137175000Y-61615734D01*
X131300328Y-61615734D01*
X131152357Y-61467763D01*
X130904266Y-61365000D01*
X130635734Y-61365000D01*
X130387643Y-61467763D01*
X130197763Y-61657643D01*
X130095000Y-61905734D01*
X111298389Y-61905734D01*
X111224190Y-61875000D01*
X110955658Y-61875000D01*
X110774595Y-61949999D01*
X110935865Y-61788729D01*
X111038628Y-61540638D01*
X111038628Y-61272106D01*
X110935865Y-61024015D01*
X110745985Y-60834135D01*
X110497894Y-60731372D01*
X110229362Y-60731372D01*
X109981271Y-60834135D01*
X109866436Y-60948970D01*
X109870778Y-60938488D01*
X109870778Y-60669956D01*
X109768015Y-60421865D01*
X109578135Y-60231985D01*
X109330044Y-60129222D01*
X109061512Y-60129222D01*
X108813421Y-60231985D01*
X108623541Y-60421865D01*
X108520778Y-60669956D01*
X71875288Y-60669956D01*
X71755019Y-60549687D01*
X71506928Y-60446924D01*
X71238396Y-60446924D01*
X70990305Y-60549687D01*
X70800425Y-60739567D01*
X70697662Y-60987658D01*
X70356659Y-60987658D01*
X70440038Y-60904279D01*
X70542801Y-60656188D01*
X70542801Y-60387656D01*
X70440038Y-60139565D01*
X70250158Y-59949685D01*
X70002067Y-59846922D01*
X69733535Y-59846922D01*
X69485444Y-59949685D01*
X69295564Y-60139565D01*
X69192801Y-60387656D01*
X69145873Y-60387656D01*
X69238382Y-60164322D01*
X69238382Y-59895790D01*
X69135619Y-59647699D01*
X68945739Y-59457819D01*
X68697648Y-59355056D01*
X68429116Y-59355056D01*
X68181025Y-59457819D01*
X67991145Y-59647699D01*
X67888382Y-59895790D01*
X54850000Y-59895790D01*
X54850000Y-58295767D01*
X67727447Y-58295767D01*
X67727447Y-58564299D01*
X67830210Y-58812390D01*
X68020090Y-59002270D01*
X68268181Y-59105033D01*
X68536713Y-59105033D01*
X68784804Y-59002270D01*
X68974684Y-58812390D01*
X69017797Y-58708306D01*
X69205041Y-58708306D01*
X69205041Y-58976838D01*
X69307804Y-59224929D01*
X69497684Y-59414809D01*
X69745775Y-59517572D01*
X70014307Y-59517572D01*
X70262398Y-59414809D01*
X70289572Y-59387635D01*
X70597193Y-59387635D01*
X70597193Y-59656167D01*
X70699956Y-59904258D01*
X70889836Y-60094138D01*
X71137927Y-60196901D01*
X71406459Y-60196901D01*
X71654550Y-60094138D01*
X71844430Y-59904258D01*
X71905672Y-59756406D01*
X127535672Y-59756406D01*
X127535672Y-60024938D01*
X127638435Y-60273029D01*
X127828315Y-60462909D01*
X128076406Y-60565672D01*
X128344938Y-60565672D01*
X128586208Y-60465734D01*
X128715000Y-60465734D01*
X128715000Y-60734266D01*
X128817763Y-60982357D01*
X129007643Y-61172237D01*
X129255734Y-61275000D01*
X129524266Y-61275000D01*
X129772357Y-61172237D01*
X129962237Y-60982357D01*
X130065000Y-60734266D01*
X130065000Y-60465734D01*
X129962237Y-60217643D01*
X129772357Y-60027763D01*
X129524266Y-59925000D01*
X129255734Y-59925000D01*
X129007643Y-60027763D01*
X128817763Y-60217643D01*
X128715000Y-60465734D01*
X128586208Y-60465734D01*
X128593029Y-60462909D01*
X128782909Y-60273029D01*
X128885672Y-60024938D01*
X128885672Y-59865724D01*
X130045000Y-59865724D01*
X130045000Y-60134256D01*
X130147763Y-60382347D01*
X130337643Y-60572227D01*
X130585734Y-60674990D01*
X130854266Y-60674990D01*
X131102357Y-60572227D01*
X131292237Y-60382347D01*
X131395000Y-60134256D01*
X131395000Y-59865724D01*
X131292237Y-59617633D01*
X131102357Y-59427753D01*
X130854266Y-59324990D01*
X130585734Y-59324990D01*
X130337643Y-59427753D01*
X130147763Y-59617633D01*
X130045000Y-59865724D01*
X128885672Y-59865724D01*
X128885672Y-59756406D01*
X128782909Y-59508315D01*
X128593029Y-59318435D01*
X128344938Y-59215672D01*
X128076406Y-59215672D01*
X127828315Y-59318435D01*
X127638435Y-59508315D01*
X127535672Y-59756406D01*
X71905672Y-59756406D01*
X71947193Y-59656167D01*
X71947193Y-59387635D01*
X71844430Y-59139544D01*
X71654550Y-58949664D01*
X71406459Y-58846901D01*
X71137927Y-58846901D01*
X70889836Y-58949664D01*
X70699956Y-59139544D01*
X70597193Y-59387635D01*
X70289572Y-59387635D01*
X70452278Y-59224929D01*
X70555041Y-58976838D01*
X70555041Y-58708306D01*
X70529123Y-58645734D01*
X92635001Y-58645734D01*
X92635001Y-58914266D01*
X92737764Y-59162357D01*
X92927644Y-59352237D01*
X93175735Y-59455000D01*
X93444267Y-59455000D01*
X93692358Y-59352237D01*
X93882238Y-59162357D01*
X93985001Y-58914266D01*
X93985001Y-58715734D01*
X98625000Y-58715734D01*
X98625000Y-58984266D01*
X98727763Y-59232357D01*
X98917643Y-59422237D01*
X99165734Y-59525000D01*
X99434266Y-59525000D01*
X99682357Y-59422237D01*
X99872237Y-59232357D01*
X99975000Y-58984266D01*
X99975000Y-58715734D01*
X99872237Y-58467643D01*
X99682357Y-58277763D01*
X99434266Y-58175000D01*
X99165734Y-58175000D01*
X98917643Y-58277763D01*
X98727763Y-58467643D01*
X98625000Y-58715734D01*
X93985001Y-58715734D01*
X93985001Y-58645734D01*
X93882238Y-58397643D01*
X93692358Y-58207763D01*
X93444267Y-58105000D01*
X93175735Y-58105000D01*
X92927644Y-58207763D01*
X92737764Y-58397643D01*
X92635001Y-58645734D01*
X70529123Y-58645734D01*
X70452278Y-58460215D01*
X70262398Y-58270335D01*
X70014307Y-58167572D01*
X69745775Y-58167572D01*
X69497684Y-58270335D01*
X69307804Y-58460215D01*
X69205041Y-58708306D01*
X69017797Y-58708306D01*
X69077447Y-58564299D01*
X69077447Y-58295767D01*
X68974684Y-58047676D01*
X68784804Y-57857796D01*
X68536713Y-57755033D01*
X68268181Y-57755033D01*
X68020090Y-57857796D01*
X67830210Y-58047676D01*
X67727447Y-58295767D01*
X54850000Y-58295767D01*
X54850000Y-56695744D01*
X67605000Y-56695744D01*
X67605000Y-56964276D01*
X67707763Y-57212367D01*
X67897643Y-57402247D01*
X68145734Y-57505010D01*
X68414266Y-57505010D01*
X68662357Y-57402247D01*
X68852237Y-57212367D01*
X68895350Y-57108283D01*
X69244925Y-57108283D01*
X69244925Y-57376815D01*
X69347688Y-57624906D01*
X69537568Y-57814786D01*
X69785659Y-57917549D01*
X70054191Y-57917549D01*
X70302282Y-57814786D01*
X70364057Y-57753011D01*
X70585733Y-57753011D01*
X70585733Y-58021543D01*
X70688496Y-58269634D01*
X70878376Y-58459514D01*
X71126467Y-58562277D01*
X71394999Y-58562277D01*
X71643090Y-58459514D01*
X71832970Y-58269634D01*
X71935733Y-58021543D01*
X71935733Y-57753011D01*
X71832970Y-57504920D01*
X71643090Y-57315040D01*
X71638228Y-57313026D01*
X94311095Y-57313026D01*
X94311095Y-57581558D01*
X94413858Y-57829649D01*
X94603738Y-58019529D01*
X94851829Y-58122292D01*
X95120361Y-58122292D01*
X95368452Y-58019529D01*
X95558332Y-57829649D01*
X95661095Y-57581558D01*
X95661095Y-57313026D01*
X95558332Y-57064935D01*
X95368452Y-56875055D01*
X95165765Y-56791099D01*
X96011647Y-56791099D01*
X96011647Y-57059631D01*
X96114410Y-57307722D01*
X96304290Y-57497602D01*
X96552381Y-57600365D01*
X96820913Y-57600365D01*
X97069004Y-57497602D01*
X97080872Y-57485734D01*
X97355000Y-57485734D01*
X97355000Y-57754266D01*
X97457763Y-58002357D01*
X97647643Y-58192237D01*
X97895734Y-58295000D01*
X98164266Y-58295000D01*
X98412357Y-58192237D01*
X98602237Y-58002357D01*
X98705000Y-57754266D01*
X98705000Y-57485734D01*
X98602237Y-57237643D01*
X98412357Y-57047763D01*
X98164266Y-56945000D01*
X97895734Y-56945000D01*
X97647643Y-57047763D01*
X97457763Y-57237643D01*
X97355000Y-57485734D01*
X97080872Y-57485734D01*
X97258884Y-57307722D01*
X97361647Y-57059631D01*
X97361647Y-56791099D01*
X97322146Y-56695734D01*
X111805000Y-56695734D01*
X111805000Y-56964266D01*
X111907763Y-57212357D01*
X112097643Y-57402237D01*
X112345734Y-57505000D01*
X112614266Y-57505000D01*
X112862357Y-57402237D01*
X112878860Y-57385734D01*
X113265000Y-57385734D01*
X113265000Y-57654266D01*
X113367763Y-57902357D01*
X113557643Y-58092237D01*
X113805734Y-58195000D01*
X114074266Y-58195000D01*
X114322357Y-58092237D01*
X114368860Y-58045734D01*
X114675000Y-58045734D01*
X114675000Y-58314266D01*
X114777763Y-58562357D01*
X114967643Y-58752237D01*
X115215734Y-58855000D01*
X115484266Y-58855000D01*
X115732357Y-58752237D01*
X115848860Y-58635734D01*
X115945000Y-58635734D01*
X115945000Y-58904266D01*
X116047763Y-59152357D01*
X116237643Y-59342237D01*
X116485734Y-59445000D01*
X116754266Y-59445000D01*
X117002357Y-59342237D01*
X117192237Y-59152357D01*
X117295000Y-58904266D01*
X117295000Y-58635734D01*
X117192237Y-58387643D01*
X117002357Y-58197763D01*
X116754266Y-58095000D01*
X116485734Y-58095000D01*
X116237643Y-58197763D01*
X116047763Y-58387643D01*
X115945000Y-58635734D01*
X115848860Y-58635734D01*
X115922237Y-58562357D01*
X116025000Y-58314266D01*
X116025000Y-58045734D01*
X116013455Y-58017861D01*
X127577117Y-58017861D01*
X127577117Y-58286393D01*
X127679880Y-58534484D01*
X127869760Y-58724364D01*
X128117851Y-58827127D01*
X128386383Y-58827127D01*
X128634474Y-58724364D01*
X128767059Y-58591779D01*
X128695000Y-58765744D01*
X128695000Y-59034276D01*
X128797763Y-59282367D01*
X128987643Y-59472247D01*
X129235734Y-59575010D01*
X129504266Y-59575010D01*
X129752357Y-59472247D01*
X129942237Y-59282367D01*
X130045000Y-59034276D01*
X130045000Y-58765744D01*
X129942237Y-58517653D01*
X129752357Y-58327773D01*
X129504266Y-58225010D01*
X129235734Y-58225010D01*
X128987643Y-58327773D01*
X128855058Y-58460358D01*
X128927117Y-58286393D01*
X128927117Y-58215724D01*
X129995000Y-58215724D01*
X129995000Y-58484256D01*
X130097763Y-58732347D01*
X130287643Y-58922227D01*
X130535734Y-59024990D01*
X130804266Y-59024990D01*
X131052357Y-58922227D01*
X131242237Y-58732347D01*
X131345000Y-58484256D01*
X131345000Y-58215724D01*
X131242237Y-57967633D01*
X131180349Y-57905745D01*
X138885544Y-57905745D01*
X138885544Y-58174277D01*
X138988307Y-58422368D01*
X139178187Y-58612248D01*
X139426278Y-58715011D01*
X139694810Y-58715011D01*
X139942901Y-58612248D01*
X140132781Y-58422368D01*
X140235544Y-58174277D01*
X140235544Y-57905745D01*
X140132781Y-57657654D01*
X139942901Y-57467774D01*
X139694810Y-57365011D01*
X139426278Y-57365011D01*
X139178187Y-57467774D01*
X138988307Y-57657654D01*
X138885544Y-57905745D01*
X131180349Y-57905745D01*
X131052357Y-57777753D01*
X130804266Y-57674990D01*
X130535734Y-57674990D01*
X130287643Y-57777753D01*
X130097763Y-57967633D01*
X129995000Y-58215724D01*
X128927117Y-58215724D01*
X128927117Y-58017861D01*
X128824354Y-57769770D01*
X128634474Y-57579890D01*
X128386383Y-57477127D01*
X128117851Y-57477127D01*
X127869760Y-57579890D01*
X127679880Y-57769770D01*
X127577117Y-58017861D01*
X116013455Y-58017861D01*
X115922237Y-57797643D01*
X115732357Y-57607763D01*
X115484266Y-57505000D01*
X115215734Y-57505000D01*
X114967643Y-57607763D01*
X114777763Y-57797643D01*
X114675000Y-58045734D01*
X114368860Y-58045734D01*
X114512237Y-57902357D01*
X114615000Y-57654266D01*
X114615000Y-57385734D01*
X114512237Y-57137643D01*
X114322357Y-56947763D01*
X114074266Y-56845000D01*
X113805734Y-56845000D01*
X113557643Y-56947763D01*
X113367763Y-57137643D01*
X113265000Y-57385734D01*
X112878860Y-57385734D01*
X113052237Y-57212357D01*
X113155000Y-56964266D01*
X113155000Y-56695734D01*
X113052237Y-56447643D01*
X113020328Y-56415734D01*
X124835000Y-56415734D01*
X124835000Y-56684266D01*
X124937763Y-56932357D01*
X125127643Y-57122237D01*
X125375734Y-57225000D01*
X125644266Y-57225000D01*
X125892357Y-57122237D01*
X126082237Y-56932357D01*
X126089122Y-56915734D01*
X128695000Y-56915734D01*
X128695000Y-57184266D01*
X128797763Y-57432357D01*
X128987643Y-57622237D01*
X129235734Y-57725000D01*
X129504266Y-57725000D01*
X129752357Y-57622237D01*
X129942237Y-57432357D01*
X130045000Y-57184266D01*
X130045000Y-56915734D01*
X129942237Y-56667643D01*
X129752357Y-56477763D01*
X129602631Y-56415744D01*
X129975000Y-56415744D01*
X129975000Y-56684276D01*
X130077763Y-56932367D01*
X130267643Y-57122247D01*
X130515734Y-57225010D01*
X130784266Y-57225010D01*
X131032357Y-57122247D01*
X131222237Y-56932367D01*
X131325000Y-56684276D01*
X131325000Y-56525734D01*
X133574998Y-56525734D01*
X133574998Y-56794266D01*
X133677761Y-57042357D01*
X133867641Y-57232237D01*
X134115732Y-57335000D01*
X134384264Y-57335000D01*
X134632355Y-57232237D01*
X134822235Y-57042357D01*
X134924998Y-56794266D01*
X134924998Y-56525734D01*
X134822235Y-56277643D01*
X134674093Y-56129501D01*
X137675000Y-56129501D01*
X137675000Y-56398033D01*
X137777763Y-56646124D01*
X137967643Y-56836004D01*
X138215734Y-56938767D01*
X138484266Y-56938767D01*
X138732357Y-56836004D01*
X138922237Y-56646124D01*
X139025000Y-56398033D01*
X139025000Y-56129501D01*
X138922237Y-55881410D01*
X138756551Y-55715724D01*
X142835000Y-55715724D01*
X142835000Y-55984256D01*
X142937763Y-56232347D01*
X143127643Y-56422227D01*
X143375734Y-56524990D01*
X143644266Y-56524990D01*
X143892357Y-56422227D01*
X144082237Y-56232347D01*
X144101602Y-56185595D01*
X145702043Y-56185595D01*
X145702043Y-56454127D01*
X145804806Y-56702218D01*
X145994686Y-56892098D01*
X146242777Y-56994861D01*
X146511309Y-56994861D01*
X146759400Y-56892098D01*
X146949280Y-56702218D01*
X147052043Y-56454127D01*
X147052043Y-56185595D01*
X146949280Y-55937504D01*
X146759400Y-55747624D01*
X146511309Y-55644861D01*
X146242777Y-55644861D01*
X145994686Y-55747624D01*
X145804806Y-55937504D01*
X145702043Y-56185595D01*
X144101602Y-56185595D01*
X144185000Y-55984256D01*
X144185000Y-55715724D01*
X144082237Y-55467633D01*
X143892357Y-55277753D01*
X143644266Y-55174990D01*
X143375734Y-55174990D01*
X143127643Y-55277753D01*
X142937763Y-55467633D01*
X142835000Y-55715724D01*
X138756551Y-55715724D01*
X138732357Y-55691530D01*
X138484266Y-55588767D01*
X138215734Y-55588767D01*
X137967643Y-55691530D01*
X137777763Y-55881410D01*
X137675000Y-56129501D01*
X134674093Y-56129501D01*
X134632355Y-56087763D01*
X134384264Y-55985000D01*
X134115732Y-55985000D01*
X133867641Y-56087763D01*
X133677761Y-56277643D01*
X133574998Y-56525734D01*
X131325000Y-56525734D01*
X131325000Y-56415744D01*
X131222237Y-56167653D01*
X131032357Y-55977773D01*
X130784266Y-55875010D01*
X130515734Y-55875010D01*
X130267643Y-55977773D01*
X130077763Y-56167653D01*
X129975000Y-56415744D01*
X129602631Y-56415744D01*
X129504266Y-56375000D01*
X129235734Y-56375000D01*
X128987643Y-56477763D01*
X128797763Y-56667643D01*
X128695000Y-56915734D01*
X126089122Y-56915734D01*
X126185000Y-56684266D01*
X126185000Y-56415734D01*
X126082237Y-56167643D01*
X125892357Y-55977763D01*
X125644266Y-55875000D01*
X125375734Y-55875000D01*
X125127643Y-55977763D01*
X124937763Y-56167643D01*
X124835000Y-56415734D01*
X113020328Y-56415734D01*
X112862357Y-56257763D01*
X112614266Y-56155000D01*
X112345734Y-56155000D01*
X112097643Y-56257763D01*
X111907763Y-56447643D01*
X111805000Y-56695734D01*
X97322146Y-56695734D01*
X97258884Y-56543008D01*
X97069004Y-56353128D01*
X96820913Y-56250365D01*
X96552381Y-56250365D01*
X96304290Y-56353128D01*
X96114410Y-56543008D01*
X96011647Y-56791099D01*
X95165765Y-56791099D01*
X95120361Y-56772292D01*
X94851829Y-56772292D01*
X94603738Y-56875055D01*
X94413858Y-57064935D01*
X94311095Y-57313026D01*
X71638228Y-57313026D01*
X71394999Y-57212277D01*
X71126467Y-57212277D01*
X70878376Y-57315040D01*
X70688496Y-57504920D01*
X70585733Y-57753011D01*
X70364057Y-57753011D01*
X70492162Y-57624906D01*
X70594925Y-57376815D01*
X70594925Y-57108283D01*
X70492162Y-56860192D01*
X70302282Y-56670312D01*
X70054191Y-56567549D01*
X69785659Y-56567549D01*
X69537568Y-56670312D01*
X69347688Y-56860192D01*
X69244925Y-57108283D01*
X68895350Y-57108283D01*
X68955000Y-56964276D01*
X68955000Y-56695744D01*
X68852237Y-56447653D01*
X68662357Y-56257773D01*
X68416014Y-56155734D01*
X74195000Y-56155734D01*
X74195000Y-56424266D01*
X74297763Y-56672357D01*
X74487643Y-56862237D01*
X74735734Y-56965000D01*
X75004266Y-56965000D01*
X75252357Y-56862237D01*
X75442237Y-56672357D01*
X75545000Y-56424266D01*
X75545000Y-56155734D01*
X75466300Y-55965734D01*
X86405000Y-55965734D01*
X86405000Y-56234266D01*
X86507763Y-56482357D01*
X86697643Y-56672237D01*
X86945734Y-56775000D01*
X87214266Y-56775000D01*
X87462357Y-56672237D01*
X87652237Y-56482357D01*
X87717112Y-56325734D01*
X91625000Y-56325734D01*
X91625000Y-56594266D01*
X91727763Y-56842357D01*
X91917643Y-57032237D01*
X92165734Y-57135000D01*
X92434266Y-57135000D01*
X92682357Y-57032237D01*
X92872237Y-56842357D01*
X92975000Y-56594266D01*
X92975000Y-56325734D01*
X92872237Y-56077643D01*
X92682357Y-55887763D01*
X92434266Y-55785000D01*
X92165734Y-55785000D01*
X91917643Y-55887763D01*
X91727763Y-56077643D01*
X91625000Y-56325734D01*
X87717112Y-56325734D01*
X87755000Y-56234266D01*
X87755000Y-55965734D01*
X87655593Y-55725744D01*
X110739426Y-55725744D01*
X110739426Y-55994276D01*
X110842189Y-56242367D01*
X111032069Y-56432247D01*
X111280160Y-56535010D01*
X111548692Y-56535010D01*
X111796783Y-56432247D01*
X111986663Y-56242367D01*
X112089426Y-55994276D01*
X112089426Y-55725744D01*
X112010722Y-55535734D01*
X120635000Y-55535734D01*
X120635000Y-55804266D01*
X120737763Y-56052357D01*
X120927643Y-56242237D01*
X121175734Y-56345000D01*
X121444266Y-56345000D01*
X121692357Y-56242237D01*
X121882237Y-56052357D01*
X121985000Y-55804266D01*
X121985000Y-55535734D01*
X121882237Y-55287643D01*
X121692357Y-55097763D01*
X121444266Y-54995000D01*
X121175734Y-54995000D01*
X120927643Y-55097763D01*
X120737763Y-55287643D01*
X120635000Y-55535734D01*
X112010722Y-55535734D01*
X111986663Y-55477653D01*
X111796783Y-55287773D01*
X111548692Y-55185010D01*
X111280160Y-55185010D01*
X111032069Y-55287773D01*
X110842189Y-55477653D01*
X110739426Y-55725744D01*
X87655593Y-55725744D01*
X87652237Y-55717643D01*
X87462357Y-55527763D01*
X87214266Y-55425000D01*
X86945734Y-55425000D01*
X86697643Y-55527763D01*
X86507763Y-55717643D01*
X86405000Y-55965734D01*
X75466300Y-55965734D01*
X75442237Y-55907643D01*
X75252357Y-55717763D01*
X75004266Y-55615000D01*
X74735734Y-55615000D01*
X74487643Y-55717763D01*
X74297763Y-55907643D01*
X74195000Y-56155734D01*
X68416014Y-56155734D01*
X68414266Y-56155010D01*
X68145734Y-56155010D01*
X67897643Y-56257773D01*
X67707763Y-56447653D01*
X67605000Y-56695744D01*
X54850000Y-56695744D01*
X54850000Y-54302992D01*
X70379222Y-54302992D01*
X70379222Y-54571524D01*
X70481985Y-54819615D01*
X70671865Y-55009495D01*
X70919956Y-55112258D01*
X71188488Y-55112258D01*
X71436579Y-55009495D01*
X71438522Y-55007552D01*
X71467763Y-55078147D01*
X71657643Y-55268027D01*
X71905734Y-55370790D01*
X72174266Y-55370790D01*
X72422357Y-55268027D01*
X72612237Y-55078147D01*
X72715000Y-54830056D01*
X72715000Y-54561524D01*
X72633929Y-54365801D01*
X74203742Y-54365801D01*
X74203742Y-54634333D01*
X74306505Y-54882424D01*
X74496385Y-55072304D01*
X74744476Y-55175067D01*
X75013008Y-55175067D01*
X75261099Y-55072304D01*
X75450979Y-54882424D01*
X75553742Y-54634333D01*
X75553742Y-54373698D01*
X86404652Y-54373698D01*
X86404652Y-54642230D01*
X86507415Y-54890321D01*
X86697295Y-55080201D01*
X86945386Y-55182964D01*
X87213918Y-55182964D01*
X87462009Y-55080201D01*
X87651889Y-54890321D01*
X87754652Y-54642230D01*
X87754652Y-54373698D01*
X87655786Y-54135013D01*
X90202326Y-54135013D01*
X90202326Y-54403545D01*
X90305089Y-54651636D01*
X90494969Y-54841516D01*
X90743060Y-54944279D01*
X91011592Y-54944279D01*
X91259683Y-54841516D01*
X91449563Y-54651636D01*
X91481002Y-54575734D01*
X106185000Y-54575734D01*
X106185000Y-54844266D01*
X106287763Y-55092357D01*
X106477643Y-55282237D01*
X106725734Y-55385000D01*
X106994266Y-55385000D01*
X107242357Y-55282237D01*
X107432237Y-55092357D01*
X107535000Y-54844266D01*
X107535000Y-54575734D01*
X107432237Y-54327643D01*
X107340328Y-54235734D01*
X107755000Y-54235734D01*
X107755000Y-54504266D01*
X107857763Y-54752357D01*
X108047643Y-54942237D01*
X108295734Y-55045000D01*
X108564266Y-55045000D01*
X108812357Y-54942237D01*
X109002237Y-54752357D01*
X109105000Y-54504266D01*
X109105000Y-54235734D01*
X109002237Y-53987643D01*
X108812357Y-53797763D01*
X108638387Y-53725702D01*
X109385000Y-53725702D01*
X109385000Y-53994234D01*
X109487763Y-54242325D01*
X109677643Y-54432205D01*
X109925734Y-54534968D01*
X110194266Y-54534968D01*
X110442357Y-54432205D01*
X110632237Y-54242325D01*
X110735000Y-53994234D01*
X110735000Y-53775734D01*
X129555000Y-53775734D01*
X129555000Y-54044266D01*
X129657763Y-54292357D01*
X129847643Y-54482237D01*
X130095734Y-54585000D01*
X130364266Y-54585000D01*
X130585000Y-54493569D01*
X130585000Y-54614266D01*
X130687763Y-54862357D01*
X130877643Y-55052237D01*
X131125734Y-55155000D01*
X131394266Y-55155000D01*
X131642357Y-55052237D01*
X131785535Y-54909059D01*
X133568411Y-54909059D01*
X133568411Y-55177591D01*
X133671174Y-55425682D01*
X133861054Y-55615562D01*
X134109145Y-55718325D01*
X134377677Y-55718325D01*
X134625768Y-55615562D01*
X134815648Y-55425682D01*
X134918411Y-55177591D01*
X134918411Y-54909059D01*
X134815648Y-54660968D01*
X134700424Y-54545744D01*
X145560639Y-54545744D01*
X145560639Y-54814276D01*
X145663402Y-55062367D01*
X145853282Y-55252247D01*
X146101373Y-55355010D01*
X146369905Y-55355010D01*
X146617996Y-55252247D01*
X146807876Y-55062367D01*
X146910639Y-54814276D01*
X146910639Y-54545744D01*
X146856792Y-54415744D01*
X150125000Y-54415744D01*
X150125000Y-54684276D01*
X150227763Y-54932367D01*
X150417643Y-55122247D01*
X150665734Y-55225010D01*
X150934266Y-55225010D01*
X151182357Y-55122247D01*
X151372237Y-54932367D01*
X151475000Y-54684276D01*
X151475000Y-54415744D01*
X151372237Y-54167653D01*
X151182357Y-53977773D01*
X150934266Y-53875010D01*
X150665734Y-53875010D01*
X150417643Y-53977773D01*
X150227763Y-54167653D01*
X150125000Y-54415744D01*
X146856792Y-54415744D01*
X146807876Y-54297653D01*
X146617996Y-54107773D01*
X146369905Y-54005010D01*
X146101373Y-54005010D01*
X145853282Y-54107773D01*
X145663402Y-54297653D01*
X145560639Y-54545744D01*
X134700424Y-54545744D01*
X134625768Y-54471088D01*
X134377677Y-54368325D01*
X134109145Y-54368325D01*
X133861054Y-54471088D01*
X133671174Y-54660968D01*
X133568411Y-54909059D01*
X131785535Y-54909059D01*
X131832237Y-54862357D01*
X131935000Y-54614266D01*
X131935000Y-54345734D01*
X131832237Y-54097643D01*
X131642357Y-53907763D01*
X131394266Y-53805000D01*
X131125734Y-53805000D01*
X130905000Y-53896431D01*
X130905000Y-53775734D01*
X130802237Y-53527643D01*
X130612357Y-53337763D01*
X130364266Y-53235000D01*
X130095734Y-53235000D01*
X129847643Y-53337763D01*
X129657763Y-53527643D01*
X129555000Y-53775734D01*
X110735000Y-53775734D01*
X110735000Y-53725702D01*
X110632237Y-53477611D01*
X110442357Y-53287731D01*
X110194266Y-53184968D01*
X109925734Y-53184968D01*
X109677643Y-53287731D01*
X109487763Y-53477611D01*
X109385000Y-53725702D01*
X108638387Y-53725702D01*
X108564266Y-53695000D01*
X108295734Y-53695000D01*
X108047643Y-53797763D01*
X107857763Y-53987643D01*
X107755000Y-54235734D01*
X107340328Y-54235734D01*
X107242357Y-54137763D01*
X106994266Y-54035000D01*
X106725734Y-54035000D01*
X106477643Y-54137763D01*
X106287763Y-54327643D01*
X106185000Y-54575734D01*
X91481002Y-54575734D01*
X91552326Y-54403545D01*
X91552326Y-54135013D01*
X91449563Y-53886922D01*
X91259683Y-53697042D01*
X91011592Y-53594279D01*
X90743060Y-53594279D01*
X90494969Y-53697042D01*
X90305089Y-53886922D01*
X90202326Y-54135013D01*
X87655786Y-54135013D01*
X87651889Y-54125607D01*
X87462009Y-53935727D01*
X87213918Y-53832964D01*
X86945386Y-53832964D01*
X86697295Y-53935727D01*
X86507415Y-54125607D01*
X86404652Y-54373698D01*
X75553742Y-54373698D01*
X75553742Y-54365801D01*
X75450979Y-54117710D01*
X75261099Y-53927830D01*
X75013008Y-53825067D01*
X74744476Y-53825067D01*
X74496385Y-53927830D01*
X74306505Y-54117710D01*
X74203742Y-54365801D01*
X72633929Y-54365801D01*
X72612237Y-54313433D01*
X72422357Y-54123553D01*
X72174266Y-54020790D01*
X71905734Y-54020790D01*
X71657643Y-54123553D01*
X71655700Y-54125496D01*
X71626459Y-54054901D01*
X71436579Y-53865021D01*
X71188488Y-53762258D01*
X70919956Y-53762258D01*
X70671865Y-53865021D01*
X70481985Y-54054901D01*
X70379222Y-54302992D01*
X54850000Y-54302992D01*
X54850000Y-53305734D01*
X67095000Y-53305734D01*
X67095000Y-53574266D01*
X67197763Y-53822357D01*
X67387643Y-54012237D01*
X67635734Y-54115000D01*
X67904266Y-54115000D01*
X68152357Y-54012237D01*
X68342237Y-53822357D01*
X68445000Y-53574266D01*
X68445000Y-53305734D01*
X68342237Y-53057643D01*
X68340318Y-53055724D01*
X71056549Y-53055724D01*
X71056549Y-53324256D01*
X71159312Y-53572347D01*
X71349192Y-53762227D01*
X71597283Y-53864990D01*
X71865815Y-53864990D01*
X72113906Y-53762227D01*
X72303786Y-53572347D01*
X72319253Y-53535006D01*
X93495728Y-53535006D01*
X93495728Y-53803538D01*
X93598491Y-54051629D01*
X93788371Y-54241509D01*
X94036462Y-54344272D01*
X94304994Y-54344272D01*
X94553085Y-54241509D01*
X94742965Y-54051629D01*
X94845728Y-53803538D01*
X94845728Y-53535006D01*
X94742965Y-53286915D01*
X94553085Y-53097035D01*
X94304994Y-52994272D01*
X94036462Y-52994272D01*
X93788371Y-53097035D01*
X93598491Y-53286915D01*
X93495728Y-53535006D01*
X72319253Y-53535006D01*
X72406549Y-53324256D01*
X72406549Y-53055724D01*
X72303786Y-52807633D01*
X72131887Y-52635734D01*
X90965000Y-52635734D01*
X90965000Y-52904266D01*
X91067763Y-53152357D01*
X91257643Y-53342237D01*
X91505734Y-53445000D01*
X91774266Y-53445000D01*
X92022357Y-53342237D01*
X92212237Y-53152357D01*
X92306107Y-52925734D01*
X106675000Y-52925734D01*
X106675000Y-53194266D01*
X106777763Y-53442357D01*
X106967643Y-53632237D01*
X107215734Y-53735000D01*
X107484266Y-53735000D01*
X107732357Y-53632237D01*
X107922237Y-53442357D01*
X108025000Y-53194266D01*
X108025000Y-52925734D01*
X107922237Y-52677643D01*
X107732357Y-52487763D01*
X107606749Y-52435734D01*
X108315000Y-52435734D01*
X108315000Y-52704266D01*
X108417763Y-52952357D01*
X108607643Y-53142237D01*
X108855734Y-53245000D01*
X109124266Y-53245000D01*
X109372357Y-53142237D01*
X109562237Y-52952357D01*
X109665000Y-52704266D01*
X109665000Y-52649791D01*
X123173899Y-52649791D01*
X123173899Y-52918323D01*
X123276662Y-53166414D01*
X123466542Y-53356294D01*
X123714633Y-53459057D01*
X123983165Y-53459057D01*
X124231256Y-53356294D01*
X124381816Y-53205734D01*
X150835000Y-53205734D01*
X150835000Y-53474266D01*
X150937763Y-53722357D01*
X151127643Y-53912237D01*
X151375734Y-54015000D01*
X151644266Y-54015000D01*
X151892357Y-53912237D01*
X152038132Y-53766462D01*
X153284272Y-53766462D01*
X153284272Y-54034994D01*
X153387035Y-54283085D01*
X153576915Y-54472965D01*
X153825006Y-54575728D01*
X154093538Y-54575728D01*
X154341629Y-54472965D01*
X154531509Y-54283085D01*
X154634272Y-54034994D01*
X154634272Y-53766462D01*
X154531509Y-53518371D01*
X154341629Y-53328491D01*
X154093538Y-53225728D01*
X153825006Y-53225728D01*
X153576915Y-53328491D01*
X153387035Y-53518371D01*
X153284272Y-53766462D01*
X152038132Y-53766462D01*
X152082237Y-53722357D01*
X152185000Y-53474266D01*
X152185000Y-53205734D01*
X152082237Y-52957643D01*
X151892357Y-52767763D01*
X151644266Y-52665000D01*
X151375734Y-52665000D01*
X151127643Y-52767763D01*
X150937763Y-52957643D01*
X150835000Y-53205734D01*
X124381816Y-53205734D01*
X124421136Y-53166414D01*
X124523899Y-52918323D01*
X124523899Y-52649791D01*
X124421136Y-52401700D01*
X124231256Y-52211820D01*
X123983165Y-52109057D01*
X123714633Y-52109057D01*
X123466542Y-52211820D01*
X123276662Y-52401700D01*
X123173899Y-52649791D01*
X109665000Y-52649791D01*
X109665000Y-52435734D01*
X109562237Y-52187643D01*
X109372357Y-51997763D01*
X109124266Y-51895000D01*
X108855734Y-51895000D01*
X108607643Y-51997763D01*
X108417763Y-52187643D01*
X108315000Y-52435734D01*
X107606749Y-52435734D01*
X107484266Y-52385000D01*
X107215734Y-52385000D01*
X106967643Y-52487763D01*
X106777763Y-52677643D01*
X106675000Y-52925734D01*
X92306107Y-52925734D01*
X92315000Y-52904266D01*
X92315000Y-52635734D01*
X92212237Y-52387643D01*
X92022357Y-52197763D01*
X91774266Y-52095000D01*
X91505734Y-52095000D01*
X91257643Y-52197763D01*
X91067763Y-52387643D01*
X90965000Y-52635734D01*
X72131887Y-52635734D01*
X72113906Y-52617753D01*
X71865815Y-52514990D01*
X71597283Y-52514990D01*
X71349192Y-52617753D01*
X71159312Y-52807633D01*
X71056549Y-53055724D01*
X68340318Y-53055724D01*
X68152357Y-52867763D01*
X67904266Y-52765000D01*
X67635734Y-52765000D01*
X67387643Y-52867763D01*
X67197763Y-53057643D01*
X67095000Y-53305734D01*
X54850000Y-53305734D01*
X54850000Y-52055734D01*
X69725000Y-52055734D01*
X69725000Y-52324266D01*
X69827763Y-52572357D01*
X70017643Y-52762237D01*
X70265734Y-52865000D01*
X70534266Y-52865000D01*
X70782357Y-52762237D01*
X70972237Y-52572357D01*
X71075000Y-52324266D01*
X71075000Y-52055734D01*
X70972237Y-51807643D01*
X70782357Y-51617763D01*
X70534266Y-51515000D01*
X70265734Y-51515000D01*
X70017643Y-51617763D01*
X69827763Y-51807643D01*
X69725000Y-52055734D01*
X54850000Y-52055734D01*
X54850000Y-51483788D01*
X124373299Y-51483788D01*
X124373299Y-51752320D01*
X124476062Y-52000411D01*
X124665942Y-52190291D01*
X124914033Y-52293054D01*
X125182565Y-52293054D01*
X125430656Y-52190291D01*
X125620536Y-52000411D01*
X125723299Y-51752320D01*
X125723299Y-51483788D01*
X125620536Y-51235697D01*
X125430656Y-51045817D01*
X125182565Y-50943054D01*
X124914033Y-50943054D01*
X124665942Y-51045817D01*
X124476062Y-51235697D01*
X124373299Y-51483788D01*
X54850000Y-51483788D01*
X54850000Y-48895734D01*
X79685000Y-48895734D01*
X79685000Y-49164266D01*
X79787763Y-49412357D01*
X79977643Y-49602237D01*
X80225734Y-49705000D01*
X80494266Y-49705000D01*
X80742357Y-49602237D01*
X80932237Y-49412357D01*
X81035000Y-49164266D01*
X81035000Y-48925734D01*
X81564998Y-48925734D01*
X81564998Y-49194266D01*
X81667761Y-49442357D01*
X81857641Y-49632237D01*
X82105732Y-49735000D01*
X82374264Y-49735000D01*
X82622355Y-49632237D01*
X82812235Y-49442357D01*
X82914998Y-49194266D01*
X82914998Y-48925734D01*
X82812235Y-48677643D01*
X82800326Y-48665734D01*
X129345000Y-48665734D01*
X129345000Y-48934266D01*
X129447763Y-49182357D01*
X129637643Y-49372237D01*
X129885734Y-49475000D01*
X130154266Y-49475000D01*
X130402357Y-49372237D01*
X130592237Y-49182357D01*
X130677853Y-48975662D01*
X138907754Y-48975662D01*
X138907754Y-49244194D01*
X139010517Y-49492285D01*
X139200397Y-49682165D01*
X139448488Y-49784928D01*
X139717020Y-49784928D01*
X139965111Y-49682165D01*
X140154991Y-49492285D01*
X140257754Y-49244194D01*
X140257754Y-49065734D01*
X140535000Y-49065734D01*
X140535000Y-49334266D01*
X140637763Y-49582357D01*
X140827643Y-49772237D01*
X141075734Y-49875000D01*
X141344266Y-49875000D01*
X141592357Y-49772237D01*
X141782237Y-49582357D01*
X141885000Y-49334266D01*
X141885000Y-49065734D01*
X141782237Y-48817643D01*
X141592357Y-48627763D01*
X141344266Y-48525000D01*
X141075734Y-48525000D01*
X140827643Y-48627763D01*
X140637763Y-48817643D01*
X140535000Y-49065734D01*
X140257754Y-49065734D01*
X140257754Y-48975662D01*
X140154991Y-48727571D01*
X139965111Y-48537691D01*
X139717020Y-48434928D01*
X139448488Y-48434928D01*
X139200397Y-48537691D01*
X139010517Y-48727571D01*
X138907754Y-48975662D01*
X130677853Y-48975662D01*
X130695000Y-48934266D01*
X130695000Y-48665734D01*
X130592237Y-48417643D01*
X130402357Y-48227763D01*
X130154266Y-48125000D01*
X129885734Y-48125000D01*
X129637643Y-48227763D01*
X129447763Y-48417643D01*
X129345000Y-48665734D01*
X82800326Y-48665734D01*
X82622355Y-48487763D01*
X82374264Y-48385000D01*
X82105732Y-48385000D01*
X81857641Y-48487763D01*
X81667761Y-48677643D01*
X81564998Y-48925734D01*
X81035000Y-48925734D01*
X81035000Y-48895734D01*
X80932237Y-48647643D01*
X80742357Y-48457763D01*
X80494266Y-48355000D01*
X80225734Y-48355000D01*
X79977643Y-48457763D01*
X79787763Y-48647643D01*
X79685000Y-48895734D01*
X54850000Y-48895734D01*
X54850000Y-47834218D01*
X130531309Y-47834218D01*
X130531309Y-48102750D01*
X130634072Y-48350841D01*
X130823952Y-48540721D01*
X131072043Y-48643484D01*
X131340575Y-48643484D01*
X131588666Y-48540721D01*
X131778546Y-48350841D01*
X131881309Y-48102750D01*
X131881309Y-47834218D01*
X131778546Y-47586127D01*
X131748132Y-47555713D01*
X132233514Y-47555713D01*
X132233514Y-47824245D01*
X132336277Y-48072336D01*
X132526157Y-48262216D01*
X132774248Y-48364979D01*
X133042780Y-48364979D01*
X133290871Y-48262216D01*
X133480751Y-48072336D01*
X133583514Y-47824245D01*
X133583514Y-47555713D01*
X133480751Y-47307622D01*
X133290871Y-47117742D01*
X133042780Y-47014979D01*
X132774248Y-47014979D01*
X132526157Y-47117742D01*
X132336277Y-47307622D01*
X132233514Y-47555713D01*
X131748132Y-47555713D01*
X131588666Y-47396247D01*
X131340575Y-47293484D01*
X131072043Y-47293484D01*
X130823952Y-47396247D01*
X130634072Y-47586127D01*
X130531309Y-47834218D01*
X54850000Y-47834218D01*
X54850000Y-45423651D01*
X77575010Y-45423651D01*
X77575010Y-45692183D01*
X77677773Y-45940274D01*
X77867653Y-46130154D01*
X78115744Y-46232917D01*
X78384276Y-46232917D01*
X78632367Y-46130154D01*
X78822247Y-45940274D01*
X78842699Y-45890898D01*
X79255945Y-45890898D01*
X79255945Y-46159430D01*
X79358708Y-46407521D01*
X79548588Y-46597401D01*
X79796679Y-46700164D01*
X80065211Y-46700164D01*
X80313302Y-46597401D01*
X80503182Y-46407521D01*
X80605945Y-46159430D01*
X80605945Y-45890898D01*
X80503182Y-45642807D01*
X80313302Y-45452927D01*
X80065211Y-45350164D01*
X79796679Y-45350164D01*
X79548588Y-45452927D01*
X79358708Y-45642807D01*
X79255945Y-45890898D01*
X78842699Y-45890898D01*
X78925010Y-45692183D01*
X78925010Y-45423651D01*
X78822247Y-45175560D01*
X78772421Y-45125734D01*
X80635000Y-45125734D01*
X80635000Y-45394266D01*
X80737763Y-45642357D01*
X80927643Y-45832237D01*
X81175734Y-45935000D01*
X81444266Y-45935000D01*
X81563126Y-45885766D01*
X96125000Y-45885766D01*
X96125000Y-46154298D01*
X96227763Y-46402389D01*
X96417643Y-46592269D01*
X96665734Y-46695032D01*
X96934266Y-46695032D01*
X96989853Y-46672007D01*
X129391273Y-46672007D01*
X129391273Y-46940539D01*
X129494036Y-47188630D01*
X129683916Y-47378510D01*
X129932007Y-47481273D01*
X130200539Y-47481273D01*
X130448630Y-47378510D01*
X130638510Y-47188630D01*
X130741273Y-46940539D01*
X130741273Y-46672007D01*
X130638510Y-46423916D01*
X130448630Y-46234036D01*
X130428588Y-46225734D01*
X130785000Y-46225734D01*
X130785000Y-46494266D01*
X130887763Y-46742357D01*
X131077643Y-46932237D01*
X131325734Y-47035000D01*
X131594266Y-47035000D01*
X131842357Y-46932237D01*
X132032237Y-46742357D01*
X132135000Y-46494266D01*
X132135000Y-46225734D01*
X132032237Y-45977643D01*
X131842357Y-45787763D01*
X131594266Y-45685000D01*
X131325734Y-45685000D01*
X131077643Y-45787763D01*
X130887763Y-45977643D01*
X130785000Y-46225734D01*
X130428588Y-46225734D01*
X130200539Y-46131273D01*
X129932007Y-46131273D01*
X129683916Y-46234036D01*
X129494036Y-46423916D01*
X129391273Y-46672007D01*
X96989853Y-46672007D01*
X97182357Y-46592269D01*
X97372237Y-46402389D01*
X97475000Y-46154298D01*
X97475000Y-45885766D01*
X97372237Y-45637675D01*
X97230296Y-45495734D01*
X97635000Y-45495734D01*
X97635000Y-45764266D01*
X97737763Y-46012357D01*
X97927643Y-46202237D01*
X98175734Y-46305000D01*
X98444266Y-46305000D01*
X98692357Y-46202237D01*
X98882237Y-46012357D01*
X98985000Y-45764266D01*
X98985000Y-45495734D01*
X98882237Y-45247643D01*
X98692357Y-45057763D01*
X98444266Y-44955000D01*
X98175734Y-44955000D01*
X97927643Y-45057763D01*
X97737763Y-45247643D01*
X97635000Y-45495734D01*
X97230296Y-45495734D01*
X97182357Y-45447795D01*
X96934266Y-45345032D01*
X96665734Y-45345032D01*
X96417643Y-45447795D01*
X96227763Y-45637675D01*
X96125000Y-45885766D01*
X81563126Y-45885766D01*
X81692357Y-45832237D01*
X81882237Y-45642357D01*
X81985000Y-45394266D01*
X81985000Y-45125734D01*
X81882237Y-44877643D01*
X81692357Y-44687763D01*
X81444266Y-44585000D01*
X81175734Y-44585000D01*
X80927643Y-44687763D01*
X80737763Y-44877643D01*
X80635000Y-45125734D01*
X78772421Y-45125734D01*
X78632367Y-44985680D01*
X78384276Y-44882917D01*
X78115744Y-44882917D01*
X77867653Y-44985680D01*
X77677773Y-45175560D01*
X77575010Y-45423651D01*
X54850000Y-45423651D01*
X54850000Y-43645734D01*
X79235000Y-43645734D01*
X79235000Y-43914266D01*
X79337763Y-44162357D01*
X79527643Y-44352237D01*
X79775734Y-44455000D01*
X80044266Y-44455000D01*
X80139062Y-44415734D01*
X82275000Y-44415734D01*
X82275000Y-44684266D01*
X82377763Y-44932357D01*
X82567643Y-45122237D01*
X82815734Y-45225000D01*
X83084266Y-45225000D01*
X83332357Y-45122237D01*
X83522237Y-44932357D01*
X83541548Y-44885734D01*
X99515002Y-44885734D01*
X99515002Y-45154266D01*
X99617765Y-45402357D01*
X99807645Y-45592237D01*
X100055736Y-45695000D01*
X100324268Y-45695000D01*
X100572359Y-45592237D01*
X100762239Y-45402357D01*
X100865002Y-45154266D01*
X100865002Y-44885734D01*
X100762239Y-44637643D01*
X100600330Y-44475734D01*
X101425000Y-44475734D01*
X101425000Y-44744266D01*
X101527763Y-44992357D01*
X101717643Y-45182237D01*
X101965734Y-45285000D01*
X102234266Y-45285000D01*
X102482357Y-45182237D01*
X102672237Y-44992357D01*
X102775000Y-44744266D01*
X102775000Y-44475734D01*
X102672237Y-44227643D01*
X102482357Y-44037763D01*
X102234266Y-43935000D01*
X101965734Y-43935000D01*
X101717643Y-44037763D01*
X101527763Y-44227643D01*
X101425000Y-44475734D01*
X100600330Y-44475734D01*
X100572359Y-44447763D01*
X100324268Y-44345000D01*
X100055736Y-44345000D01*
X99807645Y-44447763D01*
X99617765Y-44637643D01*
X99515002Y-44885734D01*
X83541548Y-44885734D01*
X83625000Y-44684266D01*
X83625000Y-44415734D01*
X83522237Y-44167643D01*
X83332357Y-43977763D01*
X83084266Y-43875000D01*
X82815734Y-43875000D01*
X82567643Y-43977763D01*
X82377763Y-44167643D01*
X82275000Y-44415734D01*
X80139062Y-44415734D01*
X80292357Y-44352237D01*
X80482237Y-44162357D01*
X80585000Y-43914266D01*
X80585000Y-43645734D01*
X80482237Y-43397643D01*
X80292357Y-43207763D01*
X80044266Y-43105000D01*
X79775734Y-43105000D01*
X79527643Y-43207763D01*
X79337763Y-43397643D01*
X79235000Y-43645734D01*
X54850000Y-43645734D01*
X54850000Y-42250000D01*
X179350000Y-42250000D01*
X179350001Y-76800000D01*
X179350001Y-76800000D01*
G37*
X179350001Y-76800000D02*
X175950000Y-76800000D01*
X175950000Y-75005679D01*
X175944458Y-74977818D01*
X175900898Y-74633001D01*
X175893264Y-74607476D01*
X175891174Y-74580916D01*
X175866019Y-74507445D01*
X175673494Y-74071962D01*
X175654035Y-74042339D01*
X175639962Y-74009818D01*
X175592366Y-73948456D01*
X175269160Y-73598815D01*
X175241158Y-73577094D01*
X175217307Y-73550883D01*
X175152400Y-73508247D01*
X174733365Y-73282148D01*
X174699838Y-73270669D01*
X174668782Y-73253596D01*
X174593564Y-73234283D01*
X174123884Y-73156107D01*
X174097241Y-73156107D01*
X174071198Y-73150500D01*
X173993601Y-73153548D01*
X173633001Y-73199102D01*
X173607476Y-73206736D01*
X173580916Y-73208826D01*
X173507445Y-73233981D01*
X173071962Y-73426506D01*
X173042339Y-73445965D01*
X173009818Y-73460038D01*
X172948456Y-73507634D01*
X172598815Y-73830840D01*
X172577094Y-73858842D01*
X172550883Y-73882693D01*
X172508247Y-73947600D01*
X172282148Y-74366635D01*
X172270669Y-74400162D01*
X172253596Y-74431218D01*
X172234283Y-74506436D01*
X172157264Y-74969167D01*
X172150001Y-75005679D01*
X172150000Y-82650000D01*
X134850000Y-82650000D01*
X134850000Y-76015734D01*
X139315000Y-76015734D01*
X139315000Y-76284266D01*
X139417763Y-76532357D01*
X139607643Y-76722237D01*
X139855734Y-76825000D01*
X140124266Y-76825000D01*
X140372357Y-76722237D01*
X140562237Y-76532357D01*
X140665000Y-76284266D01*
X140665000Y-76035734D01*
X150275000Y-76035734D01*
X150275000Y-76304266D01*
X150377763Y-76552357D01*
X150567643Y-76742237D01*
X150815734Y-76845000D01*
X151084266Y-76845000D01*
X151332357Y-76742237D01*
X151522237Y-76552357D01*
X151625000Y-76304266D01*
X151625000Y-76035734D01*
X151587721Y-75945734D01*
X161255000Y-75945734D01*
X161255000Y-76214266D01*
X161357763Y-76462357D01*
X161547643Y-76652237D01*
X161795734Y-76755000D01*
X162064266Y-76755000D01*
X162312357Y-76652237D01*
X162502237Y-76462357D01*
X162605000Y-76214266D01*
X162605000Y-75945734D01*
X162502237Y-75697643D01*
X162312357Y-75507763D01*
X162064266Y-75405000D01*
X161795734Y-75405000D01*
X161547643Y-75507763D01*
X161357763Y-75697643D01*
X161255000Y-75945734D01*
X151587721Y-75945734D01*
X151522237Y-75787643D01*
X151332357Y-75597763D01*
X151084266Y-75495000D01*
X150815734Y-75495000D01*
X150567643Y-75597763D01*
X150377763Y-75787643D01*
X150275000Y-76035734D01*
X140665000Y-76035734D01*
X140665000Y-76015734D01*
X140562237Y-75767643D01*
X140372357Y-75577763D01*
X140124266Y-75475000D01*
X139855734Y-75475000D01*
X139607643Y-75577763D01*
X139417763Y-75767643D01*
X139315000Y-76015734D01*
X134850000Y-76015734D01*
X134850000Y-75005679D01*
X134823891Y-74874419D01*
X134823890Y-74874418D01*
X134769040Y-74598666D01*
X134769040Y-74598660D01*
X134724748Y-74491730D01*
X134701848Y-74436444D01*
X134701845Y-74436441D01*
X134495912Y-74128242D01*
X134371756Y-74004086D01*
X134063556Y-73798153D01*
X134063555Y-73798152D01*
X133946608Y-73749711D01*
X133901340Y-73730960D01*
X133901339Y-73730960D01*
X133537797Y-73658648D01*
X133537791Y-73658646D01*
X133450000Y-73658647D01*
X133362208Y-73658646D01*
X133362202Y-73658649D01*
X132998666Y-73730960D01*
X132998660Y-73730960D01*
X132918425Y-73764195D01*
X132836444Y-73798152D01*
X132836441Y-73798155D01*
X132528244Y-74004086D01*
X132404088Y-74128242D01*
X132198153Y-74436444D01*
X132198152Y-74436445D01*
X132161992Y-74523744D01*
X132130961Y-74598659D01*
X132130960Y-74598661D01*
X132058647Y-74962210D01*
X132050001Y-75005679D01*
X132050000Y-82650000D01*
X121750000Y-82650000D01*
X121750000Y-76035734D01*
X126285000Y-76035734D01*
X126285000Y-76304266D01*
X126387763Y-76552357D01*
X126577643Y-76742237D01*
X126825734Y-76845000D01*
X127094266Y-76845000D01*
X127342357Y-76742237D01*
X127532237Y-76552357D01*
X127635000Y-76304266D01*
X127635000Y-76035734D01*
X127532237Y-75787643D01*
X127342357Y-75597763D01*
X127094266Y-75495000D01*
X126825734Y-75495000D01*
X126577643Y-75597763D01*
X126387763Y-75787643D01*
X126285000Y-76035734D01*
X121750000Y-76035734D01*
X121750000Y-75005679D01*
X121744458Y-74977818D01*
X121700898Y-74633001D01*
X121693264Y-74607476D01*
X121691174Y-74580916D01*
X121666019Y-74507445D01*
X121473494Y-74071962D01*
X121454035Y-74042339D01*
X121439962Y-74009818D01*
X121392366Y-73948456D01*
X121069160Y-73598815D01*
X121041158Y-73577094D01*
X121017307Y-73550883D01*
X120952400Y-73508247D01*
X120533365Y-73282148D01*
X120499838Y-73270669D01*
X120468782Y-73253596D01*
X120393564Y-73234283D01*
X119930864Y-73157269D01*
X119894321Y-73150000D01*
X114005679Y-73150000D01*
X113977818Y-73155542D01*
X113633001Y-73199102D01*
X113607476Y-73206736D01*
X113580916Y-73208826D01*
X113507445Y-73233981D01*
X113071962Y-73426506D01*
X113042339Y-73445965D01*
X113009818Y-73460038D01*
X112948456Y-73507634D01*
X112598815Y-73830840D01*
X112577094Y-73858842D01*
X112550883Y-73882693D01*
X112508247Y-73947600D01*
X112282148Y-74366635D01*
X112270669Y-74400162D01*
X112253596Y-74431218D01*
X112234283Y-74506436D01*
X112157264Y-74969167D01*
X112150001Y-75005679D01*
X112150000Y-82650000D01*
X74850000Y-82650000D01*
X74850000Y-76087199D01*
X79275000Y-76087199D01*
X79275000Y-76355731D01*
X79377763Y-76603822D01*
X79567643Y-76793702D01*
X79815734Y-76896465D01*
X80084266Y-76896465D01*
X80332357Y-76793702D01*
X80522237Y-76603822D01*
X80625000Y-76355731D01*
X80625000Y-76087199D01*
X80522237Y-75839108D01*
X80458863Y-75775734D01*
X84555000Y-75775734D01*
X84555000Y-76044266D01*
X84657763Y-76292357D01*
X84847643Y-76482237D01*
X85095734Y-76585000D01*
X85364266Y-76585000D01*
X85612357Y-76482237D01*
X85802237Y-76292357D01*
X85905000Y-76044266D01*
X85905000Y-75995734D01*
X90285000Y-75995734D01*
X90285000Y-76264266D01*
X90387763Y-76512357D01*
X90577643Y-76702237D01*
X90825734Y-76805000D01*
X91094266Y-76805000D01*
X91342357Y-76702237D01*
X91532237Y-76512357D01*
X91635000Y-76264266D01*
X91635000Y-76035734D01*
X101225000Y-76035734D01*
X101225000Y-76304266D01*
X101327763Y-76552357D01*
X101517643Y-76742237D01*
X101765734Y-76845000D01*
X102034266Y-76845000D01*
X102282357Y-76742237D01*
X102472237Y-76552357D01*
X102575000Y-76304266D01*
X102575000Y-76035734D01*
X102472237Y-75787643D01*
X102282357Y-75597763D01*
X102034266Y-75495000D01*
X101765734Y-75495000D01*
X101517643Y-75597763D01*
X101327763Y-75787643D01*
X101225000Y-76035734D01*
X91635000Y-76035734D01*
X91635000Y-75995734D01*
X91532237Y-75747643D01*
X91342357Y-75557763D01*
X91094266Y-75455000D01*
X90825734Y-75455000D01*
X90577643Y-75557763D01*
X90387763Y-75747643D01*
X90285000Y-75995734D01*
X85905000Y-75995734D01*
X85905000Y-75775734D01*
X85802237Y-75527643D01*
X85612357Y-75337763D01*
X85364266Y-75235000D01*
X85095734Y-75235000D01*
X84847643Y-75337763D01*
X84657763Y-75527643D01*
X84555000Y-75775734D01*
X80458863Y-75775734D01*
X80332357Y-75649228D01*
X80084266Y-75546465D01*
X79815734Y-75546465D01*
X79567643Y-75649228D01*
X79377763Y-75839108D01*
X79275000Y-76087199D01*
X74850000Y-76087199D01*
X74850000Y-75005679D01*
X74823891Y-74874419D01*
X74823890Y-74874418D01*
X74800507Y-74756860D01*
X85718015Y-74756860D01*
X85718015Y-75025392D01*
X85820778Y-75273483D01*
X86010658Y-75463363D01*
X86258749Y-75566126D01*
X86527281Y-75566126D01*
X86775372Y-75463363D01*
X86965252Y-75273483D01*
X87068015Y-75025392D01*
X87068015Y-74756860D01*
X86965252Y-74508769D01*
X86775372Y-74318889D01*
X86527281Y-74216126D01*
X86258749Y-74216126D01*
X86010658Y-74318889D01*
X85820778Y-74508769D01*
X85718015Y-74756860D01*
X74800507Y-74756860D01*
X74769040Y-74598666D01*
X74769040Y-74598660D01*
X74724748Y-74491730D01*
X74701848Y-74436444D01*
X74701845Y-74436441D01*
X74495912Y-74128242D01*
X74371756Y-74004086D01*
X74063556Y-73798153D01*
X74063555Y-73798152D01*
X73946608Y-73749711D01*
X73901340Y-73730960D01*
X73901339Y-73730960D01*
X73537797Y-73658648D01*
X73537791Y-73658646D01*
X73450000Y-73658647D01*
X73362208Y-73658646D01*
X73362202Y-73658649D01*
X72998666Y-73730960D01*
X72998660Y-73730960D01*
X72918425Y-73764195D01*
X72836444Y-73798152D01*
X72836441Y-73798155D01*
X72528244Y-74004086D01*
X72404088Y-74128242D01*
X72198153Y-74436444D01*
X72198152Y-74436445D01*
X72161992Y-74523744D01*
X72130961Y-74598659D01*
X72130960Y-74598661D01*
X72058647Y-74962210D01*
X72050001Y-75005679D01*
X72050000Y-82650000D01*
X61750000Y-82650000D01*
X61750000Y-76045734D01*
X66265000Y-76045734D01*
X66265000Y-76314266D01*
X66367763Y-76562357D01*
X66557643Y-76752237D01*
X66805734Y-76855000D01*
X67074266Y-76855000D01*
X67322357Y-76752237D01*
X67512237Y-76562357D01*
X67615000Y-76314266D01*
X67615000Y-76045734D01*
X67512237Y-75797643D01*
X67322357Y-75607763D01*
X67074266Y-75505000D01*
X66805734Y-75505000D01*
X66557643Y-75607763D01*
X66367763Y-75797643D01*
X66265000Y-76045734D01*
X61750000Y-76045734D01*
X61750000Y-75005679D01*
X61744458Y-74977818D01*
X61700898Y-74633001D01*
X61693264Y-74607476D01*
X61691174Y-74580916D01*
X61666019Y-74507445D01*
X61473494Y-74071962D01*
X61454035Y-74042339D01*
X61439962Y-74009818D01*
X61392366Y-73948456D01*
X61069160Y-73598815D01*
X61041158Y-73577094D01*
X61017307Y-73550883D01*
X61006153Y-73543556D01*
X87062822Y-73543556D01*
X87062822Y-73812088D01*
X87165585Y-74060179D01*
X87355465Y-74250059D01*
X87603556Y-74352822D01*
X87872088Y-74352822D01*
X88120179Y-74250059D01*
X88310059Y-74060179D01*
X88412822Y-73812088D01*
X88412822Y-73543556D01*
X88310059Y-73295465D01*
X88120179Y-73105585D01*
X87872088Y-73002822D01*
X87603556Y-73002822D01*
X87355465Y-73105585D01*
X87165585Y-73295465D01*
X87062822Y-73543556D01*
X61006153Y-73543556D01*
X60952400Y-73508247D01*
X60533365Y-73282148D01*
X60499838Y-73270669D01*
X60468782Y-73253596D01*
X60393564Y-73234283D01*
X59923884Y-73156107D01*
X59897241Y-73156107D01*
X59871198Y-73150500D01*
X59793601Y-73153548D01*
X59433001Y-73199102D01*
X59407476Y-73206736D01*
X59380916Y-73208826D01*
X59307445Y-73233981D01*
X58871962Y-73426506D01*
X58842339Y-73445965D01*
X58809818Y-73460038D01*
X58748456Y-73507634D01*
X58398815Y-73830840D01*
X58377094Y-73858842D01*
X58350883Y-73882693D01*
X58308247Y-73947600D01*
X58082148Y-74366635D01*
X58070669Y-74400162D01*
X58053596Y-74431218D01*
X58034283Y-74506436D01*
X57957268Y-74969142D01*
X57950000Y-75005680D01*
X57950001Y-76850000D01*
X54850000Y-76850000D01*
X54850000Y-71845734D01*
X108755000Y-71845734D01*
X108755000Y-72114266D01*
X108857763Y-72362357D01*
X109047643Y-72552237D01*
X109295734Y-72655000D01*
X109564266Y-72655000D01*
X109812357Y-72552237D01*
X110002237Y-72362357D01*
X110105000Y-72114266D01*
X110105000Y-71845734D01*
X110002237Y-71597643D01*
X109812357Y-71407763D01*
X109564266Y-71305000D01*
X109295734Y-71305000D01*
X109047643Y-71407763D01*
X108857763Y-71597643D01*
X108755000Y-71845734D01*
X54850000Y-71845734D01*
X54850000Y-70285734D01*
X107894990Y-70285734D01*
X107894990Y-70554266D01*
X107997753Y-70802357D01*
X108187633Y-70992237D01*
X108435724Y-71095000D01*
X108704256Y-71095000D01*
X108952347Y-70992237D01*
X109142227Y-70802357D01*
X109244990Y-70554266D01*
X109244990Y-70285734D01*
X109142227Y-70037643D01*
X109076046Y-69971462D01*
X109834968Y-69971462D01*
X109834968Y-70239994D01*
X109937731Y-70488085D01*
X110127611Y-70677965D01*
X110375702Y-70780728D01*
X110644234Y-70780728D01*
X110892325Y-70677965D01*
X111082205Y-70488085D01*
X111184968Y-70239994D01*
X111184968Y-70225734D01*
X151605000Y-70225734D01*
X151605000Y-70494266D01*
X151707763Y-70742357D01*
X151897643Y-70932237D01*
X152145734Y-71035000D01*
X152414266Y-71035000D01*
X152662357Y-70932237D01*
X152852237Y-70742357D01*
X152955000Y-70494266D01*
X152955000Y-70275738D01*
X154165000Y-70275738D01*
X154165000Y-70544270D01*
X154267763Y-70792361D01*
X154457643Y-70982241D01*
X154705734Y-71085004D01*
X154974266Y-71085004D01*
X155222357Y-70982241D01*
X155412237Y-70792361D01*
X155515000Y-70544270D01*
X155515000Y-70275738D01*
X155412237Y-70027647D01*
X155222357Y-69837767D01*
X154974266Y-69735004D01*
X154705734Y-69735004D01*
X154457643Y-69837767D01*
X154267763Y-70027647D01*
X154165000Y-70275738D01*
X152955000Y-70275738D01*
X152955000Y-70225734D01*
X152852237Y-69977643D01*
X152662357Y-69787763D01*
X152414266Y-69685000D01*
X152145734Y-69685000D01*
X151897643Y-69787763D01*
X151707763Y-69977643D01*
X151605000Y-70225734D01*
X111184968Y-70225734D01*
X111184968Y-69971462D01*
X111082205Y-69723371D01*
X110892325Y-69533491D01*
X110644234Y-69430728D01*
X110375702Y-69430728D01*
X110127611Y-69533491D01*
X109937731Y-69723371D01*
X109834968Y-69971462D01*
X109076046Y-69971462D01*
X108952347Y-69847763D01*
X108704256Y-69745000D01*
X108435724Y-69745000D01*
X108187633Y-69847763D01*
X107997753Y-70037643D01*
X107894990Y-70285734D01*
X54850000Y-70285734D01*
X54850000Y-69275734D01*
X78335000Y-69275734D01*
X78335000Y-69544266D01*
X78437763Y-69792357D01*
X78627643Y-69982237D01*
X78875734Y-70085000D01*
X79144266Y-70085000D01*
X79392357Y-69982237D01*
X79582237Y-69792357D01*
X79685000Y-69544266D01*
X79685000Y-69275734D01*
X79582237Y-69027643D01*
X79520328Y-68965734D01*
X79725000Y-68965734D01*
X79725000Y-69234266D01*
X79827763Y-69482357D01*
X80017643Y-69672237D01*
X80265734Y-69775000D01*
X80534266Y-69775000D01*
X80782357Y-69672237D01*
X80972237Y-69482357D01*
X81075000Y-69234266D01*
X81075000Y-68965734D01*
X81068363Y-68949710D01*
X81158976Y-68949710D01*
X81158976Y-69218242D01*
X81261739Y-69466333D01*
X81451619Y-69656213D01*
X81699710Y-69758976D01*
X81968242Y-69758976D01*
X82216333Y-69656213D01*
X82406213Y-69466333D01*
X82508976Y-69218242D01*
X82508976Y-68949710D01*
X82482477Y-68885734D01*
X107345000Y-68885734D01*
X107345000Y-69154266D01*
X107447763Y-69402357D01*
X107637643Y-69592237D01*
X107885734Y-69695000D01*
X108154266Y-69695000D01*
X108402357Y-69592237D01*
X108592237Y-69402357D01*
X108695000Y-69154266D01*
X108695000Y-68885734D01*
X108592237Y-68637643D01*
X108546910Y-68592316D01*
X109415010Y-68592316D01*
X109415010Y-68860848D01*
X109517773Y-69108939D01*
X109707653Y-69298819D01*
X109955744Y-69401582D01*
X110224276Y-69401582D01*
X110472367Y-69298819D01*
X110662247Y-69108939D01*
X110765010Y-68860848D01*
X110765010Y-68592316D01*
X110662247Y-68344225D01*
X110472367Y-68154345D01*
X110224276Y-68051582D01*
X109955744Y-68051582D01*
X109707653Y-68154345D01*
X109517773Y-68344225D01*
X109415010Y-68592316D01*
X108546910Y-68592316D01*
X108402357Y-68447763D01*
X108154266Y-68345000D01*
X107885734Y-68345000D01*
X107637643Y-68447763D01*
X107447763Y-68637643D01*
X107345000Y-68885734D01*
X82482477Y-68885734D01*
X82406213Y-68701619D01*
X82216333Y-68511739D01*
X81968242Y-68408976D01*
X81699710Y-68408976D01*
X81451619Y-68511739D01*
X81261739Y-68701619D01*
X81158976Y-68949710D01*
X81068363Y-68949710D01*
X80972237Y-68717643D01*
X80782357Y-68527763D01*
X80534266Y-68425000D01*
X80265734Y-68425000D01*
X80017643Y-68527763D01*
X79827763Y-68717643D01*
X79725000Y-68965734D01*
X79520328Y-68965734D01*
X79392357Y-68837763D01*
X79144266Y-68735000D01*
X78875734Y-68735000D01*
X78627643Y-68837763D01*
X78437763Y-69027643D01*
X78335000Y-69275734D01*
X54850000Y-69275734D01*
X54850000Y-67165734D01*
X74105000Y-67165734D01*
X74105000Y-67434266D01*
X74207763Y-67682357D01*
X74397643Y-67872237D01*
X74645734Y-67975000D01*
X74914266Y-67975000D01*
X75009086Y-67935724D01*
X76513909Y-67935724D01*
X76513909Y-68204256D01*
X76616672Y-68452347D01*
X76806552Y-68642227D01*
X77054643Y-68744990D01*
X77323175Y-68744990D01*
X77571266Y-68642227D01*
X77761146Y-68452347D01*
X77863909Y-68204256D01*
X77863909Y-67935724D01*
X77761146Y-67687633D01*
X77659222Y-67585709D01*
X78745000Y-67585709D01*
X78745000Y-67854241D01*
X78847763Y-68102332D01*
X79037643Y-68292212D01*
X79285734Y-68394975D01*
X79554266Y-68394975D01*
X79802357Y-68292212D01*
X79992237Y-68102332D01*
X80095000Y-67854241D01*
X80095000Y-67766408D01*
X81915053Y-67766408D01*
X81915053Y-68034940D01*
X82017816Y-68283031D01*
X82207696Y-68472911D01*
X82455787Y-68575674D01*
X82724319Y-68575674D01*
X82972410Y-68472911D01*
X83162290Y-68283031D01*
X83265053Y-68034940D01*
X83265053Y-68015734D01*
X118375000Y-68015734D01*
X118375000Y-68284266D01*
X118477763Y-68532357D01*
X118667643Y-68722237D01*
X118915734Y-68825000D01*
X119184266Y-68825000D01*
X119432357Y-68722237D01*
X119622237Y-68532357D01*
X119629122Y-68515734D01*
X119885000Y-68515734D01*
X119885000Y-68784266D01*
X119987763Y-69032357D01*
X120177643Y-69222237D01*
X120425734Y-69325000D01*
X120694266Y-69325000D01*
X120942357Y-69222237D01*
X121132237Y-69032357D01*
X121235000Y-68784266D01*
X121235000Y-68515734D01*
X121218432Y-68475734D01*
X135705000Y-68475734D01*
X135705000Y-68744266D01*
X135807763Y-68992357D01*
X135997643Y-69182237D01*
X136245734Y-69285000D01*
X136514266Y-69285000D01*
X136762357Y-69182237D01*
X136952237Y-68992357D01*
X137055000Y-68744266D01*
X137055000Y-68475734D01*
X136952237Y-68227643D01*
X136880328Y-68155734D01*
X137975000Y-68155734D01*
X137975000Y-68424266D01*
X138077763Y-68672357D01*
X138267643Y-68862237D01*
X138515734Y-68965000D01*
X138784266Y-68965000D01*
X139032357Y-68862237D01*
X139222237Y-68672357D01*
X139325000Y-68424266D01*
X139325000Y-68155734D01*
X139222237Y-67907643D01*
X139032357Y-67717763D01*
X138784266Y-67615000D01*
X138515734Y-67615000D01*
X138267643Y-67717763D01*
X138077763Y-67907643D01*
X137975000Y-68155734D01*
X136880328Y-68155734D01*
X136762357Y-68037763D01*
X136514266Y-67935000D01*
X136245734Y-67935000D01*
X135997643Y-68037763D01*
X135807763Y-68227643D01*
X135705000Y-68475734D01*
X121218432Y-68475734D01*
X121132237Y-68267643D01*
X120942357Y-68077763D01*
X120694266Y-67975000D01*
X120425734Y-67975000D01*
X120177643Y-68077763D01*
X119987763Y-68267643D01*
X119885000Y-68515734D01*
X119629122Y-68515734D01*
X119725000Y-68284266D01*
X119725000Y-68015734D01*
X119622237Y-67767643D01*
X119432357Y-67577763D01*
X119184266Y-67475000D01*
X118915734Y-67475000D01*
X118667643Y-67577763D01*
X118477763Y-67767643D01*
X118375000Y-68015734D01*
X83265053Y-68015734D01*
X83265053Y-67766408D01*
X83162290Y-67518317D01*
X82972410Y-67328437D01*
X82724319Y-67225674D01*
X82455787Y-67225674D01*
X82207696Y-67328437D01*
X82017816Y-67518317D01*
X81915053Y-67766408D01*
X80095000Y-67766408D01*
X80095000Y-67585709D01*
X79992237Y-67337618D01*
X79802357Y-67147738D01*
X79554266Y-67044975D01*
X79285734Y-67044975D01*
X79037643Y-67147738D01*
X78847763Y-67337618D01*
X78745000Y-67585709D01*
X77659222Y-67585709D01*
X77571266Y-67497753D01*
X77323175Y-67394990D01*
X77054643Y-67394990D01*
X76806552Y-67497753D01*
X76616672Y-67687633D01*
X76513909Y-67935724D01*
X75009086Y-67935724D01*
X75162357Y-67872237D01*
X75352237Y-67682357D01*
X75455000Y-67434266D01*
X75455000Y-67165734D01*
X75352237Y-66917643D01*
X75162357Y-66727763D01*
X74914266Y-66625000D01*
X74645734Y-66625000D01*
X74397643Y-66727763D01*
X74207763Y-66917643D01*
X74105000Y-67165734D01*
X54850000Y-67165734D01*
X54850000Y-65785734D01*
X73455000Y-65785734D01*
X73455000Y-66054266D01*
X73557763Y-66302357D01*
X73747643Y-66492237D01*
X73995734Y-66595000D01*
X74264266Y-66595000D01*
X74512357Y-66492237D01*
X74702237Y-66302357D01*
X74805000Y-66054266D01*
X74805000Y-65955734D01*
X75045000Y-65955734D01*
X75045000Y-66224266D01*
X75147763Y-66472357D01*
X75337643Y-66662237D01*
X75585734Y-66765000D01*
X75854266Y-66765000D01*
X76102357Y-66662237D01*
X76292237Y-66472357D01*
X76395000Y-66224266D01*
X76395000Y-65955734D01*
X76292237Y-65707643D01*
X76102357Y-65517763D01*
X75854266Y-65415000D01*
X75585734Y-65415000D01*
X75337643Y-65517763D01*
X75147763Y-65707643D01*
X75045000Y-65955734D01*
X74805000Y-65955734D01*
X74805000Y-65785734D01*
X74702237Y-65537643D01*
X74512357Y-65347763D01*
X74435033Y-65315734D01*
X76465000Y-65315734D01*
X76465000Y-65584266D01*
X76567763Y-65832357D01*
X76757643Y-66022237D01*
X77005734Y-66125000D01*
X77274266Y-66125000D01*
X77522357Y-66022237D01*
X77712237Y-65832357D01*
X77815000Y-65584266D01*
X77815000Y-65315734D01*
X77712237Y-65067643D01*
X77620328Y-64975734D01*
X78925000Y-64975734D01*
X78925000Y-65244266D01*
X79027763Y-65492357D01*
X79217643Y-65682237D01*
X79465734Y-65785000D01*
X79734266Y-65785000D01*
X79982357Y-65682237D01*
X80098860Y-65565734D01*
X83655000Y-65565734D01*
X83655000Y-65834266D01*
X83757763Y-66082357D01*
X83947643Y-66272237D01*
X84195734Y-66375000D01*
X84464266Y-66375000D01*
X84712357Y-66272237D01*
X84902237Y-66082357D01*
X84962970Y-65935734D01*
X113825000Y-65935734D01*
X113825000Y-66204266D01*
X113927763Y-66452357D01*
X114117643Y-66642237D01*
X114365734Y-66745000D01*
X114634266Y-66745000D01*
X114882357Y-66642237D01*
X114958860Y-66565734D01*
X115325000Y-66565734D01*
X115325000Y-66834266D01*
X115427763Y-67082357D01*
X115617643Y-67272237D01*
X115865734Y-67375000D01*
X116134266Y-67375000D01*
X116382357Y-67272237D01*
X116458860Y-67195734D01*
X116885000Y-67195734D01*
X116885000Y-67464266D01*
X116987763Y-67712357D01*
X117177643Y-67902237D01*
X117425734Y-68005000D01*
X117694266Y-68005000D01*
X117942357Y-67902237D01*
X118132237Y-67712357D01*
X118235000Y-67464266D01*
X118235000Y-67195734D01*
X118132237Y-66947643D01*
X117942357Y-66757763D01*
X117694266Y-66655000D01*
X117425734Y-66655000D01*
X117177643Y-66757763D01*
X116987763Y-66947643D01*
X116885000Y-67195734D01*
X116458860Y-67195734D01*
X116572237Y-67082357D01*
X116675000Y-66834266D01*
X116675000Y-66565734D01*
X116572237Y-66317643D01*
X116382357Y-66127763D01*
X116280891Y-66085734D01*
X133735000Y-66085734D01*
X133735000Y-66354266D01*
X133837763Y-66602357D01*
X134027643Y-66792237D01*
X134275734Y-66895000D01*
X134544266Y-66895000D01*
X134792357Y-66792237D01*
X134982237Y-66602357D01*
X135085000Y-66354266D01*
X135085000Y-66085734D01*
X135029396Y-65951493D01*
X135263263Y-65951493D01*
X135263263Y-66220025D01*
X135366026Y-66468116D01*
X135555906Y-66657996D01*
X135803997Y-66760759D01*
X136072529Y-66760759D01*
X136320620Y-66657996D01*
X136510500Y-66468116D01*
X136577761Y-66305734D01*
X138634998Y-66305734D01*
X138634998Y-66574266D01*
X138737761Y-66822357D01*
X138927641Y-67012237D01*
X139175732Y-67115000D01*
X139444264Y-67115000D01*
X139692355Y-67012237D01*
X139882235Y-66822357D01*
X139984998Y-66574266D01*
X139984998Y-66305734D01*
X139882235Y-66057643D01*
X139692355Y-65867763D01*
X139455795Y-65769776D01*
X142903399Y-65769776D01*
X142903399Y-66038308D01*
X143006162Y-66286399D01*
X143196042Y-66476279D01*
X143444133Y-66579042D01*
X143712665Y-66579042D01*
X143960756Y-66476279D01*
X144150636Y-66286399D01*
X144253399Y-66038308D01*
X144253399Y-65769776D01*
X144150636Y-65521685D01*
X143960756Y-65331805D01*
X143712665Y-65229042D01*
X143444133Y-65229042D01*
X143196042Y-65331805D01*
X143006162Y-65521685D01*
X142903399Y-65769776D01*
X139455795Y-65769776D01*
X139444264Y-65765000D01*
X139175732Y-65765000D01*
X138927641Y-65867763D01*
X138737761Y-66057643D01*
X138634998Y-66305734D01*
X136577761Y-66305734D01*
X136613263Y-66220025D01*
X136613263Y-65951493D01*
X136510500Y-65703402D01*
X136320620Y-65513522D01*
X136072529Y-65410759D01*
X135803997Y-65410759D01*
X135555906Y-65513522D01*
X135366026Y-65703402D01*
X135263263Y-65951493D01*
X135029396Y-65951493D01*
X134982237Y-65837643D01*
X134792357Y-65647763D01*
X134544266Y-65545000D01*
X134275734Y-65545000D01*
X134027643Y-65647763D01*
X133837763Y-65837643D01*
X133735000Y-66085734D01*
X116280891Y-66085734D01*
X116134266Y-66025000D01*
X115865734Y-66025000D01*
X115617643Y-66127763D01*
X115427763Y-66317643D01*
X115325000Y-66565734D01*
X114958860Y-66565734D01*
X115072237Y-66452357D01*
X115175000Y-66204266D01*
X115175000Y-65935734D01*
X115072237Y-65687643D01*
X114882357Y-65497763D01*
X114634266Y-65395000D01*
X114365734Y-65395000D01*
X114117643Y-65497763D01*
X113927763Y-65687643D01*
X113825000Y-65935734D01*
X84962970Y-65935734D01*
X85005000Y-65834266D01*
X85005000Y-65565734D01*
X84902237Y-65317643D01*
X84712357Y-65127763D01*
X84464266Y-65025000D01*
X84195734Y-65025000D01*
X83947643Y-65127763D01*
X83757763Y-65317643D01*
X83655000Y-65565734D01*
X80098860Y-65565734D01*
X80172237Y-65492357D01*
X80275000Y-65244266D01*
X80275000Y-64975734D01*
X80172237Y-64727643D01*
X80120328Y-64675734D01*
X112735000Y-64675734D01*
X112735000Y-64944266D01*
X112837763Y-65192357D01*
X113027643Y-65382237D01*
X113275734Y-65485000D01*
X113544266Y-65485000D01*
X113792357Y-65382237D01*
X113982237Y-65192357D01*
X114085000Y-64944266D01*
X114085000Y-64675734D01*
X113982237Y-64427643D01*
X113910328Y-64355734D01*
X132795000Y-64355734D01*
X132795000Y-64624266D01*
X132897763Y-64872357D01*
X133087643Y-65062237D01*
X133335734Y-65165000D01*
X133604266Y-65165000D01*
X133852357Y-65062237D01*
X134042237Y-64872357D01*
X134107112Y-64715734D01*
X134365000Y-64715734D01*
X134365000Y-64984266D01*
X134467763Y-65232357D01*
X134657643Y-65422237D01*
X134905734Y-65525000D01*
X135174266Y-65525000D01*
X135422357Y-65422237D01*
X135612237Y-65232357D01*
X135715000Y-64984266D01*
X135715000Y-64737929D01*
X137920022Y-64737929D01*
X137920022Y-65006461D01*
X138022785Y-65254552D01*
X138212665Y-65444432D01*
X138460756Y-65547195D01*
X138729288Y-65547195D01*
X138977379Y-65444432D01*
X139167259Y-65254552D01*
X139270022Y-65006461D01*
X139270022Y-64737929D01*
X139177986Y-64515734D01*
X139675000Y-64515734D01*
X139675000Y-64784266D01*
X139777763Y-65032357D01*
X139967643Y-65222237D01*
X140215734Y-65325000D01*
X140484266Y-65325000D01*
X140732357Y-65222237D01*
X140768860Y-65185734D01*
X146155000Y-65185734D01*
X146155000Y-65454266D01*
X146257763Y-65702357D01*
X146447643Y-65892237D01*
X146695734Y-65995000D01*
X146964266Y-65995000D01*
X147212357Y-65892237D01*
X147402237Y-65702357D01*
X147505000Y-65454266D01*
X147505000Y-65185734D01*
X147402237Y-64937643D01*
X147212357Y-64747763D01*
X146964266Y-64645000D01*
X146695734Y-64645000D01*
X146447643Y-64747763D01*
X146257763Y-64937643D01*
X146155000Y-65185734D01*
X140768860Y-65185734D01*
X140922237Y-65032357D01*
X141025000Y-64784266D01*
X141025000Y-64515734D01*
X140979437Y-64405734D01*
X147594891Y-64405734D01*
X147594891Y-64674266D01*
X147697654Y-64922357D01*
X147887534Y-65112237D01*
X148135625Y-65215000D01*
X148404157Y-65215000D01*
X148652248Y-65112237D01*
X148842128Y-64922357D01*
X148944891Y-64674266D01*
X148944891Y-64405734D01*
X148842128Y-64157643D01*
X148652248Y-63967763D01*
X148404157Y-63865000D01*
X148135625Y-63865000D01*
X147887534Y-63967763D01*
X147697654Y-64157643D01*
X147594891Y-64405734D01*
X140979437Y-64405734D01*
X140922237Y-64267643D01*
X140732357Y-64077763D01*
X140484266Y-63975000D01*
X140215734Y-63975000D01*
X139967643Y-64077763D01*
X139777763Y-64267643D01*
X139675000Y-64515734D01*
X139177986Y-64515734D01*
X139167259Y-64489838D01*
X138977379Y-64299958D01*
X138729288Y-64197195D01*
X138460756Y-64197195D01*
X138212665Y-64299958D01*
X138022785Y-64489838D01*
X137920022Y-64737929D01*
X135715000Y-64737929D01*
X135715000Y-64715734D01*
X135612237Y-64467643D01*
X135422357Y-64277763D01*
X135174266Y-64175000D01*
X134905734Y-64175000D01*
X134657643Y-64277763D01*
X134467763Y-64467643D01*
X134365000Y-64715734D01*
X134107112Y-64715734D01*
X134145000Y-64624266D01*
X134145000Y-64355734D01*
X134042237Y-64107643D01*
X133852357Y-63917763D01*
X133604266Y-63815000D01*
X133335734Y-63815000D01*
X133087643Y-63917763D01*
X132897763Y-64107643D01*
X132795000Y-64355734D01*
X113910328Y-64355734D01*
X113792357Y-64237763D01*
X113544266Y-64135000D01*
X113275734Y-64135000D01*
X113027643Y-64237763D01*
X112837763Y-64427643D01*
X112735000Y-64675734D01*
X80120328Y-64675734D01*
X79982357Y-64537763D01*
X79734266Y-64435000D01*
X79465734Y-64435000D01*
X79217643Y-64537763D01*
X79027763Y-64727643D01*
X78925000Y-64975734D01*
X77620328Y-64975734D01*
X77522357Y-64877763D01*
X77274266Y-64775000D01*
X77005734Y-64775000D01*
X76757643Y-64877763D01*
X76567763Y-65067643D01*
X76465000Y-65315734D01*
X74435033Y-65315734D01*
X74264266Y-65245000D01*
X73995734Y-65245000D01*
X73747643Y-65347763D01*
X73557763Y-65537643D01*
X73455000Y-65785734D01*
X54850000Y-65785734D01*
X54850000Y-64345734D01*
X73315000Y-64345734D01*
X73315000Y-64614266D01*
X73417763Y-64862357D01*
X73607643Y-65052237D01*
X73855734Y-65155000D01*
X74124266Y-65155000D01*
X74372357Y-65052237D01*
X74562237Y-64862357D01*
X74665000Y-64614266D01*
X74665000Y-64345734D01*
X74562237Y-64097643D01*
X74372357Y-63907763D01*
X74138102Y-63810731D01*
X111502953Y-63810731D01*
X111502953Y-64079263D01*
X111605716Y-64327354D01*
X111795596Y-64517234D01*
X112043687Y-64619997D01*
X112312219Y-64619997D01*
X112560310Y-64517234D01*
X112750190Y-64327354D01*
X112852953Y-64079263D01*
X112852953Y-63810731D01*
X112750190Y-63562640D01*
X112560310Y-63372760D01*
X112312219Y-63269997D01*
X112043687Y-63269997D01*
X111795596Y-63372760D01*
X111605716Y-63562640D01*
X111502953Y-63810731D01*
X74138102Y-63810731D01*
X74124266Y-63805000D01*
X73855734Y-63805000D01*
X73607643Y-63907763D01*
X73417763Y-64097643D01*
X73315000Y-64345734D01*
X54850000Y-64345734D01*
X54850000Y-61763734D01*
X69175000Y-61763734D01*
X69175000Y-62032266D01*
X69277763Y-62280357D01*
X69467643Y-62470237D01*
X69715734Y-62573000D01*
X69984266Y-62573000D01*
X70232357Y-62470237D01*
X70422237Y-62280357D01*
X70525000Y-62032266D01*
X70525000Y-61763734D01*
X70422237Y-61515643D01*
X70232357Y-61325763D01*
X69984266Y-61223000D01*
X69715734Y-61223000D01*
X69467643Y-61325763D01*
X69277763Y-61515643D01*
X69175000Y-61763734D01*
X54850000Y-61763734D01*
X54850000Y-59895790D01*
X67888382Y-59895790D01*
X67888382Y-60164322D01*
X67991145Y-60412413D01*
X68181025Y-60602293D01*
X68429116Y-60705056D01*
X68697648Y-60705056D01*
X68945739Y-60602293D01*
X69135619Y-60412413D01*
X69145873Y-60387656D01*
X69192801Y-60387656D01*
X69192801Y-60656188D01*
X69295564Y-60904279D01*
X69485444Y-61094159D01*
X69733535Y-61196922D01*
X70002067Y-61196922D01*
X70250158Y-61094159D01*
X70356659Y-60987658D01*
X70697662Y-60987658D01*
X70697662Y-61256190D01*
X70800425Y-61504281D01*
X70990305Y-61694161D01*
X71238396Y-61796924D01*
X71506928Y-61796924D01*
X71755019Y-61694161D01*
X71944899Y-61504281D01*
X72047662Y-61256190D01*
X72047662Y-60987658D01*
X71944899Y-60739567D01*
X71875288Y-60669956D01*
X108520778Y-60669956D01*
X108520778Y-60938488D01*
X108623541Y-61186579D01*
X108813421Y-61376459D01*
X109061512Y-61479222D01*
X109330044Y-61479222D01*
X109578135Y-61376459D01*
X109692970Y-61261624D01*
X109688628Y-61272106D01*
X109688628Y-61540638D01*
X109791391Y-61788729D01*
X109981271Y-61978609D01*
X110229362Y-62081372D01*
X110497894Y-62081372D01*
X110678957Y-62006373D01*
X110517687Y-62167643D01*
X110414924Y-62415734D01*
X110414924Y-62684266D01*
X110517687Y-62932357D01*
X110707567Y-63122237D01*
X110955658Y-63225000D01*
X111224190Y-63225000D01*
X111472281Y-63122237D01*
X111528784Y-63065734D01*
X129175000Y-63065734D01*
X129175000Y-63334266D01*
X129277763Y-63582357D01*
X129467643Y-63772237D01*
X129715734Y-63875000D01*
X129984266Y-63875000D01*
X130232357Y-63772237D01*
X130422237Y-63582357D01*
X130525000Y-63334266D01*
X130525000Y-63065734D01*
X130422237Y-62817643D01*
X130232357Y-62627763D01*
X129984266Y-62525000D01*
X129715734Y-62525000D01*
X129467643Y-62627763D01*
X129277763Y-62817643D01*
X129175000Y-63065734D01*
X111528784Y-63065734D01*
X111662161Y-62932357D01*
X111764924Y-62684266D01*
X111764924Y-62415734D01*
X111662161Y-62167643D01*
X111472281Y-61977763D01*
X111298389Y-61905734D01*
X130095000Y-61905734D01*
X130095000Y-62174266D01*
X130197763Y-62422357D01*
X130387643Y-62612237D01*
X130635734Y-62715000D01*
X130904266Y-62715000D01*
X131152357Y-62612237D01*
X131342237Y-62422357D01*
X131445000Y-62174266D01*
X131445000Y-61905734D01*
X131342237Y-61657643D01*
X131300328Y-61615734D01*
X137175000Y-61615734D01*
X137175000Y-61884266D01*
X137277763Y-62132357D01*
X137467643Y-62322237D01*
X137715734Y-62425000D01*
X137984266Y-62425000D01*
X138232357Y-62322237D01*
X138422237Y-62132357D01*
X138525000Y-61884266D01*
X138525000Y-61615734D01*
X138422237Y-61367643D01*
X138232357Y-61177763D01*
X137984266Y-61075000D01*
X137715734Y-61075000D01*
X137467643Y-61177763D01*
X137277763Y-61367643D01*
X137175000Y-61615734D01*
X131300328Y-61615734D01*
X131152357Y-61467763D01*
X130904266Y-61365000D01*
X130635734Y-61365000D01*
X130387643Y-61467763D01*
X130197763Y-61657643D01*
X130095000Y-61905734D01*
X111298389Y-61905734D01*
X111224190Y-61875000D01*
X110955658Y-61875000D01*
X110774595Y-61949999D01*
X110935865Y-61788729D01*
X111038628Y-61540638D01*
X111038628Y-61272106D01*
X110935865Y-61024015D01*
X110745985Y-60834135D01*
X110497894Y-60731372D01*
X110229362Y-60731372D01*
X109981271Y-60834135D01*
X109866436Y-60948970D01*
X109870778Y-60938488D01*
X109870778Y-60669956D01*
X109768015Y-60421865D01*
X109578135Y-60231985D01*
X109330044Y-60129222D01*
X109061512Y-60129222D01*
X108813421Y-60231985D01*
X108623541Y-60421865D01*
X108520778Y-60669956D01*
X71875288Y-60669956D01*
X71755019Y-60549687D01*
X71506928Y-60446924D01*
X71238396Y-60446924D01*
X70990305Y-60549687D01*
X70800425Y-60739567D01*
X70697662Y-60987658D01*
X70356659Y-60987658D01*
X70440038Y-60904279D01*
X70542801Y-60656188D01*
X70542801Y-60387656D01*
X70440038Y-60139565D01*
X70250158Y-59949685D01*
X70002067Y-59846922D01*
X69733535Y-59846922D01*
X69485444Y-59949685D01*
X69295564Y-60139565D01*
X69192801Y-60387656D01*
X69145873Y-60387656D01*
X69238382Y-60164322D01*
X69238382Y-59895790D01*
X69135619Y-59647699D01*
X68945739Y-59457819D01*
X68697648Y-59355056D01*
X68429116Y-59355056D01*
X68181025Y-59457819D01*
X67991145Y-59647699D01*
X67888382Y-59895790D01*
X54850000Y-59895790D01*
X54850000Y-58295767D01*
X67727447Y-58295767D01*
X67727447Y-58564299D01*
X67830210Y-58812390D01*
X68020090Y-59002270D01*
X68268181Y-59105033D01*
X68536713Y-59105033D01*
X68784804Y-59002270D01*
X68974684Y-58812390D01*
X69017797Y-58708306D01*
X69205041Y-58708306D01*
X69205041Y-58976838D01*
X69307804Y-59224929D01*
X69497684Y-59414809D01*
X69745775Y-59517572D01*
X70014307Y-59517572D01*
X70262398Y-59414809D01*
X70289572Y-59387635D01*
X70597193Y-59387635D01*
X70597193Y-59656167D01*
X70699956Y-59904258D01*
X70889836Y-60094138D01*
X71137927Y-60196901D01*
X71406459Y-60196901D01*
X71654550Y-60094138D01*
X71844430Y-59904258D01*
X71905672Y-59756406D01*
X127535672Y-59756406D01*
X127535672Y-60024938D01*
X127638435Y-60273029D01*
X127828315Y-60462909D01*
X128076406Y-60565672D01*
X128344938Y-60565672D01*
X128586208Y-60465734D01*
X128715000Y-60465734D01*
X128715000Y-60734266D01*
X128817763Y-60982357D01*
X129007643Y-61172237D01*
X129255734Y-61275000D01*
X129524266Y-61275000D01*
X129772357Y-61172237D01*
X129962237Y-60982357D01*
X130065000Y-60734266D01*
X130065000Y-60465734D01*
X129962237Y-60217643D01*
X129772357Y-60027763D01*
X129524266Y-59925000D01*
X129255734Y-59925000D01*
X129007643Y-60027763D01*
X128817763Y-60217643D01*
X128715000Y-60465734D01*
X128586208Y-60465734D01*
X128593029Y-60462909D01*
X128782909Y-60273029D01*
X128885672Y-60024938D01*
X128885672Y-59865724D01*
X130045000Y-59865724D01*
X130045000Y-60134256D01*
X130147763Y-60382347D01*
X130337643Y-60572227D01*
X130585734Y-60674990D01*
X130854266Y-60674990D01*
X131102357Y-60572227D01*
X131292237Y-60382347D01*
X131395000Y-60134256D01*
X131395000Y-59865724D01*
X131292237Y-59617633D01*
X131102357Y-59427753D01*
X130854266Y-59324990D01*
X130585734Y-59324990D01*
X130337643Y-59427753D01*
X130147763Y-59617633D01*
X130045000Y-59865724D01*
X128885672Y-59865724D01*
X128885672Y-59756406D01*
X128782909Y-59508315D01*
X128593029Y-59318435D01*
X128344938Y-59215672D01*
X128076406Y-59215672D01*
X127828315Y-59318435D01*
X127638435Y-59508315D01*
X127535672Y-59756406D01*
X71905672Y-59756406D01*
X71947193Y-59656167D01*
X71947193Y-59387635D01*
X71844430Y-59139544D01*
X71654550Y-58949664D01*
X71406459Y-58846901D01*
X71137927Y-58846901D01*
X70889836Y-58949664D01*
X70699956Y-59139544D01*
X70597193Y-59387635D01*
X70289572Y-59387635D01*
X70452278Y-59224929D01*
X70555041Y-58976838D01*
X70555041Y-58708306D01*
X70529123Y-58645734D01*
X92635001Y-58645734D01*
X92635001Y-58914266D01*
X92737764Y-59162357D01*
X92927644Y-59352237D01*
X93175735Y-59455000D01*
X93444267Y-59455000D01*
X93692358Y-59352237D01*
X93882238Y-59162357D01*
X93985001Y-58914266D01*
X93985001Y-58715734D01*
X98625000Y-58715734D01*
X98625000Y-58984266D01*
X98727763Y-59232357D01*
X98917643Y-59422237D01*
X99165734Y-59525000D01*
X99434266Y-59525000D01*
X99682357Y-59422237D01*
X99872237Y-59232357D01*
X99975000Y-58984266D01*
X99975000Y-58715734D01*
X99872237Y-58467643D01*
X99682357Y-58277763D01*
X99434266Y-58175000D01*
X99165734Y-58175000D01*
X98917643Y-58277763D01*
X98727763Y-58467643D01*
X98625000Y-58715734D01*
X93985001Y-58715734D01*
X93985001Y-58645734D01*
X93882238Y-58397643D01*
X93692358Y-58207763D01*
X93444267Y-58105000D01*
X93175735Y-58105000D01*
X92927644Y-58207763D01*
X92737764Y-58397643D01*
X92635001Y-58645734D01*
X70529123Y-58645734D01*
X70452278Y-58460215D01*
X70262398Y-58270335D01*
X70014307Y-58167572D01*
X69745775Y-58167572D01*
X69497684Y-58270335D01*
X69307804Y-58460215D01*
X69205041Y-58708306D01*
X69017797Y-58708306D01*
X69077447Y-58564299D01*
X69077447Y-58295767D01*
X68974684Y-58047676D01*
X68784804Y-57857796D01*
X68536713Y-57755033D01*
X68268181Y-57755033D01*
X68020090Y-57857796D01*
X67830210Y-58047676D01*
X67727447Y-58295767D01*
X54850000Y-58295767D01*
X54850000Y-56695744D01*
X67605000Y-56695744D01*
X67605000Y-56964276D01*
X67707763Y-57212367D01*
X67897643Y-57402247D01*
X68145734Y-57505010D01*
X68414266Y-57505010D01*
X68662357Y-57402247D01*
X68852237Y-57212367D01*
X68895350Y-57108283D01*
X69244925Y-57108283D01*
X69244925Y-57376815D01*
X69347688Y-57624906D01*
X69537568Y-57814786D01*
X69785659Y-57917549D01*
X70054191Y-57917549D01*
X70302282Y-57814786D01*
X70364057Y-57753011D01*
X70585733Y-57753011D01*
X70585733Y-58021543D01*
X70688496Y-58269634D01*
X70878376Y-58459514D01*
X71126467Y-58562277D01*
X71394999Y-58562277D01*
X71643090Y-58459514D01*
X71832970Y-58269634D01*
X71935733Y-58021543D01*
X71935733Y-57753011D01*
X71832970Y-57504920D01*
X71643090Y-57315040D01*
X71638228Y-57313026D01*
X94311095Y-57313026D01*
X94311095Y-57581558D01*
X94413858Y-57829649D01*
X94603738Y-58019529D01*
X94851829Y-58122292D01*
X95120361Y-58122292D01*
X95368452Y-58019529D01*
X95558332Y-57829649D01*
X95661095Y-57581558D01*
X95661095Y-57313026D01*
X95558332Y-57064935D01*
X95368452Y-56875055D01*
X95165765Y-56791099D01*
X96011647Y-56791099D01*
X96011647Y-57059631D01*
X96114410Y-57307722D01*
X96304290Y-57497602D01*
X96552381Y-57600365D01*
X96820913Y-57600365D01*
X97069004Y-57497602D01*
X97080872Y-57485734D01*
X97355000Y-57485734D01*
X97355000Y-57754266D01*
X97457763Y-58002357D01*
X97647643Y-58192237D01*
X97895734Y-58295000D01*
X98164266Y-58295000D01*
X98412357Y-58192237D01*
X98602237Y-58002357D01*
X98705000Y-57754266D01*
X98705000Y-57485734D01*
X98602237Y-57237643D01*
X98412357Y-57047763D01*
X98164266Y-56945000D01*
X97895734Y-56945000D01*
X97647643Y-57047763D01*
X97457763Y-57237643D01*
X97355000Y-57485734D01*
X97080872Y-57485734D01*
X97258884Y-57307722D01*
X97361647Y-57059631D01*
X97361647Y-56791099D01*
X97322146Y-56695734D01*
X111805000Y-56695734D01*
X111805000Y-56964266D01*
X111907763Y-57212357D01*
X112097643Y-57402237D01*
X112345734Y-57505000D01*
X112614266Y-57505000D01*
X112862357Y-57402237D01*
X112878860Y-57385734D01*
X113265000Y-57385734D01*
X113265000Y-57654266D01*
X113367763Y-57902357D01*
X113557643Y-58092237D01*
X113805734Y-58195000D01*
X114074266Y-58195000D01*
X114322357Y-58092237D01*
X114368860Y-58045734D01*
X114675000Y-58045734D01*
X114675000Y-58314266D01*
X114777763Y-58562357D01*
X114967643Y-58752237D01*
X115215734Y-58855000D01*
X115484266Y-58855000D01*
X115732357Y-58752237D01*
X115848860Y-58635734D01*
X115945000Y-58635734D01*
X115945000Y-58904266D01*
X116047763Y-59152357D01*
X116237643Y-59342237D01*
X116485734Y-59445000D01*
X116754266Y-59445000D01*
X117002357Y-59342237D01*
X117192237Y-59152357D01*
X117295000Y-58904266D01*
X117295000Y-58635734D01*
X117192237Y-58387643D01*
X117002357Y-58197763D01*
X116754266Y-58095000D01*
X116485734Y-58095000D01*
X116237643Y-58197763D01*
X116047763Y-58387643D01*
X115945000Y-58635734D01*
X115848860Y-58635734D01*
X115922237Y-58562357D01*
X116025000Y-58314266D01*
X116025000Y-58045734D01*
X116013455Y-58017861D01*
X127577117Y-58017861D01*
X127577117Y-58286393D01*
X127679880Y-58534484D01*
X127869760Y-58724364D01*
X128117851Y-58827127D01*
X128386383Y-58827127D01*
X128634474Y-58724364D01*
X128767059Y-58591779D01*
X128695000Y-58765744D01*
X128695000Y-59034276D01*
X128797763Y-59282367D01*
X128987643Y-59472247D01*
X129235734Y-59575010D01*
X129504266Y-59575010D01*
X129752357Y-59472247D01*
X129942237Y-59282367D01*
X130045000Y-59034276D01*
X130045000Y-58765744D01*
X129942237Y-58517653D01*
X129752357Y-58327773D01*
X129504266Y-58225010D01*
X129235734Y-58225010D01*
X128987643Y-58327773D01*
X128855058Y-58460358D01*
X128927117Y-58286393D01*
X128927117Y-58215724D01*
X129995000Y-58215724D01*
X129995000Y-58484256D01*
X130097763Y-58732347D01*
X130287643Y-58922227D01*
X130535734Y-59024990D01*
X130804266Y-59024990D01*
X131052357Y-58922227D01*
X131242237Y-58732347D01*
X131345000Y-58484256D01*
X131345000Y-58215724D01*
X131242237Y-57967633D01*
X131180349Y-57905745D01*
X138885544Y-57905745D01*
X138885544Y-58174277D01*
X138988307Y-58422368D01*
X139178187Y-58612248D01*
X139426278Y-58715011D01*
X139694810Y-58715011D01*
X139942901Y-58612248D01*
X140132781Y-58422368D01*
X140235544Y-58174277D01*
X140235544Y-57905745D01*
X140132781Y-57657654D01*
X139942901Y-57467774D01*
X139694810Y-57365011D01*
X139426278Y-57365011D01*
X139178187Y-57467774D01*
X138988307Y-57657654D01*
X138885544Y-57905745D01*
X131180349Y-57905745D01*
X131052357Y-57777753D01*
X130804266Y-57674990D01*
X130535734Y-57674990D01*
X130287643Y-57777753D01*
X130097763Y-57967633D01*
X129995000Y-58215724D01*
X128927117Y-58215724D01*
X128927117Y-58017861D01*
X128824354Y-57769770D01*
X128634474Y-57579890D01*
X128386383Y-57477127D01*
X128117851Y-57477127D01*
X127869760Y-57579890D01*
X127679880Y-57769770D01*
X127577117Y-58017861D01*
X116013455Y-58017861D01*
X115922237Y-57797643D01*
X115732357Y-57607763D01*
X115484266Y-57505000D01*
X115215734Y-57505000D01*
X114967643Y-57607763D01*
X114777763Y-57797643D01*
X114675000Y-58045734D01*
X114368860Y-58045734D01*
X114512237Y-57902357D01*
X114615000Y-57654266D01*
X114615000Y-57385734D01*
X114512237Y-57137643D01*
X114322357Y-56947763D01*
X114074266Y-56845000D01*
X113805734Y-56845000D01*
X113557643Y-56947763D01*
X113367763Y-57137643D01*
X113265000Y-57385734D01*
X112878860Y-57385734D01*
X113052237Y-57212357D01*
X113155000Y-56964266D01*
X113155000Y-56695734D01*
X113052237Y-56447643D01*
X113020328Y-56415734D01*
X124835000Y-56415734D01*
X124835000Y-56684266D01*
X124937763Y-56932357D01*
X125127643Y-57122237D01*
X125375734Y-57225000D01*
X125644266Y-57225000D01*
X125892357Y-57122237D01*
X126082237Y-56932357D01*
X126089122Y-56915734D01*
X128695000Y-56915734D01*
X128695000Y-57184266D01*
X128797763Y-57432357D01*
X128987643Y-57622237D01*
X129235734Y-57725000D01*
X129504266Y-57725000D01*
X129752357Y-57622237D01*
X129942237Y-57432357D01*
X130045000Y-57184266D01*
X130045000Y-56915734D01*
X129942237Y-56667643D01*
X129752357Y-56477763D01*
X129602631Y-56415744D01*
X129975000Y-56415744D01*
X129975000Y-56684276D01*
X130077763Y-56932367D01*
X130267643Y-57122247D01*
X130515734Y-57225010D01*
X130784266Y-57225010D01*
X131032357Y-57122247D01*
X131222237Y-56932367D01*
X131325000Y-56684276D01*
X131325000Y-56525734D01*
X133574998Y-56525734D01*
X133574998Y-56794266D01*
X133677761Y-57042357D01*
X133867641Y-57232237D01*
X134115732Y-57335000D01*
X134384264Y-57335000D01*
X134632355Y-57232237D01*
X134822235Y-57042357D01*
X134924998Y-56794266D01*
X134924998Y-56525734D01*
X134822235Y-56277643D01*
X134674093Y-56129501D01*
X137675000Y-56129501D01*
X137675000Y-56398033D01*
X137777763Y-56646124D01*
X137967643Y-56836004D01*
X138215734Y-56938767D01*
X138484266Y-56938767D01*
X138732357Y-56836004D01*
X138922237Y-56646124D01*
X139025000Y-56398033D01*
X139025000Y-56129501D01*
X138922237Y-55881410D01*
X138756551Y-55715724D01*
X142835000Y-55715724D01*
X142835000Y-55984256D01*
X142937763Y-56232347D01*
X143127643Y-56422227D01*
X143375734Y-56524990D01*
X143644266Y-56524990D01*
X143892357Y-56422227D01*
X144082237Y-56232347D01*
X144101602Y-56185595D01*
X145702043Y-56185595D01*
X145702043Y-56454127D01*
X145804806Y-56702218D01*
X145994686Y-56892098D01*
X146242777Y-56994861D01*
X146511309Y-56994861D01*
X146759400Y-56892098D01*
X146949280Y-56702218D01*
X147052043Y-56454127D01*
X147052043Y-56185595D01*
X146949280Y-55937504D01*
X146759400Y-55747624D01*
X146511309Y-55644861D01*
X146242777Y-55644861D01*
X145994686Y-55747624D01*
X145804806Y-55937504D01*
X145702043Y-56185595D01*
X144101602Y-56185595D01*
X144185000Y-55984256D01*
X144185000Y-55715724D01*
X144082237Y-55467633D01*
X143892357Y-55277753D01*
X143644266Y-55174990D01*
X143375734Y-55174990D01*
X143127643Y-55277753D01*
X142937763Y-55467633D01*
X142835000Y-55715724D01*
X138756551Y-55715724D01*
X138732357Y-55691530D01*
X138484266Y-55588767D01*
X138215734Y-55588767D01*
X137967643Y-55691530D01*
X137777763Y-55881410D01*
X137675000Y-56129501D01*
X134674093Y-56129501D01*
X134632355Y-56087763D01*
X134384264Y-55985000D01*
X134115732Y-55985000D01*
X133867641Y-56087763D01*
X133677761Y-56277643D01*
X133574998Y-56525734D01*
X131325000Y-56525734D01*
X131325000Y-56415744D01*
X131222237Y-56167653D01*
X131032357Y-55977773D01*
X130784266Y-55875010D01*
X130515734Y-55875010D01*
X130267643Y-55977773D01*
X130077763Y-56167653D01*
X129975000Y-56415744D01*
X129602631Y-56415744D01*
X129504266Y-56375000D01*
X129235734Y-56375000D01*
X128987643Y-56477763D01*
X128797763Y-56667643D01*
X128695000Y-56915734D01*
X126089122Y-56915734D01*
X126185000Y-56684266D01*
X126185000Y-56415734D01*
X126082237Y-56167643D01*
X125892357Y-55977763D01*
X125644266Y-55875000D01*
X125375734Y-55875000D01*
X125127643Y-55977763D01*
X124937763Y-56167643D01*
X124835000Y-56415734D01*
X113020328Y-56415734D01*
X112862357Y-56257763D01*
X112614266Y-56155000D01*
X112345734Y-56155000D01*
X112097643Y-56257763D01*
X111907763Y-56447643D01*
X111805000Y-56695734D01*
X97322146Y-56695734D01*
X97258884Y-56543008D01*
X97069004Y-56353128D01*
X96820913Y-56250365D01*
X96552381Y-56250365D01*
X96304290Y-56353128D01*
X96114410Y-56543008D01*
X96011647Y-56791099D01*
X95165765Y-56791099D01*
X95120361Y-56772292D01*
X94851829Y-56772292D01*
X94603738Y-56875055D01*
X94413858Y-57064935D01*
X94311095Y-57313026D01*
X71638228Y-57313026D01*
X71394999Y-57212277D01*
X71126467Y-57212277D01*
X70878376Y-57315040D01*
X70688496Y-57504920D01*
X70585733Y-57753011D01*
X70364057Y-57753011D01*
X70492162Y-57624906D01*
X70594925Y-57376815D01*
X70594925Y-57108283D01*
X70492162Y-56860192D01*
X70302282Y-56670312D01*
X70054191Y-56567549D01*
X69785659Y-56567549D01*
X69537568Y-56670312D01*
X69347688Y-56860192D01*
X69244925Y-57108283D01*
X68895350Y-57108283D01*
X68955000Y-56964276D01*
X68955000Y-56695744D01*
X68852237Y-56447653D01*
X68662357Y-56257773D01*
X68416014Y-56155734D01*
X74195000Y-56155734D01*
X74195000Y-56424266D01*
X74297763Y-56672357D01*
X74487643Y-56862237D01*
X74735734Y-56965000D01*
X75004266Y-56965000D01*
X75252357Y-56862237D01*
X75442237Y-56672357D01*
X75545000Y-56424266D01*
X75545000Y-56155734D01*
X75466300Y-55965734D01*
X86405000Y-55965734D01*
X86405000Y-56234266D01*
X86507763Y-56482357D01*
X86697643Y-56672237D01*
X86945734Y-56775000D01*
X87214266Y-56775000D01*
X87462357Y-56672237D01*
X87652237Y-56482357D01*
X87717112Y-56325734D01*
X91625000Y-56325734D01*
X91625000Y-56594266D01*
X91727763Y-56842357D01*
X91917643Y-57032237D01*
X92165734Y-57135000D01*
X92434266Y-57135000D01*
X92682357Y-57032237D01*
X92872237Y-56842357D01*
X92975000Y-56594266D01*
X92975000Y-56325734D01*
X92872237Y-56077643D01*
X92682357Y-55887763D01*
X92434266Y-55785000D01*
X92165734Y-55785000D01*
X91917643Y-55887763D01*
X91727763Y-56077643D01*
X91625000Y-56325734D01*
X87717112Y-56325734D01*
X87755000Y-56234266D01*
X87755000Y-55965734D01*
X87655593Y-55725744D01*
X110739426Y-55725744D01*
X110739426Y-55994276D01*
X110842189Y-56242367D01*
X111032069Y-56432247D01*
X111280160Y-56535010D01*
X111548692Y-56535010D01*
X111796783Y-56432247D01*
X111986663Y-56242367D01*
X112089426Y-55994276D01*
X112089426Y-55725744D01*
X112010722Y-55535734D01*
X120635000Y-55535734D01*
X120635000Y-55804266D01*
X120737763Y-56052357D01*
X120927643Y-56242237D01*
X121175734Y-56345000D01*
X121444266Y-56345000D01*
X121692357Y-56242237D01*
X121882237Y-56052357D01*
X121985000Y-55804266D01*
X121985000Y-55535734D01*
X121882237Y-55287643D01*
X121692357Y-55097763D01*
X121444266Y-54995000D01*
X121175734Y-54995000D01*
X120927643Y-55097763D01*
X120737763Y-55287643D01*
X120635000Y-55535734D01*
X112010722Y-55535734D01*
X111986663Y-55477653D01*
X111796783Y-55287773D01*
X111548692Y-55185010D01*
X111280160Y-55185010D01*
X111032069Y-55287773D01*
X110842189Y-55477653D01*
X110739426Y-55725744D01*
X87655593Y-55725744D01*
X87652237Y-55717643D01*
X87462357Y-55527763D01*
X87214266Y-55425000D01*
X86945734Y-55425000D01*
X86697643Y-55527763D01*
X86507763Y-55717643D01*
X86405000Y-55965734D01*
X75466300Y-55965734D01*
X75442237Y-55907643D01*
X75252357Y-55717763D01*
X75004266Y-55615000D01*
X74735734Y-55615000D01*
X74487643Y-55717763D01*
X74297763Y-55907643D01*
X74195000Y-56155734D01*
X68416014Y-56155734D01*
X68414266Y-56155010D01*
X68145734Y-56155010D01*
X67897643Y-56257773D01*
X67707763Y-56447653D01*
X67605000Y-56695744D01*
X54850000Y-56695744D01*
X54850000Y-54302992D01*
X70379222Y-54302992D01*
X70379222Y-54571524D01*
X70481985Y-54819615D01*
X70671865Y-55009495D01*
X70919956Y-55112258D01*
X71188488Y-55112258D01*
X71436579Y-55009495D01*
X71438522Y-55007552D01*
X71467763Y-55078147D01*
X71657643Y-55268027D01*
X71905734Y-55370790D01*
X72174266Y-55370790D01*
X72422357Y-55268027D01*
X72612237Y-55078147D01*
X72715000Y-54830056D01*
X72715000Y-54561524D01*
X72633929Y-54365801D01*
X74203742Y-54365801D01*
X74203742Y-54634333D01*
X74306505Y-54882424D01*
X74496385Y-55072304D01*
X74744476Y-55175067D01*
X75013008Y-55175067D01*
X75261099Y-55072304D01*
X75450979Y-54882424D01*
X75553742Y-54634333D01*
X75553742Y-54373698D01*
X86404652Y-54373698D01*
X86404652Y-54642230D01*
X86507415Y-54890321D01*
X86697295Y-55080201D01*
X86945386Y-55182964D01*
X87213918Y-55182964D01*
X87462009Y-55080201D01*
X87651889Y-54890321D01*
X87754652Y-54642230D01*
X87754652Y-54373698D01*
X87655786Y-54135013D01*
X90202326Y-54135013D01*
X90202326Y-54403545D01*
X90305089Y-54651636D01*
X90494969Y-54841516D01*
X90743060Y-54944279D01*
X91011592Y-54944279D01*
X91259683Y-54841516D01*
X91449563Y-54651636D01*
X91481002Y-54575734D01*
X106185000Y-54575734D01*
X106185000Y-54844266D01*
X106287763Y-55092357D01*
X106477643Y-55282237D01*
X106725734Y-55385000D01*
X106994266Y-55385000D01*
X107242357Y-55282237D01*
X107432237Y-55092357D01*
X107535000Y-54844266D01*
X107535000Y-54575734D01*
X107432237Y-54327643D01*
X107340328Y-54235734D01*
X107755000Y-54235734D01*
X107755000Y-54504266D01*
X107857763Y-54752357D01*
X108047643Y-54942237D01*
X108295734Y-55045000D01*
X108564266Y-55045000D01*
X108812357Y-54942237D01*
X109002237Y-54752357D01*
X109105000Y-54504266D01*
X109105000Y-54235734D01*
X109002237Y-53987643D01*
X108812357Y-53797763D01*
X108638387Y-53725702D01*
X109385000Y-53725702D01*
X109385000Y-53994234D01*
X109487763Y-54242325D01*
X109677643Y-54432205D01*
X109925734Y-54534968D01*
X110194266Y-54534968D01*
X110442357Y-54432205D01*
X110632237Y-54242325D01*
X110735000Y-53994234D01*
X110735000Y-53775734D01*
X129555000Y-53775734D01*
X129555000Y-54044266D01*
X129657763Y-54292357D01*
X129847643Y-54482237D01*
X130095734Y-54585000D01*
X130364266Y-54585000D01*
X130585000Y-54493569D01*
X130585000Y-54614266D01*
X130687763Y-54862357D01*
X130877643Y-55052237D01*
X131125734Y-55155000D01*
X131394266Y-55155000D01*
X131642357Y-55052237D01*
X131785535Y-54909059D01*
X133568411Y-54909059D01*
X133568411Y-55177591D01*
X133671174Y-55425682D01*
X133861054Y-55615562D01*
X134109145Y-55718325D01*
X134377677Y-55718325D01*
X134625768Y-55615562D01*
X134815648Y-55425682D01*
X134918411Y-55177591D01*
X134918411Y-54909059D01*
X134815648Y-54660968D01*
X134700424Y-54545744D01*
X145560639Y-54545744D01*
X145560639Y-54814276D01*
X145663402Y-55062367D01*
X145853282Y-55252247D01*
X146101373Y-55355010D01*
X146369905Y-55355010D01*
X146617996Y-55252247D01*
X146807876Y-55062367D01*
X146910639Y-54814276D01*
X146910639Y-54545744D01*
X146856792Y-54415744D01*
X150125000Y-54415744D01*
X150125000Y-54684276D01*
X150227763Y-54932367D01*
X150417643Y-55122247D01*
X150665734Y-55225010D01*
X150934266Y-55225010D01*
X151182357Y-55122247D01*
X151372237Y-54932367D01*
X151475000Y-54684276D01*
X151475000Y-54415744D01*
X151372237Y-54167653D01*
X151182357Y-53977773D01*
X150934266Y-53875010D01*
X150665734Y-53875010D01*
X150417643Y-53977773D01*
X150227763Y-54167653D01*
X150125000Y-54415744D01*
X146856792Y-54415744D01*
X146807876Y-54297653D01*
X146617996Y-54107773D01*
X146369905Y-54005010D01*
X146101373Y-54005010D01*
X145853282Y-54107773D01*
X145663402Y-54297653D01*
X145560639Y-54545744D01*
X134700424Y-54545744D01*
X134625768Y-54471088D01*
X134377677Y-54368325D01*
X134109145Y-54368325D01*
X133861054Y-54471088D01*
X133671174Y-54660968D01*
X133568411Y-54909059D01*
X131785535Y-54909059D01*
X131832237Y-54862357D01*
X131935000Y-54614266D01*
X131935000Y-54345734D01*
X131832237Y-54097643D01*
X131642357Y-53907763D01*
X131394266Y-53805000D01*
X131125734Y-53805000D01*
X130905000Y-53896431D01*
X130905000Y-53775734D01*
X130802237Y-53527643D01*
X130612357Y-53337763D01*
X130364266Y-53235000D01*
X130095734Y-53235000D01*
X129847643Y-53337763D01*
X129657763Y-53527643D01*
X129555000Y-53775734D01*
X110735000Y-53775734D01*
X110735000Y-53725702D01*
X110632237Y-53477611D01*
X110442357Y-53287731D01*
X110194266Y-53184968D01*
X109925734Y-53184968D01*
X109677643Y-53287731D01*
X109487763Y-53477611D01*
X109385000Y-53725702D01*
X108638387Y-53725702D01*
X108564266Y-53695000D01*
X108295734Y-53695000D01*
X108047643Y-53797763D01*
X107857763Y-53987643D01*
X107755000Y-54235734D01*
X107340328Y-54235734D01*
X107242357Y-54137763D01*
X106994266Y-54035000D01*
X106725734Y-54035000D01*
X106477643Y-54137763D01*
X106287763Y-54327643D01*
X106185000Y-54575734D01*
X91481002Y-54575734D01*
X91552326Y-54403545D01*
X91552326Y-54135013D01*
X91449563Y-53886922D01*
X91259683Y-53697042D01*
X91011592Y-53594279D01*
X90743060Y-53594279D01*
X90494969Y-53697042D01*
X90305089Y-53886922D01*
X90202326Y-54135013D01*
X87655786Y-54135013D01*
X87651889Y-54125607D01*
X87462009Y-53935727D01*
X87213918Y-53832964D01*
X86945386Y-53832964D01*
X86697295Y-53935727D01*
X86507415Y-54125607D01*
X86404652Y-54373698D01*
X75553742Y-54373698D01*
X75553742Y-54365801D01*
X75450979Y-54117710D01*
X75261099Y-53927830D01*
X75013008Y-53825067D01*
X74744476Y-53825067D01*
X74496385Y-53927830D01*
X74306505Y-54117710D01*
X74203742Y-54365801D01*
X72633929Y-54365801D01*
X72612237Y-54313433D01*
X72422357Y-54123553D01*
X72174266Y-54020790D01*
X71905734Y-54020790D01*
X71657643Y-54123553D01*
X71655700Y-54125496D01*
X71626459Y-54054901D01*
X71436579Y-53865021D01*
X71188488Y-53762258D01*
X70919956Y-53762258D01*
X70671865Y-53865021D01*
X70481985Y-54054901D01*
X70379222Y-54302992D01*
X54850000Y-54302992D01*
X54850000Y-53305734D01*
X67095000Y-53305734D01*
X67095000Y-53574266D01*
X67197763Y-53822357D01*
X67387643Y-54012237D01*
X67635734Y-54115000D01*
X67904266Y-54115000D01*
X68152357Y-54012237D01*
X68342237Y-53822357D01*
X68445000Y-53574266D01*
X68445000Y-53305734D01*
X68342237Y-53057643D01*
X68340318Y-53055724D01*
X71056549Y-53055724D01*
X71056549Y-53324256D01*
X71159312Y-53572347D01*
X71349192Y-53762227D01*
X71597283Y-53864990D01*
X71865815Y-53864990D01*
X72113906Y-53762227D01*
X72303786Y-53572347D01*
X72319253Y-53535006D01*
X93495728Y-53535006D01*
X93495728Y-53803538D01*
X93598491Y-54051629D01*
X93788371Y-54241509D01*
X94036462Y-54344272D01*
X94304994Y-54344272D01*
X94553085Y-54241509D01*
X94742965Y-54051629D01*
X94845728Y-53803538D01*
X94845728Y-53535006D01*
X94742965Y-53286915D01*
X94553085Y-53097035D01*
X94304994Y-52994272D01*
X94036462Y-52994272D01*
X93788371Y-53097035D01*
X93598491Y-53286915D01*
X93495728Y-53535006D01*
X72319253Y-53535006D01*
X72406549Y-53324256D01*
X72406549Y-53055724D01*
X72303786Y-52807633D01*
X72131887Y-52635734D01*
X90965000Y-52635734D01*
X90965000Y-52904266D01*
X91067763Y-53152357D01*
X91257643Y-53342237D01*
X91505734Y-53445000D01*
X91774266Y-53445000D01*
X92022357Y-53342237D01*
X92212237Y-53152357D01*
X92306107Y-52925734D01*
X106675000Y-52925734D01*
X106675000Y-53194266D01*
X106777763Y-53442357D01*
X106967643Y-53632237D01*
X107215734Y-53735000D01*
X107484266Y-53735000D01*
X107732357Y-53632237D01*
X107922237Y-53442357D01*
X108025000Y-53194266D01*
X108025000Y-52925734D01*
X107922237Y-52677643D01*
X107732357Y-52487763D01*
X107606749Y-52435734D01*
X108315000Y-52435734D01*
X108315000Y-52704266D01*
X108417763Y-52952357D01*
X108607643Y-53142237D01*
X108855734Y-53245000D01*
X109124266Y-53245000D01*
X109372357Y-53142237D01*
X109562237Y-52952357D01*
X109665000Y-52704266D01*
X109665000Y-52649791D01*
X123173899Y-52649791D01*
X123173899Y-52918323D01*
X123276662Y-53166414D01*
X123466542Y-53356294D01*
X123714633Y-53459057D01*
X123983165Y-53459057D01*
X124231256Y-53356294D01*
X124381816Y-53205734D01*
X150835000Y-53205734D01*
X150835000Y-53474266D01*
X150937763Y-53722357D01*
X151127643Y-53912237D01*
X151375734Y-54015000D01*
X151644266Y-54015000D01*
X151892357Y-53912237D01*
X152038132Y-53766462D01*
X153284272Y-53766462D01*
X153284272Y-54034994D01*
X153387035Y-54283085D01*
X153576915Y-54472965D01*
X153825006Y-54575728D01*
X154093538Y-54575728D01*
X154341629Y-54472965D01*
X154531509Y-54283085D01*
X154634272Y-54034994D01*
X154634272Y-53766462D01*
X154531509Y-53518371D01*
X154341629Y-53328491D01*
X154093538Y-53225728D01*
X153825006Y-53225728D01*
X153576915Y-53328491D01*
X153387035Y-53518371D01*
X153284272Y-53766462D01*
X152038132Y-53766462D01*
X152082237Y-53722357D01*
X152185000Y-53474266D01*
X152185000Y-53205734D01*
X152082237Y-52957643D01*
X151892357Y-52767763D01*
X151644266Y-52665000D01*
X151375734Y-52665000D01*
X151127643Y-52767763D01*
X150937763Y-52957643D01*
X150835000Y-53205734D01*
X124381816Y-53205734D01*
X124421136Y-53166414D01*
X124523899Y-52918323D01*
X124523899Y-52649791D01*
X124421136Y-52401700D01*
X124231256Y-52211820D01*
X123983165Y-52109057D01*
X123714633Y-52109057D01*
X123466542Y-52211820D01*
X123276662Y-52401700D01*
X123173899Y-52649791D01*
X109665000Y-52649791D01*
X109665000Y-52435734D01*
X109562237Y-52187643D01*
X109372357Y-51997763D01*
X109124266Y-51895000D01*
X108855734Y-51895000D01*
X108607643Y-51997763D01*
X108417763Y-52187643D01*
X108315000Y-52435734D01*
X107606749Y-52435734D01*
X107484266Y-52385000D01*
X107215734Y-52385000D01*
X106967643Y-52487763D01*
X106777763Y-52677643D01*
X106675000Y-52925734D01*
X92306107Y-52925734D01*
X92315000Y-52904266D01*
X92315000Y-52635734D01*
X92212237Y-52387643D01*
X92022357Y-52197763D01*
X91774266Y-52095000D01*
X91505734Y-52095000D01*
X91257643Y-52197763D01*
X91067763Y-52387643D01*
X90965000Y-52635734D01*
X72131887Y-52635734D01*
X72113906Y-52617753D01*
X71865815Y-52514990D01*
X71597283Y-52514990D01*
X71349192Y-52617753D01*
X71159312Y-52807633D01*
X71056549Y-53055724D01*
X68340318Y-53055724D01*
X68152357Y-52867763D01*
X67904266Y-52765000D01*
X67635734Y-52765000D01*
X67387643Y-52867763D01*
X67197763Y-53057643D01*
X67095000Y-53305734D01*
X54850000Y-53305734D01*
X54850000Y-52055734D01*
X69725000Y-52055734D01*
X69725000Y-52324266D01*
X69827763Y-52572357D01*
X70017643Y-52762237D01*
X70265734Y-52865000D01*
X70534266Y-52865000D01*
X70782357Y-52762237D01*
X70972237Y-52572357D01*
X71075000Y-52324266D01*
X71075000Y-52055734D01*
X70972237Y-51807643D01*
X70782357Y-51617763D01*
X70534266Y-51515000D01*
X70265734Y-51515000D01*
X70017643Y-51617763D01*
X69827763Y-51807643D01*
X69725000Y-52055734D01*
X54850000Y-52055734D01*
X54850000Y-51483788D01*
X124373299Y-51483788D01*
X124373299Y-51752320D01*
X124476062Y-52000411D01*
X124665942Y-52190291D01*
X124914033Y-52293054D01*
X125182565Y-52293054D01*
X125430656Y-52190291D01*
X125620536Y-52000411D01*
X125723299Y-51752320D01*
X125723299Y-51483788D01*
X125620536Y-51235697D01*
X125430656Y-51045817D01*
X125182565Y-50943054D01*
X124914033Y-50943054D01*
X124665942Y-51045817D01*
X124476062Y-51235697D01*
X124373299Y-51483788D01*
X54850000Y-51483788D01*
X54850000Y-48895734D01*
X79685000Y-48895734D01*
X79685000Y-49164266D01*
X79787763Y-49412357D01*
X79977643Y-49602237D01*
X80225734Y-49705000D01*
X80494266Y-49705000D01*
X80742357Y-49602237D01*
X80932237Y-49412357D01*
X81035000Y-49164266D01*
X81035000Y-48925734D01*
X81564998Y-48925734D01*
X81564998Y-49194266D01*
X81667761Y-49442357D01*
X81857641Y-49632237D01*
X82105732Y-49735000D01*
X82374264Y-49735000D01*
X82622355Y-49632237D01*
X82812235Y-49442357D01*
X82914998Y-49194266D01*
X82914998Y-48925734D01*
X82812235Y-48677643D01*
X82800326Y-48665734D01*
X129345000Y-48665734D01*
X129345000Y-48934266D01*
X129447763Y-49182357D01*
X129637643Y-49372237D01*
X129885734Y-49475000D01*
X130154266Y-49475000D01*
X130402357Y-49372237D01*
X130592237Y-49182357D01*
X130677853Y-48975662D01*
X138907754Y-48975662D01*
X138907754Y-49244194D01*
X139010517Y-49492285D01*
X139200397Y-49682165D01*
X139448488Y-49784928D01*
X139717020Y-49784928D01*
X139965111Y-49682165D01*
X140154991Y-49492285D01*
X140257754Y-49244194D01*
X140257754Y-49065734D01*
X140535000Y-49065734D01*
X140535000Y-49334266D01*
X140637763Y-49582357D01*
X140827643Y-49772237D01*
X141075734Y-49875000D01*
X141344266Y-49875000D01*
X141592357Y-49772237D01*
X141782237Y-49582357D01*
X141885000Y-49334266D01*
X141885000Y-49065734D01*
X141782237Y-48817643D01*
X141592357Y-48627763D01*
X141344266Y-48525000D01*
X141075734Y-48525000D01*
X140827643Y-48627763D01*
X140637763Y-48817643D01*
X140535000Y-49065734D01*
X140257754Y-49065734D01*
X140257754Y-48975662D01*
X140154991Y-48727571D01*
X139965111Y-48537691D01*
X139717020Y-48434928D01*
X139448488Y-48434928D01*
X139200397Y-48537691D01*
X139010517Y-48727571D01*
X138907754Y-48975662D01*
X130677853Y-48975662D01*
X130695000Y-48934266D01*
X130695000Y-48665734D01*
X130592237Y-48417643D01*
X130402357Y-48227763D01*
X130154266Y-48125000D01*
X129885734Y-48125000D01*
X129637643Y-48227763D01*
X129447763Y-48417643D01*
X129345000Y-48665734D01*
X82800326Y-48665734D01*
X82622355Y-48487763D01*
X82374264Y-48385000D01*
X82105732Y-48385000D01*
X81857641Y-48487763D01*
X81667761Y-48677643D01*
X81564998Y-48925734D01*
X81035000Y-48925734D01*
X81035000Y-48895734D01*
X80932237Y-48647643D01*
X80742357Y-48457763D01*
X80494266Y-48355000D01*
X80225734Y-48355000D01*
X79977643Y-48457763D01*
X79787763Y-48647643D01*
X79685000Y-48895734D01*
X54850000Y-48895734D01*
X54850000Y-47834218D01*
X130531309Y-47834218D01*
X130531309Y-48102750D01*
X130634072Y-48350841D01*
X130823952Y-48540721D01*
X131072043Y-48643484D01*
X131340575Y-48643484D01*
X131588666Y-48540721D01*
X131778546Y-48350841D01*
X131881309Y-48102750D01*
X131881309Y-47834218D01*
X131778546Y-47586127D01*
X131748132Y-47555713D01*
X132233514Y-47555713D01*
X132233514Y-47824245D01*
X132336277Y-48072336D01*
X132526157Y-48262216D01*
X132774248Y-48364979D01*
X133042780Y-48364979D01*
X133290871Y-48262216D01*
X133480751Y-48072336D01*
X133583514Y-47824245D01*
X133583514Y-47555713D01*
X133480751Y-47307622D01*
X133290871Y-47117742D01*
X133042780Y-47014979D01*
X132774248Y-47014979D01*
X132526157Y-47117742D01*
X132336277Y-47307622D01*
X132233514Y-47555713D01*
X131748132Y-47555713D01*
X131588666Y-47396247D01*
X131340575Y-47293484D01*
X131072043Y-47293484D01*
X130823952Y-47396247D01*
X130634072Y-47586127D01*
X130531309Y-47834218D01*
X54850000Y-47834218D01*
X54850000Y-45423651D01*
X77575010Y-45423651D01*
X77575010Y-45692183D01*
X77677773Y-45940274D01*
X77867653Y-46130154D01*
X78115744Y-46232917D01*
X78384276Y-46232917D01*
X78632367Y-46130154D01*
X78822247Y-45940274D01*
X78842699Y-45890898D01*
X79255945Y-45890898D01*
X79255945Y-46159430D01*
X79358708Y-46407521D01*
X79548588Y-46597401D01*
X79796679Y-46700164D01*
X80065211Y-46700164D01*
X80313302Y-46597401D01*
X80503182Y-46407521D01*
X80605945Y-46159430D01*
X80605945Y-45890898D01*
X80503182Y-45642807D01*
X80313302Y-45452927D01*
X80065211Y-45350164D01*
X79796679Y-45350164D01*
X79548588Y-45452927D01*
X79358708Y-45642807D01*
X79255945Y-45890898D01*
X78842699Y-45890898D01*
X78925010Y-45692183D01*
X78925010Y-45423651D01*
X78822247Y-45175560D01*
X78772421Y-45125734D01*
X80635000Y-45125734D01*
X80635000Y-45394266D01*
X80737763Y-45642357D01*
X80927643Y-45832237D01*
X81175734Y-45935000D01*
X81444266Y-45935000D01*
X81563126Y-45885766D01*
X96125000Y-45885766D01*
X96125000Y-46154298D01*
X96227763Y-46402389D01*
X96417643Y-46592269D01*
X96665734Y-46695032D01*
X96934266Y-46695032D01*
X96989853Y-46672007D01*
X129391273Y-46672007D01*
X129391273Y-46940539D01*
X129494036Y-47188630D01*
X129683916Y-47378510D01*
X129932007Y-47481273D01*
X130200539Y-47481273D01*
X130448630Y-47378510D01*
X130638510Y-47188630D01*
X130741273Y-46940539D01*
X130741273Y-46672007D01*
X130638510Y-46423916D01*
X130448630Y-46234036D01*
X130428588Y-46225734D01*
X130785000Y-46225734D01*
X130785000Y-46494266D01*
X130887763Y-46742357D01*
X131077643Y-46932237D01*
X131325734Y-47035000D01*
X131594266Y-47035000D01*
X131842357Y-46932237D01*
X132032237Y-46742357D01*
X132135000Y-46494266D01*
X132135000Y-46225734D01*
X132032237Y-45977643D01*
X131842357Y-45787763D01*
X131594266Y-45685000D01*
X131325734Y-45685000D01*
X131077643Y-45787763D01*
X130887763Y-45977643D01*
X130785000Y-46225734D01*
X130428588Y-46225734D01*
X130200539Y-46131273D01*
X129932007Y-46131273D01*
X129683916Y-46234036D01*
X129494036Y-46423916D01*
X129391273Y-46672007D01*
X96989853Y-46672007D01*
X97182357Y-46592269D01*
X97372237Y-46402389D01*
X97475000Y-46154298D01*
X97475000Y-45885766D01*
X97372237Y-45637675D01*
X97230296Y-45495734D01*
X97635000Y-45495734D01*
X97635000Y-45764266D01*
X97737763Y-46012357D01*
X97927643Y-46202237D01*
X98175734Y-46305000D01*
X98444266Y-46305000D01*
X98692357Y-46202237D01*
X98882237Y-46012357D01*
X98985000Y-45764266D01*
X98985000Y-45495734D01*
X98882237Y-45247643D01*
X98692357Y-45057763D01*
X98444266Y-44955000D01*
X98175734Y-44955000D01*
X97927643Y-45057763D01*
X97737763Y-45247643D01*
X97635000Y-45495734D01*
X97230296Y-45495734D01*
X97182357Y-45447795D01*
X96934266Y-45345032D01*
X96665734Y-45345032D01*
X96417643Y-45447795D01*
X96227763Y-45637675D01*
X96125000Y-45885766D01*
X81563126Y-45885766D01*
X81692357Y-45832237D01*
X81882237Y-45642357D01*
X81985000Y-45394266D01*
X81985000Y-45125734D01*
X81882237Y-44877643D01*
X81692357Y-44687763D01*
X81444266Y-44585000D01*
X81175734Y-44585000D01*
X80927643Y-44687763D01*
X80737763Y-44877643D01*
X80635000Y-45125734D01*
X78772421Y-45125734D01*
X78632367Y-44985680D01*
X78384276Y-44882917D01*
X78115744Y-44882917D01*
X77867653Y-44985680D01*
X77677773Y-45175560D01*
X77575010Y-45423651D01*
X54850000Y-45423651D01*
X54850000Y-43645734D01*
X79235000Y-43645734D01*
X79235000Y-43914266D01*
X79337763Y-44162357D01*
X79527643Y-44352237D01*
X79775734Y-44455000D01*
X80044266Y-44455000D01*
X80139062Y-44415734D01*
X82275000Y-44415734D01*
X82275000Y-44684266D01*
X82377763Y-44932357D01*
X82567643Y-45122237D01*
X82815734Y-45225000D01*
X83084266Y-45225000D01*
X83332357Y-45122237D01*
X83522237Y-44932357D01*
X83541548Y-44885734D01*
X99515002Y-44885734D01*
X99515002Y-45154266D01*
X99617765Y-45402357D01*
X99807645Y-45592237D01*
X100055736Y-45695000D01*
X100324268Y-45695000D01*
X100572359Y-45592237D01*
X100762239Y-45402357D01*
X100865002Y-45154266D01*
X100865002Y-44885734D01*
X100762239Y-44637643D01*
X100600330Y-44475734D01*
X101425000Y-44475734D01*
X101425000Y-44744266D01*
X101527763Y-44992357D01*
X101717643Y-45182237D01*
X101965734Y-45285000D01*
X102234266Y-45285000D01*
X102482357Y-45182237D01*
X102672237Y-44992357D01*
X102775000Y-44744266D01*
X102775000Y-44475734D01*
X102672237Y-44227643D01*
X102482357Y-44037763D01*
X102234266Y-43935000D01*
X101965734Y-43935000D01*
X101717643Y-44037763D01*
X101527763Y-44227643D01*
X101425000Y-44475734D01*
X100600330Y-44475734D01*
X100572359Y-44447763D01*
X100324268Y-44345000D01*
X100055736Y-44345000D01*
X99807645Y-44447763D01*
X99617765Y-44637643D01*
X99515002Y-44885734D01*
X83541548Y-44885734D01*
X83625000Y-44684266D01*
X83625000Y-44415734D01*
X83522237Y-44167643D01*
X83332357Y-43977763D01*
X83084266Y-43875000D01*
X82815734Y-43875000D01*
X82567643Y-43977763D01*
X82377763Y-44167643D01*
X82275000Y-44415734D01*
X80139062Y-44415734D01*
X80292357Y-44352237D01*
X80482237Y-44162357D01*
X80585000Y-43914266D01*
X80585000Y-43645734D01*
X80482237Y-43397643D01*
X80292357Y-43207763D01*
X80044266Y-43105000D01*
X79775734Y-43105000D01*
X79527643Y-43207763D01*
X79337763Y-43397643D01*
X79235000Y-43645734D01*
X54850000Y-43645734D01*
X54850000Y-42250000D01*
X179350000Y-42250000D01*
X179350001Y-76800000D01*
G04 #@! TD*
M02*
